G04 Layer_Color=16711935*
%FSLAX24Y24*%
%MOIN*%
G70*
G01*
G75*
%ADD16C,0.0474*%
%ADD17C,0.0769*%
%ADD18C,0.0730*%
%ADD19C,0.1261*%
D16*
X9500Y5000D02*
D03*
X11000D02*
D03*
X12500D02*
D03*
X14000D02*
D03*
X15500D02*
D03*
X17000D02*
D03*
X18500D02*
D03*
X20000D02*
D03*
X25000Y18000D02*
D03*
Y16500D02*
D03*
Y15000D02*
D03*
Y13500D02*
D03*
Y12000D02*
D03*
X19500Y25000D02*
D03*
X18000D02*
D03*
X16500D02*
D03*
X15000D02*
D03*
X13500D02*
D03*
X12000D02*
D03*
X10500D02*
D03*
X5000Y7500D02*
D03*
Y9000D02*
D03*
Y10500D02*
D03*
Y12000D02*
D03*
Y13500D02*
D03*
Y15000D02*
D03*
Y21000D02*
D03*
Y16500D02*
D03*
Y22500D02*
D03*
Y19500D02*
D03*
Y18000D02*
D03*
D17*
X9500Y3500D02*
D03*
X11000D02*
D03*
X12500D02*
D03*
X14000D02*
D03*
X15500D02*
D03*
X17000D02*
D03*
X18500D02*
D03*
X20000D02*
D03*
X26500Y18000D02*
D03*
Y16500D02*
D03*
Y15000D02*
D03*
Y13500D02*
D03*
Y12000D02*
D03*
X19500Y26500D02*
D03*
X18000D02*
D03*
X16500D02*
D03*
X15000D02*
D03*
X13500D02*
D03*
X12000D02*
D03*
X10500D02*
D03*
X3500Y7500D02*
D03*
Y9000D02*
D03*
Y10500D02*
D03*
Y12000D02*
D03*
Y13500D02*
D03*
Y15000D02*
D03*
Y21000D02*
D03*
Y16500D02*
D03*
Y22500D02*
D03*
Y19500D02*
D03*
Y18000D02*
D03*
D18*
X16292Y18975D02*
D03*
X17457Y18382D02*
D03*
X18382Y17457D02*
D03*
X18975Y16292D02*
D03*
X19180Y15000D02*
D03*
X18975Y13708D02*
D03*
X18382Y12543D02*
D03*
X17457Y11618D02*
D03*
X16292Y11025D02*
D03*
X15000Y10820D02*
D03*
X13708Y11025D02*
D03*
X12543Y11618D02*
D03*
X11618Y12543D02*
D03*
X11025Y13708D02*
D03*
X10820Y15000D02*
D03*
X11025Y16292D02*
D03*
X11618Y17457D02*
D03*
X12543Y18382D02*
D03*
X13708Y18975D02*
D03*
X15000Y19180D02*
D03*
X16315Y17506D02*
D03*
X17329Y16607D02*
D03*
X17809Y15341D02*
D03*
X17646Y13996D02*
D03*
X16877Y12882D02*
D03*
X15677Y12252D02*
D03*
X14323Y12252D02*
D03*
X13123Y12882D02*
D03*
X12354Y13997D02*
D03*
X12191Y15341D02*
D03*
X12671Y16608D02*
D03*
X13685Y17506D02*
D03*
X15000Y17830D02*
D03*
X16173Y15935D02*
D03*
X16462Y14666D02*
D03*
X15651Y13649D02*
D03*
X14349Y13649D02*
D03*
X13538Y14666D02*
D03*
X13827Y15935D02*
D03*
X15000Y16500D02*
D03*
Y15000D02*
D03*
D19*
X8551Y21449D02*
D03*
X21449D02*
D03*
Y8551D02*
D03*
X8551D02*
D03*
M02*
