G04 Layer_Color=65535*
%FSLAX24Y24*%
%MOIN*%
G70*
G01*
G75*
%ADD10C,0.0100*%
%ADD11C,0.0080*%
D10*
X24064Y18378D02*
G03*
X18378Y24064I-9064J-3378D01*
G01*
X14410Y20399D02*
G03*
X15590Y20399I590J-5399D01*
G01*
X21251Y15000D02*
G03*
X21251Y15000I-6251J0D01*
G01*
X18377Y5940D02*
G03*
X24060Y11623I-3377J9060D01*
G01*
X5937Y11622D02*
G03*
X11622Y5937I9063J3378D01*
G01*
X11632Y24063D02*
G03*
X5937Y18368I3368J-9063D01*
G01*
X9500Y4000D02*
Y4650D01*
X11000Y4000D02*
Y4650D01*
X12500Y4000D02*
Y4650D01*
X14000Y4000D02*
Y4650D01*
X15500Y4000D02*
Y4650D01*
X17000Y4000D02*
Y4650D01*
X18500Y4000D02*
Y4650D01*
X20000Y4000D02*
Y4650D01*
X25350Y18000D02*
X26000D01*
X25350Y16500D02*
X26000D01*
X25350Y15000D02*
X26000D01*
X25350Y13500D02*
X26000D01*
X25350Y12000D02*
X26000D01*
X19500Y25350D02*
Y26000D01*
X18000Y25350D02*
Y26000D01*
X16500Y25350D02*
Y26000D01*
X15000Y25350D02*
Y26000D01*
X13500Y25350D02*
Y26000D01*
X12000Y25350D02*
Y26000D01*
X10500Y25350D02*
Y26000D01*
X24063Y11622D02*
Y18378D01*
X5937Y11622D02*
Y18368D01*
X11622Y5937D02*
X18378D01*
X11632Y24063D02*
X18378D01*
X15591Y20404D02*
Y20797D01*
X14409D02*
X15591D01*
X14409Y20404D02*
Y20797D01*
X4000Y7500D02*
X4650D01*
X4000Y9000D02*
X4650D01*
X4000Y10500D02*
X4650D01*
X4000Y12000D02*
X4650D01*
X4000Y13500D02*
X4650D01*
X4000Y15000D02*
X4650D01*
X4000Y21000D02*
X4650D01*
X4000Y16500D02*
X4650D01*
X4000Y22500D02*
X4650D01*
X4000Y19500D02*
X4650D01*
X4000Y18000D02*
X4650D01*
X27650Y16850D02*
X27450D01*
X27550D01*
Y16350D01*
X27450Y16250D01*
X27350D01*
X27250Y16350D01*
X28250Y16850D02*
X27850D01*
Y16550D01*
X28050Y16650D01*
X28150D01*
X28250Y16550D01*
Y16350D01*
X28150Y16250D01*
X27950D01*
X27850Y16350D01*
X16150Y27650D02*
Y27450D01*
Y27550D01*
X16650D01*
X16750Y27450D01*
Y27350D01*
X16650Y27250D01*
X16750Y28250D02*
Y27850D01*
X16350Y28250D01*
X16250D01*
X16150Y28150D01*
Y27950D01*
X16250Y27850D01*
X1650Y18350D02*
X1450D01*
X1550D01*
Y17850D01*
X1450Y17750D01*
X1350D01*
X1250Y17850D01*
X1850Y17750D02*
X2050D01*
X1950D01*
Y18350D01*
X1850Y18250D01*
X27650Y13850D02*
X27450D01*
X27550D01*
Y13350D01*
X27450Y13250D01*
X27350D01*
X27250Y13350D01*
X28250Y13850D02*
X28050Y13750D01*
X27850Y13550D01*
Y13350D01*
X27950Y13250D01*
X28150D01*
X28250Y13350D01*
Y13450D01*
X28150Y13550D01*
X27850D01*
X27650Y12350D02*
X27450D01*
X27550D01*
Y11850D01*
X27450Y11750D01*
X27350D01*
X27250Y11850D01*
X27850Y12350D02*
X28250D01*
Y12250D01*
X27850Y11850D01*
Y11750D01*
X27650Y15350D02*
X27450D01*
X27550D01*
Y14850D01*
X27450Y14750D01*
X27350D01*
X27250Y14850D01*
X28250Y14750D02*
X27850D01*
X28250Y15150D01*
Y15250D01*
X28150Y15350D01*
X27950D01*
X27850Y15250D01*
X28450D02*
X28550Y15350D01*
X28750D01*
X28849Y15250D01*
Y14850D01*
X28750Y14750D01*
X28550D01*
X28450Y14850D01*
Y15250D01*
X15850Y2350D02*
Y2550D01*
Y2450D01*
X15350D01*
X15250Y2550D01*
Y2650D01*
X15350Y2750D01*
Y2150D02*
X15250Y2050D01*
Y1850D01*
X15350Y1750D01*
X15750D01*
X15850Y1850D01*
Y2050D01*
X15750Y2150D01*
X15650D01*
X15550Y2050D01*
Y1750D01*
X12850Y2350D02*
Y2550D01*
Y2450D01*
X12350D01*
X12250Y2550D01*
Y2650D01*
X12350Y2750D01*
X12250Y2150D02*
Y1950D01*
Y2050D01*
X12850D01*
X12750Y2150D01*
Y1650D02*
X12850Y1550D01*
Y1350D01*
X12750Y1250D01*
X12350D01*
X12250Y1350D01*
Y1550D01*
X12350Y1650D01*
X12750D01*
X9850Y2350D02*
Y2550D01*
Y2450D01*
X9350D01*
X9250Y2550D01*
Y2650D01*
X9350Y2750D01*
X9250Y2150D02*
Y1950D01*
Y2050D01*
X9850D01*
X9750Y2150D01*
X9250Y1650D02*
Y1450D01*
Y1550D01*
X9850D01*
X9750Y1650D01*
X1650Y9350D02*
X1450D01*
X1550D01*
Y8850D01*
X1450Y8750D01*
X1350D01*
X1250Y8850D01*
X1850Y8750D02*
X2050D01*
X1950D01*
Y9350D01*
X1850Y9250D01*
X2750Y8750D02*
X2350D01*
X2750Y9150D01*
Y9250D01*
X2650Y9350D01*
X2450D01*
X2350Y9250D01*
X1650Y12350D02*
X1450D01*
X1550D01*
Y11850D01*
X1450Y11750D01*
X1350D01*
X1250Y11850D01*
X1850Y11750D02*
X2050D01*
X1950D01*
Y12350D01*
X1850Y12250D01*
X2350D02*
X2450Y12350D01*
X2650D01*
X2750Y12250D01*
Y12150D01*
X2650Y12050D01*
X2550D01*
X2650D01*
X2750Y11950D01*
Y11850D01*
X2650Y11750D01*
X2450D01*
X2350Y11850D01*
X1650Y15350D02*
X1450D01*
X1550D01*
Y14850D01*
X1450Y14750D01*
X1350D01*
X1250Y14850D01*
X1850Y14750D02*
X2050D01*
X1950D01*
Y15350D01*
X1850Y15250D01*
X2650Y14750D02*
Y15350D01*
X2350Y15050D01*
X2750D01*
X1650Y19850D02*
X1450D01*
X1550D01*
Y19350D01*
X1450Y19250D01*
X1350D01*
X1250Y19350D01*
X1850Y19250D02*
X2050D01*
X1950D01*
Y19850D01*
X1850Y19750D01*
X2750Y19850D02*
X2350D01*
Y19550D01*
X2550Y19650D01*
X2650D01*
X2750Y19550D01*
Y19350D01*
X2650Y19250D01*
X2450D01*
X2350Y19350D01*
X1650Y22850D02*
X1450D01*
X1550D01*
Y22350D01*
X1450Y22250D01*
X1350D01*
X1250Y22350D01*
X1850Y22250D02*
X2050D01*
X1950D01*
Y22850D01*
X1850Y22750D01*
X2750Y22850D02*
X2550Y22750D01*
X2350Y22550D01*
Y22350D01*
X2450Y22250D01*
X2650D01*
X2750Y22350D01*
Y22450D01*
X2650Y22550D01*
X2350D01*
X10150Y27650D02*
Y27450D01*
Y27550D01*
X10650D01*
X10750Y27450D01*
Y27350D01*
X10650Y27250D01*
X10750Y27850D02*
Y28050D01*
Y27950D01*
X10150D01*
X10250Y27850D01*
X10150Y28350D02*
Y28750D01*
X10250D01*
X10650Y28350D01*
X10750D01*
X13150Y27650D02*
Y27450D01*
Y27550D01*
X13650D01*
X13750Y27450D01*
Y27350D01*
X13650Y27250D01*
X13750Y27850D02*
Y28050D01*
Y27950D01*
X13150D01*
X13250Y27850D01*
Y28350D02*
X13150Y28450D01*
Y28650D01*
X13250Y28750D01*
X13350D01*
X13450Y28650D01*
X13550Y28750D01*
X13650D01*
X13750Y28650D01*
Y28450D01*
X13650Y28350D01*
X13550D01*
X13450Y28450D01*
X13350Y28350D01*
X13250D01*
X13450Y28450D02*
Y28650D01*
X14650Y27650D02*
Y27450D01*
Y27550D01*
X15150D01*
X15250Y27450D01*
Y27350D01*
X15150Y27250D01*
X15250Y27850D02*
Y28050D01*
Y27950D01*
X14650D01*
X14750Y27850D01*
X15150Y28350D02*
X15250Y28450D01*
Y28650D01*
X15150Y28750D01*
X14750D01*
X14650Y28650D01*
Y28450D01*
X14750Y28350D01*
X14850D01*
X14950Y28450D01*
Y28750D01*
X17350Y2350D02*
Y2550D01*
Y2450D01*
X16850D01*
X16750Y2550D01*
Y2650D01*
X16850Y2750D01*
X16750Y1750D02*
Y2150D01*
X17150Y1750D01*
X17250D01*
X17350Y1850D01*
Y2050D01*
X17250Y2150D01*
X16750Y1550D02*
Y1350D01*
Y1450D01*
X17350D01*
X17250Y1550D01*
X14350Y2350D02*
Y2550D01*
Y2450D01*
X13850D01*
X13750Y2550D01*
Y2650D01*
X13850Y2750D01*
X13750Y1750D02*
Y2150D01*
X14150Y1750D01*
X14250D01*
X14350Y1850D01*
Y2050D01*
X14250Y2150D01*
X13750Y1151D02*
Y1550D01*
X14150Y1151D01*
X14250D01*
X14350Y1250D01*
Y1450D01*
X14250Y1550D01*
X1650Y7850D02*
X1450D01*
X1550D01*
Y7350D01*
X1450Y7250D01*
X1350D01*
X1250Y7350D01*
X2250Y7250D02*
X1850D01*
X2250Y7650D01*
Y7750D01*
X2150Y7850D01*
X1950D01*
X1850Y7750D01*
X2450D02*
X2550Y7850D01*
X2750D01*
X2849Y7750D01*
Y7650D01*
X2750Y7550D01*
X2650D01*
X2750D01*
X2849Y7450D01*
Y7350D01*
X2750Y7250D01*
X2550D01*
X2450Y7350D01*
X1650Y10850D02*
X1450D01*
X1550D01*
Y10350D01*
X1450Y10250D01*
X1350D01*
X1250Y10350D01*
X2250Y10250D02*
X1850D01*
X2250Y10650D01*
Y10750D01*
X2150Y10850D01*
X1950D01*
X1850Y10750D01*
X2750Y10250D02*
Y10850D01*
X2450Y10550D01*
X2849D01*
X1650Y16850D02*
X1450D01*
X1550D01*
Y16350D01*
X1450Y16250D01*
X1350D01*
X1250Y16350D01*
X2250Y16250D02*
X1850D01*
X2250Y16650D01*
Y16750D01*
X2150Y16850D01*
X1950D01*
X1850Y16750D01*
X2849Y16850D02*
X2450D01*
Y16550D01*
X2650Y16650D01*
X2750D01*
X2849Y16550D01*
Y16350D01*
X2750Y16250D01*
X2550D01*
X2450Y16350D01*
X1650Y21350D02*
X1450D01*
X1550D01*
Y20850D01*
X1450Y20750D01*
X1350D01*
X1250Y20850D01*
X2250Y20750D02*
X1850D01*
X2250Y21150D01*
Y21250D01*
X2150Y21350D01*
X1950D01*
X1850Y21250D01*
X2849Y21350D02*
X2650Y21250D01*
X2450Y21050D01*
Y20850D01*
X2550Y20750D01*
X2750D01*
X2849Y20850D01*
Y20950D01*
X2750Y21050D01*
X2450D01*
X11650Y27650D02*
Y27450D01*
Y27550D01*
X12150D01*
X12250Y27450D01*
Y27350D01*
X12150Y27250D01*
X12250Y28250D02*
Y27850D01*
X11850Y28250D01*
X11750D01*
X11650Y28150D01*
Y27950D01*
X11750Y27850D01*
X11650Y28450D02*
Y28849D01*
X11750D01*
X12150Y28450D01*
X12250D01*
X17650Y27650D02*
Y27450D01*
Y27550D01*
X18150D01*
X18250Y27450D01*
Y27350D01*
X18150Y27250D01*
X18250Y28250D02*
Y27850D01*
X17850Y28250D01*
X17750D01*
X17650Y28150D01*
Y27950D01*
X17750Y27850D01*
Y28450D02*
X17650Y28550D01*
Y28750D01*
X17750Y28849D01*
X17850D01*
X17950Y28750D01*
X18050Y28849D01*
X18150D01*
X18250Y28750D01*
Y28550D01*
X18150Y28450D01*
X18050D01*
X17950Y28550D01*
X17850Y28450D01*
X17750D01*
X17950Y28550D02*
Y28750D01*
X20350Y2350D02*
Y2550D01*
Y2450D01*
X19850D01*
X19750Y2550D01*
Y2650D01*
X19850Y2750D01*
X19750Y1750D02*
Y2150D01*
X20150Y1750D01*
X20250D01*
X20350Y1850D01*
Y2050D01*
X20250Y2150D01*
X19850Y1550D02*
X19750Y1450D01*
Y1250D01*
X19850Y1151D01*
X20250D01*
X20350Y1250D01*
Y1450D01*
X20250Y1550D01*
X20150D01*
X20050Y1450D01*
Y1151D01*
X11350Y2350D02*
Y2550D01*
Y2450D01*
X10850D01*
X10750Y2550D01*
Y2650D01*
X10850Y2750D01*
X11250Y2150D02*
X11350Y2050D01*
Y1850D01*
X11250Y1750D01*
X11150D01*
X11050Y1850D01*
Y1950D01*
Y1850D01*
X10950Y1750D01*
X10850D01*
X10750Y1850D01*
Y2050D01*
X10850Y2150D01*
X11250Y1550D02*
X11350Y1450D01*
Y1250D01*
X11250Y1151D01*
X10850D01*
X10750Y1250D01*
Y1450D01*
X10850Y1550D01*
X11250D01*
X1650Y13850D02*
X1450D01*
X1550D01*
Y13350D01*
X1450Y13250D01*
X1350D01*
X1250Y13350D01*
X1850Y13750D02*
X1950Y13850D01*
X2150D01*
X2250Y13750D01*
Y13650D01*
X2150Y13550D01*
X2050D01*
X2150D01*
X2250Y13450D01*
Y13350D01*
X2150Y13250D01*
X1950D01*
X1850Y13350D01*
X2450Y13250D02*
X2650D01*
X2550D01*
Y13850D01*
X2450Y13750D01*
X18850Y2350D02*
Y2550D01*
Y2450D01*
X18350D01*
X18250Y2550D01*
Y2650D01*
X18350Y2750D01*
X18750Y2150D02*
X18850Y2050D01*
Y1850D01*
X18750Y1750D01*
X18650D01*
X18550Y1850D01*
X18450Y1750D01*
X18350D01*
X18250Y1850D01*
Y2050D01*
X18350Y2150D01*
X18450D01*
X18550Y2050D01*
X18650Y2150D01*
X18750D01*
X18550Y2050D02*
Y1850D01*
X27650Y18350D02*
X27450D01*
X27550D01*
Y17850D01*
X27450Y17750D01*
X27350D01*
X27250Y17850D01*
X28150Y17750D02*
Y18350D01*
X27850Y18050D01*
X28250D01*
X19150Y27650D02*
Y27450D01*
Y27550D01*
X19650D01*
X19750Y27450D01*
Y27350D01*
X19650Y27250D01*
X19250Y27850D02*
X19150Y27950D01*
Y28150D01*
X19250Y28250D01*
X19350D01*
X19450Y28150D01*
Y28050D01*
Y28150D01*
X19550Y28250D01*
X19650D01*
X19750Y28150D01*
Y27950D01*
X19650Y27850D01*
X7750Y22500D02*
Y23100D01*
X8050D01*
X8150Y23000D01*
Y22800D01*
X8050Y22700D01*
X7750D01*
X8350Y22500D02*
X8550D01*
X8450D01*
Y23100D01*
X8350Y23000D01*
D11*
X8391Y15100D02*
X8291Y15200D01*
X8091D01*
X7991Y15100D01*
Y15000D01*
X8091Y14900D01*
X8291D01*
X8391Y14800D01*
Y14700D01*
X8291Y14600D01*
X8091D01*
X7991Y14700D01*
X14791Y21700D02*
Y22100D01*
X14991Y22300D01*
X15191Y22100D01*
Y21700D01*
Y22000D01*
X14791D01*
M02*
