M48
;Layer_Color=9474304
;FILE_FORMAT=2:3
INCH,LZ
;TYPE=PLATED
T1F00S00C0.010
T2F00S00C0.028
T3F00S00C0.035
T4F00S00C0.039
T5F00S00C0.040
T6F00S00C0.047
T7F00S00C0.052
T8F00S00C0.060
T9F00S00C0.070
T10F00S00C0.071
T11F00S00C0.125
%
T01
X03042Y00458
X04112Y01329
X04466Y00488
X05608Y01262
X05513Y01505
X05829Y01262
X06149Y00662
X0648Y00944
X07383Y00494
X07523Y00445
X07519Y00597
X07494Y00624
X07621Y00598
X07723Y00624
X07769Y00444
X07922Y00492
X07462Y0187
X07312Y03063
X06916Y03064
X06857
X06798
X06739
X06503Y03102
X06555Y02967
X06204Y0303
X06145Y0303
X06086Y0303
X06027Y0303
X06007Y03089
X06066
X06125
X06184
X05837Y0291
X05788Y02932
X05456Y0301
X05397Y0301
X05338Y0301
X05279Y0301
X05259Y03069
X05318
X05377
X05437
X04489Y02969
X05632Y02049
Y01919
X05697Y01909
X05509Y01595
X04084Y02011
X03165Y0223
X03165Y02289
X03165Y02348
X03165Y02407
X03106Y02387
Y02328
Y02269
Y0221
X03047Y0223
X03047Y02289
X03047Y02348
X03047Y02407
X02988Y02387
X02988Y02328
Y02269
Y0221
X03017Y02793
X02987Y02902
Y02961
Y0302
X02987Y03079
X03046Y03099
X03046Y0304
X03046Y02981
X03046Y02922
X03105Y02902
Y02961
Y0302
Y03079
X03164Y03099
X03164Y0304
X03164Y02981
X03164Y02922
X03295Y02835
X00466Y02753
X00675Y02176
X03506Y03369
Y03436
X0398Y03368
X04088Y03434
X04308Y03537
X05259Y03187
X05318
X05377
X05437Y03187
X05456Y03128
X05397Y03128
X05338Y03128
X05279Y03128
X06027Y03148
X06086Y03148
X06145Y03148
X06204Y03148
X06184Y03207
X06125Y03207
X06066
X06007
X06024Y03733
X06719Y03241
X06778
X06837
X06896
X06916Y03182
X06857
X06798
X06739
X06719Y03123
X06778
X06837
X06896
T02
X0075Y00175
X00975Y01192
X00243Y01061
X0135Y00973
X01501Y00897
X01627Y00749
X01375Y0065
X01801Y01192
X02196Y01475
X02276Y00816
X02681Y0069
X02626Y00197
X034Y00723
X03887Y0072
X04148Y00717
X056Y01351
X06432Y01231
X06347Y0106
X06237Y00515
X06571Y00202
X07304Y00913
X07228Y01869
X07195Y02091
X07065Y02002
X07266Y02417
X06291Y0255
X063Y02011
Y01755
X05916Y01834
X0585Y01657
X05481Y02391
X05561Y02547
X04564Y02774
X03896Y02534
X03146Y02644
X03508Y02036
X01525Y01931
X0078
X00725Y01694
X00262Y0162
X003Y01869
T03
X07092Y00694
Y00794
X07086Y015
Y016
T04
X00267Y00584
Y00684
Y00784
Y00884
X00367Y00934
Y00834
Y00734
Y00634
Y00534
X00567
Y00634
Y00734
Y00834
Y00934
X00667Y00884
Y00784
Y00684
Y00584
X00689Y02384
X00789
X00589
T05
X07547Y01869
X07647
X07747
X07847
Y01969
X07747
X07647
X07547
Y02069
X07647
X07747
X07847
X06884Y02765
X06784
X06684
X0618Y02748
X0608
X0598
X05424Y02739
X05324
X05224
X03401Y0286
Y0296
Y0306
X03404Y02373
Y02273
Y02173
T06
X0287Y02172
Y02368
X028Y02869
Y03066
X02401Y0248
Y0208
X01772Y03001
Y03197
X052Y03408
X05396
X05996Y03421
X06193
X0666Y03447
X06857
T07
X0033Y00276
X07132Y00382
X08004Y00701
X07847Y01344
X07747
X07647
X07547
Y01444
X07647
X07747
X07847
Y01594
X07747
X07647
X07547
Y01694
X07647
X07747
X07847
Y02244
Y02344
X07747
X07647
X07547
Y02244
X07647
X07747
Y02494
Y02594
X07847
Y02494
X07647
Y02594
X07547
Y02494
X07081Y01833
X01822Y03647
X0114Y03521
X0504Y03649
X05711Y03606
X06404Y03607
X07264Y03597
X07561Y03636
X07822Y03638
X07635Y03292
T08
X015Y0034
X018
X022
X025
X03498
X03798
X04198
X04498
X05224Y00891
Y01191
X06824
Y00891
Y01591
Y01891
X07044Y02857
X06524
X0634Y0284
X0582
X05584Y02831
X05064
X049Y0267
Y0242
Y0302
X05224Y01891
Y01591
X04498Y0175
X04198
X03798
X03498
X03312Y02013
Y02533
X03309Y027
X0365Y0267
Y0242
Y0302
X025Y0175
X022
X018
X015
X03309Y0322
X0365Y0327
X049
T09
X02285Y03598
X02441
X02597
X02753
X02909
X03065
X03221
X03377
T10
X01501Y0208
X01801
Y0248
X01501
T11
X01189Y0252
X00189
M30
