%FSLAX23Y23*%
%MOIN*%
G70*
G01*
G75*
G04 Layer_Color=32896*
%ADD10R,0.012X0.065*%
%ADD11R,0.217X0.120*%
%ADD12R,0.065X0.012*%
%ADD13R,0.075X0.037*%
%ADD14R,0.272X0.268*%
%ADD15R,0.035X0.037*%
%ADD16R,0.035X0.037*%
%ADD17R,0.085X0.138*%
%ADD18R,0.085X0.043*%
%ADD19R,0.085X0.043*%
%ADD20O,0.028X0.098*%
%ADD21R,0.280X0.100*%
%ADD22R,0.070X0.135*%
%ADD23R,0.050X0.050*%
%ADD24O,0.087X0.024*%
%ADD25O,0.098X0.028*%
%ADD26R,0.045X0.017*%
%ADD27R,0.591X0.010*%
%ADD28R,0.012X0.105*%
%ADD29R,0.063X0.051*%
%ADD30R,0.063X0.079*%
%ADD31R,0.050X0.050*%
%ADD32C,0.010*%
%ADD33C,0.050*%
%ADD34C,0.020*%
%ADD35C,0.075*%
%ADD36C,0.012*%
%ADD37C,0.008*%
%ADD38C,0.012*%
%ADD39C,0.012*%
%ADD40R,0.060X0.060*%
%ADD41C,0.060*%
%ADD42C,0.024*%
%ADD43C,0.020*%
%ADD44C,0.115*%
%ADD45R,0.115X0.115*%
%ADD46C,0.080*%
%ADD47C,0.055*%
%ADD48R,0.059X0.059*%
%ADD49C,0.059*%
%ADD50C,0.120*%
%ADD51R,0.120X0.120*%
%ADD52R,0.079X0.079*%
%ADD53C,0.079*%
%ADD54C,0.010*%
%ADD55C,0.050*%
%ADD56C,0.040*%
%ADD57C,0.070*%
%ADD58C,0.054*%
%ADD59C,0.118*%
G04:AMPARAMS|DCode=60|XSize=138mil|YSize=138mil|CornerRadius=0mil|HoleSize=0mil|Usage=FLASHONLY|Rotation=0.000|XOffset=0mil|YOffset=0mil|HoleType=Round|Shape=Relief|Width=10mil|Gap=10mil|Entries=4|*
%AMTHD60*
7,0,0,0.138,0.118,0.010,45*
%
%ADD60THD60*%
G04:AMPARAMS|DCode=61|XSize=112mil|YSize=112mil|CornerRadius=0mil|HoleSize=0mil|Usage=FLASHONLY|Rotation=0.000|XOffset=0mil|YOffset=0mil|HoleType=Round|Shape=Relief|Width=10mil|Gap=10mil|Entries=4|*
%AMTHD61*
7,0,0,0.112,0.092,0.010,45*
%
%ADD61THD61*%
%ADD62C,0.073*%
%ADD63C,0.075*%
%ADD64C,0.110*%
G04:AMPARAMS|DCode=65|XSize=107.244mil|YSize=107.244mil|CornerRadius=0mil|HoleSize=0mil|Usage=FLASHONLY|Rotation=0.000|XOffset=0mil|YOffset=0mil|HoleType=Round|Shape=Relief|Width=10mil|Gap=10mil|Entries=4|*
%AMTHD65*
7,0,0,0.107,0.087,0.010,45*
%
%ADD65THD65*%
%ADD66C,0.087*%
%ADD67C,0.092*%
%ADD68C,0.046*%
%ADD69C,0.064*%
G04:AMPARAMS|DCode=70|XSize=70mil|YSize=70mil|CornerRadius=0mil|HoleSize=0mil|Usage=FLASHONLY|Rotation=0.000|XOffset=0mil|YOffset=0mil|HoleType=Round|Shape=Relief|Width=10mil|Gap=10mil|Entries=4|*
%AMTHD70*
7,0,0,0.070,0.050,0.010,45*
%
%ADD70THD70*%
G04:AMPARAMS|DCode=71|XSize=88mil|YSize=88mil|CornerRadius=0mil|HoleSize=0mil|Usage=FLASHONLY|Rotation=0.000|XOffset=0mil|YOffset=0mil|HoleType=Round|Shape=Relief|Width=10mil|Gap=10mil|Entries=4|*
%AMTHD71*
7,0,0,0.088,0.068,0.010,45*
%
%ADD71THD71*%
%ADD72C,0.068*%
%ADD73C,0.000*%
G04:AMPARAMS|DCode=74|XSize=90mil|YSize=90mil|CornerRadius=0mil|HoleSize=0mil|Usage=FLASHONLY|Rotation=0.000|XOffset=0mil|YOffset=0mil|HoleType=Round|Shape=Relief|Width=10mil|Gap=10mil|Entries=4|*
%AMTHD74*
7,0,0,0.090,0.070,0.010,45*
%
%ADD74THD74*%
G04:AMPARAMS|DCode=75|XSize=93.465mil|YSize=93.465mil|CornerRadius=0mil|HoleSize=0mil|Usage=FLASHONLY|Rotation=0.000|XOffset=0mil|YOffset=0mil|HoleType=Round|Shape=Relief|Width=10mil|Gap=10mil|Entries=4|*
%AMTHD75*
7,0,0,0.093,0.073,0.010,45*
%
%ADD75THD75*%
G04:AMPARAMS|DCode=76|XSize=95.433mil|YSize=95.433mil|CornerRadius=0mil|HoleSize=0mil|Usage=FLASHONLY|Rotation=0.000|XOffset=0mil|YOffset=0mil|HoleType=Round|Shape=Relief|Width=10mil|Gap=10mil|Entries=4|*
%AMTHD76*
7,0,0,0.095,0.075,0.010,45*
%
%ADD76THD76*%
G04:AMPARAMS|DCode=77|XSize=130mil|YSize=130mil|CornerRadius=0mil|HoleSize=0mil|Usage=FLASHONLY|Rotation=0.000|XOffset=0mil|YOffset=0mil|HoleType=Round|Shape=Relief|Width=10mil|Gap=10mil|Entries=4|*
%AMTHD77*
7,0,0,0.130,0.110,0.010,45*
%
%ADD77THD77*%
%ADD78C,0.005*%
%ADD79R,0.071X0.126*%
%ADD80C,0.006*%
%ADD81C,0.008*%
%ADD82C,0.010*%
%ADD83R,0.189X0.116*%
%ADD84R,0.012X0.075*%
%ADD85R,0.012X0.060*%
%ADD86R,0.020X0.073*%
%ADD87R,0.225X0.128*%
%ADD88R,0.073X0.020*%
%ADD89R,0.083X0.045*%
%ADD90R,0.280X0.276*%
%ADD91R,0.043X0.045*%
%ADD92R,0.043X0.045*%
%ADD93R,0.093X0.146*%
%ADD94R,0.093X0.051*%
%ADD95R,0.093X0.051*%
%ADD96O,0.036X0.106*%
%ADD97R,0.288X0.108*%
%ADD98R,0.078X0.143*%
%ADD99R,0.058X0.058*%
%ADD100O,0.095X0.032*%
%ADD101O,0.106X0.036*%
%ADD102R,0.053X0.025*%
%ADD103R,0.599X0.018*%
%ADD104R,0.005X0.098*%
%ADD105R,0.071X0.059*%
%ADD106R,0.071X0.087*%
%ADD107R,0.058X0.058*%
%ADD108R,0.068X0.068*%
%ADD109C,0.032*%
%ADD110C,0.028*%
%ADD111C,0.123*%
%ADD112R,0.123X0.123*%
%ADD113C,0.088*%
%ADD114C,0.063*%
%ADD115R,0.067X0.067*%
%ADD116C,0.067*%
%ADD117C,0.128*%
%ADD118R,0.128X0.128*%
%ADD119R,0.087X0.087*%
%ADD120C,0.087*%
%ADD121C,0.018*%
%ADD122C,0.058*%
%ADD123R,1.016X0.295*%
%ADD124R,0.079X0.134*%
D32*
X42535Y26743D02*
Y26943D01*
X44550Y26743D02*
Y26943D01*
X42535D02*
X44550D01*
D36*
X42307Y25217D02*
Y25172D01*
X42288Y25206D02*
X42326Y25183D01*
Y25206D02*
X42288Y25183D01*
X42400Y25198D02*
X42396Y25206D01*
X42388Y25213D01*
X42381Y25217D01*
X42365D01*
X42358Y25213D01*
X42350Y25206D01*
X42346Y25198D01*
X42343Y25187D01*
Y25168D01*
X42346Y25156D01*
X42350Y25149D01*
X42358Y25141D01*
X42365Y25137D01*
X42381D01*
X42388Y25141D01*
X42396Y25149D01*
X42400Y25156D01*
Y25168D01*
X42381D02*
X42400D01*
X42418Y25217D02*
Y25137D01*
Y25217D02*
X42452D01*
X42464Y25213D01*
X42467Y25210D01*
X42471Y25202D01*
Y25194D01*
X42467Y25187D01*
X42464Y25183D01*
X42452Y25179D01*
X42418D02*
X42452D01*
X42464Y25175D01*
X42467Y25172D01*
X42471Y25164D01*
Y25152D01*
X42467Y25145D01*
X42464Y25141D01*
X42452Y25137D01*
X42418D01*
X42512Y25217D02*
X42504Y25213D01*
X42497Y25206D01*
X42493Y25198D01*
X42489Y25187D01*
Y25168D01*
X42493Y25156D01*
X42497Y25149D01*
X42504Y25141D01*
X42512Y25137D01*
X42527D01*
X42535Y25141D01*
X42542Y25149D01*
X42546Y25156D01*
X42550Y25168D01*
Y25187D01*
X42546Y25198D01*
X42542Y25206D01*
X42535Y25213D01*
X42527Y25217D01*
X42512D01*
X42632Y25172D02*
X42700D01*
X42787Y25217D02*
Y25137D01*
Y25217D02*
X42821D01*
X42832Y25213D01*
X42836Y25210D01*
X42840Y25202D01*
Y25194D01*
X42836Y25187D01*
X42832Y25183D01*
X42821Y25179D01*
X42787D02*
X42821D01*
X42832Y25175D01*
X42836Y25172D01*
X42840Y25164D01*
Y25152D01*
X42836Y25145D01*
X42832Y25141D01*
X42821Y25137D01*
X42787D01*
X42881Y25217D02*
X42873Y25213D01*
X42865Y25206D01*
X42862Y25198D01*
X42858Y25187D01*
Y25168D01*
X42862Y25156D01*
X42865Y25149D01*
X42873Y25141D01*
X42881Y25137D01*
X42896D01*
X42904Y25141D01*
X42911Y25149D01*
X42915Y25156D01*
X42919Y25168D01*
Y25187D01*
X42915Y25198D01*
X42911Y25206D01*
X42904Y25213D01*
X42896Y25217D01*
X42881D01*
X42964D02*
Y25137D01*
X42937Y25217D02*
X42991D01*
X43027D02*
Y25137D01*
X43000Y25217D02*
X43054D01*
X43086D02*
X43078Y25213D01*
X43071Y25206D01*
X43067Y25198D01*
X43063Y25187D01*
Y25168D01*
X43067Y25156D01*
X43071Y25149D01*
X43078Y25141D01*
X43086Y25137D01*
X43101D01*
X43109Y25141D01*
X43116Y25149D01*
X43120Y25156D01*
X43124Y25168D01*
Y25187D01*
X43120Y25198D01*
X43116Y25206D01*
X43109Y25213D01*
X43101Y25217D01*
X43086D01*
X43143D02*
Y25137D01*
Y25217D02*
X43173Y25137D01*
X43204Y25217D02*
X43173Y25137D01*
X43204Y25217D02*
Y25137D01*
X43312Y25217D02*
X43305Y25213D01*
X43297Y25206D01*
X43293Y25198D01*
X43289Y25187D01*
Y25168D01*
X43293Y25156D01*
X43297Y25149D01*
X43305Y25141D01*
X43312Y25137D01*
X43327D01*
X43335Y25141D01*
X43343Y25149D01*
X43347Y25156D01*
X43350Y25168D01*
Y25187D01*
X43347Y25198D01*
X43343Y25206D01*
X43335Y25213D01*
X43327Y25217D01*
X43312D01*
X43369D02*
X43399Y25137D01*
X43430Y25217D02*
X43399Y25137D01*
X43490Y25217D02*
X43440D01*
Y25137D01*
X43490D01*
X43440Y25179D02*
X43471D01*
X43503Y25217D02*
Y25137D01*
Y25217D02*
X43537D01*
X43549Y25213D01*
X43553Y25210D01*
X43556Y25202D01*
Y25194D01*
X43553Y25187D01*
X43549Y25183D01*
X43537Y25179D01*
X43503D01*
X43530D02*
X43556Y25137D01*
X43574Y25217D02*
Y25137D01*
X43620D01*
X43690D02*
X43659Y25217D01*
X43629Y25137D01*
X43640Y25164D02*
X43678D01*
X43708Y25217D02*
X43739Y25179D01*
Y25137D01*
X43769Y25217D02*
X43739Y25179D01*
X43900Y25198D02*
X43896Y25206D01*
X43888Y25213D01*
X43880Y25217D01*
X43865D01*
X43858Y25213D01*
X43850Y25206D01*
X43846Y25198D01*
X43842Y25187D01*
Y25168D01*
X43846Y25156D01*
X43850Y25149D01*
X43858Y25141D01*
X43865Y25137D01*
X43880D01*
X43888Y25141D01*
X43896Y25149D01*
X43900Y25156D01*
Y25168D01*
X43880D02*
X43900D01*
X43967Y25217D02*
X43918D01*
Y25137D01*
X43967D01*
X43918Y25179D02*
X43948D01*
X43981Y25217D02*
Y25137D01*
Y25217D02*
X44015D01*
X44026Y25213D01*
X44030Y25210D01*
X44034Y25202D01*
Y25194D01*
X44030Y25187D01*
X44026Y25183D01*
X44015Y25179D01*
X43981D01*
X44007D02*
X44034Y25137D01*
X44052Y25217D02*
Y25137D01*
Y25217D02*
X44086D01*
X44098Y25213D01*
X44101Y25210D01*
X44105Y25202D01*
Y25194D01*
X44101Y25187D01*
X44098Y25183D01*
X44086Y25179D01*
X44052D02*
X44086D01*
X44098Y25175D01*
X44101Y25172D01*
X44105Y25164D01*
Y25152D01*
X44101Y25145D01*
X44098Y25141D01*
X44086Y25137D01*
X44052D01*
X44173Y25217D02*
X44123D01*
Y25137D01*
X44173D01*
X44123Y25179D02*
X44154D01*
X44186Y25217D02*
Y25137D01*
Y25217D02*
X44220D01*
X44232Y25213D01*
X44235Y25210D01*
X44239Y25202D01*
Y25194D01*
X44235Y25187D01*
X44232Y25183D01*
X44220Y25179D01*
X44186D01*
X44213D02*
X44239Y25137D01*
X44320Y25217D02*
Y25137D01*
Y25217D02*
X44347D01*
X44358Y25213D01*
X44366Y25206D01*
X44370Y25198D01*
X44373Y25187D01*
Y25168D01*
X44370Y25156D01*
X44366Y25149D01*
X44358Y25141D01*
X44347Y25137D01*
X44320D01*
X44452D02*
X44422Y25217D01*
X44391Y25137D01*
X44403Y25164D02*
X44441D01*
X44498Y25217D02*
Y25137D01*
X44471Y25217D02*
X44524D01*
X44595Y25137D02*
X44564Y25217D01*
X44534Y25137D01*
X44545Y25164D02*
X44583D01*
D37*
X41078Y31284D02*
Y31784D01*
X40828Y31534D02*
X41328D01*
X41028Y31484D02*
X41078D01*
X41028D02*
Y31534D01*
X41078Y31584D02*
X41128D01*
Y31534D02*
Y31584D01*
X41083Y31539D02*
Y31579D01*
X41123D01*
Y31539D02*
Y31579D01*
X41083Y31539D02*
X41123D01*
X41088Y31544D02*
Y31574D01*
X41118D01*
Y31544D02*
Y31574D01*
X41093Y31544D02*
X41118D01*
X41093Y31549D02*
Y31569D01*
X41113D01*
Y31549D02*
Y31569D01*
X41098Y31549D02*
X41113D01*
X41098Y31554D02*
Y31564D01*
X41108D01*
Y31554D02*
Y31564D01*
X41098Y31554D02*
X41108D01*
X41103D02*
Y31564D01*
X41033Y31489D02*
Y31529D01*
X41073D01*
Y31489D02*
Y31529D01*
X41033Y31489D02*
X41073D01*
X41038Y31494D02*
Y31524D01*
X41068D01*
Y31494D02*
Y31524D01*
X41043Y31494D02*
X41068D01*
X41043Y31499D02*
Y31519D01*
X41063D01*
Y31499D02*
Y31519D01*
X41048Y31499D02*
X41063D01*
X41048Y31504D02*
Y31514D01*
X41058D01*
Y31504D02*
Y31514D01*
X41048Y31504D02*
X41058D01*
X41053D02*
Y31514D01*
X45826Y31253D02*
Y31753D01*
X45576Y31503D02*
X46076D01*
X45776Y31453D02*
X45826D01*
X45776D02*
Y31503D01*
X45826Y31553D02*
X45876D01*
Y31503D02*
Y31553D01*
X45831Y31508D02*
Y31548D01*
X45871D01*
Y31508D02*
Y31548D01*
X45831Y31508D02*
X45871D01*
X45836Y31513D02*
Y31543D01*
X45866D01*
Y31513D02*
Y31543D01*
X45841Y31513D02*
X45866D01*
X45841Y31518D02*
Y31538D01*
X45861D01*
Y31518D02*
Y31538D01*
X45846Y31518D02*
X45861D01*
X45846Y31523D02*
Y31533D01*
X45856D01*
Y31523D02*
Y31533D01*
X45846Y31523D02*
X45856D01*
X45851D02*
Y31533D01*
X45781Y31458D02*
Y31498D01*
X45821D01*
Y31458D02*
Y31498D01*
X45781Y31458D02*
X45821D01*
X45786Y31463D02*
Y31493D01*
X45816D01*
Y31463D02*
Y31493D01*
X45791Y31463D02*
X45816D01*
X45791Y31468D02*
Y31488D01*
X45811D01*
Y31468D02*
Y31488D01*
X45796Y31468D02*
X45811D01*
X45796Y31473D02*
Y31483D01*
X45806D01*
Y31473D02*
Y31483D01*
X45796Y31473D02*
X45806D01*
X45801D02*
Y31483D01*
X41432Y24694D02*
Y25194D01*
X41182Y24944D02*
X41682D01*
X41382Y24894D02*
X41432D01*
X41382D02*
Y24944D01*
X41432Y24994D02*
X41482D01*
Y24944D02*
Y24994D01*
X41437Y24949D02*
Y24989D01*
X41477D01*
Y24949D02*
Y24989D01*
X41437Y24949D02*
X41477D01*
X41442Y24954D02*
Y24984D01*
X41472D01*
Y24954D02*
Y24984D01*
X41447Y24954D02*
X41472D01*
X41447Y24959D02*
Y24979D01*
X41467D01*
Y24959D02*
Y24979D01*
X41452Y24959D02*
X41467D01*
X41452Y24964D02*
Y24974D01*
X41462D01*
Y24964D02*
Y24974D01*
X41452Y24964D02*
X41462D01*
X41457D02*
Y24974D01*
X41387Y24899D02*
Y24939D01*
X41427D01*
Y24899D02*
Y24939D01*
X41387Y24899D02*
X41427D01*
X41392Y24904D02*
Y24934D01*
X41422D01*
Y24904D02*
Y24934D01*
X41397Y24904D02*
X41422D01*
X41397Y24909D02*
Y24929D01*
X41417D01*
Y24909D02*
Y24929D01*
X41402Y24909D02*
X41417D01*
X41402Y24914D02*
Y24924D01*
X41412D01*
Y24914D02*
Y24924D01*
X41402Y24914D02*
X41412D01*
X41407D02*
Y24924D01*
D38*
X42309Y25498D02*
Y25418D01*
X42355D01*
X42425D02*
X42394Y25498D01*
X42364Y25418D01*
X42375Y25444D02*
X42413D01*
X42496Y25486D02*
X42489Y25494D01*
X42477Y25498D01*
X42462D01*
X42451Y25494D01*
X42443Y25486D01*
Y25479D01*
X42447Y25471D01*
X42451Y25467D01*
X42458Y25464D01*
X42481Y25456D01*
X42489Y25452D01*
X42493Y25448D01*
X42496Y25441D01*
Y25429D01*
X42489Y25422D01*
X42477Y25418D01*
X42462D01*
X42451Y25422D01*
X42443Y25429D01*
X42634Y25479D02*
X42631Y25486D01*
X42623Y25494D01*
X42615Y25498D01*
X42600D01*
X42592Y25494D01*
X42585Y25486D01*
X42581Y25479D01*
X42577Y25467D01*
Y25448D01*
X42581Y25437D01*
X42585Y25429D01*
X42592Y25422D01*
X42600Y25418D01*
X42615D01*
X42623Y25422D01*
X42631Y25429D01*
X42634Y25437D01*
X42657Y25498D02*
Y25441D01*
X42661Y25429D01*
X42668Y25422D01*
X42680Y25418D01*
X42687D01*
X42699Y25422D01*
X42706Y25429D01*
X42710Y25441D01*
Y25498D01*
X42732D02*
Y25418D01*
Y25498D02*
X42763Y25418D01*
X42793Y25498D02*
X42763Y25418D01*
X42793Y25498D02*
Y25418D01*
X42816Y25498D02*
Y25418D01*
Y25498D02*
X42850D01*
X42862Y25494D01*
X42866Y25490D01*
X42869Y25483D01*
Y25475D01*
X42866Y25467D01*
X42862Y25464D01*
X42850Y25460D01*
X42816D02*
X42850D01*
X42862Y25456D01*
X42866Y25452D01*
X42869Y25444D01*
Y25433D01*
X42866Y25425D01*
X42862Y25422D01*
X42850Y25418D01*
X42816D01*
X42887Y25498D02*
Y25418D01*
Y25498D02*
X42922D01*
X42933Y25494D01*
X42937Y25490D01*
X42941Y25483D01*
Y25475D01*
X42937Y25467D01*
X42933Y25464D01*
X42922Y25460D01*
X42887D01*
X42914D02*
X42941Y25418D01*
X43008Y25498D02*
X42958D01*
Y25418D01*
X43008D01*
X42958Y25460D02*
X42989D01*
X43075Y25486D02*
X43067Y25494D01*
X43056Y25498D01*
X43040D01*
X43029Y25494D01*
X43021Y25486D01*
Y25479D01*
X43025Y25471D01*
X43029Y25467D01*
X43037Y25464D01*
X43059Y25456D01*
X43067Y25452D01*
X43071Y25448D01*
X43075Y25441D01*
Y25429D01*
X43067Y25422D01*
X43056Y25418D01*
X43040D01*
X43029Y25422D01*
X43021Y25429D01*
X43178Y25498D02*
X43171Y25494D01*
X43163Y25486D01*
X43159Y25479D01*
X43155Y25467D01*
Y25448D01*
X43159Y25437D01*
X43163Y25429D01*
X43171Y25422D01*
X43178Y25418D01*
X43193D01*
X43201Y25422D01*
X43209Y25429D01*
X43213Y25437D01*
X43216Y25448D01*
Y25467D01*
X43213Y25479D01*
X43209Y25486D01*
X43201Y25494D01*
X43193Y25498D01*
X43178D01*
X43235D02*
Y25418D01*
Y25498D02*
X43269D01*
X43281Y25494D01*
X43285Y25490D01*
X43288Y25483D01*
Y25475D01*
X43285Y25467D01*
X43281Y25464D01*
X43269Y25460D01*
X43235D02*
X43269D01*
X43281Y25456D01*
X43285Y25452D01*
X43288Y25444D01*
Y25433D01*
X43285Y25425D01*
X43281Y25422D01*
X43269Y25418D01*
X43235D01*
X43360Y25486D02*
X43352Y25494D01*
X43340Y25498D01*
X43325D01*
X43314Y25494D01*
X43306Y25486D01*
Y25479D01*
X43310Y25471D01*
X43314Y25467D01*
X43321Y25464D01*
X43344Y25456D01*
X43352Y25452D01*
X43356Y25448D01*
X43360Y25441D01*
Y25429D01*
X43352Y25422D01*
X43340Y25418D01*
X43325D01*
X43314Y25422D01*
X43306Y25429D01*
X43427Y25498D02*
X43377D01*
Y25418D01*
X43427D01*
X43377Y25460D02*
X43408D01*
X43440Y25498D02*
Y25418D01*
Y25498D02*
X43475D01*
X43486Y25494D01*
X43490Y25490D01*
X43494Y25483D01*
Y25475D01*
X43490Y25467D01*
X43486Y25464D01*
X43475Y25460D01*
X43440D01*
X43467D02*
X43494Y25418D01*
X43512Y25498D02*
X43542Y25418D01*
X43572Y25498D02*
X43542Y25418D01*
X43644D02*
X43613Y25498D01*
X43583Y25418D01*
X43594Y25444D02*
X43632D01*
X43689Y25498D02*
Y25418D01*
X43662Y25498D02*
X43716D01*
X43748D02*
X43740Y25494D01*
X43733Y25486D01*
X43729Y25479D01*
X43725Y25467D01*
Y25448D01*
X43729Y25437D01*
X43733Y25429D01*
X43740Y25422D01*
X43748Y25418D01*
X43763D01*
X43771Y25422D01*
X43779Y25429D01*
X43782Y25437D01*
X43786Y25448D01*
Y25467D01*
X43782Y25479D01*
X43779Y25486D01*
X43771Y25494D01*
X43763Y25498D01*
X43748D01*
X43805D02*
Y25418D01*
Y25498D02*
X43839D01*
X43850Y25494D01*
X43854Y25490D01*
X43858Y25483D01*
Y25475D01*
X43854Y25467D01*
X43850Y25464D01*
X43839Y25460D01*
X43805D01*
X43831D02*
X43858Y25418D01*
X43876Y25498D02*
X43906Y25460D01*
Y25418D01*
X43937Y25498D02*
X43906Y25460D01*
X44311Y25471D02*
X44307Y25460D01*
X44300Y25452D01*
X44288Y25448D01*
X44284D01*
X44273Y25452D01*
X44265Y25460D01*
X44261Y25471D01*
Y25475D01*
X44265Y25486D01*
X44273Y25494D01*
X44284Y25498D01*
X44288D01*
X44300Y25494D01*
X44307Y25486D01*
X44311Y25471D01*
Y25452D01*
X44307Y25433D01*
X44300Y25422D01*
X44288Y25418D01*
X44280D01*
X44269Y25422D01*
X44265Y25429D01*
X44333Y25406D02*
X44386Y25498D01*
X44391Y25483D02*
X44399Y25486D01*
X44410Y25498D01*
Y25418D01*
X44503Y25498D02*
X44465Y25418D01*
X44450Y25498D02*
X44503D01*
X44521Y25406D02*
X44575Y25498D01*
X44584Y25479D02*
Y25483D01*
X44587Y25490D01*
X44591Y25494D01*
X44599Y25498D01*
X44614D01*
X44622Y25494D01*
X44626Y25490D01*
X44629Y25483D01*
Y25475D01*
X44626Y25467D01*
X44618Y25456D01*
X44580Y25418D01*
X44633D01*
X44674Y25498D02*
X44663Y25494D01*
X44655Y25483D01*
X44651Y25464D01*
Y25452D01*
X44655Y25433D01*
X44663Y25422D01*
X44674Y25418D01*
X44682D01*
X44693Y25422D01*
X44701Y25433D01*
X44704Y25452D01*
Y25464D01*
X44701Y25483D01*
X44693Y25494D01*
X44682Y25498D01*
X44674D01*
X44722Y25483D02*
X44730Y25486D01*
X44741Y25498D01*
Y25418D01*
X44785Y25479D02*
Y25483D01*
X44789Y25490D01*
X44792Y25494D01*
X44800Y25498D01*
X44815D01*
X44823Y25494D01*
X44827Y25490D01*
X44830Y25483D01*
Y25475D01*
X44827Y25467D01*
X44819Y25456D01*
X44781Y25418D01*
X44834D01*
D39*
X42309Y25633D02*
X42317Y25636D01*
X42328Y25648D01*
Y25568D01*
X42421Y25648D02*
X42383Y25568D01*
X42368Y25648D02*
X42421D01*
X42485D02*
X42447D01*
X42443Y25614D01*
X42447Y25617D01*
X42458Y25621D01*
X42469D01*
X42481Y25617D01*
X42488Y25610D01*
X42492Y25598D01*
Y25591D01*
X42488Y25579D01*
X42481Y25572D01*
X42469Y25568D01*
X42458D01*
X42447Y25572D01*
X42443Y25575D01*
X42439Y25583D01*
X42510Y25602D02*
X42579D01*
X42625Y25648D02*
X42614Y25644D01*
X42606Y25633D01*
X42602Y25614D01*
Y25602D01*
X42606Y25583D01*
X42614Y25572D01*
X42625Y25568D01*
X42633D01*
X42644Y25572D01*
X42652Y25583D01*
X42656Y25602D01*
Y25614D01*
X42652Y25633D01*
X42644Y25644D01*
X42633Y25648D01*
X42625D01*
X42696D02*
X42685Y25644D01*
X42677Y25633D01*
X42674Y25614D01*
Y25602D01*
X42677Y25583D01*
X42685Y25572D01*
X42696Y25568D01*
X42704D01*
X42715Y25572D01*
X42723Y25583D01*
X42727Y25602D01*
Y25614D01*
X42723Y25633D01*
X42715Y25644D01*
X42704Y25648D01*
X42696D01*
X42768D02*
X42756Y25644D01*
X42749Y25633D01*
X42745Y25614D01*
Y25602D01*
X42749Y25583D01*
X42756Y25572D01*
X42768Y25568D01*
X42775D01*
X42787Y25572D01*
X42794Y25583D01*
X42798Y25602D01*
Y25614D01*
X42794Y25633D01*
X42787Y25644D01*
X42775Y25648D01*
X42768D01*
X42862D02*
X42824D01*
X42820Y25614D01*
X42824Y25617D01*
X42835Y25621D01*
X42847D01*
X42858Y25617D01*
X42866Y25610D01*
X42869Y25598D01*
Y25591D01*
X42866Y25579D01*
X42858Y25572D01*
X42847Y25568D01*
X42835D01*
X42824Y25572D01*
X42820Y25575D01*
X42816Y25583D01*
X42891Y25629D02*
Y25633D01*
X42895Y25640D01*
X42899Y25644D01*
X42906Y25648D01*
X42922D01*
X42929Y25644D01*
X42933Y25640D01*
X42937Y25633D01*
Y25625D01*
X42933Y25617D01*
X42925Y25606D01*
X42887Y25568D01*
X42941D01*
X43021Y25621D02*
Y25568D01*
Y25598D02*
X43025Y25610D01*
X43033Y25617D01*
X43040Y25621D01*
X43052D01*
X43059Y25598D02*
X43105D01*
Y25606D01*
X43101Y25614D01*
X43097Y25617D01*
X43090Y25621D01*
X43078D01*
X43070Y25617D01*
X43063Y25610D01*
X43059Y25598D01*
Y25591D01*
X43063Y25579D01*
X43070Y25572D01*
X43078Y25568D01*
X43090D01*
X43097Y25572D01*
X43105Y25579D01*
X43122Y25621D02*
X43145Y25568D01*
X43168Y25621D02*
X43145Y25568D01*
X43181Y25633D02*
X43188Y25636D01*
X43200Y25648D01*
Y25568D01*
D54*
X43322Y27612D02*
D03*
X43322Y27985D02*
D03*
Y28374D02*
D03*
X43331Y28785D02*
D03*
X43304Y27450D02*
D03*
X43304Y27823D02*
D03*
Y28212D02*
D03*
X43313Y28623D02*
D03*
X42155Y30503D02*
D03*
Y30573D02*
D03*
Y30643D02*
D03*
Y30713D02*
D03*
X42643Y29319D02*
D03*
X44332Y27460D02*
D03*
X44325Y31053D02*
D03*
Y29889D02*
D03*
X44164Y31050D02*
D03*
Y29886D02*
D03*
X44388Y30538D02*
D03*
Y29374D02*
D03*
X44335Y30803D02*
D03*
Y29639D02*
D03*
X42317Y28937D02*
D03*
X42311Y27740D02*
D03*
X42019Y28398D02*
D03*
X42013Y27201D02*
D03*
X44319Y28731D02*
D03*
X44321Y27881D02*
D03*
X44159Y28731D02*
D03*
X44161Y27881D02*
D03*
X42118Y28934D02*
D03*
X42112Y27737D02*
D03*
X42245Y28935D02*
D03*
X42239Y27738D02*
D03*
X42164Y29079D02*
D03*
X42158Y27882D02*
D03*
X42200Y28407D02*
D03*
X42194Y27210D02*
D03*
X44335Y28495D02*
D03*
X44337Y27644D02*
D03*
X42775Y30533D02*
D03*
D80*
X44851Y29583D02*
X44878D01*
X44885Y29576D01*
Y29563D01*
X44878Y29556D01*
X44851D01*
X44845Y29563D01*
Y29576D01*
X44858Y29569D02*
X44845Y29583D01*
Y29576D02*
X44851Y29583D01*
X44845Y29596D02*
Y29609D01*
Y29603D01*
X44885D01*
X44878Y29596D01*
X44885Y29629D02*
X44845D01*
Y29649D01*
X44851Y29656D01*
X44858D01*
X44865Y29649D01*
Y29629D01*
Y29649D01*
X44871Y29656D01*
X44878D01*
X44885Y29649D01*
Y29629D01*
X42213Y26937D02*
Y26977D01*
X42193D01*
X42186Y26970D01*
Y26957D01*
X42193Y26950D01*
X42213D01*
X42199D02*
X42186Y26937D01*
X42173D02*
X42160D01*
X42166D01*
Y26977D01*
X42173Y26970D01*
X42140Y26937D02*
X42126D01*
X42133D01*
Y26977D01*
X42140Y26970D01*
X42106Y26977D02*
Y26937D01*
X42086D01*
X42080Y26944D01*
Y26950D01*
X42086Y26957D01*
X42106D01*
X42086D01*
X42080Y26964D01*
Y26970D01*
X42086Y26977D01*
X42106D01*
X43244Y27391D02*
X43251Y27384D01*
Y27371D01*
X43244Y27364D01*
X43217D01*
X43211Y27371D01*
Y27384D01*
X43217Y27391D01*
X43244Y27404D02*
X43251Y27411D01*
Y27424D01*
X43244Y27431D01*
X43237D01*
X43231Y27424D01*
Y27418D01*
Y27424D01*
X43224Y27431D01*
X43217D01*
X43211Y27424D01*
Y27411D01*
X43217Y27404D01*
Y27444D02*
X43211Y27451D01*
Y27464D01*
X43217Y27471D01*
X43244D01*
X43251Y27464D01*
Y27451D01*
X43244Y27444D01*
X43237D01*
X43231Y27451D01*
Y27471D01*
X43251Y27484D02*
X43211D01*
Y27504D01*
X43217Y27511D01*
X43244D01*
X43251Y27504D01*
Y27484D01*
X43224Y27776D02*
X43231Y27769D01*
Y27756D01*
X43224Y27749D01*
X43197D01*
X43191Y27756D01*
Y27769D01*
X43197Y27776D01*
X43224Y27789D02*
X43231Y27796D01*
Y27809D01*
X43224Y27816D01*
X43217D01*
X43211Y27809D01*
Y27802D01*
Y27809D01*
X43204Y27816D01*
X43197D01*
X43191Y27809D01*
Y27796D01*
X43197Y27789D01*
Y27829D02*
X43191Y27836D01*
Y27849D01*
X43197Y27856D01*
X43224D01*
X43231Y27849D01*
Y27836D01*
X43224Y27829D01*
X43217D01*
X43211Y27836D01*
Y27856D01*
X43224Y27896D02*
X43231Y27889D01*
Y27876D01*
X43224Y27869D01*
X43197D01*
X43191Y27876D01*
Y27889D01*
X43197Y27896D01*
X43262Y28332D02*
X43269Y28325D01*
Y28312D01*
X43262Y28305D01*
X43235D01*
X43229Y28312D01*
Y28325D01*
X43235Y28332D01*
X43262Y28345D02*
X43269Y28352D01*
Y28365D01*
X43262Y28372D01*
X43255D01*
X43249Y28365D01*
Y28358D01*
Y28365D01*
X43242Y28372D01*
X43235D01*
X43229Y28365D01*
Y28352D01*
X43235Y28345D01*
Y28385D02*
X43229Y28392D01*
Y28405D01*
X43235Y28412D01*
X43262D01*
X43269Y28405D01*
Y28392D01*
X43262Y28385D01*
X43255D01*
X43249Y28392D01*
Y28412D01*
X43269Y28425D02*
X43229D01*
Y28445D01*
X43235Y28452D01*
X43242D01*
X43249Y28445D01*
Y28425D01*
Y28445D01*
X43255Y28452D01*
X43262D01*
X43269Y28445D01*
Y28425D01*
X43347Y28897D02*
X43354Y28890D01*
Y28877D01*
X43347Y28870D01*
X43320D01*
X43314Y28877D01*
Y28890D01*
X43320Y28897D01*
X43347Y28910D02*
X43354Y28917D01*
Y28930D01*
X43347Y28937D01*
X43340D01*
X43334Y28930D01*
Y28923D01*
Y28930D01*
X43327Y28937D01*
X43320D01*
X43314Y28930D01*
Y28917D01*
X43320Y28910D01*
Y28950D02*
X43314Y28957D01*
Y28970D01*
X43320Y28977D01*
X43347D01*
X43354Y28970D01*
Y28957D01*
X43347Y28950D01*
X43340D01*
X43334Y28957D01*
Y28977D01*
X43314Y28990D02*
X43340D01*
X43354Y29003D01*
X43340Y29017D01*
X43314D01*
X43334D01*
Y28990D01*
X43263Y27571D02*
X43270Y27564D01*
Y27551D01*
X43263Y27544D01*
X43236D01*
X43230Y27551D01*
Y27564D01*
X43236Y27571D01*
X43263Y27584D02*
X43270Y27591D01*
Y27604D01*
X43263Y27611D01*
X43256D01*
X43250Y27604D01*
Y27597D01*
Y27604D01*
X43243Y27611D01*
X43236D01*
X43230Y27604D01*
Y27591D01*
X43236Y27584D01*
X43263Y27624D02*
X43270Y27631D01*
Y27644D01*
X43263Y27651D01*
X43256D01*
X43250Y27644D01*
X43243Y27651D01*
X43236D01*
X43230Y27644D01*
Y27631D01*
X43236Y27624D01*
X43243D01*
X43250Y27631D01*
X43256Y27624D01*
X43263D01*
X43250Y27631D02*
Y27644D01*
X43270Y27664D02*
X43230D01*
Y27684D01*
X43236Y27691D01*
X43263D01*
X43270Y27684D01*
Y27664D01*
X43261Y27942D02*
X43268Y27935D01*
Y27922D01*
X43261Y27915D01*
X43234D01*
X43228Y27922D01*
Y27935D01*
X43234Y27942D01*
X43261Y27955D02*
X43268Y27962D01*
Y27975D01*
X43261Y27982D01*
X43254D01*
X43248Y27975D01*
Y27968D01*
Y27975D01*
X43241Y27982D01*
X43234D01*
X43228Y27975D01*
Y27962D01*
X43234Y27955D01*
X43261Y27995D02*
X43268Y28002D01*
Y28015D01*
X43261Y28022D01*
X43254D01*
X43248Y28015D01*
X43241Y28022D01*
X43234D01*
X43228Y28015D01*
Y28002D01*
X43234Y27995D01*
X43241D01*
X43248Y28002D01*
X43254Y27995D01*
X43261D01*
X43248Y28002D02*
Y28015D01*
X43261Y28062D02*
X43268Y28055D01*
Y28042D01*
X43261Y28035D01*
X43234D01*
X43228Y28042D01*
Y28055D01*
X43234Y28062D01*
X43247Y28156D02*
X43254Y28149D01*
Y28136D01*
X43247Y28129D01*
X43220D01*
X43214Y28136D01*
Y28149D01*
X43220Y28156D01*
X43247Y28169D02*
X43254Y28176D01*
Y28189D01*
X43247Y28196D01*
X43240D01*
X43234Y28189D01*
Y28182D01*
Y28189D01*
X43227Y28196D01*
X43220D01*
X43214Y28189D01*
Y28176D01*
X43220Y28169D01*
X43247Y28209D02*
X43254Y28216D01*
Y28229D01*
X43247Y28236D01*
X43240D01*
X43234Y28229D01*
X43227Y28236D01*
X43220D01*
X43214Y28229D01*
Y28216D01*
X43220Y28209D01*
X43227D01*
X43234Y28216D01*
X43240Y28209D01*
X43247D01*
X43234Y28216D02*
Y28229D01*
X43254Y28249D02*
X43214D01*
Y28269D01*
X43220Y28276D01*
X43227D01*
X43234Y28269D01*
Y28249D01*
Y28269D01*
X43240Y28276D01*
X43247D01*
X43254Y28269D01*
Y28249D01*
X43262Y28572D02*
X43269Y28565D01*
Y28552D01*
X43262Y28545D01*
X43235D01*
X43229Y28552D01*
Y28565D01*
X43235Y28572D01*
X43262Y28585D02*
X43269Y28592D01*
Y28605D01*
X43262Y28612D01*
X43255D01*
X43249Y28605D01*
Y28598D01*
Y28605D01*
X43242Y28612D01*
X43235D01*
X43229Y28605D01*
Y28592D01*
X43235Y28585D01*
X43262Y28625D02*
X43269Y28632D01*
Y28645D01*
X43262Y28652D01*
X43255D01*
X43249Y28645D01*
X43242Y28652D01*
X43235D01*
X43229Y28645D01*
Y28632D01*
X43235Y28625D01*
X43242D01*
X43249Y28632D01*
X43255Y28625D01*
X43262D01*
X43249Y28632D02*
Y28645D01*
X43229Y28665D02*
X43255D01*
X43269Y28678D01*
X43255Y28692D01*
X43229D01*
X43249D01*
Y28665D01*
X42018Y30505D02*
X42025Y30512D01*
X42038D01*
X42045Y30505D01*
Y30479D01*
X42038Y30472D01*
X42025D01*
X42018Y30479D01*
X42005Y30472D02*
X41992D01*
X41998D01*
Y30512D01*
X42005Y30505D01*
X42025Y30582D02*
X42032Y30589D01*
X42045D01*
X42052Y30582D01*
Y30556D01*
X42045Y30549D01*
X42032D01*
X42025Y30556D01*
X41985Y30549D02*
X42012D01*
X41985Y30576D01*
Y30582D01*
X41992Y30589D01*
X42005D01*
X42012Y30582D01*
X42028Y30657D02*
X42035Y30664D01*
X42048D01*
X42055Y30657D01*
Y30631D01*
X42048Y30624D01*
X42035D01*
X42028Y30631D01*
X42015Y30657D02*
X42008Y30664D01*
X41995D01*
X41988Y30657D01*
Y30651D01*
X41995Y30644D01*
X42002D01*
X41995D01*
X41988Y30637D01*
Y30631D01*
X41995Y30624D01*
X42008D01*
X42015Y30631D01*
X42036Y30729D02*
X42043Y30736D01*
X42056D01*
X42063Y30729D01*
Y30703D01*
X42056Y30696D01*
X42043D01*
X42036Y30703D01*
X42003Y30696D02*
Y30736D01*
X42023Y30716D01*
X41996D01*
X42719Y29312D02*
X42726Y29305D01*
Y29292D01*
X42719Y29285D01*
X42692D01*
X42686Y29292D01*
Y29305D01*
X42692Y29312D01*
Y29325D02*
X42686Y29332D01*
Y29345D01*
X42692Y29352D01*
X42719D01*
X42726Y29345D01*
Y29332D01*
X42719Y29325D01*
X42712D01*
X42706Y29332D01*
Y29352D01*
X44249Y27486D02*
X44243Y27493D01*
Y27506D01*
X44249Y27513D01*
X44276D01*
X44283Y27506D01*
Y27493D01*
X44276Y27486D01*
X44283Y27473D02*
Y27460D01*
Y27466D01*
X44243D01*
X44249Y27473D01*
Y27440D02*
X44243Y27433D01*
Y27420D01*
X44249Y27413D01*
X44256D01*
X44263Y27420D01*
Y27426D01*
Y27420D01*
X44269Y27413D01*
X44276D01*
X44283Y27420D01*
Y27433D01*
X44276Y27440D01*
X44360Y31152D02*
X44366Y31159D01*
X44380D01*
X44386Y31152D01*
Y31126D01*
X44380Y31119D01*
X44366D01*
X44360Y31126D01*
X44346Y31119D02*
X44333D01*
X44340D01*
Y31159D01*
X44346Y31152D01*
X44286Y31159D02*
X44300Y31152D01*
X44313Y31139D01*
Y31126D01*
X44306Y31119D01*
X44293D01*
X44286Y31126D01*
Y31132D01*
X44293Y31139D01*
X44313D01*
X44273Y31119D02*
Y31146D01*
X44260Y31159D01*
X44246Y31146D01*
Y31119D01*
Y31139D01*
X44273D01*
X44383Y29987D02*
X44390Y29994D01*
X44403D01*
X44410Y29987D01*
Y29961D01*
X44403Y29954D01*
X44390D01*
X44383Y29961D01*
X44370Y29954D02*
X44357D01*
X44363D01*
Y29994D01*
X44370Y29987D01*
X44310Y29994D02*
X44323Y29987D01*
X44337Y29974D01*
Y29961D01*
X44330Y29954D01*
X44317D01*
X44310Y29961D01*
Y29967D01*
X44317Y29974D01*
X44337D01*
X44297Y29994D02*
Y29954D01*
X44277D01*
X44270Y29961D01*
Y29967D01*
X44277Y29974D01*
X44297D01*
X44277D01*
X44270Y29981D01*
Y29987D01*
X44277Y29994D01*
X44297D01*
X44211Y30972D02*
X44218Y30979D01*
X44231D01*
X44238Y30972D01*
Y30946D01*
X44231Y30939D01*
X44218D01*
X44211Y30946D01*
X44198Y30939D02*
X44185D01*
X44191D01*
Y30979D01*
X44198Y30972D01*
X44165Y30979D02*
X44138D01*
Y30972D01*
X44165Y30946D01*
Y30939D01*
X44125D02*
Y30966D01*
X44111Y30979D01*
X44098Y30966D01*
Y30939D01*
Y30959D01*
X44125D01*
X44195Y30000D02*
X44202Y30007D01*
X44215D01*
X44222Y30000D01*
Y29974D01*
X44215Y29967D01*
X44202D01*
X44195Y29974D01*
X44182Y29967D02*
X44168D01*
X44175D01*
Y30007D01*
X44182Y30000D01*
X44148Y30007D02*
X44122D01*
Y30000D01*
X44148Y29974D01*
Y29967D01*
X44108Y30007D02*
Y29967D01*
X44088D01*
X44082Y29974D01*
Y29980D01*
X44088Y29987D01*
X44108D01*
X44088D01*
X44082Y29994D01*
Y30000D01*
X44088Y30007D01*
X44108D01*
X44468Y30500D02*
X44475Y30493D01*
Y30480D01*
X44468Y30473D01*
X44441D01*
X44435Y30480D01*
Y30493D01*
X44441Y30500D01*
X44435Y30513D02*
Y30526D01*
Y30520D01*
X44475D01*
X44468Y30513D01*
X44441Y30546D02*
X44435Y30553D01*
Y30566D01*
X44441Y30573D01*
X44468D01*
X44475Y30566D01*
Y30553D01*
X44468Y30546D01*
X44461D01*
X44455Y30553D01*
Y30573D01*
X44435Y30586D02*
X44461D01*
X44475Y30600D01*
X44461Y30613D01*
X44435D01*
X44455D01*
Y30586D01*
X44468Y29336D02*
X44475Y29329D01*
Y29316D01*
X44468Y29309D01*
X44441D01*
X44435Y29316D01*
Y29329D01*
X44441Y29336D01*
X44435Y29349D02*
Y29362D01*
Y29356D01*
X44475D01*
X44468Y29349D01*
X44441Y29382D02*
X44435Y29389D01*
Y29402D01*
X44441Y29409D01*
X44468D01*
X44475Y29402D01*
Y29389D01*
X44468Y29382D01*
X44461D01*
X44455Y29389D01*
Y29409D01*
X44475Y29422D02*
X44435D01*
Y29442D01*
X44441Y29449D01*
X44448D01*
X44455Y29442D01*
Y29422D01*
Y29442D01*
X44461Y29449D01*
X44468D01*
X44475Y29442D01*
Y29422D01*
X44416Y30762D02*
X44423Y30755D01*
Y30742D01*
X44416Y30735D01*
X44389D01*
X44383Y30742D01*
Y30755D01*
X44389Y30762D01*
X44383Y30802D02*
Y30775D01*
X44409Y30802D01*
X44416D01*
X44423Y30795D01*
Y30782D01*
X44416Y30775D01*
X44383Y30842D02*
Y30815D01*
X44409Y30842D01*
X44416D01*
X44423Y30835D01*
Y30822D01*
X44416Y30815D01*
X44383Y30855D02*
X44409D01*
X44423Y30868D01*
X44409Y30882D01*
X44383D01*
X44403D01*
Y30855D01*
X44416Y29598D02*
X44423Y29591D01*
Y29578D01*
X44416Y29571D01*
X44389D01*
X44383Y29578D01*
Y29591D01*
X44389Y29598D01*
X44383Y29638D02*
Y29611D01*
X44409Y29638D01*
X44416D01*
X44423Y29631D01*
Y29618D01*
X44416Y29611D01*
X44383Y29678D02*
Y29651D01*
X44409Y29678D01*
X44416D01*
X44423Y29671D01*
Y29658D01*
X44416Y29651D01*
X44423Y29691D02*
X44383D01*
Y29711D01*
X44389Y29718D01*
X44396D01*
X44403Y29711D01*
Y29691D01*
Y29711D01*
X44409Y29718D01*
X44416D01*
X44423Y29711D01*
Y29691D01*
X42392Y28886D02*
X42399Y28879D01*
Y28866D01*
X42392Y28859D01*
X42365D01*
X42359Y28866D01*
Y28879D01*
X42365Y28886D01*
X42359Y28926D02*
Y28899D01*
X42385Y28926D01*
X42392D01*
X42399Y28919D01*
Y28906D01*
X42392Y28899D01*
X42359Y28959D02*
X42399D01*
X42379Y28939D01*
Y28966D01*
X42359Y28979D02*
X42385D01*
X42399Y28992D01*
X42385Y29006D01*
X42359D01*
X42379D01*
Y28979D01*
X42386Y27689D02*
X42393Y27682D01*
Y27669D01*
X42386Y27662D01*
X42359D01*
X42353Y27669D01*
Y27682D01*
X42359Y27689D01*
X42353Y27729D02*
Y27702D01*
X42379Y27729D01*
X42386D01*
X42393Y27722D01*
Y27709D01*
X42386Y27702D01*
X42353Y27762D02*
X42393D01*
X42373Y27742D01*
Y27769D01*
X42393Y27782D02*
X42353D01*
Y27802D01*
X42359Y27809D01*
X42366D01*
X42373Y27802D01*
Y27782D01*
Y27802D01*
X42379Y27809D01*
X42386D01*
X42393Y27802D01*
Y27782D01*
X42056Y28518D02*
X42063Y28525D01*
X42076D01*
X42083Y28518D01*
Y28492D01*
X42076Y28485D01*
X42063D01*
X42056Y28492D01*
X42016Y28485D02*
X42043D01*
X42016Y28512D01*
Y28518D01*
X42023Y28525D01*
X42036D01*
X42043Y28518D01*
X41976Y28525D02*
X41990Y28518D01*
X42003Y28505D01*
Y28492D01*
X41996Y28485D01*
X41983D01*
X41976Y28492D01*
Y28498D01*
X41983Y28505D01*
X42003D01*
X41963Y28485D02*
Y28512D01*
X41950Y28525D01*
X41936Y28512D01*
Y28485D01*
Y28505D01*
X41963D01*
X42050Y27321D02*
X42057Y27328D01*
X42070D01*
X42077Y27321D01*
Y27295D01*
X42070Y27288D01*
X42057D01*
X42050Y27295D01*
X42010Y27288D02*
X42037D01*
X42010Y27315D01*
Y27321D01*
X42017Y27328D01*
X42030D01*
X42037Y27321D01*
X41970Y27328D02*
X41984Y27321D01*
X41997Y27308D01*
Y27295D01*
X41990Y27288D01*
X41977D01*
X41970Y27295D01*
Y27301D01*
X41977Y27308D01*
X41997D01*
X41957Y27328D02*
Y27288D01*
X41937D01*
X41930Y27295D01*
Y27301D01*
X41937Y27308D01*
X41957D01*
X41937D01*
X41930Y27315D01*
Y27321D01*
X41937Y27328D01*
X41957D01*
X44365Y28654D02*
X44372Y28661D01*
X44385D01*
X44392Y28654D01*
Y28628D01*
X44385Y28621D01*
X44372D01*
X44365Y28628D01*
X44325Y28621D02*
X44352D01*
X44325Y28648D01*
Y28654D01*
X44332Y28661D01*
X44345D01*
X44352Y28654D01*
X44312Y28661D02*
X44285D01*
Y28654D01*
X44312Y28628D01*
Y28621D01*
X44272D02*
Y28648D01*
X44259Y28661D01*
X44245Y28648D01*
Y28621D01*
Y28641D01*
X44272D01*
X44362Y27979D02*
X44369Y27986D01*
X44382D01*
X44389Y27979D01*
Y27953D01*
X44382Y27946D01*
X44369D01*
X44362Y27953D01*
X44322Y27946D02*
X44349D01*
X44322Y27973D01*
Y27979D01*
X44329Y27986D01*
X44342D01*
X44349Y27979D01*
X44309Y27986D02*
X44282D01*
Y27979D01*
X44309Y27953D01*
Y27946D01*
X44269Y27986D02*
Y27946D01*
X44249D01*
X44242Y27953D01*
Y27959D01*
X44249Y27966D01*
X44269D01*
X44249D01*
X44242Y27973D01*
Y27979D01*
X44249Y27986D01*
X44269D01*
X44196Y28835D02*
X44203Y28842D01*
X44216D01*
X44223Y28835D01*
Y28809D01*
X44216Y28802D01*
X44203D01*
X44196Y28809D01*
X44156Y28802D02*
X44183D01*
X44156Y28829D01*
Y28835D01*
X44163Y28842D01*
X44176D01*
X44183Y28835D01*
X44143D02*
X44136Y28842D01*
X44123D01*
X44116Y28835D01*
Y28829D01*
X44123Y28822D01*
X44116Y28815D01*
Y28809D01*
X44123Y28802D01*
X44136D01*
X44143Y28809D01*
Y28815D01*
X44136Y28822D01*
X44143Y28829D01*
Y28835D01*
X44136Y28822D02*
X44123D01*
X44103Y28802D02*
Y28829D01*
X44090Y28842D01*
X44076Y28829D01*
Y28802D01*
Y28822D01*
X44103D01*
X44197Y27998D02*
X44204Y28005D01*
X44217D01*
X44224Y27998D01*
Y27972D01*
X44217Y27965D01*
X44204D01*
X44197Y27972D01*
X44157Y27965D02*
X44184D01*
X44157Y27992D01*
Y27998D01*
X44164Y28005D01*
X44177D01*
X44184Y27998D01*
X44144D02*
X44137Y28005D01*
X44124D01*
X44117Y27998D01*
Y27992D01*
X44124Y27985D01*
X44117Y27978D01*
Y27972D01*
X44124Y27965D01*
X44137D01*
X44144Y27972D01*
Y27978D01*
X44137Y27985D01*
X44144Y27992D01*
Y27998D01*
X44137Y27985D02*
X44124D01*
X44104Y28005D02*
Y27965D01*
X44084D01*
X44077Y27972D01*
Y27978D01*
X44084Y27985D01*
X44104D01*
X44084D01*
X44077Y27992D01*
Y27998D01*
X44084Y28005D01*
X44104D01*
X42063Y28891D02*
X42070Y28884D01*
Y28871D01*
X42063Y28864D01*
X42036D01*
X42030Y28871D01*
Y28884D01*
X42036Y28891D01*
X42063Y28904D02*
X42070Y28911D01*
Y28924D01*
X42063Y28931D01*
X42056D01*
X42050Y28924D01*
Y28917D01*
Y28924D01*
X42043Y28931D01*
X42036D01*
X42030Y28924D01*
Y28911D01*
X42036Y28904D01*
X42030Y28944D02*
Y28957D01*
Y28951D01*
X42070D01*
X42063Y28944D01*
X42030Y28977D02*
X42056D01*
X42070Y28991D01*
X42056Y29004D01*
X42030D01*
X42050D01*
Y28977D01*
X42057Y27694D02*
X42064Y27687D01*
Y27674D01*
X42057Y27667D01*
X42030D01*
X42024Y27674D01*
Y27687D01*
X42030Y27694D01*
X42057Y27707D02*
X42064Y27714D01*
Y27727D01*
X42057Y27734D01*
X42050D01*
X42044Y27727D01*
Y27720D01*
Y27727D01*
X42037Y27734D01*
X42030D01*
X42024Y27727D01*
Y27714D01*
X42030Y27707D01*
X42024Y27747D02*
Y27760D01*
Y27754D01*
X42064D01*
X42057Y27747D01*
X42064Y27780D02*
X42024D01*
Y27800D01*
X42030Y27807D01*
X42037D01*
X42044Y27800D01*
Y27780D01*
Y27800D01*
X42050Y27807D01*
X42057D01*
X42064Y27800D01*
Y27780D01*
X42277Y29048D02*
X42284Y29041D01*
Y29028D01*
X42277Y29021D01*
X42250D01*
X42244Y29028D01*
Y29041D01*
X42250Y29048D01*
X42277Y29061D02*
X42284Y29068D01*
Y29081D01*
X42277Y29088D01*
X42270D01*
X42264Y29081D01*
Y29074D01*
Y29081D01*
X42257Y29088D01*
X42250D01*
X42244Y29081D01*
Y29068D01*
X42250Y29061D01*
X42244Y29121D02*
X42284D01*
X42264Y29101D01*
Y29128D01*
X42244Y29141D02*
X42270D01*
X42284Y29154D01*
X42270Y29168D01*
X42244D01*
X42264D01*
Y29141D01*
X42271Y27851D02*
X42278Y27844D01*
Y27831D01*
X42271Y27824D01*
X42244D01*
X42238Y27831D01*
Y27844D01*
X42244Y27851D01*
X42271Y27864D02*
X42278Y27871D01*
Y27884D01*
X42271Y27891D01*
X42264D01*
X42258Y27884D01*
Y27877D01*
Y27884D01*
X42251Y27891D01*
X42244D01*
X42238Y27884D01*
Y27871D01*
X42244Y27864D01*
X42238Y27924D02*
X42278D01*
X42258Y27904D01*
Y27931D01*
X42278Y27944D02*
X42238D01*
Y27964D01*
X42244Y27971D01*
X42251D01*
X42258Y27964D01*
Y27944D01*
Y27964D01*
X42264Y27971D01*
X42271D01*
X42278Y27964D01*
Y27944D01*
X42188Y29152D02*
X42195Y29159D01*
X42208D01*
X42215Y29152D01*
Y29126D01*
X42208Y29119D01*
X42195D01*
X42188Y29126D01*
X42175Y29152D02*
X42168Y29159D01*
X42155D01*
X42148Y29152D01*
Y29146D01*
X42155Y29139D01*
X42162D01*
X42155D01*
X42148Y29132D01*
Y29126D01*
X42155Y29119D01*
X42168D01*
X42175Y29126D01*
X42108Y29159D02*
X42135D01*
Y29139D01*
X42122Y29146D01*
X42115D01*
X42108Y29139D01*
Y29126D01*
X42115Y29119D01*
X42128D01*
X42135Y29126D01*
X42095Y29119D02*
Y29146D01*
X42082Y29159D01*
X42068Y29146D01*
Y29119D01*
Y29139D01*
X42095D01*
X42182Y27955D02*
X42189Y27962D01*
X42202D01*
X42209Y27955D01*
Y27929D01*
X42202Y27922D01*
X42189D01*
X42182Y27929D01*
X42169Y27955D02*
X42162Y27962D01*
X42149D01*
X42142Y27955D01*
Y27949D01*
X42149Y27942D01*
X42156D01*
X42149D01*
X42142Y27935D01*
Y27929D01*
X42149Y27922D01*
X42162D01*
X42169Y27929D01*
X42102Y27962D02*
X42129D01*
Y27942D01*
X42116Y27949D01*
X42109D01*
X42102Y27942D01*
Y27929D01*
X42109Y27922D01*
X42122D01*
X42129Y27929D01*
X42089Y27962D02*
Y27922D01*
X42069D01*
X42062Y27929D01*
Y27935D01*
X42069Y27942D01*
X42089D01*
X42069D01*
X42062Y27949D01*
Y27955D01*
X42069Y27962D01*
X42089D01*
X42272Y28515D02*
X42279Y28522D01*
X42292D01*
X42299Y28515D01*
Y28489D01*
X42292Y28482D01*
X42279D01*
X42272Y28489D01*
X42259Y28515D02*
X42252Y28522D01*
X42239D01*
X42232Y28515D01*
Y28509D01*
X42239Y28502D01*
X42246D01*
X42239D01*
X42232Y28495D01*
Y28489D01*
X42239Y28482D01*
X42252D01*
X42259Y28489D01*
X42192Y28522D02*
X42206Y28515D01*
X42219Y28502D01*
Y28489D01*
X42212Y28482D01*
X42199D01*
X42192Y28489D01*
Y28495D01*
X42199Y28502D01*
X42219D01*
X42179Y28482D02*
Y28509D01*
X42166Y28522D01*
X42152Y28509D01*
Y28482D01*
Y28502D01*
X42179D01*
X42266Y27318D02*
X42273Y27325D01*
X42286D01*
X42293Y27318D01*
Y27292D01*
X42286Y27285D01*
X42273D01*
X42266Y27292D01*
X42253Y27318D02*
X42246Y27325D01*
X42233D01*
X42226Y27318D01*
Y27312D01*
X42233Y27305D01*
X42240D01*
X42233D01*
X42226Y27298D01*
Y27292D01*
X42233Y27285D01*
X42246D01*
X42253Y27292D01*
X42186Y27325D02*
X42200Y27318D01*
X42213Y27305D01*
Y27292D01*
X42206Y27285D01*
X42193D01*
X42186Y27292D01*
Y27298D01*
X42193Y27305D01*
X42213D01*
X42173Y27325D02*
Y27285D01*
X42153D01*
X42146Y27292D01*
Y27298D01*
X42153Y27305D01*
X42173D01*
X42153D01*
X42146Y27312D01*
Y27318D01*
X42153Y27325D01*
X42173D01*
X44351Y28280D02*
X44358Y28273D01*
Y28260D01*
X44351Y28253D01*
X44324D01*
X44318Y28260D01*
Y28273D01*
X44324Y28280D01*
X44351Y28293D02*
X44358Y28300D01*
Y28313D01*
X44351Y28320D01*
X44344D01*
X44338Y28313D01*
Y28306D01*
Y28313D01*
X44331Y28320D01*
X44324D01*
X44318Y28313D01*
Y28300D01*
X44324Y28293D01*
X44358Y28333D02*
Y28360D01*
X44351D01*
X44324Y28333D01*
X44318D01*
Y28373D02*
X44344D01*
X44358Y28386D01*
X44344Y28400D01*
X44318D01*
X44338D01*
Y28373D01*
X44438Y27606D02*
X44445Y27599D01*
Y27586D01*
X44438Y27579D01*
X44411D01*
X44405Y27586D01*
Y27599D01*
X44411Y27606D01*
X44438Y27619D02*
X44445Y27626D01*
Y27639D01*
X44438Y27646D01*
X44431D01*
X44425Y27639D01*
Y27632D01*
Y27639D01*
X44418Y27646D01*
X44411D01*
X44405Y27639D01*
Y27626D01*
X44411Y27619D01*
X44445Y27659D02*
Y27686D01*
X44438D01*
X44411Y27659D01*
X44405D01*
X44445Y27699D02*
X44405D01*
Y27719D01*
X44411Y27726D01*
X44418D01*
X44425Y27719D01*
Y27699D01*
Y27719D01*
X44431Y27726D01*
X44438D01*
X44445Y27719D01*
Y27699D01*
X44836Y30728D02*
Y30754D01*
X44843Y30761D01*
X44856D01*
X44863Y30754D01*
Y30728D01*
X44856Y30721D01*
X44843D01*
X44849Y30734D02*
X44836Y30721D01*
X44843D02*
X44836Y30728D01*
X44823Y30721D02*
X44810D01*
X44816D01*
Y30761D01*
X44823Y30754D01*
X44790Y30721D02*
Y30748D01*
X44776Y30761D01*
X44763Y30748D01*
Y30721D01*
Y30741D01*
X44790D01*
X42669Y30553D02*
X42629D01*
Y30533D01*
X42636Y30526D01*
X42649D01*
X42656Y30533D01*
Y30553D01*
Y30539D02*
X42669Y30526D01*
Y30513D02*
Y30499D01*
Y30506D01*
X42629D01*
X42636Y30513D01*
X42219Y28134D02*
Y28174D01*
X42199D01*
X42192Y28167D01*
Y28154D01*
X42199Y28147D01*
X42219D01*
X42205D02*
X42192Y28134D01*
X42179D02*
X42166D01*
X42172D01*
Y28174D01*
X42179Y28167D01*
X42146Y28134D02*
X42132D01*
X42139D01*
Y28174D01*
X42146Y28167D01*
X42112Y28134D02*
Y28161D01*
X42099Y28174D01*
X42086Y28161D01*
Y28134D01*
Y28154D01*
X42112D01*
D81*
X44952Y29521D02*
X44962D01*
Y29257D02*
Y29521D01*
X44952Y29257D02*
X44962D01*
X42078Y27002D02*
X42204D01*
X42078Y27120D02*
X42204D01*
X44952Y30685D02*
X44962D01*
Y30421D02*
Y30685D01*
X44952Y30421D02*
X44962D01*
X42084Y28199D02*
X42210D01*
X42084Y28317D02*
X42210D01*
D82*
X45040Y29519D02*
X45033Y29523D01*
Y29515D01*
X45040Y29519D01*
Y30683D02*
X45033Y30687D01*
Y30679D01*
X45040Y30683D01*
M02*
