%FSLAX23Y23*%
%MOIN*%
G70*
G01*
G75*
G04 Layer_Color=16711935*
%ADD10R,0.012X0.065*%
%ADD11R,0.217X0.120*%
%ADD12R,0.065X0.012*%
%ADD13R,0.075X0.037*%
%ADD14R,0.272X0.268*%
%ADD15R,0.035X0.037*%
%ADD16R,0.035X0.037*%
%ADD17R,0.085X0.138*%
%ADD18R,0.085X0.043*%
%ADD19R,0.085X0.043*%
%ADD20O,0.028X0.098*%
%ADD21R,0.280X0.100*%
%ADD22R,0.070X0.135*%
%ADD23R,0.050X0.050*%
%ADD24O,0.087X0.024*%
%ADD25O,0.098X0.028*%
%ADD26R,0.045X0.017*%
%ADD27R,0.591X0.010*%
%ADD28R,0.012X0.105*%
%ADD29R,0.063X0.051*%
%ADD30R,0.063X0.079*%
%ADD31R,0.050X0.050*%
%ADD32C,0.010*%
%ADD33C,0.050*%
%ADD34C,0.020*%
%ADD35C,0.075*%
%ADD36C,0.012*%
%ADD37C,0.008*%
%ADD38C,0.012*%
%ADD39C,0.012*%
%ADD40R,0.060X0.060*%
%ADD41C,0.060*%
%ADD42C,0.024*%
%ADD43C,0.020*%
%ADD44C,0.115*%
%ADD45R,0.115X0.115*%
%ADD46C,0.080*%
%ADD47C,0.055*%
%ADD48R,0.059X0.059*%
%ADD49C,0.059*%
%ADD50C,0.120*%
%ADD51R,0.120X0.120*%
%ADD52R,0.079X0.079*%
%ADD53C,0.079*%
%ADD54C,0.010*%
%ADD55C,0.050*%
%ADD56C,0.040*%
%ADD57C,0.070*%
%ADD58C,0.054*%
%ADD59C,0.118*%
G04:AMPARAMS|DCode=60|XSize=138mil|YSize=138mil|CornerRadius=0mil|HoleSize=0mil|Usage=FLASHONLY|Rotation=0.000|XOffset=0mil|YOffset=0mil|HoleType=Round|Shape=Relief|Width=10mil|Gap=10mil|Entries=4|*
%AMTHD60*
7,0,0,0.138,0.118,0.010,45*
%
%ADD60THD60*%
G04:AMPARAMS|DCode=61|XSize=112mil|YSize=112mil|CornerRadius=0mil|HoleSize=0mil|Usage=FLASHONLY|Rotation=0.000|XOffset=0mil|YOffset=0mil|HoleType=Round|Shape=Relief|Width=10mil|Gap=10mil|Entries=4|*
%AMTHD61*
7,0,0,0.112,0.092,0.010,45*
%
%ADD61THD61*%
%ADD62C,0.073*%
%ADD63C,0.075*%
%ADD64C,0.110*%
G04:AMPARAMS|DCode=65|XSize=107.244mil|YSize=107.244mil|CornerRadius=0mil|HoleSize=0mil|Usage=FLASHONLY|Rotation=0.000|XOffset=0mil|YOffset=0mil|HoleType=Round|Shape=Relief|Width=10mil|Gap=10mil|Entries=4|*
%AMTHD65*
7,0,0,0.107,0.087,0.010,45*
%
%ADD65THD65*%
%ADD66C,0.087*%
%ADD67C,0.092*%
%ADD68C,0.046*%
%ADD69C,0.064*%
G04:AMPARAMS|DCode=70|XSize=70mil|YSize=70mil|CornerRadius=0mil|HoleSize=0mil|Usage=FLASHONLY|Rotation=0.000|XOffset=0mil|YOffset=0mil|HoleType=Round|Shape=Relief|Width=10mil|Gap=10mil|Entries=4|*
%AMTHD70*
7,0,0,0.070,0.050,0.010,45*
%
%ADD70THD70*%
G04:AMPARAMS|DCode=71|XSize=88mil|YSize=88mil|CornerRadius=0mil|HoleSize=0mil|Usage=FLASHONLY|Rotation=0.000|XOffset=0mil|YOffset=0mil|HoleType=Round|Shape=Relief|Width=10mil|Gap=10mil|Entries=4|*
%AMTHD71*
7,0,0,0.088,0.068,0.010,45*
%
%ADD71THD71*%
%ADD72C,0.068*%
%ADD73C,0.000*%
G04:AMPARAMS|DCode=74|XSize=90mil|YSize=90mil|CornerRadius=0mil|HoleSize=0mil|Usage=FLASHONLY|Rotation=0.000|XOffset=0mil|YOffset=0mil|HoleType=Round|Shape=Relief|Width=10mil|Gap=10mil|Entries=4|*
%AMTHD74*
7,0,0,0.090,0.070,0.010,45*
%
%ADD74THD74*%
G04:AMPARAMS|DCode=75|XSize=93.465mil|YSize=93.465mil|CornerRadius=0mil|HoleSize=0mil|Usage=FLASHONLY|Rotation=0.000|XOffset=0mil|YOffset=0mil|HoleType=Round|Shape=Relief|Width=10mil|Gap=10mil|Entries=4|*
%AMTHD75*
7,0,0,0.093,0.073,0.010,45*
%
%ADD75THD75*%
G04:AMPARAMS|DCode=76|XSize=95.433mil|YSize=95.433mil|CornerRadius=0mil|HoleSize=0mil|Usage=FLASHONLY|Rotation=0.000|XOffset=0mil|YOffset=0mil|HoleType=Round|Shape=Relief|Width=10mil|Gap=10mil|Entries=4|*
%AMTHD76*
7,0,0,0.095,0.075,0.010,45*
%
%ADD76THD76*%
G04:AMPARAMS|DCode=77|XSize=130mil|YSize=130mil|CornerRadius=0mil|HoleSize=0mil|Usage=FLASHONLY|Rotation=0.000|XOffset=0mil|YOffset=0mil|HoleType=Round|Shape=Relief|Width=10mil|Gap=10mil|Entries=4|*
%AMTHD77*
7,0,0,0.130,0.110,0.010,45*
%
%ADD77THD77*%
%ADD78C,0.005*%
%ADD79R,0.071X0.126*%
%ADD80C,0.006*%
%ADD81C,0.008*%
%ADD82C,0.010*%
%ADD83R,0.189X0.116*%
%ADD84R,0.012X0.075*%
%ADD85R,0.012X0.060*%
%ADD86R,0.020X0.073*%
%ADD87R,0.225X0.128*%
%ADD88R,0.073X0.020*%
%ADD89R,0.083X0.045*%
%ADD90R,0.280X0.276*%
%ADD91R,0.043X0.045*%
%ADD92R,0.043X0.045*%
%ADD93R,0.093X0.146*%
%ADD94R,0.093X0.051*%
%ADD95R,0.093X0.051*%
%ADD96O,0.036X0.106*%
%ADD97R,0.288X0.108*%
%ADD98R,0.078X0.143*%
%ADD99R,0.058X0.058*%
%ADD100O,0.095X0.032*%
%ADD101O,0.106X0.036*%
%ADD102R,0.053X0.025*%
%ADD103R,0.599X0.018*%
%ADD104R,0.005X0.098*%
%ADD105R,0.071X0.059*%
%ADD106R,0.071X0.087*%
%ADD107R,0.058X0.058*%
%ADD108R,0.068X0.068*%
%ADD109C,0.032*%
%ADD110C,0.028*%
%ADD111C,0.123*%
%ADD112R,0.123X0.123*%
%ADD113C,0.088*%
%ADD114C,0.063*%
%ADD115R,0.067X0.067*%
%ADD116C,0.067*%
%ADD117C,0.128*%
%ADD118R,0.128X0.128*%
%ADD119R,0.087X0.087*%
%ADD120C,0.087*%
%ADD121C,0.018*%
%ADD122C,0.058*%
%ADD123R,1.016X0.295*%
%ADD124R,0.079X0.134*%
D36*
X42307Y25217D02*
Y25172D01*
X42288Y25206D02*
X42326Y25183D01*
Y25206D02*
X42288Y25183D01*
X42346Y25145D02*
X42343Y25141D01*
X42346Y25137D01*
X42350Y25141D01*
X42346Y25145D01*
X42425Y25198D02*
X42421Y25206D01*
X42413Y25213D01*
X42406Y25217D01*
X42391D01*
X42383Y25213D01*
X42375Y25206D01*
X42371Y25198D01*
X42368Y25187D01*
Y25168D01*
X42371Y25156D01*
X42375Y25149D01*
X42383Y25141D01*
X42391Y25137D01*
X42406D01*
X42413Y25141D01*
X42421Y25149D01*
X42425Y25156D01*
Y25168D01*
X42406D02*
X42425D01*
X42443Y25217D02*
Y25137D01*
Y25217D02*
X42477D01*
X42489Y25213D01*
X42493Y25210D01*
X42496Y25202D01*
Y25194D01*
X42493Y25187D01*
X42489Y25183D01*
X42477Y25179D01*
X42443D02*
X42477D01*
X42489Y25175D01*
X42493Y25172D01*
X42496Y25164D01*
Y25152D01*
X42493Y25145D01*
X42489Y25141D01*
X42477Y25137D01*
X42443D01*
X42568Y25206D02*
X42560Y25213D01*
X42549Y25217D01*
X42533D01*
X42522Y25213D01*
X42514Y25206D01*
Y25198D01*
X42518Y25191D01*
X42522Y25187D01*
X42530Y25183D01*
X42552Y25175D01*
X42560Y25172D01*
X42564Y25168D01*
X42568Y25160D01*
Y25149D01*
X42560Y25141D01*
X42549Y25137D01*
X42533D01*
X42522Y25141D01*
X42514Y25149D01*
X42648Y25172D02*
X42717D01*
X42803Y25217D02*
Y25137D01*
Y25217D02*
X42838D01*
X42849Y25213D01*
X42853Y25210D01*
X42857Y25202D01*
Y25194D01*
X42853Y25187D01*
X42849Y25183D01*
X42838Y25179D01*
X42803D02*
X42838D01*
X42849Y25175D01*
X42853Y25172D01*
X42857Y25164D01*
Y25152D01*
X42853Y25145D01*
X42849Y25141D01*
X42838Y25137D01*
X42803D01*
X42897Y25217D02*
X42890Y25213D01*
X42882Y25206D01*
X42878Y25198D01*
X42875Y25187D01*
Y25168D01*
X42878Y25156D01*
X42882Y25149D01*
X42890Y25141D01*
X42897Y25137D01*
X42913D01*
X42920Y25141D01*
X42928Y25149D01*
X42932Y25156D01*
X42936Y25168D01*
Y25187D01*
X42932Y25198D01*
X42928Y25206D01*
X42920Y25213D01*
X42913Y25217D01*
X42897D01*
X42981D02*
Y25137D01*
X42954Y25217D02*
X43008D01*
X43044D02*
Y25137D01*
X43017Y25217D02*
X43070D01*
X43103D02*
X43095Y25213D01*
X43088Y25206D01*
X43084Y25198D01*
X43080Y25187D01*
Y25168D01*
X43084Y25156D01*
X43088Y25149D01*
X43095Y25141D01*
X43103Y25137D01*
X43118D01*
X43126Y25141D01*
X43133Y25149D01*
X43137Y25156D01*
X43141Y25168D01*
Y25187D01*
X43137Y25198D01*
X43133Y25206D01*
X43126Y25213D01*
X43118Y25217D01*
X43103D01*
X43160D02*
Y25137D01*
Y25217D02*
X43190Y25137D01*
X43220Y25217D02*
X43190Y25137D01*
X43220Y25217D02*
Y25137D01*
X43359Y25206D02*
X43352Y25213D01*
X43340Y25217D01*
X43325D01*
X43314Y25213D01*
X43306Y25206D01*
Y25198D01*
X43310Y25191D01*
X43314Y25187D01*
X43321Y25183D01*
X43344Y25175D01*
X43352Y25172D01*
X43356Y25168D01*
X43359Y25160D01*
Y25149D01*
X43352Y25141D01*
X43340Y25137D01*
X43325D01*
X43314Y25141D01*
X43306Y25149D01*
X43400Y25217D02*
X43393Y25213D01*
X43385Y25206D01*
X43381Y25198D01*
X43377Y25187D01*
Y25168D01*
X43381Y25156D01*
X43385Y25149D01*
X43393Y25141D01*
X43400Y25137D01*
X43415D01*
X43423Y25141D01*
X43431Y25149D01*
X43434Y25156D01*
X43438Y25168D01*
Y25187D01*
X43434Y25198D01*
X43431Y25206D01*
X43423Y25213D01*
X43415Y25217D01*
X43400D01*
X43457D02*
Y25137D01*
X43503D01*
X43511Y25217D02*
Y25137D01*
Y25217D02*
X43538D01*
X43550Y25213D01*
X43557Y25206D01*
X43561Y25198D01*
X43565Y25187D01*
Y25168D01*
X43561Y25156D01*
X43557Y25149D01*
X43550Y25141D01*
X43538Y25137D01*
X43511D01*
X43632Y25217D02*
X43583D01*
Y25137D01*
X43632D01*
X43583Y25179D02*
X43613D01*
X43645Y25217D02*
Y25137D01*
Y25217D02*
X43680D01*
X43691Y25213D01*
X43695Y25210D01*
X43699Y25202D01*
Y25194D01*
X43695Y25187D01*
X43691Y25183D01*
X43680Y25179D01*
X43645D01*
X43672D02*
X43699Y25137D01*
X43780Y25217D02*
Y25137D01*
Y25217D02*
X43810Y25137D01*
X43840Y25217D02*
X43810Y25137D01*
X43840Y25217D02*
Y25137D01*
X43924D02*
X43894Y25217D01*
X43863Y25137D01*
X43875Y25164D02*
X43913D01*
X43996Y25206D02*
X43989Y25213D01*
X43977Y25217D01*
X43962D01*
X43951Y25213D01*
X43943Y25206D01*
Y25198D01*
X43947Y25191D01*
X43951Y25187D01*
X43958Y25183D01*
X43981Y25175D01*
X43989Y25172D01*
X43992Y25168D01*
X43996Y25160D01*
Y25149D01*
X43989Y25141D01*
X43977Y25137D01*
X43962D01*
X43951Y25141D01*
X43943Y25149D01*
X44014Y25217D02*
Y25137D01*
X44067Y25217D02*
X44014Y25164D01*
X44033Y25183D02*
X44067Y25137D01*
X44205Y25198D02*
X44202Y25206D01*
X44194Y25213D01*
X44186Y25217D01*
X44171D01*
X44163Y25213D01*
X44156Y25206D01*
X44152Y25198D01*
X44148Y25187D01*
Y25168D01*
X44152Y25156D01*
X44156Y25149D01*
X44163Y25141D01*
X44171Y25137D01*
X44186D01*
X44194Y25141D01*
X44202Y25149D01*
X44205Y25156D01*
Y25168D01*
X44186D02*
X44205D01*
X44273Y25217D02*
X44224D01*
Y25137D01*
X44273D01*
X44224Y25179D02*
X44254D01*
X44286Y25217D02*
Y25137D01*
Y25217D02*
X44321D01*
X44332Y25213D01*
X44336Y25210D01*
X44340Y25202D01*
Y25194D01*
X44336Y25187D01*
X44332Y25183D01*
X44321Y25179D01*
X44286D01*
X44313D02*
X44340Y25137D01*
X44358Y25217D02*
Y25137D01*
Y25217D02*
X44392D01*
X44403Y25213D01*
X44407Y25210D01*
X44411Y25202D01*
Y25194D01*
X44407Y25187D01*
X44403Y25183D01*
X44392Y25179D01*
X44358D02*
X44392D01*
X44403Y25175D01*
X44407Y25172D01*
X44411Y25164D01*
Y25152D01*
X44407Y25145D01*
X44403Y25141D01*
X44392Y25137D01*
X44358D01*
X44478Y25217D02*
X44429D01*
Y25137D01*
X44478D01*
X44429Y25179D02*
X44459D01*
X44492Y25217D02*
Y25137D01*
Y25217D02*
X44526D01*
X44537Y25213D01*
X44541Y25210D01*
X44545Y25202D01*
Y25194D01*
X44541Y25187D01*
X44537Y25183D01*
X44526Y25179D01*
X44492D01*
X44518D02*
X44545Y25137D01*
X44626Y25217D02*
Y25137D01*
Y25217D02*
X44653D01*
X44664Y25213D01*
X44672Y25206D01*
X44675Y25198D01*
X44679Y25187D01*
Y25168D01*
X44675Y25156D01*
X44672Y25149D01*
X44664Y25141D01*
X44653Y25137D01*
X44626D01*
X44758D02*
X44728Y25217D01*
X44697Y25137D01*
X44709Y25164D02*
X44747D01*
X44803Y25217D02*
Y25137D01*
X44777Y25217D02*
X44830D01*
X44900Y25137D02*
X44870Y25217D01*
X44840Y25137D01*
X44851Y25164D02*
X44889D01*
D37*
X41078Y31284D02*
Y31784D01*
X40828Y31534D02*
X41328D01*
X41028Y31484D02*
X41078D01*
X41028D02*
Y31534D01*
X41078Y31584D02*
X41128D01*
Y31534D02*
Y31584D01*
X41083Y31539D02*
Y31579D01*
X41123D01*
Y31539D02*
Y31579D01*
X41083Y31539D02*
X41123D01*
X41088Y31544D02*
Y31574D01*
X41118D01*
Y31544D02*
Y31574D01*
X41093Y31544D02*
X41118D01*
X41093Y31549D02*
Y31569D01*
X41113D01*
Y31549D02*
Y31569D01*
X41098Y31549D02*
X41113D01*
X41098Y31554D02*
Y31564D01*
X41108D01*
Y31554D02*
Y31564D01*
X41098Y31554D02*
X41108D01*
X41103D02*
Y31564D01*
X41033Y31489D02*
Y31529D01*
X41073D01*
Y31489D02*
Y31529D01*
X41033Y31489D02*
X41073D01*
X41038Y31494D02*
Y31524D01*
X41068D01*
Y31494D02*
Y31524D01*
X41043Y31494D02*
X41068D01*
X41043Y31499D02*
Y31519D01*
X41063D01*
Y31499D02*
Y31519D01*
X41048Y31499D02*
X41063D01*
X41048Y31504D02*
Y31514D01*
X41058D01*
Y31504D02*
Y31514D01*
X41048Y31504D02*
X41058D01*
X41053D02*
Y31514D01*
X45826Y31253D02*
Y31753D01*
X45576Y31503D02*
X46076D01*
X45776Y31453D02*
X45826D01*
X45776D02*
Y31503D01*
X45826Y31553D02*
X45876D01*
Y31503D02*
Y31553D01*
X45831Y31508D02*
Y31548D01*
X45871D01*
Y31508D02*
Y31548D01*
X45831Y31508D02*
X45871D01*
X45836Y31513D02*
Y31543D01*
X45866D01*
Y31513D02*
Y31543D01*
X45841Y31513D02*
X45866D01*
X45841Y31518D02*
Y31538D01*
X45861D01*
Y31518D02*
Y31538D01*
X45846Y31518D02*
X45861D01*
X45846Y31523D02*
Y31533D01*
X45856D01*
Y31523D02*
Y31533D01*
X45846Y31523D02*
X45856D01*
X45851D02*
Y31533D01*
X45781Y31458D02*
Y31498D01*
X45821D01*
Y31458D02*
Y31498D01*
X45781Y31458D02*
X45821D01*
X45786Y31463D02*
Y31493D01*
X45816D01*
Y31463D02*
Y31493D01*
X45791Y31463D02*
X45816D01*
X45791Y31468D02*
Y31488D01*
X45811D01*
Y31468D02*
Y31488D01*
X45796Y31468D02*
X45811D01*
X45796Y31473D02*
Y31483D01*
X45806D01*
Y31473D02*
Y31483D01*
X45796Y31473D02*
X45806D01*
X45801D02*
Y31483D01*
X41432Y24694D02*
Y25194D01*
X41182Y24944D02*
X41682D01*
X41382Y24894D02*
X41432D01*
X41382D02*
Y24944D01*
X41432Y24994D02*
X41482D01*
Y24944D02*
Y24994D01*
X41437Y24949D02*
Y24989D01*
X41477D01*
Y24949D02*
Y24989D01*
X41437Y24949D02*
X41477D01*
X41442Y24954D02*
Y24984D01*
X41472D01*
Y24954D02*
Y24984D01*
X41447Y24954D02*
X41472D01*
X41447Y24959D02*
Y24979D01*
X41467D01*
Y24959D02*
Y24979D01*
X41452Y24959D02*
X41467D01*
X41452Y24964D02*
Y24974D01*
X41462D01*
Y24964D02*
Y24974D01*
X41452Y24964D02*
X41462D01*
X41457D02*
Y24974D01*
X41387Y24899D02*
Y24939D01*
X41427D01*
Y24899D02*
Y24939D01*
X41387Y24899D02*
X41427D01*
X41392Y24904D02*
Y24934D01*
X41422D01*
Y24904D02*
Y24934D01*
X41397Y24904D02*
X41422D01*
X41397Y24909D02*
Y24929D01*
X41417D01*
Y24909D02*
Y24929D01*
X41402Y24909D02*
X41417D01*
X41402Y24914D02*
Y24924D01*
X41412D01*
Y24914D02*
Y24924D01*
X41402Y24914D02*
X41412D01*
X41407D02*
Y24924D01*
D38*
X42309Y25498D02*
Y25418D01*
X42355D01*
X42425D02*
X42394Y25498D01*
X42364Y25418D01*
X42375Y25444D02*
X42413D01*
X42496Y25486D02*
X42489Y25494D01*
X42477Y25498D01*
X42462D01*
X42451Y25494D01*
X42443Y25486D01*
Y25479D01*
X42447Y25471D01*
X42451Y25467D01*
X42458Y25464D01*
X42481Y25456D01*
X42489Y25452D01*
X42493Y25448D01*
X42496Y25441D01*
Y25429D01*
X42489Y25422D01*
X42477Y25418D01*
X42462D01*
X42451Y25422D01*
X42443Y25429D01*
X42634Y25479D02*
X42631Y25486D01*
X42623Y25494D01*
X42615Y25498D01*
X42600D01*
X42592Y25494D01*
X42585Y25486D01*
X42581Y25479D01*
X42577Y25467D01*
Y25448D01*
X42581Y25437D01*
X42585Y25429D01*
X42592Y25422D01*
X42600Y25418D01*
X42615D01*
X42623Y25422D01*
X42631Y25429D01*
X42634Y25437D01*
X42657Y25498D02*
Y25441D01*
X42661Y25429D01*
X42668Y25422D01*
X42680Y25418D01*
X42687D01*
X42699Y25422D01*
X42706Y25429D01*
X42710Y25441D01*
Y25498D01*
X42732D02*
Y25418D01*
Y25498D02*
X42763Y25418D01*
X42793Y25498D02*
X42763Y25418D01*
X42793Y25498D02*
Y25418D01*
X42816Y25498D02*
Y25418D01*
Y25498D02*
X42850D01*
X42862Y25494D01*
X42866Y25490D01*
X42869Y25483D01*
Y25475D01*
X42866Y25467D01*
X42862Y25464D01*
X42850Y25460D01*
X42816D02*
X42850D01*
X42862Y25456D01*
X42866Y25452D01*
X42869Y25444D01*
Y25433D01*
X42866Y25425D01*
X42862Y25422D01*
X42850Y25418D01*
X42816D01*
X42887Y25498D02*
Y25418D01*
Y25498D02*
X42922D01*
X42933Y25494D01*
X42937Y25490D01*
X42941Y25483D01*
Y25475D01*
X42937Y25467D01*
X42933Y25464D01*
X42922Y25460D01*
X42887D01*
X42914D02*
X42941Y25418D01*
X43008Y25498D02*
X42958D01*
Y25418D01*
X43008D01*
X42958Y25460D02*
X42989D01*
X43075Y25486D02*
X43067Y25494D01*
X43056Y25498D01*
X43040D01*
X43029Y25494D01*
X43021Y25486D01*
Y25479D01*
X43025Y25471D01*
X43029Y25467D01*
X43037Y25464D01*
X43059Y25456D01*
X43067Y25452D01*
X43071Y25448D01*
X43075Y25441D01*
Y25429D01*
X43067Y25422D01*
X43056Y25418D01*
X43040D01*
X43029Y25422D01*
X43021Y25429D01*
X43178Y25498D02*
X43171Y25494D01*
X43163Y25486D01*
X43159Y25479D01*
X43155Y25467D01*
Y25448D01*
X43159Y25437D01*
X43163Y25429D01*
X43171Y25422D01*
X43178Y25418D01*
X43193D01*
X43201Y25422D01*
X43209Y25429D01*
X43213Y25437D01*
X43216Y25448D01*
Y25467D01*
X43213Y25479D01*
X43209Y25486D01*
X43201Y25494D01*
X43193Y25498D01*
X43178D01*
X43235D02*
Y25418D01*
Y25498D02*
X43269D01*
X43281Y25494D01*
X43285Y25490D01*
X43288Y25483D01*
Y25475D01*
X43285Y25467D01*
X43281Y25464D01*
X43269Y25460D01*
X43235D02*
X43269D01*
X43281Y25456D01*
X43285Y25452D01*
X43288Y25444D01*
Y25433D01*
X43285Y25425D01*
X43281Y25422D01*
X43269Y25418D01*
X43235D01*
X43360Y25486D02*
X43352Y25494D01*
X43340Y25498D01*
X43325D01*
X43314Y25494D01*
X43306Y25486D01*
Y25479D01*
X43310Y25471D01*
X43314Y25467D01*
X43321Y25464D01*
X43344Y25456D01*
X43352Y25452D01*
X43356Y25448D01*
X43360Y25441D01*
Y25429D01*
X43352Y25422D01*
X43340Y25418D01*
X43325D01*
X43314Y25422D01*
X43306Y25429D01*
X43427Y25498D02*
X43377D01*
Y25418D01*
X43427D01*
X43377Y25460D02*
X43408D01*
X43440Y25498D02*
Y25418D01*
Y25498D02*
X43475D01*
X43486Y25494D01*
X43490Y25490D01*
X43494Y25483D01*
Y25475D01*
X43490Y25467D01*
X43486Y25464D01*
X43475Y25460D01*
X43440D01*
X43467D02*
X43494Y25418D01*
X43512Y25498D02*
X43542Y25418D01*
X43572Y25498D02*
X43542Y25418D01*
X43644D02*
X43613Y25498D01*
X43583Y25418D01*
X43594Y25444D02*
X43632D01*
X43689Y25498D02*
Y25418D01*
X43662Y25498D02*
X43716D01*
X43748D02*
X43740Y25494D01*
X43733Y25486D01*
X43729Y25479D01*
X43725Y25467D01*
Y25448D01*
X43729Y25437D01*
X43733Y25429D01*
X43740Y25422D01*
X43748Y25418D01*
X43763D01*
X43771Y25422D01*
X43779Y25429D01*
X43782Y25437D01*
X43786Y25448D01*
Y25467D01*
X43782Y25479D01*
X43779Y25486D01*
X43771Y25494D01*
X43763Y25498D01*
X43748D01*
X43805D02*
Y25418D01*
Y25498D02*
X43839D01*
X43850Y25494D01*
X43854Y25490D01*
X43858Y25483D01*
Y25475D01*
X43854Y25467D01*
X43850Y25464D01*
X43839Y25460D01*
X43805D01*
X43831D02*
X43858Y25418D01*
X43876Y25498D02*
X43906Y25460D01*
Y25418D01*
X43937Y25498D02*
X43906Y25460D01*
X44311Y25471D02*
X44307Y25460D01*
X44300Y25452D01*
X44288Y25448D01*
X44284D01*
X44273Y25452D01*
X44265Y25460D01*
X44261Y25471D01*
Y25475D01*
X44265Y25486D01*
X44273Y25494D01*
X44284Y25498D01*
X44288D01*
X44300Y25494D01*
X44307Y25486D01*
X44311Y25471D01*
Y25452D01*
X44307Y25433D01*
X44300Y25422D01*
X44288Y25418D01*
X44280D01*
X44269Y25422D01*
X44265Y25429D01*
X44333Y25406D02*
X44386Y25498D01*
X44391Y25483D02*
X44399Y25486D01*
X44410Y25498D01*
Y25418D01*
X44503Y25498D02*
X44465Y25418D01*
X44450Y25498D02*
X44503D01*
X44521Y25406D02*
X44575Y25498D01*
X44584Y25479D02*
Y25483D01*
X44587Y25490D01*
X44591Y25494D01*
X44599Y25498D01*
X44614D01*
X44622Y25494D01*
X44626Y25490D01*
X44629Y25483D01*
Y25475D01*
X44626Y25467D01*
X44618Y25456D01*
X44580Y25418D01*
X44633D01*
X44674Y25498D02*
X44663Y25494D01*
X44655Y25483D01*
X44651Y25464D01*
Y25452D01*
X44655Y25433D01*
X44663Y25422D01*
X44674Y25418D01*
X44682D01*
X44693Y25422D01*
X44701Y25433D01*
X44704Y25452D01*
Y25464D01*
X44701Y25483D01*
X44693Y25494D01*
X44682Y25498D01*
X44674D01*
X44722Y25483D02*
X44730Y25486D01*
X44741Y25498D01*
Y25418D01*
X44785Y25479D02*
Y25483D01*
X44789Y25490D01*
X44792Y25494D01*
X44800Y25498D01*
X44815D01*
X44823Y25494D01*
X44827Y25490D01*
X44830Y25483D01*
Y25475D01*
X44827Y25467D01*
X44819Y25456D01*
X44781Y25418D01*
X44834D01*
D39*
X42309Y25633D02*
X42317Y25636D01*
X42328Y25648D01*
Y25568D01*
X42421Y25648D02*
X42383Y25568D01*
X42368Y25648D02*
X42421D01*
X42485D02*
X42447D01*
X42443Y25614D01*
X42447Y25617D01*
X42458Y25621D01*
X42469D01*
X42481Y25617D01*
X42488Y25610D01*
X42492Y25598D01*
Y25591D01*
X42488Y25579D01*
X42481Y25572D01*
X42469Y25568D01*
X42458D01*
X42447Y25572D01*
X42443Y25575D01*
X42439Y25583D01*
X42510Y25602D02*
X42579D01*
X42625Y25648D02*
X42614Y25644D01*
X42606Y25633D01*
X42602Y25614D01*
Y25602D01*
X42606Y25583D01*
X42614Y25572D01*
X42625Y25568D01*
X42633D01*
X42644Y25572D01*
X42652Y25583D01*
X42656Y25602D01*
Y25614D01*
X42652Y25633D01*
X42644Y25644D01*
X42633Y25648D01*
X42625D01*
X42696D02*
X42685Y25644D01*
X42677Y25633D01*
X42674Y25614D01*
Y25602D01*
X42677Y25583D01*
X42685Y25572D01*
X42696Y25568D01*
X42704D01*
X42715Y25572D01*
X42723Y25583D01*
X42727Y25602D01*
Y25614D01*
X42723Y25633D01*
X42715Y25644D01*
X42704Y25648D01*
X42696D01*
X42768D02*
X42756Y25644D01*
X42749Y25633D01*
X42745Y25614D01*
Y25602D01*
X42749Y25583D01*
X42756Y25572D01*
X42768Y25568D01*
X42775D01*
X42787Y25572D01*
X42794Y25583D01*
X42798Y25602D01*
Y25614D01*
X42794Y25633D01*
X42787Y25644D01*
X42775Y25648D01*
X42768D01*
X42862D02*
X42824D01*
X42820Y25614D01*
X42824Y25617D01*
X42835Y25621D01*
X42847D01*
X42858Y25617D01*
X42866Y25610D01*
X42869Y25598D01*
Y25591D01*
X42866Y25579D01*
X42858Y25572D01*
X42847Y25568D01*
X42835D01*
X42824Y25572D01*
X42820Y25575D01*
X42816Y25583D01*
X42891Y25629D02*
Y25633D01*
X42895Y25640D01*
X42899Y25644D01*
X42906Y25648D01*
X42922D01*
X42929Y25644D01*
X42933Y25640D01*
X42937Y25633D01*
Y25625D01*
X42933Y25617D01*
X42925Y25606D01*
X42887Y25568D01*
X42941D01*
X43021Y25621D02*
Y25568D01*
Y25598D02*
X43025Y25610D01*
X43033Y25617D01*
X43040Y25621D01*
X43052D01*
X43059Y25598D02*
X43105D01*
Y25606D01*
X43101Y25614D01*
X43097Y25617D01*
X43090Y25621D01*
X43078D01*
X43070Y25617D01*
X43063Y25610D01*
X43059Y25598D01*
Y25591D01*
X43063Y25579D01*
X43070Y25572D01*
X43078Y25568D01*
X43090D01*
X43097Y25572D01*
X43105Y25579D01*
X43122Y25621D02*
X43145Y25568D01*
X43168Y25621D02*
X43145Y25568D01*
X43181Y25633D02*
X43188Y25636D01*
X43200Y25648D01*
Y25568D01*
D72*
X44264Y27664D02*
D03*
X44258Y30813D02*
D03*
Y29649D02*
D03*
X44263Y28515D02*
D03*
D85*
X44222Y26808D02*
D03*
X44202D02*
D03*
X44182D02*
D03*
X44163D02*
D03*
X44143D02*
D03*
X44123D02*
D03*
X44104D02*
D03*
X44084D02*
D03*
X44064D02*
D03*
X44044D02*
D03*
X44025D02*
D03*
X44005D02*
D03*
X43985D02*
D03*
X43966D02*
D03*
X43946D02*
D03*
X43926D02*
D03*
X43907D02*
D03*
X43887D02*
D03*
X43867D02*
D03*
X43847D02*
D03*
X43828D02*
D03*
X43808D02*
D03*
X43788D02*
D03*
X43769D02*
D03*
X43749D02*
D03*
X43729D02*
D03*
X43710D02*
D03*
X43690D02*
D03*
X43670D02*
D03*
X43650D02*
D03*
X42863D02*
D03*
X42883D02*
D03*
X42902D02*
D03*
X42922D02*
D03*
X42942D02*
D03*
X42961D02*
D03*
X42981D02*
D03*
X43001D02*
D03*
X43021D02*
D03*
X43040D02*
D03*
X43060D02*
D03*
X43080D02*
D03*
X43099D02*
D03*
X43119D02*
D03*
X43139D02*
D03*
X43158D02*
D03*
X43178D02*
D03*
X43198D02*
D03*
X43218D02*
D03*
X43237D02*
D03*
X43257D02*
D03*
X43277D02*
D03*
X43296D02*
D03*
X43316D02*
D03*
X43336D02*
D03*
X43355D02*
D03*
X43375D02*
D03*
X43395D02*
D03*
X43415D02*
D03*
X43434D02*
D03*
D89*
X45035Y29479D02*
D03*
Y29299D02*
D03*
Y30643D02*
D03*
Y30463D02*
D03*
D90*
X44805Y29389D02*
D03*
Y30553D02*
D03*
D99*
X43321Y27567D02*
D03*
Y27657D02*
D03*
X43321Y27940D02*
D03*
Y28030D02*
D03*
Y28329D02*
D03*
Y28419D02*
D03*
X43330Y28740D02*
D03*
Y28830D02*
D03*
X43303Y27495D02*
D03*
Y27405D02*
D03*
X43303Y27868D02*
D03*
Y27778D02*
D03*
Y28257D02*
D03*
Y28167D02*
D03*
X43312Y28668D02*
D03*
Y28578D02*
D03*
X42642Y29364D02*
D03*
Y29274D02*
D03*
X44331Y27415D02*
D03*
Y27505D02*
D03*
X44386Y30583D02*
D03*
Y30493D02*
D03*
Y29419D02*
D03*
Y29329D02*
D03*
X44334Y30758D02*
D03*
Y30848D02*
D03*
Y29594D02*
D03*
Y29684D02*
D03*
X42316Y28982D02*
D03*
Y28892D02*
D03*
X42310Y27785D02*
D03*
Y27695D02*
D03*
X42117Y28979D02*
D03*
Y28889D02*
D03*
X42111Y27782D02*
D03*
Y27692D02*
D03*
X42244Y28980D02*
D03*
Y28890D02*
D03*
X42238Y27783D02*
D03*
Y27693D02*
D03*
X44334Y28450D02*
D03*
Y28540D02*
D03*
X44335Y27599D02*
D03*
Y27689D02*
D03*
D103*
X43936Y26743D02*
D03*
X43149D02*
D03*
D104*
X44222Y26831D02*
D03*
X44202D02*
D03*
X44182D02*
D03*
X44163D02*
D03*
X44143D02*
D03*
X44123D02*
D03*
X44104D02*
D03*
X44084D02*
D03*
X44064D02*
D03*
X44044D02*
D03*
X44025D02*
D03*
X44005D02*
D03*
X43985D02*
D03*
X43966D02*
D03*
X43946D02*
D03*
X43926D02*
D03*
X43907D02*
D03*
X43887D02*
D03*
X43867D02*
D03*
X43847D02*
D03*
X43828D02*
D03*
X43808D02*
D03*
X43788D02*
D03*
X43769D02*
D03*
X43749D02*
D03*
X43729D02*
D03*
X43710D02*
D03*
X43690D02*
D03*
X43670D02*
D03*
X43650D02*
D03*
X42863D02*
D03*
X42883D02*
D03*
X42902D02*
D03*
X42922D02*
D03*
X42942D02*
D03*
X42961D02*
D03*
X42981D02*
D03*
X43001D02*
D03*
X43021D02*
D03*
X43040D02*
D03*
X43060D02*
D03*
X43080D02*
D03*
X43099D02*
D03*
X43119D02*
D03*
X43139D02*
D03*
X43158D02*
D03*
X43178D02*
D03*
X43198D02*
D03*
X43218D02*
D03*
X43237D02*
D03*
X43257D02*
D03*
X43277D02*
D03*
X43296D02*
D03*
X43316D02*
D03*
X43336D02*
D03*
X43355D02*
D03*
X43375D02*
D03*
X43395D02*
D03*
X43415D02*
D03*
X43434D02*
D03*
D107*
X42199Y30503D02*
D03*
X42109D02*
D03*
X42199Y30573D02*
D03*
X42109D02*
D03*
X42199Y30643D02*
D03*
X42109D02*
D03*
X42199Y30713D02*
D03*
X42109D02*
D03*
X44279Y31053D02*
D03*
X44369D02*
D03*
X44279Y29889D02*
D03*
X44369D02*
D03*
X44208Y31050D02*
D03*
X44118D02*
D03*
X44208Y29886D02*
D03*
X44118D02*
D03*
X41973Y28398D02*
D03*
X42063D02*
D03*
X41967Y27201D02*
D03*
X42057D02*
D03*
X44273Y28731D02*
D03*
X44363D02*
D03*
X44274Y27881D02*
D03*
X44364D02*
D03*
X44203Y28731D02*
D03*
X44113D02*
D03*
X44204Y27881D02*
D03*
X44114D02*
D03*
X42118Y29079D02*
D03*
X42208D02*
D03*
X42112Y27882D02*
D03*
X42202D02*
D03*
X42154Y28407D02*
D03*
X42244D02*
D03*
X42148Y27210D02*
D03*
X42238D02*
D03*
X42819Y30533D02*
D03*
X42729D02*
D03*
D108*
X44114Y27664D02*
D03*
X44108Y30813D02*
D03*
Y29649D02*
D03*
X44113Y28515D02*
D03*
D109*
X42078Y28660D02*
D03*
X42117D02*
D03*
X42155D02*
D03*
X42193D02*
D03*
X42078Y28619D02*
D03*
X42117D02*
D03*
X42155D02*
D03*
X42193D02*
D03*
X42232D02*
D03*
Y28660D02*
D03*
X42226Y27463D02*
D03*
Y27422D02*
D03*
X42187D02*
D03*
X42149D02*
D03*
X42111D02*
D03*
X42072D02*
D03*
X42187Y27463D02*
D03*
X42149D02*
D03*
X42111D02*
D03*
X42072D02*
D03*
X42933Y26918D02*
D03*
X44594Y31143D02*
D03*
X44361Y30996D02*
D03*
X44459Y30895D02*
D03*
X44446Y31097D02*
D03*
X44550Y31191D02*
D03*
X44332Y31225D02*
D03*
X44284Y31007D02*
D03*
X44207Y31003D02*
D03*
X44354Y30444D02*
D03*
X44388Y30641D02*
D03*
X44125Y30482D02*
D03*
X45201Y30608D02*
D03*
X45114Y30643D02*
D03*
X44968Y30564D02*
D03*
X44334Y30711D02*
D03*
X44308Y30890D02*
D03*
X44325Y31095D02*
D03*
X44154Y31001D02*
D03*
X44219Y30508D02*
D03*
X44053Y30947D02*
D03*
X44550Y30027D02*
D03*
X44594Y29979D02*
D03*
X44361Y29832D02*
D03*
X44284Y29843D02*
D03*
X44207Y29839D02*
D03*
X44154Y29837D02*
D03*
X44446Y29933D02*
D03*
X44388Y29477D02*
D03*
X44354Y29280D02*
D03*
X44459Y29731D02*
D03*
X44334Y29547D02*
D03*
X44308Y29726D02*
D03*
X44968Y29400D02*
D03*
X45201Y29444D02*
D03*
X44125Y29318D02*
D03*
X44053Y29783D02*
D03*
X44219Y29344D02*
D03*
X44618Y28807D02*
D03*
X44351Y28681D02*
D03*
X44572Y28899D02*
D03*
X44469Y28756D02*
D03*
X44482Y28551D02*
D03*
X44382Y28454D02*
D03*
X42065Y28462D02*
D03*
X42117Y28463D02*
D03*
X42170Y28462D02*
D03*
X42221D02*
D03*
X42321Y28817D02*
D03*
X42297Y28845D02*
D03*
X42219Y28822D02*
D03*
X42168Y28824D02*
D03*
X42117Y28823D02*
D03*
X42066Y28827D02*
D03*
X42244Y28844D02*
D03*
X42320Y28688D02*
D03*
X42295Y28586D02*
D03*
X42405Y28480D02*
D03*
X42252Y28455D02*
D03*
X41962Y28450D02*
D03*
X42016Y28446D02*
D03*
X42354Y28384D02*
D03*
X42348Y28637D02*
D03*
X42118Y29031D02*
D03*
X42348Y27187D02*
D03*
X42342Y27440D02*
D03*
X41956Y27253D02*
D03*
X42315Y27620D02*
D03*
X44573Y28048D02*
D03*
X44619Y27956D02*
D03*
X44352Y27830D02*
D03*
X42059Y27265D02*
D03*
X44274Y27832D02*
D03*
X44313Y27929D02*
D03*
X44200Y27836D02*
D03*
X44470Y27905D02*
D03*
X42112Y27834D02*
D03*
X42111Y27626D02*
D03*
X44483Y27700D02*
D03*
X42289Y27389D02*
D03*
X42238Y27647D02*
D03*
X42314Y27491D02*
D03*
X42164Y27265D02*
D03*
X42246Y27258D02*
D03*
X44383Y27603D02*
D03*
X44294Y27712D02*
D03*
X42010Y27249D02*
D03*
X42399Y27283D02*
D03*
X42215Y27265D02*
D03*
X42291Y27648D02*
D03*
X42213Y27625D02*
D03*
X42162Y27627D02*
D03*
X42060Y27630D02*
D03*
X42111Y27266D02*
D03*
X43357Y28653D02*
D03*
X43369Y28580D02*
D03*
X43384Y28828D02*
D03*
X43303Y28784D02*
D03*
X42755Y28756D02*
D03*
X43223Y28822D02*
D03*
X42641Y28675D02*
D03*
X42990Y28694D02*
D03*
X42987Y28549D02*
D03*
X43509Y28754D02*
D03*
X42987Y28617D02*
D03*
X42746Y28345D02*
D03*
X43214Y28411D02*
D03*
X43294Y28373D02*
D03*
X42978Y28138D02*
D03*
X43500Y28343D02*
D03*
X43348Y28242D02*
D03*
X42632Y28264D02*
D03*
X42981Y28283D02*
D03*
X43375Y28417D02*
D03*
X43360Y28169D02*
D03*
X42746Y27956D02*
D03*
X43214Y28022D02*
D03*
X43294Y27984D02*
D03*
X42978Y27749D02*
D03*
X43348Y27853D02*
D03*
X42632Y27875D02*
D03*
X42981Y27894D02*
D03*
X43375Y28028D02*
D03*
X43360Y27780D02*
D03*
X42746Y27583D02*
D03*
X43214Y27649D02*
D03*
X42978Y27376D02*
D03*
X43500Y27581D02*
D03*
X43348Y27480D02*
D03*
X42632Y27502D02*
D03*
X42981Y27521D02*
D03*
X43375Y27655D02*
D03*
X43360Y27407D02*
D03*
X42979Y28212D02*
D03*
X42979Y27448D02*
D03*
X42976Y27822D02*
D03*
X42199Y30433D02*
D03*
X42884Y30533D02*
D03*
X43721Y29496D02*
D03*
X43731Y29717D02*
D03*
X43732Y29645D02*
D03*
X43731Y29571D02*
D03*
X42816Y29856D02*
D03*
X41991Y30013D02*
D03*
X42057Y29554D02*
D03*
X41712D02*
D03*
X41840Y29497D02*
D03*
X42748Y29435D02*
D03*
X42748Y29224D02*
D03*
X44324Y28048D02*
D03*
X44085Y31164D02*
D03*
X44029Y28846D02*
D03*
X43294Y27611D02*
D03*
X43500Y27954D02*
D03*
X42249Y29298D02*
D03*
X44113Y27801D02*
D03*
X44322Y28904D02*
D03*
X44112Y28652D02*
D03*
X44029Y29997D02*
D03*
X44312Y28780D02*
D03*
X44273Y28683D02*
D03*
X44199Y28687D02*
D03*
X45114Y29479D02*
D03*
X44293Y28563D02*
D03*
X44325Y29931D02*
D03*
X44332Y30081D02*
D03*
X44005Y28558D02*
D03*
X43996Y28975D02*
D03*
X43980Y28096D02*
D03*
X43959Y28121D02*
D03*
X43968Y29000D02*
D03*
X44001Y29696D02*
D03*
X43942Y29025D02*
D03*
X44003Y30863D02*
D03*
X43974Y30072D02*
D03*
X43948Y30097D02*
D03*
X43925Y30122D02*
D03*
X43961Y31114D02*
D03*
X43928Y31145D02*
D03*
X43895Y31176D02*
D03*
X44002Y29064D02*
D03*
X43770Y29068D02*
D03*
X42647Y30070D02*
D03*
X42568Y27440D02*
D03*
Y27821D02*
D03*
X42566Y28213D02*
D03*
Y28619D02*
D03*
X44110Y27357D02*
D03*
X44526Y29238D02*
D03*
X44792Y27360D02*
D03*
X44624Y27548D02*
D03*
X44625Y27333D02*
D03*
X44585Y27517D02*
D03*
X44586Y27281D02*
D03*
X44166Y28155D02*
D03*
X44136Y27285D02*
D03*
X44736Y28430D02*
D03*
Y27300D02*
D03*
X43043Y28843D02*
D03*
Y29103D02*
D03*
X44416Y29099D02*
D03*
X44346Y27310D02*
D03*
X44198Y28502D02*
D03*
X44364Y27371D02*
D03*
X44319Y27367D02*
D03*
X44376Y27505D02*
D03*
X44140Y27434D02*
D03*
X44198Y27409D02*
D03*
X44690Y27433D02*
D03*
Y27189D02*
D03*
X44657Y27395D02*
D03*
Y27163D02*
D03*
X44530Y27384D02*
D03*
X42643Y29214D02*
D03*
X42430Y29439D02*
D03*
X42491Y29548D02*
D03*
X42026Y28631D02*
D03*
X42028Y29335D02*
D03*
X42892Y29334D02*
D03*
X42010Y27434D02*
D03*
X42370Y29173D02*
D03*
X42897Y29281D02*
D03*
X42833Y29170D02*
D03*
Y29201D02*
D03*
X44224Y27942D02*
D03*
X44196Y27925D02*
D03*
X44194Y28780D02*
D03*
X44225D02*
D03*
X44061Y27712D02*
D03*
X44029Y27996D02*
D03*
X44004Y28070D02*
D03*
X44204Y29940D02*
D03*
X44235D02*
D03*
X44204Y31097D02*
D03*
X44235D02*
D03*
X42568Y27333D02*
D03*
D110*
X44903Y29487D02*
D03*
Y29428D02*
D03*
Y29369D02*
D03*
Y29310D02*
D03*
X44844Y29291D02*
D03*
Y29350D02*
D03*
Y29409D02*
D03*
Y29468D02*
D03*
X44785Y29487D02*
D03*
Y29428D02*
D03*
Y29369D02*
D03*
Y29310D02*
D03*
X44726Y29291D02*
D03*
Y29350D02*
D03*
Y29409D02*
D03*
Y29468D02*
D03*
X43424Y29504D02*
D03*
Y29563D02*
D03*
Y29622D02*
D03*
Y29681D02*
D03*
X43364Y29701D02*
D03*
Y29642D02*
D03*
Y29583D02*
D03*
Y29524D02*
D03*
X43305Y29504D02*
D03*
Y29563D02*
D03*
Y29622D02*
D03*
Y29681D02*
D03*
X43246Y29701D02*
D03*
Y29642D02*
D03*
Y29583D02*
D03*
Y29524D02*
D03*
X44903Y30651D02*
D03*
Y30592D02*
D03*
Y30533D02*
D03*
Y30474D02*
D03*
X44844Y30455D02*
D03*
Y30514D02*
D03*
Y30573D02*
D03*
Y30632D02*
D03*
X44785Y30651D02*
D03*
Y30592D02*
D03*
Y30533D02*
D03*
Y30474D02*
D03*
X44726Y30455D02*
D03*
Y30514D02*
D03*
Y30573D02*
D03*
Y30632D02*
D03*
X44112Y27941D02*
D03*
X42334Y29118D02*
D03*
X42344Y27928D02*
D03*
X43604Y26783D02*
D03*
X42821Y26786D02*
D03*
X42846Y26917D02*
D03*
D111*
X43479Y31113D02*
D03*
Y30363D02*
D03*
X42854D02*
D03*
X42729D02*
D03*
X42604D02*
D03*
X42104D02*
D03*
D112*
Y31113D02*
D03*
D113*
X43565Y29873D02*
D03*
X42784Y29964D02*
D03*
X42104Y30153D02*
D03*
X43709Y27586D02*
D03*
X43709Y27959D02*
D03*
Y28348D02*
D03*
X43718Y28759D02*
D03*
X41803Y29972D02*
D03*
X43314Y29872D02*
D03*
X43434Y30173D02*
D03*
D114*
X43520Y28555D02*
D03*
Y28655D02*
D03*
X43620D02*
D03*
Y28555D02*
D03*
X43570Y28605D02*
D03*
X43501Y27372D02*
D03*
Y27472D02*
D03*
X43601D02*
D03*
Y27372D02*
D03*
X43551Y27422D02*
D03*
X43501Y27745D02*
D03*
Y27845D02*
D03*
X43601D02*
D03*
Y27745D02*
D03*
X43551Y27795D02*
D03*
X43501Y28134D02*
D03*
Y28234D02*
D03*
X43601D02*
D03*
Y28134D02*
D03*
X43551Y28184D02*
D03*
D115*
X45354Y29979D02*
D03*
X45359Y27986D02*
D03*
X44974D02*
D03*
X41778Y29029D02*
D03*
X41884Y30463D02*
D03*
X41768Y27823D02*
D03*
X44964Y31143D02*
D03*
Y29979D02*
D03*
X45354Y31143D02*
D03*
X44973Y28837D02*
D03*
X45358D02*
D03*
D116*
X45354Y29879D02*
D03*
Y29779D02*
D03*
Y29679D02*
D03*
Y29579D02*
D03*
Y29479D02*
D03*
Y29379D02*
D03*
Y29279D02*
D03*
X45359Y27886D02*
D03*
Y27786D02*
D03*
Y27686D02*
D03*
Y27586D02*
D03*
Y27486D02*
D03*
X44974Y27686D02*
D03*
Y27786D02*
D03*
Y27886D02*
D03*
X41778Y29129D02*
D03*
X41884Y30563D02*
D03*
X41768Y27923D02*
D03*
X44964Y30843D02*
D03*
Y30943D02*
D03*
Y31043D02*
D03*
Y29679D02*
D03*
Y29779D02*
D03*
Y29879D02*
D03*
X45354Y31043D02*
D03*
Y30943D02*
D03*
Y30843D02*
D03*
Y30743D02*
D03*
Y30643D02*
D03*
Y30543D02*
D03*
Y30443D02*
D03*
X44973Y28537D02*
D03*
Y28637D02*
D03*
Y28737D02*
D03*
X45358D02*
D03*
Y28637D02*
D03*
Y28537D02*
D03*
Y28437D02*
D03*
Y28337D02*
D03*
D117*
X41803Y31125D02*
D03*
Y30969D02*
D03*
D118*
Y30813D02*
D03*
D119*
X43814Y30203D02*
D03*
D120*
Y30400D02*
D03*
D121*
X43361Y26984D02*
D03*
X43501Y27165D02*
D03*
Y27148D02*
D03*
Y27131D02*
D03*
Y27114D02*
D03*
Y27097D02*
D03*
Y27080D02*
D03*
Y27063D02*
D03*
Y27046D02*
D03*
Y27029D02*
D03*
Y27182D02*
D03*
Y27199D02*
D03*
Y27216D02*
D03*
Y27233D02*
D03*
Y27250D02*
D03*
Y27267D02*
D03*
Y27284D02*
D03*
Y27301D02*
D03*
X43960Y27101D02*
D03*
X43943D02*
D03*
X43926D02*
D03*
X43909D02*
D03*
X43977D02*
D03*
X43996D02*
D03*
X44013D02*
D03*
X44030D02*
D03*
X44121Y27230D02*
D03*
X44160Y26955D02*
D03*
Y26972D02*
D03*
D122*
X45136Y30453D02*
D03*
Y29289D02*
D03*
X42152Y28258D02*
D03*
X42146Y27061D02*
D03*
X42312Y29883D02*
D03*
X42556Y29911D02*
D03*
X42471Y29765D02*
D03*
X42763Y29677D02*
D03*
D123*
X43070Y30871D02*
D03*
D124*
X42031Y27061D02*
D03*
X42251D02*
D03*
X42037Y28258D02*
D03*
X42257D02*
D03*
M02*
