%FSLAX23Y23*%
%MOIN*%
G70*
G01*
G75*
G04 Layer_Physical_Order=2*
G04 Layer_Color=36540*
%ADD10O,0.024X0.079*%
%ADD11R,0.050X0.050*%
%ADD12O,0.014X0.067*%
%ADD13R,0.059X0.039*%
%ADD14R,0.036X0.036*%
%ADD15R,0.209X0.079*%
%ADD16C,0.010*%
%ADD17C,0.025*%
%ADD18C,0.050*%
%ADD19C,0.020*%
%ADD20C,0.100*%
%ADD21C,0.007*%
%ADD22C,0.012*%
%ADD23C,0.008*%
%ADD24C,0.012*%
%ADD25C,0.012*%
%ADD26R,0.100X0.100*%
%ADD27C,0.100*%
%ADD28R,0.100X0.100*%
%ADD29C,0.020*%
%ADD30C,0.063*%
%ADD31R,0.063X0.063*%
%ADD32C,0.070*%
%ADD33C,0.110*%
%ADD34R,0.110X0.110*%
%ADD35C,0.079*%
%ADD36C,0.059*%
%ADD37C,0.080*%
%ADD38C,0.065*%
%ADD39R,0.059X0.059*%
%ADD40R,0.059X0.059*%
%ADD41C,0.120*%
%ADD42R,0.120X0.120*%
%ADD43R,0.079X0.079*%
%ADD44R,0.079X0.079*%
%ADD45C,0.197*%
%ADD46C,0.157*%
%ADD47C,0.024*%
%ADD48C,0.050*%
D16*
X24186Y15832D02*
X25377D01*
X25619Y16074D01*
Y16331D01*
X23354Y16702D02*
Y17556D01*
X23326Y17584D02*
X23354Y17556D01*
X23326Y17584D02*
Y19236D01*
X23354Y16702D02*
X23764Y16292D01*
X24019Y18885D02*
Y19237D01*
Y18885D02*
X24050Y18854D01*
X24019Y17828D02*
Y18180D01*
X24050Y18211D01*
X24919Y16543D02*
Y17780D01*
X24786Y17913D02*
X24919Y17780D01*
X24786Y17913D02*
Y18943D01*
X24879Y19036D01*
Y19227D01*
X24095Y16574D02*
Y16679D01*
X23964Y16810D02*
X24095Y16679D01*
X23964Y16810D02*
Y17773D01*
X24019Y17828D01*
X24050Y18211D02*
Y18854D01*
D17*
X24399Y17932D02*
Y18395D01*
X24047Y17580D02*
X24399Y17932D01*
X24047Y16861D02*
Y17580D01*
X23808Y19051D02*
X23886Y18973D01*
Y18616D02*
Y18973D01*
X23795Y18525D02*
X23886Y18616D01*
X23795Y18378D02*
Y18525D01*
Y16857D02*
Y18378D01*
Y16857D02*
X23962Y16690D01*
X23012Y19038D02*
X23124Y18925D01*
Y18454D02*
Y18925D01*
X23039Y18369D02*
X23124Y18454D01*
X24275Y18519D02*
Y19077D01*
Y18519D02*
X24399Y18395D01*
D18*
X19922Y17573D02*
Y18680D01*
Y17573D02*
X20115Y17380D01*
X19676Y17511D02*
Y18739D01*
X19545Y17380D02*
X19676Y17511D01*
X19540Y17557D02*
Y18766D01*
X19487Y17504D02*
X19540Y17557D01*
X19815Y17380D02*
Y18729D01*
X19225Y17504D02*
X19487D01*
X19115Y17394D02*
X19225Y17504D01*
X19115Y17380D02*
Y17394D01*
X19415Y17380D02*
X19545D01*
X22703Y16618D02*
X22800Y16521D01*
X21492Y16618D02*
X22703D01*
X21114Y16996D02*
X21492Y16618D01*
X22800Y16521D02*
X22839D01*
X17921Y16414D02*
X17971Y16364D01*
X19115Y16528D02*
X19116Y16527D01*
X19115Y16528D02*
Y17380D01*
X19415Y16823D02*
X19416Y16822D01*
X19415Y16823D02*
Y17380D01*
X19811Y17105D02*
X19815Y17109D01*
Y17380D01*
X22698D02*
X22839Y17521D01*
X22114Y17380D02*
X22698D01*
X22762Y17144D02*
X22839Y17221D01*
X22050Y17144D02*
X22762D01*
X21814Y17380D02*
X22050Y17144D01*
X21754Y16821D02*
X22839D01*
X21414Y17161D02*
X21754Y16821D01*
X21414Y17161D02*
Y17380D01*
X21114Y16996D02*
Y17380D01*
X21265Y18900D02*
X21478D01*
X22114Y18264D01*
Y17380D02*
Y18264D01*
X21265Y18650D02*
X21814Y18101D01*
Y17380D02*
Y18101D01*
X21265Y18300D02*
X21414Y18151D01*
Y17380D02*
Y18151D01*
X21265Y17531D02*
Y18050D01*
X21114Y17380D02*
X21265Y17531D01*
X19922Y18680D02*
X20368Y19126D01*
Y19228D01*
X19815Y18729D02*
X20212Y19126D01*
Y19228D01*
X19676Y18739D02*
X20056Y19119D01*
Y19228D01*
X19540Y18766D02*
X19900Y19126D01*
Y19228D01*
D20*
X17846Y16414D02*
X17882D01*
X17963Y16164D02*
X17982D01*
X17896Y16222D02*
X17904D01*
X17963Y16164D01*
X19424Y16457D02*
X21328D01*
X19082Y15833D02*
X24185D01*
X19322Y16355D02*
X19424Y16457D01*
X19322Y16346D02*
Y16355D01*
X19275Y16299D02*
X19322Y16346D01*
X19266Y16299D02*
X19275D01*
X19042Y16075D02*
X19266Y16299D01*
X22809Y16145D02*
X23852D01*
X22501Y16453D02*
X22809Y16145D01*
X21316Y16453D02*
X22501D01*
X24185Y15833D02*
X24186Y15832D01*
X18973Y15942D02*
X19082Y15833D01*
X18044Y15942D02*
X18973D01*
X17985Y16001D02*
X18044Y15942D01*
X17963Y16001D02*
X17985D01*
X17788Y16176D02*
X17963Y16001D01*
X17788Y16176D02*
Y16356D01*
X17846Y16414D01*
X18148Y16075D02*
X19042D01*
X18059Y16164D02*
X18148Y16075D01*
X17982Y16164D02*
X18059D01*
D22*
X20023Y14490D02*
Y14444D01*
X20004Y14478D02*
X20042Y14456D01*
Y14478D02*
X20004Y14456D01*
X20062Y14418D02*
X20059Y14414D01*
X20062Y14410D01*
X20066Y14414D01*
X20062Y14418D01*
X20141Y14471D02*
X20137Y14478D01*
X20129Y14486D01*
X20122Y14490D01*
X20107D01*
X20099Y14486D01*
X20091Y14478D01*
X20088Y14471D01*
X20084Y14459D01*
Y14440D01*
X20088Y14429D01*
X20091Y14421D01*
X20099Y14414D01*
X20107Y14410D01*
X20122D01*
X20129Y14414D01*
X20137Y14421D01*
X20141Y14429D01*
Y14440D01*
X20122D02*
X20141D01*
X20159Y14475D02*
X20167Y14478D01*
X20178Y14490D01*
Y14410D01*
X20281Y14444D02*
X20349D01*
X20373D02*
X20441D01*
X20591Y14490D02*
Y14410D01*
Y14490D02*
X20621Y14410D01*
X20652Y14490D02*
X20621Y14410D01*
X20652Y14490D02*
Y14410D01*
X20674Y14490D02*
Y14410D01*
X20691Y14490D02*
Y14410D01*
Y14490D02*
X20718D01*
X20729Y14486D01*
X20737Y14478D01*
X20741Y14471D01*
X20745Y14459D01*
Y14440D01*
X20741Y14429D01*
X20737Y14421D01*
X20729Y14414D01*
X20718Y14410D01*
X20691D01*
X20825Y14490D02*
Y14410D01*
X20871D01*
X20941D02*
X20910Y14490D01*
X20880Y14410D01*
X20891Y14437D02*
X20929D01*
X20959Y14490D02*
X20990Y14452D01*
Y14410D01*
X21020Y14490D02*
X20990Y14452D01*
X21080Y14490D02*
X21031D01*
Y14410D01*
X21080D01*
X21031Y14452D02*
X21061D01*
X21093Y14490D02*
Y14410D01*
Y14490D02*
X21128D01*
X21139Y14486D01*
X21143Y14482D01*
X21147Y14475D01*
Y14467D01*
X21143Y14459D01*
X21139Y14456D01*
X21128Y14452D01*
X21093D01*
X21120D02*
X21147Y14410D01*
X21285Y14471D02*
X21281Y14478D01*
X21273Y14486D01*
X21266Y14490D01*
X21250D01*
X21243Y14486D01*
X21235Y14478D01*
X21231Y14471D01*
X21228Y14459D01*
Y14440D01*
X21231Y14429D01*
X21235Y14421D01*
X21243Y14414D01*
X21250Y14410D01*
X21266D01*
X21273Y14414D01*
X21281Y14421D01*
X21285Y14429D01*
Y14440D01*
X21266D02*
X21285D01*
X21352Y14490D02*
X21303D01*
Y14410D01*
X21352D01*
X21303Y14452D02*
X21333D01*
X21366Y14490D02*
Y14410D01*
Y14490D02*
X21400D01*
X21411Y14486D01*
X21415Y14482D01*
X21419Y14475D01*
Y14467D01*
X21415Y14459D01*
X21411Y14456D01*
X21400Y14452D01*
X21366D01*
X21392D02*
X21419Y14410D01*
X21437Y14490D02*
Y14410D01*
Y14490D02*
X21471D01*
X21483Y14486D01*
X21487Y14482D01*
X21490Y14475D01*
Y14467D01*
X21487Y14459D01*
X21483Y14456D01*
X21471Y14452D01*
X21437D02*
X21471D01*
X21483Y14448D01*
X21487Y14444D01*
X21490Y14437D01*
Y14425D01*
X21487Y14418D01*
X21483Y14414D01*
X21471Y14410D01*
X21437D01*
X21558Y14490D02*
X21508D01*
Y14410D01*
X21558D01*
X21508Y14452D02*
X21539D01*
X21571Y14490D02*
Y14410D01*
Y14490D02*
X21605D01*
X21617Y14486D01*
X21621Y14482D01*
X21624Y14475D01*
Y14467D01*
X21621Y14459D01*
X21617Y14456D01*
X21605Y14452D01*
X21571D01*
X21598D02*
X21624Y14410D01*
X21705Y14490D02*
Y14410D01*
Y14490D02*
X21732D01*
X21743Y14486D01*
X21751Y14478D01*
X21755Y14471D01*
X21758Y14459D01*
Y14440D01*
X21755Y14429D01*
X21751Y14421D01*
X21743Y14414D01*
X21732Y14410D01*
X21705D01*
X21837D02*
X21807Y14490D01*
X21776Y14410D01*
X21788Y14437D02*
X21826D01*
X21883Y14490D02*
Y14410D01*
X21856Y14490D02*
X21909D01*
X21980Y14410D02*
X21949Y14490D01*
X21919Y14410D01*
X21930Y14437D02*
X21968D01*
D23*
X26066Y19877D02*
X26076D01*
X26066Y19872D02*
Y19882D01*
Y19872D02*
X26076D01*
Y19882D01*
X26066D02*
X26076D01*
X26061Y19867D02*
Y19882D01*
Y19867D02*
X26081D01*
Y19887D01*
X26061D02*
X26081D01*
X26056Y19862D02*
Y19887D01*
Y19862D02*
X26086D01*
Y19892D01*
X26056D02*
X26086D01*
X26051Y19857D02*
Y19897D01*
Y19857D02*
X26091D01*
Y19897D01*
X26051D02*
X26091D01*
X26116Y19827D02*
X26126D01*
X26116Y19822D02*
Y19832D01*
Y19822D02*
X26126D01*
Y19832D01*
X26116D02*
X26126D01*
X26111Y19817D02*
Y19832D01*
Y19817D02*
X26131D01*
Y19837D01*
X26111D02*
X26131D01*
X26106Y19812D02*
Y19837D01*
Y19812D02*
X26136D01*
Y19842D01*
X26106D02*
X26136D01*
X26101Y19807D02*
Y19847D01*
Y19807D02*
X26141D01*
Y19847D01*
X26101D02*
X26141D01*
X26096Y19802D02*
X26146D01*
Y19852D01*
X26046Y19902D02*
X26096D01*
X26046Y19852D02*
Y19902D01*
X26096Y19602D02*
Y20102D01*
X25846Y19852D02*
X26346D01*
X16547Y19893D02*
X16557D01*
X16547Y19888D02*
Y19898D01*
Y19888D02*
X16557D01*
Y19898D01*
X16547D02*
X16557D01*
X16542Y19883D02*
Y19898D01*
Y19883D02*
X16562D01*
Y19903D01*
X16542D02*
X16562D01*
X16537Y19878D02*
Y19903D01*
Y19878D02*
X16567D01*
Y19908D01*
X16537D02*
X16567D01*
X16532Y19873D02*
Y19913D01*
Y19873D02*
X16572D01*
Y19913D01*
X16532D02*
X16572D01*
X16597Y19843D02*
X16607D01*
X16597Y19838D02*
Y19848D01*
Y19838D02*
X16607D01*
Y19848D01*
X16597D02*
X16607D01*
X16592Y19833D02*
Y19848D01*
Y19833D02*
X16612D01*
Y19853D01*
X16592D02*
X16612D01*
X16587Y19828D02*
Y19853D01*
Y19828D02*
X16617D01*
Y19858D01*
X16587D02*
X16617D01*
X16582Y19823D02*
Y19863D01*
Y19823D02*
X16622D01*
Y19863D01*
X16582D02*
X16622D01*
X16577Y19818D02*
X16627D01*
Y19868D01*
X16527Y19918D02*
X16577D01*
X16527Y19868D02*
Y19918D01*
X16577Y19618D02*
Y20118D01*
X16327Y19868D02*
X16827D01*
X16860Y14102D02*
X16870D01*
X16860Y14097D02*
Y14107D01*
Y14097D02*
X16870D01*
Y14107D01*
X16860D02*
X16870D01*
X16855Y14092D02*
Y14107D01*
Y14092D02*
X16875D01*
Y14112D01*
X16855D02*
X16875D01*
X16850Y14087D02*
Y14112D01*
Y14087D02*
X16880D01*
Y14117D01*
X16850D02*
X16880D01*
X16845Y14082D02*
Y14122D01*
Y14082D02*
X16885D01*
Y14122D01*
X16845D02*
X16885D01*
X16910Y14052D02*
X16920D01*
X16910Y14047D02*
Y14057D01*
Y14047D02*
X16920D01*
Y14057D01*
X16910D02*
X16920D01*
X16905Y14042D02*
Y14057D01*
Y14042D02*
X16925D01*
Y14062D01*
X16905D02*
X16925D01*
X16900Y14037D02*
Y14062D01*
Y14037D02*
X16930D01*
Y14067D01*
X16900D02*
X16930D01*
X16895Y14032D02*
Y14072D01*
Y14032D02*
X16935D01*
Y14072D01*
X16895D02*
X16935D01*
X16890Y14027D02*
X16940D01*
Y14077D01*
X16840Y14127D02*
X16890D01*
X16840Y14077D02*
Y14127D01*
X16890Y13827D02*
Y14327D01*
X16640Y14077D02*
X17140D01*
D24*
X19958Y14780D02*
Y14700D01*
X20004D01*
X20073D02*
X20043Y14780D01*
X20013Y14700D01*
X20024Y14727D02*
X20062D01*
X20145Y14769D02*
X20138Y14776D01*
X20126Y14780D01*
X20111D01*
X20100Y14776D01*
X20092Y14769D01*
Y14761D01*
X20096Y14753D01*
X20100Y14750D01*
X20107Y14746D01*
X20130Y14738D01*
X20138Y14734D01*
X20142Y14731D01*
X20145Y14723D01*
Y14711D01*
X20138Y14704D01*
X20126Y14700D01*
X20111D01*
X20100Y14704D01*
X20092Y14711D01*
X20283Y14761D02*
X20280Y14769D01*
X20272Y14776D01*
X20264Y14780D01*
X20249D01*
X20241Y14776D01*
X20234Y14769D01*
X20230Y14761D01*
X20226Y14750D01*
Y14731D01*
X20230Y14719D01*
X20234Y14711D01*
X20241Y14704D01*
X20249Y14700D01*
X20264D01*
X20272Y14704D01*
X20280Y14711D01*
X20283Y14719D01*
X20306Y14780D02*
Y14723D01*
X20310Y14711D01*
X20317Y14704D01*
X20329Y14700D01*
X20336D01*
X20348Y14704D01*
X20355Y14711D01*
X20359Y14723D01*
Y14780D01*
X20381D02*
Y14700D01*
Y14780D02*
X20412Y14700D01*
X20442Y14780D02*
X20412Y14700D01*
X20442Y14780D02*
Y14700D01*
X20465Y14780D02*
Y14700D01*
Y14780D02*
X20499D01*
X20511Y14776D01*
X20515Y14772D01*
X20518Y14765D01*
Y14757D01*
X20515Y14750D01*
X20511Y14746D01*
X20499Y14742D01*
X20465D02*
X20499D01*
X20511Y14738D01*
X20515Y14734D01*
X20518Y14727D01*
Y14715D01*
X20515Y14708D01*
X20511Y14704D01*
X20499Y14700D01*
X20465D01*
X20536Y14780D02*
Y14700D01*
Y14780D02*
X20570D01*
X20582Y14776D01*
X20586Y14772D01*
X20590Y14765D01*
Y14757D01*
X20586Y14750D01*
X20582Y14746D01*
X20570Y14742D01*
X20536D01*
X20563D02*
X20590Y14700D01*
X20657Y14780D02*
X20607D01*
Y14700D01*
X20657D01*
X20607Y14742D02*
X20638D01*
X20724Y14769D02*
X20716Y14776D01*
X20705Y14780D01*
X20689D01*
X20678Y14776D01*
X20670Y14769D01*
Y14761D01*
X20674Y14753D01*
X20678Y14750D01*
X20686Y14746D01*
X20708Y14738D01*
X20716Y14734D01*
X20720Y14731D01*
X20724Y14723D01*
Y14711D01*
X20716Y14704D01*
X20705Y14700D01*
X20689D01*
X20678Y14704D01*
X20670Y14711D01*
X20827Y14780D02*
X20820Y14776D01*
X20812Y14769D01*
X20808Y14761D01*
X20804Y14750D01*
Y14731D01*
X20808Y14719D01*
X20812Y14711D01*
X20820Y14704D01*
X20827Y14700D01*
X20842D01*
X20850Y14704D01*
X20858Y14711D01*
X20861Y14719D01*
X20865Y14731D01*
Y14750D01*
X20861Y14761D01*
X20858Y14769D01*
X20850Y14776D01*
X20842Y14780D01*
X20827D01*
X20884D02*
Y14700D01*
Y14780D02*
X20918D01*
X20930Y14776D01*
X20933Y14772D01*
X20937Y14765D01*
Y14757D01*
X20933Y14750D01*
X20930Y14746D01*
X20918Y14742D01*
X20884D02*
X20918D01*
X20930Y14738D01*
X20933Y14734D01*
X20937Y14727D01*
Y14715D01*
X20933Y14708D01*
X20930Y14704D01*
X20918Y14700D01*
X20884D01*
X21008Y14769D02*
X21001Y14776D01*
X20989Y14780D01*
X20974D01*
X20963Y14776D01*
X20955Y14769D01*
Y14761D01*
X20959Y14753D01*
X20963Y14750D01*
X20970Y14746D01*
X20993Y14738D01*
X21001Y14734D01*
X21005Y14731D01*
X21008Y14723D01*
Y14711D01*
X21001Y14704D01*
X20989Y14700D01*
X20974D01*
X20963Y14704D01*
X20955Y14711D01*
X21076Y14780D02*
X21026D01*
Y14700D01*
X21076D01*
X21026Y14742D02*
X21057D01*
X21089Y14780D02*
Y14700D01*
Y14780D02*
X21124D01*
X21135Y14776D01*
X21139Y14772D01*
X21143Y14765D01*
Y14757D01*
X21139Y14750D01*
X21135Y14746D01*
X21124Y14742D01*
X21089D01*
X21116D02*
X21143Y14700D01*
X21160Y14780D02*
X21191Y14700D01*
X21221Y14780D02*
X21191Y14700D01*
X21293D02*
X21262Y14780D01*
X21232Y14700D01*
X21243Y14727D02*
X21281D01*
X21338Y14780D02*
Y14700D01*
X21311Y14780D02*
X21365D01*
X21397D02*
X21389Y14776D01*
X21382Y14769D01*
X21378Y14761D01*
X21374Y14750D01*
Y14731D01*
X21378Y14719D01*
X21382Y14711D01*
X21389Y14704D01*
X21397Y14700D01*
X21412D01*
X21420Y14704D01*
X21427Y14711D01*
X21431Y14719D01*
X21435Y14731D01*
Y14750D01*
X21431Y14761D01*
X21427Y14769D01*
X21420Y14776D01*
X21412Y14780D01*
X21397D01*
X21454D02*
Y14700D01*
Y14780D02*
X21488D01*
X21499Y14776D01*
X21503Y14772D01*
X21507Y14765D01*
Y14757D01*
X21503Y14750D01*
X21499Y14746D01*
X21488Y14742D01*
X21454D01*
X21480D02*
X21507Y14700D01*
X21525Y14780D02*
X21555Y14742D01*
Y14700D01*
X21586Y14780D02*
X21555Y14742D01*
X21789Y14761D02*
Y14765D01*
X21792Y14772D01*
X21796Y14776D01*
X21804Y14780D01*
X21819D01*
X21827Y14776D01*
X21830Y14772D01*
X21834Y14765D01*
Y14757D01*
X21830Y14750D01*
X21823Y14738D01*
X21785Y14700D01*
X21838D01*
X21856Y14689D02*
X21909Y14780D01*
X21918Y14761D02*
Y14765D01*
X21922Y14772D01*
X21926Y14776D01*
X21934Y14780D01*
X21949D01*
X21956Y14776D01*
X21960Y14772D01*
X21964Y14765D01*
Y14757D01*
X21960Y14750D01*
X21953Y14738D01*
X21915Y14700D01*
X21968D01*
X22039Y14780D02*
X22001Y14700D01*
X21986Y14780D02*
X22039D01*
X22057Y14689D02*
X22110Y14780D01*
X22119Y14761D02*
Y14765D01*
X22123Y14772D01*
X22127Y14776D01*
X22135Y14780D01*
X22150D01*
X22158Y14776D01*
X22161Y14772D01*
X22165Y14765D01*
Y14757D01*
X22161Y14750D01*
X22154Y14738D01*
X22116Y14700D01*
X22169D01*
X22210Y14780D02*
X22198Y14776D01*
X22191Y14765D01*
X22187Y14746D01*
Y14734D01*
X22191Y14715D01*
X22198Y14704D01*
X22210Y14700D01*
X22217D01*
X22229Y14704D01*
X22236Y14715D01*
X22240Y14734D01*
Y14746D01*
X22236Y14765D01*
X22229Y14776D01*
X22217Y14780D01*
X22210D01*
X22258Y14765D02*
X22266Y14769D01*
X22277Y14780D01*
Y14700D01*
X22324Y14780D02*
X22366D01*
X22343Y14750D01*
X22355D01*
X22362Y14746D01*
X22366Y14742D01*
X22370Y14731D01*
Y14723D01*
X22366Y14711D01*
X22359Y14704D01*
X22347Y14700D01*
X22336D01*
X22324Y14704D01*
X22321Y14708D01*
X22317Y14715D01*
D25*
X19958Y14915D02*
X19966Y14919D01*
X19977Y14930D01*
Y14850D01*
X20070Y14930D02*
X20032Y14850D01*
X20017Y14930D02*
X20070D01*
X20134D02*
X20096D01*
X20092Y14896D01*
X20096Y14900D01*
X20107Y14903D01*
X20118D01*
X20130Y14900D01*
X20137Y14892D01*
X20141Y14881D01*
Y14873D01*
X20137Y14861D01*
X20130Y14854D01*
X20118Y14850D01*
X20107D01*
X20096Y14854D01*
X20092Y14858D01*
X20088Y14865D01*
X20159Y14884D02*
X20228D01*
X20274Y14930D02*
X20263Y14926D01*
X20255Y14915D01*
X20251Y14896D01*
Y14884D01*
X20255Y14865D01*
X20263Y14854D01*
X20274Y14850D01*
X20282D01*
X20293Y14854D01*
X20301Y14865D01*
X20305Y14884D01*
Y14896D01*
X20301Y14915D01*
X20293Y14926D01*
X20282Y14930D01*
X20274D01*
X20345D02*
X20334Y14926D01*
X20326Y14915D01*
X20323Y14896D01*
Y14884D01*
X20326Y14865D01*
X20334Y14854D01*
X20345Y14850D01*
X20353D01*
X20364Y14854D01*
X20372Y14865D01*
X20376Y14884D01*
Y14896D01*
X20372Y14915D01*
X20364Y14926D01*
X20353Y14930D01*
X20345D01*
X20417D02*
X20405Y14926D01*
X20398Y14915D01*
X20394Y14896D01*
Y14884D01*
X20398Y14865D01*
X20405Y14854D01*
X20417Y14850D01*
X20424D01*
X20436Y14854D01*
X20443Y14865D01*
X20447Y14884D01*
Y14896D01*
X20443Y14915D01*
X20436Y14926D01*
X20424Y14930D01*
X20417D01*
X20469Y14911D02*
Y14915D01*
X20473Y14922D01*
X20476Y14926D01*
X20484Y14930D01*
X20499D01*
X20507Y14926D01*
X20511Y14922D01*
X20515Y14915D01*
Y14907D01*
X20511Y14900D01*
X20503Y14888D01*
X20465Y14850D01*
X20518D01*
X20544Y14930D02*
X20586D01*
X20563Y14900D01*
X20574D01*
X20582Y14896D01*
X20586Y14892D01*
X20590Y14881D01*
Y14873D01*
X20586Y14861D01*
X20578Y14854D01*
X20567Y14850D01*
X20555D01*
X20544Y14854D01*
X20540Y14858D01*
X20536Y14865D01*
X20615Y14854D02*
X20611Y14850D01*
X20607Y14854D01*
X20611Y14858D01*
X20615Y14854D01*
Y14846D01*
X20611Y14839D01*
X20607Y14835D01*
X20695Y14930D02*
Y14850D01*
Y14930D02*
X20730D01*
X20741Y14926D01*
X20745Y14922D01*
X20749Y14915D01*
Y14907D01*
X20745Y14900D01*
X20741Y14896D01*
X20730Y14892D01*
X20695D01*
X20722D02*
X20749Y14850D01*
X20767Y14881D02*
X20812D01*
Y14888D01*
X20809Y14896D01*
X20805Y14900D01*
X20797Y14903D01*
X20786D01*
X20778Y14900D01*
X20770Y14892D01*
X20767Y14881D01*
Y14873D01*
X20770Y14861D01*
X20778Y14854D01*
X20786Y14850D01*
X20797D01*
X20805Y14854D01*
X20812Y14861D01*
X20829Y14903D02*
X20852Y14850D01*
X20875Y14903D02*
X20852Y14850D01*
X20926Y14930D02*
X20888Y14877D01*
X20945D01*
X20926Y14930D02*
Y14850D01*
X20967Y14854D02*
X20963Y14850D01*
X20959Y14854D01*
X20963Y14858D01*
X20967Y14854D01*
Y14846D01*
X20963Y14839D01*
X20959Y14835D01*
X21101Y14919D02*
X21093Y14926D01*
X21082Y14930D01*
X21066D01*
X21055Y14926D01*
X21047Y14919D01*
Y14911D01*
X21051Y14903D01*
X21055Y14900D01*
X21063Y14896D01*
X21085Y14888D01*
X21093Y14884D01*
X21097Y14881D01*
X21101Y14873D01*
Y14861D01*
X21093Y14854D01*
X21082Y14850D01*
X21066D01*
X21055Y14854D01*
X21047Y14861D01*
X21126Y14930D02*
X21130Y14926D01*
X21134Y14930D01*
X21130Y14934D01*
X21126Y14930D01*
X21130Y14903D02*
Y14850D01*
X21148Y14903D02*
Y14850D01*
Y14888D02*
X21159Y14900D01*
X21167Y14903D01*
X21178D01*
X21186Y14900D01*
X21190Y14888D01*
Y14850D01*
X21218Y14930D02*
X21222Y14926D01*
X21226Y14930D01*
X21222Y14934D01*
X21218Y14930D01*
X21222Y14903D02*
Y14850D01*
X21282Y14892D02*
X21278Y14900D01*
X21267Y14903D01*
X21255D01*
X21244Y14900D01*
X21240Y14892D01*
X21244Y14884D01*
X21251Y14881D01*
X21271Y14877D01*
X21278Y14873D01*
X21282Y14865D01*
Y14861D01*
X21278Y14854D01*
X21267Y14850D01*
X21255D01*
X21244Y14854D01*
X21240Y14861D01*
X21310Y14930D02*
Y14865D01*
X21314Y14854D01*
X21322Y14850D01*
X21329D01*
X21299Y14903D02*
X21325D01*
X21360D02*
X21352Y14900D01*
X21344Y14892D01*
X21341Y14881D01*
Y14873D01*
X21344Y14861D01*
X21352Y14854D01*
X21360Y14850D01*
X21371D01*
X21379Y14854D01*
X21386Y14861D01*
X21390Y14873D01*
Y14881D01*
X21386Y14892D01*
X21379Y14900D01*
X21371Y14903D01*
X21360D01*
X21408D02*
Y14850D01*
Y14881D02*
X21411Y14892D01*
X21419Y14900D01*
X21427Y14903D01*
X21438D01*
X21464D02*
X21457Y14900D01*
X21449Y14892D01*
X21445Y14881D01*
Y14873D01*
X21449Y14861D01*
X21457Y14854D01*
X21464Y14850D01*
X21476D01*
X21483Y14854D01*
X21491Y14861D01*
X21495Y14873D01*
Y14881D01*
X21491Y14892D01*
X21483Y14900D01*
X21476Y14903D01*
X21464D01*
X21575Y14888D02*
X21610D01*
X21621Y14892D01*
X21625Y14896D01*
X21629Y14903D01*
Y14915D01*
X21625Y14922D01*
X21621Y14926D01*
X21610Y14930D01*
X21575D01*
Y14850D01*
X21665Y14903D02*
X21658Y14900D01*
X21650Y14892D01*
X21646Y14881D01*
Y14873D01*
X21650Y14861D01*
X21658Y14854D01*
X21665Y14850D01*
X21677D01*
X21685Y14854D01*
X21692Y14861D01*
X21696Y14873D01*
Y14881D01*
X21692Y14892D01*
X21685Y14900D01*
X21677Y14903D01*
X21665D01*
X21713D02*
X21729Y14850D01*
X21744Y14903D02*
X21729Y14850D01*
X21744Y14903D02*
X21759Y14850D01*
X21774Y14903D02*
X21759Y14850D01*
X21793Y14881D02*
X21839D01*
Y14888D01*
X21835Y14896D01*
X21831Y14900D01*
X21824Y14903D01*
X21812D01*
X21805Y14900D01*
X21797Y14892D01*
X21793Y14881D01*
Y14873D01*
X21797Y14861D01*
X21805Y14854D01*
X21812Y14850D01*
X21824D01*
X21831Y14854D01*
X21839Y14861D01*
X21856Y14903D02*
Y14850D01*
Y14881D02*
X21860Y14892D01*
X21867Y14900D01*
X21875Y14903D01*
X21886D01*
X22010Y14919D02*
X22002Y14926D01*
X21991Y14930D01*
X21976D01*
X21964Y14926D01*
X21956Y14919D01*
Y14911D01*
X21960Y14903D01*
X21964Y14900D01*
X21972Y14896D01*
X21995Y14888D01*
X22002Y14884D01*
X22006Y14881D01*
X22010Y14873D01*
Y14861D01*
X22002Y14854D01*
X21991Y14850D01*
X21976D01*
X21964Y14854D01*
X21956Y14861D01*
X22028Y14903D02*
Y14865D01*
X22032Y14854D01*
X22039Y14850D01*
X22051D01*
X22058Y14854D01*
X22070Y14865D01*
Y14903D02*
Y14850D01*
X22091Y14903D02*
Y14823D01*
Y14892D02*
X22098Y14900D01*
X22106Y14903D01*
X22117D01*
X22125Y14900D01*
X22132Y14892D01*
X22136Y14881D01*
Y14873D01*
X22132Y14861D01*
X22125Y14854D01*
X22117Y14850D01*
X22106D01*
X22098Y14854D01*
X22091Y14861D01*
X22153Y14903D02*
Y14823D01*
Y14892D02*
X22161Y14900D01*
X22169Y14903D01*
X22180D01*
X22188Y14900D01*
X22195Y14892D01*
X22199Y14881D01*
Y14873D01*
X22195Y14861D01*
X22188Y14854D01*
X22180Y14850D01*
X22169D01*
X22161Y14854D01*
X22153Y14861D01*
X22216Y14930D02*
Y14850D01*
X22237Y14903D02*
X22260Y14850D01*
X22283Y14903D02*
X22260Y14850D01*
X22252Y14835D01*
X22244Y14827D01*
X22237Y14823D01*
X22233D01*
D26*
X22839Y17521D02*
D03*
X21265Y18900D02*
D03*
D27*
X22839Y17221D02*
D03*
Y16821D02*
D03*
Y16521D02*
D03*
X21265Y18050D02*
D03*
Y18300D02*
D03*
Y18650D02*
D03*
X21814Y17380D02*
D03*
X21414D02*
D03*
X21114D02*
D03*
X19815D02*
D03*
X19415D02*
D03*
X19115D02*
D03*
D28*
X22114D02*
D03*
X20115D02*
D03*
D32*
X23039Y18369D02*
D03*
X24399Y18395D02*
D03*
X23795Y18378D02*
D03*
D35*
X24275Y19077D02*
D03*
D36*
X17882Y16414D02*
D03*
Y16214D02*
D03*
X17982Y16164D02*
D03*
Y16364D02*
D03*
D37*
X24879Y19227D02*
D03*
X24019Y19237D02*
D03*
X23326Y19236D02*
D03*
X25619Y16331D02*
D03*
D41*
X19900Y19228D02*
D03*
X20056D02*
D03*
X20368D02*
D03*
X20212D02*
D03*
D43*
X23012Y19038D02*
D03*
X23808Y19051D02*
D03*
D47*
X24095Y16574D02*
D03*
X23764Y16292D02*
D03*
D48*
X19891Y16446D02*
D03*
X20241Y15827D02*
D03*
X24919Y16543D02*
D03*
X24186Y15832D02*
D03*
X23852Y16145D02*
D03*
X24047Y16861D02*
D03*
X23962Y16690D02*
D03*
X19116Y16527D02*
D03*
X19416Y16822D02*
D03*
X19811Y17105D02*
D03*
M02*
