%FSLAX23Y23*%
%MOIN*%
G70*
G01*
G75*
G04 Layer_Physical_Order=2*
G04 Layer_Color=16440176*
%ADD10C,0.010*%
%ADD11R,0.010X0.035*%
%ADD12R,0.063X0.071*%
%ADD13R,0.059X0.118*%
%ADD14C,0.030*%
%ADD15C,0.012*%
%ADD16C,0.008*%
%ADD17C,0.005*%
%ADD18C,0.012*%
%ADD19C,0.012*%
%ADD20C,0.065*%
%ADD21C,0.039*%
%ADD22C,0.035*%
%ADD23C,0.070*%
%ADD24C,0.055*%
%ADD25C,0.071*%
%ADD26C,0.024*%
D10*
X14276Y12480D02*
X14364Y12568D01*
Y16794D01*
X14217Y12363D02*
Y12499D01*
X14285Y12568D01*
X14314D01*
X14338Y12592D01*
Y13265D01*
X14334Y13269D02*
X14338Y13265D01*
X14197Y12457D02*
Y12580D01*
X14124Y12271D02*
Y12383D01*
X14197Y12457D01*
Y12580D02*
X14318Y12700D01*
Y12755D01*
X14295Y12778D02*
X14318Y12755D01*
X14160Y12643D02*
X14235Y12718D01*
Y12755D02*
X14258Y12779D01*
Y12872D01*
X14235Y12718D02*
Y12755D01*
X14242Y12888D02*
X14258Y12872D01*
X14242Y12888D02*
Y18591D01*
X14111Y12770D02*
X14166Y12824D01*
Y13267D01*
X14164Y13269D02*
X14166Y13267D01*
X14025Y12576D02*
X14066Y12616D01*
X13916Y13068D02*
X13945Y13040D01*
Y12587D02*
Y13040D01*
X13879Y12521D02*
X13945Y12587D01*
X13966Y12732D02*
X13996Y12703D01*
X13966Y12732D02*
Y13024D01*
X13987Y13044D01*
X13879Y12191D02*
Y12521D01*
X13916Y13068D02*
Y18604D01*
X13751Y12395D02*
X13811Y12334D01*
X13751Y12395D02*
Y12477D01*
X13816Y12542D01*
Y12893D01*
X13920Y12997D01*
Y13044D01*
X13873Y13092D02*
X13920Y13044D01*
X13691Y12397D02*
X13691Y12397D01*
X13691Y12397D02*
Y12728D01*
X13795Y12833D01*
X13591Y12649D02*
X13598Y12643D01*
X13591Y12649D02*
Y12964D01*
X13618Y12991D01*
X13427Y12643D02*
X13461Y12609D01*
X14334Y13269D02*
Y16795D01*
X14295Y12778D02*
Y16859D01*
X14164Y13269D02*
Y18675D01*
X13427Y12643D02*
Y18632D01*
X13618Y12991D02*
Y18542D01*
X13795Y12833D02*
Y18455D01*
X13873Y13092D02*
Y18567D01*
X13987Y13044D02*
Y18634D01*
X14066Y12616D02*
Y18633D01*
X14295Y16859D02*
X14340Y16904D01*
X14334Y16795D02*
X14483Y16944D01*
X14364Y16794D02*
X14445Y16875D01*
X17261D01*
X14340Y16904D02*
Y18755D01*
X14211Y18622D02*
Y18707D01*
Y18622D02*
X14242Y18591D01*
X14105Y18813D02*
X14211Y18707D01*
X13618Y18542D02*
X13673Y18597D01*
X13427Y18632D02*
X13574Y18779D01*
X13659D01*
X13780Y18469D02*
X13795Y18455D01*
X13780Y18469D02*
Y18590D01*
X13790Y18600D01*
Y18632D01*
X13916Y18604D02*
X13947Y18636D01*
Y18813D01*
X14026D02*
X14164Y18675D01*
X14282Y18813D02*
X14340Y18755D01*
X14184Y18813D02*
X14282D01*
X17262Y16944D02*
X17309Y16990D01*
X14483Y16944D02*
X17262D01*
X17261Y16875D02*
X17308Y16829D01*
D14*
X13741Y13015D02*
Y18805D01*
X13839Y13066D02*
Y18805D01*
Y13066D02*
X13879Y13027D01*
X13741Y13015D02*
X13749Y13007D01*
D15*
X12866Y10515D02*
Y10469D01*
X12847Y10503D02*
X12885Y10480D01*
Y10503D02*
X12847Y10480D01*
X12906Y10442D02*
X12902Y10438D01*
X12906Y10435D01*
X12909Y10438D01*
X12906Y10442D01*
X12984Y10496D02*
X12980Y10503D01*
X12973Y10511D01*
X12965Y10515D01*
X12950D01*
X12942Y10511D01*
X12935Y10503D01*
X12931Y10496D01*
X12927Y10484D01*
Y10465D01*
X12931Y10454D01*
X12935Y10446D01*
X12942Y10438D01*
X12950Y10435D01*
X12965D01*
X12973Y10438D01*
X12980Y10446D01*
X12984Y10454D01*
Y10465D01*
X12965D02*
X12984D01*
X13002Y10499D02*
X13010Y10503D01*
X13021Y10515D01*
Y10435D01*
X13124Y10469D02*
X13192D01*
X13279Y10515D02*
Y10435D01*
Y10515D02*
X13309Y10435D01*
X13340Y10515D02*
X13309Y10435D01*
X13340Y10515D02*
Y10435D01*
X13363Y10515D02*
Y10435D01*
X13379Y10515D02*
Y10435D01*
Y10515D02*
X13406D01*
X13418Y10511D01*
X13425Y10503D01*
X13429Y10496D01*
X13433Y10484D01*
Y10465D01*
X13429Y10454D01*
X13425Y10446D01*
X13418Y10438D01*
X13406Y10435D01*
X13379D01*
X13514Y10515D02*
Y10435D01*
X13559D01*
X13629D02*
X13598Y10515D01*
X13568Y10435D01*
X13579Y10461D02*
X13618D01*
X13648Y10515D02*
X13678Y10476D01*
Y10435D01*
X13709Y10515D02*
X13678Y10476D01*
X13768Y10515D02*
X13719D01*
Y10435D01*
X13768D01*
X13719Y10476D02*
X13749D01*
X13782Y10515D02*
Y10435D01*
Y10515D02*
X13816D01*
X13827Y10511D01*
X13831Y10507D01*
X13835Y10499D01*
Y10492D01*
X13831Y10484D01*
X13827Y10480D01*
X13816Y10476D01*
X13782D01*
X13808D02*
X13835Y10435D01*
X13916Y10499D02*
X13923Y10503D01*
X13935Y10515D01*
Y10435D01*
X14094Y10496D02*
X14091Y10503D01*
X14083Y10511D01*
X14075Y10515D01*
X14060D01*
X14052Y10511D01*
X14045Y10503D01*
X14041Y10496D01*
X14037Y10484D01*
Y10465D01*
X14041Y10454D01*
X14045Y10446D01*
X14052Y10438D01*
X14060Y10435D01*
X14075D01*
X14083Y10438D01*
X14091Y10446D01*
X14094Y10454D01*
Y10465D01*
X14075D02*
X14094D01*
X14162Y10515D02*
X14113D01*
Y10435D01*
X14162D01*
X14113Y10476D02*
X14143D01*
X14175Y10515D02*
Y10435D01*
Y10515D02*
X14210D01*
X14221Y10511D01*
X14225Y10507D01*
X14229Y10499D01*
Y10492D01*
X14225Y10484D01*
X14221Y10480D01*
X14210Y10476D01*
X14175D01*
X14202D02*
X14229Y10435D01*
X14247Y10515D02*
Y10435D01*
Y10515D02*
X14281D01*
X14292Y10511D01*
X14296Y10507D01*
X14300Y10499D01*
Y10492D01*
X14296Y10484D01*
X14292Y10480D01*
X14281Y10476D01*
X14247D02*
X14281D01*
X14292Y10473D01*
X14296Y10469D01*
X14300Y10461D01*
Y10450D01*
X14296Y10442D01*
X14292Y10438D01*
X14281Y10435D01*
X14247D01*
X14367Y10515D02*
X14318D01*
Y10435D01*
X14367D01*
X14318Y10476D02*
X14348D01*
X14381Y10515D02*
Y10435D01*
Y10515D02*
X14415D01*
X14426Y10511D01*
X14430Y10507D01*
X14434Y10499D01*
Y10492D01*
X14430Y10484D01*
X14426Y10480D01*
X14415Y10476D01*
X14381D01*
X14407D02*
X14434Y10435D01*
X14515Y10515D02*
Y10435D01*
Y10515D02*
X14541D01*
X14553Y10511D01*
X14561Y10503D01*
X14564Y10496D01*
X14568Y10484D01*
Y10465D01*
X14564Y10454D01*
X14561Y10446D01*
X14553Y10438D01*
X14541Y10435D01*
X14515D01*
X14647D02*
X14617Y10515D01*
X14586Y10435D01*
X14597Y10461D02*
X14636D01*
X14692Y10515D02*
Y10435D01*
X14666Y10515D02*
X14719D01*
X14789Y10435D02*
X14759Y10515D01*
X14729Y10435D01*
X14740Y10461D02*
X14778D01*
D16*
X12137Y19267D02*
X12147D01*
X12137Y19262D02*
Y19272D01*
Y19262D02*
X12147D01*
Y19272D01*
X12137D02*
X12147D01*
X12132Y19257D02*
Y19272D01*
Y19257D02*
X12152D01*
Y19277D01*
X12132D02*
X12152D01*
X12127Y19252D02*
Y19277D01*
Y19252D02*
X12157D01*
Y19282D01*
X12127D02*
X12157D01*
X12122Y19247D02*
Y19287D01*
Y19247D02*
X12162D01*
Y19287D01*
X12122D02*
X12162D01*
X12187Y19217D02*
X12197D01*
X12187Y19212D02*
Y19222D01*
Y19212D02*
X12197D01*
Y19222D01*
X12187D02*
X12197D01*
X12182Y19207D02*
Y19222D01*
Y19207D02*
X12202D01*
Y19227D01*
X12182D02*
X12202D01*
X12177Y19202D02*
Y19227D01*
Y19202D02*
X12207D01*
Y19232D01*
X12177D02*
X12207D01*
X12172Y19197D02*
Y19237D01*
Y19197D02*
X12212D01*
Y19237D01*
X12172D02*
X12212D01*
X12167Y19192D02*
X12217D01*
Y19242D01*
X12117Y19292D02*
X12167D01*
X12117Y19242D02*
Y19292D01*
X12167Y18992D02*
Y19492D01*
X11917Y19242D02*
X12417D01*
X11957Y11972D02*
X12457D01*
X12207Y11722D02*
Y12222D01*
X12157Y11972D02*
Y12022D01*
X12207D01*
X12257Y11922D02*
Y11972D01*
X12207Y11922D02*
X12257D01*
X12212Y11967D02*
X12252D01*
Y11927D02*
Y11967D01*
X12212Y11927D02*
X12252D01*
X12212D02*
Y11967D01*
X12217Y11962D02*
X12247D01*
Y11932D02*
Y11962D01*
X12217Y11932D02*
X12247D01*
X12217D02*
Y11957D01*
X12222D02*
X12242D01*
Y11937D02*
Y11957D01*
X12222Y11937D02*
X12242D01*
X12222D02*
Y11952D01*
X12227D02*
X12237D01*
Y11942D02*
Y11952D01*
X12227Y11942D02*
X12237D01*
X12227D02*
Y11952D01*
Y11947D02*
X12237D01*
X12162Y12017D02*
X12202D01*
Y11977D02*
Y12017D01*
X12162Y11977D02*
X12202D01*
X12162D02*
Y12017D01*
X12167Y12012D02*
X12197D01*
Y11982D02*
Y12012D01*
X12167Y11982D02*
X12197D01*
X12167D02*
Y12007D01*
X12172D02*
X12192D01*
Y11987D02*
Y12007D01*
X12172Y11987D02*
X12192D01*
X12172D02*
Y12002D01*
X12177D02*
X12187D01*
Y11992D02*
Y12002D01*
X12177Y11992D02*
X12187D01*
X12177D02*
Y12002D01*
Y11997D02*
X12187D01*
X17476Y12053D02*
X17976D01*
X17726Y11803D02*
Y12303D01*
X17676Y12053D02*
Y12103D01*
X17726D01*
X17776Y12003D02*
Y12053D01*
X17726Y12003D02*
X17776D01*
X17731Y12048D02*
X17771D01*
Y12008D02*
Y12048D01*
X17731Y12008D02*
X17771D01*
X17731D02*
Y12048D01*
X17736Y12043D02*
X17766D01*
Y12013D02*
Y12043D01*
X17736Y12013D02*
X17766D01*
X17736D02*
Y12038D01*
X17741D02*
X17761D01*
Y12018D02*
Y12038D01*
X17741Y12018D02*
X17761D01*
X17741D02*
Y12033D01*
X17746D02*
X17756D01*
Y12023D02*
Y12033D01*
X17746Y12023D02*
X17756D01*
X17746D02*
Y12033D01*
Y12028D02*
X17756D01*
X17681Y12098D02*
X17721D01*
Y12058D02*
Y12098D01*
X17681Y12058D02*
X17721D01*
X17681D02*
Y12098D01*
X17686Y12093D02*
X17716D01*
Y12063D02*
Y12093D01*
X17686Y12063D02*
X17716D01*
X17686D02*
Y12088D01*
X17691D02*
X17711D01*
Y12068D02*
Y12088D01*
X17691Y12068D02*
X17711D01*
X17691D02*
Y12083D01*
X17696D02*
X17706D01*
Y12073D02*
Y12083D01*
X17696Y12073D02*
X17706D01*
X17696D02*
Y12083D01*
Y12078D02*
X17706D01*
D18*
X12901Y11510D02*
X12893Y11517D01*
X12882Y11521D01*
X12866D01*
X12855Y11517D01*
X12847Y11510D01*
Y11502D01*
X12851Y11495D01*
X12855Y11491D01*
X12863Y11487D01*
X12885Y11479D01*
X12893Y11476D01*
X12897Y11472D01*
X12901Y11464D01*
Y11453D01*
X12893Y11445D01*
X12882Y11441D01*
X12866D01*
X12855Y11445D01*
X12847Y11453D01*
X12919Y11521D02*
Y11441D01*
X12935Y11521D02*
Y11441D01*
Y11521D02*
X12989Y11441D01*
Y11521D02*
Y11441D01*
X13011Y11521D02*
Y11441D01*
X13081Y11510D02*
X13073Y11517D01*
X13062Y11521D01*
X13047D01*
X13035Y11517D01*
X13028Y11510D01*
Y11502D01*
X13031Y11495D01*
X13035Y11491D01*
X13043Y11487D01*
X13066Y11479D01*
X13073Y11476D01*
X13077Y11472D01*
X13081Y11464D01*
Y11453D01*
X13073Y11445D01*
X13062Y11441D01*
X13047D01*
X13035Y11445D01*
X13028Y11453D01*
X13125Y11521D02*
Y11441D01*
X13099Y11521D02*
X13152D01*
X13162D02*
Y11441D01*
Y11521D02*
X13196D01*
X13207Y11517D01*
X13211Y11514D01*
X13215Y11506D01*
Y11498D01*
X13211Y11491D01*
X13207Y11487D01*
X13196Y11483D01*
X13162D01*
X13188D02*
X13215Y11441D01*
X13256Y11521D02*
X13248Y11517D01*
X13240Y11510D01*
X13237Y11502D01*
X13233Y11491D01*
Y11472D01*
X13237Y11460D01*
X13240Y11453D01*
X13248Y11445D01*
X13256Y11441D01*
X13271D01*
X13279Y11445D01*
X13286Y11453D01*
X13290Y11460D01*
X13294Y11472D01*
Y11491D01*
X13290Y11502D01*
X13286Y11510D01*
X13279Y11517D01*
X13271Y11521D01*
X13256D01*
X13375D02*
Y11441D01*
Y11521D02*
X13425D01*
X13375Y11483D02*
X13406D01*
X13434Y11521D02*
Y11441D01*
X13480D01*
X13538Y11521D02*
X13488D01*
Y11441D01*
X13538D01*
X13488Y11483D02*
X13519D01*
X13551Y11521D02*
X13605Y11441D01*
Y11521D02*
X13551Y11441D01*
X13742Y11502D02*
X13739Y11510D01*
X13731Y11517D01*
X13723Y11521D01*
X13708D01*
X13701Y11517D01*
X13693Y11510D01*
X13689Y11502D01*
X13685Y11491D01*
Y11472D01*
X13689Y11460D01*
X13693Y11453D01*
X13701Y11445D01*
X13708Y11441D01*
X13723D01*
X13731Y11445D01*
X13739Y11453D01*
X13742Y11460D01*
X13765Y11521D02*
Y11441D01*
X13782Y11521D02*
Y11441D01*
Y11521D02*
X13816D01*
X13827Y11517D01*
X13831Y11514D01*
X13835Y11506D01*
Y11498D01*
X13831Y11491D01*
X13827Y11487D01*
X13816Y11483D01*
X13782D01*
X13808D02*
X13835Y11441D01*
X13910Y11502D02*
X13906Y11510D01*
X13899Y11517D01*
X13891Y11521D01*
X13876D01*
X13868Y11517D01*
X13860Y11510D01*
X13857Y11502D01*
X13853Y11491D01*
Y11472D01*
X13857Y11460D01*
X13860Y11453D01*
X13868Y11445D01*
X13876Y11441D01*
X13891D01*
X13899Y11445D01*
X13906Y11453D01*
X13910Y11460D01*
X13932Y11521D02*
Y11464D01*
X13936Y11453D01*
X13944Y11445D01*
X13955Y11441D01*
X13963D01*
X13974Y11445D01*
X13982Y11453D01*
X13986Y11464D01*
Y11521D01*
X14008D02*
Y11441D01*
X14051Y11521D02*
Y11441D01*
X14025Y11521D02*
X14078D01*
X14150D02*
Y11441D01*
Y11521D02*
X14185D01*
X14196Y11517D01*
X14200Y11514D01*
X14204Y11506D01*
Y11498D01*
X14200Y11491D01*
X14196Y11487D01*
X14185Y11483D01*
X14150D01*
X14177D02*
X14204Y11441D01*
X14222Y11472D02*
X14267D01*
Y11479D01*
X14263Y11487D01*
X14260Y11491D01*
X14252Y11495D01*
X14241D01*
X14233Y11491D01*
X14225Y11483D01*
X14222Y11472D01*
Y11464D01*
X14225Y11453D01*
X14233Y11445D01*
X14241Y11441D01*
X14252D01*
X14260Y11445D01*
X14267Y11453D01*
X14284Y11495D02*
X14307Y11441D01*
X14330Y11495D02*
X14307Y11441D01*
X14347Y11449D02*
X14343Y11445D01*
X14347Y11441D01*
X14351Y11445D01*
X14347Y11449D01*
X14492Y11441D02*
X14462Y11521D01*
X14431Y11441D01*
X14442Y11468D02*
X14481D01*
D19*
X12847Y11365D02*
Y11285D01*
X12893D01*
X12963D02*
X12932Y11365D01*
X12902Y11285D01*
X12913Y11312D02*
X12951D01*
X13035Y11353D02*
X13027Y11361D01*
X13016Y11365D01*
X13000D01*
X12989Y11361D01*
X12981Y11353D01*
Y11346D01*
X12985Y11338D01*
X12989Y11334D01*
X12997Y11331D01*
X13020Y11323D01*
X13027Y11319D01*
X13031Y11315D01*
X13035Y11308D01*
Y11296D01*
X13027Y11289D01*
X13016Y11285D01*
X13000D01*
X12989Y11289D01*
X12981Y11296D01*
X13173Y11346D02*
X13169Y11353D01*
X13161Y11361D01*
X13154Y11365D01*
X13138D01*
X13131Y11361D01*
X13123Y11353D01*
X13119Y11346D01*
X13116Y11334D01*
Y11315D01*
X13119Y11304D01*
X13123Y11296D01*
X13131Y11289D01*
X13138Y11285D01*
X13154D01*
X13161Y11289D01*
X13169Y11296D01*
X13173Y11304D01*
X13195Y11365D02*
Y11308D01*
X13199Y11296D01*
X13207Y11289D01*
X13218Y11285D01*
X13226D01*
X13237Y11289D01*
X13245Y11296D01*
X13248Y11308D01*
Y11365D01*
X13271D02*
Y11285D01*
Y11365D02*
X13301Y11285D01*
X13331Y11365D02*
X13301Y11285D01*
X13331Y11365D02*
Y11285D01*
X13354Y11365D02*
Y11285D01*
Y11365D02*
X13389D01*
X13400Y11361D01*
X13404Y11357D01*
X13408Y11350D01*
Y11342D01*
X13404Y11334D01*
X13400Y11331D01*
X13389Y11327D01*
X13354D02*
X13389D01*
X13400Y11323D01*
X13404Y11319D01*
X13408Y11312D01*
Y11300D01*
X13404Y11293D01*
X13400Y11289D01*
X13389Y11285D01*
X13354D01*
X13426Y11365D02*
Y11285D01*
Y11365D02*
X13460D01*
X13471Y11361D01*
X13475Y11357D01*
X13479Y11350D01*
Y11342D01*
X13475Y11334D01*
X13471Y11331D01*
X13460Y11327D01*
X13426D01*
X13452D02*
X13479Y11285D01*
X13546Y11365D02*
X13497D01*
Y11285D01*
X13546D01*
X13497Y11327D02*
X13527D01*
X13613Y11353D02*
X13605Y11361D01*
X13594Y11365D01*
X13579D01*
X13567Y11361D01*
X13560Y11353D01*
Y11346D01*
X13563Y11338D01*
X13567Y11334D01*
X13575Y11331D01*
X13598Y11323D01*
X13605Y11319D01*
X13609Y11315D01*
X13613Y11308D01*
Y11296D01*
X13605Y11289D01*
X13594Y11285D01*
X13579D01*
X13567Y11289D01*
X13560Y11296D01*
X13717Y11365D02*
X13709Y11361D01*
X13701Y11353D01*
X13697Y11346D01*
X13694Y11334D01*
Y11315D01*
X13697Y11304D01*
X13701Y11296D01*
X13709Y11289D01*
X13717Y11285D01*
X13732D01*
X13739Y11289D01*
X13747Y11296D01*
X13751Y11304D01*
X13755Y11315D01*
Y11334D01*
X13751Y11346D01*
X13747Y11353D01*
X13739Y11361D01*
X13732Y11365D01*
X13717D01*
X13773D02*
Y11285D01*
Y11365D02*
X13808D01*
X13819Y11361D01*
X13823Y11357D01*
X13827Y11350D01*
Y11342D01*
X13823Y11334D01*
X13819Y11331D01*
X13808Y11327D01*
X13773D02*
X13808D01*
X13819Y11323D01*
X13823Y11319D01*
X13827Y11312D01*
Y11300D01*
X13823Y11293D01*
X13819Y11289D01*
X13808Y11285D01*
X13773D01*
X13898Y11353D02*
X13890Y11361D01*
X13879Y11365D01*
X13864D01*
X13852Y11361D01*
X13844Y11353D01*
Y11346D01*
X13848Y11338D01*
X13852Y11334D01*
X13860Y11331D01*
X13883Y11323D01*
X13890Y11319D01*
X13894Y11315D01*
X13898Y11308D01*
Y11296D01*
X13890Y11289D01*
X13879Y11285D01*
X13864D01*
X13852Y11289D01*
X13844Y11296D01*
X13965Y11365D02*
X13916D01*
Y11285D01*
X13965D01*
X13916Y11327D02*
X13946D01*
X13979Y11365D02*
Y11285D01*
Y11365D02*
X14013D01*
X14024Y11361D01*
X14028Y11357D01*
X14032Y11350D01*
Y11342D01*
X14028Y11334D01*
X14024Y11331D01*
X14013Y11327D01*
X13979D01*
X14005D02*
X14032Y11285D01*
X14050Y11365D02*
X14080Y11285D01*
X14111Y11365D02*
X14080Y11285D01*
X14182D02*
X14151Y11365D01*
X14121Y11285D01*
X14132Y11312D02*
X14171D01*
X14227Y11365D02*
Y11285D01*
X14201Y11365D02*
X14254D01*
X14286D02*
X14279Y11361D01*
X14271Y11353D01*
X14267Y11346D01*
X14263Y11334D01*
Y11315D01*
X14267Y11304D01*
X14271Y11296D01*
X14279Y11289D01*
X14286Y11285D01*
X14302D01*
X14309Y11289D01*
X14317Y11296D01*
X14321Y11304D01*
X14324Y11315D01*
Y11334D01*
X14321Y11346D01*
X14317Y11353D01*
X14309Y11361D01*
X14302Y11365D01*
X14286D01*
X14343D02*
Y11285D01*
Y11365D02*
X14377D01*
X14389Y11361D01*
X14393Y11357D01*
X14396Y11350D01*
Y11342D01*
X14393Y11334D01*
X14389Y11331D01*
X14377Y11327D01*
X14343D01*
X14370D02*
X14396Y11285D01*
X14414Y11365D02*
X14445Y11327D01*
Y11285D01*
X14475Y11365D02*
X14445Y11327D01*
X14800Y11350D02*
X14807Y11353D01*
X14819Y11365D01*
Y11285D01*
X14881Y11365D02*
X14870Y11361D01*
X14862Y11350D01*
X14858Y11331D01*
Y11319D01*
X14862Y11300D01*
X14870Y11289D01*
X14881Y11285D01*
X14889D01*
X14900Y11289D01*
X14908Y11300D01*
X14912Y11319D01*
Y11331D01*
X14908Y11350D01*
X14900Y11361D01*
X14889Y11365D01*
X14881D01*
X14930Y11273D02*
X14983Y11365D01*
X14988Y11350D02*
X14996Y11353D01*
X15007Y11365D01*
Y11285D01*
X15066Y11365D02*
X15055Y11361D01*
X15051Y11353D01*
Y11346D01*
X15055Y11338D01*
X15062Y11334D01*
X15077Y11331D01*
X15089Y11327D01*
X15096Y11319D01*
X15100Y11312D01*
Y11300D01*
X15096Y11293D01*
X15093Y11289D01*
X15081Y11285D01*
X15066D01*
X15055Y11289D01*
X15051Y11293D01*
X15047Y11300D01*
Y11312D01*
X15051Y11319D01*
X15058Y11327D01*
X15070Y11331D01*
X15085Y11334D01*
X15093Y11338D01*
X15096Y11346D01*
Y11353D01*
X15093Y11361D01*
X15081Y11365D01*
X15066D01*
X15118Y11273D02*
X15171Y11365D01*
X15177Y11350D02*
X15184Y11353D01*
X15196Y11365D01*
Y11285D01*
X15258Y11365D02*
X15247Y11361D01*
X15239Y11350D01*
X15235Y11331D01*
Y11319D01*
X15239Y11300D01*
X15247Y11289D01*
X15258Y11285D01*
X15266D01*
X15277Y11289D01*
X15285Y11300D01*
X15289Y11319D01*
Y11331D01*
X15285Y11350D01*
X15277Y11361D01*
X15266Y11365D01*
X15258D01*
D20*
X14008Y13007D02*
D03*
X14124Y12947D02*
D03*
X14217Y12855D02*
D03*
X14276Y12738D02*
D03*
X14297Y12609D02*
D03*
X14276Y12480D02*
D03*
X14217Y12363D02*
D03*
X14124Y12271D02*
D03*
X14008Y12212D02*
D03*
X13879Y12191D02*
D03*
X13749Y12212D02*
D03*
X13633Y12271D02*
D03*
X13540Y12363D02*
D03*
X13481Y12480D02*
D03*
X13461Y12609D02*
D03*
X13481Y12738D02*
D03*
X13540Y12855D02*
D03*
X13633Y12947D02*
D03*
X13749Y13007D02*
D03*
X13879Y13027D02*
D03*
X14010Y12860D02*
D03*
X14111Y12770D02*
D03*
X14160Y12643D02*
D03*
X14143Y12509D02*
D03*
X14066Y12397D02*
D03*
X13946Y12334D02*
D03*
X13811Y12334D02*
D03*
X13691Y12397D02*
D03*
X13614Y12509D02*
D03*
X13598Y12643D02*
D03*
X13646Y12770D02*
D03*
X13747Y12860D02*
D03*
X13879Y12892D02*
D03*
X13996Y12703D02*
D03*
X14025Y12576D02*
D03*
X13944Y12474D02*
D03*
X13813Y12474D02*
D03*
X13732Y12576D02*
D03*
X13761Y12703D02*
D03*
X13879Y12759D02*
D03*
Y12609D02*
D03*
D21*
X14233Y18783D02*
D03*
D22*
X13524D02*
D03*
D23*
X17378Y16910D02*
D03*
D24*
X17259Y16749D02*
D03*
X17759D02*
D03*
Y17072D02*
D03*
X17259D02*
D03*
D25*
X17903Y17107D02*
D03*
Y16713D02*
D03*
X17116Y16714D02*
D03*
Y17108D02*
D03*
D26*
X13851Y18942D02*
D03*
X13693Y18939D02*
D03*
X13558Y18938D02*
D03*
X14319Y18726D02*
D03*
X13573Y18739D02*
D03*
X13633Y18813D02*
D03*
X13659Y18779D02*
D03*
X13704Y18741D02*
D03*
X13790Y18813D02*
D03*
X13908D02*
D03*
X13947D02*
D03*
X13987D02*
D03*
X14026D02*
D03*
X14066D02*
D03*
X14105D02*
D03*
X14144D02*
D03*
X14184D02*
D03*
X13673Y18597D02*
D03*
X13708Y18629D02*
D03*
X13704Y18566D02*
D03*
X13790Y18632D02*
D03*
X13808Y18566D02*
D03*
X13873Y18567D02*
D03*
X13908Y18633D02*
D03*
X13947Y18602D02*
D03*
X13987Y18634D02*
D03*
X14066Y18633D02*
D03*
X14105Y18581D02*
D03*
X17309Y16990D02*
D03*
X17308Y16829D02*
D03*
X13839Y18805D02*
D03*
X13741D02*
D03*
X13518Y18689D02*
D03*
X13613Y18623D02*
D03*
X14143Y18610D02*
D03*
X14234Y18690D02*
D03*
X14026Y18610D02*
D03*
X13593Y18947D02*
D03*
X13511Y18877D02*
D03*
M02*
