%FSLAX23Y23*%
%MOIN*%
G70*
G01*
G75*
G04 Layer_Color=2752767*
%ADD10C,0.008*%
%ADD11C,0.012*%
%ADD12C,0.012*%
%ADD13C,0.020*%
%ADD14C,0.010*%
%ADD15C,0.030*%
%ADD16C,0.018*%
%ADD17C,0.016*%
%ADD18C,0.024*%
%ADD19C,0.006*%
%ADD20C,0.007*%
%ADD21C,0.013*%
D10*
X12137Y19267D02*
X12147D01*
X12137Y19262D02*
Y19272D01*
Y19262D02*
X12147D01*
Y19272D01*
X12137D02*
X12147D01*
X12132Y19257D02*
Y19272D01*
Y19257D02*
X12152D01*
Y19277D01*
X12132D02*
X12152D01*
X12127Y19252D02*
Y19277D01*
Y19252D02*
X12157D01*
Y19282D01*
X12127D02*
X12157D01*
X12122Y19247D02*
Y19287D01*
Y19247D02*
X12162D01*
Y19287D01*
X12122D02*
X12162D01*
X12187Y19217D02*
X12197D01*
X12187Y19212D02*
Y19222D01*
Y19212D02*
X12197D01*
Y19222D01*
X12187D02*
X12197D01*
X12182Y19207D02*
Y19222D01*
Y19207D02*
X12202D01*
Y19227D01*
X12182D02*
X12202D01*
X12177Y19202D02*
Y19227D01*
Y19202D02*
X12207D01*
Y19232D01*
X12177D02*
X12207D01*
X12172Y19197D02*
Y19237D01*
Y19197D02*
X12212D01*
Y19237D01*
X12172D02*
X12212D01*
X12167Y19192D02*
X12217D01*
Y19242D01*
X12117Y19292D02*
X12167D01*
X12117Y19242D02*
Y19292D01*
X12167Y18992D02*
Y19492D01*
X11917Y19242D02*
X12417D01*
X11957Y11972D02*
X12457D01*
X12207Y11722D02*
Y12222D01*
X12157Y11972D02*
Y12022D01*
X12207D01*
X12257Y11922D02*
Y11972D01*
X12207Y11922D02*
X12257D01*
X12212Y11967D02*
X12252D01*
Y11927D02*
Y11967D01*
X12212Y11927D02*
X12252D01*
X12212D02*
Y11967D01*
X12217Y11962D02*
X12247D01*
Y11932D02*
Y11962D01*
X12217Y11932D02*
X12247D01*
X12217D02*
Y11957D01*
X12222D02*
X12242D01*
Y11937D02*
Y11957D01*
X12222Y11937D02*
X12242D01*
X12222D02*
Y11952D01*
X12227D02*
X12237D01*
Y11942D02*
Y11952D01*
X12227Y11942D02*
X12237D01*
X12227D02*
Y11952D01*
Y11947D02*
X12237D01*
X12162Y12017D02*
X12202D01*
Y11977D02*
Y12017D01*
X12162Y11977D02*
X12202D01*
X12162D02*
Y12017D01*
X12167Y12012D02*
X12197D01*
Y11982D02*
Y12012D01*
X12167Y11982D02*
X12197D01*
X12167D02*
Y12007D01*
X12172D02*
X12192D01*
Y11987D02*
Y12007D01*
X12172Y11987D02*
X12192D01*
X12172D02*
Y12002D01*
X12177D02*
X12187D01*
Y11992D02*
Y12002D01*
X12177Y11992D02*
X12187D01*
X12177D02*
Y12002D01*
Y11997D02*
X12187D01*
X17476Y12053D02*
X17976D01*
X17726Y11803D02*
Y12303D01*
X17676Y12053D02*
Y12103D01*
X17726D01*
X17776Y12003D02*
Y12053D01*
X17726Y12003D02*
X17776D01*
X17731Y12048D02*
X17771D01*
Y12008D02*
Y12048D01*
X17731Y12008D02*
X17771D01*
X17731D02*
Y12048D01*
X17736Y12043D02*
X17766D01*
Y12013D02*
Y12043D01*
X17736Y12013D02*
X17766D01*
X17736D02*
Y12038D01*
X17741D02*
X17761D01*
Y12018D02*
Y12038D01*
X17741Y12018D02*
X17761D01*
X17741D02*
Y12033D01*
X17746D02*
X17756D01*
Y12023D02*
Y12033D01*
X17746Y12023D02*
X17756D01*
X17746D02*
Y12033D01*
Y12028D02*
X17756D01*
X17681Y12098D02*
X17721D01*
Y12058D02*
Y12098D01*
X17681Y12058D02*
X17721D01*
X17681D02*
Y12098D01*
X17686Y12093D02*
X17716D01*
Y12063D02*
Y12093D01*
X17686Y12063D02*
X17716D01*
X17686D02*
Y12088D01*
X17691D02*
X17711D01*
Y12068D02*
Y12088D01*
X17691Y12068D02*
X17711D01*
X17691D02*
Y12083D01*
X17696D02*
X17706D01*
Y12073D02*
Y12083D01*
X17696Y12073D02*
X17706D01*
X17696D02*
Y12083D01*
Y12078D02*
X17706D01*
D11*
X12901Y11510D02*
X12893Y11517D01*
X12882Y11521D01*
X12866D01*
X12855Y11517D01*
X12847Y11510D01*
Y11502D01*
X12851Y11495D01*
X12855Y11491D01*
X12863Y11487D01*
X12885Y11479D01*
X12893Y11476D01*
X12897Y11472D01*
X12901Y11464D01*
Y11453D01*
X12893Y11445D01*
X12882Y11441D01*
X12866D01*
X12855Y11445D01*
X12847Y11453D01*
X12919Y11521D02*
Y11441D01*
X12935Y11521D02*
Y11441D01*
Y11521D02*
X12989Y11441D01*
Y11521D02*
Y11441D01*
X13011Y11521D02*
Y11441D01*
X13081Y11510D02*
X13073Y11517D01*
X13062Y11521D01*
X13047D01*
X13035Y11517D01*
X13028Y11510D01*
Y11502D01*
X13031Y11495D01*
X13035Y11491D01*
X13043Y11487D01*
X13066Y11479D01*
X13073Y11476D01*
X13077Y11472D01*
X13081Y11464D01*
Y11453D01*
X13073Y11445D01*
X13062Y11441D01*
X13047D01*
X13035Y11445D01*
X13028Y11453D01*
X13125Y11521D02*
Y11441D01*
X13099Y11521D02*
X13152D01*
X13162D02*
Y11441D01*
Y11521D02*
X13196D01*
X13207Y11517D01*
X13211Y11514D01*
X13215Y11506D01*
Y11498D01*
X13211Y11491D01*
X13207Y11487D01*
X13196Y11483D01*
X13162D01*
X13188D02*
X13215Y11441D01*
X13256Y11521D02*
X13248Y11517D01*
X13240Y11510D01*
X13237Y11502D01*
X13233Y11491D01*
Y11472D01*
X13237Y11460D01*
X13240Y11453D01*
X13248Y11445D01*
X13256Y11441D01*
X13271D01*
X13279Y11445D01*
X13286Y11453D01*
X13290Y11460D01*
X13294Y11472D01*
Y11491D01*
X13290Y11502D01*
X13286Y11510D01*
X13279Y11517D01*
X13271Y11521D01*
X13256D01*
X13375D02*
Y11441D01*
Y11521D02*
X13425D01*
X13375Y11483D02*
X13406D01*
X13434Y11521D02*
Y11441D01*
X13480D01*
X13538Y11521D02*
X13488D01*
Y11441D01*
X13538D01*
X13488Y11483D02*
X13519D01*
X13551Y11521D02*
X13605Y11441D01*
Y11521D02*
X13551Y11441D01*
X13742Y11502D02*
X13739Y11510D01*
X13731Y11517D01*
X13723Y11521D01*
X13708D01*
X13701Y11517D01*
X13693Y11510D01*
X13689Y11502D01*
X13685Y11491D01*
Y11472D01*
X13689Y11460D01*
X13693Y11453D01*
X13701Y11445D01*
X13708Y11441D01*
X13723D01*
X13731Y11445D01*
X13739Y11453D01*
X13742Y11460D01*
X13765Y11521D02*
Y11441D01*
X13782Y11521D02*
Y11441D01*
Y11521D02*
X13816D01*
X13827Y11517D01*
X13831Y11514D01*
X13835Y11506D01*
Y11498D01*
X13831Y11491D01*
X13827Y11487D01*
X13816Y11483D01*
X13782D01*
X13808D02*
X13835Y11441D01*
X13910Y11502D02*
X13906Y11510D01*
X13899Y11517D01*
X13891Y11521D01*
X13876D01*
X13868Y11517D01*
X13860Y11510D01*
X13857Y11502D01*
X13853Y11491D01*
Y11472D01*
X13857Y11460D01*
X13860Y11453D01*
X13868Y11445D01*
X13876Y11441D01*
X13891D01*
X13899Y11445D01*
X13906Y11453D01*
X13910Y11460D01*
X13932Y11521D02*
Y11464D01*
X13936Y11453D01*
X13944Y11445D01*
X13955Y11441D01*
X13963D01*
X13974Y11445D01*
X13982Y11453D01*
X13986Y11464D01*
Y11521D01*
X14008D02*
Y11441D01*
X14051Y11521D02*
Y11441D01*
X14025Y11521D02*
X14078D01*
X14150D02*
Y11441D01*
Y11521D02*
X14185D01*
X14196Y11517D01*
X14200Y11514D01*
X14204Y11506D01*
Y11498D01*
X14200Y11491D01*
X14196Y11487D01*
X14185Y11483D01*
X14150D01*
X14177D02*
X14204Y11441D01*
X14222Y11472D02*
X14267D01*
Y11479D01*
X14263Y11487D01*
X14260Y11491D01*
X14252Y11495D01*
X14241D01*
X14233Y11491D01*
X14225Y11483D01*
X14222Y11472D01*
Y11464D01*
X14225Y11453D01*
X14233Y11445D01*
X14241Y11441D01*
X14252D01*
X14260Y11445D01*
X14267Y11453D01*
X14284Y11495D02*
X14307Y11441D01*
X14330Y11495D02*
X14307Y11441D01*
X14347Y11449D02*
X14343Y11445D01*
X14347Y11441D01*
X14351Y11445D01*
X14347Y11449D01*
X14492Y11441D02*
X14462Y11521D01*
X14431Y11441D01*
X14442Y11468D02*
X14481D01*
X28377Y5314D02*
X28371Y5312D01*
X28366Y5306D01*
X28363Y5300D01*
X28360Y5292D01*
Y5277D01*
X28363Y5269D01*
X28366Y5263D01*
X28371Y5257D01*
X28377Y5254D01*
X28389D01*
X28394Y5257D01*
X28400Y5263D01*
X28403Y5269D01*
X28406Y5277D01*
Y5292D01*
X28403Y5300D01*
X28400Y5306D01*
X28394Y5312D01*
X28389Y5314D01*
X28377D01*
X28420D02*
Y5254D01*
Y5314D02*
X28457D01*
X28420Y5286D02*
X28443D01*
D12*
X12847Y11365D02*
Y11285D01*
X12893D01*
X12963D02*
X12932Y11365D01*
X12902Y11285D01*
X12913Y11312D02*
X12951D01*
X13035Y11353D02*
X13027Y11361D01*
X13016Y11365D01*
X13000D01*
X12989Y11361D01*
X12981Y11353D01*
Y11346D01*
X12985Y11338D01*
X12989Y11334D01*
X12997Y11331D01*
X13020Y11323D01*
X13027Y11319D01*
X13031Y11315D01*
X13035Y11308D01*
Y11296D01*
X13027Y11289D01*
X13016Y11285D01*
X13000D01*
X12989Y11289D01*
X12981Y11296D01*
X13173Y11346D02*
X13169Y11353D01*
X13161Y11361D01*
X13154Y11365D01*
X13138D01*
X13131Y11361D01*
X13123Y11353D01*
X13119Y11346D01*
X13116Y11334D01*
Y11315D01*
X13119Y11304D01*
X13123Y11296D01*
X13131Y11289D01*
X13138Y11285D01*
X13154D01*
X13161Y11289D01*
X13169Y11296D01*
X13173Y11304D01*
X13195Y11365D02*
Y11308D01*
X13199Y11296D01*
X13207Y11289D01*
X13218Y11285D01*
X13226D01*
X13237Y11289D01*
X13245Y11296D01*
X13248Y11308D01*
Y11365D01*
X13271D02*
Y11285D01*
Y11365D02*
X13301Y11285D01*
X13331Y11365D02*
X13301Y11285D01*
X13331Y11365D02*
Y11285D01*
X13354Y11365D02*
Y11285D01*
Y11365D02*
X13389D01*
X13400Y11361D01*
X13404Y11357D01*
X13408Y11350D01*
Y11342D01*
X13404Y11334D01*
X13400Y11331D01*
X13389Y11327D01*
X13354D02*
X13389D01*
X13400Y11323D01*
X13404Y11319D01*
X13408Y11312D01*
Y11300D01*
X13404Y11293D01*
X13400Y11289D01*
X13389Y11285D01*
X13354D01*
X13426Y11365D02*
Y11285D01*
Y11365D02*
X13460D01*
X13471Y11361D01*
X13475Y11357D01*
X13479Y11350D01*
Y11342D01*
X13475Y11334D01*
X13471Y11331D01*
X13460Y11327D01*
X13426D01*
X13452D02*
X13479Y11285D01*
X13546Y11365D02*
X13497D01*
Y11285D01*
X13546D01*
X13497Y11327D02*
X13527D01*
X13613Y11353D02*
X13605Y11361D01*
X13594Y11365D01*
X13579D01*
X13567Y11361D01*
X13560Y11353D01*
Y11346D01*
X13563Y11338D01*
X13567Y11334D01*
X13575Y11331D01*
X13598Y11323D01*
X13605Y11319D01*
X13609Y11315D01*
X13613Y11308D01*
Y11296D01*
X13605Y11289D01*
X13594Y11285D01*
X13579D01*
X13567Y11289D01*
X13560Y11296D01*
X13717Y11365D02*
X13709Y11361D01*
X13701Y11353D01*
X13697Y11346D01*
X13694Y11334D01*
Y11315D01*
X13697Y11304D01*
X13701Y11296D01*
X13709Y11289D01*
X13717Y11285D01*
X13732D01*
X13739Y11289D01*
X13747Y11296D01*
X13751Y11304D01*
X13755Y11315D01*
Y11334D01*
X13751Y11346D01*
X13747Y11353D01*
X13739Y11361D01*
X13732Y11365D01*
X13717D01*
X13773D02*
Y11285D01*
Y11365D02*
X13808D01*
X13819Y11361D01*
X13823Y11357D01*
X13827Y11350D01*
Y11342D01*
X13823Y11334D01*
X13819Y11331D01*
X13808Y11327D01*
X13773D02*
X13808D01*
X13819Y11323D01*
X13823Y11319D01*
X13827Y11312D01*
Y11300D01*
X13823Y11293D01*
X13819Y11289D01*
X13808Y11285D01*
X13773D01*
X13898Y11353D02*
X13890Y11361D01*
X13879Y11365D01*
X13864D01*
X13852Y11361D01*
X13844Y11353D01*
Y11346D01*
X13848Y11338D01*
X13852Y11334D01*
X13860Y11331D01*
X13883Y11323D01*
X13890Y11319D01*
X13894Y11315D01*
X13898Y11308D01*
Y11296D01*
X13890Y11289D01*
X13879Y11285D01*
X13864D01*
X13852Y11289D01*
X13844Y11296D01*
X13965Y11365D02*
X13916D01*
Y11285D01*
X13965D01*
X13916Y11327D02*
X13946D01*
X13979Y11365D02*
Y11285D01*
Y11365D02*
X14013D01*
X14024Y11361D01*
X14028Y11357D01*
X14032Y11350D01*
Y11342D01*
X14028Y11334D01*
X14024Y11331D01*
X14013Y11327D01*
X13979D01*
X14005D02*
X14032Y11285D01*
X14050Y11365D02*
X14080Y11285D01*
X14111Y11365D02*
X14080Y11285D01*
X14182D02*
X14151Y11365D01*
X14121Y11285D01*
X14132Y11312D02*
X14171D01*
X14227Y11365D02*
Y11285D01*
X14201Y11365D02*
X14254D01*
X14286D02*
X14279Y11361D01*
X14271Y11353D01*
X14267Y11346D01*
X14263Y11334D01*
Y11315D01*
X14267Y11304D01*
X14271Y11296D01*
X14279Y11289D01*
X14286Y11285D01*
X14302D01*
X14309Y11289D01*
X14317Y11296D01*
X14321Y11304D01*
X14324Y11315D01*
Y11334D01*
X14321Y11346D01*
X14317Y11353D01*
X14309Y11361D01*
X14302Y11365D01*
X14286D01*
X14343D02*
Y11285D01*
Y11365D02*
X14377D01*
X14389Y11361D01*
X14393Y11357D01*
X14396Y11350D01*
Y11342D01*
X14393Y11334D01*
X14389Y11331D01*
X14377Y11327D01*
X14343D01*
X14370D02*
X14396Y11285D01*
X14414Y11365D02*
X14445Y11327D01*
Y11285D01*
X14475Y11365D02*
X14445Y11327D01*
X14800Y11350D02*
X14807Y11353D01*
X14819Y11365D01*
Y11285D01*
X14881Y11365D02*
X14870Y11361D01*
X14862Y11350D01*
X14858Y11331D01*
Y11319D01*
X14862Y11300D01*
X14870Y11289D01*
X14881Y11285D01*
X14889D01*
X14900Y11289D01*
X14908Y11300D01*
X14912Y11319D01*
Y11331D01*
X14908Y11350D01*
X14900Y11361D01*
X14889Y11365D01*
X14881D01*
X14930Y11273D02*
X14983Y11365D01*
X14988Y11350D02*
X14996Y11353D01*
X15007Y11365D01*
Y11285D01*
X15066Y11365D02*
X15055Y11361D01*
X15051Y11353D01*
Y11346D01*
X15055Y11338D01*
X15062Y11334D01*
X15077Y11331D01*
X15089Y11327D01*
X15096Y11319D01*
X15100Y11312D01*
Y11300D01*
X15096Y11293D01*
X15093Y11289D01*
X15081Y11285D01*
X15066D01*
X15055Y11289D01*
X15051Y11293D01*
X15047Y11300D01*
Y11312D01*
X15051Y11319D01*
X15058Y11327D01*
X15070Y11331D01*
X15085Y11334D01*
X15093Y11338D01*
X15096Y11346D01*
Y11353D01*
X15093Y11361D01*
X15081Y11365D01*
X15066D01*
X15118Y11273D02*
X15171Y11365D01*
X15177Y11350D02*
X15184Y11353D01*
X15196Y11365D01*
Y11285D01*
X15258Y11365D02*
X15247Y11361D01*
X15239Y11350D01*
X15235Y11331D01*
Y11319D01*
X15239Y11300D01*
X15247Y11289D01*
X15258Y11285D01*
X15266D01*
X15277Y11289D01*
X15285Y11300D01*
X15289Y11319D01*
Y11331D01*
X15285Y11350D01*
X15277Y11361D01*
X15266Y11365D01*
X15258D01*
D13*
X4990Y5169D02*
X4991Y5160D01*
X4994Y5150D01*
X4998Y5142D01*
X5005Y5134D01*
X5012Y5128D01*
X5021Y5123D01*
X5030Y5120D01*
X5040Y5119D01*
X5550Y5659D02*
X5549Y5669D01*
X5546Y5679D01*
X5542Y5687D01*
X5535Y5695D01*
X5528Y5701D01*
X5519Y5706D01*
X5510Y5709D01*
X5500Y5709D01*
X5040D02*
X5030Y5709D01*
X5021Y5706D01*
X5012Y5701D01*
X5005Y5695D01*
X4998Y5687D01*
X4994Y5679D01*
X4991Y5669D01*
X4990Y5659D01*
X8290Y5509D02*
X8289Y5519D01*
X8286Y5529D01*
X8282Y5537D01*
X8275Y5545D01*
X8268Y5551D01*
X8259Y5556D01*
X8250Y5559D01*
X8240Y5559D01*
Y5119D02*
X8250Y5120D01*
X8259Y5123D01*
X8268Y5128D01*
X8275Y5134D01*
X8282Y5142D01*
X8286Y5150D01*
X8289Y5160D01*
X8290Y5169D01*
X5550Y5609D02*
X5551Y5600D01*
X5554Y5590D01*
X5558Y5582D01*
X5565Y5574D01*
X5572Y5568D01*
X5581Y5563D01*
X5590Y5560D01*
X5600Y5559D01*
X8330Y5509D02*
X8329Y5520D01*
X8328Y5530D01*
X8325Y5539D01*
X8321Y5549D01*
X8316Y5557D01*
X8310Y5566D01*
X8304Y5573D01*
X8296Y5580D01*
X8288Y5586D01*
X8279Y5591D01*
X8270Y5594D01*
X8260Y5597D01*
X8250Y5599D01*
X8240Y5599D01*
X8315Y5120D02*
X8320Y5129D01*
X8324Y5138D01*
X8327Y5149D01*
X8329Y5159D01*
X8330Y5169D01*
X5040Y5749D02*
X5029Y5749D01*
X5019Y5747D01*
X5009Y5744D01*
X4999Y5740D01*
X4990Y5734D01*
X5590Y5659D02*
X5589Y5670D01*
X5588Y5680D01*
X5585Y5689D01*
X5581Y5699D01*
X5576Y5707D01*
X5570Y5716D01*
X5564Y5723D01*
X5556Y5730D01*
X5548Y5736D01*
X5539Y5741D01*
X5530Y5744D01*
X5520Y5747D01*
X5510Y5749D01*
X5500Y5749D01*
X5590Y5609D02*
X5593Y5602D01*
X5600Y5599D01*
X24830Y5209D02*
X24830Y5200D01*
X24831Y5190D01*
X24833Y5180D01*
X24836Y5171D01*
X24839Y5162D01*
X24843Y5153D01*
X24847Y5144D01*
X24853Y5136D01*
X24859Y5128D01*
X24865Y5121D01*
X28949Y6075D02*
X28941Y6081D01*
X28933Y6087D01*
X28925Y6092D01*
X28917Y6097D01*
X28908Y6100D01*
X28898Y6104D01*
X28889Y6106D01*
X28879Y6108D01*
X28870Y6109D01*
X28860Y6109D01*
X28950Y5979D02*
X28949Y5990D01*
X28948Y6000D01*
X28945Y6009D01*
X28941Y6019D01*
X28936Y6027D01*
X28930Y6036D01*
X28924Y6043D01*
X28916Y6050D01*
X28908Y6056D01*
X28899Y6061D01*
X28890Y6064D01*
X28880Y6067D01*
X28870Y6069D01*
X28860Y6069D01*
X24910Y6109D02*
X24900Y6109D01*
X24891Y6107D01*
X24882Y6104D01*
X24873Y6100D01*
X24865Y6095D01*
X24857Y6089D01*
X24850Y6083D01*
X24844Y6075D01*
X24839Y6067D01*
X24835Y6058D01*
X24832Y6049D01*
X24831Y6039D01*
X24830Y6029D01*
X24910Y6069D02*
X24900Y6068D01*
X24890Y6064D01*
X24882Y6058D01*
X24875Y6049D01*
X24871Y6040D01*
X24870Y6029D01*
X28860Y5119D02*
X28870Y5120D01*
X28880Y5122D01*
X28890Y5125D01*
X28899Y5128D01*
X28908Y5133D01*
X28916Y5139D01*
X28924Y5146D01*
X28930Y5153D01*
X28936Y5162D01*
X28941Y5170D01*
X28945Y5180D01*
X28948Y5189D01*
X28949Y5199D01*
X28950Y5209D01*
X24870Y5209D02*
X24871Y5199D01*
X24872Y5189D01*
X24875Y5180D01*
X24879Y5170D01*
X24884Y5162D01*
X24890Y5153D01*
X24896Y5146D01*
X24904Y5139D01*
X24912Y5133D01*
X24921Y5128D01*
X24930Y5125D01*
X24940Y5122D01*
X24950Y5120D01*
X24960Y5119D01*
X5550Y5609D02*
Y5659D01*
X8290Y5169D02*
Y5509D01*
X8330Y5169D02*
Y5509D01*
X5590Y5609D02*
Y5659D01*
X4990Y5169D02*
Y5659D01*
X24830Y5209D02*
Y6029D01*
X28950Y5209D02*
Y5979D01*
X24870Y5209D02*
Y6029D01*
X5040Y5709D02*
X5500D01*
X5600Y5559D02*
X8240D01*
X5040Y5749D02*
X5500D01*
X5600Y5599D02*
X8240D01*
X5040Y5119D02*
X8240D01*
X24910Y6109D02*
X28860D01*
X24910Y6069D02*
X28860D01*
X24960Y5119D02*
X28860D01*
X28590Y5334D02*
X28657Y5234D01*
Y5334D02*
X28590Y5234D01*
X28180Y5311D02*
Y5315D01*
X28184Y5325D01*
X28189Y5330D01*
X28199Y5334D01*
X28218D01*
X28227Y5330D01*
X28232Y5325D01*
X28237Y5315D01*
Y5306D01*
X28232Y5296D01*
X28223Y5282D01*
X28175Y5234D01*
X28242D01*
D14*
X28860Y5779D02*
X28870Y5780D01*
X28879Y5783D01*
X28888Y5788D01*
X28895Y5794D01*
X28902Y5802D01*
X28906Y5810D01*
X28909Y5820D01*
X28910Y5829D01*
Y5979D02*
X28909Y5989D01*
X28906Y5999D01*
X28902Y6007D01*
X28895Y6015D01*
X28888Y6021D01*
X28879Y6026D01*
X28870Y6029D01*
X28860Y6029D01*
X28910Y5359D02*
X28909Y5369D01*
X28906Y5379D01*
X28902Y5387D01*
X28895Y5395D01*
X28888Y5401D01*
X28879Y5406D01*
X28870Y5409D01*
X28860Y5409D01*
Y5159D02*
X28870Y5160D01*
X28879Y5163D01*
X28888Y5168D01*
X28895Y5174D01*
X28902Y5182D01*
X28906Y5190D01*
X28909Y5200D01*
X28910Y5209D01*
X27370Y5159D02*
X27380Y5161D01*
X27390Y5165D01*
X27398Y5171D01*
X27405Y5179D01*
X27409Y5189D01*
X27410Y5199D01*
Y5369D02*
X27409Y5380D01*
X27405Y5389D01*
X27398Y5398D01*
X27390Y5404D01*
X27380Y5408D01*
X27370Y5409D01*
X25330Y5369D02*
X25329Y5380D01*
X25325Y5389D01*
X25318Y5398D01*
X25310Y5404D01*
X25300Y5408D01*
X25290Y5409D01*
X24910Y5819D02*
X24911Y5809D01*
X24915Y5799D01*
X24922Y5791D01*
X24930Y5785D01*
X24940Y5781D01*
X24950Y5779D01*
X27910Y5199D02*
X27911Y5189D01*
X27915Y5179D01*
X27922Y5171D01*
X27930Y5165D01*
X27940Y5161D01*
X27950Y5159D01*
X24910Y5209D02*
X24911Y5200D01*
X24914Y5190D01*
X24918Y5182D01*
X24925Y5174D01*
X24932Y5168D01*
X24941Y5163D01*
X24950Y5160D01*
X24960Y5159D01*
X25370Y5199D02*
X25371Y5189D01*
X25375Y5179D01*
X25382Y5171D01*
X25390Y5165D01*
X25400Y5161D01*
X25410Y5159D01*
X24910Y5499D02*
X24911Y5490D01*
X24914Y5480D01*
X24918Y5472D01*
X24925Y5464D01*
X24932Y5458D01*
X24941Y5453D01*
X24950Y5450D01*
X24960Y5449D01*
X28860D02*
X28870Y5450D01*
X28879Y5453D01*
X28888Y5458D01*
X28895Y5464D01*
X28902Y5472D01*
X28906Y5480D01*
X28909Y5490D01*
X28910Y5499D01*
Y5689D02*
X28909Y5699D01*
X28906Y5709D01*
X28902Y5717D01*
X28895Y5725D01*
X28888Y5731D01*
X28879Y5736D01*
X28870Y5739D01*
X28860Y5739D01*
X27970Y5979D02*
X27969Y5989D01*
X27966Y5999D01*
X27962Y6007D01*
X27955Y6015D01*
X27948Y6021D01*
X27939Y6026D01*
X27930Y6029D01*
X27920Y6029D01*
Y5779D02*
X27930Y5780D01*
X27939Y5783D01*
X27948Y5788D01*
X27955Y5794D01*
X27962Y5802D01*
X27966Y5810D01*
X27969Y5820D01*
X27970Y5829D01*
X28010D02*
X28011Y5820D01*
X28014Y5810D01*
X28018Y5802D01*
X28025Y5794D01*
X28032Y5788D01*
X28041Y5783D01*
X28050Y5780D01*
X28060Y5779D01*
X26370D02*
X26380Y5780D01*
X26389Y5783D01*
X26398Y5788D01*
X26405Y5794D01*
X26412Y5802D01*
X26416Y5810D01*
X26419Y5820D01*
X26420Y5829D01*
Y5979D02*
X26419Y5989D01*
X26416Y5999D01*
X26412Y6007D01*
X26405Y6015D01*
X26398Y6021D01*
X26389Y6026D01*
X26380Y6029D01*
X26370Y6029D01*
X26460Y5829D02*
X26461Y5820D01*
X26464Y5810D01*
X26468Y5802D01*
X26475Y5794D01*
X26482Y5788D01*
X26491Y5783D01*
X26500Y5780D01*
X26510Y5779D01*
X25290Y5159D02*
X25300Y5161D01*
X25310Y5165D01*
X25318Y5171D01*
X25325Y5179D01*
X25329Y5189D01*
X25330Y5199D01*
X27870Y5369D02*
X27869Y5380D01*
X27865Y5389D01*
X27858Y5398D01*
X27850Y5404D01*
X27840Y5408D01*
X27830Y5409D01*
X27450Y5209D02*
X27451Y5200D01*
X27454Y5190D01*
X27458Y5182D01*
X27465Y5174D01*
X27472Y5168D01*
X27481Y5163D01*
X27490Y5160D01*
X27500Y5159D01*
X27830D02*
X27840Y5161D01*
X27850Y5165D01*
X27858Y5171D01*
X27865Y5179D01*
X27869Y5189D01*
X27870Y5199D01*
X4965Y21103D02*
X28965D01*
Y5103D02*
Y21103D01*
X4965Y5103D02*
X25965D01*
X4965D02*
Y21103D01*
X28910Y5829D02*
Y5979D01*
Y5209D02*
Y5359D01*
X27910Y5199D02*
Y5409D01*
X27410Y5199D02*
Y5369D01*
X25370Y5199D02*
Y5409D01*
X25330Y5199D02*
Y5369D01*
X24910Y5819D02*
Y6029D01*
Y5209D02*
Y5409D01*
Y5499D02*
Y5739D01*
X28910Y5499D02*
Y5689D01*
X28010Y5829D02*
Y6029D01*
X27970Y5829D02*
Y5979D01*
X26420Y5829D02*
Y5979D01*
X26460Y5829D02*
Y6029D01*
X27910Y5409D02*
X28860D01*
X27950Y5159D02*
X28860D01*
X24910Y5409D02*
X25290D01*
X25370D02*
X27370D01*
X24960Y5159D02*
X25290D01*
X25410D02*
X27370D01*
X24960Y5449D02*
X28860D01*
X24910Y5739D02*
X28860D01*
X28010Y6029D02*
X28860D01*
X28060Y5779D02*
X28860D01*
X24910Y6029D02*
X26370D01*
X26460D02*
X27920D01*
X26510Y5779D02*
X27920D01*
X24950D02*
X26370D01*
X27870Y5199D02*
Y5369D01*
X27450Y5209D02*
Y5409D01*
X27830D01*
X27500Y5159D02*
X27830D01*
X26977Y5934D02*
Y5879D01*
Y5934D02*
X27001D01*
X27008Y5932D01*
X27011Y5929D01*
X27014Y5924D01*
Y5919D01*
X27011Y5914D01*
X27008Y5911D01*
X27001Y5908D01*
X26977D01*
X26995D02*
X27014Y5879D01*
X27031Y5934D02*
X27034Y5932D01*
X27036Y5934D01*
X27034Y5937D01*
X27031Y5934D01*
X27034Y5916D02*
Y5879D01*
X27078Y5908D02*
X27072Y5914D01*
X27067Y5916D01*
X27059D01*
X27054Y5914D01*
X27049Y5908D01*
X27046Y5900D01*
Y5895D01*
X27049Y5887D01*
X27054Y5882D01*
X27059Y5879D01*
X27067D01*
X27072Y5882D01*
X27078Y5887D01*
X27089Y5934D02*
Y5879D01*
Y5906D02*
X27097Y5914D01*
X27102Y5916D01*
X27110D01*
X27115Y5914D01*
X27118Y5906D01*
Y5879D01*
X27176Y5934D02*
Y5879D01*
X27207D01*
X27226Y5916D02*
X27221Y5914D01*
X27216Y5908D01*
X27213Y5900D01*
Y5895D01*
X27216Y5887D01*
X27221Y5882D01*
X27226Y5879D01*
X27234D01*
X27239Y5882D01*
X27245Y5887D01*
X27247Y5895D01*
Y5900D01*
X27245Y5908D01*
X27239Y5914D01*
X27234Y5916D01*
X27226D01*
X27259Y5934D02*
Y5879D01*
Y5908D02*
X27264Y5914D01*
X27270Y5916D01*
X27278D01*
X27283Y5914D01*
X27288Y5908D01*
X27291Y5900D01*
Y5895D01*
X27288Y5887D01*
X27283Y5882D01*
X27278Y5879D01*
X27270D01*
X27264Y5882D01*
X27259Y5887D01*
X27334Y5934D02*
Y5879D01*
Y5908D02*
X27329Y5914D01*
X27323Y5916D01*
X27316D01*
X27310Y5914D01*
X27305Y5908D01*
X27302Y5900D01*
Y5895D01*
X27305Y5887D01*
X27310Y5882D01*
X27316Y5879D01*
X27323D01*
X27329Y5882D01*
X27334Y5887D01*
X27354Y5934D02*
X27356Y5932D01*
X27359Y5934D01*
X27356Y5937D01*
X27354Y5934D01*
X27356Y5916D02*
Y5879D01*
X27369Y5934D02*
Y5879D01*
X27380Y5934D02*
Y5879D01*
X25416Y5936D02*
Y5881D01*
Y5936D02*
X25440D01*
X25447Y5934D01*
X25450Y5931D01*
X25453Y5926D01*
Y5921D01*
X25450Y5916D01*
X25447Y5913D01*
X25440Y5910D01*
X25416D01*
X25434D02*
X25453Y5881D01*
X25470Y5936D02*
X25473Y5934D01*
X25475Y5936D01*
X25473Y5939D01*
X25470Y5936D01*
X25473Y5918D02*
Y5881D01*
X25517Y5910D02*
X25511Y5916D01*
X25506Y5918D01*
X25498D01*
X25493Y5916D01*
X25488Y5910D01*
X25485Y5902D01*
Y5897D01*
X25488Y5889D01*
X25493Y5884D01*
X25498Y5881D01*
X25506D01*
X25511Y5884D01*
X25517Y5889D01*
X25528Y5936D02*
Y5881D01*
Y5908D02*
X25536Y5916D01*
X25541Y5918D01*
X25549D01*
X25554Y5916D01*
X25557Y5908D01*
Y5881D01*
X25615Y5936D02*
Y5881D01*
X25646D01*
X25665Y5918D02*
X25660Y5916D01*
X25655Y5910D01*
X25652Y5902D01*
Y5897D01*
X25655Y5889D01*
X25660Y5884D01*
X25665Y5881D01*
X25673D01*
X25678Y5884D01*
X25684Y5889D01*
X25686Y5897D01*
Y5902D01*
X25684Y5910D01*
X25678Y5916D01*
X25673Y5918D01*
X25665D01*
X25698Y5936D02*
Y5881D01*
Y5910D02*
X25703Y5916D01*
X25709Y5918D01*
X25717D01*
X25722Y5916D01*
X25727Y5910D01*
X25730Y5902D01*
Y5897D01*
X25727Y5889D01*
X25722Y5884D01*
X25717Y5881D01*
X25709D01*
X25703Y5884D01*
X25698Y5889D01*
X25773Y5936D02*
Y5881D01*
Y5910D02*
X25768Y5916D01*
X25762Y5918D01*
X25755D01*
X25749Y5916D01*
X25744Y5910D01*
X25741Y5902D01*
Y5897D01*
X25744Y5889D01*
X25749Y5884D01*
X25755Y5881D01*
X25762D01*
X25768Y5884D01*
X25773Y5889D01*
X25793Y5936D02*
X25795Y5934D01*
X25798Y5936D01*
X25795Y5939D01*
X25793Y5936D01*
X25795Y5918D02*
Y5881D01*
X25808Y5936D02*
Y5881D01*
X25819Y5936D02*
Y5881D01*
X5080Y5314D02*
Y5254D01*
Y5314D02*
X5117D01*
X5080Y5286D02*
X5103D01*
X5124Y5314D02*
Y5254D01*
X5137Y5314D02*
Y5254D01*
Y5314D02*
X5157D01*
X5165Y5312D01*
X5171Y5306D01*
X5174Y5300D01*
X5177Y5292D01*
Y5277D01*
X5174Y5269D01*
X5171Y5263D01*
X5165Y5257D01*
X5157Y5254D01*
X5137D01*
X5227Y5314D02*
X5190D01*
Y5254D01*
X5227D01*
X5190Y5286D02*
X5213D01*
X5237Y5314D02*
Y5254D01*
Y5314D02*
X5277Y5254D01*
Y5314D02*
Y5254D01*
X5314Y5314D02*
Y5254D01*
X5294Y5314D02*
X5334D01*
X5341D02*
Y5254D01*
X5399D02*
X5376Y5314D01*
X5353Y5254D01*
X5362Y5274D02*
X5390D01*
X5413Y5314D02*
Y5254D01*
X5447D01*
X5501Y5314D02*
Y5254D01*
Y5314D02*
X5527D01*
X5535Y5312D01*
X5538Y5309D01*
X5541Y5303D01*
Y5297D01*
X5538Y5292D01*
X5535Y5289D01*
X5527Y5286D01*
X5501D01*
X5521D02*
X5541Y5254D01*
X5592Y5314D02*
X5554D01*
Y5254D01*
X5592D01*
X5554Y5286D02*
X5577D01*
X5602Y5314D02*
Y5254D01*
X5636D01*
X5688D02*
X5665Y5314D01*
X5642Y5254D01*
X5651Y5274D02*
X5680D01*
X5722Y5314D02*
Y5254D01*
X5702Y5314D02*
X5742D01*
X5749D02*
Y5254D01*
X5779Y5314D02*
X5773Y5312D01*
X5768Y5306D01*
X5765Y5300D01*
X5762Y5292D01*
Y5277D01*
X5765Y5269D01*
X5768Y5263D01*
X5773Y5257D01*
X5779Y5254D01*
X5790D01*
X5796Y5257D01*
X5802Y5263D01*
X5805Y5269D01*
X5808Y5277D01*
Y5292D01*
X5805Y5300D01*
X5802Y5306D01*
X5796Y5312D01*
X5790Y5314D01*
X5779D01*
X5822D02*
Y5254D01*
Y5314D02*
X5862Y5254D01*
Y5314D02*
Y5254D01*
X5918Y5306D02*
X5912Y5312D01*
X5904Y5314D01*
X5892D01*
X5884Y5312D01*
X5878Y5306D01*
Y5300D01*
X5881Y5294D01*
X5884Y5292D01*
X5890Y5289D01*
X5907Y5283D01*
X5912Y5280D01*
X5915Y5277D01*
X5918Y5272D01*
Y5263D01*
X5912Y5257D01*
X5904Y5254D01*
X5892D01*
X5884Y5257D01*
X5878Y5263D01*
X5931Y5314D02*
Y5254D01*
X5971Y5314D02*
Y5254D01*
X5931Y5286D02*
X5971D01*
X5988Y5314D02*
Y5254D01*
X6001Y5283D02*
X6026D01*
X6035Y5286D01*
X6038Y5289D01*
X6041Y5294D01*
Y5303D01*
X6038Y5309D01*
X6035Y5312D01*
X6026Y5314D01*
X6001D01*
Y5254D01*
X6060Y5257D02*
X6057Y5254D01*
X6054Y5257D01*
X6057Y5260D01*
X6060Y5257D01*
Y5252D01*
X6057Y5246D01*
X6054Y5243D01*
X6166Y5254D02*
X6143Y5314D01*
X6120Y5254D01*
X6129Y5274D02*
X6157D01*
X6180Y5314D02*
Y5254D01*
Y5314D02*
X6220Y5254D01*
Y5314D02*
Y5254D01*
X6236Y5314D02*
Y5254D01*
Y5314D02*
X6256D01*
X6265Y5312D01*
X6271Y5306D01*
X6273Y5300D01*
X6276Y5292D01*
Y5277D01*
X6273Y5269D01*
X6271Y5263D01*
X6265Y5257D01*
X6256Y5254D01*
X6236D01*
X6374Y5314D02*
X6337D01*
Y5254D01*
X6374D01*
X6337Y5286D02*
X6360D01*
X6384Y5314D02*
X6424Y5254D01*
Y5314D02*
X6384Y5254D01*
X6480Y5300D02*
X6477Y5306D01*
X6472Y5312D01*
X6466Y5314D01*
X6455D01*
X6449Y5312D01*
X6443Y5306D01*
X6440Y5300D01*
X6437Y5292D01*
Y5277D01*
X6440Y5269D01*
X6443Y5263D01*
X6449Y5257D01*
X6455Y5254D01*
X6466D01*
X6472Y5257D01*
X6477Y5263D01*
X6480Y5269D01*
X6534Y5314D02*
X6497D01*
Y5254D01*
X6534D01*
X6497Y5286D02*
X6520D01*
X6544Y5283D02*
X6570D01*
X6578Y5286D01*
X6581Y5289D01*
X6584Y5294D01*
Y5303D01*
X6581Y5309D01*
X6578Y5312D01*
X6570Y5314D01*
X6544D01*
Y5254D01*
X6618Y5314D02*
Y5254D01*
X6598Y5314D02*
X6638D01*
X6692D02*
Y5254D01*
Y5314D02*
X6729D01*
X6692Y5286D02*
X6715D01*
X6753Y5314D02*
X6747Y5312D01*
X6742Y5306D01*
X6739Y5300D01*
X6736Y5292D01*
Y5277D01*
X6739Y5269D01*
X6742Y5263D01*
X6747Y5257D01*
X6753Y5254D01*
X6764D01*
X6770Y5257D01*
X6776Y5263D01*
X6779Y5269D01*
X6782Y5277D01*
Y5292D01*
X6779Y5300D01*
X6776Y5306D01*
X6770Y5312D01*
X6764Y5314D01*
X6753D01*
X6796D02*
Y5254D01*
Y5314D02*
X6821D01*
X6830Y5312D01*
X6833Y5309D01*
X6836Y5303D01*
Y5297D01*
X6833Y5292D01*
X6830Y5289D01*
X6821Y5286D01*
X6796D01*
X6816D02*
X6836Y5254D01*
X6896Y5283D02*
X6922D01*
X6930Y5286D01*
X6933Y5289D01*
X6936Y5294D01*
Y5303D01*
X6933Y5309D01*
X6930Y5312D01*
X6922Y5314D01*
X6896D01*
Y5254D01*
X6950Y5314D02*
Y5272D01*
X6952Y5263D01*
X6958Y5257D01*
X6967Y5254D01*
X6972D01*
X6981Y5257D01*
X6987Y5263D01*
X6990Y5272D01*
Y5314D01*
X7006D02*
Y5254D01*
Y5314D02*
X7032D01*
X7040Y5312D01*
X7043Y5309D01*
X7046Y5303D01*
Y5297D01*
X7043Y5292D01*
X7040Y5289D01*
X7032Y5286D01*
X7006D01*
X7026D02*
X7046Y5254D01*
X7060Y5283D02*
X7085D01*
X7094Y5286D01*
X7097Y5289D01*
X7100Y5294D01*
Y5303D01*
X7097Y5309D01*
X7094Y5312D01*
X7085Y5314D01*
X7060D01*
Y5254D01*
X7130Y5314D02*
X7124Y5312D01*
X7119Y5306D01*
X7116Y5300D01*
X7113Y5292D01*
Y5277D01*
X7116Y5269D01*
X7119Y5263D01*
X7124Y5257D01*
X7130Y5254D01*
X7142D01*
X7147Y5257D01*
X7153Y5263D01*
X7156Y5269D01*
X7159Y5277D01*
Y5292D01*
X7156Y5300D01*
X7153Y5306D01*
X7147Y5312D01*
X7142Y5314D01*
X7130D01*
X7213Y5306D02*
X7207Y5312D01*
X7198Y5314D01*
X7187D01*
X7178Y5312D01*
X7173Y5306D01*
Y5300D01*
X7176Y5294D01*
X7178Y5292D01*
X7184Y5289D01*
X7201Y5283D01*
X7207Y5280D01*
X7210Y5277D01*
X7213Y5272D01*
Y5263D01*
X7207Y5257D01*
X7198Y5254D01*
X7187D01*
X7178Y5257D01*
X7173Y5263D01*
X7263Y5314D02*
X7226D01*
Y5254D01*
X7263D01*
X7226Y5286D02*
X7249D01*
X7313Y5306D02*
X7307Y5312D01*
X7299Y5314D01*
X7287D01*
X7279Y5312D01*
X7273Y5306D01*
Y5300D01*
X7276Y5294D01*
X7279Y5292D01*
X7285Y5289D01*
X7302Y5283D01*
X7307Y5280D01*
X7310Y5277D01*
X7313Y5272D01*
Y5263D01*
X7307Y5257D01*
X7299Y5254D01*
X7287D01*
X7279Y5257D01*
X7273Y5263D01*
X7411Y5314D02*
X7374D01*
Y5254D01*
X7411D01*
X7374Y5286D02*
X7397D01*
X7421Y5314D02*
X7461Y5254D01*
Y5314D02*
X7421Y5254D01*
X7474Y5283D02*
X7500D01*
X7509Y5286D01*
X7511Y5289D01*
X7514Y5294D01*
Y5303D01*
X7511Y5309D01*
X7509Y5312D01*
X7500Y5314D01*
X7474D01*
Y5254D01*
X7528Y5314D02*
Y5254D01*
Y5314D02*
X7553D01*
X7562Y5312D01*
X7565Y5309D01*
X7568Y5303D01*
Y5297D01*
X7565Y5292D01*
X7562Y5289D01*
X7553Y5286D01*
X7528D01*
X7548D02*
X7568Y5254D01*
X7618Y5314D02*
X7581D01*
Y5254D01*
X7618D01*
X7581Y5286D02*
X7604D01*
X7668Y5306D02*
X7663Y5312D01*
X7654Y5314D01*
X7643D01*
X7634Y5312D01*
X7628Y5306D01*
Y5300D01*
X7631Y5294D01*
X7634Y5292D01*
X7640Y5289D01*
X7657Y5283D01*
X7663Y5280D01*
X7665Y5277D01*
X7668Y5272D01*
Y5263D01*
X7663Y5257D01*
X7654Y5254D01*
X7643D01*
X7634Y5257D01*
X7628Y5263D01*
X7722Y5306D02*
X7716Y5312D01*
X7707Y5314D01*
X7696D01*
X7687Y5312D01*
X7682Y5306D01*
Y5300D01*
X7685Y5294D01*
X7687Y5292D01*
X7693Y5289D01*
X7710Y5283D01*
X7716Y5280D01*
X7719Y5277D01*
X7722Y5272D01*
Y5263D01*
X7716Y5257D01*
X7707Y5254D01*
X7696D01*
X7687Y5257D01*
X7682Y5263D01*
X7735Y5314D02*
Y5254D01*
X7769D01*
X7776Y5314D02*
X7799Y5286D01*
Y5254D01*
X7822Y5314D02*
X7799Y5286D01*
X7919Y5300D02*
X7916Y5306D01*
X7911Y5312D01*
X7905Y5314D01*
X7894D01*
X7888Y5312D01*
X7882Y5306D01*
X7879Y5300D01*
X7877Y5292D01*
Y5277D01*
X7879Y5269D01*
X7882Y5263D01*
X7888Y5257D01*
X7894Y5254D01*
X7905D01*
X7911Y5257D01*
X7916Y5263D01*
X7919Y5269D01*
Y5277D01*
X7905D02*
X7919D01*
X7933Y5314D02*
Y5254D01*
Y5314D02*
X7959D01*
X7967Y5312D01*
X7970Y5309D01*
X7973Y5303D01*
Y5297D01*
X7970Y5292D01*
X7967Y5289D01*
X7959Y5286D01*
X7933D01*
X7953D02*
X7973Y5254D01*
X8032D02*
X8009Y5314D01*
X7986Y5254D01*
X7995Y5274D02*
X8024D01*
X8046Y5314D02*
Y5254D01*
Y5314D02*
X8086Y5254D01*
Y5314D02*
Y5254D01*
X8123Y5314D02*
Y5254D01*
X8103Y5314D02*
X8143D01*
X8187D02*
X8150D01*
Y5254D01*
X8187D01*
X8150Y5286D02*
X8173D01*
X8197Y5314D02*
Y5254D01*
Y5314D02*
X8217D01*
X8226Y5312D01*
X8231Y5306D01*
X8234Y5300D01*
X8237Y5292D01*
Y5277D01*
X8234Y5269D01*
X8231Y5263D01*
X8226Y5257D01*
X8217Y5254D01*
X8197D01*
X5097Y5409D02*
X5091Y5407D01*
X5086Y5401D01*
X5083Y5395D01*
X5080Y5387D01*
Y5372D01*
X5083Y5364D01*
X5086Y5358D01*
X5091Y5352D01*
X5097Y5349D01*
X5109D01*
X5114Y5352D01*
X5120Y5358D01*
X5123Y5364D01*
X5126Y5372D01*
Y5387D01*
X5123Y5395D01*
X5120Y5401D01*
X5114Y5407D01*
X5109Y5409D01*
X5097D01*
X5140D02*
Y5349D01*
Y5409D02*
X5165D01*
X5174Y5407D01*
X5177Y5404D01*
X5180Y5398D01*
Y5392D01*
X5177Y5387D01*
X5174Y5384D01*
X5165Y5381D01*
X5140D02*
X5165D01*
X5174Y5378D01*
X5177Y5375D01*
X5180Y5369D01*
Y5361D01*
X5177Y5355D01*
X5174Y5352D01*
X5165Y5349D01*
X5140D01*
X5233Y5401D02*
X5227Y5407D01*
X5219Y5409D01*
X5207D01*
X5199Y5407D01*
X5193Y5401D01*
Y5395D01*
X5196Y5389D01*
X5199Y5387D01*
X5205Y5384D01*
X5222Y5378D01*
X5227Y5375D01*
X5230Y5372D01*
X5233Y5367D01*
Y5358D01*
X5227Y5352D01*
X5219Y5349D01*
X5207D01*
X5199Y5352D01*
X5193Y5358D01*
X5284Y5409D02*
X5246D01*
Y5349D01*
X5284D01*
X5246Y5381D02*
X5269D01*
X5294Y5409D02*
Y5349D01*
Y5409D02*
X5319D01*
X5328Y5407D01*
X5331Y5404D01*
X5334Y5398D01*
Y5392D01*
X5331Y5387D01*
X5328Y5384D01*
X5319Y5381D01*
X5294D01*
X5314D02*
X5334Y5349D01*
X5347Y5409D02*
X5370Y5349D01*
X5393Y5409D02*
X5370Y5349D01*
X5446D02*
X5423Y5409D01*
X5400Y5349D01*
X5409Y5369D02*
X5438D01*
X5480Y5409D02*
Y5349D01*
X5460Y5409D02*
X5500D01*
X5524D02*
X5519Y5407D01*
X5513Y5401D01*
X5510Y5395D01*
X5507Y5387D01*
Y5372D01*
X5510Y5364D01*
X5513Y5358D01*
X5519Y5352D01*
X5524Y5349D01*
X5536D01*
X5542Y5352D01*
X5547Y5358D01*
X5550Y5364D01*
X5553Y5372D01*
Y5387D01*
X5550Y5395D01*
X5547Y5401D01*
X5542Y5407D01*
X5536Y5409D01*
X5524D01*
X5567D02*
Y5349D01*
Y5409D02*
X5593D01*
X5601Y5407D01*
X5604Y5404D01*
X5607Y5398D01*
Y5392D01*
X5604Y5387D01*
X5601Y5384D01*
X5593Y5381D01*
X5567D01*
X5587D02*
X5607Y5349D01*
X5620Y5409D02*
X5643Y5381D01*
Y5349D01*
X5666Y5409D02*
X5643Y5381D01*
X5677Y5355D02*
X5674Y5352D01*
X5677Y5349D01*
X5680Y5352D01*
X5677Y5355D01*
X5787Y5409D02*
Y5349D01*
X5820Y5409D02*
Y5349D01*
X5800Y5409D02*
X5840D01*
X5894D02*
Y5349D01*
X5946Y5401D02*
X5941Y5407D01*
X5932Y5409D01*
X5921D01*
X5912Y5407D01*
X5906Y5401D01*
Y5395D01*
X5909Y5389D01*
X5912Y5387D01*
X5918Y5384D01*
X5935Y5378D01*
X5941Y5375D01*
X5943Y5372D01*
X5946Y5367D01*
Y5358D01*
X5941Y5352D01*
X5932Y5349D01*
X5921D01*
X5912Y5352D01*
X5906Y5358D01*
X6047Y5401D02*
X6041Y5407D01*
X6033Y5409D01*
X6021D01*
X6013Y5407D01*
X6007Y5401D01*
Y5395D01*
X6010Y5389D01*
X6013Y5387D01*
X6018Y5384D01*
X6035Y5378D01*
X6041Y5375D01*
X6044Y5372D01*
X6047Y5367D01*
Y5358D01*
X6041Y5352D01*
X6033Y5349D01*
X6021D01*
X6013Y5352D01*
X6007Y5358D01*
X6060Y5409D02*
Y5367D01*
X6063Y5358D01*
X6069Y5352D01*
X6077Y5349D01*
X6083D01*
X6092Y5352D01*
X6097Y5358D01*
X6100Y5367D01*
Y5409D01*
X6117D02*
Y5349D01*
Y5409D02*
X6143D01*
X6151Y5407D01*
X6154Y5404D01*
X6157Y5398D01*
Y5392D01*
X6154Y5387D01*
X6151Y5384D01*
X6143Y5381D01*
X6117D02*
X6143D01*
X6151Y5378D01*
X6154Y5375D01*
X6157Y5369D01*
Y5361D01*
X6154Y5355D01*
X6151Y5352D01*
X6143Y5349D01*
X6117D01*
X6170Y5409D02*
Y5349D01*
Y5409D02*
X6193Y5349D01*
X6216Y5409D02*
X6193Y5349D01*
X6216Y5409D02*
Y5349D01*
X6233Y5409D02*
Y5349D01*
X6266Y5409D02*
Y5349D01*
X6246Y5409D02*
X6286D01*
X6313D02*
Y5349D01*
X6293Y5409D02*
X6333D01*
X6377D02*
X6340D01*
Y5349D01*
X6377D01*
X6340Y5381D02*
X6363D01*
X6387Y5409D02*
Y5349D01*
Y5409D02*
X6407D01*
X6416Y5407D01*
X6421Y5401D01*
X6424Y5395D01*
X6427Y5387D01*
Y5372D01*
X6424Y5364D01*
X6421Y5358D01*
X6416Y5352D01*
X6407Y5349D01*
X6387D01*
X6488Y5409D02*
Y5349D01*
Y5409D02*
X6525D01*
X6488Y5381D02*
X6511D01*
X6549Y5409D02*
X6543Y5407D01*
X6537Y5401D01*
X6535Y5395D01*
X6532Y5387D01*
Y5372D01*
X6535Y5364D01*
X6537Y5358D01*
X6543Y5352D01*
X6549Y5349D01*
X6560D01*
X6566Y5352D01*
X6572Y5358D01*
X6574Y5364D01*
X6577Y5372D01*
Y5387D01*
X6574Y5395D01*
X6572Y5401D01*
X6566Y5407D01*
X6560Y5409D01*
X6549D01*
X6591D02*
Y5349D01*
Y5409D02*
X6617D01*
X6626Y5407D01*
X6628Y5404D01*
X6631Y5398D01*
Y5392D01*
X6628Y5387D01*
X6626Y5384D01*
X6617Y5381D01*
X6591D01*
X6611D02*
X6631Y5349D01*
X6738D02*
X6715Y5409D01*
X6692Y5349D01*
X6700Y5369D02*
X6729D01*
X6839Y5401D02*
X6833Y5407D01*
X6824Y5409D01*
X6813D01*
X6804Y5407D01*
X6799Y5401D01*
Y5395D01*
X6802Y5389D01*
X6804Y5387D01*
X6810Y5384D01*
X6827Y5378D01*
X6833Y5375D01*
X6836Y5372D01*
X6839Y5367D01*
Y5358D01*
X6833Y5352D01*
X6824Y5349D01*
X6813D01*
X6804Y5352D01*
X6799Y5358D01*
X6852Y5378D02*
X6878D01*
X6886Y5381D01*
X6889Y5384D01*
X6892Y5389D01*
Y5398D01*
X6889Y5404D01*
X6886Y5407D01*
X6878Y5409D01*
X6852D01*
Y5349D01*
X6943Y5409D02*
X6906D01*
Y5349D01*
X6943D01*
X6906Y5381D02*
X6928D01*
X6996Y5395D02*
X6993Y5401D01*
X6987Y5407D01*
X6981Y5409D01*
X6970D01*
X6964Y5407D01*
X6958Y5401D01*
X6956Y5395D01*
X6953Y5387D01*
Y5372D01*
X6956Y5364D01*
X6958Y5358D01*
X6964Y5352D01*
X6970Y5349D01*
X6981D01*
X6987Y5352D01*
X6993Y5358D01*
X6996Y5364D01*
X7012Y5409D02*
Y5349D01*
X7025Y5409D02*
Y5349D01*
Y5409D02*
X7062D01*
X7025Y5381D02*
X7048D01*
X7069Y5409D02*
Y5349D01*
X7124Y5395D02*
X7122Y5401D01*
X7116Y5407D01*
X7110Y5409D01*
X7099D01*
X7093Y5407D01*
X7087Y5401D01*
X7084Y5395D01*
X7082Y5387D01*
Y5372D01*
X7084Y5364D01*
X7087Y5358D01*
X7093Y5352D01*
X7099Y5349D01*
X7110D01*
X7116Y5352D01*
X7122Y5358D01*
X7124Y5364D01*
X7188Y5378D02*
X7214D01*
X7223Y5381D01*
X7226Y5384D01*
X7228Y5389D01*
Y5398D01*
X7226Y5404D01*
X7223Y5407D01*
X7214Y5409D01*
X7188D01*
Y5349D01*
X7242Y5409D02*
Y5367D01*
X7245Y5358D01*
X7250Y5352D01*
X7259Y5349D01*
X7265D01*
X7273Y5352D01*
X7279Y5358D01*
X7282Y5367D01*
Y5409D01*
X7298D02*
Y5349D01*
Y5409D02*
X7324D01*
X7333Y5407D01*
X7335Y5404D01*
X7338Y5398D01*
Y5392D01*
X7335Y5387D01*
X7333Y5384D01*
X7324Y5381D01*
X7298D01*
X7318D02*
X7338Y5349D01*
X7352Y5378D02*
X7377D01*
X7386Y5381D01*
X7389Y5384D01*
X7392Y5389D01*
Y5398D01*
X7389Y5404D01*
X7386Y5407D01*
X7377Y5409D01*
X7352D01*
Y5349D01*
X7422Y5409D02*
X7417Y5407D01*
X7411Y5401D01*
X7408Y5395D01*
X7405Y5387D01*
Y5372D01*
X7408Y5364D01*
X7411Y5358D01*
X7417Y5352D01*
X7422Y5349D01*
X7434D01*
X7439Y5352D01*
X7445Y5358D01*
X7448Y5364D01*
X7451Y5372D01*
Y5387D01*
X7448Y5395D01*
X7445Y5401D01*
X7439Y5407D01*
X7434Y5409D01*
X7422D01*
X7505Y5401D02*
X7499Y5407D01*
X7491Y5409D01*
X7479D01*
X7471Y5407D01*
X7465Y5401D01*
Y5395D01*
X7468Y5389D01*
X7471Y5387D01*
X7476Y5384D01*
X7493Y5378D01*
X7499Y5375D01*
X7502Y5372D01*
X7505Y5367D01*
Y5358D01*
X7499Y5352D01*
X7491Y5349D01*
X7479D01*
X7471Y5352D01*
X7465Y5358D01*
X7555Y5409D02*
X7518D01*
Y5349D01*
X7555D01*
X7518Y5381D02*
X7541D01*
X7613Y5409D02*
Y5367D01*
X7615Y5358D01*
X7621Y5352D01*
X7630Y5349D01*
X7635D01*
X7644Y5352D01*
X7650Y5358D01*
X7653Y5367D01*
Y5409D01*
X7669D02*
Y5349D01*
Y5409D02*
X7709Y5349D01*
Y5409D02*
Y5349D01*
X7726Y5409D02*
Y5349D01*
Y5409D02*
X7746D01*
X7754Y5407D01*
X7760Y5401D01*
X7763Y5395D01*
X7766Y5387D01*
Y5372D01*
X7763Y5364D01*
X7760Y5358D01*
X7754Y5352D01*
X7746Y5349D01*
X7726D01*
X7816Y5409D02*
X7779D01*
Y5349D01*
X7816D01*
X7779Y5381D02*
X7802D01*
X7826Y5409D02*
Y5349D01*
Y5409D02*
X7852D01*
X7861Y5407D01*
X7863Y5404D01*
X7866Y5398D01*
Y5392D01*
X7863Y5387D01*
X7861Y5384D01*
X7852Y5381D01*
X7826D01*
X7846D02*
X7866Y5349D01*
X7972D02*
X7950Y5409D01*
X7927Y5349D01*
X7935Y5369D02*
X7964D01*
X8076Y5395D02*
X8074Y5401D01*
X8068Y5407D01*
X8062Y5409D01*
X8051D01*
X8045Y5407D01*
X8039Y5401D01*
X8036Y5395D01*
X8034Y5387D01*
Y5372D01*
X8036Y5364D01*
X8039Y5358D01*
X8045Y5352D01*
X8051Y5349D01*
X8062D01*
X8068Y5352D01*
X8074Y5358D01*
X8076Y5364D01*
X8110Y5409D02*
X8105Y5407D01*
X8099Y5401D01*
X8096Y5395D01*
X8093Y5387D01*
Y5372D01*
X8096Y5364D01*
X8099Y5358D01*
X8105Y5352D01*
X8110Y5349D01*
X8122D01*
X8128Y5352D01*
X8133Y5358D01*
X8136Y5364D01*
X8139Y5372D01*
Y5387D01*
X8136Y5395D01*
X8133Y5401D01*
X8128Y5407D01*
X8122Y5409D01*
X8110D01*
X8153D02*
Y5349D01*
Y5409D02*
X8193Y5349D01*
Y5409D02*
Y5349D01*
X8210Y5375D02*
X8261D01*
X5100Y5509D02*
Y5449D01*
X5080Y5509D02*
X5120D01*
X5127D02*
Y5449D01*
X5167Y5509D02*
Y5449D01*
X5127Y5481D02*
X5167D01*
X5184Y5509D02*
Y5449D01*
X5236Y5501D02*
X5231Y5507D01*
X5222Y5509D01*
X5211D01*
X5202Y5507D01*
X5196Y5501D01*
Y5495D01*
X5199Y5489D01*
X5202Y5487D01*
X5208Y5484D01*
X5225Y5478D01*
X5231Y5475D01*
X5233Y5472D01*
X5236Y5467D01*
Y5458D01*
X5231Y5452D01*
X5222Y5449D01*
X5211D01*
X5202Y5452D01*
X5196Y5458D01*
X5297Y5509D02*
Y5449D01*
Y5509D02*
X5317D01*
X5325Y5507D01*
X5331Y5501D01*
X5334Y5495D01*
X5337Y5487D01*
Y5472D01*
X5334Y5464D01*
X5331Y5458D01*
X5325Y5452D01*
X5317Y5449D01*
X5297D01*
X5350Y5509D02*
Y5449D01*
Y5509D02*
X5376D01*
X5384Y5507D01*
X5387Y5504D01*
X5390Y5498D01*
Y5492D01*
X5387Y5487D01*
X5384Y5484D01*
X5376Y5481D01*
X5350D01*
X5370D02*
X5390Y5449D01*
X5449D02*
X5426Y5509D01*
X5404Y5449D01*
X5412Y5469D02*
X5441D01*
X5463Y5509D02*
X5478Y5449D01*
X5492Y5509D02*
X5478Y5449D01*
X5492Y5509D02*
X5506Y5449D01*
X5520Y5509D02*
X5506Y5449D01*
X5532Y5509D02*
Y5449D01*
X5545Y5509D02*
Y5449D01*
Y5509D02*
X5585Y5449D01*
Y5509D02*
Y5449D01*
X5644Y5495D02*
X5642Y5501D01*
X5636Y5507D01*
X5630Y5509D01*
X5619D01*
X5613Y5507D01*
X5607Y5501D01*
X5604Y5495D01*
X5602Y5487D01*
Y5472D01*
X5604Y5464D01*
X5607Y5458D01*
X5613Y5452D01*
X5619Y5449D01*
X5630D01*
X5636Y5452D01*
X5642Y5458D01*
X5644Y5464D01*
Y5472D01*
X5630D02*
X5644D01*
X5742Y5509D02*
X5705D01*
Y5449D01*
X5742D01*
X5705Y5481D02*
X5728D01*
X5752Y5509D02*
Y5449D01*
Y5509D02*
X5775Y5449D01*
X5798Y5509D02*
X5775Y5449D01*
X5798Y5509D02*
Y5449D01*
X5815Y5509D02*
Y5449D01*
Y5509D02*
X5841D01*
X5850Y5507D01*
X5852Y5504D01*
X5855Y5498D01*
Y5492D01*
X5852Y5487D01*
X5850Y5484D01*
X5841Y5481D01*
X5815D02*
X5841D01*
X5850Y5478D01*
X5852Y5475D01*
X5855Y5469D01*
Y5461D01*
X5852Y5455D01*
X5850Y5452D01*
X5841Y5449D01*
X5815D01*
X5886Y5509D02*
X5880Y5507D01*
X5874Y5501D01*
X5872Y5495D01*
X5869Y5487D01*
Y5472D01*
X5872Y5464D01*
X5874Y5458D01*
X5880Y5452D01*
X5886Y5449D01*
X5897D01*
X5903Y5452D01*
X5909Y5458D01*
X5911Y5464D01*
X5914Y5472D01*
Y5487D01*
X5911Y5495D01*
X5909Y5501D01*
X5903Y5507D01*
X5897Y5509D01*
X5886D01*
X5928D02*
Y5449D01*
Y5509D02*
X5948D01*
X5957Y5507D01*
X5963Y5501D01*
X5965Y5495D01*
X5968Y5487D01*
Y5472D01*
X5965Y5464D01*
X5963Y5458D01*
X5957Y5452D01*
X5948Y5449D01*
X5928D01*
X5982Y5509D02*
Y5449D01*
X6031Y5509D02*
X5994D01*
Y5449D01*
X6031D01*
X5994Y5481D02*
X6017D01*
X6081Y5501D02*
X6076Y5507D01*
X6067Y5509D01*
X6056D01*
X6047Y5507D01*
X6041Y5501D01*
Y5495D01*
X6044Y5489D01*
X6047Y5487D01*
X6053Y5484D01*
X6070Y5478D01*
X6076Y5475D01*
X6079Y5472D01*
X6081Y5467D01*
Y5458D01*
X6076Y5452D01*
X6067Y5449D01*
X6056D01*
X6047Y5452D01*
X6041Y5458D01*
X6188Y5449D02*
X6165Y5509D01*
X6142Y5449D01*
X6151Y5469D02*
X6179D01*
X6249Y5478D02*
X6275D01*
X6283Y5481D01*
X6286Y5484D01*
X6289Y5489D01*
Y5498D01*
X6286Y5504D01*
X6283Y5507D01*
X6275Y5509D01*
X6249D01*
Y5449D01*
X6302Y5509D02*
Y5449D01*
Y5509D02*
X6328D01*
X6337Y5507D01*
X6339Y5504D01*
X6342Y5498D01*
Y5492D01*
X6339Y5487D01*
X6337Y5484D01*
X6328Y5481D01*
X6302D01*
X6322D02*
X6342Y5449D01*
X6373Y5509D02*
X6367Y5507D01*
X6361Y5501D01*
X6359Y5495D01*
X6356Y5487D01*
Y5472D01*
X6359Y5464D01*
X6361Y5458D01*
X6367Y5452D01*
X6373Y5449D01*
X6384D01*
X6390Y5452D01*
X6396Y5458D01*
X6399Y5464D01*
X6401Y5472D01*
Y5487D01*
X6399Y5495D01*
X6396Y5501D01*
X6390Y5507D01*
X6384Y5509D01*
X6373D01*
X6415Y5478D02*
X6441D01*
X6450Y5481D01*
X6453Y5484D01*
X6455Y5489D01*
Y5498D01*
X6453Y5504D01*
X6450Y5507D01*
X6441Y5509D01*
X6415D01*
Y5449D01*
X6469Y5509D02*
Y5449D01*
Y5509D02*
X6495D01*
X6503Y5507D01*
X6506Y5504D01*
X6509Y5498D01*
Y5492D01*
X6506Y5487D01*
X6503Y5484D01*
X6495Y5481D01*
X6469D01*
X6489D02*
X6509Y5449D01*
X6522Y5509D02*
Y5449D01*
X6572Y5509D02*
X6535D01*
Y5449D01*
X6572D01*
X6535Y5481D02*
X6558D01*
X6602Y5509D02*
Y5449D01*
X6582Y5509D02*
X6622D01*
X6675Y5449D02*
X6652Y5509D01*
X6629Y5449D01*
X6638Y5469D02*
X6666D01*
X6689Y5509D02*
Y5449D01*
Y5509D02*
X6714D01*
X6723Y5507D01*
X6726Y5504D01*
X6729Y5498D01*
Y5492D01*
X6726Y5487D01*
X6723Y5484D01*
X6714Y5481D01*
X6689D01*
X6709D02*
X6729Y5449D01*
X6742Y5509D02*
X6765Y5481D01*
Y5449D01*
X6788Y5509D02*
X6765Y5481D01*
X6843Y5509D02*
Y5449D01*
Y5509D02*
X6863D01*
X6871Y5507D01*
X6877Y5501D01*
X6880Y5495D01*
X6883Y5487D01*
Y5472D01*
X6880Y5464D01*
X6877Y5458D01*
X6871Y5452D01*
X6863Y5449D01*
X6843D01*
X6933Y5509D02*
X6896D01*
Y5449D01*
X6933D01*
X6896Y5481D02*
X6919D01*
X6983Y5501D02*
X6978Y5507D01*
X6969Y5509D01*
X6958D01*
X6949Y5507D01*
X6943Y5501D01*
Y5495D01*
X6946Y5489D01*
X6949Y5487D01*
X6955Y5484D01*
X6972Y5478D01*
X6978Y5475D01*
X6980Y5472D01*
X6983Y5467D01*
Y5458D01*
X6978Y5452D01*
X6969Y5449D01*
X6958D01*
X6949Y5452D01*
X6943Y5458D01*
X6997Y5509D02*
Y5449D01*
X7052Y5495D02*
X7049Y5501D01*
X7044Y5507D01*
X7038Y5509D01*
X7026D01*
X7021Y5507D01*
X7015Y5501D01*
X7012Y5495D01*
X7009Y5487D01*
Y5472D01*
X7012Y5464D01*
X7015Y5458D01*
X7021Y5452D01*
X7026Y5449D01*
X7038D01*
X7044Y5452D01*
X7049Y5458D01*
X7052Y5464D01*
Y5472D01*
X7038D02*
X7052D01*
X7066Y5509D02*
Y5449D01*
Y5509D02*
X7106Y5449D01*
Y5509D02*
Y5449D01*
X7187Y5509D02*
X7181Y5507D01*
X7175Y5501D01*
X7172Y5495D01*
X7170Y5487D01*
Y5472D01*
X7172Y5464D01*
X7175Y5458D01*
X7181Y5452D01*
X7187Y5449D01*
X7198D01*
X7204Y5452D01*
X7210Y5458D01*
X7212Y5464D01*
X7215Y5472D01*
Y5487D01*
X7212Y5495D01*
X7210Y5501D01*
X7204Y5507D01*
X7198Y5509D01*
X7187D01*
X7229D02*
X7243Y5449D01*
X7258Y5509D02*
X7243Y5449D01*
X7258Y5509D02*
X7272Y5449D01*
X7286Y5509D02*
X7272Y5449D01*
X7298Y5509D02*
Y5449D01*
Y5509D02*
X7338Y5449D01*
Y5509D02*
Y5449D01*
X7392Y5509D02*
X7355D01*
Y5449D01*
X7392D01*
X7355Y5481D02*
X7378D01*
X7402Y5509D02*
Y5449D01*
Y5509D02*
X7422D01*
X7431Y5507D01*
X7436Y5501D01*
X7439Y5495D01*
X7442Y5487D01*
Y5472D01*
X7439Y5464D01*
X7436Y5458D01*
X7431Y5452D01*
X7422Y5449D01*
X7402D01*
X7503Y5509D02*
Y5449D01*
Y5509D02*
X7528D01*
X7537Y5507D01*
X7540Y5504D01*
X7543Y5498D01*
Y5492D01*
X7540Y5487D01*
X7537Y5484D01*
X7528Y5481D01*
X7503D02*
X7528D01*
X7537Y5478D01*
X7540Y5475D01*
X7543Y5469D01*
Y5461D01*
X7540Y5455D01*
X7537Y5452D01*
X7528Y5449D01*
X7503D01*
X7556Y5509D02*
X7579Y5481D01*
Y5449D01*
X7602Y5509D02*
X7579Y5481D01*
X7657Y5509D02*
Y5449D01*
X7691D01*
X7743D02*
X7720Y5509D01*
X7697Y5449D01*
X7706Y5469D02*
X7735D01*
X7797Y5501D02*
X7791Y5507D01*
X7783Y5509D01*
X7771D01*
X7763Y5507D01*
X7757Y5501D01*
Y5495D01*
X7760Y5489D01*
X7763Y5487D01*
X7769Y5484D01*
X7786Y5478D01*
X7791Y5475D01*
X7794Y5472D01*
X7797Y5467D01*
Y5458D01*
X7791Y5452D01*
X7783Y5449D01*
X7771D01*
X7763Y5452D01*
X7757Y5458D01*
X7901Y5495D02*
X7898Y5501D01*
X7892Y5507D01*
X7886Y5509D01*
X7875D01*
X7869Y5507D01*
X7863Y5501D01*
X7861Y5495D01*
X7858Y5487D01*
Y5472D01*
X7861Y5464D01*
X7863Y5458D01*
X7869Y5452D01*
X7875Y5449D01*
X7886D01*
X7892Y5452D01*
X7898Y5458D01*
X7901Y5464D01*
X7917Y5509D02*
Y5467D01*
X7920Y5458D01*
X7926Y5452D01*
X7934Y5449D01*
X7940D01*
X7949Y5452D01*
X7954Y5458D01*
X7957Y5467D01*
Y5509D01*
X7974D02*
Y5449D01*
Y5509D02*
X7997Y5449D01*
X8020Y5509D02*
X7997Y5449D01*
X8020Y5509D02*
Y5449D01*
X8037Y5509D02*
Y5449D01*
Y5509D02*
X8062D01*
X8071Y5507D01*
X8074Y5504D01*
X8077Y5498D01*
Y5492D01*
X8074Y5487D01*
X8071Y5484D01*
X8062Y5481D01*
X8037D02*
X8062D01*
X8071Y5478D01*
X8074Y5475D01*
X8077Y5469D01*
Y5461D01*
X8074Y5455D01*
X8071Y5452D01*
X8062Y5449D01*
X8037D01*
X8090Y5509D02*
Y5449D01*
Y5509D02*
X8116D01*
X8124Y5507D01*
X8127Y5504D01*
X8130Y5498D01*
Y5492D01*
X8127Y5487D01*
X8124Y5484D01*
X8116Y5481D01*
X8090D01*
X8110D02*
X8130Y5449D01*
X8181Y5509D02*
X8144D01*
Y5449D01*
X8181D01*
X8144Y5481D02*
X8166D01*
X8231Y5501D02*
X8225Y5507D01*
X8216Y5509D01*
X8205D01*
X8196Y5507D01*
X8191Y5501D01*
Y5495D01*
X8194Y5489D01*
X8196Y5487D01*
X8202Y5484D01*
X8219Y5478D01*
X8225Y5475D01*
X8228Y5472D01*
X8231Y5467D01*
Y5458D01*
X8225Y5452D01*
X8216Y5449D01*
X8205D01*
X8196Y5452D01*
X8191Y5458D01*
X5080Y5224D02*
Y5164D01*
X5093Y5224D02*
Y5164D01*
Y5224D02*
X5133Y5164D01*
Y5224D02*
Y5164D01*
X5196Y5224D02*
X5211Y5164D01*
X5225Y5224D02*
X5211Y5164D01*
X5225Y5224D02*
X5239Y5164D01*
X5253Y5224D02*
X5239Y5164D01*
X5265Y5224D02*
Y5164D01*
Y5224D02*
X5291D01*
X5300Y5222D01*
X5302Y5219D01*
X5305Y5213D01*
Y5207D01*
X5302Y5202D01*
X5300Y5199D01*
X5291Y5196D01*
X5265D01*
X5285D02*
X5305Y5164D01*
X5319Y5224D02*
Y5164D01*
X5351Y5224D02*
Y5164D01*
X5331Y5224D02*
X5371D01*
X5378D02*
Y5164D01*
X5391Y5224D02*
Y5164D01*
Y5224D02*
X5431Y5164D01*
Y5224D02*
Y5164D01*
X5490Y5210D02*
X5488Y5216D01*
X5482Y5222D01*
X5476Y5224D01*
X5465D01*
X5459Y5222D01*
X5453Y5216D01*
X5450Y5210D01*
X5448Y5202D01*
Y5187D01*
X5450Y5179D01*
X5453Y5173D01*
X5459Y5167D01*
X5465Y5164D01*
X5476D01*
X5482Y5167D01*
X5488Y5173D01*
X5490Y5179D01*
Y5187D01*
X5476D02*
X5490D01*
X5510Y5167D02*
X5507Y5164D01*
X5504Y5167D01*
X5507Y5170D01*
X5510Y5167D01*
Y5162D01*
X5507Y5156D01*
X5504Y5153D01*
X5616Y5164D02*
X5593Y5224D01*
X5570Y5164D01*
X5579Y5184D02*
X5607D01*
X5630Y5224D02*
Y5164D01*
X5664D01*
X5671Y5224D02*
Y5164D01*
X5705D01*
X5759Y5224D02*
Y5164D01*
Y5224D02*
X5784D01*
X5793Y5222D01*
X5796Y5219D01*
X5799Y5213D01*
Y5207D01*
X5796Y5202D01*
X5793Y5199D01*
X5784Y5196D01*
X5759D01*
X5779D02*
X5799Y5164D01*
X5812Y5224D02*
Y5164D01*
X5868Y5210D02*
X5865Y5216D01*
X5859Y5222D01*
X5853Y5224D01*
X5842D01*
X5836Y5222D01*
X5830Y5216D01*
X5828Y5210D01*
X5825Y5202D01*
Y5187D01*
X5828Y5179D01*
X5830Y5173D01*
X5836Y5167D01*
X5842Y5164D01*
X5853D01*
X5859Y5167D01*
X5865Y5173D01*
X5868Y5179D01*
Y5187D01*
X5853D02*
X5868D01*
X5881Y5224D02*
Y5164D01*
X5921Y5224D02*
Y5164D01*
X5881Y5196D02*
X5921D01*
X5958Y5224D02*
Y5164D01*
X5938Y5224D02*
X5978D01*
X6025Y5216D02*
X6019Y5222D01*
X6011Y5224D01*
X5999D01*
X5991Y5222D01*
X5985Y5216D01*
Y5210D01*
X5988Y5204D01*
X5991Y5202D01*
X5996Y5199D01*
X6013Y5193D01*
X6019Y5190D01*
X6022Y5187D01*
X6025Y5182D01*
Y5173D01*
X6019Y5167D01*
X6011Y5164D01*
X5999D01*
X5991Y5167D01*
X5985Y5173D01*
X6131Y5164D02*
X6108Y5224D01*
X6085Y5164D01*
X6094Y5184D02*
X6123D01*
X6145Y5224D02*
Y5164D01*
Y5224D02*
X6171D01*
X6179Y5222D01*
X6182Y5219D01*
X6185Y5213D01*
Y5207D01*
X6182Y5202D01*
X6179Y5199D01*
X6171Y5196D01*
X6145D01*
X6165D02*
X6185Y5164D01*
X6236Y5224D02*
X6199D01*
Y5164D01*
X6236D01*
X6199Y5196D02*
X6221D01*
X6293Y5224D02*
Y5164D01*
Y5224D02*
X6319D01*
X6327Y5222D01*
X6330Y5219D01*
X6333Y5213D01*
Y5207D01*
X6330Y5202D01*
X6327Y5199D01*
X6319Y5196D01*
X6293D01*
X6313D02*
X6333Y5164D01*
X6383Y5224D02*
X6346D01*
Y5164D01*
X6383D01*
X6346Y5196D02*
X6369D01*
X6433Y5216D02*
X6428Y5222D01*
X6419Y5224D01*
X6408D01*
X6399Y5222D01*
X6393Y5216D01*
Y5210D01*
X6396Y5204D01*
X6399Y5202D01*
X6405Y5199D01*
X6422Y5193D01*
X6428Y5190D01*
X6431Y5187D01*
X6433Y5182D01*
Y5173D01*
X6428Y5167D01*
X6419Y5164D01*
X6408D01*
X6399Y5167D01*
X6393Y5173D01*
X6484Y5224D02*
X6447D01*
Y5164D01*
X6484D01*
X6447Y5196D02*
X6470D01*
X6494Y5224D02*
Y5164D01*
Y5224D02*
X6520D01*
X6528Y5222D01*
X6531Y5219D01*
X6534Y5213D01*
Y5207D01*
X6531Y5202D01*
X6528Y5199D01*
X6520Y5196D01*
X6494D01*
X6514D02*
X6534Y5164D01*
X6547Y5224D02*
X6570Y5164D01*
X6593Y5224D02*
X6570Y5164D01*
X6638Y5224D02*
X6601D01*
Y5164D01*
X6638D01*
X6601Y5196D02*
X6624D01*
X6648Y5224D02*
Y5164D01*
Y5224D02*
X6668D01*
X6676Y5222D01*
X6682Y5216D01*
X6685Y5210D01*
X6688Y5202D01*
Y5187D01*
X6685Y5179D01*
X6682Y5173D01*
X6676Y5167D01*
X6668Y5164D01*
X6648D01*
X6748Y5224D02*
Y5164D01*
Y5224D02*
X6774D01*
X6783Y5222D01*
X6786Y5219D01*
X6788Y5213D01*
Y5207D01*
X6786Y5202D01*
X6783Y5199D01*
X6774Y5196D01*
X6748D02*
X6774D01*
X6783Y5193D01*
X6786Y5190D01*
X6788Y5184D01*
Y5176D01*
X6786Y5170D01*
X6783Y5167D01*
X6774Y5164D01*
X6748D01*
X6802Y5224D02*
X6825Y5196D01*
Y5164D01*
X6848Y5224D02*
X6825Y5196D01*
X6902Y5224D02*
Y5164D01*
X6937D01*
X6989D02*
X6966Y5224D01*
X6943Y5164D01*
X6952Y5184D02*
X6980D01*
X7043Y5216D02*
X7037Y5222D01*
X7029Y5224D01*
X7017D01*
X7009Y5222D01*
X7003Y5216D01*
Y5210D01*
X7006Y5204D01*
X7009Y5202D01*
X7014Y5199D01*
X7032Y5193D01*
X7037Y5190D01*
X7040Y5187D01*
X7043Y5182D01*
Y5173D01*
X7037Y5167D01*
X7029Y5164D01*
X7017D01*
X7009Y5167D01*
X7003Y5173D01*
X7146Y5210D02*
X7144Y5216D01*
X7138Y5222D01*
X7132Y5224D01*
X7121D01*
X7115Y5222D01*
X7109Y5216D01*
X7106Y5210D01*
X7104Y5202D01*
Y5187D01*
X7106Y5179D01*
X7109Y5173D01*
X7115Y5167D01*
X7121Y5164D01*
X7132D01*
X7138Y5167D01*
X7144Y5173D01*
X7146Y5179D01*
X7163Y5224D02*
Y5182D01*
X7166Y5173D01*
X7172Y5167D01*
X7180Y5164D01*
X7186D01*
X7195Y5167D01*
X7200Y5173D01*
X7203Y5182D01*
Y5224D01*
X7220D02*
Y5164D01*
Y5224D02*
X7243Y5164D01*
X7265Y5224D02*
X7243Y5164D01*
X7265Y5224D02*
Y5164D01*
X7283Y5224D02*
Y5164D01*
Y5224D02*
X7308D01*
X7317Y5222D01*
X7320Y5219D01*
X7323Y5213D01*
Y5207D01*
X7320Y5202D01*
X7317Y5199D01*
X7308Y5196D01*
X7283D02*
X7308D01*
X7317Y5193D01*
X7320Y5190D01*
X7323Y5184D01*
Y5176D01*
X7320Y5170D01*
X7317Y5167D01*
X7308Y5164D01*
X7283D01*
X7336Y5224D02*
Y5164D01*
Y5224D02*
X7362D01*
X7370Y5222D01*
X7373Y5219D01*
X7376Y5213D01*
Y5207D01*
X7373Y5202D01*
X7370Y5199D01*
X7362Y5196D01*
X7336D01*
X7356D02*
X7376Y5164D01*
X7427Y5224D02*
X7389D01*
Y5164D01*
X7427D01*
X7389Y5196D02*
X7412D01*
X7477Y5216D02*
X7471Y5222D01*
X7462Y5224D01*
X7451D01*
X7442Y5222D01*
X7437Y5216D01*
Y5210D01*
X7439Y5204D01*
X7442Y5202D01*
X7448Y5199D01*
X7465Y5193D01*
X7471Y5190D01*
X7474Y5187D01*
X7477Y5182D01*
Y5173D01*
X7471Y5167D01*
X7462Y5164D01*
X7451D01*
X7442Y5167D01*
X7437Y5173D01*
X7554Y5224D02*
X7549Y5222D01*
X7543Y5216D01*
X7540Y5210D01*
X7537Y5202D01*
Y5187D01*
X7540Y5179D01*
X7543Y5173D01*
X7549Y5167D01*
X7554Y5164D01*
X7566D01*
X7571Y5167D01*
X7577Y5173D01*
X7580Y5179D01*
X7583Y5187D01*
Y5202D01*
X7580Y5210D01*
X7577Y5216D01*
X7571Y5222D01*
X7566Y5224D01*
X7554D01*
X7597D02*
Y5164D01*
Y5224D02*
X7623D01*
X7631Y5222D01*
X7634Y5219D01*
X7637Y5213D01*
Y5207D01*
X7634Y5202D01*
X7631Y5199D01*
X7623Y5196D01*
X7597D02*
X7623D01*
X7631Y5193D01*
X7634Y5190D01*
X7637Y5184D01*
Y5176D01*
X7634Y5170D01*
X7631Y5167D01*
X7623Y5164D01*
X7597D01*
X7690Y5216D02*
X7685Y5222D01*
X7676Y5224D01*
X7665D01*
X7656Y5222D01*
X7650Y5216D01*
Y5210D01*
X7653Y5204D01*
X7656Y5202D01*
X7662Y5199D01*
X7679Y5193D01*
X7685Y5190D01*
X7687Y5187D01*
X7690Y5182D01*
Y5173D01*
X7685Y5167D01*
X7676Y5164D01*
X7665D01*
X7656Y5167D01*
X7650Y5173D01*
X7741Y5224D02*
X7704D01*
Y5164D01*
X7741D01*
X7704Y5196D02*
X7727D01*
X7751Y5224D02*
Y5164D01*
Y5224D02*
X7777D01*
X7785Y5222D01*
X7788Y5219D01*
X7791Y5213D01*
Y5207D01*
X7788Y5202D01*
X7785Y5199D01*
X7777Y5196D01*
X7751D01*
X7771D02*
X7791Y5164D01*
X7804Y5224D02*
X7827Y5164D01*
X7850Y5224D02*
X7827Y5164D01*
X7903D02*
X7881Y5224D01*
X7858Y5164D01*
X7866Y5184D02*
X7895D01*
X7937Y5224D02*
Y5164D01*
X7917Y5224D02*
X7957D01*
X7982D02*
X7976Y5222D01*
X7970Y5216D01*
X7967Y5210D01*
X7964Y5202D01*
Y5187D01*
X7967Y5179D01*
X7970Y5173D01*
X7976Y5167D01*
X7982Y5164D01*
X7993D01*
X7999Y5167D01*
X8004Y5173D01*
X8007Y5179D01*
X8010Y5187D01*
Y5202D01*
X8007Y5210D01*
X8004Y5216D01*
X7999Y5222D01*
X7993Y5224D01*
X7982D01*
X8024D02*
Y5164D01*
Y5224D02*
X8050D01*
X8058Y5222D01*
X8061Y5219D01*
X8064Y5213D01*
Y5207D01*
X8061Y5202D01*
X8058Y5199D01*
X8050Y5196D01*
X8024D01*
X8044D02*
X8064Y5164D01*
X8078Y5224D02*
X8100Y5196D01*
Y5164D01*
X8123Y5224D02*
X8100Y5196D01*
X8134Y5170D02*
X8131Y5167D01*
X8134Y5164D01*
X8137Y5167D01*
X8134Y5170D01*
X20752Y9531D02*
X20804D01*
X20776Y9493D01*
X20790D01*
X20799Y9489D01*
X20804Y9484D01*
X20809Y9470D01*
Y9460D01*
X20804Y9446D01*
X20795Y9436D01*
X20780Y9431D01*
X20766D01*
X20752Y9436D01*
X20747Y9441D01*
X20742Y9451D01*
X20893Y9498D02*
X20888Y9484D01*
X20879Y9474D01*
X20865Y9470D01*
X20860D01*
X20846Y9474D01*
X20836Y9484D01*
X20831Y9498D01*
Y9503D01*
X20836Y9517D01*
X20846Y9527D01*
X20860Y9531D01*
X20865D01*
X20879Y9527D01*
X20888Y9517D01*
X20893Y9498D01*
Y9474D01*
X20888Y9451D01*
X20879Y9436D01*
X20865Y9431D01*
X20855D01*
X20841Y9436D01*
X20836Y9446D01*
X21679Y9512D02*
X21688Y9517D01*
X21702Y9531D01*
Y9431D01*
X21781Y9531D02*
X21766Y9527D01*
X21757Y9512D01*
X21752Y9489D01*
Y9474D01*
X21757Y9451D01*
X21766Y9436D01*
X21781Y9431D01*
X21790D01*
X21804Y9436D01*
X21814Y9451D01*
X21819Y9474D01*
Y9489D01*
X21814Y9512D01*
X21804Y9527D01*
X21790Y9531D01*
X21781D01*
X21841Y9498D02*
Y9431D01*
Y9479D02*
X21855Y9493D01*
X21865Y9498D01*
X21879D01*
X21889Y9493D01*
X21893Y9479D01*
Y9431D01*
Y9479D02*
X21908Y9493D01*
X21917Y9498D01*
X21931D01*
X21941Y9493D01*
X21946Y9479D01*
Y9431D01*
X21987Y9531D02*
X21991Y9527D01*
X21996Y9531D01*
X21991Y9536D01*
X21987Y9531D01*
X21991Y9498D02*
Y9431D01*
X22014Y9531D02*
Y9431D01*
X22147Y9551D02*
X22137Y9541D01*
X22128Y9527D01*
X22118Y9508D01*
X22113Y9484D01*
Y9465D01*
X22118Y9441D01*
X22128Y9422D01*
X22137Y9408D01*
X22147Y9398D01*
X22137Y9541D02*
X22128Y9522D01*
X22123Y9508D01*
X22118Y9484D01*
Y9465D01*
X22123Y9441D01*
X22128Y9427D01*
X22137Y9408D01*
X22194Y9531D02*
X22180Y9527D01*
X22170Y9512D01*
X22166Y9489D01*
Y9474D01*
X22170Y9451D01*
X22180Y9436D01*
X22194Y9431D01*
X22204D01*
X22218Y9436D01*
X22228Y9451D01*
X22232Y9474D01*
Y9489D01*
X22228Y9512D01*
X22218Y9527D01*
X22204Y9531D01*
X22194D01*
X22260Y9441D02*
X22255Y9436D01*
X22260Y9431D01*
X22264Y9436D01*
X22260Y9441D01*
X22291Y9508D02*
Y9512D01*
X22296Y9522D01*
X22300Y9527D01*
X22310Y9531D01*
X22329D01*
X22339Y9527D01*
X22343Y9522D01*
X22348Y9512D01*
Y9503D01*
X22343Y9493D01*
X22334Y9479D01*
X22286Y9431D01*
X22353D01*
X22432Y9531D02*
X22385D01*
X22380Y9489D01*
X22385Y9493D01*
X22399Y9498D01*
X22413D01*
X22428Y9493D01*
X22437Y9484D01*
X22442Y9470D01*
Y9460D01*
X22437Y9446D01*
X22428Y9436D01*
X22413Y9431D01*
X22399D01*
X22385Y9436D01*
X22380Y9441D01*
X22375Y9451D01*
X22512Y9531D02*
X22464Y9465D01*
X22536D01*
X22512Y9531D02*
Y9431D01*
X22553Y9498D02*
Y9431D01*
Y9479D02*
X22568Y9493D01*
X22577Y9498D01*
X22591D01*
X22601Y9493D01*
X22606Y9479D01*
Y9431D01*
Y9479D02*
X22620Y9493D01*
X22629Y9498D01*
X22644D01*
X22653Y9493D01*
X22658Y9479D01*
Y9431D01*
X22689Y9498D02*
Y9431D01*
Y9479D02*
X22704Y9493D01*
X22713Y9498D01*
X22728D01*
X22737Y9493D01*
X22742Y9479D01*
Y9431D01*
Y9479D02*
X22756Y9493D01*
X22766Y9498D01*
X22780D01*
X22789Y9493D01*
X22794Y9479D01*
Y9431D01*
X22826Y9551D02*
X22835Y9541D01*
X22845Y9527D01*
X22854Y9508D01*
X22859Y9484D01*
Y9465D01*
X22854Y9441D01*
X22845Y9422D01*
X22835Y9408D01*
X22826Y9398D01*
X22835Y9541D02*
X22845Y9522D01*
X22849Y9508D01*
X22854Y9484D01*
Y9465D01*
X22849Y9441D01*
X22845Y9427D01*
X22835Y9408D01*
X23235Y9479D02*
X23278D01*
X23292Y9484D01*
X23297Y9489D01*
X23302Y9498D01*
Y9512D01*
X23297Y9522D01*
X23292Y9527D01*
X23278Y9531D01*
X23235D01*
Y9431D01*
X23357Y9531D02*
Y9431D01*
X23324Y9531D02*
X23391D01*
X23402D02*
Y9431D01*
X23469Y9531D02*
Y9431D01*
X23402Y9484D02*
X23469D01*
X23861Y9531D02*
Y9431D01*
Y9531D02*
X23904D01*
X23918Y9527D01*
X23923Y9522D01*
X23928Y9512D01*
Y9503D01*
X23923Y9493D01*
X23918Y9489D01*
X23904Y9484D01*
X23861D01*
X23894D02*
X23928Y9431D01*
X23974Y9498D02*
X23964Y9493D01*
X23955Y9484D01*
X23950Y9470D01*
Y9460D01*
X23955Y9446D01*
X23964Y9436D01*
X23974Y9431D01*
X23988D01*
X23998Y9436D01*
X24007Y9446D01*
X24012Y9460D01*
Y9470D01*
X24007Y9484D01*
X23998Y9493D01*
X23988Y9498D01*
X23974D01*
X24034D02*
Y9451D01*
X24039Y9436D01*
X24048Y9431D01*
X24062D01*
X24072Y9436D01*
X24086Y9451D01*
Y9498D02*
Y9431D01*
X24112Y9498D02*
Y9431D01*
Y9479D02*
X24127Y9493D01*
X24136Y9498D01*
X24151D01*
X24160Y9493D01*
X24165Y9479D01*
Y9431D01*
X24248Y9531D02*
Y9431D01*
Y9484D02*
X24239Y9493D01*
X24229Y9498D01*
X24215D01*
X24205Y9493D01*
X24196Y9484D01*
X24191Y9470D01*
Y9460D01*
X24196Y9446D01*
X24205Y9436D01*
X24215Y9431D01*
X24229D01*
X24239Y9436D01*
X24248Y9446D01*
X20790Y9331D02*
X20742Y9265D01*
X20814D01*
X20790Y9331D02*
Y9231D01*
X21688Y9331D02*
X21741D01*
X21712Y9293D01*
X21726D01*
X21736Y9289D01*
X21741Y9284D01*
X21745Y9270D01*
Y9260D01*
X21741Y9246D01*
X21731Y9236D01*
X21717Y9231D01*
X21702D01*
X21688Y9236D01*
X21683Y9241D01*
X21679Y9251D01*
X21777Y9331D02*
X21830D01*
X21801Y9293D01*
X21815D01*
X21825Y9289D01*
X21830Y9284D01*
X21834Y9270D01*
Y9260D01*
X21830Y9246D01*
X21820Y9236D01*
X21806Y9231D01*
X21792D01*
X21777Y9236D01*
X21772Y9241D01*
X21768Y9251D01*
X21861Y9241D02*
X21857Y9236D01*
X21861Y9231D01*
X21866Y9236D01*
X21861Y9241D01*
X21936Y9331D02*
X21888Y9265D01*
X21960D01*
X21936Y9331D02*
Y9231D01*
X22034Y9317D02*
X22030Y9327D01*
X22015Y9331D01*
X22006D01*
X21991Y9327D01*
X21982Y9312D01*
X21977Y9289D01*
Y9265D01*
X21982Y9246D01*
X21991Y9236D01*
X22006Y9231D01*
X22011D01*
X22025Y9236D01*
X22034Y9246D01*
X22039Y9260D01*
Y9265D01*
X22034Y9279D01*
X22025Y9289D01*
X22011Y9293D01*
X22006D01*
X21991Y9289D01*
X21982Y9279D01*
X21977Y9265D01*
X22118Y9331D02*
X22070D01*
X22066Y9289D01*
X22070Y9293D01*
X22085Y9298D01*
X22099D01*
X22113Y9293D01*
X22123Y9284D01*
X22128Y9270D01*
Y9260D01*
X22123Y9246D01*
X22113Y9236D01*
X22099Y9231D01*
X22085D01*
X22070Y9236D01*
X22066Y9241D01*
X22061Y9251D01*
X22150Y9298D02*
Y9231D01*
Y9279D02*
X22164Y9293D01*
X22174Y9298D01*
X22188D01*
X22198Y9293D01*
X22202Y9279D01*
Y9231D01*
Y9279D02*
X22217Y9293D01*
X22226Y9298D01*
X22240D01*
X22250Y9293D01*
X22255Y9279D01*
Y9231D01*
X22296Y9331D02*
X22300Y9327D01*
X22305Y9331D01*
X22300Y9336D01*
X22296Y9331D01*
X22300Y9298D02*
Y9231D01*
X22323Y9331D02*
Y9231D01*
X22456Y9351D02*
X22446Y9341D01*
X22437Y9327D01*
X22427Y9308D01*
X22422Y9284D01*
Y9265D01*
X22427Y9241D01*
X22437Y9222D01*
X22446Y9208D01*
X22456Y9198D01*
X22446Y9341D02*
X22437Y9322D01*
X22432Y9308D01*
X22427Y9284D01*
Y9265D01*
X22432Y9241D01*
X22437Y9227D01*
X22446Y9208D01*
X22503Y9331D02*
X22489Y9327D01*
X22479Y9312D01*
X22475Y9289D01*
Y9274D01*
X22479Y9251D01*
X22489Y9236D01*
X22503Y9231D01*
X22513D01*
X22527Y9236D01*
X22537Y9251D01*
X22541Y9274D01*
Y9289D01*
X22537Y9312D01*
X22527Y9327D01*
X22513Y9331D01*
X22503D01*
X22568Y9241D02*
X22564Y9236D01*
X22568Y9231D01*
X22573Y9236D01*
X22568Y9241D01*
X22619Y9331D02*
X22605Y9327D01*
X22600Y9317D01*
Y9308D01*
X22605Y9298D01*
X22614Y9293D01*
X22633Y9289D01*
X22648Y9284D01*
X22657Y9274D01*
X22662Y9265D01*
Y9251D01*
X22657Y9241D01*
X22652Y9236D01*
X22638Y9231D01*
X22619D01*
X22605Y9236D01*
X22600Y9241D01*
X22595Y9251D01*
Y9265D01*
X22600Y9274D01*
X22609Y9284D01*
X22624Y9289D01*
X22643Y9293D01*
X22652Y9298D01*
X22657Y9308D01*
Y9317D01*
X22652Y9327D01*
X22638Y9331D01*
X22619D01*
X22741D02*
X22694D01*
X22689Y9289D01*
X22694Y9293D01*
X22708Y9298D01*
X22722D01*
X22737Y9293D01*
X22746Y9284D01*
X22751Y9270D01*
Y9260D01*
X22746Y9246D01*
X22737Y9236D01*
X22722Y9231D01*
X22708D01*
X22694Y9236D01*
X22689Y9241D01*
X22684Y9251D01*
X22773Y9298D02*
Y9231D01*
Y9279D02*
X22787Y9293D01*
X22797Y9298D01*
X22811D01*
X22821Y9293D01*
X22826Y9279D01*
Y9231D01*
Y9279D02*
X22840Y9293D01*
X22849Y9298D01*
X22864D01*
X22873Y9293D01*
X22878Y9279D01*
Y9231D01*
X22909Y9298D02*
Y9231D01*
Y9279D02*
X22924Y9293D01*
X22933Y9298D01*
X22947D01*
X22957Y9293D01*
X22962Y9279D01*
Y9231D01*
Y9279D02*
X22976Y9293D01*
X22986Y9298D01*
X23000D01*
X23009Y9293D01*
X23014Y9279D01*
Y9231D01*
X23046Y9351D02*
X23055Y9341D01*
X23065Y9327D01*
X23074Y9308D01*
X23079Y9284D01*
Y9265D01*
X23074Y9241D01*
X23065Y9222D01*
X23055Y9208D01*
X23046Y9198D01*
X23055Y9341D02*
X23065Y9322D01*
X23069Y9308D01*
X23074Y9284D01*
Y9265D01*
X23069Y9241D01*
X23065Y9227D01*
X23055Y9208D01*
X23235Y9279D02*
X23278D01*
X23292Y9284D01*
X23297Y9289D01*
X23302Y9298D01*
Y9312D01*
X23297Y9322D01*
X23292Y9327D01*
X23278Y9331D01*
X23235D01*
Y9231D01*
X23357Y9331D02*
Y9231D01*
X23324Y9331D02*
X23391D01*
X23402D02*
Y9231D01*
X23469Y9331D02*
Y9231D01*
X23402Y9284D02*
X23469D01*
X23861Y9331D02*
Y9231D01*
Y9331D02*
X23904D01*
X23918Y9327D01*
X23923Y9322D01*
X23928Y9312D01*
Y9303D01*
X23923Y9293D01*
X23918Y9289D01*
X23904Y9284D01*
X23861D01*
X23894D02*
X23928Y9231D01*
X23974Y9298D02*
X23964Y9293D01*
X23955Y9284D01*
X23950Y9270D01*
Y9260D01*
X23955Y9246D01*
X23964Y9236D01*
X23974Y9231D01*
X23988D01*
X23998Y9236D01*
X24007Y9246D01*
X24012Y9260D01*
Y9270D01*
X24007Y9284D01*
X23998Y9293D01*
X23988Y9298D01*
X23974D01*
X24034D02*
Y9251D01*
X24039Y9236D01*
X24048Y9231D01*
X24062D01*
X24072Y9236D01*
X24086Y9251D01*
Y9298D02*
Y9231D01*
X24112Y9298D02*
Y9231D01*
Y9279D02*
X24127Y9293D01*
X24136Y9298D01*
X24151D01*
X24160Y9293D01*
X24165Y9279D01*
Y9231D01*
X24248Y9331D02*
Y9231D01*
Y9284D02*
X24239Y9293D01*
X24229Y9298D01*
X24215D01*
X24205Y9293D01*
X24196Y9284D01*
X24191Y9270D01*
Y9260D01*
X24196Y9246D01*
X24205Y9236D01*
X24215Y9231D01*
X24229D01*
X24239Y9236D01*
X24248Y9246D01*
X20790Y9131D02*
X20742Y9065D01*
X20814D01*
X20790Y9131D02*
Y9031D01*
X20831Y9112D02*
X20841Y9117D01*
X20855Y9131D01*
Y9031D01*
X21688Y9131D02*
X21741D01*
X21712Y9093D01*
X21726D01*
X21736Y9089D01*
X21741Y9084D01*
X21745Y9070D01*
Y9060D01*
X21741Y9046D01*
X21731Y9036D01*
X21717Y9031D01*
X21702D01*
X21688Y9036D01*
X21683Y9041D01*
X21679Y9051D01*
X21825Y9131D02*
X21777D01*
X21772Y9089D01*
X21777Y9093D01*
X21792Y9098D01*
X21806D01*
X21820Y9093D01*
X21830Y9084D01*
X21834Y9070D01*
Y9060D01*
X21830Y9046D01*
X21820Y9036D01*
X21806Y9031D01*
X21792D01*
X21777Y9036D01*
X21772Y9041D01*
X21768Y9051D01*
X21857Y9098D02*
Y9031D01*
Y9079D02*
X21871Y9093D01*
X21881Y9098D01*
X21895D01*
X21904Y9093D01*
X21909Y9079D01*
Y9031D01*
Y9079D02*
X21923Y9093D01*
X21933Y9098D01*
X21947D01*
X21957Y9093D01*
X21961Y9079D01*
Y9031D01*
X22002Y9131D02*
X22007Y9127D01*
X22012Y9131D01*
X22007Y9136D01*
X22002Y9131D01*
X22007Y9098D02*
Y9031D01*
X22030Y9131D02*
Y9031D01*
X22162Y9151D02*
X22153Y9141D01*
X22143Y9127D01*
X22134Y9108D01*
X22129Y9084D01*
Y9065D01*
X22134Y9041D01*
X22143Y9022D01*
X22153Y9008D01*
X22162Y8998D01*
X22153Y9141D02*
X22143Y9122D01*
X22139Y9108D01*
X22134Y9084D01*
Y9065D01*
X22139Y9041D01*
X22143Y9027D01*
X22153Y9008D01*
X22210Y9131D02*
X22196Y9127D01*
X22186Y9112D01*
X22181Y9089D01*
Y9074D01*
X22186Y9051D01*
X22196Y9036D01*
X22210Y9031D01*
X22220D01*
X22234Y9036D01*
X22243Y9051D01*
X22248Y9074D01*
Y9089D01*
X22243Y9112D01*
X22234Y9127D01*
X22220Y9131D01*
X22210D01*
X22275Y9041D02*
X22270Y9036D01*
X22275Y9031D01*
X22280Y9036D01*
X22275Y9041D01*
X22326Y9131D02*
X22311Y9127D01*
X22307Y9117D01*
Y9108D01*
X22311Y9098D01*
X22321Y9093D01*
X22340Y9089D01*
X22354Y9084D01*
X22364Y9074D01*
X22369Y9065D01*
Y9051D01*
X22364Y9041D01*
X22359Y9036D01*
X22345Y9031D01*
X22326D01*
X22311Y9036D01*
X22307Y9041D01*
X22302Y9051D01*
Y9065D01*
X22307Y9074D01*
X22316Y9084D01*
X22330Y9089D01*
X22349Y9093D01*
X22359Y9098D01*
X22364Y9108D01*
Y9117D01*
X22359Y9127D01*
X22345Y9131D01*
X22326D01*
X22415D02*
X22400Y9127D01*
X22396Y9117D01*
Y9108D01*
X22400Y9098D01*
X22410Y9093D01*
X22429Y9089D01*
X22443Y9084D01*
X22453Y9074D01*
X22458Y9065D01*
Y9051D01*
X22453Y9041D01*
X22448Y9036D01*
X22434Y9031D01*
X22415D01*
X22400Y9036D01*
X22396Y9041D01*
X22391Y9051D01*
Y9065D01*
X22396Y9074D01*
X22405Y9084D01*
X22419Y9089D01*
X22439Y9093D01*
X22448Y9098D01*
X22453Y9108D01*
Y9117D01*
X22448Y9127D01*
X22434Y9131D01*
X22415D01*
X22542Y9098D02*
X22537Y9084D01*
X22528Y9074D01*
X22513Y9070D01*
X22508D01*
X22494Y9074D01*
X22485Y9084D01*
X22480Y9098D01*
Y9103D01*
X22485Y9117D01*
X22494Y9127D01*
X22508Y9131D01*
X22513D01*
X22528Y9127D01*
X22537Y9117D01*
X22542Y9098D01*
Y9074D01*
X22537Y9051D01*
X22528Y9036D01*
X22513Y9031D01*
X22504D01*
X22489Y9036D01*
X22485Y9046D01*
X22569Y9098D02*
Y9031D01*
Y9079D02*
X22583Y9093D01*
X22593Y9098D01*
X22607D01*
X22617Y9093D01*
X22621Y9079D01*
Y9031D01*
Y9079D02*
X22636Y9093D01*
X22645Y9098D01*
X22659D01*
X22669Y9093D01*
X22674Y9079D01*
Y9031D01*
X22705Y9098D02*
Y9031D01*
Y9079D02*
X22719Y9093D01*
X22729Y9098D01*
X22743D01*
X22753Y9093D01*
X22757Y9079D01*
Y9031D01*
Y9079D02*
X22772Y9093D01*
X22781Y9098D01*
X22796D01*
X22805Y9093D01*
X22810Y9079D01*
Y9031D01*
X22841Y9151D02*
X22851Y9141D01*
X22860Y9127D01*
X22870Y9108D01*
X22875Y9084D01*
Y9065D01*
X22870Y9041D01*
X22860Y9022D01*
X22851Y9008D01*
X22841Y8998D01*
X22851Y9141D02*
X22860Y9122D01*
X22865Y9108D01*
X22870Y9084D01*
Y9065D01*
X22865Y9041D01*
X22860Y9027D01*
X22851Y9008D01*
X23235Y9079D02*
X23278D01*
X23292Y9084D01*
X23297Y9089D01*
X23302Y9098D01*
Y9112D01*
X23297Y9122D01*
X23292Y9127D01*
X23278Y9131D01*
X23235D01*
Y9031D01*
X23357Y9131D02*
Y9031D01*
X23324Y9131D02*
X23391D01*
X23402D02*
Y9031D01*
X23469Y9131D02*
Y9031D01*
X23402Y9084D02*
X23469D01*
X23861Y9131D02*
Y9031D01*
Y9131D02*
X23904D01*
X23918Y9127D01*
X23923Y9122D01*
X23928Y9112D01*
Y9103D01*
X23923Y9093D01*
X23918Y9089D01*
X23904Y9084D01*
X23861D01*
X23894D02*
X23928Y9031D01*
X23974Y9098D02*
X23964Y9093D01*
X23955Y9084D01*
X23950Y9070D01*
Y9060D01*
X23955Y9046D01*
X23964Y9036D01*
X23974Y9031D01*
X23988D01*
X23998Y9036D01*
X24007Y9046D01*
X24012Y9060D01*
Y9070D01*
X24007Y9084D01*
X23998Y9093D01*
X23988Y9098D01*
X23974D01*
X24034D02*
Y9051D01*
X24039Y9036D01*
X24048Y9031D01*
X24062D01*
X24072Y9036D01*
X24086Y9051D01*
Y9098D02*
Y9031D01*
X24112Y9098D02*
Y9031D01*
Y9079D02*
X24127Y9093D01*
X24136Y9098D01*
X24151D01*
X24160Y9093D01*
X24165Y9079D01*
Y9031D01*
X24248Y9131D02*
Y9031D01*
Y9084D02*
X24239Y9093D01*
X24229Y9098D01*
X24215D01*
X24205Y9093D01*
X24196Y9084D01*
X24191Y9070D01*
Y9060D01*
X24196Y9046D01*
X24205Y9036D01*
X24215Y9031D01*
X24229D01*
X24239Y9036D01*
X24248Y9046D01*
X20742Y8912D02*
X20752Y8917D01*
X20766Y8931D01*
Y8831D01*
X21688Y8931D02*
X21741D01*
X21712Y8893D01*
X21726D01*
X21736Y8889D01*
X21741Y8884D01*
X21745Y8870D01*
Y8860D01*
X21741Y8846D01*
X21731Y8836D01*
X21717Y8831D01*
X21702D01*
X21688Y8836D01*
X21683Y8841D01*
X21679Y8851D01*
X21825Y8931D02*
X21777D01*
X21772Y8889D01*
X21777Y8893D01*
X21792Y8898D01*
X21806D01*
X21820Y8893D01*
X21830Y8884D01*
X21834Y8870D01*
Y8860D01*
X21830Y8846D01*
X21820Y8836D01*
X21806Y8831D01*
X21792D01*
X21777Y8836D01*
X21772Y8841D01*
X21768Y8851D01*
X21861Y8841D02*
X21857Y8836D01*
X21861Y8831D01*
X21866Y8836D01*
X21861Y8841D01*
X21936Y8931D02*
X21888Y8865D01*
X21960D01*
X21936Y8931D02*
Y8831D01*
X21987Y8931D02*
X22039D01*
X22011Y8893D01*
X22025D01*
X22034Y8889D01*
X22039Y8884D01*
X22044Y8870D01*
Y8860D01*
X22039Y8846D01*
X22030Y8836D01*
X22015Y8831D01*
X22001D01*
X21987Y8836D01*
X21982Y8841D01*
X21977Y8851D01*
X22076Y8931D02*
X22128D01*
X22100Y8893D01*
X22114D01*
X22123Y8889D01*
X22128Y8884D01*
X22133Y8870D01*
Y8860D01*
X22128Y8846D01*
X22119Y8836D01*
X22104Y8831D01*
X22090D01*
X22076Y8836D01*
X22071Y8841D01*
X22066Y8851D01*
X22155Y8898D02*
Y8831D01*
Y8879D02*
X22170Y8893D01*
X22179Y8898D01*
X22193D01*
X22203Y8893D01*
X22208Y8879D01*
Y8831D01*
Y8879D02*
X22222Y8893D01*
X22231Y8898D01*
X22246D01*
X22255Y8893D01*
X22260Y8879D01*
Y8831D01*
X22301Y8931D02*
X22306Y8927D01*
X22310Y8931D01*
X22306Y8936D01*
X22301Y8931D01*
X22306Y8898D02*
Y8831D01*
X22328Y8931D02*
Y8831D01*
X22461Y8951D02*
X22451Y8941D01*
X22442Y8927D01*
X22432Y8908D01*
X22428Y8884D01*
Y8865D01*
X22432Y8841D01*
X22442Y8822D01*
X22451Y8808D01*
X22461Y8798D01*
X22451Y8941D02*
X22442Y8922D01*
X22437Y8908D01*
X22432Y8884D01*
Y8865D01*
X22437Y8841D01*
X22442Y8827D01*
X22451Y8808D01*
X22508Y8931D02*
X22494Y8927D01*
X22485Y8912D01*
X22480Y8889D01*
Y8874D01*
X22485Y8851D01*
X22494Y8836D01*
X22508Y8831D01*
X22518D01*
X22532Y8836D01*
X22542Y8851D01*
X22547Y8874D01*
Y8889D01*
X22542Y8912D01*
X22532Y8927D01*
X22518Y8931D01*
X22508D01*
X22574Y8841D02*
X22569Y8836D01*
X22574Y8831D01*
X22578Y8836D01*
X22574Y8841D01*
X22662Y8898D02*
X22658Y8884D01*
X22648Y8874D01*
X22634Y8870D01*
X22629D01*
X22615Y8874D01*
X22605Y8884D01*
X22600Y8898D01*
Y8903D01*
X22605Y8917D01*
X22615Y8927D01*
X22629Y8931D01*
X22634D01*
X22648Y8927D01*
X22658Y8917D01*
X22662Y8898D01*
Y8874D01*
X22658Y8851D01*
X22648Y8836D01*
X22634Y8831D01*
X22624D01*
X22610Y8836D01*
X22605Y8846D01*
X22689Y8898D02*
Y8831D01*
Y8879D02*
X22704Y8893D01*
X22713Y8898D01*
X22728D01*
X22737Y8893D01*
X22742Y8879D01*
Y8831D01*
Y8879D02*
X22756Y8893D01*
X22766Y8898D01*
X22780D01*
X22789Y8893D01*
X22794Y8879D01*
Y8831D01*
X22826Y8898D02*
Y8831D01*
Y8879D02*
X22840Y8893D01*
X22849Y8898D01*
X22864D01*
X22873Y8893D01*
X22878Y8879D01*
Y8831D01*
Y8879D02*
X22892Y8893D01*
X22902Y8898D01*
X22916D01*
X22926Y8893D01*
X22930Y8879D01*
Y8831D01*
X22962Y8951D02*
X22971Y8941D01*
X22981Y8927D01*
X22990Y8908D01*
X22995Y8884D01*
Y8865D01*
X22990Y8841D01*
X22981Y8822D01*
X22971Y8808D01*
X22962Y8798D01*
X22971Y8941D02*
X22981Y8922D01*
X22986Y8908D01*
X22990Y8884D01*
Y8865D01*
X22986Y8841D01*
X22981Y8827D01*
X22971Y8808D01*
X23235Y8931D02*
Y8831D01*
Y8931D02*
X23302Y8831D01*
Y8931D02*
Y8831D01*
X23329Y8879D02*
X23372D01*
X23386Y8884D01*
X23391Y8889D01*
X23396Y8898D01*
Y8912D01*
X23391Y8922D01*
X23386Y8927D01*
X23372Y8931D01*
X23329D01*
Y8831D01*
X23451Y8931D02*
Y8831D01*
X23418Y8931D02*
X23485D01*
X23497D02*
Y8831D01*
X23563Y8931D02*
Y8831D01*
X23497Y8884D02*
X23563D01*
X23861Y8931D02*
Y8831D01*
Y8931D02*
X23904D01*
X23918Y8927D01*
X23923Y8922D01*
X23928Y8912D01*
Y8903D01*
X23923Y8893D01*
X23918Y8889D01*
X23904Y8884D01*
X23861D01*
X23894D02*
X23928Y8831D01*
X23974Y8898D02*
X23964Y8893D01*
X23955Y8884D01*
X23950Y8870D01*
Y8860D01*
X23955Y8846D01*
X23964Y8836D01*
X23974Y8831D01*
X23988D01*
X23998Y8836D01*
X24007Y8846D01*
X24012Y8860D01*
Y8870D01*
X24007Y8884D01*
X23998Y8893D01*
X23988Y8898D01*
X23974D01*
X24034D02*
Y8851D01*
X24039Y8836D01*
X24048Y8831D01*
X24062D01*
X24072Y8836D01*
X24086Y8851D01*
Y8898D02*
Y8831D01*
X24112Y8898D02*
Y8831D01*
Y8879D02*
X24127Y8893D01*
X24136Y8898D01*
X24151D01*
X24160Y8893D01*
X24165Y8879D01*
Y8831D01*
X24248Y8931D02*
Y8831D01*
Y8884D02*
X24239Y8893D01*
X24229Y8898D01*
X24215D01*
X24205Y8893D01*
X24196Y8884D01*
X24191Y8870D01*
Y8860D01*
X24196Y8846D01*
X24205Y8836D01*
X24215Y8831D01*
X24229D01*
X24239Y8836D01*
X24248Y8846D01*
X20742Y8712D02*
X20752Y8717D01*
X20766Y8731D01*
Y8631D01*
X21688Y8731D02*
X21741D01*
X21712Y8693D01*
X21726D01*
X21736Y8689D01*
X21741Y8684D01*
X21745Y8670D01*
Y8660D01*
X21741Y8646D01*
X21731Y8636D01*
X21717Y8631D01*
X21702D01*
X21688Y8636D01*
X21683Y8641D01*
X21679Y8651D01*
X21830Y8698D02*
X21825Y8684D01*
X21815Y8674D01*
X21801Y8670D01*
X21796D01*
X21782Y8674D01*
X21772Y8684D01*
X21768Y8698D01*
Y8703D01*
X21772Y8717D01*
X21782Y8727D01*
X21796Y8731D01*
X21801D01*
X21815Y8727D01*
X21825Y8717D01*
X21830Y8698D01*
Y8674D01*
X21825Y8651D01*
X21815Y8636D01*
X21801Y8631D01*
X21792D01*
X21777Y8636D01*
X21772Y8646D01*
X21861Y8641D02*
X21857Y8636D01*
X21861Y8631D01*
X21866Y8636D01*
X21861Y8641D01*
X21898Y8731D02*
X21950D01*
X21921Y8693D01*
X21936D01*
X21945Y8689D01*
X21950Y8684D01*
X21955Y8670D01*
Y8660D01*
X21950Y8646D01*
X21941Y8636D01*
X21926Y8631D01*
X21912D01*
X21898Y8636D01*
X21893Y8641D01*
X21888Y8651D01*
X22044Y8731D02*
X21996Y8631D01*
X21977Y8731D02*
X22044D01*
X22066Y8698D02*
Y8631D01*
Y8679D02*
X22080Y8693D01*
X22090Y8698D01*
X22104D01*
X22114Y8693D01*
X22119Y8679D01*
Y8631D01*
Y8679D02*
X22133Y8693D01*
X22142Y8698D01*
X22157D01*
X22166Y8693D01*
X22171Y8679D01*
Y8631D01*
X22212Y8731D02*
X22217Y8727D01*
X22221Y8731D01*
X22217Y8736D01*
X22212Y8731D01*
X22217Y8698D02*
Y8631D01*
X22239Y8731D02*
Y8631D01*
X22372Y8751D02*
X22362Y8741D01*
X22353Y8727D01*
X22343Y8708D01*
X22339Y8684D01*
Y8665D01*
X22343Y8641D01*
X22353Y8622D01*
X22362Y8608D01*
X22372Y8598D01*
X22362Y8741D02*
X22353Y8722D01*
X22348Y8708D01*
X22343Y8684D01*
Y8665D01*
X22348Y8641D01*
X22353Y8627D01*
X22362Y8608D01*
X22391Y8712D02*
X22400Y8717D01*
X22415Y8731D01*
Y8631D01*
X22464Y8698D02*
Y8631D01*
Y8679D02*
X22479Y8693D01*
X22488Y8698D01*
X22502D01*
X22512Y8693D01*
X22517Y8679D01*
Y8631D01*
Y8679D02*
X22531Y8693D01*
X22540Y8698D01*
X22555D01*
X22564Y8693D01*
X22569Y8679D01*
Y8631D01*
X22600Y8698D02*
Y8631D01*
Y8679D02*
X22615Y8693D01*
X22624Y8698D01*
X22638D01*
X22648Y8693D01*
X22653Y8679D01*
Y8631D01*
Y8679D02*
X22667Y8693D01*
X22677Y8698D01*
X22691D01*
X22700Y8693D01*
X22705Y8679D01*
Y8631D01*
X22737Y8751D02*
X22746Y8741D01*
X22756Y8727D01*
X22765Y8708D01*
X22770Y8684D01*
Y8665D01*
X22765Y8641D01*
X22756Y8622D01*
X22746Y8608D01*
X22737Y8598D01*
X22746Y8741D02*
X22756Y8722D01*
X22760Y8708D01*
X22765Y8684D01*
Y8665D01*
X22760Y8641D01*
X22756Y8627D01*
X22746Y8608D01*
X23235Y8731D02*
Y8631D01*
Y8731D02*
X23302Y8631D01*
Y8731D02*
Y8631D01*
X23329Y8679D02*
X23372D01*
X23386Y8684D01*
X23391Y8689D01*
X23396Y8698D01*
Y8712D01*
X23391Y8722D01*
X23386Y8727D01*
X23372Y8731D01*
X23329D01*
Y8631D01*
X23451Y8731D02*
Y8631D01*
X23418Y8731D02*
X23485D01*
X23497D02*
Y8631D01*
X23563Y8731D02*
Y8631D01*
X23497Y8684D02*
X23563D01*
X23861Y8731D02*
Y8631D01*
Y8731D02*
X23904D01*
X23918Y8727D01*
X23923Y8722D01*
X23928Y8712D01*
Y8703D01*
X23923Y8693D01*
X23918Y8689D01*
X23904Y8684D01*
X23861D01*
X23894D02*
X23928Y8631D01*
X23974Y8698D02*
X23964Y8693D01*
X23955Y8684D01*
X23950Y8670D01*
Y8660D01*
X23955Y8646D01*
X23964Y8636D01*
X23974Y8631D01*
X23988D01*
X23998Y8636D01*
X24007Y8646D01*
X24012Y8660D01*
Y8670D01*
X24007Y8684D01*
X23998Y8693D01*
X23988Y8698D01*
X23974D01*
X24034D02*
Y8651D01*
X24039Y8636D01*
X24048Y8631D01*
X24062D01*
X24072Y8636D01*
X24086Y8651D01*
Y8698D02*
Y8631D01*
X24112Y8698D02*
Y8631D01*
Y8679D02*
X24127Y8693D01*
X24136Y8698D01*
X24151D01*
X24160Y8693D01*
X24165Y8679D01*
Y8631D01*
X24248Y8731D02*
Y8631D01*
Y8684D02*
X24239Y8693D01*
X24229Y8698D01*
X24215D01*
X24205Y8693D01*
X24196Y8684D01*
X24191Y8670D01*
Y8660D01*
X24196Y8646D01*
X24205Y8636D01*
X24215Y8631D01*
X24229D01*
X24239Y8636D01*
X24248Y8646D01*
X20790Y8531D02*
X20742Y8465D01*
X20814D01*
X20790Y8531D02*
Y8431D01*
X21745Y8531D02*
X21698Y8431D01*
X21679Y8531D02*
X21745D01*
X21796D02*
X21782Y8527D01*
X21772Y8512D01*
X21768Y8489D01*
Y8474D01*
X21772Y8451D01*
X21782Y8436D01*
X21796Y8431D01*
X21806D01*
X21820Y8436D01*
X21830Y8451D01*
X21834Y8474D01*
Y8489D01*
X21830Y8512D01*
X21820Y8527D01*
X21806Y8531D01*
X21796D01*
X21861Y8441D02*
X21857Y8436D01*
X21861Y8431D01*
X21866Y8436D01*
X21861Y8441D01*
X21912Y8531D02*
X21898Y8527D01*
X21893Y8517D01*
Y8508D01*
X21898Y8498D01*
X21907Y8493D01*
X21926Y8489D01*
X21941Y8484D01*
X21950Y8474D01*
X21955Y8465D01*
Y8451D01*
X21950Y8441D01*
X21945Y8436D01*
X21931Y8431D01*
X21912D01*
X21898Y8436D01*
X21893Y8441D01*
X21888Y8451D01*
Y8465D01*
X21893Y8474D01*
X21902Y8484D01*
X21917Y8489D01*
X21936Y8493D01*
X21945Y8498D01*
X21950Y8508D01*
Y8517D01*
X21945Y8527D01*
X21931Y8531D01*
X21912D01*
X22034Y8517D02*
X22030Y8527D01*
X22015Y8531D01*
X22006D01*
X21991Y8527D01*
X21982Y8512D01*
X21977Y8489D01*
Y8465D01*
X21982Y8446D01*
X21991Y8436D01*
X22006Y8431D01*
X22011D01*
X22025Y8436D01*
X22034Y8446D01*
X22039Y8460D01*
Y8465D01*
X22034Y8479D01*
X22025Y8489D01*
X22011Y8493D01*
X22006D01*
X21991Y8489D01*
X21982Y8479D01*
X21977Y8465D01*
X22118Y8517D02*
X22113Y8527D01*
X22099Y8531D01*
X22090D01*
X22075Y8527D01*
X22066Y8512D01*
X22061Y8489D01*
Y8465D01*
X22066Y8446D01*
X22075Y8436D01*
X22090Y8431D01*
X22094D01*
X22109Y8436D01*
X22118Y8446D01*
X22123Y8460D01*
Y8465D01*
X22118Y8479D01*
X22109Y8489D01*
X22094Y8493D01*
X22090D01*
X22075Y8489D01*
X22066Y8479D01*
X22061Y8465D01*
X22145Y8498D02*
Y8431D01*
Y8479D02*
X22159Y8493D01*
X22169Y8498D01*
X22183D01*
X22192Y8493D01*
X22197Y8479D01*
Y8431D01*
Y8479D02*
X22211Y8493D01*
X22221Y8498D01*
X22235D01*
X22245Y8493D01*
X22250Y8479D01*
Y8431D01*
X22290Y8531D02*
X22295Y8527D01*
X22300Y8531D01*
X22295Y8536D01*
X22290Y8531D01*
X22295Y8498D02*
Y8431D01*
X22318Y8531D02*
Y8431D01*
X22450Y8551D02*
X22441Y8541D01*
X22431Y8527D01*
X22422Y8508D01*
X22417Y8484D01*
Y8465D01*
X22422Y8441D01*
X22431Y8422D01*
X22441Y8408D01*
X22450Y8398D01*
X22441Y8541D02*
X22431Y8522D01*
X22427Y8508D01*
X22422Y8484D01*
Y8465D01*
X22427Y8441D01*
X22431Y8427D01*
X22441Y8408D01*
X22469Y8512D02*
X22479Y8517D01*
X22493Y8531D01*
Y8431D01*
X22548Y8441D02*
X22543Y8436D01*
X22548Y8431D01*
X22552Y8436D01*
X22548Y8441D01*
X22598Y8531D02*
X22584Y8527D01*
X22579Y8517D01*
Y8508D01*
X22584Y8498D01*
X22593Y8493D01*
X22612Y8489D01*
X22627Y8484D01*
X22636Y8474D01*
X22641Y8465D01*
Y8451D01*
X22636Y8441D01*
X22631Y8436D01*
X22617Y8431D01*
X22598D01*
X22584Y8436D01*
X22579Y8441D01*
X22574Y8451D01*
Y8465D01*
X22579Y8474D01*
X22588Y8484D01*
X22603Y8489D01*
X22622Y8493D01*
X22631Y8498D01*
X22636Y8508D01*
Y8517D01*
X22631Y8527D01*
X22617Y8531D01*
X22598D01*
X22663Y8498D02*
Y8431D01*
Y8479D02*
X22678Y8493D01*
X22687Y8498D01*
X22701D01*
X22711Y8493D01*
X22716Y8479D01*
Y8431D01*
Y8479D02*
X22730Y8493D01*
X22739Y8498D01*
X22754D01*
X22763Y8493D01*
X22768Y8479D01*
Y8431D01*
X22799Y8498D02*
Y8431D01*
Y8479D02*
X22814Y8493D01*
X22823Y8498D01*
X22837D01*
X22847Y8493D01*
X22852Y8479D01*
Y8431D01*
Y8479D02*
X22866Y8493D01*
X22876Y8498D01*
X22890D01*
X22899Y8493D01*
X22904Y8479D01*
Y8431D01*
X22936Y8551D02*
X22945Y8541D01*
X22955Y8527D01*
X22964Y8508D01*
X22969Y8484D01*
Y8465D01*
X22964Y8441D01*
X22955Y8422D01*
X22945Y8408D01*
X22936Y8398D01*
X22945Y8541D02*
X22955Y8522D01*
X22959Y8508D01*
X22964Y8484D01*
Y8465D01*
X22959Y8441D01*
X22955Y8427D01*
X22945Y8408D01*
X23235Y8531D02*
Y8431D01*
Y8531D02*
X23302Y8431D01*
Y8531D02*
Y8431D01*
X23329Y8479D02*
X23372D01*
X23386Y8484D01*
X23391Y8489D01*
X23396Y8498D01*
Y8512D01*
X23391Y8522D01*
X23386Y8527D01*
X23372Y8531D01*
X23329D01*
Y8431D01*
X23451Y8531D02*
Y8431D01*
X23418Y8531D02*
X23485D01*
X23497D02*
Y8431D01*
X23563Y8531D02*
Y8431D01*
X23497Y8484D02*
X23563D01*
X23861Y8531D02*
Y8431D01*
Y8531D02*
X23904D01*
X23918Y8527D01*
X23923Y8522D01*
X23928Y8512D01*
Y8503D01*
X23923Y8493D01*
X23918Y8489D01*
X23904Y8484D01*
X23861D01*
X23894D02*
X23928Y8431D01*
X23974Y8498D02*
X23964Y8493D01*
X23955Y8484D01*
X23950Y8470D01*
Y8460D01*
X23955Y8446D01*
X23964Y8436D01*
X23974Y8431D01*
X23988D01*
X23998Y8436D01*
X24007Y8446D01*
X24012Y8460D01*
Y8470D01*
X24007Y8484D01*
X23998Y8493D01*
X23988Y8498D01*
X23974D01*
X24034D02*
Y8451D01*
X24039Y8436D01*
X24048Y8431D01*
X24062D01*
X24072Y8436D01*
X24086Y8451D01*
Y8498D02*
Y8431D01*
X24112Y8498D02*
Y8431D01*
Y8479D02*
X24127Y8493D01*
X24136Y8498D01*
X24151D01*
X24160Y8493D01*
X24165Y8479D01*
Y8431D01*
X24248Y8531D02*
Y8431D01*
Y8484D02*
X24239Y8493D01*
X24229Y8498D01*
X24215D01*
X24205Y8493D01*
X24196Y8484D01*
X24191Y8470D01*
Y8460D01*
X24196Y8446D01*
X24205Y8436D01*
X24215Y8431D01*
X24229D01*
X24239Y8436D01*
X24248Y8446D01*
X20742Y8312D02*
X20752Y8317D01*
X20766Y8331D01*
Y8231D01*
X21745Y8331D02*
X21698Y8231D01*
X21679Y8331D02*
X21745D01*
X21792D02*
X21777Y8327D01*
X21772Y8317D01*
Y8308D01*
X21777Y8298D01*
X21787Y8293D01*
X21806Y8289D01*
X21820Y8284D01*
X21830Y8274D01*
X21834Y8265D01*
Y8251D01*
X21830Y8241D01*
X21825Y8236D01*
X21811Y8231D01*
X21792D01*
X21777Y8236D01*
X21772Y8241D01*
X21768Y8251D01*
Y8265D01*
X21772Y8274D01*
X21782Y8284D01*
X21796Y8289D01*
X21815Y8293D01*
X21825Y8298D01*
X21830Y8308D01*
Y8317D01*
X21825Y8327D01*
X21811Y8331D01*
X21792D01*
X21861Y8241D02*
X21857Y8236D01*
X21861Y8231D01*
X21866Y8236D01*
X21861Y8241D01*
X21955Y8331D02*
X21907Y8231D01*
X21888Y8331D02*
X21955D01*
X22025D02*
X21977Y8265D01*
X22049D01*
X22025Y8331D02*
Y8231D01*
X22066Y8298D02*
Y8231D01*
Y8279D02*
X22080Y8293D01*
X22090Y8298D01*
X22104D01*
X22114Y8293D01*
X22119Y8279D01*
Y8231D01*
Y8279D02*
X22133Y8293D01*
X22142Y8298D01*
X22157D01*
X22166Y8293D01*
X22171Y8279D01*
Y8231D01*
X22212Y8331D02*
X22217Y8327D01*
X22221Y8331D01*
X22217Y8336D01*
X22212Y8331D01*
X22217Y8298D02*
Y8231D01*
X22239Y8331D02*
Y8231D01*
X22372Y8351D02*
X22362Y8341D01*
X22353Y8327D01*
X22343Y8308D01*
X22339Y8284D01*
Y8265D01*
X22343Y8241D01*
X22353Y8222D01*
X22362Y8208D01*
X22372Y8198D01*
X22362Y8341D02*
X22353Y8322D01*
X22348Y8308D01*
X22343Y8284D01*
Y8265D01*
X22348Y8241D01*
X22353Y8227D01*
X22362Y8208D01*
X22396Y8308D02*
Y8312D01*
X22400Y8322D01*
X22405Y8327D01*
X22415Y8331D01*
X22434D01*
X22443Y8327D01*
X22448Y8322D01*
X22453Y8312D01*
Y8303D01*
X22448Y8293D01*
X22439Y8279D01*
X22391Y8231D01*
X22458D01*
X22480Y8298D02*
Y8231D01*
Y8279D02*
X22494Y8293D01*
X22504Y8298D01*
X22518D01*
X22528Y8293D01*
X22532Y8279D01*
Y8231D01*
Y8279D02*
X22547Y8293D01*
X22556Y8298D01*
X22570D01*
X22580Y8293D01*
X22585Y8279D01*
Y8231D01*
X22616Y8298D02*
Y8231D01*
Y8279D02*
X22630Y8293D01*
X22640Y8298D01*
X22654D01*
X22664Y8293D01*
X22668Y8279D01*
Y8231D01*
Y8279D02*
X22683Y8293D01*
X22692Y8298D01*
X22707D01*
X22716Y8293D01*
X22721Y8279D01*
Y8231D01*
X22752Y8351D02*
X22762Y8341D01*
X22771Y8327D01*
X22781Y8308D01*
X22786Y8284D01*
Y8265D01*
X22781Y8241D01*
X22771Y8222D01*
X22762Y8208D01*
X22752Y8198D01*
X22762Y8341D02*
X22771Y8322D01*
X22776Y8308D01*
X22781Y8284D01*
Y8265D01*
X22776Y8241D01*
X22771Y8227D01*
X22762Y8208D01*
X23235Y8331D02*
Y8231D01*
Y8331D02*
X23302Y8231D01*
Y8331D02*
Y8231D01*
X23329Y8279D02*
X23372D01*
X23386Y8284D01*
X23391Y8289D01*
X23396Y8298D01*
Y8312D01*
X23391Y8322D01*
X23386Y8327D01*
X23372Y8331D01*
X23329D01*
Y8231D01*
X23451Y8331D02*
Y8231D01*
X23418Y8331D02*
X23485D01*
X23497D02*
Y8231D01*
X23563Y8331D02*
Y8231D01*
X23497Y8284D02*
X23563D01*
X23861Y8331D02*
Y8231D01*
Y8331D02*
X23904D01*
X23918Y8327D01*
X23923Y8322D01*
X23928Y8312D01*
Y8303D01*
X23923Y8293D01*
X23918Y8289D01*
X23904Y8284D01*
X23861D01*
X23894D02*
X23928Y8231D01*
X23974Y8298D02*
X23964Y8293D01*
X23955Y8284D01*
X23950Y8270D01*
Y8260D01*
X23955Y8246D01*
X23964Y8236D01*
X23974Y8231D01*
X23988D01*
X23998Y8236D01*
X24007Y8246D01*
X24012Y8260D01*
Y8270D01*
X24007Y8284D01*
X23998Y8293D01*
X23988Y8298D01*
X23974D01*
X24034D02*
Y8251D01*
X24039Y8236D01*
X24048Y8231D01*
X24062D01*
X24072Y8236D01*
X24086Y8251D01*
Y8298D02*
Y8231D01*
X24112Y8298D02*
Y8231D01*
Y8279D02*
X24127Y8293D01*
X24136Y8298D01*
X24151D01*
X24160Y8293D01*
X24165Y8279D01*
Y8231D01*
X24248Y8331D02*
Y8231D01*
Y8284D02*
X24239Y8293D01*
X24229Y8298D01*
X24215D01*
X24205Y8293D01*
X24196Y8284D01*
X24191Y8270D01*
Y8260D01*
X24196Y8246D01*
X24205Y8236D01*
X24215Y8231D01*
X24229D01*
X24239Y8236D01*
X24248Y8246D01*
X20804Y8098D02*
X20799Y8084D01*
X20790Y8074D01*
X20776Y8070D01*
X20771D01*
X20757Y8074D01*
X20747Y8084D01*
X20742Y8098D01*
Y8103D01*
X20747Y8117D01*
X20757Y8127D01*
X20771Y8131D01*
X20776D01*
X20790Y8127D01*
X20799Y8117D01*
X20804Y8098D01*
Y8074D01*
X20799Y8051D01*
X20790Y8036D01*
X20776Y8031D01*
X20766D01*
X20752Y8036D01*
X20747Y8046D01*
X20831Y8112D02*
X20841Y8117D01*
X20855Y8131D01*
Y8031D01*
X21044Y8131D02*
Y8031D01*
X21011Y8131D02*
X21078D01*
X21113Y8098D02*
X21104Y8093D01*
X21094Y8084D01*
X21090Y8070D01*
Y8060D01*
X21094Y8046D01*
X21104Y8036D01*
X21113Y8031D01*
X21128D01*
X21137Y8036D01*
X21147Y8046D01*
X21152Y8060D01*
Y8070D01*
X21147Y8084D01*
X21137Y8093D01*
X21128Y8098D01*
X21113D01*
X21188Y8131D02*
Y8051D01*
X21192Y8036D01*
X21202Y8031D01*
X21212D01*
X21173Y8098D02*
X21207D01*
X21283D02*
Y8031D01*
Y8084D02*
X21273Y8093D01*
X21264Y8098D01*
X21250D01*
X21240Y8093D01*
X21231Y8084D01*
X21226Y8070D01*
Y8060D01*
X21231Y8046D01*
X21240Y8036D01*
X21250Y8031D01*
X21264D01*
X21273Y8036D01*
X21283Y8046D01*
X21310Y8131D02*
Y8031D01*
D15*
X4465Y21603D02*
X29450D01*
X29465Y4603D02*
Y21603D01*
X4465Y4603D02*
X29465D01*
X4465D02*
Y21603D01*
D16*
X25151Y5295D02*
X25145Y5306D01*
X25134Y5318D01*
X25122Y5323D01*
X25099D01*
X25088Y5318D01*
X25076Y5306D01*
X25071Y5295D01*
X25065Y5278D01*
Y5249D01*
X25071Y5232D01*
X25076Y5221D01*
X25088Y5209D01*
X25099Y5203D01*
X25122D01*
X25134Y5209D01*
X25145Y5221D01*
X25151Y5232D01*
X26851Y5295D02*
X26845Y5306D01*
X26834Y5318D01*
X26822Y5323D01*
X26799D01*
X26788Y5318D01*
X26776Y5306D01*
X26771Y5295D01*
X26765Y5278D01*
Y5249D01*
X26771Y5232D01*
X26776Y5221D01*
X26788Y5209D01*
X26799Y5203D01*
X26822D01*
X26834Y5209D01*
X26845Y5221D01*
X26851Y5232D01*
Y5249D01*
X26822D02*
X26851D01*
X26878Y5323D02*
Y5203D01*
Y5323D02*
X26918D01*
X26935Y5318D01*
X26947Y5306D01*
X26952Y5295D01*
X26958Y5278D01*
Y5249D01*
X26952Y5232D01*
X26947Y5221D01*
X26935Y5209D01*
X26918Y5203D01*
X26878D01*
X26985Y5301D02*
X26996Y5306D01*
X27013Y5323D01*
Y5203D01*
X25214Y5629D02*
X25204Y5639D01*
X25190Y5643D01*
X25171D01*
X25156Y5639D01*
X25147Y5629D01*
Y5620D01*
X25152Y5610D01*
X25156Y5605D01*
X25166Y5601D01*
X25195Y5591D01*
X25204Y5586D01*
X25209Y5582D01*
X25214Y5572D01*
Y5558D01*
X25204Y5548D01*
X25190Y5543D01*
X25171D01*
X25156Y5548D01*
X25147Y5558D01*
X25236Y5643D02*
Y5543D01*
X25257Y5643D02*
Y5543D01*
Y5643D02*
X25324Y5543D01*
Y5643D02*
Y5543D01*
X25351Y5643D02*
Y5543D01*
X25439Y5629D02*
X25429Y5639D01*
X25415Y5643D01*
X25396D01*
X25382Y5639D01*
X25372Y5629D01*
Y5620D01*
X25377Y5610D01*
X25382Y5605D01*
X25391Y5601D01*
X25420Y5591D01*
X25429Y5586D01*
X25434Y5582D01*
X25439Y5572D01*
Y5558D01*
X25429Y5548D01*
X25415Y5543D01*
X25396D01*
X25382Y5548D01*
X25372Y5558D01*
X25495Y5643D02*
Y5543D01*
X25461Y5643D02*
X25528D01*
X25540D02*
Y5543D01*
Y5643D02*
X25583D01*
X25597Y5639D01*
X25602Y5634D01*
X25606Y5624D01*
Y5615D01*
X25602Y5605D01*
X25597Y5601D01*
X25583Y5596D01*
X25540D01*
X25573D02*
X25606Y5543D01*
X25657Y5643D02*
X25648Y5639D01*
X25638Y5629D01*
X25634Y5620D01*
X25629Y5605D01*
Y5582D01*
X25634Y5567D01*
X25638Y5558D01*
X25648Y5548D01*
X25657Y5543D01*
X25676D01*
X25686Y5548D01*
X25695Y5558D01*
X25700Y5567D01*
X25705Y5582D01*
Y5605D01*
X25700Y5620D01*
X25695Y5629D01*
X25686Y5639D01*
X25676Y5643D01*
X25657D01*
X25807D02*
Y5543D01*
Y5643D02*
X25869D01*
X25807Y5596D02*
X25845D01*
X25880Y5643D02*
Y5543D01*
X25937D01*
X26010Y5643D02*
X25948D01*
Y5543D01*
X26010D01*
X25948Y5596D02*
X25986D01*
X26027Y5643D02*
X26093Y5543D01*
Y5643D02*
X26027Y5543D01*
X26266Y5620D02*
X26261Y5629D01*
X26251Y5639D01*
X26242Y5643D01*
X26223D01*
X26213Y5639D01*
X26204Y5629D01*
X26199Y5620D01*
X26194Y5605D01*
Y5582D01*
X26199Y5567D01*
X26204Y5558D01*
X26213Y5548D01*
X26223Y5543D01*
X26242D01*
X26251Y5548D01*
X26261Y5558D01*
X26266Y5567D01*
X26294Y5643D02*
Y5543D01*
X26315Y5643D02*
Y5543D01*
Y5643D02*
X26358D01*
X26372Y5639D01*
X26377Y5634D01*
X26381Y5624D01*
Y5615D01*
X26377Y5605D01*
X26372Y5601D01*
X26358Y5596D01*
X26315D01*
X26348D02*
X26381Y5543D01*
X26475Y5620D02*
X26470Y5629D01*
X26461Y5639D01*
X26451Y5643D01*
X26432D01*
X26423Y5639D01*
X26413Y5629D01*
X26409Y5620D01*
X26404Y5605D01*
Y5582D01*
X26409Y5567D01*
X26413Y5558D01*
X26423Y5548D01*
X26432Y5543D01*
X26451D01*
X26461Y5548D01*
X26470Y5558D01*
X26475Y5567D01*
X26503Y5643D02*
Y5572D01*
X26508Y5558D01*
X26518Y5548D01*
X26532Y5543D01*
X26541D01*
X26556Y5548D01*
X26565Y5558D01*
X26570Y5572D01*
Y5643D01*
X26598D02*
Y5543D01*
X26652Y5643D02*
Y5543D01*
X26619Y5643D02*
X26685D01*
D17*
X5045Y5664D02*
Y5564D01*
Y5664D02*
X5112Y5564D01*
Y5664D02*
Y5564D01*
X5168Y5664D02*
X5158Y5660D01*
X5149Y5650D01*
X5144Y5641D01*
X5139Y5626D01*
Y5603D01*
X5144Y5588D01*
X5149Y5579D01*
X5158Y5569D01*
X5168Y5564D01*
X5187D01*
X5196Y5569D01*
X5206Y5579D01*
X5211Y5588D01*
X5215Y5603D01*
Y5626D01*
X5211Y5641D01*
X5206Y5650D01*
X5196Y5660D01*
X5187Y5664D01*
X5168D01*
X5272D02*
Y5564D01*
X5239Y5664D02*
X5305D01*
X5317D02*
Y5564D01*
X5410Y5641D02*
X5405Y5650D01*
X5395Y5660D01*
X5386Y5664D01*
X5367D01*
X5357Y5660D01*
X5348Y5650D01*
X5343Y5641D01*
X5338Y5626D01*
Y5603D01*
X5343Y5588D01*
X5348Y5579D01*
X5357Y5569D01*
X5367Y5564D01*
X5386D01*
X5395Y5569D01*
X5405Y5579D01*
X5410Y5588D01*
X5500Y5664D02*
X5438D01*
Y5564D01*
X5500D01*
X5438Y5617D02*
X5476D01*
X28315Y5932D02*
X28324Y5937D01*
X28336Y5949D01*
Y5859D01*
X28456Y5919D02*
X28452Y5915D01*
X28456Y5911D01*
X28460Y5915D01*
X28456Y5919D01*
Y5868D02*
X28452Y5864D01*
X28456Y5859D01*
X28460Y5864D01*
X28456Y5868D01*
X28551Y5932D02*
X28559Y5937D01*
X28572Y5949D01*
Y5859D01*
X20095Y9774D02*
X20084Y9786D01*
X20066Y9791D01*
X20044D01*
X20026Y9786D01*
X20015Y9774D01*
Y9763D01*
X20021Y9751D01*
X20026Y9746D01*
X20038Y9740D01*
X20072Y9729D01*
X20084Y9723D01*
X20089Y9717D01*
X20095Y9706D01*
Y9689D01*
X20084Y9677D01*
X20066Y9671D01*
X20044D01*
X20026Y9677D01*
X20015Y9689D01*
X20128Y9751D02*
X20162Y9671D01*
X20196Y9751D02*
X20162Y9671D01*
X20150Y9649D01*
X20139Y9637D01*
X20128Y9632D01*
X20122D01*
X20216Y9751D02*
Y9671D01*
Y9729D02*
X20233Y9746D01*
X20245Y9751D01*
X20262D01*
X20273Y9746D01*
X20279Y9729D01*
Y9671D01*
Y9729D02*
X20296Y9746D01*
X20307Y9751D01*
X20325D01*
X20336Y9746D01*
X20342Y9729D01*
Y9671D01*
X20379Y9791D02*
Y9671D01*
Y9734D02*
X20391Y9746D01*
X20402Y9751D01*
X20419D01*
X20431Y9746D01*
X20442Y9734D01*
X20448Y9717D01*
Y9706D01*
X20442Y9689D01*
X20431Y9677D01*
X20419Y9671D01*
X20402D01*
X20391Y9677D01*
X20379Y9689D01*
X20502Y9751D02*
X20491Y9746D01*
X20479Y9734D01*
X20474Y9717D01*
Y9706D01*
X20479Y9689D01*
X20491Y9677D01*
X20502Y9671D01*
X20519D01*
X20531Y9677D01*
X20542Y9689D01*
X20548Y9706D01*
Y9717D01*
X20542Y9734D01*
X20531Y9746D01*
X20519Y9751D01*
X20502D01*
X20574Y9791D02*
Y9671D01*
X20742Y9791D02*
Y9671D01*
X20822Y9791D02*
Y9671D01*
X20742Y9734D02*
X20822D01*
X20867Y9791D02*
X20873Y9786D01*
X20878Y9791D01*
X20873Y9797D01*
X20867Y9791D01*
X20873Y9751D02*
Y9671D01*
X20917Y9791D02*
Y9694D01*
X20922Y9677D01*
X20934Y9671D01*
X20945D01*
X20899Y9751D02*
X20939D01*
X21142Y9763D02*
X21136Y9774D01*
X21125Y9786D01*
X21114Y9791D01*
X21091D01*
X21079Y9786D01*
X21068Y9774D01*
X21062Y9763D01*
X21056Y9746D01*
Y9717D01*
X21062Y9700D01*
X21068Y9689D01*
X21079Y9677D01*
X21091Y9671D01*
X21114D01*
X21125Y9677D01*
X21136Y9689D01*
X21142Y9700D01*
X21204Y9751D02*
X21193Y9746D01*
X21182Y9734D01*
X21176Y9717D01*
Y9706D01*
X21182Y9689D01*
X21193Y9677D01*
X21204Y9671D01*
X21222D01*
X21233Y9677D01*
X21244Y9689D01*
X21250Y9706D01*
Y9717D01*
X21244Y9734D01*
X21233Y9746D01*
X21222Y9751D01*
X21204D01*
X21276D02*
Y9694D01*
X21282Y9677D01*
X21294Y9671D01*
X21311D01*
X21322Y9677D01*
X21339Y9694D01*
Y9751D02*
Y9671D01*
X21371Y9751D02*
Y9671D01*
Y9729D02*
X21388Y9746D01*
X21399Y9751D01*
X21416D01*
X21428Y9746D01*
X21434Y9729D01*
Y9671D01*
X21482Y9791D02*
Y9694D01*
X21488Y9677D01*
X21499Y9671D01*
X21511D01*
X21465Y9751D02*
X21505D01*
X21719Y9791D02*
Y9671D01*
X21679Y9791D02*
X21759D01*
X21802Y9751D02*
X21790Y9746D01*
X21779Y9734D01*
X21773Y9717D01*
Y9706D01*
X21779Y9689D01*
X21790Y9677D01*
X21802Y9671D01*
X21819D01*
X21830Y9677D01*
X21841Y9689D01*
X21847Y9706D01*
Y9717D01*
X21841Y9734D01*
X21830Y9746D01*
X21819Y9751D01*
X21802D01*
X21902D02*
X21891Y9746D01*
X21879Y9734D01*
X21873Y9717D01*
Y9706D01*
X21879Y9689D01*
X21891Y9677D01*
X21902Y9671D01*
X21919D01*
X21931Y9677D01*
X21942Y9689D01*
X21948Y9706D01*
Y9717D01*
X21942Y9734D01*
X21931Y9746D01*
X21919Y9751D01*
X21902D01*
X21974Y9791D02*
Y9671D01*
X22173Y9774D02*
X22162Y9786D01*
X22145Y9791D01*
X22122D01*
X22105Y9786D01*
X22093Y9774D01*
Y9763D01*
X22099Y9751D01*
X22105Y9746D01*
X22116Y9740D01*
X22151Y9729D01*
X22162Y9723D01*
X22168Y9717D01*
X22173Y9706D01*
Y9689D01*
X22162Y9677D01*
X22145Y9671D01*
X22122D01*
X22105Y9677D01*
X22093Y9689D01*
X22212Y9791D02*
X22217Y9786D01*
X22223Y9791D01*
X22217Y9797D01*
X22212Y9791D01*
X22217Y9751D02*
Y9671D01*
X22307Y9751D02*
X22244Y9671D01*
Y9751D02*
X22307D01*
X22244Y9671D02*
X22307D01*
X22332Y9717D02*
X22401D01*
Y9729D01*
X22395Y9740D01*
X22389Y9746D01*
X22378Y9751D01*
X22361D01*
X22349Y9746D01*
X22338Y9734D01*
X22332Y9717D01*
Y9706D01*
X22338Y9689D01*
X22349Y9677D01*
X22361Y9671D01*
X22378D01*
X22389Y9677D01*
X22401Y9689D01*
X23235Y9729D02*
X23286D01*
X23303Y9734D01*
X23309Y9740D01*
X23315Y9751D01*
Y9769D01*
X23309Y9780D01*
X23303Y9786D01*
X23286Y9791D01*
X23235D01*
Y9671D01*
X23342Y9791D02*
Y9671D01*
X23435Y9751D02*
Y9671D01*
Y9734D02*
X23424Y9746D01*
X23413Y9751D01*
X23395D01*
X23384Y9746D01*
X23373Y9734D01*
X23367Y9717D01*
Y9706D01*
X23373Y9689D01*
X23384Y9677D01*
X23395Y9671D01*
X23413D01*
X23424Y9677D01*
X23435Y9689D01*
X23485Y9791D02*
Y9694D01*
X23490Y9677D01*
X23502Y9671D01*
X23513D01*
X23467Y9751D02*
X23507D01*
X23530Y9717D02*
X23599D01*
Y9729D01*
X23593Y9740D01*
X23587Y9746D01*
X23576Y9751D01*
X23559D01*
X23547Y9746D01*
X23536Y9734D01*
X23530Y9717D01*
Y9706D01*
X23536Y9689D01*
X23547Y9677D01*
X23559Y9671D01*
X23576D01*
X23587Y9677D01*
X23599Y9689D01*
X23693Y9791D02*
Y9671D01*
Y9734D02*
X23682Y9746D01*
X23670Y9751D01*
X23653D01*
X23642Y9746D01*
X23630Y9734D01*
X23624Y9717D01*
Y9706D01*
X23630Y9689D01*
X23642Y9677D01*
X23653Y9671D01*
X23670D01*
X23682Y9677D01*
X23693Y9689D01*
X23861Y9791D02*
Y9671D01*
X23941Y9791D02*
Y9671D01*
X23861Y9734D02*
X23941D01*
X24003Y9751D02*
X23991Y9746D01*
X23980Y9734D01*
X23974Y9717D01*
Y9706D01*
X23980Y9689D01*
X23991Y9677D01*
X24003Y9671D01*
X24020D01*
X24031Y9677D01*
X24043Y9689D01*
X24048Y9706D01*
Y9717D01*
X24043Y9734D01*
X24031Y9746D01*
X24020Y9751D01*
X24003D01*
X24075Y9791D02*
Y9671D01*
X24100Y9717D02*
X24168D01*
Y9729D01*
X24163Y9740D01*
X24157Y9746D01*
X24146Y9751D01*
X24128D01*
X24117Y9746D01*
X24106Y9734D01*
X24100Y9717D01*
Y9706D01*
X24106Y9689D01*
X24117Y9677D01*
X24128Y9671D01*
X24146D01*
X24157Y9677D01*
X24168Y9689D01*
X24328Y9791D02*
Y9671D01*
X24288Y9791D02*
X24368D01*
X24388Y9751D02*
X24423Y9671D01*
X24457Y9751D02*
X24423Y9671D01*
X24411Y9649D01*
X24400Y9637D01*
X24388Y9632D01*
X24383D01*
X24477Y9751D02*
Y9632D01*
Y9734D02*
X24488Y9746D01*
X24500Y9751D01*
X24517D01*
X24528Y9746D01*
X24540Y9734D01*
X24545Y9717D01*
Y9706D01*
X24540Y9689D01*
X24528Y9677D01*
X24517Y9671D01*
X24500D01*
X24488Y9677D01*
X24477Y9689D01*
X24571Y9717D02*
X24640D01*
Y9729D01*
X24634Y9740D01*
X24628Y9746D01*
X24617Y9751D01*
X24600D01*
X24588Y9746D01*
X24577Y9734D01*
X24571Y9717D01*
Y9706D01*
X24577Y9689D01*
X24588Y9677D01*
X24600Y9671D01*
X24617D01*
X24628Y9677D01*
X24640Y9689D01*
X19879Y9851D02*
X24808D01*
X19879Y9581D02*
X24808D01*
X19879Y9851D02*
Y7981D01*
X24808Y9851D02*
Y7981D01*
X20674Y9851D02*
Y7981D01*
X21611Y9851D02*
Y7981D01*
X23167Y9851D02*
Y7981D01*
X23793Y9851D02*
Y7981D01*
X19879Y8181D02*
X24808D01*
X19879Y7981D02*
X24808D01*
D18*
X26456Y5275D02*
X26567D01*
X27709Y5219D02*
X27659Y5349D01*
X27610Y5219D01*
X27629Y5263D02*
X27690D01*
D19*
X24930Y6010D02*
Y5978D01*
Y6010D02*
X24941D01*
X24945Y6008D01*
X24948Y6005D01*
X24950Y6002D01*
X24951Y5997D01*
Y5990D01*
X24950Y5985D01*
X24948Y5982D01*
X24945Y5979D01*
X24941Y5978D01*
X24930D01*
X24978Y6010D02*
X24958D01*
Y5978D01*
X24978D01*
X24958Y5994D02*
X24971D01*
X25005Y6005D02*
X25002Y6008D01*
X24997Y6010D01*
X24991D01*
X24987Y6008D01*
X24984Y6005D01*
Y6002D01*
X24985Y5999D01*
X24987Y5997D01*
X24990Y5996D01*
X24999Y5993D01*
X25002Y5991D01*
X25003Y5990D01*
X25005Y5987D01*
Y5982D01*
X25002Y5979D01*
X24997Y5978D01*
X24991D01*
X24987Y5979D01*
X24984Y5982D01*
X25012Y6010D02*
Y5978D01*
X25042Y6002D02*
X25040Y6005D01*
X25037Y6008D01*
X25034Y6010D01*
X25028D01*
X25025Y6008D01*
X25022Y6005D01*
X25020Y6002D01*
X25019Y5997D01*
Y5990D01*
X25020Y5985D01*
X25022Y5982D01*
X25025Y5979D01*
X25028Y5978D01*
X25034D01*
X25037Y5979D01*
X25040Y5982D01*
X25042Y5985D01*
Y5990D01*
X25034D02*
X25042D01*
X25049Y6010D02*
Y5978D01*
Y6010D02*
X25070Y5978D01*
Y6010D02*
Y5978D01*
X25099Y6010D02*
X25079D01*
Y5978D01*
X25099D01*
X25079Y5994D02*
X25091D01*
X25104Y6010D02*
Y5978D01*
Y6010D02*
X25115D01*
X25119Y6008D01*
X25123Y6005D01*
X25124Y6002D01*
X25126Y5997D01*
Y5990D01*
X25124Y5985D01*
X25123Y5982D01*
X25119Y5979D01*
X25115Y5978D01*
X25104D01*
X26480Y6010D02*
Y5978D01*
Y6010D02*
X26491D01*
X26495Y6008D01*
X26498Y6005D01*
X26500Y6002D01*
X26501Y5997D01*
Y5990D01*
X26500Y5985D01*
X26498Y5982D01*
X26495Y5979D01*
X26491Y5978D01*
X26480D01*
X26508Y6010D02*
Y5978D01*
Y6010D02*
X26522D01*
X26527Y6008D01*
X26528Y6007D01*
X26530Y6004D01*
Y6001D01*
X26528Y5997D01*
X26527Y5996D01*
X26522Y5994D01*
X26508D01*
X26519D02*
X26530Y5978D01*
X26561D02*
X26549Y6010D01*
X26537Y5978D01*
X26542Y5988D02*
X26557D01*
X26569Y6010D02*
X26576Y5978D01*
X26584Y6010D02*
X26576Y5978D01*
X26584Y6010D02*
X26592Y5978D01*
X26599Y6010D02*
X26592Y5978D01*
X26606Y6010D02*
Y5978D01*
Y6010D02*
X26627Y5978D01*
Y6010D02*
Y5978D01*
X28051Y6005D02*
X28048Y6008D01*
X28044Y6010D01*
X28038D01*
X28033Y6008D01*
X28030Y6005D01*
Y6002D01*
X28031Y5999D01*
X28033Y5997D01*
X28036Y5996D01*
X28045Y5993D01*
X28048Y5991D01*
X28050Y5990D01*
X28051Y5987D01*
Y5982D01*
X28048Y5979D01*
X28044Y5978D01*
X28038D01*
X28033Y5979D01*
X28030Y5982D01*
X28081Y6002D02*
X28080Y6005D01*
X28077Y6008D01*
X28074Y6010D01*
X28068D01*
X28065Y6008D01*
X28061Y6005D01*
X28060Y6002D01*
X28058Y5997D01*
Y5990D01*
X28060Y5985D01*
X28061Y5982D01*
X28065Y5979D01*
X28068Y5978D01*
X28074D01*
X28077Y5979D01*
X28080Y5982D01*
X28081Y5985D01*
X28115Y5978D02*
X28102Y6010D01*
X28090Y5978D01*
X28095Y5988D02*
X28110D01*
X28122Y6010D02*
Y5978D01*
X28140D01*
X28164Y6010D02*
X28144D01*
Y5978D01*
X28164D01*
X28144Y5994D02*
X28156D01*
X24941Y5720D02*
Y5688D01*
X24930Y5720D02*
X24951D01*
X24955D02*
Y5688D01*
X24972Y5720D02*
Y5688D01*
X24962Y5720D02*
X24983D01*
X24987D02*
Y5688D01*
X25005D01*
X25029Y5720D02*
X25009D01*
Y5688D01*
X25029D01*
X25009Y5704D02*
X25021D01*
X24951Y5385D02*
X24948Y5388D01*
X24944Y5390D01*
X24938D01*
X24933Y5388D01*
X24930Y5385D01*
Y5382D01*
X24931Y5379D01*
X24933Y5377D01*
X24936Y5376D01*
X24945Y5373D01*
X24948Y5371D01*
X24950Y5370D01*
X24951Y5367D01*
Y5362D01*
X24948Y5359D01*
X24944Y5358D01*
X24938D01*
X24933Y5359D01*
X24930Y5362D01*
X24958Y5390D02*
Y5358D01*
X24986Y5390D02*
X24965Y5358D01*
Y5390D02*
X24986D01*
X24965Y5358D02*
X24986D01*
X25013Y5390D02*
X24994D01*
Y5358D01*
X25013D01*
X24994Y5374D02*
X25006D01*
X25390Y5390D02*
Y5358D01*
Y5390D02*
X25401D01*
X25405Y5388D01*
X25408Y5385D01*
X25410Y5382D01*
X25411Y5377D01*
Y5370D01*
X25410Y5365D01*
X25408Y5362D01*
X25405Y5359D01*
X25401Y5358D01*
X25390D01*
X25428Y5390D02*
X25425Y5388D01*
X25421Y5385D01*
X25420Y5382D01*
X25418Y5377D01*
Y5370D01*
X25420Y5365D01*
X25421Y5362D01*
X25425Y5359D01*
X25428Y5358D01*
X25434D01*
X25437Y5359D01*
X25440Y5362D01*
X25441Y5365D01*
X25443Y5370D01*
Y5377D01*
X25441Y5382D01*
X25440Y5385D01*
X25437Y5388D01*
X25434Y5390D01*
X25428D01*
X25473Y5382D02*
X25472Y5385D01*
X25469Y5388D01*
X25466Y5390D01*
X25459D01*
X25456Y5388D01*
X25453Y5385D01*
X25452Y5382D01*
X25450Y5377D01*
Y5370D01*
X25452Y5365D01*
X25453Y5362D01*
X25456Y5359D01*
X25459Y5358D01*
X25466D01*
X25469Y5359D01*
X25472Y5362D01*
X25473Y5365D01*
X25507Y5390D02*
Y5358D01*
Y5390D02*
X25529Y5358D01*
Y5390D02*
Y5358D01*
X25547Y5390D02*
X25544Y5388D01*
X25540Y5385D01*
X25539Y5382D01*
X25537Y5377D01*
Y5370D01*
X25539Y5365D01*
X25540Y5362D01*
X25544Y5359D01*
X25547Y5358D01*
X25553D01*
X25556Y5359D01*
X25559Y5362D01*
X25560Y5365D01*
X25562Y5370D01*
Y5377D01*
X25560Y5382D01*
X25559Y5385D01*
X25556Y5388D01*
X25553Y5390D01*
X25547D01*
X25571Y5361D02*
X25569Y5359D01*
X25571Y5358D01*
X25572Y5359D01*
X25571Y5361D01*
X27951Y5385D02*
X27948Y5388D01*
X27944Y5390D01*
X27938D01*
X27933Y5388D01*
X27930Y5385D01*
Y5382D01*
X27931Y5379D01*
X27933Y5377D01*
X27936Y5376D01*
X27945Y5373D01*
X27948Y5371D01*
X27950Y5370D01*
X27951Y5367D01*
Y5362D01*
X27948Y5359D01*
X27944Y5358D01*
X27938D01*
X27933Y5359D01*
X27930Y5362D01*
X27958Y5390D02*
Y5358D01*
X27980Y5390D02*
Y5358D01*
X27958Y5374D02*
X27980D01*
X28008Y5390D02*
X27989D01*
Y5358D01*
X28008D01*
X27989Y5374D02*
X28001D01*
X28034Y5390D02*
X28014D01*
Y5358D01*
X28034D01*
X28014Y5374D02*
X28026D01*
X28050Y5390D02*
Y5358D01*
X28039Y5390D02*
X28060D01*
X27470D02*
Y5358D01*
Y5390D02*
X27484D01*
X27488Y5388D01*
X27490Y5387D01*
X27491Y5384D01*
Y5381D01*
X27490Y5377D01*
X27488Y5376D01*
X27484Y5374D01*
X27470D01*
X27481D02*
X27491Y5358D01*
X27518Y5390D02*
X27498D01*
Y5358D01*
X27518D01*
X27498Y5374D02*
X27511D01*
X27524Y5390D02*
X27536Y5358D01*
X27548Y5390D02*
X27536Y5358D01*
X13988Y12987D02*
Y13027D01*
X14028D01*
Y12987D01*
X13988D01*
X14104Y12927D02*
Y12967D01*
X14144D01*
Y12927D01*
X14104D01*
X14197Y12835D02*
Y12875D01*
X14237D01*
Y12835D01*
X14197D01*
X14256Y12718D02*
Y12758D01*
X14296D01*
Y12718D01*
X14256D01*
X14277Y12589D02*
Y12629D01*
X14317D01*
Y12589D01*
X14277D01*
X14256Y12460D02*
Y12500D01*
X14296D01*
Y12460D01*
X14256D01*
X14197Y12343D02*
Y12383D01*
X14237D01*
Y12343D01*
X14197D01*
X14104Y12251D02*
Y12291D01*
X14144D01*
Y12251D01*
X14104D01*
X13988Y12192D02*
Y12232D01*
X14028D01*
Y12192D01*
X13988D01*
X13859Y12171D02*
Y12211D01*
X13899D01*
Y12171D01*
X13859D01*
X13729Y12192D02*
Y12232D01*
X13769D01*
Y12192D01*
X13729D01*
X13613Y12251D02*
Y12291D01*
X13653D01*
Y12251D01*
X13613D01*
X13520Y12343D02*
Y12383D01*
X13560D01*
Y12343D01*
X13520D01*
X13461Y12460D02*
Y12500D01*
X13501D01*
Y12460D01*
X13461D01*
X13441Y12589D02*
Y12629D01*
X13481D01*
Y12589D01*
X13441D01*
X13461Y12718D02*
Y12758D01*
X13501D01*
Y12718D01*
X13461D01*
X13520Y12835D02*
Y12875D01*
X13560D01*
Y12835D01*
X13520D01*
X13613Y12927D02*
Y12967D01*
X13653D01*
Y12927D01*
X13613D01*
X13729Y12987D02*
Y13027D01*
X13769D01*
Y12987D01*
X13729D01*
X13859Y13007D02*
Y13047D01*
X13899D01*
Y13007D01*
X13859D01*
X13990Y12840D02*
Y12880D01*
X14030D01*
Y12840D01*
X13990D01*
X14091Y12750D02*
Y12790D01*
X14131D01*
Y12750D01*
X14091D01*
X14140Y12623D02*
Y12663D01*
X14180D01*
Y12623D01*
X14140D01*
X14123Y12489D02*
Y12529D01*
X14163D01*
Y12489D01*
X14123D01*
X14046Y12377D02*
Y12417D01*
X14086D01*
Y12377D01*
X14046D01*
X13926Y12314D02*
Y12354D01*
X13966D01*
Y12314D01*
X13926D01*
X13791Y12314D02*
Y12354D01*
X13831D01*
Y12314D01*
X13791D01*
X13671Y12377D02*
Y12417D01*
X13711D01*
Y12377D01*
X13671D01*
X13594Y12489D02*
Y12529D01*
X13634D01*
Y12489D01*
X13594D01*
X13578Y12623D02*
Y12663D01*
X13618D01*
Y12623D01*
X13578D01*
X13626Y12750D02*
Y12790D01*
X13666D01*
Y12750D01*
X13626D01*
X13727Y12840D02*
Y12880D01*
X13767D01*
Y12840D01*
X13727D01*
X13859Y12872D02*
Y12912D01*
X13899D01*
Y12872D01*
X13859D01*
X13976Y12683D02*
Y12723D01*
X14016D01*
Y12683D01*
X13976D01*
X14005Y12556D02*
Y12596D01*
X14045D01*
Y12556D01*
X14005D01*
X13924Y12454D02*
Y12494D01*
X13964D01*
Y12454D01*
X13924D01*
X13793Y12454D02*
Y12494D01*
X13833D01*
Y12454D01*
X13793D01*
X13712Y12556D02*
Y12596D01*
X13752D01*
Y12556D01*
X13712D01*
X13741Y12683D02*
Y12723D01*
X13781D01*
Y12683D01*
X13741D01*
X13859Y12739D02*
Y12779D01*
X13899D01*
Y12739D01*
X13859D01*
Y12589D02*
Y12629D01*
X13899D01*
Y12589D01*
X13859D01*
X13524Y18763D02*
X13504Y18803D01*
X13544D01*
X13524Y18763D01*
X17378Y16890D02*
X17388Y16900D01*
X17398D01*
X17388Y16910D01*
X17398Y16920D01*
X17388D01*
X17378Y16930D01*
X17368Y16920D01*
X17358D01*
X17368Y16910D01*
X17358Y16900D01*
X17368D01*
X17378Y16890D01*
X17239Y16729D02*
X17249Y16749D01*
X17239Y16769D01*
X17259Y16759D01*
X17279Y16769D01*
X17269Y16749D01*
X17279Y16729D01*
X17259Y16739D01*
X17239Y16729D01*
X17739D02*
X17749Y16749D01*
X17739Y16769D01*
X17759Y16759D01*
X17779Y16769D01*
X17769Y16749D01*
X17779Y16729D01*
X17759Y16739D01*
X17739Y16729D01*
Y17052D02*
X17749Y17072D01*
X17739Y17092D01*
X17759Y17082D01*
X17779Y17092D01*
X17769Y17072D01*
X17779Y17052D01*
X17759Y17062D01*
X17739Y17052D01*
X17239D02*
X17249Y17072D01*
X17239Y17092D01*
X17259Y17082D01*
X17279Y17092D01*
X17269Y17072D01*
X17279Y17052D01*
X17259Y17062D01*
X17239Y17052D01*
X17893Y17097D02*
Y17087D01*
X17913D01*
Y17097D01*
X17923D01*
Y17117D01*
X17913D01*
Y17127D01*
X17893D01*
Y17117D01*
X17883D01*
Y17097D01*
X17893D01*
Y16703D02*
Y16693D01*
X17913D01*
Y16703D01*
X17923D01*
Y16723D01*
X17913D01*
Y16733D01*
X17893D01*
Y16723D01*
X17883D01*
Y16703D01*
X17893D01*
X17106Y16704D02*
Y16694D01*
X17126D01*
Y16704D01*
X17136D01*
Y16724D01*
X17126D01*
Y16734D01*
X17106D01*
Y16724D01*
X17096D01*
Y16704D01*
X17106D01*
Y17098D02*
Y17088D01*
X17126D01*
Y17098D01*
X17136D01*
Y17118D01*
X17126D01*
Y17128D01*
X17106D01*
Y17118D01*
X17096D01*
Y17098D01*
X17106D01*
X13831Y18922D02*
X13841D01*
X13851Y18932D01*
X13861Y18922D01*
X13871D01*
Y18932D01*
X13861Y18942D01*
X13871Y18952D01*
Y18962D01*
X13861D01*
X13851Y18952D01*
X13841Y18962D01*
X13831D01*
Y18952D01*
X13841Y18942D01*
X13831Y18932D01*
Y18922D01*
X13673Y18919D02*
X13683D01*
X13693Y18929D01*
X13703Y18919D01*
X13713D01*
Y18929D01*
X13703Y18939D01*
X13713Y18949D01*
Y18959D01*
X13703D01*
X13693Y18949D01*
X13683Y18959D01*
X13673D01*
Y18949D01*
X13683Y18939D01*
X13673Y18929D01*
Y18919D01*
X13538Y18918D02*
X13548D01*
X13558Y18928D01*
X13568Y18918D01*
X13578D01*
Y18928D01*
X13568Y18938D01*
X13578Y18948D01*
Y18958D01*
X13568D01*
X13558Y18948D01*
X13548Y18958D01*
X13538D01*
Y18948D01*
X13548Y18938D01*
X13538Y18928D01*
Y18918D01*
X14299Y18706D02*
X14309D01*
X14319Y18716D01*
X14329Y18706D01*
X14339D01*
Y18716D01*
X14329Y18726D01*
X14339Y18736D01*
Y18746D01*
X14329D01*
X14319Y18736D01*
X14309Y18746D01*
X14299D01*
Y18736D01*
X14309Y18726D01*
X14299Y18716D01*
Y18706D01*
X13553Y18719D02*
X13563D01*
X13573Y18729D01*
X13583Y18719D01*
X13593D01*
Y18729D01*
X13583Y18739D01*
X13593Y18749D01*
Y18759D01*
X13583D01*
X13573Y18749D01*
X13563Y18759D01*
X13553D01*
Y18749D01*
X13563Y18739D01*
X13553Y18729D01*
Y18719D01*
X13613Y18793D02*
X13623D01*
X13633Y18803D01*
X13643Y18793D01*
X13653D01*
Y18803D01*
X13643Y18813D01*
X13653Y18823D01*
Y18833D01*
X13643D01*
X13633Y18823D01*
X13623Y18833D01*
X13613D01*
Y18823D01*
X13623Y18813D01*
X13613Y18803D01*
Y18793D01*
X13639Y18759D02*
X13649D01*
X13659Y18769D01*
X13669Y18759D01*
X13679D01*
Y18769D01*
X13669Y18779D01*
X13679Y18789D01*
Y18799D01*
X13669D01*
X13659Y18789D01*
X13649Y18799D01*
X13639D01*
Y18789D01*
X13649Y18779D01*
X13639Y18769D01*
Y18759D01*
X13684Y18721D02*
X13694D01*
X13704Y18731D01*
X13714Y18721D01*
X13724D01*
Y18731D01*
X13714Y18741D01*
X13724Y18751D01*
Y18761D01*
X13714D01*
X13704Y18751D01*
X13694Y18761D01*
X13684D01*
Y18751D01*
X13694Y18741D01*
X13684Y18731D01*
Y18721D01*
X13770Y18793D02*
X13780D01*
X13790Y18803D01*
X13800Y18793D01*
X13810D01*
Y18803D01*
X13800Y18813D01*
X13810Y18823D01*
Y18833D01*
X13800D01*
X13790Y18823D01*
X13780Y18833D01*
X13770D01*
Y18823D01*
X13780Y18813D01*
X13770Y18803D01*
Y18793D01*
X13888D02*
X13898D01*
X13908Y18803D01*
X13918Y18793D01*
X13928D01*
Y18803D01*
X13918Y18813D01*
X13928Y18823D01*
Y18833D01*
X13918D01*
X13908Y18823D01*
X13898Y18833D01*
X13888D01*
Y18823D01*
X13898Y18813D01*
X13888Y18803D01*
Y18793D01*
X13927D02*
X13937D01*
X13947Y18803D01*
X13957Y18793D01*
X13967D01*
Y18803D01*
X13957Y18813D01*
X13967Y18823D01*
Y18833D01*
X13957D01*
X13947Y18823D01*
X13937Y18833D01*
X13927D01*
Y18823D01*
X13937Y18813D01*
X13927Y18803D01*
Y18793D01*
X13967D02*
X13977D01*
X13987Y18803D01*
X13997Y18793D01*
X14007D01*
Y18803D01*
X13997Y18813D01*
X14007Y18823D01*
Y18833D01*
X13997D01*
X13987Y18823D01*
X13977Y18833D01*
X13967D01*
Y18823D01*
X13977Y18813D01*
X13967Y18803D01*
Y18793D01*
X14006D02*
X14016D01*
X14026Y18803D01*
X14036Y18793D01*
X14046D01*
Y18803D01*
X14036Y18813D01*
X14046Y18823D01*
Y18833D01*
X14036D01*
X14026Y18823D01*
X14016Y18833D01*
X14006D01*
Y18823D01*
X14016Y18813D01*
X14006Y18803D01*
Y18793D01*
X14046D02*
X14056D01*
X14066Y18803D01*
X14076Y18793D01*
X14086D01*
Y18803D01*
X14076Y18813D01*
X14086Y18823D01*
Y18833D01*
X14076D01*
X14066Y18823D01*
X14056Y18833D01*
X14046D01*
Y18823D01*
X14056Y18813D01*
X14046Y18803D01*
Y18793D01*
X14085D02*
X14095D01*
X14105Y18803D01*
X14115Y18793D01*
X14125D01*
Y18803D01*
X14115Y18813D01*
X14125Y18823D01*
Y18833D01*
X14115D01*
X14105Y18823D01*
X14095Y18833D01*
X14085D01*
Y18823D01*
X14095Y18813D01*
X14085Y18803D01*
Y18793D01*
X14124D02*
X14134D01*
X14144Y18803D01*
X14154Y18793D01*
X14164D01*
Y18803D01*
X14154Y18813D01*
X14164Y18823D01*
Y18833D01*
X14154D01*
X14144Y18823D01*
X14134Y18833D01*
X14124D01*
Y18823D01*
X14134Y18813D01*
X14124Y18803D01*
Y18793D01*
X14164D02*
X14174D01*
X14184Y18803D01*
X14194Y18793D01*
X14204D01*
Y18803D01*
X14194Y18813D01*
X14204Y18823D01*
Y18833D01*
X14194D01*
X14184Y18823D01*
X14174Y18833D01*
X14164D01*
Y18823D01*
X14174Y18813D01*
X14164Y18803D01*
Y18793D01*
X13653Y18577D02*
X13663D01*
X13673Y18587D01*
X13683Y18577D01*
X13693D01*
Y18587D01*
X13683Y18597D01*
X13693Y18607D01*
Y18617D01*
X13683D01*
X13673Y18607D01*
X13663Y18617D01*
X13653D01*
Y18607D01*
X13663Y18597D01*
X13653Y18587D01*
Y18577D01*
X13688Y18609D02*
X13698D01*
X13708Y18619D01*
X13718Y18609D01*
X13728D01*
Y18619D01*
X13718Y18629D01*
X13728Y18639D01*
Y18649D01*
X13718D01*
X13708Y18639D01*
X13698Y18649D01*
X13688D01*
Y18639D01*
X13698Y18629D01*
X13688Y18619D01*
Y18609D01*
X13684Y18546D02*
X13694D01*
X13704Y18556D01*
X13714Y18546D01*
X13724D01*
Y18556D01*
X13714Y18566D01*
X13724Y18576D01*
Y18586D01*
X13714D01*
X13704Y18576D01*
X13694Y18586D01*
X13684D01*
Y18576D01*
X13694Y18566D01*
X13684Y18556D01*
Y18546D01*
X13770Y18612D02*
X13780D01*
X13790Y18622D01*
X13800Y18612D01*
X13810D01*
Y18622D01*
X13800Y18632D01*
X13810Y18642D01*
Y18652D01*
X13800D01*
X13790Y18642D01*
X13780Y18652D01*
X13770D01*
Y18642D01*
X13780Y18632D01*
X13770Y18622D01*
Y18612D01*
X13788Y18546D02*
X13798D01*
X13808Y18556D01*
X13818Y18546D01*
X13828D01*
Y18556D01*
X13818Y18566D01*
X13828Y18576D01*
Y18586D01*
X13818D01*
X13808Y18576D01*
X13798Y18586D01*
X13788D01*
Y18576D01*
X13798Y18566D01*
X13788Y18556D01*
Y18546D01*
X13853Y18547D02*
X13863D01*
X13873Y18557D01*
X13883Y18547D01*
X13893D01*
Y18557D01*
X13883Y18567D01*
X13893Y18577D01*
Y18587D01*
X13883D01*
X13873Y18577D01*
X13863Y18587D01*
X13853D01*
Y18577D01*
X13863Y18567D01*
X13853Y18557D01*
Y18547D01*
X13888Y18613D02*
X13898D01*
X13908Y18623D01*
X13918Y18613D01*
X13928D01*
Y18623D01*
X13918Y18633D01*
X13928Y18643D01*
Y18653D01*
X13918D01*
X13908Y18643D01*
X13898Y18653D01*
X13888D01*
Y18643D01*
X13898Y18633D01*
X13888Y18623D01*
Y18613D01*
X13927Y18582D02*
X13937D01*
X13947Y18592D01*
X13957Y18582D01*
X13967D01*
Y18592D01*
X13957Y18602D01*
X13967Y18612D01*
Y18622D01*
X13957D01*
X13947Y18612D01*
X13937Y18622D01*
X13927D01*
Y18612D01*
X13937Y18602D01*
X13927Y18592D01*
Y18582D01*
X13967Y18614D02*
X13977D01*
X13987Y18624D01*
X13997Y18614D01*
X14007D01*
Y18624D01*
X13997Y18634D01*
X14007Y18644D01*
Y18654D01*
X13997D01*
X13987Y18644D01*
X13977Y18654D01*
X13967D01*
Y18644D01*
X13977Y18634D01*
X13967Y18624D01*
Y18614D01*
X14046Y18613D02*
X14056D01*
X14066Y18623D01*
X14076Y18613D01*
X14086D01*
Y18623D01*
X14076Y18633D01*
X14086Y18643D01*
Y18653D01*
X14076D01*
X14066Y18643D01*
X14056Y18653D01*
X14046D01*
Y18643D01*
X14056Y18633D01*
X14046Y18623D01*
Y18613D01*
X14085Y18561D02*
X14095D01*
X14105Y18571D01*
X14115Y18561D01*
X14125D01*
Y18571D01*
X14115Y18581D01*
X14125Y18591D01*
Y18601D01*
X14115D01*
X14105Y18591D01*
X14095Y18601D01*
X14085D01*
Y18591D01*
X14095Y18581D01*
X14085Y18571D01*
Y18561D01*
X17289Y16970D02*
X17299D01*
X17309Y16980D01*
X17319Y16970D01*
X17329D01*
Y16980D01*
X17319Y16990D01*
X17329Y17000D01*
Y17010D01*
X17319D01*
X17309Y17000D01*
X17299Y17010D01*
X17289D01*
Y17000D01*
X17299Y16990D01*
X17289Y16980D01*
Y16970D01*
X17288Y16809D02*
X17298D01*
X17308Y16819D01*
X17318Y16809D01*
X17328D01*
Y16819D01*
X17318Y16829D01*
X17328Y16839D01*
Y16849D01*
X17318D01*
X17308Y16839D01*
X17298Y16849D01*
X17288D01*
Y16839D01*
X17298Y16829D01*
X17288Y16819D01*
Y16809D01*
X13819Y18785D02*
X13829D01*
X13839Y18795D01*
X13849Y18785D01*
X13859D01*
Y18795D01*
X13849Y18805D01*
X13859Y18815D01*
Y18825D01*
X13849D01*
X13839Y18815D01*
X13829Y18825D01*
X13819D01*
Y18815D01*
X13829Y18805D01*
X13819Y18795D01*
Y18785D01*
X13721D02*
X13731D01*
X13741Y18795D01*
X13751Y18785D01*
X13761D01*
Y18795D01*
X13751Y18805D01*
X13761Y18815D01*
Y18825D01*
X13751D01*
X13741Y18815D01*
X13731Y18825D01*
X13721D01*
Y18815D01*
X13731Y18805D01*
X13721Y18795D01*
Y18785D01*
X13498Y18669D02*
X13508D01*
X13518Y18679D01*
X13528Y18669D01*
X13538D01*
Y18679D01*
X13528Y18689D01*
X13538Y18699D01*
Y18709D01*
X13528D01*
X13518Y18699D01*
X13508Y18709D01*
X13498D01*
Y18699D01*
X13508Y18689D01*
X13498Y18679D01*
Y18669D01*
X13593Y18603D02*
X13603D01*
X13613Y18613D01*
X13623Y18603D01*
X13633D01*
Y18613D01*
X13623Y18623D01*
X13633Y18633D01*
Y18643D01*
X13623D01*
X13613Y18633D01*
X13603Y18643D01*
X13593D01*
Y18633D01*
X13603Y18623D01*
X13593Y18613D01*
Y18603D01*
X14123Y18590D02*
X14133D01*
X14143Y18600D01*
X14153Y18590D01*
X14163D01*
Y18600D01*
X14153Y18610D01*
X14163Y18620D01*
Y18630D01*
X14153D01*
X14143Y18620D01*
X14133Y18630D01*
X14123D01*
Y18620D01*
X14133Y18610D01*
X14123Y18600D01*
Y18590D01*
X14214Y18670D02*
X14224D01*
X14234Y18680D01*
X14244Y18670D01*
X14254D01*
Y18680D01*
X14244Y18690D01*
X14254Y18700D01*
Y18710D01*
X14244D01*
X14234Y18700D01*
X14224Y18710D01*
X14214D01*
Y18700D01*
X14224Y18690D01*
X14214Y18680D01*
Y18670D01*
X14006Y18590D02*
X14016D01*
X14026Y18600D01*
X14036Y18590D01*
X14046D01*
Y18600D01*
X14036Y18610D01*
X14046Y18620D01*
Y18630D01*
X14036D01*
X14026Y18620D01*
X14016Y18630D01*
X14006D01*
Y18620D01*
X14016Y18610D01*
X14006Y18600D01*
Y18590D01*
X13573Y18927D02*
X13583D01*
X13593Y18937D01*
X13603Y18927D01*
X13613D01*
Y18937D01*
X13603Y18947D01*
X13613Y18957D01*
Y18967D01*
X13603D01*
X13593Y18957D01*
X13583Y18967D01*
X13573D01*
Y18957D01*
X13583Y18947D01*
X13573Y18937D01*
Y18927D01*
X13491Y18857D02*
X13501D01*
X13511Y18867D01*
X13521Y18857D01*
X13531D01*
Y18867D01*
X13521Y18877D01*
X13531Y18887D01*
Y18897D01*
X13521D01*
X13511Y18887D01*
X13501Y18897D01*
X13491D01*
Y18887D01*
X13501Y18877D01*
X13491Y18867D01*
Y18857D01*
X20015Y9441D02*
X20035D01*
X20055Y9461D01*
X20075Y9441D01*
X20095D01*
Y9461D01*
X20075Y9481D01*
X20095Y9501D01*
Y9521D01*
X20075D01*
X20055Y9501D01*
X20035Y9521D01*
X20015D01*
Y9501D01*
X20035Y9481D01*
X20015Y9461D01*
Y9441D01*
Y9241D02*
X20035Y9281D01*
X20015Y9321D01*
X20055Y9301D01*
X20095Y9321D01*
X20075Y9281D01*
X20095Y9241D01*
X20055Y9261D01*
X20015Y9241D01*
Y9041D02*
Y9121D01*
X20095D01*
Y9041D01*
X20015D01*
X20055Y8841D02*
X20015Y8921D01*
X20095D01*
X20055Y8841D01*
X20035Y8461D02*
Y8441D01*
X20075D01*
Y8461D01*
X20095D01*
Y8501D01*
X20075D01*
Y8521D01*
X20035D01*
Y8501D01*
X20015D01*
Y8461D01*
X20035D01*
X20055Y8241D02*
X20075Y8261D01*
X20095D01*
X20075Y8281D01*
X20095Y8301D01*
X20075D01*
X20055Y8321D01*
X20035Y8301D01*
X20015D01*
X20035Y8281D01*
X20015Y8261D01*
X20035D01*
X20055Y8241D01*
D20*
X14253Y18783D02*
X14251Y18792D01*
X14244Y18799D01*
X14235Y18803D01*
X14226Y18802D01*
X14218Y18796D01*
X14213Y18788D01*
Y18778D01*
X14218Y18770D01*
X14226Y18764D01*
X14235Y18763D01*
X14244Y18766D01*
X14251Y18774D01*
X14253Y18783D01*
D21*
X20095Y8681D02*
X20094Y8691D01*
X20090Y8701D01*
X20084Y8709D01*
X20076Y8715D01*
X20067Y8720D01*
X20057Y8721D01*
X20047Y8721D01*
X20038Y8718D01*
X20029Y8712D01*
X20023Y8705D01*
X20018Y8696D01*
X20015Y8687D01*
Y8676D01*
X20018Y8667D01*
X20023Y8658D01*
X20029Y8651D01*
X20038Y8645D01*
X20047Y8642D01*
X20057Y8642D01*
X20067Y8643D01*
X20076Y8648D01*
X20084Y8654D01*
X20090Y8662D01*
X20094Y8672D01*
X20095Y8681D01*
M02*
