%FSLAX23Y23*%
%MOIN*%
G70*
G01*
G75*
G04 Layer_Physical_Order=4*
G04 Layer_Color=16737945*
%ADD10C,0.010*%
%ADD11R,0.010X0.035*%
%ADD12R,0.063X0.071*%
%ADD13R,0.059X0.118*%
%ADD14C,0.030*%
%ADD15C,0.012*%
%ADD16C,0.008*%
%ADD17C,0.005*%
%ADD18C,0.012*%
%ADD19C,0.012*%
%ADD20C,0.065*%
%ADD21C,0.039*%
%ADD22C,0.035*%
%ADD23C,0.070*%
%ADD24C,0.055*%
%ADD25C,0.071*%
%ADD26C,0.024*%
%ADD27C,0.015*%
G36*
X14393Y18517D02*
X14390Y18515D01*
X13367D01*
Y19017D01*
X13367Y19017D01*
X13367Y19017D01*
X13368Y19019D01*
X14393D01*
Y18517D01*
D02*
G37*
G36*
X13928Y13294D02*
X13976Y13289D01*
X14025Y13280D01*
X14072Y13268D01*
X14118Y13252D01*
X14164Y13234D01*
X14208Y13212D01*
X14250Y13187D01*
X14290Y13159D01*
X14328Y13128D01*
X14364Y13094D01*
X14397Y13059D01*
X14428Y13020D01*
X14456Y12980D01*
X14481Y12938D01*
X14503Y12894D01*
X14522Y12849D01*
X14537Y12802D01*
X14549Y12755D01*
X14558Y12707D01*
X14563Y12658D01*
X14565Y12609D01*
X14563Y12560D01*
X14558Y12511D01*
X14549Y12463D01*
X14537Y12416D01*
X14522Y12369D01*
X14503Y12324D01*
X14481Y12280D01*
X14456Y12238D01*
X14428Y12198D01*
X14397Y12160D01*
X14364Y12124D01*
X14328Y12090D01*
X14290Y12060D01*
X14250Y12032D01*
X14208Y12007D01*
X14164Y11985D01*
X14118Y11966D01*
X14072Y11950D01*
X14025Y11938D01*
X13976Y11930D01*
X13928Y11924D01*
X13879Y11923D01*
X13830Y11924D01*
X13781Y11930D01*
X13733Y11938D01*
X13685Y11950D01*
X13639Y11966D01*
X13593Y11985D01*
X13550Y12007D01*
X13507Y12032D01*
X13467Y12060D01*
X13429Y12090D01*
X13393Y12124D01*
X13360Y12160D01*
X13329Y12198D01*
X13301Y12238D01*
X13276Y12280D01*
X13254Y12324D01*
X13235Y12369D01*
X13220Y12416D01*
X13208Y12463D01*
X13199Y12511D01*
X13194Y12560D01*
X13192Y12609D01*
X13194Y12658D01*
X13199Y12707D01*
X13208Y12755D01*
X13220Y12802D01*
X13235Y12849D01*
X13254Y12894D01*
X13276Y12938D01*
X13301Y12980D01*
X13329Y13020D01*
X13360Y13059D01*
X13393Y13094D01*
X13429Y13128D01*
X13467Y13159D01*
X13507Y13187D01*
X13550Y13212D01*
X13593Y13234D01*
X13639Y13252D01*
X13685Y13268D01*
X13733Y13280D01*
X13781Y13289D01*
X13830Y13294D01*
X13879Y13296D01*
X13928Y13294D01*
D02*
G37*
%LPC*%
G36*
X13762Y12696D02*
X13743Y12671D01*
X13747Y12669D01*
X13756Y12666D01*
X13765Y12666D01*
X13775Y12668D01*
X13783Y12673D01*
X13786Y12676D01*
X13762Y12696D01*
D02*
G37*
G36*
X13884Y12645D02*
Y12614D01*
X13915D01*
X13914Y12619D01*
X13910Y12627D01*
X13905Y12635D01*
X13897Y12641D01*
X13888Y12645D01*
X13884Y12645D01*
D02*
G37*
G36*
X14000Y12739D02*
X13990Y12739D01*
X13981Y12736D01*
X13973Y12731D01*
X13966Y12724D01*
X13962Y12716D01*
X13959Y12707D01*
X13959Y12697D01*
X13962Y12688D01*
X13967Y12680D01*
X13974Y12673D01*
X13982Y12668D01*
X13992Y12666D01*
X14001Y12666D01*
X14011Y12669D01*
X14019Y12674D01*
X14025Y12681D01*
X14030Y12689D01*
X14032Y12698D01*
X14032Y12708D01*
X14030Y12717D01*
X14025Y12726D01*
X14018Y12732D01*
X14009Y12737D01*
X14000Y12739D01*
D02*
G37*
G36*
X13483Y12775D02*
X13473Y12774D01*
X13464Y12771D01*
X13456Y12766D01*
X13450Y12758D01*
X13446Y12750D01*
X13444Y12740D01*
X13445Y12731D01*
X13448Y12722D01*
X13454Y12714D01*
X13461Y12707D01*
X13470Y12703D01*
X13479Y12701D01*
X13489Y12702D01*
X13498Y12705D01*
X13506Y12711D01*
X13512Y12718D01*
X13516Y12727D01*
X13518Y12736D01*
X13517Y12746D01*
X13514Y12755D01*
X13508Y12763D01*
X13501Y12769D01*
X13492Y12773D01*
X13483Y12775D01*
D02*
G37*
G36*
X13788Y12728D02*
X13768Y12703D01*
X13793Y12684D01*
X13795Y12688D01*
X13798Y12697D01*
X13798Y12707D01*
X13796Y12716D01*
X13791Y12724D01*
X13788Y12728D01*
D02*
G37*
G36*
X13730Y12721D02*
X13728Y12717D01*
X13725Y12708D01*
X13725Y12698D01*
X13727Y12689D01*
X13732Y12681D01*
X13735Y12677D01*
X13754Y12702D01*
X13730Y12721D01*
D02*
G37*
G36*
X13874Y12645D02*
X13869Y12645D01*
X13860Y12641D01*
X13853Y12635D01*
X13847Y12627D01*
X13843Y12619D01*
X13842Y12614D01*
X13874D01*
Y12645D01*
D02*
G37*
G36*
X13915Y12604D02*
X13884D01*
Y12573D01*
X13888Y12574D01*
X13897Y12577D01*
X13905Y12583D01*
X13910Y12591D01*
X13914Y12600D01*
X13915Y12604D01*
D02*
G37*
G36*
X13874D02*
X13842D01*
X13843Y12600D01*
X13847Y12591D01*
X13853Y12583D01*
X13860Y12577D01*
X13869Y12574D01*
X13874Y12573D01*
Y12604D01*
D02*
G37*
G36*
X13719Y12610D02*
X13715Y12608D01*
X13707Y12603D01*
X13701Y12595D01*
X13697Y12587D01*
X13696Y12577D01*
X13696Y12573D01*
X13726Y12579D01*
X13719Y12610D01*
D02*
G37*
G36*
X13602Y12680D02*
X13592Y12680D01*
X13583Y12677D01*
X13575Y12672D01*
X13568Y12665D01*
X13563Y12657D01*
X13561Y12648D01*
X13561Y12638D01*
X13564Y12629D01*
X13569Y12620D01*
X13576Y12614D01*
X13584Y12609D01*
X13593Y12607D01*
X13603Y12607D01*
X13612Y12609D01*
X13620Y12614D01*
X13627Y12621D01*
X13632Y12629D01*
X13634Y12639D01*
X13634Y12648D01*
X13632Y12658D01*
X13627Y12666D01*
X13620Y12673D01*
X13611Y12677D01*
X13602Y12680D01*
D02*
G37*
G36*
X14155Y12680D02*
X14146Y12677D01*
X14137Y12673D01*
X14131Y12666D01*
X14126Y12658D01*
X14123Y12648D01*
X14123Y12639D01*
X14125Y12629D01*
X14130Y12621D01*
X14137Y12614D01*
X14145Y12609D01*
X14154Y12607D01*
X14164Y12607D01*
X14173Y12609D01*
X14182Y12614D01*
X14189Y12620D01*
X14193Y12629D01*
X14196Y12638D01*
X14196Y12648D01*
X14194Y12657D01*
X14189Y12665D01*
X14182Y12672D01*
X14174Y12677D01*
X14165Y12680D01*
X14155Y12680D01*
D02*
G37*
G36*
X13734Y12612D02*
X13729Y12612D01*
X13736Y12582D01*
X13766Y12589D01*
X13765Y12593D01*
X13759Y12601D01*
X13752Y12607D01*
X13743Y12611D01*
X13734Y12612D01*
D02*
G37*
G36*
X13879Y12929D02*
X13869Y12928D01*
X13860Y12924D01*
X13853Y12918D01*
X13847Y12910D01*
X13843Y12902D01*
X13842Y12892D01*
X13843Y12883D01*
X13847Y12874D01*
X13853Y12866D01*
X13860Y12860D01*
X13869Y12857D01*
X13879Y12855D01*
X13888Y12857D01*
X13897Y12860D01*
X13905Y12866D01*
X13910Y12874D01*
X13914Y12883D01*
X13915Y12892D01*
X13914Y12902D01*
X13910Y12910D01*
X13905Y12918D01*
X13897Y12924D01*
X13888Y12928D01*
X13879Y12929D01*
D02*
G37*
G36*
X13749Y12896D02*
X13739Y12896D01*
X13730Y12892D01*
X13722Y12887D01*
X13716Y12879D01*
X13712Y12871D01*
X13710Y12861D01*
X13711Y12852D01*
X13714Y12843D01*
X13720Y12835D01*
X13727Y12829D01*
X13736Y12825D01*
X13746Y12823D01*
X13755Y12824D01*
X13764Y12827D01*
X13772Y12833D01*
X13778Y12840D01*
X13782Y12849D01*
X13784Y12858D01*
X13783Y12868D01*
X13780Y12877D01*
X13774Y12885D01*
X13767Y12891D01*
X13758Y12895D01*
X13749Y12896D01*
D02*
G37*
G36*
X14009Y12896D02*
X13999Y12895D01*
X13990Y12891D01*
X13983Y12885D01*
X13978Y12877D01*
X13974Y12868D01*
X13973Y12858D01*
X13975Y12849D01*
X13979Y12840D01*
X13985Y12833D01*
X13993Y12827D01*
X14002Y12824D01*
X14012Y12823D01*
X14021Y12825D01*
X14030Y12829D01*
X14037Y12835D01*
X14043Y12843D01*
X14046Y12852D01*
X14047Y12861D01*
X14045Y12871D01*
X14041Y12879D01*
X14035Y12887D01*
X14027Y12892D01*
X14018Y12896D01*
X14009Y12896D01*
D02*
G37*
G36*
X13747Y13043D02*
X13738Y13042D01*
X13729Y13037D01*
X13722Y13031D01*
X13717Y13023D01*
X13713Y13014D01*
X13713Y13005D01*
X13714Y12995D01*
X13719Y12987D01*
X13725Y12979D01*
X13733Y12974D01*
X13742Y12971D01*
X13751Y12970D01*
X13761Y12972D01*
X13769Y12976D01*
X13777Y12982D01*
X13782Y12990D01*
X13785Y12999D01*
X13786Y13009D01*
X13784Y13018D01*
X13780Y13027D01*
X13774Y13034D01*
X13766Y13039D01*
X13757Y13043D01*
X13747Y13043D01*
D02*
G37*
G36*
X14128Y12984D02*
X14119Y12984D01*
X14109Y12981D01*
X14101Y12976D01*
X14094Y12969D01*
X14090Y12960D01*
X14088Y12951D01*
X14088Y12941D01*
X14091Y12932D01*
X14096Y12924D01*
X14103Y12917D01*
X14111Y12913D01*
X14120Y12911D01*
X14130Y12911D01*
X14139Y12914D01*
X14147Y12919D01*
X14154Y12926D01*
X14159Y12934D01*
X14161Y12943D01*
X14161Y12953D01*
X14158Y12962D01*
X14153Y12970D01*
X14146Y12977D01*
X14137Y12982D01*
X14128Y12984D01*
D02*
G37*
G36*
X13629D02*
X13620Y12982D01*
X13611Y12977D01*
X13604Y12970D01*
X13599Y12962D01*
X13597Y12953D01*
X13596Y12943D01*
X13599Y12934D01*
X13603Y12926D01*
X13610Y12919D01*
X13618Y12914D01*
X13627Y12911D01*
X13637Y12911D01*
X13646Y12913D01*
X13655Y12917D01*
X13662Y12924D01*
X13667Y12932D01*
X13669Y12941D01*
X13670Y12951D01*
X13667Y12960D01*
X13663Y12969D01*
X13656Y12976D01*
X13648Y12981D01*
X13639Y12984D01*
X13629Y12984D01*
D02*
G37*
G36*
X14213Y12891D02*
X14204Y12889D01*
X14195Y12885D01*
X14188Y12878D01*
X14183Y12870D01*
X14180Y12861D01*
X14180Y12851D01*
X14182Y12842D01*
X14187Y12833D01*
X14194Y12826D01*
X14202Y12821D01*
X14211Y12818D01*
X14221Y12818D01*
X14230Y12820D01*
X14238Y12825D01*
X14245Y12832D01*
X14250Y12840D01*
X14253Y12849D01*
X14253Y12859D01*
X14251Y12868D01*
X14247Y12876D01*
X14240Y12883D01*
X14232Y12888D01*
X14223Y12891D01*
X14213Y12891D01*
D02*
G37*
G36*
X13879Y12796D02*
X13869Y12795D01*
X13860Y12791D01*
X13853Y12785D01*
X13847Y12777D01*
X13843Y12769D01*
X13842Y12759D01*
X13843Y12750D01*
X13847Y12741D01*
X13853Y12733D01*
X13860Y12727D01*
X13869Y12724D01*
X13879Y12722D01*
X13888Y12724D01*
X13897Y12727D01*
X13905Y12733D01*
X13910Y12741D01*
X13914Y12750D01*
X13915Y12759D01*
X13914Y12769D01*
X13910Y12777D01*
X13905Y12785D01*
X13897Y12791D01*
X13888Y12795D01*
X13879Y12796D01*
D02*
G37*
G36*
X13757Y12739D02*
X13748Y12737D01*
X13739Y12732D01*
X13736Y12729D01*
X13761Y12710D01*
X13780Y12734D01*
X13776Y12736D01*
X13767Y12739D01*
X13757Y12739D01*
D02*
G37*
G36*
X14274Y12775D02*
X14265Y12773D01*
X14256Y12769D01*
X14249Y12763D01*
X14243Y12755D01*
X14240Y12746D01*
X14239Y12736D01*
X14241Y12727D01*
X14245Y12718D01*
X14251Y12711D01*
X14259Y12705D01*
X14268Y12702D01*
X14278Y12701D01*
X14288Y12703D01*
X14296Y12707D01*
X14303Y12714D01*
X14309Y12722D01*
X14312Y12731D01*
X14313Y12740D01*
X14311Y12750D01*
X14307Y12758D01*
X14301Y12766D01*
X14293Y12771D01*
X14284Y12774D01*
X14274Y12775D01*
D02*
G37*
G36*
X13544Y12891D02*
X13535Y12891D01*
X13525Y12888D01*
X13517Y12883D01*
X13511Y12876D01*
X13506Y12868D01*
X13504Y12859D01*
X13504Y12849D01*
X13507Y12840D01*
X13512Y12832D01*
X13519Y12825D01*
X13527Y12820D01*
X13537Y12818D01*
X13546Y12818D01*
X13555Y12821D01*
X13564Y12826D01*
X13570Y12833D01*
X13575Y12842D01*
X13577Y12851D01*
X13577Y12861D01*
X13574Y12870D01*
X13569Y12878D01*
X13562Y12885D01*
X13554Y12889D01*
X13544Y12891D01*
D02*
G37*
G36*
X13649Y12807D02*
X13639Y12806D01*
X13630Y12803D01*
X13622Y12798D01*
X13615Y12791D01*
X13611Y12782D01*
X13609Y12773D01*
X13609Y12763D01*
X13612Y12754D01*
X13618Y12746D01*
X13625Y12740D01*
X13633Y12735D01*
X13643Y12733D01*
X13652Y12734D01*
X13661Y12737D01*
X13670Y12742D01*
X13676Y12749D01*
X13680Y12757D01*
X13682Y12767D01*
X13682Y12776D01*
X13679Y12786D01*
X13674Y12794D01*
X13667Y12800D01*
X13658Y12805D01*
X13649Y12807D01*
D02*
G37*
G36*
X14109Y12807D02*
X14099Y12805D01*
X14091Y12800D01*
X14083Y12794D01*
X14078Y12786D01*
X14075Y12776D01*
X14075Y12767D01*
X14077Y12757D01*
X14081Y12749D01*
X14088Y12742D01*
X14096Y12737D01*
X14105Y12734D01*
X14114Y12733D01*
X14124Y12735D01*
X14132Y12740D01*
X14140Y12746D01*
X14145Y12754D01*
X14148Y12763D01*
X14148Y12773D01*
X14146Y12782D01*
X14142Y12791D01*
X14135Y12798D01*
X14127Y12803D01*
X14118Y12806D01*
X14109Y12807D01*
D02*
G37*
G36*
X14297Y12646D02*
X14287Y12645D01*
X14278Y12641D01*
X14271Y12635D01*
X14265Y12627D01*
X14261Y12619D01*
X14260Y12609D01*
X14261Y12600D01*
X14265Y12591D01*
X14271Y12583D01*
X14278Y12577D01*
X14287Y12574D01*
X14297Y12572D01*
X14306Y12574D01*
X14315Y12577D01*
X14323Y12583D01*
X14328Y12591D01*
X14332Y12600D01*
X14333Y12609D01*
X14332Y12619D01*
X14328Y12627D01*
X14323Y12635D01*
X14315Y12641D01*
X14306Y12645D01*
X14297Y12646D01*
D02*
G37*
G36*
X14068Y12434D02*
X14059Y12433D01*
X14050Y12430D01*
X14042Y12425D01*
X14036Y12418D01*
X14031Y12409D01*
X14029Y12399D01*
X14030Y12390D01*
X14033Y12381D01*
X14039Y12373D01*
X14046Y12367D01*
X14055Y12362D01*
X14064Y12360D01*
X14074Y12361D01*
X14083Y12364D01*
X14091Y12370D01*
X14097Y12377D01*
X14101Y12386D01*
X14103Y12395D01*
X14102Y12405D01*
X14099Y12414D01*
X14094Y12422D01*
X14087Y12428D01*
X14078Y12432D01*
X14068Y12434D01*
D02*
G37*
G36*
X14221Y12400D02*
X14211Y12400D01*
X14202Y12397D01*
X14194Y12392D01*
X14187Y12385D01*
X14182Y12377D01*
X14180Y12367D01*
X14180Y12358D01*
X14183Y12348D01*
X14188Y12340D01*
X14195Y12334D01*
X14204Y12329D01*
X14213Y12327D01*
X14223Y12327D01*
X14232Y12330D01*
X14240Y12335D01*
X14247Y12342D01*
X14251Y12350D01*
X14253Y12360D01*
X14253Y12369D01*
X14250Y12378D01*
X14245Y12387D01*
X14238Y12393D01*
X14230Y12398D01*
X14221Y12400D01*
D02*
G37*
G36*
X13537D02*
X13527Y12398D01*
X13519Y12393D01*
X13512Y12387D01*
X13507Y12378D01*
X13504Y12369D01*
X13504Y12360D01*
X13506Y12350D01*
X13511Y12342D01*
X13517Y12335D01*
X13525Y12330D01*
X13535Y12327D01*
X13544Y12327D01*
X13554Y12329D01*
X13562Y12334D01*
X13569Y12340D01*
X13574Y12348D01*
X13577Y12358D01*
X13577Y12367D01*
X13575Y12377D01*
X13570Y12385D01*
X13564Y12392D01*
X13555Y12397D01*
X13546Y12400D01*
X13537Y12400D01*
D02*
G37*
G36*
X13816Y12467D02*
X13802Y12439D01*
X13807Y12438D01*
X13816Y12437D01*
X13826Y12439D01*
X13834Y12444D01*
X13841Y12450D01*
X13844Y12454D01*
X13816Y12467D01*
D02*
G37*
G36*
X13941Y12467D02*
X13913Y12454D01*
X13916Y12450D01*
X13923Y12444D01*
X13932Y12439D01*
X13941Y12437D01*
X13951Y12438D01*
X13955Y12439D01*
X13941Y12467D01*
D02*
G37*
G36*
X13689Y12434D02*
X13679Y12432D01*
X13671Y12428D01*
X13663Y12422D01*
X13658Y12414D01*
X13655Y12405D01*
X13654Y12395D01*
X13656Y12386D01*
X13660Y12377D01*
X13667Y12370D01*
X13674Y12364D01*
X13684Y12361D01*
X13693Y12361D01*
X13703Y12362D01*
X13711Y12367D01*
X13718Y12373D01*
X13724Y12381D01*
X13727Y12390D01*
X13728Y12399D01*
X13726Y12409D01*
X13722Y12418D01*
X13715Y12425D01*
X13707Y12430D01*
X13698Y12433D01*
X13689Y12434D01*
D02*
G37*
G36*
X13810Y12371D02*
X13801Y12370D01*
X13792Y12366D01*
X13784Y12360D01*
X13779Y12352D01*
X13775Y12343D01*
X13774Y12334D01*
X13775Y12324D01*
X13779Y12315D01*
X13785Y12308D01*
X13793Y12302D01*
X13802Y12299D01*
X13812Y12297D01*
X13821Y12299D01*
X13830Y12303D01*
X13837Y12309D01*
X13843Y12317D01*
X13847Y12325D01*
X13848Y12335D01*
X13846Y12345D01*
X13842Y12353D01*
X13836Y12361D01*
X13829Y12367D01*
X13820Y12370D01*
X13810Y12371D01*
D02*
G37*
G36*
X14006Y12248D02*
X13996Y12247D01*
X13988Y12242D01*
X13980Y12236D01*
X13975Y12228D01*
X13972Y12219D01*
X13971Y12210D01*
X13973Y12200D01*
X13977Y12191D01*
X13983Y12184D01*
X13991Y12179D01*
X14000Y12176D01*
X14010Y12175D01*
X14019Y12177D01*
X14028Y12181D01*
X14035Y12187D01*
X14041Y12195D01*
X14044Y12204D01*
X14045Y12213D01*
X14043Y12223D01*
X14039Y12232D01*
X14032Y12239D01*
X14024Y12244D01*
X14015Y12248D01*
X14006Y12248D01*
D02*
G37*
G36*
X13751D02*
X13742Y12248D01*
X13733Y12244D01*
X13725Y12239D01*
X13719Y12232D01*
X13714Y12223D01*
X13713Y12213D01*
X13713Y12204D01*
X13717Y12195D01*
X13722Y12187D01*
X13729Y12181D01*
X13738Y12177D01*
X13747Y12175D01*
X13757Y12176D01*
X13766Y12179D01*
X13774Y12184D01*
X13780Y12191D01*
X13784Y12200D01*
X13786Y12210D01*
X13785Y12219D01*
X13782Y12228D01*
X13777Y12236D01*
X13769Y12242D01*
X13761Y12247D01*
X13751Y12248D01*
D02*
G37*
G36*
X13879Y12228D02*
X13869Y12227D01*
X13860Y12223D01*
X13853Y12217D01*
X13847Y12209D01*
X13843Y12201D01*
X13842Y12191D01*
X13843Y12182D01*
X13847Y12173D01*
X13853Y12165D01*
X13860Y12159D01*
X13869Y12156D01*
X13879Y12154D01*
X13888Y12156D01*
X13897Y12159D01*
X13905Y12165D01*
X13910Y12173D01*
X13914Y12182D01*
X13915Y12191D01*
X13914Y12201D01*
X13910Y12209D01*
X13905Y12217D01*
X13897Y12223D01*
X13888Y12227D01*
X13879Y12228D01*
D02*
G37*
G36*
X13947Y12371D02*
X13937Y12370D01*
X13929Y12367D01*
X13921Y12361D01*
X13915Y12353D01*
X13911Y12345D01*
X13909Y12335D01*
X13911Y12325D01*
X13914Y12317D01*
X13920Y12309D01*
X13927Y12303D01*
X13936Y12299D01*
X13946Y12297D01*
X13955Y12299D01*
X13964Y12302D01*
X13972Y12308D01*
X13978Y12315D01*
X13982Y12324D01*
X13983Y12334D01*
X13982Y12343D01*
X13979Y12352D01*
X13973Y12360D01*
X13965Y12366D01*
X13957Y12370D01*
X13947Y12371D01*
D02*
G37*
G36*
X14120Y12308D02*
X14111Y12305D01*
X14103Y12301D01*
X14096Y12294D01*
X14091Y12286D01*
X14088Y12277D01*
X14088Y12267D01*
X14090Y12258D01*
X14094Y12249D01*
X14101Y12242D01*
X14109Y12237D01*
X14119Y12235D01*
X14128Y12234D01*
X14137Y12237D01*
X14146Y12241D01*
X14153Y12248D01*
X14158Y12256D01*
X14161Y12265D01*
X14161Y12275D01*
X14159Y12284D01*
X14154Y12293D01*
X14147Y12300D01*
X14139Y12305D01*
X14130Y12307D01*
X14120Y12308D01*
D02*
G37*
G36*
X13637D02*
X13627Y12307D01*
X13618Y12305D01*
X13610Y12300D01*
X13603Y12293D01*
X13599Y12284D01*
X13596Y12275D01*
X13597Y12265D01*
X13599Y12256D01*
X13604Y12248D01*
X13611Y12241D01*
X13620Y12237D01*
X13629Y12234D01*
X13639Y12235D01*
X13648Y12237D01*
X13656Y12242D01*
X13663Y12249D01*
X13667Y12258D01*
X13670Y12267D01*
X13669Y12277D01*
X13667Y12286D01*
X13662Y12294D01*
X13655Y12301D01*
X13646Y12305D01*
X13637Y12308D01*
D02*
G37*
G36*
X13479Y12517D02*
X13470Y12515D01*
X13461Y12511D01*
X13454Y12505D01*
X13448Y12497D01*
X13445Y12488D01*
X13444Y12478D01*
X13446Y12469D01*
X13450Y12460D01*
X13456Y12453D01*
X13464Y12447D01*
X13473Y12444D01*
X13483Y12443D01*
X13492Y12445D01*
X13501Y12449D01*
X13508Y12455D01*
X13514Y12463D01*
X13517Y12472D01*
X13518Y12482D01*
X13516Y12491D01*
X13512Y12500D01*
X13506Y12507D01*
X13498Y12513D01*
X13489Y12516D01*
X13479Y12517D01*
D02*
G37*
G36*
X14023Y12612D02*
X14014Y12611D01*
X14005Y12607D01*
X13998Y12601D01*
X13992Y12593D01*
X13989Y12584D01*
X13988Y12574D01*
X13990Y12565D01*
X13994Y12556D01*
X14000Y12549D01*
X14008Y12543D01*
X14017Y12540D01*
X14026Y12539D01*
X14036Y12541D01*
X14044Y12545D01*
X14052Y12551D01*
X14057Y12558D01*
X14061Y12567D01*
X14062Y12577D01*
X14060Y12587D01*
X14056Y12595D01*
X14050Y12603D01*
X14042Y12608D01*
X14033Y12612D01*
X14023Y12612D01*
D02*
G37*
G36*
X13811Y12511D02*
X13801Y12509D01*
X13793Y12504D01*
X13786Y12498D01*
X13783Y12494D01*
X13811Y12481D01*
X13825Y12509D01*
X13820Y12510D01*
X13811Y12511D01*
D02*
G37*
G36*
X13946Y12511D02*
X13937Y12510D01*
X13932Y12509D01*
X13946Y12481D01*
X13974Y12494D01*
X13972Y12498D01*
X13964Y12504D01*
X13956Y12509D01*
X13946Y12511D01*
D02*
G37*
G36*
X13461Y12646D02*
X13451Y12645D01*
X13442Y12641D01*
X13435Y12635D01*
X13429Y12627D01*
X13425Y12619D01*
X13424Y12609D01*
X13425Y12600D01*
X13429Y12591D01*
X13435Y12583D01*
X13442Y12577D01*
X13451Y12574D01*
X13461Y12572D01*
X13470Y12574D01*
X13479Y12577D01*
X13487Y12583D01*
X13492Y12591D01*
X13496Y12600D01*
X13497Y12609D01*
X13496Y12619D01*
X13492Y12627D01*
X13487Y12635D01*
X13479Y12641D01*
X13470Y12645D01*
X13461Y12646D01*
D02*
G37*
G36*
X13769Y12579D02*
X13738Y12572D01*
X13745Y12542D01*
X13750Y12543D01*
X13757Y12549D01*
X13764Y12556D01*
X13768Y12565D01*
X13769Y12574D01*
X13769Y12579D01*
D02*
G37*
G36*
X13729Y12570D02*
X13698Y12563D01*
X13700Y12559D01*
X13705Y12551D01*
X13713Y12545D01*
X13721Y12541D01*
X13731Y12539D01*
X13736Y12539D01*
X13729Y12570D01*
D02*
G37*
G36*
X13610Y12545D02*
X13601Y12543D01*
X13592Y12539D01*
X13585Y12532D01*
X13580Y12524D01*
X13578Y12515D01*
X13577Y12505D01*
X13580Y12496D01*
X13584Y12487D01*
X13591Y12480D01*
X13599Y12475D01*
X13608Y12472D01*
X13618Y12472D01*
X13627Y12474D01*
X13635Y12479D01*
X13642Y12485D01*
X13648Y12494D01*
X13650Y12503D01*
X13651Y12512D01*
X13648Y12522D01*
X13644Y12530D01*
X13637Y12537D01*
X13629Y12542D01*
X13620Y12545D01*
X13610Y12545D01*
D02*
G37*
G36*
X13779Y12485D02*
X13777Y12481D01*
X13777Y12471D01*
X13779Y12462D01*
X13783Y12453D01*
X13789Y12446D01*
X13793Y12444D01*
X13807Y12472D01*
X13779Y12485D01*
D02*
G37*
G36*
X13978Y12485D02*
X13950Y12472D01*
X13964Y12444D01*
X13968Y12446D01*
X13974Y12453D01*
X13978Y12462D01*
X13980Y12471D01*
X13980Y12481D01*
X13978Y12485D01*
D02*
G37*
G36*
X14278Y12517D02*
X14268Y12516D01*
X14259Y12513D01*
X14251Y12507D01*
X14245Y12500D01*
X14241Y12491D01*
X14239Y12482D01*
X14240Y12472D01*
X14243Y12463D01*
X14249Y12455D01*
X14256Y12449D01*
X14265Y12445D01*
X14274Y12443D01*
X14284Y12444D01*
X14293Y12447D01*
X14301Y12453D01*
X14307Y12460D01*
X14311Y12469D01*
X14313Y12478D01*
X14312Y12488D01*
X14309Y12497D01*
X14303Y12505D01*
X14296Y12511D01*
X14288Y12515D01*
X14278Y12517D01*
D02*
G37*
G36*
X14147Y12545D02*
X14137Y12545D01*
X14128Y12542D01*
X14120Y12537D01*
X14113Y12530D01*
X14109Y12522D01*
X14107Y12512D01*
X14107Y12503D01*
X14110Y12494D01*
X14115Y12485D01*
X14122Y12479D01*
X14130Y12474D01*
X14139Y12472D01*
X14149Y12472D01*
X14158Y12475D01*
X14166Y12480D01*
X14173Y12487D01*
X14178Y12496D01*
X14180Y12505D01*
X14180Y12515D01*
X14177Y12524D01*
X14172Y12532D01*
X14165Y12539D01*
X14156Y12543D01*
X14147Y12545D01*
D02*
G37*
G36*
X13834Y12504D02*
X13820Y12476D01*
X13848Y12463D01*
X13850Y12467D01*
X13850Y12477D01*
X13848Y12486D01*
X13844Y12495D01*
X13838Y12502D01*
X13834Y12504D01*
D02*
G37*
G36*
X13923Y12504D02*
X13920Y12502D01*
X13913Y12495D01*
X13909Y12486D01*
X13907Y12477D01*
X13907Y12467D01*
X13909Y12463D01*
X13937Y12476D01*
X13923Y12504D01*
D02*
G37*
G36*
X14026Y18829D02*
X14020Y18828D01*
X14015Y18824D01*
X14011Y18819D01*
X14010Y18813D01*
X14011Y18807D01*
X14015Y18801D01*
X14020Y18798D01*
X14026Y18797D01*
X14032Y18798D01*
X14038Y18801D01*
X14041Y18807D01*
X14043Y18813D01*
X14041Y18819D01*
X14038Y18824D01*
X14032Y18828D01*
X14026Y18829D01*
D02*
G37*
G36*
X13987D02*
X13981Y18828D01*
X13975Y18824D01*
X13972Y18819D01*
X13971Y18813D01*
X13972Y18807D01*
X13975Y18801D01*
X13981Y18798D01*
X13987Y18797D01*
X13993Y18798D01*
X13998Y18801D01*
X14002Y18807D01*
X14003Y18813D01*
X14002Y18819D01*
X13998Y18824D01*
X13993Y18828D01*
X13987Y18829D01*
D02*
G37*
G36*
X13947D02*
X13941Y18828D01*
X13936Y18824D01*
X13932Y18819D01*
X13931Y18813D01*
X13932Y18807D01*
X13936Y18801D01*
X13941Y18798D01*
X13947Y18797D01*
X13954Y18798D01*
X13959Y18801D01*
X13963Y18807D01*
X13964Y18813D01*
X13963Y18819D01*
X13959Y18824D01*
X13954Y18828D01*
X13947Y18829D01*
D02*
G37*
G36*
X14144D02*
X14138Y18828D01*
X14133Y18824D01*
X14129Y18819D01*
X14128Y18813D01*
X14129Y18807D01*
X14133Y18801D01*
X14138Y18798D01*
X14144Y18797D01*
X14151Y18798D01*
X14156Y18801D01*
X14159Y18807D01*
X14161Y18813D01*
X14159Y18819D01*
X14156Y18824D01*
X14151Y18828D01*
X14144Y18829D01*
D02*
G37*
G36*
X14105D02*
X14099Y18828D01*
X14093Y18824D01*
X14090Y18819D01*
X14089Y18813D01*
X14090Y18807D01*
X14093Y18801D01*
X14099Y18798D01*
X14105Y18797D01*
X14111Y18798D01*
X14116Y18801D01*
X14120Y18807D01*
X14121Y18813D01*
X14120Y18819D01*
X14116Y18824D01*
X14111Y18828D01*
X14105Y18829D01*
D02*
G37*
G36*
X14066D02*
X14059Y18828D01*
X14054Y18824D01*
X14051Y18819D01*
X14049Y18813D01*
X14051Y18807D01*
X14054Y18801D01*
X14059Y18798D01*
X14066Y18797D01*
X14072Y18798D01*
X14077Y18801D01*
X14081Y18807D01*
X14082Y18813D01*
X14081Y18819D01*
X14077Y18824D01*
X14072Y18828D01*
X14066Y18829D01*
D02*
G37*
G36*
X13908D02*
X13902Y18828D01*
X13897Y18824D01*
X13893Y18819D01*
X13892Y18813D01*
X13893Y18807D01*
X13897Y18801D01*
X13902Y18798D01*
X13908Y18797D01*
X13914Y18798D01*
X13920Y18801D01*
X13923Y18807D01*
X13924Y18813D01*
X13923Y18819D01*
X13920Y18824D01*
X13914Y18828D01*
X13908Y18829D01*
D02*
G37*
G36*
X13741Y18821D02*
X13735Y18820D01*
X13729Y18816D01*
X13726Y18811D01*
X13724Y18805D01*
X13726Y18799D01*
X13729Y18793D01*
X13735Y18790D01*
X13741Y18789D01*
X13747Y18790D01*
X13752Y18793D01*
X13756Y18799D01*
X13757Y18805D01*
X13756Y18811D01*
X13752Y18816D01*
X13747Y18820D01*
X13741Y18821D01*
D02*
G37*
G36*
X13659Y18796D02*
X13653Y18794D01*
X13648Y18791D01*
X13644Y18786D01*
X13643Y18779D01*
X13644Y18773D01*
X13648Y18768D01*
X13653Y18764D01*
X13659Y18763D01*
X13665Y18764D01*
X13671Y18768D01*
X13674Y18773D01*
X13675Y18779D01*
X13674Y18786D01*
X13671Y18791D01*
X13665Y18794D01*
X13659Y18796D01*
D02*
G37*
G36*
X13524Y18805D02*
X13516Y18803D01*
X13509Y18799D01*
X13504Y18791D01*
X13502Y18783D01*
X13504Y18774D01*
X13509Y18767D01*
X13516Y18762D01*
X13524Y18761D01*
X13533Y18762D01*
X13540Y18767D01*
X13545Y18774D01*
X13546Y18783D01*
X13545Y18791D01*
X13540Y18799D01*
X13533Y18803D01*
X13524Y18805D01*
D02*
G37*
G36*
X13790Y18829D02*
X13784Y18828D01*
X13778Y18824D01*
X13775Y18819D01*
X13774Y18813D01*
X13775Y18807D01*
X13778Y18801D01*
X13784Y18798D01*
X13790Y18797D01*
X13796Y18798D01*
X13802Y18801D01*
X13805Y18807D01*
X13806Y18813D01*
X13805Y18819D01*
X13802Y18824D01*
X13796Y18828D01*
X13790Y18829D01*
D02*
G37*
G36*
X13633D02*
X13626Y18828D01*
X13621Y18824D01*
X13617Y18819D01*
X13616Y18813D01*
X13617Y18807D01*
X13621Y18801D01*
X13626Y18798D01*
X13633Y18797D01*
X13639Y18798D01*
X13644Y18801D01*
X13648Y18807D01*
X13649Y18813D01*
X13648Y18819D01*
X13644Y18824D01*
X13639Y18828D01*
X13633Y18829D01*
D02*
G37*
G36*
X13839Y18821D02*
X13833Y18820D01*
X13828Y18816D01*
X13824Y18811D01*
X13823Y18805D01*
X13824Y18799D01*
X13828Y18793D01*
X13833Y18790D01*
X13839Y18789D01*
X13845Y18790D01*
X13851Y18793D01*
X13854Y18799D01*
X13856Y18805D01*
X13854Y18811D01*
X13851Y18816D01*
X13845Y18820D01*
X13839Y18821D01*
D02*
G37*
G36*
X14184Y18829D02*
X14177Y18828D01*
X14172Y18824D01*
X14169Y18819D01*
X14167Y18813D01*
X14169Y18807D01*
X14172Y18801D01*
X14177Y18798D01*
X14184Y18797D01*
X14190Y18798D01*
X14195Y18801D01*
X14199Y18807D01*
X14200Y18813D01*
X14199Y18819D01*
X14195Y18824D01*
X14190Y18828D01*
X14184Y18829D01*
D02*
G37*
G36*
X13698Y18954D02*
Y18944D01*
X13708D01*
X13708Y18945D01*
X13704Y18950D01*
X13699Y18954D01*
X13698Y18954D01*
D02*
G37*
G36*
X13688D02*
X13686Y18954D01*
X13681Y18950D01*
X13677Y18945D01*
X13677Y18944D01*
X13688D01*
Y18954D01*
D02*
G37*
G36*
X13553Y18953D02*
X13551Y18953D01*
X13546Y18949D01*
X13543Y18944D01*
X13542Y18943D01*
X13553D01*
Y18953D01*
D02*
G37*
G36*
X13856Y18957D02*
Y18947D01*
X13866D01*
X13866Y18948D01*
X13863Y18953D01*
X13857Y18957D01*
X13856Y18957D01*
D02*
G37*
G36*
X13846D02*
X13845Y18957D01*
X13839Y18953D01*
X13836Y18948D01*
X13836Y18947D01*
X13846D01*
Y18957D01*
D02*
G37*
G36*
X13593Y18963D02*
X13587Y18962D01*
X13582Y18958D01*
X13578Y18953D01*
X13577Y18947D01*
X13572Y18946D01*
X13569Y18949D01*
X13564Y18953D01*
X13563Y18953D01*
Y18943D01*
X13573D01*
X13574Y18938D01*
X13579Y18939D01*
X13582Y18935D01*
X13587Y18932D01*
X13593Y18930D01*
X13599Y18932D01*
X13605Y18935D01*
X13608Y18940D01*
X13609Y18947D01*
X13608Y18953D01*
X13605Y18958D01*
X13599Y18962D01*
X13593Y18963D01*
D02*
G37*
G36*
X13866Y18937D02*
X13856D01*
Y18926D01*
X13857Y18927D01*
X13863Y18930D01*
X13866Y18936D01*
X13866Y18937D01*
D02*
G37*
G36*
X13573Y18933D02*
X13563D01*
Y18922D01*
X13564Y18923D01*
X13569Y18926D01*
X13573Y18932D01*
X13573Y18933D01*
D02*
G37*
G36*
X13553D02*
X13542D01*
X13543Y18932D01*
X13546Y18926D01*
X13551Y18923D01*
X13553Y18922D01*
Y18933D01*
D02*
G37*
G36*
X13511Y18893D02*
X13505Y18892D01*
X13500Y18888D01*
X13496Y18883D01*
X13495Y18877D01*
X13496Y18871D01*
X13500Y18865D01*
X13505Y18862D01*
X13511Y18860D01*
X13518Y18862D01*
X13523Y18865D01*
X13527Y18871D01*
X13528Y18877D01*
X13527Y18883D01*
X13523Y18888D01*
X13518Y18892D01*
X13511Y18893D01*
D02*
G37*
G36*
X13846Y18937D02*
X13836D01*
X13836Y18936D01*
X13839Y18930D01*
X13845Y18927D01*
X13846Y18926D01*
Y18937D01*
D02*
G37*
G36*
X13708Y18934D02*
X13698D01*
Y18923D01*
X13699Y18924D01*
X13704Y18927D01*
X13708Y18933D01*
X13708Y18934D01*
D02*
G37*
G36*
X13688D02*
X13677D01*
X13677Y18933D01*
X13681Y18927D01*
X13686Y18924D01*
X13688Y18923D01*
Y18934D01*
D02*
G37*
G36*
X14233Y18807D02*
X14224Y18805D01*
X14216Y18800D01*
X14211Y18792D01*
X14209Y18783D01*
X14211Y18774D01*
X14216Y18766D01*
X14224Y18761D01*
X14233Y18759D01*
X14242Y18761D01*
X14250Y18766D01*
X14255Y18774D01*
X14257Y18783D01*
X14255Y18792D01*
X14250Y18800D01*
X14242Y18805D01*
X14233Y18807D01*
D02*
G37*
G36*
X14143Y18626D02*
X14137Y18625D01*
X14132Y18622D01*
X14128Y18616D01*
X14127Y18610D01*
X14128Y18604D01*
X14132Y18599D01*
X14137Y18595D01*
X14143Y18594D01*
X14150Y18595D01*
X14155Y18599D01*
X14158Y18604D01*
X14160Y18610D01*
X14158Y18616D01*
X14155Y18622D01*
X14150Y18625D01*
X14143Y18626D01*
D02*
G37*
G36*
X14026D02*
X14020Y18625D01*
X14015Y18622D01*
X14011Y18616D01*
X14010Y18610D01*
X14011Y18604D01*
X14015Y18599D01*
X14020Y18595D01*
X14026Y18594D01*
X14032Y18595D01*
X14038Y18599D01*
X14041Y18604D01*
X14043Y18610D01*
X14041Y18616D01*
X14038Y18622D01*
X14032Y18625D01*
X14026Y18626D01*
D02*
G37*
G36*
X13947Y18619D02*
X13941Y18617D01*
X13936Y18614D01*
X13932Y18608D01*
X13931Y18602D01*
X13932Y18596D01*
X13936Y18591D01*
X13941Y18587D01*
X13947Y18586D01*
X13954Y18587D01*
X13959Y18591D01*
X13963Y18596D01*
X13964Y18602D01*
X13963Y18608D01*
X13959Y18614D01*
X13954Y18617D01*
X13947Y18619D01*
D02*
G37*
G36*
X13790Y18648D02*
X13784Y18647D01*
X13778Y18643D01*
X13775Y18638D01*
X13774Y18632D01*
X13775Y18625D01*
X13778Y18620D01*
X13784Y18617D01*
X13790Y18615D01*
X13796Y18617D01*
X13802Y18620D01*
X13805Y18625D01*
X13806Y18632D01*
X13805Y18638D01*
X13802Y18643D01*
X13796Y18647D01*
X13790Y18648D01*
D02*
G37*
G36*
X13708Y18645D02*
X13702Y18644D01*
X13697Y18640D01*
X13693Y18635D01*
X13692Y18629D01*
X13693Y18623D01*
X13697Y18617D01*
X13702Y18614D01*
X13708Y18612D01*
X13715Y18614D01*
X13720Y18617D01*
X13723Y18623D01*
X13725Y18629D01*
X13723Y18635D01*
X13720Y18640D01*
X13715Y18644D01*
X13708Y18645D01*
D02*
G37*
G36*
X13613Y18639D02*
X13607Y18638D01*
X13601Y18634D01*
X13598Y18629D01*
X13597Y18623D01*
X13598Y18617D01*
X13601Y18611D01*
X13607Y18608D01*
X13613Y18607D01*
X13619Y18608D01*
X13624Y18611D01*
X13628Y18617D01*
X13629Y18623D01*
X13628Y18629D01*
X13624Y18634D01*
X13619Y18638D01*
X13613Y18639D01*
D02*
G37*
G36*
X13673Y18614D02*
X13667Y18612D01*
X13661Y18609D01*
X13658Y18604D01*
X13657Y18597D01*
X13658Y18591D01*
X13661Y18586D01*
X13667Y18582D01*
X13673Y18581D01*
X13679Y18582D01*
X13684Y18586D01*
X13688Y18591D01*
X13689Y18597D01*
X13688Y18604D01*
X13684Y18609D01*
X13679Y18612D01*
X13673Y18614D01*
D02*
G37*
G36*
X13704Y18582D02*
X13698Y18581D01*
X13693Y18577D01*
X13689Y18572D01*
X13688Y18566D01*
X13689Y18560D01*
X13693Y18554D01*
X13698Y18551D01*
X13704Y18549D01*
X13711Y18551D01*
X13716Y18554D01*
X13719Y18560D01*
X13721Y18566D01*
X13719Y18572D01*
X13716Y18577D01*
X13711Y18581D01*
X13704Y18582D01*
D02*
G37*
G36*
X13879Y13064D02*
X13869Y13063D01*
X13860Y13059D01*
X13853Y13053D01*
X13847Y13045D01*
X13843Y13037D01*
X13842Y13027D01*
X13843Y13018D01*
X13847Y13009D01*
X13853Y13001D01*
X13860Y12995D01*
X13869Y12992D01*
X13879Y12990D01*
X13888Y12992D01*
X13897Y12995D01*
X13905Y13001D01*
X13910Y13009D01*
X13914Y13018D01*
X13915Y13027D01*
X13914Y13037D01*
X13910Y13045D01*
X13905Y13053D01*
X13897Y13059D01*
X13888Y13063D01*
X13879Y13064D01*
D02*
G37*
G36*
X14010Y13043D02*
X14000Y13043D01*
X13991Y13039D01*
X13983Y13034D01*
X13977Y13027D01*
X13973Y13018D01*
X13971Y13009D01*
X13972Y12999D01*
X13975Y12990D01*
X13980Y12982D01*
X13988Y12976D01*
X13996Y12972D01*
X14006Y12970D01*
X14015Y12971D01*
X14024Y12974D01*
X14032Y12979D01*
X14039Y12987D01*
X14043Y12995D01*
X14045Y13005D01*
X14044Y13014D01*
X14041Y13023D01*
X14035Y13031D01*
X14028Y13037D01*
X14019Y13042D01*
X14010Y13043D01*
D02*
G37*
G36*
X14105Y18597D02*
X14099Y18596D01*
X14093Y18592D01*
X14090Y18587D01*
X14089Y18581D01*
X14090Y18574D01*
X14093Y18569D01*
X14099Y18565D01*
X14105Y18564D01*
X14111Y18565D01*
X14116Y18569D01*
X14120Y18574D01*
X14121Y18581D01*
X14120Y18587D01*
X14116Y18592D01*
X14111Y18596D01*
X14105Y18597D01*
D02*
G37*
G36*
X13873Y18583D02*
X13866Y18582D01*
X13861Y18578D01*
X13858Y18573D01*
X13856Y18567D01*
X13858Y18561D01*
X13861Y18555D01*
X13866Y18552D01*
X13873Y18550D01*
X13879Y18552D01*
X13884Y18555D01*
X13888Y18561D01*
X13889Y18567D01*
X13888Y18573D01*
X13884Y18578D01*
X13879Y18582D01*
X13873Y18583D01*
D02*
G37*
G36*
X13808Y18582D02*
X13801Y18581D01*
X13796Y18578D01*
X13793Y18572D01*
X13791Y18566D01*
X13793Y18560D01*
X13796Y18555D01*
X13801Y18551D01*
X13808Y18550D01*
X13814Y18551D01*
X13819Y18555D01*
X13823Y18560D01*
X13824Y18566D01*
X13823Y18572D01*
X13819Y18578D01*
X13814Y18581D01*
X13808Y18582D01*
D02*
G37*
G36*
X13908Y18649D02*
X13902Y18648D01*
X13897Y18644D01*
X13893Y18639D01*
X13892Y18633D01*
X13893Y18626D01*
X13897Y18621D01*
X13902Y18618D01*
X13908Y18616D01*
X13914Y18618D01*
X13920Y18621D01*
X13923Y18626D01*
X13924Y18633D01*
X13923Y18639D01*
X13920Y18644D01*
X13914Y18648D01*
X13908Y18649D01*
D02*
G37*
G36*
X14314Y18742D02*
X14312Y18741D01*
X14307Y18738D01*
X14303Y18732D01*
X14303Y18731D01*
X14314D01*
Y18742D01*
D02*
G37*
G36*
X13704Y18757D02*
X13698Y18756D01*
X13693Y18753D01*
X13689Y18747D01*
X13688Y18741D01*
X13689Y18735D01*
X13693Y18729D01*
X13698Y18726D01*
X13704Y18725D01*
X13711Y18726D01*
X13716Y18729D01*
X13719Y18735D01*
X13721Y18741D01*
X13719Y18747D01*
X13716Y18753D01*
X13711Y18756D01*
X13704Y18757D01*
D02*
G37*
G36*
X13589Y18734D02*
X13578D01*
Y18724D01*
X13580Y18724D01*
X13585Y18727D01*
X13589Y18733D01*
X13589Y18734D01*
D02*
G37*
G36*
X13578Y18754D02*
Y18744D01*
X13589D01*
X13589Y18745D01*
X13585Y18751D01*
X13580Y18754D01*
X13578Y18754D01*
D02*
G37*
G36*
X13568D02*
X13567Y18754D01*
X13562Y18751D01*
X13558Y18745D01*
X13558Y18744D01*
X13568D01*
Y18754D01*
D02*
G37*
G36*
X14324Y18742D02*
Y18731D01*
X14334D01*
X14334Y18732D01*
X14330Y18738D01*
X14325Y18741D01*
X14324Y18742D01*
D02*
G37*
G36*
X13568Y18734D02*
X13558D01*
X13558Y18733D01*
X13562Y18727D01*
X13567Y18724D01*
X13568Y18724D01*
Y18734D01*
D02*
G37*
G36*
X13518Y18705D02*
X13512Y18704D01*
X13507Y18700D01*
X13503Y18695D01*
X13502Y18689D01*
X13503Y18683D01*
X13507Y18677D01*
X13512Y18674D01*
X13518Y18672D01*
X13525Y18674D01*
X13530Y18677D01*
X13533Y18683D01*
X13535Y18689D01*
X13533Y18695D01*
X13530Y18700D01*
X13525Y18704D01*
X13518Y18705D01*
D02*
G37*
G36*
X13987Y18650D02*
X13981Y18649D01*
X13975Y18645D01*
X13972Y18640D01*
X13971Y18634D01*
X13972Y18627D01*
X13975Y18622D01*
X13981Y18619D01*
X13987Y18617D01*
X13993Y18619D01*
X13998Y18622D01*
X14002Y18627D01*
X14003Y18634D01*
X14002Y18640D01*
X13998Y18645D01*
X13993Y18649D01*
X13987Y18650D01*
D02*
G37*
G36*
X14066Y18649D02*
X14059Y18648D01*
X14054Y18644D01*
X14051Y18639D01*
X14049Y18633D01*
X14051Y18626D01*
X14054Y18621D01*
X14059Y18618D01*
X14066Y18616D01*
X14072Y18618D01*
X14077Y18621D01*
X14081Y18626D01*
X14082Y18633D01*
X14081Y18639D01*
X14077Y18644D01*
X14072Y18648D01*
X14066Y18649D01*
D02*
G37*
G36*
X14334Y18721D02*
X14324D01*
Y18711D01*
X14325Y18711D01*
X14330Y18715D01*
X14334Y18720D01*
X14334Y18721D01*
D02*
G37*
G36*
X14314D02*
X14303D01*
X14303Y18720D01*
X14307Y18715D01*
X14312Y18711D01*
X14314Y18711D01*
Y18721D01*
D02*
G37*
G36*
X14234Y18706D02*
X14228Y18705D01*
X14222Y18701D01*
X14219Y18696D01*
X14218Y18690D01*
X14219Y18684D01*
X14222Y18678D01*
X14228Y18675D01*
X14234Y18673D01*
X14240Y18675D01*
X14245Y18678D01*
X14249Y18684D01*
X14250Y18690D01*
X14249Y18696D01*
X14245Y18701D01*
X14240Y18705D01*
X14234Y18706D01*
D02*
G37*
%LPD*%
D10*
X13573Y18723D02*
Y18739D01*
X13557D02*
X13573D01*
Y18755D01*
Y18739D02*
X13589D01*
X13542Y18938D02*
X13558D01*
Y18954D01*
Y18922D02*
Y18938D01*
X13574D01*
X14319Y18726D02*
Y18742D01*
X13693Y18923D02*
Y18939D01*
X14303Y18726D02*
X14319D01*
Y18710D02*
Y18726D01*
X14335D01*
X13693Y18939D02*
X13709D01*
X13677D02*
X13693D01*
Y18955D01*
X13835Y18942D02*
X13851D01*
Y18926D02*
Y18942D01*
Y18958D01*
Y18942D02*
X13867D01*
X13573Y18723D02*
Y18739D01*
Y18755D01*
X13557Y18739D02*
X13573D01*
X13542Y18938D02*
X13558D01*
Y18922D02*
Y18938D01*
Y18954D01*
Y18938D02*
X13574D01*
X13573Y18739D02*
X13589D01*
X14303Y18726D02*
X14319D01*
Y18710D02*
Y18726D01*
Y18742D01*
Y18726D02*
X14335D01*
X13693Y18923D02*
Y18939D01*
X13677D02*
X13693D01*
X13709D01*
X13851Y18926D02*
Y18942D01*
X13693Y18939D02*
Y18955D01*
X13851Y18942D02*
Y18958D01*
X13835Y18942D02*
X13851D01*
X13867D01*
X13557Y18739D02*
X13573D01*
Y18755D01*
Y18723D02*
Y18739D01*
X13589D01*
X13542Y18938D02*
X13558D01*
Y18922D02*
Y18938D01*
X13574D01*
X13558D02*
Y18954D01*
X13677Y18939D02*
X13693D01*
Y18923D02*
Y18939D01*
X13709D01*
X13693D02*
Y18955D01*
X13835Y18942D02*
X13851D01*
Y18958D01*
Y18926D02*
Y18942D01*
X13867D01*
X14303Y18726D02*
X14319D01*
Y18710D02*
Y18726D01*
Y18742D01*
Y18726D02*
X14335D01*
D15*
X12866Y10179D02*
Y10133D01*
X12847Y10168D02*
X12885Y10145D01*
Y10168D02*
X12847Y10145D01*
X12906Y10107D02*
X12902Y10103D01*
X12906Y10099D01*
X12909Y10103D01*
X12906Y10107D01*
X12984Y10160D02*
X12980Y10168D01*
X12973Y10175D01*
X12965Y10179D01*
X12950D01*
X12942Y10175D01*
X12935Y10168D01*
X12931Y10160D01*
X12927Y10149D01*
Y10129D01*
X12931Y10118D01*
X12935Y10110D01*
X12942Y10103D01*
X12950Y10099D01*
X12965D01*
X12973Y10103D01*
X12980Y10110D01*
X12984Y10118D01*
Y10129D01*
X12965D02*
X12984D01*
X13010Y10179D02*
X13052D01*
X13029Y10149D01*
X13040D01*
X13048Y10145D01*
X13052Y10141D01*
X13056Y10129D01*
Y10122D01*
X13052Y10110D01*
X13044Y10103D01*
X13033Y10099D01*
X13021D01*
X13010Y10103D01*
X13006Y10107D01*
X13002Y10114D01*
X13136Y10133D02*
X13205D01*
X13291Y10179D02*
Y10099D01*
Y10179D02*
X13322Y10099D01*
X13352Y10179D02*
X13322Y10099D01*
X13352Y10179D02*
Y10099D01*
X13375Y10179D02*
Y10099D01*
X13392Y10179D02*
Y10099D01*
Y10179D02*
X13419D01*
X13430Y10175D01*
X13438Y10168D01*
X13442Y10160D01*
X13445Y10149D01*
Y10129D01*
X13442Y10118D01*
X13438Y10110D01*
X13430Y10103D01*
X13419Y10099D01*
X13392D01*
X13526Y10179D02*
Y10099D01*
X13572D01*
X13641D02*
X13611Y10179D01*
X13581Y10099D01*
X13592Y10126D02*
X13630D01*
X13660Y10179D02*
X13691Y10141D01*
Y10099D01*
X13721Y10179D02*
X13691Y10141D01*
X13781Y10179D02*
X13731D01*
Y10099D01*
X13781D01*
X13731Y10141D02*
X13762D01*
X13794Y10179D02*
Y10099D01*
Y10179D02*
X13829D01*
X13840Y10175D01*
X13844Y10171D01*
X13848Y10164D01*
Y10156D01*
X13844Y10149D01*
X13840Y10145D01*
X13829Y10141D01*
X13794D01*
X13821D02*
X13848Y10099D01*
X13936Y10179D02*
X13978D01*
X13955Y10149D01*
X13966D01*
X13974Y10145D01*
X13978Y10141D01*
X13982Y10129D01*
Y10122D01*
X13978Y10110D01*
X13970Y10103D01*
X13959Y10099D01*
X13947D01*
X13936Y10103D01*
X13932Y10107D01*
X13928Y10114D01*
X14119Y10160D02*
X14116Y10168D01*
X14108Y10175D01*
X14100Y10179D01*
X14085D01*
X14078Y10175D01*
X14070Y10168D01*
X14066Y10160D01*
X14062Y10149D01*
Y10129D01*
X14066Y10118D01*
X14070Y10110D01*
X14078Y10103D01*
X14085Y10099D01*
X14100D01*
X14108Y10103D01*
X14116Y10110D01*
X14119Y10118D01*
Y10129D01*
X14100D02*
X14119D01*
X14187Y10179D02*
X14138D01*
Y10099D01*
X14187D01*
X14138Y10141D02*
X14168D01*
X14201Y10179D02*
Y10099D01*
Y10179D02*
X14235D01*
X14246Y10175D01*
X14250Y10171D01*
X14254Y10164D01*
Y10156D01*
X14250Y10149D01*
X14246Y10145D01*
X14235Y10141D01*
X14201D01*
X14227D02*
X14254Y10099D01*
X14272Y10179D02*
Y10099D01*
Y10179D02*
X14306D01*
X14318Y10175D01*
X14321Y10171D01*
X14325Y10164D01*
Y10156D01*
X14321Y10149D01*
X14318Y10145D01*
X14306Y10141D01*
X14272D02*
X14306D01*
X14318Y10137D01*
X14321Y10133D01*
X14325Y10126D01*
Y10114D01*
X14321Y10107D01*
X14318Y10103D01*
X14306Y10099D01*
X14272D01*
X14393Y10179D02*
X14343D01*
Y10099D01*
X14393D01*
X14343Y10141D02*
X14374D01*
X14406Y10179D02*
Y10099D01*
Y10179D02*
X14440D01*
X14452Y10175D01*
X14455Y10171D01*
X14459Y10164D01*
Y10156D01*
X14455Y10149D01*
X14452Y10145D01*
X14440Y10141D01*
X14406D01*
X14433D02*
X14459Y10099D01*
X14540Y10179D02*
Y10099D01*
Y10179D02*
X14567D01*
X14578Y10175D01*
X14586Y10168D01*
X14589Y10160D01*
X14593Y10149D01*
Y10129D01*
X14589Y10118D01*
X14586Y10110D01*
X14578Y10103D01*
X14567Y10099D01*
X14540D01*
X14672D02*
X14642Y10179D01*
X14611Y10099D01*
X14623Y10126D02*
X14661D01*
X14717Y10179D02*
Y10099D01*
X14691Y10179D02*
X14744D01*
X14815Y10099D02*
X14784Y10179D01*
X14754Y10099D01*
X14765Y10126D02*
X14803D01*
D16*
X13573Y18950D02*
X13566Y18956D01*
X13556Y18958D01*
X13547Y18955D01*
X13540Y18947D01*
X13538Y18938D01*
X13540Y18928D01*
X13547Y18921D01*
X13556Y18918D01*
X13566Y18919D01*
X13573Y18925D01*
X13577Y18934D01*
X13593Y18739D02*
X13591Y18748D01*
X13585Y18755D01*
X13576Y18759D01*
X13566Y18758D01*
X13558Y18752D01*
X13554Y18744D01*
Y18734D01*
X13558Y18726D01*
X13566Y18720D01*
X13576Y18719D01*
X13585Y18723D01*
X13591Y18730D01*
X13593Y18739D01*
X13577Y18934D02*
X13585Y18928D01*
X13595Y18927D01*
X13604Y18930D01*
X13611Y18937D01*
X13613Y18947D01*
X13611Y18956D01*
X13604Y18963D01*
X13595Y18967D01*
X13585Y18965D01*
X13577Y18959D01*
X13573Y18950D01*
X13713Y18939D02*
X13710Y18948D01*
X13704Y18955D01*
X13695Y18959D01*
X13685Y18958D01*
X13678Y18952D01*
X13673Y18944D01*
Y18934D01*
X13678Y18926D01*
X13685Y18920D01*
X13695Y18919D01*
X13704Y18922D01*
X13710Y18930D01*
X13713Y18939D01*
X13871Y18942D02*
X13869Y18951D01*
X13862Y18958D01*
X13853Y18962D01*
X13844Y18960D01*
X13836Y18955D01*
X13832Y18947D01*
Y18937D01*
X13836Y18928D01*
X13844Y18923D01*
X13853Y18922D01*
X13862Y18925D01*
X13869Y18932D01*
X13871Y18942D01*
X14339Y18726D02*
X14336Y18735D01*
X14330Y18743D01*
X14321Y18746D01*
X14311Y18745D01*
X14304Y18739D01*
X14299Y18731D01*
Y18721D01*
X14304Y18713D01*
X14311Y18708D01*
X14321Y18706D01*
X14330Y18710D01*
X14336Y18717D01*
X14339Y18726D01*
X13879Y12609D02*
X14048Y12439D01*
X12137Y19267D02*
X12147D01*
X12137Y19262D02*
Y19272D01*
Y19262D02*
X12147D01*
Y19272D01*
X12137D02*
X12147D01*
X12132Y19257D02*
Y19272D01*
Y19257D02*
X12152D01*
Y19277D01*
X12132D02*
X12152D01*
X12127Y19252D02*
Y19277D01*
Y19252D02*
X12157D01*
Y19282D01*
X12127D02*
X12157D01*
X12122Y19247D02*
Y19287D01*
Y19247D02*
X12162D01*
Y19287D01*
X12122D02*
X12162D01*
X12187Y19217D02*
X12197D01*
X12187Y19212D02*
Y19222D01*
Y19212D02*
X12197D01*
Y19222D01*
X12187D02*
X12197D01*
X12182Y19207D02*
Y19222D01*
Y19207D02*
X12202D01*
Y19227D01*
X12182D02*
X12202D01*
X12177Y19202D02*
Y19227D01*
Y19202D02*
X12207D01*
Y19232D01*
X12177D02*
X12207D01*
X12172Y19197D02*
Y19237D01*
Y19197D02*
X12212D01*
Y19237D01*
X12172D02*
X12212D01*
X12167Y19192D02*
X12217D01*
Y19242D01*
X12117Y19292D02*
X12167D01*
X12117Y19242D02*
Y19292D01*
X12167Y18992D02*
Y19492D01*
X11917Y19242D02*
X12417D01*
X11957Y11972D02*
X12457D01*
X12207Y11722D02*
Y12222D01*
X12157Y11972D02*
Y12022D01*
X12207D01*
X12257Y11922D02*
Y11972D01*
X12207Y11922D02*
X12257D01*
X12212Y11967D02*
X12252D01*
Y11927D02*
Y11967D01*
X12212Y11927D02*
X12252D01*
X12212D02*
Y11967D01*
X12217Y11962D02*
X12247D01*
Y11932D02*
Y11962D01*
X12217Y11932D02*
X12247D01*
X12217D02*
Y11957D01*
X12222D02*
X12242D01*
Y11937D02*
Y11957D01*
X12222Y11937D02*
X12242D01*
X12222D02*
Y11952D01*
X12227D02*
X12237D01*
Y11942D02*
Y11952D01*
X12227Y11942D02*
X12237D01*
X12227D02*
Y11952D01*
Y11947D02*
X12237D01*
X12162Y12017D02*
X12202D01*
Y11977D02*
Y12017D01*
X12162Y11977D02*
X12202D01*
X12162D02*
Y12017D01*
X12167Y12012D02*
X12197D01*
Y11982D02*
Y12012D01*
X12167Y11982D02*
X12197D01*
X12167D02*
Y12007D01*
X12172D02*
X12192D01*
Y11987D02*
Y12007D01*
X12172Y11987D02*
X12192D01*
X12172D02*
Y12002D01*
X12177D02*
X12187D01*
Y11992D02*
Y12002D01*
X12177Y11992D02*
X12187D01*
X12177D02*
Y12002D01*
Y11997D02*
X12187D01*
X17476Y12053D02*
X17976D01*
X17726Y11803D02*
Y12303D01*
X17676Y12053D02*
Y12103D01*
X17726D01*
X17776Y12003D02*
Y12053D01*
X17726Y12003D02*
X17776D01*
X17731Y12048D02*
X17771D01*
Y12008D02*
Y12048D01*
X17731Y12008D02*
X17771D01*
X17731D02*
Y12048D01*
X17736Y12043D02*
X17766D01*
Y12013D02*
Y12043D01*
X17736Y12013D02*
X17766D01*
X17736D02*
Y12038D01*
X17741D02*
X17761D01*
Y12018D02*
Y12038D01*
X17741Y12018D02*
X17761D01*
X17741D02*
Y12033D01*
X17746D02*
X17756D01*
Y12023D02*
Y12033D01*
X17746Y12023D02*
X17756D01*
X17746D02*
Y12033D01*
Y12028D02*
X17756D01*
X17681Y12098D02*
X17721D01*
Y12058D02*
Y12098D01*
X17681Y12058D02*
X17721D01*
X17681D02*
Y12098D01*
X17686Y12093D02*
X17716D01*
Y12063D02*
Y12093D01*
X17686Y12063D02*
X17716D01*
X17686D02*
Y12088D01*
X17691D02*
X17711D01*
Y12068D02*
Y12088D01*
X17691Y12068D02*
X17711D01*
X17691D02*
Y12083D01*
X17696D02*
X17706D01*
Y12073D02*
Y12083D01*
X17696Y12073D02*
X17706D01*
X17696D02*
Y12083D01*
Y12078D02*
X17706D01*
D18*
X12901Y11510D02*
X12893Y11517D01*
X12882Y11521D01*
X12866D01*
X12855Y11517D01*
X12847Y11510D01*
Y11502D01*
X12851Y11495D01*
X12855Y11491D01*
X12863Y11487D01*
X12885Y11479D01*
X12893Y11476D01*
X12897Y11472D01*
X12901Y11464D01*
Y11453D01*
X12893Y11445D01*
X12882Y11441D01*
X12866D01*
X12855Y11445D01*
X12847Y11453D01*
X12919Y11521D02*
Y11441D01*
X12935Y11521D02*
Y11441D01*
Y11521D02*
X12989Y11441D01*
Y11521D02*
Y11441D01*
X13011Y11521D02*
Y11441D01*
X13081Y11510D02*
X13073Y11517D01*
X13062Y11521D01*
X13047D01*
X13035Y11517D01*
X13028Y11510D01*
Y11502D01*
X13031Y11495D01*
X13035Y11491D01*
X13043Y11487D01*
X13066Y11479D01*
X13073Y11476D01*
X13077Y11472D01*
X13081Y11464D01*
Y11453D01*
X13073Y11445D01*
X13062Y11441D01*
X13047D01*
X13035Y11445D01*
X13028Y11453D01*
X13125Y11521D02*
Y11441D01*
X13099Y11521D02*
X13152D01*
X13162D02*
Y11441D01*
Y11521D02*
X13196D01*
X13207Y11517D01*
X13211Y11514D01*
X13215Y11506D01*
Y11498D01*
X13211Y11491D01*
X13207Y11487D01*
X13196Y11483D01*
X13162D01*
X13188D02*
X13215Y11441D01*
X13256Y11521D02*
X13248Y11517D01*
X13240Y11510D01*
X13237Y11502D01*
X13233Y11491D01*
Y11472D01*
X13237Y11460D01*
X13240Y11453D01*
X13248Y11445D01*
X13256Y11441D01*
X13271D01*
X13279Y11445D01*
X13286Y11453D01*
X13290Y11460D01*
X13294Y11472D01*
Y11491D01*
X13290Y11502D01*
X13286Y11510D01*
X13279Y11517D01*
X13271Y11521D01*
X13256D01*
X13375D02*
Y11441D01*
Y11521D02*
X13425D01*
X13375Y11483D02*
X13406D01*
X13434Y11521D02*
Y11441D01*
X13480D01*
X13538Y11521D02*
X13488D01*
Y11441D01*
X13538D01*
X13488Y11483D02*
X13519D01*
X13551Y11521D02*
X13605Y11441D01*
Y11521D02*
X13551Y11441D01*
X13742Y11502D02*
X13739Y11510D01*
X13731Y11517D01*
X13723Y11521D01*
X13708D01*
X13701Y11517D01*
X13693Y11510D01*
X13689Y11502D01*
X13685Y11491D01*
Y11472D01*
X13689Y11460D01*
X13693Y11453D01*
X13701Y11445D01*
X13708Y11441D01*
X13723D01*
X13731Y11445D01*
X13739Y11453D01*
X13742Y11460D01*
X13765Y11521D02*
Y11441D01*
X13782Y11521D02*
Y11441D01*
Y11521D02*
X13816D01*
X13827Y11517D01*
X13831Y11514D01*
X13835Y11506D01*
Y11498D01*
X13831Y11491D01*
X13827Y11487D01*
X13816Y11483D01*
X13782D01*
X13808D02*
X13835Y11441D01*
X13910Y11502D02*
X13906Y11510D01*
X13899Y11517D01*
X13891Y11521D01*
X13876D01*
X13868Y11517D01*
X13860Y11510D01*
X13857Y11502D01*
X13853Y11491D01*
Y11472D01*
X13857Y11460D01*
X13860Y11453D01*
X13868Y11445D01*
X13876Y11441D01*
X13891D01*
X13899Y11445D01*
X13906Y11453D01*
X13910Y11460D01*
X13932Y11521D02*
Y11464D01*
X13936Y11453D01*
X13944Y11445D01*
X13955Y11441D01*
X13963D01*
X13974Y11445D01*
X13982Y11453D01*
X13986Y11464D01*
Y11521D01*
X14008D02*
Y11441D01*
X14051Y11521D02*
Y11441D01*
X14025Y11521D02*
X14078D01*
X14150D02*
Y11441D01*
Y11521D02*
X14185D01*
X14196Y11517D01*
X14200Y11514D01*
X14204Y11506D01*
Y11498D01*
X14200Y11491D01*
X14196Y11487D01*
X14185Y11483D01*
X14150D01*
X14177D02*
X14204Y11441D01*
X14222Y11472D02*
X14267D01*
Y11479D01*
X14263Y11487D01*
X14260Y11491D01*
X14252Y11495D01*
X14241D01*
X14233Y11491D01*
X14225Y11483D01*
X14222Y11472D01*
Y11464D01*
X14225Y11453D01*
X14233Y11445D01*
X14241Y11441D01*
X14252D01*
X14260Y11445D01*
X14267Y11453D01*
X14284Y11495D02*
X14307Y11441D01*
X14330Y11495D02*
X14307Y11441D01*
X14347Y11449D02*
X14343Y11445D01*
X14347Y11441D01*
X14351Y11445D01*
X14347Y11449D01*
X14492Y11441D02*
X14462Y11521D01*
X14431Y11441D01*
X14442Y11468D02*
X14481D01*
D19*
X12847Y11365D02*
Y11285D01*
X12893D01*
X12963D02*
X12932Y11365D01*
X12902Y11285D01*
X12913Y11312D02*
X12951D01*
X13035Y11353D02*
X13027Y11361D01*
X13016Y11365D01*
X13000D01*
X12989Y11361D01*
X12981Y11353D01*
Y11346D01*
X12985Y11338D01*
X12989Y11334D01*
X12997Y11331D01*
X13020Y11323D01*
X13027Y11319D01*
X13031Y11315D01*
X13035Y11308D01*
Y11296D01*
X13027Y11289D01*
X13016Y11285D01*
X13000D01*
X12989Y11289D01*
X12981Y11296D01*
X13173Y11346D02*
X13169Y11353D01*
X13161Y11361D01*
X13154Y11365D01*
X13138D01*
X13131Y11361D01*
X13123Y11353D01*
X13119Y11346D01*
X13116Y11334D01*
Y11315D01*
X13119Y11304D01*
X13123Y11296D01*
X13131Y11289D01*
X13138Y11285D01*
X13154D01*
X13161Y11289D01*
X13169Y11296D01*
X13173Y11304D01*
X13195Y11365D02*
Y11308D01*
X13199Y11296D01*
X13207Y11289D01*
X13218Y11285D01*
X13226D01*
X13237Y11289D01*
X13245Y11296D01*
X13248Y11308D01*
Y11365D01*
X13271D02*
Y11285D01*
Y11365D02*
X13301Y11285D01*
X13331Y11365D02*
X13301Y11285D01*
X13331Y11365D02*
Y11285D01*
X13354Y11365D02*
Y11285D01*
Y11365D02*
X13389D01*
X13400Y11361D01*
X13404Y11357D01*
X13408Y11350D01*
Y11342D01*
X13404Y11334D01*
X13400Y11331D01*
X13389Y11327D01*
X13354D02*
X13389D01*
X13400Y11323D01*
X13404Y11319D01*
X13408Y11312D01*
Y11300D01*
X13404Y11293D01*
X13400Y11289D01*
X13389Y11285D01*
X13354D01*
X13426Y11365D02*
Y11285D01*
Y11365D02*
X13460D01*
X13471Y11361D01*
X13475Y11357D01*
X13479Y11350D01*
Y11342D01*
X13475Y11334D01*
X13471Y11331D01*
X13460Y11327D01*
X13426D01*
X13452D02*
X13479Y11285D01*
X13546Y11365D02*
X13497D01*
Y11285D01*
X13546D01*
X13497Y11327D02*
X13527D01*
X13613Y11353D02*
X13605Y11361D01*
X13594Y11365D01*
X13579D01*
X13567Y11361D01*
X13560Y11353D01*
Y11346D01*
X13563Y11338D01*
X13567Y11334D01*
X13575Y11331D01*
X13598Y11323D01*
X13605Y11319D01*
X13609Y11315D01*
X13613Y11308D01*
Y11296D01*
X13605Y11289D01*
X13594Y11285D01*
X13579D01*
X13567Y11289D01*
X13560Y11296D01*
X13717Y11365D02*
X13709Y11361D01*
X13701Y11353D01*
X13697Y11346D01*
X13694Y11334D01*
Y11315D01*
X13697Y11304D01*
X13701Y11296D01*
X13709Y11289D01*
X13717Y11285D01*
X13732D01*
X13739Y11289D01*
X13747Y11296D01*
X13751Y11304D01*
X13755Y11315D01*
Y11334D01*
X13751Y11346D01*
X13747Y11353D01*
X13739Y11361D01*
X13732Y11365D01*
X13717D01*
X13773D02*
Y11285D01*
Y11365D02*
X13808D01*
X13819Y11361D01*
X13823Y11357D01*
X13827Y11350D01*
Y11342D01*
X13823Y11334D01*
X13819Y11331D01*
X13808Y11327D01*
X13773D02*
X13808D01*
X13819Y11323D01*
X13823Y11319D01*
X13827Y11312D01*
Y11300D01*
X13823Y11293D01*
X13819Y11289D01*
X13808Y11285D01*
X13773D01*
X13898Y11353D02*
X13890Y11361D01*
X13879Y11365D01*
X13864D01*
X13852Y11361D01*
X13844Y11353D01*
Y11346D01*
X13848Y11338D01*
X13852Y11334D01*
X13860Y11331D01*
X13883Y11323D01*
X13890Y11319D01*
X13894Y11315D01*
X13898Y11308D01*
Y11296D01*
X13890Y11289D01*
X13879Y11285D01*
X13864D01*
X13852Y11289D01*
X13844Y11296D01*
X13965Y11365D02*
X13916D01*
Y11285D01*
X13965D01*
X13916Y11327D02*
X13946D01*
X13979Y11365D02*
Y11285D01*
Y11365D02*
X14013D01*
X14024Y11361D01*
X14028Y11357D01*
X14032Y11350D01*
Y11342D01*
X14028Y11334D01*
X14024Y11331D01*
X14013Y11327D01*
X13979D01*
X14005D02*
X14032Y11285D01*
X14050Y11365D02*
X14080Y11285D01*
X14111Y11365D02*
X14080Y11285D01*
X14182D02*
X14151Y11365D01*
X14121Y11285D01*
X14132Y11312D02*
X14171D01*
X14227Y11365D02*
Y11285D01*
X14201Y11365D02*
X14254D01*
X14286D02*
X14279Y11361D01*
X14271Y11353D01*
X14267Y11346D01*
X14263Y11334D01*
Y11315D01*
X14267Y11304D01*
X14271Y11296D01*
X14279Y11289D01*
X14286Y11285D01*
X14302D01*
X14309Y11289D01*
X14317Y11296D01*
X14321Y11304D01*
X14324Y11315D01*
Y11334D01*
X14321Y11346D01*
X14317Y11353D01*
X14309Y11361D01*
X14302Y11365D01*
X14286D01*
X14343D02*
Y11285D01*
Y11365D02*
X14377D01*
X14389Y11361D01*
X14393Y11357D01*
X14396Y11350D01*
Y11342D01*
X14393Y11334D01*
X14389Y11331D01*
X14377Y11327D01*
X14343D01*
X14370D02*
X14396Y11285D01*
X14414Y11365D02*
X14445Y11327D01*
Y11285D01*
X14475Y11365D02*
X14445Y11327D01*
X14800Y11350D02*
X14807Y11353D01*
X14819Y11365D01*
Y11285D01*
X14881Y11365D02*
X14870Y11361D01*
X14862Y11350D01*
X14858Y11331D01*
Y11319D01*
X14862Y11300D01*
X14870Y11289D01*
X14881Y11285D01*
X14889D01*
X14900Y11289D01*
X14908Y11300D01*
X14912Y11319D01*
Y11331D01*
X14908Y11350D01*
X14900Y11361D01*
X14889Y11365D01*
X14881D01*
X14930Y11273D02*
X14983Y11365D01*
X14988Y11350D02*
X14996Y11353D01*
X15007Y11365D01*
Y11285D01*
X15066Y11365D02*
X15055Y11361D01*
X15051Y11353D01*
Y11346D01*
X15055Y11338D01*
X15062Y11334D01*
X15077Y11331D01*
X15089Y11327D01*
X15096Y11319D01*
X15100Y11312D01*
Y11300D01*
X15096Y11293D01*
X15093Y11289D01*
X15081Y11285D01*
X15066D01*
X15055Y11289D01*
X15051Y11293D01*
X15047Y11300D01*
Y11312D01*
X15051Y11319D01*
X15058Y11327D01*
X15070Y11331D01*
X15085Y11334D01*
X15093Y11338D01*
X15096Y11346D01*
Y11353D01*
X15093Y11361D01*
X15081Y11365D01*
X15066D01*
X15118Y11273D02*
X15171Y11365D01*
X15177Y11350D02*
X15184Y11353D01*
X15196Y11365D01*
Y11285D01*
X15258Y11365D02*
X15247Y11361D01*
X15239Y11350D01*
X15235Y11331D01*
Y11319D01*
X15239Y11300D01*
X15247Y11289D01*
X15258Y11285D01*
X15266D01*
X15277Y11289D01*
X15285Y11300D01*
X15289Y11319D01*
Y11331D01*
X15285Y11350D01*
X15277Y11361D01*
X15266Y11365D01*
X15258D01*
D20*
X14008Y13007D02*
D03*
X14124Y12947D02*
D03*
X14217Y12855D02*
D03*
X14276Y12738D02*
D03*
X14297Y12609D02*
D03*
X14276Y12480D02*
D03*
X14217Y12363D02*
D03*
X14124Y12271D02*
D03*
X14008Y12212D02*
D03*
X13879Y12191D02*
D03*
X13749Y12212D02*
D03*
X13633Y12271D02*
D03*
X13540Y12363D02*
D03*
X13481Y12480D02*
D03*
X13461Y12609D02*
D03*
X13481Y12738D02*
D03*
X13540Y12855D02*
D03*
X13633Y12947D02*
D03*
X13749Y13007D02*
D03*
X13879Y13027D02*
D03*
X14010Y12860D02*
D03*
X14111Y12770D02*
D03*
X14160Y12643D02*
D03*
X14143Y12509D02*
D03*
X14066Y12397D02*
D03*
X13946Y12334D02*
D03*
X13811Y12334D02*
D03*
X13691Y12397D02*
D03*
X13614Y12509D02*
D03*
X13598Y12643D02*
D03*
X13646Y12770D02*
D03*
X13747Y12860D02*
D03*
X13879Y12892D02*
D03*
X13996Y12703D02*
D03*
X14025Y12576D02*
D03*
X13944Y12474D02*
D03*
X13813Y12474D02*
D03*
X13732Y12576D02*
D03*
X13761Y12703D02*
D03*
X13879Y12759D02*
D03*
Y12609D02*
D03*
D21*
X14233Y18783D02*
D03*
D22*
X13524D02*
D03*
D23*
X17378Y16910D02*
D03*
D24*
X17259Y16749D02*
D03*
X17759D02*
D03*
Y17072D02*
D03*
X17259D02*
D03*
D25*
X17903Y17107D02*
D03*
Y16713D02*
D03*
X17116Y16714D02*
D03*
Y17108D02*
D03*
D26*
X13851Y18942D02*
D03*
X13693Y18939D02*
D03*
X13558Y18938D02*
D03*
X14319Y18726D02*
D03*
X13573Y18739D02*
D03*
X13633Y18813D02*
D03*
X13659Y18779D02*
D03*
X13704Y18741D02*
D03*
X13790Y18813D02*
D03*
X13908D02*
D03*
X13947D02*
D03*
X13987D02*
D03*
X14026D02*
D03*
X14066D02*
D03*
X14105D02*
D03*
X14144D02*
D03*
X14184D02*
D03*
X13673Y18597D02*
D03*
X13708Y18629D02*
D03*
X13704Y18566D02*
D03*
X13790Y18632D02*
D03*
X13808Y18566D02*
D03*
X13873Y18567D02*
D03*
X13908Y18633D02*
D03*
X13947Y18602D02*
D03*
X13987Y18634D02*
D03*
X14066Y18633D02*
D03*
X14105Y18581D02*
D03*
X17309Y16990D02*
D03*
X17308Y16829D02*
D03*
X13839Y18805D02*
D03*
X13741D02*
D03*
X13518Y18689D02*
D03*
X13613Y18623D02*
D03*
X14143Y18610D02*
D03*
X14234Y18690D02*
D03*
X14026Y18610D02*
D03*
X13593Y18947D02*
D03*
X13511Y18877D02*
D03*
D27*
X13696Y18597D02*
X13694Y18607D01*
X13688Y18615D01*
X13679Y18620D01*
X13669Y18620D01*
X13660Y18617D01*
X13653Y18610D01*
X13650Y18600D01*
X13650Y18590D01*
X13655Y18581D01*
X13664Y18576D01*
X13674Y18574D01*
X13683Y18576D01*
X13553Y18783D02*
X13552Y18793D01*
X13547Y18802D01*
X13539Y18808D01*
X13529Y18812D01*
X13519D01*
X13510Y18808D01*
X13502Y18802D01*
X13497Y18793D01*
X13495Y18783D01*
X13497Y18773D01*
X13502Y18764D01*
X13510Y18758D01*
X13519Y18754D01*
X13529D01*
X13539Y18758D01*
X13547Y18764D01*
X13552Y18773D01*
X13553Y18783D01*
X13552Y18793D01*
X13547Y18802D01*
X13539Y18808D01*
X13529Y18812D01*
X13519D01*
X13510Y18808D01*
X13502Y18802D01*
X13497Y18793D01*
X13495Y18783D01*
X13497Y18773D01*
X13502Y18764D01*
X13510Y18758D01*
X13519Y18754D01*
X13529D01*
X13539Y18758D01*
X13547Y18764D01*
X13552Y18773D01*
X13553Y18783D01*
X13597Y18739D02*
X13595Y18749D01*
X13589Y18756D01*
X13581Y18761D01*
X13571Y18762D01*
X13562Y18759D01*
X13554Y18753D01*
X13550Y18744D01*
Y18734D01*
X13554Y18725D01*
X13562Y18719D01*
X13571Y18716D01*
X13581Y18717D01*
X13589Y18722D01*
X13595Y18729D01*
X13597Y18739D01*
X13638Y18790D02*
X13636Y18780D01*
X13638Y18769D01*
X13644Y18761D01*
X13654Y18757D01*
X13664Y18756D01*
X13674Y18761D01*
X13680Y18769D01*
X13683Y18779D01*
X13680Y18790D01*
X13674Y18798D01*
X13664Y18802D01*
X13653Y18802D01*
X13572Y18957D02*
X13563Y18961D01*
X13554Y18961D01*
X13545Y18957D01*
X13538Y18951D01*
X13535Y18942D01*
X13535Y18932D01*
X13539Y18924D01*
X13546Y18917D01*
X13555Y18914D01*
X13565Y18915D01*
X13573Y18920D01*
X13579Y18928D01*
X13617Y18947D02*
X13614Y18957D01*
X13608Y18965D01*
X13598Y18970D01*
X13588Y18970D01*
X13578Y18965D01*
X13572Y18957D01*
X13656Y18813D02*
X13654Y18822D01*
X13648Y18830D01*
X13640Y18835D01*
X13631Y18836D01*
X13621Y18834D01*
X13614Y18827D01*
X13610Y18819D01*
X13609Y18809D01*
X13613Y18800D01*
X13620Y18793D01*
X13629Y18790D01*
X13638Y18790D01*
X13579Y18928D02*
X13588Y18924D01*
X13599Y18924D01*
X13608Y18928D01*
X13614Y18937D01*
X13617Y18947D01*
X13653Y18802D02*
X13656Y18813D01*
X13683Y18576D02*
X13681Y18566D01*
X13683Y18556D01*
X13690Y18548D01*
X13699Y18543D01*
X13710Y18543D01*
X13719Y18547D01*
X13726Y18556D01*
X13728Y18566D01*
X13694Y18587D02*
X13696Y18597D01*
X13728Y18566D02*
X13726Y18575D01*
X13721Y18583D01*
X13712Y18588D01*
X13703Y18589D01*
X13694Y18587D01*
X13914Y13053D02*
X13907Y13061D01*
X13898Y13066D01*
X13889Y13070D01*
X13879Y13071D01*
X13868Y13070D01*
X13859Y13066D01*
X13850Y13061D01*
X13843Y13053D01*
X13831Y18566D02*
X13829Y18576D01*
X13823Y18584D01*
X13815Y18588D01*
X13805Y18589D01*
X13796Y18586D01*
X13789Y18580D01*
X13785Y18571D01*
Y18561D01*
X13789Y18552D01*
X13796Y18546D01*
X13805Y18543D01*
X13815Y18544D01*
X13823Y18549D01*
X13829Y18557D01*
X13831Y18566D01*
X13896Y18567D02*
X13894Y18576D01*
X13888Y18584D01*
X13880Y18589D01*
X13870Y18590D01*
X13861Y18587D01*
X13854Y18581D01*
X13850Y18572D01*
Y18562D01*
X13854Y18553D01*
X13861Y18546D01*
X13870Y18543D01*
X13880Y18544D01*
X13888Y18549D01*
X13894Y18557D01*
X13896Y18567D01*
X13732Y18629D02*
X13730Y18638D01*
X13724Y18646D01*
X13716Y18651D01*
X13706Y18652D01*
X13697Y18649D01*
X13689Y18643D01*
X13685Y18634D01*
Y18624D01*
X13689Y18615D01*
X13697Y18608D01*
X13706Y18605D01*
X13716Y18606D01*
X13724Y18611D01*
X13730Y18619D01*
X13732Y18629D01*
X13728Y18741D02*
X13726Y18751D01*
X13720Y18758D01*
X13712Y18763D01*
X13702Y18764D01*
X13693Y18761D01*
X13685Y18755D01*
X13681Y18746D01*
Y18736D01*
X13685Y18727D01*
X13693Y18721D01*
X13702Y18718D01*
X13712Y18719D01*
X13720Y18724D01*
X13726Y18731D01*
X13728Y18741D01*
X13764Y18805D02*
X13762Y18815D01*
X13757Y18822D01*
X13748Y18827D01*
X13738Y18828D01*
X13729Y18825D01*
X13722Y18819D01*
X13718Y18810D01*
Y18800D01*
X13722Y18791D01*
X13729Y18785D01*
X13738Y18782D01*
X13748Y18783D01*
X13757Y18787D01*
X13762Y18795D01*
X13764Y18805D01*
X13863D02*
X13861Y18815D01*
X13855Y18822D01*
X13846Y18827D01*
X13837Y18828D01*
X13827Y18825D01*
X13820Y18819D01*
X13816Y18810D01*
Y18800D01*
X13820Y18791D01*
X13827Y18785D01*
X13837Y18782D01*
X13846Y18783D01*
X13855Y18787D01*
X13861Y18795D01*
X13863Y18805D01*
X13814Y18813D02*
X13811Y18822D01*
X13806Y18830D01*
X13797Y18835D01*
X13788Y18836D01*
X13778Y18833D01*
X13771Y18827D01*
X13767Y18818D01*
Y18808D01*
X13771Y18799D01*
X13778Y18792D01*
X13788Y18789D01*
X13797Y18790D01*
X13806Y18795D01*
X13811Y18803D01*
X13814Y18813D01*
X13928Y18826D02*
X13921Y18833D01*
X13911Y18836D01*
X13901Y18835D01*
X13893Y18831D01*
X13887Y18823D01*
X13885Y18813D01*
X13887Y18803D01*
X13893Y18795D01*
X13901Y18790D01*
X13911Y18790D01*
X13921Y18793D01*
X13928Y18800D01*
X14342Y18726D02*
X14340Y18736D01*
X14334Y18744D01*
X14326Y18749D01*
X14316Y18750D01*
X14307Y18747D01*
X14300Y18740D01*
X14296Y18731D01*
Y18721D01*
X14300Y18712D01*
X14307Y18706D01*
X14316Y18703D01*
X14326Y18704D01*
X14334Y18709D01*
X14340Y18717D01*
X14342Y18726D01*
X14164Y18800D02*
X14171Y18793D01*
X14180Y18790D01*
X14190Y18790D01*
X14199Y18795D01*
X14205Y18803D01*
X14207Y18813D01*
X13928Y18800D02*
X13934Y18793D01*
X13943Y18790D01*
X13952D01*
X13961Y18793D01*
X13967Y18800D01*
X14007Y18800D02*
X14013Y18793D01*
X14022Y18790D01*
X14031D01*
X14039Y18793D01*
X14046Y18800D01*
X14264Y18783D02*
X14263Y18793D01*
X14258Y18801D01*
X14251Y18808D01*
X14243Y18813D01*
X14233Y18814D01*
X14223Y18813D01*
X14215Y18808D01*
X14208Y18801D01*
X14203Y18793D01*
X14202Y18783D01*
X14203Y18773D01*
X14208Y18765D01*
X14215Y18758D01*
X14223Y18753D01*
X14233Y18752D01*
X14243Y18753D01*
X14251Y18758D01*
X14258Y18765D01*
X14263Y18773D01*
X14264Y18783D01*
X14263Y18793D01*
X14258Y18801D01*
X14251Y18808D01*
X14243Y18813D01*
X14233Y18814D01*
X14223Y18813D01*
X14215Y18808D01*
X14208Y18801D01*
X14203Y18793D01*
X14202Y18783D01*
X14203Y18773D01*
X14208Y18765D01*
X14215Y18758D01*
X14223Y18753D01*
X14233Y18752D01*
X14243Y18753D01*
X14251Y18758D01*
X14258Y18765D01*
X14263Y18773D01*
X14264Y18783D01*
X13967Y18826D02*
X13961Y18832D01*
X13952Y18836D01*
X13943D01*
X13934Y18832D01*
X13928Y18826D01*
X13716Y18939D02*
X13714Y18948D01*
X13708Y18956D01*
X13700Y18961D01*
X13690Y18962D01*
X13681Y18959D01*
X13674Y18953D01*
X13670Y18944D01*
Y18934D01*
X13674Y18925D01*
X13681Y18918D01*
X13690Y18915D01*
X13700Y18916D01*
X13708Y18921D01*
X13714Y18929D01*
X13716Y18939D01*
X13875Y18942D02*
X13872Y18951D01*
X13867Y18959D01*
X13858Y18964D01*
X13849Y18965D01*
X13839Y18962D01*
X13832Y18956D01*
X13828Y18947D01*
Y18937D01*
X13832Y18928D01*
X13839Y18921D01*
X13849Y18918D01*
X13858Y18919D01*
X13867Y18924D01*
X13872Y18932D01*
X13875Y18942D01*
X14085Y18800D02*
X14092Y18793D01*
X14100Y18790D01*
X14110D01*
X14118Y18793D01*
X14125Y18800D01*
X13967D02*
X13974Y18793D01*
X13982Y18790D01*
X13991D01*
X14000Y18793D01*
X14007Y18800D01*
X14046Y18800D02*
X14052Y18793D01*
X14061Y18790D01*
X14070D01*
X14079Y18793D01*
X14085Y18800D01*
X14125D02*
X14131Y18793D01*
X14140Y18790D01*
X14149D01*
X14158Y18793D01*
X14164Y18800D01*
X14007Y18826D02*
X14000Y18832D01*
X13991Y18836D01*
X13982D01*
X13974Y18832D01*
X13967Y18826D01*
X14046D02*
X14039Y18832D01*
X14031Y18836D01*
X14022D01*
X14013Y18832D01*
X14007Y18826D01*
X14085Y18826D02*
X14079Y18832D01*
X14070Y18836D01*
X14061D01*
X14052Y18832D01*
X14046Y18826D01*
X14207Y18813D02*
X14205Y18823D01*
X14199Y18831D01*
X14190Y18835D01*
X14180Y18836D01*
X14171Y18833D01*
X14164Y18826D01*
X14125D02*
X14118Y18832D01*
X14110Y18836D01*
X14100D01*
X14092Y18832D01*
X14085Y18826D01*
X14164D02*
X14158Y18832D01*
X14149Y18836D01*
X14140D01*
X14131Y18832D01*
X14125Y18826D01*
X13542Y18689D02*
X13540Y18698D01*
X13534Y18706D01*
X13526Y18711D01*
X13516Y18712D01*
X13507Y18709D01*
X13499Y18703D01*
X13495Y18694D01*
Y18684D01*
X13499Y18675D01*
X13507Y18668D01*
X13516Y18665D01*
X13526Y18666D01*
X13534Y18671D01*
X13540Y18679D01*
X13542Y18689D01*
X13636Y18623D02*
X13634Y18632D01*
X13629Y18640D01*
X13620Y18645D01*
X13610Y18646D01*
X13601Y18643D01*
X13594Y18637D01*
X13590Y18628D01*
Y18618D01*
X13594Y18609D01*
X13601Y18603D01*
X13610Y18599D01*
X13620Y18601D01*
X13629Y18605D01*
X13634Y18613D01*
X13636Y18623D01*
X13597Y18739D02*
X13595Y18749D01*
X13589Y18756D01*
X13581Y18761D01*
X13571Y18762D01*
X13562Y18759D01*
X13554Y18753D01*
X13550Y18744D01*
Y18734D01*
X13554Y18725D01*
X13562Y18719D01*
X13571Y18716D01*
X13581Y18717D01*
X13589Y18722D01*
X13595Y18729D01*
X13597Y18739D01*
X13553Y18783D02*
X13552Y18793D01*
X13547Y18802D01*
X13539Y18808D01*
X13529Y18812D01*
X13519D01*
X13510Y18808D01*
X13502Y18802D01*
X13497Y18793D01*
X13495Y18783D01*
X13497Y18773D01*
X13502Y18764D01*
X13510Y18758D01*
X13519Y18754D01*
X13529D01*
X13539Y18758D01*
X13547Y18764D01*
X13552Y18773D01*
X13553Y18783D01*
X13694Y18587D02*
X13696Y18597D01*
X13683Y18576D02*
X13681Y18566D01*
X13683Y18556D01*
X13690Y18548D01*
X13699Y18543D01*
X13710Y18543D01*
X13719Y18547D01*
X13726Y18556D01*
X13728Y18566D01*
X13914Y13053D02*
X13907Y13061D01*
X13898Y13066D01*
X13889Y13070D01*
X13879Y13071D01*
X13868Y13070D01*
X13859Y13066D01*
X13850Y13061D01*
X13843Y13053D01*
X13728Y18566D02*
X13726Y18575D01*
X13721Y18583D01*
X13712Y18588D01*
X13703Y18589D01*
X13694Y18587D01*
X13831Y18566D02*
X13829Y18576D01*
X13823Y18584D01*
X13815Y18588D01*
X13805Y18589D01*
X13796Y18586D01*
X13789Y18580D01*
X13785Y18571D01*
Y18561D01*
X13789Y18552D01*
X13796Y18546D01*
X13805Y18543D01*
X13815Y18544D01*
X13823Y18549D01*
X13829Y18557D01*
X13831Y18566D01*
X13696Y18597D02*
X13694Y18607D01*
X13688Y18615D01*
X13679Y18620D01*
X13669Y18620D01*
X13660Y18617D01*
X13653Y18610D01*
X13650Y18600D01*
X13650Y18590D01*
X13655Y18581D01*
X13664Y18576D01*
X13674Y18574D01*
X13683Y18576D01*
X13732Y18629D02*
X13730Y18638D01*
X13724Y18646D01*
X13716Y18651D01*
X13706Y18652D01*
X13697Y18649D01*
X13689Y18643D01*
X13685Y18634D01*
Y18624D01*
X13689Y18615D01*
X13697Y18608D01*
X13706Y18605D01*
X13716Y18606D01*
X13724Y18611D01*
X13730Y18619D01*
X13732Y18629D01*
X13728Y18741D02*
X13726Y18751D01*
X13720Y18758D01*
X13712Y18763D01*
X13702Y18764D01*
X13693Y18761D01*
X13685Y18755D01*
X13681Y18746D01*
Y18736D01*
X13685Y18727D01*
X13693Y18721D01*
X13702Y18718D01*
X13712Y18719D01*
X13720Y18724D01*
X13726Y18731D01*
X13728Y18741D01*
X13814Y18632D02*
X13811Y18641D01*
X13806Y18649D01*
X13797Y18654D01*
X13788Y18655D01*
X13778Y18652D01*
X13771Y18646D01*
X13767Y18637D01*
Y18627D01*
X13771Y18618D01*
X13778Y18611D01*
X13788Y18608D01*
X13797Y18609D01*
X13806Y18614D01*
X13811Y18622D01*
X13814Y18632D01*
X13553Y18783D02*
X13552Y18793D01*
X13547Y18802D01*
X13539Y18808D01*
X13529Y18812D01*
X13519D01*
X13510Y18808D01*
X13502Y18802D01*
X13497Y18793D01*
X13495Y18783D01*
X13497Y18773D01*
X13502Y18764D01*
X13510Y18758D01*
X13519Y18754D01*
X13529D01*
X13539Y18758D01*
X13547Y18764D01*
X13552Y18773D01*
X13553Y18783D01*
X13535Y18877D02*
X13533Y18886D01*
X13527Y18894D01*
X13519Y18899D01*
X13509Y18900D01*
X13500Y18897D01*
X13492Y18891D01*
X13488Y18882D01*
Y18872D01*
X13492Y18863D01*
X13500Y18856D01*
X13509Y18853D01*
X13519Y18854D01*
X13527Y18859D01*
X13533Y18867D01*
X13535Y18877D01*
X13656Y18813D02*
X13654Y18822D01*
X13648Y18830D01*
X13640Y18835D01*
X13631Y18836D01*
X13621Y18834D01*
X13614Y18827D01*
X13610Y18819D01*
X13609Y18809D01*
X13613Y18800D01*
X13620Y18793D01*
X13629Y18790D01*
X13638Y18790D01*
X13653Y18802D02*
X13656Y18813D01*
X13572Y18957D02*
X13563Y18961D01*
X13554Y18961D01*
X13545Y18957D01*
X13538Y18951D01*
X13535Y18942D01*
X13535Y18932D01*
X13539Y18924D01*
X13546Y18917D01*
X13555Y18914D01*
X13565Y18915D01*
X13573Y18920D01*
X13579Y18928D01*
X13579Y18928D02*
X13588Y18924D01*
X13599Y18924D01*
X13608Y18928D01*
X13614Y18937D01*
X13617Y18947D01*
X13614Y18957D01*
X13608Y18965D01*
X13598Y18970D01*
X13588Y18970D01*
X13578Y18965D01*
X13572Y18957D01*
X13683Y18779D02*
X13680Y18790D01*
X13674Y18798D01*
X13664Y18802D01*
X13653Y18802D01*
X13638Y18790D02*
X13636Y18780D01*
X13638Y18769D01*
X13644Y18761D01*
X13654Y18757D01*
X13664Y18756D01*
X13674Y18761D01*
X13680Y18769D01*
X13683Y18779D01*
X13764Y18805D02*
X13762Y18815D01*
X13757Y18822D01*
X13748Y18827D01*
X13738Y18828D01*
X13729Y18825D01*
X13722Y18819D01*
X13718Y18810D01*
Y18800D01*
X13722Y18791D01*
X13729Y18785D01*
X13738Y18782D01*
X13748Y18783D01*
X13757Y18787D01*
X13762Y18795D01*
X13764Y18805D01*
X13863D02*
X13861Y18815D01*
X13855Y18822D01*
X13846Y18827D01*
X13837Y18828D01*
X13827Y18825D01*
X13820Y18819D01*
X13816Y18810D01*
Y18800D01*
X13820Y18791D01*
X13827Y18785D01*
X13837Y18782D01*
X13846Y18783D01*
X13855Y18787D01*
X13861Y18795D01*
X13863Y18805D01*
X13814Y18813D02*
X13811Y18822D01*
X13806Y18830D01*
X13797Y18835D01*
X13788Y18836D01*
X13778Y18833D01*
X13771Y18827D01*
X13767Y18818D01*
Y18808D01*
X13771Y18799D01*
X13778Y18792D01*
X13788Y18789D01*
X13797Y18790D01*
X13806Y18795D01*
X13811Y18803D01*
X13814Y18813D01*
X13716Y18939D02*
X13714Y18948D01*
X13708Y18956D01*
X13700Y18961D01*
X13690Y18962D01*
X13681Y18959D01*
X13674Y18953D01*
X13670Y18944D01*
Y18934D01*
X13674Y18925D01*
X13681Y18918D01*
X13690Y18915D01*
X13700Y18916D01*
X13708Y18921D01*
X13714Y18929D01*
X13716Y18939D01*
X13875Y18942D02*
X13872Y18951D01*
X13867Y18959D01*
X13858Y18964D01*
X13849Y18965D01*
X13839Y18962D01*
X13832Y18956D01*
X13828Y18947D01*
Y18937D01*
X13832Y18928D01*
X13839Y18921D01*
X13849Y18918D01*
X13858Y18919D01*
X13867Y18924D01*
X13872Y18932D01*
X13875Y18942D01*
X13896Y18567D02*
X13894Y18576D01*
X13888Y18584D01*
X13880Y18589D01*
X13870Y18590D01*
X13861Y18587D01*
X13854Y18581D01*
X13850Y18572D01*
Y18562D01*
X13854Y18553D01*
X13861Y18546D01*
X13870Y18543D01*
X13880Y18544D01*
X13888Y18549D01*
X13894Y18557D01*
X13896Y18567D01*
X13971Y18602D02*
X13969Y18612D01*
X13963Y18620D01*
X13955Y18625D01*
X13945Y18626D01*
X13936Y18623D01*
X13928Y18616D01*
X13924Y18607D01*
Y18597D01*
X13928Y18588D01*
X13936Y18582D01*
X13945Y18579D01*
X13955Y18580D01*
X13963Y18585D01*
X13969Y18593D01*
X13971Y18602D01*
X14050Y18610D02*
X14049Y18616D01*
X14004Y18618D02*
X14003Y18608D01*
X14006Y18598D01*
X14013Y18591D01*
X14022Y18587D01*
X14033Y18587D01*
X14041Y18592D01*
X14048Y18600D01*
X14050Y18610D01*
X13932Y18633D02*
X13930Y18642D01*
X13924Y18650D01*
X13915Y18655D01*
X13906Y18656D01*
X13896Y18653D01*
X13889Y18647D01*
X13885Y18638D01*
Y18628D01*
X13889Y18619D01*
X13896Y18612D01*
X13906Y18609D01*
X13915Y18610D01*
X13924Y18615D01*
X13930Y18623D01*
X13932Y18633D01*
X14010Y18634D02*
X14008Y18643D01*
X14002Y18651D01*
X13994Y18656D01*
X13984Y18657D01*
X13974Y18654D01*
X13967Y18647D01*
X13964Y18638D01*
X13964Y18628D01*
X13969Y18619D01*
X13976Y18613D01*
X13986Y18610D01*
X13996Y18612D01*
X14004Y18618D01*
X14009Y18626D02*
X14010Y18634D01*
X14043Y18627D02*
X14035Y18632D01*
X14026Y18634D01*
X14017Y18632D01*
X14009Y18626D01*
X14128Y18581D02*
X14126Y18590D01*
X14121Y18598D01*
X14112Y18603D01*
X14103Y18604D01*
X14093Y18601D01*
X14086Y18594D01*
X14082Y18585D01*
Y18576D01*
X14086Y18567D01*
X14093Y18560D01*
X14103Y18557D01*
X14112Y18558D01*
X14121Y18563D01*
X14126Y18571D01*
X14128Y18581D01*
X14089Y18633D02*
X14087Y18642D01*
X14081Y18650D01*
X14072Y18655D01*
X14063Y18656D01*
X14053Y18653D01*
X14046Y18646D01*
X14042Y18637D01*
X14043Y18627D01*
X14049Y18616D02*
X14057Y18611D01*
X14066Y18609D01*
X14075Y18611D01*
X14082Y18616D01*
X14087Y18624D01*
X14089Y18633D01*
X14167Y18610D02*
X14165Y18620D01*
X14159Y18628D01*
X14151Y18632D01*
X14141Y18633D01*
X14132Y18630D01*
X14124Y18624D01*
X14120Y18615D01*
Y18605D01*
X14124Y18596D01*
X14132Y18590D01*
X14141Y18587D01*
X14151Y18588D01*
X14159Y18593D01*
X14165Y18601D01*
X14167Y18610D01*
X14257Y18690D02*
X14255Y18699D01*
X14250Y18707D01*
X14241Y18712D01*
X14231Y18713D01*
X14222Y18710D01*
X14215Y18704D01*
X14211Y18695D01*
Y18685D01*
X14215Y18676D01*
X14222Y18669D01*
X14231Y18666D01*
X14241Y18667D01*
X14250Y18672D01*
X14255Y18680D01*
X14257Y18690D01*
X14342Y18726D02*
X14340Y18736D01*
X14334Y18744D01*
X14326Y18749D01*
X14316Y18750D01*
X14307Y18747D01*
X14300Y18740D01*
X14296Y18731D01*
Y18721D01*
X14300Y18712D01*
X14307Y18706D01*
X14316Y18703D01*
X14326Y18704D01*
X14334Y18709D01*
X14340Y18717D01*
X14342Y18726D01*
X13928Y18826D02*
X13921Y18833D01*
X13911Y18836D01*
X13901Y18835D01*
X13893Y18831D01*
X13887Y18823D01*
X13885Y18813D01*
X13887Y18803D01*
X13893Y18795D01*
X13901Y18790D01*
X13911Y18790D01*
X13921Y18793D01*
X13928Y18800D01*
X13928D02*
X13934Y18793D01*
X13943Y18790D01*
X13952D01*
X13961Y18793D01*
X13967Y18800D01*
Y18826D02*
X13961Y18832D01*
X13952Y18836D01*
X13943D01*
X13934Y18832D01*
X13928Y18826D01*
X13967Y18800D02*
X13974Y18793D01*
X13982Y18790D01*
X13991D01*
X14000Y18793D01*
X14007Y18800D01*
X14013Y18793D01*
X14022Y18790D01*
X14031D01*
X14039Y18793D01*
X14046Y18800D01*
X14052Y18793D01*
X14061Y18790D01*
X14070D01*
X14079Y18793D01*
X14085Y18800D01*
X14046Y18826D02*
X14039Y18832D01*
X14031Y18836D01*
X14022D01*
X14013Y18832D01*
X14007Y18826D01*
X14085Y18826D02*
X14079Y18832D01*
X14070Y18836D01*
X14061D01*
X14052Y18832D01*
X14046Y18826D01*
X14007Y18826D02*
X14000Y18832D01*
X13991Y18836D01*
X13982D01*
X13974Y18832D01*
X13967Y18826D01*
X14164Y18800D02*
X14171Y18793D01*
X14180Y18790D01*
X14190Y18790D01*
X14199Y18795D01*
X14205Y18803D01*
X14207Y18813D01*
X14264Y18783D02*
X14263Y18793D01*
X14258Y18801D01*
X14251Y18808D01*
X14243Y18813D01*
X14233Y18814D01*
X14223Y18813D01*
X14215Y18808D01*
X14208Y18801D01*
X14203Y18793D01*
X14202Y18783D01*
X14203Y18773D01*
X14208Y18765D01*
X14215Y18758D01*
X14223Y18753D01*
X14233Y18752D01*
X14243Y18753D01*
X14251Y18758D01*
X14258Y18765D01*
X14263Y18773D01*
X14264Y18783D01*
X14085Y18800D02*
X14092Y18793D01*
X14100Y18790D01*
X14110D01*
X14118Y18793D01*
X14125Y18800D01*
X14125D02*
X14131Y18793D01*
X14140Y18790D01*
X14149D01*
X14158Y18793D01*
X14164Y18800D01*
X14125Y18826D02*
X14118Y18832D01*
X14110Y18836D01*
X14100D01*
X14092Y18832D01*
X14085Y18826D01*
X14207Y18813D02*
X14205Y18823D01*
X14199Y18831D01*
X14190Y18835D01*
X14180Y18836D01*
X14171Y18833D01*
X14164Y18826D01*
X14158Y18832D01*
X14149Y18836D01*
X14140D01*
X14131Y18832D01*
X14125Y18826D01*
X14264Y18783D02*
X14263Y18793D01*
X14258Y18801D01*
X14251Y18808D01*
X14243Y18813D01*
X14233Y18814D01*
X14223Y18813D01*
X14215Y18808D01*
X14208Y18801D01*
X14203Y18793D01*
X14202Y18783D01*
X14203Y18773D01*
X14208Y18765D01*
X14215Y18758D01*
X14223Y18753D01*
X14233Y18752D01*
X14243Y18753D01*
X14251Y18758D01*
X14258Y18765D01*
X14263Y18773D01*
X14264Y18783D01*
X13367Y14123D02*
X14393D01*
X13367Y14398D02*
X14393D01*
X13367Y13053D02*
X13843D01*
X13367Y13572D02*
X14393D01*
X13367Y13296D02*
X14393D01*
X13367Y14674D02*
X14393D01*
X13367Y15225D02*
X14393D01*
X13367Y14950D02*
X14393D01*
X13367Y13053D02*
Y19015D01*
Y15501D02*
X14393D01*
X13367Y16328D02*
X14393D01*
X13367Y16879D02*
X14393D01*
X13367Y16603D02*
X14393D01*
X13367Y13847D02*
X14393D01*
X13367Y16052D02*
X14393D01*
X13367Y15776D02*
X14393D01*
X13367Y17981D02*
X14393D01*
X13367Y18532D02*
X14393D01*
X13367Y18257D02*
X14393D01*
X13367Y17154D02*
X14393D01*
X13367Y17705D02*
X14393D01*
X13367Y17430D02*
X14393D01*
X13367Y18808D02*
X13509D01*
X13364Y19019D02*
X13367Y19015D01*
X13364Y19019D02*
X13367Y19015D01*
X13539Y18808D02*
X13610D01*
X13655D02*
X13717D01*
X13367Y19015D02*
X14393D01*
X13914Y13053D02*
X14393D01*
Y19015D01*
X13863Y18808D02*
X13885D01*
X14207D02*
X14214D01*
X14252D02*
X14393D01*
X13556Y13053D02*
Y18723D01*
X13619Y13053D02*
Y18600D01*
X13430Y13053D02*
Y19017D01*
X13493Y13053D02*
Y18862D01*
X13367Y13053D02*
Y19017D01*
X13367Y13053D02*
Y19017D01*
X13619Y18645D02*
Y18793D01*
X13682Y18749D02*
Y18775D01*
Y13053D02*
Y18558D01*
X13367Y13053D02*
X13843D01*
X13808D02*
Y18543D01*
X13682Y18619D02*
Y18733D01*
X13745Y13053D02*
Y18782D01*
X13808Y18590D02*
Y18617D01*
Y18647D02*
Y18798D01*
X13556Y18755D02*
Y18914D01*
X13682Y18784D02*
Y18918D01*
X13493Y18892D02*
Y19017D01*
X13556Y18961D02*
Y19017D01*
X13619Y18832D02*
Y19017D01*
X13682Y18960D02*
Y19017D01*
X13367D02*
X14393D01*
X13745Y18828D02*
Y19017D01*
X13808Y18828D02*
Y19017D01*
X13871Y13070D02*
Y18543D01*
X13934Y13053D02*
Y18583D01*
X13997Y13053D02*
Y18613D01*
X14060Y13053D02*
Y18610D01*
X13871Y18590D02*
Y18930D01*
X13934Y18622D02*
Y18793D01*
X13997Y18655D02*
Y18792D01*
X14060Y18656D02*
Y18790D01*
X13914Y13053D02*
X14390D01*
X14249D02*
Y18672D01*
X14390Y13053D02*
X14393Y13068D01*
X14123Y13053D02*
Y18566D01*
Y18622D02*
Y18798D01*
X14186Y13053D02*
Y18789D01*
X14249Y18708D02*
Y18756D01*
X14312Y13053D02*
Y18704D01*
X14375Y13053D02*
Y19017D01*
X14393Y13068D02*
Y19017D01*
X13871Y18954D02*
Y19017D01*
X13934Y18832D02*
Y19017D01*
X13997Y18834D02*
Y19017D01*
X14060Y18836D02*
Y19017D01*
X14123Y18828D02*
Y19017D01*
X14312Y18749D02*
Y19017D01*
X14186Y18836D02*
Y19017D01*
X14249Y18810D02*
Y19017D01*
M02*
