%FSLAX23Y23*%
%MOIN*%
G70*
G01*
G75*
G04 Layer_Physical_Order=6*
G04 Layer_Color=16711680*
%ADD10C,0.010*%
%ADD11R,0.010X0.035*%
%ADD12R,0.063X0.071*%
%ADD13R,0.059X0.118*%
%ADD14C,0.030*%
%ADD15C,0.012*%
%ADD16C,0.008*%
%ADD17C,0.005*%
%ADD18C,0.012*%
%ADD19C,0.012*%
%ADD20C,0.065*%
%ADD21C,0.039*%
%ADD22C,0.035*%
%ADD23C,0.070*%
%ADD24C,0.055*%
%ADD25C,0.071*%
%ADD26C,0.024*%
%ADD27C,0.015*%
%ADD28C,0.008*%
D10*
X17437Y16871D02*
Y16950D01*
X17791D01*
Y16871D02*
Y16950D01*
X17437Y16871D02*
X17791D01*
X17594Y16910D02*
X17614D01*
Y16930D01*
Y16891D02*
Y16930D01*
Y16891D02*
Y16910D01*
X17634D01*
D15*
X12887Y9807D02*
Y9761D01*
X12868Y9795D02*
X12906Y9773D01*
Y9795D02*
X12868Y9773D01*
X12926Y9734D02*
X12922Y9731D01*
X12926Y9727D01*
X12930Y9731D01*
X12926Y9734D01*
X13004Y9788D02*
X13001Y9795D01*
X12993Y9803D01*
X12985Y9807D01*
X12970D01*
X12963Y9803D01*
X12955Y9795D01*
X12951Y9788D01*
X12947Y9776D01*
Y9757D01*
X12951Y9746D01*
X12955Y9738D01*
X12963Y9731D01*
X12970Y9727D01*
X12985D01*
X12993Y9731D01*
X13001Y9738D01*
X13004Y9746D01*
Y9757D01*
X12985D02*
X13004D01*
X13023Y9807D02*
Y9727D01*
Y9807D02*
X13057D01*
X13068Y9803D01*
X13072Y9799D01*
X13076Y9792D01*
Y9784D01*
X13072Y9776D01*
X13068Y9773D01*
X13057Y9769D01*
X13023D02*
X13057D01*
X13068Y9765D01*
X13072Y9761D01*
X13076Y9753D01*
Y9742D01*
X13072Y9734D01*
X13068Y9731D01*
X13057Y9727D01*
X13023D01*
X13094Y9807D02*
Y9727D01*
X13140D01*
X13211Y9761D02*
X13280D01*
X13366Y9807D02*
Y9727D01*
Y9807D02*
X13401D01*
X13412Y9803D01*
X13416Y9799D01*
X13420Y9792D01*
Y9784D01*
X13416Y9776D01*
X13412Y9773D01*
X13401Y9769D01*
X13366D02*
X13401D01*
X13412Y9765D01*
X13416Y9761D01*
X13420Y9753D01*
Y9742D01*
X13416Y9734D01*
X13412Y9731D01*
X13401Y9727D01*
X13366D01*
X13460Y9807D02*
X13453Y9803D01*
X13445Y9795D01*
X13441Y9788D01*
X13438Y9776D01*
Y9757D01*
X13441Y9746D01*
X13445Y9738D01*
X13453Y9731D01*
X13460Y9727D01*
X13476D01*
X13483Y9731D01*
X13491Y9738D01*
X13495Y9746D01*
X13498Y9757D01*
Y9776D01*
X13495Y9788D01*
X13491Y9795D01*
X13483Y9803D01*
X13476Y9807D01*
X13460D01*
X13544D02*
Y9727D01*
X13517Y9807D02*
X13570D01*
X13607D02*
Y9727D01*
X13580Y9807D02*
X13633D01*
X13666D02*
X13658Y9803D01*
X13650Y9795D01*
X13647Y9788D01*
X13643Y9776D01*
Y9757D01*
X13647Y9746D01*
X13650Y9738D01*
X13658Y9731D01*
X13666Y9727D01*
X13681D01*
X13689Y9731D01*
X13696Y9738D01*
X13700Y9746D01*
X13704Y9757D01*
Y9776D01*
X13700Y9788D01*
X13696Y9795D01*
X13689Y9803D01*
X13681Y9807D01*
X13666D01*
X13722D02*
Y9727D01*
Y9807D02*
X13753Y9727D01*
X13783Y9807D02*
X13753Y9727D01*
X13783Y9807D02*
Y9727D01*
X13869Y9807D02*
Y9727D01*
X13915D01*
X13984D02*
X13954Y9807D01*
X13924Y9727D01*
X13935Y9753D02*
X13973D01*
X14003Y9807D02*
X14034Y9769D01*
Y9727D01*
X14064Y9807D02*
X14034Y9769D01*
X14124Y9807D02*
X14074D01*
Y9727D01*
X14124D01*
X14074Y9769D02*
X14105D01*
X14137Y9807D02*
Y9727D01*
Y9807D02*
X14171D01*
X14183Y9803D01*
X14187Y9799D01*
X14191Y9792D01*
Y9784D01*
X14187Y9776D01*
X14183Y9773D01*
X14171Y9769D01*
X14137D01*
X14164D02*
X14191Y9727D01*
X14328Y9788D02*
X14325Y9795D01*
X14317Y9803D01*
X14309Y9807D01*
X14294D01*
X14287Y9803D01*
X14279Y9795D01*
X14275Y9788D01*
X14271Y9776D01*
Y9757D01*
X14275Y9746D01*
X14279Y9738D01*
X14287Y9731D01*
X14294Y9727D01*
X14309D01*
X14317Y9731D01*
X14325Y9738D01*
X14328Y9746D01*
Y9757D01*
X14309D02*
X14328D01*
X14396Y9807D02*
X14347D01*
Y9727D01*
X14396D01*
X14347Y9769D02*
X14377D01*
X14410Y9807D02*
Y9727D01*
Y9807D02*
X14444D01*
X14455Y9803D01*
X14459Y9799D01*
X14463Y9792D01*
Y9784D01*
X14459Y9776D01*
X14455Y9773D01*
X14444Y9769D01*
X14410D01*
X14436D02*
X14463Y9727D01*
X14481Y9807D02*
Y9727D01*
Y9807D02*
X14515D01*
X14526Y9803D01*
X14530Y9799D01*
X14534Y9792D01*
Y9784D01*
X14530Y9776D01*
X14526Y9773D01*
X14515Y9769D01*
X14481D02*
X14515D01*
X14526Y9765D01*
X14530Y9761D01*
X14534Y9753D01*
Y9742D01*
X14530Y9734D01*
X14526Y9731D01*
X14515Y9727D01*
X14481D01*
X14601Y9807D02*
X14552D01*
Y9727D01*
X14601D01*
X14552Y9769D02*
X14582D01*
X14615Y9807D02*
Y9727D01*
Y9807D02*
X14649D01*
X14661Y9803D01*
X14664Y9799D01*
X14668Y9792D01*
Y9784D01*
X14664Y9776D01*
X14661Y9773D01*
X14649Y9769D01*
X14615D01*
X14641D02*
X14668Y9727D01*
X14749Y9807D02*
Y9727D01*
Y9807D02*
X14776D01*
X14787Y9803D01*
X14795Y9795D01*
X14798Y9788D01*
X14802Y9776D01*
Y9757D01*
X14798Y9746D01*
X14795Y9738D01*
X14787Y9731D01*
X14776Y9727D01*
X14749D01*
X14881D02*
X14851Y9807D01*
X14820Y9727D01*
X14832Y9753D02*
X14870D01*
X14926Y9807D02*
Y9727D01*
X14900Y9807D02*
X14953D01*
X15023Y9727D02*
X14993Y9807D01*
X14963Y9727D01*
X14974Y9753D02*
X15012D01*
D16*
X12137Y19267D02*
X12147D01*
X12137Y19262D02*
Y19272D01*
Y19262D02*
X12147D01*
Y19272D01*
X12137D02*
X12147D01*
X12132Y19257D02*
Y19272D01*
Y19257D02*
X12152D01*
Y19277D01*
X12132D02*
X12152D01*
X12127Y19252D02*
Y19277D01*
Y19252D02*
X12157D01*
Y19282D01*
X12127D02*
X12157D01*
X12122Y19247D02*
Y19287D01*
Y19247D02*
X12162D01*
Y19287D01*
X12122D02*
X12162D01*
X12187Y19217D02*
X12197D01*
X12187Y19212D02*
Y19222D01*
Y19212D02*
X12197D01*
Y19222D01*
X12187D02*
X12197D01*
X12182Y19207D02*
Y19222D01*
Y19207D02*
X12202D01*
Y19227D01*
X12182D02*
X12202D01*
X12177Y19202D02*
Y19227D01*
Y19202D02*
X12207D01*
Y19232D01*
X12177D02*
X12207D01*
X12172Y19197D02*
Y19237D01*
Y19197D02*
X12212D01*
Y19237D01*
X12172D02*
X12212D01*
X12167Y19192D02*
X12217D01*
Y19242D01*
X12117Y19292D02*
X12167D01*
X12117Y19242D02*
Y19292D01*
X12167Y18992D02*
Y19492D01*
X11917Y19242D02*
X12417D01*
X11957Y11972D02*
X12457D01*
X12207Y11722D02*
Y12222D01*
X12157Y11972D02*
Y12022D01*
X12207D01*
X12257Y11922D02*
Y11972D01*
X12207Y11922D02*
X12257D01*
X12212Y11967D02*
X12252D01*
Y11927D02*
Y11967D01*
X12212Y11927D02*
X12252D01*
X12212D02*
Y11967D01*
X12217Y11962D02*
X12247D01*
Y11932D02*
Y11962D01*
X12217Y11932D02*
X12247D01*
X12217D02*
Y11957D01*
X12222D02*
X12242D01*
Y11937D02*
Y11957D01*
X12222Y11937D02*
X12242D01*
X12222D02*
Y11952D01*
X12227D02*
X12237D01*
Y11942D02*
Y11952D01*
X12227Y11942D02*
X12237D01*
X12227D02*
Y11952D01*
Y11947D02*
X12237D01*
X12162Y12017D02*
X12202D01*
Y11977D02*
Y12017D01*
X12162Y11977D02*
X12202D01*
X12162D02*
Y12017D01*
X12167Y12012D02*
X12197D01*
Y11982D02*
Y12012D01*
X12167Y11982D02*
X12197D01*
X12167D02*
Y12007D01*
X12172D02*
X12192D01*
Y11987D02*
Y12007D01*
X12172Y11987D02*
X12192D01*
X12172D02*
Y12002D01*
X12177D02*
X12187D01*
Y11992D02*
Y12002D01*
X12177Y11992D02*
X12187D01*
X12177D02*
Y12002D01*
Y11997D02*
X12187D01*
X17476Y12053D02*
X17976D01*
X17726Y11803D02*
Y12303D01*
X17676Y12053D02*
Y12103D01*
X17726D01*
X17776Y12003D02*
Y12053D01*
X17726Y12003D02*
X17776D01*
X17731Y12048D02*
X17771D01*
Y12008D02*
Y12048D01*
X17731Y12008D02*
X17771D01*
X17731D02*
Y12048D01*
X17736Y12043D02*
X17766D01*
Y12013D02*
Y12043D01*
X17736Y12013D02*
X17766D01*
X17736D02*
Y12038D01*
X17741D02*
X17761D01*
Y12018D02*
Y12038D01*
X17741Y12018D02*
X17761D01*
X17741D02*
Y12033D01*
X17746D02*
X17756D01*
Y12023D02*
Y12033D01*
X17746Y12023D02*
X17756D01*
X17746D02*
Y12033D01*
Y12028D02*
X17756D01*
X17681Y12098D02*
X17721D01*
Y12058D02*
Y12098D01*
X17681Y12058D02*
X17721D01*
X17681D02*
Y12098D01*
X17686Y12093D02*
X17716D01*
Y12063D02*
Y12093D01*
X17686Y12063D02*
X17716D01*
X17686D02*
Y12088D01*
X17691D02*
X17711D01*
Y12068D02*
Y12088D01*
X17691Y12068D02*
X17711D01*
X17691D02*
Y12083D01*
X17696D02*
X17706D01*
Y12073D02*
Y12083D01*
X17696Y12073D02*
X17706D01*
X17696D02*
Y12083D01*
Y12078D02*
X17706D01*
D18*
X12901Y11510D02*
X12893Y11517D01*
X12882Y11521D01*
X12866D01*
X12855Y11517D01*
X12847Y11510D01*
Y11502D01*
X12851Y11495D01*
X12855Y11491D01*
X12863Y11487D01*
X12885Y11479D01*
X12893Y11476D01*
X12897Y11472D01*
X12901Y11464D01*
Y11453D01*
X12893Y11445D01*
X12882Y11441D01*
X12866D01*
X12855Y11445D01*
X12847Y11453D01*
X12919Y11521D02*
Y11441D01*
X12935Y11521D02*
Y11441D01*
Y11521D02*
X12989Y11441D01*
Y11521D02*
Y11441D01*
X13011Y11521D02*
Y11441D01*
X13081Y11510D02*
X13073Y11517D01*
X13062Y11521D01*
X13047D01*
X13035Y11517D01*
X13028Y11510D01*
Y11502D01*
X13031Y11495D01*
X13035Y11491D01*
X13043Y11487D01*
X13066Y11479D01*
X13073Y11476D01*
X13077Y11472D01*
X13081Y11464D01*
Y11453D01*
X13073Y11445D01*
X13062Y11441D01*
X13047D01*
X13035Y11445D01*
X13028Y11453D01*
X13125Y11521D02*
Y11441D01*
X13099Y11521D02*
X13152D01*
X13162D02*
Y11441D01*
Y11521D02*
X13196D01*
X13207Y11517D01*
X13211Y11514D01*
X13215Y11506D01*
Y11498D01*
X13211Y11491D01*
X13207Y11487D01*
X13196Y11483D01*
X13162D01*
X13188D02*
X13215Y11441D01*
X13256Y11521D02*
X13248Y11517D01*
X13240Y11510D01*
X13237Y11502D01*
X13233Y11491D01*
Y11472D01*
X13237Y11460D01*
X13240Y11453D01*
X13248Y11445D01*
X13256Y11441D01*
X13271D01*
X13279Y11445D01*
X13286Y11453D01*
X13290Y11460D01*
X13294Y11472D01*
Y11491D01*
X13290Y11502D01*
X13286Y11510D01*
X13279Y11517D01*
X13271Y11521D01*
X13256D01*
X13375D02*
Y11441D01*
Y11521D02*
X13425D01*
X13375Y11483D02*
X13406D01*
X13434Y11521D02*
Y11441D01*
X13480D01*
X13538Y11521D02*
X13488D01*
Y11441D01*
X13538D01*
X13488Y11483D02*
X13519D01*
X13551Y11521D02*
X13605Y11441D01*
Y11521D02*
X13551Y11441D01*
X13742Y11502D02*
X13739Y11510D01*
X13731Y11517D01*
X13723Y11521D01*
X13708D01*
X13701Y11517D01*
X13693Y11510D01*
X13689Y11502D01*
X13685Y11491D01*
Y11472D01*
X13689Y11460D01*
X13693Y11453D01*
X13701Y11445D01*
X13708Y11441D01*
X13723D01*
X13731Y11445D01*
X13739Y11453D01*
X13742Y11460D01*
X13765Y11521D02*
Y11441D01*
X13782Y11521D02*
Y11441D01*
Y11521D02*
X13816D01*
X13827Y11517D01*
X13831Y11514D01*
X13835Y11506D01*
Y11498D01*
X13831Y11491D01*
X13827Y11487D01*
X13816Y11483D01*
X13782D01*
X13808D02*
X13835Y11441D01*
X13910Y11502D02*
X13906Y11510D01*
X13899Y11517D01*
X13891Y11521D01*
X13876D01*
X13868Y11517D01*
X13860Y11510D01*
X13857Y11502D01*
X13853Y11491D01*
Y11472D01*
X13857Y11460D01*
X13860Y11453D01*
X13868Y11445D01*
X13876Y11441D01*
X13891D01*
X13899Y11445D01*
X13906Y11453D01*
X13910Y11460D01*
X13932Y11521D02*
Y11464D01*
X13936Y11453D01*
X13944Y11445D01*
X13955Y11441D01*
X13963D01*
X13974Y11445D01*
X13982Y11453D01*
X13986Y11464D01*
Y11521D01*
X14008D02*
Y11441D01*
X14051Y11521D02*
Y11441D01*
X14025Y11521D02*
X14078D01*
X14150D02*
Y11441D01*
Y11521D02*
X14185D01*
X14196Y11517D01*
X14200Y11514D01*
X14204Y11506D01*
Y11498D01*
X14200Y11491D01*
X14196Y11487D01*
X14185Y11483D01*
X14150D01*
X14177D02*
X14204Y11441D01*
X14222Y11472D02*
X14267D01*
Y11479D01*
X14263Y11487D01*
X14260Y11491D01*
X14252Y11495D01*
X14241D01*
X14233Y11491D01*
X14225Y11483D01*
X14222Y11472D01*
Y11464D01*
X14225Y11453D01*
X14233Y11445D01*
X14241Y11441D01*
X14252D01*
X14260Y11445D01*
X14267Y11453D01*
X14284Y11495D02*
X14307Y11441D01*
X14330Y11495D02*
X14307Y11441D01*
X14347Y11449D02*
X14343Y11445D01*
X14347Y11441D01*
X14351Y11445D01*
X14347Y11449D01*
X14492Y11441D02*
X14462Y11521D01*
X14431Y11441D01*
X14442Y11468D02*
X14481D01*
D19*
X12847Y11365D02*
Y11285D01*
X12893D01*
X12963D02*
X12932Y11365D01*
X12902Y11285D01*
X12913Y11312D02*
X12951D01*
X13035Y11353D02*
X13027Y11361D01*
X13016Y11365D01*
X13000D01*
X12989Y11361D01*
X12981Y11353D01*
Y11346D01*
X12985Y11338D01*
X12989Y11334D01*
X12997Y11331D01*
X13020Y11323D01*
X13027Y11319D01*
X13031Y11315D01*
X13035Y11308D01*
Y11296D01*
X13027Y11289D01*
X13016Y11285D01*
X13000D01*
X12989Y11289D01*
X12981Y11296D01*
X13173Y11346D02*
X13169Y11353D01*
X13161Y11361D01*
X13154Y11365D01*
X13138D01*
X13131Y11361D01*
X13123Y11353D01*
X13119Y11346D01*
X13116Y11334D01*
Y11315D01*
X13119Y11304D01*
X13123Y11296D01*
X13131Y11289D01*
X13138Y11285D01*
X13154D01*
X13161Y11289D01*
X13169Y11296D01*
X13173Y11304D01*
X13195Y11365D02*
Y11308D01*
X13199Y11296D01*
X13207Y11289D01*
X13218Y11285D01*
X13226D01*
X13237Y11289D01*
X13245Y11296D01*
X13248Y11308D01*
Y11365D01*
X13271D02*
Y11285D01*
Y11365D02*
X13301Y11285D01*
X13331Y11365D02*
X13301Y11285D01*
X13331Y11365D02*
Y11285D01*
X13354Y11365D02*
Y11285D01*
Y11365D02*
X13389D01*
X13400Y11361D01*
X13404Y11357D01*
X13408Y11350D01*
Y11342D01*
X13404Y11334D01*
X13400Y11331D01*
X13389Y11327D01*
X13354D02*
X13389D01*
X13400Y11323D01*
X13404Y11319D01*
X13408Y11312D01*
Y11300D01*
X13404Y11293D01*
X13400Y11289D01*
X13389Y11285D01*
X13354D01*
X13426Y11365D02*
Y11285D01*
Y11365D02*
X13460D01*
X13471Y11361D01*
X13475Y11357D01*
X13479Y11350D01*
Y11342D01*
X13475Y11334D01*
X13471Y11331D01*
X13460Y11327D01*
X13426D01*
X13452D02*
X13479Y11285D01*
X13546Y11365D02*
X13497D01*
Y11285D01*
X13546D01*
X13497Y11327D02*
X13527D01*
X13613Y11353D02*
X13605Y11361D01*
X13594Y11365D01*
X13579D01*
X13567Y11361D01*
X13560Y11353D01*
Y11346D01*
X13563Y11338D01*
X13567Y11334D01*
X13575Y11331D01*
X13598Y11323D01*
X13605Y11319D01*
X13609Y11315D01*
X13613Y11308D01*
Y11296D01*
X13605Y11289D01*
X13594Y11285D01*
X13579D01*
X13567Y11289D01*
X13560Y11296D01*
X13717Y11365D02*
X13709Y11361D01*
X13701Y11353D01*
X13697Y11346D01*
X13694Y11334D01*
Y11315D01*
X13697Y11304D01*
X13701Y11296D01*
X13709Y11289D01*
X13717Y11285D01*
X13732D01*
X13739Y11289D01*
X13747Y11296D01*
X13751Y11304D01*
X13755Y11315D01*
Y11334D01*
X13751Y11346D01*
X13747Y11353D01*
X13739Y11361D01*
X13732Y11365D01*
X13717D01*
X13773D02*
Y11285D01*
Y11365D02*
X13808D01*
X13819Y11361D01*
X13823Y11357D01*
X13827Y11350D01*
Y11342D01*
X13823Y11334D01*
X13819Y11331D01*
X13808Y11327D01*
X13773D02*
X13808D01*
X13819Y11323D01*
X13823Y11319D01*
X13827Y11312D01*
Y11300D01*
X13823Y11293D01*
X13819Y11289D01*
X13808Y11285D01*
X13773D01*
X13898Y11353D02*
X13890Y11361D01*
X13879Y11365D01*
X13864D01*
X13852Y11361D01*
X13844Y11353D01*
Y11346D01*
X13848Y11338D01*
X13852Y11334D01*
X13860Y11331D01*
X13883Y11323D01*
X13890Y11319D01*
X13894Y11315D01*
X13898Y11308D01*
Y11296D01*
X13890Y11289D01*
X13879Y11285D01*
X13864D01*
X13852Y11289D01*
X13844Y11296D01*
X13965Y11365D02*
X13916D01*
Y11285D01*
X13965D01*
X13916Y11327D02*
X13946D01*
X13979Y11365D02*
Y11285D01*
Y11365D02*
X14013D01*
X14024Y11361D01*
X14028Y11357D01*
X14032Y11350D01*
Y11342D01*
X14028Y11334D01*
X14024Y11331D01*
X14013Y11327D01*
X13979D01*
X14005D02*
X14032Y11285D01*
X14050Y11365D02*
X14080Y11285D01*
X14111Y11365D02*
X14080Y11285D01*
X14182D02*
X14151Y11365D01*
X14121Y11285D01*
X14132Y11312D02*
X14171D01*
X14227Y11365D02*
Y11285D01*
X14201Y11365D02*
X14254D01*
X14286D02*
X14279Y11361D01*
X14271Y11353D01*
X14267Y11346D01*
X14263Y11334D01*
Y11315D01*
X14267Y11304D01*
X14271Y11296D01*
X14279Y11289D01*
X14286Y11285D01*
X14302D01*
X14309Y11289D01*
X14317Y11296D01*
X14321Y11304D01*
X14324Y11315D01*
Y11334D01*
X14321Y11346D01*
X14317Y11353D01*
X14309Y11361D01*
X14302Y11365D01*
X14286D01*
X14343D02*
Y11285D01*
Y11365D02*
X14377D01*
X14389Y11361D01*
X14393Y11357D01*
X14396Y11350D01*
Y11342D01*
X14393Y11334D01*
X14389Y11331D01*
X14377Y11327D01*
X14343D01*
X14370D02*
X14396Y11285D01*
X14414Y11365D02*
X14445Y11327D01*
Y11285D01*
X14475Y11365D02*
X14445Y11327D01*
X14800Y11350D02*
X14807Y11353D01*
X14819Y11365D01*
Y11285D01*
X14881Y11365D02*
X14870Y11361D01*
X14862Y11350D01*
X14858Y11331D01*
Y11319D01*
X14862Y11300D01*
X14870Y11289D01*
X14881Y11285D01*
X14889D01*
X14900Y11289D01*
X14908Y11300D01*
X14912Y11319D01*
Y11331D01*
X14908Y11350D01*
X14900Y11361D01*
X14889Y11365D01*
X14881D01*
X14930Y11273D02*
X14983Y11365D01*
X14988Y11350D02*
X14996Y11353D01*
X15007Y11365D01*
Y11285D01*
X15066Y11365D02*
X15055Y11361D01*
X15051Y11353D01*
Y11346D01*
X15055Y11338D01*
X15062Y11334D01*
X15077Y11331D01*
X15089Y11327D01*
X15096Y11319D01*
X15100Y11312D01*
Y11300D01*
X15096Y11293D01*
X15093Y11289D01*
X15081Y11285D01*
X15066D01*
X15055Y11289D01*
X15051Y11293D01*
X15047Y11300D01*
Y11312D01*
X15051Y11319D01*
X15058Y11327D01*
X15070Y11331D01*
X15085Y11334D01*
X15093Y11338D01*
X15096Y11346D01*
Y11353D01*
X15093Y11361D01*
X15081Y11365D01*
X15066D01*
X15118Y11273D02*
X15171Y11365D01*
X15177Y11350D02*
X15184Y11353D01*
X15196Y11365D01*
Y11285D01*
X15258Y11365D02*
X15247Y11361D01*
X15239Y11350D01*
X15235Y11331D01*
Y11319D01*
X15239Y11300D01*
X15247Y11289D01*
X15258Y11285D01*
X15266D01*
X15277Y11289D01*
X15285Y11300D01*
X15289Y11319D01*
Y11331D01*
X15285Y11350D01*
X15277Y11361D01*
X15266Y11365D01*
X15258D01*
D20*
X14008Y13007D02*
D03*
X14124Y12947D02*
D03*
X14217Y12855D02*
D03*
X14276Y12738D02*
D03*
X14297Y12609D02*
D03*
X14276Y12480D02*
D03*
X14217Y12363D02*
D03*
X14124Y12271D02*
D03*
X14008Y12212D02*
D03*
X13879Y12191D02*
D03*
X13749Y12212D02*
D03*
X13633Y12271D02*
D03*
X13540Y12363D02*
D03*
X13481Y12480D02*
D03*
X13461Y12609D02*
D03*
X13481Y12738D02*
D03*
X13540Y12855D02*
D03*
X13633Y12947D02*
D03*
X13749Y13007D02*
D03*
X13879Y13027D02*
D03*
X14010Y12860D02*
D03*
X14111Y12770D02*
D03*
X14160Y12643D02*
D03*
X14143Y12509D02*
D03*
X14066Y12397D02*
D03*
X13946Y12334D02*
D03*
X13811Y12334D02*
D03*
X13691Y12397D02*
D03*
X13614Y12509D02*
D03*
X13598Y12643D02*
D03*
X13646Y12770D02*
D03*
X13747Y12860D02*
D03*
X13879Y12892D02*
D03*
X13996Y12703D02*
D03*
X14025Y12576D02*
D03*
X13944Y12474D02*
D03*
X13813Y12474D02*
D03*
X13732Y12576D02*
D03*
X13761Y12703D02*
D03*
X13879Y12759D02*
D03*
Y12609D02*
D03*
D21*
X14233Y18783D02*
D03*
D22*
X13524D02*
D03*
D23*
X17378Y16910D02*
D03*
D24*
X17259Y16749D02*
D03*
X17759D02*
D03*
Y17072D02*
D03*
X17259D02*
D03*
D25*
X17903Y17107D02*
D03*
Y16713D02*
D03*
X17116Y16714D02*
D03*
Y17108D02*
D03*
D26*
X13851Y18942D02*
D03*
X13693Y18939D02*
D03*
X13558Y18938D02*
D03*
X14319Y18726D02*
D03*
X13573Y18739D02*
D03*
X13633Y18813D02*
D03*
X13659Y18779D02*
D03*
X13704Y18741D02*
D03*
X13790Y18813D02*
D03*
X13908D02*
D03*
X13947D02*
D03*
X13987D02*
D03*
X14026D02*
D03*
X14066D02*
D03*
X14105D02*
D03*
X14144D02*
D03*
X14184D02*
D03*
X13673Y18597D02*
D03*
X13708Y18629D02*
D03*
X13704Y18566D02*
D03*
X13790Y18632D02*
D03*
X13808Y18566D02*
D03*
X13873Y18567D02*
D03*
X13908Y18633D02*
D03*
X13947Y18602D02*
D03*
X13987Y18634D02*
D03*
X14066Y18633D02*
D03*
X14105Y18581D02*
D03*
X17309Y16990D02*
D03*
X17308Y16829D02*
D03*
X13839Y18805D02*
D03*
X13741D02*
D03*
X13518Y18689D02*
D03*
X13613Y18623D02*
D03*
X14143Y18610D02*
D03*
X14234Y18690D02*
D03*
X14026Y18610D02*
D03*
X13593Y18947D02*
D03*
X13511Y18877D02*
D03*
D28*
X17359Y16699D02*
X17659D01*
X17359D02*
Y16799D01*
X17659D01*
Y16699D02*
Y16799D01*
X17299Y16749D02*
X17359D01*
X17659D02*
X17719D01*
X17359Y17122D02*
X17659D01*
Y17022D02*
Y17122D01*
X17359Y17022D02*
X17659D01*
X17359D02*
Y17122D01*
X17659Y17072D02*
X17719D01*
X17299D02*
X17359D01*
M02*
