%FSLAX25Y25*%
%MOIN*%
G70*
G01*
G75*
G04 Layer_Physical_Order=3*
G04 Layer_Color=128*
%ADD10C,0.01000*%
%ADD11C,0.03000*%
%ADD12C,0.01201*%
%ADD13C,0.00800*%
%ADD14C,0.01200*%
%ADD15C,0.01201*%
%ADD16R,0.05906X0.05906*%
%ADD17C,0.05906*%
%ADD18C,0.27559*%
%ADD19R,0.05906X0.05906*%
%ADD20R,0.12000X0.12000*%
%ADD21C,0.12000*%
%ADD22C,0.25000*%
%ADD23R,0.06200X0.06200*%
%ADD24C,0.06200*%
%ADD25C,0.02400*%
%ADD26C,0.04000*%
%ADD27C,0.07543*%
%ADD28C,0.19748*%
G04:AMPARAMS|DCode=29|XSize=95.433mil|YSize=95.433mil|CornerRadius=0mil|HoleSize=0mil|Usage=FLASHONLY|Rotation=0.000|XOffset=0mil|YOffset=0mil|HoleType=Round|Shape=Relief|Width=10mil|Gap=10mil|Entries=4|*
%AMTHD29*
7,0,0,0.09543,0.07543,0.01000,45*
%
%ADD29THD29*%
%ADD30C,0.11000*%
G04:AMPARAMS|DCode=31|XSize=130mil|YSize=130mil|CornerRadius=0mil|HoleSize=0mil|Usage=FLASHONLY|Rotation=0.000|XOffset=0mil|YOffset=0mil|HoleType=Round|Shape=Relief|Width=10mil|Gap=10mil|Entries=4|*
%AMTHD31*
7,0,0,0.13000,0.11000,0.01000,45*
%
%ADD31THD31*%
%ADD32C,0.16000*%
%ADD33C,0.07500*%
G04:AMPARAMS|DCode=34|XSize=95mil|YSize=95mil|CornerRadius=0mil|HoleSize=0mil|Usage=FLASHONLY|Rotation=0.000|XOffset=0mil|YOffset=0mil|HoleType=Round|Shape=Relief|Width=10mil|Gap=10mil|Entries=4|*
%AMTHD34*
7,0,0,0.09500,0.07500,0.01000,45*
%
%ADD34THD34*%
%ADD35C,0.05000*%
D13*
X-207028Y-72528D02*
X-157028D01*
X-182028Y-97528D02*
Y-47528D01*
X-187028Y-67528D02*
X-187028Y-72528D01*
X-187028Y-67528D02*
X-182028Y-67528D01*
X-177028Y-72528D02*
X-177028Y-77528D01*
X-182028Y-77528D02*
X-177028Y-77528D01*
X-181528Y-73028D02*
X-177528D01*
Y-77028D02*
Y-73028D01*
X-181528Y-77028D02*
X-177528D01*
X-181528D02*
Y-73028D01*
X-181028Y-73528D02*
X-178028D01*
Y-76528D02*
Y-73528D01*
X-181028Y-76528D02*
X-178028D01*
X-181028D02*
Y-74028D01*
X-180528D02*
X-178528D01*
X-178528Y-76028D01*
X-180528Y-76028D02*
X-178528Y-76028D01*
X-180528Y-76028D02*
Y-74528D01*
X-180028Y-74528D02*
X-179028Y-74528D01*
Y-75528D02*
Y-74528D01*
X-180028Y-75528D02*
X-179028D01*
X-180028D02*
X-180028Y-74528D01*
Y-75028D02*
X-179028D01*
X-186528Y-68028D02*
X-182528D01*
Y-72028D02*
Y-68028D01*
X-186528Y-72028D02*
X-182528D01*
X-186528D02*
Y-68028D01*
X-186028Y-68528D02*
X-183028D01*
Y-71528D02*
Y-68528D01*
X-186028Y-71528D02*
X-183028D01*
X-186028D02*
Y-69028D01*
X-185528D02*
X-183528Y-69028D01*
Y-71028D02*
Y-69028D01*
X-185528Y-71028D02*
X-183528D01*
X-185528D02*
Y-69528D01*
X-185028D02*
X-184028D01*
X-184028Y-70528D02*
X-184028Y-69528D01*
X-185028Y-70528D02*
X-184028Y-70528D01*
X-185028Y-70528D02*
Y-69528D01*
Y-70028D02*
X-184028D01*
X-222728Y479172D02*
X-172728D01*
X-197728Y454172D02*
Y504172D01*
X-202728Y484172D02*
X-202728Y479172D01*
X-202728Y484172D02*
X-197728Y484172D01*
X-192728Y479172D02*
X-192728Y474172D01*
X-197728Y474172D02*
X-192728Y474172D01*
X-197228Y478672D02*
X-193228D01*
Y474672D02*
Y478672D01*
X-197228Y474672D02*
X-193228D01*
X-197228D02*
Y478672D01*
X-196728Y478172D02*
X-193728D01*
Y475172D02*
Y478172D01*
X-196728Y475172D02*
X-193728D01*
X-196728D02*
Y477672D01*
X-196228D02*
X-194228D01*
X-194228Y475672D01*
X-196228Y475672D02*
X-194228Y475672D01*
X-196228Y475672D02*
Y477172D01*
X-195728Y477172D02*
X-194728Y477172D01*
Y476172D02*
Y477172D01*
X-195728Y476172D02*
X-194728D01*
X-195728D02*
X-195728Y477172D01*
Y476672D02*
X-194728D01*
X-202228Y483672D02*
X-198228D01*
Y479672D02*
Y483672D01*
X-202228Y479672D02*
X-198228D01*
X-202228D02*
Y483672D01*
X-201728Y483172D02*
X-198728D01*
Y480172D02*
Y483172D01*
X-201728Y480172D02*
X-198728D01*
X-201728D02*
Y482672D01*
X-201228D02*
X-199228Y482672D01*
Y480672D02*
Y482672D01*
X-201227Y480672D02*
X-199228D01*
X-201227D02*
Y482172D01*
X-200728D02*
X-199727D01*
X-199728Y481172D02*
X-199727Y482172D01*
X-200728Y481172D02*
X-199728Y481172D01*
X-200728Y481172D02*
Y482172D01*
Y481672D02*
X-199728D01*
X424872Y478372D02*
X474872D01*
X449872Y453372D02*
Y503372D01*
X444872Y483372D02*
X444873Y478372D01*
X444872Y483372D02*
X449872Y483372D01*
X454872Y478372D02*
X454872Y473372D01*
X449872Y473372D02*
X454872Y473372D01*
X450372Y477872D02*
X454372D01*
Y473872D02*
Y477872D01*
X450372Y473872D02*
X454372D01*
X450372D02*
Y477872D01*
X450872Y477372D02*
X453872D01*
Y474372D02*
Y477372D01*
X450872Y474372D02*
X453872D01*
X450872D02*
Y476872D01*
X451372D02*
X453372D01*
X453372Y474872D01*
X451372Y474872D02*
X453372Y474872D01*
X451372Y474872D02*
Y476372D01*
X451872Y476372D02*
X452872Y476372D01*
Y475372D02*
Y476372D01*
X451872Y475372D02*
X452872D01*
X451872D02*
X451872Y476372D01*
Y475872D02*
X452872D01*
X445372Y482872D02*
X449372D01*
Y478872D02*
Y482872D01*
X445372Y478872D02*
X449372D01*
X445372D02*
Y482872D01*
X445872Y482372D02*
X448872D01*
Y479372D02*
Y482372D01*
X445872Y479372D02*
X448872D01*
X445872D02*
Y481872D01*
X446372D02*
X448372Y481872D01*
Y479872D02*
Y481872D01*
X446373Y479872D02*
X448372D01*
X446373D02*
Y481372D01*
X446872D02*
X447872D01*
X447872Y480372D02*
X447872Y481372D01*
X446872Y480372D02*
X447872Y480372D01*
X446872Y480372D02*
Y481372D01*
Y480872D02*
X447872D01*
D14*
X-13028Y-67283D02*
Y-75281D01*
X-8458D01*
X-1488D02*
X-4535Y-67283D01*
X-7582Y-75281D01*
X-6439Y-72615D02*
X-2631D01*
X378Y-67283D02*
Y-75281D01*
Y-67283D02*
X3425Y-75281D01*
X6472Y-67283D02*
X3425Y-75281D01*
X6472Y-67283D02*
Y-75281D01*
X8758Y-67283D02*
Y-75281D01*
Y-67283D02*
X12185D01*
X13328Y-67664D01*
X13709Y-68045D01*
X14090Y-68806D01*
Y-69568D01*
X13709Y-70330D01*
X13328Y-70711D01*
X12185Y-71092D01*
X8758D02*
X12185D01*
X13328Y-71472D01*
X13709Y-71853D01*
X14090Y-72615D01*
Y-73758D01*
X13709Y-74519D01*
X13328Y-74900D01*
X12185Y-75281D01*
X8758D01*
X20831Y-67283D02*
X15880D01*
Y-75281D01*
X20831D01*
X15880Y-71092D02*
X18927D01*
X22164Y-67283D02*
Y-75281D01*
Y-67283D02*
X25592D01*
X26735Y-67664D01*
X27115Y-68045D01*
X27496Y-68806D01*
Y-69568D01*
X27115Y-70330D01*
X26735Y-70711D01*
X25592Y-71092D01*
X22164D01*
X24830D02*
X27496Y-75281D01*
X31953Y-67283D02*
Y-75281D01*
X29286Y-67283D02*
X34619D01*
X41855D02*
Y-75281D01*
X43531Y-67283D02*
Y-75281D01*
Y-67283D02*
X48863Y-75281D01*
Y-67283D02*
Y-75281D01*
X53738Y-67283D02*
Y-75281D01*
X51072Y-67283D02*
X56404D01*
X62308D02*
X57357D01*
Y-75281D01*
X62308D01*
X57357Y-71092D02*
X60404D01*
X63641Y-67283D02*
Y-75281D01*
Y-67283D02*
X67069D01*
X68211Y-67664D01*
X68592Y-68045D01*
X68973Y-68806D01*
Y-69568D01*
X68592Y-70330D01*
X68211Y-70711D01*
X67069Y-71092D01*
X63641D01*
X66307D02*
X68973Y-75281D01*
X76476Y-69187D02*
X76095Y-68425D01*
X75334Y-67664D01*
X74572Y-67283D01*
X73048D01*
X72287Y-67664D01*
X71525Y-68425D01*
X71144Y-69187D01*
X70763Y-70330D01*
Y-72234D01*
X71144Y-73377D01*
X71525Y-74138D01*
X72287Y-74900D01*
X73048Y-75281D01*
X74572D01*
X75334Y-74900D01*
X76095Y-74138D01*
X76476Y-73377D01*
X81009Y-67283D02*
X80247Y-67664D01*
X79485Y-68425D01*
X79104Y-69187D01*
X78723Y-70330D01*
Y-72234D01*
X79104Y-73377D01*
X79485Y-74138D01*
X80247Y-74900D01*
X81009Y-75281D01*
X82532D01*
X83294Y-74900D01*
X84056Y-74138D01*
X84437Y-73377D01*
X84817Y-72234D01*
Y-70330D01*
X84437Y-69187D01*
X84056Y-68425D01*
X83294Y-67664D01*
X82532Y-67283D01*
X81009D01*
X86684D02*
Y-75281D01*
Y-67283D02*
X92016Y-75281D01*
Y-67283D02*
Y-75281D01*
X94225Y-67283D02*
Y-75281D01*
Y-67283D02*
X99557Y-75281D01*
Y-67283D02*
Y-75281D01*
X106717Y-67283D02*
X101766D01*
Y-75281D01*
X106717D01*
X101766Y-71092D02*
X104813D01*
X113763Y-69187D02*
X113383Y-68425D01*
X112621Y-67664D01*
X111859Y-67283D01*
X110336D01*
X109574Y-67664D01*
X108812Y-68425D01*
X108431Y-69187D01*
X108051Y-70330D01*
Y-72234D01*
X108431Y-73377D01*
X108812Y-74138D01*
X109574Y-74900D01*
X110336Y-75281D01*
X111859D01*
X112621Y-74900D01*
X113383Y-74138D01*
X113763Y-73377D01*
X118677Y-67283D02*
Y-75281D01*
X116011Y-67283D02*
X121343D01*
X123057Y-74900D02*
X122676Y-75281D01*
X122295Y-74900D01*
X122676Y-74519D01*
X123057Y-74900D01*
Y-75662D01*
X122676Y-76424D01*
X122295Y-76805D01*
X131093Y-67283D02*
Y-75281D01*
Y-67283D02*
X134521D01*
X135664Y-67664D01*
X136045Y-68045D01*
X136425Y-68806D01*
Y-69568D01*
X136045Y-70330D01*
X135664Y-70711D01*
X134521Y-71092D01*
X131093D01*
X133759D02*
X136425Y-75281D01*
X138215Y-72234D02*
X142786D01*
Y-71472D01*
X142405Y-70711D01*
X142024Y-70330D01*
X141262Y-69949D01*
X140120D01*
X139358Y-70330D01*
X138596Y-71092D01*
X138215Y-72234D01*
Y-72996D01*
X138596Y-74138D01*
X139358Y-74900D01*
X140120Y-75281D01*
X141262D01*
X142024Y-74900D01*
X142786Y-74138D01*
X144500Y-69949D02*
X146785Y-75281D01*
X149070Y-69949D02*
X146785Y-75281D01*
X150746Y-74519D02*
X150365Y-74900D01*
X150746Y-75281D01*
X151127Y-74900D01*
X150746Y-74519D01*
X165257Y-75281D02*
X162210Y-67283D01*
X159163Y-75281D01*
X160306Y-72615D02*
X164115D01*
D15*
X-25261Y-103813D02*
Y-108383D01*
X-27165Y-104955D02*
X-23357Y-107241D01*
Y-104955D02*
X-27165Y-107241D01*
X-21338Y-111049D02*
X-21719Y-111430D01*
X-21338Y-111811D01*
X-20957Y-111430D01*
X-21338Y-111049D01*
X-13492Y-105717D02*
X-13873Y-104955D01*
X-14635Y-104194D01*
X-15396Y-103813D01*
X-16920D01*
X-17682Y-104194D01*
X-18443Y-104955D01*
X-18824Y-105717D01*
X-19205Y-106860D01*
Y-108764D01*
X-18824Y-109907D01*
X-18443Y-110668D01*
X-17682Y-111430D01*
X-16920Y-111811D01*
X-15396D01*
X-14635Y-111430D01*
X-13873Y-110668D01*
X-13492Y-109907D01*
Y-108764D01*
X-15396D02*
X-13492D01*
X-11664Y-108002D02*
X-8236D01*
X-7094Y-107621D01*
X-6713Y-107241D01*
X-6332Y-106479D01*
Y-105336D01*
X-6713Y-104575D01*
X-7094Y-104194D01*
X-8236Y-103813D01*
X-11664D01*
Y-111811D01*
X-4161Y-105717D02*
Y-105336D01*
X-3780Y-104575D01*
X-3399Y-104194D01*
X-2637Y-103813D01*
X-1114D01*
X-352Y-104194D01*
X29Y-104575D01*
X410Y-105336D01*
Y-106098D01*
X29Y-106860D01*
X-733Y-108002D01*
X-4542Y-111811D01*
X791D01*
X8865Y-108383D02*
X15721D01*
X24366Y-103813D02*
Y-111811D01*
X26042Y-103813D02*
Y-111811D01*
Y-103813D02*
X31374Y-111811D01*
Y-103813D02*
Y-111811D01*
X36250Y-103813D02*
Y-111811D01*
X33584Y-103813D02*
X38916D01*
X44819D02*
X39868D01*
Y-111811D01*
X44819D01*
X39868Y-107621D02*
X42915D01*
X46152Y-103813D02*
Y-111811D01*
Y-103813D02*
X49580D01*
X50723Y-104194D01*
X51104Y-104575D01*
X51485Y-105336D01*
Y-106098D01*
X51104Y-106860D01*
X50723Y-107241D01*
X49580Y-107621D01*
X46152D01*
X48818D02*
X51485Y-111811D01*
X53275Y-103813D02*
Y-111811D01*
Y-103813D02*
X58607Y-111811D01*
Y-103813D02*
Y-111811D01*
X66910D02*
X63863Y-103813D01*
X60816Y-111811D01*
X61958Y-109145D02*
X65767D01*
X68776Y-103813D02*
Y-111811D01*
X73346D01*
X80507Y-108002D02*
X83935D01*
X85077Y-107621D01*
X85458Y-107241D01*
X85839Y-106479D01*
Y-105336D01*
X85458Y-104575D01*
X85077Y-104194D01*
X83935Y-103813D01*
X80507D01*
Y-111811D01*
X87629Y-103813D02*
Y-111811D01*
X92199D01*
X99169D02*
X96122Y-103813D01*
X93076Y-111811D01*
X94218Y-109145D02*
X98027D01*
X101036Y-103813D02*
Y-111811D01*
Y-103813D02*
X106368Y-111811D01*
Y-103813D02*
Y-111811D01*
X113528Y-103813D02*
X108577D01*
Y-111811D01*
X113528D01*
X108577Y-107621D02*
X111624D01*
X121146Y-103813D02*
Y-111811D01*
X125716D01*
X132686D02*
X129639Y-103813D01*
X126592Y-111811D01*
X127735Y-109145D02*
X131544D01*
X134552Y-103813D02*
X137599Y-107621D01*
Y-111811D01*
X140646Y-103813D02*
X137599Y-107621D01*
X146626Y-103813D02*
X141675D01*
Y-111811D01*
X146626D01*
X141675Y-107621D02*
X144722D01*
X147959Y-103813D02*
Y-111811D01*
Y-103813D02*
X151387D01*
X152530Y-104194D01*
X152910Y-104575D01*
X153291Y-105336D01*
Y-106098D01*
X152910Y-106860D01*
X152530Y-107241D01*
X151387Y-107621D01*
X147959D01*
X150625D02*
X153291Y-111811D01*
X161747Y-105717D02*
Y-105336D01*
X162127Y-104575D01*
X162508Y-104194D01*
X163270Y-103813D01*
X164794D01*
X165555Y-104194D01*
X165936Y-104575D01*
X166317Y-105336D01*
Y-106098D01*
X165936Y-106860D01*
X165174Y-108002D01*
X161366Y-111811D01*
X166698D01*
X180485Y-105717D02*
X180104Y-104955D01*
X179343Y-104194D01*
X178581Y-103813D01*
X177058D01*
X176296Y-104194D01*
X175534Y-104955D01*
X175153Y-105717D01*
X174772Y-106860D01*
Y-108764D01*
X175153Y-109907D01*
X175534Y-110668D01*
X176296Y-111430D01*
X177058Y-111811D01*
X178581D01*
X179343Y-111430D01*
X180104Y-110668D01*
X180485Y-109907D01*
Y-108764D01*
X178581D02*
X180485D01*
X187265Y-103813D02*
X182314D01*
Y-111811D01*
X187265D01*
X182314Y-107621D02*
X185361D01*
X188598Y-103813D02*
Y-111811D01*
Y-103813D02*
X192026D01*
X193168Y-104194D01*
X193549Y-104575D01*
X193930Y-105336D01*
Y-106098D01*
X193549Y-106860D01*
X193168Y-107241D01*
X192026Y-107621D01*
X188598D01*
X191264D02*
X193930Y-111811D01*
X195720Y-103813D02*
Y-111811D01*
Y-103813D02*
X199148D01*
X200291Y-104194D01*
X200672Y-104575D01*
X201052Y-105336D01*
Y-106098D01*
X200672Y-106860D01*
X200291Y-107241D01*
X199148Y-107621D01*
X195720D02*
X199148D01*
X200291Y-108002D01*
X200672Y-108383D01*
X201052Y-109145D01*
Y-110287D01*
X200672Y-111049D01*
X200291Y-111430D01*
X199148Y-111811D01*
X195720D01*
X207794Y-103813D02*
X202842D01*
Y-111811D01*
X207794D01*
X202842Y-107621D02*
X205890D01*
X209127Y-103813D02*
Y-111811D01*
Y-103813D02*
X212555D01*
X213697Y-104194D01*
X214078Y-104575D01*
X214459Y-105336D01*
Y-106098D01*
X214078Y-106860D01*
X213697Y-107241D01*
X212555Y-107621D01*
X209127D01*
X211793D02*
X214459Y-111811D01*
X222533Y-103813D02*
Y-111811D01*
Y-103813D02*
X225200D01*
X226342Y-104194D01*
X227104Y-104955D01*
X227485Y-105717D01*
X227866Y-106860D01*
Y-108764D01*
X227485Y-109907D01*
X227104Y-110668D01*
X226342Y-111430D01*
X225200Y-111811D01*
X222533D01*
X235750D02*
X232703Y-103813D01*
X229656Y-111811D01*
X230798Y-109145D02*
X234607D01*
X240282Y-103813D02*
Y-111811D01*
X237616Y-103813D02*
X242948D01*
X249994Y-111811D02*
X246947Y-103813D01*
X243900Y-111811D01*
X245043Y-109145D02*
X248852D01*
X-13028Y-82284D02*
Y-90283D01*
X-8458D01*
X-1488D02*
X-4535Y-82284D01*
X-7582Y-90283D01*
X-6439Y-87617D02*
X-2631D01*
X5711Y-83427D02*
X4949Y-82665D01*
X3806Y-82284D01*
X2283D01*
X1140Y-82665D01*
X378Y-83427D01*
Y-84189D01*
X759Y-84951D01*
X1140Y-85331D01*
X1902Y-85712D01*
X4187Y-86474D01*
X4949Y-86855D01*
X5330Y-87236D01*
X5711Y-87998D01*
Y-89140D01*
X4949Y-89902D01*
X3806Y-90283D01*
X2283D01*
X1140Y-89902D01*
X378Y-89140D01*
X19498Y-84189D02*
X19117Y-83427D01*
X18355Y-82665D01*
X17594Y-82284D01*
X16070D01*
X15308Y-82665D01*
X14547Y-83427D01*
X14166Y-84189D01*
X13785Y-85331D01*
Y-87236D01*
X14166Y-88378D01*
X14547Y-89140D01*
X15308Y-89902D01*
X16070Y-90283D01*
X17594D01*
X18355Y-89902D01*
X19117Y-89140D01*
X19498Y-88378D01*
X21745Y-82284D02*
Y-87998D01*
X22126Y-89140D01*
X22888Y-89902D01*
X24030Y-90283D01*
X24792D01*
X25935Y-89902D01*
X26697Y-89140D01*
X27077Y-87998D01*
Y-82284D01*
X29286D02*
Y-90283D01*
Y-82284D02*
X32333Y-90283D01*
X35380Y-82284D02*
X32333Y-90283D01*
X35380Y-82284D02*
Y-90283D01*
X37666Y-82284D02*
Y-90283D01*
Y-82284D02*
X41093D01*
X42236Y-82665D01*
X42617Y-83046D01*
X42998Y-83808D01*
Y-84570D01*
X42617Y-85331D01*
X42236Y-85712D01*
X41093Y-86093D01*
X37666D02*
X41093D01*
X42236Y-86474D01*
X42617Y-86855D01*
X42998Y-87617D01*
Y-88759D01*
X42617Y-89521D01*
X42236Y-89902D01*
X41093Y-90283D01*
X37666D01*
X44788Y-82284D02*
Y-90283D01*
Y-82284D02*
X48216D01*
X49358Y-82665D01*
X49739Y-83046D01*
X50120Y-83808D01*
Y-84570D01*
X49739Y-85331D01*
X49358Y-85712D01*
X48216Y-86093D01*
X44788D01*
X47454D02*
X50120Y-90283D01*
X56861Y-82284D02*
X51910D01*
Y-90283D01*
X56861D01*
X51910Y-86093D02*
X54957D01*
X63527Y-83427D02*
X62765Y-82665D01*
X61622Y-82284D01*
X60099D01*
X58956Y-82665D01*
X58195Y-83427D01*
Y-84189D01*
X58575Y-84951D01*
X58956Y-85331D01*
X59718Y-85712D01*
X62003Y-86474D01*
X62765Y-86855D01*
X63146Y-87236D01*
X63527Y-87998D01*
Y-89140D01*
X62765Y-89902D01*
X61622Y-90283D01*
X60099D01*
X58956Y-89902D01*
X58195Y-89140D01*
X73886Y-82284D02*
X73125Y-82665D01*
X72363Y-83427D01*
X71982Y-84189D01*
X71601Y-85331D01*
Y-87236D01*
X71982Y-88378D01*
X72363Y-89140D01*
X73125Y-89902D01*
X73886Y-90283D01*
X75410D01*
X76172Y-89902D01*
X76933Y-89140D01*
X77314Y-88378D01*
X77695Y-87236D01*
Y-85331D01*
X77314Y-84189D01*
X76933Y-83427D01*
X76172Y-82665D01*
X75410Y-82284D01*
X73886D01*
X79561D02*
Y-90283D01*
Y-82284D02*
X82989D01*
X84132Y-82665D01*
X84513Y-83046D01*
X84894Y-83808D01*
Y-84570D01*
X84513Y-85331D01*
X84132Y-85712D01*
X82989Y-86093D01*
X79561D02*
X82989D01*
X84132Y-86474D01*
X84513Y-86855D01*
X84894Y-87617D01*
Y-88759D01*
X84513Y-89521D01*
X84132Y-89902D01*
X82989Y-90283D01*
X79561D01*
X92016Y-83427D02*
X91254Y-82665D01*
X90111Y-82284D01*
X88588D01*
X87445Y-82665D01*
X86684Y-83427D01*
Y-84189D01*
X87064Y-84951D01*
X87445Y-85331D01*
X88207Y-85712D01*
X90492Y-86474D01*
X91254Y-86855D01*
X91635Y-87236D01*
X92016Y-87998D01*
Y-89140D01*
X91254Y-89902D01*
X90111Y-90283D01*
X88588D01*
X87445Y-89902D01*
X86684Y-89140D01*
X98757Y-82284D02*
X93806D01*
Y-90283D01*
X98757D01*
X93806Y-86093D02*
X96853D01*
X100090Y-82284D02*
Y-90283D01*
Y-82284D02*
X103518D01*
X104661Y-82665D01*
X105042Y-83046D01*
X105422Y-83808D01*
Y-84570D01*
X105042Y-85331D01*
X104661Y-85712D01*
X103518Y-86093D01*
X100090D01*
X102756D02*
X105422Y-90283D01*
X107212Y-82284D02*
X110259Y-90283D01*
X113306Y-82284D02*
X110259Y-90283D01*
X120429D02*
X117382Y-82284D01*
X114335Y-90283D01*
X115477Y-87617D02*
X119286D01*
X124961Y-82284D02*
Y-90283D01*
X122295Y-82284D02*
X127627D01*
X130865D02*
X130103Y-82665D01*
X129341Y-83427D01*
X128960Y-84189D01*
X128579Y-85331D01*
Y-87236D01*
X128960Y-88378D01*
X129341Y-89140D01*
X130103Y-89902D01*
X130865Y-90283D01*
X132388D01*
X133150Y-89902D01*
X133912Y-89140D01*
X134292Y-88378D01*
X134673Y-87236D01*
Y-85331D01*
X134292Y-84189D01*
X133912Y-83427D01*
X133150Y-82665D01*
X132388Y-82284D01*
X130865D01*
X136540D02*
Y-90283D01*
Y-82284D02*
X139967D01*
X141110Y-82665D01*
X141491Y-83046D01*
X141872Y-83808D01*
Y-84570D01*
X141491Y-85331D01*
X141110Y-85712D01*
X139967Y-86093D01*
X136540D01*
X139206D02*
X141872Y-90283D01*
X143662Y-82284D02*
X146709Y-86093D01*
Y-90283D01*
X149756Y-82284D02*
X146709Y-86093D01*
X182587Y-84189D02*
Y-83808D01*
X182968Y-83046D01*
X183349Y-82665D01*
X184110Y-82284D01*
X185634D01*
X186396Y-82665D01*
X186776Y-83046D01*
X187157Y-83808D01*
Y-84570D01*
X186776Y-85331D01*
X186015Y-86474D01*
X182206Y-90283D01*
X187538D01*
X189328Y-91425D02*
X194660Y-82284D01*
X195194Y-83808D02*
X195955Y-83427D01*
X197098Y-82284D01*
Y-90283D01*
X201059Y-91425D02*
X206391Y-82284D01*
X207305Y-84189D02*
Y-83808D01*
X207686Y-83046D01*
X208067Y-82665D01*
X208829Y-82284D01*
X210352D01*
X211114Y-82665D01*
X211495Y-83046D01*
X211876Y-83808D01*
Y-84570D01*
X211495Y-85331D01*
X210733Y-86474D01*
X206925Y-90283D01*
X212257D01*
X216332Y-82284D02*
X215189Y-82665D01*
X214428Y-83808D01*
X214047Y-85712D01*
Y-86855D01*
X214428Y-88759D01*
X215189Y-89902D01*
X216332Y-90283D01*
X217094D01*
X218236Y-89902D01*
X218998Y-88759D01*
X219379Y-86855D01*
Y-85712D01*
X218998Y-83808D01*
X218236Y-82665D01*
X217094Y-82284D01*
X216332D01*
X221169Y-83808D02*
X221931Y-83427D01*
X223073Y-82284D01*
Y-90283D01*
X229320Y-82284D02*
X228177Y-82665D01*
X227415Y-83808D01*
X227034Y-85712D01*
Y-86855D01*
X227415Y-88759D01*
X228177Y-89902D01*
X229320Y-90283D01*
X230081D01*
X231224Y-89902D01*
X231986Y-88759D01*
X232367Y-86855D01*
Y-85712D01*
X231986Y-83808D01*
X231224Y-82665D01*
X230081Y-82284D01*
X229320D01*
D26*
X0Y0D02*
Y326772D01*
X220472D01*
Y181102D02*
Y326772D01*
X157480Y181102D02*
X220472D01*
X157480Y0D02*
Y181102D01*
X0Y0D02*
X157480D01*
D27*
X37008Y70866D02*
D03*
X27008D02*
D03*
X37008Y80866D02*
D03*
X27008D02*
D03*
X37008Y90866D02*
D03*
X27008D02*
D03*
X37008Y100866D02*
D03*
X27008D02*
D03*
X34646Y266929D02*
D03*
X44646D02*
D03*
X54646D02*
D03*
X64646D02*
D03*
X74646D02*
D03*
X84646D02*
D03*
D28*
X31496Y176969D02*
D03*
X129921Y295079D02*
D03*
Y57874D02*
D03*
D30*
X170472Y218898D02*
D03*
Y234498D02*
D03*
Y250098D02*
D03*
Y265698D02*
D03*
Y281298D02*
D03*
D31*
Y296898D02*
D03*
D32*
X127756Y22835D02*
D03*
X29756D02*
D03*
D33*
X95551Y32835D02*
D03*
Y12835D02*
D03*
X100039Y22835D02*
D03*
X86535Y12835D02*
D03*
X91024Y22835D02*
D03*
X86535Y32835D02*
D03*
X77520Y12835D02*
D03*
Y32835D02*
D03*
X68504Y12835D02*
D03*
X72992Y22835D02*
D03*
X68504Y32835D02*
D03*
X59488Y12835D02*
D03*
X63976Y22835D02*
D03*
X59488Y32835D02*
D03*
D34*
X82008Y22835D02*
D03*
D35*
X10000Y32000D02*
D03*
X110000Y219000D02*
D03*
X104000Y79000D02*
D03*
X100000Y233000D02*
D03*
X95000Y71000D02*
D03*
X91000Y252000D02*
D03*
X34000D02*
D03*
X86000Y90000D02*
D03*
X78000Y55000D02*
D03*
X73000Y83800D02*
D03*
X68000Y245200D02*
D03*
X63900Y101300D02*
D03*
X52500Y238500D02*
D03*
M02*
