%FSLAX25Y25*%
%MOIN*%
G70*
G01*
G75*
G04 Layer_Color=2752767*
%ADD10C,0.03000*%
%ADD11C,0.00667*%
%ADD12C,0.02000*%
%ADD13C,0.01000*%
%ADD14C,0.01800*%
%ADD15C,0.01600*%
%ADD16C,0.01200*%
%ADD17C,0.02400*%
%ADD18C,0.00600*%
%ADD19C,0.01333*%
D10*
X133366Y95965D02*
G03*
X137795Y100394I0J4429D01*
G01*
X106299Y100492D02*
G03*
X110728Y96063I4429J0D01*
G01*
X110630Y151083D02*
G03*
X106201Y146653I0J-4429D01*
G01*
X137795Y146653D02*
G03*
X133366Y151083I-4429J0D01*
G01*
X244094Y251181D02*
G03*
X236221Y259055I-7874J0D01*
G01*
X236221Y0D02*
G03*
X244094Y7874I0J7874D01*
G01*
X0Y7874D02*
G03*
X7874Y0I7874J0D01*
G01*
Y259055D02*
G03*
X0Y251181I0J-7874D01*
G01*
X110630Y151083D02*
X133366D01*
X106299Y100492D02*
Y146653D01*
X110728Y95965D02*
X133366D01*
X137795Y100394D02*
Y146653D01*
X7874Y259055D02*
X236221D01*
X0Y93519D02*
Y252933D01*
X244094Y182419D02*
Y250862D01*
X0Y7874D02*
Y94719D01*
X7874Y0D02*
X159031D01*
X244094Y7874D02*
Y183919D01*
X158531Y0D02*
X236221D01*
X62961Y64535D02*
Y68535D01*
X66961D01*
Y64535D01*
X62961D01*
X-1336913Y693549D02*
X863087D01*
Y-1006451D02*
Y693549D01*
X-1336913Y-1006451D02*
X863087D01*
X-1336913D02*
Y693549D01*
D11*
X130482Y182754D02*
G03*
X130482Y182754I-2000J0D01*
G01*
X64719Y129860D02*
G03*
X64719Y129860I-2000J0D01*
G01*
X117612Y64096D02*
G03*
X117612Y64096I-2000J0D01*
G01*
X183376Y116990D02*
G03*
X183376Y116990I-2000J0D01*
G01*
X80618Y240913D02*
X78618Y244913D01*
X82618D01*
X80618Y240913D01*
X162508D02*
X163508Y241913D01*
X164508D01*
X163508Y242913D01*
X164508Y243913D01*
X163508D01*
X162508Y244913D01*
X161508Y243913D01*
X160508D01*
X161508Y242913D01*
X160508Y241913D01*
X161508D01*
X162508Y240913D01*
X160717Y126917D02*
X161717Y128917D01*
X160717Y130917D01*
X162717Y129917D01*
X164717Y130917D01*
X163717Y128917D01*
X164717Y126917D01*
X162717Y127917D01*
X160717Y126917D01*
X125362Y162272D02*
X126362Y164272D01*
X125362Y166272D01*
X127362Y165272D01*
X129362Y166272D01*
X128362Y164272D01*
X129362Y162272D01*
X127362Y163272D01*
X125362Y162272D01*
X160717Y116327D02*
X161717Y118327D01*
X160717Y120327D01*
X162717Y119327D01*
X164717Y120327D01*
X163717Y118327D01*
X164717Y116327D01*
X162717Y117327D01*
X160717Y116327D01*
X125362Y80972D02*
X126362Y82972D01*
X125362Y84972D01*
X127362Y83972D01*
X129362Y84972D01*
X128362Y82972D01*
X129362Y80972D01*
X127362Y81972D01*
X125362Y80972D01*
X114752Y162292D02*
X115752Y164292D01*
X114752Y166292D01*
X116753Y165292D01*
X118753Y166292D01*
X117753Y164292D01*
X118753Y162292D01*
X116753Y163292D01*
X114752Y162292D01*
X79397Y126936D02*
X80397Y128937D01*
X79397Y130937D01*
X81397Y129937D01*
X83397Y130937D01*
X82397Y128937D01*
X83397Y126936D01*
X81397Y127936D01*
X79397Y126936D01*
X114733Y80972D02*
X115733Y82972D01*
X114733Y84972D01*
X116733Y83972D01*
X118733Y84972D01*
X117733Y82972D01*
X118733Y80972D01*
X116733Y81972D01*
X114733Y80972D01*
X79377Y116327D02*
X80377Y118327D01*
X79377Y120327D01*
X81377Y119327D01*
X83377Y120327D01*
X82377Y118327D01*
X83377Y116327D01*
X81377Y117327D01*
X79377Y116327D01*
X221049Y22622D02*
Y21622D01*
X223049D01*
Y22622D01*
X224049D01*
Y24622D01*
X223049D01*
Y25622D01*
X221049D01*
Y24622D01*
X220049D01*
Y22622D01*
X221049D01*
X211049D02*
Y21622D01*
X213049D01*
Y22622D01*
X214049D01*
Y24622D01*
X213049D01*
Y25622D01*
X211049D01*
Y24622D01*
X210049D01*
Y22622D01*
X211049D01*
X201049D02*
Y21622D01*
X203049D01*
Y22622D01*
X204049D01*
Y24622D01*
X203049D01*
Y25622D01*
X201049D01*
Y24622D01*
X200049D01*
Y22622D01*
X201049D01*
X191049D02*
Y21622D01*
X193049D01*
Y22622D01*
X194049D01*
Y24622D01*
X193049D01*
Y25622D01*
X191049D01*
Y24622D01*
X190049D01*
Y22622D01*
X191049D01*
X181049D02*
Y21622D01*
X183049D01*
Y22622D01*
X184049D01*
Y24622D01*
X183049D01*
Y25622D01*
X181049D01*
Y24622D01*
X180049D01*
Y22622D01*
X181049D01*
X171049D02*
Y21622D01*
X173049D01*
Y22622D01*
X174049D01*
Y24622D01*
X173049D01*
Y25622D01*
X171049D01*
Y24622D01*
X170049D01*
Y22622D01*
X171049D01*
X81049D02*
Y21622D01*
X83049D01*
Y22622D01*
X84049D01*
Y24622D01*
X83049D01*
Y25622D01*
X81049D01*
Y24622D01*
X80049D01*
Y22622D01*
X81049D01*
X71049D02*
Y21622D01*
X73049D01*
Y22622D01*
X74049D01*
Y24622D01*
X73049D01*
Y25622D01*
X71049D01*
Y24622D01*
X70049D01*
Y22622D01*
X71049D01*
X61049D02*
Y21622D01*
X63049D01*
Y22622D01*
X64049D01*
Y24622D01*
X63049D01*
Y25622D01*
X61049D01*
Y24622D01*
X60049D01*
Y22622D01*
X61049D01*
X51049D02*
Y21622D01*
X53049D01*
Y22622D01*
X54049D01*
Y24622D01*
X53049D01*
Y25622D01*
X51049D01*
Y24622D01*
X50049D01*
Y22622D01*
X51049D01*
X41049D02*
Y21622D01*
X43049D01*
Y22622D01*
X44049D01*
Y24622D01*
X43049D01*
Y25622D01*
X41049D01*
Y24622D01*
X40049D01*
Y22622D01*
X41049D01*
X31049D02*
Y21622D01*
X33049D01*
Y22622D01*
X34049D01*
Y24622D01*
X33049D01*
Y25622D01*
X31049D01*
Y24622D01*
X30049D01*
Y22622D01*
X31049D01*
X21049D02*
Y21622D01*
X23049D01*
Y22622D01*
X24049D01*
Y24622D01*
X23049D01*
Y25622D01*
X21049D01*
Y24622D01*
X20049D01*
Y22622D01*
X21049D01*
X221049Y32622D02*
Y31622D01*
X223049D01*
Y32622D01*
X224049D01*
Y34622D01*
X223049D01*
Y35622D01*
X221049D01*
Y34622D01*
X220049D01*
Y32622D01*
X221049D01*
X211049D02*
Y31622D01*
X213049D01*
Y32622D01*
X214049D01*
Y34622D01*
X213049D01*
Y35622D01*
X211049D01*
Y34622D01*
X210049D01*
Y32622D01*
X211049D01*
X201049D02*
Y31622D01*
X203049D01*
Y32622D01*
X204049D01*
Y34622D01*
X203049D01*
Y35622D01*
X201049D01*
Y34622D01*
X200049D01*
Y32622D01*
X201049D01*
X191049D02*
Y31622D01*
X193049D01*
Y32622D01*
X194049D01*
Y34622D01*
X193049D01*
Y35622D01*
X191049D01*
Y34622D01*
X190049D01*
Y32622D01*
X191049D01*
X181049D02*
Y31622D01*
X183049D01*
Y32622D01*
X184049D01*
Y34622D01*
X183049D01*
Y35622D01*
X181049D01*
Y34622D01*
X180049D01*
Y32622D01*
X181049D01*
X171049D02*
Y31622D01*
X173049D01*
Y32622D01*
X174049D01*
Y34622D01*
X173049D01*
Y35622D01*
X171049D01*
Y34622D01*
X170049D01*
Y32622D01*
X171049D01*
X161049D02*
Y31622D01*
X163049D01*
Y32622D01*
X164049D01*
Y34622D01*
X163049D01*
Y35622D01*
X161049D01*
Y34622D01*
X160049D01*
Y32622D01*
X161049D01*
X81049D02*
Y31622D01*
X83049D01*
Y32622D01*
X84049D01*
Y34622D01*
X83049D01*
Y35622D01*
X81049D01*
Y34622D01*
X80049D01*
Y32622D01*
X81049D01*
X71049D02*
Y31622D01*
X73049D01*
Y32622D01*
X74049D01*
Y34622D01*
X73049D01*
Y35622D01*
X71049D01*
Y34622D01*
X70049D01*
Y32622D01*
X71049D01*
X61049D02*
Y31622D01*
X63049D01*
Y32622D01*
X64049D01*
Y34622D01*
X63049D01*
Y35622D01*
X61049D01*
Y34622D01*
X60049D01*
Y32622D01*
X61049D01*
X51049D02*
Y31622D01*
X53049D01*
Y32622D01*
X54049D01*
Y34622D01*
X53049D01*
Y35622D01*
X51049D01*
Y34622D01*
X50049D01*
Y32622D01*
X51049D01*
X41049D02*
Y31622D01*
X43049D01*
Y32622D01*
X44049D01*
Y34622D01*
X43049D01*
Y35622D01*
X41049D01*
Y34622D01*
X40049D01*
Y32622D01*
X41049D01*
X31049D02*
Y31622D01*
X33049D01*
Y32622D01*
X34049D01*
Y34622D01*
X33049D01*
Y35622D01*
X31049D01*
Y34622D01*
X30049D01*
Y32622D01*
X31049D01*
X21049D02*
Y31622D01*
X23049D01*
Y32622D01*
X24049D01*
Y34622D01*
X23049D01*
Y35622D01*
X21049D01*
Y34622D01*
X20049D01*
Y32622D01*
X21049D01*
X221049Y222622D02*
Y221622D01*
X223049D01*
Y222622D01*
X224049D01*
Y224622D01*
X223049D01*
Y225622D01*
X221049D01*
Y224622D01*
X220049D01*
Y222622D01*
X221049D01*
X211049D02*
Y221622D01*
X213049D01*
Y222622D01*
X214049D01*
Y224622D01*
X213049D01*
Y225622D01*
X211049D01*
Y224622D01*
X210049D01*
Y222622D01*
X211049D01*
X201049D02*
Y221622D01*
X203049D01*
Y222622D01*
X204049D01*
Y224622D01*
X203049D01*
Y225622D01*
X201049D01*
Y224622D01*
X200049D01*
Y222622D01*
X201049D01*
X191049D02*
Y221622D01*
X193049D01*
Y222622D01*
X194049D01*
Y224622D01*
X193049D01*
Y225622D01*
X191049D01*
Y224622D01*
X190049D01*
Y222622D01*
X191049D01*
X181049D02*
Y221622D01*
X183049D01*
Y222622D01*
X184049D01*
Y224622D01*
X183049D01*
Y225622D01*
X181049D01*
Y224622D01*
X180049D01*
Y222622D01*
X181049D01*
X171049D02*
Y221622D01*
X173049D01*
Y222622D01*
X174049D01*
Y224622D01*
X173049D01*
Y225622D01*
X171049D01*
Y224622D01*
X170049D01*
Y222622D01*
X171049D01*
X81049D02*
Y221622D01*
X83049D01*
Y222622D01*
X84049D01*
Y224622D01*
X83049D01*
Y225622D01*
X81049D01*
Y224622D01*
X80049D01*
Y222622D01*
X81049D01*
X71049D02*
Y221622D01*
X73049D01*
Y222622D01*
X74049D01*
Y224622D01*
X73049D01*
Y225622D01*
X71049D01*
Y224622D01*
X70049D01*
Y222622D01*
X71049D01*
X61049D02*
Y221622D01*
X63049D01*
Y222622D01*
X64049D01*
Y224622D01*
X63049D01*
Y225622D01*
X61049D01*
Y224622D01*
X60049D01*
Y222622D01*
X61049D01*
X51049D02*
Y221622D01*
X53049D01*
Y222622D01*
X54049D01*
Y224622D01*
X53049D01*
Y225622D01*
X51049D01*
Y224622D01*
X50049D01*
Y222622D01*
X51049D01*
X41049D02*
Y221622D01*
X43049D01*
Y222622D01*
X44049D01*
Y224622D01*
X43049D01*
Y225622D01*
X41049D01*
Y224622D01*
X40049D01*
Y222622D01*
X41049D01*
X31049D02*
Y221622D01*
X33049D01*
Y222622D01*
X34049D01*
Y224622D01*
X33049D01*
Y225622D01*
X31049D01*
Y224622D01*
X30049D01*
Y222622D01*
X31049D01*
X21049D02*
Y221622D01*
X23049D01*
Y222622D01*
X24049D01*
Y224622D01*
X23049D01*
Y225622D01*
X21049D01*
Y224622D01*
X20049D01*
Y222622D01*
X21049D01*
X221049Y212622D02*
Y211622D01*
X223049D01*
Y212622D01*
X224049D01*
Y214622D01*
X223049D01*
Y215622D01*
X221049D01*
Y214622D01*
X220049D01*
Y212622D01*
X221049D01*
X211049D02*
Y211622D01*
X213049D01*
Y212622D01*
X214049D01*
Y214622D01*
X213049D01*
Y215622D01*
X211049D01*
Y214622D01*
X210049D01*
Y212622D01*
X211049D01*
X201049D02*
Y211622D01*
X203049D01*
Y212622D01*
X204049D01*
Y214622D01*
X203049D01*
Y215622D01*
X201049D01*
Y214622D01*
X200049D01*
Y212622D01*
X201049D01*
X191049D02*
Y211622D01*
X193049D01*
Y212622D01*
X194049D01*
Y214622D01*
X193049D01*
Y215622D01*
X191049D01*
Y214622D01*
X190049D01*
Y212622D01*
X191049D01*
X181049D02*
Y211622D01*
X183049D01*
Y212622D01*
X184049D01*
Y214622D01*
X183049D01*
Y215622D01*
X181049D01*
Y214622D01*
X180049D01*
Y212622D01*
X181049D01*
X171049D02*
Y211622D01*
X173049D01*
Y212622D01*
X174049D01*
Y214622D01*
X173049D01*
Y215622D01*
X171049D01*
Y214622D01*
X170049D01*
Y212622D01*
X171049D01*
X161049D02*
Y211622D01*
X163049D01*
Y212622D01*
X164049D01*
Y214622D01*
X163049D01*
Y215622D01*
X161049D01*
Y214622D01*
X160049D01*
Y212622D01*
X161049D01*
X81049D02*
Y211622D01*
X83049D01*
Y212622D01*
X84049D01*
Y214622D01*
X83049D01*
Y215622D01*
X81049D01*
Y214622D01*
X80049D01*
Y212622D01*
X81049D01*
X71049D02*
Y211622D01*
X73049D01*
Y212622D01*
X74049D01*
Y214622D01*
X73049D01*
Y215622D01*
X71049D01*
Y214622D01*
X70049D01*
Y212622D01*
X71049D01*
X61049D02*
Y211622D01*
X63049D01*
Y212622D01*
X64049D01*
Y214622D01*
X63049D01*
Y215622D01*
X61049D01*
Y214622D01*
X60049D01*
Y212622D01*
X61049D01*
X51049D02*
Y211622D01*
X53049D01*
Y212622D01*
X54049D01*
Y214622D01*
X53049D01*
Y215622D01*
X51049D01*
Y214622D01*
X50049D01*
Y212622D01*
X51049D01*
X41049D02*
Y211622D01*
X43049D01*
Y212622D01*
X44049D01*
Y214622D01*
X43049D01*
Y215622D01*
X41049D01*
Y214622D01*
X40049D01*
Y212622D01*
X41049D01*
X31049D02*
Y211622D01*
X33049D01*
Y212622D01*
X34049D01*
Y214622D01*
X33049D01*
Y215622D01*
X31049D01*
Y214622D01*
X30049D01*
Y212622D01*
X31049D01*
X21049D02*
Y211622D01*
X23049D01*
Y212622D01*
X24049D01*
Y214622D01*
X23049D01*
Y215622D01*
X21049D01*
Y214622D01*
X20049D01*
Y212622D01*
X21049D01*
X55087Y241307D02*
X56087D01*
X57087Y242307D01*
X58087Y241307D01*
X59087D01*
Y242307D01*
X58087Y243307D01*
X59087Y244307D01*
Y245307D01*
X58087D01*
X57087Y244307D01*
X56087Y245307D01*
X55087D01*
Y244307D01*
X56087Y243307D01*
X55087Y242307D01*
Y241307D01*
X185008D02*
X186008D01*
X187008Y242307D01*
X188008Y241307D01*
X189008D01*
Y242307D01*
X188008Y243307D01*
X189008Y244307D01*
Y245307D01*
X188008D01*
X187008Y244307D01*
X186008Y245307D01*
X185008D01*
Y244307D01*
X186008Y243307D01*
X185008Y242307D01*
Y241307D01*
X177134Y64535D02*
Y68535D01*
X181134D01*
Y64535D01*
X177134D01*
X62961Y178709D02*
Y182709D01*
X66961D01*
Y178709D01*
X62961D01*
X177134D02*
Y182709D01*
X181134D01*
Y178709D01*
X177134D01*
X164339Y167913D02*
X166339Y169913D01*
X168339Y167913D01*
X166339Y165913D01*
X164339Y167913D01*
X75756D02*
X77756Y169913D01*
X79756Y167913D01*
X77756Y165913D01*
X75756Y167913D01*
X164339Y79331D02*
X166339Y81331D01*
X168339Y79331D01*
X166339Y77331D01*
X164339Y79331D01*
X76240Y79527D02*
X78240Y81528D01*
X80240Y79527D01*
X78240Y77527D01*
X76240Y79527D01*
X230283Y216622D02*
Y220622D01*
X234283D01*
Y216622D01*
X230283D01*
X9811D02*
Y220622D01*
X13811D01*
Y216622D01*
X9811D01*
Y26622D02*
Y30622D01*
X13811D01*
Y26622D01*
X9811D01*
X230283D02*
Y30622D01*
X234283D01*
Y26622D01*
X230283D01*
X116610Y245110D02*
Y249110D01*
X120610D01*
Y245110D01*
X116610D01*
X117410Y245910D02*
Y248310D01*
X119810D01*
Y245910D01*
X117410D01*
X121900Y169000D02*
Y173000D01*
X125900D01*
Y169000D01*
X121900D01*
X122700Y169800D02*
Y172200D01*
X125100D01*
Y169800D01*
X122700D01*
X112700Y244500D02*
Y248500D01*
X116700D01*
Y244500D01*
X112700D01*
X113500Y245300D02*
Y247700D01*
X115900D01*
Y245300D01*
X113500D01*
X142000Y211000D02*
Y215000D01*
X146000D01*
Y211000D01*
X142000D01*
X142800Y211800D02*
Y214200D01*
X145200D01*
Y211800D01*
X142800D01*
X128500Y211000D02*
Y215000D01*
X132500D01*
Y211000D01*
X128500D01*
X129300Y211800D02*
Y214200D01*
X131700D01*
Y211800D01*
X129300D01*
X33925Y237469D02*
Y241469D01*
X37925D01*
Y237469D01*
X33925D01*
X34725Y238268D02*
Y240669D01*
X37125D01*
Y238268D01*
X34725D01*
X19161Y204201D02*
Y208201D01*
X23161D01*
Y204201D01*
X19161D01*
X19961Y205001D02*
Y207401D01*
X22361D01*
Y205001D01*
X19961D01*
X60047Y953D02*
Y4953D01*
X64047D01*
Y953D01*
X60047D01*
X60847Y1753D02*
Y4153D01*
X63247D01*
Y1753D01*
X60847D01*
X50047Y1150D02*
Y5150D01*
X54047D01*
Y1150D01*
X50047D01*
X50847Y1950D02*
Y4350D01*
X53247D01*
Y1950D01*
X50847D01*
X190047Y854D02*
Y4854D01*
X194047D01*
Y854D01*
X190047D01*
X190847Y1654D02*
Y4054D01*
X193247D01*
Y1654D01*
X190847D01*
X180047Y953D02*
Y4953D01*
X184047D01*
Y953D01*
X180047D01*
X180847Y1753D02*
Y4153D01*
X183247D01*
Y1753D01*
X180847D01*
X218965Y13748D02*
Y17748D01*
X222965D01*
Y13748D01*
X218965D01*
X219765Y14548D02*
Y16948D01*
X222165D01*
Y14548D01*
X219765D01*
X210500Y197213D02*
Y201213D01*
X214500D01*
Y197213D01*
X210500D01*
X211300Y198013D02*
Y200413D01*
X213700D01*
Y198013D01*
X211300D01*
X223590Y235008D02*
Y239008D01*
X227590D01*
Y235008D01*
X223590D01*
X224391Y235808D02*
Y238208D01*
X226790D01*
Y235808D01*
X224391D01*
X28413Y3413D02*
Y7413D01*
X32413D01*
Y3413D01*
X28413D01*
X29213Y4213D02*
Y6613D01*
X31613D01*
Y4213D01*
X29213D01*
X32350Y50362D02*
Y54362D01*
X36350D01*
Y50362D01*
X32350D01*
X33150Y51162D02*
Y53562D01*
X35550D01*
Y51162D01*
X33150D01*
X41247Y194925D02*
Y198925D01*
X45247D01*
Y194925D01*
X41247D01*
X42047Y195725D02*
Y198125D01*
X44447D01*
Y195725D01*
X42047D01*
X200264Y188256D02*
Y192256D01*
X204264D01*
Y188256D01*
X200264D01*
X201064Y189056D02*
Y191456D01*
X203464D01*
Y189056D01*
X201064D01*
X199247Y59625D02*
Y63625D01*
X203247D01*
Y59625D01*
X199247D01*
X200047Y60425D02*
Y62825D01*
X202447D01*
Y60425D01*
X200047D01*
X136295Y245273D02*
Y249273D01*
X140295D01*
Y245273D01*
X136295D01*
X137095Y246073D02*
Y248473D01*
X139495D01*
Y246073D01*
X137095D01*
X132447Y243125D02*
Y247125D01*
X136447D01*
Y243125D01*
X132447D01*
X133247Y243925D02*
Y246325D01*
X135647D01*
Y243925D01*
X133247D01*
X163247Y253525D02*
Y257525D01*
X167247D01*
Y253525D01*
X163247D01*
X164047Y254325D02*
Y256725D01*
X166447D01*
Y254325D01*
X164047D01*
X140147Y242925D02*
Y246925D01*
X144147D01*
Y242925D01*
X140147D01*
X140947Y243725D02*
Y246125D01*
X143347D01*
Y243725D01*
X140947D01*
X89247Y216625D02*
Y220625D01*
X93247D01*
Y216625D01*
X89247D01*
X90047Y217425D02*
Y219825D01*
X92447D01*
Y217425D01*
X90047D01*
X89447Y185025D02*
Y189025D01*
X93447D01*
Y185025D01*
X89447D01*
X90247Y185825D02*
Y188225D01*
X92647D01*
Y185825D01*
X90247D01*
X52247Y185025D02*
Y189025D01*
X56247D01*
Y185025D01*
X52247D01*
X53047Y185825D02*
Y188225D01*
X55447D01*
Y185825D01*
X53047D01*
X24378Y236779D02*
Y240779D01*
X28378D01*
Y236779D01*
X24378D01*
X25178Y237579D02*
Y239980D01*
X27578D01*
Y237579D01*
X25178D01*
X9847Y248225D02*
Y252225D01*
X13847D01*
Y248225D01*
X9847D01*
X10647Y249025D02*
Y251425D01*
X13047D01*
Y249025D01*
X10647D01*
X38547Y248425D02*
Y252425D01*
X42547D01*
Y248425D01*
X38547D01*
X39347Y249225D02*
Y251625D01*
X41747D01*
Y249225D01*
X39347D01*
X108747Y238025D02*
Y242025D01*
X112747D01*
Y238025D01*
X108747D01*
X109547Y238825D02*
Y241225D01*
X111947D01*
Y238825D01*
X109547D01*
X104747Y240225D02*
Y244225D01*
X108747D01*
Y240225D01*
X104747D01*
X105547Y241025D02*
Y243425D01*
X107947D01*
Y241025D01*
X105547D01*
X100847Y242025D02*
Y246025D01*
X104847D01*
Y242025D01*
X100847D01*
X101647Y242825D02*
Y245225D01*
X104047D01*
Y242825D01*
X101647D01*
X96925Y244147D02*
Y248147D01*
X100925D01*
Y244147D01*
X96925D01*
X97725Y244947D02*
Y247347D01*
X100125D01*
Y244947D01*
X97725D01*
X153647Y224925D02*
Y228925D01*
X157647D01*
Y224925D01*
X153647D01*
X154447Y225725D02*
Y228125D01*
X156847D01*
Y225725D01*
X154447D01*
X148047Y225325D02*
Y229325D01*
X152047D01*
Y225325D01*
X148047D01*
X148847Y226125D02*
Y228525D01*
X151247D01*
Y226125D01*
X148847D01*
X120447Y240425D02*
Y244425D01*
X124447D01*
Y240425D01*
X120447D01*
X121247Y241225D02*
Y243625D01*
X123647D01*
Y241225D01*
X121247D01*
X124447Y240525D02*
Y244525D01*
X128447D01*
Y240525D01*
X124447D01*
X125247Y241325D02*
Y243725D01*
X127647D01*
Y241325D01*
X125247D01*
X128347Y242625D02*
Y246625D01*
X132347D01*
Y242625D01*
X128347D01*
X129147Y243425D02*
Y245825D01*
X131547D01*
Y243425D01*
X129147D01*
X201147Y235825D02*
Y239825D01*
X205147D01*
Y235825D01*
X201147D01*
X201947Y236625D02*
Y239025D01*
X204347D01*
Y236625D01*
X201947D01*
X205647Y243125D02*
Y247125D01*
X209647D01*
Y243125D01*
X205647D01*
X206447Y243925D02*
Y246325D01*
X208847D01*
Y243925D01*
X206447D01*
X215657Y245515D02*
Y249516D01*
X219657D01*
Y245515D01*
X215657D01*
X216457Y246316D02*
Y248715D01*
X218857D01*
Y246316D01*
X216457D01*
X225147Y247625D02*
Y251625D01*
X229147D01*
Y247625D01*
X225147D01*
X225947Y248425D02*
Y250825D01*
X228347D01*
Y248425D01*
X225947D01*
X94347Y212425D02*
Y216425D01*
X98347D01*
Y212425D01*
X94347D01*
X95147Y213225D02*
Y215625D01*
X97547D01*
Y213225D01*
X95147D01*
X94347Y224925D02*
Y228925D01*
X98347D01*
Y224925D01*
X94347D01*
X95147Y225725D02*
Y228125D01*
X97547D01*
Y225725D01*
X95147D01*
X102147Y210025D02*
Y214025D01*
X106147D01*
Y210025D01*
X102147D01*
X102947Y210825D02*
Y213225D01*
X105347D01*
Y210825D01*
X102947D01*
X86147Y209925D02*
Y213925D01*
X90147D01*
Y209925D01*
X86147D01*
X86947Y210725D02*
Y213125D01*
X89347D01*
Y210725D01*
X86947D01*
X106247Y194325D02*
Y198325D01*
X110247D01*
Y194325D01*
X106247D01*
X107047Y195125D02*
Y197525D01*
X109447D01*
Y195125D01*
X107047D01*
X108747Y225625D02*
Y229625D01*
X112747D01*
Y225625D01*
X108747D01*
X109547Y226425D02*
Y228825D01*
X111947D01*
Y226425D01*
X109547D01*
X110847Y204625D02*
Y208625D01*
X114847D01*
Y204625D01*
X110847D01*
X111647Y205425D02*
Y207825D01*
X114047D01*
Y205425D01*
X111647D01*
X112547Y224125D02*
Y228125D01*
X116547D01*
Y224125D01*
X112547D01*
X113347Y224925D02*
Y227325D01*
X115747D01*
Y224925D01*
X113347D01*
X116647Y199925D02*
Y203925D01*
X120647D01*
Y199925D01*
X116647D01*
X117447Y200725D02*
Y203125D01*
X119847D01*
Y200725D01*
X117447D01*
X116547Y225825D02*
Y229825D01*
X120547D01*
Y225825D01*
X116547D01*
X117347Y226625D02*
Y229025D01*
X119747D01*
Y226625D01*
X117347D01*
X30247Y250525D02*
Y254525D01*
X34247D01*
Y250525D01*
X30247D01*
X31047Y251325D02*
Y253725D01*
X33447D01*
Y251325D01*
X31047D01*
X20047Y253825D02*
Y257825D01*
X24047D01*
Y253825D01*
X20047D01*
X20847Y254625D02*
Y257025D01*
X23247D01*
Y254625D01*
X20847D01*
X209947Y250725D02*
Y254725D01*
X213947D01*
Y250725D01*
X209947D01*
X210747Y251525D02*
Y253925D01*
X213147D01*
Y251525D01*
X210747D01*
X219947Y253525D02*
Y257525D01*
X223947D01*
Y253525D01*
X219947D01*
X220747Y254325D02*
Y256725D01*
X223147D01*
Y254325D01*
X220747D01*
X96747Y222025D02*
Y226025D01*
X100747D01*
Y222025D01*
X96747D01*
X97547Y222825D02*
Y225225D01*
X99947D01*
Y222825D01*
X97547D01*
X110705Y247425D02*
Y251425D01*
X114705D01*
Y247425D01*
X110705D01*
X111505Y248225D02*
Y250625D01*
X113905D01*
Y248225D01*
X111505D01*
X89047Y242025D02*
Y246025D01*
X93047D01*
Y242025D01*
X89047D01*
X89847Y242825D02*
Y245225D01*
X92247D01*
Y242825D01*
X89847D01*
X91020Y247425D02*
Y251425D01*
X95020D01*
Y247425D01*
X91020D01*
X91820Y248225D02*
Y250625D01*
X94220D01*
Y248225D01*
X91820D01*
X94957Y247425D02*
Y251425D01*
X98957D01*
Y247425D01*
X94957D01*
X95757Y248225D02*
Y250625D01*
X98157D01*
Y248225D01*
X95757D01*
X98894Y247425D02*
Y251425D01*
X102894D01*
Y247425D01*
X98894D01*
X99694Y248225D02*
Y250625D01*
X102094D01*
Y248225D01*
X99694D01*
X102831Y247425D02*
Y251425D01*
X106831D01*
Y247425D01*
X102831D01*
X103631Y248225D02*
Y250625D01*
X106031D01*
Y248225D01*
X103631D01*
X106768Y247425D02*
Y251425D01*
X110768D01*
Y247425D01*
X106768D01*
X107568Y248225D02*
Y250625D01*
X109968D01*
Y248225D01*
X107568D01*
X114642Y247425D02*
Y251425D01*
X118642D01*
Y247425D01*
X114642D01*
X115442Y248225D02*
Y250625D01*
X117842D01*
Y248225D01*
X115442D01*
X118579Y247425D02*
Y251425D01*
X122579D01*
Y247425D01*
X118579D01*
X119379Y248225D02*
Y250625D01*
X121779D01*
Y248225D01*
X119379D01*
X122516Y247425D02*
Y251425D01*
X126516D01*
Y247425D01*
X122516D01*
X123316Y248225D02*
Y250625D01*
X125716D01*
Y248225D01*
X123316D01*
X126453Y247425D02*
Y251425D01*
X130453D01*
Y247425D01*
X126453D01*
X127253Y248225D02*
Y250625D01*
X129653D01*
Y248225D01*
X127253D01*
X130390Y247425D02*
Y251425D01*
X134390D01*
Y247425D01*
X130390D01*
X131190Y248225D02*
Y250625D01*
X133590D01*
Y248225D01*
X131190D01*
X134327Y247425D02*
Y251425D01*
X138327D01*
Y247425D01*
X134327D01*
X135127Y248225D02*
Y250625D01*
X137527D01*
Y248225D01*
X135127D01*
X138264Y247425D02*
Y251425D01*
X142264D01*
Y247425D01*
X138264D01*
X139064Y248225D02*
Y250625D01*
X141464D01*
Y248225D01*
X139064D01*
X142201Y247425D02*
Y251425D01*
X146201D01*
Y247425D01*
X142201D01*
X143001Y248225D02*
Y250625D01*
X145401D01*
Y248225D01*
X143001D01*
X144147Y242025D02*
Y246025D01*
X148147D01*
Y242025D01*
X144147D01*
X144947Y242825D02*
Y245225D01*
X147347D01*
Y242825D01*
X144947D01*
X150147Y242025D02*
Y246025D01*
X154147D01*
Y242025D01*
X150147D01*
X150947Y242825D02*
Y245225D01*
X153347D01*
Y242825D01*
X150947D01*
X148106Y247425D02*
Y251425D01*
X152106D01*
Y247425D01*
X148106D01*
X148906Y248225D02*
Y250625D01*
X151306D01*
Y248225D01*
X148906D01*
X87083Y233925D02*
Y237925D01*
X91083D01*
Y233925D01*
X87083D01*
X87883Y234725D02*
Y237125D01*
X90283D01*
Y234725D01*
X87883D01*
X91020Y233925D02*
Y237925D01*
X95020D01*
Y233925D01*
X91020D01*
X91820Y234725D02*
Y237125D01*
X94220D01*
Y234725D01*
X91820D01*
X94957Y233925D02*
Y237925D01*
X98957D01*
Y233925D01*
X94957D01*
X95757Y234725D02*
Y237125D01*
X98157D01*
Y234725D01*
X95757D01*
X98894Y233925D02*
Y237925D01*
X102894D01*
Y233925D01*
X98894D01*
X99694Y234725D02*
Y237125D01*
X102094D01*
Y234725D01*
X99694D01*
X102831Y233925D02*
Y237925D01*
X106831D01*
Y233925D01*
X102831D01*
X103631Y234725D02*
Y237125D01*
X106031D01*
Y234725D01*
X103631D01*
X106768Y233925D02*
Y237925D01*
X110768D01*
Y233925D01*
X106768D01*
X107568Y234725D02*
Y237125D01*
X109968D01*
Y234725D01*
X107568D01*
X110705Y233925D02*
Y237925D01*
X114705D01*
Y233925D01*
X110705D01*
X111505Y234725D02*
Y237125D01*
X113905D01*
Y234725D01*
X111505D01*
X114642Y233925D02*
Y237925D01*
X118642D01*
Y233925D01*
X114642D01*
X115442Y234725D02*
Y237125D01*
X117842D01*
Y234725D01*
X115442D01*
X118579Y233925D02*
Y237925D01*
X122579D01*
Y233925D01*
X118579D01*
X119379Y234725D02*
Y237125D01*
X121779D01*
Y234725D01*
X119379D01*
X142201Y233925D02*
Y237925D01*
X146201D01*
Y233925D01*
X142201D01*
X143001Y234725D02*
Y237125D01*
X145401D01*
Y234725D01*
X143001D01*
X146138Y233925D02*
Y237925D01*
X150138D01*
Y233925D01*
X146138D01*
X146938Y234725D02*
Y237125D01*
X149338D01*
Y234725D01*
X146938D01*
X150075Y233925D02*
Y237925D01*
X154075D01*
Y233925D01*
X150075D01*
X150875Y234725D02*
Y237125D01*
X153275D01*
Y234725D01*
X150875D01*
X42347Y239225D02*
Y243225D01*
X46347D01*
Y239225D01*
X42347D01*
X43147Y240025D02*
Y242425D01*
X45547D01*
Y240025D01*
X43147D01*
X70047Y239125D02*
Y243125D01*
X74047D01*
Y239125D01*
X70047D01*
X70847Y239925D02*
Y242325D01*
X73247D01*
Y239925D01*
X70847D01*
X170347Y238725D02*
Y242725D01*
X174347D01*
Y238725D01*
X170347D01*
X171147Y239525D02*
Y241925D01*
X173547D01*
Y239525D01*
X171147D01*
X167147Y119125D02*
Y123125D01*
X171147D01*
Y119125D01*
X167147D01*
X167947Y119925D02*
Y122325D01*
X170347D01*
Y119925D01*
X167947D01*
X119847Y58225D02*
Y62225D01*
X123847D01*
Y58225D01*
X119847D01*
X120647Y59025D02*
Y61425D01*
X123047D01*
Y59025D01*
X120647D01*
X115847Y74025D02*
Y78025D01*
X119847D01*
Y74025D01*
X115847D01*
X116647Y74825D02*
Y77225D01*
X119047D01*
Y74825D01*
X116647D01*
X53947Y125125D02*
Y129125D01*
X57947D01*
Y125125D01*
X53947D01*
X54747Y125925D02*
Y128325D01*
X57147D01*
Y125925D01*
X54747D01*
X72947Y124225D02*
Y128225D01*
X76947D01*
Y124225D01*
X72947D01*
X73747Y125025D02*
Y127425D01*
X76147D01*
Y125025D01*
X73747D01*
X120747Y184925D02*
Y188925D01*
X124747D01*
Y184925D01*
X120747D01*
X121547Y185725D02*
Y188125D01*
X123947D01*
Y185725D01*
X121547D01*
X201346Y239732D02*
Y243732D01*
X205346D01*
Y239732D01*
X201346D01*
X202147Y240532D02*
Y242932D01*
X204546D01*
Y240532D01*
X202147D01*
X59614Y237272D02*
Y241272D01*
X63614D01*
Y237272D01*
X59614D01*
X60414Y238072D02*
Y240472D01*
X62814D01*
Y238072D01*
X60414D01*
D12*
X-1284413Y-949851D02*
G03*
X-1279413Y-954851I5000J0D01*
G01*
X-1228413Y-900851D02*
G03*
X-1233413Y-895851I-5000J0D01*
G01*
X-1279413D02*
G03*
X-1284413Y-900851I0J-5000D01*
G01*
X-954413Y-915851D02*
G03*
X-959413Y-910851I-5000J0D01*
G01*
Y-954851D02*
G03*
X-954413Y-949851I0J5000D01*
G01*
X-1228413Y-905851D02*
G03*
X-1223413Y-910851I5000J0D01*
G01*
X-950413Y-915851D02*
G03*
X-959413Y-906851I-9000J0D01*
G01*
X-951925Y-954845D02*
G03*
X-950413Y-949851I-7488J4994D01*
G01*
X-1279413Y-891851D02*
G03*
X-1284406Y-893364I0J-9000D01*
G01*
X-1224413Y-900851D02*
G03*
X-1233413Y-891851I-9000J0D01*
G01*
X-1224413Y-905851D02*
G03*
X-1223413Y-906851I1000J0D01*
G01*
X399587Y-945851D02*
G03*
X403080Y-954717I13000J0D01*
G01*
X811453Y-859344D02*
G03*
X802587Y-855851I-8866J-9508D01*
G01*
X811587Y-868851D02*
G03*
X802587Y-859851I-9000J0D01*
G01*
X407587Y-855851D02*
G03*
X399587Y-863851I0J-8000D01*
G01*
X407587Y-859851D02*
G03*
X403587Y-863851I0J-4000D01*
G01*
X802587Y-954851D02*
G03*
X811587Y-945851I0J9000D01*
G01*
X403587D02*
G03*
X412587Y-954851I9000J0D01*
G01*
X-1228413Y-905851D02*
Y-900851D01*
X-954413Y-949851D02*
Y-915851D01*
X-950413Y-949851D02*
Y-915851D01*
X-1224413Y-905851D02*
Y-900851D01*
X-1284413Y-949851D02*
Y-900851D01*
X399587Y-945851D02*
Y-863851D01*
X811587Y-945851D02*
Y-868851D01*
X403587Y-945851D02*
Y-863851D01*
X-1279413Y-895851D02*
X-1233413D01*
X-1223413Y-910851D02*
X-959413D01*
X-1279413Y-891851D02*
X-1233413D01*
X-1223413Y-906851D02*
X-959413D01*
X-1279413Y-954851D02*
X-959413D01*
X407587Y-855851D02*
X802587D01*
X407587Y-859851D02*
X802587D01*
X412587Y-954851D02*
X802587D01*
X775587Y-933353D02*
X782253Y-943351D01*
Y-933353D02*
X775587Y-943351D01*
X734563Y-935734D02*
Y-935258D01*
X735040Y-934305D01*
X735516Y-933829D01*
X736468Y-933353D01*
X738372D01*
X739324Y-933829D01*
X739800Y-934305D01*
X740276Y-935258D01*
Y-936210D01*
X739800Y-937162D01*
X738848Y-938590D01*
X734087Y-943351D01*
X740753D01*
D13*
X802587Y-888851D02*
G03*
X807587Y-883851I0J5000D01*
G01*
Y-868851D02*
G03*
X802587Y-863851I-5000J0D01*
G01*
X807587Y-930851D02*
G03*
X802587Y-925851I-5000J0D01*
G01*
Y-950851D02*
G03*
X807587Y-945851I0J5000D01*
G01*
X653587Y-950851D02*
G03*
X657587Y-946851I0J4000D01*
G01*
Y-929851D02*
G03*
X653587Y-925851I-4000J0D01*
G01*
X449587Y-929851D02*
G03*
X445587Y-925851I-4000J0D01*
G01*
X407587Y-884851D02*
G03*
X411587Y-888851I4000J0D01*
G01*
X707587Y-946851D02*
G03*
X711587Y-950851I4000J0D01*
G01*
X407587Y-945851D02*
G03*
X412587Y-950851I5000J0D01*
G01*
X453587Y-946851D02*
G03*
X457587Y-950851I4000J0D01*
G01*
X407587Y-916851D02*
G03*
X412587Y-921851I5000J0D01*
G01*
X802587D02*
G03*
X807587Y-916851I0J5000D01*
G01*
Y-897851D02*
G03*
X802587Y-892851I-5000J0D01*
G01*
X713587Y-868851D02*
G03*
X708587Y-863851I-5000J0D01*
G01*
Y-888851D02*
G03*
X713587Y-883851I0J5000D01*
G01*
X717587D02*
G03*
X722587Y-888851I5000J0D01*
G01*
X553587D02*
G03*
X558587Y-883851I0J5000D01*
G01*
Y-868851D02*
G03*
X553587Y-863851I-5000J0D01*
G01*
X562587Y-883851D02*
G03*
X567587Y-888851I5000J0D01*
G01*
X445587Y-950851D02*
G03*
X449587Y-946851I0J4000D01*
G01*
X703587Y-929851D02*
G03*
X699587Y-925851I-4000J0D01*
G01*
X661587Y-945851D02*
G03*
X666587Y-950851I5000J0D01*
G01*
X699587D02*
G03*
X703587Y-946851I0J4000D01*
G01*
X-1286913Y643549D02*
X813087D01*
Y-956451D02*
Y643549D01*
X-1286913Y-956451D02*
X813087D01*
X-1286913D02*
Y643549D01*
X807587Y-883851D02*
Y-868851D01*
Y-945851D02*
Y-930851D01*
X707587Y-946851D02*
Y-925851D01*
X657587Y-946851D02*
Y-929851D01*
X453587Y-946851D02*
Y-925851D01*
X449587Y-946851D02*
Y-929851D01*
X407587Y-884851D02*
Y-863851D01*
Y-945851D02*
Y-925851D01*
Y-916851D02*
Y-892851D01*
X807587Y-916851D02*
Y-897851D01*
X717587Y-883851D02*
Y-863851D01*
X713587Y-883851D02*
Y-868851D01*
X558587Y-883851D02*
Y-868851D01*
X562587Y-883851D02*
Y-863851D01*
X707587Y-925851D02*
X802587D01*
X711587Y-950851D02*
X802587D01*
X407587Y-925851D02*
X445587D01*
X453587D02*
X653587D01*
X412587Y-950851D02*
X445587D01*
X457587D02*
X653587D01*
X412587Y-921851D02*
X802587D01*
X407587Y-892851D02*
X802587D01*
X717587Y-863851D02*
X802587D01*
X722587Y-888851D02*
X802587D01*
X407587Y-863851D02*
X553587D01*
X562587D02*
X708587D01*
X567587Y-888851D02*
X708587D01*
X411587D02*
X553587D01*
X703587Y-946851D02*
Y-929851D01*
X661587Y-945851D02*
Y-925851D01*
X699587D01*
X666587Y-950851D02*
X699587D01*
X614287Y-873352D02*
Y-878851D01*
Y-873352D02*
X616644D01*
X617430Y-873614D01*
X617691Y-873876D01*
X617953Y-874400D01*
Y-874924D01*
X617691Y-875447D01*
X617430Y-875709D01*
X616644Y-875971D01*
X614287D01*
X616120D02*
X617953Y-878851D01*
X619708Y-873352D02*
X619970Y-873614D01*
X620231Y-873352D01*
X619970Y-873090D01*
X619708Y-873352D01*
X619970Y-875185D02*
Y-878851D01*
X624342Y-875971D02*
X623819Y-875447D01*
X623295Y-875185D01*
X622509D01*
X621986Y-875447D01*
X621462Y-875971D01*
X621200Y-876756D01*
Y-877280D01*
X621462Y-878066D01*
X621986Y-878589D01*
X622509Y-878851D01*
X623295D01*
X623819Y-878589D01*
X624342Y-878066D01*
X625521Y-873352D02*
Y-878851D01*
Y-876233D02*
X626306Y-875447D01*
X626830Y-875185D01*
X627615D01*
X628139Y-875447D01*
X628401Y-876233D01*
Y-878851D01*
X634162Y-873352D02*
Y-878851D01*
X637304D01*
X639215Y-875185D02*
X638692Y-875447D01*
X638168Y-875971D01*
X637906Y-876756D01*
Y-877280D01*
X638168Y-878066D01*
X638692Y-878589D01*
X639215Y-878851D01*
X640001D01*
X640525Y-878589D01*
X641048Y-878066D01*
X641310Y-877280D01*
Y-876756D01*
X641048Y-875971D01*
X640525Y-875447D01*
X640001Y-875185D01*
X639215D01*
X642515Y-873352D02*
Y-878851D01*
Y-875971D02*
X643038Y-875447D01*
X643562Y-875185D01*
X644348D01*
X644871Y-875447D01*
X645395Y-875971D01*
X645657Y-876756D01*
Y-877280D01*
X645395Y-878066D01*
X644871Y-878589D01*
X644348Y-878851D01*
X643562D01*
X643038Y-878589D01*
X642515Y-878066D01*
X649977Y-873352D02*
Y-878851D01*
Y-875971D02*
X649454Y-875447D01*
X648930Y-875185D01*
X648144D01*
X647621Y-875447D01*
X647097Y-875971D01*
X646835Y-876756D01*
Y-877280D01*
X647097Y-878066D01*
X647621Y-878589D01*
X648144Y-878851D01*
X648930D01*
X649454Y-878589D01*
X649977Y-878066D01*
X651967Y-873352D02*
X652229Y-873614D01*
X652491Y-873352D01*
X652229Y-873090D01*
X651967Y-873352D01*
X652229Y-875185D02*
Y-878851D01*
X653460Y-873352D02*
Y-878851D01*
X654612Y-873352D02*
Y-878851D01*
X458187Y-873152D02*
Y-878651D01*
Y-873152D02*
X460544D01*
X461330Y-873414D01*
X461591Y-873676D01*
X461853Y-874200D01*
Y-874724D01*
X461591Y-875247D01*
X461330Y-875509D01*
X460544Y-875771D01*
X458187D01*
X460020D02*
X461853Y-878651D01*
X463608Y-873152D02*
X463869Y-873414D01*
X464131Y-873152D01*
X463869Y-872890D01*
X463608Y-873152D01*
X463869Y-874985D02*
Y-878651D01*
X468242Y-875771D02*
X467719Y-875247D01*
X467195Y-874985D01*
X466409D01*
X465886Y-875247D01*
X465362Y-875771D01*
X465100Y-876556D01*
Y-877080D01*
X465362Y-877866D01*
X465886Y-878389D01*
X466409Y-878651D01*
X467195D01*
X467719Y-878389D01*
X468242Y-877866D01*
X469421Y-873152D02*
Y-878651D01*
Y-876033D02*
X470206Y-875247D01*
X470730Y-874985D01*
X471516D01*
X472039Y-875247D01*
X472301Y-876033D01*
Y-878651D01*
X478062Y-873152D02*
Y-878651D01*
X481204D01*
X483115Y-874985D02*
X482592Y-875247D01*
X482068Y-875771D01*
X481806Y-876556D01*
Y-877080D01*
X482068Y-877866D01*
X482592Y-878389D01*
X483115Y-878651D01*
X483901D01*
X484425Y-878389D01*
X484948Y-877866D01*
X485210Y-877080D01*
Y-876556D01*
X484948Y-875771D01*
X484425Y-875247D01*
X483901Y-874985D01*
X483115D01*
X486415Y-873152D02*
Y-878651D01*
Y-875771D02*
X486938Y-875247D01*
X487462Y-874985D01*
X488248D01*
X488771Y-875247D01*
X489295Y-875771D01*
X489557Y-876556D01*
Y-877080D01*
X489295Y-877866D01*
X488771Y-878389D01*
X488248Y-878651D01*
X487462D01*
X486938Y-878389D01*
X486415Y-877866D01*
X493877Y-873152D02*
Y-878651D01*
Y-875771D02*
X493354Y-875247D01*
X492830Y-874985D01*
X492044D01*
X491521Y-875247D01*
X490997Y-875771D01*
X490735Y-876556D01*
Y-877080D01*
X490997Y-877866D01*
X491521Y-878389D01*
X492044Y-878651D01*
X492830D01*
X493354Y-878389D01*
X493877Y-877866D01*
X495867Y-873152D02*
X496129Y-873414D01*
X496391Y-873152D01*
X496129Y-872890D01*
X495867Y-873152D01*
X496129Y-874985D02*
Y-878651D01*
X497360Y-873152D02*
Y-878651D01*
X498512Y-873152D02*
Y-878651D01*
X-1275413Y-935353D02*
Y-941351D01*
Y-935353D02*
X-1271699D01*
X-1275413Y-938209D02*
X-1273127D01*
X-1271014Y-935353D02*
Y-941351D01*
X-1269757Y-935353D02*
Y-941351D01*
Y-935353D02*
X-1267757D01*
X-1266900Y-935638D01*
X-1266329Y-936209D01*
X-1266043Y-936781D01*
X-1265758Y-937638D01*
Y-939066D01*
X-1266043Y-939923D01*
X-1266329Y-940494D01*
X-1266900Y-941066D01*
X-1267757Y-941351D01*
X-1269757D01*
X-1260701Y-935353D02*
X-1264415D01*
Y-941351D01*
X-1260701D01*
X-1264415Y-938209D02*
X-1262130D01*
X-1259702Y-935353D02*
Y-941351D01*
Y-935353D02*
X-1255703Y-941351D01*
Y-935353D02*
Y-941351D01*
X-1252046Y-935353D02*
Y-941351D01*
X-1254046Y-935353D02*
X-1250047D01*
X-1249333D02*
Y-941351D01*
X-1243505D02*
X-1245790Y-935353D01*
X-1248076Y-941351D01*
X-1247219Y-939352D02*
X-1244362D01*
X-1242105Y-935353D02*
Y-941351D01*
X-1238678D01*
X-1233307Y-935353D02*
Y-941351D01*
Y-935353D02*
X-1230737D01*
X-1229879Y-935638D01*
X-1229594Y-935924D01*
X-1229308Y-936495D01*
Y-937066D01*
X-1229594Y-937638D01*
X-1229879Y-937923D01*
X-1230737Y-938209D01*
X-1233307D01*
X-1231308D02*
X-1229308Y-941351D01*
X-1224252Y-935353D02*
X-1227966D01*
Y-941351D01*
X-1224252D01*
X-1227966Y-938209D02*
X-1225680D01*
X-1223252Y-935353D02*
Y-941351D01*
X-1219825D01*
X-1214597D02*
X-1216882Y-935353D01*
X-1219168Y-941351D01*
X-1218311Y-939352D02*
X-1215454D01*
X-1211198Y-935353D02*
Y-941351D01*
X-1213197Y-935353D02*
X-1209198D01*
X-1208484D02*
Y-941351D01*
X-1205513Y-935353D02*
X-1206085Y-935638D01*
X-1206656Y-936209D01*
X-1206942Y-936781D01*
X-1207227Y-937638D01*
Y-939066D01*
X-1206942Y-939923D01*
X-1206656Y-940494D01*
X-1206085Y-941066D01*
X-1205513Y-941351D01*
X-1204371D01*
X-1203799Y-941066D01*
X-1203228Y-940494D01*
X-1202942Y-939923D01*
X-1202657Y-939066D01*
Y-937638D01*
X-1202942Y-936781D01*
X-1203228Y-936209D01*
X-1203799Y-935638D01*
X-1204371Y-935353D01*
X-1205513D01*
X-1201257D02*
Y-941351D01*
Y-935353D02*
X-1197258Y-941351D01*
Y-935353D02*
Y-941351D01*
X-1191602Y-936209D02*
X-1192173Y-935638D01*
X-1193030Y-935353D01*
X-1194173D01*
X-1195030Y-935638D01*
X-1195601Y-936209D01*
Y-936781D01*
X-1195315Y-937352D01*
X-1195030Y-937638D01*
X-1194458Y-937923D01*
X-1192745Y-938495D01*
X-1192173Y-938780D01*
X-1191888Y-939066D01*
X-1191602Y-939637D01*
Y-940494D01*
X-1192173Y-941066D01*
X-1193030Y-941351D01*
X-1194173D01*
X-1195030Y-941066D01*
X-1195601Y-940494D01*
X-1190259Y-935353D02*
Y-941351D01*
X-1186260Y-935353D02*
Y-941351D01*
X-1190259Y-938209D02*
X-1186260D01*
X-1184604Y-935353D02*
Y-941351D01*
X-1183347Y-938495D02*
X-1180776D01*
X-1179919Y-938209D01*
X-1179633Y-937923D01*
X-1179348Y-937352D01*
Y-936495D01*
X-1179633Y-935924D01*
X-1179919Y-935638D01*
X-1180776Y-935353D01*
X-1183347D01*
Y-941351D01*
X-1177434Y-941066D02*
X-1177719Y-941351D01*
X-1178005Y-941066D01*
X-1177719Y-940780D01*
X-1177434Y-941066D01*
Y-941637D01*
X-1177719Y-942208D01*
X-1178005Y-942494D01*
X-1166836Y-941351D02*
X-1169121Y-935353D01*
X-1171406Y-941351D01*
X-1170549Y-939352D02*
X-1167693D01*
X-1165436Y-935353D02*
Y-941351D01*
Y-935353D02*
X-1161437Y-941351D01*
Y-935353D02*
Y-941351D01*
X-1159780Y-935353D02*
Y-941351D01*
Y-935353D02*
X-1157781D01*
X-1156924Y-935638D01*
X-1156352Y-936209D01*
X-1156067Y-936781D01*
X-1155781Y-937638D01*
Y-939066D01*
X-1156067Y-939923D01*
X-1156352Y-940494D01*
X-1156924Y-941066D01*
X-1157781Y-941351D01*
X-1159780D01*
X-1146012Y-935353D02*
X-1149725D01*
Y-941351D01*
X-1146012D01*
X-1149725Y-938209D02*
X-1147440D01*
X-1145012Y-935353D02*
X-1141013Y-941351D01*
Y-935353D02*
X-1145012Y-941351D01*
X-1135386Y-936781D02*
X-1135671Y-936209D01*
X-1136242Y-935638D01*
X-1136814Y-935353D01*
X-1137956D01*
X-1138528Y-935638D01*
X-1139099Y-936209D01*
X-1139385Y-936781D01*
X-1139670Y-937638D01*
Y-939066D01*
X-1139385Y-939923D01*
X-1139099Y-940494D01*
X-1138528Y-941066D01*
X-1137956Y-941351D01*
X-1136814D01*
X-1136242Y-941066D01*
X-1135671Y-940494D01*
X-1135386Y-939923D01*
X-1129987Y-935353D02*
X-1133700D01*
Y-941351D01*
X-1129987D01*
X-1133700Y-938209D02*
X-1131415D01*
X-1128987Y-938495D02*
X-1126416D01*
X-1125559Y-938209D01*
X-1125273Y-937923D01*
X-1124988Y-937352D01*
Y-936495D01*
X-1125273Y-935924D01*
X-1125559Y-935638D01*
X-1126416Y-935353D01*
X-1128987D01*
Y-941351D01*
X-1121646Y-935353D02*
Y-941351D01*
X-1123645Y-935353D02*
X-1119646D01*
X-1114219D02*
Y-941351D01*
Y-935353D02*
X-1110505D01*
X-1114219Y-938209D02*
X-1111933D01*
X-1108106Y-935353D02*
X-1108677Y-935638D01*
X-1109248Y-936209D01*
X-1109534Y-936781D01*
X-1109820Y-937638D01*
Y-939066D01*
X-1109534Y-939923D01*
X-1109248Y-940494D01*
X-1108677Y-941066D01*
X-1108106Y-941351D01*
X-1106963D01*
X-1106392Y-941066D01*
X-1105820Y-940494D01*
X-1105535Y-939923D01*
X-1105249Y-939066D01*
Y-937638D01*
X-1105535Y-936781D01*
X-1105820Y-936209D01*
X-1106392Y-935638D01*
X-1106963Y-935353D01*
X-1108106D01*
X-1103849D02*
Y-941351D01*
Y-935353D02*
X-1101278D01*
X-1100422Y-935638D01*
X-1100136Y-935924D01*
X-1099850Y-936495D01*
Y-937066D01*
X-1100136Y-937638D01*
X-1100422Y-937923D01*
X-1101278Y-938209D01*
X-1103849D01*
X-1101850D02*
X-1099850Y-941351D01*
X-1093794Y-938495D02*
X-1091224D01*
X-1090366Y-938209D01*
X-1090081Y-937923D01*
X-1089795Y-937352D01*
Y-936495D01*
X-1090081Y-935924D01*
X-1090366Y-935638D01*
X-1091224Y-935353D01*
X-1093794D01*
Y-941351D01*
X-1088453Y-935353D02*
Y-939637D01*
X-1088167Y-940494D01*
X-1087596Y-941066D01*
X-1086739Y-941351D01*
X-1086167D01*
X-1085310Y-941066D01*
X-1084739Y-940494D01*
X-1084453Y-939637D01*
Y-935353D01*
X-1082797D02*
Y-941351D01*
Y-935353D02*
X-1080226D01*
X-1079369Y-935638D01*
X-1079083Y-935924D01*
X-1078798Y-936495D01*
Y-937066D01*
X-1079083Y-937638D01*
X-1079369Y-937923D01*
X-1080226Y-938209D01*
X-1082797D01*
X-1080797D02*
X-1078798Y-941351D01*
X-1077455Y-938495D02*
X-1074884D01*
X-1074027Y-938209D01*
X-1073742Y-937923D01*
X-1073456Y-937352D01*
Y-936495D01*
X-1073742Y-935924D01*
X-1074027Y-935638D01*
X-1074884Y-935353D01*
X-1077455D01*
Y-941351D01*
X-1070399Y-935353D02*
X-1070971Y-935638D01*
X-1071542Y-936209D01*
X-1071828Y-936781D01*
X-1072113Y-937638D01*
Y-939066D01*
X-1071828Y-939923D01*
X-1071542Y-940494D01*
X-1070971Y-941066D01*
X-1070399Y-941351D01*
X-1069257D01*
X-1068686Y-941066D01*
X-1068114Y-940494D01*
X-1067828Y-939923D01*
X-1067543Y-939066D01*
Y-937638D01*
X-1067828Y-936781D01*
X-1068114Y-936209D01*
X-1068686Y-935638D01*
X-1069257Y-935353D01*
X-1070399D01*
X-1062144Y-936209D02*
X-1062715Y-935638D01*
X-1063572Y-935353D01*
X-1064715D01*
X-1065572Y-935638D01*
X-1066143Y-936209D01*
Y-936781D01*
X-1065858Y-937352D01*
X-1065572Y-937638D01*
X-1065001Y-937923D01*
X-1063287Y-938495D01*
X-1062715Y-938780D01*
X-1062430Y-939066D01*
X-1062144Y-939637D01*
Y-940494D01*
X-1062715Y-941066D01*
X-1063572Y-941351D01*
X-1064715D01*
X-1065572Y-941066D01*
X-1066143Y-940494D01*
X-1057088Y-935353D02*
X-1060801D01*
Y-941351D01*
X-1057088D01*
X-1060801Y-938209D02*
X-1058516D01*
X-1052089Y-936209D02*
X-1052660Y-935638D01*
X-1053517Y-935353D01*
X-1054660D01*
X-1055517Y-935638D01*
X-1056088Y-936209D01*
Y-936781D01*
X-1055803Y-937352D01*
X-1055517Y-937638D01*
X-1054946Y-937923D01*
X-1053232Y-938495D01*
X-1052660Y-938780D01*
X-1052375Y-939066D01*
X-1052089Y-939637D01*
Y-940494D01*
X-1052660Y-941066D01*
X-1053517Y-941351D01*
X-1054660D01*
X-1055517Y-941066D01*
X-1056088Y-940494D01*
X-1042320Y-935353D02*
X-1046033D01*
Y-941351D01*
X-1042320D01*
X-1046033Y-938209D02*
X-1043748D01*
X-1041320Y-935353D02*
X-1037321Y-941351D01*
Y-935353D02*
X-1041320Y-941351D01*
X-1035978Y-938495D02*
X-1033407D01*
X-1032550Y-938209D01*
X-1032265Y-937923D01*
X-1031979Y-937352D01*
Y-936495D01*
X-1032265Y-935924D01*
X-1032550Y-935638D01*
X-1033407Y-935353D01*
X-1035978D01*
Y-941351D01*
X-1030637Y-935353D02*
Y-941351D01*
Y-935353D02*
X-1028066D01*
X-1027209Y-935638D01*
X-1026923Y-935924D01*
X-1026637Y-936495D01*
Y-937066D01*
X-1026923Y-937638D01*
X-1027209Y-937923D01*
X-1028066Y-938209D01*
X-1030637D01*
X-1028637D02*
X-1026637Y-941351D01*
X-1021581Y-935353D02*
X-1025295D01*
Y-941351D01*
X-1021581D01*
X-1025295Y-938209D02*
X-1023009D01*
X-1016582Y-936209D02*
X-1017154Y-935638D01*
X-1018011Y-935353D01*
X-1019153D01*
X-1020010Y-935638D01*
X-1020582Y-936209D01*
Y-936781D01*
X-1020296Y-937352D01*
X-1020010Y-937638D01*
X-1019439Y-937923D01*
X-1017725Y-938495D01*
X-1017154Y-938780D01*
X-1016868Y-939066D01*
X-1016582Y-939637D01*
Y-940494D01*
X-1017154Y-941066D01*
X-1018011Y-941351D01*
X-1019153D01*
X-1020010Y-941066D01*
X-1020582Y-940494D01*
X-1011241Y-936209D02*
X-1011812Y-935638D01*
X-1012669Y-935353D01*
X-1013811D01*
X-1014668Y-935638D01*
X-1015240Y-936209D01*
Y-936781D01*
X-1014954Y-937352D01*
X-1014668Y-937638D01*
X-1014097Y-937923D01*
X-1012383Y-938495D01*
X-1011812Y-938780D01*
X-1011526Y-939066D01*
X-1011241Y-939637D01*
Y-940494D01*
X-1011812Y-941066D01*
X-1012669Y-941351D01*
X-1013811D01*
X-1014668Y-941066D01*
X-1015240Y-940494D01*
X-1009898Y-935353D02*
Y-941351D01*
X-1006470D01*
X-1005813Y-935353D02*
X-1003528Y-938209D01*
Y-941351D01*
X-1001243Y-935353D02*
X-1003528Y-938209D01*
X-991473Y-936781D02*
X-991759Y-936209D01*
X-992330Y-935638D01*
X-992902Y-935353D01*
X-994044D01*
X-994616Y-935638D01*
X-995187Y-936209D01*
X-995473Y-936781D01*
X-995758Y-937638D01*
Y-939066D01*
X-995473Y-939923D01*
X-995187Y-940494D01*
X-994616Y-941066D01*
X-994044Y-941351D01*
X-992902D01*
X-992330Y-941066D01*
X-991759Y-940494D01*
X-991473Y-939923D01*
Y-939066D01*
X-992902D02*
X-991473D01*
X-990102Y-935353D02*
Y-941351D01*
Y-935353D02*
X-987531D01*
X-986674Y-935638D01*
X-986389Y-935924D01*
X-986103Y-936495D01*
Y-937066D01*
X-986389Y-937638D01*
X-986674Y-937923D01*
X-987531Y-938209D01*
X-990102D01*
X-988103D02*
X-986103Y-941351D01*
X-980190D02*
X-982475Y-935353D01*
X-984761Y-941351D01*
X-983904Y-939352D02*
X-981047D01*
X-978790Y-935353D02*
Y-941351D01*
Y-935353D02*
X-974791Y-941351D01*
Y-935353D02*
Y-941351D01*
X-971135Y-935353D02*
Y-941351D01*
X-973135Y-935353D02*
X-969135D01*
X-964708D02*
X-968421D01*
Y-941351D01*
X-964708D01*
X-968421Y-938209D02*
X-966136D01*
X-963708Y-935353D02*
Y-941351D01*
Y-935353D02*
X-961708D01*
X-960851Y-935638D01*
X-960280Y-936209D01*
X-959995Y-936781D01*
X-959709Y-937638D01*
Y-939066D01*
X-959995Y-939923D01*
X-960280Y-940494D01*
X-960851Y-941066D01*
X-961708Y-941351D01*
X-963708D01*
X-1273699Y-925852D02*
X-1274270Y-926138D01*
X-1274841Y-926709D01*
X-1275127Y-927281D01*
X-1275413Y-928138D01*
Y-929566D01*
X-1275127Y-930423D01*
X-1274841Y-930994D01*
X-1274270Y-931565D01*
X-1273699Y-931851D01*
X-1272556D01*
X-1271985Y-931565D01*
X-1271414Y-930994D01*
X-1271128Y-930423D01*
X-1270842Y-929566D01*
Y-928138D01*
X-1271128Y-927281D01*
X-1271414Y-926709D01*
X-1271985Y-926138D01*
X-1272556Y-925852D01*
X-1273699D01*
X-1269442D02*
Y-931851D01*
Y-925852D02*
X-1266872D01*
X-1266015Y-926138D01*
X-1265729Y-926424D01*
X-1265443Y-926995D01*
Y-927566D01*
X-1265729Y-928138D01*
X-1266015Y-928423D01*
X-1266872Y-928709D01*
X-1269442D02*
X-1266872D01*
X-1266015Y-928995D01*
X-1265729Y-929280D01*
X-1265443Y-929852D01*
Y-930709D01*
X-1265729Y-931280D01*
X-1266015Y-931565D01*
X-1266872Y-931851D01*
X-1269442D01*
X-1260102Y-926709D02*
X-1260673Y-926138D01*
X-1261530Y-925852D01*
X-1262673D01*
X-1263529Y-926138D01*
X-1264101Y-926709D01*
Y-927281D01*
X-1263815Y-927852D01*
X-1263529Y-928138D01*
X-1262958Y-928423D01*
X-1261244Y-928995D01*
X-1260673Y-929280D01*
X-1260387Y-929566D01*
X-1260102Y-930137D01*
Y-930994D01*
X-1260673Y-931565D01*
X-1261530Y-931851D01*
X-1262673D01*
X-1263529Y-931565D01*
X-1264101Y-930994D01*
X-1255046Y-925852D02*
X-1258759D01*
Y-931851D01*
X-1255046D01*
X-1258759Y-928709D02*
X-1256474D01*
X-1254046Y-925852D02*
Y-931851D01*
Y-925852D02*
X-1251475D01*
X-1250618Y-926138D01*
X-1250332Y-926424D01*
X-1250047Y-926995D01*
Y-927566D01*
X-1250332Y-928138D01*
X-1250618Y-928423D01*
X-1251475Y-928709D01*
X-1254046D01*
X-1252046D02*
X-1250047Y-931851D01*
X-1248704Y-925852D02*
X-1246419Y-931851D01*
X-1244134Y-925852D02*
X-1246419Y-931851D01*
X-1238792D02*
X-1241077Y-925852D01*
X-1243362Y-931851D01*
X-1242505Y-929852D02*
X-1239649D01*
X-1235393Y-925852D02*
Y-931851D01*
X-1237392Y-925852D02*
X-1233393D01*
X-1230965D02*
X-1231536Y-926138D01*
X-1232108Y-926709D01*
X-1232393Y-927281D01*
X-1232679Y-928138D01*
Y-929566D01*
X-1232393Y-930423D01*
X-1232108Y-930994D01*
X-1231536Y-931565D01*
X-1230965Y-931851D01*
X-1229822D01*
X-1229251Y-931565D01*
X-1228680Y-930994D01*
X-1228394Y-930423D01*
X-1228109Y-929566D01*
Y-928138D01*
X-1228394Y-927281D01*
X-1228680Y-926709D01*
X-1229251Y-926138D01*
X-1229822Y-925852D01*
X-1230965D01*
X-1226709D02*
Y-931851D01*
Y-925852D02*
X-1224138D01*
X-1223281Y-926138D01*
X-1222995Y-926424D01*
X-1222710Y-926995D01*
Y-927566D01*
X-1222995Y-928138D01*
X-1223281Y-928423D01*
X-1224138Y-928709D01*
X-1226709D01*
X-1224709D02*
X-1222710Y-931851D01*
X-1221367Y-925852D02*
X-1219082Y-928709D01*
Y-931851D01*
X-1216797Y-925852D02*
X-1219082Y-928709D01*
X-1215740Y-931280D02*
X-1216025Y-931565D01*
X-1215740Y-931851D01*
X-1215454Y-931565D01*
X-1215740Y-931280D01*
X-1204714Y-925852D02*
Y-931851D01*
X-1201457Y-925852D02*
Y-931851D01*
X-1203457Y-925852D02*
X-1199457D01*
X-1194030D02*
Y-931851D01*
X-1188774Y-926709D02*
X-1189345Y-926138D01*
X-1190202Y-925852D01*
X-1191345D01*
X-1192202Y-926138D01*
X-1192773Y-926709D01*
Y-927281D01*
X-1192488Y-927852D01*
X-1192202Y-928138D01*
X-1191631Y-928423D01*
X-1189917Y-928995D01*
X-1189345Y-929280D01*
X-1189060Y-929566D01*
X-1188774Y-930137D01*
Y-930994D01*
X-1189345Y-931565D01*
X-1190202Y-931851D01*
X-1191345D01*
X-1192202Y-931565D01*
X-1192773Y-930994D01*
X-1178719Y-926709D02*
X-1179290Y-926138D01*
X-1180147Y-925852D01*
X-1181290D01*
X-1182147Y-926138D01*
X-1182718Y-926709D01*
Y-927281D01*
X-1182432Y-927852D01*
X-1182147Y-928138D01*
X-1181576Y-928423D01*
X-1179862Y-928995D01*
X-1179290Y-929280D01*
X-1179005Y-929566D01*
X-1178719Y-930137D01*
Y-930994D01*
X-1179290Y-931565D01*
X-1180147Y-931851D01*
X-1181290D01*
X-1182147Y-931565D01*
X-1182718Y-930994D01*
X-1177376Y-925852D02*
Y-930137D01*
X-1177091Y-930994D01*
X-1176519Y-931565D01*
X-1175663Y-931851D01*
X-1175091D01*
X-1174234Y-931565D01*
X-1173663Y-930994D01*
X-1173377Y-930137D01*
Y-925852D01*
X-1171721D02*
Y-931851D01*
Y-925852D02*
X-1169150D01*
X-1168293Y-926138D01*
X-1168007Y-926424D01*
X-1167721Y-926995D01*
Y-927566D01*
X-1168007Y-928138D01*
X-1168293Y-928423D01*
X-1169150Y-928709D01*
X-1171721D02*
X-1169150D01*
X-1168293Y-928995D01*
X-1168007Y-929280D01*
X-1167721Y-929852D01*
Y-930709D01*
X-1168007Y-931280D01*
X-1168293Y-931565D01*
X-1169150Y-931851D01*
X-1171721D01*
X-1166379Y-925852D02*
Y-931851D01*
Y-925852D02*
X-1164094Y-931851D01*
X-1161808Y-925852D02*
X-1164094Y-931851D01*
X-1161808Y-925852D02*
Y-931851D01*
X-1160095Y-925852D02*
Y-931851D01*
X-1156838Y-925852D02*
Y-931851D01*
X-1158838Y-925852D02*
X-1154838D01*
X-1152125D02*
Y-931851D01*
X-1154124Y-925852D02*
X-1150125D01*
X-1145698D02*
X-1149411D01*
Y-931851D01*
X-1145698D01*
X-1149411Y-928709D02*
X-1147126D01*
X-1144698Y-925852D02*
Y-931851D01*
Y-925852D02*
X-1142698D01*
X-1141841Y-926138D01*
X-1141270Y-926709D01*
X-1140984Y-927281D01*
X-1140699Y-928138D01*
Y-929566D01*
X-1140984Y-930423D01*
X-1141270Y-930994D01*
X-1141841Y-931565D01*
X-1142698Y-931851D01*
X-1144698D01*
X-1134643Y-925852D02*
Y-931851D01*
Y-925852D02*
X-1130929D01*
X-1134643Y-928709D02*
X-1132358D01*
X-1128530Y-925852D02*
X-1129101Y-926138D01*
X-1129672Y-926709D01*
X-1129958Y-927281D01*
X-1130244Y-928138D01*
Y-929566D01*
X-1129958Y-930423D01*
X-1129672Y-930994D01*
X-1129101Y-931565D01*
X-1128530Y-931851D01*
X-1127387D01*
X-1126816Y-931565D01*
X-1126245Y-930994D01*
X-1125959Y-930423D01*
X-1125673Y-929566D01*
Y-928138D01*
X-1125959Y-927281D01*
X-1126245Y-926709D01*
X-1126816Y-926138D01*
X-1127387Y-925852D01*
X-1128530D01*
X-1124274D02*
Y-931851D01*
Y-925852D02*
X-1121703D01*
X-1120846Y-926138D01*
X-1120560Y-926424D01*
X-1120274Y-926995D01*
Y-927566D01*
X-1120560Y-928138D01*
X-1120846Y-928423D01*
X-1121703Y-928709D01*
X-1124274D01*
X-1122274D02*
X-1120274Y-931851D01*
X-1109648D02*
X-1111933Y-925852D01*
X-1114219Y-931851D01*
X-1113362Y-929852D02*
X-1110505D01*
X-1099536Y-926709D02*
X-1100107Y-926138D01*
X-1100964Y-925852D01*
X-1102107D01*
X-1102964Y-926138D01*
X-1103535Y-926709D01*
Y-927281D01*
X-1103249Y-927852D01*
X-1102964Y-928138D01*
X-1102392Y-928423D01*
X-1100679Y-928995D01*
X-1100107Y-929280D01*
X-1099822Y-929566D01*
X-1099536Y-930137D01*
Y-930994D01*
X-1100107Y-931565D01*
X-1100964Y-931851D01*
X-1102107D01*
X-1102964Y-931565D01*
X-1103535Y-930994D01*
X-1098193Y-928995D02*
X-1095623D01*
X-1094766Y-928709D01*
X-1094480Y-928423D01*
X-1094194Y-927852D01*
Y-926995D01*
X-1094480Y-926424D01*
X-1094766Y-926138D01*
X-1095623Y-925852D01*
X-1098193D01*
Y-931851D01*
X-1089138Y-925852D02*
X-1092852D01*
Y-931851D01*
X-1089138D01*
X-1092852Y-928709D02*
X-1090567D01*
X-1083854Y-927281D02*
X-1084139Y-926709D01*
X-1084711Y-926138D01*
X-1085282Y-925852D01*
X-1086425D01*
X-1086996Y-926138D01*
X-1087567Y-926709D01*
X-1087853Y-927281D01*
X-1088138Y-928138D01*
Y-929566D01*
X-1087853Y-930423D01*
X-1087567Y-930994D01*
X-1086996Y-931565D01*
X-1086425Y-931851D01*
X-1085282D01*
X-1084711Y-931565D01*
X-1084139Y-930994D01*
X-1083854Y-930423D01*
X-1082168Y-925852D02*
Y-931851D01*
X-1080911Y-925852D02*
Y-931851D01*
Y-925852D02*
X-1077198D01*
X-1080911Y-928709D02*
X-1078626D01*
X-1076512Y-925852D02*
Y-931851D01*
X-1070971Y-927281D02*
X-1071256Y-926709D01*
X-1071828Y-926138D01*
X-1072399Y-925852D01*
X-1073542D01*
X-1074113Y-926138D01*
X-1074684Y-926709D01*
X-1074970Y-927281D01*
X-1075255Y-928138D01*
Y-929566D01*
X-1074970Y-930423D01*
X-1074684Y-930994D01*
X-1074113Y-931565D01*
X-1073542Y-931851D01*
X-1072399D01*
X-1071828Y-931565D01*
X-1071256Y-930994D01*
X-1070971Y-930423D01*
X-1064572Y-928995D02*
X-1062001D01*
X-1061144Y-928709D01*
X-1060859Y-928423D01*
X-1060573Y-927852D01*
Y-926995D01*
X-1060859Y-926424D01*
X-1061144Y-926138D01*
X-1062001Y-925852D01*
X-1064572D01*
Y-931851D01*
X-1059230Y-925852D02*
Y-930137D01*
X-1058945Y-930994D01*
X-1058373Y-931565D01*
X-1057516Y-931851D01*
X-1056945D01*
X-1056088Y-931565D01*
X-1055517Y-930994D01*
X-1055231Y-930137D01*
Y-925852D01*
X-1053574D02*
Y-931851D01*
Y-925852D02*
X-1051003D01*
X-1050147Y-926138D01*
X-1049861Y-926424D01*
X-1049575Y-926995D01*
Y-927566D01*
X-1049861Y-928138D01*
X-1050147Y-928423D01*
X-1051003Y-928709D01*
X-1053574D01*
X-1051575D02*
X-1049575Y-931851D01*
X-1048233Y-928995D02*
X-1045662D01*
X-1044805Y-928709D01*
X-1044519Y-928423D01*
X-1044234Y-927852D01*
Y-926995D01*
X-1044519Y-926424D01*
X-1044805Y-926138D01*
X-1045662Y-925852D01*
X-1048233D01*
Y-931851D01*
X-1041177Y-925852D02*
X-1041748Y-926138D01*
X-1042320Y-926709D01*
X-1042605Y-927281D01*
X-1042891Y-928138D01*
Y-929566D01*
X-1042605Y-930423D01*
X-1042320Y-930994D01*
X-1041748Y-931565D01*
X-1041177Y-931851D01*
X-1040034D01*
X-1039463Y-931565D01*
X-1038892Y-930994D01*
X-1038606Y-930423D01*
X-1038321Y-929566D01*
Y-928138D01*
X-1038606Y-927281D01*
X-1038892Y-926709D01*
X-1039463Y-926138D01*
X-1040034Y-925852D01*
X-1041177D01*
X-1032922Y-926709D02*
X-1033493Y-926138D01*
X-1034350Y-925852D01*
X-1035493D01*
X-1036349Y-926138D01*
X-1036921Y-926709D01*
Y-927281D01*
X-1036635Y-927852D01*
X-1036349Y-928138D01*
X-1035778Y-928423D01*
X-1034064Y-928995D01*
X-1033493Y-929280D01*
X-1033207Y-929566D01*
X-1032922Y-930137D01*
Y-930994D01*
X-1033493Y-931565D01*
X-1034350Y-931851D01*
X-1035493D01*
X-1036349Y-931565D01*
X-1036921Y-930994D01*
X-1027866Y-925852D02*
X-1031579D01*
Y-931851D01*
X-1027866D01*
X-1031579Y-928709D02*
X-1029294D01*
X-1022153Y-925852D02*
Y-930137D01*
X-1021867Y-930994D01*
X-1021296Y-931565D01*
X-1020439Y-931851D01*
X-1019867D01*
X-1019010Y-931565D01*
X-1018439Y-930994D01*
X-1018153Y-930137D01*
Y-925852D01*
X-1016497D02*
Y-931851D01*
Y-925852D02*
X-1012498Y-931851D01*
Y-925852D02*
Y-931851D01*
X-1010841Y-925852D02*
Y-931851D01*
Y-925852D02*
X-1008841D01*
X-1007984Y-926138D01*
X-1007413Y-926709D01*
X-1007127Y-927281D01*
X-1006842Y-928138D01*
Y-929566D01*
X-1007127Y-930423D01*
X-1007413Y-930994D01*
X-1007984Y-931565D01*
X-1008841Y-931851D01*
X-1010841D01*
X-1001785Y-925852D02*
X-1005499D01*
Y-931851D01*
X-1001785D01*
X-1005499Y-928709D02*
X-1003214D01*
X-1000786Y-925852D02*
Y-931851D01*
Y-925852D02*
X-998215D01*
X-997358Y-926138D01*
X-997072Y-926424D01*
X-996787Y-926995D01*
Y-927566D01*
X-997072Y-928138D01*
X-997358Y-928423D01*
X-998215Y-928709D01*
X-1000786D01*
X-998786D02*
X-996787Y-931851D01*
X-986160D02*
X-988445Y-925852D01*
X-990731Y-931851D01*
X-989874Y-929852D02*
X-987017D01*
X-975762Y-927281D02*
X-976048Y-926709D01*
X-976620Y-926138D01*
X-977191Y-925852D01*
X-978333D01*
X-978905Y-926138D01*
X-979476Y-926709D01*
X-979762Y-927281D01*
X-980047Y-928138D01*
Y-929566D01*
X-979762Y-930423D01*
X-979476Y-930994D01*
X-978905Y-931565D01*
X-978333Y-931851D01*
X-977191D01*
X-976620Y-931565D01*
X-976048Y-930994D01*
X-975762Y-930423D01*
X-972363Y-925852D02*
X-972935Y-926138D01*
X-973506Y-926709D01*
X-973792Y-927281D01*
X-974077Y-928138D01*
Y-929566D01*
X-973792Y-930423D01*
X-973506Y-930994D01*
X-972935Y-931565D01*
X-972363Y-931851D01*
X-971221D01*
X-970649Y-931565D01*
X-970078Y-930994D01*
X-969792Y-930423D01*
X-969507Y-929566D01*
Y-928138D01*
X-969792Y-927281D01*
X-970078Y-926709D01*
X-970649Y-926138D01*
X-971221Y-925852D01*
X-972363D01*
X-968107D02*
Y-931851D01*
Y-925852D02*
X-964108Y-931851D01*
Y-925852D02*
Y-931851D01*
X-962451Y-929280D02*
X-957309D01*
X-1273413Y-915853D02*
Y-921851D01*
X-1275413Y-915853D02*
X-1271414D01*
X-1270699D02*
Y-921851D01*
X-1266700Y-915853D02*
Y-921851D01*
X-1270699Y-918709D02*
X-1266700D01*
X-1265043Y-915853D02*
Y-921851D01*
X-1259787Y-916709D02*
X-1260359Y-916138D01*
X-1261216Y-915853D01*
X-1262358D01*
X-1263215Y-916138D01*
X-1263787Y-916709D01*
Y-917281D01*
X-1263501Y-917852D01*
X-1263215Y-918138D01*
X-1262644Y-918423D01*
X-1260930Y-918995D01*
X-1260359Y-919280D01*
X-1260073Y-919566D01*
X-1259787Y-920137D01*
Y-920994D01*
X-1260359Y-921566D01*
X-1261216Y-921851D01*
X-1262358D01*
X-1263215Y-921566D01*
X-1263787Y-920994D01*
X-1253732Y-915853D02*
Y-921851D01*
Y-915853D02*
X-1251732D01*
X-1250875Y-916138D01*
X-1250304Y-916709D01*
X-1250018Y-917281D01*
X-1249732Y-918138D01*
Y-919566D01*
X-1250018Y-920423D01*
X-1250304Y-920994D01*
X-1250875Y-921566D01*
X-1251732Y-921851D01*
X-1253732D01*
X-1248390Y-915853D02*
Y-921851D01*
Y-915853D02*
X-1245819D01*
X-1244962Y-916138D01*
X-1244676Y-916424D01*
X-1244391Y-916995D01*
Y-917566D01*
X-1244676Y-918138D01*
X-1244962Y-918423D01*
X-1245819Y-918709D01*
X-1248390D01*
X-1246390D02*
X-1244391Y-921851D01*
X-1238478D02*
X-1240763Y-915853D01*
X-1243048Y-921851D01*
X-1242191Y-919852D02*
X-1239335D01*
X-1237078Y-915853D02*
X-1235650Y-921851D01*
X-1234221Y-915853D02*
X-1235650Y-921851D01*
X-1234221Y-915853D02*
X-1232793Y-921851D01*
X-1231365Y-915853D02*
X-1232793Y-921851D01*
X-1230165Y-915853D02*
Y-921851D01*
X-1228908Y-915853D02*
Y-921851D01*
Y-915853D02*
X-1224909Y-921851D01*
Y-915853D02*
Y-921851D01*
X-1218968Y-917281D02*
X-1219253Y-916709D01*
X-1219825Y-916138D01*
X-1220396Y-915853D01*
X-1221539D01*
X-1222110Y-916138D01*
X-1222681Y-916709D01*
X-1222967Y-917281D01*
X-1223252Y-918138D01*
Y-919566D01*
X-1222967Y-920423D01*
X-1222681Y-920994D01*
X-1222110Y-921566D01*
X-1221539Y-921851D01*
X-1220396D01*
X-1219825Y-921566D01*
X-1219253Y-920994D01*
X-1218968Y-920423D01*
Y-919566D01*
X-1220396D02*
X-1218968D01*
X-1209170Y-915853D02*
X-1212883D01*
Y-921851D01*
X-1209170D01*
X-1212883Y-918709D02*
X-1210598D01*
X-1208170Y-915853D02*
Y-921851D01*
Y-915853D02*
X-1205885Y-921851D01*
X-1203599Y-915853D02*
X-1205885Y-921851D01*
X-1203599Y-915853D02*
Y-921851D01*
X-1201886Y-915853D02*
Y-921851D01*
Y-915853D02*
X-1199315D01*
X-1198458Y-916138D01*
X-1198172Y-916424D01*
X-1197886Y-916995D01*
Y-917566D01*
X-1198172Y-918138D01*
X-1198458Y-918423D01*
X-1199315Y-918709D01*
X-1201886D02*
X-1199315D01*
X-1198458Y-918995D01*
X-1198172Y-919280D01*
X-1197886Y-919852D01*
Y-920709D01*
X-1198172Y-921280D01*
X-1198458Y-921566D01*
X-1199315Y-921851D01*
X-1201886D01*
X-1194830Y-915853D02*
X-1195401Y-916138D01*
X-1195973Y-916709D01*
X-1196258Y-917281D01*
X-1196544Y-918138D01*
Y-919566D01*
X-1196258Y-920423D01*
X-1195973Y-920994D01*
X-1195401Y-921566D01*
X-1194830Y-921851D01*
X-1193687D01*
X-1193116Y-921566D01*
X-1192545Y-920994D01*
X-1192259Y-920423D01*
X-1191973Y-919566D01*
Y-918138D01*
X-1192259Y-917281D01*
X-1192545Y-916709D01*
X-1193116Y-916138D01*
X-1193687Y-915853D01*
X-1194830D01*
X-1190574D02*
Y-921851D01*
Y-915853D02*
X-1188574D01*
X-1187717Y-916138D01*
X-1187146Y-916709D01*
X-1186860Y-917281D01*
X-1186574Y-918138D01*
Y-919566D01*
X-1186860Y-920423D01*
X-1187146Y-920994D01*
X-1187717Y-921566D01*
X-1188574Y-921851D01*
X-1190574D01*
X-1185232Y-915853D02*
Y-921851D01*
X-1180262Y-915853D02*
X-1183975D01*
Y-921851D01*
X-1180262D01*
X-1183975Y-918709D02*
X-1181690D01*
X-1175263Y-916709D02*
X-1175834Y-916138D01*
X-1176691Y-915853D01*
X-1177833D01*
X-1178691Y-916138D01*
X-1179262Y-916709D01*
Y-917281D01*
X-1178976Y-917852D01*
X-1178691Y-918138D01*
X-1178119Y-918423D01*
X-1176405Y-918995D01*
X-1175834Y-919280D01*
X-1175548Y-919566D01*
X-1175263Y-920137D01*
Y-920994D01*
X-1175834Y-921566D01*
X-1176691Y-921851D01*
X-1177833D01*
X-1178691Y-921566D01*
X-1179262Y-920994D01*
X-1164636Y-921851D02*
X-1166922Y-915853D01*
X-1169207Y-921851D01*
X-1168350Y-919852D02*
X-1165493D01*
X-1158523Y-918995D02*
X-1155952D01*
X-1155095Y-918709D01*
X-1154810Y-918423D01*
X-1154524Y-917852D01*
Y-916995D01*
X-1154810Y-916424D01*
X-1155095Y-916138D01*
X-1155952Y-915853D01*
X-1158523D01*
Y-921851D01*
X-1153182Y-915853D02*
Y-921851D01*
Y-915853D02*
X-1150611D01*
X-1149754Y-916138D01*
X-1149468Y-916424D01*
X-1149183Y-916995D01*
Y-917566D01*
X-1149468Y-918138D01*
X-1149754Y-918423D01*
X-1150611Y-918709D01*
X-1153182D01*
X-1151182D02*
X-1149183Y-921851D01*
X-1146126Y-915853D02*
X-1146697Y-916138D01*
X-1147269Y-916709D01*
X-1147554Y-917281D01*
X-1147840Y-918138D01*
Y-919566D01*
X-1147554Y-920423D01*
X-1147269Y-920994D01*
X-1146697Y-921566D01*
X-1146126Y-921851D01*
X-1144983D01*
X-1144412Y-921566D01*
X-1143841Y-920994D01*
X-1143555Y-920423D01*
X-1143270Y-919566D01*
Y-918138D01*
X-1143555Y-917281D01*
X-1143841Y-916709D01*
X-1144412Y-916138D01*
X-1144983Y-915853D01*
X-1146126D01*
X-1141870Y-918995D02*
X-1139299D01*
X-1138442Y-918709D01*
X-1138156Y-918423D01*
X-1137871Y-917852D01*
Y-916995D01*
X-1138156Y-916424D01*
X-1138442Y-916138D01*
X-1139299Y-915853D01*
X-1141870D01*
Y-921851D01*
X-1136528Y-915853D02*
Y-921851D01*
Y-915853D02*
X-1133957D01*
X-1133100Y-916138D01*
X-1132815Y-916424D01*
X-1132529Y-916995D01*
Y-917566D01*
X-1132815Y-918138D01*
X-1133100Y-918423D01*
X-1133957Y-918709D01*
X-1136528D01*
X-1134529D02*
X-1132529Y-921851D01*
X-1131186Y-915853D02*
Y-921851D01*
X-1126216Y-915853D02*
X-1129930D01*
Y-921851D01*
X-1126216D01*
X-1129930Y-918709D02*
X-1127644D01*
X-1123217Y-915853D02*
Y-921851D01*
X-1125216Y-915853D02*
X-1121217D01*
X-1115932Y-921851D02*
X-1118218Y-915853D01*
X-1120503Y-921851D01*
X-1119646Y-919852D02*
X-1116790D01*
X-1114533Y-915853D02*
Y-921851D01*
Y-915853D02*
X-1111962D01*
X-1111105Y-916138D01*
X-1110819Y-916424D01*
X-1110534Y-916995D01*
Y-917566D01*
X-1110819Y-918138D01*
X-1111105Y-918423D01*
X-1111962Y-918709D01*
X-1114533D01*
X-1112533D02*
X-1110534Y-921851D01*
X-1109191Y-915853D02*
X-1106906Y-918709D01*
Y-921851D01*
X-1104621Y-915853D02*
X-1106906Y-918709D01*
X-1099136Y-915853D02*
Y-921851D01*
Y-915853D02*
X-1097136D01*
X-1096280Y-916138D01*
X-1095708Y-916709D01*
X-1095423Y-917281D01*
X-1095137Y-918138D01*
Y-919566D01*
X-1095423Y-920423D01*
X-1095708Y-920994D01*
X-1096280Y-921566D01*
X-1097136Y-921851D01*
X-1099136D01*
X-1090081Y-915853D02*
X-1093794D01*
Y-921851D01*
X-1090081D01*
X-1093794Y-918709D02*
X-1091509D01*
X-1085082Y-916709D02*
X-1085653Y-916138D01*
X-1086510Y-915853D01*
X-1087653D01*
X-1088510Y-916138D01*
X-1089081Y-916709D01*
Y-917281D01*
X-1088795Y-917852D01*
X-1088510Y-918138D01*
X-1087938Y-918423D01*
X-1086225Y-918995D01*
X-1085653Y-919280D01*
X-1085368Y-919566D01*
X-1085082Y-920137D01*
Y-920994D01*
X-1085653Y-921566D01*
X-1086510Y-921851D01*
X-1087653D01*
X-1088510Y-921566D01*
X-1089081Y-920994D01*
X-1083739Y-915853D02*
Y-921851D01*
X-1078198Y-917281D02*
X-1078483Y-916709D01*
X-1079055Y-916138D01*
X-1079626Y-915853D01*
X-1080769D01*
X-1081340Y-916138D01*
X-1081911Y-916709D01*
X-1082197Y-917281D01*
X-1082483Y-918138D01*
Y-919566D01*
X-1082197Y-920423D01*
X-1081911Y-920994D01*
X-1081340Y-921566D01*
X-1080769Y-921851D01*
X-1079626D01*
X-1079055Y-921566D01*
X-1078483Y-920994D01*
X-1078198Y-920423D01*
Y-919566D01*
X-1079626D02*
X-1078198D01*
X-1076827Y-915853D02*
Y-921851D01*
Y-915853D02*
X-1072828Y-921851D01*
Y-915853D02*
Y-921851D01*
X-1064744Y-915853D02*
X-1065315Y-916138D01*
X-1065886Y-916709D01*
X-1066172Y-917281D01*
X-1066457Y-918138D01*
Y-919566D01*
X-1066172Y-920423D01*
X-1065886Y-920994D01*
X-1065315Y-921566D01*
X-1064744Y-921851D01*
X-1063601D01*
X-1063030Y-921566D01*
X-1062458Y-920994D01*
X-1062173Y-920423D01*
X-1061887Y-919566D01*
Y-918138D01*
X-1062173Y-917281D01*
X-1062458Y-916709D01*
X-1063030Y-916138D01*
X-1063601Y-915853D01*
X-1064744D01*
X-1060487D02*
X-1059059Y-921851D01*
X-1057631Y-915853D02*
X-1059059Y-921851D01*
X-1057631Y-915853D02*
X-1056202Y-921851D01*
X-1054774Y-915853D02*
X-1056202Y-921851D01*
X-1053574Y-915853D02*
Y-921851D01*
Y-915853D02*
X-1049575Y-921851D01*
Y-915853D02*
Y-921851D01*
X-1044205Y-915853D02*
X-1047919D01*
Y-921851D01*
X-1044205D01*
X-1047919Y-918709D02*
X-1045633D01*
X-1043205Y-915853D02*
Y-921851D01*
Y-915853D02*
X-1041206D01*
X-1040349Y-916138D01*
X-1039777Y-916709D01*
X-1039492Y-917281D01*
X-1039206Y-918138D01*
Y-919566D01*
X-1039492Y-920423D01*
X-1039777Y-920994D01*
X-1040349Y-921566D01*
X-1041206Y-921851D01*
X-1043205D01*
X-1033150Y-915853D02*
Y-921851D01*
Y-915853D02*
X-1030579D01*
X-1029722Y-916138D01*
X-1029437Y-916424D01*
X-1029151Y-916995D01*
Y-917566D01*
X-1029437Y-918138D01*
X-1029722Y-918423D01*
X-1030579Y-918709D01*
X-1033150D02*
X-1030579D01*
X-1029722Y-918995D01*
X-1029437Y-919280D01*
X-1029151Y-919852D01*
Y-920709D01*
X-1029437Y-921280D01*
X-1029722Y-921566D01*
X-1030579Y-921851D01*
X-1033150D01*
X-1027808Y-915853D02*
X-1025523Y-918709D01*
Y-921851D01*
X-1023238Y-915853D02*
X-1025523Y-918709D01*
X-1017754Y-915853D02*
Y-921851D01*
X-1014326D01*
X-1009098D02*
X-1011384Y-915853D01*
X-1013669Y-921851D01*
X-1012812Y-919852D02*
X-1009955D01*
X-1003699Y-916709D02*
X-1004271Y-916138D01*
X-1005128Y-915853D01*
X-1006270D01*
X-1007127Y-916138D01*
X-1007699Y-916709D01*
Y-917281D01*
X-1007413Y-917852D01*
X-1007127Y-918138D01*
X-1006556Y-918423D01*
X-1004842Y-918995D01*
X-1004271Y-919280D01*
X-1003985Y-919566D01*
X-1003699Y-920137D01*
Y-920994D01*
X-1004271Y-921566D01*
X-1005128Y-921851D01*
X-1006270D01*
X-1007127Y-921566D01*
X-1007699Y-920994D01*
X-993359Y-917281D02*
X-993644Y-916709D01*
X-994216Y-916138D01*
X-994787Y-915853D01*
X-995930D01*
X-996501Y-916138D01*
X-997072Y-916709D01*
X-997358Y-917281D01*
X-997644Y-918138D01*
Y-919566D01*
X-997358Y-920423D01*
X-997072Y-920994D01*
X-996501Y-921566D01*
X-995930Y-921851D01*
X-994787D01*
X-994216Y-921566D01*
X-993644Y-920994D01*
X-993359Y-920423D01*
X-991673Y-915853D02*
Y-920137D01*
X-991388Y-920994D01*
X-990816Y-921566D01*
X-989960Y-921851D01*
X-989388D01*
X-988531Y-921566D01*
X-987960Y-920994D01*
X-987674Y-920137D01*
Y-915853D01*
X-986018D02*
Y-921851D01*
Y-915853D02*
X-983732Y-921851D01*
X-981447Y-915853D02*
X-983732Y-921851D01*
X-981447Y-915853D02*
Y-921851D01*
X-979733Y-915853D02*
Y-921851D01*
Y-915853D02*
X-977162D01*
X-976305Y-916138D01*
X-976020Y-916424D01*
X-975734Y-916995D01*
Y-917566D01*
X-976020Y-918138D01*
X-976305Y-918423D01*
X-977162Y-918709D01*
X-979733D02*
X-977162D01*
X-976305Y-918995D01*
X-976020Y-919280D01*
X-975734Y-919852D01*
Y-920709D01*
X-976020Y-921280D01*
X-976305Y-921566D01*
X-977162Y-921851D01*
X-979733D01*
X-974391Y-915853D02*
Y-921851D01*
Y-915853D02*
X-971821D01*
X-970964Y-916138D01*
X-970678Y-916424D01*
X-970392Y-916995D01*
Y-917566D01*
X-970678Y-918138D01*
X-970964Y-918423D01*
X-971821Y-918709D01*
X-974391D01*
X-972392D02*
X-970392Y-921851D01*
X-965336Y-915853D02*
X-969050D01*
Y-921851D01*
X-965336D01*
X-969050Y-918709D02*
X-966765D01*
X-960337Y-916709D02*
X-960909Y-916138D01*
X-961765Y-915853D01*
X-962908D01*
X-963765Y-916138D01*
X-964336Y-916709D01*
Y-917281D01*
X-964051Y-917852D01*
X-963765Y-918138D01*
X-963194Y-918423D01*
X-961480Y-918995D01*
X-960909Y-919280D01*
X-960623Y-919566D01*
X-960337Y-920137D01*
Y-920994D01*
X-960909Y-921566D01*
X-961765Y-921851D01*
X-962908D01*
X-963765Y-921566D01*
X-964336Y-920994D01*
X-1275413Y-944353D02*
Y-950351D01*
X-1274156Y-944353D02*
Y-950351D01*
Y-944353D02*
X-1270157Y-950351D01*
Y-944353D02*
Y-950351D01*
X-1263787Y-944353D02*
X-1262358Y-950351D01*
X-1260930Y-944353D02*
X-1262358Y-950351D01*
X-1260930Y-944353D02*
X-1259502Y-950351D01*
X-1258074Y-944353D02*
X-1259502Y-950351D01*
X-1256874Y-944353D02*
Y-950351D01*
Y-944353D02*
X-1254303D01*
X-1253446Y-944638D01*
X-1253160Y-944924D01*
X-1252875Y-945495D01*
Y-946066D01*
X-1253160Y-946638D01*
X-1253446Y-946923D01*
X-1254303Y-947209D01*
X-1256874D01*
X-1254874D02*
X-1252875Y-950351D01*
X-1251532Y-944353D02*
Y-950351D01*
X-1248276Y-944353D02*
Y-950351D01*
X-1250275Y-944353D02*
X-1246276D01*
X-1245562D02*
Y-950351D01*
X-1244305Y-944353D02*
Y-950351D01*
Y-944353D02*
X-1240306Y-950351D01*
Y-944353D02*
Y-950351D01*
X-1234364Y-945781D02*
X-1234650Y-945209D01*
X-1235221Y-944638D01*
X-1235793Y-944353D01*
X-1236935D01*
X-1237506Y-944638D01*
X-1238078Y-945209D01*
X-1238363Y-945781D01*
X-1238649Y-946638D01*
Y-948066D01*
X-1238363Y-948923D01*
X-1238078Y-949494D01*
X-1237506Y-950066D01*
X-1236935Y-950351D01*
X-1235793D01*
X-1235221Y-950066D01*
X-1234650Y-949494D01*
X-1234364Y-948923D01*
Y-948066D01*
X-1235793D02*
X-1234364D01*
X-1232422Y-950066D02*
X-1232708Y-950351D01*
X-1232993Y-950066D01*
X-1232708Y-949780D01*
X-1232422Y-950066D01*
Y-950637D01*
X-1232708Y-951208D01*
X-1232993Y-951494D01*
X-1221824Y-950351D02*
X-1224109Y-944353D01*
X-1226395Y-950351D01*
X-1225538Y-948352D02*
X-1222681D01*
X-1220424Y-944353D02*
Y-950351D01*
X-1216997D01*
X-1216340Y-944353D02*
Y-950351D01*
X-1212912D01*
X-1207541Y-944353D02*
Y-950351D01*
Y-944353D02*
X-1204971D01*
X-1204114Y-944638D01*
X-1203828Y-944924D01*
X-1203542Y-945495D01*
Y-946066D01*
X-1203828Y-946638D01*
X-1204114Y-946923D01*
X-1204971Y-947209D01*
X-1207541D01*
X-1205542D02*
X-1203542Y-950351D01*
X-1202200Y-944353D02*
Y-950351D01*
X-1196658Y-945781D02*
X-1196944Y-945209D01*
X-1197515Y-944638D01*
X-1198086Y-944353D01*
X-1199229D01*
X-1199800Y-944638D01*
X-1200372Y-945209D01*
X-1200657Y-945781D01*
X-1200943Y-946638D01*
Y-948066D01*
X-1200657Y-948923D01*
X-1200372Y-949494D01*
X-1199800Y-950066D01*
X-1199229Y-950351D01*
X-1198086D01*
X-1197515Y-950066D01*
X-1196944Y-949494D01*
X-1196658Y-948923D01*
Y-948066D01*
X-1198086D02*
X-1196658D01*
X-1195287Y-944353D02*
Y-950351D01*
X-1191288Y-944353D02*
Y-950351D01*
X-1195287Y-947209D02*
X-1191288D01*
X-1187631Y-944353D02*
Y-950351D01*
X-1189631Y-944353D02*
X-1185632D01*
X-1180919Y-945209D02*
X-1181490Y-944638D01*
X-1182347Y-944353D01*
X-1183490D01*
X-1184346Y-944638D01*
X-1184918Y-945209D01*
Y-945781D01*
X-1184632Y-946352D01*
X-1184346Y-946638D01*
X-1183775Y-946923D01*
X-1182061Y-947495D01*
X-1181490Y-947780D01*
X-1181204Y-948066D01*
X-1180919Y-948637D01*
Y-949494D01*
X-1181490Y-950066D01*
X-1182347Y-950351D01*
X-1183490D01*
X-1184346Y-950066D01*
X-1184918Y-949494D01*
X-1170292Y-950351D02*
X-1172577Y-944353D01*
X-1174863Y-950351D01*
X-1174006Y-948352D02*
X-1171149D01*
X-1168893Y-944353D02*
Y-950351D01*
Y-944353D02*
X-1166322D01*
X-1165465Y-944638D01*
X-1165179Y-944924D01*
X-1164893Y-945495D01*
Y-946066D01*
X-1165179Y-946638D01*
X-1165465Y-946923D01*
X-1166322Y-947209D01*
X-1168893D01*
X-1166893D02*
X-1164893Y-950351D01*
X-1159837Y-944353D02*
X-1163551D01*
Y-950351D01*
X-1159837D01*
X-1163551Y-947209D02*
X-1161266D01*
X-1154124Y-944353D02*
Y-950351D01*
Y-944353D02*
X-1151553D01*
X-1150696Y-944638D01*
X-1150411Y-944924D01*
X-1150125Y-945495D01*
Y-946066D01*
X-1150411Y-946638D01*
X-1150696Y-946923D01*
X-1151553Y-947209D01*
X-1154124D01*
X-1152125D02*
X-1150125Y-950351D01*
X-1145069Y-944353D02*
X-1148783D01*
Y-950351D01*
X-1145069D01*
X-1148783Y-947209D02*
X-1146497D01*
X-1140070Y-945209D02*
X-1140641Y-944638D01*
X-1141498Y-944353D01*
X-1142641D01*
X-1143498Y-944638D01*
X-1144069Y-945209D01*
Y-945781D01*
X-1143784Y-946352D01*
X-1143498Y-946638D01*
X-1142927Y-946923D01*
X-1141213Y-947495D01*
X-1140641Y-947780D01*
X-1140356Y-948066D01*
X-1140070Y-948637D01*
Y-949494D01*
X-1140641Y-950066D01*
X-1141498Y-950351D01*
X-1142641D01*
X-1143498Y-950066D01*
X-1144069Y-949494D01*
X-1135014Y-944353D02*
X-1138728D01*
Y-950351D01*
X-1135014D01*
X-1138728Y-947209D02*
X-1136442D01*
X-1134014Y-944353D02*
Y-950351D01*
Y-944353D02*
X-1131444D01*
X-1130587Y-944638D01*
X-1130301Y-944924D01*
X-1130015Y-945495D01*
Y-946066D01*
X-1130301Y-946638D01*
X-1130587Y-946923D01*
X-1131444Y-947209D01*
X-1134014D01*
X-1132015D02*
X-1130015Y-950351D01*
X-1128673Y-944353D02*
X-1126387Y-950351D01*
X-1124102Y-944353D02*
X-1126387Y-950351D01*
X-1119617Y-944353D02*
X-1123331D01*
Y-950351D01*
X-1119617D01*
X-1123331Y-947209D02*
X-1121046D01*
X-1118618Y-944353D02*
Y-950351D01*
Y-944353D02*
X-1116618D01*
X-1115761Y-944638D01*
X-1115190Y-945209D01*
X-1114904Y-945781D01*
X-1114618Y-946638D01*
Y-948066D01*
X-1114904Y-948923D01*
X-1115190Y-949494D01*
X-1115761Y-950066D01*
X-1116618Y-950351D01*
X-1118618D01*
X-1108563Y-944353D02*
Y-950351D01*
Y-944353D02*
X-1105992D01*
X-1105135Y-944638D01*
X-1104849Y-944924D01*
X-1104564Y-945495D01*
Y-946066D01*
X-1104849Y-946638D01*
X-1105135Y-946923D01*
X-1105992Y-947209D01*
X-1108563D02*
X-1105992D01*
X-1105135Y-947495D01*
X-1104849Y-947780D01*
X-1104564Y-948352D01*
Y-949209D01*
X-1104849Y-949780D01*
X-1105135Y-950066D01*
X-1105992Y-950351D01*
X-1108563D01*
X-1103221Y-944353D02*
X-1100936Y-947209D01*
Y-950351D01*
X-1098650Y-944353D02*
X-1100936Y-947209D01*
X-1093166Y-944353D02*
Y-950351D01*
X-1089738D01*
X-1084511D02*
X-1086796Y-944353D01*
X-1089081Y-950351D01*
X-1088224Y-948352D02*
X-1085368D01*
X-1079112Y-945209D02*
X-1079683Y-944638D01*
X-1080540Y-944353D01*
X-1081683D01*
X-1082540Y-944638D01*
X-1083111Y-945209D01*
Y-945781D01*
X-1082825Y-946352D01*
X-1082540Y-946638D01*
X-1081968Y-946923D01*
X-1080254Y-947495D01*
X-1079683Y-947780D01*
X-1079397Y-948066D01*
X-1079112Y-948637D01*
Y-949494D01*
X-1079683Y-950066D01*
X-1080540Y-950351D01*
X-1081683D01*
X-1082540Y-950066D01*
X-1083111Y-949494D01*
X-1068771Y-945781D02*
X-1069057Y-945209D01*
X-1069628Y-944638D01*
X-1070199Y-944353D01*
X-1071342D01*
X-1071913Y-944638D01*
X-1072485Y-945209D01*
X-1072770Y-945781D01*
X-1073056Y-946638D01*
Y-948066D01*
X-1072770Y-948923D01*
X-1072485Y-949494D01*
X-1071913Y-950066D01*
X-1071342Y-950351D01*
X-1070199D01*
X-1069628Y-950066D01*
X-1069057Y-949494D01*
X-1068771Y-948923D01*
X-1067086Y-944353D02*
Y-948637D01*
X-1066800Y-949494D01*
X-1066229Y-950066D01*
X-1065372Y-950351D01*
X-1064801D01*
X-1063944Y-950066D01*
X-1063372Y-949494D01*
X-1063087Y-948637D01*
Y-944353D01*
X-1061430D02*
Y-950351D01*
Y-944353D02*
X-1059145Y-950351D01*
X-1056859Y-944353D02*
X-1059145Y-950351D01*
X-1056859Y-944353D02*
Y-950351D01*
X-1055145Y-944353D02*
Y-950351D01*
Y-944353D02*
X-1052575D01*
X-1051718Y-944638D01*
X-1051432Y-944924D01*
X-1051146Y-945495D01*
Y-946066D01*
X-1051432Y-946638D01*
X-1051718Y-946923D01*
X-1052575Y-947209D01*
X-1055145D02*
X-1052575D01*
X-1051718Y-947495D01*
X-1051432Y-947780D01*
X-1051146Y-948352D01*
Y-949209D01*
X-1051432Y-949780D01*
X-1051718Y-950066D01*
X-1052575Y-950351D01*
X-1055145D01*
X-1049804Y-944353D02*
Y-950351D01*
Y-944353D02*
X-1047233D01*
X-1046376Y-944638D01*
X-1046090Y-944924D01*
X-1045805Y-945495D01*
Y-946066D01*
X-1046090Y-946638D01*
X-1046376Y-946923D01*
X-1047233Y-947209D01*
X-1049804D01*
X-1047804D02*
X-1045805Y-950351D01*
X-1040749Y-944353D02*
X-1044462D01*
Y-950351D01*
X-1040749D01*
X-1044462Y-947209D02*
X-1042177D01*
X-1035750Y-945209D02*
X-1036321Y-944638D01*
X-1037178Y-944353D01*
X-1038321D01*
X-1039178Y-944638D01*
X-1039749Y-945209D01*
Y-945781D01*
X-1039463Y-946352D01*
X-1039178Y-946638D01*
X-1038606Y-946923D01*
X-1036892Y-947495D01*
X-1036321Y-947780D01*
X-1036035Y-948066D01*
X-1035750Y-948637D01*
Y-949494D01*
X-1036321Y-950066D01*
X-1037178Y-950351D01*
X-1038321D01*
X-1039178Y-950066D01*
X-1039749Y-949494D01*
X-1027980Y-944353D02*
X-1028551Y-944638D01*
X-1029123Y-945209D01*
X-1029408Y-945781D01*
X-1029694Y-946638D01*
Y-948066D01*
X-1029408Y-948923D01*
X-1029123Y-949494D01*
X-1028551Y-950066D01*
X-1027980Y-950351D01*
X-1026837D01*
X-1026266Y-950066D01*
X-1025695Y-949494D01*
X-1025409Y-948923D01*
X-1025123Y-948066D01*
Y-946638D01*
X-1025409Y-945781D01*
X-1025695Y-945209D01*
X-1026266Y-944638D01*
X-1026837Y-944353D01*
X-1027980D01*
X-1023724D02*
Y-950351D01*
Y-944353D02*
X-1021153D01*
X-1020296Y-944638D01*
X-1020010Y-944924D01*
X-1019724Y-945495D01*
Y-946066D01*
X-1020010Y-946638D01*
X-1020296Y-946923D01*
X-1021153Y-947209D01*
X-1023724D02*
X-1021153D01*
X-1020296Y-947495D01*
X-1020010Y-947780D01*
X-1019724Y-948352D01*
Y-949209D01*
X-1020010Y-949780D01*
X-1020296Y-950066D01*
X-1021153Y-950351D01*
X-1023724D01*
X-1014383Y-945209D02*
X-1014954Y-944638D01*
X-1015811Y-944353D01*
X-1016954D01*
X-1017811Y-944638D01*
X-1018382Y-945209D01*
Y-945781D01*
X-1018096Y-946352D01*
X-1017811Y-946638D01*
X-1017239Y-946923D01*
X-1015525Y-947495D01*
X-1014954Y-947780D01*
X-1014668Y-948066D01*
X-1014383Y-948637D01*
Y-949494D01*
X-1014954Y-950066D01*
X-1015811Y-950351D01*
X-1016954D01*
X-1017811Y-950066D01*
X-1018382Y-949494D01*
X-1009327Y-944353D02*
X-1013040D01*
Y-950351D01*
X-1009327D01*
X-1013040Y-947209D02*
X-1010755D01*
X-1008327Y-944353D02*
Y-950351D01*
Y-944353D02*
X-1005756D01*
X-1004899Y-944638D01*
X-1004613Y-944924D01*
X-1004328Y-945495D01*
Y-946066D01*
X-1004613Y-946638D01*
X-1004899Y-946923D01*
X-1005756Y-947209D01*
X-1008327D01*
X-1006327D02*
X-1004328Y-950351D01*
X-1002985Y-944353D02*
X-1000700Y-950351D01*
X-998415Y-944353D02*
X-1000700Y-950351D01*
X-993073D02*
X-995358Y-944353D01*
X-997644Y-950351D01*
X-996787Y-948352D02*
X-993930D01*
X-989674Y-944353D02*
Y-950351D01*
X-991673Y-944353D02*
X-987674D01*
X-985246D02*
X-985818Y-944638D01*
X-986389Y-945209D01*
X-986674Y-945781D01*
X-986960Y-946638D01*
Y-948066D01*
X-986674Y-948923D01*
X-986389Y-949494D01*
X-985818Y-950066D01*
X-985246Y-950351D01*
X-984104D01*
X-983532Y-950066D01*
X-982961Y-949494D01*
X-982675Y-948923D01*
X-982390Y-948066D01*
Y-946638D01*
X-982675Y-945781D01*
X-982961Y-945209D01*
X-983532Y-944638D01*
X-984104Y-944353D01*
X-985246D01*
X-980990D02*
Y-950351D01*
Y-944353D02*
X-978419D01*
X-977562Y-944638D01*
X-977277Y-944924D01*
X-976991Y-945495D01*
Y-946066D01*
X-977277Y-946638D01*
X-977562Y-946923D01*
X-978419Y-947209D01*
X-980990D01*
X-978990D02*
X-976991Y-950351D01*
X-975648Y-944353D02*
X-973363Y-947209D01*
Y-950351D01*
X-971078Y-944353D02*
X-973363Y-947209D01*
X-970021Y-949780D02*
X-970307Y-950066D01*
X-970021Y-950351D01*
X-969735Y-950066D01*
X-970021Y-949780D01*
X-160593Y-358086D02*
X-161069Y-359514D01*
X-162021Y-360466D01*
X-163449Y-360943D01*
X-163925D01*
X-165354Y-360466D01*
X-166306Y-359514D01*
X-166782Y-358086D01*
Y-357610D01*
X-166306Y-356182D01*
X-165354Y-355229D01*
X-163925Y-354753D01*
X-163449D01*
X-162021Y-355229D01*
X-161069Y-356182D01*
X-160593Y-358086D01*
Y-360466D01*
X-161069Y-362847D01*
X-162021Y-364275D01*
X-163449Y-364751D01*
X-164401D01*
X-165830Y-364275D01*
X-166306Y-363323D01*
X-155499Y-354753D02*
X-156927Y-355229D01*
X-157403Y-356182D01*
Y-357134D01*
X-156927Y-358086D01*
X-155974Y-358562D01*
X-154070Y-359038D01*
X-152642Y-359514D01*
X-151690Y-360466D01*
X-151214Y-361419D01*
Y-362847D01*
X-151690Y-363799D01*
X-152166Y-364275D01*
X-153594Y-364751D01*
X-155499D01*
X-156927Y-364275D01*
X-157403Y-363799D01*
X-157879Y-362847D01*
Y-361419D01*
X-157403Y-360466D01*
X-156451Y-359514D01*
X-155022Y-359038D01*
X-153118Y-358562D01*
X-152166Y-358086D01*
X-151690Y-357134D01*
Y-356182D01*
X-152166Y-355229D01*
X-153594Y-354753D01*
X-155499D01*
X-73141Y-356658D02*
X-72189Y-356182D01*
X-70761Y-354753D01*
Y-364751D01*
X-62953Y-354753D02*
X-64381Y-355229D01*
X-65333Y-356658D01*
X-65809Y-359038D01*
Y-360466D01*
X-65333Y-362847D01*
X-64381Y-364275D01*
X-62953Y-364751D01*
X-62001D01*
X-60572Y-364275D01*
X-59620Y-362847D01*
X-59144Y-360466D01*
Y-359038D01*
X-59620Y-356658D01*
X-60572Y-355229D01*
X-62001Y-354753D01*
X-62953D01*
X-56906Y-358086D02*
Y-364751D01*
Y-359990D02*
X-55478Y-358562D01*
X-54526Y-358086D01*
X-53098D01*
X-52146Y-358562D01*
X-51670Y-359990D01*
Y-364751D01*
Y-359990D02*
X-50241Y-358562D01*
X-49289Y-358086D01*
X-47861D01*
X-46909Y-358562D01*
X-46433Y-359990D01*
Y-364751D01*
X-42338Y-354753D02*
X-41862Y-355229D01*
X-41386Y-354753D01*
X-41862Y-354277D01*
X-42338Y-354753D01*
X-41862Y-358086D02*
Y-364751D01*
X-39625Y-354753D02*
Y-364751D01*
X-26342Y-352849D02*
X-27294Y-353801D01*
X-28246Y-355229D01*
X-29198Y-357134D01*
X-29674Y-359514D01*
Y-361419D01*
X-29198Y-363799D01*
X-28246Y-365703D01*
X-27294Y-367132D01*
X-26342Y-368084D01*
X-27294Y-353801D02*
X-28246Y-355705D01*
X-28722Y-357134D01*
X-29198Y-359514D01*
Y-361419D01*
X-28722Y-363799D01*
X-28246Y-365227D01*
X-27294Y-367132D01*
X-21581Y-354753D02*
X-23009Y-355229D01*
X-23961Y-356658D01*
X-24437Y-359038D01*
Y-360466D01*
X-23961Y-362847D01*
X-23009Y-364275D01*
X-21581Y-364751D01*
X-20628D01*
X-19200Y-364275D01*
X-18248Y-362847D01*
X-17772Y-360466D01*
Y-359038D01*
X-18248Y-356658D01*
X-19200Y-355229D01*
X-20628Y-354753D01*
X-21581D01*
X-15058Y-363799D02*
X-15534Y-364275D01*
X-15058Y-364751D01*
X-14582Y-364275D01*
X-15058Y-363799D01*
X-11916Y-357134D02*
Y-356658D01*
X-11440Y-355705D01*
X-10964Y-355229D01*
X-10012Y-354753D01*
X-8107D01*
X-7155Y-355229D01*
X-6679Y-355705D01*
X-6203Y-356658D01*
Y-357610D01*
X-6679Y-358562D01*
X-7631Y-359990D01*
X-12392Y-364751D01*
X-5727D01*
X2224Y-354753D02*
X-2537D01*
X-3013Y-359038D01*
X-2537Y-358562D01*
X-1109Y-358086D01*
X319D01*
X1748Y-358562D01*
X2700Y-359514D01*
X3176Y-360943D01*
Y-361895D01*
X2700Y-363323D01*
X1748Y-364275D01*
X319Y-364751D01*
X-1109D01*
X-2537Y-364275D01*
X-3013Y-363799D01*
X-3489Y-362847D01*
X10174Y-354753D02*
X5413Y-361419D01*
X12555D01*
X10174Y-354753D02*
Y-364751D01*
X14316Y-358086D02*
Y-364751D01*
Y-359990D02*
X15745Y-358562D01*
X16697Y-358086D01*
X18125D01*
X19077Y-358562D01*
X19553Y-359990D01*
Y-364751D01*
Y-359990D02*
X20982Y-358562D01*
X21934Y-358086D01*
X23362D01*
X24314Y-358562D01*
X24790Y-359990D01*
Y-364751D01*
X27933Y-358086D02*
Y-364751D01*
Y-359990D02*
X29361Y-358562D01*
X30313Y-358086D01*
X31741D01*
X32693Y-358562D01*
X33169Y-359990D01*
Y-364751D01*
Y-359990D02*
X34598Y-358562D01*
X35550Y-358086D01*
X36978D01*
X37930Y-358562D01*
X38406Y-359990D01*
Y-364751D01*
X41549Y-352849D02*
X42501Y-353801D01*
X43453Y-355229D01*
X44405Y-357134D01*
X44881Y-359514D01*
Y-361419D01*
X44405Y-363799D01*
X43453Y-365703D01*
X42501Y-367132D01*
X41549Y-368084D01*
X42501Y-353801D02*
X43453Y-355705D01*
X43929Y-357134D01*
X44405Y-359514D01*
Y-361419D01*
X43929Y-363799D01*
X43453Y-365227D01*
X42501Y-367132D01*
X82477Y-359990D02*
X86761D01*
X88190Y-359514D01*
X88666Y-359038D01*
X89142Y-358086D01*
Y-356658D01*
X88666Y-355705D01*
X88190Y-355229D01*
X86761Y-354753D01*
X82477D01*
Y-364751D01*
X94712Y-354753D02*
Y-364751D01*
X91379Y-354753D02*
X98045D01*
X99235D02*
Y-364751D01*
X105900Y-354753D02*
Y-364751D01*
X99235Y-359514D02*
X105900D01*
X145095Y-354753D02*
Y-364751D01*
Y-354753D02*
X149380D01*
X150808Y-355229D01*
X151284Y-355705D01*
X151760Y-356658D01*
Y-357610D01*
X151284Y-358562D01*
X150808Y-359038D01*
X149380Y-359514D01*
X145095D01*
X148428D02*
X151760Y-364751D01*
X156378Y-358086D02*
X155426Y-358562D01*
X154474Y-359514D01*
X153998Y-360943D01*
Y-361895D01*
X154474Y-363323D01*
X155426Y-364275D01*
X156378Y-364751D01*
X157807D01*
X158759Y-364275D01*
X159711Y-363323D01*
X160187Y-361895D01*
Y-360943D01*
X159711Y-359514D01*
X158759Y-358562D01*
X157807Y-358086D01*
X156378D01*
X162377D02*
Y-362847D01*
X162853Y-364275D01*
X163805Y-364751D01*
X165234D01*
X166186Y-364275D01*
X167614Y-362847D01*
Y-358086D02*
Y-364751D01*
X170233Y-358086D02*
Y-364751D01*
Y-359990D02*
X171661Y-358562D01*
X172613Y-358086D01*
X174041D01*
X174994Y-358562D01*
X175470Y-359990D01*
Y-364751D01*
X183801Y-354753D02*
Y-364751D01*
Y-359514D02*
X182849Y-358562D01*
X181897Y-358086D01*
X180469D01*
X179516Y-358562D01*
X178564Y-359514D01*
X178088Y-360943D01*
Y-361895D01*
X178564Y-363323D01*
X179516Y-364275D01*
X180469Y-364751D01*
X181897D01*
X182849Y-364275D01*
X183801Y-363323D01*
X-164401Y-374753D02*
X-165830Y-375229D01*
X-166306Y-376182D01*
Y-377134D01*
X-165830Y-378086D01*
X-164877Y-378562D01*
X-162973Y-379038D01*
X-161545Y-379514D01*
X-160593Y-380466D01*
X-160117Y-381419D01*
Y-382847D01*
X-160593Y-383799D01*
X-161069Y-384275D01*
X-162497Y-384751D01*
X-164401D01*
X-165830Y-384275D01*
X-166306Y-383799D01*
X-166782Y-382847D01*
Y-381419D01*
X-166306Y-380466D01*
X-165354Y-379514D01*
X-163925Y-379038D01*
X-162021Y-378562D01*
X-161069Y-378086D01*
X-160593Y-377134D01*
Y-376182D01*
X-161069Y-375229D01*
X-162497Y-374753D01*
X-164401D01*
X-72189D02*
X-66952D01*
X-69809Y-378562D01*
X-68380D01*
X-67428Y-379038D01*
X-66952Y-379514D01*
X-66476Y-380943D01*
Y-381895D01*
X-66952Y-383323D01*
X-67904Y-384275D01*
X-69332Y-384751D01*
X-70761D01*
X-72189Y-384275D01*
X-72665Y-383799D01*
X-73141Y-382847D01*
X-63286Y-374753D02*
X-58049D01*
X-60906Y-378562D01*
X-59477D01*
X-58525Y-379038D01*
X-58049Y-379514D01*
X-57573Y-380943D01*
Y-381895D01*
X-58049Y-383323D01*
X-59001Y-384275D01*
X-60430Y-384751D01*
X-61858D01*
X-63286Y-384275D01*
X-63762Y-383799D01*
X-64238Y-382847D01*
X-54859Y-383799D02*
X-55335Y-384275D01*
X-54859Y-384751D01*
X-54383Y-384275D01*
X-54859Y-383799D01*
X-47432Y-374753D02*
X-52193Y-381419D01*
X-45052D01*
X-47432Y-374753D02*
Y-384751D01*
X-37577Y-376182D02*
X-38053Y-375229D01*
X-39482Y-374753D01*
X-40434D01*
X-41862Y-375229D01*
X-42814Y-376658D01*
X-43290Y-379038D01*
Y-381419D01*
X-42814Y-383323D01*
X-41862Y-384275D01*
X-40434Y-384751D01*
X-39958D01*
X-38530Y-384275D01*
X-37577Y-383323D01*
X-37101Y-381895D01*
Y-381419D01*
X-37577Y-379990D01*
X-38530Y-379038D01*
X-39958Y-378562D01*
X-40434D01*
X-41862Y-379038D01*
X-42814Y-379990D01*
X-43290Y-381419D01*
X-29198Y-374753D02*
X-33959D01*
X-34435Y-379038D01*
X-33959Y-378562D01*
X-32531Y-378086D01*
X-31102D01*
X-29674Y-378562D01*
X-28722Y-379514D01*
X-28246Y-380943D01*
Y-381895D01*
X-28722Y-383323D01*
X-29674Y-384275D01*
X-31102Y-384751D01*
X-32531D01*
X-33959Y-384275D01*
X-34435Y-383799D01*
X-34911Y-382847D01*
X-26008Y-378086D02*
Y-384751D01*
Y-379990D02*
X-24580Y-378562D01*
X-23628Y-378086D01*
X-22200D01*
X-21248Y-378562D01*
X-20771Y-379990D01*
Y-384751D01*
Y-379990D02*
X-19343Y-378562D01*
X-18391Y-378086D01*
X-16963D01*
X-16011Y-378562D01*
X-15534Y-379990D01*
Y-384751D01*
X-11440Y-374753D02*
X-10964Y-375229D01*
X-10488Y-374753D01*
X-10964Y-374277D01*
X-11440Y-374753D01*
X-10964Y-378086D02*
Y-384751D01*
X-8726Y-374753D02*
Y-384751D01*
X4557Y-372849D02*
X3604Y-373801D01*
X2652Y-375229D01*
X1700Y-377134D01*
X1224Y-379514D01*
Y-381419D01*
X1700Y-383799D01*
X2652Y-385703D01*
X3604Y-387132D01*
X4557Y-388084D01*
X3604Y-373801D02*
X2652Y-375706D01*
X2176Y-377134D01*
X1700Y-379514D01*
Y-381419D01*
X2176Y-383799D01*
X2652Y-385227D01*
X3604Y-387132D01*
X9317Y-374753D02*
X7889Y-375229D01*
X6937Y-376658D01*
X6461Y-379038D01*
Y-380466D01*
X6937Y-382847D01*
X7889Y-384275D01*
X9317Y-384751D01*
X10270D01*
X11698Y-384275D01*
X12650Y-382847D01*
X13126Y-380466D01*
Y-379038D01*
X12650Y-376658D01*
X11698Y-375229D01*
X10270Y-374753D01*
X9317D01*
X15840Y-383799D02*
X15364Y-384275D01*
X15840Y-384751D01*
X16316Y-384275D01*
X15840Y-383799D01*
X20886Y-374753D02*
X19458Y-375229D01*
X18982Y-376182D01*
Y-377134D01*
X19458Y-378086D01*
X20410Y-378562D01*
X22315Y-379038D01*
X23743Y-379514D01*
X24695Y-380466D01*
X25171Y-381419D01*
Y-382847D01*
X24695Y-383799D01*
X24219Y-384275D01*
X22791Y-384751D01*
X20886D01*
X19458Y-384275D01*
X18982Y-383799D01*
X18506Y-382847D01*
Y-381419D01*
X18982Y-380466D01*
X19934Y-379514D01*
X21362Y-379038D01*
X23267Y-378562D01*
X24219Y-378086D01*
X24695Y-377134D01*
Y-376182D01*
X24219Y-375229D01*
X22791Y-374753D01*
X20886D01*
X33122D02*
X28361D01*
X27885Y-379038D01*
X28361Y-378562D01*
X29789Y-378086D01*
X31218D01*
X32646Y-378562D01*
X33598Y-379514D01*
X34074Y-380943D01*
Y-381895D01*
X33598Y-383323D01*
X32646Y-384275D01*
X31218Y-384751D01*
X29789D01*
X28361Y-384275D01*
X27885Y-383799D01*
X27409Y-382847D01*
X36312Y-378086D02*
Y-384751D01*
Y-379990D02*
X37740Y-378562D01*
X38692Y-378086D01*
X40120D01*
X41072Y-378562D01*
X41549Y-379990D01*
Y-384751D01*
Y-379990D02*
X42977Y-378562D01*
X43929Y-378086D01*
X45357D01*
X46310Y-378562D01*
X46786Y-379990D01*
Y-384751D01*
X49928Y-378086D02*
Y-384751D01*
Y-379990D02*
X51356Y-378562D01*
X52308Y-378086D01*
X53737D01*
X54689Y-378562D01*
X55165Y-379990D01*
Y-384751D01*
Y-379990D02*
X56593Y-378562D01*
X57545Y-378086D01*
X58973D01*
X59926Y-378562D01*
X60402Y-379990D01*
Y-384751D01*
X63544Y-372849D02*
X64496Y-373801D01*
X65448Y-375229D01*
X66400Y-377134D01*
X66877Y-379514D01*
Y-381419D01*
X66400Y-383799D01*
X65448Y-385703D01*
X64496Y-387132D01*
X63544Y-388084D01*
X64496Y-373801D02*
X65448Y-375706D01*
X65924Y-377134D01*
X66400Y-379514D01*
Y-381419D01*
X65924Y-383799D01*
X65448Y-385227D01*
X64496Y-387132D01*
X82477Y-379990D02*
X86761D01*
X88190Y-379514D01*
X88666Y-379038D01*
X89142Y-378086D01*
Y-376658D01*
X88666Y-375706D01*
X88190Y-375229D01*
X86761Y-374753D01*
X82477D01*
Y-384751D01*
X94712Y-374753D02*
Y-384751D01*
X91379Y-374753D02*
X98045D01*
X99235D02*
Y-384751D01*
X105900Y-374753D02*
Y-384751D01*
X99235Y-379514D02*
X105900D01*
X145095Y-374753D02*
Y-384751D01*
Y-374753D02*
X149380D01*
X150808Y-375229D01*
X151284Y-375706D01*
X151760Y-376658D01*
Y-377610D01*
X151284Y-378562D01*
X150808Y-379038D01*
X149380Y-379514D01*
X145095D01*
X148428D02*
X151760Y-384751D01*
X156378Y-378086D02*
X155426Y-378562D01*
X154474Y-379514D01*
X153998Y-380943D01*
Y-381895D01*
X154474Y-383323D01*
X155426Y-384275D01*
X156378Y-384751D01*
X157807D01*
X158759Y-384275D01*
X159711Y-383323D01*
X160187Y-381895D01*
Y-380943D01*
X159711Y-379514D01*
X158759Y-378562D01*
X157807Y-378086D01*
X156378D01*
X162377D02*
Y-382847D01*
X162853Y-384275D01*
X163805Y-384751D01*
X165234D01*
X166186Y-384275D01*
X167614Y-382847D01*
Y-378086D02*
Y-384751D01*
X170233Y-378086D02*
Y-384751D01*
Y-379990D02*
X171661Y-378562D01*
X172613Y-378086D01*
X174041D01*
X174994Y-378562D01*
X175470Y-379990D01*
Y-384751D01*
X183801Y-374753D02*
Y-384751D01*
Y-379514D02*
X182849Y-378562D01*
X181897Y-378086D01*
X180469D01*
X179516Y-378562D01*
X178564Y-379514D01*
X178088Y-380943D01*
Y-381895D01*
X178564Y-383323D01*
X179516Y-384275D01*
X180469Y-384751D01*
X181897D01*
X182849Y-384275D01*
X183801Y-383323D01*
X-166782Y-396658D02*
X-165830Y-396182D01*
X-164401Y-394753D01*
Y-404751D01*
X-72189Y-394753D02*
X-66952D01*
X-69809Y-398562D01*
X-68380D01*
X-67428Y-399038D01*
X-66952Y-399514D01*
X-66476Y-400943D01*
Y-401895D01*
X-66952Y-403323D01*
X-67904Y-404275D01*
X-69332Y-404751D01*
X-70761D01*
X-72189Y-404275D01*
X-72665Y-403799D01*
X-73141Y-402847D01*
X-58525Y-394753D02*
X-63286D01*
X-63762Y-399038D01*
X-63286Y-398562D01*
X-61858Y-398086D01*
X-60430D01*
X-59001Y-398562D01*
X-58049Y-399514D01*
X-57573Y-400943D01*
Y-401895D01*
X-58049Y-403323D01*
X-59001Y-404275D01*
X-60430Y-404751D01*
X-61858D01*
X-63286Y-404275D01*
X-63762Y-403799D01*
X-64238Y-402847D01*
X-54859Y-403799D02*
X-55335Y-404275D01*
X-54859Y-404751D01*
X-54383Y-404275D01*
X-54859Y-403799D01*
X-47432Y-394753D02*
X-52193Y-401419D01*
X-45052D01*
X-47432Y-394753D02*
Y-404751D01*
X-42338Y-394753D02*
X-37101D01*
X-39958Y-398562D01*
X-38530D01*
X-37577Y-399038D01*
X-37101Y-399514D01*
X-36625Y-400943D01*
Y-401895D01*
X-37101Y-403323D01*
X-38053Y-404275D01*
X-39482Y-404751D01*
X-40910D01*
X-42338Y-404275D01*
X-42814Y-403799D01*
X-43290Y-402847D01*
X-33435Y-394753D02*
X-28198D01*
X-31055Y-398562D01*
X-29627D01*
X-28674Y-399038D01*
X-28198Y-399514D01*
X-27722Y-400943D01*
Y-401895D01*
X-28198Y-403323D01*
X-29151Y-404275D01*
X-30579Y-404751D01*
X-32007D01*
X-33435Y-404275D01*
X-33911Y-403799D01*
X-34387Y-402847D01*
X-25485Y-398086D02*
Y-404751D01*
Y-399990D02*
X-24056Y-398562D01*
X-23104Y-398086D01*
X-21676D01*
X-20724Y-398562D01*
X-20248Y-399990D01*
Y-404751D01*
Y-399990D02*
X-18819Y-398562D01*
X-17867Y-398086D01*
X-16439D01*
X-15487Y-398562D01*
X-15011Y-399990D01*
Y-404751D01*
X-10916Y-394753D02*
X-10440Y-395229D01*
X-9964Y-394753D01*
X-10440Y-394277D01*
X-10916Y-394753D01*
X-10440Y-398086D02*
Y-404751D01*
X-8203Y-394753D02*
Y-404751D01*
X5080Y-392849D02*
X4128Y-393801D01*
X3176Y-395229D01*
X2224Y-397134D01*
X1748Y-399514D01*
Y-401419D01*
X2224Y-403799D01*
X3176Y-405703D01*
X4128Y-407132D01*
X5080Y-408084D01*
X4128Y-393801D02*
X3176Y-395706D01*
X2700Y-397134D01*
X2224Y-399514D01*
Y-401419D01*
X2700Y-403799D01*
X3176Y-405227D01*
X4128Y-407132D01*
X9841Y-394753D02*
X8413Y-395229D01*
X7461Y-396658D01*
X6985Y-399038D01*
Y-400466D01*
X7461Y-402847D01*
X8413Y-404275D01*
X9841Y-404751D01*
X10793D01*
X12222Y-404275D01*
X13174Y-402847D01*
X13650Y-400466D01*
Y-399038D01*
X13174Y-396658D01*
X12222Y-395229D01*
X10793Y-394753D01*
X9841D01*
X16364Y-403799D02*
X15887Y-404275D01*
X16364Y-404751D01*
X16840Y-404275D01*
X16364Y-403799D01*
X25219Y-398086D02*
X24743Y-399514D01*
X23790Y-400466D01*
X22362Y-400943D01*
X21886D01*
X20458Y-400466D01*
X19506Y-399514D01*
X19030Y-398086D01*
Y-397610D01*
X19506Y-396182D01*
X20458Y-395229D01*
X21886Y-394753D01*
X22362D01*
X23790Y-395229D01*
X24743Y-396182D01*
X25219Y-398086D01*
Y-400466D01*
X24743Y-402847D01*
X23790Y-404275D01*
X22362Y-404751D01*
X21410D01*
X19982Y-404275D01*
X19506Y-403323D01*
X27933Y-398086D02*
Y-404751D01*
Y-399990D02*
X29361Y-398562D01*
X30313Y-398086D01*
X31741D01*
X32693Y-398562D01*
X33169Y-399990D01*
Y-404751D01*
Y-399990D02*
X34598Y-398562D01*
X35550Y-398086D01*
X36978D01*
X37930Y-398562D01*
X38406Y-399990D01*
Y-404751D01*
X41549Y-398086D02*
Y-404751D01*
Y-399990D02*
X42977Y-398562D01*
X43929Y-398086D01*
X45357D01*
X46310Y-398562D01*
X46786Y-399990D01*
Y-404751D01*
Y-399990D02*
X48214Y-398562D01*
X49166Y-398086D01*
X50594D01*
X51547Y-398562D01*
X52023Y-399990D01*
Y-404751D01*
X55165Y-392849D02*
X56117Y-393801D01*
X57069Y-395229D01*
X58021Y-397134D01*
X58497Y-399514D01*
Y-401419D01*
X58021Y-403799D01*
X57069Y-405703D01*
X56117Y-407132D01*
X55165Y-408084D01*
X56117Y-393801D02*
X57069Y-395706D01*
X57545Y-397134D01*
X58021Y-399514D01*
Y-401419D01*
X57545Y-403799D01*
X57069Y-405227D01*
X56117Y-407132D01*
X82477Y-394753D02*
Y-404751D01*
Y-394753D02*
X89142Y-404751D01*
Y-394753D02*
Y-404751D01*
X91903Y-399990D02*
X96188D01*
X97616Y-399514D01*
X98092Y-399038D01*
X98568Y-398086D01*
Y-396658D01*
X98092Y-395706D01*
X97616Y-395229D01*
X96188Y-394753D01*
X91903D01*
Y-404751D01*
X104139Y-394753D02*
Y-404751D01*
X100806Y-394753D02*
X107471D01*
X108661D02*
Y-404751D01*
X115327Y-394753D02*
Y-404751D01*
X108661Y-399514D02*
X115327D01*
X145095Y-394753D02*
Y-404751D01*
Y-394753D02*
X149380D01*
X150808Y-395229D01*
X151284Y-395706D01*
X151760Y-396658D01*
Y-397610D01*
X151284Y-398562D01*
X150808Y-399038D01*
X149380Y-399514D01*
X145095D01*
X148428D02*
X151760Y-404751D01*
X156378Y-398086D02*
X155426Y-398562D01*
X154474Y-399514D01*
X153998Y-400943D01*
Y-401895D01*
X154474Y-403323D01*
X155426Y-404275D01*
X156378Y-404751D01*
X157807D01*
X158759Y-404275D01*
X159711Y-403323D01*
X160187Y-401895D01*
Y-400943D01*
X159711Y-399514D01*
X158759Y-398562D01*
X157807Y-398086D01*
X156378D01*
X162377D02*
Y-402847D01*
X162853Y-404275D01*
X163805Y-404751D01*
X165234D01*
X166186Y-404275D01*
X167614Y-402847D01*
Y-398086D02*
Y-404751D01*
X170233Y-398086D02*
Y-404751D01*
Y-399990D02*
X171661Y-398562D01*
X172613Y-398086D01*
X174041D01*
X174994Y-398562D01*
X175470Y-399990D01*
Y-404751D01*
X183801Y-394753D02*
Y-404751D01*
Y-399514D02*
X182849Y-398562D01*
X181897Y-398086D01*
X180469D01*
X179516Y-398562D01*
X178564Y-399514D01*
X178088Y-400943D01*
Y-401895D01*
X178564Y-403323D01*
X179516Y-404275D01*
X180469Y-404751D01*
X181897D01*
X182849Y-404275D01*
X183801Y-403323D01*
X-166782Y-416658D02*
X-165830Y-416182D01*
X-164401Y-414753D01*
Y-424751D01*
X-72189Y-414753D02*
X-66952D01*
X-69809Y-418562D01*
X-68380D01*
X-67428Y-419038D01*
X-66952Y-419514D01*
X-66476Y-420942D01*
Y-421895D01*
X-66952Y-423323D01*
X-67904Y-424275D01*
X-69332Y-424751D01*
X-70761D01*
X-72189Y-424275D01*
X-72665Y-423799D01*
X-73141Y-422847D01*
X-58049Y-418086D02*
X-58525Y-419514D01*
X-59477Y-420466D01*
X-60906Y-420942D01*
X-61382D01*
X-62810Y-420466D01*
X-63762Y-419514D01*
X-64238Y-418086D01*
Y-417610D01*
X-63762Y-416182D01*
X-62810Y-415229D01*
X-61382Y-414753D01*
X-60906D01*
X-59477Y-415229D01*
X-58525Y-416182D01*
X-58049Y-418086D01*
Y-420466D01*
X-58525Y-422847D01*
X-59477Y-424275D01*
X-60906Y-424751D01*
X-61858D01*
X-63286Y-424275D01*
X-63762Y-423323D01*
X-54859Y-423799D02*
X-55335Y-424275D01*
X-54859Y-424751D01*
X-54383Y-424275D01*
X-54859Y-423799D01*
X-51241Y-414753D02*
X-46004D01*
X-48861Y-418562D01*
X-47432D01*
X-46480Y-419038D01*
X-46004Y-419514D01*
X-45528Y-420942D01*
Y-421895D01*
X-46004Y-423323D01*
X-46956Y-424275D01*
X-48384Y-424751D01*
X-49813D01*
X-51241Y-424275D01*
X-51717Y-423799D01*
X-52193Y-422847D01*
X-36625Y-414753D02*
X-41386Y-424751D01*
X-43290Y-414753D02*
X-36625D01*
X-34387Y-418086D02*
Y-424751D01*
Y-419990D02*
X-32959Y-418562D01*
X-32007Y-418086D01*
X-30579D01*
X-29627Y-418562D01*
X-29151Y-419990D01*
Y-424751D01*
Y-419990D02*
X-27722Y-418562D01*
X-26770Y-418086D01*
X-25342D01*
X-24390Y-418562D01*
X-23913Y-419990D01*
Y-424751D01*
X-19819Y-414753D02*
X-19343Y-415229D01*
X-18867Y-414753D01*
X-19343Y-414277D01*
X-19819Y-414753D01*
X-19343Y-418086D02*
Y-424751D01*
X-17106Y-414753D02*
Y-424751D01*
X-3823Y-412849D02*
X-4775Y-413801D01*
X-5727Y-415229D01*
X-6679Y-417134D01*
X-7155Y-419514D01*
Y-421419D01*
X-6679Y-423799D01*
X-5727Y-425703D01*
X-4775Y-427132D01*
X-3823Y-428084D01*
X-4775Y-413801D02*
X-5727Y-415705D01*
X-6203Y-417134D01*
X-6679Y-419514D01*
Y-421419D01*
X-6203Y-423799D01*
X-5727Y-425227D01*
X-4775Y-427132D01*
X-1918Y-416658D02*
X-966Y-416182D01*
X462Y-414753D01*
Y-424751D01*
X5413Y-418086D02*
Y-424751D01*
Y-419990D02*
X6842Y-418562D01*
X7794Y-418086D01*
X9222D01*
X10174Y-418562D01*
X10650Y-419990D01*
Y-424751D01*
Y-419990D02*
X12079Y-418562D01*
X13031Y-418086D01*
X14459D01*
X15411Y-418562D01*
X15888Y-419990D01*
Y-424751D01*
X19030Y-418086D02*
Y-424751D01*
Y-419990D02*
X20458Y-418562D01*
X21410Y-418086D01*
X22838D01*
X23790Y-418562D01*
X24267Y-419990D01*
Y-424751D01*
Y-419990D02*
X25695Y-418562D01*
X26647Y-418086D01*
X28075D01*
X29028Y-418562D01*
X29504Y-419990D01*
Y-424751D01*
X32646Y-412849D02*
X33598Y-413801D01*
X34550Y-415229D01*
X35502Y-417134D01*
X35978Y-419514D01*
Y-421419D01*
X35502Y-423799D01*
X34550Y-425703D01*
X33598Y-427132D01*
X32646Y-428084D01*
X33598Y-413801D02*
X34550Y-415705D01*
X35026Y-417134D01*
X35502Y-419514D01*
Y-421419D01*
X35026Y-423799D01*
X34550Y-425227D01*
X33598Y-427132D01*
X82477Y-414753D02*
Y-424751D01*
Y-414753D02*
X89142Y-424751D01*
Y-414753D02*
Y-424751D01*
X91903Y-419990D02*
X96188D01*
X97616Y-419514D01*
X98092Y-419038D01*
X98568Y-418086D01*
Y-416658D01*
X98092Y-415705D01*
X97616Y-415229D01*
X96188Y-414753D01*
X91903D01*
Y-424751D01*
X104139Y-414753D02*
Y-424751D01*
X100806Y-414753D02*
X107471D01*
X108661D02*
Y-424751D01*
X115327Y-414753D02*
Y-424751D01*
X108661Y-419514D02*
X115327D01*
X145095Y-414753D02*
Y-424751D01*
Y-414753D02*
X149380D01*
X150808Y-415229D01*
X151284Y-415705D01*
X151760Y-416658D01*
Y-417610D01*
X151284Y-418562D01*
X150808Y-419038D01*
X149380Y-419514D01*
X145095D01*
X148428D02*
X151760Y-424751D01*
X156378Y-418086D02*
X155426Y-418562D01*
X154474Y-419514D01*
X153998Y-420942D01*
Y-421895D01*
X154474Y-423323D01*
X155426Y-424275D01*
X156378Y-424751D01*
X157807D01*
X158759Y-424275D01*
X159711Y-423323D01*
X160187Y-421895D01*
Y-420942D01*
X159711Y-419514D01*
X158759Y-418562D01*
X157807Y-418086D01*
X156378D01*
X162377D02*
Y-422847D01*
X162853Y-424275D01*
X163805Y-424751D01*
X165234D01*
X166186Y-424275D01*
X167614Y-422847D01*
Y-418086D02*
Y-424751D01*
X170233Y-418086D02*
Y-424751D01*
Y-419990D02*
X171661Y-418562D01*
X172613Y-418086D01*
X174041D01*
X174994Y-418562D01*
X175470Y-419990D01*
Y-424751D01*
X183801Y-414753D02*
Y-424751D01*
Y-419514D02*
X182849Y-418562D01*
X181897Y-418086D01*
X180469D01*
X179516Y-418562D01*
X178564Y-419514D01*
X178088Y-420942D01*
Y-421895D01*
X178564Y-423323D01*
X179516Y-424275D01*
X180469Y-424751D01*
X181897D01*
X182849Y-424275D01*
X183801Y-423323D01*
X-161069Y-434753D02*
X-165830D01*
X-166306Y-439038D01*
X-165830Y-438562D01*
X-164401Y-438086D01*
X-162973D01*
X-161545Y-438562D01*
X-160593Y-439514D01*
X-160117Y-440942D01*
Y-441895D01*
X-160593Y-443323D01*
X-161545Y-444275D01*
X-162973Y-444751D01*
X-164401D01*
X-165830Y-444275D01*
X-166306Y-443799D01*
X-166782Y-442847D01*
X-153118Y-434753D02*
X-157879Y-441419D01*
X-150738D01*
X-153118Y-434753D02*
Y-444751D01*
X-68380Y-434753D02*
X-73141Y-441419D01*
X-66000D01*
X-68380Y-434753D02*
Y-444751D01*
X-61382Y-434753D02*
X-62810Y-435229D01*
X-63762Y-436658D01*
X-64238Y-439038D01*
Y-440466D01*
X-63762Y-442847D01*
X-62810Y-444275D01*
X-61382Y-444751D01*
X-60430D01*
X-59001Y-444275D01*
X-58049Y-442847D01*
X-57573Y-440466D01*
Y-439038D01*
X-58049Y-436658D01*
X-59001Y-435229D01*
X-60430Y-434753D01*
X-61382D01*
X-55335Y-438086D02*
Y-444751D01*
Y-439990D02*
X-53907Y-438562D01*
X-52955Y-438086D01*
X-51527D01*
X-50574Y-438562D01*
X-50098Y-439990D01*
Y-444751D01*
Y-439990D02*
X-48670Y-438562D01*
X-47718Y-438086D01*
X-46290D01*
X-45338Y-438562D01*
X-44861Y-439990D01*
Y-444751D01*
X-40767Y-434753D02*
X-40291Y-435229D01*
X-39815Y-434753D01*
X-40291Y-434277D01*
X-40767Y-434753D01*
X-40291Y-438086D02*
Y-444751D01*
X-38053Y-434753D02*
Y-444751D01*
X-24770Y-432849D02*
X-25723Y-433801D01*
X-26675Y-435229D01*
X-27627Y-437134D01*
X-28103Y-439514D01*
Y-441419D01*
X-27627Y-443799D01*
X-26675Y-445703D01*
X-25723Y-447132D01*
X-24770Y-448084D01*
X-25723Y-433801D02*
X-26675Y-435706D01*
X-27151Y-437134D01*
X-27627Y-439514D01*
Y-441419D01*
X-27151Y-443799D01*
X-26675Y-445227D01*
X-25723Y-447132D01*
X-22866Y-436658D02*
X-21914Y-436182D01*
X-20486Y-434753D01*
Y-444751D01*
X-15058Y-443799D02*
X-15534Y-444275D01*
X-15058Y-444751D01*
X-14582Y-444275D01*
X-15058Y-443799D01*
X-9536Y-434753D02*
X-10964Y-435229D01*
X-11916Y-436658D01*
X-12392Y-439038D01*
Y-440466D01*
X-11916Y-442847D01*
X-10964Y-444275D01*
X-9536Y-444751D01*
X-8584D01*
X-7155Y-444275D01*
X-6203Y-442847D01*
X-5727Y-440466D01*
Y-439038D01*
X-6203Y-436658D01*
X-7155Y-435229D01*
X-8584Y-434753D01*
X-9536D01*
X-3489Y-436658D02*
X-2537Y-436182D01*
X-1109Y-434753D01*
Y-444751D01*
X9556Y-436182D02*
X9079Y-435229D01*
X7651Y-434753D01*
X6699D01*
X5271Y-435229D01*
X4318Y-436658D01*
X3842Y-439038D01*
Y-441419D01*
X4318Y-443323D01*
X5271Y-444275D01*
X6699Y-444751D01*
X7175D01*
X8603Y-444275D01*
X9556Y-443323D01*
X10032Y-441895D01*
Y-441419D01*
X9556Y-439990D01*
X8603Y-439038D01*
X7175Y-438562D01*
X6699D01*
X5271Y-439038D01*
X4318Y-439990D01*
X3842Y-441419D01*
X12222Y-438086D02*
Y-444751D01*
Y-439990D02*
X13650Y-438562D01*
X14602Y-438086D01*
X16030D01*
X16983Y-438562D01*
X17458Y-439990D01*
Y-444751D01*
Y-439990D02*
X18887Y-438562D01*
X19839Y-438086D01*
X21267D01*
X22219Y-438562D01*
X22695Y-439990D01*
Y-444751D01*
X25838Y-438086D02*
Y-444751D01*
Y-439990D02*
X27266Y-438562D01*
X28218Y-438086D01*
X29646D01*
X30599Y-438562D01*
X31075Y-439990D01*
Y-444751D01*
Y-439990D02*
X32503Y-438562D01*
X33455Y-438086D01*
X34883D01*
X35836Y-438562D01*
X36312Y-439990D01*
Y-444751D01*
X39454Y-432849D02*
X40406Y-433801D01*
X41358Y-435229D01*
X42310Y-437134D01*
X42786Y-439514D01*
Y-441419D01*
X42310Y-443799D01*
X41358Y-445703D01*
X40406Y-447132D01*
X39454Y-448084D01*
X40406Y-433801D02*
X41358Y-435706D01*
X41834Y-437134D01*
X42310Y-439514D01*
Y-441419D01*
X41834Y-443799D01*
X41358Y-445227D01*
X40406Y-447132D01*
X82477Y-439990D02*
X86761D01*
X88190Y-439514D01*
X88666Y-439038D01*
X89142Y-438086D01*
Y-436658D01*
X88666Y-435706D01*
X88190Y-435229D01*
X86761Y-434753D01*
X82477D01*
Y-444751D01*
X94712Y-434753D02*
Y-444751D01*
X91379Y-434753D02*
X98045D01*
X99235D02*
Y-444751D01*
X105900Y-434753D02*
Y-444751D01*
X99235Y-439514D02*
X105900D01*
X145095Y-434753D02*
Y-444751D01*
Y-434753D02*
X149380D01*
X150808Y-435229D01*
X151284Y-435706D01*
X151760Y-436658D01*
Y-437610D01*
X151284Y-438562D01*
X150808Y-439038D01*
X149380Y-439514D01*
X145095D01*
X148428D02*
X151760Y-444751D01*
X156378Y-438086D02*
X155426Y-438562D01*
X154474Y-439514D01*
X153998Y-440942D01*
Y-441895D01*
X154474Y-443323D01*
X155426Y-444275D01*
X156378Y-444751D01*
X157807D01*
X158759Y-444275D01*
X159711Y-443323D01*
X160187Y-441895D01*
Y-440942D01*
X159711Y-439514D01*
X158759Y-438562D01*
X157807Y-438086D01*
X156378D01*
X162377D02*
Y-442847D01*
X162853Y-444275D01*
X163805Y-444751D01*
X165234D01*
X166186Y-444275D01*
X167614Y-442847D01*
Y-438086D02*
Y-444751D01*
X170233Y-438086D02*
Y-444751D01*
Y-439990D02*
X171661Y-438562D01*
X172613Y-438086D01*
X174041D01*
X174994Y-438562D01*
X175470Y-439990D01*
Y-444751D01*
X183801Y-434753D02*
Y-444751D01*
Y-439514D02*
X182849Y-438562D01*
X181897Y-438086D01*
X180469D01*
X179516Y-438562D01*
X178564Y-439514D01*
X178088Y-440942D01*
Y-441895D01*
X178564Y-443323D01*
X179516Y-444275D01*
X180469Y-444751D01*
X181897D01*
X182849Y-444275D01*
X183801Y-443323D01*
X-166306Y-457134D02*
Y-456658D01*
X-165830Y-455705D01*
X-165354Y-455229D01*
X-164401Y-454753D01*
X-162497D01*
X-161545Y-455229D01*
X-161069Y-455705D01*
X-160593Y-456658D01*
Y-457610D01*
X-161069Y-458562D01*
X-162021Y-459990D01*
X-166782Y-464751D01*
X-160117D01*
X-68380Y-454753D02*
X-73141Y-461419D01*
X-66000D01*
X-68380Y-454753D02*
Y-464751D01*
X-58049Y-458086D02*
X-58525Y-459514D01*
X-59477Y-460466D01*
X-60906Y-460943D01*
X-61382D01*
X-62810Y-460466D01*
X-63762Y-459514D01*
X-64238Y-458086D01*
Y-457610D01*
X-63762Y-456182D01*
X-62810Y-455229D01*
X-61382Y-454753D01*
X-60906D01*
X-59477Y-455229D01*
X-58525Y-456182D01*
X-58049Y-458086D01*
Y-460466D01*
X-58525Y-462847D01*
X-59477Y-464275D01*
X-60906Y-464751D01*
X-61858D01*
X-63286Y-464275D01*
X-63762Y-463323D01*
X-54859Y-463799D02*
X-55335Y-464275D01*
X-54859Y-464751D01*
X-54383Y-464275D01*
X-54859Y-463799D01*
X-51717Y-457134D02*
Y-456658D01*
X-51241Y-455705D01*
X-50765Y-455229D01*
X-49813Y-454753D01*
X-47908D01*
X-46956Y-455229D01*
X-46480Y-455705D01*
X-46004Y-456658D01*
Y-457610D01*
X-46480Y-458562D01*
X-47432Y-459990D01*
X-52193Y-464751D01*
X-45528D01*
X-43290Y-456658D02*
X-42338Y-456182D01*
X-40910Y-454753D01*
Y-464751D01*
X-35006Y-454753D02*
X-29769D01*
X-32626Y-458562D01*
X-31198D01*
X-30246Y-459038D01*
X-29769Y-459514D01*
X-29293Y-460943D01*
Y-461895D01*
X-29769Y-463323D01*
X-30722Y-464275D01*
X-32150Y-464751D01*
X-33578D01*
X-35006Y-464275D01*
X-35482Y-463799D01*
X-35959Y-462847D01*
X-27056Y-458086D02*
Y-464751D01*
Y-459990D02*
X-25627Y-458562D01*
X-24675Y-458086D01*
X-23247D01*
X-22295Y-458562D01*
X-21819Y-459990D01*
Y-464751D01*
Y-459990D02*
X-20391Y-458562D01*
X-19438Y-458086D01*
X-18010D01*
X-17058Y-458562D01*
X-16582Y-459990D01*
Y-464751D01*
X-12487Y-454753D02*
X-12011Y-455229D01*
X-11535Y-454753D01*
X-12011Y-454277D01*
X-12487Y-454753D01*
X-12011Y-458086D02*
Y-464751D01*
X-9774Y-454753D02*
Y-464751D01*
X3509Y-452849D02*
X2557Y-453801D01*
X1605Y-455229D01*
X653Y-457134D01*
X177Y-459514D01*
Y-461419D01*
X653Y-463799D01*
X1605Y-465703D01*
X2557Y-467132D01*
X3509Y-468084D01*
X2557Y-453801D02*
X1605Y-455705D01*
X1129Y-457134D01*
X653Y-459514D01*
Y-461419D01*
X1129Y-463799D01*
X1605Y-465227D01*
X2557Y-467132D01*
X5413Y-456658D02*
X6366Y-456182D01*
X7794Y-454753D01*
Y-464751D01*
X13221Y-463799D02*
X12745Y-464275D01*
X13221Y-464751D01*
X13697Y-464275D01*
X13221Y-463799D01*
X16364Y-457134D02*
Y-456658D01*
X16840Y-455705D01*
X17316Y-455229D01*
X18268Y-454753D01*
X20172D01*
X21124Y-455229D01*
X21600Y-455705D01*
X22077Y-456658D01*
Y-457610D01*
X21600Y-458562D01*
X20648Y-459990D01*
X15887Y-464751D01*
X22553D01*
X30503Y-454753D02*
X25743D01*
X25266Y-459038D01*
X25743Y-458562D01*
X27171Y-458086D01*
X28599D01*
X30027Y-458562D01*
X30979Y-459514D01*
X31455Y-460943D01*
Y-461895D01*
X30979Y-463323D01*
X30027Y-464275D01*
X28599Y-464751D01*
X27171D01*
X25743Y-464275D01*
X25266Y-463799D01*
X24790Y-462847D01*
X33693Y-458086D02*
Y-464751D01*
Y-459990D02*
X35121Y-458562D01*
X36074Y-458086D01*
X37502D01*
X38454Y-458562D01*
X38930Y-459990D01*
Y-464751D01*
Y-459990D02*
X40358Y-458562D01*
X41311Y-458086D01*
X42739D01*
X43691Y-458562D01*
X44167Y-459990D01*
Y-464751D01*
X47309Y-458086D02*
Y-464751D01*
Y-459990D02*
X48737Y-458562D01*
X49690Y-458086D01*
X51118D01*
X52070Y-458562D01*
X52546Y-459990D01*
Y-464751D01*
Y-459990D02*
X53974Y-458562D01*
X54927Y-458086D01*
X56355D01*
X57307Y-458562D01*
X57783Y-459990D01*
Y-464751D01*
X60925Y-452849D02*
X61878Y-453801D01*
X62830Y-455229D01*
X63782Y-457134D01*
X64258Y-459514D01*
Y-461419D01*
X63782Y-463799D01*
X62830Y-465703D01*
X61878Y-467132D01*
X60925Y-468084D01*
X61878Y-453801D02*
X62830Y-455705D01*
X63306Y-457134D01*
X63782Y-459514D01*
Y-461419D01*
X63306Y-463799D01*
X62830Y-465227D01*
X61878Y-467132D01*
X82477Y-454753D02*
Y-464751D01*
Y-454753D02*
X89142Y-464751D01*
Y-454753D02*
Y-464751D01*
X91903Y-459990D02*
X96188D01*
X97616Y-459514D01*
X98092Y-459038D01*
X98568Y-458086D01*
Y-456658D01*
X98092Y-455705D01*
X97616Y-455229D01*
X96188Y-454753D01*
X91903D01*
Y-464751D01*
X104139Y-454753D02*
Y-464751D01*
X100806Y-454753D02*
X107471D01*
X108661D02*
Y-464751D01*
X115327Y-454753D02*
Y-464751D01*
X108661Y-459514D02*
X115327D01*
X145095Y-454753D02*
Y-464751D01*
Y-454753D02*
X149380D01*
X150808Y-455229D01*
X151284Y-455705D01*
X151760Y-456658D01*
Y-457610D01*
X151284Y-458562D01*
X150808Y-459038D01*
X149380Y-459514D01*
X145095D01*
X148428D02*
X151760Y-464751D01*
X156378Y-458086D02*
X155426Y-458562D01*
X154474Y-459514D01*
X153998Y-460943D01*
Y-461895D01*
X154474Y-463323D01*
X155426Y-464275D01*
X156378Y-464751D01*
X157807D01*
X158759Y-464275D01*
X159711Y-463323D01*
X160187Y-461895D01*
Y-460943D01*
X159711Y-459514D01*
X158759Y-458562D01*
X157807Y-458086D01*
X156378D01*
X162377D02*
Y-462847D01*
X162853Y-464275D01*
X163805Y-464751D01*
X165234D01*
X166186Y-464275D01*
X167614Y-462847D01*
Y-458086D02*
Y-464751D01*
X170233Y-458086D02*
Y-464751D01*
Y-459990D02*
X171661Y-458562D01*
X172613Y-458086D01*
X174041D01*
X174994Y-458562D01*
X175470Y-459990D01*
Y-464751D01*
X183801Y-454753D02*
Y-464751D01*
Y-459514D02*
X182849Y-458562D01*
X181897Y-458086D01*
X180469D01*
X179516Y-458562D01*
X178564Y-459514D01*
X178088Y-460943D01*
Y-461895D01*
X178564Y-463323D01*
X179516Y-464275D01*
X180469Y-464751D01*
X181897D01*
X182849Y-464275D01*
X183801Y-463323D01*
X-164401Y-474753D02*
X-165830Y-475229D01*
X-166306Y-476182D01*
Y-477134D01*
X-165830Y-478086D01*
X-164877Y-478562D01*
X-162973Y-479038D01*
X-161545Y-479514D01*
X-160593Y-480466D01*
X-160117Y-481419D01*
Y-482847D01*
X-160593Y-483799D01*
X-161069Y-484275D01*
X-162497Y-484751D01*
X-164401D01*
X-165830Y-484275D01*
X-166306Y-483799D01*
X-166782Y-482847D01*
Y-481419D01*
X-166306Y-480466D01*
X-165354Y-479514D01*
X-163925Y-479038D01*
X-162021Y-478562D01*
X-161069Y-478086D01*
X-160593Y-477134D01*
Y-476182D01*
X-161069Y-475229D01*
X-162497Y-474753D01*
X-164401D01*
X-66476D02*
X-71237Y-484751D01*
X-73141Y-474753D02*
X-66476D01*
X-61382D02*
X-62810Y-475229D01*
X-63762Y-476658D01*
X-64238Y-479038D01*
Y-480466D01*
X-63762Y-482847D01*
X-62810Y-484275D01*
X-61382Y-484751D01*
X-60430D01*
X-59001Y-484275D01*
X-58049Y-482847D01*
X-57573Y-480466D01*
Y-479038D01*
X-58049Y-476658D01*
X-59001Y-475229D01*
X-60430Y-474753D01*
X-61382D01*
X-54859Y-483799D02*
X-55335Y-484275D01*
X-54859Y-484751D01*
X-54383Y-484275D01*
X-54859Y-483799D01*
X-49813Y-474753D02*
X-51241Y-475229D01*
X-51717Y-476182D01*
Y-477134D01*
X-51241Y-478086D01*
X-50289Y-478562D01*
X-48384Y-479038D01*
X-46956Y-479514D01*
X-46004Y-480466D01*
X-45528Y-481419D01*
Y-482847D01*
X-46004Y-483799D01*
X-46480Y-484275D01*
X-47908Y-484751D01*
X-49813D01*
X-51241Y-484275D01*
X-51717Y-483799D01*
X-52193Y-482847D01*
Y-481419D01*
X-51717Y-480466D01*
X-50765Y-479514D01*
X-49337Y-479038D01*
X-47432Y-478562D01*
X-46480Y-478086D01*
X-46004Y-477134D01*
Y-476182D01*
X-46480Y-475229D01*
X-47908Y-474753D01*
X-49813D01*
X-37577Y-476182D02*
X-38053Y-475229D01*
X-39482Y-474753D01*
X-40434D01*
X-41862Y-475229D01*
X-42814Y-476658D01*
X-43290Y-479038D01*
Y-481419D01*
X-42814Y-483323D01*
X-41862Y-484275D01*
X-40434Y-484751D01*
X-39958D01*
X-38530Y-484275D01*
X-37577Y-483323D01*
X-37101Y-481895D01*
Y-481419D01*
X-37577Y-479990D01*
X-38530Y-479038D01*
X-39958Y-478562D01*
X-40434D01*
X-41862Y-479038D01*
X-42814Y-479990D01*
X-43290Y-481419D01*
X-29198Y-476182D02*
X-29674Y-475229D01*
X-31102Y-474753D01*
X-32055D01*
X-33483Y-475229D01*
X-34435Y-476658D01*
X-34911Y-479038D01*
Y-481419D01*
X-34435Y-483323D01*
X-33483Y-484275D01*
X-32055Y-484751D01*
X-31579D01*
X-30150Y-484275D01*
X-29198Y-483323D01*
X-28722Y-481895D01*
Y-481419D01*
X-29198Y-479990D01*
X-30150Y-479038D01*
X-31579Y-478562D01*
X-32055D01*
X-33483Y-479038D01*
X-34435Y-479990D01*
X-34911Y-481419D01*
X-26532Y-478086D02*
Y-484751D01*
Y-479990D02*
X-25104Y-478562D01*
X-24152Y-478086D01*
X-22723D01*
X-21771Y-478562D01*
X-21295Y-479990D01*
Y-484751D01*
Y-479990D02*
X-19867Y-478562D01*
X-18915Y-478086D01*
X-17486D01*
X-16534Y-478562D01*
X-16058Y-479990D01*
Y-484751D01*
X-11964Y-474753D02*
X-11488Y-475229D01*
X-11011Y-474753D01*
X-11488Y-474277D01*
X-11964Y-474753D01*
X-11488Y-478086D02*
Y-484751D01*
X-9250Y-474753D02*
Y-484751D01*
X4033Y-472849D02*
X3081Y-473801D01*
X2128Y-475229D01*
X1176Y-477134D01*
X700Y-479514D01*
Y-481419D01*
X1176Y-483799D01*
X2128Y-485703D01*
X3081Y-487132D01*
X4033Y-488084D01*
X3081Y-473801D02*
X2128Y-475705D01*
X1652Y-477134D01*
X1176Y-479514D01*
Y-481419D01*
X1652Y-483799D01*
X2128Y-485227D01*
X3081Y-487132D01*
X5937Y-476658D02*
X6889Y-476182D01*
X8318Y-474753D01*
Y-484751D01*
X13745Y-483799D02*
X13269Y-484275D01*
X13745Y-484751D01*
X14221Y-484275D01*
X13745Y-483799D01*
X18792Y-474753D02*
X17363Y-475229D01*
X16887Y-476182D01*
Y-477134D01*
X17363Y-478086D01*
X18316Y-478562D01*
X20220Y-479038D01*
X21648Y-479514D01*
X22600Y-480466D01*
X23076Y-481419D01*
Y-482847D01*
X22600Y-483799D01*
X22124Y-484275D01*
X20696Y-484751D01*
X18792D01*
X17363Y-484275D01*
X16887Y-483799D01*
X16411Y-482847D01*
Y-481419D01*
X16887Y-480466D01*
X17839Y-479514D01*
X19268Y-479038D01*
X21172Y-478562D01*
X22124Y-478086D01*
X22600Y-477134D01*
Y-476182D01*
X22124Y-475229D01*
X20696Y-474753D01*
X18792D01*
X25314Y-478086D02*
Y-484751D01*
Y-479990D02*
X26742Y-478562D01*
X27694Y-478086D01*
X29123D01*
X30075Y-478562D01*
X30551Y-479990D01*
Y-484751D01*
Y-479990D02*
X31979Y-478562D01*
X32931Y-478086D01*
X34360D01*
X35312Y-478562D01*
X35788Y-479990D01*
Y-484751D01*
X38930Y-478086D02*
Y-484751D01*
Y-479990D02*
X40358Y-478562D01*
X41311Y-478086D01*
X42739D01*
X43691Y-478562D01*
X44167Y-479990D01*
Y-484751D01*
Y-479990D02*
X45595Y-478562D01*
X46548Y-478086D01*
X47976D01*
X48928Y-478562D01*
X49404Y-479990D01*
Y-484751D01*
X52546Y-472849D02*
X53498Y-473801D01*
X54451Y-475229D01*
X55403Y-477134D01*
X55879Y-479514D01*
Y-481419D01*
X55403Y-483799D01*
X54451Y-485703D01*
X53498Y-487132D01*
X52546Y-488084D01*
X53498Y-473801D02*
X54451Y-475705D01*
X54927Y-477134D01*
X55403Y-479514D01*
Y-481419D01*
X54927Y-483799D01*
X54451Y-485227D01*
X53498Y-487132D01*
X82477Y-474753D02*
Y-484751D01*
Y-474753D02*
X89142Y-484751D01*
Y-474753D02*
Y-484751D01*
X91903Y-479990D02*
X96188D01*
X97616Y-479514D01*
X98092Y-479038D01*
X98568Y-478086D01*
Y-476658D01*
X98092Y-475705D01*
X97616Y-475229D01*
X96188Y-474753D01*
X91903D01*
Y-484751D01*
X104139Y-474753D02*
Y-484751D01*
X100806Y-474753D02*
X107471D01*
X108661D02*
Y-484751D01*
X115327Y-474753D02*
Y-484751D01*
X108661Y-479514D02*
X115327D01*
X145095Y-474753D02*
Y-484751D01*
Y-474753D02*
X149380D01*
X150808Y-475229D01*
X151284Y-475705D01*
X151760Y-476658D01*
Y-477610D01*
X151284Y-478562D01*
X150808Y-479038D01*
X149380Y-479514D01*
X145095D01*
X148428D02*
X151760Y-484751D01*
X156378Y-478086D02*
X155426Y-478562D01*
X154474Y-479514D01*
X153998Y-480942D01*
Y-481895D01*
X154474Y-483323D01*
X155426Y-484275D01*
X156378Y-484751D01*
X157807D01*
X158759Y-484275D01*
X159711Y-483323D01*
X160187Y-481895D01*
Y-480942D01*
X159711Y-479514D01*
X158759Y-478562D01*
X157807Y-478086D01*
X156378D01*
X162377D02*
Y-482847D01*
X162853Y-484275D01*
X163805Y-484751D01*
X165234D01*
X166186Y-484275D01*
X167614Y-482847D01*
Y-478086D02*
Y-484751D01*
X170233Y-478086D02*
Y-484751D01*
Y-479990D02*
X171661Y-478562D01*
X172613Y-478086D01*
X174041D01*
X174994Y-478562D01*
X175470Y-479990D01*
Y-484751D01*
X183801Y-474753D02*
Y-484751D01*
Y-479514D02*
X182849Y-478562D01*
X181897Y-478086D01*
X180469D01*
X179516Y-478562D01*
X178564Y-479514D01*
X178088Y-480942D01*
Y-481895D01*
X178564Y-483323D01*
X179516Y-484275D01*
X180469Y-484751D01*
X181897D01*
X182849Y-484275D01*
X183801Y-483323D01*
X-162021Y-494753D02*
X-166782Y-501419D01*
X-159640D01*
X-162021Y-494753D02*
Y-504751D01*
X-66476Y-494753D02*
X-71237Y-504751D01*
X-73141Y-494753D02*
X-66476D01*
X-61858D02*
X-63286Y-495229D01*
X-63762Y-496182D01*
Y-497134D01*
X-63286Y-498086D01*
X-62334Y-498562D01*
X-60430Y-499038D01*
X-59001Y-499514D01*
X-58049Y-500466D01*
X-57573Y-501419D01*
Y-502847D01*
X-58049Y-503799D01*
X-58525Y-504275D01*
X-59953Y-504751D01*
X-61858D01*
X-63286Y-504275D01*
X-63762Y-503799D01*
X-64238Y-502847D01*
Y-501419D01*
X-63762Y-500466D01*
X-62810Y-499514D01*
X-61382Y-499038D01*
X-59477Y-498562D01*
X-58525Y-498086D01*
X-58049Y-497134D01*
Y-496182D01*
X-58525Y-495229D01*
X-59953Y-494753D01*
X-61858D01*
X-54859Y-503799D02*
X-55335Y-504275D01*
X-54859Y-504751D01*
X-54383Y-504275D01*
X-54859Y-503799D01*
X-45528Y-494753D02*
X-50289Y-504751D01*
X-52193Y-494753D02*
X-45528D01*
X-38530D02*
X-43290Y-501419D01*
X-36149D01*
X-38530Y-494753D02*
Y-504751D01*
X-34387Y-498086D02*
Y-504751D01*
Y-499990D02*
X-32959Y-498562D01*
X-32007Y-498086D01*
X-30579D01*
X-29627Y-498562D01*
X-29151Y-499990D01*
Y-504751D01*
Y-499990D02*
X-27722Y-498562D01*
X-26770Y-498086D01*
X-25342D01*
X-24390Y-498562D01*
X-23913Y-499990D01*
Y-504751D01*
X-19819Y-494753D02*
X-19343Y-495229D01*
X-18867Y-494753D01*
X-19343Y-494277D01*
X-19819Y-494753D01*
X-19343Y-498086D02*
Y-504751D01*
X-17106Y-494753D02*
Y-504751D01*
X-3823Y-492849D02*
X-4775Y-493801D01*
X-5727Y-495229D01*
X-6679Y-497134D01*
X-7155Y-499514D01*
Y-501419D01*
X-6679Y-503799D01*
X-5727Y-505703D01*
X-4775Y-507132D01*
X-3823Y-508084D01*
X-4775Y-493801D02*
X-5727Y-495706D01*
X-6203Y-497134D01*
X-6679Y-499514D01*
Y-501419D01*
X-6203Y-503799D01*
X-5727Y-505227D01*
X-4775Y-507132D01*
X-1442Y-497134D02*
Y-496658D01*
X-966Y-495706D01*
X-490Y-495229D01*
X462Y-494753D01*
X2366D01*
X3319Y-495229D01*
X3795Y-495706D01*
X4271Y-496658D01*
Y-497610D01*
X3795Y-498562D01*
X2843Y-499990D01*
X-1918Y-504751D01*
X4747D01*
X6985Y-498086D02*
Y-504751D01*
Y-499990D02*
X8413Y-498562D01*
X9365Y-498086D01*
X10793D01*
X11745Y-498562D01*
X12222Y-499990D01*
Y-504751D01*
Y-499990D02*
X13650Y-498562D01*
X14602Y-498086D01*
X16030D01*
X16983Y-498562D01*
X17458Y-499990D01*
Y-504751D01*
X20601Y-498086D02*
Y-504751D01*
Y-499990D02*
X22029Y-498562D01*
X22981Y-498086D01*
X24409D01*
X25362Y-498562D01*
X25838Y-499990D01*
Y-504751D01*
Y-499990D02*
X27266Y-498562D01*
X28218Y-498086D01*
X29646D01*
X30599Y-498562D01*
X31075Y-499990D01*
Y-504751D01*
X34217Y-492849D02*
X35169Y-493801D01*
X36121Y-495229D01*
X37073Y-497134D01*
X37549Y-499514D01*
Y-501419D01*
X37073Y-503799D01*
X36121Y-505703D01*
X35169Y-507132D01*
X34217Y-508084D01*
X35169Y-493801D02*
X36121Y-495706D01*
X36597Y-497134D01*
X37073Y-499514D01*
Y-501419D01*
X36597Y-503799D01*
X36121Y-505227D01*
X35169Y-507132D01*
X82477Y-494753D02*
Y-504751D01*
Y-494753D02*
X89142Y-504751D01*
Y-494753D02*
Y-504751D01*
X91903Y-499990D02*
X96188D01*
X97616Y-499514D01*
X98092Y-499038D01*
X98568Y-498086D01*
Y-496658D01*
X98092Y-495706D01*
X97616Y-495229D01*
X96188Y-494753D01*
X91903D01*
Y-504751D01*
X104139Y-494753D02*
Y-504751D01*
X100806Y-494753D02*
X107471D01*
X108661D02*
Y-504751D01*
X115327Y-494753D02*
Y-504751D01*
X108661Y-499514D02*
X115327D01*
X145095Y-494753D02*
Y-504751D01*
Y-494753D02*
X149380D01*
X150808Y-495229D01*
X151284Y-495706D01*
X151760Y-496658D01*
Y-497610D01*
X151284Y-498562D01*
X150808Y-499038D01*
X149380Y-499514D01*
X145095D01*
X148428D02*
X151760Y-504751D01*
X156378Y-498086D02*
X155426Y-498562D01*
X154474Y-499514D01*
X153998Y-500943D01*
Y-501895D01*
X154474Y-503323D01*
X155426Y-504275D01*
X156378Y-504751D01*
X157807D01*
X158759Y-504275D01*
X159711Y-503323D01*
X160187Y-501895D01*
Y-500943D01*
X159711Y-499514D01*
X158759Y-498562D01*
X157807Y-498086D01*
X156378D01*
X162377D02*
Y-502847D01*
X162853Y-504275D01*
X163805Y-504751D01*
X165234D01*
X166186Y-504275D01*
X167614Y-502847D01*
Y-498086D02*
Y-504751D01*
X170233Y-498086D02*
Y-504751D01*
Y-499990D02*
X171661Y-498562D01*
X172613Y-498086D01*
X174041D01*
X174994Y-498562D01*
X175470Y-499990D01*
Y-504751D01*
X183801Y-494753D02*
Y-504751D01*
Y-499514D02*
X182849Y-498562D01*
X181897Y-498086D01*
X180469D01*
X179516Y-498562D01*
X178564Y-499514D01*
X178088Y-500943D01*
Y-501895D01*
X178564Y-503323D01*
X179516Y-504275D01*
X180469Y-504751D01*
X181897D01*
X182849Y-504275D01*
X183801Y-503323D01*
X-162021Y-514753D02*
X-166782Y-521419D01*
X-159640D01*
X-162021Y-514753D02*
Y-524751D01*
X-73141Y-516658D02*
X-72189Y-516182D01*
X-70761Y-514753D01*
Y-524751D01*
X-60096Y-516182D02*
X-60572Y-515229D01*
X-62001Y-514753D01*
X-62953D01*
X-64381Y-515229D01*
X-65333Y-516658D01*
X-65809Y-519038D01*
Y-521419D01*
X-65333Y-523323D01*
X-64381Y-524275D01*
X-62953Y-524751D01*
X-62477D01*
X-61048Y-524275D01*
X-60096Y-523323D01*
X-59620Y-521895D01*
Y-521419D01*
X-60096Y-519990D01*
X-61048Y-519038D01*
X-62477Y-518562D01*
X-62953D01*
X-64381Y-519038D01*
X-65333Y-519990D01*
X-65809Y-521419D01*
X-51241Y-518086D02*
X-51717Y-519514D01*
X-52669Y-520466D01*
X-54097Y-520942D01*
X-54574D01*
X-56002Y-520466D01*
X-56954Y-519514D01*
X-57430Y-518086D01*
Y-517610D01*
X-56954Y-516182D01*
X-56002Y-515229D01*
X-54574Y-514753D01*
X-54097D01*
X-52669Y-515229D01*
X-51717Y-516182D01*
X-51241Y-518086D01*
Y-520466D01*
X-51717Y-522847D01*
X-52669Y-524275D01*
X-54097Y-524751D01*
X-55050D01*
X-56478Y-524275D01*
X-56954Y-523323D01*
X-48051Y-523799D02*
X-48527Y-524275D01*
X-48051Y-524751D01*
X-47575Y-524275D01*
X-48051Y-523799D01*
X-44909Y-517134D02*
Y-516658D01*
X-44433Y-515705D01*
X-43957Y-515229D01*
X-43005Y-514753D01*
X-41100D01*
X-40148Y-515229D01*
X-39672Y-515705D01*
X-39196Y-516658D01*
Y-517610D01*
X-39672Y-518562D01*
X-40624Y-519990D01*
X-45385Y-524751D01*
X-38720D01*
X-30293Y-518086D02*
X-30769Y-519514D01*
X-31721Y-520466D01*
X-33150Y-520942D01*
X-33626D01*
X-35054Y-520466D01*
X-36006Y-519514D01*
X-36482Y-518086D01*
Y-517610D01*
X-36006Y-516182D01*
X-35054Y-515229D01*
X-33626Y-514753D01*
X-33150D01*
X-31721Y-515229D01*
X-30769Y-516182D01*
X-30293Y-518086D01*
Y-520466D01*
X-30769Y-522847D01*
X-31721Y-524275D01*
X-33150Y-524751D01*
X-34102D01*
X-35530Y-524275D01*
X-36006Y-523323D01*
X-27579Y-516658D02*
X-26627Y-516182D01*
X-25199Y-514753D01*
Y-524751D01*
X-20248Y-518086D02*
Y-524751D01*
Y-519990D02*
X-18819Y-518562D01*
X-17867Y-518086D01*
X-16439D01*
X-15487Y-518562D01*
X-15011Y-519990D01*
Y-524751D01*
Y-519990D02*
X-13582Y-518562D01*
X-12630Y-518086D01*
X-11202D01*
X-10250Y-518562D01*
X-9774Y-519990D01*
Y-524751D01*
X-5679Y-514753D02*
X-5203Y-515229D01*
X-4727Y-514753D01*
X-5203Y-514277D01*
X-5679Y-514753D01*
X-5203Y-518086D02*
Y-524751D01*
X-2966Y-514753D02*
Y-524751D01*
X10317Y-512849D02*
X9365Y-513801D01*
X8413Y-515229D01*
X7461Y-517134D01*
X6985Y-519514D01*
Y-521419D01*
X7461Y-523799D01*
X8413Y-525703D01*
X9365Y-527132D01*
X10317Y-528084D01*
X9365Y-513801D02*
X8413Y-515705D01*
X7937Y-517134D01*
X7461Y-519514D01*
Y-521419D01*
X7937Y-523799D01*
X8413Y-525227D01*
X9365Y-527132D01*
X16983Y-514753D02*
X12222Y-521419D01*
X19363D01*
X16983Y-514753D02*
Y-524751D01*
X21600Y-523799D02*
X21124Y-524275D01*
X21600Y-524751D01*
X22077Y-524275D01*
X21600Y-523799D01*
X25219Y-514753D02*
X30456D01*
X27599Y-518562D01*
X29028D01*
X29980Y-519038D01*
X30456Y-519514D01*
X30932Y-520942D01*
Y-521895D01*
X30456Y-523323D01*
X29504Y-524275D01*
X28075Y-524751D01*
X26647D01*
X25219Y-524275D01*
X24743Y-523799D01*
X24267Y-522847D01*
X33169Y-518086D02*
Y-524751D01*
Y-519990D02*
X34598Y-518562D01*
X35550Y-518086D01*
X36978D01*
X37930Y-518562D01*
X38406Y-519990D01*
Y-524751D01*
Y-519990D02*
X39835Y-518562D01*
X40787Y-518086D01*
X42215D01*
X43167Y-518562D01*
X43643Y-519990D01*
Y-524751D01*
X46786Y-518086D02*
Y-524751D01*
Y-519990D02*
X48214Y-518562D01*
X49166Y-518086D01*
X50594D01*
X51547Y-518562D01*
X52023Y-519990D01*
Y-524751D01*
Y-519990D02*
X53451Y-518562D01*
X54403Y-518086D01*
X55831D01*
X56783Y-518562D01*
X57260Y-519990D01*
Y-524751D01*
X60402Y-512849D02*
X61354Y-513801D01*
X62306Y-515229D01*
X63258Y-517134D01*
X63734Y-519514D01*
Y-521419D01*
X63258Y-523799D01*
X62306Y-525703D01*
X61354Y-527132D01*
X60402Y-528084D01*
X61354Y-513801D02*
X62306Y-515705D01*
X62782Y-517134D01*
X63258Y-519514D01*
Y-521419D01*
X62782Y-523799D01*
X62306Y-525227D01*
X61354Y-527132D01*
X82477Y-514753D02*
Y-524751D01*
Y-514753D02*
X89142Y-524751D01*
Y-514753D02*
Y-524751D01*
X91903Y-519990D02*
X96188D01*
X97616Y-519514D01*
X98092Y-519038D01*
X98568Y-518086D01*
Y-516658D01*
X98092Y-515705D01*
X97616Y-515229D01*
X96188Y-514753D01*
X91903D01*
Y-524751D01*
X104139Y-514753D02*
Y-524751D01*
X100806Y-514753D02*
X107471D01*
X108661D02*
Y-524751D01*
X115327Y-514753D02*
Y-524751D01*
X108661Y-519514D02*
X115327D01*
X145095Y-514753D02*
Y-524751D01*
Y-514753D02*
X149380D01*
X150808Y-515229D01*
X151284Y-515705D01*
X151760Y-516658D01*
Y-517610D01*
X151284Y-518562D01*
X150808Y-519038D01*
X149380Y-519514D01*
X145095D01*
X148428D02*
X151760Y-524751D01*
X156378Y-518086D02*
X155426Y-518562D01*
X154474Y-519514D01*
X153998Y-520942D01*
Y-521895D01*
X154474Y-523323D01*
X155426Y-524275D01*
X156378Y-524751D01*
X157807D01*
X158759Y-524275D01*
X159711Y-523323D01*
X160187Y-521895D01*
Y-520942D01*
X159711Y-519514D01*
X158759Y-518562D01*
X157807Y-518086D01*
X156378D01*
X162377D02*
Y-522847D01*
X162853Y-524275D01*
X163805Y-524751D01*
X165234D01*
X166186Y-524275D01*
X167614Y-522847D01*
Y-518086D02*
Y-524751D01*
X170233Y-518086D02*
Y-524751D01*
Y-519990D02*
X171661Y-518562D01*
X172613Y-518086D01*
X174041D01*
X174994Y-518562D01*
X175470Y-519990D01*
Y-524751D01*
X183801Y-514753D02*
Y-524751D01*
Y-519514D02*
X182849Y-518562D01*
X181897Y-518086D01*
X180469D01*
X179516Y-518562D01*
X178564Y-519514D01*
X178088Y-520942D01*
Y-521895D01*
X178564Y-523323D01*
X179516Y-524275D01*
X180469Y-524751D01*
X181897D01*
X182849Y-524275D01*
X183801Y-523323D01*
X-166782Y-536658D02*
X-165830Y-536182D01*
X-164401Y-534753D01*
Y-544751D01*
X-157070Y-534753D02*
X-158498Y-535229D01*
X-158974Y-536182D01*
Y-537134D01*
X-158498Y-538086D01*
X-157546Y-538562D01*
X-155641Y-539038D01*
X-154213Y-539514D01*
X-153261Y-540466D01*
X-152785Y-541419D01*
Y-542847D01*
X-153261Y-543799D01*
X-153737Y-544275D01*
X-155165Y-544751D01*
X-157070D01*
X-158498Y-544275D01*
X-158974Y-543799D01*
X-159450Y-542847D01*
Y-541419D01*
X-158974Y-540466D01*
X-158022Y-539514D01*
X-156594Y-539038D01*
X-154689Y-538562D01*
X-153737Y-538086D01*
X-153261Y-537134D01*
Y-536182D01*
X-153737Y-535229D01*
X-155165Y-534753D01*
X-157070D01*
X-147691D02*
X-149119Y-535229D01*
X-150071Y-536658D01*
X-150547Y-539038D01*
Y-540466D01*
X-150071Y-542847D01*
X-149119Y-544275D01*
X-147691Y-544751D01*
X-146738D01*
X-145310Y-544275D01*
X-144358Y-542847D01*
X-143882Y-540466D01*
Y-539038D01*
X-144358Y-536658D01*
X-145310Y-535229D01*
X-146738Y-534753D01*
X-147691D01*
X-124949D02*
Y-544751D01*
X-128282Y-534753D02*
X-121617D01*
X-118046Y-538086D02*
X-118998Y-538562D01*
X-119950Y-539514D01*
X-120426Y-540942D01*
Y-541895D01*
X-119950Y-543323D01*
X-118998Y-544275D01*
X-118046Y-544751D01*
X-116618D01*
X-115666Y-544275D01*
X-114713Y-543323D01*
X-114237Y-541895D01*
Y-540942D01*
X-114713Y-539514D01*
X-115666Y-538562D01*
X-116618Y-538086D01*
X-118046D01*
X-110619Y-534753D02*
Y-542847D01*
X-110143Y-544275D01*
X-109191Y-544751D01*
X-108239D01*
X-112047Y-538086D02*
X-108715D01*
X-101097D02*
Y-544751D01*
Y-539514D02*
X-102049Y-538562D01*
X-103002Y-538086D01*
X-104430D01*
X-105382Y-538562D01*
X-106334Y-539514D01*
X-106810Y-540942D01*
Y-541895D01*
X-106334Y-543323D01*
X-105382Y-544275D01*
X-104430Y-544751D01*
X-103002D01*
X-102049Y-544275D01*
X-101097Y-543323D01*
X-98431Y-534753D02*
Y-544751D01*
D14*
X431657Y-937310D02*
X431086Y-936168D01*
X429943Y-935025D01*
X428800Y-934454D01*
X426515D01*
X425373Y-935025D01*
X424230Y-936168D01*
X423659Y-937310D01*
X423087Y-939024D01*
Y-941881D01*
X423659Y-943595D01*
X424230Y-944737D01*
X425373Y-945880D01*
X426515Y-946451D01*
X428800D01*
X429943Y-945880D01*
X431086Y-944737D01*
X431657Y-943595D01*
X601657Y-937310D02*
X601086Y-936168D01*
X599943Y-935025D01*
X598800Y-934454D01*
X596515D01*
X595373Y-935025D01*
X594230Y-936168D01*
X593659Y-937310D01*
X593087Y-939024D01*
Y-941881D01*
X593659Y-943595D01*
X594230Y-944737D01*
X595373Y-945880D01*
X596515Y-946451D01*
X598800D01*
X599943Y-945880D01*
X601086Y-944737D01*
X601657Y-943595D01*
Y-941881D01*
X598800D02*
X601657D01*
X604399Y-934454D02*
Y-946451D01*
Y-934454D02*
X608398D01*
X610112Y-935025D01*
X611255Y-936168D01*
X611826Y-937310D01*
X612397Y-939024D01*
Y-941881D01*
X611826Y-943595D01*
X611255Y-944737D01*
X610112Y-945880D01*
X608398Y-946451D01*
X604399D01*
X615083Y-936739D02*
X616225Y-936168D01*
X617939Y-934454D01*
Y-946451D01*
X431287Y-902453D02*
Y-912451D01*
Y-902453D02*
X437476D01*
X431287Y-907214D02*
X435096D01*
X446237Y-912451D02*
X442428Y-902453D01*
X438619Y-912451D01*
X440047Y-909119D02*
X444808D01*
X448569Y-902453D02*
Y-912451D01*
X450664Y-902453D02*
Y-912451D01*
Y-902453D02*
X454949D01*
X456377Y-902929D01*
X456853Y-903405D01*
X457329Y-904358D01*
Y-905310D01*
X456853Y-906262D01*
X456377Y-906738D01*
X454949Y-907214D01*
X450664D01*
X453997D02*
X457329Y-912451D01*
X466708Y-904834D02*
X466232Y-903882D01*
X465280Y-902929D01*
X464328Y-902453D01*
X462424D01*
X461471Y-902929D01*
X460519Y-903882D01*
X460043Y-904834D01*
X459567Y-906262D01*
Y-908642D01*
X460043Y-910071D01*
X460519Y-911023D01*
X461471Y-911975D01*
X462424Y-912451D01*
X464328D01*
X465280Y-911975D01*
X466232Y-911023D01*
X466708Y-910071D01*
X469517Y-902453D02*
Y-912451D01*
X476183Y-902453D02*
Y-912451D01*
X469517Y-907214D02*
X476183D01*
X478944Y-902453D02*
Y-912451D01*
X481039Y-902453D02*
Y-912451D01*
X486752D01*
X487847Y-902453D02*
Y-912451D01*
Y-902453D02*
X491179D01*
X492608Y-902929D01*
X493560Y-903882D01*
X494036Y-904834D01*
X494512Y-906262D01*
Y-908642D01*
X494036Y-910071D01*
X493560Y-911023D01*
X492608Y-911975D01*
X491179Y-912451D01*
X487847D01*
X511746Y-904834D02*
X511270Y-903882D01*
X510318Y-902929D01*
X509366Y-902453D01*
X507462D01*
X506509Y-902929D01*
X505557Y-903882D01*
X505081Y-904834D01*
X504605Y-906262D01*
Y-908642D01*
X505081Y-910071D01*
X505557Y-911023D01*
X506509Y-911975D01*
X507462Y-912451D01*
X509366D01*
X510318Y-911975D01*
X511270Y-911023D01*
X511746Y-910071D01*
X521697Y-904834D02*
X521220Y-903882D01*
X520268Y-902929D01*
X519316Y-902453D01*
X517412D01*
X516460Y-902929D01*
X515507Y-903882D01*
X515031Y-904834D01*
X514555Y-906262D01*
Y-908642D01*
X515031Y-910071D01*
X515507Y-911023D01*
X516460Y-911975D01*
X517412Y-912451D01*
X519316D01*
X520268Y-911975D01*
X521220Y-911023D01*
X521697Y-910071D01*
X524506Y-902453D02*
Y-912451D01*
Y-902453D02*
X527838D01*
X529266Y-902929D01*
X530219Y-903882D01*
X530695Y-904834D01*
X531171Y-906262D01*
Y-908642D01*
X530695Y-910071D01*
X530219Y-911023D01*
X529266Y-911975D01*
X527838Y-912451D01*
X524506D01*
X541264Y-902453D02*
Y-912451D01*
X543359Y-902453D02*
Y-912451D01*
Y-902453D02*
X550024Y-912451D01*
Y-902453D02*
Y-912451D01*
X556118Y-902453D02*
Y-912451D01*
X552785Y-902453D02*
X559450D01*
X566830D02*
X560641D01*
Y-912451D01*
X566830D01*
X560641Y-907214D02*
X564449D01*
X568496Y-902453D02*
Y-912451D01*
Y-902453D02*
X572781D01*
X574209Y-902929D01*
X574685Y-903405D01*
X575161Y-904358D01*
Y-905310D01*
X574685Y-906262D01*
X574209Y-906738D01*
X572781Y-907214D01*
X568496D01*
X571829D02*
X575161Y-912451D01*
X577399Y-902453D02*
Y-912451D01*
Y-902453D02*
X583588D01*
X577399Y-907214D02*
X581208D01*
X592348Y-912451D02*
X588539Y-902453D01*
X584731Y-912451D01*
X586159Y-909119D02*
X590920D01*
X601822Y-904834D02*
X601346Y-903882D01*
X600394Y-902929D01*
X599442Y-902453D01*
X597538D01*
X596585Y-902929D01*
X595633Y-903882D01*
X595157Y-904834D01*
X594681Y-906262D01*
Y-908642D01*
X595157Y-910071D01*
X595633Y-911023D01*
X596585Y-911975D01*
X597538Y-912451D01*
X599442D01*
X600394Y-911975D01*
X601346Y-911023D01*
X601822Y-910071D01*
X610820Y-902453D02*
X604631D01*
Y-912451D01*
X610820D01*
X604631Y-907214D02*
X608440D01*
D15*
X-1278913Y-900353D02*
Y-910351D01*
Y-900353D02*
X-1272247Y-910351D01*
Y-900353D02*
Y-910351D01*
X-1266630Y-900353D02*
X-1267582Y-900829D01*
X-1268534Y-901782D01*
X-1269010Y-902734D01*
X-1269486Y-904162D01*
Y-906542D01*
X-1269010Y-907971D01*
X-1268534Y-908923D01*
X-1267582Y-909875D01*
X-1266630Y-910351D01*
X-1264725D01*
X-1263773Y-909875D01*
X-1262821Y-908923D01*
X-1262345Y-907971D01*
X-1261869Y-906542D01*
Y-904162D01*
X-1262345Y-902734D01*
X-1262821Y-901782D01*
X-1263773Y-900829D01*
X-1264725Y-900353D01*
X-1266630D01*
X-1256203D02*
Y-910351D01*
X-1259536Y-900353D02*
X-1252871D01*
X-1251680D02*
Y-910351D01*
X-1242444Y-902734D02*
X-1242920Y-901782D01*
X-1243873Y-900829D01*
X-1244825Y-900353D01*
X-1246729D01*
X-1247681Y-900829D01*
X-1248633Y-901782D01*
X-1249109Y-902734D01*
X-1249586Y-904162D01*
Y-906542D01*
X-1249109Y-907971D01*
X-1248633Y-908923D01*
X-1247681Y-909875D01*
X-1246729Y-910351D01*
X-1244825D01*
X-1243873Y-909875D01*
X-1242920Y-908923D01*
X-1242444Y-907971D01*
X-1233446Y-900353D02*
X-1239635D01*
Y-910351D01*
X-1233446D01*
X-1239635Y-905114D02*
X-1235827D01*
X748087Y-873567D02*
X748944Y-873139D01*
X750230Y-871853D01*
Y-880851D01*
X762184Y-874852D02*
X761756Y-875281D01*
X762184Y-875709D01*
X762613Y-875281D01*
X762184Y-874852D01*
Y-879994D02*
X761756Y-880423D01*
X762184Y-880851D01*
X762613Y-880423D01*
X762184Y-879994D01*
X771654Y-873567D02*
X772511Y-873139D01*
X773796Y-871853D01*
Y-880851D01*
X-231514Y-330468D02*
X-232657Y-329325D01*
X-234371Y-328754D01*
X-236656D01*
X-238370Y-329325D01*
X-239513Y-330468D01*
Y-331610D01*
X-238941Y-332753D01*
X-238370Y-333324D01*
X-237227Y-333895D01*
X-233800Y-335038D01*
X-232657Y-335609D01*
X-232086Y-336181D01*
X-231514Y-337323D01*
Y-339037D01*
X-232657Y-340180D01*
X-234371Y-340751D01*
X-236656D01*
X-238370Y-340180D01*
X-239513Y-339037D01*
X-228258Y-332753D02*
X-224830Y-340751D01*
X-221402Y-332753D02*
X-224830Y-340751D01*
X-225973Y-343036D01*
X-227115Y-344179D01*
X-228258Y-344750D01*
X-228829D01*
X-219403Y-332753D02*
Y-340751D01*
Y-335038D02*
X-217689Y-333324D01*
X-216546Y-332753D01*
X-214832D01*
X-213690Y-333324D01*
X-213118Y-335038D01*
Y-340751D01*
Y-335038D02*
X-211404Y-333324D01*
X-210262Y-332753D01*
X-208548D01*
X-207405Y-333324D01*
X-206834Y-335038D01*
Y-340751D01*
X-203063Y-328754D02*
Y-340751D01*
Y-334467D02*
X-201921Y-333324D01*
X-200778Y-332753D01*
X-199064D01*
X-197922Y-333324D01*
X-196779Y-334467D01*
X-196208Y-336181D01*
Y-337323D01*
X-196779Y-339037D01*
X-197922Y-340180D01*
X-199064Y-340751D01*
X-200778D01*
X-201921Y-340180D01*
X-203063Y-339037D01*
X-190780Y-332753D02*
X-191923Y-333324D01*
X-193065Y-334467D01*
X-193637Y-336181D01*
Y-337323D01*
X-193065Y-339037D01*
X-191923Y-340180D01*
X-190780Y-340751D01*
X-189066D01*
X-187924Y-340180D01*
X-186781Y-339037D01*
X-186210Y-337323D01*
Y-336181D01*
X-186781Y-334467D01*
X-187924Y-333324D01*
X-189066Y-332753D01*
X-190780D01*
X-183582Y-328754D02*
Y-340751D01*
X-166782Y-328754D02*
Y-340751D01*
X-158783Y-328754D02*
Y-340751D01*
X-166782Y-334467D02*
X-158783D01*
X-154327Y-328754D02*
X-153756Y-329325D01*
X-153185Y-328754D01*
X-153756Y-328183D01*
X-154327Y-328754D01*
X-153756Y-332753D02*
Y-340751D01*
X-149357Y-328754D02*
Y-338466D01*
X-148786Y-340180D01*
X-147643Y-340751D01*
X-146500D01*
X-151071Y-332753D02*
X-147072D01*
X-126790Y-331610D02*
X-127362Y-330468D01*
X-128504Y-329325D01*
X-129647Y-328754D01*
X-131932D01*
X-133075Y-329325D01*
X-134217Y-330468D01*
X-134789Y-331610D01*
X-135360Y-333324D01*
Y-336181D01*
X-134789Y-337895D01*
X-134217Y-339037D01*
X-133075Y-340180D01*
X-131932Y-340751D01*
X-129647D01*
X-128504Y-340180D01*
X-127362Y-339037D01*
X-126790Y-337895D01*
X-120563Y-332753D02*
X-121706Y-333324D01*
X-122848Y-334467D01*
X-123420Y-336181D01*
Y-337323D01*
X-122848Y-339037D01*
X-121706Y-340180D01*
X-120563Y-340751D01*
X-118849D01*
X-117707Y-340180D01*
X-116564Y-339037D01*
X-115993Y-337323D01*
Y-336181D01*
X-116564Y-334467D01*
X-117707Y-333324D01*
X-118849Y-332753D01*
X-120563D01*
X-113365D02*
Y-338466D01*
X-112793Y-340180D01*
X-111651Y-340751D01*
X-109937D01*
X-108794Y-340180D01*
X-107080Y-338466D01*
Y-332753D02*
Y-340751D01*
X-103938Y-332753D02*
Y-340751D01*
Y-335038D02*
X-102224Y-333324D01*
X-101082Y-332753D01*
X-99368D01*
X-98225Y-333324D01*
X-97654Y-335038D01*
Y-340751D01*
X-92798Y-328754D02*
Y-338466D01*
X-92226Y-340180D01*
X-91084Y-340751D01*
X-89941D01*
X-94511Y-332753D02*
X-90512D01*
X-69142Y-328754D02*
Y-340751D01*
X-73141Y-328754D02*
X-65143D01*
X-60858Y-332753D02*
X-62001Y-333324D01*
X-63143Y-334467D01*
X-63714Y-336181D01*
Y-337323D01*
X-63143Y-339037D01*
X-62001Y-340180D01*
X-60858Y-340751D01*
X-59144D01*
X-58002Y-340180D01*
X-56859Y-339037D01*
X-56287Y-337323D01*
Y-336181D01*
X-56859Y-334467D01*
X-58002Y-333324D01*
X-59144Y-332753D01*
X-60858D01*
X-50803D02*
X-51946Y-333324D01*
X-53088Y-334467D01*
X-53659Y-336181D01*
Y-337323D01*
X-53088Y-339037D01*
X-51946Y-340180D01*
X-50803Y-340751D01*
X-49089D01*
X-47947Y-340180D01*
X-46804Y-339037D01*
X-46233Y-337323D01*
Y-336181D01*
X-46804Y-334467D01*
X-47947Y-333324D01*
X-49089Y-332753D01*
X-50803D01*
X-43604Y-328754D02*
Y-340751D01*
X-23666Y-330468D02*
X-24809Y-329325D01*
X-26522Y-328754D01*
X-28808D01*
X-30522Y-329325D01*
X-31664Y-330468D01*
Y-331610D01*
X-31093Y-332753D01*
X-30522Y-333324D01*
X-29379Y-333895D01*
X-25951Y-335038D01*
X-24809Y-335609D01*
X-24237Y-336181D01*
X-23666Y-337323D01*
Y-339037D01*
X-24809Y-340180D01*
X-26522Y-340751D01*
X-28808D01*
X-30522Y-340180D01*
X-31664Y-339037D01*
X-19838Y-328754D02*
X-19267Y-329325D01*
X-18696Y-328754D01*
X-19267Y-328183D01*
X-19838Y-328754D01*
X-19267Y-332753D02*
Y-340751D01*
X-10297Y-332753D02*
X-16582Y-340751D01*
Y-332753D02*
X-10297D01*
X-16582Y-340751D02*
X-10297D01*
X-7784Y-336181D02*
X-928D01*
Y-335038D01*
X-1499Y-333895D01*
X-2071Y-333324D01*
X-3213Y-332753D01*
X-4927D01*
X-6070Y-333324D01*
X-7212Y-334467D01*
X-7784Y-336181D01*
Y-337323D01*
X-7212Y-339037D01*
X-6070Y-340180D01*
X-4927Y-340751D01*
X-3213D01*
X-2071Y-340180D01*
X-928Y-339037D01*
X82477Y-335038D02*
X87618D01*
X89332Y-334467D01*
X89903Y-333895D01*
X90475Y-332753D01*
Y-331039D01*
X89903Y-329896D01*
X89332Y-329325D01*
X87618Y-328754D01*
X82477D01*
Y-340751D01*
X93160Y-328754D02*
Y-340751D01*
X102529Y-332753D02*
Y-340751D01*
Y-334467D02*
X101387Y-333324D01*
X100244Y-332753D01*
X98530D01*
X97388Y-333324D01*
X96245Y-334467D01*
X95674Y-336181D01*
Y-337323D01*
X96245Y-339037D01*
X97388Y-340180D01*
X98530Y-340751D01*
X100244D01*
X101387Y-340180D01*
X102529Y-339037D01*
X107443Y-328754D02*
Y-338466D01*
X108014Y-340180D01*
X109157Y-340751D01*
X110299D01*
X105729Y-332753D02*
X109728D01*
X112013Y-336181D02*
X118869D01*
Y-335038D01*
X118297Y-333895D01*
X117726Y-333324D01*
X116584Y-332753D01*
X114870D01*
X113727Y-333324D01*
X112584Y-334467D01*
X112013Y-336181D01*
Y-337323D01*
X112584Y-339037D01*
X113727Y-340180D01*
X114870Y-340751D01*
X116584D01*
X117726Y-340180D01*
X118869Y-339037D01*
X128295Y-328754D02*
Y-340751D01*
Y-334467D02*
X127153Y-333324D01*
X126010Y-332753D01*
X124296D01*
X123153Y-333324D01*
X122011Y-334467D01*
X121440Y-336181D01*
Y-337323D01*
X122011Y-339037D01*
X123153Y-340180D01*
X124296Y-340751D01*
X126010D01*
X127153Y-340180D01*
X128295Y-339037D01*
X145095Y-328754D02*
Y-340751D01*
X153094Y-328754D02*
Y-340751D01*
X145095Y-334467D02*
X153094D01*
X159264Y-332753D02*
X158121Y-333324D01*
X156978Y-334467D01*
X156407Y-336181D01*
Y-337323D01*
X156978Y-339037D01*
X158121Y-340180D01*
X159264Y-340751D01*
X160978D01*
X162120Y-340180D01*
X163263Y-339037D01*
X163834Y-337323D01*
Y-336181D01*
X163263Y-334467D01*
X162120Y-333324D01*
X160978Y-332753D01*
X159264D01*
X166462Y-328754D02*
Y-340751D01*
X168976Y-336181D02*
X175831D01*
Y-335038D01*
X175260Y-333895D01*
X174689Y-333324D01*
X173546Y-332753D01*
X171832D01*
X170690Y-333324D01*
X169547Y-334467D01*
X168976Y-336181D01*
Y-337323D01*
X169547Y-339037D01*
X170690Y-340180D01*
X171832Y-340751D01*
X173546D01*
X174689Y-340180D01*
X175831Y-339037D01*
X191828Y-328754D02*
Y-340751D01*
X187829Y-328754D02*
X195827D01*
X197827Y-332753D02*
X201255Y-340751D01*
X204682Y-332753D02*
X201255Y-340751D01*
X200112Y-343036D01*
X198969Y-344179D01*
X197827Y-344750D01*
X197256D01*
X206682Y-332753D02*
Y-344750D01*
Y-334467D02*
X207825Y-333324D01*
X208967Y-332753D01*
X210681D01*
X211824Y-333324D01*
X212966Y-334467D01*
X213538Y-336181D01*
Y-337323D01*
X212966Y-339037D01*
X211824Y-340180D01*
X210681Y-340751D01*
X208967D01*
X207825Y-340180D01*
X206682Y-339037D01*
X216109Y-336181D02*
X222964D01*
Y-335038D01*
X222393Y-333895D01*
X221822Y-333324D01*
X220679Y-332753D01*
X218965D01*
X217823Y-333324D01*
X216680Y-334467D01*
X216109Y-336181D01*
Y-337323D01*
X216680Y-339037D01*
X217823Y-340180D01*
X218965Y-340751D01*
X220679D01*
X221822Y-340180D01*
X222964Y-339037D01*
X-253113Y-322751D02*
X239764D01*
X-253113Y-349751D02*
X239764D01*
X-253113Y-322751D02*
Y-549751D01*
X239764Y-322751D02*
Y-549751D01*
X-173582Y-322751D02*
Y-549751D01*
X-79941Y-322751D02*
Y-549751D01*
X75677Y-322751D02*
Y-549751D01*
X138295Y-322751D02*
Y-549751D01*
X-253113Y-529751D02*
X239764D01*
X-253113Y-549751D02*
X239764D01*
D16*
X754301Y-935353D02*
X753730Y-935638D01*
X753159Y-936209D01*
X752873Y-936781D01*
X752587Y-937638D01*
Y-939066D01*
X752873Y-939923D01*
X753159Y-940494D01*
X753730Y-941066D01*
X754301Y-941351D01*
X755444D01*
X756015Y-941066D01*
X756587Y-940494D01*
X756872Y-939923D01*
X757158Y-939066D01*
Y-937638D01*
X756872Y-936781D01*
X756587Y-936209D01*
X756015Y-935638D01*
X755444Y-935353D01*
X754301D01*
X758558D02*
Y-941351D01*
Y-935353D02*
X762271D01*
X758558Y-938209D02*
X760843D01*
D17*
X562148Y-939281D02*
X573288D01*
X687490Y-944851D02*
X682539Y-931854D01*
X677587Y-944851D01*
X679444Y-940519D02*
X685633D01*
D18*
X409587Y-865832D02*
Y-869031D01*
Y-865832D02*
X410654D01*
X411111Y-865984D01*
X411416Y-866289D01*
X411568Y-866594D01*
X411720Y-867051D01*
Y-867812D01*
X411568Y-868269D01*
X411416Y-868574D01*
X411111Y-868879D01*
X410654Y-869031D01*
X409587D01*
X414417Y-865832D02*
X412436D01*
Y-869031D01*
X414417D01*
X412436Y-867355D02*
X413655D01*
X417083Y-866289D02*
X416778Y-865984D01*
X416321Y-865832D01*
X415712D01*
X415255Y-865984D01*
X414950Y-866289D01*
Y-866594D01*
X415102Y-866898D01*
X415255Y-867051D01*
X415559Y-867203D01*
X416473Y-867508D01*
X416778Y-867660D01*
X416931Y-867812D01*
X417083Y-868117D01*
Y-868574D01*
X416778Y-868879D01*
X416321Y-869031D01*
X415712D01*
X415255Y-868879D01*
X414950Y-868574D01*
X417799Y-865832D02*
Y-869031D01*
X420754Y-866594D02*
X420602Y-866289D01*
X420297Y-865984D01*
X419993Y-865832D01*
X419383D01*
X419079Y-865984D01*
X418774Y-866289D01*
X418622Y-866594D01*
X418469Y-867051D01*
Y-867812D01*
X418622Y-868269D01*
X418774Y-868574D01*
X419079Y-868879D01*
X419383Y-869031D01*
X419993D01*
X420297Y-868879D01*
X420602Y-868574D01*
X420754Y-868269D01*
Y-867812D01*
X419993D02*
X420754D01*
X421486Y-865832D02*
Y-869031D01*
Y-865832D02*
X423619Y-869031D01*
Y-865832D02*
Y-869031D01*
X426483Y-865832D02*
X424502D01*
Y-869031D01*
X426483D01*
X424502Y-867355D02*
X425721D01*
X427016Y-865832D02*
Y-869031D01*
Y-865832D02*
X428083D01*
X428540Y-865984D01*
X428844Y-866289D01*
X428997Y-866594D01*
X429149Y-867051D01*
Y-867812D01*
X428997Y-868269D01*
X428844Y-868574D01*
X428540Y-868879D01*
X428083Y-869031D01*
X427016D01*
X564587Y-865832D02*
Y-869031D01*
Y-865832D02*
X565654D01*
X566111Y-865984D01*
X566416Y-866289D01*
X566568Y-866594D01*
X566720Y-867051D01*
Y-867812D01*
X566568Y-868269D01*
X566416Y-868574D01*
X566111Y-868879D01*
X565654Y-869031D01*
X564587D01*
X567436Y-865832D02*
Y-869031D01*
Y-865832D02*
X568807D01*
X569265Y-865984D01*
X569417Y-866137D01*
X569569Y-866441D01*
Y-866746D01*
X569417Y-867051D01*
X569265Y-867203D01*
X568807Y-867355D01*
X567436D01*
X568503D02*
X569569Y-869031D01*
X572723D02*
X571504Y-865832D01*
X570285Y-869031D01*
X570742Y-867965D02*
X572266D01*
X573469Y-865832D02*
X574231Y-869031D01*
X574993Y-865832D02*
X574231Y-869031D01*
X574993Y-865832D02*
X575754Y-869031D01*
X576516Y-865832D02*
X575754Y-869031D01*
X577156Y-865832D02*
Y-869031D01*
Y-865832D02*
X579289Y-869031D01*
Y-865832D02*
Y-869031D01*
X721720Y-866289D02*
X721416Y-865984D01*
X720959Y-865832D01*
X720349D01*
X719892Y-865984D01*
X719587Y-866289D01*
Y-866594D01*
X719740Y-866898D01*
X719892Y-867051D01*
X720197Y-867203D01*
X721111Y-867508D01*
X721416Y-867660D01*
X721568Y-867812D01*
X721720Y-868117D01*
Y-868574D01*
X721416Y-868879D01*
X720959Y-869031D01*
X720349D01*
X719892Y-868879D01*
X719587Y-868574D01*
X724721Y-866594D02*
X724569Y-866289D01*
X724264Y-865984D01*
X723960Y-865832D01*
X723350D01*
X723046Y-865984D01*
X722741Y-866289D01*
X722589Y-866594D01*
X722436Y-867051D01*
Y-867812D01*
X722589Y-868269D01*
X722741Y-868574D01*
X723046Y-868879D01*
X723350Y-869031D01*
X723960D01*
X724264Y-868879D01*
X724569Y-868574D01*
X724721Y-868269D01*
X728058Y-869031D02*
X726839Y-865832D01*
X725620Y-869031D01*
X726077Y-867965D02*
X727601D01*
X728804Y-865832D02*
Y-869031D01*
X730633D01*
X732964Y-865832D02*
X730983D01*
Y-869031D01*
X732964D01*
X730983Y-867355D02*
X732202D01*
X410654Y-894832D02*
Y-898031D01*
X409587Y-894832D02*
X411720D01*
X412101D02*
Y-898031D01*
X413838Y-894832D02*
Y-898031D01*
X412772Y-894832D02*
X414904D01*
X415285D02*
Y-898031D01*
X417113D01*
X419444Y-894832D02*
X417464D01*
Y-898031D01*
X419444D01*
X417464Y-896355D02*
X418683D01*
X411720Y-928289D02*
X411416Y-927984D01*
X410958Y-927832D01*
X410349D01*
X409892Y-927984D01*
X409587Y-928289D01*
Y-928594D01*
X409740Y-928898D01*
X409892Y-929051D01*
X410197Y-929203D01*
X411111Y-929508D01*
X411416Y-929660D01*
X411568Y-929812D01*
X411720Y-930117D01*
Y-930574D01*
X411416Y-930879D01*
X410958Y-931031D01*
X410349D01*
X409892Y-930879D01*
X409587Y-930574D01*
X412436Y-927832D02*
Y-931031D01*
X415239Y-927832D02*
X413107Y-931031D01*
Y-927832D02*
X415239D01*
X413107Y-931031D02*
X415239D01*
X417936Y-927832D02*
X415955D01*
Y-931031D01*
X417936D01*
X415955Y-929355D02*
X417174D01*
X455587Y-927832D02*
Y-931031D01*
Y-927832D02*
X456654D01*
X457111Y-927984D01*
X457416Y-928289D01*
X457568Y-928594D01*
X457720Y-929051D01*
Y-929812D01*
X457568Y-930269D01*
X457416Y-930574D01*
X457111Y-930879D01*
X456654Y-931031D01*
X455587D01*
X459350Y-927832D02*
X459046Y-927984D01*
X458741Y-928289D01*
X458589Y-928594D01*
X458436Y-929051D01*
Y-929812D01*
X458589Y-930269D01*
X458741Y-930574D01*
X459046Y-930879D01*
X459350Y-931031D01*
X459960D01*
X460264Y-930879D01*
X460569Y-930574D01*
X460721Y-930269D01*
X460874Y-929812D01*
Y-929051D01*
X460721Y-928594D01*
X460569Y-928289D01*
X460264Y-927984D01*
X459960Y-927832D01*
X459350D01*
X463906Y-928594D02*
X463753Y-928289D01*
X463448Y-927984D01*
X463144Y-927832D01*
X462535D01*
X462230Y-927984D01*
X461925Y-928289D01*
X461773Y-928594D01*
X461620Y-929051D01*
Y-929812D01*
X461773Y-930269D01*
X461925Y-930574D01*
X462230Y-930879D01*
X462535Y-931031D01*
X463144D01*
X463448Y-930879D01*
X463753Y-930574D01*
X463906Y-930269D01*
X467318Y-927832D02*
Y-931031D01*
Y-927832D02*
X469451Y-931031D01*
Y-927832D02*
Y-931031D01*
X471249Y-927832D02*
X470944Y-927984D01*
X470639Y-928289D01*
X470487Y-928594D01*
X470335Y-929051D01*
Y-929812D01*
X470487Y-930269D01*
X470639Y-930574D01*
X470944Y-930879D01*
X471249Y-931031D01*
X471858D01*
X472163Y-930879D01*
X472468Y-930574D01*
X472620Y-930269D01*
X472772Y-929812D01*
Y-929051D01*
X472620Y-928594D01*
X472468Y-928289D01*
X472163Y-927984D01*
X471858Y-927832D01*
X471249D01*
X473671Y-930727D02*
X473519Y-930879D01*
X473671Y-931031D01*
X473823Y-930879D01*
X473671Y-930727D01*
X711720Y-928289D02*
X711416Y-927984D01*
X710958Y-927832D01*
X710349D01*
X709892Y-927984D01*
X709587Y-928289D01*
Y-928594D01*
X709740Y-928898D01*
X709892Y-929051D01*
X710197Y-929203D01*
X711111Y-929508D01*
X711416Y-929660D01*
X711568Y-929812D01*
X711720Y-930117D01*
Y-930574D01*
X711416Y-930879D01*
X710958Y-931031D01*
X710349D01*
X709892Y-930879D01*
X709587Y-930574D01*
X712436Y-927832D02*
Y-931031D01*
X714569Y-927832D02*
Y-931031D01*
X712436Y-929355D02*
X714569D01*
X717433Y-927832D02*
X715453D01*
Y-931031D01*
X717433D01*
X715453Y-929355D02*
X716672D01*
X719947Y-927832D02*
X717967D01*
Y-931031D01*
X719947D01*
X717967Y-929355D02*
X719185D01*
X721547Y-927832D02*
Y-931031D01*
X720480Y-927832D02*
X722613D01*
X663587D02*
Y-931031D01*
Y-927832D02*
X664958D01*
X665416Y-927984D01*
X665568Y-928137D01*
X665720Y-928441D01*
Y-928746D01*
X665568Y-929051D01*
X665416Y-929203D01*
X664958Y-929355D01*
X663587D01*
X664654D02*
X665720Y-931031D01*
X668417Y-927832D02*
X666436D01*
Y-931031D01*
X668417D01*
X666436Y-929355D02*
X667655D01*
X668950Y-927832D02*
X670169Y-931031D01*
X671388Y-927832D02*
X670169Y-931031D01*
X-239513Y-363751D02*
Y-355751D01*
X-231513D01*
Y-363751D01*
X-239513D01*
X-237913Y-362151D02*
Y-357351D01*
X-233113D01*
Y-362151D01*
X-237913D01*
X-239513Y-383751D02*
X-237513Y-379751D01*
X-239513Y-375751D01*
X-235513Y-377751D01*
X-231513Y-375751D01*
X-233513Y-379751D01*
X-231513Y-383751D01*
X-235513Y-381751D01*
X-239513Y-383751D01*
X-235513Y-403751D02*
X-233513Y-401751D01*
X-231513D01*
X-233513Y-399751D01*
X-231513Y-397751D01*
X-233513D01*
X-235513Y-395751D01*
X-237513Y-397751D01*
X-239513D01*
X-237513Y-399751D01*
X-239513Y-401751D01*
X-237513D01*
X-235513Y-403751D01*
Y-423751D02*
X-239513Y-415751D01*
X-231513D01*
X-235513Y-423751D01*
X-237513Y-441751D02*
Y-443751D01*
X-233513D01*
Y-441751D01*
X-231513D01*
Y-437751D01*
X-233513D01*
Y-435751D01*
X-237513D01*
Y-437751D01*
X-239513D01*
Y-441751D01*
X-237513D01*
X-239513Y-463751D02*
X-237513D01*
X-235513Y-461751D01*
X-233513Y-463751D01*
X-231513D01*
Y-461751D01*
X-233513Y-459751D01*
X-231513Y-457751D01*
Y-455751D01*
X-233513D01*
X-235513Y-457751D01*
X-237513Y-455751D01*
X-239513D01*
Y-457751D01*
X-237513Y-459751D01*
X-239513Y-461751D01*
Y-463751D01*
Y-483751D02*
Y-475751D01*
X-231513D01*
Y-483751D01*
X-239513D01*
Y-519751D02*
X-235513Y-515751D01*
X-231513Y-519751D01*
X-235513Y-523751D01*
X-239513Y-519751D01*
D19*
X-231513Y-499751D02*
G03*
X-231513Y-499751I-4000J0D01*
G01*
M02*
