%FSLAX25Y25*%
%MOIN*%
G70*
G01*
G75*
G04 Layer_Color=128*
%ADD10C,0.00984*%
%ADD11C,0.01000*%
%ADD12C,0.00787*%
%ADD13C,0.00700*%
%ADD14C,0.01201*%
%ADD15C,0.00800*%
%ADD16C,0.01200*%
%ADD17C,0.01201*%
%ADD18C,0.07087*%
%ADD19C,0.07000*%
%ADD20C,0.03937*%
%ADD21C,0.03543*%
%ADD22C,0.05512*%
%ADD23R,0.07000X0.07000*%
%ADD24C,0.04807*%
%ADD25C,0.04724*%
%ADD26C,0.16929*%
%ADD27C,0.02400*%
%ADD28C,0.04000*%
%ADD29C,0.09087*%
%ADD30C,0.09874*%
%ADD31C,0.05937*%
%ADD32C,0.05543*%
%ADD33C,0.05347*%
%ADD34C,0.06000*%
G04:AMPARAMS|DCode=35|XSize=100mil|YSize=100mil|CornerRadius=0mil|HoleSize=0mil|Usage=FLASHONLY|Rotation=0.000|XOffset=0mil|YOffset=0mil|HoleType=Round|Shape=Relief|Width=10mil|Gap=10mil|Entries=4|*
%AMTHD35*
7,0,0,0.10000,0.08000,0.01000,45*
%
%ADD35THD35*%
%ADD36C,0.06921*%
%ADD37C,0.18929*%
%ADD38C,0.03000*%
G04:AMPARAMS|DCode=39|XSize=70mil|YSize=70mil|CornerRadius=0mil|HoleSize=0mil|Usage=FLASHONLY|Rotation=0.000|XOffset=0mil|YOffset=0mil|HoleType=Round|Shape=Relief|Width=10mil|Gap=10mil|Entries=4|*
%AMTHD39*
7,0,0,0.07000,0.05000,0.01000,45*
%
%ADD39THD39*%
%ADD40C,0.00500*%
%ADD41R,0.07800X0.04800*%
%ADD42R,0.04800X0.07800*%
%ADD43R,0.05000X0.05000*%
G04:AMPARAMS|DCode=44|XSize=59.06mil|YSize=118.11mil|CornerRadius=0mil|HoleSize=0mil|Usage=FLASHONLY|Rotation=315.000|XOffset=0mil|YOffset=0mil|HoleType=Round|Shape=Rectangle|*
%AMROTATEDRECTD44*
4,1,4,-0.06264,-0.02088,0.02088,0.06264,0.06264,0.02088,-0.02088,-0.06264,-0.06264,-0.02088,0.0*
%
%ADD44ROTATEDRECTD44*%

G04:AMPARAMS|DCode=45|XSize=59.06mil|YSize=118.11mil|CornerRadius=0mil|HoleSize=0mil|Usage=FLASHONLY|Rotation=45.000|XOffset=0mil|YOffset=0mil|HoleType=Round|Shape=Rectangle|*
%AMROTATEDRECTD45*
4,1,4,0.02088,-0.06264,-0.06264,0.02088,-0.02088,0.06264,0.06264,-0.02088,0.02088,-0.06264,0.0*
%
%ADD45ROTATEDRECTD45*%

%ADD46R,0.05000X0.05000*%
%ADD47R,0.02362X0.05118*%
%ADD48R,0.00984X0.03543*%
%ADD49C,0.03000*%
D15*
X-128591Y-143268D02*
X-127591D01*
X-128591Y-143768D02*
Y-142768D01*
Y-143768D02*
X-127591D01*
Y-142768D01*
X-128591D02*
X-127591D01*
X-129091Y-144268D02*
Y-142768D01*
Y-144268D02*
X-127091D01*
Y-142268D01*
X-129091D02*
X-127091D01*
X-129591Y-144768D02*
Y-142268D01*
Y-144768D02*
X-126591D01*
Y-141768D01*
X-129591D02*
X-126591D01*
X-130091Y-145268D02*
Y-141268D01*
Y-145268D02*
X-126091D01*
Y-141268D01*
X-130091D02*
X-126091D01*
X-123591Y-148268D02*
X-122591D01*
X-123591Y-148768D02*
Y-147768D01*
Y-148768D02*
X-122591D01*
Y-147768D01*
X-123591D02*
X-122591D01*
X-124091Y-149268D02*
Y-147768D01*
Y-149268D02*
X-122091D01*
Y-147268D01*
X-124091D02*
X-122091D01*
X-124591Y-149768D02*
Y-147268D01*
Y-149768D02*
X-121591D01*
Y-146768D01*
X-124591D02*
X-121591D01*
X-125091Y-150268D02*
Y-146268D01*
Y-150268D02*
X-121091D01*
Y-146268D01*
X-125091D02*
X-121091D01*
X-125591Y-150768D02*
X-120591D01*
Y-145768D01*
X-130591Y-140768D02*
X-125591D01*
X-130591Y-145768D02*
Y-140768D01*
X-125591Y-170768D02*
Y-120768D01*
X-150591Y-145768D02*
X-100591D01*
X-122488Y315492D02*
X-121488D01*
X-122488Y314992D02*
Y315992D01*
Y314992D02*
X-121488D01*
Y315992D01*
X-122488D02*
X-121488D01*
X-122988Y314492D02*
Y315992D01*
Y314492D02*
X-120988D01*
Y316492D01*
X-122988D02*
X-120988D01*
X-123488Y313992D02*
Y316492D01*
Y313992D02*
X-120488D01*
Y316992D01*
X-123488D02*
X-120488D01*
X-123988Y313492D02*
Y317492D01*
Y313492D02*
X-119988D01*
Y317492D01*
X-123988D02*
X-119988D01*
X-117488Y310492D02*
X-116488D01*
X-117488Y309992D02*
Y310992D01*
Y309992D02*
X-116488D01*
Y310992D01*
X-117488D02*
X-116488D01*
X-117988Y309492D02*
Y310992D01*
Y309492D02*
X-115988D01*
Y311492D01*
X-117988D02*
X-115988D01*
X-118488Y308992D02*
Y311492D01*
Y308992D02*
X-115488D01*
Y311992D01*
X-118488D02*
X-115488D01*
X-118988Y308492D02*
Y312492D01*
Y308492D02*
X-114988D01*
Y312492D01*
X-118988D02*
X-114988D01*
X-119488Y307992D02*
X-114488D01*
Y312992D01*
X-124488Y317992D02*
X-119488D01*
X-124488Y312992D02*
Y317992D01*
X-119488Y287992D02*
Y337992D01*
X-144488Y312992D02*
X-94488D01*
X293161Y320429D02*
X294161D01*
X293161Y319929D02*
Y320929D01*
Y319929D02*
X294161D01*
Y320929D01*
X293161D02*
X294161D01*
X292661Y319429D02*
Y320929D01*
Y319429D02*
X294661D01*
Y321429D01*
X292661D02*
X294661D01*
X292161Y318929D02*
Y321429D01*
Y318929D02*
X295161D01*
Y321929D01*
X292161D02*
X295161D01*
X291661Y318429D02*
Y322429D01*
Y318429D02*
X295661D01*
Y322429D01*
X291661D02*
X295661D01*
X298161Y315429D02*
X299161D01*
X298161Y314929D02*
Y315929D01*
Y314929D02*
X299161D01*
Y315929D01*
X298161D02*
X299161D01*
X297661Y314429D02*
Y315929D01*
Y314429D02*
X299661D01*
Y316429D01*
X297661D02*
X299661D01*
X297161Y313929D02*
Y316429D01*
Y313929D02*
X300161D01*
Y316929D01*
X297161D02*
X300161D01*
X296661Y313429D02*
Y317429D01*
Y313429D02*
X300661D01*
Y317429D01*
X296661D02*
X300661D01*
X296161Y312929D02*
X301161D01*
Y317929D01*
X291161Y322929D02*
X296161D01*
X291161Y317929D02*
Y322929D01*
X296161Y292929D02*
Y342929D01*
X271161Y317929D02*
X321161D01*
D16*
X52397Y-141903D02*
Y-146474D01*
X50492Y-143046D02*
X54301Y-145331D01*
Y-143046D02*
X50492Y-145331D01*
X56319Y-149140D02*
X55939Y-149521D01*
X56319Y-149902D01*
X56700Y-149521D01*
X56319Y-149140D01*
X64165Y-143808D02*
X63784Y-143046D01*
X63023Y-142284D01*
X62261Y-141903D01*
X60738D01*
X59976Y-142284D01*
X59214Y-143046D01*
X58833Y-143808D01*
X58452Y-144950D01*
Y-146855D01*
X58833Y-147997D01*
X59214Y-148759D01*
X59976Y-149521D01*
X60738Y-149902D01*
X62261D01*
X63023Y-149521D01*
X63784Y-148759D01*
X64165Y-147997D01*
Y-146855D01*
X62261D02*
X64165D01*
X65994Y-141903D02*
Y-149902D01*
Y-141903D02*
X69421D01*
X70564Y-142284D01*
X70945Y-142665D01*
X71326Y-143427D01*
Y-144188D01*
X70945Y-144950D01*
X70564Y-145331D01*
X69421Y-145712D01*
X65994D02*
X69421D01*
X70564Y-146093D01*
X70945Y-146474D01*
X71326Y-147236D01*
Y-148378D01*
X70945Y-149140D01*
X70564Y-149521D01*
X69421Y-149902D01*
X65994D01*
X73116Y-146093D02*
X76544D01*
X77686Y-145712D01*
X78067Y-145331D01*
X78448Y-144569D01*
Y-143427D01*
X78067Y-142665D01*
X77686Y-142284D01*
X76544Y-141903D01*
X73116D01*
Y-149902D01*
X86523Y-146474D02*
X93378D01*
X102024Y-141903D02*
Y-149902D01*
Y-141903D02*
X105452D01*
X106594Y-142284D01*
X106975Y-142665D01*
X107356Y-143427D01*
Y-144188D01*
X106975Y-144950D01*
X106594Y-145331D01*
X105452Y-145712D01*
X102024D02*
X105452D01*
X106594Y-146093D01*
X106975Y-146474D01*
X107356Y-147236D01*
Y-148378D01*
X106975Y-149140D01*
X106594Y-149521D01*
X105452Y-149902D01*
X102024D01*
X111431Y-141903D02*
X110670Y-142284D01*
X109908Y-143046D01*
X109527Y-143808D01*
X109146Y-144950D01*
Y-146855D01*
X109527Y-147997D01*
X109908Y-148759D01*
X110670Y-149521D01*
X111431Y-149902D01*
X112955D01*
X113717Y-149521D01*
X114478Y-148759D01*
X114859Y-147997D01*
X115240Y-146855D01*
Y-144950D01*
X114859Y-143808D01*
X114478Y-143046D01*
X113717Y-142284D01*
X112955Y-141903D01*
X111431D01*
X119773D02*
Y-149902D01*
X117106Y-141903D02*
X122439D01*
X126057D02*
Y-149902D01*
X123391Y-141903D02*
X128723D01*
X131960D02*
X131199Y-142284D01*
X130437Y-143046D01*
X130056Y-143808D01*
X129675Y-144950D01*
Y-146855D01*
X130056Y-147997D01*
X130437Y-148759D01*
X131199Y-149521D01*
X131960Y-149902D01*
X133484D01*
X134246Y-149521D01*
X135007Y-148759D01*
X135388Y-147997D01*
X135769Y-146855D01*
Y-144950D01*
X135388Y-143808D01*
X135007Y-143046D01*
X134246Y-142284D01*
X133484Y-141903D01*
X131960D01*
X137635D02*
Y-149902D01*
Y-141903D02*
X140682Y-149902D01*
X143729Y-141903D02*
X140682Y-149902D01*
X143729Y-141903D02*
Y-149902D01*
X146014Y-146474D02*
X152870D01*
X160564Y-143046D02*
X159802Y-142284D01*
X158659Y-141903D01*
X157136D01*
X155993Y-142284D01*
X155232Y-143046D01*
Y-143808D01*
X155613Y-144569D01*
X155993Y-144950D01*
X156755Y-145331D01*
X159040Y-146093D01*
X159802Y-146474D01*
X160183Y-146855D01*
X160564Y-147616D01*
Y-148759D01*
X159802Y-149521D01*
X158659Y-149902D01*
X157136D01*
X155993Y-149521D01*
X155232Y-148759D01*
X162354Y-141903D02*
Y-149902D01*
X164030Y-141903D02*
Y-149902D01*
Y-141903D02*
X166696D01*
X167838Y-142284D01*
X168600Y-143046D01*
X168981Y-143808D01*
X169362Y-144950D01*
Y-146855D01*
X168981Y-147997D01*
X168600Y-148759D01*
X167838Y-149521D01*
X166696Y-149902D01*
X164030D01*
X176103Y-141903D02*
X171152D01*
Y-149902D01*
X176103D01*
X171152Y-145712D02*
X174199D01*
X189053Y-143046D02*
X188291Y-142284D01*
X187149Y-141903D01*
X185625D01*
X184483Y-142284D01*
X183721Y-143046D01*
Y-143808D01*
X184102Y-144569D01*
X184483Y-144950D01*
X185244Y-145331D01*
X187529Y-146093D01*
X188291Y-146474D01*
X188672Y-146855D01*
X189053Y-147616D01*
Y-148759D01*
X188291Y-149521D01*
X187149Y-149902D01*
X185625D01*
X184483Y-149521D01*
X183721Y-148759D01*
X193128Y-141903D02*
X192367Y-142284D01*
X191605Y-143046D01*
X191224Y-143808D01*
X190843Y-144950D01*
Y-146855D01*
X191224Y-147997D01*
X191605Y-148759D01*
X192367Y-149521D01*
X193128Y-149902D01*
X194652D01*
X195413Y-149521D01*
X196175Y-148759D01*
X196556Y-147997D01*
X196937Y-146855D01*
Y-144950D01*
X196556Y-143808D01*
X196175Y-143046D01*
X195413Y-142284D01*
X194652Y-141903D01*
X193128D01*
X198803D02*
Y-149902D01*
X203374D01*
X204250Y-141903D02*
Y-149902D01*
Y-141903D02*
X206916D01*
X208058Y-142284D01*
X208820Y-143046D01*
X209201Y-143808D01*
X209582Y-144950D01*
Y-146855D01*
X209201Y-147997D01*
X208820Y-148759D01*
X208058Y-149521D01*
X206916Y-149902D01*
X204250D01*
X216323Y-141903D02*
X211372D01*
Y-149902D01*
X216323D01*
X211372Y-145712D02*
X214419D01*
X217656Y-141903D02*
Y-149902D01*
Y-141903D02*
X221084D01*
X222227Y-142284D01*
X222608Y-142665D01*
X222989Y-143427D01*
Y-144188D01*
X222608Y-144950D01*
X222227Y-145331D01*
X221084Y-145712D01*
X217656D01*
X220322D02*
X222989Y-149902D01*
X231063Y-146093D02*
X234491D01*
X235633Y-145712D01*
X236014Y-145331D01*
X236395Y-144569D01*
Y-143427D01*
X236014Y-142665D01*
X235633Y-142284D01*
X234491Y-141903D01*
X231063D01*
Y-149902D01*
X244279D02*
X241232Y-141903D01*
X238185Y-149902D01*
X239328Y-147236D02*
X243137D01*
X251478Y-143046D02*
X250716Y-142284D01*
X249573Y-141903D01*
X248050D01*
X246907Y-142284D01*
X246145Y-143046D01*
Y-143808D01*
X246526Y-144569D01*
X246907Y-144950D01*
X247669Y-145331D01*
X249954Y-146093D01*
X250716Y-146474D01*
X251097Y-146855D01*
X251478Y-147616D01*
Y-148759D01*
X250716Y-149521D01*
X249573Y-149902D01*
X248050D01*
X246907Y-149521D01*
X246145Y-148759D01*
X255934Y-141903D02*
Y-149902D01*
X253268Y-141903D02*
X258600D01*
X264503D02*
X259552D01*
Y-149902D01*
X264503D01*
X259552Y-145712D02*
X262599D01*
X272121Y-141903D02*
Y-149902D01*
Y-141903D02*
X275168Y-149902D01*
X278215Y-141903D02*
X275168Y-149902D01*
X278215Y-141903D02*
Y-149902D01*
X286594D02*
X283547Y-141903D01*
X280500Y-149902D01*
X281643Y-147236D02*
X285451D01*
X293792Y-143046D02*
X293031Y-142284D01*
X291888Y-141903D01*
X290365D01*
X289222Y-142284D01*
X288460Y-143046D01*
Y-143808D01*
X288841Y-144569D01*
X289222Y-144950D01*
X289984Y-145331D01*
X292269Y-146093D01*
X293031Y-146474D01*
X293411Y-146855D01*
X293792Y-147616D01*
Y-148759D01*
X293031Y-149521D01*
X291888Y-149902D01*
X290365D01*
X289222Y-149521D01*
X288460Y-148759D01*
X295583Y-141903D02*
Y-149902D01*
X300915Y-141903D02*
X295583Y-147236D01*
X297487Y-145331D02*
X300915Y-149902D01*
X71020Y-94454D02*
Y-102452D01*
X75590D01*
X82560D02*
X79513Y-94454D01*
X76466Y-102452D01*
X77609Y-99786D02*
X81417D01*
X84426Y-94454D02*
Y-102452D01*
Y-94454D02*
X87473Y-102452D01*
X90520Y-94454D02*
X87473Y-102452D01*
X90520Y-94454D02*
Y-102452D01*
X92805Y-94454D02*
Y-102452D01*
Y-94454D02*
X96233D01*
X97376Y-94835D01*
X97757Y-95215D01*
X98138Y-95977D01*
Y-96739D01*
X97757Y-97501D01*
X97376Y-97882D01*
X96233Y-98262D01*
X92805D02*
X96233D01*
X97376Y-98643D01*
X97757Y-99024D01*
X98138Y-99786D01*
Y-100928D01*
X97757Y-101690D01*
X97376Y-102071D01*
X96233Y-102452D01*
X92805D01*
X104879Y-94454D02*
X99928D01*
Y-102452D01*
X104879D01*
X99928Y-98262D02*
X102975D01*
X106212Y-94454D02*
Y-102452D01*
Y-94454D02*
X109640D01*
X110783Y-94835D01*
X111163Y-95215D01*
X111544Y-95977D01*
Y-96739D01*
X111163Y-97501D01*
X110783Y-97882D01*
X109640Y-98262D01*
X106212D01*
X108878D02*
X111544Y-102452D01*
X116000Y-94454D02*
Y-102452D01*
X113334Y-94454D02*
X118667D01*
X131616Y-96358D02*
X131235Y-95596D01*
X130474Y-94835D01*
X129712Y-94454D01*
X128188D01*
X127427Y-94835D01*
X126665Y-95596D01*
X126284Y-96358D01*
X125903Y-97501D01*
Y-99405D01*
X126284Y-100548D01*
X126665Y-101309D01*
X127427Y-102071D01*
X128188Y-102452D01*
X129712D01*
X130474Y-102071D01*
X131235Y-101309D01*
X131616Y-100548D01*
X136149Y-94454D02*
X135387Y-94835D01*
X134625Y-95596D01*
X134244Y-96358D01*
X133863Y-97501D01*
Y-99405D01*
X134244Y-100548D01*
X134625Y-101309D01*
X135387Y-102071D01*
X136149Y-102452D01*
X137672D01*
X138434Y-102071D01*
X139196Y-101309D01*
X139576Y-100548D01*
X139957Y-99405D01*
Y-97501D01*
X139576Y-96358D01*
X139196Y-95596D01*
X138434Y-94835D01*
X137672Y-94454D01*
X136149D01*
X141824D02*
Y-102452D01*
Y-94454D02*
X147156Y-102452D01*
Y-94454D02*
Y-102452D01*
X152031Y-94454D02*
Y-102452D01*
X149365Y-94454D02*
X154697D01*
X155649D02*
Y-102452D01*
Y-94454D02*
X159077D01*
X160220Y-94835D01*
X160600Y-95215D01*
X160981Y-95977D01*
Y-96739D01*
X160600Y-97501D01*
X160220Y-97882D01*
X159077Y-98262D01*
X155649D01*
X158315D02*
X160981Y-102452D01*
X165057Y-94454D02*
X164295Y-94835D01*
X163533Y-95596D01*
X163152Y-96358D01*
X162771Y-97501D01*
Y-99405D01*
X163152Y-100548D01*
X163533Y-101309D01*
X164295Y-102071D01*
X165057Y-102452D01*
X166580D01*
X167342Y-102071D01*
X168104Y-101309D01*
X168484Y-100548D01*
X168865Y-99405D01*
Y-97501D01*
X168484Y-96358D01*
X168104Y-95596D01*
X167342Y-94835D01*
X166580Y-94454D01*
X165057D01*
X170732D02*
Y-102452D01*
X175302D01*
X176178Y-94454D02*
Y-102452D01*
X180748D01*
X186576Y-94454D02*
X181624D01*
Y-102452D01*
X186576D01*
X181624Y-98262D02*
X184671D01*
X187909Y-94454D02*
Y-102452D01*
Y-94454D02*
X191337D01*
X192479Y-94835D01*
X192860Y-95215D01*
X193241Y-95977D01*
Y-96739D01*
X192860Y-97501D01*
X192479Y-97882D01*
X191337Y-98262D01*
X187909D01*
X190575D02*
X193241Y-102452D01*
X195793Y-102071D02*
X195412Y-102452D01*
X195031Y-102071D01*
X195412Y-101690D01*
X195793Y-102071D01*
Y-102833D01*
X195412Y-103595D01*
X195031Y-103975D01*
X206115Y-94454D02*
X204972Y-94835D01*
X204210Y-95977D01*
X203829Y-97882D01*
Y-99024D01*
X204210Y-100928D01*
X204972Y-102071D01*
X206115Y-102452D01*
X206876D01*
X208019Y-102071D01*
X208781Y-100928D01*
X209161Y-99024D01*
Y-97882D01*
X208781Y-95977D01*
X208019Y-94835D01*
X206876Y-94454D01*
X206115D01*
X211333Y-101690D02*
X210952Y-102071D01*
X211333Y-102452D01*
X211713Y-102071D01*
X211333Y-101690D01*
X217274Y-94454D02*
X213465Y-99786D01*
X219178D01*
X217274Y-94454D02*
Y-102452D01*
X220588Y-97120D02*
Y-102452D01*
Y-98643D02*
X221730Y-97501D01*
X222492Y-97120D01*
X223635D01*
X224396Y-97501D01*
X224777Y-98643D01*
Y-102452D01*
Y-98643D02*
X225920Y-97501D01*
X226682Y-97120D01*
X227824D01*
X228586Y-97501D01*
X228967Y-98643D01*
Y-102452D01*
X244049Y-94454D02*
Y-102452D01*
Y-94454D02*
X247477D01*
X248620Y-94835D01*
X249001Y-95215D01*
X249381Y-95977D01*
Y-96739D01*
X249001Y-97501D01*
X248620Y-97882D01*
X247477Y-98262D01*
X244049D01*
X246715D02*
X249381Y-102452D01*
X251171Y-99405D02*
X255742D01*
Y-98643D01*
X255361Y-97882D01*
X254980Y-97501D01*
X254219Y-97120D01*
X253076D01*
X252314Y-97501D01*
X251552Y-98262D01*
X251171Y-99405D01*
Y-100167D01*
X251552Y-101309D01*
X252314Y-102071D01*
X253076Y-102452D01*
X254219D01*
X254980Y-102071D01*
X255742Y-101309D01*
X257456Y-97120D02*
X259741Y-102452D01*
X262026Y-97120D02*
X259741Y-102452D01*
X263702Y-101690D02*
X263321Y-102071D01*
X263702Y-102452D01*
X264083Y-102071D01*
X263702Y-101690D01*
X272119Y-94454D02*
Y-102452D01*
Y-94454D02*
X275547D01*
X276690Y-94835D01*
X277071Y-95215D01*
X277452Y-95977D01*
Y-96739D01*
X277071Y-97501D01*
X276690Y-97882D01*
X275547Y-98262D01*
X272119D02*
X275547D01*
X276690Y-98643D01*
X277071Y-99024D01*
X277452Y-99786D01*
Y-100928D01*
X277071Y-101690D01*
X276690Y-102071D01*
X275547Y-102452D01*
X272119D01*
D17*
X71020Y-109455D02*
Y-117454D01*
X75590D01*
X82560D02*
X79513Y-109455D01*
X76466Y-117454D01*
X77609Y-114787D02*
X81417D01*
X89758Y-110598D02*
X88997Y-109836D01*
X87854Y-109455D01*
X86331D01*
X85188Y-109836D01*
X84426Y-110598D01*
Y-111360D01*
X84807Y-112121D01*
X85188Y-112502D01*
X85950Y-112883D01*
X88235Y-113645D01*
X88997Y-114026D01*
X89378Y-114407D01*
X89758Y-115168D01*
Y-116311D01*
X88997Y-117073D01*
X87854Y-117454D01*
X86331D01*
X85188Y-117073D01*
X84426Y-116311D01*
X103546Y-111360D02*
X103165Y-110598D01*
X102403Y-109836D01*
X101642Y-109455D01*
X100118D01*
X99356Y-109836D01*
X98595Y-110598D01*
X98214Y-111360D01*
X97833Y-112502D01*
Y-114407D01*
X98214Y-115549D01*
X98595Y-116311D01*
X99356Y-117073D01*
X100118Y-117454D01*
X101642D01*
X102403Y-117073D01*
X103165Y-116311D01*
X103546Y-115549D01*
X105793Y-109455D02*
Y-115168D01*
X106174Y-116311D01*
X106936Y-117073D01*
X108078Y-117454D01*
X108840D01*
X109983Y-117073D01*
X110745Y-116311D01*
X111125Y-115168D01*
Y-109455D01*
X113334D02*
Y-117454D01*
Y-109455D02*
X116381Y-117454D01*
X119428Y-109455D02*
X116381Y-117454D01*
X119428Y-109455D02*
Y-117454D01*
X121714Y-109455D02*
Y-117454D01*
Y-109455D02*
X125141D01*
X126284Y-109836D01*
X126665Y-110217D01*
X127046Y-110979D01*
Y-111741D01*
X126665Y-112502D01*
X126284Y-112883D01*
X125141Y-113264D01*
X121714D02*
X125141D01*
X126284Y-113645D01*
X126665Y-114026D01*
X127046Y-114787D01*
Y-115930D01*
X126665Y-116692D01*
X126284Y-117073D01*
X125141Y-117454D01*
X121714D01*
X128836Y-109455D02*
Y-117454D01*
Y-109455D02*
X132264D01*
X133406Y-109836D01*
X133787Y-110217D01*
X134168Y-110979D01*
Y-111741D01*
X133787Y-112502D01*
X133406Y-112883D01*
X132264Y-113264D01*
X128836D01*
X131502D02*
X134168Y-117454D01*
X140909Y-109455D02*
X135958D01*
Y-117454D01*
X140909D01*
X135958Y-113264D02*
X139005D01*
X147575Y-110598D02*
X146813Y-109836D01*
X145670Y-109455D01*
X144147D01*
X143004Y-109836D01*
X142243Y-110598D01*
Y-111360D01*
X142623Y-112121D01*
X143004Y-112502D01*
X143766Y-112883D01*
X146051Y-113645D01*
X146813Y-114026D01*
X147194Y-114407D01*
X147575Y-115168D01*
Y-116311D01*
X146813Y-117073D01*
X145670Y-117454D01*
X144147D01*
X143004Y-117073D01*
X142243Y-116311D01*
X157934Y-109455D02*
X157173Y-109836D01*
X156411Y-110598D01*
X156030Y-111360D01*
X155649Y-112502D01*
Y-114407D01*
X156030Y-115549D01*
X156411Y-116311D01*
X157173Y-117073D01*
X157934Y-117454D01*
X159458D01*
X160220Y-117073D01*
X160981Y-116311D01*
X161362Y-115549D01*
X161743Y-114407D01*
Y-112502D01*
X161362Y-111360D01*
X160981Y-110598D01*
X160220Y-109836D01*
X159458Y-109455D01*
X157934D01*
X163609D02*
Y-117454D01*
Y-109455D02*
X167037D01*
X168180Y-109836D01*
X168561Y-110217D01*
X168941Y-110979D01*
Y-111741D01*
X168561Y-112502D01*
X168180Y-112883D01*
X167037Y-113264D01*
X163609D02*
X167037D01*
X168180Y-113645D01*
X168561Y-114026D01*
X168941Y-114787D01*
Y-115930D01*
X168561Y-116692D01*
X168180Y-117073D01*
X167037Y-117454D01*
X163609D01*
X176064Y-110598D02*
X175302Y-109836D01*
X174160Y-109455D01*
X172636D01*
X171493Y-109836D01*
X170732Y-110598D01*
Y-111360D01*
X171113Y-112121D01*
X171493Y-112502D01*
X172255Y-112883D01*
X174540Y-113645D01*
X175302Y-114026D01*
X175683Y-114407D01*
X176064Y-115168D01*
Y-116311D01*
X175302Y-117073D01*
X174160Y-117454D01*
X172636D01*
X171493Y-117073D01*
X170732Y-116311D01*
X182805Y-109455D02*
X177854D01*
Y-117454D01*
X182805D01*
X177854Y-113264D02*
X180901D01*
X184138Y-109455D02*
Y-117454D01*
Y-109455D02*
X187566D01*
X188709Y-109836D01*
X189090Y-110217D01*
X189471Y-110979D01*
Y-111741D01*
X189090Y-112502D01*
X188709Y-112883D01*
X187566Y-113264D01*
X184138D01*
X186804D02*
X189471Y-117454D01*
X191261Y-109455D02*
X194307Y-117454D01*
X197354Y-109455D02*
X194307Y-117454D01*
X204477D02*
X201430Y-109455D01*
X198383Y-117454D01*
X199525Y-114787D02*
X203334D01*
X209009Y-109455D02*
Y-117454D01*
X206343Y-109455D02*
X211675D01*
X214913D02*
X214151Y-109836D01*
X213389Y-110598D01*
X213008Y-111360D01*
X212627Y-112502D01*
Y-114407D01*
X213008Y-115549D01*
X213389Y-116311D01*
X214151Y-117073D01*
X214913Y-117454D01*
X216436D01*
X217198Y-117073D01*
X217960Y-116311D01*
X218340Y-115549D01*
X218721Y-114407D01*
Y-112502D01*
X218340Y-111360D01*
X217960Y-110598D01*
X217198Y-109836D01*
X216436Y-109455D01*
X214913D01*
X220588D02*
Y-117454D01*
Y-109455D02*
X224015D01*
X225158Y-109836D01*
X225539Y-110217D01*
X225920Y-110979D01*
Y-111741D01*
X225539Y-112502D01*
X225158Y-112883D01*
X224015Y-113264D01*
X220588D01*
X223254D02*
X225920Y-117454D01*
X227710Y-109455D02*
X230757Y-113264D01*
Y-117454D01*
X233804Y-109455D02*
X230757Y-113264D01*
X266254Y-110979D02*
X267016Y-110598D01*
X268158Y-109455D01*
Y-117454D01*
X272119Y-118596D02*
X277452Y-109455D01*
X278366Y-111360D02*
Y-110979D01*
X278747Y-110217D01*
X279127Y-109836D01*
X279889Y-109455D01*
X281413D01*
X282174Y-109836D01*
X282555Y-110217D01*
X282936Y-110979D01*
Y-111741D01*
X282555Y-112502D01*
X281794Y-113645D01*
X277985Y-117454D01*
X283317D01*
X289678Y-110598D02*
X289297Y-109836D01*
X288154Y-109455D01*
X287392D01*
X286250Y-109836D01*
X285488Y-110979D01*
X285107Y-112883D01*
Y-114787D01*
X285488Y-116311D01*
X286250Y-117073D01*
X287392Y-117454D01*
X287773D01*
X288916Y-117073D01*
X289678Y-116311D01*
X290058Y-115168D01*
Y-114787D01*
X289678Y-113645D01*
X288916Y-112883D01*
X287773Y-112502D01*
X287392D01*
X286250Y-112883D01*
X285488Y-113645D01*
X285107Y-114787D01*
X291810Y-118596D02*
X297143Y-109455D01*
X298057Y-111360D02*
Y-110979D01*
X298438Y-110217D01*
X298818Y-109836D01*
X299580Y-109455D01*
X301104D01*
X301865Y-109836D01*
X302246Y-110217D01*
X302627Y-110979D01*
Y-111741D01*
X302246Y-112502D01*
X301485Y-113645D01*
X297676Y-117454D01*
X303008D01*
X307083Y-109455D02*
X305941Y-109836D01*
X305179Y-110979D01*
X304798Y-112883D01*
Y-114026D01*
X305179Y-115930D01*
X305941Y-117073D01*
X307083Y-117454D01*
X307845D01*
X308988Y-117073D01*
X309750Y-115930D01*
X310130Y-114026D01*
Y-112883D01*
X309750Y-110979D01*
X308988Y-109836D01*
X307845Y-109455D01*
X307083D01*
X311920Y-110979D02*
X312682Y-110598D01*
X313825Y-109455D01*
Y-117454D01*
X320071Y-109455D02*
X318928Y-109836D01*
X318167Y-110979D01*
X317786Y-112883D01*
Y-114026D01*
X318167Y-115930D01*
X318928Y-117073D01*
X320071Y-117454D01*
X320833D01*
X321975Y-117073D01*
X322737Y-115930D01*
X323118Y-114026D01*
Y-112883D01*
X322737Y-110979D01*
X321975Y-109836D01*
X320833Y-109455D01*
X320071D01*
D41*
X31500Y206000D02*
D03*
X42500D02*
D03*
X30500Y232000D02*
D03*
X41500D02*
D03*
X212500Y42000D02*
D03*
X201500D02*
D03*
X212500Y16000D02*
D03*
X201500D02*
D03*
X212500Y206000D02*
D03*
X201500D02*
D03*
X217500Y232000D02*
D03*
X206500D02*
D03*
X30500Y13000D02*
D03*
X41500D02*
D03*
D42*
X45000Y53500D02*
D03*
Y42500D02*
D03*
D43*
X52000Y196600D02*
D03*
Y205600D02*
D03*
X67047Y240925D02*
D03*
Y231925D02*
D03*
X47547Y126925D02*
D03*
Y117925D02*
D03*
X194047Y118925D02*
D03*
Y127925D02*
D03*
X192047Y6925D02*
D03*
Y15925D02*
D03*
X52047Y6925D02*
D03*
Y15925D02*
D03*
X197400Y240900D02*
D03*
Y231900D02*
D03*
X50047Y240925D02*
D03*
Y231925D02*
D03*
X62047Y6925D02*
D03*
Y15925D02*
D03*
X182047Y6925D02*
D03*
Y15925D02*
D03*
X177047Y240925D02*
D03*
Y231925D02*
D03*
X52047Y50925D02*
D03*
Y41925D02*
D03*
X192047Y50925D02*
D03*
Y41925D02*
D03*
Y196925D02*
D03*
Y205925D02*
D03*
D44*
X136834Y191106D02*
D03*
X120131Y174402D02*
D03*
X107261Y55745D02*
D03*
X123964Y72448D02*
D03*
D45*
X54367Y138212D02*
D03*
X71070Y121509D02*
D03*
X189728Y108639D02*
D03*
X173024Y125342D02*
D03*
D46*
X122547Y195425D02*
D03*
X113547D02*
D03*
X119547Y53425D02*
D03*
X128547D02*
D03*
D47*
X86130Y232480D02*
D03*
Y253346D02*
D03*
X156996D02*
D03*
Y232480D02*
D03*
D48*
X154043Y231693D02*
D03*
X152075D02*
D03*
X150106D02*
D03*
X148138D02*
D03*
X146169D02*
D03*
X144201D02*
D03*
X142232D02*
D03*
X140264D02*
D03*
X138295D02*
D03*
X136327D02*
D03*
X134358D02*
D03*
X132390D02*
D03*
X130421D02*
D03*
X128453D02*
D03*
X126484D02*
D03*
X124516D02*
D03*
X122547D02*
D03*
X120579D02*
D03*
X118610D02*
D03*
X116642D02*
D03*
X114673D02*
D03*
X112705D02*
D03*
X110736D02*
D03*
X108768D02*
D03*
X106799D02*
D03*
X104831D02*
D03*
X102862D02*
D03*
X100894D02*
D03*
X98925D02*
D03*
X96957D02*
D03*
X94988D02*
D03*
X93020D02*
D03*
X91051D02*
D03*
X89083D02*
D03*
X154043Y254134D02*
D03*
D03*
X152075D02*
D03*
X150106D02*
D03*
X148138D02*
D03*
X146169D02*
D03*
X144201D02*
D03*
X142232D02*
D03*
X140264D02*
D03*
X138295D02*
D03*
X136327D02*
D03*
X134358D02*
D03*
X132390D02*
D03*
X130421D02*
D03*
X128453D02*
D03*
X126484D02*
D03*
X124516D02*
D03*
X122547D02*
D03*
X120579D02*
D03*
X118610D02*
D03*
X116642D02*
D03*
X114673D02*
D03*
X112705D02*
D03*
X110736D02*
D03*
X108768D02*
D03*
X106799D02*
D03*
X104831D02*
D03*
X102862D02*
D03*
X100894D02*
D03*
X98925D02*
D03*
X96957D02*
D03*
X94988D02*
D03*
X93020D02*
D03*
X91051D02*
D03*
X89083D02*
D03*
M02*
