%FSLAX25Y25*%
%MOIN*%
G70*
G01*
G75*
G04 Layer_Physical_Order=2*
G04 Layer_Color=36540*
%ADD10C,0.00984*%
%ADD11C,0.01000*%
%ADD12C,0.00787*%
%ADD13C,0.00700*%
%ADD14C,0.01201*%
%ADD15C,0.00800*%
%ADD16C,0.01200*%
%ADD17C,0.01201*%
%ADD18C,0.07087*%
%ADD19C,0.07000*%
%ADD20C,0.03937*%
%ADD21C,0.03543*%
%ADD22C,0.05512*%
%ADD23R,0.07000X0.07000*%
%ADD24C,0.04807*%
%ADD25C,0.04724*%
%ADD26C,0.16929*%
%ADD27C,0.02400*%
D10*
X196734Y18912D02*
Y51538D01*
X210292Y65096D01*
X194347Y16525D02*
X196734Y18912D01*
X176547Y16525D02*
X194347D01*
X172049Y21023D02*
X176547Y16525D01*
X172049Y21023D02*
Y23622D01*
X72049Y33622D02*
Y68623D01*
X68399Y72273D02*
X72049Y68623D01*
X68399Y72273D02*
Y175242D01*
X88147Y39720D02*
Y211925D01*
X82049Y33622D02*
X88147Y39720D01*
X221347Y52920D02*
Y208112D01*
X202049Y33622D02*
X221347Y52920D01*
X233647Y56025D02*
Y185075D01*
X212049Y34427D02*
X233647Y56025D01*
X212049Y33622D02*
Y34427D01*
X40347Y231225D02*
Y246025D01*
Y231225D02*
X42049Y229523D01*
Y223622D02*
Y229523D01*
Y223622D02*
Y226423D01*
X207647Y182762D02*
Y245125D01*
Y182762D02*
X210292Y180117D01*
X217657Y211803D02*
Y247516D01*
Y211803D02*
X221347Y208112D01*
X227147Y249625D02*
X239447Y237325D01*
Y190875D02*
Y237325D01*
X233647Y185075D02*
X239447Y190875D01*
X96347Y214425D02*
Y226925D01*
X108247Y196325D02*
X110747Y198825D01*
Y227625D01*
X112847Y206625D02*
X114547Y208325D01*
Y226125D01*
X118547Y202025D02*
X118647Y201925D01*
X118547Y202025D02*
Y227825D01*
X11247Y39146D02*
Y195825D01*
X32049Y252327D02*
X32247Y252525D01*
X32049Y223622D02*
Y252327D01*
X22047Y255825D02*
X22049Y255823D01*
Y223622D02*
Y255823D01*
X211947Y252725D02*
X212049Y252623D01*
Y223622D02*
Y252623D01*
X221947Y255525D02*
X222049Y255423D01*
Y223622D02*
Y255423D01*
X82049Y23622D02*
X98747Y40320D01*
Y224025D01*
X23832Y38051D02*
Y195825D01*
Y38051D02*
X26441Y35441D01*
Y29230D02*
Y35441D01*
Y29230D02*
X32049Y23622D01*
X210292Y65096D02*
Y180117D01*
X72049Y178892D02*
Y213622D01*
X68399Y175242D02*
X72049Y178892D01*
X37147Y218720D02*
X42049Y223622D01*
X37147Y28825D02*
Y218720D01*
Y28825D02*
X42049Y23923D01*
Y23622D02*
Y23923D01*
X11247Y39146D02*
X16831Y33563D01*
Y28840D02*
Y33563D01*
Y28840D02*
X22049Y23622D01*
D11*
X123900Y171000D02*
X125200Y169700D01*
X128200D01*
X135500Y177000D01*
Y184000D01*
X123100Y196400D02*
X135500Y184000D01*
X123100Y196400D02*
Y237400D01*
X118610Y241890D02*
X123100Y237400D01*
X104800Y190100D02*
X123900Y171000D01*
X104800Y190100D02*
Y196600D01*
X106500Y198300D01*
Y228900D01*
X108900Y231300D01*
X113100D01*
X114700Y232900D01*
Y235101D01*
Y237600D02*
Y246500D01*
X26547Y233125D02*
Y238779D01*
X54247Y65425D02*
Y125855D01*
X46747Y57925D02*
X54247Y65425D01*
X46747Y19225D02*
Y57925D01*
Y19225D02*
X49247Y16725D01*
X65152D01*
X72049Y23622D01*
X91247Y218625D02*
X91447Y218425D01*
Y187025D02*
Y218425D01*
X23832Y195825D02*
Y201809D01*
X27247Y205225D01*
Y232425D01*
X26547Y233125D02*
X27247Y232425D01*
X52049Y213622D02*
X56449Y218022D01*
X11247Y195825D02*
Y205325D01*
X6147Y210425D02*
X11247Y205325D01*
X6147Y210425D02*
Y223625D01*
X11847Y229325D01*
Y250225D01*
X40447Y246125D02*
Y250425D01*
X40347Y246025D02*
X40447Y246125D01*
Y250425D02*
X40547D01*
X54247Y128795D02*
Y187025D01*
X197347Y232025D02*
X203147Y237825D01*
X197347Y176125D02*
Y232025D01*
X53847Y128395D02*
X54247Y128795D01*
X53847Y126255D02*
Y128395D01*
Y126255D02*
X54247Y125855D01*
X197347Y176125D02*
X198316Y175157D01*
Y70057D02*
Y175157D01*
X162049Y33790D02*
X198316Y70057D01*
X162049Y33622D02*
Y33790D01*
X56449Y218022D02*
Y234106D01*
X61614Y239272D01*
D13*
X118610Y241890D02*
Y247110D01*
X114692Y235109D02*
X114700Y235101D01*
X114692Y235109D02*
Y236733D01*
X114700Y236741D01*
Y237600D01*
X156947Y247225D02*
X165247Y255525D01*
X144447Y247225D02*
X156947D01*
X142147Y244925D02*
X144447Y247225D01*
X40347Y225324D02*
X42049Y223622D01*
D14*
X46786Y-142592D02*
Y-147163D01*
X44882Y-143735D02*
X48691Y-146020D01*
Y-143735D02*
X44882Y-146020D01*
X50709Y-149829D02*
X50328Y-150210D01*
X50709Y-150591D01*
X51090Y-150210D01*
X50709Y-149829D01*
X58555Y-144497D02*
X58174Y-143735D01*
X57412Y-142973D01*
X56651Y-142592D01*
X55127D01*
X54366Y-142973D01*
X53604Y-143735D01*
X53223Y-144497D01*
X52842Y-145639D01*
Y-147544D01*
X53223Y-148686D01*
X53604Y-149448D01*
X54366Y-150210D01*
X55127Y-150591D01*
X56651D01*
X57412Y-150210D01*
X58174Y-149448D01*
X58555Y-148686D01*
Y-147544D01*
X56651D02*
X58555D01*
X60383Y-144116D02*
X61145Y-143735D01*
X62288Y-142592D01*
Y-150591D01*
X72533Y-147163D02*
X79389D01*
X88035Y-142592D02*
Y-150591D01*
Y-142592D02*
X91082Y-150591D01*
X94129Y-142592D02*
X91082Y-150591D01*
X94129Y-142592D02*
Y-150591D01*
X96414Y-142592D02*
Y-150591D01*
X98089Y-142592D02*
Y-150591D01*
Y-142592D02*
X100756D01*
X101898Y-142973D01*
X102660Y-143735D01*
X103041Y-144497D01*
X103422Y-145639D01*
Y-147544D01*
X103041Y-148686D01*
X102660Y-149448D01*
X101898Y-150210D01*
X100756Y-150591D01*
X98089D01*
X111496Y-142592D02*
Y-150591D01*
X116067D01*
X123037D02*
X119990Y-142592D01*
X116943Y-150591D01*
X118085Y-147924D02*
X121894D01*
X124903Y-142592D02*
X127950Y-146401D01*
Y-150591D01*
X130997Y-142592D02*
X127950Y-146401D01*
X136976Y-142592D02*
X132025D01*
Y-150591D01*
X136976D01*
X132025Y-146401D02*
X135072D01*
X138310Y-142592D02*
Y-150591D01*
Y-142592D02*
X141737D01*
X142880Y-142973D01*
X143261Y-143354D01*
X143642Y-144116D01*
Y-144878D01*
X143261Y-145639D01*
X142880Y-146020D01*
X141737Y-146401D01*
X138310D01*
X140976D02*
X143642Y-150591D01*
X151716Y-144116D02*
X152478Y-143735D01*
X153621Y-142592D01*
Y-150591D01*
X169579Y-144497D02*
X169198Y-143735D01*
X168436Y-142973D01*
X167675Y-142592D01*
X166151D01*
X165389Y-142973D01*
X164628Y-143735D01*
X164247Y-144497D01*
X163866Y-145639D01*
Y-147544D01*
X164247Y-148686D01*
X164628Y-149448D01*
X165389Y-150210D01*
X166151Y-150591D01*
X167675D01*
X168436Y-150210D01*
X169198Y-149448D01*
X169579Y-148686D01*
Y-147544D01*
X167675D02*
X169579D01*
X176358Y-142592D02*
X171407D01*
Y-150591D01*
X176358D01*
X171407Y-146401D02*
X174454D01*
X177691Y-142592D02*
Y-150591D01*
Y-142592D02*
X181119D01*
X182262Y-142973D01*
X182643Y-143354D01*
X183024Y-144116D01*
Y-144878D01*
X182643Y-145639D01*
X182262Y-146020D01*
X181119Y-146401D01*
X177691D01*
X180358D02*
X183024Y-150591D01*
X184814Y-142592D02*
Y-150591D01*
Y-142592D02*
X188242D01*
X189384Y-142973D01*
X189765Y-143354D01*
X190146Y-144116D01*
Y-144878D01*
X189765Y-145639D01*
X189384Y-146020D01*
X188242Y-146401D01*
X184814D02*
X188242D01*
X189384Y-146782D01*
X189765Y-147163D01*
X190146Y-147924D01*
Y-149067D01*
X189765Y-149829D01*
X189384Y-150210D01*
X188242Y-150591D01*
X184814D01*
X196887Y-142592D02*
X191936D01*
Y-150591D01*
X196887D01*
X191936Y-146401D02*
X194983D01*
X198221Y-142592D02*
Y-150591D01*
Y-142592D02*
X201648D01*
X202791Y-142973D01*
X203172Y-143354D01*
X203553Y-144116D01*
Y-144878D01*
X203172Y-145639D01*
X202791Y-146020D01*
X201648Y-146401D01*
X198221D01*
X200887D02*
X203553Y-150591D01*
X211627Y-142592D02*
Y-150591D01*
Y-142592D02*
X214293D01*
X215436Y-142973D01*
X216198Y-143735D01*
X216578Y-144497D01*
X216959Y-145639D01*
Y-147544D01*
X216578Y-148686D01*
X216198Y-149448D01*
X215436Y-150210D01*
X214293Y-150591D01*
X211627D01*
X224843D02*
X221796Y-142592D01*
X218749Y-150591D01*
X219892Y-147924D02*
X223701D01*
X229376Y-142592D02*
Y-150591D01*
X226710Y-142592D02*
X232042D01*
X239088Y-150591D02*
X236041Y-142592D01*
X232994Y-150591D01*
X234137Y-147924D02*
X237945D01*
D15*
X-128591Y-143268D02*
X-127591D01*
X-128591Y-143768D02*
Y-142768D01*
Y-143768D02*
X-127591D01*
Y-142768D01*
X-128591D02*
X-127591D01*
X-129091Y-144268D02*
Y-142768D01*
Y-144268D02*
X-127091D01*
Y-142268D01*
X-129091D02*
X-127091D01*
X-129591Y-144768D02*
Y-142268D01*
Y-144768D02*
X-126591D01*
Y-141768D01*
X-129591D02*
X-126591D01*
X-130091Y-145268D02*
Y-141268D01*
Y-145268D02*
X-126091D01*
Y-141268D01*
X-130091D02*
X-126091D01*
X-123591Y-148268D02*
X-122591D01*
X-123591Y-148768D02*
Y-147768D01*
Y-148768D02*
X-122591D01*
Y-147768D01*
X-123591D02*
X-122591D01*
X-124091Y-149268D02*
Y-147768D01*
Y-149268D02*
X-122091D01*
Y-147268D01*
X-124091D02*
X-122091D01*
X-124591Y-149768D02*
Y-147268D01*
Y-149768D02*
X-121591D01*
Y-146768D01*
X-124591D02*
X-121591D01*
X-125091Y-150268D02*
Y-146268D01*
Y-150268D02*
X-121091D01*
Y-146268D01*
X-125091D02*
X-121091D01*
X-125591Y-150768D02*
X-120591D01*
Y-145768D01*
X-130591Y-140768D02*
X-125591D01*
X-130591Y-145768D02*
Y-140768D01*
X-125591Y-170768D02*
Y-120768D01*
X-150591Y-145768D02*
X-100591D01*
X-122488Y315492D02*
X-121488D01*
X-122488Y314992D02*
Y315992D01*
Y314992D02*
X-121488D01*
Y315992D01*
X-122488D02*
X-121488D01*
X-122988Y314492D02*
Y315992D01*
Y314492D02*
X-120988D01*
Y316492D01*
X-122988D02*
X-120988D01*
X-123488Y313992D02*
Y316492D01*
Y313992D02*
X-120488D01*
Y316992D01*
X-123488D02*
X-120488D01*
X-123988Y313492D02*
Y317492D01*
Y313492D02*
X-119988D01*
Y317492D01*
X-123988D02*
X-119988D01*
X-117488Y310492D02*
X-116488D01*
X-117488Y309992D02*
Y310992D01*
Y309992D02*
X-116488D01*
Y310992D01*
X-117488D02*
X-116488D01*
X-117988Y309492D02*
Y310992D01*
Y309492D02*
X-115988D01*
Y311492D01*
X-117988D02*
X-115988D01*
X-118488Y308992D02*
Y311492D01*
Y308992D02*
X-115488D01*
Y311992D01*
X-118488D02*
X-115488D01*
X-118988Y308492D02*
Y312492D01*
Y308492D02*
X-114988D01*
Y312492D01*
X-118988D02*
X-114988D01*
X-119488Y307992D02*
X-114488D01*
Y312992D01*
X-124488Y317992D02*
X-119488D01*
X-124488Y312992D02*
Y317992D01*
X-119488Y287992D02*
Y337992D01*
X-144488Y312992D02*
X-94488D01*
X293161Y320429D02*
X294161D01*
X293161Y319929D02*
Y320929D01*
Y319929D02*
X294161D01*
Y320929D01*
X293161D02*
X294161D01*
X292661Y319429D02*
Y320929D01*
Y319429D02*
X294661D01*
Y321429D01*
X292661D02*
X294661D01*
X292161Y318929D02*
Y321429D01*
Y318929D02*
X295161D01*
Y321929D01*
X292161D02*
X295161D01*
X291661Y318429D02*
Y322429D01*
Y318429D02*
X295661D01*
Y322429D01*
X291661D02*
X295661D01*
X298161Y315429D02*
X299161D01*
X298161Y314929D02*
Y315929D01*
Y314929D02*
X299161D01*
Y315929D01*
X298161D02*
X299161D01*
X297661Y314429D02*
Y315929D01*
Y314429D02*
X299661D01*
Y316429D01*
X297661D02*
X299661D01*
X297161Y313929D02*
Y316429D01*
Y313929D02*
X300161D01*
Y316929D01*
X297161D02*
X300161D01*
X296661Y313429D02*
Y317429D01*
Y313429D02*
X300661D01*
Y317429D01*
X296661D02*
X300661D01*
X296161Y312929D02*
X301161D01*
Y317929D01*
X291161Y322929D02*
X296161D01*
X291161Y317929D02*
Y322929D01*
X296161Y292929D02*
Y342929D01*
X271161Y317929D02*
X321161D01*
D16*
X71020Y-94454D02*
Y-102452D01*
X75590D01*
X82560D02*
X79513Y-94454D01*
X76466Y-102452D01*
X77609Y-99786D02*
X81417D01*
X84426Y-94454D02*
Y-102452D01*
Y-94454D02*
X87473Y-102452D01*
X90520Y-94454D02*
X87473Y-102452D01*
X90520Y-94454D02*
Y-102452D01*
X92805Y-94454D02*
Y-102452D01*
Y-94454D02*
X96233D01*
X97376Y-94835D01*
X97757Y-95215D01*
X98138Y-95977D01*
Y-96739D01*
X97757Y-97501D01*
X97376Y-97882D01*
X96233Y-98262D01*
X92805D02*
X96233D01*
X97376Y-98643D01*
X97757Y-99024D01*
X98138Y-99786D01*
Y-100928D01*
X97757Y-101690D01*
X97376Y-102071D01*
X96233Y-102452D01*
X92805D01*
X104879Y-94454D02*
X99928D01*
Y-102452D01*
X104879D01*
X99928Y-98262D02*
X102975D01*
X106212Y-94454D02*
Y-102452D01*
Y-94454D02*
X109640D01*
X110783Y-94835D01*
X111163Y-95215D01*
X111544Y-95977D01*
Y-96739D01*
X111163Y-97501D01*
X110783Y-97882D01*
X109640Y-98262D01*
X106212D01*
X108878D02*
X111544Y-102452D01*
X116000Y-94454D02*
Y-102452D01*
X113334Y-94454D02*
X118667D01*
X131616Y-96358D02*
X131235Y-95596D01*
X130474Y-94835D01*
X129712Y-94454D01*
X128188D01*
X127427Y-94835D01*
X126665Y-95596D01*
X126284Y-96358D01*
X125903Y-97501D01*
Y-99405D01*
X126284Y-100548D01*
X126665Y-101309D01*
X127427Y-102071D01*
X128188Y-102452D01*
X129712D01*
X130474Y-102071D01*
X131235Y-101309D01*
X131616Y-100548D01*
X136149Y-94454D02*
X135387Y-94835D01*
X134625Y-95596D01*
X134244Y-96358D01*
X133863Y-97501D01*
Y-99405D01*
X134244Y-100548D01*
X134625Y-101309D01*
X135387Y-102071D01*
X136149Y-102452D01*
X137672D01*
X138434Y-102071D01*
X139196Y-101309D01*
X139576Y-100548D01*
X139957Y-99405D01*
Y-97501D01*
X139576Y-96358D01*
X139196Y-95596D01*
X138434Y-94835D01*
X137672Y-94454D01*
X136149D01*
X141824D02*
Y-102452D01*
Y-94454D02*
X147156Y-102452D01*
Y-94454D02*
Y-102452D01*
X152031Y-94454D02*
Y-102452D01*
X149365Y-94454D02*
X154697D01*
X155649D02*
Y-102452D01*
Y-94454D02*
X159077D01*
X160220Y-94835D01*
X160600Y-95215D01*
X160981Y-95977D01*
Y-96739D01*
X160600Y-97501D01*
X160220Y-97882D01*
X159077Y-98262D01*
X155649D01*
X158315D02*
X160981Y-102452D01*
X165057Y-94454D02*
X164295Y-94835D01*
X163533Y-95596D01*
X163152Y-96358D01*
X162771Y-97501D01*
Y-99405D01*
X163152Y-100548D01*
X163533Y-101309D01*
X164295Y-102071D01*
X165057Y-102452D01*
X166580D01*
X167342Y-102071D01*
X168104Y-101309D01*
X168484Y-100548D01*
X168865Y-99405D01*
Y-97501D01*
X168484Y-96358D01*
X168104Y-95596D01*
X167342Y-94835D01*
X166580Y-94454D01*
X165057D01*
X170732D02*
Y-102452D01*
X175302D01*
X176178Y-94454D02*
Y-102452D01*
X180748D01*
X186576Y-94454D02*
X181624D01*
Y-102452D01*
X186576D01*
X181624Y-98262D02*
X184671D01*
X187909Y-94454D02*
Y-102452D01*
Y-94454D02*
X191337D01*
X192479Y-94835D01*
X192860Y-95215D01*
X193241Y-95977D01*
Y-96739D01*
X192860Y-97501D01*
X192479Y-97882D01*
X191337Y-98262D01*
X187909D01*
X190575D02*
X193241Y-102452D01*
X195793Y-102071D02*
X195412Y-102452D01*
X195031Y-102071D01*
X195412Y-101690D01*
X195793Y-102071D01*
Y-102833D01*
X195412Y-103595D01*
X195031Y-103975D01*
X206115Y-94454D02*
X204972Y-94835D01*
X204210Y-95977D01*
X203829Y-97882D01*
Y-99024D01*
X204210Y-100928D01*
X204972Y-102071D01*
X206115Y-102452D01*
X206876D01*
X208019Y-102071D01*
X208781Y-100928D01*
X209161Y-99024D01*
Y-97882D01*
X208781Y-95977D01*
X208019Y-94835D01*
X206876Y-94454D01*
X206115D01*
X211333Y-101690D02*
X210952Y-102071D01*
X211333Y-102452D01*
X211713Y-102071D01*
X211333Y-101690D01*
X217274Y-94454D02*
X213465Y-99786D01*
X219178D01*
X217274Y-94454D02*
Y-102452D01*
X220588Y-97120D02*
Y-102452D01*
Y-98643D02*
X221730Y-97501D01*
X222492Y-97120D01*
X223635D01*
X224396Y-97501D01*
X224777Y-98643D01*
Y-102452D01*
Y-98643D02*
X225920Y-97501D01*
X226682Y-97120D01*
X227824D01*
X228586Y-97501D01*
X228967Y-98643D01*
Y-102452D01*
X244049Y-94454D02*
Y-102452D01*
Y-94454D02*
X247477D01*
X248620Y-94835D01*
X249001Y-95215D01*
X249381Y-95977D01*
Y-96739D01*
X249001Y-97501D01*
X248620Y-97882D01*
X247477Y-98262D01*
X244049D01*
X246715D02*
X249381Y-102452D01*
X251171Y-99405D02*
X255742D01*
Y-98643D01*
X255361Y-97882D01*
X254980Y-97501D01*
X254219Y-97120D01*
X253076D01*
X252314Y-97501D01*
X251552Y-98262D01*
X251171Y-99405D01*
Y-100167D01*
X251552Y-101309D01*
X252314Y-102071D01*
X253076Y-102452D01*
X254219D01*
X254980Y-102071D01*
X255742Y-101309D01*
X257456Y-97120D02*
X259741Y-102452D01*
X262026Y-97120D02*
X259741Y-102452D01*
X263702Y-101690D02*
X263321Y-102071D01*
X263702Y-102452D01*
X264083Y-102071D01*
X263702Y-101690D01*
X272119Y-94454D02*
Y-102452D01*
Y-94454D02*
X275547D01*
X276690Y-94835D01*
X277071Y-95215D01*
X277452Y-95977D01*
Y-96739D01*
X277071Y-97501D01*
X276690Y-97882D01*
X275547Y-98262D01*
X272119D02*
X275547D01*
X276690Y-98643D01*
X277071Y-99024D01*
X277452Y-99786D01*
Y-100928D01*
X277071Y-101690D01*
X276690Y-102071D01*
X275547Y-102452D01*
X272119D01*
D17*
X71020Y-109455D02*
Y-117454D01*
X75590D01*
X82560D02*
X79513Y-109455D01*
X76466Y-117454D01*
X77609Y-114787D02*
X81417D01*
X89758Y-110598D02*
X88997Y-109836D01*
X87854Y-109455D01*
X86331D01*
X85188Y-109836D01*
X84426Y-110598D01*
Y-111360D01*
X84807Y-112121D01*
X85188Y-112502D01*
X85950Y-112883D01*
X88235Y-113645D01*
X88997Y-114026D01*
X89378Y-114407D01*
X89758Y-115168D01*
Y-116311D01*
X88997Y-117073D01*
X87854Y-117454D01*
X86331D01*
X85188Y-117073D01*
X84426Y-116311D01*
X103546Y-111360D02*
X103165Y-110598D01*
X102403Y-109836D01*
X101642Y-109455D01*
X100118D01*
X99356Y-109836D01*
X98595Y-110598D01*
X98214Y-111360D01*
X97833Y-112502D01*
Y-114407D01*
X98214Y-115549D01*
X98595Y-116311D01*
X99356Y-117073D01*
X100118Y-117454D01*
X101642D01*
X102403Y-117073D01*
X103165Y-116311D01*
X103546Y-115549D01*
X105793Y-109455D02*
Y-115168D01*
X106174Y-116311D01*
X106936Y-117073D01*
X108078Y-117454D01*
X108840D01*
X109983Y-117073D01*
X110745Y-116311D01*
X111125Y-115168D01*
Y-109455D01*
X113334D02*
Y-117454D01*
Y-109455D02*
X116381Y-117454D01*
X119428Y-109455D02*
X116381Y-117454D01*
X119428Y-109455D02*
Y-117454D01*
X121714Y-109455D02*
Y-117454D01*
Y-109455D02*
X125141D01*
X126284Y-109836D01*
X126665Y-110217D01*
X127046Y-110979D01*
Y-111741D01*
X126665Y-112502D01*
X126284Y-112883D01*
X125141Y-113264D01*
X121714D02*
X125141D01*
X126284Y-113645D01*
X126665Y-114026D01*
X127046Y-114787D01*
Y-115930D01*
X126665Y-116692D01*
X126284Y-117073D01*
X125141Y-117454D01*
X121714D01*
X128836Y-109455D02*
Y-117454D01*
Y-109455D02*
X132264D01*
X133406Y-109836D01*
X133787Y-110217D01*
X134168Y-110979D01*
Y-111741D01*
X133787Y-112502D01*
X133406Y-112883D01*
X132264Y-113264D01*
X128836D01*
X131502D02*
X134168Y-117454D01*
X140909Y-109455D02*
X135958D01*
Y-117454D01*
X140909D01*
X135958Y-113264D02*
X139005D01*
X147575Y-110598D02*
X146813Y-109836D01*
X145670Y-109455D01*
X144147D01*
X143004Y-109836D01*
X142243Y-110598D01*
Y-111360D01*
X142623Y-112121D01*
X143004Y-112502D01*
X143766Y-112883D01*
X146051Y-113645D01*
X146813Y-114026D01*
X147194Y-114407D01*
X147575Y-115168D01*
Y-116311D01*
X146813Y-117073D01*
X145670Y-117454D01*
X144147D01*
X143004Y-117073D01*
X142243Y-116311D01*
X157934Y-109455D02*
X157173Y-109836D01*
X156411Y-110598D01*
X156030Y-111360D01*
X155649Y-112502D01*
Y-114407D01*
X156030Y-115549D01*
X156411Y-116311D01*
X157173Y-117073D01*
X157934Y-117454D01*
X159458D01*
X160220Y-117073D01*
X160981Y-116311D01*
X161362Y-115549D01*
X161743Y-114407D01*
Y-112502D01*
X161362Y-111360D01*
X160981Y-110598D01*
X160220Y-109836D01*
X159458Y-109455D01*
X157934D01*
X163609D02*
Y-117454D01*
Y-109455D02*
X167037D01*
X168180Y-109836D01*
X168561Y-110217D01*
X168941Y-110979D01*
Y-111741D01*
X168561Y-112502D01*
X168180Y-112883D01*
X167037Y-113264D01*
X163609D02*
X167037D01*
X168180Y-113645D01*
X168561Y-114026D01*
X168941Y-114787D01*
Y-115930D01*
X168561Y-116692D01*
X168180Y-117073D01*
X167037Y-117454D01*
X163609D01*
X176064Y-110598D02*
X175302Y-109836D01*
X174160Y-109455D01*
X172636D01*
X171493Y-109836D01*
X170732Y-110598D01*
Y-111360D01*
X171113Y-112121D01*
X171493Y-112502D01*
X172255Y-112883D01*
X174540Y-113645D01*
X175302Y-114026D01*
X175683Y-114407D01*
X176064Y-115168D01*
Y-116311D01*
X175302Y-117073D01*
X174160Y-117454D01*
X172636D01*
X171493Y-117073D01*
X170732Y-116311D01*
X182805Y-109455D02*
X177854D01*
Y-117454D01*
X182805D01*
X177854Y-113264D02*
X180901D01*
X184138Y-109455D02*
Y-117454D01*
Y-109455D02*
X187566D01*
X188709Y-109836D01*
X189090Y-110217D01*
X189471Y-110979D01*
Y-111741D01*
X189090Y-112502D01*
X188709Y-112883D01*
X187566Y-113264D01*
X184138D01*
X186804D02*
X189471Y-117454D01*
X191261Y-109455D02*
X194307Y-117454D01*
X197354Y-109455D02*
X194307Y-117454D01*
X204477D02*
X201430Y-109455D01*
X198383Y-117454D01*
X199525Y-114787D02*
X203334D01*
X209009Y-109455D02*
Y-117454D01*
X206343Y-109455D02*
X211675D01*
X214913D02*
X214151Y-109836D01*
X213389Y-110598D01*
X213008Y-111360D01*
X212627Y-112502D01*
Y-114407D01*
X213008Y-115549D01*
X213389Y-116311D01*
X214151Y-117073D01*
X214913Y-117454D01*
X216436D01*
X217198Y-117073D01*
X217960Y-116311D01*
X218340Y-115549D01*
X218721Y-114407D01*
Y-112502D01*
X218340Y-111360D01*
X217960Y-110598D01*
X217198Y-109836D01*
X216436Y-109455D01*
X214913D01*
X220588D02*
Y-117454D01*
Y-109455D02*
X224015D01*
X225158Y-109836D01*
X225539Y-110217D01*
X225920Y-110979D01*
Y-111741D01*
X225539Y-112502D01*
X225158Y-112883D01*
X224015Y-113264D01*
X220588D01*
X223254D02*
X225920Y-117454D01*
X227710Y-109455D02*
X230757Y-113264D01*
Y-117454D01*
X233804Y-109455D02*
X230757Y-113264D01*
X266254Y-110979D02*
X267016Y-110598D01*
X268158Y-109455D01*
Y-117454D01*
X272119Y-118596D02*
X277452Y-109455D01*
X278366Y-111360D02*
Y-110979D01*
X278747Y-110217D01*
X279127Y-109836D01*
X279889Y-109455D01*
X281413D01*
X282174Y-109836D01*
X282555Y-110217D01*
X282936Y-110979D01*
Y-111741D01*
X282555Y-112502D01*
X281794Y-113645D01*
X277985Y-117454D01*
X283317D01*
X289678Y-110598D02*
X289297Y-109836D01*
X288154Y-109455D01*
X287392D01*
X286250Y-109836D01*
X285488Y-110979D01*
X285107Y-112883D01*
Y-114787D01*
X285488Y-116311D01*
X286250Y-117073D01*
X287392Y-117454D01*
X287773D01*
X288916Y-117073D01*
X289678Y-116311D01*
X290058Y-115168D01*
Y-114787D01*
X289678Y-113645D01*
X288916Y-112883D01*
X287773Y-112502D01*
X287392D01*
X286250Y-112883D01*
X285488Y-113645D01*
X285107Y-114787D01*
X291810Y-118596D02*
X297143Y-109455D01*
X298057Y-111360D02*
Y-110979D01*
X298438Y-110217D01*
X298818Y-109836D01*
X299580Y-109455D01*
X301104D01*
X301865Y-109836D01*
X302246Y-110217D01*
X302627Y-110979D01*
Y-111741D01*
X302246Y-112502D01*
X301485Y-113645D01*
X297676Y-117454D01*
X303008D01*
X307083Y-109455D02*
X305941Y-109836D01*
X305179Y-110979D01*
X304798Y-112883D01*
Y-114026D01*
X305179Y-115930D01*
X305941Y-117073D01*
X307083Y-117454D01*
X307845D01*
X308988Y-117073D01*
X309750Y-115930D01*
X310130Y-114026D01*
Y-112883D01*
X309750Y-110979D01*
X308988Y-109836D01*
X307845Y-109455D01*
X307083D01*
X311920Y-110979D02*
X312682Y-110598D01*
X313825Y-109455D01*
Y-117454D01*
X320071Y-109455D02*
X318928Y-109836D01*
X318167Y-110979D01*
X317786Y-112883D01*
Y-114026D01*
X318167Y-115930D01*
X318928Y-117073D01*
X320071Y-117454D01*
X320833D01*
X321975Y-117073D01*
X322737Y-115930D01*
X323118Y-114026D01*
Y-112883D01*
X322737Y-110979D01*
X321975Y-109836D01*
X320833Y-109455D01*
X320071D01*
D19*
X172049Y23622D02*
D03*
X82049D02*
D03*
X72049D02*
D03*
X42049D02*
D03*
X32049D02*
D03*
X22049D02*
D03*
X212049Y33622D02*
D03*
X202049D02*
D03*
X162049D02*
D03*
X82049D02*
D03*
X72049D02*
D03*
X222049Y223622D02*
D03*
X212049D02*
D03*
X42049D02*
D03*
X32049D02*
D03*
X22049D02*
D03*
X72049Y213622D02*
D03*
X52049D02*
D03*
D27*
X118610Y247110D02*
D03*
X123900Y171000D02*
D03*
X114700Y246500D02*
D03*
X165247Y255525D02*
D03*
X142147Y244925D02*
D03*
X91247Y218625D02*
D03*
X91447Y187025D02*
D03*
X54247D02*
D03*
X26378Y238779D02*
D03*
X11847Y250225D02*
D03*
X40547Y250425D02*
D03*
X203147Y237825D02*
D03*
X207647Y245125D02*
D03*
X217657Y247516D02*
D03*
X227147Y249625D02*
D03*
X96347Y214425D02*
D03*
Y226925D02*
D03*
X88147Y211925D02*
D03*
X108247Y196325D02*
D03*
X110747Y227625D02*
D03*
X112847Y206625D02*
D03*
X114547Y226125D02*
D03*
X118647Y201925D02*
D03*
X118547Y227825D02*
D03*
X32247Y252525D02*
D03*
X22047Y255825D02*
D03*
X211947Y252725D02*
D03*
X221947Y255525D02*
D03*
X98747Y224025D02*
D03*
X61614Y239272D02*
D03*
M02*
