G04 Layer_Color=16711935*
%FSAX44Y44*%
%MOMM*%
G71*
G01*
G75*
%ADD121R,1.5532X1.7032*%
%ADD122R,1.7032X1.5532*%
%ADD123R,1.6532X1.5532*%
%ADD124R,1.5532X1.6532*%
%ADD130R,2.3032X3.1932*%
%ADD131O,2.4032X0.8032*%
%ADD133R,1.2032X0.9032*%
%ADD152C,2.2032*%
%ADD153R,1.7032X1.7032*%
%ADD154C,1.7032*%
%ADD155R,1.7032X1.7032*%
%ADD156C,2.4032*%
%ADD157R,2.2032X2.2032*%
%ADD158R,2.2032X2.2032*%
%ADD159C,1.6032*%
%ADD160P,1.7353X8X112.5*%
%ADD161C,5.2032*%
%ADD162C,2.7432*%
%ADD163C,1.7272*%
%ADD164C,4.4932*%
%ADD165R,1.8032X1.8032*%
%ADD166C,1.8032*%
%ADD167C,1.0032*%
%ADD168C,3.2032*%
%ADD169R,2.1032X0.8032*%
%ADD170R,3.0032X2.3032*%
%ADD171R,3.1932X2.3032*%
D121*
X01565910Y01326160D02*
D03*
Y01297660D02*
D03*
X01489900Y01171900D02*
D03*
Y01143400D02*
D03*
X01469900Y01171900D02*
D03*
Y01143400D02*
D03*
X01936750Y00684250D02*
D03*
Y00712750D02*
D03*
X01885950Y00684250D02*
D03*
Y00712750D02*
D03*
D122*
X01478000Y00336550D02*
D03*
X01506500D02*
D03*
X01506500Y00311150D02*
D03*
X01478000D02*
D03*
X00954050Y01733550D02*
D03*
X00925550D02*
D03*
X00919200Y01612900D02*
D03*
X00947700D02*
D03*
X00954050Y01784350D02*
D03*
X00925550D02*
D03*
X00919200Y01663700D02*
D03*
X00947700D02*
D03*
D123*
X01339850Y01192850D02*
D03*
Y01169350D02*
D03*
X01511300Y01145220D02*
D03*
Y01168720D02*
D03*
X01504950Y01219520D02*
D03*
Y01196020D02*
D03*
Y01239200D02*
D03*
Y01262700D02*
D03*
Y01326200D02*
D03*
Y01302700D02*
D03*
X01363980Y01388430D02*
D03*
Y01364930D02*
D03*
X01339850Y01307150D02*
D03*
Y01283650D02*
D03*
Y01232850D02*
D03*
Y01256350D02*
D03*
X00863600Y00646750D02*
D03*
Y00623250D02*
D03*
D124*
X02043750Y01250950D02*
D03*
X02020250D02*
D03*
X02043750Y01117600D02*
D03*
X02020250D02*
D03*
X02042480Y01485900D02*
D03*
X02018980D02*
D03*
X02018350Y01727200D02*
D03*
X01994850D02*
D03*
X00964250Y01123950D02*
D03*
X00940750D02*
D03*
X01378900Y01181100D02*
D03*
X01402400D02*
D03*
X01429700D02*
D03*
X01453200D02*
D03*
X01517330Y01282700D02*
D03*
X01540830D02*
D03*
X01505270Y01346200D02*
D03*
X01481770D02*
D03*
X01453200D02*
D03*
X01429700D02*
D03*
X01408750D02*
D03*
X01385250D02*
D03*
X01296350Y01141730D02*
D03*
X01319850D02*
D03*
D130*
X02003980Y01756410D02*
D03*
X01955880D02*
D03*
D131*
X01586100Y01498600D02*
D03*
Y01485900D02*
D03*
Y01473200D02*
D03*
Y01460500D02*
D03*
Y01447800D02*
D03*
Y01435100D02*
D03*
Y01422400D02*
D03*
X01538100Y01498600D02*
D03*
Y01485900D02*
D03*
Y01473200D02*
D03*
Y01460500D02*
D03*
Y01447800D02*
D03*
Y01435100D02*
D03*
Y01422400D02*
D03*
D133*
X00699200Y00866800D02*
D03*
Y00885800D02*
D03*
X00723200Y00876300D02*
D03*
X00654750Y00885850D02*
D03*
Y00904850D02*
D03*
X00678750Y00895350D02*
D03*
Y00866750D02*
D03*
Y00847750D02*
D03*
X00654750Y00857250D02*
D03*
X01429450Y00323850D02*
D03*
X01453450Y00314350D02*
D03*
Y00333350D02*
D03*
D152*
X00590550Y01701800D02*
D03*
Y01619250D02*
D03*
X00711200Y01701800D02*
D03*
Y01619250D02*
D03*
X01545900Y00553400D02*
D03*
X01425900D02*
D03*
X01749100D02*
D03*
X01629100D02*
D03*
X00838200Y00622300D02*
D03*
Y00647700D02*
D03*
X01655850Y00730250D02*
D03*
X01336350Y00553400D02*
D03*
X01216350D02*
D03*
X01133150D02*
D03*
X01013150D02*
D03*
X01452650Y00736600D02*
D03*
X01243100D02*
D03*
X01033550D02*
D03*
X01041400Y01492250D02*
D03*
Y01466850D02*
D03*
D153*
X00749300Y00647300D02*
D03*
X01308092Y00920750D02*
D03*
X01193792D02*
D03*
X01054092Y00844550D02*
D03*
X01250942Y00920750D02*
D03*
X00965192D02*
D03*
X01365242D02*
D03*
X01536700D02*
D03*
X01397000Y00844550D02*
D03*
X01454150D02*
D03*
X01111250D02*
D03*
X01022350Y00920750D02*
D03*
X01568450Y00844550D02*
D03*
X01625600D02*
D03*
X01682750D02*
D03*
X01765300Y00920750D02*
D03*
D154*
X00749300Y00597300D02*
D03*
X00653650Y00622300D02*
D03*
X01282692Y00920750D02*
D03*
X01308092Y00844550D02*
D03*
X01282692D02*
D03*
X01809750Y01339850D02*
D03*
Y01314450D02*
D03*
X01885950Y01339850D02*
D03*
X01809750Y01371600D02*
D03*
X01885950Y01397000D02*
D03*
Y01371600D02*
D03*
X01809750Y01282700D02*
D03*
Y01257300D02*
D03*
X01885950Y01282700D02*
D03*
X01168392Y00920750D02*
D03*
X01193792Y00844550D02*
D03*
X01168392D02*
D03*
X01079492Y00920750D02*
D03*
X01054092D02*
D03*
X01079492Y00844550D02*
D03*
X01225542Y00920750D02*
D03*
X01250942Y00844550D02*
D03*
X01225542D02*
D03*
X00939792D02*
D03*
X00965192D02*
D03*
X00939792Y00920750D02*
D03*
X01339842D02*
D03*
X01365242Y00844550D02*
D03*
X01339842D02*
D03*
X01809750Y01219200D02*
D03*
Y01193800D02*
D03*
X01885950Y01219200D02*
D03*
X01809750Y01136650D02*
D03*
X01885950Y01162050D02*
D03*
Y01136650D02*
D03*
X01511300Y00844550D02*
D03*
X01536700D02*
D03*
X01511300Y00920750D02*
D03*
X01885950Y00990600D02*
D03*
X01809750Y00965200D02*
D03*
Y00990600D02*
D03*
X01422400Y00920750D02*
D03*
X01397000D02*
D03*
X01422400Y00844550D02*
D03*
X01479550D02*
D03*
X01454150Y00920750D02*
D03*
X01479550D02*
D03*
X01136650D02*
D03*
X01111250D02*
D03*
X01136650Y00844550D02*
D03*
X01543050Y01771650D02*
D03*
X01517650D02*
D03*
X01492250D02*
D03*
X01657350D02*
D03*
X01631950D02*
D03*
X01606550D02*
D03*
X00895350Y00441960D02*
D03*
X00819150Y00459740D02*
D03*
X00730250Y00441960D02*
D03*
X00654050Y00459740D02*
D03*
X01885950Y01022350D02*
D03*
Y01047750D02*
D03*
X01809750Y01022350D02*
D03*
X00996950Y00920750D02*
D03*
X01022350Y00844550D02*
D03*
X00996950D02*
D03*
X01593850D02*
D03*
X01568450Y00920750D02*
D03*
X01593850D02*
D03*
X01651000Y00844550D02*
D03*
X01625600Y00920750D02*
D03*
X01651000D02*
D03*
X01708150D02*
D03*
X01682750D02*
D03*
X01708150Y00844550D02*
D03*
X01739900D02*
D03*
X01765300D02*
D03*
X01739900Y00920750D02*
D03*
X01885950Y01104900D02*
D03*
X01809750Y01079500D02*
D03*
Y01104900D02*
D03*
X00825900Y01530350D02*
D03*
X00761600D02*
D03*
Y01422400D02*
D03*
X00750050Y00756920D02*
D03*
X00577850Y00889000D02*
D03*
X00787400Y00558800D02*
D03*
X00597490Y00535260D02*
D03*
X01073150Y00419100D02*
D03*
X00848360Y01680210D02*
D03*
X00999490Y01403350D02*
D03*
D155*
X00603650Y00622300D02*
D03*
X01885950Y01314450D02*
D03*
X01809750Y01397000D02*
D03*
X01885950Y01257300D02*
D03*
Y01193800D02*
D03*
X01809750Y01162050D02*
D03*
X01885950Y00965200D02*
D03*
X01809750Y01047750D02*
D03*
X01885950Y01079500D02*
D03*
X00875900Y01530350D02*
D03*
X00711600D02*
D03*
Y01422400D02*
D03*
X00685050Y00756920D02*
D03*
D156*
X01545900Y00675400D02*
D03*
X01425900D02*
D03*
X01485900Y00533400D02*
D03*
X01749100Y00675400D02*
D03*
X01629100D02*
D03*
X01689100Y00533400D02*
D03*
X01336350Y00675400D02*
D03*
X01216350D02*
D03*
X01276350Y00533400D02*
D03*
X01133150Y00675400D02*
D03*
X01013150D02*
D03*
X01073150Y00533400D02*
D03*
D157*
X00838200Y00596900D02*
D03*
X01041400Y01441450D02*
D03*
D158*
X01760450Y00730250D02*
D03*
X01557250Y00736600D02*
D03*
X01347700D02*
D03*
X01138150D02*
D03*
D159*
X01644650Y01294400D02*
D03*
D160*
Y01245600D02*
D03*
D161*
X00575000Y01775000D02*
D03*
X02375000D02*
D03*
X00575000Y00325000D02*
D03*
X02375000D02*
D03*
D162*
X00698500Y00393700D02*
D03*
X00800100D02*
D03*
X00749300D02*
D03*
X00850900D02*
D03*
X00635000Y01549400D02*
D03*
Y01447800D02*
D03*
Y01498600D02*
D03*
Y01397000D02*
D03*
X02336800Y01676400D02*
D03*
Y01625600D02*
D03*
Y01320800D02*
D03*
Y01422400D02*
D03*
Y01371600D02*
D03*
Y01473200D02*
D03*
Y01524000D02*
D03*
Y01574800D02*
D03*
Y01250950D02*
D03*
Y01149350D02*
D03*
Y01200150D02*
D03*
Y01098550D02*
D03*
D163*
X01628380Y00371120D02*
D03*
X01153180Y00414020D02*
D03*
X01606780Y00371120D02*
D03*
X01585180D02*
D03*
X01563580D02*
D03*
X01541980D02*
D03*
X01520380D02*
D03*
X01498780D02*
D03*
X01477180D02*
D03*
X01455580D02*
D03*
X01433980D02*
D03*
X01412380D02*
D03*
X01390780D02*
D03*
X01369180D02*
D03*
X01347580D02*
D03*
X01325980D02*
D03*
X01304380D02*
D03*
X01282780D02*
D03*
X01261180D02*
D03*
X01239580D02*
D03*
X01217980D02*
D03*
X01196380D02*
D03*
X01174780D02*
D03*
X01153180D02*
D03*
X01131580D02*
D03*
X01109980D02*
D03*
X01628380Y00414020D02*
D03*
X01606780D02*
D03*
X01585180D02*
D03*
X01563580D02*
D03*
X01541980D02*
D03*
X01520380D02*
D03*
X01498780D02*
D03*
X01477180D02*
D03*
X01455580D02*
D03*
X01433980D02*
D03*
X01412380D02*
D03*
X01390780D02*
D03*
X01369180D02*
D03*
X01347580D02*
D03*
X01325980D02*
D03*
X01304380D02*
D03*
X01282780D02*
D03*
X01261180D02*
D03*
X01239580D02*
D03*
X01217980D02*
D03*
X01196380D02*
D03*
X01174780D02*
D03*
X01109980D02*
D03*
X01131580D02*
D03*
D164*
X00994680Y00392570D02*
D03*
X01743680D02*
D03*
D165*
X01231900Y01016000D02*
D03*
D166*
Y01041400D02*
D03*
X01257300Y01016000D02*
D03*
Y01041400D02*
D03*
X01282700Y01016000D02*
D03*
Y01041400D02*
D03*
X01308100Y01016000D02*
D03*
Y01041400D02*
D03*
X01333500Y01016000D02*
D03*
Y01041400D02*
D03*
D167*
X01004570Y01532890D02*
D03*
X01023620Y01656810D02*
D03*
D168*
X02273300Y01270000D02*
D03*
X02114550Y01148080D02*
D03*
D169*
X00609600Y00927650D02*
D03*
Y00917650D02*
D03*
Y00907650D02*
D03*
Y00897650D02*
D03*
Y00887650D02*
D03*
Y00877650D02*
D03*
Y00867650D02*
D03*
Y00857650D02*
D03*
Y00847650D02*
D03*
Y00837650D02*
D03*
D170*
X00586100Y00806150D02*
D03*
Y00959150D02*
D03*
D171*
X02042160Y01032590D02*
D03*
Y01080690D02*
D03*
X02020570Y01330880D02*
D03*
Y01282780D02*
D03*
X02025650Y01556940D02*
D03*
Y01508840D02*
D03*
M02*
