G75*
%MOIN*%
%OFA0B0*%
%FSLAX24Y24*%
%IPPOS*%
%LPD*%
%AMOC8*
5,1,8,0,0,1.08239X$1,22.5*
%
%ADD10C,0.0080*%
%ADD11C,0.0050*%
%ADD12C,0.0060*%
%ADD13C,0.0100*%
%ADD14C,0.0040*%
%ADD15C,0.0010*%
%ADD16C,0.0070*%
D10*
X000180Y000330D02*
X007180Y000330D01*
X007180Y015330D01*
X000180Y015330D01*
X000180Y000330D01*
D11*
X002355Y004724D02*
X002805Y004724D01*
X002805Y005024D01*
X002730Y005184D02*
X002805Y005259D01*
X002805Y005409D01*
X002730Y005484D01*
X002655Y005484D01*
X002580Y005409D01*
X002580Y005259D01*
X002505Y005184D01*
X002430Y005184D01*
X002355Y005259D01*
X002355Y005409D01*
X002430Y005484D01*
X002430Y005645D02*
X002355Y005720D01*
X002355Y005870D01*
X002430Y005945D01*
X002505Y005945D01*
X002805Y005645D01*
X002805Y005945D01*
X002880Y005334D02*
X002280Y005334D01*
X002355Y005024D02*
X002355Y004724D01*
X002580Y004724D02*
X002580Y004874D01*
X004055Y005305D02*
X004055Y005455D01*
X004055Y005380D02*
X004505Y005380D01*
X004505Y005305D02*
X004505Y005455D01*
X004430Y005612D02*
X004505Y005687D01*
X004505Y005837D01*
X004430Y005912D01*
X004505Y006072D02*
X004505Y006373D01*
X004505Y006222D02*
X004055Y006222D01*
X004205Y006072D01*
X004130Y005912D02*
X004055Y005837D01*
X004055Y005687D01*
X004130Y005612D01*
X004430Y005612D01*
X005980Y010455D02*
X005935Y010500D01*
X005935Y010590D01*
X005980Y010635D01*
X006070Y010635D02*
X006070Y010545D01*
X006070Y010635D02*
X006160Y010635D01*
X006205Y010590D01*
X006205Y010500D01*
X006160Y010455D01*
X005980Y010455D01*
X005935Y010750D02*
X006205Y010930D01*
X005935Y010930D01*
X005935Y011044D02*
X005935Y011179D01*
X005980Y011224D01*
X006160Y011224D01*
X006205Y011179D01*
X006205Y011044D01*
X005935Y011044D01*
X005935Y010750D02*
X006205Y010750D01*
D12*
X006060Y012250D02*
X004810Y012250D01*
X004580Y011930D01*
X002780Y011930D01*
X002550Y012250D01*
X001300Y012250D01*
X001050Y012500D01*
X001050Y014760D01*
X001300Y015010D01*
X002570Y015010D01*
X002780Y015330D01*
X004580Y015330D01*
X004810Y015010D01*
X006060Y015010D01*
X006310Y014760D01*
X006310Y012500D01*
X006060Y012250D01*
X002916Y008448D02*
X002916Y008212D01*
X002444Y008212D02*
X002444Y008448D01*
X002562Y010594D02*
X002798Y010594D01*
X002798Y011066D02*
X002562Y011066D01*
X005280Y005375D02*
X005280Y005217D01*
X005280Y004443D02*
X005280Y004217D01*
X005830Y003505D02*
X005779Y003468D01*
X005726Y003433D01*
X005670Y003401D01*
X005613Y003373D01*
X005554Y003349D01*
X005494Y003328D01*
X005433Y003311D01*
X005371Y003297D01*
X005308Y003288D01*
X005245Y003282D01*
X005181Y003280D01*
X005117Y003282D01*
X005054Y003288D01*
X004991Y003297D01*
X004929Y003310D01*
X004868Y003328D01*
X004808Y003348D01*
X004749Y003373D01*
X004692Y003400D01*
X004636Y003432D01*
X004583Y003466D01*
X004532Y003504D01*
X004483Y003545D01*
X004437Y003589D01*
X004393Y003635D01*
X004352Y003684D01*
X004315Y003735D01*
X004280Y003789D01*
X004249Y003844D01*
X004221Y003901D01*
X004197Y003960D01*
X004177Y004020D01*
X004177Y004640D02*
X004197Y004700D01*
X004221Y004759D01*
X004249Y004816D01*
X004280Y004871D01*
X004315Y004925D01*
X004352Y004976D01*
X004393Y005025D01*
X004437Y005071D01*
X004483Y005115D01*
X004532Y005156D01*
X004583Y005194D01*
X004636Y005228D01*
X004692Y005260D01*
X004749Y005287D01*
X004808Y005312D01*
X004868Y005332D01*
X004929Y005350D01*
X004991Y005363D01*
X005054Y005372D01*
X005117Y005378D01*
X005181Y005380D01*
X005245Y005378D01*
X005308Y005372D01*
X005371Y005363D01*
X005433Y005349D01*
X005494Y005332D01*
X005554Y005311D01*
X005613Y005287D01*
X005670Y005259D01*
X005726Y005227D01*
X005779Y005192D01*
X005830Y005155D01*
X005830Y003505D01*
X005280Y003443D02*
X005280Y003285D01*
D13*
X005180Y003080D02*
X005180Y002330D01*
X002180Y002330D01*
X002180Y003080D01*
X005180Y003080D01*
X005180Y002330D02*
X005180Y000580D01*
X002180Y000580D01*
X002180Y002330D01*
X002490Y006210D02*
X002690Y006210D01*
X001850Y006210D02*
X001670Y006210D01*
D14*
X002688Y003770D02*
X002688Y003290D01*
X002628Y003350D02*
X002748Y003350D01*
X002809Y003410D01*
X002809Y003470D01*
X002748Y003530D01*
X002628Y003530D01*
X002568Y003590D01*
X002568Y003650D01*
X002628Y003710D01*
X002748Y003710D01*
X002809Y003650D01*
X002937Y003590D02*
X003057Y003710D01*
X003057Y003350D01*
X002937Y003350D02*
X003177Y003350D01*
X002628Y003350D02*
X002568Y003410D01*
X002440Y003350D02*
X002200Y003350D01*
X002200Y003710D01*
X002440Y003710D01*
X002320Y003530D02*
X002200Y003530D01*
D15*
X003024Y006835D02*
X002934Y006835D01*
X002935Y006835D02*
X002933Y006889D01*
X002927Y006942D01*
X002917Y006995D01*
X002903Y007047D01*
X002886Y007098D01*
X002865Y007147D01*
X002841Y007195D01*
X002813Y007241D01*
X002782Y007285D01*
X002748Y007327D01*
X002712Y007366D01*
X002672Y007403D01*
X002630Y007436D01*
X002586Y007467D01*
X002540Y007494D01*
X002582Y007573D01*
X002631Y007545D01*
X002677Y007513D01*
X002722Y007478D01*
X002764Y007441D01*
X002804Y007400D01*
X002840Y007357D01*
X002874Y007312D01*
X002905Y007265D01*
X002932Y007215D01*
X002956Y007164D01*
X002977Y007112D01*
X002994Y007058D01*
X003007Y007003D01*
X003017Y006948D01*
X003023Y006891D01*
X003025Y006835D01*
X003016Y006835D01*
X003014Y006891D01*
X003008Y006946D01*
X002998Y007001D01*
X002985Y007056D01*
X002968Y007109D01*
X002948Y007161D01*
X002924Y007211D01*
X002897Y007260D01*
X002867Y007307D01*
X002833Y007352D01*
X002797Y007394D01*
X002758Y007434D01*
X002716Y007471D01*
X002672Y007506D01*
X002626Y007537D01*
X002578Y007565D01*
X002574Y007557D01*
X002621Y007529D01*
X002667Y007498D01*
X002710Y007464D01*
X002752Y007428D01*
X002790Y007388D01*
X002826Y007346D01*
X002859Y007302D01*
X002889Y007256D01*
X002916Y007207D01*
X002939Y007157D01*
X002960Y007106D01*
X002976Y007053D01*
X002989Y007000D01*
X002999Y006945D01*
X003005Y006890D01*
X003007Y006835D01*
X002998Y006835D01*
X002996Y006890D01*
X002990Y006944D01*
X002981Y006998D01*
X002968Y007051D01*
X002951Y007103D01*
X002931Y007154D01*
X002908Y007203D01*
X002881Y007251D01*
X002852Y007297D01*
X002819Y007341D01*
X002784Y007382D01*
X002745Y007421D01*
X002705Y007458D01*
X002662Y007491D01*
X002616Y007522D01*
X002569Y007549D01*
X002565Y007541D01*
X002612Y007514D01*
X002656Y007484D01*
X002699Y007451D01*
X002739Y007415D01*
X002777Y007376D01*
X002812Y007335D01*
X002844Y007292D01*
X002874Y007246D01*
X002900Y007199D01*
X002923Y007150D01*
X002943Y007100D01*
X002959Y007048D01*
X002972Y006996D01*
X002981Y006943D01*
X002987Y006889D01*
X002989Y006835D01*
X002980Y006835D01*
X002978Y006888D01*
X002972Y006941D01*
X002963Y006994D01*
X002950Y007046D01*
X002934Y007097D01*
X002915Y007147D01*
X002892Y007195D01*
X002866Y007242D01*
X002837Y007286D01*
X002805Y007329D01*
X002770Y007370D01*
X002733Y007408D01*
X002693Y007444D01*
X002651Y007477D01*
X002607Y007507D01*
X002561Y007534D01*
X002557Y007526D01*
X002602Y007499D01*
X002646Y007469D01*
X002687Y007437D01*
X002727Y007402D01*
X002764Y007364D01*
X002798Y007324D01*
X002830Y007281D01*
X002858Y007237D01*
X002884Y007191D01*
X002906Y007143D01*
X002926Y007094D01*
X002942Y007044D01*
X002954Y006992D01*
X002963Y006940D01*
X002969Y006888D01*
X002971Y006835D01*
X002962Y006835D01*
X002960Y006891D01*
X002953Y006946D01*
X002943Y007001D01*
X002929Y007055D01*
X002911Y007107D01*
X002890Y007159D01*
X002864Y007208D01*
X002836Y007256D01*
X002804Y007302D01*
X002769Y007345D01*
X002731Y007385D01*
X002690Y007423D01*
X002646Y007458D01*
X002600Y007489D01*
X002552Y007518D01*
X002548Y007510D01*
X002596Y007482D01*
X002641Y007451D01*
X002684Y007416D01*
X002724Y007379D01*
X002762Y007339D01*
X002797Y007296D01*
X002828Y007251D01*
X002857Y007204D01*
X002881Y007155D01*
X002903Y007104D01*
X002920Y007052D01*
X002934Y006999D01*
X002944Y006945D01*
X002951Y006890D01*
X002953Y006835D01*
X002944Y006835D01*
X002942Y006889D01*
X002936Y006943D01*
X002926Y006997D01*
X002912Y007049D01*
X002894Y007101D01*
X002873Y007151D01*
X002849Y007200D01*
X002821Y007246D01*
X002789Y007291D01*
X002755Y007333D01*
X002718Y007372D01*
X002678Y007409D01*
X002636Y007443D01*
X002591Y007474D01*
X002544Y007502D01*
X002350Y008035D02*
X002350Y008135D01*
X002325Y008182D02*
X002350Y008207D01*
X002350Y008257D01*
X002325Y008282D01*
X002300Y008282D01*
X002275Y008257D01*
X002275Y008207D01*
X002250Y008182D01*
X002225Y008182D01*
X002200Y008207D01*
X002200Y008257D01*
X002225Y008282D01*
X002225Y008330D02*
X002200Y008355D01*
X002200Y008405D01*
X002225Y008430D01*
X002250Y008430D01*
X002275Y008405D01*
X002300Y008430D01*
X002325Y008430D01*
X002350Y008405D01*
X002350Y008355D01*
X002325Y008330D01*
X002275Y008380D02*
X002275Y008405D01*
X002175Y008232D02*
X002375Y008232D01*
X002275Y008085D02*
X002275Y008035D01*
X002200Y008035D02*
X002350Y008035D01*
X002200Y008035D02*
X002200Y008135D01*
X001757Y007561D02*
X001802Y007483D01*
X001801Y007483D02*
X001757Y007455D01*
X001715Y007424D01*
X001675Y007391D01*
X001637Y007355D01*
X001602Y007316D01*
X001570Y007275D01*
X001540Y007231D01*
X001514Y007186D01*
X001491Y007139D01*
X001471Y007091D01*
X001455Y007041D01*
X001442Y006991D01*
X001433Y006939D01*
X001427Y006887D01*
X001425Y006835D01*
X001336Y006834D01*
X001335Y006835D01*
X001337Y006890D01*
X001343Y006944D01*
X001352Y006999D01*
X001365Y007052D01*
X001381Y007104D01*
X001400Y007156D01*
X001423Y007206D01*
X001449Y007254D01*
X001478Y007301D01*
X001510Y007345D01*
X001545Y007388D01*
X001583Y007428D01*
X001623Y007465D01*
X001665Y007500D01*
X001710Y007532D01*
X001756Y007561D01*
X001761Y007553D01*
X001715Y007525D01*
X001671Y007493D01*
X001629Y007458D01*
X001589Y007421D01*
X001552Y007382D01*
X001517Y007340D01*
X001486Y007296D01*
X001457Y007250D01*
X001431Y007202D01*
X001409Y007152D01*
X001389Y007102D01*
X001373Y007050D01*
X001361Y006997D01*
X001352Y006943D01*
X001346Y006889D01*
X001344Y006835D01*
X001353Y006835D01*
X001355Y006889D01*
X001361Y006942D01*
X001370Y006995D01*
X001382Y007047D01*
X001398Y007099D01*
X001417Y007149D01*
X001439Y007198D01*
X001465Y007245D01*
X001493Y007291D01*
X001525Y007334D01*
X001559Y007376D01*
X001595Y007415D01*
X001635Y007452D01*
X001676Y007486D01*
X001720Y007517D01*
X001765Y007546D01*
X001770Y007538D01*
X001722Y007508D01*
X001676Y007474D01*
X001633Y007438D01*
X001592Y007398D01*
X001554Y007356D01*
X001519Y007312D01*
X001487Y007265D01*
X001459Y007216D01*
X001434Y007165D01*
X001412Y007112D01*
X001395Y007059D01*
X001381Y007004D01*
X001371Y006948D01*
X001364Y006892D01*
X001362Y006835D01*
X001371Y006835D01*
X001373Y006891D01*
X001379Y006947D01*
X001389Y007002D01*
X001403Y007056D01*
X001421Y007109D01*
X001442Y007161D01*
X001467Y007212D01*
X001495Y007260D01*
X001526Y007306D01*
X001561Y007351D01*
X001598Y007392D01*
X001639Y007431D01*
X001681Y007467D01*
X001727Y007500D01*
X001774Y007530D01*
X001779Y007522D01*
X001732Y007493D01*
X001687Y007460D01*
X001645Y007424D01*
X001605Y007386D01*
X001568Y007345D01*
X001533Y007301D01*
X001502Y007255D01*
X001475Y007207D01*
X001450Y007158D01*
X001429Y007106D01*
X001412Y007054D01*
X001398Y007000D01*
X001388Y006945D01*
X001382Y006890D01*
X001380Y006835D01*
X001389Y006835D01*
X001391Y006890D01*
X001397Y006944D01*
X001407Y006998D01*
X001421Y007051D01*
X001438Y007103D01*
X001458Y007154D01*
X001483Y007203D01*
X001510Y007250D01*
X001541Y007296D01*
X001574Y007339D01*
X001611Y007380D01*
X001651Y007418D01*
X001693Y007453D01*
X001737Y007485D01*
X001783Y007514D01*
X001788Y007506D01*
X001742Y007478D01*
X001698Y007446D01*
X001657Y007411D01*
X001618Y007373D01*
X001581Y007333D01*
X001548Y007291D01*
X001518Y007246D01*
X001490Y007199D01*
X001467Y007150D01*
X001446Y007100D01*
X001429Y007049D01*
X001416Y006996D01*
X001406Y006943D01*
X001400Y006889D01*
X001398Y006835D01*
X001407Y006835D01*
X001409Y006888D01*
X001415Y006942D01*
X001425Y006994D01*
X001438Y007046D01*
X001455Y007097D01*
X001475Y007147D01*
X001498Y007195D01*
X001525Y007241D01*
X001555Y007285D01*
X001588Y007327D01*
X001624Y007367D01*
X001663Y007404D01*
X001704Y007439D01*
X001747Y007470D01*
X001792Y007499D01*
X001797Y007491D01*
X001752Y007463D01*
X001709Y007432D01*
X001669Y007398D01*
X001631Y007361D01*
X001595Y007322D01*
X001563Y007280D01*
X001533Y007236D01*
X001506Y007190D01*
X001483Y007143D01*
X001463Y007094D01*
X001446Y007044D01*
X001433Y006992D01*
X001424Y006940D01*
X001418Y006888D01*
X001416Y006835D01*
X001336Y006826D02*
X001426Y006826D01*
X001425Y006825D02*
X001427Y006771D01*
X001433Y006718D01*
X001443Y006665D01*
X001457Y006613D01*
X001474Y006562D01*
X001495Y006512D01*
X001519Y006464D01*
X001547Y006418D01*
X001578Y006374D01*
X001612Y006333D01*
X001649Y006293D01*
X001688Y006257D01*
X001631Y006189D01*
X001630Y006188D01*
X001589Y006226D01*
X001551Y006266D01*
X001515Y006309D01*
X001482Y006354D01*
X001452Y006401D01*
X001426Y006449D01*
X001402Y006500D01*
X001382Y006552D01*
X001366Y006605D01*
X001352Y006659D01*
X001343Y006714D01*
X001337Y006769D01*
X001335Y006825D01*
X001344Y006825D01*
X001346Y006770D01*
X001352Y006715D01*
X001361Y006661D01*
X001374Y006607D01*
X001391Y006555D01*
X001410Y006503D01*
X001434Y006453D01*
X001460Y006405D01*
X001490Y006359D01*
X001522Y006314D01*
X001557Y006272D01*
X001596Y006232D01*
X001636Y006195D01*
X001642Y006202D01*
X001602Y006239D01*
X001564Y006278D01*
X001529Y006320D01*
X001497Y006364D01*
X001468Y006410D01*
X001442Y006458D01*
X001419Y006507D01*
X001399Y006558D01*
X001383Y006610D01*
X001370Y006663D01*
X001361Y006716D01*
X001355Y006771D01*
X001353Y006825D01*
X001362Y006825D01*
X001364Y006771D01*
X001370Y006718D01*
X001379Y006665D01*
X001392Y006612D01*
X001408Y006561D01*
X001427Y006510D01*
X001450Y006462D01*
X001475Y006414D01*
X001504Y006369D01*
X001536Y006325D01*
X001571Y006284D01*
X001608Y006245D01*
X001648Y006209D01*
X001654Y006216D01*
X001614Y006252D01*
X001577Y006290D01*
X001543Y006331D01*
X001512Y006374D01*
X001483Y006419D01*
X001458Y006466D01*
X001435Y006514D01*
X001416Y006564D01*
X001400Y006615D01*
X001388Y006666D01*
X001379Y006719D01*
X001373Y006772D01*
X001371Y006825D01*
X001380Y006825D01*
X001382Y006772D01*
X001388Y006720D01*
X001397Y006668D01*
X001409Y006617D01*
X001425Y006567D01*
X001444Y006517D01*
X001466Y006470D01*
X001491Y006423D01*
X001519Y006379D01*
X001550Y006337D01*
X001584Y006296D01*
X001621Y006258D01*
X001659Y006223D01*
X001665Y006229D01*
X001627Y006265D01*
X001591Y006302D01*
X001557Y006342D01*
X001527Y006384D01*
X001499Y006428D01*
X001474Y006474D01*
X001452Y006521D01*
X001433Y006570D01*
X001418Y006619D01*
X001405Y006670D01*
X001397Y006721D01*
X001391Y006773D01*
X001389Y006825D01*
X001398Y006825D01*
X001400Y006769D01*
X001407Y006714D01*
X001417Y006659D01*
X001431Y006605D01*
X001449Y006552D01*
X001471Y006501D01*
X001496Y006451D01*
X001525Y006403D01*
X001557Y006358D01*
X001592Y006315D01*
X001630Y006274D01*
X001671Y006236D01*
X001677Y006243D01*
X001636Y006280D01*
X001599Y006321D01*
X001564Y006363D01*
X001532Y006408D01*
X001504Y006456D01*
X001479Y006505D01*
X001457Y006556D01*
X001440Y006608D01*
X001426Y006661D01*
X001416Y006715D01*
X001409Y006770D01*
X001407Y006825D01*
X001416Y006825D01*
X001418Y006771D01*
X001424Y006717D01*
X001434Y006663D01*
X001448Y006610D01*
X001466Y006559D01*
X001487Y006509D01*
X001512Y006460D01*
X001540Y006413D01*
X001571Y006369D01*
X001605Y006327D01*
X001643Y006287D01*
X001683Y006250D01*
X002724Y006185D02*
X002667Y006254D01*
X002667Y006253D02*
X002707Y006290D01*
X002745Y006329D01*
X002779Y006371D01*
X002811Y006415D01*
X002839Y006461D01*
X002864Y006510D01*
X002885Y006560D01*
X002903Y006611D01*
X002916Y006664D01*
X002926Y006717D01*
X002933Y006771D01*
X002935Y006825D01*
X003024Y006826D01*
X003025Y006825D01*
X003023Y006769D01*
X003017Y006713D01*
X003007Y006658D01*
X002994Y006603D01*
X002977Y006550D01*
X002957Y006497D01*
X002933Y006446D01*
X002906Y006397D01*
X002875Y006350D01*
X002842Y006305D01*
X002806Y006262D01*
X002767Y006222D01*
X002725Y006184D01*
X002719Y006191D01*
X002760Y006228D01*
X002799Y006268D01*
X002835Y006310D01*
X002868Y006355D01*
X002898Y006402D01*
X002925Y006450D01*
X002948Y006501D01*
X002969Y006553D01*
X002985Y006606D01*
X002998Y006660D01*
X003008Y006714D01*
X003014Y006769D01*
X003016Y006825D01*
X003007Y006825D01*
X003005Y006770D01*
X002999Y006715D01*
X002990Y006661D01*
X002977Y006608D01*
X002960Y006556D01*
X002940Y006504D01*
X002917Y006455D01*
X002890Y006406D01*
X002861Y006360D01*
X002828Y006316D01*
X002792Y006274D01*
X002754Y006235D01*
X002713Y006198D01*
X002708Y006205D01*
X002748Y006241D01*
X002786Y006280D01*
X002821Y006322D01*
X002853Y006365D01*
X002883Y006411D01*
X002909Y006459D01*
X002932Y006508D01*
X002952Y006558D01*
X002968Y006610D01*
X002981Y006663D01*
X002990Y006717D01*
X002996Y006771D01*
X002998Y006825D01*
X002989Y006825D01*
X002987Y006771D01*
X002981Y006718D01*
X002972Y006665D01*
X002959Y006613D01*
X002943Y006561D01*
X002924Y006511D01*
X002901Y006463D01*
X002875Y006416D01*
X002846Y006370D01*
X002814Y006327D01*
X002779Y006286D01*
X002742Y006248D01*
X002702Y006212D01*
X002696Y006219D01*
X002735Y006254D01*
X002772Y006292D01*
X002807Y006333D01*
X002838Y006376D01*
X002867Y006420D01*
X002893Y006467D01*
X002915Y006515D01*
X002935Y006564D01*
X002951Y006615D01*
X002963Y006667D01*
X002972Y006719D01*
X002978Y006772D01*
X002980Y006825D01*
X002971Y006825D01*
X002969Y006773D01*
X002963Y006720D01*
X002954Y006669D01*
X002942Y006618D01*
X002926Y006567D01*
X002907Y006518D01*
X002885Y006471D01*
X002859Y006425D01*
X002831Y006381D01*
X002800Y006339D01*
X002766Y006298D01*
X002729Y006261D01*
X002690Y006226D01*
X002684Y006232D01*
X002723Y006267D01*
X002759Y006305D01*
X002793Y006344D01*
X002824Y006386D01*
X002852Y006430D01*
X002877Y006475D01*
X002899Y006522D01*
X002918Y006570D01*
X002933Y006620D01*
X002946Y006670D01*
X002954Y006722D01*
X002960Y006773D01*
X002962Y006825D01*
X002953Y006825D01*
X002951Y006774D01*
X002946Y006723D01*
X002937Y006672D01*
X002925Y006622D01*
X002909Y006573D01*
X002891Y006526D01*
X002869Y006479D01*
X002844Y006434D01*
X002816Y006391D01*
X002786Y006350D01*
X002753Y006311D01*
X002717Y006274D01*
X002679Y006239D01*
X002673Y006246D01*
X002714Y006283D01*
X002752Y006323D01*
X002786Y006365D01*
X002818Y006410D01*
X002847Y006457D01*
X002872Y006506D01*
X002893Y006557D01*
X002911Y006608D01*
X002925Y006662D01*
X002935Y006716D01*
X002942Y006770D01*
X002944Y006825D01*
X002740Y010325D02*
X002740Y010525D01*
X002715Y010500D02*
X002765Y010500D01*
X002790Y010475D01*
X002838Y010500D02*
X002838Y010425D01*
X002888Y010450D01*
X002913Y010450D01*
X002938Y010425D01*
X002938Y010375D01*
X002913Y010350D01*
X002863Y010350D01*
X002838Y010375D01*
X002790Y010375D02*
X002790Y010400D01*
X002765Y010425D01*
X002715Y010425D01*
X002690Y010450D01*
X002690Y010475D01*
X002715Y010500D01*
X002643Y010500D02*
X002543Y010500D01*
X002543Y010350D01*
X002643Y010350D01*
X002690Y010375D02*
X002715Y010350D01*
X002765Y010350D01*
X002790Y010375D01*
X002838Y010500D02*
X002938Y010500D01*
X002593Y010425D02*
X002543Y010425D01*
D16*
X006609Y013586D02*
X007450Y013586D01*
X007345Y013481D02*
X007345Y013691D01*
X007240Y013796D01*
X007135Y013796D01*
X007030Y013691D01*
X007030Y013481D01*
X006925Y013376D01*
X006820Y013376D01*
X006714Y013481D01*
X006714Y013691D01*
X006820Y013796D01*
X007030Y014020D02*
X007030Y014441D01*
X006714Y014336D02*
X007030Y014020D01*
X007345Y014336D02*
X006714Y014336D01*
X007345Y013481D02*
X007240Y013376D01*
X007345Y013152D02*
X007345Y012731D01*
X006714Y012731D01*
X006714Y013152D01*
X007030Y012942D02*
X007030Y012731D01*
M02*
