M48
;Layer_Color=9474304
;FILE_FORMAT=2:4
INCH,LZ
;TYPE=PLATED
T1F00S00C0.0100
T2F00S00C0.0150
T3F00S00C0.0335
T4F00S00C0.0350
%
T01
X-001689Y-05663
X039409Y-021925
X039458Y-020771
X001437Y-004793
X000965Y-004793
X000492
X001909Y-004793
X002382Y-004793
X002854
X003327
X0042Y-004507
X00462Y-004367
X00502Y-004197
X00562Y-003827
X006Y-002807
X00638Y-002817
X00679Y-002787
X00718Y-002827
X00757Y-002817
X00797Y-002847
X00777Y-002097
X00817Y-002087
X00837Y-001867
X00796
X00541Y-001927
X00501Y-001937
X00462Y-001967
X00423Y-001947
X00383Y-002297
X003839Y-002668
X003445Y-002662
X003051Y-002678
X002657Y-002669
X00227Y-002637
X00186Y-002667
Y-000797
X00228Y-000607
X00269Y-000337
X0035Y-000667
X00344Y-002007
X00298Y-001887
X00687Y-004837
X00733
X0078Y-004847
X00825
X00869
X00912Y-004857
T02
X-001231Y-057124
X-000231
X000769
X000269Y-056624
X-000731
X001269
X001769Y-057124
X002769
X003269Y-056624
X003769Y-057124
X004269Y-056624
X002269
X006519
X007019Y-057124
X008019
X009019
X008519Y-056624
X007519
X00837Y-002827
X009618Y-001394
X009978Y-001384
T03
X038927Y-022722
X043927
Y-019494
X038927
T04
X001143Y-065412
X000938Y-06412
X001143Y-062828
X001736Y-061663
X002661Y-060738
X003826Y-060145
X003803Y-061614
X005118Y-06129
Y-06262
Y-06412
X003656Y-064454
X003945Y-063185
X002789Y-062512
X002309Y-063779
X002472Y-065124
X003241Y-066238
X004441Y-066868
X005795Y-066868
X005769Y-065472
X004467Y-065472
X00658Y-064454
X006291Y-063185
X006433Y-061614
X00641Y-060145
X005118Y-05994
X007575Y-060738
X0085Y-061663
X009093Y-062828
X009298Y-06412
X009093Y-065412
X007764Y-065124
X007927Y-063779
X007447Y-062513
X006995Y-066238
X007575Y-067502
X00641Y-068096
X005118Y-0683
X003826Y-068096
X002661Y-067502
X001736Y-066577
X0085
M30
