%FSLAX23Y23*%
%MOIN*%
G70*
G01*
G75*
G04 Layer_Color=32896*
%ADD10O,0.079X0.024*%
%ADD11R,0.017X0.045*%
%ADD12R,0.014X0.060*%
%ADD13R,0.030X0.100*%
%ADD14R,0.031X0.060*%
%ADD15R,0.022X0.085*%
%ADD16R,0.039X0.059*%
%ADD17R,0.085X0.022*%
%ADD18C,0.020*%
%ADD19C,0.010*%
%ADD20C,0.025*%
%ADD21C,0.050*%
%ADD22C,0.005*%
%ADD23C,0.012*%
%ADD24C,0.008*%
%ADD25C,0.012*%
%ADD26C,0.012*%
%ADD27C,0.059*%
%ADD28R,0.059X0.059*%
%ADD29R,0.059X0.059*%
%ADD30C,0.047*%
%ADD31C,0.219*%
%ADD32C,0.050*%
%ADD33C,0.024*%
%ADD34C,0.040*%
%ADD35C,0.075*%
%ADD36C,0.087*%
%ADD37C,0.206*%
%ADD38C,0.068*%
G04:AMPARAMS|DCode=39|XSize=88mil|YSize=88mil|CornerRadius=0mil|HoleSize=0mil|Usage=FLASHONLY|Rotation=0.000|XOffset=0mil|YOffset=0mil|HoleType=Round|Shape=Relief|Width=10mil|Gap=10mil|Entries=4|*
%AMTHD39*
7,0,0,0.088,0.068,0.010,45*
%
%ADD39THD39*%
G04:AMPARAMS|DCode=40|XSize=70mil|YSize=70mil|CornerRadius=0mil|HoleSize=0mil|Usage=FLASHONLY|Rotation=0.000|XOffset=0mil|YOffset=0mil|HoleType=Round|Shape=Relief|Width=10mil|Gap=10mil|Entries=4|*
%AMTHD40*
7,0,0,0.070,0.050,0.010,45*
%
%ADD40THD40*%
%ADD41C,0.010*%
%ADD42C,0.008*%
%ADD43C,0.007*%
%ADD44R,0.224X0.139*%
%ADD45O,0.087X0.032*%
%ADD46R,0.025X0.053*%
%ADD47R,0.022X0.068*%
%ADD48R,0.038X0.108*%
%ADD49R,0.039X0.068*%
%ADD50R,0.030X0.093*%
%ADD51R,0.047X0.067*%
%ADD52R,0.093X0.030*%
%ADD53C,0.067*%
%ADD54R,0.067X0.067*%
%ADD55R,0.067X0.067*%
%ADD56C,0.055*%
%ADD57C,0.227*%
%ADD58C,0.058*%
%ADD59C,0.032*%
D19*
X31937Y18684D02*
X31938Y18626D01*
X31605Y18534D02*
Y18751D01*
X31487Y18436D02*
Y18751D01*
X31909Y18160D02*
Y18436D01*
X31857Y18160D02*
Y18436D01*
X31621Y18160D02*
Y18436D01*
X31857D02*
X31909D01*
X31487Y18751D02*
X31605D01*
X31487Y18436D02*
X31621D01*
X31605Y18534D02*
X31936D01*
X31621Y18160D02*
X31857D01*
X31909D02*
X33522D01*
X33572D02*
X33809D01*
X33466Y18530D02*
X33825D01*
X33809Y18436D02*
X33943D01*
X33824Y18751D02*
X33943D01*
X33521Y18436D02*
X33572D01*
X33809Y18160D02*
Y18436D01*
X33572Y18160D02*
Y18436D01*
X33521Y18160D02*
Y18436D01*
X33943D02*
Y18751D01*
X33824Y18534D02*
Y18751D01*
X33825Y18530D02*
Y18747D01*
X33944Y18432D02*
Y18747D01*
X33522Y18156D02*
Y18432D01*
X33574Y18156D02*
Y18432D01*
X33810Y18156D02*
Y18432D01*
X33522D02*
X33574D01*
X33825Y18747D02*
X33944D01*
X33810Y18432D02*
X33944D01*
X33574Y18156D02*
X33810D01*
X31622D02*
X31858D01*
X31606Y18530D02*
X31937D01*
X31488Y18432D02*
X31622D01*
X31488Y18747D02*
X31606D01*
X31858Y18432D02*
X31910D01*
X31622Y18156D02*
Y18432D01*
X31858Y18156D02*
Y18432D01*
X31910Y18156D02*
Y18432D01*
X31488D02*
Y18747D01*
X31606Y18530D02*
Y18747D01*
X31937Y18684D02*
X33466D01*
Y18649D02*
Y18684D01*
D22*
X32159Y18796D02*
X32172D01*
X32165D01*
Y18762D01*
X32172Y18756D01*
X32179D01*
X32185Y18762D01*
X32145Y18756D02*
X32132D01*
X32139D01*
Y18796D01*
X32145Y18789D01*
X33724Y18665D02*
X33754D01*
Y18680D01*
X33749Y18685D01*
X33739D01*
X33734Y18680D01*
Y18665D01*
X33749Y18715D02*
X33754Y18710D01*
Y18700D01*
X33749Y18695D01*
X33729D01*
X33724Y18700D01*
Y18710D01*
X33729Y18715D01*
X33749Y18725D02*
X33754Y18730D01*
Y18740D01*
X33749Y18745D01*
X33729D01*
X33724Y18740D01*
Y18730D01*
X33729Y18725D01*
X33749D01*
X33754Y18755D02*
Y18775D01*
X33749D01*
X33729Y18755D01*
X33724D01*
X31681Y18756D02*
X31711D01*
Y18771D01*
X31706Y18776D01*
X31696D01*
X31691Y18771D01*
Y18756D01*
X31706Y18806D02*
X31711Y18801D01*
Y18791D01*
X31706Y18786D01*
X31686D01*
X31681Y18791D01*
Y18801D01*
X31686Y18806D01*
X31706Y18816D02*
X31711Y18821D01*
Y18831D01*
X31706Y18836D01*
X31686D01*
X31681Y18831D01*
Y18821D01*
X31686Y18816D01*
X31706D01*
X31681Y18846D02*
Y18856D01*
Y18851D01*
X31711D01*
X31706Y18846D01*
X31909Y18691D02*
X31895D01*
X31902D01*
Y18731D01*
X31909Y18725D01*
D23*
X31156Y16829D02*
Y16783D01*
X31137Y16817D02*
X31175Y16794D01*
Y16817D02*
X31137Y16794D01*
X31249Y16810D02*
X31245Y16817D01*
X31237Y16825D01*
X31230Y16829D01*
X31215D01*
X31207Y16825D01*
X31199Y16817D01*
X31196Y16810D01*
X31192Y16798D01*
Y16779D01*
X31196Y16768D01*
X31199Y16760D01*
X31207Y16753D01*
X31215Y16749D01*
X31230D01*
X31237Y16753D01*
X31245Y16760D01*
X31249Y16768D01*
Y16779D01*
X31230D02*
X31249D01*
X31267Y16829D02*
Y16749D01*
Y16829D02*
X31301D01*
X31313Y16825D01*
X31317Y16821D01*
X31320Y16814D01*
Y16806D01*
X31317Y16798D01*
X31313Y16794D01*
X31301Y16791D01*
X31267D02*
X31301D01*
X31313Y16787D01*
X31317Y16783D01*
X31320Y16775D01*
Y16764D01*
X31317Y16756D01*
X31313Y16753D01*
X31301Y16749D01*
X31267D01*
X31361Y16829D02*
X31354Y16825D01*
X31346Y16817D01*
X31342Y16810D01*
X31338Y16798D01*
Y16779D01*
X31342Y16768D01*
X31346Y16760D01*
X31354Y16753D01*
X31361Y16749D01*
X31376D01*
X31384Y16753D01*
X31392Y16760D01*
X31395Y16768D01*
X31399Y16779D01*
Y16798D01*
X31395Y16810D01*
X31392Y16817D01*
X31384Y16825D01*
X31376Y16829D01*
X31361D01*
X31481Y16783D02*
X31549D01*
X31636Y16829D02*
Y16749D01*
Y16829D02*
X31670D01*
X31682Y16825D01*
X31685Y16821D01*
X31689Y16814D01*
Y16806D01*
X31685Y16798D01*
X31682Y16794D01*
X31670Y16791D01*
X31636D02*
X31670D01*
X31682Y16787D01*
X31685Y16783D01*
X31689Y16775D01*
Y16764D01*
X31685Y16756D01*
X31682Y16753D01*
X31670Y16749D01*
X31636D01*
X31730Y16829D02*
X31722Y16825D01*
X31715Y16817D01*
X31711Y16810D01*
X31707Y16798D01*
Y16779D01*
X31711Y16768D01*
X31715Y16760D01*
X31722Y16753D01*
X31730Y16749D01*
X31745D01*
X31753Y16753D01*
X31760Y16760D01*
X31764Y16768D01*
X31768Y16779D01*
Y16798D01*
X31764Y16810D01*
X31760Y16817D01*
X31753Y16825D01*
X31745Y16829D01*
X31730D01*
X31813D02*
Y16749D01*
X31787Y16829D02*
X31840D01*
X31876D02*
Y16749D01*
X31849Y16829D02*
X31903D01*
X31935D02*
X31928Y16825D01*
X31920Y16817D01*
X31916Y16810D01*
X31912Y16798D01*
Y16779D01*
X31916Y16768D01*
X31920Y16760D01*
X31928Y16753D01*
X31935Y16749D01*
X31950D01*
X31958Y16753D01*
X31966Y16760D01*
X31969Y16768D01*
X31973Y16779D01*
Y16798D01*
X31969Y16810D01*
X31966Y16817D01*
X31958Y16825D01*
X31950Y16829D01*
X31935D01*
X31992D02*
Y16749D01*
Y16829D02*
X32022Y16749D01*
X32053Y16829D02*
X32022Y16749D01*
X32053Y16829D02*
Y16749D01*
X32161Y16829D02*
X32154Y16825D01*
X32146Y16817D01*
X32142Y16810D01*
X32139Y16798D01*
Y16779D01*
X32142Y16768D01*
X32146Y16760D01*
X32154Y16753D01*
X32161Y16749D01*
X32177D01*
X32184Y16753D01*
X32192Y16760D01*
X32196Y16768D01*
X32200Y16779D01*
Y16798D01*
X32196Y16810D01*
X32192Y16817D01*
X32184Y16825D01*
X32177Y16829D01*
X32161D01*
X32218D02*
X32249Y16749D01*
X32279Y16829D02*
X32249Y16749D01*
X32339Y16829D02*
X32289D01*
Y16749D01*
X32339D01*
X32289Y16791D02*
X32320D01*
X32352Y16829D02*
Y16749D01*
Y16829D02*
X32387D01*
X32398Y16825D01*
X32402Y16821D01*
X32406Y16814D01*
Y16806D01*
X32402Y16798D01*
X32398Y16794D01*
X32387Y16791D01*
X32352D01*
X32379D02*
X32406Y16749D01*
X32423Y16829D02*
Y16749D01*
X32469D01*
X32539D02*
X32508Y16829D01*
X32478Y16749D01*
X32489Y16775D02*
X32527D01*
X32558Y16829D02*
X32588Y16791D01*
Y16749D01*
X32618Y16829D02*
X32588Y16791D01*
X32749Y16810D02*
X32745Y16817D01*
X32737Y16825D01*
X32730Y16829D01*
X32714D01*
X32707Y16825D01*
X32699Y16817D01*
X32695Y16810D01*
X32692Y16798D01*
Y16779D01*
X32695Y16768D01*
X32699Y16760D01*
X32707Y16753D01*
X32714Y16749D01*
X32730D01*
X32737Y16753D01*
X32745Y16760D01*
X32749Y16768D01*
Y16779D01*
X32730D02*
X32749D01*
X32817Y16829D02*
X32767D01*
Y16749D01*
X32817D01*
X32767Y16791D02*
X32797D01*
X32830Y16829D02*
Y16749D01*
Y16829D02*
X32864D01*
X32876Y16825D01*
X32879Y16821D01*
X32883Y16814D01*
Y16806D01*
X32879Y16798D01*
X32876Y16794D01*
X32864Y16791D01*
X32830D01*
X32857D02*
X32883Y16749D01*
X32901Y16829D02*
Y16749D01*
Y16829D02*
X32935D01*
X32947Y16825D01*
X32951Y16821D01*
X32954Y16814D01*
Y16806D01*
X32951Y16798D01*
X32947Y16794D01*
X32935Y16791D01*
X32901D02*
X32935D01*
X32947Y16787D01*
X32951Y16783D01*
X32954Y16775D01*
Y16764D01*
X32951Y16756D01*
X32947Y16753D01*
X32935Y16749D01*
X32901D01*
X33022Y16829D02*
X32972D01*
Y16749D01*
X33022D01*
X32972Y16791D02*
X33003D01*
X33035Y16829D02*
Y16749D01*
Y16829D02*
X33069D01*
X33081Y16825D01*
X33085Y16821D01*
X33088Y16814D01*
Y16806D01*
X33085Y16798D01*
X33081Y16794D01*
X33069Y16791D01*
X33035D01*
X33062D02*
X33088Y16749D01*
X33169Y16829D02*
Y16749D01*
Y16829D02*
X33196D01*
X33207Y16825D01*
X33215Y16817D01*
X33219Y16810D01*
X33223Y16798D01*
Y16779D01*
X33219Y16768D01*
X33215Y16760D01*
X33207Y16753D01*
X33196Y16749D01*
X33169D01*
X33301D02*
X33271Y16829D01*
X33240Y16749D01*
X33252Y16775D02*
X33290D01*
X33347Y16829D02*
Y16749D01*
X33320Y16829D02*
X33373D01*
X33444Y16749D02*
X33413Y16829D01*
X33383Y16749D01*
X33394Y16775D02*
X33432D01*
D24*
X34427Y20086D02*
X34927D01*
X34677Y19836D02*
Y20336D01*
X34627Y20086D02*
Y20136D01*
X34677D01*
X34727Y20036D02*
Y20086D01*
X34677Y20036D02*
X34727D01*
X34682Y20081D02*
X34722D01*
Y20041D02*
Y20081D01*
X34682Y20041D02*
X34722D01*
X34682D02*
Y20081D01*
X34687Y20076D02*
X34717D01*
Y20046D02*
Y20076D01*
X34687Y20046D02*
X34717D01*
X34687D02*
Y20071D01*
X34692D02*
X34712D01*
Y20051D02*
Y20071D01*
X34692Y20051D02*
X34712D01*
X34692D02*
Y20066D01*
X34697D02*
X34707D01*
Y20056D02*
Y20066D01*
X34697Y20056D02*
X34707D01*
X34697D02*
Y20066D01*
Y20061D02*
X34707D01*
X34632Y20131D02*
X34672D01*
Y20091D02*
Y20131D01*
X34632Y20091D02*
X34672D01*
X34632D02*
Y20131D01*
X34637Y20126D02*
X34667D01*
Y20096D02*
Y20126D01*
X34637Y20096D02*
X34667D01*
X34637D02*
Y20121D01*
X34642D02*
X34662D01*
Y20101D02*
Y20121D01*
X34642Y20101D02*
X34662D01*
X34642D02*
Y20116D01*
X34647D02*
X34657D01*
Y20106D02*
Y20116D01*
X34647Y20106D02*
X34657D01*
X34647D02*
Y20116D01*
Y20111D02*
X34657D01*
X30192Y20061D02*
X30692D01*
X30442Y19811D02*
Y20311D01*
X30392Y20061D02*
Y20111D01*
X30442D01*
X30492Y20011D02*
Y20061D01*
X30442Y20011D02*
X30492D01*
X30447Y20056D02*
X30487D01*
Y20016D02*
Y20056D01*
X30447Y20016D02*
X30487D01*
X30447D02*
Y20056D01*
X30452Y20051D02*
X30482D01*
Y20021D02*
Y20051D01*
X30452Y20021D02*
X30482D01*
X30452D02*
Y20046D01*
X30457D02*
X30477D01*
Y20026D02*
Y20046D01*
X30457Y20026D02*
X30477D01*
X30457D02*
Y20041D01*
X30462D02*
X30472D01*
Y20031D02*
Y20041D01*
X30462Y20031D02*
X30472D01*
X30462D02*
Y20041D01*
Y20036D02*
X30472D01*
X30397Y20106D02*
X30437D01*
Y20066D02*
Y20106D01*
X30397Y20066D02*
X30437D01*
X30397D02*
Y20106D01*
X30402Y20101D02*
X30432D01*
Y20071D02*
Y20101D01*
X30402Y20071D02*
X30432D01*
X30402D02*
Y20096D01*
X30407D02*
X30427D01*
Y20076D02*
Y20096D01*
X30407Y20076D02*
X30427D01*
X30407D02*
Y20091D01*
X30412D02*
X30422D01*
Y20081D02*
Y20091D01*
X30412Y20081D02*
X30422D01*
X30412D02*
Y20091D01*
Y20086D02*
X30422D01*
X30277Y17706D02*
X30777D01*
X30527Y17456D02*
Y17956D01*
X30477Y17706D02*
Y17756D01*
X30527D01*
X30577Y17656D02*
Y17706D01*
X30527Y17656D02*
X30577D01*
X30532Y17701D02*
X30572D01*
Y17661D02*
Y17701D01*
X30532Y17661D02*
X30572D01*
X30532D02*
Y17701D01*
X30537Y17696D02*
X30567D01*
Y17666D02*
Y17696D01*
X30537Y17666D02*
X30567D01*
X30537D02*
Y17691D01*
X30542D02*
X30562D01*
Y17671D02*
Y17691D01*
X30542Y17671D02*
X30562D01*
X30542D02*
Y17686D01*
X30547D02*
X30557D01*
Y17676D02*
Y17686D01*
X30547Y17676D02*
X30557D01*
X30547D02*
Y17686D01*
Y17681D02*
X30557D01*
X30482Y17751D02*
X30522D01*
Y17711D02*
Y17751D01*
X30482Y17711D02*
X30522D01*
X30482D02*
Y17751D01*
X30487Y17746D02*
X30517D01*
Y17716D02*
Y17746D01*
X30487Y17716D02*
X30517D01*
X30487D02*
Y17741D01*
X30492D02*
X30512D01*
Y17721D02*
Y17741D01*
X30492Y17721D02*
X30512D01*
X30492D02*
Y17736D01*
X30497D02*
X30507D01*
Y17726D02*
Y17736D01*
X30497Y17726D02*
X30507D01*
X30497D02*
Y17736D01*
Y17731D02*
X30507D01*
D25*
X31158Y17244D02*
X31166Y17248D01*
X31177Y17259D01*
Y17179D01*
X31270Y17259D02*
X31232Y17179D01*
X31217Y17259D02*
X31270D01*
X31334D02*
X31296D01*
X31292Y17225D01*
X31296Y17229D01*
X31307Y17233D01*
X31319D01*
X31330Y17229D01*
X31338Y17221D01*
X31341Y17210D01*
Y17202D01*
X31338Y17191D01*
X31330Y17183D01*
X31319Y17179D01*
X31307D01*
X31296Y17183D01*
X31292Y17187D01*
X31288Y17195D01*
X31359Y17214D02*
X31428D01*
X31474Y17259D02*
X31463Y17256D01*
X31455Y17244D01*
X31452Y17225D01*
Y17214D01*
X31455Y17195D01*
X31463Y17183D01*
X31474Y17179D01*
X31482D01*
X31493Y17183D01*
X31501Y17195D01*
X31505Y17214D01*
Y17225D01*
X31501Y17244D01*
X31493Y17256D01*
X31482Y17259D01*
X31474D01*
X31546D02*
X31534Y17256D01*
X31527Y17244D01*
X31523Y17225D01*
Y17214D01*
X31527Y17195D01*
X31534Y17183D01*
X31546Y17179D01*
X31553D01*
X31565Y17183D01*
X31572Y17195D01*
X31576Y17214D01*
Y17225D01*
X31572Y17244D01*
X31565Y17256D01*
X31553Y17259D01*
X31546D01*
X31617D02*
X31605Y17256D01*
X31598Y17244D01*
X31594Y17225D01*
Y17214D01*
X31598Y17195D01*
X31605Y17183D01*
X31617Y17179D01*
X31624D01*
X31636Y17183D01*
X31644Y17195D01*
X31647Y17214D01*
Y17225D01*
X31644Y17244D01*
X31636Y17256D01*
X31624Y17259D01*
X31617D01*
X31669Y17240D02*
Y17244D01*
X31673Y17252D01*
X31677Y17256D01*
X31684Y17259D01*
X31700D01*
X31707Y17256D01*
X31711Y17252D01*
X31715Y17244D01*
Y17237D01*
X31711Y17229D01*
X31703Y17217D01*
X31665Y17179D01*
X31719D01*
X31736Y17244D02*
X31744Y17248D01*
X31755Y17259D01*
Y17179D01*
X31858Y17233D02*
Y17179D01*
Y17210D02*
X31862Y17221D01*
X31869Y17229D01*
X31877Y17233D01*
X31888D01*
X31896Y17210D02*
X31941D01*
Y17217D01*
X31938Y17225D01*
X31934Y17229D01*
X31926Y17233D01*
X31915D01*
X31907Y17229D01*
X31899Y17221D01*
X31896Y17210D01*
Y17202D01*
X31899Y17191D01*
X31907Y17183D01*
X31915Y17179D01*
X31926D01*
X31934Y17183D01*
X31941Y17191D01*
X31958Y17233D02*
X31981Y17179D01*
X32004Y17233D02*
X31981Y17179D01*
X32017Y17244D02*
X32025Y17248D01*
X32036Y17259D01*
Y17179D01*
X32083Y17183D02*
X32080Y17179D01*
X32076Y17183D01*
X32080Y17187D01*
X32083Y17183D01*
Y17176D01*
X32080Y17168D01*
X32076Y17164D01*
X32164Y17244D02*
X32171Y17248D01*
X32183Y17259D01*
Y17179D01*
X32222Y17233D02*
Y17179D01*
Y17217D02*
X32234Y17229D01*
X32241Y17233D01*
X32253D01*
X32261Y17229D01*
X32264Y17217D01*
Y17179D01*
Y17217D02*
X32276Y17229D01*
X32283Y17233D01*
X32295D01*
X32302Y17229D01*
X32306Y17217D01*
Y17179D01*
X32394Y17259D02*
Y17179D01*
Y17259D02*
X32444D01*
X32394Y17221D02*
X32425D01*
X32453Y17259D02*
X32472Y17179D01*
X32491Y17259D02*
X32472Y17179D01*
X32491Y17259D02*
X32510Y17179D01*
X32529Y17259D02*
X32510Y17179D01*
X32598Y17248D02*
X32591Y17256D01*
X32579Y17259D01*
X32564D01*
X32553Y17256D01*
X32545Y17248D01*
Y17240D01*
X32549Y17233D01*
X32553Y17229D01*
X32560Y17225D01*
X32583Y17217D01*
X32591Y17214D01*
X32595Y17210D01*
X32598Y17202D01*
Y17191D01*
X32591Y17183D01*
X32579Y17179D01*
X32564D01*
X32553Y17183D01*
X32545Y17191D01*
X32732Y17248D02*
X32725Y17256D01*
X32713Y17259D01*
X32698D01*
X32687Y17256D01*
X32679Y17248D01*
Y17240D01*
X32683Y17233D01*
X32687Y17229D01*
X32694Y17225D01*
X32717Y17217D01*
X32725Y17214D01*
X32729Y17210D01*
X32732Y17202D01*
Y17191D01*
X32725Y17183D01*
X32713Y17179D01*
X32698D01*
X32687Y17183D01*
X32679Y17191D01*
X32750Y17233D02*
Y17195D01*
X32754Y17183D01*
X32762Y17179D01*
X32773D01*
X32781Y17183D01*
X32792Y17195D01*
Y17233D02*
Y17179D01*
X32813Y17233D02*
Y17153D01*
Y17221D02*
X32821Y17229D01*
X32828Y17233D01*
X32840D01*
X32847Y17229D01*
X32855Y17221D01*
X32859Y17210D01*
Y17202D01*
X32855Y17191D01*
X32847Y17183D01*
X32840Y17179D01*
X32828D01*
X32821Y17183D01*
X32813Y17191D01*
X32876Y17210D02*
X32922D01*
Y17217D01*
X32918Y17225D01*
X32914Y17229D01*
X32906Y17233D01*
X32895D01*
X32887Y17229D01*
X32880Y17221D01*
X32876Y17210D01*
Y17202D01*
X32880Y17191D01*
X32887Y17183D01*
X32895Y17179D01*
X32906D01*
X32914Y17183D01*
X32922Y17191D01*
X32939Y17233D02*
Y17179D01*
Y17210D02*
X32943Y17221D01*
X32950Y17229D01*
X32958Y17233D01*
X32969D01*
X32977Y17259D02*
Y17179D01*
Y17259D02*
X33026D01*
X32977Y17221D02*
X33007D01*
X33043Y17259D02*
X33047Y17256D01*
X33050Y17259D01*
X33047Y17263D01*
X33043Y17259D01*
X33047Y17233D02*
Y17179D01*
X33065Y17233D02*
Y17179D01*
Y17217D02*
X33076Y17229D01*
X33084Y17233D01*
X33095D01*
X33103Y17229D01*
X33106Y17217D01*
Y17179D01*
X33251D02*
X33221Y17259D01*
X33190Y17179D01*
X33202Y17206D02*
X33240D01*
X33270Y17233D02*
Y17153D01*
Y17221D02*
X33277Y17229D01*
X33285Y17233D01*
X33297D01*
X33304Y17229D01*
X33312Y17221D01*
X33316Y17210D01*
Y17202D01*
X33312Y17191D01*
X33304Y17183D01*
X33297Y17179D01*
X33285D01*
X33277Y17183D01*
X33270Y17191D01*
X33333Y17233D02*
Y17153D01*
Y17221D02*
X33340Y17229D01*
X33348Y17233D01*
X33359D01*
X33367Y17229D01*
X33375Y17221D01*
X33378Y17210D01*
Y17202D01*
X33375Y17191D01*
X33367Y17183D01*
X33359Y17179D01*
X33348D01*
X33340Y17183D01*
X33333Y17191D01*
X33437Y17221D02*
X33434Y17229D01*
X33422Y17233D01*
X33411D01*
X33399Y17229D01*
X33396Y17221D01*
X33399Y17214D01*
X33407Y17210D01*
X33426Y17206D01*
X33434Y17202D01*
X33437Y17195D01*
Y17191D01*
X33434Y17183D01*
X33422Y17179D01*
X33411D01*
X33399Y17183D01*
X33396Y17191D01*
X33517Y17259D02*
Y17179D01*
Y17259D02*
X33551D01*
X33563Y17256D01*
X33567Y17252D01*
X33570Y17244D01*
Y17237D01*
X33567Y17229D01*
X33563Y17225D01*
X33551Y17221D01*
X33517D02*
X33551D01*
X33563Y17217D01*
X33567Y17214D01*
X33570Y17206D01*
Y17195D01*
X33567Y17187D01*
X33563Y17183D01*
X33551Y17179D01*
X33517D01*
X33607Y17233D02*
X33600Y17229D01*
X33592Y17221D01*
X33588Y17210D01*
Y17202D01*
X33592Y17191D01*
X33600Y17183D01*
X33607Y17179D01*
X33619D01*
X33626Y17183D01*
X33634Y17191D01*
X33638Y17202D01*
Y17210D01*
X33634Y17221D01*
X33626Y17229D01*
X33619Y17233D01*
X33607D01*
X33701D02*
Y17179D01*
Y17221D02*
X33693Y17229D01*
X33686Y17233D01*
X33674D01*
X33667Y17229D01*
X33659Y17221D01*
X33655Y17210D01*
Y17202D01*
X33659Y17191D01*
X33667Y17183D01*
X33674Y17179D01*
X33686D01*
X33693Y17183D01*
X33701Y17191D01*
X33722Y17233D02*
Y17179D01*
Y17210D02*
X33726Y17221D01*
X33734Y17229D01*
X33741Y17233D01*
X33753D01*
X33806Y17259D02*
Y17179D01*
Y17221D02*
X33798Y17229D01*
X33790Y17233D01*
X33779D01*
X33771Y17229D01*
X33764Y17221D01*
X33760Y17210D01*
Y17202D01*
X33764Y17191D01*
X33771Y17183D01*
X33779Y17179D01*
X33790D01*
X33798Y17183D01*
X33806Y17191D01*
D26*
X31158Y17109D02*
Y17029D01*
X31204D01*
X31274D02*
X31243Y17109D01*
X31213Y17029D01*
X31224Y17056D02*
X31262D01*
X31346Y17098D02*
X31338Y17106D01*
X31327Y17109D01*
X31311D01*
X31300Y17106D01*
X31292Y17098D01*
Y17090D01*
X31296Y17083D01*
X31300Y17079D01*
X31308Y17075D01*
X31330Y17067D01*
X31338Y17064D01*
X31342Y17060D01*
X31346Y17052D01*
Y17041D01*
X31338Y17033D01*
X31327Y17029D01*
X31311D01*
X31300Y17033D01*
X31292Y17041D01*
X31484Y17090D02*
X31480Y17098D01*
X31472Y17106D01*
X31465Y17109D01*
X31449D01*
X31442Y17106D01*
X31434Y17098D01*
X31430Y17090D01*
X31426Y17079D01*
Y17060D01*
X31430Y17048D01*
X31434Y17041D01*
X31442Y17033D01*
X31449Y17029D01*
X31465D01*
X31472Y17033D01*
X31480Y17041D01*
X31484Y17048D01*
X31506Y17109D02*
Y17052D01*
X31510Y17041D01*
X31517Y17033D01*
X31529Y17029D01*
X31536D01*
X31548Y17033D01*
X31556Y17041D01*
X31559Y17052D01*
Y17109D01*
X31581D02*
Y17029D01*
Y17109D02*
X31612Y17029D01*
X31642Y17109D02*
X31612Y17029D01*
X31642Y17109D02*
Y17029D01*
X31665Y17109D02*
Y17029D01*
Y17109D02*
X31700D01*
X31711Y17106D01*
X31715Y17102D01*
X31719Y17094D01*
Y17086D01*
X31715Y17079D01*
X31711Y17075D01*
X31700Y17071D01*
X31665D02*
X31700D01*
X31711Y17067D01*
X31715Y17064D01*
X31719Y17056D01*
Y17045D01*
X31715Y17037D01*
X31711Y17033D01*
X31700Y17029D01*
X31665D01*
X31736Y17109D02*
Y17029D01*
Y17109D02*
X31771D01*
X31782Y17106D01*
X31786Y17102D01*
X31790Y17094D01*
Y17086D01*
X31786Y17079D01*
X31782Y17075D01*
X31771Y17071D01*
X31736D01*
X31763D02*
X31790Y17029D01*
X31857Y17109D02*
X31808D01*
Y17029D01*
X31857D01*
X31808Y17071D02*
X31838D01*
X31924Y17098D02*
X31916Y17106D01*
X31905Y17109D01*
X31890D01*
X31878Y17106D01*
X31871Y17098D01*
Y17090D01*
X31874Y17083D01*
X31878Y17079D01*
X31886Y17075D01*
X31909Y17067D01*
X31916Y17064D01*
X31920Y17060D01*
X31924Y17052D01*
Y17041D01*
X31916Y17033D01*
X31905Y17029D01*
X31890D01*
X31878Y17033D01*
X31871Y17041D01*
X32027Y17109D02*
X32020Y17106D01*
X32012Y17098D01*
X32008Y17090D01*
X32005Y17079D01*
Y17060D01*
X32008Y17048D01*
X32012Y17041D01*
X32020Y17033D01*
X32027Y17029D01*
X32043D01*
X32050Y17033D01*
X32058Y17041D01*
X32062Y17048D01*
X32066Y17060D01*
Y17079D01*
X32062Y17090D01*
X32058Y17098D01*
X32050Y17106D01*
X32043Y17109D01*
X32027D01*
X32084D02*
Y17029D01*
Y17109D02*
X32118D01*
X32130Y17106D01*
X32134Y17102D01*
X32138Y17094D01*
Y17086D01*
X32134Y17079D01*
X32130Y17075D01*
X32118Y17071D01*
X32084D02*
X32118D01*
X32130Y17067D01*
X32134Y17064D01*
X32138Y17056D01*
Y17045D01*
X32134Y17037D01*
X32130Y17033D01*
X32118Y17029D01*
X32084D01*
X32209Y17098D02*
X32201Y17106D01*
X32190Y17109D01*
X32174D01*
X32163Y17106D01*
X32155Y17098D01*
Y17090D01*
X32159Y17083D01*
X32163Y17079D01*
X32171Y17075D01*
X32193Y17067D01*
X32201Y17064D01*
X32205Y17060D01*
X32209Y17052D01*
Y17041D01*
X32201Y17033D01*
X32190Y17029D01*
X32174D01*
X32163Y17033D01*
X32155Y17041D01*
X32276Y17109D02*
X32227D01*
Y17029D01*
X32276D01*
X32227Y17071D02*
X32257D01*
X32289Y17109D02*
Y17029D01*
Y17109D02*
X32324D01*
X32335Y17106D01*
X32339Y17102D01*
X32343Y17094D01*
Y17086D01*
X32339Y17079D01*
X32335Y17075D01*
X32324Y17071D01*
X32289D01*
X32316D02*
X32343Y17029D01*
X32361Y17109D02*
X32391Y17029D01*
X32422Y17109D02*
X32391Y17029D01*
X32493D02*
X32462Y17109D01*
X32432Y17029D01*
X32443Y17056D02*
X32481D01*
X32538Y17109D02*
Y17029D01*
X32512Y17109D02*
X32565D01*
X32597D02*
X32590Y17106D01*
X32582Y17098D01*
X32578Y17090D01*
X32574Y17079D01*
Y17060D01*
X32578Y17048D01*
X32582Y17041D01*
X32590Y17033D01*
X32597Y17029D01*
X32612D01*
X32620Y17033D01*
X32628Y17041D01*
X32632Y17048D01*
X32635Y17060D01*
Y17079D01*
X32632Y17090D01*
X32628Y17098D01*
X32620Y17106D01*
X32612Y17109D01*
X32597D01*
X32654D02*
Y17029D01*
Y17109D02*
X32688D01*
X32700Y17106D01*
X32703Y17102D01*
X32707Y17094D01*
Y17086D01*
X32703Y17079D01*
X32700Y17075D01*
X32688Y17071D01*
X32654D01*
X32681D02*
X32707Y17029D01*
X32725Y17109D02*
X32756Y17071D01*
Y17029D01*
X32786Y17109D02*
X32756Y17071D01*
X33111Y17094D02*
X33118Y17098D01*
X33130Y17109D01*
Y17029D01*
X33169Y17094D02*
X33177Y17098D01*
X33188Y17109D01*
Y17029D01*
X33228Y17018D02*
X33281Y17109D01*
X33290Y17090D02*
Y17094D01*
X33294Y17102D01*
X33298Y17106D01*
X33306Y17109D01*
X33321D01*
X33328Y17106D01*
X33332Y17102D01*
X33336Y17094D01*
Y17086D01*
X33332Y17079D01*
X33325Y17067D01*
X33287Y17029D01*
X33340D01*
X33407Y17083D02*
X33404Y17071D01*
X33396Y17064D01*
X33384Y17060D01*
X33381D01*
X33369Y17064D01*
X33362Y17071D01*
X33358Y17083D01*
Y17086D01*
X33362Y17098D01*
X33369Y17106D01*
X33381Y17109D01*
X33384D01*
X33396Y17106D01*
X33404Y17098D01*
X33407Y17083D01*
Y17064D01*
X33404Y17045D01*
X33396Y17033D01*
X33384Y17029D01*
X33377D01*
X33365Y17033D01*
X33362Y17041D01*
X33429Y17018D02*
X33482Y17109D01*
X33492Y17090D02*
Y17094D01*
X33495Y17102D01*
X33499Y17106D01*
X33507Y17109D01*
X33522D01*
X33530Y17106D01*
X33533Y17102D01*
X33537Y17094D01*
Y17086D01*
X33533Y17079D01*
X33526Y17067D01*
X33488Y17029D01*
X33541D01*
X33582Y17109D02*
X33570Y17106D01*
X33563Y17094D01*
X33559Y17075D01*
Y17064D01*
X33563Y17045D01*
X33570Y17033D01*
X33582Y17029D01*
X33589D01*
X33601Y17033D01*
X33608Y17045D01*
X33612Y17064D01*
Y17075D01*
X33608Y17094D01*
X33601Y17106D01*
X33589Y17109D01*
X33582D01*
X33630Y17094D02*
X33638Y17098D01*
X33649Y17109D01*
Y17029D01*
X33712Y17109D02*
X33700Y17106D01*
X33693Y17094D01*
X33689Y17075D01*
Y17064D01*
X33693Y17045D01*
X33700Y17033D01*
X33712Y17029D01*
X33719D01*
X33731Y17033D01*
X33738Y17045D01*
X33742Y17064D01*
Y17075D01*
X33738Y17094D01*
X33731Y17106D01*
X33719Y17109D01*
X33712D01*
M02*
