M48
;Layer_Color=9474304
;FILE_FORMAT=2:3
INCH,LZ
;TYPE=PLATED
T1F00S00C0.010
T2F00S00C0.015
T3F00S00C0.033
T4F00S00C0.035
%
T01
X-00169Y-05663
X03941Y-02193
X03946Y-02077
X00144Y-00479
X00096Y-00479
X00049
X00191Y-00479
X00238Y-00479
X00285
X00333
X0042Y-00451
X00462Y-00437
X00502Y-0042
X00562Y-00383
X006Y-00281
X00638Y-00282
X00679Y-00279
X00718Y-00283
X00757Y-00282
X00797Y-00285
X00777Y-0021
X00817Y-00209
X00837Y-00187
X00796
X00541Y-00193
X00501Y-00194
X00462Y-00197
X00423Y-00195
X00383Y-0023
X00384Y-00267
X00344Y-00266
X00305Y-00268
X00266Y-00267
X00227Y-00264
X00186Y-00267
Y-0008
X00228Y-00061
X00269Y-00034
X0035Y-00067
X00344Y-00201
X00298Y-00189
X00687Y-00484
X00733
X0078Y-00485
X00825
X00869
X00912Y-00486
T02
X-00123Y-05712
X-00023
X00077
X00027Y-05662
X-00073
X00127
X00177Y-05712
X00277
X00327Y-05662
X00377Y-05712
X00427Y-05662
X00227
X00652
X00702Y-05712
X00802
X00902
X00852Y-05662
X00752
X00837Y-00283
X00962Y-00139
X00998Y-00138
T03
X03893Y-02272
X04393
Y-01949
X03893
T04
X00114Y-06541
X00094Y-06412
X00114Y-06283
X00174Y-06166
X00266Y-06074
X00383Y-06014
X0038Y-06161
X00512Y-06129
Y-06262
Y-06412
X00366Y-06445
X00395Y-06318
X00279Y-06251
X00231Y-06378
X00247Y-06512
X00324Y-06624
X00444Y-06687
X0058Y-06687
X00577Y-06547
X00447Y-06547
X00658Y-06445
X00629Y-06318
X00643Y-06161
X00641Y-06014
X00512Y-05994
X00757Y-06074
X0085Y-06166
X00909Y-06283
X0093Y-06412
X00909Y-06541
X00776Y-06512
X00793Y-06378
X00745Y-06251
X00699Y-06624
X00757Y-0675
X00641Y-0681
X00512Y-0683
X00383Y-0681
X00266Y-0675
X00174Y-06658
X0085
M30
