%FSLAX23Y23*%
%MOIN*%
G70*
G01*
G75*
G04 Layer_Physical_Order=3*
G04 Layer_Color=32768*
%ADD10C,0.008*%
%ADD11C,0.010*%
%ADD12C,0.010*%
%ADD13C,0.012*%
%ADD14C,0.012*%
%ADD15C,0.012*%
%ADD16P,0.057X4X202.5*%
%ADD17C,0.040*%
%ADD18C,0.070*%
%ADD19R,0.070X0.070*%
%ADD20C,0.055*%
%ADD21C,0.035*%
%ADD22C,0.039*%
%ADD23C,0.071*%
%ADD24C,0.169*%
%ADD25C,0.047*%
%ADD26C,0.048*%
%ADD27C,0.020*%
%ADD28C,0.024*%
%ADD29C,0.040*%
%ADD30C,0.045*%
%ADD31C,0.099*%
%ADD32C,0.060*%
G04:AMPARAMS|DCode=33|XSize=100mil|YSize=100mil|CornerRadius=0mil|HoleSize=0mil|Usage=FLASHONLY|Rotation=0.000|XOffset=0mil|YOffset=0mil|HoleType=Round|Shape=Relief|Width=10mil|Gap=10mil|Entries=4|*
%AMTHD33*
7,0,0,0.100,0.080,0.010,45*
%
%ADD33THD33*%
%ADD34C,0.053*%
%ADD35C,0.055*%
%ADD36C,0.059*%
%ADD37C,0.091*%
%ADD38C,0.189*%
%ADD39C,0.069*%
%ADD40C,0.030*%
G36*
X21279Y16651D02*
X21287Y16648D01*
X21295Y16643D01*
X21301Y16637D01*
X21306Y16630D01*
X21309Y16621D01*
X21310Y16613D01*
Y16140D01*
X21309Y16131D01*
X21306Y16123D01*
X21301Y16116D01*
X21295Y16109D01*
X21287Y16105D01*
X21279Y16102D01*
X21270Y16101D01*
X21034D01*
X21025Y16102D01*
X21017Y16105D01*
X21010Y16109D01*
X21003Y16116D01*
X20999Y16123D01*
X20996Y16131D01*
X20995Y16140D01*
Y16613D01*
X20996Y16621D01*
X20999Y16630D01*
X21003Y16637D01*
X21010Y16643D01*
X21017Y16648D01*
X21025Y16651D01*
X21034Y16652D01*
X21270D01*
X21279Y16651D01*
D02*
G37*
D10*
X18927Y13402D02*
X19427D01*
X19177Y13152D02*
Y13652D01*
X19227Y13402D02*
Y13452D01*
X19177D02*
X19227D01*
X19127Y13352D02*
Y13402D01*
Y13352D02*
X19177D01*
X19132Y13397D02*
X19172D01*
X19132Y13357D02*
Y13397D01*
Y13357D02*
X19172D01*
Y13397D01*
X19137Y13392D02*
X19167D01*
X19137Y13362D02*
Y13392D01*
Y13362D02*
X19167D01*
Y13387D01*
X19142D02*
X19162D01*
X19142Y13367D02*
Y13387D01*
Y13367D02*
X19162D01*
Y13382D01*
X19147D02*
X19157D01*
X19147Y13372D02*
Y13382D01*
Y13372D02*
X19157D01*
Y13382D01*
X19147Y13377D02*
X19157D01*
X19182Y13447D02*
X19222D01*
X19182Y13407D02*
Y13447D01*
Y13407D02*
X19222D01*
Y13447D01*
X19187Y13442D02*
X19217D01*
X19187Y13412D02*
Y13442D01*
Y13412D02*
X19217D01*
Y13437D01*
X19192D02*
X19212D01*
X19192Y13417D02*
Y13437D01*
Y13417D02*
X19212D01*
Y13432D01*
X19197D02*
X19207D01*
X19197Y13422D02*
Y13432D01*
Y13422D02*
X19207D01*
Y13432D01*
X19197Y13427D02*
X19207D01*
X18763Y18387D02*
X19263D01*
X19013Y18137D02*
Y18637D01*
X19063Y18387D02*
Y18437D01*
X19013D02*
X19063D01*
X18963Y18337D02*
Y18387D01*
Y18337D02*
X19013D01*
X18968Y18382D02*
X19008D01*
X18968Y18342D02*
Y18382D01*
Y18342D02*
X19008D01*
Y18382D01*
X18973Y18377D02*
X19003D01*
X18973Y18347D02*
Y18377D01*
Y18347D02*
X19003D01*
Y18372D01*
X18978D02*
X18998D01*
X18978Y18352D02*
Y18372D01*
Y18352D02*
X18998D01*
Y18367D01*
X18983D02*
X18993D01*
X18983Y18357D02*
Y18367D01*
Y18357D02*
X18993D01*
Y18367D01*
X18983Y18362D02*
X18993D01*
X19018Y18432D02*
X19058D01*
X19018Y18392D02*
Y18432D01*
Y18392D02*
X19058D01*
Y18432D01*
X19023Y18427D02*
X19053D01*
X19023Y18397D02*
Y18427D01*
Y18397D02*
X19053D01*
Y18422D01*
X19028D02*
X19048D01*
X19028Y18402D02*
Y18422D01*
Y18402D02*
X19048D01*
Y18417D01*
X19033D02*
X19043D01*
X19033Y18407D02*
Y18417D01*
Y18407D02*
X19043D01*
Y18417D01*
X19033Y18412D02*
X19043D01*
X23049Y18371D02*
X23549D01*
X23299Y18121D02*
Y18621D01*
X23349Y18371D02*
Y18421D01*
X23299D02*
X23349D01*
X23249Y18321D02*
Y18371D01*
Y18321D02*
X23299D01*
X23254Y18366D02*
X23294D01*
X23254Y18326D02*
Y18366D01*
Y18326D02*
X23294D01*
Y18366D01*
X23259Y18361D02*
X23289D01*
X23259Y18331D02*
Y18361D01*
Y18331D02*
X23289D01*
Y18356D01*
X23264D02*
X23284D01*
X23264Y18336D02*
Y18356D01*
Y18336D02*
X23284D01*
Y18351D01*
X23269D02*
X23279D01*
X23269Y18341D02*
Y18351D01*
Y18341D02*
X23279D01*
Y18351D01*
X23269Y18346D02*
X23279D01*
X23304Y18416D02*
X23344D01*
X23304Y18376D02*
Y18416D01*
Y18376D02*
X23344D01*
Y18416D01*
X23309Y18411D02*
X23339D01*
X23309Y18381D02*
Y18411D01*
Y18381D02*
X23339D01*
Y18406D01*
X23314D02*
X23334D01*
X23314Y18386D02*
Y18406D01*
Y18386D02*
X23334D01*
Y18401D01*
X23319D02*
X23329D01*
X23319Y18391D02*
Y18401D01*
Y18391D02*
X23329D01*
Y18401D01*
X23319Y18396D02*
X23329D01*
D12*
X20404Y15429D02*
Y17321D01*
Y15429D02*
X20406Y15427D01*
X20504D01*
X20498Y15433D02*
X20504Y15427D01*
X20498Y15433D02*
Y17223D01*
X21805D01*
Y15425D02*
Y17223D01*
Y15425D02*
X21906D01*
X21907Y15426D01*
Y17322D01*
X21900Y17329D02*
X21907Y17322D01*
X20412Y17329D02*
X21900D01*
X20404Y17321D02*
X20412Y17329D01*
D14*
X20394Y13713D02*
Y13668D01*
X20375Y13702D02*
X20413Y13679D01*
Y13702D02*
X20375Y13679D01*
X20433Y13641D02*
X20429Y13637D01*
X20433Y13633D01*
X20437Y13637D01*
X20433Y13641D01*
X20511Y13694D02*
X20508Y13702D01*
X20500Y13709D01*
X20492Y13713D01*
X20477D01*
X20470Y13709D01*
X20462Y13702D01*
X20458Y13694D01*
X20454Y13683D01*
Y13664D01*
X20458Y13652D01*
X20462Y13645D01*
X20470Y13637D01*
X20477Y13633D01*
X20492D01*
X20500Y13637D01*
X20508Y13645D01*
X20511Y13652D01*
Y13664D01*
X20492D02*
X20511D01*
X20530Y13671D02*
X20564D01*
X20575Y13675D01*
X20579Y13679D01*
X20583Y13687D01*
Y13698D01*
X20579Y13706D01*
X20575Y13709D01*
X20564Y13713D01*
X20530D01*
Y13633D01*
X20601Y13698D02*
X20609Y13702D01*
X20620Y13713D01*
Y13633D01*
X20722Y13668D02*
X20791D01*
X20878Y13713D02*
Y13633D01*
X20894Y13713D02*
Y13633D01*
Y13713D02*
X20948Y13633D01*
Y13713D02*
Y13633D01*
X20996Y13713D02*
Y13633D01*
X20970Y13713D02*
X21023D01*
X21082D02*
X21033D01*
Y13633D01*
X21082D01*
X21033Y13675D02*
X21063D01*
X21095Y13713D02*
Y13633D01*
Y13713D02*
X21130D01*
X21141Y13709D01*
X21145Y13706D01*
X21149Y13698D01*
Y13690D01*
X21145Y13683D01*
X21141Y13679D01*
X21130Y13675D01*
X21095D01*
X21122D02*
X21149Y13633D01*
X21167Y13713D02*
Y13633D01*
Y13713D02*
X21220Y13633D01*
Y13713D02*
Y13633D01*
X21303D02*
X21272Y13713D01*
X21242Y13633D01*
X21253Y13660D02*
X21292D01*
X21322Y13713D02*
Y13633D01*
X21367D01*
X21439Y13671D02*
X21473D01*
X21485Y13675D01*
X21488Y13679D01*
X21492Y13687D01*
Y13698D01*
X21488Y13706D01*
X21485Y13709D01*
X21473Y13713D01*
X21439D01*
Y13633D01*
X21510Y13713D02*
Y13633D01*
X21556D01*
X21626D02*
X21595Y13713D01*
X21565Y13633D01*
X21576Y13660D02*
X21614D01*
X21644Y13713D02*
Y13633D01*
Y13713D02*
X21698Y13633D01*
Y13713D02*
Y13633D01*
X21769Y13713D02*
X21720D01*
Y13633D01*
X21769D01*
X21720Y13675D02*
X21750D01*
X21845Y13713D02*
Y13633D01*
X21891D01*
X21961D02*
X21930Y13713D01*
X21900Y13633D01*
X21911Y13660D02*
X21949D01*
X21979Y13713D02*
X22010Y13675D01*
Y13633D01*
X22040Y13713D02*
X22010Y13675D01*
X22100Y13713D02*
X22051D01*
Y13633D01*
X22100D01*
X22051Y13675D02*
X22081D01*
X22113Y13713D02*
Y13633D01*
Y13713D02*
X22148D01*
X22159Y13709D01*
X22163Y13706D01*
X22167Y13698D01*
Y13690D01*
X22163Y13683D01*
X22159Y13679D01*
X22148Y13675D01*
X22113D01*
X22140D02*
X22167Y13633D01*
X22248Y13698D02*
X22255Y13702D01*
X22267Y13713D01*
Y13633D01*
X22426Y13694D02*
X22422Y13702D01*
X22415Y13709D01*
X22407Y13713D01*
X22392D01*
X22384Y13709D01*
X22377Y13702D01*
X22373Y13694D01*
X22369Y13683D01*
Y13664D01*
X22373Y13652D01*
X22377Y13645D01*
X22384Y13637D01*
X22392Y13633D01*
X22407D01*
X22415Y13637D01*
X22422Y13645D01*
X22426Y13652D01*
Y13664D01*
X22407D02*
X22426D01*
X22494Y13713D02*
X22444D01*
Y13633D01*
X22494D01*
X22444Y13675D02*
X22475D01*
X22507Y13713D02*
Y13633D01*
Y13713D02*
X22542D01*
X22553Y13709D01*
X22557Y13706D01*
X22561Y13698D01*
Y13690D01*
X22557Y13683D01*
X22553Y13679D01*
X22542Y13675D01*
X22507D01*
X22534D02*
X22561Y13633D01*
X22578Y13713D02*
Y13633D01*
Y13713D02*
X22613D01*
X22624Y13709D01*
X22628Y13706D01*
X22632Y13698D01*
Y13690D01*
X22628Y13683D01*
X22624Y13679D01*
X22613Y13675D01*
X22578D02*
X22613D01*
X22624Y13671D01*
X22628Y13668D01*
X22632Y13660D01*
Y13648D01*
X22628Y13641D01*
X22624Y13637D01*
X22613Y13633D01*
X22578D01*
X22699Y13713D02*
X22650D01*
Y13633D01*
X22699D01*
X22650Y13675D02*
X22680D01*
X22713Y13713D02*
Y13633D01*
Y13713D02*
X22747D01*
X22758Y13709D01*
X22762Y13706D01*
X22766Y13698D01*
Y13690D01*
X22762Y13683D01*
X22758Y13679D01*
X22747Y13675D01*
X22713D01*
X22739D02*
X22766Y13633D01*
X22847Y13713D02*
Y13633D01*
Y13713D02*
X22873D01*
X22885Y13709D01*
X22892Y13702D01*
X22896Y13694D01*
X22900Y13683D01*
Y13664D01*
X22896Y13652D01*
X22892Y13645D01*
X22885Y13637D01*
X22873Y13633D01*
X22847D01*
X22979D02*
X22948Y13713D01*
X22918Y13633D01*
X22929Y13660D02*
X22967D01*
X23024Y13713D02*
Y13633D01*
X22997Y13713D02*
X23051D01*
X23121Y13633D02*
X23091Y13713D01*
X23060Y13633D01*
X23072Y13660D02*
X23110D01*
X20642Y14046D02*
Y13966D01*
X20688D01*
X20757D02*
X20727Y14046D01*
X20697Y13966D01*
X20708Y13992D02*
X20746D01*
X20829Y14034D02*
X20822Y14042D01*
X20810Y14046D01*
X20795D01*
X20784Y14042D01*
X20776Y14034D01*
Y14026D01*
X20780Y14019D01*
X20784Y14015D01*
X20791Y14011D01*
X20814Y14004D01*
X20822Y14000D01*
X20826Y13996D01*
X20829Y13988D01*
Y13977D01*
X20822Y13969D01*
X20810Y13966D01*
X20795D01*
X20784Y13969D01*
X20776Y13977D01*
X20967Y14026D02*
X20964Y14034D01*
X20956Y14042D01*
X20948Y14046D01*
X20933D01*
X20925Y14042D01*
X20918Y14034D01*
X20914Y14026D01*
X20910Y14015D01*
Y13996D01*
X20914Y13985D01*
X20918Y13977D01*
X20925Y13969D01*
X20933Y13966D01*
X20948D01*
X20956Y13969D01*
X20964Y13977D01*
X20967Y13985D01*
X20990Y14046D02*
Y13988D01*
X20994Y13977D01*
X21001Y13969D01*
X21013Y13966D01*
X21020D01*
X21032Y13969D01*
X21039Y13977D01*
X21043Y13988D01*
Y14046D01*
X21065D02*
Y13966D01*
Y14046D02*
X21096Y13966D01*
X21126Y14046D02*
X21096Y13966D01*
X21126Y14046D02*
Y13966D01*
X21149Y14046D02*
Y13966D01*
Y14046D02*
X21183D01*
X21195Y14042D01*
X21198Y14038D01*
X21202Y14030D01*
Y14023D01*
X21198Y14015D01*
X21195Y14011D01*
X21183Y14007D01*
X21149D02*
X21183D01*
X21195Y14004D01*
X21198Y14000D01*
X21202Y13992D01*
Y13981D01*
X21198Y13973D01*
X21195Y13969D01*
X21183Y13966D01*
X21149D01*
X21220Y14046D02*
Y13966D01*
Y14046D02*
X21254D01*
X21266Y14042D01*
X21270Y14038D01*
X21274Y14030D01*
Y14023D01*
X21270Y14015D01*
X21266Y14011D01*
X21254Y14007D01*
X21220D01*
X21247D02*
X21274Y13966D01*
X21341Y14046D02*
X21291D01*
Y13966D01*
X21341D01*
X21291Y14007D02*
X21322D01*
X21408Y14034D02*
X21400Y14042D01*
X21389Y14046D01*
X21373D01*
X21362Y14042D01*
X21354Y14034D01*
Y14026D01*
X21358Y14019D01*
X21362Y14015D01*
X21370Y14011D01*
X21392Y14004D01*
X21400Y14000D01*
X21404Y13996D01*
X21408Y13988D01*
Y13977D01*
X21400Y13969D01*
X21389Y13966D01*
X21373D01*
X21362Y13969D01*
X21354Y13977D01*
X21511Y14046D02*
X21504Y14042D01*
X21496Y14034D01*
X21492Y14026D01*
X21488Y14015D01*
Y13996D01*
X21492Y13985D01*
X21496Y13977D01*
X21504Y13969D01*
X21511Y13966D01*
X21526D01*
X21534Y13969D01*
X21542Y13977D01*
X21545Y13985D01*
X21549Y13996D01*
Y14015D01*
X21545Y14026D01*
X21542Y14034D01*
X21534Y14042D01*
X21526Y14046D01*
X21511D01*
X21568D02*
Y13966D01*
Y14046D02*
X21602D01*
X21614Y14042D01*
X21617Y14038D01*
X21621Y14030D01*
Y14023D01*
X21617Y14015D01*
X21614Y14011D01*
X21602Y14007D01*
X21568D02*
X21602D01*
X21614Y14004D01*
X21617Y14000D01*
X21621Y13992D01*
Y13981D01*
X21617Y13973D01*
X21614Y13969D01*
X21602Y13966D01*
X21568D01*
X21692Y14034D02*
X21685Y14042D01*
X21673Y14046D01*
X21658D01*
X21647Y14042D01*
X21639Y14034D01*
Y14026D01*
X21643Y14019D01*
X21647Y14015D01*
X21654Y14011D01*
X21677Y14004D01*
X21685Y14000D01*
X21689Y13996D01*
X21692Y13988D01*
Y13977D01*
X21685Y13969D01*
X21673Y13966D01*
X21658D01*
X21647Y13969D01*
X21639Y13977D01*
X21760Y14046D02*
X21710D01*
Y13966D01*
X21760D01*
X21710Y14007D02*
X21741D01*
X21773Y14046D02*
Y13966D01*
Y14046D02*
X21808D01*
X21819Y14042D01*
X21823Y14038D01*
X21827Y14030D01*
Y14023D01*
X21823Y14015D01*
X21819Y14011D01*
X21808Y14007D01*
X21773D01*
X21800D02*
X21827Y13966D01*
X21844Y14046D02*
X21875Y13966D01*
X21905Y14046D02*
X21875Y13966D01*
X21977D02*
X21946Y14046D01*
X21916Y13966D01*
X21927Y13992D02*
X21965D01*
X22022Y14046D02*
Y13966D01*
X21995Y14046D02*
X22049D01*
X22081D02*
X22073Y14042D01*
X22066Y14034D01*
X22062Y14026D01*
X22058Y14015D01*
Y13996D01*
X22062Y13985D01*
X22066Y13977D01*
X22073Y13969D01*
X22081Y13966D01*
X22096D01*
X22104Y13969D01*
X22111Y13977D01*
X22115Y13985D01*
X22119Y13996D01*
Y14015D01*
X22115Y14026D01*
X22111Y14034D01*
X22104Y14042D01*
X22096Y14046D01*
X22081D01*
X22138D02*
Y13966D01*
Y14046D02*
X22172D01*
X22183Y14042D01*
X22187Y14038D01*
X22191Y14030D01*
Y14023D01*
X22187Y14015D01*
X22183Y14011D01*
X22172Y14007D01*
X22138D01*
X22164D02*
X22191Y13966D01*
X22209Y14046D02*
X22239Y14007D01*
Y13966D01*
X22270Y14046D02*
X22239Y14007D01*
X22648Y14046D02*
X22610Y13966D01*
X22594Y14046D02*
X22648D01*
X22666Y13954D02*
X22719Y14046D01*
X22724Y14030D02*
X22732Y14034D01*
X22743Y14046D01*
Y13966D01*
X22829Y14034D02*
X22825Y14042D01*
X22813Y14046D01*
X22806D01*
X22794Y14042D01*
X22787Y14030D01*
X22783Y14011D01*
Y13992D01*
X22787Y13977D01*
X22794Y13969D01*
X22806Y13966D01*
X22810D01*
X22821Y13969D01*
X22829Y13977D01*
X22832Y13988D01*
Y13992D01*
X22829Y14004D01*
X22821Y14011D01*
X22810Y14015D01*
X22806D01*
X22794Y14011D01*
X22787Y14004D01*
X22783Y13992D01*
X22850Y13954D02*
X22903Y14046D01*
X22912Y14026D02*
Y14030D01*
X22916Y14038D01*
X22920Y14042D01*
X22928Y14046D01*
X22943D01*
X22951Y14042D01*
X22954Y14038D01*
X22958Y14030D01*
Y14023D01*
X22954Y14015D01*
X22947Y14004D01*
X22909Y13966D01*
X22962D01*
X23003Y14046D02*
X22991Y14042D01*
X22984Y14030D01*
X22980Y14011D01*
Y14000D01*
X22984Y13981D01*
X22991Y13969D01*
X23003Y13966D01*
X23010D01*
X23022Y13969D01*
X23029Y13981D01*
X23033Y14000D01*
Y14011D01*
X23029Y14030D01*
X23022Y14042D01*
X23010Y14046D01*
X23003D01*
X23051Y14030D02*
X23059Y14034D01*
X23070Y14046D01*
Y13966D01*
X23117Y14046D02*
X23159D01*
X23136Y14015D01*
X23148D01*
X23155Y14011D01*
X23159Y14007D01*
X23163Y13996D01*
Y13988D01*
X23159Y13977D01*
X23152Y13969D01*
X23140Y13966D01*
X23129D01*
X23117Y13969D01*
X23114Y13973D01*
X23110Y13981D01*
D15*
X20642Y14180D02*
X20650Y14184D01*
X20661Y14196D01*
Y14116D01*
X20754Y14196D02*
X20716Y14116D01*
X20701Y14196D02*
X20754D01*
X20818D02*
X20780D01*
X20776Y14161D01*
X20780Y14165D01*
X20791Y14169D01*
X20802D01*
X20814Y14165D01*
X20821Y14157D01*
X20825Y14146D01*
Y14138D01*
X20821Y14127D01*
X20814Y14119D01*
X20802Y14116D01*
X20791D01*
X20780Y14119D01*
X20776Y14123D01*
X20772Y14131D01*
X20843Y14150D02*
X20912D01*
X20958Y14196D02*
X20947Y14192D01*
X20939Y14180D01*
X20935Y14161D01*
Y14150D01*
X20939Y14131D01*
X20947Y14119D01*
X20958Y14116D01*
X20966D01*
X20977Y14119D01*
X20985Y14131D01*
X20989Y14150D01*
Y14161D01*
X20985Y14180D01*
X20977Y14192D01*
X20966Y14196D01*
X20958D01*
X21029D02*
X21018Y14192D01*
X21010Y14180D01*
X21007Y14161D01*
Y14150D01*
X21010Y14131D01*
X21018Y14119D01*
X21029Y14116D01*
X21037D01*
X21048Y14119D01*
X21056Y14131D01*
X21060Y14150D01*
Y14161D01*
X21056Y14180D01*
X21048Y14192D01*
X21037Y14196D01*
X21029D01*
X21101D02*
X21089Y14192D01*
X21082Y14180D01*
X21078Y14161D01*
Y14150D01*
X21082Y14131D01*
X21089Y14119D01*
X21101Y14116D01*
X21108D01*
X21120Y14119D01*
X21127Y14131D01*
X21131Y14150D01*
Y14161D01*
X21127Y14180D01*
X21120Y14192D01*
X21108Y14196D01*
X21101D01*
X21153Y14176D02*
Y14180D01*
X21157Y14188D01*
X21160Y14192D01*
X21168Y14196D01*
X21183D01*
X21191Y14192D01*
X21195Y14188D01*
X21198Y14180D01*
Y14173D01*
X21195Y14165D01*
X21187Y14154D01*
X21149Y14116D01*
X21202D01*
X21270Y14169D02*
X21266Y14157D01*
X21258Y14150D01*
X21247Y14146D01*
X21243D01*
X21232Y14150D01*
X21224Y14157D01*
X21220Y14169D01*
Y14173D01*
X21224Y14184D01*
X21232Y14192D01*
X21243Y14196D01*
X21247D01*
X21258Y14192D01*
X21266Y14184D01*
X21270Y14169D01*
Y14150D01*
X21266Y14131D01*
X21258Y14119D01*
X21247Y14116D01*
X21239D01*
X21228Y14119D01*
X21224Y14127D01*
X21354Y14169D02*
Y14116D01*
Y14146D02*
X21358Y14157D01*
X21366Y14165D01*
X21373Y14169D01*
X21385D01*
X21392Y14146D02*
X21438D01*
Y14154D01*
X21434Y14161D01*
X21430Y14165D01*
X21422Y14169D01*
X21411D01*
X21403Y14165D01*
X21396Y14157D01*
X21392Y14146D01*
Y14138D01*
X21396Y14127D01*
X21403Y14119D01*
X21411Y14116D01*
X21422D01*
X21430Y14119D01*
X21438Y14127D01*
X21455Y14169D02*
X21478Y14116D01*
X21501Y14169D02*
X21478Y14116D01*
X21521Y14196D02*
X21563D01*
X21540Y14165D01*
X21552D01*
X21559Y14161D01*
X21563Y14157D01*
X21567Y14146D01*
Y14138D01*
X21563Y14127D01*
X21555Y14119D01*
X21544Y14116D01*
X21533D01*
X21521Y14119D01*
X21517Y14123D01*
X21513Y14131D01*
X21592Y14119D02*
X21589Y14116D01*
X21585Y14119D01*
X21589Y14123D01*
X21592Y14119D01*
Y14112D01*
X21589Y14104D01*
X21585Y14100D01*
X21711Y14196D02*
X21673Y14142D01*
X21730D01*
X21711Y14196D02*
Y14116D01*
X21763Y14196D02*
X21752Y14192D01*
X21748Y14184D01*
Y14176D01*
X21752Y14169D01*
X21759Y14165D01*
X21774Y14161D01*
X21786Y14157D01*
X21793Y14150D01*
X21797Y14142D01*
Y14131D01*
X21793Y14123D01*
X21790Y14119D01*
X21778Y14116D01*
X21763D01*
X21752Y14119D01*
X21748Y14123D01*
X21744Y14131D01*
Y14142D01*
X21748Y14150D01*
X21755Y14157D01*
X21767Y14161D01*
X21782Y14165D01*
X21790Y14169D01*
X21793Y14176D01*
Y14184D01*
X21790Y14192D01*
X21778Y14196D01*
X21763D01*
X21861Y14184D02*
X21857Y14192D01*
X21846Y14196D01*
X21838D01*
X21827Y14192D01*
X21819Y14180D01*
X21815Y14161D01*
Y14142D01*
X21819Y14127D01*
X21827Y14119D01*
X21838Y14116D01*
X21842D01*
X21853Y14119D01*
X21861Y14127D01*
X21865Y14138D01*
Y14142D01*
X21861Y14154D01*
X21853Y14161D01*
X21842Y14165D01*
X21838D01*
X21827Y14161D01*
X21819Y14154D01*
X21815Y14142D01*
X22002Y14176D02*
X21998Y14184D01*
X21991Y14192D01*
X21983Y14196D01*
X21968D01*
X21960Y14192D01*
X21953Y14184D01*
X21949Y14176D01*
X21945Y14165D01*
Y14146D01*
X21949Y14135D01*
X21953Y14127D01*
X21960Y14119D01*
X21968Y14116D01*
X21983D01*
X21991Y14119D01*
X21998Y14127D01*
X22002Y14135D01*
X22082Y14176D02*
X22078Y14184D01*
X22070Y14192D01*
X22063Y14196D01*
X22047D01*
X22040Y14192D01*
X22032Y14184D01*
X22028Y14176D01*
X22025Y14165D01*
Y14146D01*
X22028Y14135D01*
X22032Y14127D01*
X22040Y14119D01*
X22047Y14116D01*
X22063D01*
X22070Y14119D01*
X22078Y14127D01*
X22082Y14135D01*
X22104Y14196D02*
Y14116D01*
Y14196D02*
X22131D01*
X22142Y14192D01*
X22150Y14184D01*
X22154Y14176D01*
X22158Y14165D01*
Y14146D01*
X22154Y14135D01*
X22150Y14127D01*
X22142Y14119D01*
X22131Y14116D01*
X22104D01*
X22238Y14196D02*
Y14116D01*
X22255Y14169D02*
Y14116D01*
Y14154D02*
X22266Y14165D01*
X22274Y14169D01*
X22286D01*
X22293Y14165D01*
X22297Y14154D01*
Y14116D01*
X22329Y14196D02*
Y14131D01*
X22333Y14119D01*
X22341Y14116D01*
X22348D01*
X22318Y14169D02*
X22345D01*
X22360Y14146D02*
X22405D01*
Y14154D01*
X22402Y14161D01*
X22398Y14165D01*
X22390Y14169D01*
X22379D01*
X22371Y14165D01*
X22364Y14157D01*
X22360Y14146D01*
Y14138D01*
X22364Y14127D01*
X22371Y14119D01*
X22379Y14116D01*
X22390D01*
X22398Y14119D01*
X22405Y14127D01*
X22423Y14169D02*
Y14116D01*
Y14146D02*
X22426Y14157D01*
X22434Y14165D01*
X22442Y14169D01*
X22453D01*
X22491Y14196D02*
X22483D01*
X22476Y14192D01*
X22472Y14180D01*
Y14116D01*
X22460Y14169D02*
X22487D01*
X22548D02*
Y14116D01*
Y14157D02*
X22540Y14165D01*
X22533Y14169D01*
X22521D01*
X22514Y14165D01*
X22506Y14157D01*
X22502Y14146D01*
Y14138D01*
X22506Y14127D01*
X22514Y14119D01*
X22521Y14116D01*
X22533D01*
X22540Y14119D01*
X22548Y14127D01*
X22615Y14157D02*
X22607Y14165D01*
X22600Y14169D01*
X22588D01*
X22581Y14165D01*
X22573Y14157D01*
X22569Y14146D01*
Y14138D01*
X22573Y14127D01*
X22581Y14119D01*
X22588Y14116D01*
X22600D01*
X22607Y14119D01*
X22615Y14127D01*
X22632Y14146D02*
X22678D01*
Y14154D01*
X22674Y14161D01*
X22670Y14165D01*
X22663Y14169D01*
X22651D01*
X22644Y14165D01*
X22636Y14157D01*
X22632Y14146D01*
Y14138D01*
X22636Y14127D01*
X22644Y14119D01*
X22651Y14116D01*
X22663D01*
X22670Y14119D01*
X22678Y14127D01*
D29*
X21270Y16652D02*
X21279Y16651D01*
X21287Y16648D01*
X21295Y16643D01*
X21301Y16637D01*
X21306Y16630D01*
X21309Y16621D01*
X21310Y16613D01*
Y16140D02*
Y16613D01*
X21309Y16131D02*
X21310Y16140D01*
X21306Y16123D02*
X21309Y16131D01*
X21301Y16116D02*
X21306Y16123D01*
X21295Y16109D02*
X21301Y16116D01*
X21287Y16105D02*
X21295Y16109D01*
X21279Y16102D02*
X21287Y16105D01*
X21270Y16101D02*
X21279Y16102D01*
X21034Y16101D02*
X21270D01*
X21025Y16102D02*
X21034Y16101D01*
X21017Y16105D02*
X21025Y16102D01*
X21010Y16109D02*
X21017Y16105D01*
X21003Y16116D02*
X21010Y16109D01*
X20999Y16123D02*
X21003Y16116D01*
X20996Y16131D02*
X20999Y16123D01*
X20995Y16140D02*
X20996Y16131D01*
X20995Y16140D02*
Y16613D01*
X20996Y16621D01*
X20999Y16630D01*
X21003Y16637D01*
X21010Y16643D01*
X21017Y16648D01*
X21025Y16651D01*
X21034Y16652D01*
X21270D01*
X22294Y17731D02*
X22312Y17729D01*
X20011Y17731D02*
X22294D01*
X19993Y17729D02*
X20011Y17731D01*
X19976Y17723D02*
X19993Y17729D01*
X19961Y17713D02*
X19976Y17723D01*
X19949Y17701D02*
X19961Y17713D01*
X19940Y17686D02*
X19949Y17701D01*
X19934Y17669D02*
X19940Y17686D01*
X19932Y17652D02*
X19934Y17669D01*
X19932Y15219D02*
Y17652D01*
Y15219D02*
X19934Y15201D01*
X19940Y15185D01*
X19949Y15170D01*
X19961Y15157D01*
X19976Y15148D01*
X19993Y15142D01*
X20011Y15140D01*
X22294D01*
X22312Y15142D01*
X22328Y15148D01*
X22343Y15157D01*
X22356Y15170D01*
X22365Y15185D01*
X22371Y15201D01*
X22373Y15219D01*
Y17652D01*
X22371Y17669D02*
X22373Y17652D01*
X22365Y17686D02*
X22371Y17669D01*
X22356Y17701D02*
X22365Y17686D01*
X22343Y17713D02*
X22356Y17701D01*
X22328Y17723D02*
X22343Y17713D01*
X22312Y17729D02*
X22328Y17723D01*
D30*
X20232Y16441D02*
D03*
X20210Y16384D02*
D03*
X20152Y16360D02*
D03*
X20071Y16440D02*
D03*
X20096Y16496D02*
D03*
X20152Y16519D02*
D03*
X22229Y16414D02*
D03*
X22207Y16357D02*
D03*
X22149Y16333D02*
D03*
X22068Y16413D02*
D03*
X22093Y16469D02*
D03*
X22149Y16492D02*
D03*
D31*
X21217Y16968D02*
D03*
X21746Y16310D02*
D03*
X21088Y15781D02*
D03*
X20559Y16439D02*
D03*
D32*
X20252Y17276D02*
D03*
X20352D02*
D03*
X20552D02*
D03*
X20652D02*
D03*
X20752D02*
D03*
X21552D02*
D03*
X21652D02*
D03*
X21752D02*
D03*
X21952D02*
D03*
X22052D02*
D03*
X20152Y17376D02*
D03*
X20252D02*
D03*
X20352D02*
D03*
X20452D02*
D03*
X20552D02*
D03*
X20652D02*
D03*
X20752D02*
D03*
X21652D02*
D03*
X21752D02*
D03*
X21852D02*
D03*
X21952D02*
D03*
X22052D02*
D03*
X22152D02*
D03*
X20252Y15476D02*
D03*
X20352D02*
D03*
X20552D02*
D03*
X20652D02*
D03*
X20752D02*
D03*
X21552D02*
D03*
X21652D02*
D03*
X21752D02*
D03*
X21952D02*
D03*
X22052D02*
D03*
X20152Y15376D02*
D03*
X20252D02*
D03*
X20352D02*
D03*
X20452D02*
D03*
X20552D02*
D03*
X20652D02*
D03*
X20752D02*
D03*
X21652D02*
D03*
X21752D02*
D03*
X21852D02*
D03*
X21952D02*
D03*
X22052D02*
D03*
X22152D02*
D03*
D33*
X20452Y17276D02*
D03*
X21852D02*
D03*
X20452Y15476D02*
D03*
X21852D02*
D03*
D34*
X21205Y16783D02*
D03*
X21559Y16429D02*
D03*
X20746Y16323D02*
D03*
X21099Y15970D02*
D03*
X20746Y16429D02*
D03*
X21099Y16783D02*
D03*
X21205Y15970D02*
D03*
X21559Y16323D02*
D03*
D35*
X21557Y17569D02*
D03*
D36*
X20738D02*
D03*
D37*
X22255Y15426D02*
D03*
X20050D02*
D03*
X22255Y17326D02*
D03*
X21723Y16947D02*
D03*
Y15805D02*
D03*
X20581D02*
D03*
X20050Y17326D02*
D03*
X20581Y16947D02*
D03*
D38*
X20714Y15935D02*
D03*
X21595Y15933D02*
D03*
X20709Y16819D02*
D03*
X21595D02*
D03*
D39*
X21802Y17573D02*
D03*
X20503D02*
D03*
D40*
X20681Y16402D02*
D03*
X20491Y16411D02*
D03*
X21110Y15900D02*
D03*
X21150Y15742D02*
D03*
X21623Y16351D02*
D03*
X21995Y16333D02*
D03*
X21962Y16330D02*
D03*
X20882Y17364D02*
D03*
X21360Y16245D02*
D03*
X20859Y17334D02*
D03*
X21163Y16841D02*
D03*
X20839Y17363D02*
D03*
X20823Y17384D02*
D03*
X21119Y17500D02*
D03*
X20551Y15668D02*
D03*
X20146Y15721D02*
D03*
X20553Y17124D02*
D03*
X20148D02*
D03*
X20451Y16238D02*
D03*
X20980Y17625D02*
D03*
X21058Y17604D02*
D03*
X21022Y17082D02*
D03*
X19995Y17624D02*
D03*
X20858Y16531D02*
D03*
Y17079D02*
D03*
X20900Y17603D02*
D03*
X22199Y17623D02*
D03*
X20986Y17135D02*
D03*
X21472Y17134D02*
D03*
Y16415D02*
D03*
X21859Y16578D02*
D03*
Y16109D02*
D03*
X21393Y17396D02*
D03*
X21395Y17216D02*
D03*
X21393Y17635D02*
D03*
X21375Y17190D02*
D03*
X21314Y17636D02*
D03*
X21297Y17170D02*
D03*
X21275Y17518D02*
D03*
X20210D02*
D03*
X21473Y17630D02*
D03*
X21899Y17655D02*
D03*
X21354Y17637D02*
D03*
X21354Y17376D02*
D03*
X21433Y17633D02*
D03*
Y17279D02*
D03*
X21472Y17418D02*
D03*
X20823Y17645D02*
D03*
X21158Y17602D02*
D03*
X21511Y17604D02*
D03*
X21195Y17354D02*
D03*
X21598Y17344D02*
D03*
X21237Y17623D02*
D03*
X20796Y17584D02*
D03*
X21155Y17316D02*
D03*
X20702Y17319D02*
D03*
X20649Y17548D02*
D03*
X21198Y17542D02*
D03*
X20604Y17326D02*
D03*
X21315Y17520D02*
D03*
X21994D02*
D03*
X21236Y17497D02*
D03*
X22096Y17517D02*
D03*
X21276Y17563D02*
D03*
X21375Y17541D02*
D03*
X20941Y17605D02*
D03*
X20541Y17650D02*
D03*
X21019Y17618D02*
D03*
Y17242D02*
D03*
X20628Y17212D02*
D03*
X20862Y17605D02*
D03*
X20767Y17601D02*
D03*
X20733Y17443D02*
D03*
X21858Y16522D02*
D03*
X21157Y17011D02*
D03*
X21391Y16266D02*
D03*
M02*
