%FSLAX23Y23*%
%MOIN*%
G70*
G01*
G75*
G04 Layer_Color=8421504*
%ADD10C,0.010*%
%ADD11C,0.008*%
%ADD12C,0.010*%
%ADD13C,0.012*%
%ADD14C,0.012*%
%ADD15C,0.012*%
%ADD16P,0.057X4X202.5*%
%ADD17C,0.040*%
%ADD18C,0.070*%
%ADD19R,0.070X0.070*%
%ADD20C,0.055*%
%ADD21C,0.035*%
%ADD22C,0.039*%
%ADD23C,0.071*%
%ADD24C,0.169*%
%ADD25C,0.047*%
%ADD26C,0.048*%
%ADD27C,0.024*%
%ADD28C,0.020*%
%ADD29C,0.010*%
%ADD30C,0.008*%
%ADD31R,0.078X0.048*%
%ADD32R,0.050X0.050*%
G04:AMPARAMS|DCode=33|XSize=59mil|YSize=118mil|CornerRadius=0mil|HoleSize=0mil|Usage=FLASHONLY|Rotation=315.000|XOffset=0mil|YOffset=0mil|HoleType=Round|Shape=Rectangle|*
%AMROTATEDRECTD33*
4,1,4,-0.063,-0.021,0.021,0.063,0.063,0.021,-0.021,-0.063,-0.063,-0.021,0.0*
%
%ADD33ROTATEDRECTD33*%

%ADD34R,0.010X0.035*%
%ADD35R,0.024X0.051*%
%ADD36R,0.048X0.078*%
%ADD37R,0.050X0.050*%
G04:AMPARAMS|DCode=38|XSize=59mil|YSize=118mil|CornerRadius=0mil|HoleSize=0mil|Usage=FLASHONLY|Rotation=225.000|XOffset=0mil|YOffset=0mil|HoleType=Round|Shape=Rectangle|*
%AMROTATEDRECTD38*
4,1,4,-0.021,0.063,0.063,-0.021,0.021,-0.063,-0.063,0.021,-0.021,0.063,0.0*
%
%ADD38ROTATEDRECTD38*%

%ADD39C,0.030*%
%ADD40C,0.007*%
%ADD41C,0.005*%
D11*
X18927Y13402D02*
X19427D01*
X19177Y13152D02*
Y13652D01*
X19227Y13402D02*
Y13452D01*
X19177D02*
X19227D01*
X19127Y13352D02*
Y13402D01*
Y13352D02*
X19177D01*
X19132Y13397D02*
X19172D01*
X19132Y13357D02*
Y13397D01*
Y13357D02*
X19172D01*
Y13397D01*
X19137Y13392D02*
X19167D01*
X19137Y13362D02*
Y13392D01*
Y13362D02*
X19167D01*
Y13387D01*
X19142D02*
X19162D01*
X19142Y13367D02*
Y13387D01*
Y13367D02*
X19162D01*
Y13382D01*
X19147D02*
X19157D01*
X19147Y13372D02*
Y13382D01*
Y13372D02*
X19157D01*
Y13382D01*
X19147Y13377D02*
X19157D01*
X19182Y13447D02*
X19222D01*
X19182Y13407D02*
Y13447D01*
Y13407D02*
X19222D01*
Y13447D01*
X19187Y13442D02*
X19217D01*
X19187Y13412D02*
Y13442D01*
Y13412D02*
X19217D01*
Y13437D01*
X19192D02*
X19212D01*
X19192Y13417D02*
Y13437D01*
Y13417D02*
X19212D01*
Y13432D01*
X19197D02*
X19207D01*
X19197Y13422D02*
Y13432D01*
Y13422D02*
X19207D01*
Y13432D01*
X19197Y13427D02*
X19207D01*
X18763Y18387D02*
X19263D01*
X19013Y18137D02*
Y18637D01*
X19063Y18387D02*
Y18437D01*
X19013D02*
X19063D01*
X18963Y18337D02*
Y18387D01*
Y18337D02*
X19013D01*
X18968Y18382D02*
X19008D01*
X18968Y18342D02*
Y18382D01*
Y18342D02*
X19008D01*
Y18382D01*
X18973Y18377D02*
X19003D01*
X18973Y18347D02*
Y18377D01*
Y18347D02*
X19003D01*
Y18372D01*
X18978D02*
X18998D01*
X18978Y18352D02*
Y18372D01*
Y18352D02*
X18998D01*
Y18367D01*
X18983D02*
X18993D01*
X18983Y18357D02*
Y18367D01*
Y18357D02*
X18993D01*
Y18367D01*
X18983Y18362D02*
X18993D01*
X19018Y18432D02*
X19058D01*
X19018Y18392D02*
Y18432D01*
Y18392D02*
X19058D01*
Y18432D01*
X19023Y18427D02*
X19053D01*
X19023Y18397D02*
Y18427D01*
Y18397D02*
X19053D01*
Y18422D01*
X19028D02*
X19048D01*
X19028Y18402D02*
Y18422D01*
Y18402D02*
X19048D01*
Y18417D01*
X19033D02*
X19043D01*
X19033Y18407D02*
Y18417D01*
Y18407D02*
X19043D01*
Y18417D01*
X19033Y18412D02*
X19043D01*
X23049Y18371D02*
X23549D01*
X23299Y18121D02*
Y18621D01*
X23349Y18371D02*
Y18421D01*
X23299D02*
X23349D01*
X23249Y18321D02*
Y18371D01*
Y18321D02*
X23299D01*
X23254Y18366D02*
X23294D01*
X23254Y18326D02*
Y18366D01*
Y18326D02*
X23294D01*
Y18366D01*
X23259Y18361D02*
X23289D01*
X23259Y18331D02*
Y18361D01*
Y18331D02*
X23289D01*
Y18356D01*
X23264D02*
X23284D01*
X23264Y18336D02*
Y18356D01*
Y18336D02*
X23284D01*
Y18351D01*
X23269D02*
X23279D01*
X23269Y18341D02*
Y18351D01*
Y18341D02*
X23279D01*
Y18351D01*
X23269Y18346D02*
X23279D01*
X23304Y18416D02*
X23344D01*
X23304Y18376D02*
Y18416D01*
Y18376D02*
X23344D01*
Y18416D01*
X23309Y18411D02*
X23339D01*
X23309Y18381D02*
Y18411D01*
Y18381D02*
X23339D01*
Y18406D01*
X23314D02*
X23334D01*
X23314Y18386D02*
Y18406D01*
Y18386D02*
X23334D01*
Y18401D01*
X23319D02*
X23329D01*
X23319Y18391D02*
Y18401D01*
Y18391D02*
X23329D01*
Y18401D01*
X23319Y18396D02*
X23329D01*
D14*
X20642Y14046D02*
Y13966D01*
X20688D01*
X20757D02*
X20727Y14046D01*
X20697Y13966D01*
X20708Y13992D02*
X20746D01*
X20829Y14034D02*
X20822Y14042D01*
X20810Y14046D01*
X20795D01*
X20784Y14042D01*
X20776Y14034D01*
Y14026D01*
X20780Y14019D01*
X20784Y14015D01*
X20791Y14011D01*
X20814Y14004D01*
X20822Y14000D01*
X20826Y13996D01*
X20829Y13988D01*
Y13977D01*
X20822Y13969D01*
X20810Y13966D01*
X20795D01*
X20784Y13969D01*
X20776Y13977D01*
X20967Y14026D02*
X20964Y14034D01*
X20956Y14042D01*
X20948Y14046D01*
X20933D01*
X20925Y14042D01*
X20918Y14034D01*
X20914Y14026D01*
X20910Y14015D01*
Y13996D01*
X20914Y13985D01*
X20918Y13977D01*
X20925Y13969D01*
X20933Y13966D01*
X20948D01*
X20956Y13969D01*
X20964Y13977D01*
X20967Y13985D01*
X20990Y14046D02*
Y13988D01*
X20994Y13977D01*
X21001Y13969D01*
X21013Y13966D01*
X21020D01*
X21032Y13969D01*
X21039Y13977D01*
X21043Y13988D01*
Y14046D01*
X21065D02*
Y13966D01*
Y14046D02*
X21096Y13966D01*
X21126Y14046D02*
X21096Y13966D01*
X21126Y14046D02*
Y13966D01*
X21149Y14046D02*
Y13966D01*
Y14046D02*
X21183D01*
X21195Y14042D01*
X21198Y14038D01*
X21202Y14030D01*
Y14023D01*
X21198Y14015D01*
X21195Y14011D01*
X21183Y14007D01*
X21149D02*
X21183D01*
X21195Y14004D01*
X21198Y14000D01*
X21202Y13992D01*
Y13981D01*
X21198Y13973D01*
X21195Y13969D01*
X21183Y13966D01*
X21149D01*
X21220Y14046D02*
Y13966D01*
Y14046D02*
X21254D01*
X21266Y14042D01*
X21270Y14038D01*
X21274Y14030D01*
Y14023D01*
X21270Y14015D01*
X21266Y14011D01*
X21254Y14007D01*
X21220D01*
X21247D02*
X21274Y13966D01*
X21341Y14046D02*
X21291D01*
Y13966D01*
X21341D01*
X21291Y14007D02*
X21322D01*
X21408Y14034D02*
X21400Y14042D01*
X21389Y14046D01*
X21373D01*
X21362Y14042D01*
X21354Y14034D01*
Y14026D01*
X21358Y14019D01*
X21362Y14015D01*
X21370Y14011D01*
X21392Y14004D01*
X21400Y14000D01*
X21404Y13996D01*
X21408Y13988D01*
Y13977D01*
X21400Y13969D01*
X21389Y13966D01*
X21373D01*
X21362Y13969D01*
X21354Y13977D01*
X21511Y14046D02*
X21504Y14042D01*
X21496Y14034D01*
X21492Y14026D01*
X21488Y14015D01*
Y13996D01*
X21492Y13985D01*
X21496Y13977D01*
X21504Y13969D01*
X21511Y13966D01*
X21526D01*
X21534Y13969D01*
X21542Y13977D01*
X21545Y13985D01*
X21549Y13996D01*
Y14015D01*
X21545Y14026D01*
X21542Y14034D01*
X21534Y14042D01*
X21526Y14046D01*
X21511D01*
X21568D02*
Y13966D01*
Y14046D02*
X21602D01*
X21614Y14042D01*
X21617Y14038D01*
X21621Y14030D01*
Y14023D01*
X21617Y14015D01*
X21614Y14011D01*
X21602Y14007D01*
X21568D02*
X21602D01*
X21614Y14004D01*
X21617Y14000D01*
X21621Y13992D01*
Y13981D01*
X21617Y13973D01*
X21614Y13969D01*
X21602Y13966D01*
X21568D01*
X21692Y14034D02*
X21685Y14042D01*
X21673Y14046D01*
X21658D01*
X21647Y14042D01*
X21639Y14034D01*
Y14026D01*
X21643Y14019D01*
X21647Y14015D01*
X21654Y14011D01*
X21677Y14004D01*
X21685Y14000D01*
X21689Y13996D01*
X21692Y13988D01*
Y13977D01*
X21685Y13969D01*
X21673Y13966D01*
X21658D01*
X21647Y13969D01*
X21639Y13977D01*
X21760Y14046D02*
X21710D01*
Y13966D01*
X21760D01*
X21710Y14007D02*
X21741D01*
X21773Y14046D02*
Y13966D01*
Y14046D02*
X21808D01*
X21819Y14042D01*
X21823Y14038D01*
X21827Y14030D01*
Y14023D01*
X21823Y14015D01*
X21819Y14011D01*
X21808Y14007D01*
X21773D01*
X21800D02*
X21827Y13966D01*
X21844Y14046D02*
X21875Y13966D01*
X21905Y14046D02*
X21875Y13966D01*
X21977D02*
X21946Y14046D01*
X21916Y13966D01*
X21927Y13992D02*
X21965D01*
X22022Y14046D02*
Y13966D01*
X21995Y14046D02*
X22049D01*
X22081D02*
X22073Y14042D01*
X22066Y14034D01*
X22062Y14026D01*
X22058Y14015D01*
Y13996D01*
X22062Y13985D01*
X22066Y13977D01*
X22073Y13969D01*
X22081Y13966D01*
X22096D01*
X22104Y13969D01*
X22111Y13977D01*
X22115Y13985D01*
X22119Y13996D01*
Y14015D01*
X22115Y14026D01*
X22111Y14034D01*
X22104Y14042D01*
X22096Y14046D01*
X22081D01*
X22138D02*
Y13966D01*
Y14046D02*
X22172D01*
X22183Y14042D01*
X22187Y14038D01*
X22191Y14030D01*
Y14023D01*
X22187Y14015D01*
X22183Y14011D01*
X22172Y14007D01*
X22138D01*
X22164D02*
X22191Y13966D01*
X22209Y14046D02*
X22239Y14007D01*
Y13966D01*
X22270Y14046D02*
X22239Y14007D01*
X22648Y14046D02*
X22610Y13966D01*
X22594Y14046D02*
X22648D01*
X22666Y13954D02*
X22719Y14046D01*
X22724Y14030D02*
X22732Y14034D01*
X22743Y14046D01*
Y13966D01*
X22829Y14034D02*
X22825Y14042D01*
X22813Y14046D01*
X22806D01*
X22794Y14042D01*
X22787Y14030D01*
X22783Y14011D01*
Y13992D01*
X22787Y13977D01*
X22794Y13969D01*
X22806Y13966D01*
X22810D01*
X22821Y13969D01*
X22829Y13977D01*
X22832Y13988D01*
Y13992D01*
X22829Y14004D01*
X22821Y14011D01*
X22810Y14015D01*
X22806D01*
X22794Y14011D01*
X22787Y14004D01*
X22783Y13992D01*
X22850Y13954D02*
X22903Y14046D01*
X22912Y14026D02*
Y14030D01*
X22916Y14038D01*
X22920Y14042D01*
X22928Y14046D01*
X22943D01*
X22951Y14042D01*
X22954Y14038D01*
X22958Y14030D01*
Y14023D01*
X22954Y14015D01*
X22947Y14004D01*
X22909Y13966D01*
X22962D01*
X23003Y14046D02*
X22991Y14042D01*
X22984Y14030D01*
X22980Y14011D01*
Y14000D01*
X22984Y13981D01*
X22991Y13969D01*
X23003Y13966D01*
X23010D01*
X23022Y13969D01*
X23029Y13981D01*
X23033Y14000D01*
Y14011D01*
X23029Y14030D01*
X23022Y14042D01*
X23010Y14046D01*
X23003D01*
X23051Y14030D02*
X23059Y14034D01*
X23070Y14046D01*
Y13966D01*
X23117Y14046D02*
X23159D01*
X23136Y14015D01*
X23148D01*
X23155Y14011D01*
X23159Y14007D01*
X23163Y13996D01*
Y13988D01*
X23159Y13977D01*
X23152Y13969D01*
X23140Y13966D01*
X23129D01*
X23117Y13969D01*
X23114Y13973D01*
X23110Y13981D01*
D15*
X20642Y14180D02*
X20650Y14184D01*
X20661Y14196D01*
Y14116D01*
X20754Y14196D02*
X20716Y14116D01*
X20701Y14196D02*
X20754D01*
X20818D02*
X20780D01*
X20776Y14161D01*
X20780Y14165D01*
X20791Y14169D01*
X20802D01*
X20814Y14165D01*
X20821Y14157D01*
X20825Y14146D01*
Y14138D01*
X20821Y14127D01*
X20814Y14119D01*
X20802Y14116D01*
X20791D01*
X20780Y14119D01*
X20776Y14123D01*
X20772Y14131D01*
X20843Y14150D02*
X20912D01*
X20958Y14196D02*
X20947Y14192D01*
X20939Y14180D01*
X20935Y14161D01*
Y14150D01*
X20939Y14131D01*
X20947Y14119D01*
X20958Y14116D01*
X20966D01*
X20977Y14119D01*
X20985Y14131D01*
X20989Y14150D01*
Y14161D01*
X20985Y14180D01*
X20977Y14192D01*
X20966Y14196D01*
X20958D01*
X21029D02*
X21018Y14192D01*
X21010Y14180D01*
X21007Y14161D01*
Y14150D01*
X21010Y14131D01*
X21018Y14119D01*
X21029Y14116D01*
X21037D01*
X21048Y14119D01*
X21056Y14131D01*
X21060Y14150D01*
Y14161D01*
X21056Y14180D01*
X21048Y14192D01*
X21037Y14196D01*
X21029D01*
X21101D02*
X21089Y14192D01*
X21082Y14180D01*
X21078Y14161D01*
Y14150D01*
X21082Y14131D01*
X21089Y14119D01*
X21101Y14116D01*
X21108D01*
X21120Y14119D01*
X21127Y14131D01*
X21131Y14150D01*
Y14161D01*
X21127Y14180D01*
X21120Y14192D01*
X21108Y14196D01*
X21101D01*
X21153Y14176D02*
Y14180D01*
X21157Y14188D01*
X21160Y14192D01*
X21168Y14196D01*
X21183D01*
X21191Y14192D01*
X21195Y14188D01*
X21198Y14180D01*
Y14173D01*
X21195Y14165D01*
X21187Y14154D01*
X21149Y14116D01*
X21202D01*
X21270Y14169D02*
X21266Y14157D01*
X21258Y14150D01*
X21247Y14146D01*
X21243D01*
X21232Y14150D01*
X21224Y14157D01*
X21220Y14169D01*
Y14173D01*
X21224Y14184D01*
X21232Y14192D01*
X21243Y14196D01*
X21247D01*
X21258Y14192D01*
X21266Y14184D01*
X21270Y14169D01*
Y14150D01*
X21266Y14131D01*
X21258Y14119D01*
X21247Y14116D01*
X21239D01*
X21228Y14119D01*
X21224Y14127D01*
X21354Y14169D02*
Y14116D01*
Y14146D02*
X21358Y14157D01*
X21366Y14165D01*
X21373Y14169D01*
X21385D01*
X21392Y14146D02*
X21438D01*
Y14154D01*
X21434Y14161D01*
X21430Y14165D01*
X21422Y14169D01*
X21411D01*
X21403Y14165D01*
X21396Y14157D01*
X21392Y14146D01*
Y14138D01*
X21396Y14127D01*
X21403Y14119D01*
X21411Y14116D01*
X21422D01*
X21430Y14119D01*
X21438Y14127D01*
X21455Y14169D02*
X21478Y14116D01*
X21501Y14169D02*
X21478Y14116D01*
X21521Y14196D02*
X21563D01*
X21540Y14165D01*
X21552D01*
X21559Y14161D01*
X21563Y14157D01*
X21567Y14146D01*
Y14138D01*
X21563Y14127D01*
X21555Y14119D01*
X21544Y14116D01*
X21533D01*
X21521Y14119D01*
X21517Y14123D01*
X21513Y14131D01*
X21592Y14119D02*
X21589Y14116D01*
X21585Y14119D01*
X21589Y14123D01*
X21592Y14119D01*
Y14112D01*
X21589Y14104D01*
X21585Y14100D01*
X21711Y14196D02*
X21673Y14142D01*
X21730D01*
X21711Y14196D02*
Y14116D01*
X21763Y14196D02*
X21752Y14192D01*
X21748Y14184D01*
Y14176D01*
X21752Y14169D01*
X21759Y14165D01*
X21774Y14161D01*
X21786Y14157D01*
X21793Y14150D01*
X21797Y14142D01*
Y14131D01*
X21793Y14123D01*
X21790Y14119D01*
X21778Y14116D01*
X21763D01*
X21752Y14119D01*
X21748Y14123D01*
X21744Y14131D01*
Y14142D01*
X21748Y14150D01*
X21755Y14157D01*
X21767Y14161D01*
X21782Y14165D01*
X21790Y14169D01*
X21793Y14176D01*
Y14184D01*
X21790Y14192D01*
X21778Y14196D01*
X21763D01*
X21861Y14184D02*
X21857Y14192D01*
X21846Y14196D01*
X21838D01*
X21827Y14192D01*
X21819Y14180D01*
X21815Y14161D01*
Y14142D01*
X21819Y14127D01*
X21827Y14119D01*
X21838Y14116D01*
X21842D01*
X21853Y14119D01*
X21861Y14127D01*
X21865Y14138D01*
Y14142D01*
X21861Y14154D01*
X21853Y14161D01*
X21842Y14165D01*
X21838D01*
X21827Y14161D01*
X21819Y14154D01*
X21815Y14142D01*
X22002Y14176D02*
X21998Y14184D01*
X21991Y14192D01*
X21983Y14196D01*
X21968D01*
X21960Y14192D01*
X21953Y14184D01*
X21949Y14176D01*
X21945Y14165D01*
Y14146D01*
X21949Y14135D01*
X21953Y14127D01*
X21960Y14119D01*
X21968Y14116D01*
X21983D01*
X21991Y14119D01*
X21998Y14127D01*
X22002Y14135D01*
X22082Y14176D02*
X22078Y14184D01*
X22070Y14192D01*
X22063Y14196D01*
X22047D01*
X22040Y14192D01*
X22032Y14184D01*
X22028Y14176D01*
X22025Y14165D01*
Y14146D01*
X22028Y14135D01*
X22032Y14127D01*
X22040Y14119D01*
X22047Y14116D01*
X22063D01*
X22070Y14119D01*
X22078Y14127D01*
X22082Y14135D01*
X22104Y14196D02*
Y14116D01*
Y14196D02*
X22131D01*
X22142Y14192D01*
X22150Y14184D01*
X22154Y14176D01*
X22158Y14165D01*
Y14146D01*
X22154Y14135D01*
X22150Y14127D01*
X22142Y14119D01*
X22131Y14116D01*
X22104D01*
X22238Y14196D02*
Y14116D01*
X22255Y14169D02*
Y14116D01*
Y14154D02*
X22266Y14165D01*
X22274Y14169D01*
X22286D01*
X22293Y14165D01*
X22297Y14154D01*
Y14116D01*
X22329Y14196D02*
Y14131D01*
X22333Y14119D01*
X22341Y14116D01*
X22348D01*
X22318Y14169D02*
X22345D01*
X22360Y14146D02*
X22405D01*
Y14154D01*
X22402Y14161D01*
X22398Y14165D01*
X22390Y14169D01*
X22379D01*
X22371Y14165D01*
X22364Y14157D01*
X22360Y14146D01*
Y14138D01*
X22364Y14127D01*
X22371Y14119D01*
X22379Y14116D01*
X22390D01*
X22398Y14119D01*
X22405Y14127D01*
X22423Y14169D02*
Y14116D01*
Y14146D02*
X22426Y14157D01*
X22434Y14165D01*
X22442Y14169D01*
X22453D01*
X22491Y14196D02*
X22483D01*
X22476Y14192D01*
X22472Y14180D01*
Y14116D01*
X22460Y14169D02*
X22487D01*
X22548D02*
Y14116D01*
Y14157D02*
X22540Y14165D01*
X22533Y14169D01*
X22521D01*
X22514Y14165D01*
X22506Y14157D01*
X22502Y14146D01*
Y14138D01*
X22506Y14127D01*
X22514Y14119D01*
X22521Y14116D01*
X22533D01*
X22540Y14119D01*
X22548Y14127D01*
X22615Y14157D02*
X22607Y14165D01*
X22600Y14169D01*
X22588D01*
X22581Y14165D01*
X22573Y14157D01*
X22569Y14146D01*
Y14138D01*
X22573Y14127D01*
X22581Y14119D01*
X22588Y14116D01*
X22600D01*
X22607Y14119D01*
X22615Y14127D01*
X22632Y14146D02*
X22678D01*
Y14154D01*
X22674Y14161D01*
X22670Y14165D01*
X22663Y14169D01*
X22651D01*
X22644Y14165D01*
X22636Y14157D01*
X22632Y14146D01*
Y14138D01*
X22636Y14127D01*
X22644Y14119D01*
X22651Y14116D01*
X22663D01*
X22670Y14119D01*
X22678Y14127D01*
M02*
