M48
;Layer_Color=9474304
;FILE_FORMAT=2:3
INCH,LZ
;TYPE=PLATED
T1F00S00C0.010
T2F00S00C0.033
T3F00S00C0.035
T4F00S00C0.040
%
T01
X00447Y00174
X00484Y00232
X00679Y00119
X00845Y00172
X00886Y00275
X01337Y00259
X01496Y00285
X01655Y00172
X01821Y00119
X01805Y00271
X02016Y00232
X02015Y0032
X02018Y00373
X02016Y00579
X01968Y00646
X0182Y0072
X0185Y0084
X01765Y00832
X01751Y00597
X0162Y0062
X01613Y0032
X0206Y0085
X02345Y00604
X0194Y01293
X01844Y01656
X01814Y01776
X01673Y01778
X01962Y0185
X02054Y01646
X01269Y01666
X00738Y0168
X0065Y0166
X0068Y0178
X00532Y01854
X0044Y0165
X00384Y01009
X0044Y0085
X0065Y0084
X0068Y0072
X00749Y00597
X00532Y00646
X00484Y00579
X00482Y00373
X0048Y00323
X00884Y00321
X01005Y00582
X01318Y0078
X01005Y01181
X00167Y00501
X00107Y00538
X00084Y0198
X00163Y0214
X00482Y02127
X00481Y02177
X00484Y02268
X00698Y02228
X00679Y02381
X00845Y02328
X00894Y02179
X01003Y02209
X00898Y01966
X00882Y01879
X00749Y01903
X00484Y01921
X01104Y01934
X0142Y01935
Y02096
X01326Y02242
X01612Y02176
X01649Y02324
X01815Y02377
X018Y02224
X0201Y02264
X02011Y02175
X02012Y02123
X0201Y01917
X01745Y01899
X02363Y02096
T02
X00439Y01215
X00539
Y01315
X00439
X00489Y01265
T03
X01603Y0105
Y0135
X02246Y01367
Y01267
Y01167
Y01067
X01503Y0105
X01403
X01303
X01203
X01103
X01003
X00903
Y0135
X01003
X01103
X01203
X01303
X01403
X01503
T04
X0025Y0025
X0035
X0215
X0225
Y0035
X0215
Y0045
Y0055
Y0065
Y0075
Y0085
X0225Y0075
Y0065
Y0055
Y0045
Y0165
X0215
Y0175
Y0185
X0225
Y0175
X0035
Y0185
X0025
Y0175
Y0165
X0035
Y0085
Y0075
Y0065
Y0055
Y0045
Y0035
X0025
Y0045
Y0055
Y0065
Y0075
Y0195
X0035
Y0205
Y0215
Y0225
X0025
Y0215
Y0205
X0215
Y0215
Y0225
X0225
Y0215
Y0205
Y0195
X0215
M30
