G04 Layer_Color=32768*
%FSLAX26Y26*%
%MOIN*%
%TF.FileFunction,Mechanical*%
%TF.Part,Single*%
G01*
G75*
%TA.AperFunction,NonConductor*%
%ADD59C,0.010000*%
%ADD63C,0.006000*%
%ADD69C,0.002000*%
%ADD70C,0.004000*%
%ADD71C,0.007000*%
%ADD72R,0.068000X0.025000*%
%ADD73R,0.025000X0.068000*%
D59*
X179000Y-72019D02*
Y-132000D01*
X218987D01*
X238981D02*
Y-72019D01*
X268971D01*
X278968Y-82016D01*
Y-102010D01*
X268971Y-112007D01*
X238981D01*
X258974D02*
X278968Y-132000D01*
X2013987Y-78016D02*
X2003990Y-68019D01*
X1983997D01*
X1974000Y-78016D01*
Y-88013D01*
X1983997Y-98010D01*
X2003990D01*
X2013987Y-108007D01*
Y-118003D01*
X2003990Y-128000D01*
X1983997D01*
X1974000Y-118003D01*
X2043977Y-78016D02*
Y-88013D01*
X2033981D01*
X2053974D01*
X2043977D01*
Y-118003D01*
X2053974Y-128000D01*
X2083964Y-88013D02*
Y-128000D01*
Y-108007D01*
X2093961Y-98010D01*
X2103958Y-88013D01*
X2113955D01*
X2143945Y-128000D02*
X2163939D01*
X2153942D01*
Y-88013D01*
X2143945D01*
X2193929Y-128000D02*
Y-88013D01*
X2223919D01*
X2233916Y-98010D01*
Y-128000D01*
X2273903Y-147994D02*
X2283900D01*
X2293896Y-137997D01*
Y-88013D01*
X2263906D01*
X2253909Y-98010D01*
Y-118003D01*
X2263906Y-128000D01*
X2293896D01*
X2019987Y2714984D02*
X2009990Y2724981D01*
X1989997D01*
X1980000Y2714984D01*
Y2704987D01*
X1989997Y2694990D01*
X2009990D01*
X2019987Y2684994D01*
Y2674997D01*
X2009990Y2665000D01*
X1989997D01*
X1980000Y2674997D01*
X2049977Y2714984D02*
Y2704987D01*
X2039981D01*
X2059974D01*
X2049977D01*
Y2674997D01*
X2059974Y2665000D01*
X2089964Y2704987D02*
Y2665000D01*
Y2684994D01*
X2099961Y2694990D01*
X2109958Y2704987D01*
X2119955D01*
X2149945Y2665000D02*
X2169939D01*
X2159942D01*
Y2704987D01*
X2149945D01*
X2199929Y2665000D02*
Y2704987D01*
X2229919D01*
X2239916Y2694990D01*
Y2665000D01*
X2279903Y2645006D02*
X2289900D01*
X2299896Y2655003D01*
Y2704987D01*
X2269906D01*
X2259909Y2694990D01*
Y2674997D01*
X2269906Y2665000D01*
X2299896D01*
X145987Y2711984D02*
X135990Y2721981D01*
X115997D01*
X106000Y2711984D01*
Y2701987D01*
X115997Y2691990D01*
X135990D01*
X145987Y2681994D01*
Y2671997D01*
X135990Y2662000D01*
X115997D01*
X106000Y2671997D01*
X175977Y2711984D02*
Y2701987D01*
X165981D01*
X185974D01*
X175977D01*
Y2671997D01*
X185974Y2662000D01*
X215964Y2701987D02*
Y2662000D01*
Y2681994D01*
X225961Y2691990D01*
X235958Y2701987D01*
X245955D01*
X275945Y2662000D02*
X295938D01*
X285942D01*
Y2701987D01*
X275945D01*
X325929Y2662000D02*
Y2701987D01*
X355919D01*
X365916Y2691990D01*
Y2662000D01*
X405903Y2642006D02*
X415900D01*
X425897Y2652003D01*
Y2701987D01*
X395906D01*
X385909Y2691990D01*
Y2671997D01*
X395906Y2662000D01*
X425897D01*
D63*
X1661000Y2014999D02*
Y2064999D01*
X1741000Y2014999D02*
Y2064999D01*
X1661000D02*
X1741000D01*
X1661000Y2014999D02*
X1741000D01*
X1661001Y1993000D02*
X1741001D01*
X1661001Y1943000D02*
X1741001D01*
X1661001D02*
Y1993000D01*
X1741001Y1943000D02*
Y1993000D01*
X1895000Y1954999D02*
X1945000D01*
X1895000Y2034999D02*
X1945000D01*
X1895000Y1954999D02*
Y2034999D01*
X1945000Y1954999D02*
Y2034999D01*
X2033001Y1909000D02*
Y2031000D01*
X1965001Y1909000D02*
Y2031000D01*
X2033001D01*
X1965001Y1909000D02*
X2033001D01*
X2098017Y1954000D02*
Y2034000D01*
X2048017Y1954000D02*
Y2034000D01*
X2098017D01*
X2048017Y1954000D02*
X2098017D01*
X2000000Y2407999D02*
X2050000D01*
X2000000Y2327999D02*
X2050000D01*
Y2407999D01*
X2000000Y2327999D02*
Y2407999D01*
X2073001Y2328000D02*
Y2450000D01*
X2141001Y2328000D02*
Y2450000D01*
X2073001Y2328000D02*
X2141001D01*
X2073001Y2450000D02*
X2141001D01*
X377000Y1444000D02*
X427000D01*
X377000Y1524000D02*
X427000D01*
X377000Y1444000D02*
Y1524000D01*
X427000Y1444000D02*
Y1524000D01*
X184378Y1153000D02*
X234378D01*
X184378Y1073000D02*
X234378D01*
Y1153000D01*
X184378Y1073000D02*
Y1153000D01*
X2272000Y1419000D02*
X2322000D01*
X2272000Y1499000D02*
X2322000D01*
X2272000Y1419000D02*
Y1499000D01*
X2322000Y1419000D02*
Y1499000D01*
X2060001Y1247999D02*
Y1297999D01*
X1980001Y1247999D02*
Y1297999D01*
Y1247999D02*
X2060001D01*
X1980001Y1297999D02*
X2060001D01*
X1927000Y611000D02*
X2007000D01*
X1927000Y561000D02*
X2007000D01*
X1927000D02*
Y611000D01*
X2007000Y561000D02*
Y611000D01*
X474000Y1915000D02*
Y2037000D01*
X406000Y1915000D02*
Y2037000D01*
X474000D01*
X406000Y1915000D02*
X474000D01*
X405000Y474086D02*
X527000D01*
X405000Y542086D02*
X527000D01*
Y474086D02*
Y542086D01*
X405000Y474086D02*
Y542086D01*
X1929999Y542085D02*
X2051999D01*
X1929999Y474085D02*
X2051999D01*
X1929999D02*
Y542085D01*
X2051999Y474085D02*
Y542085D01*
X2192000Y994000D02*
X2314000D01*
X2192000Y1061999D02*
X2314000D01*
Y994000D02*
Y1061999D01*
X2192000Y994000D02*
Y1061999D01*
X301000Y2333000D02*
Y2455000D01*
X369000Y2333000D02*
Y2455000D01*
X301000Y2333000D02*
X369000D01*
X301000Y2455000D02*
X369000D01*
X227000Y1639001D02*
X349000D01*
X227000Y1571001D02*
X349000D01*
X227000D02*
Y1639001D01*
X349000Y1571001D02*
Y1639001D01*
X495490Y1960999D02*
X545490D01*
X495490Y2040999D02*
X545490D01*
X495490Y1960999D02*
Y2040999D01*
X545490Y1960999D02*
Y2040999D01*
X436000Y405000D02*
Y455000D01*
X516000Y405000D02*
Y455000D01*
X436000D02*
X516000D01*
X436000Y405000D02*
X516000D01*
X2005000Y405000D02*
Y455000D01*
X1925000Y405000D02*
Y455000D01*
Y405000D02*
X2005000D01*
X1925000Y455000D02*
X2005000D01*
X786000Y2020001D02*
Y2070001D01*
X706000Y2020001D02*
Y2070001D01*
Y2020001D02*
X786000D01*
X706000Y2070001D02*
X786000D01*
X705000Y111999D02*
Y162000D01*
X625000Y111999D02*
Y162000D01*
Y111999D02*
X705000D01*
X625000Y162000D02*
X705000D01*
X1735000Y115001D02*
Y165000D01*
X1815000Y115001D02*
Y165000D01*
X1735000D02*
X1815000D01*
X1735000Y115001D02*
X1815000D01*
X494150Y1150001D02*
Y1200001D01*
X414150Y1150001D02*
Y1200001D01*
Y1150001D02*
X494150D01*
X414150Y1200001D02*
X494150D01*
X2005000Y114999D02*
Y165000D01*
X1925000Y114999D02*
Y165000D01*
Y114999D02*
X2005000D01*
X1925000Y165000D02*
X2005000D01*
X435000Y112001D02*
Y162000D01*
X515000Y112001D02*
Y162000D01*
X435000D02*
X515000D01*
X435000Y112001D02*
X515000D01*
X1544000Y162001D02*
X1623999D01*
X1544000Y112000D02*
X1623999D01*
X1544000D02*
Y162001D01*
X1623999Y112000D02*
Y162001D01*
X814000Y111000D02*
X894000D01*
X814000Y161000D02*
X894000D01*
Y111000D02*
Y161000D01*
X814000Y111000D02*
Y161000D01*
X706000Y1950001D02*
X786000D01*
X706000Y2000001D02*
X786000D01*
Y1950001D02*
Y2000001D01*
X706000Y1950001D02*
Y2000001D01*
X1795999Y1954921D02*
X1845999D01*
X1795999Y2034921D02*
X1845999D01*
X1795999Y1954921D02*
Y2034921D01*
X1845999Y1954921D02*
Y2034921D01*
X1735000Y405000D02*
Y455000D01*
X1815000Y405000D02*
Y455000D01*
X1735000D02*
X1815000D01*
X1735000Y405000D02*
X1815000D01*
X595490Y1960000D02*
X645490D01*
X595490Y2040000D02*
X645490D01*
X595490Y1960000D02*
Y2040000D01*
X645490Y1960000D02*
Y2040000D01*
X705500Y405000D02*
Y455000D01*
X625500Y405000D02*
Y455000D01*
Y405000D02*
X705500D01*
X625500Y455000D02*
X705500D01*
X392000Y2329999D02*
Y2409999D01*
X442000Y2329999D02*
Y2409999D01*
X392000Y2329999D02*
X442000D01*
X392000Y2409999D02*
X442000D01*
X239000Y1509000D02*
X319000D01*
X239000Y1459000D02*
X319000D01*
X239000D02*
Y1509000D01*
X319000Y1459000D02*
Y1509000D01*
X2237000Y1077000D02*
X2317000D01*
X2237000Y1127000D02*
X2317000D01*
Y1077000D02*
Y1127000D01*
X2237000Y1077000D02*
Y1127000D01*
X2040000Y1376000D02*
X2120000D01*
X2040000Y1426000D02*
X2120000D01*
Y1376000D02*
Y1426000D01*
X2040000Y1376000D02*
Y1426000D01*
X536000Y1057000D02*
Y1125000D01*
X414000Y1057000D02*
Y1125000D01*
Y1057000D02*
X536000D01*
X414000Y1125000D02*
X536000D01*
X1997000Y1448000D02*
Y1516000D01*
X2119000Y1448000D02*
Y1516000D01*
X1997000D02*
X2119000D01*
X1997000Y1448000D02*
X2119000D01*
X192000Y103000D02*
Y171000D01*
X314000Y103000D02*
Y171000D01*
X192000D02*
X314000D01*
X192000Y103000D02*
X314000D01*
X2237999Y106000D02*
Y174000D01*
X2115999Y106000D02*
Y174000D01*
Y106000D02*
X2237999D01*
X2115999Y174000D02*
X2237999D01*
X404000Y561000D02*
X484000D01*
X404000Y611000D02*
X484000D01*
Y561000D02*
Y611000D01*
X404000Y561000D02*
Y611000D01*
X384000Y1959000D02*
Y2039000D01*
X334000Y1959000D02*
Y2039000D01*
X384000D01*
X334000Y1959000D02*
X384000D01*
D69*
X1677000Y2014999D02*
Y2064999D01*
X1725000Y2014999D02*
Y2064999D01*
X1677000Y1993000D02*
X1677001Y1943000D01*
X1725001D02*
Y1993000D01*
X1895000Y1970999D02*
X1945000D01*
X1895000Y2018999D02*
X1945000D01*
X2048017Y2018000D02*
X2098017D01*
X2048017Y1970000D02*
X2098017D01*
X2000000Y2391999D02*
X2050000D01*
X2000000Y2343999D02*
X2050000D01*
X377000Y1460000D02*
X427000D01*
X377000Y1508000D02*
X427000D01*
X184378Y1137000D02*
X234378D01*
X184378Y1089000D02*
X234378D01*
X2272000Y1435000D02*
X2322000D01*
X2272000Y1483000D02*
X2322000D01*
X2044001Y1247999D02*
Y1297999D01*
X1996001Y1247999D02*
Y1297999D01*
X1943000Y561000D02*
Y611000D01*
X1991000Y561000D02*
Y611000D01*
X495490Y1976999D02*
X545490D01*
X495490Y2024999D02*
X545490D01*
X452000Y405000D02*
Y455000D01*
X500000Y405000D02*
Y455000D01*
X1989000Y405000D02*
Y455000D01*
X1941000Y405000D02*
Y455000D01*
X770000Y2020001D02*
Y2070001D01*
X722000Y2020001D02*
Y2070001D01*
X689000Y111999D02*
Y162000D01*
X641000Y111999D02*
Y162000D01*
X1751000Y115001D02*
Y165000D01*
X1799000Y115001D02*
Y165000D01*
X478150Y1150001D02*
Y1200001D01*
X430150Y1150001D02*
Y1200001D01*
X1989000Y114999D02*
Y165000D01*
X1941000Y114999D02*
Y165000D01*
X451000Y112001D02*
Y162000D01*
X499000Y112001D02*
Y162000D01*
X1560000Y112000D02*
Y162001D01*
X1607999Y112000D02*
Y162001D01*
X878000Y111000D02*
Y161000D01*
X830000Y111000D02*
Y161000D01*
X770000Y1950001D02*
Y2000001D01*
X722000Y1950001D02*
Y2000001D01*
X1795999Y1970921D02*
X1845999D01*
X1795999Y2018921D02*
X1845999D01*
X1751000Y405000D02*
Y455000D01*
X1799000Y405000D02*
Y455000D01*
X595490Y1976000D02*
X645490D01*
X595490Y2024000D02*
X645490D01*
X689500Y405000D02*
Y455000D01*
X641500Y405000D02*
Y455000D01*
X392000Y2345999D02*
X442000D01*
X392000Y2393999D02*
X442000D01*
X255000Y1459000D02*
Y1509000D01*
X303000Y1459000D02*
Y1509000D01*
X2301000Y1077000D02*
Y1127000D01*
X2253000Y1077000D02*
Y1127000D01*
X2104000Y1376000D02*
Y1426000D01*
X2056000Y1376000D02*
Y1426000D01*
X468000Y561000D02*
Y611000D01*
X420000Y561000D02*
Y611000D01*
X334000Y2023000D02*
X384000D01*
X334000Y1975000D02*
X384000D01*
D70*
X1978001Y1904000D02*
Y1909000D01*
X2020001Y1904000D02*
Y1909000D01*
X1978001Y2031000D02*
Y2036000D01*
X2020001Y2031000D02*
Y2036000D01*
X1978001Y1904000D02*
X2020001D01*
X1978001Y2036000D02*
X2020001D01*
X1965001Y2006000D02*
X2033001D01*
X2128001Y2450000D02*
Y2455000D01*
X2086001Y2450000D02*
Y2455000D01*
X2128001Y2323000D02*
Y2328000D01*
X2086001Y2323000D02*
Y2328000D01*
Y2455000D02*
X2128001D01*
X2086001Y2323000D02*
X2128001D01*
X2073001Y2353000D02*
X2141001D01*
X419000Y1910000D02*
Y1915000D01*
X461000Y1910000D02*
Y1915000D01*
X419000Y2037000D02*
Y2042000D01*
X461000Y2037000D02*
Y2042000D01*
X419000Y1910000D02*
X461000D01*
X419000Y2042000D02*
X461000D01*
X406000Y2012000D02*
X474000D01*
X400000Y529086D02*
X405000D01*
X400000Y487086D02*
X405000D01*
X527000Y529086D02*
X532000D01*
X527000Y487086D02*
X532000D01*
X400000D02*
Y529086D01*
X532000Y487086D02*
Y529086D01*
X502000Y474086D02*
Y542086D01*
X2051999Y487085D02*
X2056999D01*
X2051999Y529085D02*
X2056999D01*
X1924999Y487085D02*
X1929999D01*
X1924999Y529085D02*
X1929999D01*
X2056999Y487085D02*
Y529085D01*
X1924999Y487085D02*
Y529085D01*
X1954999Y474085D02*
Y542085D01*
X2187000Y1048999D02*
X2192000D01*
X2187000Y1007000D02*
X2192000D01*
X2314000Y1048999D02*
X2319000D01*
X2314000Y1007000D02*
X2319000D01*
X2187000D02*
Y1048999D01*
X2319000Y1007000D02*
Y1048999D01*
X2289000Y994000D02*
Y1061999D01*
X356000Y2455000D02*
Y2460000D01*
X314000Y2455000D02*
Y2460000D01*
X356000Y2328000D02*
Y2333000D01*
X314000Y2328000D02*
Y2333000D01*
Y2460000D02*
X356000D01*
X314000Y2328000D02*
X356000D01*
X301000Y2358000D02*
X369000D01*
X349000Y1584001D02*
X354000D01*
X349000Y1626001D02*
X354000D01*
X222000Y1584001D02*
X227000D01*
X222000Y1626001D02*
X227000D01*
X354000Y1584001D02*
Y1626001D01*
X222000Y1584001D02*
Y1626001D01*
X252000Y1571001D02*
Y1639001D01*
X439000Y1057000D02*
Y1125000D01*
X409000Y1070000D02*
Y1112000D01*
X541000Y1070000D02*
Y1112000D01*
X409000D02*
X414000D01*
X409000Y1070000D02*
X414000D01*
X536000Y1112000D02*
X541000D01*
X536000Y1070000D02*
X541000D01*
X2094000Y1448000D02*
Y1516000D01*
X2124000Y1461000D02*
Y1503000D01*
X1992000Y1461000D02*
Y1503000D01*
X2119000Y1461000D02*
X2124000D01*
X2119000Y1503000D02*
X2124000D01*
X1992000Y1461000D02*
X1997000D01*
X1992000Y1503000D02*
X1997000D01*
X289000Y103000D02*
Y171000D01*
X319000Y116000D02*
Y158000D01*
X187000Y116000D02*
Y158000D01*
X314000Y116000D02*
X319000D01*
X314000Y158000D02*
X319000D01*
X187000Y116000D02*
X192000D01*
X187000Y158000D02*
X192000D01*
X2140999Y106000D02*
Y174000D01*
X2110999Y119000D02*
Y161000D01*
X2242999Y119000D02*
Y161000D01*
X2110999D02*
X2115999D01*
X2110999Y119000D02*
X2115999D01*
X2237999Y161000D02*
X2242999D01*
X2237999Y119000D02*
X2242999D01*
D71*
X1949001Y2074000D02*
Y2104000D01*
X1934001Y2089000D02*
X1964001D01*
X2157001Y2255000D02*
Y2285000D01*
X2142001Y2270000D02*
X2172001D01*
X390000Y2080000D02*
Y2110000D01*
X375000Y2095000D02*
X405000D01*
X570000Y558086D02*
X600000D01*
X585000Y543086D02*
Y573086D01*
X1856999Y458085D02*
X1886999D01*
X1871999Y443085D02*
Y473085D01*
X2357000Y1077999D02*
X2387000D01*
X2372000Y1062999D02*
Y1092999D01*
X370000Y2275000D02*
X400000D01*
X385000Y2260000D02*
Y2290000D01*
X154000Y1555001D02*
X184000D01*
X169000Y1540001D02*
Y1570001D01*
X356000Y1026000D02*
Y1056000D01*
X341000Y1041000D02*
X371000D01*
X2177000Y1517000D02*
Y1547000D01*
X2162000Y1532000D02*
X2192000D01*
X372000Y172000D02*
Y202000D01*
X357000Y187000D02*
X387000D01*
X2057999Y75000D02*
Y105000D01*
X2042999Y90000D02*
X2072999D01*
D72*
X1998963Y2018380D02*
D03*
X2107016Y2340534D02*
D03*
X439910Y2024474D02*
D03*
X335007Y2345558D02*
D03*
D73*
X514423Y508115D02*
D03*
X1942642Y507966D02*
D03*
X2301117Y1027980D02*
D03*
X239591Y1604989D02*
D03*
X426621Y1090996D02*
D03*
X2106379Y1482005D02*
D03*
X301379Y137005D02*
D03*
X2128628Y140009D02*
D03*
%TF.MD5,536C2C864710C8F7A4DC2F5FCE6A62AD*%
M02*
