G04 Layer_Physical_Order=1*
G04 Layer_Color=255*
%FSLAX23Y23*%
%MOIN*%
G70*
G01*
G75*
%ADD10R,0.031X0.034*%
%ADD11R,0.064X0.064*%
%ADD12R,0.064X0.064*%
%ADD13R,0.060X0.024*%
%ADD14R,0.034X0.031*%
%ADD15R,0.085X0.096*%
%ADD16R,0.096X0.085*%
%ADD17C,0.020*%
%ADD18C,0.039*%
%ADD19C,0.012*%
%ADD20C,0.024*%
%ADD21C,0.157*%
%ADD22C,0.079*%
%ADD23C,0.028*%
%ADD24C,0.016*%
%ADD25C,0.118*%
%ADD26C,0.004*%
%ADD27C,0.079*%
%ADD28C,0.087*%
%ADD29C,0.098*%
%ADD30C,0.059*%
%ADD31C,0.360*%
%ADD32C,0.059*%
%ADD33C,0.315*%
%ADD34C,0.201*%
%ADD35C,0.083*%
%ADD36R,0.087X0.087*%
%ADD37R,0.079X0.079*%
%ADD38R,0.087X0.087*%
%ADD39C,0.060*%
%ADD40C,0.050*%
%ADD41C,0.004*%
G36*
X7785Y4945D02*
X7746Y4933D01*
X7741Y4940D01*
X7727Y4956D01*
X7710Y4971D01*
X7692Y4983D01*
X7672Y4993D01*
X7652Y5000D01*
X7630Y5004D01*
X7608Y5005D01*
X7586Y5004D01*
X7565Y5000D01*
X7560Y4998D01*
X7538Y5027D01*
X7537Y5032D01*
X7545Y5045D01*
X7552Y5061D01*
X7556Y5078D01*
X7557Y5095D01*
X7556Y5113D01*
X7552Y5130D01*
X7545Y5146D01*
X7536Y5160D01*
X7525Y5174D01*
X7511Y5185D01*
X7497Y5194D01*
X7481Y5201D01*
X7464Y5205D01*
X7446Y5206D01*
X7429Y5205D01*
X7412Y5201D01*
X7396Y5194D01*
X7381Y5185D01*
X7368Y5174D01*
X7357Y5160D01*
X7348Y5146D01*
X7341Y5130D01*
X7337Y5113D01*
X7336Y5095D01*
X7337Y5078D01*
X7341Y5061D01*
X7348Y5045D01*
X7357Y5030D01*
X7368Y5017D01*
X7381Y5006D01*
X7396Y4997D01*
X7412Y4990D01*
X7429Y4986D01*
X7446Y4985D01*
X7464Y4986D01*
X7464Y4986D01*
X7477Y4970D01*
X7484Y4950D01*
X7475Y4940D01*
X7463Y4922D01*
X7453Y4902D01*
X7446Y4881D01*
X7442Y4860D01*
X7440Y4838D01*
X7442Y4816D01*
X7446Y4794D01*
X7453Y4773D01*
X7463Y4754D01*
X7475Y4735D01*
X7490Y4719D01*
X7498Y4711D01*
X7487Y4676D01*
X7449Y4673D01*
X7140Y4982D01*
Y5035D01*
X7140Y5036D01*
X7140Y5040D01*
X7139Y5049D01*
X7136Y5058D01*
X7130Y5064D01*
X7131Y5069D01*
X7138Y5098D01*
X7141Y5104D01*
X7245D01*
X7251Y5105D01*
X7256Y5109D01*
X7260Y5114D01*
X7261Y5120D01*
Y5362D01*
X7261Y5362D01*
X7261D01*
Y5625D01*
Y5628D01*
X7264Y5631D01*
X7375Y5742D01*
X7381Y5736D01*
X7402Y5722D01*
X7424Y5711D01*
X7425Y5711D01*
Y5669D01*
X7424Y5669D01*
X7402Y5658D01*
X7381Y5644D01*
X7362Y5628D01*
X7346Y5609D01*
X7332Y5588D01*
X7321Y5566D01*
X7313Y5542D01*
X7308Y5518D01*
X7307Y5493D01*
X7308Y5468D01*
X7313Y5444D01*
X7321Y5420D01*
X7332Y5398D01*
X7346Y5377D01*
X7362Y5358D01*
X7381Y5342D01*
X7402Y5328D01*
X7424Y5317D01*
X7448Y5309D01*
X7472Y5304D01*
X7497Y5303D01*
X7522Y5304D01*
X7546Y5309D01*
X7570Y5317D01*
X7592Y5328D01*
X7613Y5342D01*
X7632Y5358D01*
X7648Y5377D01*
X7662Y5398D01*
X7673Y5420D01*
X7681Y5444D01*
X7686Y5468D01*
X7687Y5493D01*
X7686Y5518D01*
X7681Y5542D01*
X7673Y5566D01*
X7662Y5588D01*
X7648Y5609D01*
X7632Y5628D01*
X7613Y5644D01*
X7592Y5658D01*
X7570Y5669D01*
X7569Y5669D01*
Y5711D01*
X7570Y5711D01*
X7592Y5722D01*
X7613Y5736D01*
X7632Y5752D01*
X7648Y5771D01*
X7662Y5792D01*
X7673Y5814D01*
X7681Y5838D01*
X7686Y5862D01*
X7687Y5887D01*
X7686Y5912D01*
X7681Y5936D01*
X7673Y5960D01*
X7662Y5982D01*
X7648Y6003D01*
X7632Y6022D01*
X7613Y6038D01*
X7592Y6052D01*
X7570Y6063D01*
X7581Y6101D01*
X7625D01*
X7642Y6103D01*
X7659Y6108D01*
X7675Y6116D01*
X7688Y6127D01*
X7699Y6140D01*
X7707Y6156D01*
X7712Y6173D01*
X7714Y6190D01*
X7712Y6207D01*
X7707Y6224D01*
X7699Y6240D01*
X7688Y6253D01*
X7675Y6264D01*
X7659Y6272D01*
X7642Y6277D01*
X7625Y6279D01*
X7610D01*
X7576Y6318D01*
X7578Y6333D01*
X7585Y6338D01*
X7589Y6338D01*
X7590Y6338D01*
Y6390D01*
Y6442D01*
X7586Y6442D01*
X7585Y6441D01*
X7557Y6447D01*
X7537Y6458D01*
X7534Y6465D01*
X7523Y6478D01*
X7523Y6478D01*
X7390Y6611D01*
X7385Y6615D01*
X7393Y6648D01*
X7397Y6655D01*
X7785D01*
Y4945D01*
D02*
G37*
G36*
X7371Y6378D02*
Y6307D01*
X7339Y6275D01*
X7327Y6261D01*
X7319Y6246D01*
X7314Y6229D01*
X7312Y6212D01*
X7312Y6212D01*
Y5933D01*
X7308Y5912D01*
X7307Y5887D01*
X7308Y5862D01*
X7313Y5838D01*
X7321Y5814D01*
X7332Y5792D01*
X7346Y5771D01*
X7352Y5765D01*
X7240Y5653D01*
X7234Y5646D01*
X7230Y5641D01*
X7229Y5635D01*
Y5626D01*
Y5494D01*
X7218Y5488D01*
X7195Y5483D01*
X7189Y5483D01*
X7126Y5546D01*
X7120Y5551D01*
X7113Y5554D01*
X7105Y5555D01*
X7097D01*
X7093Y5560D01*
X7083Y5568D01*
X7071Y5573D01*
X7068Y5574D01*
Y5525D01*
X7048D01*
Y5577D01*
X7005Y5621D01*
Y5690D01*
X7004Y5698D01*
X7001Y5705D01*
X6996Y5711D01*
X6940Y5767D01*
X6934Y5772D01*
X6927Y5775D01*
X6919Y5776D01*
X6915D01*
X6905Y5789D01*
X6898Y5815D01*
X6901Y5819D01*
X6906Y5832D01*
X6908Y5846D01*
X6906Y5860D01*
X6901Y5873D01*
X6892Y5884D01*
Y5907D01*
X6901Y5919D01*
X6906Y5932D01*
X6907Y5936D01*
X6854D01*
Y5956D01*
X6907D01*
X6906Y5960D01*
X6901Y5973D01*
X6892Y5984D01*
Y6008D01*
X6901Y6019D01*
X6906Y6032D01*
X6907Y6036D01*
X6802D01*
X6802Y6032D01*
X6808Y6019D01*
X6811Y6015D01*
X6803Y5989D01*
X6793Y5976D01*
X6625D01*
X6604Y6011D01*
X6609Y6020D01*
X6615Y6025D01*
X6779Y6189D01*
X6779Y6189D01*
X6792Y6183D01*
X6806Y6181D01*
X6820Y6183D01*
X6833Y6189D01*
X6844Y6197D01*
X6853Y6208D01*
X6858Y6221D01*
X6860Y6235D01*
X6858Y6249D01*
X6853Y6262D01*
X6844Y6273D01*
X6833Y6282D01*
X6820Y6287D01*
X6806Y6289D01*
X6792Y6287D01*
X6779Y6282D01*
X6768Y6273D01*
X6760Y6262D01*
X6754Y6249D01*
X6754Y6249D01*
X6591Y6085D01*
X6581Y6092D01*
X6568Y6098D01*
X6554Y6099D01*
X6540Y6098D01*
X6527Y6092D01*
X6516Y6084D01*
X6510Y6076D01*
X6491Y6075D01*
X6468Y6080D01*
X6465Y6087D01*
X6457Y6098D01*
X6446Y6106D01*
X6433Y6112D01*
X6419Y6114D01*
X6405Y6112D01*
X6392Y6106D01*
X6381Y6098D01*
X6372Y6087D01*
X6367Y6074D01*
X6365Y6060D01*
X6367Y6046D01*
X6372Y6033D01*
X6381Y6022D01*
X6391Y6014D01*
X6391Y6014D01*
X6384Y6002D01*
X6367Y5989D01*
Y5932D01*
X6357D01*
Y5922D01*
X6309D01*
X6309Y5919D01*
X6314Y5908D01*
X6314Y5907D01*
X6322Y5884D01*
Y5879D01*
X6314Y5856D01*
X6314Y5856D01*
X6309Y5844D01*
X6308Y5832D01*
X6309Y5819D01*
X6314Y5807D01*
X6322Y5796D01*
X6332Y5788D01*
X6344Y5783D01*
X6357Y5782D01*
X6370Y5783D01*
X6382Y5788D01*
X6386Y5791D01*
X6410Y5784D01*
X6425Y5774D01*
Y5713D01*
X6403Y5700D01*
X6386Y5693D01*
X6378Y5696D01*
X6365Y5698D01*
X6352Y5696D01*
X6340Y5691D01*
X6330Y5683D01*
X6322Y5673D01*
X6317Y5661D01*
X6315Y5648D01*
X6317Y5635D01*
X6322Y5624D01*
X6322Y5623D01*
X6330Y5600D01*
Y5596D01*
X6322Y5573D01*
X6322Y5572D01*
X6317Y5561D01*
X6315Y5548D01*
X6317Y5535D01*
X6322Y5523D01*
X6330Y5513D01*
X6340Y5505D01*
X6352Y5500D01*
X6365Y5498D01*
X6378Y5500D01*
X6386Y5503D01*
X6408Y5496D01*
X6426Y5484D01*
X6426Y5482D01*
X6429Y5475D01*
X6434Y5469D01*
X6478Y5425D01*
X6484Y5420D01*
X6492Y5417D01*
X6484Y5379D01*
X6092D01*
X6086Y5378D01*
X6081Y5374D01*
X6073Y5366D01*
X6060D01*
X6054Y5365D01*
X6049Y5361D01*
X6045Y5356D01*
X6044Y5350D01*
Y5292D01*
X5964D01*
X5964Y5292D01*
X5941D01*
Y5292D01*
X5939D01*
X5913Y5313D01*
X5904Y5331D01*
X5904Y5336D01*
X5913Y5339D01*
X5920Y5345D01*
X5926Y5352D01*
X5929Y5361D01*
X5930Y5370D01*
X5929Y5379D01*
X5926Y5388D01*
X5920Y5395D01*
X5913Y5401D01*
X5904Y5404D01*
X5895Y5405D01*
X5886Y5404D01*
X5877Y5401D01*
X5870Y5395D01*
X5864Y5388D01*
X5861Y5379D01*
X5860Y5370D01*
X5860Y5364D01*
X5822Y5325D01*
X5821Y5324D01*
X5821Y5324D01*
X5816Y5318D01*
X5800Y5302D01*
X5781Y5292D01*
X5775D01*
X5775D01*
Y5250D01*
X5755D01*
Y5292D01*
X5723D01*
X5714Y5318D01*
X5711Y5325D01*
X5706Y5331D01*
X5685Y5352D01*
X5697Y5392D01*
X5710Y5398D01*
X5721Y5406D01*
X5730Y5417D01*
X5735Y5430D01*
X5737Y5444D01*
X5735Y5458D01*
X5730Y5471D01*
X5721Y5483D01*
Y5506D01*
X5730Y5517D01*
X5735Y5530D01*
X5737Y5544D01*
X5735Y5558D01*
X5730Y5571D01*
X5721Y5583D01*
Y5606D01*
X5730Y5617D01*
X5735Y5630D01*
X5737Y5644D01*
X5735Y5658D01*
X5730Y5671D01*
X5721Y5683D01*
Y5706D01*
X5730Y5717D01*
X5735Y5730D01*
X5736Y5734D01*
X5683D01*
Y5754D01*
X5736D01*
X5735Y5758D01*
X5730Y5771D01*
X5721Y5783D01*
Y5806D01*
X5730Y5817D01*
X5735Y5830D01*
X5737Y5844D01*
X5735Y5858D01*
X5730Y5871D01*
X5721Y5883D01*
Y5906D01*
X5730Y5917D01*
X5735Y5930D01*
X5736Y5934D01*
X5683D01*
Y5954D01*
X5736D01*
X5735Y5958D01*
X5730Y5971D01*
X5721Y5983D01*
Y6006D01*
X5730Y6017D01*
X5735Y6030D01*
X5736Y6034D01*
X5683D01*
Y6054D01*
X5736D01*
X5735Y6058D01*
X5732Y6066D01*
X5740Y6085D01*
X5753Y6105D01*
X5843D01*
X6125Y5822D01*
X6132Y5817D01*
X6139Y5814D01*
X6146Y5813D01*
X6147Y5812D01*
X6150Y5805D01*
X6151Y5797D01*
X6150Y5770D01*
X6147Y5762D01*
X6141Y5755D01*
X6136Y5742D01*
X6134Y5728D01*
X6136Y5714D01*
X6141Y5702D01*
X6150Y5690D01*
X6161Y5682D01*
X6174Y5676D01*
X6188Y5675D01*
X6202Y5676D01*
X6215Y5682D01*
X6226Y5690D01*
X6235Y5702D01*
X6240Y5714D01*
X6242Y5728D01*
X6240Y5742D01*
X6235Y5755D01*
X6229Y5762D01*
X6226Y5770D01*
X6225Y5797D01*
X6226Y5805D01*
X6229Y5812D01*
X6233Y5817D01*
X6238Y5830D01*
X6240Y5843D01*
X6238Y5857D01*
X6233Y5869D01*
X6225Y5880D01*
X6214Y5888D01*
X6201Y5893D01*
X6188Y5895D01*
X6175Y5893D01*
X6162Y5888D01*
X6152Y5880D01*
X5876Y6156D01*
X5870Y6161D01*
X5863Y6164D01*
X5855Y6165D01*
X5645D01*
X5637Y6204D01*
X5642Y6206D01*
X5653Y6215D01*
X5661Y6226D01*
X5667Y6239D01*
X5669Y6253D01*
X5667Y6267D01*
X5663Y6276D01*
X5673Y6295D01*
X5688Y6310D01*
X5697Y6308D01*
X5711Y6310D01*
X5723Y6315D01*
X5736Y6324D01*
X5759D01*
X5771Y6315D01*
X5784Y6310D01*
X5797Y6308D01*
X5811Y6310D01*
X5823Y6315D01*
X5834Y6324D01*
X5842Y6334D01*
X5847Y6347D01*
X5849Y6360D01*
X5847Y6374D01*
X5842Y6386D01*
X5834Y6397D01*
X5823Y6405D01*
X5811Y6410D01*
X5797Y6412D01*
X5784Y6410D01*
X5771Y6405D01*
X5759Y6397D01*
X5736D01*
X5723Y6405D01*
X5711Y6410D01*
X5697Y6412D01*
X5684Y6410D01*
X5671Y6405D01*
X5661Y6397D01*
X5652Y6386D01*
X5647Y6374D01*
X5645Y6360D01*
X5647Y6347D01*
X5651Y6338D01*
X5641Y6320D01*
X5625Y6305D01*
X5615Y6307D01*
X5601Y6305D01*
X5588Y6299D01*
X5563Y6329D01*
X5572Y6340D01*
X5577Y6353D01*
X5579Y6367D01*
X5577Y6381D01*
X5572Y6394D01*
X5563Y6405D01*
X5552Y6414D01*
X5539Y6419D01*
X5534Y6420D01*
X5537Y6459D01*
X6066D01*
X6076Y6424D01*
X6077Y6415D01*
Y6372D01*
X6093D01*
X6102Y6361D01*
X6112Y6351D01*
X6125Y6340D01*
X6141Y6332D01*
X6157Y6327D01*
X6175Y6325D01*
X6192Y6327D01*
X6209Y6332D01*
X6224Y6340D01*
X6238Y6351D01*
X6249Y6365D01*
X6257Y6380D01*
X6262Y6397D01*
X6264Y6414D01*
X6263Y6420D01*
X6282Y6448D01*
X6295Y6459D01*
X6497D01*
X6499Y6456D01*
X6502Y6444D01*
X6500Y6439D01*
X6484Y6419D01*
X6471Y6409D01*
X6463Y6408D01*
X6451Y6403D01*
X6440Y6395D01*
X6432Y6384D01*
X6427Y6372D01*
X6425Y6358D01*
X6426Y6352D01*
X6423Y6340D01*
X6409Y6318D01*
X6404Y6312D01*
X6400Y6310D01*
X6392Y6306D01*
X6381Y6298D01*
X6372Y6287D01*
X6367Y6274D01*
X6365Y6260D01*
X6367Y6246D01*
X6372Y6233D01*
X6381Y6222D01*
X6392Y6213D01*
X6405Y6208D01*
X6419Y6206D01*
X6433Y6208D01*
X6446Y6213D01*
X6457Y6222D01*
X6465Y6233D01*
X6471Y6246D01*
X6473Y6260D01*
X6472Y6267D01*
X6472Y6273D01*
X6476Y6283D01*
X6488Y6304D01*
X6496Y6311D01*
X6503Y6313D01*
X6515Y6322D01*
X6538D01*
X6551Y6313D01*
X6563Y6308D01*
X6577Y6307D01*
X6590Y6308D01*
X6603Y6313D01*
X6615Y6322D01*
X6638D01*
X6651Y6313D01*
X6663Y6308D01*
X6677Y6307D01*
X6690Y6308D01*
X6703Y6313D01*
X6713Y6322D01*
X6721Y6332D01*
X6727Y6345D01*
X6728Y6358D01*
X6727Y6372D01*
X6721Y6384D01*
X6713Y6395D01*
X6703Y6403D01*
X6690Y6408D01*
X6682Y6409D01*
X6670Y6419D01*
X6653Y6439D01*
X6651Y6444D01*
X6655Y6456D01*
X6657Y6459D01*
X6891D01*
X6898Y6420D01*
X6897Y6419D01*
X6884Y6414D01*
X6884Y6414D01*
X6884Y6413D01*
X6873Y6405D01*
X6864Y6394D01*
X6859Y6381D01*
X6857Y6367D01*
X6859Y6353D01*
X6864Y6340D01*
X6873Y6329D01*
X6884Y6320D01*
X6897Y6315D01*
X6911Y6313D01*
X6925Y6315D01*
X6938Y6320D01*
X6949Y6329D01*
X6957Y6340D01*
X6963Y6353D01*
X6965Y6367D01*
X6963Y6381D01*
X6957Y6394D01*
X6949Y6405D01*
X6938Y6413D01*
X6938Y6414D01*
X6938Y6414D01*
X6925Y6419D01*
X6924Y6420D01*
X6931Y6459D01*
X7290D01*
X7371Y6378D01*
D02*
G37*
G36*
X5516Y6420D02*
X5511Y6419D01*
X5498Y6414D01*
X5487Y6405D01*
X5479Y6394D01*
X5473Y6381D01*
X5471Y6367D01*
X5473Y6353D01*
X5479Y6340D01*
X5487Y6329D01*
X5498Y6320D01*
X5511Y6315D01*
X5525Y6313D01*
X5539Y6315D01*
X5552Y6320D01*
X5577Y6291D01*
X5568Y6280D01*
X5563Y6267D01*
X5561Y6253D01*
X5563Y6239D01*
X5568Y6226D01*
X5577Y6215D01*
X5588Y6206D01*
X5601Y6201D01*
X5605Y6200D01*
X5610Y6175D01*
X5609Y6160D01*
X5604Y6156D01*
X5587Y6140D01*
X5584Y6136D01*
X5583Y6134D01*
X5583Y6134D01*
X5580Y6126D01*
X5579Y6119D01*
X5580Y6111D01*
X5583Y6104D01*
X5587Y6097D01*
Y6097D01*
X5588Y6097D01*
Y5992D01*
X5566D01*
Y5950D01*
X5546D01*
Y5992D01*
X5520D01*
Y5992D01*
X5488D01*
Y5950D01*
X5468D01*
Y5992D01*
X5460D01*
X5453Y5998D01*
X5435Y6030D01*
X5437Y6044D01*
X5435Y6058D01*
X5430Y6071D01*
X5421Y6082D01*
X5410Y6091D01*
X5397Y6096D01*
X5383Y6098D01*
X5369Y6096D01*
X5356Y6091D01*
X5345Y6082D01*
X5337Y6071D01*
X5331Y6058D01*
X5330Y6044D01*
X5331Y6030D01*
X5337Y6017D01*
X5345Y6006D01*
Y5983D01*
X5337Y5971D01*
X5331Y5958D01*
X5331Y5954D01*
X5383D01*
Y5934D01*
X5331D01*
X5331Y5930D01*
X5337Y5917D01*
X5345Y5906D01*
Y5883D01*
X5337Y5871D01*
X5331Y5858D01*
X5330Y5844D01*
X5331Y5830D01*
X5337Y5817D01*
X5345Y5806D01*
Y5783D01*
X5337Y5771D01*
X5331Y5758D01*
X5331Y5754D01*
X5383D01*
Y5734D01*
X5331D01*
X5331Y5730D01*
X5337Y5717D01*
X5345Y5706D01*
Y5683D01*
X5337Y5671D01*
X5331Y5658D01*
X5330Y5644D01*
X5331Y5630D01*
X5337Y5617D01*
X5345Y5606D01*
Y5583D01*
X5337Y5571D01*
X5331Y5558D01*
X5330Y5544D01*
X5331Y5530D01*
X5337Y5517D01*
X5345Y5506D01*
Y5483D01*
X5337Y5471D01*
X5331Y5458D01*
X5330Y5444D01*
X5331Y5430D01*
X5337Y5417D01*
X5345Y5406D01*
X5356Y5398D01*
X5369Y5392D01*
X5383Y5390D01*
X5384Y5390D01*
X5393Y5384D01*
X5395Y5373D01*
X5364Y5335D01*
X5043D01*
X4949Y5429D01*
X4943Y5434D01*
X4935Y5435D01*
X4869D01*
X4865Y5440D01*
X4858Y5445D01*
X4858Y5446D01*
X4848Y5473D01*
X4846Y5489D01*
X4935Y5578D01*
X4970Y5563D01*
X4973Y5560D01*
X4971Y5548D01*
X4973Y5534D01*
X4979Y5521D01*
X4987Y5510D01*
X4998Y5502D01*
X5011Y5496D01*
X5025Y5494D01*
X5039Y5496D01*
X5052Y5502D01*
X5063Y5510D01*
X5072Y5521D01*
X5077Y5534D01*
X5079Y5548D01*
X5077Y5562D01*
X5072Y5575D01*
X5063Y5586D01*
X5052Y5595D01*
X5039Y5600D01*
X5025Y5602D01*
X5013Y5600D01*
X5010Y5603D01*
X4995Y5638D01*
X5046Y5689D01*
X5051Y5695D01*
X5052Y5698D01*
X5054Y5702D01*
X5054Y5703D01*
X5063Y5710D01*
X5072Y5721D01*
X5077Y5734D01*
X5079Y5748D01*
X5077Y5762D01*
X5072Y5775D01*
X5063Y5786D01*
X5063Y5822D01*
X5067Y5831D01*
X5068Y5835D01*
X5070Y5848D01*
X5068Y5862D01*
X5063Y5874D01*
X5055Y5885D01*
X5044Y5893D01*
X5032Y5898D01*
X5018Y5900D01*
X5005Y5898D01*
X4992Y5893D01*
X4982Y5885D01*
X4973Y5874D01*
X4968Y5862D01*
X4966Y5848D01*
X4968Y5835D01*
X4973Y5822D01*
X4986Y5790D01*
X4979Y5775D01*
X4979Y5775D01*
X4977Y5772D01*
X4973Y5762D01*
X4971Y5748D01*
X4973Y5734D01*
X4979Y5721D01*
X4985Y5713D01*
X4776Y5503D01*
X4742Y5525D01*
X4743Y5527D01*
X4745Y5540D01*
X4743Y5553D01*
X4738Y5564D01*
X4738Y5565D01*
X4730Y5588D01*
Y5592D01*
X4738Y5615D01*
X4738Y5616D01*
X4743Y5627D01*
X4744Y5630D01*
X4695D01*
X4647D01*
X4647Y5627D01*
X4652Y5616D01*
X4652Y5615D01*
X4660Y5592D01*
Y5588D01*
X4652Y5565D01*
X4652Y5564D01*
X4647Y5553D01*
X4645Y5540D01*
X4647Y5527D01*
X4652Y5515D01*
X4660Y5505D01*
X4670Y5497D01*
X4682Y5492D01*
X4695Y5490D01*
X4708Y5492D01*
X4710Y5493D01*
X4732Y5459D01*
X4677Y5404D01*
X4570D01*
X4559Y5417D01*
X4543Y5444D01*
X4544Y5449D01*
X4542Y5463D01*
X4537Y5476D01*
X4531Y5499D01*
X4537Y5522D01*
X4542Y5535D01*
X4544Y5549D01*
X4542Y5563D01*
X4537Y5576D01*
X4531Y5599D01*
X4537Y5622D01*
X4542Y5635D01*
X4544Y5649D01*
X4542Y5663D01*
X4537Y5676D01*
X4531Y5699D01*
X4537Y5722D01*
X4542Y5735D01*
X4543Y5739D01*
X4490D01*
Y5759D01*
X4543D01*
X4542Y5763D01*
X4537Y5776D01*
X4531Y5799D01*
X4537Y5822D01*
X4542Y5835D01*
X4544Y5849D01*
X4542Y5863D01*
X4537Y5876D01*
X4531Y5899D01*
X4537Y5922D01*
X4542Y5935D01*
X4543Y5939D01*
X4490D01*
Y5959D01*
X4543D01*
X4542Y5963D01*
X4537Y5976D01*
X4531Y5999D01*
X4537Y6022D01*
X4542Y6035D01*
X4543Y6039D01*
X4438D01*
X4438Y6035D01*
X4440Y6031D01*
X4424Y6013D01*
X4418Y6010D01*
X4402Y6012D01*
X4402Y6012D01*
X4318D01*
Y6011D01*
X4275D01*
X4265Y6018D01*
X4244Y6049D01*
X4244Y6049D01*
X4242Y6063D01*
X4237Y6076D01*
X4228Y6087D01*
X4217Y6096D01*
X4204Y6101D01*
X4190Y6103D01*
X4176Y6101D01*
X4164Y6096D01*
X4152Y6087D01*
X4144Y6076D01*
X4138Y6063D01*
X4137Y6049D01*
X4138Y6035D01*
X4144Y6022D01*
X4149Y5999D01*
X4144Y5976D01*
X4138Y5963D01*
X4138Y5959D01*
X4190D01*
Y5939D01*
X4138D01*
X4138Y5935D01*
X4144Y5922D01*
X4149Y5899D01*
X4144Y5876D01*
X4138Y5863D01*
X4137Y5849D01*
X4138Y5835D01*
X4144Y5822D01*
X4149Y5799D01*
X4144Y5776D01*
X4138Y5763D01*
X4138Y5759D01*
X4190D01*
Y5739D01*
X4138D01*
X4138Y5735D01*
X4144Y5722D01*
X4149Y5699D01*
X4144Y5676D01*
X4138Y5663D01*
X4137Y5649D01*
X4138Y5635D01*
X4144Y5622D01*
X4149Y5599D01*
X4144Y5576D01*
X4138Y5563D01*
X4137Y5549D01*
X4138Y5535D01*
X4144Y5522D01*
X4147Y5509D01*
X4123Y5474D01*
X4028D01*
X3930Y5572D01*
Y5980D01*
X3929Y5988D01*
X3926Y5995D01*
X3921Y6001D01*
X3886Y6036D01*
X3880Y6041D01*
X3873Y6044D01*
X3865Y6045D01*
X3657D01*
X3656Y6054D01*
X3650Y6067D01*
X3642Y6078D01*
X3631Y6087D01*
X3618Y6092D01*
X3604Y6094D01*
X3590Y6092D01*
X3577Y6087D01*
X3566Y6078D01*
X3557Y6067D01*
X3552Y6054D01*
X3550Y6040D01*
X3552Y6026D01*
X3557Y6013D01*
X3566Y6002D01*
X3577Y5994D01*
X3590Y5988D01*
X3604Y5986D01*
X3616Y5988D01*
X3621Y5986D01*
X3629Y5985D01*
X3689D01*
X3696Y5979D01*
X3713Y5949D01*
X3714Y5946D01*
X3714Y5945D01*
X3762D01*
X3811D01*
X3810Y5946D01*
X3811Y5949D01*
X3821Y5967D01*
X3831Y5968D01*
X3870Y5935D01*
Y5719D01*
X3860Y5709D01*
X3831Y5696D01*
X3829Y5696D01*
X3816Y5698D01*
X3804Y5696D01*
X3792Y5691D01*
X3790Y5690D01*
X3780Y5688D01*
X3769Y5687D01*
X3742Y5696D01*
X3700Y5738D01*
X3701Y5748D01*
X3699Y5762D01*
X3694Y5775D01*
X3685Y5786D01*
X3674Y5795D01*
X3661Y5800D01*
X3647Y5802D01*
X3633Y5800D01*
X3620Y5795D01*
X3609Y5786D01*
X3601Y5775D01*
X3595Y5762D01*
X3593Y5748D01*
X3595Y5734D01*
X3601Y5721D01*
X3609Y5710D01*
X3620Y5702D01*
X3633Y5696D01*
X3647Y5694D01*
X3657Y5696D01*
X3692Y5661D01*
X3689Y5621D01*
X3667Y5604D01*
X3656Y5601D01*
X3647Y5602D01*
X3633Y5600D01*
X3620Y5595D01*
X3609Y5586D01*
X3601Y5575D01*
X3595Y5562D01*
X3593Y5548D01*
X3595Y5534D01*
X3601Y5521D01*
X3609Y5510D01*
X3620Y5502D01*
X3633Y5496D01*
X3647Y5494D01*
X3656Y5495D01*
X3667Y5492D01*
X3693Y5473D01*
X3695Y5469D01*
Y5445D01*
X3696Y5437D01*
X3698Y5424D01*
X3695Y5397D01*
X3686Y5386D01*
X3686D01*
X3686Y5386D01*
X3627Y5386D01*
X3589Y5424D01*
X3561Y5452D01*
X3502Y5511D01*
Y5511D01*
X3502D01*
X3502Y5511D01*
Y5511D01*
X3471Y5542D01*
X3473Y5546D01*
X3478Y5558D01*
X3478D01*
Y5662D01*
X3361D01*
Y5558D01*
X3386D01*
X3404Y5552D01*
X3435Y5532D01*
X3435Y5532D01*
X3435Y5532D01*
D01*
X3465Y5502D01*
X3463Y5495D01*
X3449Y5462D01*
X3356D01*
Y5358D01*
X3473D01*
Y5358D01*
X3509Y5365D01*
X3514Y5366D01*
X3523Y5369D01*
X3530Y5375D01*
X3533Y5379D01*
X3541Y5384D01*
X3566Y5389D01*
X3579Y5389D01*
X3609Y5359D01*
X3614Y5355D01*
X3620Y5354D01*
X3669D01*
X3702Y5320D01*
X3702Y5304D01*
X3701Y5298D01*
Y5262D01*
X3702Y5256D01*
X3704Y5254D01*
Y4967D01*
X3589Y4851D01*
X3551Y4847D01*
Y4847D01*
X3467D01*
Y4763D01*
X3467Y4763D01*
Y4762D01*
X3467D01*
X3467Y4724D01*
Y4678D01*
X3467D01*
Y4677D01*
X3467D01*
Y4631D01*
X3467Y4593D01*
X3467D01*
Y4592D01*
X3467D01*
Y4508D01*
X3509D01*
X3543Y4474D01*
X3549Y4469D01*
X3552Y4434D01*
X3551Y4427D01*
X3550Y4426D01*
X3542Y4421D01*
X3514D01*
X3508Y4420D01*
X3503Y4416D01*
X3488Y4402D01*
X3481Y4402D01*
X3427D01*
Y4351D01*
X3394Y4319D01*
X3388Y4319D01*
X3377Y4324D01*
X3377Y4325D01*
X3377Y4334D01*
Y4402D01*
X3293D01*
Y4390D01*
X3245D01*
X3235Y4394D01*
X3225Y4395D01*
X3215Y4394D01*
X3210Y4392D01*
X3188Y4400D01*
X3172Y4410D01*
X3184Y4446D01*
X3210Y4446D01*
X3279D01*
Y4492D01*
X3283Y4498D01*
X3295Y4506D01*
X3333Y4508D01*
Y4508D01*
X3417D01*
Y4592D01*
X3417D01*
Y4593D01*
X3417D01*
Y4639D01*
X3417Y4677D01*
X3417Y4716D01*
X3417Y4762D01*
X3417D01*
Y4763D01*
X3417D01*
Y4847D01*
X3380D01*
X3311Y4916D01*
X3305Y4921D01*
X3298Y4924D01*
X3290Y4925D01*
X3270Y4958D01*
X3271Y4964D01*
X3273Y4970D01*
X3273Y4971D01*
X3278Y4982D01*
X3279Y4985D01*
X3230D01*
Y5005D01*
X3279D01*
X3278Y5008D01*
X3273Y5020D01*
X3265Y5030D01*
X3260Y5034D01*
Y5180D01*
X3260Y5180D01*
X3268Y5191D01*
X3273Y5203D01*
X3274Y5207D01*
X3223D01*
Y5226D01*
X3274D01*
X3273Y5230D01*
X3268Y5242D01*
X3260Y5253D01*
X3266Y5289D01*
X3267Y5289D01*
X3271Y5295D01*
X3274Y5303D01*
X3275Y5310D01*
Y5358D01*
X3304D01*
Y5400D01*
X3245D01*
Y5420D01*
X3304D01*
Y5462D01*
X3275D01*
Y5558D01*
X3309D01*
Y5600D01*
X3250D01*
Y5620D01*
X3309D01*
Y5662D01*
X3275D01*
Y6078D01*
X3492Y6295D01*
X3497Y6301D01*
X3498Y6304D01*
X3500Y6308D01*
X3501Y6316D01*
Y6321D01*
X3509Y6327D01*
X3518Y6338D01*
X3523Y6351D01*
X3524Y6355D01*
X3419D01*
X3419Y6351D01*
X3425Y6338D01*
X3433Y6327D01*
X3434Y6321D01*
X3224Y6112D01*
X3219Y6105D01*
X3216Y6098D01*
X3215Y6090D01*
Y5697D01*
X3210Y5696D01*
X3170Y5724D01*
Y6286D01*
X3203Y6300D01*
X3210Y6301D01*
X3222Y6291D01*
X3237Y6283D01*
X3254Y6278D01*
X3271Y6276D01*
X3289Y6278D01*
X3305Y6283D01*
X3321Y6291D01*
X3334Y6302D01*
X3345Y6315D01*
X3354Y6331D01*
X3359Y6348D01*
X3360Y6365D01*
Y6439D01*
X3378Y6457D01*
X3457D01*
X3459Y6417D01*
X3457Y6417D01*
X3444Y6412D01*
X3433Y6403D01*
X3425Y6392D01*
X3419Y6379D01*
X3419Y6375D01*
X3524D01*
X3523Y6379D01*
X3518Y6392D01*
X3509Y6403D01*
X3498Y6412D01*
X3485Y6417D01*
X3483Y6417D01*
X3486Y6457D01*
X3735D01*
X3737Y6450D01*
X3732Y6438D01*
X3707Y6410D01*
X3695Y6405D01*
X3684Y6397D01*
X3676Y6386D01*
X3671Y6374D01*
X3669Y6360D01*
X3671Y6347D01*
X3676Y6334D01*
X3684Y6324D01*
X3695Y6315D01*
X3707Y6310D01*
X3721Y6308D01*
X3734Y6310D01*
X3747Y6315D01*
X3759Y6324D01*
X3782D01*
X3795Y6315D01*
X3807Y6310D01*
X3821Y6308D01*
X3834Y6310D01*
X3847Y6315D01*
X3859Y6324D01*
X3882D01*
X3895Y6315D01*
X3907Y6310D01*
X3921Y6308D01*
X3934Y6310D01*
X3947Y6315D01*
X3957Y6324D01*
X3966Y6334D01*
X3971Y6347D01*
X3973Y6360D01*
X3971Y6374D01*
X3966Y6386D01*
X3957Y6397D01*
X3947Y6405D01*
X3934Y6410D01*
X3930Y6411D01*
X3905Y6437D01*
X3900Y6446D01*
X3899Y6447D01*
X3903Y6459D01*
X4127D01*
X4134Y6420D01*
X4133Y6419D01*
X4120Y6414D01*
X4120Y6414D01*
X4120Y6413D01*
X4109Y6405D01*
X4101Y6394D01*
X4095Y6381D01*
X4093Y6367D01*
X4095Y6353D01*
X4100Y6341D01*
X4100Y6340D01*
X4098Y6337D01*
X4077Y6307D01*
X4076Y6307D01*
X4062Y6305D01*
X4049Y6299D01*
X4038Y6291D01*
X4030Y6280D01*
X4024Y6267D01*
X4022Y6253D01*
X4024Y6239D01*
X4030Y6226D01*
X4038Y6215D01*
X4049Y6206D01*
X4062Y6201D01*
X4076Y6199D01*
X4090Y6201D01*
X4103Y6206D01*
X4114Y6215D01*
X4123Y6226D01*
X4128Y6239D01*
X4130Y6253D01*
X4128Y6267D01*
X4123Y6279D01*
X4123Y6279D01*
X4125Y6283D01*
X4147Y6313D01*
X4147Y6313D01*
X4161Y6315D01*
X4174Y6320D01*
X4185Y6329D01*
X4194Y6340D01*
X4199Y6353D01*
X4201Y6367D01*
X4199Y6381D01*
X4194Y6394D01*
X4185Y6405D01*
X4174Y6413D01*
X4174Y6414D01*
X4174Y6414D01*
X4161Y6419D01*
X4160Y6420D01*
X4167Y6459D01*
X4708D01*
Y6414D01*
X4709Y6397D01*
X4714Y6380D01*
X4723Y6365D01*
X4734Y6351D01*
X4747Y6340D01*
X4763Y6332D01*
X4779Y6327D01*
X4797Y6325D01*
X4814Y6327D01*
X4831Y6332D01*
X4846Y6340D01*
X4860Y6351D01*
X4871Y6365D01*
X4879Y6380D01*
X4884Y6397D01*
X4886Y6414D01*
Y6459D01*
X5117D01*
X5120Y6447D01*
X5120Y6446D01*
X5114Y6437D01*
X5089Y6411D01*
X5085Y6410D01*
X5073Y6405D01*
X5062Y6397D01*
X5054Y6386D01*
X5049Y6374D01*
X5047Y6360D01*
X5049Y6347D01*
X5054Y6334D01*
X5062Y6324D01*
X5073Y6315D01*
X5085Y6310D01*
X5099Y6308D01*
X5112Y6310D01*
X5125Y6315D01*
X5137Y6324D01*
X5160D01*
X5173Y6315D01*
X5185Y6310D01*
X5199Y6308D01*
X5212Y6310D01*
X5225Y6315D01*
X5237Y6324D01*
X5260D01*
X5273Y6315D01*
X5285Y6310D01*
X5299Y6308D01*
X5312Y6310D01*
X5325Y6315D01*
X5335Y6324D01*
X5344Y6334D01*
X5349Y6347D01*
X5350Y6360D01*
X5349Y6374D01*
X5344Y6386D01*
X5335Y6397D01*
X5325Y6405D01*
X5312Y6410D01*
X5308Y6411D01*
X5283Y6437D01*
X5278Y6446D01*
X5277Y6447D01*
X5281Y6459D01*
X5513D01*
X5516Y6420D01*
D02*
G37*
G36*
X4015Y4871D02*
X4015Y4871D01*
X4025Y4875D01*
X4033Y4882D01*
X4041Y4884D01*
X4069D01*
X4077Y4882D01*
X4085Y4875D01*
X4095Y4871D01*
X4105Y4870D01*
X4115Y4871D01*
X4125Y4875D01*
X4133Y4882D01*
X4141Y4884D01*
X4169D01*
X4177Y4882D01*
X4185Y4875D01*
X4195Y4871D01*
X4205Y4870D01*
X4215Y4871D01*
X4225Y4875D01*
X4233Y4882D01*
X4241Y4884D01*
X4269D01*
X4277Y4882D01*
X4285Y4875D01*
X4295Y4871D01*
X4305Y4870D01*
X4315Y4871D01*
X4325Y4875D01*
X4333Y4882D01*
X4341Y4884D01*
X4369D01*
X4377Y4882D01*
X4385Y4875D01*
X4395Y4871D01*
X4405Y4870D01*
X4415Y4871D01*
X4425Y4875D01*
X4433Y4882D01*
X4441Y4884D01*
X4469D01*
X4477Y4882D01*
X4485Y4875D01*
X4495Y4871D01*
X4505Y4870D01*
X4515Y4871D01*
X4525Y4875D01*
X4533Y4882D01*
X4541Y4884D01*
X4569D01*
X4577Y4882D01*
X4585Y4875D01*
X4595Y4871D01*
X4605Y4870D01*
X4615Y4871D01*
X4625Y4875D01*
X4633Y4882D01*
X4641Y4884D01*
X4669D01*
X4677Y4882D01*
X4685Y4875D01*
X4695Y4871D01*
X4705Y4870D01*
X4715Y4871D01*
X4725Y4875D01*
X4733Y4882D01*
X4741Y4884D01*
X4769D01*
X4777Y4882D01*
X4785Y4875D01*
X4795Y4871D01*
X4805Y4870D01*
X4815Y4871D01*
X4825Y4875D01*
X4833Y4882D01*
X4841Y4884D01*
X4869D01*
X4877Y4882D01*
X4885Y4875D01*
X4895Y4871D01*
X4905Y4870D01*
X4915Y4871D01*
X4925Y4875D01*
X4933Y4882D01*
X4939Y4883D01*
X4946Y4880D01*
X4965Y4863D01*
X4966Y4818D01*
X4932Y4785D01*
X4931Y4784D01*
X4923Y4777D01*
X4898Y4770D01*
X4885Y4769D01*
X4884Y4769D01*
X4875Y4770D01*
X4866Y4769D01*
X4857Y4766D01*
X4850Y4760D01*
X4847Y4756D01*
X4631D01*
X4631Y4757D01*
X4625Y4765D01*
X4618Y4770D01*
X4609Y4774D01*
X4600Y4775D01*
X4591Y4774D01*
X4583Y4770D01*
X4575Y4765D01*
X4570Y4757D01*
X4566Y4749D01*
X4565Y4740D01*
X4564Y4739D01*
X4471D01*
X4431Y4779D01*
X4425Y4784D01*
X4417Y4785D01*
X3964D01*
X3940Y4808D01*
Y4865D01*
X3967Y4877D01*
X3980Y4880D01*
X3985Y4875D01*
X3995Y4871D01*
X3995Y4871D01*
Y4910D01*
X4015D01*
Y4871D01*
D02*
G37*
G36*
X6259Y5109D02*
X6264Y5105D01*
X6270Y5104D01*
X7069D01*
X7072Y5098D01*
X7079Y5069D01*
X7080Y5064D01*
X7074Y5058D01*
X7071Y5049D01*
X7070Y5040D01*
X7071Y5031D01*
X7074Y5022D01*
X7080Y5015D01*
X7080Y5015D01*
Y4970D01*
X7081Y4962D01*
X7084Y4955D01*
X7089Y4949D01*
X7418Y4620D01*
X7424Y4615D01*
X7431Y4612D01*
X7423Y4575D01*
X7307D01*
X7021Y4861D01*
X7016Y4866D01*
X7016Y4866D01*
X7010Y4871D01*
X7010Y4871D01*
X7003Y4874D01*
X6995Y4875D01*
X6995Y4875D01*
X6987Y4874D01*
X6987Y4874D01*
X6987Y4874D01*
X6980Y4871D01*
X6974Y4866D01*
X6974D01*
X6969Y4860D01*
X6966Y4853D01*
X6966Y4853D01*
X6966Y4850D01*
X6966Y4850D01*
X6965Y4845D01*
X6965Y4845D01*
X6928Y4831D01*
X6464D01*
X6455D01*
X6449Y4830D01*
X6444Y4826D01*
X6416Y4799D01*
X6406Y4799D01*
X6360D01*
X6352Y4802D01*
X6325Y4825D01*
X6324Y4834D01*
X6324Y4834D01*
X6323Y4839D01*
X6324Y4852D01*
X6333Y4881D01*
X6333Y4882D01*
X6341Y4884D01*
X6369D01*
X6377Y4882D01*
X6385Y4875D01*
X6395Y4871D01*
X6405Y4870D01*
X6415Y4871D01*
X6425Y4875D01*
X6433Y4882D01*
X6440Y4890D01*
X6444Y4900D01*
X6445Y4910D01*
X6444Y4920D01*
X6440Y4930D01*
X6433Y4938D01*
X6431Y4946D01*
Y4974D01*
X6433Y4982D01*
X6440Y4990D01*
X6444Y5000D01*
X6444Y5000D01*
X6405D01*
Y5010D01*
X6395D01*
Y5049D01*
X6395Y5049D01*
X6385Y5045D01*
X6377Y5038D01*
X6369Y5036D01*
X6341D01*
X6333Y5038D01*
X6325Y5045D01*
X6315Y5049D01*
X6305Y5050D01*
X6295Y5049D01*
X6285Y5045D01*
X6277Y5038D01*
X6269Y5036D01*
X6241D01*
X6233Y5038D01*
X6225Y5045D01*
X6215Y5049D01*
X6205Y5050D01*
X6195Y5049D01*
X6185Y5045D01*
X6177Y5038D01*
X6169Y5036D01*
X6163D01*
X6126Y5070D01*
Y5184D01*
X6154Y5205D01*
X6159Y5208D01*
X6159D01*
X6259Y5109D01*
D02*
G37*
G36*
X7607Y4601D02*
X7620Y4580D01*
X7675D01*
Y4560D01*
X7627D01*
X7627Y4557D01*
X7632Y4546D01*
X7632Y4545D01*
X7634Y4538D01*
X7612Y4507D01*
X7540D01*
Y4545D01*
X7539Y4553D01*
X7536Y4560D01*
X7531Y4566D01*
X7525Y4571D01*
X7518Y4574D01*
X7526Y4611D01*
X7596D01*
X7607Y4601D01*
D02*
G37*
G36*
X3718Y4295D02*
Y4246D01*
X3800D01*
X3815Y4220D01*
X3800Y4194D01*
X3780D01*
Y4135D01*
Y4077D01*
X3822D01*
X3838Y4044D01*
Y3920D01*
X3799Y3904D01*
X3771Y3931D01*
X3766Y3935D01*
X3760Y3936D01*
X3697D01*
X3592Y4041D01*
X3607Y4077D01*
X3652D01*
Y4086D01*
X3718D01*
Y4077D01*
X3760D01*
Y4135D01*
Y4194D01*
X3718D01*
Y4185D01*
X3652D01*
Y4194D01*
X3622D01*
X3612Y4207D01*
X3632Y4246D01*
X3652D01*
Y4285D01*
X3678Y4311D01*
X3718Y4295D01*
D02*
G37*
G36*
X3288Y4008D02*
X3344D01*
X3348Y4004D01*
X3354Y3992D01*
X3363Y3969D01*
X3361Y3965D01*
X3395D01*
Y3945D01*
X3361D01*
X3364Y3937D01*
X3370Y3930D01*
X3377Y3924D01*
X3386Y3921D01*
X3395Y3920D01*
X3416Y3888D01*
X3402Y3851D01*
X3306D01*
X3298Y3850D01*
X3291Y3847D01*
X3285Y3842D01*
X3241Y3799D01*
X3237Y3798D01*
X3225Y3793D01*
X3215Y3785D01*
X3210Y3779D01*
X3197Y3779D01*
X3170Y3789D01*
Y3999D01*
X3188Y4010D01*
X3210Y4018D01*
X3215Y4016D01*
X3225Y4015D01*
X3235Y4016D01*
X3245Y4020D01*
X3288D01*
Y4008D01*
D02*
G37*
G36*
X7533Y4200D02*
Y4189D01*
Y4133D01*
X7592D01*
X7620Y4122D01*
X7626Y4097D01*
Y4021D01*
X7645D01*
Y3977D01*
X7487Y3818D01*
X7447Y3835D01*
Y3861D01*
X7405D01*
Y3812D01*
X7425D01*
X7441Y3773D01*
X7316Y3648D01*
X7312Y3642D01*
X7309Y3635D01*
X7308Y3627D01*
Y3550D01*
X7246Y3488D01*
X7230Y3488D01*
X7199Y3497D01*
X7199Y3498D01*
X7192Y3506D01*
X7183Y3514D01*
X7173Y3519D01*
X7162Y3523D01*
X7150Y3524D01*
X7138Y3523D01*
X7127Y3519D01*
X7117Y3514D01*
X7108Y3506D01*
X7101Y3497D01*
X7095Y3487D01*
X7092Y3476D01*
X7091Y3464D01*
X7092Y3453D01*
X7095Y3442D01*
X7101Y3431D01*
X7108Y3422D01*
X7117Y3415D01*
X7117Y3415D01*
X7126Y3384D01*
X7126Y3369D01*
X7017Y3259D01*
X7012Y3253D01*
X7009Y3246D01*
X7009Y3242D01*
X6941Y3174D01*
X6937Y3174D01*
X6930Y3171D01*
X6923Y3166D01*
X6802Y3045D01*
X6777D01*
X6591Y3231D01*
X6585Y3236D01*
X6578Y3239D01*
X6570Y3240D01*
X6024D01*
X5858Y3406D01*
X5865Y3449D01*
X5868Y3452D01*
X5878Y3450D01*
X5892Y3452D01*
X5905Y3457D01*
X5916Y3466D01*
X5925Y3477D01*
X5930Y3490D01*
X5932Y3504D01*
X5930Y3518D01*
X5925Y3531D01*
X5916Y3542D01*
X5923Y3581D01*
X5930Y3590D01*
X5945Y3592D01*
X5950Y3591D01*
X5958Y3584D01*
X5968Y3581D01*
X5978Y3579D01*
X5988Y3581D01*
X5998Y3584D01*
X6006Y3591D01*
X6011Y3592D01*
X6026Y3590D01*
X6033Y3581D01*
X6040Y3542D01*
X6032Y3531D01*
X6026Y3518D01*
X6024Y3504D01*
X6026Y3490D01*
X6032Y3477D01*
X6040Y3466D01*
X6051Y3457D01*
X6064Y3452D01*
X6078Y3450D01*
X6092Y3452D01*
X6105Y3457D01*
X6116Y3466D01*
X6125Y3477D01*
X6130Y3490D01*
X6132Y3504D01*
X6130Y3518D01*
X6125Y3531D01*
X6116Y3542D01*
X6123Y3581D01*
X6130Y3590D01*
X6145Y3592D01*
X6150Y3591D01*
X6158Y3584D01*
X6168Y3581D01*
X6178Y3579D01*
X6188Y3581D01*
X6198Y3584D01*
X6206Y3591D01*
X6214Y3593D01*
X6242D01*
X6250Y3591D01*
X6258Y3584D01*
X6268Y3581D01*
X6278Y3579D01*
X6288Y3581D01*
X6298Y3584D01*
X6332Y3562D01*
X6337Y3553D01*
X6337Y3553D01*
X6332Y3546D01*
X6326Y3533D01*
X6324Y3519D01*
X6326Y3505D01*
X6332Y3492D01*
X6340Y3481D01*
X6351Y3472D01*
X6364Y3467D01*
X6378Y3465D01*
X6392Y3467D01*
X6419Y3449D01*
X6423Y3425D01*
X6352Y3354D01*
X6351Y3354D01*
X6342Y3351D01*
X6335Y3345D01*
X6329Y3338D01*
X6326Y3329D01*
X6325Y3320D01*
X6326Y3311D01*
X6329Y3302D01*
X6335Y3295D01*
X6342Y3289D01*
X6351Y3286D01*
X6360Y3285D01*
X6369Y3286D01*
X6378Y3289D01*
X6378Y3290D01*
X6775D01*
X6783Y3291D01*
X6790Y3294D01*
X6796Y3299D01*
X6899Y3402D01*
X6904Y3408D01*
X6907Y3415D01*
X6908Y3423D01*
Y3460D01*
X6916Y3466D01*
X6925Y3477D01*
X6930Y3490D01*
X6932Y3504D01*
X6930Y3518D01*
X6925Y3531D01*
X6916Y3542D01*
X6923Y3581D01*
X6930Y3590D01*
X6945Y3592D01*
X6950Y3591D01*
X6958Y3584D01*
X6968Y3581D01*
X6978Y3579D01*
X6988Y3581D01*
X6998Y3584D01*
X7006Y3591D01*
X7013Y3599D01*
X7013Y3600D01*
X7045Y3603D01*
X7045Y3603D01*
X7054Y3601D01*
X7057Y3598D01*
X7057D01*
X7063Y3593D01*
X7070Y3590D01*
X7078Y3589D01*
X7086Y3590D01*
X7093Y3593D01*
X7093Y3593D01*
X7094Y3594D01*
X7173D01*
X7181Y3595D01*
X7188Y3598D01*
X7194Y3603D01*
X7199Y3609D01*
X7202Y3616D01*
X7203Y3624D01*
Y3685D01*
X7205Y3687D01*
X7212Y3695D01*
X7216Y3705D01*
X7216Y3705D01*
X7177D01*
Y3725D01*
X7216D01*
X7216Y3725D01*
X7212Y3735D01*
X7207Y3741D01*
Y3812D01*
X7257D01*
Y3840D01*
X7343D01*
Y3812D01*
X7385D01*
Y3870D01*
Y3929D01*
X7343D01*
Y3900D01*
X7257D01*
Y3929D01*
X7215D01*
Y3870D01*
X7195D01*
Y3929D01*
X7153D01*
Y3900D01*
X7067D01*
Y3929D01*
X7049D01*
X7028Y3968D01*
X7038Y3981D01*
X7038Y3981D01*
X7067D01*
Y4010D01*
X7090D01*
X7097Y4011D01*
X7105Y4014D01*
X7111Y4018D01*
X7113Y4021D01*
X7153Y4005D01*
Y3981D01*
X7257D01*
Y4030D01*
X7303Y4076D01*
X7343Y4060D01*
Y3981D01*
X7447D01*
Y4098D01*
X7447Y4098D01*
X7458Y4133D01*
X7483D01*
Y4217D01*
X7483Y4217D01*
X7483Y4218D01*
X7494Y4223D01*
X7533Y4200D01*
D02*
G37*
G36*
X6650Y3591D02*
X6658Y3584D01*
X6668Y3581D01*
X6672Y3580D01*
X6727Y3525D01*
X6729Y3524D01*
X6726Y3518D01*
X6724Y3504D01*
X6726Y3490D01*
X6732Y3477D01*
X6740Y3466D01*
X6751Y3457D01*
X6764Y3452D01*
X6778Y3450D01*
X6792Y3452D01*
X6819Y3434D01*
X6823Y3410D01*
X6763Y3350D01*
X6484D01*
X6469Y3386D01*
X6499Y3417D01*
X6504Y3423D01*
X6507Y3430D01*
X6508Y3438D01*
Y3475D01*
X6516Y3481D01*
X6525Y3492D01*
X6530Y3505D01*
X6532Y3519D01*
X6530Y3533D01*
X6525Y3546D01*
X6520Y3553D01*
X6519Y3553D01*
X6525Y3562D01*
X6558Y3584D01*
X6568Y3581D01*
X6578Y3579D01*
X6588Y3581D01*
X6598Y3584D01*
X6606Y3591D01*
X6614Y3593D01*
X6642D01*
X6650Y3591D01*
D02*
G37*
G36*
X5750D02*
X5758Y3584D01*
X5768Y3581D01*
X5778Y3579D01*
X5788Y3581D01*
X5798Y3584D01*
X5806Y3591D01*
X5811Y3592D01*
X5826Y3590D01*
X5833Y3581D01*
X5840Y3542D01*
X5832Y3531D01*
X5826Y3518D01*
X5824Y3504D01*
X5826Y3494D01*
X5823Y3491D01*
X5780Y3484D01*
X5778Y3485D01*
X5772Y3490D01*
X5765Y3493D01*
X5757Y3494D01*
X5626D01*
X5625Y3497D01*
X5617Y3506D01*
X5608Y3514D01*
X5598Y3519D01*
X5587Y3523D01*
X5575Y3524D01*
X5564Y3523D01*
X5552Y3519D01*
X5542Y3514D01*
X5533Y3506D01*
X5526Y3497D01*
X5520Y3487D01*
X5517Y3476D01*
X5516Y3464D01*
X5517Y3453D01*
X5520Y3442D01*
X5526Y3431D01*
X5533Y3422D01*
X5542Y3415D01*
X5552Y3409D01*
X5540Y3373D01*
X5505D01*
Y3315D01*
Y3256D01*
X5547D01*
Y3280D01*
X5643D01*
Y3256D01*
X5685D01*
Y3315D01*
Y3373D01*
X5643D01*
Y3340D01*
X5569D01*
X5555Y3369D01*
X5556Y3371D01*
X5573Y3400D01*
X5576Y3405D01*
X5587Y3406D01*
X5598Y3409D01*
X5608Y3415D01*
X5617Y3422D01*
X5625Y3431D01*
X5626Y3434D01*
X5745D01*
X5773Y3406D01*
X5754Y3370D01*
X5747Y3371D01*
Y3373D01*
X5705D01*
Y3315D01*
Y3256D01*
X5747D01*
Y3285D01*
X5807D01*
X5814Y3279D01*
X5822Y3276D01*
Y3310D01*
X5842D01*
Y3276D01*
X5849Y3279D01*
X5857Y3285D01*
X5891Y3283D01*
X5900Y3280D01*
X5990Y3189D01*
X5997Y3184D01*
X6000Y3183D01*
X6004Y3181D01*
X6012Y3180D01*
X6221D01*
X6233Y3158D01*
X6237Y3141D01*
X6234Y3138D01*
X6231Y3129D01*
X6230Y3120D01*
X6230Y3118D01*
X6209Y3097D01*
X6204Y3091D01*
X6201Y3084D01*
X6200Y3076D01*
Y3049D01*
X6195Y3049D01*
X6185Y3045D01*
X6177Y3038D01*
X6169Y3036D01*
X6141D01*
X6133Y3038D01*
X6125Y3045D01*
X6115Y3049D01*
X6105Y3050D01*
X6095Y3049D01*
X6085Y3045D01*
X6077Y3038D01*
X6069Y3036D01*
X6041D01*
X6033Y3038D01*
X6025Y3045D01*
X6015Y3049D01*
X6005Y3050D01*
X5995Y3049D01*
X5985Y3045D01*
X5977Y3038D01*
X5969Y3036D01*
X5941D01*
X5933Y3038D01*
X5925Y3045D01*
X5915Y3049D01*
X5905Y3050D01*
X5895Y3049D01*
X5885Y3045D01*
X5877Y3038D01*
X5869Y3036D01*
X5841D01*
X5833Y3038D01*
X5825Y3045D01*
X5815Y3049D01*
X5805Y3050D01*
X5795Y3049D01*
X5785Y3045D01*
X5777Y3038D01*
X5769Y3036D01*
X5751D01*
X5738Y3048D01*
X5747Y3087D01*
X5747D01*
Y3204D01*
X5643D01*
Y3166D01*
X5635D01*
X5628Y3164D01*
X5621Y3160D01*
X5587Y3125D01*
X5547Y3142D01*
Y3204D01*
X5478D01*
X5468Y3217D01*
X5485Y3250D01*
Y3315D01*
Y3373D01*
X5443D01*
Y3340D01*
X5352D01*
Y3368D01*
X5310D01*
Y3310D01*
X5290D01*
Y3368D01*
X5265D01*
X5248Y3368D01*
X5225Y3398D01*
Y3561D01*
X5242Y3573D01*
X5265Y3582D01*
X5268Y3581D01*
X5278Y3579D01*
X5288Y3581D01*
X5298Y3584D01*
X5306Y3591D01*
X5314Y3593D01*
X5342D01*
X5350Y3591D01*
X5358Y3584D01*
X5368Y3581D01*
X5378Y3579D01*
X5388Y3581D01*
X5398Y3584D01*
X5406Y3591D01*
X5414Y3593D01*
X5442D01*
X5450Y3591D01*
X5458Y3584D01*
X5468Y3581D01*
X5478Y3579D01*
X5488Y3581D01*
X5498Y3584D01*
X5506Y3591D01*
X5514Y3593D01*
X5542D01*
X5550Y3591D01*
X5558Y3584D01*
X5568Y3581D01*
X5578Y3579D01*
X5588Y3581D01*
X5598Y3584D01*
X5606Y3591D01*
X5614Y3593D01*
X5642D01*
X5650Y3591D01*
X5658Y3584D01*
X5668Y3581D01*
X5678Y3579D01*
X5688Y3581D01*
X5698Y3584D01*
X5706Y3591D01*
X5714Y3593D01*
X5742D01*
X5750Y3591D01*
D02*
G37*
G36*
X5014Y3502D02*
X5035Y3491D01*
Y3264D01*
X5030Y3260D01*
X5024Y3253D01*
X5021Y3244D01*
X5020Y3235D01*
X5021Y3226D01*
X5024Y3217D01*
X5030Y3210D01*
X5037Y3204D01*
X5046Y3201D01*
X5055Y3200D01*
X5064Y3201D01*
X5073Y3204D01*
X5080Y3210D01*
X5084Y3216D01*
X5088Y3216D01*
X5124Y3205D01*
X5125Y3199D01*
X5129Y3194D01*
X5135Y3187D01*
X5186Y3136D01*
X5193Y3129D01*
X5198Y3125D01*
X5205Y3124D01*
X5248D01*
Y3082D01*
X5248D01*
X5249Y3043D01*
X5246Y3040D01*
X5239Y3037D01*
X5233Y3038D01*
X5225Y3045D01*
X5215Y3049D01*
X5205Y3050D01*
X5195Y3049D01*
X5185Y3045D01*
X5177Y3038D01*
X5169Y3036D01*
X5141D01*
X5133Y3038D01*
X5125Y3045D01*
X5115Y3049D01*
X5105Y3050D01*
X5095Y3049D01*
X5085Y3045D01*
X5077Y3038D01*
X5069Y3036D01*
X5041D01*
X5033Y3038D01*
X5025Y3045D01*
X5015Y3049D01*
X5005Y3050D01*
X4995Y3049D01*
X4985Y3045D01*
X4977Y3038D01*
X4969Y3036D01*
X4941D01*
X4933Y3038D01*
X4925Y3045D01*
X4915Y3049D01*
X4905Y3050D01*
X4895Y3049D01*
X4885Y3045D01*
X4877Y3038D01*
X4869Y3036D01*
X4841D01*
X4833Y3038D01*
X4825Y3045D01*
X4815Y3049D01*
X4805Y3050D01*
X4795Y3049D01*
X4785Y3045D01*
X4777Y3038D01*
X4769Y3036D01*
X4741D01*
X4733Y3038D01*
X4725Y3045D01*
X4715Y3049D01*
X4705Y3050D01*
X4695Y3049D01*
X4685Y3045D01*
X4677Y3038D01*
X4669Y3036D01*
X4641D01*
X4633Y3038D01*
X4625Y3045D01*
X4615Y3049D01*
X4605Y3050D01*
X4595Y3049D01*
X4585Y3045D01*
X4577Y3038D01*
X4569Y3036D01*
X4541D01*
X4533Y3038D01*
X4525Y3045D01*
X4515Y3049D01*
X4505Y3050D01*
X4495Y3049D01*
X4485Y3045D01*
X4477Y3038D01*
X4469Y3036D01*
X4441D01*
X4433Y3038D01*
X4425Y3045D01*
X4415Y3049D01*
X4405Y3050D01*
X4395Y3049D01*
X4385Y3045D01*
X4377Y3038D01*
X4369Y3036D01*
X4341D01*
X4333Y3038D01*
X4325Y3045D01*
X4315Y3049D01*
X4305Y3050D01*
X4295Y3049D01*
X4285Y3045D01*
X4277Y3038D01*
X4269Y3036D01*
X4241D01*
X4233Y3038D01*
X4225Y3045D01*
X4215Y3049D01*
X4205Y3050D01*
X4195Y3049D01*
X4185Y3045D01*
X4177Y3038D01*
X4169Y3036D01*
X4141D01*
X4133Y3038D01*
X4125Y3045D01*
X4115Y3049D01*
X4105Y3050D01*
X4095Y3049D01*
X4090Y3047D01*
X4067Y3057D01*
X4057Y3063D01*
X4056Y3068D01*
X4082Y3097D01*
X4117D01*
Y3146D01*
X4065D01*
X4013D01*
Y3130D01*
X3984Y3101D01*
X3979Y3095D01*
X3976Y3088D01*
X3975Y3080D01*
Y3036D01*
X3970Y3030D01*
X3966Y3020D01*
X3966Y3020D01*
X4005D01*
Y3000D01*
X3966D01*
X3966Y3000D01*
X3970Y2990D01*
X3975Y2984D01*
Y2936D01*
X3970Y2930D01*
X3966Y2920D01*
X3966Y2913D01*
X3887Y2834D01*
X3883Y2834D01*
X3843Y2836D01*
X3842Y2837D01*
X3833Y2844D01*
X3825Y2849D01*
Y2888D01*
X3837D01*
Y2920D01*
X3795D01*
X3753D01*
Y2888D01*
X3765D01*
Y2843D01*
X3758Y2837D01*
X3751Y2828D01*
X3745Y2818D01*
X3742Y2807D01*
X3742Y2805D01*
X3800D01*
Y2795D01*
X3810D01*
Y2736D01*
X3812Y2737D01*
X3823Y2740D01*
X3833Y2746D01*
X3842Y2753D01*
X3850Y2762D01*
X3851Y2765D01*
X5324D01*
X5326Y2762D01*
X5333Y2753D01*
X5342Y2746D01*
X5352Y2740D01*
X5363Y2737D01*
X5365Y2736D01*
Y2795D01*
X5385D01*
Y2736D01*
X5387Y2737D01*
X5398Y2740D01*
X5408Y2746D01*
X5417Y2753D01*
X5424Y2762D01*
X5426Y2765D01*
X5524D01*
X5526Y2762D01*
X5533Y2753D01*
X5542Y2746D01*
X5552Y2740D01*
X5564Y2737D01*
X5565Y2736D01*
Y2795D01*
X5585D01*
Y2736D01*
X5587Y2737D01*
X5590Y2738D01*
X5614Y2714D01*
X5620Y2709D01*
X5623Y2708D01*
X5627Y2706D01*
X5635Y2705D01*
X6381D01*
Y2705D01*
X6383Y2696D01*
X6388Y2688D01*
X6406Y2670D01*
X6390Y2630D01*
X3170D01*
Y2943D01*
X3203Y2959D01*
X3210Y2959D01*
X3287D01*
Y3029D01*
X3287Y3039D01*
X3347Y3099D01*
X3371Y3124D01*
X3375Y3127D01*
X3375Y3127D01*
X3417Y3169D01*
X3624D01*
X3624Y3168D01*
X3632Y3157D01*
X3643Y3149D01*
X3655Y3144D01*
X3668Y3143D01*
X3674Y3144D01*
X3753Y3065D01*
Y3022D01*
X3837D01*
Y3106D01*
X3807D01*
X3794Y3123D01*
X3813Y3163D01*
X3933D01*
X3941Y3164D01*
X3948Y3167D01*
X3954Y3171D01*
X3973Y3191D01*
X4013Y3174D01*
Y3165D01*
X4065D01*
X4117D01*
Y3214D01*
X4084D01*
X4063Y3253D01*
X4073Y3266D01*
X4117D01*
Y3383D01*
X4087D01*
Y3423D01*
X4090Y3425D01*
X4096Y3432D01*
X4099Y3441D01*
X4099Y3442D01*
X4162Y3505D01*
X4957D01*
X4957Y3504D01*
X4966Y3501D01*
X4975Y3500D01*
X4984Y3501D01*
X4993Y3504D01*
X4995Y3507D01*
X5014Y3502D01*
D02*
G37*
G36*
X3835Y3742D02*
X3855Y3729D01*
X3863Y3720D01*
X3863Y3656D01*
X3956D01*
X3958Y3655D01*
X3965Y3654D01*
X4006D01*
X4022Y3614D01*
X3899Y3492D01*
X3881Y3492D01*
X3846Y3502D01*
X3842Y3506D01*
X3833Y3514D01*
X3823Y3519D01*
X3812Y3523D01*
X3800Y3524D01*
X3789Y3523D01*
X3777Y3519D01*
X3767Y3514D01*
X3758Y3506D01*
X3751Y3497D01*
X3748Y3493D01*
X3731Y3491D01*
X3707Y3498D01*
X3704Y3518D01*
Y3524D01*
X3704D01*
Y3536D01*
X3664D01*
Y3556D01*
X3704D01*
Y3568D01*
X3704D01*
Y3573D01*
X3704D01*
Y3617D01*
X3704D01*
Y3649D01*
X3719Y3682D01*
X3728Y3694D01*
X3743Y3694D01*
X3782D01*
Y3717D01*
X3784Y3720D01*
X3789Y3725D01*
X3820Y3745D01*
X3821Y3745D01*
X3824Y3745D01*
X3835Y3742D01*
D02*
G37*
G36*
X3875Y3335D02*
X3882Y3329D01*
X3891Y3326D01*
X3891Y3326D01*
X3903Y3323D01*
X3918Y3313D01*
X3928Y3298D01*
X3931Y3289D01*
X3937Y3282D01*
X3938Y3255D01*
X3910Y3222D01*
X3722D01*
X3710Y3244D01*
X3706Y3260D01*
X3711Y3268D01*
X3716Y3280D01*
X3716Y3283D01*
X3668D01*
Y3302D01*
X3717D01*
X3719Y3311D01*
X3737Y3336D01*
X3742Y3340D01*
X3871D01*
X3875Y3335D01*
D02*
G37*
G36*
X6705Y3033D02*
X6644Y2971D01*
X6639Y2965D01*
X6636Y2958D01*
X6635Y2950D01*
Y2919D01*
X6630Y2915D01*
X6627Y2911D01*
X6572D01*
Y2923D01*
X6488D01*
Y2914D01*
X6466Y2896D01*
X6457Y2898D01*
X6444Y2906D01*
X6445Y2910D01*
X6444Y2920D01*
X6440Y2930D01*
X6435Y2936D01*
Y2984D01*
X6436Y2985D01*
X6488D01*
Y2973D01*
X6520D01*
Y3015D01*
Y3057D01*
X6488D01*
Y3045D01*
X6424D01*
X6415Y3049D01*
X6415Y3049D01*
Y3010D01*
X6395D01*
Y3049D01*
X6395Y3049D01*
X6385Y3045D01*
X6377Y3038D01*
X6369Y3036D01*
X6341D01*
X6333Y3038D01*
X6325Y3045D01*
X6315Y3049D01*
X6305Y3050D01*
X6302Y3049D01*
X6288Y3067D01*
X6282Y3085D01*
X6286Y3089D01*
X6291Y3096D01*
X6292Y3097D01*
X6296Y3102D01*
X6299Y3111D01*
X6300Y3120D01*
X6299Y3129D01*
X6296Y3138D01*
X6293Y3141D01*
X6297Y3158D01*
X6309Y3180D01*
X6558D01*
X6705Y3033D01*
D02*
G37*
G36*
X7785Y4006D02*
Y2630D01*
X6695D01*
X6678Y2670D01*
X6814Y2805D01*
X6888D01*
Y2777D01*
X6930D01*
Y2835D01*
Y2894D01*
X6888D01*
Y2865D01*
X6851D01*
X6815Y2880D01*
X6813Y2893D01*
X6808Y2905D01*
X6800Y2915D01*
X6790Y2923D01*
X6778Y2928D01*
X6775Y2928D01*
Y2880D01*
X6755D01*
Y2928D01*
X6752Y2928D01*
X6740Y2936D01*
X6730Y2944D01*
X6730Y2973D01*
X6742Y2985D01*
X6815D01*
X6815Y2985D01*
X6817Y2984D01*
X6825Y2982D01*
X6825Y2982D01*
X6888D01*
Y2946D01*
X6992D01*
Y3063D01*
X6985D01*
X6961Y3102D01*
X6969Y3119D01*
X6975Y3124D01*
X7059Y3208D01*
X7064Y3214D01*
X7065Y3217D01*
X7067Y3221D01*
X7067Y3225D01*
X7359Y3517D01*
X7364Y3523D01*
X7367Y3530D01*
X7368Y3538D01*
Y3615D01*
X7696Y3943D01*
X7701Y3949D01*
X7702Y3952D01*
X7704Y3957D01*
X7705Y3964D01*
Y3989D01*
X7724Y4021D01*
X7749Y4030D01*
X7785Y4006D01*
D02*
G37*
%LPC*%
G36*
X7610Y6442D02*
Y6400D01*
X7652D01*
X7652Y6404D01*
X7647Y6417D01*
X7638Y6428D01*
X7627Y6437D01*
X7614Y6442D01*
X7610Y6442D01*
D02*
G37*
G36*
X7652Y6380D02*
X7610D01*
Y6338D01*
X7614Y6338D01*
X7627Y6343D01*
X7638Y6352D01*
X7647Y6363D01*
X7652Y6376D01*
X7652Y6380D01*
D02*
G37*
G36*
X7184Y6415D02*
X7170Y6413D01*
X7158Y6408D01*
X7145Y6400D01*
X7122D01*
X7110Y6408D01*
X7097Y6413D01*
X7084Y6415D01*
X7070Y6413D01*
X7058Y6408D01*
X7047Y6400D01*
X7039Y6389D01*
X7034Y6377D01*
X7032Y6363D01*
X7034Y6350D01*
X7039Y6338D01*
X7047Y6327D01*
X7058Y6319D01*
X7070Y6313D01*
X7084Y6312D01*
X7097Y6313D01*
X7110Y6319D01*
X7122Y6327D01*
X7145D01*
X7158Y6319D01*
X7170Y6313D01*
X7184Y6312D01*
X7197Y6313D01*
X7210Y6319D01*
X7220Y6327D01*
X7229Y6338D01*
X7234Y6350D01*
X7236Y6363D01*
X7234Y6377D01*
X7229Y6389D01*
X7220Y6400D01*
X7210Y6408D01*
X7197Y6413D01*
X7184Y6415D01*
D02*
G37*
G36*
X6140Y6277D02*
Y6235D01*
X6182D01*
X6182Y6239D01*
X6177Y6252D01*
X6168Y6263D01*
X6157Y6272D01*
X6144Y6277D01*
X6140Y6277D01*
D02*
G37*
G36*
X6120D02*
X6116Y6277D01*
X6103Y6272D01*
X6092Y6263D01*
X6083Y6252D01*
X6078Y6239D01*
X6078Y6235D01*
X6120D01*
Y6277D01*
D02*
G37*
G36*
X7006Y6289D02*
X6992Y6287D01*
X6979Y6282D01*
X6968Y6273D01*
X6960Y6262D01*
X6954Y6249D01*
X6952Y6235D01*
X6954Y6221D01*
X6960Y6208D01*
X6968Y6197D01*
X6979Y6189D01*
X6992Y6183D01*
X7006Y6181D01*
X7020Y6183D01*
X7033Y6189D01*
X7044Y6197D01*
X7053Y6208D01*
X7058Y6221D01*
X7060Y6235D01*
X7058Y6249D01*
X7053Y6262D01*
X7044Y6273D01*
X7033Y6282D01*
X7020Y6287D01*
X7006Y6289D01*
D02*
G37*
G36*
X6182Y6215D02*
X6140D01*
Y6173D01*
X6144Y6173D01*
X6157Y6178D01*
X6168Y6187D01*
X6177Y6198D01*
X6182Y6211D01*
X6182Y6215D01*
D02*
G37*
G36*
X6120D02*
X6078D01*
X6078Y6211D01*
X6083Y6198D01*
X6092Y6187D01*
X6103Y6178D01*
X6116Y6173D01*
X6120Y6173D01*
Y6215D01*
D02*
G37*
G36*
X6864Y6098D02*
Y6056D01*
X6907D01*
X6906Y6060D01*
X6901Y6073D01*
X6892Y6084D01*
X6881Y6092D01*
X6868Y6098D01*
X6864Y6098D01*
D02*
G37*
G36*
X6844D02*
X6840Y6098D01*
X6827Y6092D01*
X6816Y6084D01*
X6808Y6073D01*
X6802Y6060D01*
X6802Y6056D01*
X6844D01*
Y6098D01*
D02*
G37*
G36*
X6347Y5980D02*
X6344Y5980D01*
X6332Y5975D01*
X6322Y5967D01*
X6314Y5956D01*
X6309Y5944D01*
X6309Y5941D01*
X6347D01*
Y5980D01*
D02*
G37*
G36*
X5897Y5775D02*
Y5737D01*
X5936D01*
X5935Y5740D01*
X5930Y5752D01*
X5922Y5762D01*
X5912Y5770D01*
X5900Y5775D01*
X5897Y5775D01*
D02*
G37*
G36*
X5877D02*
X5874Y5775D01*
X5862Y5770D01*
X5852Y5762D01*
X5844Y5752D01*
X5839Y5740D01*
X5839Y5737D01*
X5877D01*
Y5775D01*
D02*
G37*
G36*
X5936Y5717D02*
X5887D01*
X5839D01*
X5839Y5714D01*
X5844Y5703D01*
X5844Y5702D01*
X5852Y5679D01*
Y5675D01*
X5844Y5652D01*
X5844Y5651D01*
X5839Y5640D01*
X5837Y5627D01*
X5839Y5614D01*
X5844Y5602D01*
X5852Y5592D01*
X5862Y5584D01*
X5874Y5579D01*
X5887Y5577D01*
X5900Y5579D01*
X5912Y5584D01*
X5922Y5592D01*
X5930Y5602D01*
X5935Y5614D01*
X5937Y5627D01*
X5935Y5640D01*
X5931Y5651D01*
X5930Y5652D01*
X5922Y5675D01*
Y5679D01*
X5930Y5702D01*
X5931Y5703D01*
X5935Y5714D01*
X5936Y5717D01*
D02*
G37*
G36*
X6188Y5582D02*
X6174Y5580D01*
X6161Y5575D01*
X6150Y5566D01*
X6141Y5555D01*
X6136Y5542D01*
X6134Y5528D01*
X6136Y5514D01*
X6141Y5502D01*
X6150Y5490D01*
X6161Y5482D01*
X6174Y5476D01*
X6188Y5475D01*
X6202Y5476D01*
X6215Y5482D01*
X6226Y5490D01*
X6235Y5502D01*
X6240Y5514D01*
X6242Y5528D01*
X6240Y5542D01*
X6235Y5555D01*
X6226Y5566D01*
X6215Y5575D01*
X6202Y5580D01*
X6188Y5582D01*
D02*
G37*
G36*
X4419Y6412D02*
X4406Y6410D01*
X4393Y6405D01*
X4381Y6397D01*
X4358D01*
X4345Y6405D01*
X4333Y6410D01*
X4319Y6412D01*
X4306Y6410D01*
X4293Y6405D01*
X4283Y6397D01*
X4274Y6386D01*
X4269Y6374D01*
X4267Y6360D01*
X4269Y6347D01*
X4270Y6345D01*
X4267Y6330D01*
X4260Y6314D01*
X4251Y6300D01*
X4249Y6299D01*
X4238Y6291D01*
X4230Y6280D01*
X4224Y6267D01*
X4222Y6253D01*
X4224Y6239D01*
X4230Y6226D01*
X4238Y6215D01*
X4249Y6206D01*
X4262Y6201D01*
X4276Y6199D01*
X4290Y6201D01*
X4303Y6206D01*
X4314Y6215D01*
X4323Y6226D01*
X4328Y6239D01*
X4330Y6253D01*
X4328Y6267D01*
X4327Y6270D01*
X4330Y6291D01*
X4344Y6313D01*
X4383Y6322D01*
X4393Y6315D01*
X4406Y6310D01*
X4419Y6308D01*
X4433Y6310D01*
X4445Y6315D01*
X4456Y6324D01*
X4464Y6334D01*
X4469Y6347D01*
X4471Y6360D01*
X4469Y6374D01*
X4464Y6386D01*
X4456Y6397D01*
X4445Y6405D01*
X4433Y6410D01*
X4419Y6412D01*
D02*
G37*
G36*
X4807Y6267D02*
Y6224D01*
X4849D01*
X4849Y6228D01*
X4843Y6241D01*
X4835Y6252D01*
X4824Y6261D01*
X4811Y6266D01*
X4807Y6267D01*
D02*
G37*
G36*
X4787Y6267D02*
X4783Y6266D01*
X4770Y6261D01*
X4759Y6252D01*
X4750Y6241D01*
X4745Y6228D01*
X4744Y6224D01*
X4787D01*
Y6267D01*
D02*
G37*
G36*
X4990Y6318D02*
X4976Y6316D01*
X4963Y6310D01*
X4952Y6302D01*
X4943Y6291D01*
X4938Y6278D01*
X4936Y6264D01*
X4938Y6250D01*
X4943Y6237D01*
X4952Y6226D01*
X4963Y6217D01*
X4976Y6212D01*
X4990Y6210D01*
X5004Y6212D01*
X5017Y6217D01*
X5028Y6226D01*
X5036Y6237D01*
X5042Y6250D01*
X5043Y6264D01*
X5042Y6278D01*
X5036Y6291D01*
X5028Y6302D01*
X5017Y6310D01*
X5004Y6316D01*
X4990Y6318D01*
D02*
G37*
G36*
X5415Y6307D02*
X5401Y6305D01*
X5388Y6299D01*
X5377Y6291D01*
X5368Y6280D01*
X5363Y6267D01*
X5361Y6253D01*
X5363Y6239D01*
X5368Y6226D01*
X5377Y6215D01*
X5388Y6206D01*
X5401Y6201D01*
X5415Y6199D01*
X5429Y6201D01*
X5442Y6206D01*
X5453Y6215D01*
X5461Y6226D01*
X5467Y6239D01*
X5469Y6253D01*
X5467Y6267D01*
X5461Y6280D01*
X5453Y6291D01*
X5442Y6299D01*
X5429Y6305D01*
X5415Y6307D01*
D02*
G37*
G36*
X3604Y6294D02*
X3590Y6292D01*
X3577Y6287D01*
X3566Y6278D01*
X3557Y6267D01*
X3552Y6254D01*
X3550Y6240D01*
X3552Y6226D01*
X3557Y6213D01*
X3566Y6202D01*
X3577Y6194D01*
X3590Y6188D01*
X3604Y6186D01*
X3618Y6188D01*
X3631Y6194D01*
X3642Y6202D01*
X3650Y6213D01*
X3656Y6226D01*
X3658Y6240D01*
X3656Y6254D01*
X3650Y6267D01*
X3642Y6278D01*
X3631Y6287D01*
X3618Y6292D01*
X3604Y6294D01*
D02*
G37*
G36*
X4787Y6204D02*
X4744D01*
X4745Y6200D01*
X4750Y6187D01*
X4759Y6176D01*
X4770Y6168D01*
X4783Y6162D01*
X4787Y6162D01*
Y6204D01*
D02*
G37*
G36*
X4849D02*
X4807D01*
Y6162D01*
X4811Y6162D01*
X4824Y6168D01*
X4835Y6176D01*
X4843Y6187D01*
X4849Y6200D01*
X4849Y6204D01*
D02*
G37*
G36*
X4500Y6102D02*
Y6059D01*
X4543D01*
X4542Y6063D01*
X4537Y6076D01*
X4528Y6087D01*
X4517Y6096D01*
X4504Y6101D01*
X4500Y6102D01*
D02*
G37*
G36*
X4481D02*
X4476Y6101D01*
X4464Y6096D01*
X4452Y6087D01*
X4444Y6076D01*
X4438Y6063D01*
X4438Y6059D01*
X4481D01*
Y6102D01*
D02*
G37*
G36*
X4990Y6118D02*
X4976Y6116D01*
X4963Y6110D01*
X4952Y6102D01*
X4943Y6091D01*
X4938Y6078D01*
X4936Y6064D01*
X4938Y6050D01*
X4943Y6037D01*
X4952Y6026D01*
X4963Y6017D01*
X4976Y6012D01*
X4990Y6010D01*
X5004Y6012D01*
X5017Y6017D01*
X5028Y6026D01*
X5036Y6037D01*
X5042Y6050D01*
X5043Y6064D01*
X5042Y6078D01*
X5036Y6091D01*
X5028Y6102D01*
X5017Y6110D01*
X5004Y6116D01*
X4990Y6118D01*
D02*
G37*
G36*
X5196Y5980D02*
Y5941D01*
X5235D01*
X5235Y5944D01*
X5230Y5956D01*
X5222Y5967D01*
X5211Y5975D01*
X5199Y5980D01*
X5196Y5980D01*
D02*
G37*
G36*
X5177D02*
X5174Y5980D01*
X5162Y5975D01*
X5151Y5967D01*
X5143Y5956D01*
X5138Y5944D01*
X5138Y5941D01*
X5177D01*
Y5980D01*
D02*
G37*
G36*
X3811Y5925D02*
X3762D01*
X3714D01*
X3714Y5922D01*
X3719Y5911D01*
X3719Y5910D01*
X3727Y5887D01*
Y5883D01*
X3719Y5860D01*
X3719Y5859D01*
X3714Y5848D01*
X3712Y5835D01*
X3714Y5822D01*
X3719Y5810D01*
X3727Y5800D01*
X3737Y5792D01*
X3749Y5787D01*
X3762Y5785D01*
X3775Y5787D01*
X3787Y5792D01*
X3797Y5800D01*
X3805Y5810D01*
X3810Y5822D01*
X3812Y5835D01*
X3810Y5848D01*
X3805Y5859D01*
X3805Y5860D01*
X3797Y5883D01*
Y5887D01*
X3805Y5910D01*
X3805Y5911D01*
X3810Y5922D01*
X3811Y5925D01*
D02*
G37*
G36*
X5235Y5922D02*
X5186D01*
X5138D01*
X5138Y5919D01*
X5143Y5908D01*
X5143Y5907D01*
X5151Y5884D01*
Y5879D01*
X5143Y5856D01*
X5143Y5856D01*
X5138Y5844D01*
X5137Y5832D01*
X5138Y5819D01*
X5143Y5807D01*
X5151Y5796D01*
X5162Y5788D01*
X5174Y5783D01*
X5186Y5782D01*
X5199Y5783D01*
X5211Y5788D01*
X5222Y5796D01*
X5230Y5807D01*
X5235Y5819D01*
X5236Y5832D01*
X5235Y5844D01*
X5230Y5856D01*
X5230Y5856D01*
X5222Y5879D01*
Y5884D01*
X5230Y5907D01*
X5230Y5908D01*
X5235Y5919D01*
X5235Y5922D01*
D02*
G37*
G36*
X4705Y5688D02*
Y5650D01*
X4744D01*
X4743Y5653D01*
X4738Y5665D01*
X4730Y5675D01*
X4720Y5683D01*
X4708Y5688D01*
X4705Y5688D01*
D02*
G37*
G36*
X4685D02*
X4682Y5688D01*
X4670Y5683D01*
X4660Y5675D01*
X4652Y5665D01*
X4647Y5653D01*
X4647Y5650D01*
X4685D01*
Y5688D01*
D02*
G37*
G36*
X5185Y5700D02*
X5172Y5698D01*
X5160Y5693D01*
X5150Y5685D01*
X5142Y5675D01*
X5137Y5663D01*
X5135Y5650D01*
X5137Y5637D01*
X5142Y5626D01*
X5142Y5625D01*
X5150Y5602D01*
Y5598D01*
X5142Y5575D01*
X5142Y5574D01*
X5137Y5563D01*
X5135Y5550D01*
X5137Y5537D01*
X5142Y5525D01*
X5150Y5515D01*
X5160Y5507D01*
X5172Y5502D01*
X5185Y5500D01*
X5198Y5502D01*
X5210Y5507D01*
X5220Y5515D01*
X5228Y5525D01*
X5233Y5537D01*
X5235Y5550D01*
X5233Y5563D01*
X5228Y5574D01*
X5228Y5575D01*
X5220Y5598D01*
Y5602D01*
X5228Y5625D01*
X5228Y5626D01*
X5233Y5637D01*
X5235Y5650D01*
X5233Y5663D01*
X5228Y5675D01*
X5220Y5685D01*
X5210Y5693D01*
X5198Y5698D01*
X5185Y5700D01*
D02*
G37*
G36*
X3509Y5206D02*
X3492Y5205D01*
X3475Y5201D01*
X3459Y5194D01*
X3444Y5185D01*
X3431Y5174D01*
X3420Y5160D01*
X3411Y5146D01*
X3404Y5130D01*
X3400Y5113D01*
X3399Y5095D01*
X3400Y5078D01*
X3404Y5061D01*
X3411Y5045D01*
X3420Y5030D01*
X3431Y5017D01*
X3444Y5006D01*
X3459Y4997D01*
X3475Y4990D01*
X3492Y4986D01*
X3509Y4985D01*
X3527Y4986D01*
X3544Y4990D01*
X3560Y4997D01*
X3574Y5006D01*
X3588Y5017D01*
X3599Y5030D01*
X3608Y5045D01*
X3615Y5061D01*
X3619Y5078D01*
X3620Y5095D01*
X3619Y5113D01*
X3615Y5130D01*
X3608Y5146D01*
X3599Y5160D01*
X3588Y5174D01*
X3574Y5185D01*
X3560Y5194D01*
X3544Y5201D01*
X3527Y5205D01*
X3509Y5206D01*
D02*
G37*
G36*
X6415Y5049D02*
Y5020D01*
X6444D01*
X6444Y5020D01*
X6440Y5030D01*
X6433Y5038D01*
X6425Y5045D01*
X6415Y5049D01*
X6415Y5049D01*
D02*
G37*
G36*
X6825Y4980D02*
X6816Y4979D01*
X6807Y4976D01*
X6800Y4970D01*
X6794Y4963D01*
X6793Y4960D01*
X6598D01*
X6598Y4961D01*
X6589Y4964D01*
X6580Y4965D01*
X6571Y4964D01*
X6562Y4961D01*
X6555Y4955D01*
X6549Y4948D01*
X6546Y4939D01*
X6545Y4930D01*
X6546Y4921D01*
X6549Y4912D01*
X6555Y4905D01*
X6562Y4899D01*
X6571Y4896D01*
X6580Y4895D01*
X6589Y4896D01*
X6598Y4899D01*
X6598Y4900D01*
X6810D01*
X6818Y4901D01*
X6825Y4904D01*
X6831Y4909D01*
X6833Y4911D01*
X6834Y4911D01*
X6843Y4914D01*
X6850Y4920D01*
X6856Y4927D01*
X6859Y4936D01*
X6860Y4945D01*
X6859Y4954D01*
X6856Y4963D01*
X6850Y4970D01*
X6843Y4976D01*
X6834Y4979D01*
X6825Y4980D01*
D02*
G37*
G36*
X7447Y3929D02*
X7405D01*
Y3880D01*
X7447D01*
Y3929D01*
D02*
G37*
G36*
X5375Y3524D02*
X5363Y3523D01*
X5352Y3519D01*
X5342Y3514D01*
X5333Y3506D01*
X5326Y3497D01*
X5320Y3487D01*
X5317Y3476D01*
X5316Y3464D01*
X5317Y3453D01*
X5320Y3442D01*
X5326Y3431D01*
X5333Y3422D01*
X5342Y3415D01*
X5352Y3409D01*
X5363Y3406D01*
X5375Y3405D01*
X5387Y3406D01*
X5398Y3409D01*
X5408Y3415D01*
X5417Y3422D01*
X5424Y3431D01*
X5430Y3442D01*
X5433Y3453D01*
X5434Y3464D01*
X5433Y3476D01*
X5430Y3487D01*
X5424Y3497D01*
X5417Y3506D01*
X5408Y3514D01*
X5398Y3519D01*
X5387Y3523D01*
X5375Y3524D01*
D02*
G37*
G36*
X3837Y2972D02*
X3805D01*
Y2940D01*
X3837D01*
Y2972D01*
D02*
G37*
G36*
X3785D02*
X3753D01*
Y2940D01*
X3785D01*
Y2972D01*
D02*
G37*
G36*
X3509Y3080D02*
X3492Y3079D01*
X3475Y3075D01*
X3459Y3068D01*
X3444Y3059D01*
X3431Y3048D01*
X3420Y3034D01*
X3411Y3020D01*
X3404Y3004D01*
X3400Y2987D01*
X3399Y2969D01*
X3400Y2952D01*
X3404Y2935D01*
X3411Y2919D01*
X3420Y2904D01*
X3431Y2891D01*
X3444Y2880D01*
X3459Y2871D01*
X3475Y2864D01*
X3492Y2860D01*
X3509Y2859D01*
X3527Y2860D01*
X3544Y2864D01*
X3560Y2871D01*
X3574Y2880D01*
X3588Y2891D01*
X3599Y2904D01*
X3608Y2919D01*
X3615Y2935D01*
X3619Y2952D01*
X3620Y2969D01*
X3619Y2987D01*
X3615Y3004D01*
X3608Y3020D01*
X3599Y3034D01*
X3588Y3048D01*
X3574Y3059D01*
X3560Y3068D01*
X3544Y3075D01*
X3527Y3079D01*
X3509Y3080D01*
D02*
G37*
G36*
X3790Y2785D02*
X3742D01*
X3742Y2783D01*
X3745Y2772D01*
X3751Y2762D01*
X3758Y2753D01*
X3767Y2746D01*
X3777Y2740D01*
X3789Y2737D01*
X3790Y2736D01*
Y2785D01*
D02*
G37*
G36*
X6572Y3057D02*
X6540D01*
Y3025D01*
X6572D01*
Y3057D01*
D02*
G37*
G36*
Y3005D02*
X6540D01*
Y2973D01*
X6572D01*
Y3005D01*
D02*
G37*
G36*
X7446Y3080D02*
X7429Y3079D01*
X7412Y3075D01*
X7396Y3068D01*
X7381Y3059D01*
X7368Y3048D01*
X7357Y3034D01*
X7348Y3020D01*
X7341Y3004D01*
X7337Y2987D01*
X7336Y2969D01*
X7337Y2952D01*
X7341Y2935D01*
X7348Y2919D01*
X7357Y2904D01*
X7368Y2891D01*
X7381Y2880D01*
X7396Y2871D01*
X7412Y2864D01*
X7429Y2860D01*
X7446Y2859D01*
X7464Y2860D01*
X7481Y2864D01*
X7497Y2871D01*
X7511Y2880D01*
X7525Y2891D01*
X7536Y2904D01*
X7545Y2919D01*
X7552Y2935D01*
X7556Y2952D01*
X7557Y2969D01*
X7556Y2987D01*
X7552Y3004D01*
X7545Y3020D01*
X7536Y3034D01*
X7525Y3048D01*
X7511Y3059D01*
X7497Y3068D01*
X7481Y3075D01*
X7464Y3079D01*
X7446Y3080D01*
D02*
G37*
G36*
X6992Y2894D02*
X6950D01*
Y2845D01*
X6992D01*
Y2894D01*
D02*
G37*
G36*
X7140Y2854D02*
X7138Y2853D01*
X7127Y2850D01*
X7117Y2844D01*
X7108Y2837D01*
X7101Y2828D01*
X7099Y2825D01*
X6993D01*
X6992Y2825D01*
Y2826D01*
X6950D01*
Y2777D01*
X6956D01*
X6959Y2774D01*
X6965Y2769D01*
X6973Y2766D01*
X6980Y2765D01*
X7099D01*
X7101Y2762D01*
X7108Y2753D01*
X7117Y2746D01*
X7127Y2740D01*
X7138Y2737D01*
X7140Y2736D01*
Y2795D01*
Y2854D01*
D02*
G37*
G36*
X7160D02*
Y2805D01*
X7209D01*
X7208Y2807D01*
X7205Y2818D01*
X7199Y2828D01*
X7192Y2837D01*
X7183Y2844D01*
X7173Y2850D01*
X7162Y2853D01*
X7160Y2854D01*
D02*
G37*
G36*
X7209Y2785D02*
X7160D01*
Y2736D01*
X7162Y2737D01*
X7173Y2740D01*
X7183Y2746D01*
X7192Y2753D01*
X7199Y2762D01*
X7205Y2772D01*
X7208Y2783D01*
X7209Y2785D01*
D02*
G37*
%LPD*%
D10*
X3968Y3465D02*
D03*
X3906D02*
D03*
X3968Y3406D02*
D03*
X3906D02*
D03*
X4934Y3995D02*
D03*
X4996D02*
D03*
X4934Y4275D02*
D03*
X4996D02*
D03*
X4934Y4555D02*
D03*
X4996D02*
D03*
X3449Y3895D02*
D03*
X3511D02*
D03*
X4224Y4460D02*
D03*
X4286D02*
D03*
X4036Y4665D02*
D03*
X3974D02*
D03*
X4036Y4610D02*
D03*
X3974D02*
D03*
Y4515D02*
D03*
X4036D02*
D03*
Y4380D02*
D03*
X3974D02*
D03*
X4036Y4330D02*
D03*
X3974D02*
D03*
Y4230D02*
D03*
X4036D02*
D03*
X4031Y4130D02*
D03*
X3969D02*
D03*
X4051Y4055D02*
D03*
X3989D02*
D03*
X3969Y3960D02*
D03*
X4031D02*
D03*
X4189Y3900D02*
D03*
X4251D02*
D03*
X4189Y4170D02*
D03*
X4251D02*
D03*
X4384Y4560D02*
D03*
X4446D02*
D03*
X4394Y4005D02*
D03*
X4456D02*
D03*
X4389Y4285D02*
D03*
X4451D02*
D03*
X3334Y3545D02*
D03*
X3396D02*
D03*
X3464Y3385D02*
D03*
X3526D02*
D03*
D11*
X3245Y3001D02*
D03*
Y3135D02*
D03*
X5556Y5950D02*
D03*
Y5816D02*
D03*
X5478Y5950D02*
D03*
Y5816D02*
D03*
X5470Y5743D02*
D03*
Y5609D02*
D03*
X3795Y2930D02*
D03*
Y3064D02*
D03*
X6530Y3015D02*
D03*
Y2881D02*
D03*
X4360Y5970D02*
D03*
Y5836D02*
D03*
X4290Y5759D02*
D03*
Y5625D02*
D03*
Y5969D02*
D03*
Y5835D02*
D03*
D12*
X6964Y5300D02*
D03*
X6830D02*
D03*
X3469Y4360D02*
D03*
X3335D02*
D03*
X6469Y2810D02*
D03*
X6335D02*
D03*
X3509Y4805D02*
D03*
X3375D02*
D03*
X3509Y4720D02*
D03*
X3375D02*
D03*
X3509Y4635D02*
D03*
X3375D02*
D03*
X3509Y4550D02*
D03*
X3375D02*
D03*
X6006Y5250D02*
D03*
X6140D02*
D03*
X5765D02*
D03*
X5899D02*
D03*
X5766Y5170D02*
D03*
X5900D02*
D03*
X7170Y5210D02*
D03*
X7036D02*
D03*
X7169Y5300D02*
D03*
X7035D02*
D03*
X7441Y4465D02*
D03*
X7575D02*
D03*
X7441Y4370D02*
D03*
X7575D02*
D03*
X7441Y4270D02*
D03*
X7575D02*
D03*
X7441Y4175D02*
D03*
X7575D02*
D03*
X3330Y4050D02*
D03*
X3464D02*
D03*
X3330Y4155D02*
D03*
X3464D02*
D03*
X3330Y4255D02*
D03*
X3464D02*
D03*
X3385Y3315D02*
D03*
X3519D02*
D03*
X3385Y3240D02*
D03*
X3519D02*
D03*
D13*
X3664Y3446D02*
D03*
Y3496D02*
D03*
Y3546D02*
D03*
Y3595D02*
D03*
X3460Y3596D02*
D03*
Y3546D02*
D03*
Y3496D02*
D03*
Y3446D02*
D03*
X3664Y3671D02*
D03*
Y3721D02*
D03*
Y3771D02*
D03*
Y3820D02*
D03*
X3460Y3821D02*
D03*
Y3771D02*
D03*
Y3721D02*
D03*
Y3671D02*
D03*
X4874Y3946D02*
D03*
Y3996D02*
D03*
Y4046D02*
D03*
Y4095D02*
D03*
X4670Y4096D02*
D03*
Y4046D02*
D03*
Y3996D02*
D03*
Y3946D02*
D03*
X4874Y4226D02*
D03*
Y4276D02*
D03*
Y4326D02*
D03*
Y4375D02*
D03*
X4670Y4376D02*
D03*
Y4326D02*
D03*
Y4276D02*
D03*
Y4226D02*
D03*
X4874Y4506D02*
D03*
Y4556D02*
D03*
Y4606D02*
D03*
Y4655D02*
D03*
X4670Y4656D02*
D03*
Y4606D02*
D03*
Y4556D02*
D03*
Y4506D02*
D03*
X4120Y4286D02*
D03*
Y4236D02*
D03*
Y4336D02*
D03*
Y4386D02*
D03*
X4324Y4336D02*
D03*
Y4385D02*
D03*
Y4236D02*
D03*
Y4286D02*
D03*
X4120Y4561D02*
D03*
Y4511D02*
D03*
Y4611D02*
D03*
Y4661D02*
D03*
X4324Y4611D02*
D03*
Y4660D02*
D03*
Y4511D02*
D03*
Y4561D02*
D03*
X4120Y4006D02*
D03*
Y3956D02*
D03*
Y4056D02*
D03*
Y4106D02*
D03*
X4324Y4056D02*
D03*
Y4105D02*
D03*
Y3956D02*
D03*
Y4006D02*
D03*
D14*
X3755Y3719D02*
D03*
Y3781D02*
D03*
X3390Y3726D02*
D03*
Y3664D02*
D03*
X3400Y3449D02*
D03*
Y3511D02*
D03*
D15*
X5695Y3315D02*
D03*
Y3145D02*
D03*
X5495Y3315D02*
D03*
Y3145D02*
D03*
X5300Y3310D02*
D03*
Y3140D02*
D03*
X4065Y3155D02*
D03*
Y3325D02*
D03*
X6940Y2835D02*
D03*
Y3005D02*
D03*
X7395Y3870D02*
D03*
Y4040D02*
D03*
X7205Y3870D02*
D03*
Y4040D02*
D03*
X7015Y3870D02*
D03*
Y4040D02*
D03*
X6825Y3870D02*
D03*
Y4040D02*
D03*
X3600Y4135D02*
D03*
Y4305D02*
D03*
X3770Y4135D02*
D03*
Y4305D02*
D03*
D16*
X3245Y5410D02*
D03*
X3415D02*
D03*
X3250Y5610D02*
D03*
X3420D02*
D03*
D17*
X5508Y5472D02*
X5555Y5425D01*
X5492Y5472D02*
X5508D01*
X5448Y5428D02*
X5492Y5472D01*
X6242Y5263D02*
X6604D01*
X6190Y5315D02*
X6242Y5263D01*
X6604D02*
X6621Y5280D01*
X5055Y3756D02*
X5480Y4182D01*
X5544D01*
X3962Y3400D02*
X3968Y3406D01*
X3962Y3307D02*
Y3400D01*
X5055Y3235D02*
Y3756D01*
X5544Y4182D02*
X5677Y4315D01*
X3359Y3385D02*
X3464D01*
X3311Y3433D02*
X3359Y3385D01*
X3250Y3440D02*
X3385Y3305D01*
X3511Y3874D02*
Y3895D01*
X4224Y4480D02*
X4237Y4492D01*
X4075Y4236D02*
X4120D01*
X4042D02*
X4075D01*
X4070Y4511D02*
X4120D01*
X4040D02*
X4070D01*
X4905Y5010D02*
Y5065D01*
X5031Y5185D02*
X5090D01*
X5027Y5189D02*
X5031Y5185D01*
X3889Y5189D02*
X5027D01*
X4119Y4610D02*
X4120Y4611D01*
X4036Y4610D02*
X4119D01*
Y4055D02*
X4120Y4056D01*
X4774Y4046D02*
X4874D01*
X4724Y4096D02*
X4774Y4046D01*
X4670Y4096D02*
X4724D01*
X4874Y3996D02*
X4875Y3995D01*
X4934D01*
X4451Y4246D02*
Y4285D01*
X4375Y4170D02*
X4451Y4246D01*
X4251Y4170D02*
X4375D01*
X4446Y4516D02*
Y4560D01*
X4375Y4445D02*
X4446Y4516D01*
X4290Y4445D02*
X4375D01*
X4456Y3961D02*
Y4005D01*
X4395Y3900D02*
X4456Y3961D01*
X4251Y3900D02*
X4395D01*
X4874Y4276D02*
X4875Y4275D01*
X4934D01*
X4874Y4556D02*
X4875Y4555D01*
X4934D01*
X4804Y4606D02*
X4874D01*
X4036Y4515D02*
X4040Y4511D01*
X4383Y4561D02*
X4384Y4560D01*
X4324Y4561D02*
X4383D01*
X4036Y4665D02*
X4210D01*
X4264Y4611D02*
X4324D01*
X4210Y4665D02*
X4264Y4611D01*
X4036Y4230D02*
X4042Y4236D01*
X4388Y4286D02*
X4389Y4285D01*
X4324Y4286D02*
X4388D01*
X4036Y4380D02*
X4042Y4386D01*
X4120D01*
X4393Y4006D02*
X4394Y4005D01*
X4324Y4006D02*
X4393D01*
X4035Y3956D02*
X4120D01*
X4111Y4115D02*
X4120Y4106D01*
X5505Y3010D02*
Y3015D01*
X5635Y3145D01*
X5695D01*
X3395Y3721D02*
X3460D01*
X3390Y3726D02*
X3395Y3721D01*
X3396Y3511D02*
Y3545D01*
X3397Y3546D01*
X3460D01*
X3255Y3545D02*
X3334D01*
X3250Y3550D02*
X3255Y3545D01*
X3250Y3350D02*
X3259D01*
X3330Y3279D01*
Y3230D02*
Y3279D01*
Y3230D02*
X3375D01*
X3385Y3240D01*
X3526Y3385D02*
Y3436D01*
X3664Y3721D02*
X3753D01*
X3755Y3719D01*
X3250Y3650D02*
X3270D01*
X3340Y3720D01*
Y3760D01*
X3351Y3771D01*
X3460D01*
X3964Y3955D02*
X3969Y3960D01*
X5098Y4627D02*
X5149D01*
X3519Y3315D02*
X3597Y3393D01*
X3570Y3240D02*
X3595Y3265D01*
Y3320D01*
X3635Y3360D01*
X3597Y3393D02*
X3830D01*
X3635Y3360D02*
X3900D01*
X3519Y3240D02*
X3570D01*
X3460Y3546D02*
X3506D01*
X3311Y3522D02*
X3334Y3545D01*
X3311Y3433D02*
Y3522D01*
X3970Y3725D02*
Y3790D01*
X3905Y3955D02*
X3964D01*
X3905D02*
Y4035D01*
X4036Y4330D02*
X4114D01*
X4120Y4336D01*
X5485Y3145D02*
X5495D01*
X5405Y3225D02*
X5485Y3145D01*
X3460Y3496D02*
X3531D01*
X3506Y3546D02*
X3530Y3570D01*
X3531Y3496D02*
X3577Y3542D01*
X3526Y3436D02*
X3586Y3496D01*
X3664D01*
X3577Y3570D02*
X3582Y3576D01*
X3577Y3542D02*
Y3570D01*
X3540Y3690D02*
Y3845D01*
X3511Y3874D02*
X3540Y3845D01*
X3460Y3721D02*
X3510D01*
X3577Y3654D01*
Y3570D02*
Y3654D01*
X5149Y4627D02*
X5207Y4569D01*
X3972Y4546D02*
Y4552D01*
X3939Y4585D02*
X3972Y4552D01*
X4051Y4055D02*
X4119D01*
X4324Y4056D02*
X4376D01*
X5207Y4072D02*
Y4569D01*
X5220Y3225D02*
X5405D01*
X5205Y3240D02*
X5220Y3225D01*
X5205Y3240D02*
Y3750D01*
X5360Y3905D01*
X5420D01*
X3949Y4135D02*
X3969Y4115D01*
X3928Y4135D02*
X3949D01*
X3905Y4035D02*
Y4112D01*
X3928Y4135D01*
X3979Y4182D02*
X4031Y4130D01*
X3940Y4182D02*
X3979D01*
X3920Y4550D02*
X3938Y4532D01*
X3958D01*
X3972Y4546D01*
X3858Y3902D02*
X3970Y3790D01*
X3920Y4380D02*
X3974D01*
X3910Y4370D02*
X3920Y4380D01*
X4031Y4115D02*
X4111D01*
X6640Y5690D02*
X6655D01*
X6584Y5746D02*
X6640Y5690D01*
X6554Y5746D02*
X6584D01*
X6554D02*
Y5749D01*
X6640Y5835D01*
Y5925D01*
X6619Y5946D02*
X6640Y5925D01*
X3912Y5142D02*
X5008D01*
X4875Y5095D02*
X4905Y5065D01*
X3930Y5095D02*
X4875D01*
X3939Y4585D02*
Y4664D01*
X3940Y4665D01*
X3974D01*
X4237Y4492D02*
Y4579D01*
X4120Y4611D02*
X4205D01*
X4237Y4579D01*
X4324Y4611D02*
X4328Y4615D01*
X4754Y4656D02*
X4775Y4635D01*
X4804Y4606D01*
X4685Y4656D02*
X4754D01*
X4599Y4376D02*
X4670D01*
X4303Y4056D02*
X4324D01*
X4208Y4047D02*
X4225Y4030D01*
X4120Y4106D02*
X4253D01*
X4303Y4056D01*
X4120D02*
X4177D01*
X4138Y3988D02*
X4158D01*
X4120Y4006D02*
X4138Y3988D01*
X4171Y3975D02*
X4185D01*
X4158Y3988D02*
X4171Y3975D01*
X4189Y3900D02*
X4232Y3942D01*
Y4002D01*
X3971Y4445D02*
X4036Y4380D01*
X3858Y3902D02*
Y4454D01*
X3865Y4461D01*
Y4651D01*
X3914Y4290D02*
X3974Y4230D01*
X3910Y4290D02*
X3914D01*
X3910D02*
Y4370D01*
X3950Y4445D02*
X3971D01*
X4232Y4212D02*
Y4299D01*
X4189Y4170D02*
X4232Y4212D01*
X4179Y4286D02*
X4185Y4280D01*
X4120Y4286D02*
X4179D01*
X4192Y4042D02*
X4232Y4002D01*
X4208Y4047D02*
Y4059D01*
X4120Y4336D02*
X4129Y4345D01*
X4195D01*
Y4336D02*
X4232Y4299D01*
X4195Y4336D02*
Y4345D01*
X4270Y4336D02*
X4324D01*
X4120Y4386D02*
X4126Y4392D01*
X4670Y4376D02*
X4744D01*
X4794Y4326D02*
X4874D01*
X4744Y4376D02*
X4794Y4326D01*
X4632Y4258D02*
X4652D01*
X4670Y4276D01*
X4575Y4210D02*
X4584D01*
X4632Y4258D01*
X4120Y4561D02*
X4189D01*
X4190Y4560D01*
X5202Y4056D02*
Y4067D01*
X5207Y4072D01*
X5159Y4013D02*
X5202Y4056D01*
X3830Y3393D02*
X4144Y3708D01*
X4328Y4615D02*
X4385D01*
X4666Y4560D02*
X4670Y4556D01*
X4451Y4285D02*
X4481Y4315D01*
X4126Y4392D02*
X4214D01*
X4270Y4336D01*
X4200Y4464D02*
Y4475D01*
Y4464D02*
X4214Y4450D01*
X4224Y4460D01*
Y4480D01*
X4775Y4350D02*
Y4504D01*
X4802Y4531D01*
Y4569D01*
X4775Y4596D02*
X4802Y4569D01*
X4775Y4596D02*
Y4635D01*
X4651Y4545D02*
X4666Y4560D01*
X4595Y4545D02*
X4651D01*
X6735Y5210D02*
X7036D01*
X6665Y5280D02*
X6735Y5210D01*
X6621Y5280D02*
X6665D01*
X5835Y5310D02*
X5895Y5370D01*
X5835Y5085D02*
Y5310D01*
Y5085D02*
X5905Y5015D01*
Y5010D02*
Y5015D01*
X4549Y5250D02*
X4715D01*
X3821Y5243D02*
X4542D01*
X4549Y5250D01*
X3920Y5085D02*
X3930Y5095D01*
X3869Y4797D02*
Y5099D01*
X3912Y5142D01*
X3825Y4736D02*
Y5125D01*
X3889Y5189D01*
X3790Y4726D02*
X3865Y4651D01*
X3790Y4726D02*
Y5212D01*
X3821Y5243D01*
X5090Y5185D02*
X5110Y5205D01*
X3825Y4736D02*
X3859Y4702D01*
X3869Y4797D02*
X3932Y4733D01*
X3920Y4800D02*
Y5085D01*
Y4800D02*
X3955Y4765D01*
X5010Y4715D02*
X5098Y4627D01*
X4481Y4315D02*
Y4594D01*
X4446Y4560D02*
Y4584D01*
X4432Y4598D02*
X4446Y4584D01*
X4432Y4598D02*
Y4634D01*
X4463Y4611D02*
X4481Y4594D01*
X4498Y4627D02*
X4512Y4613D01*
X4498Y4627D02*
Y4684D01*
X4396Y4733D02*
X4463Y4666D01*
X3932Y4733D02*
X4396D01*
X4463Y4611D02*
Y4666D01*
X3859Y4702D02*
X4364D01*
X4432Y4634D01*
X4417Y4765D02*
X4498Y4684D01*
X3955Y4765D02*
X4417D01*
X4512Y4242D02*
Y4613D01*
X4456Y4186D02*
X4512Y4242D01*
X4376Y4056D02*
X4400Y4080D01*
X4415D01*
X4456Y4005D02*
Y4055D01*
X4462Y4061D01*
Y4099D01*
X4456Y4105D02*
X4462Y4099D01*
X4456Y4105D02*
Y4186D01*
X4664Y4090D02*
X4670Y4096D01*
X4510Y4090D02*
X4664D01*
X4632Y3978D02*
X4652D01*
X4670Y3996D01*
X4520Y3945D02*
X4599D01*
X4632Y3978D01*
X5420Y3905D02*
X5540Y4025D01*
Y4115D01*
X5159Y3987D02*
Y4013D01*
X5071Y3900D02*
X5159Y3987D01*
X5071Y3890D02*
Y3900D01*
X4890Y3708D02*
X5071Y3890D01*
X4144Y3708D02*
X4890D01*
X4840Y5415D02*
X4935D01*
X5035Y5315D01*
X5410D01*
X5443Y5348D01*
Y5412D01*
X5448Y5417D01*
Y5428D01*
X5188Y4646D02*
X6692D01*
X5213Y4697D02*
X6738D01*
X5290Y4750D02*
X6800D01*
X5978Y3619D02*
Y3714D01*
X5609Y5894D02*
Y6119D01*
X3900Y3399D02*
X3906Y3406D01*
X3900Y3360D02*
Y3399D01*
X3968Y3406D02*
Y3465D01*
D18*
X5695Y3315D02*
X5827D01*
X5832Y3310D01*
X5757Y3464D02*
X6012Y3210D01*
X5575Y3464D02*
X5757D01*
X6012Y3210D02*
X6570D01*
X3400Y3434D02*
X3448D01*
X7173Y3714D02*
X7178D01*
X5877Y4520D02*
X5879Y4518D01*
X5300Y3310D02*
X5690D01*
X4065Y3450D02*
X4150Y3535D01*
X7675Y3964D02*
Y4070D01*
X7338Y3627D02*
X7675Y3964D01*
X7338Y3538D02*
Y3627D01*
X7038Y3238D02*
X7338Y3538D01*
X7038Y3229D02*
Y3238D01*
X6954Y3145D02*
X7038Y3229D01*
X6945Y3145D02*
X6954D01*
X6815Y3015D02*
X6945Y3145D01*
X6765Y3015D02*
X6815D01*
X5378Y4421D02*
X5477Y4520D01*
X5378Y4409D02*
Y4421D01*
X5377Y4408D02*
X5378Y4409D01*
X5377Y4315D02*
Y4408D01*
X6778Y6230D02*
X6821D01*
X3448Y3434D02*
X3460Y3446D01*
X5305Y2910D02*
Y3010D01*
X5005Y4815D02*
Y4910D01*
X5205Y4835D02*
Y4910D01*
X7075Y4417D02*
Y4475D01*
Y4417D02*
X7078Y4414D01*
X5105Y4805D02*
Y4910D01*
X6978Y4414D02*
Y4457D01*
X6851Y4441D02*
Y4487D01*
Y4441D02*
X6878Y4414D01*
X7170Y5210D02*
Y5299D01*
X5470Y5819D02*
X5554D01*
X3225Y4055D02*
X3230Y4050D01*
X3330D01*
X3225Y4155D02*
X3330D01*
X3225Y4255D02*
X3330D01*
X3225Y4355D02*
X3230Y4360D01*
X3335D01*
X3230Y4595D02*
X3270D01*
X3315Y4550D01*
X3375D01*
X3230Y4695D02*
X3259Y4666D01*
X3290D01*
X3321Y4635D01*
X3375D01*
X3230Y4795D02*
X3260D01*
X3335Y4720D01*
X3375D01*
X3230Y4895D02*
X3290D01*
X3375Y4810D01*
Y4805D02*
Y4810D01*
X3890Y2795D02*
X5375D01*
X4005Y2910D02*
Y3010D01*
X3890Y2795D02*
X4005Y2910D01*
X3800Y2795D02*
X3890D01*
X5375D02*
X5575D01*
X3795Y2800D02*
Y2930D01*
Y2800D02*
X3800Y2795D01*
X5575D02*
X5635Y2735D01*
X6405D01*
X6765Y2880D02*
X6810Y2835D01*
X6940D01*
X6980Y2795D01*
X7150D01*
X6665Y2950D02*
X6730Y3015D01*
X6665Y2880D02*
Y2950D01*
X6405Y2910D02*
Y3010D01*
X6410Y3015D01*
X6530D01*
X6664Y2881D02*
X6665Y2880D01*
X6530Y2881D02*
X6664D01*
X6459Y2810D02*
X6530Y2881D01*
X6310Y2810D02*
Y3005D01*
X6305Y3010D02*
X6310Y3005D01*
X7395Y4040D02*
Y4129D01*
X7441Y4175D01*
X7205Y4040D02*
X7225D01*
X7345Y4160D01*
Y4220D01*
X7395Y4270D01*
X7441D01*
X7015Y4040D02*
X7090D01*
X7110Y4060D01*
Y4125D01*
X7145Y4160D01*
X7230D01*
X7294Y4224D01*
Y4241D01*
X7423Y4370D01*
X7441D01*
X6825Y4040D02*
X6840D01*
X6945Y4145D01*
X7030D01*
X7125Y4240D01*
X7208D01*
X7252Y4284D01*
Y4292D01*
X7425Y4465D01*
X7441D01*
X6005Y4910D02*
X6010Y4905D01*
X6006Y5165D02*
Y5250D01*
Y5011D02*
Y5165D01*
X6005Y5010D02*
X6006Y5011D01*
X5900Y5170D02*
X6001D01*
X6006Y5165D01*
X5900Y5170D02*
Y5249D01*
X5305Y3010D02*
Y3135D01*
X5300Y3140D02*
X5305Y3135D01*
X3453Y3664D02*
X3460Y3671D01*
X3245Y3135D02*
Y3245D01*
X3250Y3250D01*
X3795Y3064D02*
Y3065D01*
X3668Y3193D02*
X3795Y3065D01*
X5005Y5140D02*
X5008Y5142D01*
X5005Y5010D02*
Y5140D01*
X5877Y4520D02*
Y4563D01*
X5845Y4595D02*
X5877Y4563D01*
X5365Y4595D02*
X5845D01*
X5278Y4508D02*
X5365Y4595D01*
X5277Y4315D02*
X5278Y4316D01*
Y4409D01*
Y4508D01*
X4996Y4555D02*
Y4629D01*
X3250Y3750D02*
Y3765D01*
X3306Y3821D01*
X3460D01*
X3449Y3832D02*
X3460Y3821D01*
X3449Y3832D02*
Y3895D01*
X3410Y3664D02*
X3453D01*
X3230Y4995D02*
Y5295D01*
X3245Y5310D01*
Y5410D01*
X3400Y4255D02*
X3464D01*
X3395Y3955D02*
X3444D01*
X6570Y3210D02*
X6765Y3015D01*
X6730D02*
X6765D01*
X3449Y3895D02*
Y3955D01*
Y4035D01*
X3604Y6040D02*
X3629Y6015D01*
X3865D01*
X3900Y5980D01*
X3647Y5748D02*
X3725Y5670D01*
X6147Y5843D02*
X6188D01*
X5855Y6135D02*
X6147Y5843D01*
X5625Y6135D02*
X5855D01*
X6594Y6046D02*
X6778Y6230D01*
X6554Y6046D02*
X6594D01*
X3668Y3193D02*
X3933D01*
X4065Y3325D01*
Y3140D02*
Y3155D01*
X4005Y3080D02*
X4065Y3140D01*
X4005Y3010D02*
Y3080D01*
X5477Y4284D02*
Y4315D01*
Y4413D01*
X5478Y4414D01*
X3471Y6316D02*
Y6365D01*
X3245Y6090D02*
X3471Y6316D01*
X3245Y5410D02*
Y6090D01*
X3600Y4305D02*
X3630D01*
X3685Y4360D01*
X3509Y4550D02*
X3564Y4495D01*
X4150Y3535D02*
X4975D01*
X3564Y4495D02*
X3625D01*
X3685Y4360D02*
Y4435D01*
X3625Y4495D02*
X3685Y4435D01*
X6205Y3010D02*
X6230Y3035D01*
Y3076D01*
X6265Y3111D01*
Y3120D01*
X7177Y3715D02*
Y3842D01*
X7205Y3870D01*
X7395D01*
X6825D02*
X7015D01*
X7205D01*
X7077Y3715D02*
X7177D01*
X7178Y3714D01*
X7173Y3624D02*
Y3714D01*
X7083Y3624D02*
X7173D01*
X7078Y3619D02*
X7083Y3624D01*
X5766Y5170D02*
Y5249D01*
X5765Y5250D02*
X5766Y5249D01*
X4265Y5625D02*
X4290D01*
X4241Y5649D02*
X4265Y5625D01*
X4190Y5649D02*
X4241D01*
X4290Y5759D02*
Y5835D01*
X4291Y5836D01*
X4360D01*
X4291Y5970D02*
X4360D01*
X4190Y5949D02*
X4270D01*
X4290Y5969D01*
X4291Y5970D01*
X3600Y4135D02*
Y4155D01*
X3500Y4255D02*
X3600Y4155D01*
X3464Y4255D02*
X3500D01*
X6419Y6060D02*
X6425D01*
X6455Y6030D01*
Y5490D02*
Y6030D01*
Y5490D02*
X6499Y5446D01*
X6554D01*
X6854Y5946D02*
Y6046D01*
X6554Y5946D02*
X6619D01*
X6784Y5746D02*
X6854D01*
X6725Y5805D02*
X6784Y5746D01*
X6725Y5805D02*
Y5946D01*
X6619D02*
X6725D01*
X6854D01*
X6975Y5608D02*
X7058Y5525D01*
X6975Y5608D02*
Y5690D01*
X6919Y5746D02*
X6975Y5690D01*
X6854Y5746D02*
X6919D01*
X5383Y5844D02*
X5389D01*
X5427Y5882D01*
X5597D01*
X5478Y5950D02*
X5545D01*
X5389D02*
X5478D01*
X5435Y5644D02*
X5470Y5609D01*
X5383Y5644D02*
X5435D01*
X5025Y5710D02*
Y5748D01*
X3900Y5560D02*
Y5980D01*
X4016Y5444D02*
X4195D01*
X3900Y5560D02*
X4016Y5444D01*
X6959Y5300D02*
X7035D01*
Y5224D02*
Y5300D01*
X7169D02*
Y5461D01*
X7105Y5525D02*
X7169Y5461D01*
X7058Y5525D02*
X7105D01*
X6765Y5300D02*
X6830D01*
X6730Y5335D02*
X6765Y5300D01*
X4290Y5759D02*
X4346D01*
X4375Y5730D01*
X5243Y4039D02*
Y4050D01*
X5477Y4284D01*
X5200Y3970D02*
Y3996D01*
X5243Y4039D01*
X5117Y4037D02*
X5155Y4075D01*
X5117Y4005D02*
Y4037D01*
X4848Y3768D02*
X4880D01*
X4835Y3755D02*
X4848Y3768D01*
X4800Y3755D02*
X4835D01*
X6360Y3320D02*
X6478Y3438D01*
Y3519D01*
X6360Y3320D02*
X6775D01*
X6878Y3423D01*
Y3504D01*
X6778D02*
Y3519D01*
X6751Y3546D02*
X6778Y3519D01*
X6748Y3546D02*
X6751D01*
X6678Y3616D02*
X6748Y3546D01*
X6678Y3616D02*
Y3619D01*
X5732Y5108D02*
X5760Y5080D01*
X5722Y5108D02*
X5732D01*
X5478Y5743D02*
X5600Y5621D01*
X5478Y5743D02*
Y5816D01*
Y5743D02*
X5554Y5819D01*
X4614Y4606D02*
X4670D01*
Y4326D02*
X4714D01*
X4750Y4290D01*
X6959Y5300D02*
X7035Y5224D01*
X7675Y4070D02*
X7735D01*
X7755Y4090D01*
X6580Y4930D02*
X6810D01*
X6825Y4945D01*
X7110Y4970D02*
Y5035D01*
X7105Y5040D02*
X7110Y5035D01*
X4689Y5374D02*
X5025Y5710D01*
X3879Y5374D02*
X4689D01*
X3855Y5350D02*
X3879Y5374D01*
X3725Y5445D02*
Y5670D01*
Y5445D02*
X3820Y5350D01*
X3855D01*
X5105Y5010D02*
X5110Y5015D01*
Y5205D01*
X6645Y4220D02*
X6825Y4040D01*
X6477Y3715D02*
Y4067D01*
X6484Y4074D01*
X5785Y4220D02*
X6645D01*
X5690Y4125D02*
X5785Y4220D01*
X4996Y4275D02*
X5055Y4334D01*
Y4550D01*
X4954Y4671D02*
X4996Y4629D01*
X4954Y4671D02*
Y4764D01*
X5005Y4815D01*
X4560Y4660D02*
X4614Y4606D01*
X4545Y4660D02*
X4560D01*
X4880Y3768D02*
X4973Y3860D01*
X4983D01*
X5030Y3907D01*
Y3917D01*
X5117Y4005D01*
X5017Y3777D02*
X5113Y3873D01*
Y3883D01*
X5200Y3970D01*
X4975Y3535D02*
Y3735D01*
X5017Y3777D01*
X5017D01*
X5120Y4250D02*
Y4535D01*
X4996Y3995D02*
Y4125D01*
X5120Y4250D01*
X7441Y4270D02*
X7465D01*
X7510Y4315D01*
Y4545D01*
X7295D02*
X7510D01*
X7110Y4970D02*
X7439Y4641D01*
X7704D01*
X7755Y4590D01*
Y4090D02*
Y4590D01*
X6995Y4845D02*
X7295Y4545D01*
X5405Y5010D02*
Y5016D01*
X5330Y5091D02*
X5405Y5016D01*
X5330Y5091D02*
Y5250D01*
X5685Y5145D02*
X5722Y5108D01*
X5600Y5395D02*
Y5621D01*
Y5395D02*
X5685Y5310D01*
Y5145D02*
Y5310D01*
X5005Y4815D02*
X5152Y4668D01*
X5166D01*
X5188Y4646D01*
X6692D02*
X6851Y4487D01*
X5105Y4805D02*
X5213Y4697D01*
X6738D02*
X6978Y4457D01*
X6800Y4750D02*
X7075Y4475D01*
X5205Y4835D02*
X5290Y4750D01*
X6578Y3619D02*
Y3714D01*
X6577Y3715D02*
X6578Y3714D01*
X6078Y3619D02*
Y3714D01*
X5977Y3715D02*
X5978Y3714D01*
X6078D01*
X5609Y6119D02*
X5625Y6135D01*
X5597Y5882D02*
X5609Y5894D01*
D19*
X3360Y3610D02*
X3410Y3660D01*
X5440Y4060D02*
Y4075D01*
X5140Y3760D02*
X5440Y4060D01*
X7245Y5635D02*
X7457Y5847D01*
X7245Y5120D02*
Y5635D01*
X3360Y3135D02*
X3410Y3185D01*
X3245Y3020D02*
X3360Y3135D01*
Y3170D01*
X3355D02*
X3360D01*
X3410Y3185D02*
X3660D01*
X3819Y3781D02*
X3820Y3780D01*
X3755Y3781D02*
X3819D01*
X5455Y3105D02*
X5495Y3145D01*
X5455Y2955D02*
Y3105D01*
Y2955D02*
X5500Y2910D01*
X5505D01*
X5205Y3140D02*
X5300D01*
X5140Y3205D02*
X5205Y3140D01*
X3245Y3001D02*
Y3020D01*
X3660Y3185D02*
X3668Y3193D01*
X3410Y3660D02*
Y3664D01*
X5345Y4835D02*
X5530D01*
X5605Y4910D01*
X6110Y5306D02*
Y5320D01*
Y5015D02*
Y5184D01*
X6105Y5010D02*
X6110Y5015D01*
X3509Y4635D02*
X3525D01*
X3420Y5570D02*
Y5610D01*
X3425Y5400D02*
X3505D01*
X3415Y5410D02*
X3425Y5400D01*
X6105Y4875D02*
Y4910D01*
X3464Y4146D02*
X3690Y3920D01*
X3464Y4146D02*
Y4155D01*
X6085Y5209D02*
X6110Y5184D01*
X6085Y5209D02*
Y5281D01*
X6110Y5306D01*
X6005Y4910D02*
X6055Y4960D01*
Y5190D01*
X6060Y5195D01*
Y5350D01*
X6080D01*
X6092Y5363D01*
X4040Y3670D02*
X4175Y3805D01*
X3895Y3740D02*
X3965Y3670D01*
X4040D01*
X5140Y3205D02*
Y3760D01*
X6270Y5120D02*
X7245D01*
X3895Y3740D02*
Y3785D01*
X3690Y3920D02*
X3760D01*
X3895Y3785D01*
X4867Y5293D02*
X4895Y5265D01*
X3805Y4645D02*
X3838Y4612D01*
X3525Y4635D02*
X3580Y4580D01*
X3625D01*
X3825Y4460D02*
X3838Y4472D01*
Y4612D01*
X3469Y4360D02*
X3514Y4405D01*
X3610D01*
X4175Y3805D02*
X4865D01*
X5758Y4957D02*
X5805Y4910D01*
X5758Y4957D02*
Y5032D01*
X5760Y5034D01*
Y5080D01*
X4870Y4740D02*
X4875Y4735D01*
X4600Y4740D02*
X4870D01*
X6655Y5765D02*
X6710Y5710D01*
Y5520D02*
Y5710D01*
X6622Y5428D02*
Y5433D01*
X6710Y5520D01*
X6092Y5363D02*
X6557D01*
X6622Y5428D01*
X6140Y5250D02*
X6270Y5120D01*
X4553Y5293D02*
X4867D01*
X3786Y5270D02*
X4531D01*
X4553Y5293D01*
X3768Y5252D02*
X3786Y5270D01*
X3509Y4805D02*
X3565D01*
X3420Y5570D02*
X3620Y5370D01*
X3720D01*
X3755Y5239D02*
X3760Y5244D01*
Y4935D02*
Y5280D01*
X3720Y5300D02*
Y5370D01*
X3655Y4830D02*
X3760Y4935D01*
Y5260D02*
X3768Y5252D01*
X3565Y4805D02*
X3720Y4960D01*
Y5260D01*
X3717Y5262D02*
X3720Y5260D01*
X3717Y5262D02*
Y5298D01*
X3720Y5300D01*
X3740Y4305D02*
X3783Y4347D01*
X3798D01*
X3825Y4375D01*
Y4460D01*
X3723Y4778D02*
X3762Y4738D01*
Y4688D02*
X3805Y4645D01*
X3762Y4688D02*
Y4738D01*
X3571Y4778D02*
X3723D01*
X3509Y4720D02*
X3513D01*
X3571Y4778D01*
X4865Y3805D02*
X4957Y3897D01*
X4968D01*
X4993Y3922D01*
Y3933D01*
X5075Y4015D01*
Y4125D01*
X6350Y4130D02*
X6545D01*
X6720Y3955D01*
X6965D01*
X7015Y4005D01*
Y4040D01*
X5490Y5335D02*
Y5390D01*
X5560Y5215D02*
Y5295D01*
Y5215D02*
X5705Y5070D01*
Y5010D02*
Y5070D01*
X5470Y5145D02*
X5605Y5010D01*
X5470Y5145D02*
Y5315D01*
X5490Y5335D01*
X5555Y5350D02*
Y5425D01*
X5517Y5313D02*
X5555Y5350D01*
X5517Y5198D02*
Y5313D01*
Y5198D02*
X5655Y5060D01*
Y4870D02*
Y5060D01*
Y4870D02*
X5695Y4830D01*
X6105Y4875D02*
X6155Y4825D01*
X6290D01*
X6965Y4815D02*
X6995Y4845D01*
X5695Y4830D02*
X5875D01*
X5923Y4782D01*
X6422D01*
X6455Y4815D01*
X6965D01*
D20*
X6580Y5315D02*
X6811Y5546D01*
X6452Y5315D02*
X6580D01*
X6815Y3015D02*
X6825Y3005D01*
X6940D01*
X4065Y3325D02*
Y3450D01*
X4035Y3956D02*
X4136Y3855D01*
X4031Y3960D02*
X4035Y3956D01*
X4136Y3855D02*
X4645D01*
X4670Y3880D01*
Y3946D01*
X4036Y4230D02*
Y4254D01*
X3974Y4316D02*
X4036Y4254D01*
X3974Y4316D02*
Y4330D01*
X4075Y4170D02*
Y4236D01*
X4670Y4170D02*
Y4226D01*
X4070Y4511D02*
X4075Y4506D01*
Y4445D02*
Y4506D01*
X4670Y4445D02*
Y4506D01*
X4036Y4515D02*
Y4539D01*
X3974Y4601D02*
X4036Y4539D01*
X3974Y4601D02*
Y4610D01*
X4031Y3960D02*
Y3984D01*
X3964Y4060D02*
X3969Y4055D01*
X3964Y4060D02*
Y4063D01*
X4075Y3855D02*
X4136D01*
X4035Y3815D02*
X4075Y3855D01*
X4035Y3725D02*
Y3815D01*
X3969Y4046D02*
Y4055D01*
Y4046D02*
X4031Y3984D01*
X6811Y5546D02*
X6854D01*
X4670Y4046D02*
X4714D01*
X3780Y4390D02*
Y4420D01*
X3670Y4530D02*
X3780Y4420D01*
X3955Y5315D02*
X4515D01*
X3705Y4565D02*
Y4735D01*
X3670Y4530D02*
X3705Y4565D01*
X4714Y4046D02*
X4760Y4000D01*
Y3900D02*
Y4000D01*
D21*
X7600Y6190D02*
X7625D01*
X7540D02*
X7600D01*
X7402Y5910D02*
Y6212D01*
X7460Y6270D02*
X7540Y6190D01*
X5197Y6548D02*
X5199Y6547D01*
X6573Y6548D02*
X6577Y6545D01*
X7402Y6212D02*
X7460Y6270D01*
X3341Y6546D02*
X3821D01*
X3271Y6476D02*
X3341Y6546D01*
X3271Y6365D02*
Y6476D01*
X4797Y6414D02*
Y6540D01*
X4805Y6548D01*
X3823D02*
X4805D01*
X5197D01*
X6165Y6424D02*
Y6548D01*
Y6424D02*
X6175Y6414D01*
X5200Y6548D02*
X6165D01*
X6573D01*
X6580D02*
X7327D01*
X7460Y6415D01*
Y6270D02*
Y6415D01*
D22*
X3821Y6546D02*
X3823Y6548D01*
X3821Y6360D02*
Y6546D01*
X5199Y6547D02*
X5200Y6548D01*
X5199Y6360D02*
Y6547D01*
X6577Y6545D02*
X6580Y6548D01*
X6577Y6358D02*
Y6545D01*
X3600Y4135D02*
X3770D01*
D23*
X6405Y2735D02*
Y2910D01*
Y2705D02*
Y2735D01*
X7575Y4175D02*
X7670D01*
X7575Y4270D02*
X7675D01*
X7575Y4370D02*
X7675D01*
X7575Y4465D02*
X7670D01*
X6649Y2675D02*
X6810Y2835D01*
X6435Y2675D02*
X6649D01*
X6405Y2705D02*
X6435Y2675D01*
D24*
X3616Y3546D02*
X3664D01*
X3612Y3550D02*
X3616Y3546D01*
X3612Y3550D02*
Y3668D01*
X3600Y3680D02*
X3612Y3668D01*
X3600Y3680D02*
Y3755D01*
X3616Y3771D02*
X3664D01*
X3585Y3955D02*
X3600Y3940D01*
X3444Y3955D02*
X3449D01*
X3585D01*
X3595Y3790D02*
X3600D01*
Y3940D01*
Y3755D02*
X3615Y3770D01*
X3504Y3640D02*
X3525D01*
X3460Y3596D02*
X3504Y3640D01*
D25*
X3855Y5390D02*
X3856Y5389D01*
D26*
X7457Y5415D02*
G03*
X7497Y5375I40J0D01*
G01*
D02*
G03*
X7537Y5415I0J40D01*
G01*
Y5965D02*
G03*
X7457Y5965I-40J0D01*
G01*
Y5808D02*
G03*
X7537Y5808I40J0D01*
G01*
Y5572D02*
G03*
X7457Y5572I-40J0D01*
G01*
D27*
X6665Y2880D02*
D03*
X6765D02*
D03*
X3668Y3193D02*
D03*
Y3293D02*
D03*
X4695Y5540D02*
D03*
Y5640D02*
D03*
X3816Y5548D02*
D03*
Y5648D02*
D03*
X3762Y5835D02*
D03*
Y5935D02*
D03*
X5887Y5627D02*
D03*
Y5727D02*
D03*
X5185Y5550D02*
D03*
Y5650D02*
D03*
X5186Y5832D02*
D03*
Y5932D02*
D03*
X7058Y5425D02*
D03*
Y5525D02*
D03*
X6365Y5548D02*
D03*
Y5648D02*
D03*
X6357Y5832D02*
D03*
Y5932D02*
D03*
X3230Y4695D02*
D03*
Y4895D02*
D03*
Y4795D02*
D03*
Y4595D02*
D03*
Y4995D02*
D03*
X7675Y4270D02*
D03*
Y4470D02*
D03*
Y4370D02*
D03*
Y4170D02*
D03*
Y4570D02*
D03*
X3250Y3450D02*
D03*
Y3650D02*
D03*
Y3750D02*
D03*
Y3350D02*
D03*
Y3550D02*
D03*
D28*
X3604Y6240D02*
D03*
Y6040D02*
D03*
X4990Y6264D02*
D03*
Y6064D02*
D03*
X6419Y6260D02*
D03*
Y6060D02*
D03*
X5978Y3504D02*
D03*
X6378Y3519D02*
D03*
X6078Y3504D02*
D03*
X6878D02*
D03*
X5878D02*
D03*
X4147Y6367D02*
D03*
X5525D02*
D03*
X6911D02*
D03*
X6278Y3519D02*
D03*
X5777Y4520D02*
D03*
X5677D02*
D03*
X5577D02*
D03*
X6478Y3519D02*
D03*
X5477Y4520D02*
D03*
X6778Y3504D02*
D03*
X5877Y4520D02*
D03*
X6678Y3504D02*
D03*
X4190Y5649D02*
D03*
Y5549D02*
D03*
Y5949D02*
D03*
Y5849D02*
D03*
X4490Y5549D02*
D03*
Y5649D02*
D03*
Y5849D02*
D03*
Y5949D02*
D03*
X4190Y5749D02*
D03*
Y5449D02*
D03*
Y6049D02*
D03*
X4490Y5449D02*
D03*
Y5749D02*
D03*
Y6049D02*
D03*
X5383Y5644D02*
D03*
Y5544D02*
D03*
Y5944D02*
D03*
Y5844D02*
D03*
X5683Y5544D02*
D03*
Y5644D02*
D03*
Y5844D02*
D03*
Y5944D02*
D03*
X5383Y5744D02*
D03*
Y5444D02*
D03*
Y6044D02*
D03*
X5683Y5444D02*
D03*
Y5744D02*
D03*
Y6044D02*
D03*
X6554Y5646D02*
D03*
Y5546D02*
D03*
Y5946D02*
D03*
Y5846D02*
D03*
X6854Y5546D02*
D03*
Y5646D02*
D03*
Y5846D02*
D03*
Y5946D02*
D03*
X6554Y5746D02*
D03*
Y5446D02*
D03*
Y6046D02*
D03*
X6854Y5446D02*
D03*
Y5746D02*
D03*
Y6046D02*
D03*
X3647Y5748D02*
D03*
Y5548D02*
D03*
X6188Y5728D02*
D03*
Y5528D02*
D03*
X4276Y6253D02*
D03*
X4076D02*
D03*
X5025Y5748D02*
D03*
Y5548D02*
D03*
X5615Y6253D02*
D03*
X5415D02*
D03*
X7006Y6235D02*
D03*
X6806D02*
D03*
X4797Y6214D02*
D03*
X7600Y6390D02*
D03*
X6130Y6225D02*
D03*
X3471Y6365D02*
D03*
D29*
X5575Y3464D02*
D03*
X7150D02*
D03*
X5575Y2795D02*
D03*
X7150D02*
D03*
X3800Y3464D02*
D03*
X5375D02*
D03*
X3800Y2795D02*
D03*
X5375D02*
D03*
D30*
X6577Y4315D02*
D03*
X6877D02*
D03*
X7177D02*
D03*
Y3715D02*
D03*
X6877D02*
D03*
X6577D02*
D03*
X5377Y4315D02*
D03*
X5677D02*
D03*
X5977D02*
D03*
X6277D02*
D03*
Y3715D02*
D03*
X5977D02*
D03*
X5677D02*
D03*
X5377D02*
D03*
X7077Y4315D02*
D03*
X6977D02*
D03*
Y3715D02*
D03*
X7077D02*
D03*
X6777Y4315D02*
D03*
X6677D02*
D03*
Y3715D02*
D03*
X6777D02*
D03*
X6477Y4315D02*
D03*
X6377D02*
D03*
Y3715D02*
D03*
X6477D02*
D03*
X6177Y4315D02*
D03*
X6077D02*
D03*
Y3715D02*
D03*
X6177D02*
D03*
X5877Y4315D02*
D03*
X5777D02*
D03*
Y3715D02*
D03*
X5877D02*
D03*
X5577Y4315D02*
D03*
X5477D02*
D03*
Y3715D02*
D03*
X5577D02*
D03*
X5277Y4315D02*
D03*
Y3715D02*
D03*
X6405Y5010D02*
D03*
Y4910D02*
D03*
X6305Y5010D02*
D03*
Y4910D02*
D03*
X6205Y5010D02*
D03*
Y4910D02*
D03*
X6105Y5010D02*
D03*
Y4910D02*
D03*
X6005Y5010D02*
D03*
Y4910D02*
D03*
X5905Y5010D02*
D03*
Y4910D02*
D03*
X5805Y5010D02*
D03*
Y4910D02*
D03*
X5705Y5010D02*
D03*
Y4910D02*
D03*
X5605Y5010D02*
D03*
Y4910D02*
D03*
X5505Y5010D02*
D03*
Y4910D02*
D03*
X5405Y5010D02*
D03*
Y4910D02*
D03*
X5305Y5010D02*
D03*
Y4910D02*
D03*
X5205Y5010D02*
D03*
Y4910D02*
D03*
X5105Y5010D02*
D03*
Y4910D02*
D03*
X5005Y5010D02*
D03*
Y4910D02*
D03*
X4905Y5010D02*
D03*
Y4910D02*
D03*
X4805Y5010D02*
D03*
Y4910D02*
D03*
X4705Y5010D02*
D03*
Y4910D02*
D03*
X4605Y5010D02*
D03*
Y4910D02*
D03*
X4505Y5010D02*
D03*
Y4910D02*
D03*
X4405Y5010D02*
D03*
Y4910D02*
D03*
X4305Y5010D02*
D03*
Y4910D02*
D03*
X4205Y5010D02*
D03*
Y4910D02*
D03*
X4105Y5010D02*
D03*
Y4910D02*
D03*
X4005Y5010D02*
D03*
Y4910D02*
D03*
X6405Y3010D02*
D03*
Y2910D02*
D03*
X6305Y3010D02*
D03*
Y2910D02*
D03*
X6205Y3010D02*
D03*
Y2910D02*
D03*
X6105Y3010D02*
D03*
Y2910D02*
D03*
X6005Y3010D02*
D03*
Y2910D02*
D03*
X5905Y3010D02*
D03*
Y2910D02*
D03*
X5805Y3010D02*
D03*
Y2910D02*
D03*
X5705Y3010D02*
D03*
Y2910D02*
D03*
X5605Y3010D02*
D03*
Y2910D02*
D03*
X5505Y3010D02*
D03*
Y2910D02*
D03*
X5405Y3010D02*
D03*
Y2910D02*
D03*
X5305Y3010D02*
D03*
Y2910D02*
D03*
X5205Y3010D02*
D03*
Y2910D02*
D03*
X5105Y3010D02*
D03*
Y2910D02*
D03*
X5005Y3010D02*
D03*
Y2910D02*
D03*
X4905Y3010D02*
D03*
Y2910D02*
D03*
X4805Y3010D02*
D03*
Y2910D02*
D03*
X4705Y3010D02*
D03*
Y2910D02*
D03*
X4605Y3010D02*
D03*
Y2910D02*
D03*
X4505Y3010D02*
D03*
Y2910D02*
D03*
X4405Y3010D02*
D03*
Y2910D02*
D03*
X4305Y3010D02*
D03*
Y2910D02*
D03*
X4205Y3010D02*
D03*
Y2910D02*
D03*
X4105Y3010D02*
D03*
Y2910D02*
D03*
X4005Y3010D02*
D03*
Y2910D02*
D03*
X7178Y4414D02*
D03*
X7078D02*
D03*
X6678D02*
D03*
X6578D02*
D03*
X6978D02*
D03*
X6878D02*
D03*
X6778D02*
D03*
X6078D02*
D03*
X6478D02*
D03*
X6378D02*
D03*
X6278D02*
D03*
X6178D02*
D03*
X5978D02*
D03*
X5878D02*
D03*
X5778D02*
D03*
X5678D02*
D03*
X5578D02*
D03*
X5478D02*
D03*
X5278Y4409D02*
D03*
X7178Y3619D02*
D03*
X7078D02*
D03*
X6978D02*
D03*
X6878D02*
D03*
X6778D02*
D03*
X6678D02*
D03*
X6578D02*
D03*
X6378D02*
D03*
X6278D02*
D03*
X6178D02*
D03*
X6078D02*
D03*
X5878D02*
D03*
X5778D02*
D03*
X5678D02*
D03*
X5578D02*
D03*
X5478D02*
D03*
X5378D02*
D03*
X5278D02*
D03*
X5378Y4409D02*
D03*
X6478Y3619D02*
D03*
X5978D02*
D03*
D31*
X7497Y5493D02*
D03*
Y5887D02*
D03*
D32*
X6655Y5690D02*
D03*
Y5765D02*
D03*
Y5615D02*
D03*
D33*
X7608Y3612D02*
D03*
Y4838D02*
D03*
D34*
X3509Y2969D02*
D03*
Y5095D02*
D03*
X7446Y2969D02*
D03*
Y5095D02*
D03*
D35*
X4319Y6360D02*
D03*
X4419D02*
D03*
X4519D02*
D03*
X5697D02*
D03*
X5797D02*
D03*
X5897D02*
D03*
X5099D02*
D03*
X5199D02*
D03*
X5299D02*
D03*
X6477Y6358D02*
D03*
X6577D02*
D03*
X6677D02*
D03*
X3721Y6360D02*
D03*
X3821D02*
D03*
X3921D02*
D03*
X7084Y6363D02*
D03*
X7184D02*
D03*
X7284D02*
D03*
X3223Y5217D02*
D03*
X5018Y5848D02*
D03*
X6188Y5843D02*
D03*
D36*
X4797Y6414D02*
D03*
X7600Y6190D02*
D03*
X6130Y6425D02*
D03*
D37*
X3230Y4495D02*
D03*
X7675Y4070D02*
D03*
X3250Y3250D02*
D03*
D38*
X3271Y6365D02*
D03*
D39*
X3225Y4155D02*
D03*
Y4055D02*
D03*
Y4355D02*
D03*
Y4255D02*
D03*
D40*
X5832Y3310D02*
D03*
X5440Y4075D02*
D03*
X6452Y5315D02*
D03*
X3962Y3307D02*
D03*
X4065Y3450D02*
D03*
X3360D02*
D03*
X3355Y3170D02*
D03*
X3820Y3780D02*
D03*
X5055Y3235D02*
D03*
X4075Y4170D02*
D03*
X4670D02*
D03*
X4075Y4445D02*
D03*
X4670D02*
D03*
X5008Y5142D02*
D03*
X3905Y4035D02*
D03*
X3900Y3360D02*
D03*
X4715Y5250D02*
D03*
X3360Y3610D02*
D03*
X3970Y3725D02*
D03*
X4875Y4735D02*
D03*
X5345Y4835D02*
D03*
X6110Y5320D02*
D03*
X3805Y4645D02*
D03*
X3655Y4830D02*
D03*
X4895Y5265D02*
D03*
X3505Y5400D02*
D03*
X3400Y4255D02*
D03*
X3395Y3955D02*
D03*
X3530Y3570D02*
D03*
X3595Y3790D02*
D03*
X3525Y3640D02*
D03*
X3964Y4063D02*
D03*
X4035Y3725D02*
D03*
X4975Y3535D02*
D03*
X6265Y3120D02*
D03*
X3940Y4182D02*
D03*
X3920Y4550D02*
D03*
X4599Y4376D02*
D03*
X3855Y5390D02*
D03*
X4205Y4055D02*
D03*
X4185Y3975D02*
D03*
X3625Y4580D02*
D03*
X3610Y4405D02*
D03*
X4185Y4280D02*
D03*
X3910Y4290D02*
D03*
X3950Y4445D02*
D03*
X3670Y4530D02*
D03*
X6730Y5335D02*
D03*
X4375Y5730D02*
D03*
X4195Y4345D02*
D03*
X4575Y4210D02*
D03*
X4590Y4290D02*
D03*
X4190Y4560D02*
D03*
X5155Y4075D02*
D03*
X4800Y3755D02*
D03*
X6360Y3320D02*
D03*
X4385Y4615D02*
D03*
X4600Y4740D02*
D03*
X4685Y4665D02*
D03*
X4200Y4475D02*
D03*
X4755Y4550D02*
D03*
X4595Y4545D02*
D03*
X6580Y4930D02*
D03*
X4750Y4290D02*
D03*
X6190Y5315D02*
D03*
X5895Y5370D02*
D03*
X6825Y4945D02*
D03*
X7105Y5040D02*
D03*
X4515Y5315D02*
D03*
X3720Y5370D02*
D03*
X3760Y5280D02*
D03*
X3780Y4390D02*
D03*
X3955Y5315D02*
D03*
X3705Y4735D02*
D03*
X5110Y5205D02*
D03*
X6484Y4074D02*
D03*
X5690Y4125D02*
D03*
X5160Y4180D02*
D03*
X5055Y4550D02*
D03*
X5120Y4535D02*
D03*
X5010Y4715D02*
D03*
X4545Y4660D02*
D03*
X4415Y4080D02*
D03*
X4510Y4090D02*
D03*
X4520Y3945D02*
D03*
X4760Y3900D02*
D03*
X5540Y4115D02*
D03*
X4950Y3940D02*
D03*
X5075Y4125D02*
D03*
X6350Y4130D02*
D03*
X4840Y5415D02*
D03*
X5490Y5390D02*
D03*
X5330Y5250D02*
D03*
X5560Y5295D02*
D03*
X6290Y4825D02*
D03*
D41*
X7537Y5493D02*
Y5533D01*
X7457Y5493D02*
Y5572D01*
Y5415D02*
Y5453D01*
X7537Y5539D02*
Y5572D01*
Y5453D02*
Y5493D01*
X7457Y5453D02*
Y5493D01*
X7537Y5421D02*
Y5453D01*
Y5415D02*
Y5421D01*
Y5908D02*
Y5927D01*
Y5887D02*
Y5908D01*
Y5808D02*
Y5887D01*
X7457D02*
Y5965D01*
Y5808D02*
Y5847D01*
X7537Y5927D02*
Y5965D01*
X7457Y5847D02*
Y5887D01*
X7537Y5533D02*
Y5539D01*
M02*
