G04 Layer_Color=255*
%FSLAX23Y23*%
%MOIN*%
G70*
G01*
G75*
%ADD11R,0.064X0.064*%
%ADD12R,0.064X0.064*%
%ADD27C,0.079*%
%ADD28C,0.087*%
%ADD29C,0.098*%
%ADD30C,0.059*%
%ADD31C,0.360*%
%ADD32C,0.059*%
%ADD33C,0.315*%
%ADD34C,0.201*%
%ADD35C,0.083*%
%ADD36R,0.087X0.087*%
%ADD37R,0.079X0.079*%
%ADD38R,0.087X0.087*%
%ADD39C,0.060*%
D11*
X7569Y4572D02*
D03*
Y4438D02*
D03*
X7490Y4572D02*
D03*
Y4438D02*
D03*
X6742Y5412D02*
D03*
Y5546D02*
D03*
X3991Y5816D02*
D03*
Y5950D02*
D03*
X6275Y5826D02*
D03*
Y5960D02*
D03*
X7141Y5402D02*
D03*
Y5536D02*
D03*
X5472Y5826D02*
D03*
Y5960D02*
D03*
X5969Y5599D02*
D03*
Y5733D02*
D03*
X4769Y5521D02*
D03*
Y5655D02*
D03*
X4892Y6384D02*
D03*
Y6250D02*
D03*
X5969Y6430D02*
D03*
Y6296D02*
D03*
X7510Y6246D02*
D03*
Y6380D02*
D03*
X7057Y3289D02*
D03*
Y3155D02*
D03*
X5664Y3456D02*
D03*
Y3322D02*
D03*
X6747Y3281D02*
D03*
Y3415D02*
D03*
X3543Y3178D02*
D03*
Y3312D02*
D03*
X3440Y3725D02*
D03*
Y3591D02*
D03*
X3228Y3086D02*
D03*
Y2952D02*
D03*
X7151Y3155D02*
D03*
Y3289D02*
D03*
X5748Y3322D02*
D03*
Y3456D02*
D03*
X3706Y6253D02*
D03*
Y6119D02*
D03*
X3903Y5540D02*
D03*
Y5674D02*
D03*
Y5816D02*
D03*
Y5950D02*
D03*
X6316Y6233D02*
D03*
Y6099D02*
D03*
X5092Y6261D02*
D03*
Y6127D02*
D03*
X6043Y6430D02*
D03*
Y6296D02*
D03*
X7435Y6246D02*
D03*
Y6380D02*
D03*
X6452Y5816D02*
D03*
Y5950D02*
D03*
Y5540D02*
D03*
Y5674D02*
D03*
X5281Y5540D02*
D03*
Y5674D02*
D03*
Y5816D02*
D03*
Y5950D02*
D03*
X4643Y6438D02*
D03*
Y6304D02*
D03*
X4597Y5532D02*
D03*
Y5666D02*
D03*
X5785Y5619D02*
D03*
Y5753D02*
D03*
X6956Y5417D02*
D03*
Y5551D02*
D03*
X6740Y5754D02*
D03*
Y5620D02*
D03*
D12*
X3450Y6137D02*
D03*
X3316D02*
D03*
X6781Y2987D02*
D03*
X6647D02*
D03*
X6112Y4518D02*
D03*
X5978D02*
D03*
X5482Y4193D02*
D03*
X5348D02*
D03*
X7160Y3853D02*
D03*
X7026D02*
D03*
X7160Y3952D02*
D03*
X7026D02*
D03*
X5364Y4031D02*
D03*
X5230D02*
D03*
X3593Y3469D02*
D03*
X3459D02*
D03*
X3943Y6245D02*
D03*
X3809D02*
D03*
X4139Y6150D02*
D03*
X4005D02*
D03*
X7234Y6261D02*
D03*
X7100D02*
D03*
X6699Y6265D02*
D03*
X6565D02*
D03*
X5848Y6253D02*
D03*
X5714D02*
D03*
X4525D02*
D03*
X4391D02*
D03*
X6680Y6143D02*
D03*
X6546D02*
D03*
X5320Y6237D02*
D03*
X5186D02*
D03*
X3316Y6217D02*
D03*
X3450D02*
D03*
X5517Y6143D02*
D03*
X5383D02*
D03*
D27*
X6665Y2880D02*
D03*
X6765D02*
D03*
X3668Y3193D02*
D03*
Y3293D02*
D03*
X4695Y5540D02*
D03*
Y5640D02*
D03*
X3816Y5548D02*
D03*
Y5648D02*
D03*
X3762Y5835D02*
D03*
Y5935D02*
D03*
X5887Y5627D02*
D03*
Y5727D02*
D03*
X5185Y5550D02*
D03*
Y5650D02*
D03*
X5186Y5832D02*
D03*
Y5932D02*
D03*
X7058Y5425D02*
D03*
Y5525D02*
D03*
X6365Y5548D02*
D03*
Y5648D02*
D03*
X6357Y5832D02*
D03*
Y5932D02*
D03*
X3230Y4695D02*
D03*
Y4895D02*
D03*
Y4795D02*
D03*
Y4595D02*
D03*
Y4995D02*
D03*
X7675Y4270D02*
D03*
Y4470D02*
D03*
Y4370D02*
D03*
Y4170D02*
D03*
Y4570D02*
D03*
X3250Y3450D02*
D03*
Y3650D02*
D03*
Y3750D02*
D03*
Y3350D02*
D03*
Y3550D02*
D03*
D28*
X3604Y6240D02*
D03*
Y6040D02*
D03*
X4990Y6264D02*
D03*
Y6064D02*
D03*
X6419Y6260D02*
D03*
Y6060D02*
D03*
X5978Y3504D02*
D03*
X6378Y3519D02*
D03*
X6078Y3504D02*
D03*
X6878D02*
D03*
X5878D02*
D03*
X4147Y6367D02*
D03*
X5525D02*
D03*
X6911D02*
D03*
X6278Y3519D02*
D03*
X5777Y4520D02*
D03*
X5677D02*
D03*
X5577D02*
D03*
X6478Y3519D02*
D03*
X5477Y4520D02*
D03*
X6778Y3504D02*
D03*
X5877Y4520D02*
D03*
X6678Y3504D02*
D03*
X4190Y5649D02*
D03*
Y5549D02*
D03*
Y5949D02*
D03*
Y5849D02*
D03*
X4490Y5549D02*
D03*
Y5649D02*
D03*
Y5849D02*
D03*
Y5949D02*
D03*
X4190Y5749D02*
D03*
Y5449D02*
D03*
Y6049D02*
D03*
X4490Y5449D02*
D03*
Y5749D02*
D03*
Y6049D02*
D03*
X5383Y5644D02*
D03*
Y5544D02*
D03*
Y5944D02*
D03*
Y5844D02*
D03*
X5683Y5544D02*
D03*
Y5644D02*
D03*
Y5844D02*
D03*
Y5944D02*
D03*
X5383Y5744D02*
D03*
Y5444D02*
D03*
Y6044D02*
D03*
X5683Y5444D02*
D03*
Y5744D02*
D03*
Y6044D02*
D03*
X6554Y5646D02*
D03*
Y5546D02*
D03*
Y5946D02*
D03*
Y5846D02*
D03*
X6854Y5546D02*
D03*
Y5646D02*
D03*
Y5846D02*
D03*
Y5946D02*
D03*
X6554Y5746D02*
D03*
Y5446D02*
D03*
Y6046D02*
D03*
X6854Y5446D02*
D03*
Y5746D02*
D03*
Y6046D02*
D03*
X3647Y5748D02*
D03*
Y5548D02*
D03*
X6188Y5728D02*
D03*
Y5528D02*
D03*
X4276Y6253D02*
D03*
X4076D02*
D03*
X5025Y5748D02*
D03*
Y5548D02*
D03*
X5615Y6253D02*
D03*
X5415D02*
D03*
X7006Y6235D02*
D03*
X6806D02*
D03*
X4797Y6214D02*
D03*
X7600Y6390D02*
D03*
X6130Y6225D02*
D03*
X3471Y6365D02*
D03*
D29*
X5575Y3464D02*
D03*
X7150D02*
D03*
X5575Y2795D02*
D03*
X7150D02*
D03*
X3800Y3464D02*
D03*
X5375D02*
D03*
X3800Y2795D02*
D03*
X5375D02*
D03*
D30*
X6577Y4315D02*
D03*
X6877D02*
D03*
X7177D02*
D03*
Y3715D02*
D03*
X6877D02*
D03*
X6577D02*
D03*
X5377Y4315D02*
D03*
X5677D02*
D03*
X5977D02*
D03*
X6277D02*
D03*
Y3715D02*
D03*
X5977D02*
D03*
X5677D02*
D03*
X5377D02*
D03*
X7077Y4315D02*
D03*
X6977D02*
D03*
Y3715D02*
D03*
X7077D02*
D03*
X6777Y4315D02*
D03*
X6677D02*
D03*
Y3715D02*
D03*
X6777D02*
D03*
X6477Y4315D02*
D03*
X6377D02*
D03*
Y3715D02*
D03*
X6477D02*
D03*
X6177Y4315D02*
D03*
X6077D02*
D03*
Y3715D02*
D03*
X6177D02*
D03*
X5877Y4315D02*
D03*
X5777D02*
D03*
Y3715D02*
D03*
X5877D02*
D03*
X5577Y4315D02*
D03*
X5477D02*
D03*
Y3715D02*
D03*
X5577D02*
D03*
X5277Y4315D02*
D03*
Y3715D02*
D03*
X6405Y5010D02*
D03*
Y4910D02*
D03*
X6305Y5010D02*
D03*
Y4910D02*
D03*
X6205Y5010D02*
D03*
Y4910D02*
D03*
X6105Y5010D02*
D03*
Y4910D02*
D03*
X6005Y5010D02*
D03*
Y4910D02*
D03*
X5905Y5010D02*
D03*
Y4910D02*
D03*
X5805Y5010D02*
D03*
Y4910D02*
D03*
X5705Y5010D02*
D03*
Y4910D02*
D03*
X5605Y5010D02*
D03*
Y4910D02*
D03*
X5505Y5010D02*
D03*
Y4910D02*
D03*
X5405Y5010D02*
D03*
Y4910D02*
D03*
X5305Y5010D02*
D03*
Y4910D02*
D03*
X5205Y5010D02*
D03*
Y4910D02*
D03*
X5105Y5010D02*
D03*
Y4910D02*
D03*
X5005Y5010D02*
D03*
Y4910D02*
D03*
X4905Y5010D02*
D03*
Y4910D02*
D03*
X4805Y5010D02*
D03*
Y4910D02*
D03*
X4705Y5010D02*
D03*
Y4910D02*
D03*
X4605Y5010D02*
D03*
Y4910D02*
D03*
X4505Y5010D02*
D03*
Y4910D02*
D03*
X4405Y5010D02*
D03*
Y4910D02*
D03*
X4305Y5010D02*
D03*
Y4910D02*
D03*
X4205Y5010D02*
D03*
Y4910D02*
D03*
X4105Y5010D02*
D03*
Y4910D02*
D03*
X4005Y5010D02*
D03*
Y4910D02*
D03*
X6405Y3010D02*
D03*
Y2910D02*
D03*
X6305Y3010D02*
D03*
Y2910D02*
D03*
X6205Y3010D02*
D03*
Y2910D02*
D03*
X6105Y3010D02*
D03*
Y2910D02*
D03*
X6005Y3010D02*
D03*
Y2910D02*
D03*
X5905Y3010D02*
D03*
Y2910D02*
D03*
X5805Y3010D02*
D03*
Y2910D02*
D03*
X5705Y3010D02*
D03*
Y2910D02*
D03*
X5605Y3010D02*
D03*
Y2910D02*
D03*
X5505Y3010D02*
D03*
Y2910D02*
D03*
X5405Y3010D02*
D03*
Y2910D02*
D03*
X5305Y3010D02*
D03*
Y2910D02*
D03*
X5205Y3010D02*
D03*
Y2910D02*
D03*
X5105Y3010D02*
D03*
Y2910D02*
D03*
X5005Y3010D02*
D03*
Y2910D02*
D03*
X4905Y3010D02*
D03*
Y2910D02*
D03*
X4805Y3010D02*
D03*
Y2910D02*
D03*
X4705Y3010D02*
D03*
Y2910D02*
D03*
X4605Y3010D02*
D03*
Y2910D02*
D03*
X4505Y3010D02*
D03*
Y2910D02*
D03*
X4405Y3010D02*
D03*
Y2910D02*
D03*
X4305Y3010D02*
D03*
Y2910D02*
D03*
X4205Y3010D02*
D03*
Y2910D02*
D03*
X4105Y3010D02*
D03*
Y2910D02*
D03*
X4005Y3010D02*
D03*
Y2910D02*
D03*
X7178Y4414D02*
D03*
X7078D02*
D03*
X6678D02*
D03*
X6578D02*
D03*
X6978D02*
D03*
X6878D02*
D03*
X6778D02*
D03*
X6078D02*
D03*
X6478D02*
D03*
X6378D02*
D03*
X6278D02*
D03*
X6178D02*
D03*
X5978D02*
D03*
X5878D02*
D03*
X5778D02*
D03*
X5678D02*
D03*
X5578D02*
D03*
X5478D02*
D03*
X5278Y4409D02*
D03*
X7178Y3619D02*
D03*
X7078D02*
D03*
X6978D02*
D03*
X6878D02*
D03*
X6778D02*
D03*
X6678D02*
D03*
X6578D02*
D03*
X6378D02*
D03*
X6278D02*
D03*
X6178D02*
D03*
X6078D02*
D03*
X5878D02*
D03*
X5778D02*
D03*
X5678D02*
D03*
X5578D02*
D03*
X5478D02*
D03*
X5378D02*
D03*
X5278D02*
D03*
X5378Y4409D02*
D03*
X6478Y3619D02*
D03*
X5978D02*
D03*
D31*
X7497Y5493D02*
D03*
Y5887D02*
D03*
D32*
X6655Y5690D02*
D03*
Y5765D02*
D03*
Y5615D02*
D03*
D33*
X7608Y3612D02*
D03*
Y4838D02*
D03*
D34*
X3509Y2969D02*
D03*
Y5095D02*
D03*
X7446Y2969D02*
D03*
Y5095D02*
D03*
D35*
X4319Y6360D02*
D03*
X4419D02*
D03*
X4519D02*
D03*
X5697D02*
D03*
X5797D02*
D03*
X5897D02*
D03*
X5099D02*
D03*
X5199D02*
D03*
X5299D02*
D03*
X6477Y6358D02*
D03*
X6577D02*
D03*
X6677D02*
D03*
X3721Y6360D02*
D03*
X3821D02*
D03*
X3921D02*
D03*
X7084Y6363D02*
D03*
X7184D02*
D03*
X7284D02*
D03*
D36*
X4797Y6414D02*
D03*
X7600Y6190D02*
D03*
X6130Y6425D02*
D03*
D37*
X3230Y4495D02*
D03*
X7675Y4070D02*
D03*
X3250Y3250D02*
D03*
D38*
X3271Y6365D02*
D03*
D39*
X3225Y4155D02*
D03*
Y4055D02*
D03*
Y4355D02*
D03*
Y4255D02*
D03*
M02*
