%FSLAX23Y23*%
%MOIN*%
G70*
G01*
G75*
G04 Layer_Color=16711935*
%ADD10O,0.012X0.083*%
%ADD11O,0.083X0.012*%
%ADD12O,0.010X0.061*%
%ADD13O,0.061X0.010*%
%ADD14R,0.014X0.049*%
%ADD15R,0.024X0.087*%
%ADD16O,0.028X0.098*%
%ADD17R,0.036X0.028*%
%ADD18R,0.036X0.036*%
%ADD19R,0.050X0.050*%
%ADD20R,0.045X0.017*%
%ADD21R,0.031X0.060*%
%ADD22R,0.014X0.060*%
%ADD23R,0.030X0.100*%
%ADD24R,0.228X0.228*%
%ADD25O,0.008X0.033*%
%ADD26O,0.033X0.008*%
%ADD27O,0.098X0.028*%
%ADD28R,0.074X0.062*%
%ADD29R,0.016X0.061*%
%ADD30R,0.134X0.075*%
%ADD31R,0.048X0.078*%
%ADD32R,0.050X0.050*%
%ADD33R,0.062X0.074*%
%ADD34R,0.061X0.016*%
%ADD35R,0.100X0.100*%
%ADD36C,0.040*%
%ADD37C,0.010*%
%ADD38C,0.005*%
%ADD39C,0.025*%
%ADD40C,0.012*%
%ADD41R,1.181X0.787*%
%ADD42C,0.008*%
%ADD43C,0.012*%
%ADD44C,0.012*%
%ADD45C,0.060*%
%ADD46R,0.060X0.060*%
%ADD47R,0.060X0.060*%
%ADD48P,0.057X4X247.5*%
%ADD49C,0.026*%
%ADD50C,0.080*%
%ADD51C,0.020*%
%ADD52R,0.059X0.059*%
%ADD53C,0.059*%
%ADD54R,0.059X0.059*%
%ADD55C,0.024*%
%ADD56C,0.236*%
%ADD57C,0.050*%
%ADD58C,0.040*%
%ADD59C,0.100*%
%ADD60C,0.045*%
%ADD61C,0.033*%
%ADD62C,0.072*%
%ADD63C,0.030*%
%ADD64C,0.055*%
G04:AMPARAMS|DCode=65|XSize=95.433mil|YSize=95.433mil|CornerRadius=0mil|HoleSize=0mil|Usage=FLASHONLY|Rotation=0.000|XOffset=0mil|YOffset=0mil|HoleType=Round|Shape=Relief|Width=10mil|Gap=10mil|Entries=4|*
%AMTHD65*
7,0,0,0.095,0.075,0.010,45*
%
%ADD65THD65*%
G04:AMPARAMS|DCode=66|XSize=112mil|YSize=112mil|CornerRadius=0mil|HoleSize=0mil|Usage=FLASHONLY|Rotation=0.000|XOffset=0mil|YOffset=0mil|HoleType=Round|Shape=Relief|Width=10mil|Gap=10mil|Entries=4|*
%AMTHD66*
7,0,0,0.112,0.092,0.010,45*
%
%ADD66THD66*%
%ADD67C,0.138*%
G04:AMPARAMS|DCode=68|XSize=70mil|YSize=70mil|CornerRadius=0mil|HoleSize=0mil|Usage=FLASHONLY|Rotation=0.000|XOffset=0mil|YOffset=0mil|HoleType=Round|Shape=Relief|Width=10mil|Gap=10mil|Entries=4|*
%AMTHD68*
7,0,0,0.070,0.050,0.010,45*
%
%ADD68THD68*%
%ADD69C,0.030*%
G04:AMPARAMS|DCode=70|XSize=85mil|YSize=85mil|CornerRadius=0mil|HoleSize=0mil|Usage=FLASHONLY|Rotation=0.000|XOffset=0mil|YOffset=0mil|HoleType=Round|Shape=Relief|Width=10mil|Gap=10mil|Entries=4|*
%AMTHD70*
7,0,0,0.085,0.065,0.010,45*
%
%ADD70THD70*%
%ADD71R,0.044X0.096*%
%ADD72R,0.060X0.086*%
%ADD73R,0.075X0.063*%
%ADD74R,0.078X0.048*%
%ADD75R,0.086X0.060*%
%ADD76C,0.007*%
%ADD77R,1.181X0.787*%
%ADD78C,0.010*%
%ADD79C,0.024*%
%ADD80C,0.008*%
%ADD81C,0.004*%
%ADD82C,0.010*%
%ADD83C,0.006*%
%ADD84R,0.230X0.152*%
%ADD85R,0.074X0.062*%
%ADD86R,0.062X0.074*%
%ADD87R,1.181X0.787*%
%ADD88O,0.016X0.087*%
%ADD89O,0.087X0.016*%
%ADD90O,0.014X0.065*%
%ADD91O,0.065X0.014*%
%ADD92R,0.018X0.053*%
%ADD93R,0.028X0.091*%
%ADD94O,0.032X0.102*%
%ADD95R,0.040X0.032*%
%ADD96R,0.040X0.040*%
%ADD97R,0.054X0.054*%
%ADD98R,0.049X0.021*%
%ADD99R,0.232X0.232*%
%ADD100O,0.012X0.037*%
%ADD101O,0.037X0.012*%
%ADD102O,0.102X0.032*%
%ADD103R,0.078X0.066*%
%ADD104R,0.020X0.065*%
%ADD105R,0.138X0.079*%
%ADD106R,0.052X0.082*%
%ADD107R,0.054X0.054*%
%ADD108R,0.066X0.078*%
%ADD109R,0.065X0.020*%
%ADD110R,0.104X0.104*%
%ADD111C,0.120*%
%ADD112C,0.064*%
%ADD113R,0.064X0.064*%
%ADD114R,0.064X0.064*%
%ADD115P,0.062X4X247.5*%
%ADD116C,0.044*%
%ADD117C,0.030*%
%ADD118C,0.084*%
%ADD119R,0.063X0.063*%
%ADD120C,0.063*%
%ADD121R,0.063X0.063*%
%ADD122C,0.028*%
%ADD123C,0.240*%
%ADD124C,0.054*%
%ADD125R,1.505X0.288*%
%ADD126R,0.048X0.100*%
%ADD127R,0.064X0.090*%
%ADD128R,0.079X0.067*%
%ADD129R,0.082X0.052*%
%ADD130R,0.090X0.064*%
D21*
X13662Y10741D02*
D03*
X14402D02*
D03*
X13562D02*
D03*
X12822D02*
D03*
X12722D02*
D03*
X11982D02*
D03*
D22*
X12085Y10768D02*
D03*
X12110D02*
D03*
X12135D02*
D03*
X12160D02*
D03*
X12185D02*
D03*
X12210D02*
D03*
X12235D02*
D03*
X12260D02*
D03*
X12285D02*
D03*
X12310D02*
D03*
X12335D02*
D03*
X12360D02*
D03*
X12385D02*
D03*
X12410D02*
D03*
X12435D02*
D03*
X12460D02*
D03*
X12485D02*
D03*
X12510D02*
D03*
X12535D02*
D03*
X12560D02*
D03*
X12585D02*
D03*
X12610D02*
D03*
X12635D02*
D03*
X12660D02*
D03*
X12900D02*
D03*
X12925D02*
D03*
X12950D02*
D03*
X12975D02*
D03*
X13000D02*
D03*
X13025D02*
D03*
X13050D02*
D03*
X13075D02*
D03*
X13100D02*
D03*
X13125D02*
D03*
X13150D02*
D03*
X13175D02*
D03*
X13200D02*
D03*
X13225D02*
D03*
X13250D02*
D03*
X13275D02*
D03*
X13300D02*
D03*
X13325D02*
D03*
X13350D02*
D03*
X13375D02*
D03*
X13400D02*
D03*
X13425D02*
D03*
X13450D02*
D03*
X13475D02*
D03*
X13500D02*
D03*
X13525D02*
D03*
X13740Y10769D02*
D03*
X13765D02*
D03*
X13790D02*
D03*
X13815D02*
D03*
X13840D02*
D03*
X13865D02*
D03*
X13890D02*
D03*
X13915D02*
D03*
X13940D02*
D03*
X13965D02*
D03*
X13990D02*
D03*
X14015D02*
D03*
X14040D02*
D03*
X14065D02*
D03*
X14090D02*
D03*
X14115D02*
D03*
X14140D02*
D03*
X14165D02*
D03*
X14190D02*
D03*
X14215D02*
D03*
X14240D02*
D03*
X14265D02*
D03*
X14290D02*
D03*
X14315D02*
D03*
X14340D02*
D03*
X14365D02*
D03*
X12060Y10768D02*
D03*
X12685D02*
D03*
D23*
X11768Y10759D02*
D03*
X11847D02*
D03*
X14578Y10760D02*
D03*
X14657D02*
D03*
D40*
X10985Y8766D02*
Y8721D01*
X10966Y8755D02*
X11004Y8732D01*
Y8755D02*
X10966Y8732D01*
X11024Y8694D02*
X11021Y8690D01*
X11024Y8686D01*
X11028Y8690D01*
X11024Y8694D01*
X11103Y8747D02*
X11099Y8755D01*
X11091Y8762D01*
X11084Y8766D01*
X11069D01*
X11061Y8762D01*
X11053Y8755D01*
X11050Y8747D01*
X11046Y8736D01*
Y8717D01*
X11050Y8705D01*
X11053Y8698D01*
X11061Y8690D01*
X11069Y8686D01*
X11084D01*
X11091Y8690D01*
X11099Y8698D01*
X11103Y8705D01*
Y8717D01*
X11084D02*
X11103D01*
X11121Y8766D02*
Y8686D01*
Y8766D02*
X11155D01*
X11167Y8762D01*
X11171Y8759D01*
X11174Y8751D01*
Y8743D01*
X11171Y8736D01*
X11167Y8732D01*
X11155Y8728D01*
X11121D02*
X11155D01*
X11167Y8724D01*
X11171Y8721D01*
X11174Y8713D01*
Y8702D01*
X11171Y8694D01*
X11167Y8690D01*
X11155Y8686D01*
X11121D01*
X11246Y8755D02*
X11238Y8762D01*
X11227Y8766D01*
X11211D01*
X11200Y8762D01*
X11192Y8755D01*
Y8747D01*
X11196Y8740D01*
X11200Y8736D01*
X11208Y8732D01*
X11230Y8724D01*
X11238Y8721D01*
X11242Y8717D01*
X11246Y8709D01*
Y8698D01*
X11238Y8690D01*
X11227Y8686D01*
X11211D01*
X11200Y8690D01*
X11192Y8698D01*
X11326Y8721D02*
X11395D01*
X11481Y8766D02*
Y8686D01*
Y8766D02*
X11516D01*
X11527Y8762D01*
X11531Y8759D01*
X11535Y8751D01*
Y8743D01*
X11531Y8736D01*
X11527Y8732D01*
X11516Y8728D01*
X11481D02*
X11516D01*
X11527Y8724D01*
X11531Y8721D01*
X11535Y8713D01*
Y8702D01*
X11531Y8694D01*
X11527Y8690D01*
X11516Y8686D01*
X11481D01*
X11576Y8766D02*
X11568Y8762D01*
X11560Y8755D01*
X11556Y8747D01*
X11553Y8736D01*
Y8717D01*
X11556Y8705D01*
X11560Y8698D01*
X11568Y8690D01*
X11576Y8686D01*
X11591D01*
X11598Y8690D01*
X11606Y8698D01*
X11610Y8705D01*
X11614Y8717D01*
Y8736D01*
X11610Y8747D01*
X11606Y8755D01*
X11598Y8762D01*
X11591Y8766D01*
X11576D01*
X11659D02*
Y8686D01*
X11632Y8766D02*
X11686D01*
X11722D02*
Y8686D01*
X11695Y8766D02*
X11748D01*
X11781D02*
X11773Y8762D01*
X11766Y8755D01*
X11762Y8747D01*
X11758Y8736D01*
Y8717D01*
X11762Y8705D01*
X11766Y8698D01*
X11773Y8690D01*
X11781Y8686D01*
X11796D01*
X11804Y8690D01*
X11811Y8698D01*
X11815Y8705D01*
X11819Y8717D01*
Y8736D01*
X11815Y8747D01*
X11811Y8755D01*
X11804Y8762D01*
X11796Y8766D01*
X11781D01*
X11838D02*
Y8686D01*
Y8766D02*
X11868Y8686D01*
X11899Y8766D02*
X11868Y8686D01*
X11899Y8766D02*
Y8686D01*
X12038Y8755D02*
X12030Y8762D01*
X12018Y8766D01*
X12003D01*
X11992Y8762D01*
X11984Y8755D01*
Y8747D01*
X11988Y8740D01*
X11992Y8736D01*
X11999Y8732D01*
X12022Y8724D01*
X12030Y8721D01*
X12034Y8717D01*
X12038Y8709D01*
Y8698D01*
X12030Y8690D01*
X12018Y8686D01*
X12003D01*
X11992Y8690D01*
X11984Y8698D01*
X12078Y8766D02*
X12071Y8762D01*
X12063Y8755D01*
X12059Y8747D01*
X12055Y8736D01*
Y8717D01*
X12059Y8705D01*
X12063Y8698D01*
X12071Y8690D01*
X12078Y8686D01*
X12094D01*
X12101Y8690D01*
X12109Y8698D01*
X12113Y8705D01*
X12116Y8717D01*
Y8736D01*
X12113Y8747D01*
X12109Y8755D01*
X12101Y8762D01*
X12094Y8766D01*
X12078D01*
X12135D02*
Y8686D01*
X12181D01*
X12189Y8766D02*
Y8686D01*
Y8766D02*
X12216D01*
X12228Y8762D01*
X12235Y8755D01*
X12239Y8747D01*
X12243Y8736D01*
Y8717D01*
X12239Y8705D01*
X12235Y8698D01*
X12228Y8690D01*
X12216Y8686D01*
X12189D01*
X12310Y8766D02*
X12261D01*
Y8686D01*
X12310D01*
X12261Y8728D02*
X12291D01*
X12324Y8766D02*
Y8686D01*
Y8766D02*
X12358D01*
X12369Y8762D01*
X12373Y8759D01*
X12377Y8751D01*
Y8743D01*
X12373Y8736D01*
X12369Y8732D01*
X12358Y8728D01*
X12324D01*
X12350D02*
X12377Y8686D01*
X12458Y8766D02*
Y8686D01*
Y8766D02*
X12488Y8686D01*
X12519Y8766D02*
X12488Y8686D01*
X12519Y8766D02*
Y8686D01*
X12602D02*
X12572Y8766D01*
X12541Y8686D01*
X12553Y8713D02*
X12591D01*
X12674Y8755D02*
X12667Y8762D01*
X12655Y8766D01*
X12640D01*
X12629Y8762D01*
X12621Y8755D01*
Y8747D01*
X12625Y8740D01*
X12629Y8736D01*
X12636Y8732D01*
X12659Y8724D01*
X12667Y8721D01*
X12671Y8717D01*
X12674Y8709D01*
Y8698D01*
X12667Y8690D01*
X12655Y8686D01*
X12640D01*
X12629Y8690D01*
X12621Y8698D01*
X12692Y8766D02*
Y8686D01*
X12746Y8766D02*
X12692Y8713D01*
X12711Y8732D02*
X12746Y8686D01*
X12883Y8747D02*
X12880Y8755D01*
X12872Y8762D01*
X12864Y8766D01*
X12849D01*
X12842Y8762D01*
X12834Y8755D01*
X12830Y8747D01*
X12826Y8736D01*
Y8717D01*
X12830Y8705D01*
X12834Y8698D01*
X12842Y8690D01*
X12849Y8686D01*
X12864D01*
X12872Y8690D01*
X12880Y8698D01*
X12883Y8705D01*
Y8717D01*
X12864D02*
X12883D01*
X12951Y8766D02*
X12902D01*
Y8686D01*
X12951D01*
X12902Y8728D02*
X12932D01*
X12965Y8766D02*
Y8686D01*
Y8766D02*
X12999D01*
X13010Y8762D01*
X13014Y8759D01*
X13018Y8751D01*
Y8743D01*
X13014Y8736D01*
X13010Y8732D01*
X12999Y8728D01*
X12965D01*
X12991D02*
X13018Y8686D01*
X13036Y8766D02*
Y8686D01*
Y8766D02*
X13070D01*
X13081Y8762D01*
X13085Y8759D01*
X13089Y8751D01*
Y8743D01*
X13085Y8736D01*
X13081Y8732D01*
X13070Y8728D01*
X13036D02*
X13070D01*
X13081Y8724D01*
X13085Y8721D01*
X13089Y8713D01*
Y8702D01*
X13085Y8694D01*
X13081Y8690D01*
X13070Y8686D01*
X13036D01*
X13157Y8766D02*
X13107D01*
Y8686D01*
X13157D01*
X13107Y8728D02*
X13137D01*
X13170Y8766D02*
Y8686D01*
Y8766D02*
X13204D01*
X13216Y8762D01*
X13219Y8759D01*
X13223Y8751D01*
Y8743D01*
X13219Y8736D01*
X13216Y8732D01*
X13204Y8728D01*
X13170D01*
X13197D02*
X13223Y8686D01*
X13304Y8766D02*
Y8686D01*
Y8766D02*
X13331D01*
X13342Y8762D01*
X13350Y8755D01*
X13353Y8747D01*
X13357Y8736D01*
Y8717D01*
X13353Y8705D01*
X13350Y8698D01*
X13342Y8690D01*
X13331Y8686D01*
X13304D01*
X13436D02*
X13406Y8766D01*
X13375Y8686D01*
X13387Y8713D02*
X13425D01*
X13481Y8766D02*
Y8686D01*
X13455Y8766D02*
X13508D01*
X13579Y8686D02*
X13548Y8766D01*
X13518Y8686D01*
X13529Y8713D02*
X13567D01*
D42*
X8838Y8452D02*
X9338D01*
X9088Y8202D02*
Y8702D01*
X9038Y8452D02*
Y8502D01*
X9088D01*
X9138Y8402D02*
Y8452D01*
X9088Y8402D02*
X9138D01*
X9093Y8447D02*
X9133D01*
Y8407D02*
Y8447D01*
X9093Y8407D02*
X9133D01*
X9093D02*
Y8447D01*
X9098Y8442D02*
X9128D01*
Y8412D02*
Y8442D01*
X9098Y8412D02*
X9128D01*
X9098D02*
Y8437D01*
X9103D02*
X9123D01*
Y8417D02*
Y8437D01*
X9103Y8417D02*
X9123D01*
X9103D02*
Y8432D01*
X9108D02*
X9118D01*
Y8422D02*
Y8432D01*
X9108Y8422D02*
X9118D01*
X9108D02*
Y8432D01*
Y8427D02*
X9118D01*
X9043Y8497D02*
X9083D01*
Y8457D02*
Y8497D01*
X9043Y8457D02*
X9083D01*
X9043D02*
Y8497D01*
X9048Y8492D02*
X9078D01*
Y8462D02*
Y8492D01*
X9048Y8462D02*
X9078D01*
X9048D02*
Y8487D01*
X9053D02*
X9073D01*
Y8467D02*
Y8487D01*
X9053Y8467D02*
X9073D01*
X9053D02*
Y8482D01*
X9058D02*
X9068D01*
Y8472D02*
Y8482D01*
X9058Y8472D02*
X9068D01*
X9058D02*
Y8482D01*
Y8477D02*
X9068D01*
X8855Y15624D02*
X9355D01*
X9105Y15374D02*
Y15874D01*
X9055Y15624D02*
Y15674D01*
X9105D01*
X9155Y15574D02*
Y15624D01*
X9105Y15574D02*
X9155D01*
X9110Y15619D02*
X9150D01*
Y15579D02*
Y15619D01*
X9110Y15579D02*
X9150D01*
X9110D02*
Y15619D01*
X9115Y15614D02*
X9145D01*
Y15584D02*
Y15614D01*
X9115Y15584D02*
X9145D01*
X9115D02*
Y15609D01*
X9120D02*
X9140D01*
Y15589D02*
Y15609D01*
X9120Y15589D02*
X9140D01*
X9120D02*
Y15604D01*
X9125D02*
X9135D01*
Y15594D02*
Y15604D01*
X9125Y15594D02*
X9135D01*
X9125D02*
Y15604D01*
Y15599D02*
X9135D01*
X9060Y15669D02*
X9100D01*
Y15629D02*
Y15669D01*
X9060Y15629D02*
X9100D01*
X9060D02*
Y15669D01*
X9065Y15664D02*
X9095D01*
Y15634D02*
Y15664D01*
X9065Y15634D02*
X9095D01*
X9065D02*
Y15659D01*
X9070D02*
X9090D01*
Y15639D02*
Y15659D01*
X9070Y15639D02*
X9090D01*
X9070D02*
Y15654D01*
X9075D02*
X9085D01*
Y15644D02*
Y15654D01*
X9075Y15644D02*
X9085D01*
X9075D02*
Y15654D01*
Y15649D02*
X9085D01*
X15834Y15707D02*
X16334D01*
X16084Y15457D02*
Y15957D01*
X16034Y15707D02*
Y15757D01*
X16084D01*
X16134Y15657D02*
Y15707D01*
X16084Y15657D02*
X16134D01*
X16089Y15702D02*
X16129D01*
Y15662D02*
Y15702D01*
X16089Y15662D02*
X16129D01*
X16089D02*
Y15702D01*
X16094Y15697D02*
X16124D01*
Y15667D02*
Y15697D01*
X16094Y15667D02*
X16124D01*
X16094D02*
Y15692D01*
X16099D02*
X16119D01*
Y15672D02*
Y15692D01*
X16099Y15672D02*
X16119D01*
X16099D02*
Y15687D01*
X16104D02*
X16114D01*
Y15677D02*
Y15687D01*
X16104Y15677D02*
X16114D01*
X16104D02*
Y15687D01*
Y15682D02*
X16114D01*
X16039Y15752D02*
X16079D01*
Y15712D02*
Y15752D01*
X16039Y15712D02*
X16079D01*
X16039D02*
Y15752D01*
X16044Y15747D02*
X16074D01*
Y15717D02*
Y15747D01*
X16044Y15717D02*
X16074D01*
X16044D02*
Y15742D01*
X16049D02*
X16069D01*
Y15722D02*
Y15742D01*
X16049Y15722D02*
X16069D01*
X16049D02*
Y15737D01*
X16054D02*
X16064D01*
Y15727D02*
Y15737D01*
X16054Y15727D02*
X16064D01*
X16054D02*
Y15737D01*
Y15732D02*
X16064D01*
D43*
X11238Y9219D02*
X11246Y9222D01*
X11257Y9234D01*
Y9154D01*
X11350Y9234D02*
X11312Y9154D01*
X11297Y9234D02*
X11350D01*
X11414D02*
X11376D01*
X11372Y9200D01*
X11376Y9203D01*
X11387Y9207D01*
X11399D01*
X11410Y9203D01*
X11418Y9196D01*
X11421Y9184D01*
Y9177D01*
X11418Y9165D01*
X11410Y9158D01*
X11399Y9154D01*
X11387D01*
X11376Y9158D01*
X11372Y9161D01*
X11368Y9169D01*
X11439Y9188D02*
X11508D01*
X11554Y9234D02*
X11543Y9230D01*
X11535Y9219D01*
X11531Y9200D01*
Y9188D01*
X11535Y9169D01*
X11543Y9158D01*
X11554Y9154D01*
X11562D01*
X11573Y9158D01*
X11581Y9169D01*
X11585Y9188D01*
Y9200D01*
X11581Y9219D01*
X11573Y9230D01*
X11562Y9234D01*
X11554D01*
X11626D02*
X11614Y9230D01*
X11606Y9219D01*
X11603Y9200D01*
Y9188D01*
X11606Y9169D01*
X11614Y9158D01*
X11626Y9154D01*
X11633D01*
X11645Y9158D01*
X11652Y9169D01*
X11656Y9188D01*
Y9200D01*
X11652Y9219D01*
X11645Y9230D01*
X11633Y9234D01*
X11626D01*
X11697D02*
X11685Y9230D01*
X11678Y9219D01*
X11674Y9200D01*
Y9188D01*
X11678Y9169D01*
X11685Y9158D01*
X11697Y9154D01*
X11704D01*
X11716Y9158D01*
X11723Y9169D01*
X11727Y9188D01*
Y9200D01*
X11723Y9219D01*
X11716Y9230D01*
X11704Y9234D01*
X11697D01*
X11768D02*
X11757Y9230D01*
X11749Y9219D01*
X11745Y9200D01*
Y9188D01*
X11749Y9169D01*
X11757Y9158D01*
X11768Y9154D01*
X11776D01*
X11787Y9158D01*
X11795Y9169D01*
X11798Y9188D01*
Y9200D01*
X11795Y9219D01*
X11787Y9230D01*
X11776Y9234D01*
X11768D01*
X11824D02*
X11866D01*
X11843Y9203D01*
X11854D01*
X11862Y9200D01*
X11866Y9196D01*
X11870Y9184D01*
Y9177D01*
X11866Y9165D01*
X11858Y9158D01*
X11847Y9154D01*
X11835D01*
X11824Y9158D01*
X11820Y9161D01*
X11816Y9169D01*
X11895Y9158D02*
X11891Y9154D01*
X11888Y9158D01*
X11891Y9161D01*
X11895Y9158D01*
Y9150D01*
X11891Y9142D01*
X11888Y9139D01*
X11976Y9234D02*
Y9154D01*
Y9234D02*
X12010D01*
X12021Y9230D01*
X12025Y9226D01*
X12029Y9219D01*
Y9211D01*
X12025Y9203D01*
X12021Y9200D01*
X12010Y9196D01*
X11976D01*
X12002D02*
X12029Y9154D01*
X12096Y9234D02*
X12047D01*
Y9154D01*
X12096D01*
X12047Y9196D02*
X12077D01*
X12110Y9234D02*
X12140Y9154D01*
X12171Y9234D02*
X12140Y9154D01*
X12185Y9215D02*
Y9219D01*
X12188Y9226D01*
X12192Y9230D01*
X12200Y9234D01*
X12215D01*
X12223Y9230D01*
X12227Y9226D01*
X12230Y9219D01*
Y9211D01*
X12227Y9203D01*
X12219Y9192D01*
X12181Y9154D01*
X12234D01*
X12260Y9158D02*
X12256Y9154D01*
X12252Y9158D01*
X12256Y9161D01*
X12260Y9158D01*
Y9150D01*
X12256Y9142D01*
X12252Y9139D01*
X12393Y9222D02*
X12386Y9230D01*
X12374Y9234D01*
X12359D01*
X12348Y9230D01*
X12340Y9222D01*
Y9215D01*
X12344Y9207D01*
X12348Y9203D01*
X12355Y9200D01*
X12378Y9192D01*
X12386Y9188D01*
X12390Y9184D01*
X12393Y9177D01*
Y9165D01*
X12386Y9158D01*
X12374Y9154D01*
X12359D01*
X12348Y9158D01*
X12340Y9165D01*
X12411Y9234D02*
Y9154D01*
X12428Y9234D02*
Y9154D01*
Y9234D02*
X12481Y9154D01*
Y9234D02*
Y9154D01*
X12503Y9234D02*
Y9154D01*
X12574Y9222D02*
X12566Y9230D01*
X12554Y9234D01*
X12539D01*
X12528Y9230D01*
X12520Y9222D01*
Y9215D01*
X12524Y9207D01*
X12528Y9203D01*
X12535Y9200D01*
X12558Y9192D01*
X12566Y9188D01*
X12570Y9184D01*
X12574Y9177D01*
Y9165D01*
X12566Y9158D01*
X12554Y9154D01*
X12539D01*
X12528Y9158D01*
X12520Y9165D01*
X12618Y9234D02*
Y9154D01*
X12591Y9234D02*
X12645D01*
X12654D02*
Y9154D01*
Y9234D02*
X12689D01*
X12700Y9230D01*
X12704Y9226D01*
X12708Y9219D01*
Y9211D01*
X12704Y9203D01*
X12700Y9200D01*
X12689Y9196D01*
X12654D01*
X12681D02*
X12708Y9154D01*
X12748Y9234D02*
X12741Y9230D01*
X12733Y9222D01*
X12729Y9215D01*
X12725Y9203D01*
Y9184D01*
X12729Y9173D01*
X12733Y9165D01*
X12741Y9158D01*
X12748Y9154D01*
X12764D01*
X12771Y9158D01*
X12779Y9165D01*
X12783Y9173D01*
X12786Y9184D01*
Y9203D01*
X12783Y9215D01*
X12779Y9222D01*
X12771Y9230D01*
X12764Y9234D01*
X12748D01*
X12929Y9154D02*
X12898Y9234D01*
X12868Y9154D01*
X12879Y9181D02*
X12917D01*
X13001Y9222D02*
X12993Y9230D01*
X12982Y9234D01*
X12967D01*
X12955Y9230D01*
X12948Y9222D01*
Y9215D01*
X12951Y9207D01*
X12955Y9203D01*
X12963Y9200D01*
X12986Y9192D01*
X12993Y9188D01*
X12997Y9184D01*
X13001Y9177D01*
Y9165D01*
X12993Y9158D01*
X12982Y9154D01*
X12967D01*
X12955Y9158D01*
X12948Y9165D01*
X13019Y9192D02*
X13053D01*
X13064Y9196D01*
X13068Y9200D01*
X13072Y9207D01*
Y9219D01*
X13068Y9226D01*
X13064Y9230D01*
X13053Y9234D01*
X13019D01*
Y9154D01*
X13153Y9234D02*
Y9154D01*
Y9234D02*
X13187D01*
X13199Y9230D01*
X13202Y9226D01*
X13206Y9219D01*
Y9211D01*
X13202Y9203D01*
X13199Y9200D01*
X13187Y9196D01*
X13153D02*
X13187D01*
X13199Y9192D01*
X13202Y9188D01*
X13206Y9181D01*
Y9169D01*
X13202Y9161D01*
X13199Y9158D01*
X13187Y9154D01*
X13153D01*
X13247Y9234D02*
X13239Y9230D01*
X13232Y9222D01*
X13228Y9215D01*
X13224Y9203D01*
Y9184D01*
X13228Y9173D01*
X13232Y9165D01*
X13239Y9158D01*
X13247Y9154D01*
X13262D01*
X13270Y9158D01*
X13277Y9165D01*
X13281Y9173D01*
X13285Y9184D01*
Y9203D01*
X13281Y9215D01*
X13277Y9222D01*
X13270Y9230D01*
X13262Y9234D01*
X13247D01*
X13365Y9154D02*
X13334Y9234D01*
X13304Y9154D01*
X13315Y9181D02*
X13353D01*
X13383Y9234D02*
Y9154D01*
Y9234D02*
X13418D01*
X13429Y9230D01*
X13433Y9226D01*
X13437Y9219D01*
Y9211D01*
X13433Y9203D01*
X13429Y9200D01*
X13418Y9196D01*
X13383D01*
X13410D02*
X13437Y9154D01*
X13454Y9234D02*
Y9154D01*
Y9234D02*
X13481D01*
X13493Y9230D01*
X13500Y9222D01*
X13504Y9215D01*
X13508Y9203D01*
Y9184D01*
X13504Y9173D01*
X13500Y9165D01*
X13493Y9158D01*
X13481Y9154D01*
X13454D01*
D44*
X11238Y9084D02*
Y9004D01*
X11284D01*
X11354D02*
X11323Y9084D01*
X11293Y9004D01*
X11304Y9031D02*
X11342D01*
X11426Y9072D02*
X11418Y9080D01*
X11407Y9084D01*
X11391D01*
X11380Y9080D01*
X11372Y9072D01*
Y9065D01*
X11376Y9057D01*
X11380Y9053D01*
X11387Y9050D01*
X11410Y9042D01*
X11418Y9038D01*
X11422Y9034D01*
X11426Y9027D01*
Y9015D01*
X11418Y9008D01*
X11407Y9004D01*
X11391D01*
X11380Y9008D01*
X11372Y9015D01*
X11563Y9065D02*
X11560Y9072D01*
X11552Y9080D01*
X11544Y9084D01*
X11529D01*
X11522Y9080D01*
X11514Y9072D01*
X11510Y9065D01*
X11506Y9053D01*
Y9034D01*
X11510Y9023D01*
X11514Y9015D01*
X11522Y9008D01*
X11529Y9004D01*
X11544D01*
X11552Y9008D01*
X11560Y9015D01*
X11563Y9023D01*
X11586Y9084D02*
Y9027D01*
X11590Y9015D01*
X11597Y9008D01*
X11609Y9004D01*
X11616D01*
X11628Y9008D01*
X11635Y9015D01*
X11639Y9027D01*
Y9084D01*
X11661D02*
Y9004D01*
Y9084D02*
X11692Y9004D01*
X11722Y9084D02*
X11692Y9004D01*
X11722Y9084D02*
Y9004D01*
X11745Y9084D02*
Y9004D01*
Y9084D02*
X11779D01*
X11791Y9080D01*
X11795Y9076D01*
X11798Y9069D01*
Y9061D01*
X11795Y9053D01*
X11791Y9050D01*
X11779Y9046D01*
X11745D02*
X11779D01*
X11791Y9042D01*
X11795Y9038D01*
X11798Y9031D01*
Y9019D01*
X11795Y9011D01*
X11791Y9008D01*
X11779Y9004D01*
X11745D01*
X11816Y9084D02*
Y9004D01*
Y9084D02*
X11851D01*
X11862Y9080D01*
X11866Y9076D01*
X11870Y9069D01*
Y9061D01*
X11866Y9053D01*
X11862Y9050D01*
X11851Y9046D01*
X11816D01*
X11843D02*
X11870Y9004D01*
X11937Y9084D02*
X11888D01*
Y9004D01*
X11937D01*
X11888Y9046D02*
X11918D01*
X12004Y9072D02*
X11996Y9080D01*
X11985Y9084D01*
X11969D01*
X11958Y9080D01*
X11950Y9072D01*
Y9065D01*
X11954Y9057D01*
X11958Y9053D01*
X11966Y9050D01*
X11988Y9042D01*
X11996Y9038D01*
X12000Y9034D01*
X12004Y9027D01*
Y9015D01*
X11996Y9008D01*
X11985Y9004D01*
X11969D01*
X11958Y9008D01*
X11950Y9015D01*
X12107Y9084D02*
X12100Y9080D01*
X12092Y9072D01*
X12088Y9065D01*
X12084Y9053D01*
Y9034D01*
X12088Y9023D01*
X12092Y9015D01*
X12100Y9008D01*
X12107Y9004D01*
X12123D01*
X12130Y9008D01*
X12138Y9015D01*
X12142Y9023D01*
X12145Y9034D01*
Y9053D01*
X12142Y9065D01*
X12138Y9072D01*
X12130Y9080D01*
X12123Y9084D01*
X12107D01*
X12164D02*
Y9004D01*
Y9084D02*
X12198D01*
X12210Y9080D01*
X12214Y9076D01*
X12217Y9069D01*
Y9061D01*
X12214Y9053D01*
X12210Y9050D01*
X12198Y9046D01*
X12164D02*
X12198D01*
X12210Y9042D01*
X12214Y9038D01*
X12217Y9031D01*
Y9019D01*
X12214Y9011D01*
X12210Y9008D01*
X12198Y9004D01*
X12164D01*
X12289Y9072D02*
X12281Y9080D01*
X12270Y9084D01*
X12254D01*
X12243Y9080D01*
X12235Y9072D01*
Y9065D01*
X12239Y9057D01*
X12243Y9053D01*
X12251Y9050D01*
X12273Y9042D01*
X12281Y9038D01*
X12285Y9034D01*
X12289Y9027D01*
Y9015D01*
X12281Y9008D01*
X12270Y9004D01*
X12254D01*
X12243Y9008D01*
X12235Y9015D01*
X12356Y9084D02*
X12307D01*
Y9004D01*
X12356D01*
X12307Y9046D02*
X12337D01*
X12369Y9084D02*
Y9004D01*
Y9084D02*
X12404D01*
X12415Y9080D01*
X12419Y9076D01*
X12423Y9069D01*
Y9061D01*
X12419Y9053D01*
X12415Y9050D01*
X12404Y9046D01*
X12369D01*
X12396D02*
X12423Y9004D01*
X12441Y9084D02*
X12471Y9004D01*
X12502Y9084D02*
X12471Y9004D01*
X12573D02*
X12542Y9084D01*
X12512Y9004D01*
X12523Y9031D02*
X12561D01*
X12618Y9084D02*
Y9004D01*
X12591Y9084D02*
X12645D01*
X12677D02*
X12669Y9080D01*
X12662Y9072D01*
X12658Y9065D01*
X12654Y9053D01*
Y9034D01*
X12658Y9023D01*
X12662Y9015D01*
X12669Y9008D01*
X12677Y9004D01*
X12692D01*
X12700Y9008D01*
X12708Y9015D01*
X12711Y9023D01*
X12715Y9034D01*
Y9053D01*
X12711Y9065D01*
X12708Y9072D01*
X12700Y9080D01*
X12692Y9084D01*
X12677D01*
X12734D02*
Y9004D01*
Y9084D02*
X12768D01*
X12780Y9080D01*
X12783Y9076D01*
X12787Y9069D01*
Y9061D01*
X12783Y9053D01*
X12780Y9050D01*
X12768Y9046D01*
X12734D01*
X12761D02*
X12787Y9004D01*
X12805Y9084D02*
X12836Y9046D01*
Y9004D01*
X12866Y9084D02*
X12836Y9046D01*
X13191Y9069D02*
X13198Y9072D01*
X13210Y9084D01*
Y9004D01*
X13253Y9065D02*
Y9069D01*
X13257Y9076D01*
X13261Y9080D01*
X13268Y9084D01*
X13283D01*
X13291Y9080D01*
X13295Y9076D01*
X13299Y9069D01*
Y9061D01*
X13295Y9053D01*
X13287Y9042D01*
X13249Y9004D01*
X13302D01*
X13320Y8992D02*
X13374Y9084D01*
X13383Y9065D02*
Y9069D01*
X13387Y9076D01*
X13390Y9080D01*
X13398Y9084D01*
X13413D01*
X13421Y9080D01*
X13425Y9076D01*
X13429Y9069D01*
Y9061D01*
X13425Y9053D01*
X13417Y9042D01*
X13379Y9004D01*
X13432D01*
X13473Y9084D02*
X13462Y9080D01*
X13454Y9069D01*
X13450Y9050D01*
Y9038D01*
X13454Y9019D01*
X13462Y9008D01*
X13473Y9004D01*
X13481D01*
X13492Y9008D01*
X13500Y9019D01*
X13504Y9038D01*
Y9050D01*
X13500Y9069D01*
X13492Y9080D01*
X13481Y9084D01*
X13473D01*
X13521Y8992D02*
X13575Y9084D01*
X13584Y9065D02*
Y9069D01*
X13588Y9076D01*
X13592Y9080D01*
X13599Y9084D01*
X13614D01*
X13622Y9080D01*
X13626Y9076D01*
X13630Y9069D01*
Y9061D01*
X13626Y9053D01*
X13618Y9042D01*
X13580Y9004D01*
X13633D01*
X13674Y9084D02*
X13663Y9080D01*
X13655Y9069D01*
X13651Y9050D01*
Y9038D01*
X13655Y9019D01*
X13663Y9008D01*
X13674Y9004D01*
X13682D01*
X13693Y9008D01*
X13701Y9019D01*
X13705Y9038D01*
Y9050D01*
X13701Y9069D01*
X13693Y9080D01*
X13682Y9084D01*
X13674D01*
X13723Y9069D02*
X13730Y9072D01*
X13742Y9084D01*
Y9004D01*
X13785Y9065D02*
Y9069D01*
X13789Y9076D01*
X13793Y9080D01*
X13800Y9084D01*
X13816D01*
X13823Y9080D01*
X13827Y9076D01*
X13831Y9069D01*
Y9061D01*
X13827Y9053D01*
X13819Y9042D01*
X13781Y9004D01*
X13835D01*
D49*
X10866Y11956D02*
D03*
Y12051D02*
D03*
X10913Y12098D02*
D03*
D51*
X12125Y12209D02*
D03*
Y12248D02*
D03*
X12105Y12229D02*
D03*
X12086Y12209D02*
D03*
Y12248D02*
D03*
X15238Y11780D02*
D03*
X15198D02*
D03*
X15218Y11761D02*
D03*
X15238Y11741D02*
D03*
X15198D02*
D03*
X14206Y11780D02*
D03*
X14167D02*
D03*
X14187Y11761D02*
D03*
X14206Y11741D02*
D03*
X14167D02*
D03*
X13155Y11780D02*
D03*
X13116D02*
D03*
X13135Y11761D02*
D03*
X13155Y11741D02*
D03*
X13116D02*
D03*
X12108Y11780D02*
D03*
X12069D02*
D03*
X12088Y11761D02*
D03*
X12108Y11741D02*
D03*
X12069D02*
D03*
X14955Y11929D02*
D03*
Y11968D02*
D03*
X14935Y11949D02*
D03*
X14915Y11929D02*
D03*
Y11968D02*
D03*
X13923Y11929D02*
D03*
Y11968D02*
D03*
X13904Y11949D02*
D03*
X13884Y11929D02*
D03*
Y11968D02*
D03*
X12872Y11929D02*
D03*
Y11968D02*
D03*
X12852Y11949D02*
D03*
X12833Y11929D02*
D03*
Y11968D02*
D03*
X11825Y11929D02*
D03*
Y11968D02*
D03*
X11805Y11949D02*
D03*
X11786Y11929D02*
D03*
Y11968D02*
D03*
X15255Y12209D02*
D03*
Y12248D02*
D03*
X15235Y12229D02*
D03*
X15215Y12209D02*
D03*
Y12248D02*
D03*
X14223Y12209D02*
D03*
Y12248D02*
D03*
X14204Y12229D02*
D03*
X14184Y12209D02*
D03*
Y12248D02*
D03*
X13172Y12209D02*
D03*
Y12248D02*
D03*
X13152Y12229D02*
D03*
X13133Y12209D02*
D03*
Y12248D02*
D03*
D87*
X10457Y10700D02*
D03*
D97*
X15457Y14338D02*
D03*
Y14248D02*
D03*
X10954Y13227D02*
D03*
Y13137D02*
D03*
X10600Y13229D02*
D03*
Y13139D02*
D03*
X10797Y13228D02*
D03*
Y13138D02*
D03*
X10777Y13678D02*
D03*
Y13768D02*
D03*
X10171Y12109D02*
D03*
Y12199D02*
D03*
X10049Y14011D02*
D03*
Y13921D02*
D03*
X15439Y12884D02*
D03*
Y12974D02*
D03*
X12310Y12884D02*
D03*
Y12974D02*
D03*
X15549Y12884D02*
D03*
Y12794D02*
D03*
X12420Y12884D02*
D03*
Y12794D02*
D03*
X15367Y13687D02*
D03*
Y13597D02*
D03*
X12238Y13687D02*
D03*
Y13597D02*
D03*
X15157Y13287D02*
D03*
Y13377D02*
D03*
X12028Y13287D02*
D03*
Y13377D02*
D03*
X15215Y12929D02*
D03*
Y13019D02*
D03*
X12086Y12929D02*
D03*
Y13019D02*
D03*
X15295Y12869D02*
D03*
Y12779D02*
D03*
X12166Y12869D02*
D03*
Y12779D02*
D03*
X15047Y11855D02*
D03*
Y11945D02*
D03*
X15377Y11765D02*
D03*
Y11675D02*
D03*
X11918Y11855D02*
D03*
Y11945D02*
D03*
X12248Y11765D02*
D03*
Y11675D02*
D03*
X14408Y12974D02*
D03*
Y12884D02*
D03*
X13357Y12974D02*
D03*
Y12884D02*
D03*
X14518Y12794D02*
D03*
Y12884D02*
D03*
X13467Y12794D02*
D03*
Y12884D02*
D03*
X14336Y13597D02*
D03*
Y13687D02*
D03*
X13285Y13597D02*
D03*
Y13687D02*
D03*
X14126Y13377D02*
D03*
Y13287D02*
D03*
X13075Y13377D02*
D03*
Y13287D02*
D03*
X14184Y13019D02*
D03*
Y12929D02*
D03*
X13133Y13019D02*
D03*
Y12929D02*
D03*
X14264Y12779D02*
D03*
Y12869D02*
D03*
X13213Y12779D02*
D03*
Y12869D02*
D03*
X14016Y11945D02*
D03*
Y11855D02*
D03*
X12965Y11945D02*
D03*
Y11855D02*
D03*
X14346Y11675D02*
D03*
Y11765D02*
D03*
X13295Y11675D02*
D03*
Y11765D02*
D03*
X10716Y11961D02*
D03*
Y12051D02*
D03*
X10179Y13926D02*
D03*
Y14016D02*
D03*
X13872Y14416D02*
D03*
Y14326D02*
D03*
X14502Y14338D02*
D03*
Y14248D02*
D03*
X14965Y14338D02*
D03*
Y14248D02*
D03*
X14728Y14338D02*
D03*
Y14248D02*
D03*
X15211Y14338D02*
D03*
Y14248D02*
D03*
D106*
X13654Y11259D02*
D03*
Y11149D02*
D03*
X13752Y11148D02*
D03*
Y11258D02*
D03*
X15267Y13307D02*
D03*
Y13417D02*
D03*
X12138Y13307D02*
D03*
Y13417D02*
D03*
X15549Y12984D02*
D03*
Y13094D02*
D03*
X12420Y12984D02*
D03*
Y13094D02*
D03*
X15397Y13307D02*
D03*
Y13417D02*
D03*
X12268Y13307D02*
D03*
Y13417D02*
D03*
X15215Y12699D02*
D03*
Y12809D02*
D03*
X12086Y12699D02*
D03*
Y12809D02*
D03*
X14236Y13417D02*
D03*
Y13307D02*
D03*
X13185Y13417D02*
D03*
Y13307D02*
D03*
X14518Y13094D02*
D03*
Y12984D02*
D03*
X13467Y13094D02*
D03*
Y12984D02*
D03*
X14366Y13417D02*
D03*
Y13307D02*
D03*
X13315Y13417D02*
D03*
Y13307D02*
D03*
X14184Y12809D02*
D03*
Y12699D02*
D03*
X13133Y12809D02*
D03*
Y12699D02*
D03*
D107*
X11065Y13764D02*
D03*
X10975D02*
D03*
X10995Y13288D02*
D03*
X11085D02*
D03*
X10993Y13446D02*
D03*
X11083D02*
D03*
X10549Y13445D02*
D03*
X10459D02*
D03*
X10671Y13765D02*
D03*
X10581D02*
D03*
X10549Y13328D02*
D03*
X10459D02*
D03*
X10548Y13641D02*
D03*
X10458D02*
D03*
X10987Y13642D02*
D03*
X11077D02*
D03*
X15062Y13832D02*
D03*
X15152D02*
D03*
X11933D02*
D03*
X12023D02*
D03*
X15062Y13472D02*
D03*
X15152D02*
D03*
X11933D02*
D03*
X12023D02*
D03*
X15572Y13482D02*
D03*
X15482D02*
D03*
X12443D02*
D03*
X12353D02*
D03*
X14949Y11858D02*
D03*
X14859D02*
D03*
X14949Y12018D02*
D03*
X15039D02*
D03*
X14972Y11510D02*
D03*
X15062D02*
D03*
X15222D02*
D03*
X15132D02*
D03*
X15189Y12138D02*
D03*
X15279D02*
D03*
X12060D02*
D03*
X12150D02*
D03*
X11843Y11510D02*
D03*
X11933D02*
D03*
X12093D02*
D03*
X12003D02*
D03*
X11820Y11858D02*
D03*
X11730D02*
D03*
X11820Y12018D02*
D03*
X11910D02*
D03*
X14121Y13832D02*
D03*
X14031D02*
D03*
X13070D02*
D03*
X12980D02*
D03*
X14121Y13472D02*
D03*
X14031D02*
D03*
X13070D02*
D03*
X12980D02*
D03*
X14451Y13482D02*
D03*
X14541D02*
D03*
X13400D02*
D03*
X13490D02*
D03*
X13828Y11858D02*
D03*
X13918D02*
D03*
X12777D02*
D03*
X12867D02*
D03*
X14008Y12018D02*
D03*
X13918D02*
D03*
X12957D02*
D03*
X12867D02*
D03*
X14031Y11510D02*
D03*
X13941D02*
D03*
X12980D02*
D03*
X12890D02*
D03*
X14101D02*
D03*
X14191D02*
D03*
X13050D02*
D03*
X13140D02*
D03*
X14248Y12138D02*
D03*
X14158D02*
D03*
X13197D02*
D03*
X13107D02*
D03*
X11011Y11806D02*
D03*
X10921D02*
D03*
D110*
X13405Y11975D02*
D03*
Y11745D02*
D03*
X15487D02*
D03*
Y11975D02*
D03*
X12358Y11745D02*
D03*
Y11975D02*
D03*
X14456D02*
D03*
Y11745D02*
D03*
D112*
X11975Y13129D02*
D03*
Y13029D02*
D03*
Y12929D02*
D03*
X11825D02*
D03*
Y13029D02*
D03*
X11908Y11761D02*
D03*
X11808D02*
D03*
X15105Y13129D02*
D03*
Y13029D02*
D03*
Y12929D02*
D03*
X14955D02*
D03*
Y13029D02*
D03*
X14074Y13129D02*
D03*
Y13029D02*
D03*
Y12929D02*
D03*
X13924D02*
D03*
Y13029D02*
D03*
X13022Y13129D02*
D03*
Y13029D02*
D03*
Y12929D02*
D03*
X12872D02*
D03*
Y13029D02*
D03*
X15055Y12129D02*
D03*
X14955D02*
D03*
X14024D02*
D03*
X13924D02*
D03*
X12972D02*
D03*
X12872D02*
D03*
X11925D02*
D03*
X11825D02*
D03*
X14988Y11301D02*
D03*
Y11201D02*
D03*
X13957Y11301D02*
D03*
Y11201D02*
D03*
X12905Y11301D02*
D03*
Y11201D02*
D03*
X11858Y11301D02*
D03*
Y11201D02*
D03*
X15038Y11761D02*
D03*
X14938D02*
D03*
X14007D02*
D03*
X13907D02*
D03*
X12955D02*
D03*
X12855D02*
D03*
D113*
X11825Y13129D02*
D03*
X14955D02*
D03*
X13924D02*
D03*
X12872D02*
D03*
X14988Y11101D02*
D03*
X13957D02*
D03*
X12905D02*
D03*
X11858D02*
D03*
D114*
X11708Y11761D02*
D03*
X14855Y12129D02*
D03*
X13824D02*
D03*
X12772D02*
D03*
X11725D02*
D03*
X14838Y11761D02*
D03*
X13807D02*
D03*
X12755D02*
D03*
D115*
X12125Y12528D02*
D03*
X15255D02*
D03*
X14224D02*
D03*
X13172D02*
D03*
D116*
X12103Y12585D02*
D03*
X12045Y12609D02*
D03*
X11965Y12529D02*
D03*
X11989Y12473D02*
D03*
X12045Y12450D02*
D03*
X15175D02*
D03*
X15119Y12473D02*
D03*
X15095Y12529D02*
D03*
X15175Y12609D02*
D03*
X15233Y12585D02*
D03*
X14202D02*
D03*
X14144Y12609D02*
D03*
X14063Y12529D02*
D03*
X14088Y12473D02*
D03*
X14144Y12450D02*
D03*
X13092D02*
D03*
X13036Y12473D02*
D03*
X13012Y12529D02*
D03*
X13092Y12609D02*
D03*
X13150Y12585D02*
D03*
D117*
X10913Y11956D02*
D03*
X10961D02*
D03*
X11008D02*
D03*
X11055D02*
D03*
Y12004D02*
D03*
X11008D02*
D03*
X10961D02*
D03*
X10913D02*
D03*
X10866D02*
D03*
X11055Y12051D02*
D03*
X11008D02*
D03*
X10961D02*
D03*
X10913D02*
D03*
X11055Y12098D02*
D03*
X11008D02*
D03*
X10961D02*
D03*
X10866D02*
D03*
X11055Y12145D02*
D03*
X11008D02*
D03*
X10961D02*
D03*
X10913D02*
D03*
X10866D02*
D03*
D118*
X12405Y12369D02*
D03*
X14616Y14456D02*
D03*
X15116D02*
D03*
X15366D02*
D03*
X14116D02*
D03*
X14866D02*
D03*
X14766Y13556D02*
D03*
X14366Y14456D02*
D03*
X14766Y13856D02*
D03*
X14766Y13306D02*
D03*
X12516Y11606D02*
D03*
X11466Y11356D02*
D03*
X11466Y11606D02*
D03*
X14766Y13106D02*
D03*
X10016Y14456D02*
D03*
X12658Y13427D02*
D03*
X15586Y14454D02*
D03*
X13613Y14437D02*
D03*
X13666Y12306D02*
D03*
X10666Y11256D02*
D03*
Y11456D02*
D03*
X10666Y11656D02*
D03*
X15055Y13909D02*
D03*
X14024D02*
D03*
X12972D02*
D03*
X11925D02*
D03*
X15555Y12579D02*
D03*
X14524D02*
D03*
X13472D02*
D03*
X12425D02*
D03*
X11566Y13106D02*
D03*
X15543Y13339D02*
D03*
X14512D02*
D03*
X13460D02*
D03*
X12413D02*
D03*
X15073Y13349D02*
D03*
X14042D02*
D03*
X12990D02*
D03*
X11943D02*
D03*
X15328Y11121D02*
D03*
X14297D02*
D03*
X13245D02*
D03*
X12198D02*
D03*
X14815Y11959D02*
D03*
X13784D02*
D03*
X12732D02*
D03*
X11685D02*
D03*
X15358Y11911D02*
D03*
X14327D02*
D03*
X13275D02*
D03*
X12228D02*
D03*
X15565Y11369D02*
D03*
X14534D02*
D03*
X13482D02*
D03*
X12435D02*
D03*
X15535Y12369D02*
D03*
X14504D02*
D03*
X13452D02*
D03*
D119*
X9966Y12306D02*
D03*
Y13606D02*
D03*
D120*
X10066Y12306D02*
D03*
X9966Y12206D02*
D03*
X10066D02*
D03*
X9966Y12106D02*
D03*
X10066D02*
D03*
X9966Y12006D02*
D03*
X10066D02*
D03*
X9966Y11906D02*
D03*
X10066D02*
D03*
Y12706D02*
D03*
X9966D02*
D03*
X10066Y12806D02*
D03*
X9966D02*
D03*
X10066Y12906D02*
D03*
X9966D02*
D03*
X10066Y13006D02*
D03*
X9966D02*
D03*
X10066Y13106D02*
D03*
X9966D02*
D03*
X10066Y13206D02*
D03*
X9966D02*
D03*
X10066Y13306D02*
D03*
X9966D02*
D03*
X10066Y13406D02*
D03*
X9966D02*
D03*
X10066Y13506D02*
D03*
X9966D02*
D03*
X10066Y13606D02*
D03*
X11479Y12315D02*
D03*
D121*
X11579D02*
D03*
D122*
X12186Y13716D02*
D03*
X12166Y13636D02*
D03*
X12201D02*
D03*
X13233Y13716D02*
D03*
X13211Y13641D02*
D03*
X13321D02*
D03*
X13261D02*
D03*
X14285Y13716D02*
D03*
X14265Y13646D02*
D03*
X14375D02*
D03*
X14315D02*
D03*
X15346D02*
D03*
X15406D02*
D03*
X15296D02*
D03*
X15316Y13716D02*
D03*
D123*
X10850Y10700D02*
D03*
X10063D02*
D03*
D124*
X9984Y10385D02*
D03*
X10142D02*
D03*
X10299D02*
D03*
X10457D02*
D03*
X10614D02*
D03*
X10772D02*
D03*
X10929D02*
D03*
Y10543D02*
D03*
X10772D02*
D03*
X10614D02*
D03*
X10457D02*
D03*
X10299D02*
D03*
X10142D02*
D03*
X9984D02*
D03*
X10614Y10700D02*
D03*
X10457D02*
D03*
X10299D02*
D03*
X10929Y10857D02*
D03*
X10772D02*
D03*
X10614D02*
D03*
X10457D02*
D03*
X10299D02*
D03*
X10142D02*
D03*
X9984D02*
D03*
X10929Y11015D02*
D03*
X10772D02*
D03*
X10614D02*
D03*
X10457D02*
D03*
X10299D02*
D03*
X10142D02*
D03*
X9984D02*
D03*
D125*
X11656Y14434D02*
D03*
D126*
X12637Y14070D02*
D03*
X13337D02*
D03*
X13237D02*
D03*
X13137D02*
D03*
X13037D02*
D03*
X12937D02*
D03*
X12837D02*
D03*
X12737D02*
D03*
X13337Y14409D02*
D03*
X13237D02*
D03*
X13137D02*
D03*
X13037D02*
D03*
X12937D02*
D03*
X12837D02*
D03*
X12737D02*
D03*
X12637D02*
D03*
D127*
X13210Y11630D02*
D03*
X13080D02*
D03*
X15272Y12000D02*
D03*
X15142D02*
D03*
X15162Y11630D02*
D03*
X15292D02*
D03*
X12143Y12000D02*
D03*
X12013D02*
D03*
X12033Y11630D02*
D03*
X12163D02*
D03*
X14111Y12000D02*
D03*
X14241D02*
D03*
X13060D02*
D03*
X13190D02*
D03*
X14261Y11630D02*
D03*
X14131D02*
D03*
D128*
X10772Y13550D02*
D03*
Y13440D02*
D03*
D129*
X10576Y13553D02*
D03*
X10466D02*
D03*
X10959Y13540D02*
D03*
X11069D02*
D03*
X10102Y14096D02*
D03*
X9992D02*
D03*
X15042Y13722D02*
D03*
X15152D02*
D03*
X11913D02*
D03*
X12023D02*
D03*
X15042Y13552D02*
D03*
X15152D02*
D03*
X11913D02*
D03*
X12023D02*
D03*
X15142Y11850D02*
D03*
X15252D02*
D03*
X12013D02*
D03*
X12123D02*
D03*
X14121Y13722D02*
D03*
X14011D02*
D03*
X13070D02*
D03*
X12960D02*
D03*
X14121Y13552D02*
D03*
X14011D02*
D03*
X13070D02*
D03*
X12960D02*
D03*
X14224Y11854D02*
D03*
X14114D02*
D03*
X13173D02*
D03*
X13063D02*
D03*
D130*
X15439Y12814D02*
D03*
Y12684D02*
D03*
X12310Y12814D02*
D03*
Y12684D02*
D03*
X15325Y12939D02*
D03*
Y13069D02*
D03*
X12196Y12939D02*
D03*
Y13069D02*
D03*
X14408Y12684D02*
D03*
Y12814D02*
D03*
X13357Y12684D02*
D03*
Y12814D02*
D03*
X14294Y13069D02*
D03*
Y12939D02*
D03*
X13243Y13069D02*
D03*
Y12939D02*
D03*
M02*
