%FSLAX23Y23*%
%MOIN*%
G70*
G01*
G75*
G04 Layer_Color=8421504*
%ADD10O,0.079X0.024*%
%ADD11R,0.017X0.045*%
%ADD12R,0.014X0.060*%
%ADD13R,0.030X0.100*%
%ADD14R,0.031X0.060*%
%ADD15R,0.022X0.085*%
%ADD16R,0.039X0.059*%
%ADD17R,0.085X0.022*%
%ADD18C,0.006*%
%ADD19C,0.010*%
%ADD20C,0.025*%
%ADD21C,0.020*%
%ADD22C,0.050*%
%ADD23C,0.005*%
%ADD24C,0.012*%
%ADD25C,0.008*%
%ADD26C,0.012*%
%ADD27C,0.012*%
%ADD28C,0.059*%
%ADD29R,0.059X0.059*%
%ADD30R,0.059X0.059*%
%ADD31C,0.047*%
%ADD32C,0.219*%
%ADD33C,0.024*%
%ADD34C,0.050*%
%ADD35C,0.040*%
%ADD36C,0.075*%
%ADD37C,0.087*%
%ADD38C,0.206*%
%ADD39C,0.068*%
G04:AMPARAMS|DCode=40|XSize=88mil|YSize=88mil|CornerRadius=0mil|HoleSize=0mil|Usage=FLASHONLY|Rotation=0.000|XOffset=0mil|YOffset=0mil|HoleType=Round|Shape=Relief|Width=10mil|Gap=10mil|Entries=4|*
%AMTHD40*
7,0,0,0.088,0.068,0.010,45*
%
%ADD40THD40*%
G04:AMPARAMS|DCode=41|XSize=70mil|YSize=70mil|CornerRadius=0mil|HoleSize=0mil|Usage=FLASHONLY|Rotation=0.000|XOffset=0mil|YOffset=0mil|HoleType=Round|Shape=Relief|Width=10mil|Gap=10mil|Entries=4|*
%AMTHD41*
7,0,0,0.070,0.050,0.010,45*
%
%ADD41THD41*%
%ADD42C,0.010*%
%ADD43C,0.015*%
%ADD44C,0.008*%
%ADD45C,0.007*%
%ADD46C,0.007*%
%ADD47R,0.224X0.139*%
D10*
X31396Y18696D02*
D03*
Y18746D02*
D03*
Y18796D02*
D03*
Y18846D02*
D03*
X31199Y18696D02*
D03*
Y18746D02*
D03*
Y18796D02*
D03*
Y18846D02*
D03*
D11*
X32807Y18786D02*
D03*
X32839D02*
D03*
X32870D02*
D03*
X32902D02*
D03*
Y18710D02*
D03*
X32870D02*
D03*
X32839D02*
D03*
X32807D02*
D03*
X32967Y18786D02*
D03*
X32999D02*
D03*
X33030D02*
D03*
X33062D02*
D03*
Y18710D02*
D03*
X33030D02*
D03*
X32999D02*
D03*
X32967D02*
D03*
D12*
X32558Y18603D02*
D03*
X31983D02*
D03*
X32008D02*
D03*
X32033D02*
D03*
X32058D02*
D03*
X32083D02*
D03*
X32108D02*
D03*
X32158D02*
D03*
X32183D02*
D03*
X32208D02*
D03*
X32233D02*
D03*
X32258D02*
D03*
X32283D02*
D03*
X32308D02*
D03*
X32333D02*
D03*
X32358D02*
D03*
X32383D02*
D03*
X32408D02*
D03*
X32433D02*
D03*
X32458D02*
D03*
X32483D02*
D03*
X32508D02*
D03*
X32533D02*
D03*
X32583D02*
D03*
X32608D02*
D03*
X32824Y18602D02*
D03*
X32849D02*
D03*
X32874D02*
D03*
X32899D02*
D03*
X32924D02*
D03*
X32949D02*
D03*
X32974D02*
D03*
X32999D02*
D03*
X33024D02*
D03*
X33049D02*
D03*
X33074D02*
D03*
X33099D02*
D03*
X33124D02*
D03*
X33149D02*
D03*
X33174D02*
D03*
X33199D02*
D03*
X33224D02*
D03*
X33249D02*
D03*
X33274D02*
D03*
X33299D02*
D03*
X33324D02*
D03*
X33349D02*
D03*
X33374D02*
D03*
X33399D02*
D03*
X33424D02*
D03*
X33449D02*
D03*
X32133Y18603D02*
D03*
D13*
X31691Y18593D02*
D03*
X31770D02*
D03*
X33740Y18593D02*
D03*
X33661D02*
D03*
D14*
X33526Y18575D02*
D03*
X32786D02*
D03*
X31946D02*
D03*
X32686D02*
D03*
D15*
X32637Y19361D02*
D03*
X32716D02*
D03*
X32795D02*
D03*
X32676Y19458D02*
D03*
X32755D02*
D03*
X33582Y19361D02*
D03*
X33543Y19458D02*
D03*
X33503Y19361D02*
D03*
X33464Y19458D02*
D03*
X33424Y19361D02*
D03*
X33385Y19458D02*
D03*
X33346Y19361D02*
D03*
X33306Y19458D02*
D03*
X33267Y19361D02*
D03*
X33228Y19458D02*
D03*
X33188Y19361D02*
D03*
X33149Y19458D02*
D03*
X33110Y19361D02*
D03*
X33070Y19458D02*
D03*
X33031Y19361D02*
D03*
X32991Y19458D02*
D03*
X32952Y19361D02*
D03*
X32913Y19458D02*
D03*
X32873Y19361D02*
D03*
X32834Y19458D02*
D03*
X31515D02*
D03*
X31554Y19361D02*
D03*
X31594Y19458D02*
D03*
X31633Y19361D02*
D03*
X31673Y19458D02*
D03*
X31712Y19361D02*
D03*
X31751Y19458D02*
D03*
X31791Y19361D02*
D03*
X31830Y19458D02*
D03*
X31869Y19361D02*
D03*
X31909Y19458D02*
D03*
X31948Y19361D02*
D03*
X31987Y19458D02*
D03*
X32027Y19361D02*
D03*
X32066Y19458D02*
D03*
X32106Y19361D02*
D03*
X32145Y19458D02*
D03*
X32184Y19361D02*
D03*
X32224Y19458D02*
D03*
X32263Y19361D02*
D03*
X31436Y19458D02*
D03*
X31358D02*
D03*
X31476Y19361D02*
D03*
X31397D02*
D03*
X31318D02*
D03*
D16*
X31193Y18454D02*
D03*
X31262Y18608D02*
D03*
X31331Y18454D02*
D03*
D17*
X34221Y19233D02*
D03*
X34124Y19193D02*
D03*
X34221Y19154D02*
D03*
X34124Y19114D02*
D03*
X34221Y19075D02*
D03*
X34124Y19036D02*
D03*
X34221Y18996D02*
D03*
X34124Y18957D02*
D03*
X34221Y18918D02*
D03*
X34124Y18878D02*
D03*
X34221Y18839D02*
D03*
X34124Y18799D02*
D03*
X34221Y18760D02*
D03*
X34124Y18721D02*
D03*
X34221Y18681D02*
D03*
X34124Y18642D02*
D03*
X34221Y18603D02*
D03*
X34124Y18563D02*
D03*
X34221Y18524D02*
D03*
X34124Y18484D02*
D03*
X34221Y19311D02*
D03*
Y19390D02*
D03*
X34124Y19272D02*
D03*
Y19351D02*
D03*
Y19429D02*
D03*
D25*
X30093Y20243D02*
X30593D01*
X30343Y19993D02*
Y20493D01*
X30293Y20243D02*
Y20293D01*
X30343D01*
X30393Y20193D02*
Y20243D01*
X30343Y20193D02*
X30393D01*
X30348Y20238D02*
X30388D01*
Y20198D02*
Y20238D01*
X30348Y20198D02*
X30388D01*
X30348D02*
Y20238D01*
X30353Y20233D02*
X30383D01*
Y20203D02*
Y20233D01*
X30353Y20203D02*
X30383D01*
X30353D02*
Y20228D01*
X30358D02*
X30378D01*
Y20208D02*
Y20228D01*
X30358Y20208D02*
X30378D01*
X30358D02*
Y20223D01*
X30363D02*
X30373D01*
Y20213D02*
Y20223D01*
X30363Y20213D02*
X30373D01*
X30363D02*
Y20223D01*
Y20218D02*
X30373D01*
X30298Y20288D02*
X30338D01*
Y20248D02*
Y20288D01*
X30298Y20248D02*
X30338D01*
X30298D02*
Y20288D01*
X30303Y20283D02*
X30333D01*
Y20253D02*
Y20283D01*
X30303Y20253D02*
X30333D01*
X30303D02*
Y20278D01*
X30308D02*
X30328D01*
Y20258D02*
Y20278D01*
X30308Y20258D02*
X30328D01*
X30308D02*
Y20273D01*
X30313D02*
X30323D01*
Y20263D02*
Y20273D01*
X30313Y20263D02*
X30323D01*
X30313D02*
Y20273D01*
Y20268D02*
X30323D01*
X30126Y17575D02*
X30626D01*
X30376Y17325D02*
Y17825D01*
X30326Y17575D02*
Y17625D01*
X30376D01*
X30426Y17525D02*
Y17575D01*
X30376Y17525D02*
X30426D01*
X30381Y17570D02*
X30421D01*
Y17530D02*
Y17570D01*
X30381Y17530D02*
X30421D01*
X30381D02*
Y17570D01*
X30386Y17565D02*
X30416D01*
Y17535D02*
Y17565D01*
X30386Y17535D02*
X30416D01*
X30386D02*
Y17560D01*
X30391D02*
X30411D01*
Y17540D02*
Y17560D01*
X30391Y17540D02*
X30411D01*
X30391D02*
Y17555D01*
X30396D02*
X30406D01*
Y17545D02*
Y17555D01*
X30396Y17545D02*
X30406D01*
X30396D02*
Y17555D01*
Y17550D02*
X30406D01*
X30331Y17620D02*
X30371D01*
Y17580D02*
Y17620D01*
X30331Y17580D02*
X30371D01*
X30331D02*
Y17620D01*
X30336Y17615D02*
X30366D01*
Y17585D02*
Y17615D01*
X30336Y17585D02*
X30366D01*
X30336D02*
Y17610D01*
X30341D02*
X30361D01*
Y17590D02*
Y17610D01*
X30341Y17590D02*
X30361D01*
X30341D02*
Y17605D01*
X30346D02*
X30356D01*
Y17595D02*
Y17605D01*
X30346Y17595D02*
X30356D01*
X30346D02*
Y17605D01*
Y17600D02*
X30356D01*
X34347Y20243D02*
X34847D01*
X34597Y19993D02*
Y20493D01*
X34547Y20243D02*
Y20293D01*
X34597D01*
X34647Y20193D02*
Y20243D01*
X34597Y20193D02*
X34647D01*
X34602Y20238D02*
X34642D01*
Y20198D02*
Y20238D01*
X34602Y20198D02*
X34642D01*
X34602D02*
Y20238D01*
X34607Y20233D02*
X34637D01*
Y20203D02*
Y20233D01*
X34607Y20203D02*
X34637D01*
X34607D02*
Y20228D01*
X34612D02*
X34632D01*
Y20208D02*
Y20228D01*
X34612Y20208D02*
X34632D01*
X34612D02*
Y20223D01*
X34617D02*
X34627D01*
Y20213D02*
Y20223D01*
X34617Y20213D02*
X34627D01*
X34617D02*
Y20223D01*
Y20218D02*
X34627D01*
X34552Y20288D02*
X34592D01*
Y20248D02*
Y20288D01*
X34552Y20248D02*
X34592D01*
X34552D02*
Y20288D01*
X34557Y20283D02*
X34587D01*
Y20253D02*
Y20283D01*
X34557Y20253D02*
X34587D01*
X34557D02*
Y20278D01*
X34562D02*
X34582D01*
Y20258D02*
Y20278D01*
X34562Y20258D02*
X34582D01*
X34562D02*
Y20273D01*
X34567D02*
X34577D01*
Y20263D02*
Y20273D01*
X34567Y20263D02*
X34577D01*
X34567D02*
Y20273D01*
Y20268D02*
X34577D01*
D26*
X31156Y16829D02*
Y16783D01*
X31137Y16817D02*
X31175Y16794D01*
Y16817D02*
X31137Y16794D01*
X31196Y16756D02*
X31192Y16753D01*
X31196Y16749D01*
X31199Y16753D01*
X31196Y16756D01*
X31274Y16810D02*
X31270Y16817D01*
X31263Y16825D01*
X31255Y16829D01*
X31240D01*
X31232Y16825D01*
X31224Y16817D01*
X31221Y16810D01*
X31217Y16798D01*
Y16779D01*
X31221Y16768D01*
X31224Y16760D01*
X31232Y16753D01*
X31240Y16749D01*
X31255D01*
X31263Y16753D01*
X31270Y16760D01*
X31274Y16768D01*
Y16779D01*
X31255D02*
X31274D01*
X31319Y16829D02*
Y16749D01*
X31292Y16829D02*
X31346D01*
X31355Y16787D02*
X31389D01*
X31401Y16791D01*
X31405Y16794D01*
X31408Y16802D01*
Y16814D01*
X31405Y16821D01*
X31401Y16825D01*
X31389Y16829D01*
X31355D01*
Y16749D01*
X31489Y16783D02*
X31558D01*
X31671Y16829D02*
Y16749D01*
X31644Y16829D02*
X31698D01*
X31730D02*
X31722Y16825D01*
X31715Y16817D01*
X31711Y16810D01*
X31707Y16798D01*
Y16779D01*
X31711Y16768D01*
X31715Y16760D01*
X31722Y16753D01*
X31730Y16749D01*
X31745D01*
X31753Y16753D01*
X31760Y16760D01*
X31764Y16768D01*
X31768Y16779D01*
Y16798D01*
X31764Y16810D01*
X31760Y16817D01*
X31753Y16825D01*
X31745Y16829D01*
X31730D01*
X31787Y16787D02*
X31821D01*
X31832Y16791D01*
X31836Y16794D01*
X31840Y16802D01*
Y16814D01*
X31836Y16821D01*
X31832Y16825D01*
X31821Y16829D01*
X31787D01*
Y16749D01*
X31858Y16783D02*
X31926D01*
X32003Y16817D02*
X31996Y16825D01*
X31984Y16829D01*
X31969D01*
X31958Y16825D01*
X31950Y16817D01*
Y16810D01*
X31954Y16802D01*
X31958Y16798D01*
X31965Y16794D01*
X31988Y16787D01*
X31996Y16783D01*
X32000Y16779D01*
X32003Y16772D01*
Y16760D01*
X31996Y16753D01*
X31984Y16749D01*
X31969D01*
X31958Y16753D01*
X31950Y16760D01*
X32021Y16829D02*
Y16749D01*
X32038Y16829D02*
Y16749D01*
Y16829D02*
X32065D01*
X32076Y16825D01*
X32084Y16817D01*
X32088Y16810D01*
X32091Y16798D01*
Y16779D01*
X32088Y16768D01*
X32084Y16760D01*
X32076Y16753D01*
X32065Y16749D01*
X32038D01*
X32159Y16829D02*
X32109D01*
Y16749D01*
X32159D01*
X32109Y16791D02*
X32140D01*
X32288Y16817D02*
X32281Y16825D01*
X32269Y16829D01*
X32254D01*
X32243Y16825D01*
X32235Y16817D01*
Y16810D01*
X32239Y16802D01*
X32243Y16798D01*
X32250Y16794D01*
X32273Y16787D01*
X32281Y16783D01*
X32284Y16779D01*
X32288Y16772D01*
Y16760D01*
X32281Y16753D01*
X32269Y16749D01*
X32254D01*
X32243Y16753D01*
X32235Y16760D01*
X32329Y16829D02*
X32321Y16825D01*
X32314Y16817D01*
X32310Y16810D01*
X32306Y16798D01*
Y16779D01*
X32310Y16768D01*
X32314Y16760D01*
X32321Y16753D01*
X32329Y16749D01*
X32344D01*
X32352Y16753D01*
X32359Y16760D01*
X32363Y16768D01*
X32367Y16779D01*
Y16798D01*
X32363Y16810D01*
X32359Y16817D01*
X32352Y16825D01*
X32344Y16829D01*
X32329D01*
X32386D02*
Y16749D01*
X32431D01*
X32440Y16829D02*
Y16749D01*
Y16829D02*
X32467D01*
X32478Y16825D01*
X32486Y16817D01*
X32490Y16810D01*
X32494Y16798D01*
Y16779D01*
X32490Y16768D01*
X32486Y16760D01*
X32478Y16753D01*
X32467Y16749D01*
X32440D01*
X32561Y16829D02*
X32511D01*
Y16749D01*
X32561D01*
X32511Y16791D02*
X32542D01*
X32574Y16829D02*
Y16749D01*
Y16829D02*
X32609D01*
X32620Y16825D01*
X32624Y16821D01*
X32628Y16814D01*
Y16806D01*
X32624Y16798D01*
X32620Y16794D01*
X32609Y16791D01*
X32574D01*
X32601D02*
X32628Y16749D01*
X32708Y16787D02*
X32743D01*
X32754Y16791D01*
X32758Y16794D01*
X32762Y16802D01*
Y16814D01*
X32758Y16821D01*
X32754Y16825D01*
X32743Y16829D01*
X32708D01*
Y16749D01*
X32841D02*
X32810Y16829D01*
X32780Y16749D01*
X32791Y16775D02*
X32829D01*
X32912Y16817D02*
X32905Y16825D01*
X32893Y16829D01*
X32878D01*
X32867Y16825D01*
X32859Y16817D01*
Y16810D01*
X32863Y16802D01*
X32867Y16798D01*
X32874Y16794D01*
X32897Y16787D01*
X32905Y16783D01*
X32909Y16779D01*
X32912Y16772D01*
Y16760D01*
X32905Y16753D01*
X32893Y16749D01*
X32878D01*
X32867Y16753D01*
X32859Y16760D01*
X32957Y16829D02*
Y16749D01*
X32930Y16829D02*
X32984D01*
X33043D02*
X32993D01*
Y16749D01*
X33043D01*
X32993Y16791D02*
X33024D01*
X33119Y16829D02*
Y16749D01*
Y16829D02*
X33149Y16749D01*
X33180Y16829D02*
X33149Y16749D01*
X33180Y16829D02*
Y16749D01*
X33264D02*
X33233Y16829D01*
X33203Y16749D01*
X33214Y16775D02*
X33252D01*
X33336Y16817D02*
X33328Y16825D01*
X33317Y16829D01*
X33301D01*
X33290Y16825D01*
X33282Y16817D01*
Y16810D01*
X33286Y16802D01*
X33290Y16798D01*
X33298Y16794D01*
X33320Y16787D01*
X33328Y16783D01*
X33332Y16779D01*
X33336Y16772D01*
Y16760D01*
X33328Y16753D01*
X33317Y16749D01*
X33301D01*
X33290Y16753D01*
X33282Y16760D01*
X33354Y16829D02*
Y16749D01*
X33407Y16829D02*
X33354Y16775D01*
X33373Y16794D02*
X33407Y16749D01*
X31158Y17244D02*
X31166Y17248D01*
X31177Y17259D01*
Y17179D01*
X31270Y17259D02*
X31232Y17179D01*
X31217Y17259D02*
X31270D01*
X31334D02*
X31296D01*
X31292Y17225D01*
X31296Y17229D01*
X31307Y17233D01*
X31319D01*
X31330Y17229D01*
X31338Y17221D01*
X31341Y17210D01*
Y17202D01*
X31338Y17191D01*
X31330Y17183D01*
X31319Y17179D01*
X31307D01*
X31296Y17183D01*
X31292Y17187D01*
X31288Y17195D01*
X31359Y17214D02*
X31428D01*
X31474Y17259D02*
X31463Y17256D01*
X31455Y17244D01*
X31452Y17225D01*
Y17214D01*
X31455Y17195D01*
X31463Y17183D01*
X31474Y17179D01*
X31482D01*
X31493Y17183D01*
X31501Y17195D01*
X31505Y17214D01*
Y17225D01*
X31501Y17244D01*
X31493Y17256D01*
X31482Y17259D01*
X31474D01*
X31546D02*
X31534Y17256D01*
X31527Y17244D01*
X31523Y17225D01*
Y17214D01*
X31527Y17195D01*
X31534Y17183D01*
X31546Y17179D01*
X31553D01*
X31565Y17183D01*
X31572Y17195D01*
X31576Y17214D01*
Y17225D01*
X31572Y17244D01*
X31565Y17256D01*
X31553Y17259D01*
X31546D01*
X31617D02*
X31605Y17256D01*
X31598Y17244D01*
X31594Y17225D01*
Y17214D01*
X31598Y17195D01*
X31605Y17183D01*
X31617Y17179D01*
X31624D01*
X31636Y17183D01*
X31644Y17195D01*
X31647Y17214D01*
Y17225D01*
X31644Y17244D01*
X31636Y17256D01*
X31624Y17259D01*
X31617D01*
X31669Y17240D02*
Y17244D01*
X31673Y17252D01*
X31677Y17256D01*
X31684Y17259D01*
X31700D01*
X31707Y17256D01*
X31711Y17252D01*
X31715Y17244D01*
Y17237D01*
X31711Y17229D01*
X31703Y17217D01*
X31665Y17179D01*
X31719D01*
X31736Y17244D02*
X31744Y17248D01*
X31755Y17259D01*
Y17179D01*
X31858Y17233D02*
Y17179D01*
Y17210D02*
X31862Y17221D01*
X31869Y17229D01*
X31877Y17233D01*
X31888D01*
X31896Y17210D02*
X31941D01*
Y17217D01*
X31938Y17225D01*
X31934Y17229D01*
X31926Y17233D01*
X31915D01*
X31907Y17229D01*
X31899Y17221D01*
X31896Y17210D01*
Y17202D01*
X31899Y17191D01*
X31907Y17183D01*
X31915Y17179D01*
X31926D01*
X31934Y17183D01*
X31941Y17191D01*
X31958Y17233D02*
X31981Y17179D01*
X32004Y17233D02*
X31981Y17179D01*
X32021Y17240D02*
Y17244D01*
X32025Y17252D01*
X32029Y17256D01*
X32036Y17259D01*
X32051D01*
X32059Y17256D01*
X32063Y17252D01*
X32067Y17244D01*
Y17237D01*
X32063Y17229D01*
X32055Y17217D01*
X32017Y17179D01*
X32070D01*
X32096Y17183D02*
X32092Y17179D01*
X32088Y17183D01*
X32092Y17187D01*
X32096Y17183D01*
Y17176D01*
X32092Y17168D01*
X32088Y17164D01*
X32176Y17244D02*
X32184Y17248D01*
X32195Y17259D01*
Y17179D01*
X32235Y17233D02*
Y17179D01*
Y17217D02*
X32246Y17229D01*
X32254Y17233D01*
X32265D01*
X32273Y17229D01*
X32277Y17217D01*
Y17179D01*
Y17217D02*
X32288Y17229D01*
X32296Y17233D01*
X32307D01*
X32315Y17229D01*
X32319Y17217D01*
Y17179D01*
X32407Y17259D02*
Y17179D01*
Y17259D02*
X32456D01*
X32407Y17221D02*
X32437D01*
X32465Y17259D02*
X32484Y17179D01*
X32504Y17259D02*
X32484Y17179D01*
X32504Y17259D02*
X32523Y17179D01*
X32542Y17259D02*
X32523Y17179D01*
X32611Y17248D02*
X32603Y17256D01*
X32592Y17259D01*
X32577D01*
X32565Y17256D01*
X32558Y17248D01*
Y17240D01*
X32561Y17233D01*
X32565Y17229D01*
X32573Y17225D01*
X32596Y17217D01*
X32603Y17214D01*
X32607Y17210D01*
X32611Y17202D01*
Y17191D01*
X32603Y17183D01*
X32592Y17179D01*
X32577D01*
X32565Y17183D01*
X32558Y17191D01*
X32745Y17248D02*
X32737Y17256D01*
X32726Y17259D01*
X32711D01*
X32699Y17256D01*
X32692Y17248D01*
Y17240D01*
X32695Y17233D01*
X32699Y17229D01*
X32707Y17225D01*
X32730Y17217D01*
X32737Y17214D01*
X32741Y17210D01*
X32745Y17202D01*
Y17191D01*
X32737Y17183D01*
X32726Y17179D01*
X32711D01*
X32699Y17183D01*
X32692Y17191D01*
X32763Y17233D02*
Y17195D01*
X32767Y17183D01*
X32774Y17179D01*
X32786D01*
X32793Y17183D01*
X32805Y17195D01*
Y17233D02*
Y17179D01*
X32826Y17233D02*
Y17153D01*
Y17221D02*
X32833Y17229D01*
X32841Y17233D01*
X32852D01*
X32860Y17229D01*
X32868Y17221D01*
X32871Y17210D01*
Y17202D01*
X32868Y17191D01*
X32860Y17183D01*
X32852Y17179D01*
X32841D01*
X32833Y17183D01*
X32826Y17191D01*
X32889Y17210D02*
X32934D01*
Y17217D01*
X32930Y17225D01*
X32927Y17229D01*
X32919Y17233D01*
X32908D01*
X32900Y17229D01*
X32892Y17221D01*
X32889Y17210D01*
Y17202D01*
X32892Y17191D01*
X32900Y17183D01*
X32908Y17179D01*
X32919D01*
X32927Y17183D01*
X32934Y17191D01*
X32951Y17233D02*
Y17179D01*
Y17210D02*
X32955Y17221D01*
X32963Y17229D01*
X32970Y17233D01*
X32982D01*
X32989Y17259D02*
Y17179D01*
Y17259D02*
X33039D01*
X32989Y17221D02*
X33020D01*
X33055Y17259D02*
X33059Y17256D01*
X33063Y17259D01*
X33059Y17263D01*
X33055Y17259D01*
X33059Y17233D02*
Y17179D01*
X33077Y17233D02*
Y17179D01*
Y17217D02*
X33089Y17229D01*
X33096Y17233D01*
X33108D01*
X33115Y17229D01*
X33119Y17217D01*
Y17179D01*
X33264D02*
X33233Y17259D01*
X33203Y17179D01*
X33214Y17206D02*
X33252D01*
X33282Y17233D02*
Y17153D01*
Y17221D02*
X33290Y17229D01*
X33298Y17233D01*
X33309D01*
X33317Y17229D01*
X33324Y17221D01*
X33328Y17210D01*
Y17202D01*
X33324Y17191D01*
X33317Y17183D01*
X33309Y17179D01*
X33298D01*
X33290Y17183D01*
X33282Y17191D01*
X33345Y17233D02*
Y17153D01*
Y17221D02*
X33353Y17229D01*
X33360Y17233D01*
X33372D01*
X33380Y17229D01*
X33387Y17221D01*
X33391Y17210D01*
Y17202D01*
X33387Y17191D01*
X33380Y17183D01*
X33372Y17179D01*
X33360D01*
X33353Y17183D01*
X33345Y17191D01*
X33450Y17221D02*
X33446Y17229D01*
X33435Y17233D01*
X33423D01*
X33412Y17229D01*
X33408Y17221D01*
X33412Y17214D01*
X33420Y17210D01*
X33439Y17206D01*
X33446Y17202D01*
X33450Y17195D01*
Y17191D01*
X33446Y17183D01*
X33435Y17179D01*
X33423D01*
X33412Y17183D01*
X33408Y17191D01*
X33530Y17259D02*
Y17179D01*
Y17259D02*
X33564D01*
X33575Y17256D01*
X33579Y17252D01*
X33583Y17244D01*
Y17237D01*
X33579Y17229D01*
X33575Y17225D01*
X33564Y17221D01*
X33530D02*
X33564D01*
X33575Y17217D01*
X33579Y17214D01*
X33583Y17206D01*
Y17195D01*
X33579Y17187D01*
X33575Y17183D01*
X33564Y17179D01*
X33530D01*
X33620Y17233D02*
X33612Y17229D01*
X33605Y17221D01*
X33601Y17210D01*
Y17202D01*
X33605Y17191D01*
X33612Y17183D01*
X33620Y17179D01*
X33631D01*
X33639Y17183D01*
X33647Y17191D01*
X33650Y17202D01*
Y17210D01*
X33647Y17221D01*
X33639Y17229D01*
X33631Y17233D01*
X33620D01*
X33714D02*
Y17179D01*
Y17221D02*
X33706Y17229D01*
X33698Y17233D01*
X33687D01*
X33679Y17229D01*
X33672Y17221D01*
X33668Y17210D01*
Y17202D01*
X33672Y17191D01*
X33679Y17183D01*
X33687Y17179D01*
X33698D01*
X33706Y17183D01*
X33714Y17191D01*
X33735Y17233D02*
Y17179D01*
Y17210D02*
X33739Y17221D01*
X33746Y17229D01*
X33754Y17233D01*
X33765D01*
X33818Y17259D02*
Y17179D01*
Y17221D02*
X33811Y17229D01*
X33803Y17233D01*
X33792D01*
X33784Y17229D01*
X33776Y17221D01*
X33773Y17210D01*
Y17202D01*
X33776Y17191D01*
X33784Y17183D01*
X33792Y17179D01*
X33803D01*
X33811Y17183D01*
X33818Y17191D01*
D27*
X31158Y17109D02*
Y17029D01*
X31204D01*
X31274D02*
X31243Y17109D01*
X31213Y17029D01*
X31224Y17056D02*
X31262D01*
X31346Y17098D02*
X31338Y17106D01*
X31327Y17109D01*
X31311D01*
X31300Y17106D01*
X31292Y17098D01*
Y17090D01*
X31296Y17083D01*
X31300Y17079D01*
X31308Y17075D01*
X31330Y17067D01*
X31338Y17064D01*
X31342Y17060D01*
X31346Y17052D01*
Y17041D01*
X31338Y17033D01*
X31327Y17029D01*
X31311D01*
X31300Y17033D01*
X31292Y17041D01*
X31484Y17090D02*
X31480Y17098D01*
X31472Y17106D01*
X31465Y17109D01*
X31449D01*
X31442Y17106D01*
X31434Y17098D01*
X31430Y17090D01*
X31426Y17079D01*
Y17060D01*
X31430Y17048D01*
X31434Y17041D01*
X31442Y17033D01*
X31449Y17029D01*
X31465D01*
X31472Y17033D01*
X31480Y17041D01*
X31484Y17048D01*
X31506Y17109D02*
Y17052D01*
X31510Y17041D01*
X31517Y17033D01*
X31529Y17029D01*
X31536D01*
X31548Y17033D01*
X31556Y17041D01*
X31559Y17052D01*
Y17109D01*
X31581D02*
Y17029D01*
Y17109D02*
X31612Y17029D01*
X31642Y17109D02*
X31612Y17029D01*
X31642Y17109D02*
Y17029D01*
X31665Y17109D02*
Y17029D01*
Y17109D02*
X31700D01*
X31711Y17106D01*
X31715Y17102D01*
X31719Y17094D01*
Y17086D01*
X31715Y17079D01*
X31711Y17075D01*
X31700Y17071D01*
X31665D02*
X31700D01*
X31711Y17067D01*
X31715Y17064D01*
X31719Y17056D01*
Y17045D01*
X31715Y17037D01*
X31711Y17033D01*
X31700Y17029D01*
X31665D01*
X31736Y17109D02*
Y17029D01*
Y17109D02*
X31771D01*
X31782Y17106D01*
X31786Y17102D01*
X31790Y17094D01*
Y17086D01*
X31786Y17079D01*
X31782Y17075D01*
X31771Y17071D01*
X31736D01*
X31763D02*
X31790Y17029D01*
X31857Y17109D02*
X31808D01*
Y17029D01*
X31857D01*
X31808Y17071D02*
X31838D01*
X31924Y17098D02*
X31916Y17106D01*
X31905Y17109D01*
X31890D01*
X31878Y17106D01*
X31871Y17098D01*
Y17090D01*
X31874Y17083D01*
X31878Y17079D01*
X31886Y17075D01*
X31909Y17067D01*
X31916Y17064D01*
X31920Y17060D01*
X31924Y17052D01*
Y17041D01*
X31916Y17033D01*
X31905Y17029D01*
X31890D01*
X31878Y17033D01*
X31871Y17041D01*
X32027Y17109D02*
X32020Y17106D01*
X32012Y17098D01*
X32008Y17090D01*
X32005Y17079D01*
Y17060D01*
X32008Y17048D01*
X32012Y17041D01*
X32020Y17033D01*
X32027Y17029D01*
X32043D01*
X32050Y17033D01*
X32058Y17041D01*
X32062Y17048D01*
X32066Y17060D01*
Y17079D01*
X32062Y17090D01*
X32058Y17098D01*
X32050Y17106D01*
X32043Y17109D01*
X32027D01*
X32084D02*
Y17029D01*
Y17109D02*
X32118D01*
X32130Y17106D01*
X32134Y17102D01*
X32138Y17094D01*
Y17086D01*
X32134Y17079D01*
X32130Y17075D01*
X32118Y17071D01*
X32084D02*
X32118D01*
X32130Y17067D01*
X32134Y17064D01*
X32138Y17056D01*
Y17045D01*
X32134Y17037D01*
X32130Y17033D01*
X32118Y17029D01*
X32084D01*
X32209Y17098D02*
X32201Y17106D01*
X32190Y17109D01*
X32174D01*
X32163Y17106D01*
X32155Y17098D01*
Y17090D01*
X32159Y17083D01*
X32163Y17079D01*
X32171Y17075D01*
X32193Y17067D01*
X32201Y17064D01*
X32205Y17060D01*
X32209Y17052D01*
Y17041D01*
X32201Y17033D01*
X32190Y17029D01*
X32174D01*
X32163Y17033D01*
X32155Y17041D01*
X32276Y17109D02*
X32227D01*
Y17029D01*
X32276D01*
X32227Y17071D02*
X32257D01*
X32289Y17109D02*
Y17029D01*
Y17109D02*
X32324D01*
X32335Y17106D01*
X32339Y17102D01*
X32343Y17094D01*
Y17086D01*
X32339Y17079D01*
X32335Y17075D01*
X32324Y17071D01*
X32289D01*
X32316D02*
X32343Y17029D01*
X32361Y17109D02*
X32391Y17029D01*
X32422Y17109D02*
X32391Y17029D01*
X32493D02*
X32462Y17109D01*
X32432Y17029D01*
X32443Y17056D02*
X32481D01*
X32538Y17109D02*
Y17029D01*
X32512Y17109D02*
X32565D01*
X32597D02*
X32590Y17106D01*
X32582Y17098D01*
X32578Y17090D01*
X32574Y17079D01*
Y17060D01*
X32578Y17048D01*
X32582Y17041D01*
X32590Y17033D01*
X32597Y17029D01*
X32612D01*
X32620Y17033D01*
X32628Y17041D01*
X32632Y17048D01*
X32635Y17060D01*
Y17079D01*
X32632Y17090D01*
X32628Y17098D01*
X32620Y17106D01*
X32612Y17109D01*
X32597D01*
X32654D02*
Y17029D01*
Y17109D02*
X32688D01*
X32700Y17106D01*
X32703Y17102D01*
X32707Y17094D01*
Y17086D01*
X32703Y17079D01*
X32700Y17075D01*
X32688Y17071D01*
X32654D01*
X32681D02*
X32707Y17029D01*
X32725Y17109D02*
X32756Y17071D01*
Y17029D01*
X32786Y17109D02*
X32756Y17071D01*
X33149Y17109D02*
X33111Y17056D01*
X33168D01*
X33149Y17109D02*
Y17029D01*
X33182Y17018D02*
X33235Y17109D01*
X33241Y17094D02*
X33248Y17098D01*
X33260Y17109D01*
Y17029D01*
X33303Y17090D02*
Y17094D01*
X33307Y17102D01*
X33311Y17106D01*
X33318Y17109D01*
X33333D01*
X33341Y17106D01*
X33345Y17102D01*
X33349Y17094D01*
Y17086D01*
X33345Y17079D01*
X33337Y17067D01*
X33299Y17029D01*
X33352D01*
X33370Y17018D02*
X33424Y17109D01*
X33433Y17090D02*
Y17094D01*
X33437Y17102D01*
X33440Y17106D01*
X33448Y17109D01*
X33463D01*
X33471Y17106D01*
X33475Y17102D01*
X33479Y17094D01*
Y17086D01*
X33475Y17079D01*
X33467Y17067D01*
X33429Y17029D01*
X33482D01*
X33523Y17109D02*
X33512Y17106D01*
X33504Y17094D01*
X33500Y17075D01*
Y17064D01*
X33504Y17045D01*
X33512Y17033D01*
X33523Y17029D01*
X33531D01*
X33542Y17033D01*
X33550Y17045D01*
X33554Y17064D01*
Y17075D01*
X33550Y17094D01*
X33542Y17106D01*
X33531Y17109D01*
X33523D01*
X33571Y17094D02*
X33579Y17098D01*
X33591Y17109D01*
Y17029D01*
X33630Y17094D02*
X33638Y17098D01*
X33649Y17109D01*
Y17029D01*
M02*
