%FSLAX23Y23*%
%MOIN*%
G70*
G01*
G75*
G04 Layer_Physical_Order=1*
G04 Layer_Color=255*
%ADD10R,0.020X0.024*%
%ADD11R,0.025X0.100*%
%ADD12R,0.057X0.012*%
%ADD13R,0.025X0.185*%
%ADD14R,0.024X0.020*%
%ADD15R,0.050X0.050*%
%ADD16R,0.050X0.050*%
%ADD17C,0.005*%
%ADD18C,0.010*%
%ADD19C,0.012*%
%ADD20C,0.008*%
%ADD21C,0.012*%
%ADD22C,0.012*%
%ADD23C,0.200*%
%ADD24C,0.039*%
%ADD25C,0.059*%
%ADD26R,0.059X0.059*%
%ADD27R,0.059X0.059*%
%ADD28C,0.020*%
%ADD29C,0.080*%
%ADD30C,0.010*%
D10*
X31108Y23406D02*
D03*
X31073D02*
D03*
X29067Y18338D02*
D03*
X29032D02*
D03*
X29057Y18538D02*
D03*
X29022D02*
D03*
X29062Y18738D02*
D03*
X29027D02*
D03*
X29062Y18938D02*
D03*
X29027D02*
D03*
X29072Y19148D02*
D03*
X29037D02*
D03*
X29072Y19343D02*
D03*
X29037D02*
D03*
X29077Y19538D02*
D03*
X29042D02*
D03*
X29077Y19738D02*
D03*
X29042D02*
D03*
X29067Y19943D02*
D03*
X29032D02*
D03*
X29057Y20143D02*
D03*
X29022D02*
D03*
X29052Y20338D02*
D03*
X29017D02*
D03*
X29052Y20543D02*
D03*
X29017D02*
D03*
X29052Y20738D02*
D03*
X29017D02*
D03*
X29052Y20943D02*
D03*
X29017D02*
D03*
X29048Y21139D02*
D03*
X29013D02*
D03*
X33015Y23376D02*
D03*
X32980D02*
D03*
X32915D02*
D03*
X32880D02*
D03*
X32980Y23416D02*
D03*
X33015D02*
D03*
X32877D02*
D03*
X32913D02*
D03*
X31411Y23368D02*
D03*
X31375D02*
D03*
X31311D02*
D03*
X31275D02*
D03*
X31375Y23408D02*
D03*
X31411D02*
D03*
X31211Y23368D02*
D03*
X31175D02*
D03*
X31275Y23408D02*
D03*
X31311D02*
D03*
X31111Y23368D02*
D03*
X31075D02*
D03*
X31175Y23408D02*
D03*
X31211D02*
D03*
X30911Y23368D02*
D03*
X30875D02*
D03*
X30811D02*
D03*
X30775D02*
D03*
X30875Y23408D02*
D03*
X30911D02*
D03*
X30711Y23368D02*
D03*
X30675D02*
D03*
X30775Y23408D02*
D03*
X30811D02*
D03*
X30675Y23405D02*
D03*
X30710D02*
D03*
X30411Y23370D02*
D03*
X30376D02*
D03*
X30311D02*
D03*
X30276D02*
D03*
X30376Y23410D02*
D03*
X30411D02*
D03*
X30211Y23375D02*
D03*
X30176D02*
D03*
X30276Y23410D02*
D03*
X30311D02*
D03*
X30111Y23377D02*
D03*
X30076D02*
D03*
X30177Y23413D02*
D03*
X30212D02*
D03*
X30576Y23366D02*
D03*
X30611D02*
D03*
X30612Y23403D02*
D03*
X30577D02*
D03*
X30107Y23414D02*
D03*
X30072D02*
D03*
X33165Y20979D02*
D03*
X33130D02*
D03*
X33165Y20779D02*
D03*
X33130D02*
D03*
X33165Y20579D02*
D03*
X33130D02*
D03*
X33165Y20379D02*
D03*
X33130D02*
D03*
X33165Y20179D02*
D03*
X33130D02*
D03*
X33165Y19979D02*
D03*
X33130D02*
D03*
X33165Y19779D02*
D03*
X33130D02*
D03*
X33165Y19579D02*
D03*
X33130D02*
D03*
X33165Y19379D02*
D03*
X33130D02*
D03*
X33165Y19179D02*
D03*
X33130D02*
D03*
X33165Y18979D02*
D03*
X33130D02*
D03*
X30600Y18085D02*
D03*
X30635D02*
D03*
X30500D02*
D03*
X30535D02*
D03*
X30635Y18135D02*
D03*
X30600D02*
D03*
X30535D02*
D03*
X30500D02*
D03*
X30400Y18085D02*
D03*
X30435D02*
D03*
X30284Y18130D02*
D03*
X30319D02*
D03*
X30435Y18135D02*
D03*
X30400D02*
D03*
X30319Y18080D02*
D03*
X30284D02*
D03*
D11*
X31151Y19978D02*
D03*
Y20100D02*
D03*
Y20765D02*
D03*
Y19313D02*
D03*
X30361Y19978D02*
D03*
Y20100D02*
D03*
Y20765D02*
D03*
Y19313D02*
D03*
D12*
X31272Y20718D02*
D03*
Y20698D02*
D03*
Y20679D02*
D03*
Y20659D02*
D03*
Y20639D02*
D03*
Y20620D02*
D03*
Y20600D02*
D03*
Y20580D02*
D03*
Y20561D02*
D03*
Y20541D02*
D03*
Y20521D02*
D03*
Y20501D02*
D03*
Y20482D02*
D03*
Y20462D02*
D03*
Y20442D02*
D03*
Y20423D02*
D03*
Y20403D02*
D03*
Y20383D02*
D03*
Y20364D02*
D03*
Y20344D02*
D03*
Y20324D02*
D03*
Y20305D02*
D03*
Y20285D02*
D03*
Y20265D02*
D03*
Y20246D02*
D03*
Y20226D02*
D03*
Y20206D02*
D03*
Y20187D02*
D03*
Y20167D02*
D03*
Y20147D02*
D03*
Y19931D02*
D03*
Y19911D02*
D03*
Y19891D02*
D03*
Y19872D02*
D03*
Y19852D02*
D03*
Y19832D02*
D03*
Y19812D02*
D03*
Y19793D02*
D03*
Y19773D02*
D03*
Y19753D02*
D03*
Y19734D02*
D03*
Y19714D02*
D03*
Y19694D02*
D03*
Y19675D02*
D03*
Y19655D02*
D03*
Y19635D02*
D03*
Y19616D02*
D03*
Y19596D02*
D03*
Y19576D02*
D03*
Y19557D02*
D03*
Y19537D02*
D03*
Y19517D02*
D03*
Y19498D02*
D03*
Y19478D02*
D03*
Y19458D02*
D03*
Y19438D02*
D03*
Y19419D02*
D03*
Y19399D02*
D03*
Y19379D02*
D03*
Y19360D02*
D03*
X31029Y20718D02*
D03*
Y20698D02*
D03*
Y20679D02*
D03*
Y20659D02*
D03*
Y20639D02*
D03*
Y20620D02*
D03*
Y20600D02*
D03*
Y20580D02*
D03*
Y20561D02*
D03*
Y20541D02*
D03*
Y20521D02*
D03*
Y20501D02*
D03*
Y20482D02*
D03*
Y20462D02*
D03*
Y20442D02*
D03*
Y20423D02*
D03*
Y20403D02*
D03*
Y20383D02*
D03*
Y20364D02*
D03*
Y20344D02*
D03*
Y20324D02*
D03*
Y20305D02*
D03*
Y20285D02*
D03*
Y20265D02*
D03*
Y20246D02*
D03*
Y20226D02*
D03*
Y20206D02*
D03*
Y20187D02*
D03*
Y20167D02*
D03*
Y20147D02*
D03*
Y19931D02*
D03*
Y19911D02*
D03*
Y19891D02*
D03*
Y19872D02*
D03*
Y19852D02*
D03*
Y19832D02*
D03*
Y19812D02*
D03*
Y19793D02*
D03*
Y19773D02*
D03*
Y19753D02*
D03*
Y19734D02*
D03*
Y19714D02*
D03*
Y19694D02*
D03*
Y19675D02*
D03*
Y19655D02*
D03*
Y19635D02*
D03*
Y19616D02*
D03*
Y19596D02*
D03*
Y19576D02*
D03*
Y19557D02*
D03*
Y19537D02*
D03*
Y19517D02*
D03*
Y19498D02*
D03*
Y19478D02*
D03*
Y19458D02*
D03*
Y19438D02*
D03*
Y19419D02*
D03*
Y19399D02*
D03*
Y19379D02*
D03*
Y19360D02*
D03*
X30482Y20718D02*
D03*
Y20698D02*
D03*
Y20679D02*
D03*
Y20659D02*
D03*
Y20639D02*
D03*
Y20620D02*
D03*
Y20600D02*
D03*
Y20580D02*
D03*
Y20561D02*
D03*
Y20541D02*
D03*
Y20521D02*
D03*
Y20501D02*
D03*
Y20482D02*
D03*
Y20462D02*
D03*
Y20442D02*
D03*
Y20423D02*
D03*
Y20403D02*
D03*
Y20383D02*
D03*
Y20364D02*
D03*
Y20344D02*
D03*
Y20324D02*
D03*
Y20305D02*
D03*
Y20285D02*
D03*
Y20265D02*
D03*
Y20246D02*
D03*
Y20226D02*
D03*
Y20206D02*
D03*
Y20187D02*
D03*
Y20167D02*
D03*
Y20147D02*
D03*
Y19931D02*
D03*
Y19911D02*
D03*
Y19891D02*
D03*
Y19872D02*
D03*
Y19852D02*
D03*
Y19832D02*
D03*
Y19812D02*
D03*
Y19793D02*
D03*
Y19773D02*
D03*
Y19753D02*
D03*
Y19734D02*
D03*
Y19714D02*
D03*
Y19694D02*
D03*
Y19675D02*
D03*
Y19655D02*
D03*
Y19635D02*
D03*
Y19616D02*
D03*
Y19596D02*
D03*
Y19576D02*
D03*
Y19557D02*
D03*
Y19537D02*
D03*
Y19517D02*
D03*
Y19498D02*
D03*
Y19478D02*
D03*
Y19458D02*
D03*
Y19438D02*
D03*
Y19419D02*
D03*
Y19399D02*
D03*
Y19379D02*
D03*
Y19360D02*
D03*
X30239Y20718D02*
D03*
Y20698D02*
D03*
Y20679D02*
D03*
Y20659D02*
D03*
Y20639D02*
D03*
Y20620D02*
D03*
Y20600D02*
D03*
Y20580D02*
D03*
Y20561D02*
D03*
Y20541D02*
D03*
Y20521D02*
D03*
Y20501D02*
D03*
Y20482D02*
D03*
Y20462D02*
D03*
Y20442D02*
D03*
Y20423D02*
D03*
Y20403D02*
D03*
Y20383D02*
D03*
Y20364D02*
D03*
Y20344D02*
D03*
Y20324D02*
D03*
Y20305D02*
D03*
Y20285D02*
D03*
Y20265D02*
D03*
Y20246D02*
D03*
Y20226D02*
D03*
Y20206D02*
D03*
Y20187D02*
D03*
Y20167D02*
D03*
Y20147D02*
D03*
Y19931D02*
D03*
Y19911D02*
D03*
Y19891D02*
D03*
Y19872D02*
D03*
Y19852D02*
D03*
Y19832D02*
D03*
Y19812D02*
D03*
Y19793D02*
D03*
Y19773D02*
D03*
Y19753D02*
D03*
Y19734D02*
D03*
Y19714D02*
D03*
Y19694D02*
D03*
Y19675D02*
D03*
Y19655D02*
D03*
Y19635D02*
D03*
Y19616D02*
D03*
Y19596D02*
D03*
Y19576D02*
D03*
Y19557D02*
D03*
Y19537D02*
D03*
Y19517D02*
D03*
Y19498D02*
D03*
Y19478D02*
D03*
Y19458D02*
D03*
Y19438D02*
D03*
Y19419D02*
D03*
Y19399D02*
D03*
Y19379D02*
D03*
Y19360D02*
D03*
D13*
X31151Y20558D02*
D03*
Y20308D02*
D03*
Y19520D02*
D03*
Y19770D02*
D03*
X30361Y20558D02*
D03*
Y20308D02*
D03*
Y19520D02*
D03*
Y19770D02*
D03*
D14*
X28669Y18202D02*
D03*
Y18238D02*
D03*
X28664Y18376D02*
D03*
Y18340D02*
D03*
X28629Y18238D02*
D03*
Y18202D02*
D03*
X28664Y18476D02*
D03*
Y18440D02*
D03*
X28618Y18339D02*
D03*
Y18374D02*
D03*
X28664Y18571D02*
D03*
Y18535D02*
D03*
X28624Y18434D02*
D03*
Y18469D02*
D03*
X28616Y18534D02*
D03*
Y18569D02*
D03*
X28664Y18771D02*
D03*
Y18735D02*
D03*
X28659Y18871D02*
D03*
Y18835D02*
D03*
X28624Y18735D02*
D03*
Y18771D02*
D03*
X28664Y18976D02*
D03*
Y18940D02*
D03*
X28621Y18835D02*
D03*
Y18871D02*
D03*
X28669Y19071D02*
D03*
Y19035D02*
D03*
X28623Y18939D02*
D03*
Y18974D02*
D03*
X28632Y19031D02*
D03*
Y19067D02*
D03*
X28664Y19271D02*
D03*
Y19235D02*
D03*
X28669Y19371D02*
D03*
Y19335D02*
D03*
X28623Y19234D02*
D03*
Y19269D02*
D03*
X28664Y19471D02*
D03*
Y19435D02*
D03*
X28629Y19335D02*
D03*
Y19371D02*
D03*
X28669Y19581D02*
D03*
Y19545D02*
D03*
X28625Y19435D02*
D03*
Y19471D02*
D03*
X28628Y19543D02*
D03*
Y19579D02*
D03*
X28669Y19776D02*
D03*
Y19740D02*
D03*
X28674Y19876D02*
D03*
Y19840D02*
D03*
X28632Y19739D02*
D03*
Y19774D02*
D03*
X28669Y19971D02*
D03*
Y19935D02*
D03*
X28636Y19839D02*
D03*
Y19874D02*
D03*
X28669Y20071D02*
D03*
Y20035D02*
D03*
X28629Y19935D02*
D03*
Y19971D02*
D03*
Y20034D02*
D03*
Y20069D02*
D03*
X28665Y20271D02*
D03*
Y20236D02*
D03*
X28669Y20371D02*
D03*
Y20335D02*
D03*
X28624Y20235D02*
D03*
Y20271D02*
D03*
X28664Y20471D02*
D03*
Y20435D02*
D03*
X28629Y20335D02*
D03*
Y20371D02*
D03*
X28664Y20576D02*
D03*
Y20540D02*
D03*
X28624Y20435D02*
D03*
Y20471D02*
D03*
Y20538D02*
D03*
Y20573D02*
D03*
X28619Y21000D02*
D03*
Y21036D02*
D03*
X28625Y21102D02*
D03*
Y21138D02*
D03*
X28659Y21036D02*
D03*
Y21000D02*
D03*
X28665Y21138D02*
D03*
Y21102D02*
D03*
X32877Y23784D02*
D03*
Y23748D02*
D03*
X32677Y23784D02*
D03*
Y23748D02*
D03*
X32574Y23396D02*
D03*
Y23432D02*
D03*
X32477Y23781D02*
D03*
Y23746D02*
D03*
X32376Y23396D02*
D03*
Y23432D02*
D03*
X32277Y23781D02*
D03*
Y23746D02*
D03*
X32077Y23784D02*
D03*
Y23748D02*
D03*
X31877Y23784D02*
D03*
Y23748D02*
D03*
X31677Y23784D02*
D03*
Y23748D02*
D03*
X31477Y23784D02*
D03*
Y23748D02*
D03*
X31277Y23784D02*
D03*
Y23748D02*
D03*
X31075Y23784D02*
D03*
Y23748D02*
D03*
X30877Y23784D02*
D03*
Y23748D02*
D03*
X30676Y23785D02*
D03*
Y23749D02*
D03*
X30477Y23784D02*
D03*
Y23748D02*
D03*
X30277Y23784D02*
D03*
Y23748D02*
D03*
X30077Y23784D02*
D03*
Y23748D02*
D03*
X33092Y18117D02*
D03*
Y18153D02*
D03*
X32692Y17592D02*
D03*
Y17628D02*
D03*
X32592Y17592D02*
D03*
Y17628D02*
D03*
X32492Y17592D02*
D03*
Y17628D02*
D03*
X32392Y17592D02*
D03*
Y17628D02*
D03*
X32292Y17592D02*
D03*
Y17628D02*
D03*
Y18117D02*
D03*
Y18153D02*
D03*
X32192Y17592D02*
D03*
Y17628D02*
D03*
X32092Y17592D02*
D03*
Y17628D02*
D03*
Y18117D02*
D03*
Y18153D02*
D03*
X31992Y17592D02*
D03*
Y17628D02*
D03*
X31892Y17592D02*
D03*
Y17628D02*
D03*
Y18117D02*
D03*
Y18153D02*
D03*
X31792Y17592D02*
D03*
Y17628D02*
D03*
X31692Y17592D02*
D03*
Y17628D02*
D03*
Y18117D02*
D03*
Y18153D02*
D03*
X31592Y17592D02*
D03*
Y17628D02*
D03*
X31492Y17592D02*
D03*
Y17628D02*
D03*
Y18117D02*
D03*
Y18153D02*
D03*
X31392Y17592D02*
D03*
Y17628D02*
D03*
X31292Y17592D02*
D03*
Y17628D02*
D03*
Y18117D02*
D03*
Y18153D02*
D03*
X31192Y17592D02*
D03*
Y17628D02*
D03*
X31092Y18117D02*
D03*
Y18153D02*
D03*
X30892Y18117D02*
D03*
Y18153D02*
D03*
X32274Y23434D02*
D03*
Y23398D02*
D03*
X32175Y23434D02*
D03*
Y23398D02*
D03*
X32075Y23434D02*
D03*
Y23398D02*
D03*
X31975Y23430D02*
D03*
Y23395D02*
D03*
X31877Y23427D02*
D03*
Y23391D02*
D03*
X31775Y23429D02*
D03*
Y23393D02*
D03*
X31675Y23429D02*
D03*
Y23393D02*
D03*
X31575Y23430D02*
D03*
Y23395D02*
D03*
D15*
X33072Y20984D02*
D03*
Y21074D02*
D03*
Y20784D02*
D03*
Y20874D02*
D03*
Y20584D02*
D03*
Y20674D02*
D03*
Y20384D02*
D03*
Y20474D02*
D03*
Y20184D02*
D03*
Y20274D02*
D03*
Y19984D02*
D03*
Y20074D02*
D03*
Y19784D02*
D03*
Y19874D02*
D03*
Y19584D02*
D03*
Y19674D02*
D03*
Y19384D02*
D03*
Y19474D02*
D03*
Y19184D02*
D03*
Y19274D02*
D03*
Y18984D02*
D03*
Y19074D02*
D03*
X32692Y17695D02*
D03*
Y17785D02*
D03*
X32592Y17690D02*
D03*
Y17780D02*
D03*
X32492Y17690D02*
D03*
Y17780D02*
D03*
X32392Y17690D02*
D03*
Y17780D02*
D03*
X32292Y17690D02*
D03*
Y17780D02*
D03*
X32192Y17690D02*
D03*
Y17780D02*
D03*
X32092Y17690D02*
D03*
Y17780D02*
D03*
X31992Y17690D02*
D03*
Y17780D02*
D03*
X31892Y17690D02*
D03*
Y17780D02*
D03*
X31792Y17690D02*
D03*
Y17780D02*
D03*
X31692Y17690D02*
D03*
Y17780D02*
D03*
X31592Y17690D02*
D03*
Y17780D02*
D03*
X31492Y17690D02*
D03*
Y17780D02*
D03*
X31392Y17690D02*
D03*
Y17780D02*
D03*
X31292Y17690D02*
D03*
Y17780D02*
D03*
X31192Y17690D02*
D03*
Y17780D02*
D03*
D16*
X33097Y18210D02*
D03*
X33187D02*
D03*
D17*
X31190Y20507D02*
X31204Y20521D01*
X30417Y19730D02*
X30421Y19734D01*
X30570Y20265D02*
X30582Y20277D01*
X30482Y20265D02*
X30570D01*
X30417Y19793D02*
X30482D01*
X30389Y19521D02*
X30398Y19513D01*
X29064Y21114D02*
X29074Y21104D01*
X30570Y20489D02*
Y20501D01*
X30570Y20460D02*
X30583Y20447D01*
X30570Y20489D02*
X30570Y20489D01*
X30482Y20482D02*
X30551D01*
X30561Y20472D01*
X30560Y20402D02*
X30560D01*
X30561Y20403D01*
X30577Y20422D02*
Y20429D01*
X30586Y20541D02*
X30588Y20543D01*
X30570Y20521D02*
Y20524D01*
Y20521D02*
X30570Y20521D01*
X30568Y20459D02*
X30570Y20462D01*
X30564Y20442D02*
X30577Y20429D01*
X30482Y20442D02*
X30564D01*
X30559Y20421D02*
X30560D01*
X30561Y20423D01*
X30570Y20460D02*
Y20462D01*
X30559Y20564D02*
X30566Y20557D01*
X30560Y20595D02*
X30569D01*
X30555Y20600D02*
X30560Y20595D01*
X30482Y20659D02*
X30570D01*
X30586Y20541D02*
X30586D01*
X30582Y20545D02*
X30586Y20541D01*
X30569Y20595D02*
X30570Y20596D01*
X30590Y20570D02*
X30590D01*
X30586Y20574D02*
X30590Y20570D01*
X30482Y20364D02*
X30561D01*
X30571Y20246D02*
X30571Y20246D01*
X30482Y20285D02*
X30561D01*
X30482Y20305D02*
X30561D01*
X30482Y20246D02*
X30571D01*
X30482Y20324D02*
X30561D01*
X30482Y20403D02*
X30561D01*
X30485Y20459D02*
X30568D01*
X30558Y20472D02*
X30561D01*
X30574Y20537D02*
X30582Y20545D01*
X30574Y20537D02*
X30574D01*
X30572Y20539D02*
X30574Y20537D01*
X30572Y20539D02*
X30572D01*
X30571Y20539D02*
X30572Y20539D01*
X30561Y20539D02*
X30571D01*
X30558Y20541D02*
X30561Y20539D01*
X30482Y20462D02*
X30485Y20459D01*
X30570Y20579D02*
X30579Y20570D01*
X30570Y20579D02*
Y20580D01*
X30482D02*
X30570D01*
X30582Y20570D02*
X30586Y20574D01*
X30579Y20570D02*
X30582D01*
X30562Y20646D02*
X30563Y20645D01*
X30570Y20596D02*
Y20600D01*
X30482Y20541D02*
X30558D01*
X30482Y20639D02*
X30570D01*
X30565Y20645D02*
X30570Y20639D01*
X30482Y20501D02*
X30570D01*
X30566Y20556D02*
X30570Y20561D01*
X30922Y20662D02*
X30925Y20659D01*
X30925Y20639D02*
X31029D01*
X30922Y20642D02*
X30925Y20639D01*
X30926Y20718D02*
X31029D01*
X30922Y20722D02*
X30926Y20718D01*
X30922Y20682D02*
X30926Y20679D01*
X30925Y20659D02*
X31029D01*
X30922Y20622D02*
X30925Y20620D01*
X30926Y20698D02*
X31029D01*
X30922Y20702D02*
X30926Y20698D01*
X30926Y20679D02*
X31029D01*
X30924Y20561D02*
X31029D01*
X30922Y20582D02*
X30924Y20580D01*
X30922Y20562D02*
X30924Y20561D01*
X30923Y20541D02*
X31029D01*
X30922Y20542D02*
X30923Y20541D01*
X30925Y20620D02*
X31029D01*
X30922Y20522D02*
X30923Y20521D01*
X30924Y20580D02*
X31029D01*
X30313Y20698D02*
X30313Y20699D01*
X30313Y20659D02*
X30313Y20659D01*
X29833Y21507D02*
Y23841D01*
X29813Y21487D02*
X29833Y21507D01*
X29823Y21512D02*
Y23845D01*
X29798Y21487D02*
X29823Y21512D01*
X29813Y21517D02*
Y23849D01*
X29783Y21487D02*
X29813Y21517D01*
X29803Y21522D02*
Y23853D01*
X29768Y21487D02*
X29803Y21522D01*
X29813Y21484D02*
Y21487D01*
X29783Y21484D02*
Y21487D01*
X29843D02*
X29853Y21497D01*
X29843Y21484D02*
Y21487D01*
X29828D02*
X29843Y21502D01*
X29828Y21484D02*
Y21487D01*
X29883Y21492D02*
Y23820D01*
Y21492D02*
X29888Y21487D01*
X29893Y21497D02*
Y23816D01*
Y21497D02*
X29903Y21487D01*
Y21502D02*
X29918Y21487D01*
X29903Y21502D02*
Y23812D01*
X29913Y21507D02*
X29933Y21487D01*
X29913Y21507D02*
Y23807D01*
X29923Y21512D02*
Y23803D01*
Y21512D02*
X29948Y21487D01*
X29933Y21517D02*
X29963Y21487D01*
X29933Y21517D02*
Y23799D01*
X29943Y21522D02*
Y23795D01*
Y21522D02*
X29978Y21487D01*
X29863Y21492D02*
Y23828D01*
X29858Y21487D02*
X29863Y21492D01*
X29903Y21484D02*
Y21487D01*
X29933Y21484D02*
Y21487D01*
X29853Y21497D02*
Y23832D01*
X29843Y21502D02*
Y23836D01*
X31117Y19458D02*
X31117Y19458D01*
X32274Y23315D02*
Y23398D01*
X32175Y23315D02*
Y23398D01*
X32075Y23315D02*
Y23398D01*
X31975Y23315D02*
Y23395D01*
X31575Y23315D02*
Y23395D01*
X31675Y23315D02*
Y23393D01*
X31775Y23315D02*
Y23393D01*
X31877Y23315D02*
Y23391D01*
X32275Y23430D02*
Y23540D01*
X30482Y20423D02*
X30561D01*
X30482Y20383D02*
X30561D01*
X30482Y20344D02*
X30561D01*
X32075Y23434D02*
Y23540D01*
X32175Y23434D02*
Y23540D01*
X30815Y22586D02*
Y22732D01*
X30660Y22431D02*
X30815Y22586D01*
X30576Y22431D02*
X30660D01*
X30805Y22591D02*
Y22822D01*
X30661Y22446D02*
X30805Y22591D01*
X30576Y22446D02*
X30661D01*
X30795Y22595D02*
Y22912D01*
X30662Y22461D02*
X30795Y22595D01*
X30576Y22461D02*
X30662D01*
X30785Y22599D02*
Y23002D01*
X30662Y22476D02*
X30785Y22599D01*
X30576Y22476D02*
X30662D01*
X30775Y22603D02*
Y23192D01*
X30663Y22491D02*
X30775Y22603D01*
X30576Y22491D02*
X30663D01*
X30765Y22607D02*
Y23282D01*
X30664Y22506D02*
X30765Y22607D01*
X30576Y22506D02*
X30664D01*
X30755Y22611D02*
Y23282D01*
X30665Y22521D02*
X30755Y22611D01*
X30576Y22521D02*
X30665D01*
X30745Y22615D02*
Y23192D01*
X30666Y22536D02*
X30745Y22615D01*
X30576Y22536D02*
X30666D01*
X30735Y22620D02*
Y23003D01*
X30667Y22551D02*
X30735Y22620D01*
X30576Y22551D02*
X30667D01*
X30725Y22624D02*
Y22913D01*
X30668Y22566D02*
X30725Y22624D01*
X30576Y22566D02*
X30668D01*
X30715Y22628D02*
Y22822D01*
X30668Y22581D02*
X30715Y22628D01*
X30576Y22581D02*
X30668D01*
X30705Y22632D02*
Y22732D01*
X30669Y22596D02*
X30705Y22632D01*
X30576Y22596D02*
X30669D01*
X30482Y20718D02*
X30570D01*
X32175Y23430D02*
Y23434D01*
X32075Y23430D02*
Y23434D01*
X30482Y20226D02*
X30570D01*
Y20231D01*
X30482Y20206D02*
X30571D01*
X31975Y23430D02*
Y23540D01*
X31875Y23430D02*
Y23540D01*
X31775Y23430D02*
Y23540D01*
X31675Y23430D02*
Y23540D01*
X31575Y23430D02*
Y23540D01*
X33376Y21967D02*
Y22604D01*
Y21967D02*
X33422Y21921D01*
Y21879D02*
Y21921D01*
X33573Y21872D02*
Y22801D01*
X33480Y21779D02*
X33573Y21872D01*
X33422Y21779D02*
X33480D01*
X30111Y23377D02*
X30111Y23377D01*
X30110Y23378D02*
X30111Y23377D01*
X30060Y23525D02*
X30075Y23540D01*
X30110Y23414D02*
X30110Y23414D01*
X32375Y23434D02*
Y23540D01*
X32575Y23434D02*
Y23540D01*
X31375Y23368D02*
Y23408D01*
X31175Y23368D02*
Y23408D01*
Y23540D01*
X31075Y23368D02*
Y23408D01*
Y23540D01*
X30875Y23408D02*
Y23540D01*
X30775Y23368D02*
Y23408D01*
Y23540D01*
X30675Y23368D02*
Y23408D01*
Y23540D01*
X30482Y20167D02*
X30570D01*
X30482Y20187D02*
X30570D01*
X30571Y20206D02*
X30571Y20206D01*
X30570Y20167D02*
X30579Y20176D01*
X30128Y20403D02*
X30239D01*
X30128Y20383D02*
X30239D01*
X30128Y20364D02*
X30239D01*
X30128Y20344D02*
X30239D01*
X30128Y20324D02*
X30239D01*
X30128Y20305D02*
X30239D01*
X30128Y20285D02*
X30239D01*
X30128Y20265D02*
X30239D01*
X30128Y20246D02*
X30239D01*
X30128Y20226D02*
X30239D01*
X30128Y20206D02*
X30239D01*
X30128Y20187D02*
X30239D01*
X30128Y20167D02*
X30239D01*
X30128Y20147D02*
X30239D01*
X30128Y20482D02*
X30239D01*
X30128Y20521D02*
X30239D01*
X30128Y20541D02*
X30239D01*
X30128Y20561D02*
X30239D01*
X30128Y20580D02*
X30239D01*
X30128Y20600D02*
X30239D01*
X30128Y20620D02*
X30239D01*
X30128Y20639D02*
X30239D01*
X30128Y20679D02*
X30239D01*
X30128Y20698D02*
X30239D01*
X30128Y20718D02*
X30239D01*
X31275Y23408D02*
Y23540D01*
X32877Y23784D02*
Y23846D01*
X32677Y23784D02*
Y23846D01*
X32477Y23784D02*
Y23846D01*
X32277Y23784D02*
Y23846D01*
X32077Y23784D02*
Y23846D01*
X31877Y23784D02*
Y23846D01*
X31677Y23784D02*
Y23846D01*
X30677Y23784D02*
Y23846D01*
X30877Y23784D02*
Y23846D01*
X31077Y23784D02*
Y23846D01*
X31277Y23784D02*
Y23846D01*
X31477Y23784D02*
Y23846D01*
X32875Y23640D02*
Y23746D01*
X32675Y23640D02*
Y23746D01*
X32075Y23640D02*
Y23746D01*
X31875Y23640D02*
Y23746D01*
X31675Y23640D02*
Y23746D01*
X30675Y23640D02*
Y23746D01*
X30875Y23640D02*
Y23746D01*
X31075Y23640D02*
Y23746D01*
X31275Y23640D02*
Y23746D01*
X31475Y23640D02*
Y23746D01*
X29545Y23418D02*
X29548Y23415D01*
X29535Y23407D02*
X29538Y23404D01*
X29524Y23397D02*
X29528Y23392D01*
X29513Y23386D02*
X29518Y23381D01*
X29503Y23375D02*
X29508Y23370D01*
X29492Y23365D02*
X29498Y23359D01*
X29481Y23354D02*
X29488Y23348D01*
X29471Y23344D02*
X29478Y23336D01*
X29460Y23333D02*
X29468Y23325D01*
X29450Y23322D02*
X29458Y23314D01*
X29439Y23312D02*
X29448Y23303D01*
X29428Y23301D02*
X29438Y23291D01*
X29418Y23291D02*
X29428Y23280D01*
X29397Y23269D02*
X29408Y23258D01*
X29556Y23429D02*
X29558Y23426D01*
X29568Y23423D02*
X29568Y23423D01*
X29566Y23439D02*
X29568Y23437D01*
Y23423D02*
Y23437D01*
X29577Y23450D02*
X29579Y23448D01*
X29588Y23460D02*
X29589Y23458D01*
X29598Y23471D02*
X29600Y23469D01*
X29609Y23482D02*
X29611Y23480D01*
X29619Y23492D02*
X29621Y23490D01*
X29630Y23503D02*
X29632Y23501D01*
X29641Y23513D02*
X29642Y23511D01*
X29651Y23524D02*
X29653Y23522D01*
X29662Y23535D02*
X29664Y23533D01*
X29672Y23545D02*
X29674Y23543D01*
X32275Y23640D02*
Y23746D01*
X32475Y23640D02*
Y23746D01*
X30477Y23784D02*
Y23846D01*
X30277Y23784D02*
Y23846D01*
X30475Y23640D02*
Y23746D01*
X30075D02*
X30077Y23748D01*
X30075Y23640D02*
Y23746D01*
X30275Y23640D02*
Y23746D01*
X30077Y23784D02*
Y23846D01*
X30043Y23880D02*
X30077Y23846D01*
X30028Y23880D02*
X30043D01*
X30233Y23890D02*
X30277Y23846D01*
X30423Y23900D02*
X30477Y23846D01*
X30020Y23900D02*
X30423D01*
X30613Y23910D02*
X30677Y23846D01*
X30016Y23910D02*
X30613D01*
X30803Y23920D02*
X30877Y23846D01*
X30012Y23920D02*
X30803D01*
X30993Y23930D02*
X31077Y23846D01*
X30008Y23930D02*
X30993D01*
X31183Y23940D02*
X31277Y23846D01*
X30003Y23940D02*
X31183D01*
X31373Y23950D02*
X31477Y23846D01*
X31563Y23960D02*
X31677Y23846D01*
X29995Y23960D02*
X31563D01*
X31753Y23970D02*
X31877Y23846D01*
X29991Y23970D02*
X31753D01*
X31943Y23980D02*
X32077Y23846D01*
X29987Y23980D02*
X31943D01*
X32133Y23990D02*
X32277Y23846D01*
X29983Y23990D02*
X32133D01*
X32323Y24000D02*
X32477Y23846D01*
X29979Y24000D02*
X32323D01*
X32513Y24010D02*
X32677Y23846D01*
X29974Y24010D02*
X32513D01*
X32703Y24020D02*
X32877Y23846D01*
X29970Y24020D02*
X32703D01*
X30024Y23890D02*
X30233D01*
X29999Y23950D02*
X31373D01*
X29683Y23556D02*
X29685Y23554D01*
X29694Y23566D02*
X29696Y23565D01*
X29704Y23577D02*
X29706Y23575D01*
X29858Y21484D02*
Y21487D01*
X29798Y21484D02*
Y21487D01*
X29768Y21484D02*
Y21487D01*
X29888Y21484D02*
Y21487D01*
X29918Y21484D02*
Y21487D01*
X29948Y21484D02*
Y21487D01*
X29963Y21484D02*
Y21487D01*
X29978Y21484D02*
Y21487D01*
X30128Y20659D02*
X30239D01*
X30128Y20718D02*
Y20724D01*
Y20679D02*
X30134Y20684D01*
X30135D01*
X30128Y20639D02*
X30134Y20645D01*
X30135D01*
X30128Y20600D02*
X30134Y20605D01*
X30135D01*
X30128Y20561D02*
X30134Y20566D01*
X30135D01*
X30128Y20521D02*
X30134Y20526D01*
X30135D01*
X30128Y20482D02*
X30134Y20487D01*
X30135D01*
X30128Y20442D02*
X30134Y20448D01*
X30135D01*
X30128Y20403D02*
X30134Y20408D01*
X30135D01*
X30128Y20364D02*
X30134Y20369D01*
X30135D01*
X30128Y20324D02*
X30134Y20330D01*
X30135D01*
X30128Y20285D02*
X30134Y20290D01*
X30135D01*
X30128Y20246D02*
X30134Y20251D01*
X30135D01*
X30875Y23368D02*
Y23408D01*
X30482Y20147D02*
X30570D01*
X32875Y23376D02*
Y23540D01*
X32975Y23373D02*
Y23540D01*
X31375Y23408D02*
Y23540D01*
X30110Y23378D02*
Y23414D01*
X32376Y22684D02*
Y23396D01*
X33015Y23376D02*
Y23416D01*
X29578Y23419D02*
X29579Y23420D01*
Y23448D01*
X29588Y23415D02*
X29589Y23416D01*
Y23458D01*
X29598Y23411D02*
X29600Y23413D01*
Y23469D01*
X29608Y23407D02*
X29611Y23409D01*
Y23480D01*
X29618Y23403D02*
X29621Y23406D01*
Y23490D01*
X29628Y23398D02*
X29632Y23402D01*
Y23501D01*
X29638Y23394D02*
X29642Y23399D01*
Y23511D01*
X29653Y23395D02*
Y23522D01*
X29648Y23390D02*
X29653Y23395D01*
X29664Y23392D02*
Y23533D01*
X29658Y23386D02*
X29664Y23392D01*
X29668Y23382D02*
X29674Y23388D01*
Y23543D01*
X29678Y23378D02*
X29685Y23384D01*
Y23554D01*
X29696Y23381D02*
Y23565D01*
X29688Y23374D02*
X29696Y23381D01*
X29706Y23377D02*
Y23575D01*
X29698Y23369D02*
X29706Y23377D01*
X29803Y23853D02*
X29970Y24020D01*
X29813Y23849D02*
X29974Y24010D01*
X29823Y23845D02*
X29979Y24000D01*
X29833Y23841D02*
X29983Y23990D01*
X29843Y23836D02*
X29987Y23980D01*
X29853Y23832D02*
X29991Y23970D01*
X29863Y23828D02*
X29995Y23960D01*
X29873Y23824D02*
X29999Y23950D01*
X29883Y23820D02*
X30003Y23940D01*
X29893Y23816D02*
X30008Y23930D01*
X29903Y23812D02*
X30012Y23920D01*
X29913Y23807D02*
X30016Y23910D01*
X29923Y23803D02*
X30020Y23900D01*
X29933Y23799D02*
X30024Y23890D01*
X29943Y23795D02*
X30028Y23880D01*
X29407Y23280D02*
X29418Y23269D01*
X30911Y23368D02*
Y23408D01*
X30811Y23327D02*
Y23368D01*
Y23408D01*
X30711Y23327D02*
Y23368D01*
Y23408D01*
X30611Y23327D02*
Y23368D01*
X30411Y23327D02*
Y23370D01*
Y23410D01*
X30311Y23327D02*
Y23370D01*
Y23410D01*
X31111Y23327D02*
Y23368D01*
Y23408D01*
X31211Y23327D02*
Y23368D01*
Y23408D01*
X31311Y23327D02*
Y23368D01*
X31411D02*
Y23408D01*
X31275Y23368D02*
Y23408D01*
X31311Y23368D02*
Y23408D01*
X30611Y23368D02*
Y23408D01*
X30575Y23368D02*
Y23408D01*
Y23540D01*
X30128Y20423D02*
X30239D01*
X30128Y20442D02*
X30239D01*
X30128Y20462D02*
X30239D01*
X30375Y23369D02*
Y23540D01*
X30075Y23376D02*
Y23540D01*
X30482Y20521D02*
X30570D01*
X30482Y20561D02*
X30570D01*
X30482Y20600D02*
X30570D01*
X30482Y20620D02*
X30570D01*
X30482Y20679D02*
X30570D01*
X30565Y20684D02*
X30570Y20679D01*
X30563Y20645D02*
X30565D01*
X30570Y20620D02*
Y20621D01*
X30275Y23371D02*
Y23540D01*
X29873Y21484D02*
Y23824D01*
X30911Y23327D02*
Y23368D01*
X30175Y23375D02*
Y23540D01*
X31411Y23327D02*
Y23368D01*
X30711Y23327D02*
X30755Y23282D01*
X30611Y23327D02*
X30745Y23192D01*
X30411Y23327D02*
X30735Y23003D01*
X30311Y23327D02*
X30725Y22913D01*
X30210Y23327D02*
X30715Y22822D01*
X30110Y23327D02*
X30705Y22732D01*
X30765Y23282D02*
X30811Y23327D01*
X30775Y23192D02*
X30911Y23327D01*
X30785Y23002D02*
X31111Y23327D01*
X30795Y22912D02*
X31211Y23327D01*
X30805Y22822D02*
X31311Y23327D01*
X30815Y22732D02*
X31411Y23327D01*
X30210D02*
Y23413D01*
X30110Y23327D02*
Y23378D01*
X32237Y22545D02*
X32376Y22684D01*
X32237Y22530D02*
X32240D01*
X32237Y22515D02*
X32240D01*
X32237Y22500D02*
X32240D01*
X33015Y23275D02*
Y23376D01*
X32574Y22864D02*
Y23396D01*
X32913Y23188D02*
Y23416D01*
X30114Y19734D02*
X30239D01*
X30114Y19773D02*
X30239D01*
X30114Y19812D02*
X30239D01*
X30114Y19852D02*
X30239D01*
X30114Y19891D02*
X30239D01*
X30114Y19931D02*
X30239D01*
X30114Y19655D02*
X30239D01*
X30114Y19694D02*
X30239D01*
X30107Y19601D02*
X30109D01*
X30114Y19478D02*
X30120Y19473D01*
X30121D01*
X30114Y19399D02*
X30120Y19394D01*
X30109Y19680D02*
X30114Y19675D01*
X30107Y19680D02*
X30109D01*
X30107Y19719D02*
X30109D01*
X30107Y19837D02*
X30109D01*
X30114Y19911D02*
X30120Y19916D01*
X29048Y21139D02*
X29064Y21123D01*
Y21114D02*
Y21123D01*
X29052Y20943D02*
X29082Y20913D01*
X29052Y20738D02*
X29070Y20720D01*
Y20719D02*
Y20720D01*
X29052Y20543D02*
X29071Y20524D01*
X29071D01*
X29052Y20338D02*
X29070Y20320D01*
X29070D01*
X29057Y20143D02*
X29075Y20125D01*
Y20124D02*
Y20125D01*
X29067Y19943D02*
X29086Y19924D01*
X29086D01*
X29077Y19738D02*
X29092Y19723D01*
X29092D01*
X29077Y19538D02*
X29094Y19555D01*
X29094D01*
X29072Y19343D02*
X29090Y19361D01*
X29090D01*
X29072Y19148D02*
X29072D01*
X29091Y19167D01*
X29062Y18938D02*
X29082Y18958D01*
X29082D01*
X29062Y18738D02*
X29080Y18756D01*
X29080D01*
X29057Y18538D02*
X29057D01*
X29077Y18558D01*
X29067Y18338D02*
X29095Y18366D01*
X30114Y19576D02*
X30239D01*
X29698Y21148D02*
X30128Y20718D01*
X29688Y21138D02*
X30128Y20698D01*
X29678Y21129D02*
X30128Y20679D01*
X29668Y21119D02*
X30128Y20659D01*
X29658Y21109D02*
X30128Y20639D01*
X29648Y21100D02*
X30128Y20620D01*
X29638Y21090D02*
X30128Y20600D01*
X29628Y21080D02*
X30128Y20580D01*
X29618Y21071D02*
X30128Y20561D01*
X29608Y21061D02*
X30128Y20541D01*
X29598Y21051D02*
X30128Y20521D01*
X29588Y21041D02*
X30128Y20501D01*
X29578Y21032D02*
X30128Y20482D01*
X29568Y21022D02*
X30128Y20462D01*
X29558Y21012D02*
X30128Y20442D01*
X29548Y21003D02*
X30128Y20423D01*
X29538Y20993D02*
X30128Y20403D01*
X29528Y20983D02*
X30128Y20383D01*
X29518Y20974D02*
X30128Y20364D01*
X29508Y20964D02*
X30128Y20344D01*
X29498Y20954D02*
X30128Y20324D01*
X29488Y20945D02*
X30128Y20305D01*
X29478Y20935D02*
X30128Y20285D01*
X29468Y20925D02*
X30128Y20265D01*
X29458Y20916D02*
X30128Y20246D01*
X29448Y20906D02*
X30128Y20226D01*
X29438Y20896D02*
X30128Y20206D01*
X29428Y20887D02*
X30128Y20187D01*
X29418Y20877D02*
X30128Y20167D01*
X29408Y20867D02*
X30128Y20147D01*
X28910Y21139D02*
X29013D01*
X28910Y19939D02*
X29031D01*
X28910Y19639D02*
X29129D01*
X29064Y19519D02*
X29090D01*
X29110Y19539D02*
X29129D01*
X29044D02*
X29064Y19519D01*
X29090D02*
X29110Y19539D01*
X29059Y19324D02*
X29085D01*
X29044Y19339D02*
X29059Y19324D01*
X29085D02*
X29100Y19339D01*
X29029Y18739D02*
X29049Y18719D01*
X29024Y18539D02*
X29044Y18519D01*
X29054Y18319D02*
X29080D01*
X29100Y18339D02*
X29129D01*
X29034D02*
X29054Y18319D01*
X29080D02*
X29100Y18339D01*
X28910Y18239D02*
X29129D01*
X29064Y19757D02*
X29090D01*
X29046Y19739D02*
X29064Y19757D01*
X29090D02*
X29108Y19739D01*
X28910Y20039D02*
X29129D01*
X29044Y20162D02*
X29070D01*
X29074Y20158D01*
Y20140D02*
Y20158D01*
Y20140D02*
X29075Y20139D01*
X28910Y20239D02*
X29129D01*
X29039Y20357D02*
X29065D01*
X29083Y20339D02*
X29129D01*
X29021D02*
X29039Y20357D01*
X29065D02*
X29083Y20339D01*
X28910Y20439D02*
X29129D01*
X29039Y20562D02*
X29065D01*
X29069Y20558D01*
Y20540D02*
Y20558D01*
Y20540D02*
X29070Y20539D01*
X29129D01*
X28910Y20639D02*
X29129D01*
X29039Y20757D02*
X29065D01*
X29083Y20739D02*
X29129D01*
X29021D02*
X29039Y20757D01*
X29065D02*
X29083Y20739D01*
X28910Y20839D02*
X29129D01*
X29039Y20962D02*
X29065D01*
X29069Y20958D01*
Y20940D02*
Y20958D01*
Y20940D02*
X29070Y20939D01*
X29129D01*
X28910Y21039D02*
X29129D01*
X29035Y21158D02*
X29061D01*
X29080Y21139D02*
X29129D01*
X29016D02*
X29035Y21158D01*
X29061D02*
X29080Y21139D01*
X30109Y19837D02*
X30114Y19832D01*
X30239D01*
X30109Y19601D02*
X30114Y19596D01*
X29698Y21148D02*
Y23369D01*
X29688Y21138D02*
Y23374D01*
X29678Y21129D02*
Y23378D01*
X29668Y21119D02*
Y23382D01*
X29658Y21109D02*
Y23386D01*
X29648Y21100D02*
Y23390D01*
X29638Y21090D02*
Y23394D01*
X29628Y21080D02*
Y23398D01*
X29618Y21071D02*
Y23403D01*
X29608Y21061D02*
Y23407D01*
X29598Y21051D02*
Y23411D01*
X29588Y21041D02*
Y23415D01*
X29578Y21032D02*
Y23419D01*
X29568Y21022D02*
Y23423D01*
X29558Y21012D02*
Y23426D01*
X29548Y21003D02*
Y23415D01*
X29538Y20993D02*
Y23404D01*
X29528Y20983D02*
Y23392D01*
X29518Y20974D02*
Y23381D01*
X29508Y20964D02*
Y23370D01*
X29498Y20954D02*
Y23359D01*
X29488Y20945D02*
Y23348D01*
X29478Y20935D02*
Y23336D01*
X29468Y20925D02*
Y23325D01*
X29458Y20916D02*
Y23314D01*
X29448Y20906D02*
Y23303D01*
X29438Y20896D02*
Y23291D01*
X29428Y20887D02*
Y23280D01*
X29418Y20877D02*
Y23269D01*
X29408Y20867D02*
Y23258D01*
X30109Y19719D02*
X30114Y19714D01*
X29129Y19639D02*
X29131Y19641D01*
X29129Y18239D02*
Y18329D01*
X29133D01*
X29139Y18335D01*
X29953Y19849D02*
X30107Y19694D01*
X30114D01*
X29957Y19859D02*
X30096Y19719D01*
X29961Y19869D02*
X30096Y19734D01*
X30114D01*
X29129Y20239D02*
X29489Y19879D01*
X29965D01*
X30085Y19759D01*
X30107D01*
X29129Y20339D02*
X29579Y19889D01*
X29969D01*
X30085Y19773D01*
X30114D01*
X29129Y20439D02*
X29669Y19899D01*
X29973D01*
X30074Y19798D01*
X29129Y20539D02*
X29759Y19909D01*
X29977D01*
X30074Y19812D01*
X30114D01*
X29129Y20639D02*
X29849Y19919D01*
X29982D01*
X30063Y19837D01*
X29129Y20739D02*
X29939Y19929D01*
X29986D01*
X30063Y19852D01*
X30114D01*
X29129Y20839D02*
X30091Y19877D01*
X30107D01*
X29129Y20876D02*
Y20939D01*
Y20949D02*
Y21039D01*
Y20949D02*
X29133D01*
X29139Y20943D01*
Y20886D02*
Y20943D01*
Y20886D02*
X30114Y19911D01*
X29129Y21049D02*
Y21139D01*
Y21049D02*
X29133D01*
X29139Y21043D01*
Y20957D02*
Y21043D01*
Y20957D02*
X29149Y20947D01*
Y20896D02*
Y20947D01*
X28910Y19539D02*
X29044D01*
X28910Y19339D02*
X29044D01*
X28910Y18939D02*
X29029D01*
X29031D01*
X29029Y18739D02*
X29031D01*
X28910Y18539D02*
X29024D01*
X29031D01*
X30114Y19399D02*
X30239D01*
X28910Y18339D02*
X29034D01*
X28910Y19739D02*
X29046D01*
X28910Y20139D02*
X29021D01*
X29022D01*
X29021D02*
X29044Y20162D01*
X28910Y20339D02*
X29021D01*
X28910Y20539D02*
X29016D01*
X29017D01*
X29016D02*
X29039Y20562D01*
X28910Y20739D02*
X29021D01*
X28910Y20939D02*
X29016D01*
X29017D01*
X29016D02*
X29039Y20962D01*
X29013Y21139D02*
X29016D01*
X28667D02*
X28810D01*
X28665Y21138D02*
X28667Y21139D01*
Y21039D02*
X28810D01*
X28667Y20539D02*
X28810D01*
X28667Y20439D02*
X28810D01*
X28667Y20239D02*
X28810D01*
X28667Y19439D02*
X28810D01*
X28667Y19239D02*
X28810D01*
X28667Y18939D02*
X28810D01*
X28667Y18539D02*
X28810D01*
X30114Y19478D02*
X30239D01*
X28910Y19139D02*
X29049D01*
X29059Y19129D01*
X29085D01*
X29095Y19139D01*
X30114Y19517D02*
X30239D01*
X30114Y19616D02*
X30239D01*
X30120Y19394D02*
X30121D01*
X30114Y19353D02*
Y19360D01*
X30239D01*
X29044Y18519D02*
X29070D01*
X29090Y18539D01*
X30401Y19596D02*
X30482D01*
X30401Y19694D02*
X30482D01*
X30401Y19931D02*
X30482D01*
X30401Y19379D02*
X30482D01*
X30401Y19832D02*
X30482D01*
X30401Y19852D02*
X30482D01*
X30401Y19872D02*
X30482D01*
X30401Y19911D02*
X30482D01*
X29129Y20876D02*
X30114Y19891D01*
Y19537D02*
X30239D01*
X30120Y19916D02*
X30121D01*
X30114Y19596D02*
X30239D01*
X30107Y19562D02*
X30109D01*
X30114Y19557D01*
X30239D01*
X29149Y20896D02*
X30114Y19931D01*
X30107Y19641D02*
X30109D01*
X30114Y19635D01*
X30100Y19594D02*
X30107Y19601D01*
X30100Y19594D02*
Y19594D01*
X30114Y19616D02*
X30121Y19623D01*
X30105Y19643D02*
X30105D01*
X30114Y19635D02*
X30116D01*
X30116Y19635D01*
X30239D02*
X30239Y19635D01*
X30116Y19635D02*
X30239D01*
X30114Y19517D02*
X30120Y19512D01*
X30121D01*
X30114Y19498D02*
X30121Y19490D01*
X30130Y19503D02*
Y19508D01*
X30111Y19540D02*
X30114Y19537D01*
X30104Y19565D02*
X30107Y19562D01*
X30125Y19451D02*
X30135D01*
X30143Y19458D02*
X30239D01*
X30114D02*
X30117D01*
X30125Y19451D01*
X30135D02*
X30143Y19458D01*
X30111Y19501D02*
X30114Y19498D01*
X30111Y19501D02*
Y19501D01*
X30114Y19419D02*
X30118D01*
X30125Y19412D01*
X30135D01*
X30143Y19419D01*
X30239D01*
X30130Y19463D02*
Y19469D01*
X30111Y19461D02*
X30114Y19458D01*
X30111Y19461D02*
X30111D01*
X30121Y19394D02*
X30130Y19385D01*
Y19384D02*
Y19385D01*
X30114Y19379D02*
X30117D01*
X30125Y19372D01*
X30130Y19424D02*
Y19429D01*
X30127Y19427D02*
Y19428D01*
X30130Y19384D02*
X30132Y19386D01*
X30114Y19349D02*
Y19353D01*
Y19379D02*
Y19380D01*
X30110Y19384D02*
X30114Y19380D01*
X30116Y19438D02*
X30127Y19428D01*
X30098Y19592D02*
X30100Y19594D01*
X30114Y19655D02*
X30122Y19663D01*
X30122D01*
X30114Y19675D02*
X30116D01*
X30117Y19676D01*
X30238D02*
X30239Y19675D01*
X30117Y19676D02*
X30238D01*
X30122Y19663D02*
X30124Y19661D01*
Y19659D02*
Y19661D01*
X30105Y19642D02*
X30105Y19643D01*
X30105Y19642D02*
Y19642D01*
X30114Y19694D02*
X30122Y19702D01*
X30122D01*
X30114Y19714D02*
X30117D01*
X30117Y19715D01*
X30238D02*
X30239Y19714D01*
X30117Y19715D02*
X30238D01*
X30122Y19702D02*
X30124Y19700D01*
Y19698D02*
Y19700D01*
X30106Y19679D02*
X30107Y19680D01*
X30106Y19679D02*
X30106D01*
X30030Y19739D02*
X30094Y19676D01*
Y19674D02*
Y19676D01*
X30114Y19734D02*
Y19745D01*
X30107Y19759D02*
X30107Y19759D01*
X30107Y19759D02*
X30107D01*
X30234Y19759D02*
X30239Y19753D01*
X30113Y19655D02*
X30114D01*
X30094Y19674D02*
X30113Y19655D01*
X30107Y19759D02*
X30234D01*
X30114Y19745D02*
X30122Y19737D01*
X30105Y19717D02*
X30107Y19719D01*
X30099Y19751D02*
Y19751D01*
X30105Y19716D02*
Y19717D01*
X30102Y19793D02*
X30107Y19798D01*
X30098Y19793D02*
X30102D01*
X30114Y19852D02*
Y19863D01*
X30106Y19878D02*
X30107Y19877D01*
X30106Y19878D02*
X30106D01*
X30234Y19877D02*
X30239Y19872D01*
X30114Y19863D02*
X30121Y19856D01*
X30105Y19835D02*
X30107Y19837D01*
X30105Y19835D02*
Y19835D01*
X30114Y19810D02*
Y19812D01*
X30096Y19791D02*
X30098Y19793D01*
X30107Y19798D02*
X30113Y19793D01*
X30239D01*
X30107Y19938D02*
X30114Y19931D01*
X30107Y19938D02*
Y19938D01*
X28667Y19539D02*
X28810D01*
X28667Y19339D02*
X28810D01*
X28667Y19039D02*
X28810D01*
X28667Y19739D02*
X28810D01*
X28667Y19839D02*
X28810D01*
X28667Y19939D02*
X28810D01*
X28667Y20039D02*
X28810D01*
X28667Y20339D02*
X28810D01*
X30127Y19427D02*
X30130Y19424D01*
X30116Y19438D02*
X30239D01*
X30121Y19473D02*
X30130Y19463D01*
X30121Y19512D02*
X30130Y19503D01*
X30130D01*
X29948Y19839D02*
X30107Y19680D01*
X30096Y19719D02*
X30107D01*
X30099Y19751D02*
X30107Y19759D01*
X30074Y19798D02*
X30107D01*
X30063Y19837D02*
X30107D01*
X30098Y19870D02*
X30106Y19878D01*
X30114Y19911D02*
X30239D01*
X30401Y19812D02*
X30482D01*
X30401Y19773D02*
X30482D01*
X30401Y19753D02*
X30482D01*
X30421Y19734D02*
X30482D01*
X30107Y19877D02*
X30234D01*
X30401Y19557D02*
X30482D01*
X30401Y19675D02*
X30482D01*
X30401Y19576D02*
X30482D01*
X30114Y19419D02*
Y19423D01*
X30401Y19478D02*
X30482D01*
X30401Y19399D02*
X30482D01*
X30401Y19458D02*
X30482D01*
X30401Y19616D02*
X30482D01*
X30401Y19393D02*
Y19399D01*
X30478Y19355D02*
X30482Y19360D01*
X30414Y19355D02*
X30478D01*
X30401Y19343D02*
X30414Y19355D01*
X30401Y19368D02*
Y19379D01*
Y19438D02*
X30407Y19433D01*
X30401Y19478D02*
Y19479D01*
X30399Y19456D02*
X30401Y19458D01*
X30407Y19433D02*
X30412D01*
X30417Y19496D02*
Y19496D01*
X30399Y19477D02*
X30401Y19479D01*
X30482Y19419D02*
X30482Y19419D01*
X30401D02*
X30402Y19419D01*
X30482D01*
X30399Y19452D02*
Y19456D01*
X30412Y19433D02*
X30414Y19431D01*
X30401Y19596D02*
X30406Y19601D01*
X30408D01*
X30401Y19576D02*
Y19576D01*
X30408Y19601D02*
X30414Y19595D01*
Y19593D02*
Y19595D01*
X30398Y19573D02*
X30401Y19576D01*
X30427Y19537D02*
X30482D01*
X30415Y19525D02*
X30427Y19537D01*
X30416Y19498D02*
X30417Y19496D01*
X30416Y19498D02*
X30482D01*
X30398Y19513D02*
X30478D01*
X30401Y19548D02*
Y19557D01*
X30478Y19513D02*
X30482Y19517D01*
X30478Y19632D02*
X30482Y19635D01*
X30401Y19689D02*
Y19694D01*
Y19614D02*
Y19616D01*
X30414Y19593D02*
X30415Y19592D01*
X30411Y19632D02*
X30478D01*
X30406Y19626D02*
X30411Y19632D01*
X30479Y19652D02*
X30482Y19655D01*
X30414Y19652D02*
X30479D01*
X30401Y19639D02*
X30414Y19652D01*
X30384Y19620D02*
X30391Y19626D01*
X30406D01*
X30401Y19664D02*
Y19675D01*
Y19773D02*
Y19775D01*
X30399Y19751D02*
X30401Y19753D01*
Y19714D02*
X30402Y19713D01*
X30482D02*
X30482Y19714D01*
X30402Y19713D02*
X30482D01*
X30399Y19748D02*
Y19751D01*
X30400Y19891D02*
X30482D01*
X30401Y19905D02*
Y19911D01*
X30389Y19882D02*
X30390D01*
X30400Y19891D01*
X30125Y19372D02*
X30135D01*
X30143Y19379D01*
X30239D01*
X30121Y19620D02*
Y19623D01*
X30101Y19567D02*
X30103Y19565D01*
X30111Y19580D02*
X30114Y19576D01*
X30111Y19532D02*
Y19540D01*
X30117Y19574D02*
X30117D01*
X30114Y19576D02*
X30117Y19574D01*
X30103Y19565D02*
X30104D01*
X30130Y19508D02*
X30136D01*
X30143Y19498D02*
X30239D01*
X30136Y19490D02*
X30143Y19498D01*
X30121Y19490D02*
X30136D01*
X30130Y19469D02*
X30135Y19474D01*
X30136Y19508D02*
Y19509D01*
X28667Y18839D02*
X28810D01*
X28667Y18739D02*
X28810D01*
X28667Y18239D02*
X28810D01*
X29031Y19939D02*
X29054Y19962D01*
X29080D01*
X29084Y19958D01*
Y19940D02*
Y19958D01*
Y19940D02*
X29085Y19939D01*
X29129D01*
X29075Y20139D02*
X29129D01*
X29848Y19458D02*
X30114D01*
X28910Y19839D02*
X29948D01*
X29129Y20139D02*
X29399Y19869D01*
X29961D01*
X29129Y20039D02*
X29309Y19859D01*
X29957D01*
X29129Y19939D02*
X29219Y19849D01*
X29953D01*
X28910Y18439D02*
X29129D01*
X29768Y19478D02*
X30114D01*
X29688Y19498D02*
X30114D01*
X29607Y19517D02*
X30114D01*
X29527Y19537D02*
X30114D01*
X29370Y19580D02*
X30111D01*
X29292Y19601D02*
X30107D01*
X29206Y19616D02*
X30114D01*
X29108Y19739D02*
X30030D01*
X29129Y19539D02*
X29206Y19616D01*
X28910Y19439D02*
X29129D01*
X29292Y19601D01*
X29100Y19339D02*
X29129D01*
X29370Y19580D01*
X29090Y18539D02*
X29129D01*
X29095Y19139D02*
X29129D01*
X28910Y19239D02*
X29129D01*
Y19039D02*
X29607Y19517D01*
X29129Y19139D02*
X29527Y19537D01*
X29129Y19239D02*
X29452Y19562D01*
X29095Y18939D02*
X29129D01*
X29688Y19498D01*
X28910Y19039D02*
X29129D01*
X29029Y18939D02*
X29049Y18919D01*
X29129Y18839D02*
X29768Y19478D01*
X29049Y18919D02*
X29075D01*
X29095Y18939D01*
X29129Y18739D02*
X29848Y19458D01*
X28667Y18439D02*
X28810D01*
X29049Y18719D02*
X29075D01*
X29095Y18739D01*
X29129D01*
X28910Y18839D02*
X29129D01*
X28910Y18639D02*
X29129D01*
X28910Y18739D02*
X29029D01*
X28667Y18339D02*
X28810D01*
X28664Y19471D02*
X28702D01*
X28669Y19371D02*
X28702D01*
X28659Y18871D02*
X28702D01*
X28664Y18771D02*
X28702D01*
X28669Y18202D02*
X28702D01*
X28669Y19971D02*
X28702D01*
X28669Y20371D02*
X28702D01*
X28664Y20471D02*
X28702D01*
X28659Y21000D02*
X28702D01*
X30128Y20501D02*
X30239D01*
X28625Y19471D02*
X28664D01*
X28629Y19371D02*
X28669D01*
X28621Y18871D02*
X28659D01*
X28624Y18771D02*
X28664D01*
X28629Y18202D02*
X28669D01*
X28629Y19971D02*
X28669D01*
X28629Y20371D02*
X28669D01*
X28624Y20471D02*
X28664D01*
X28619Y21000D02*
X28659D01*
X28625Y21102D02*
X28665D01*
X28702D01*
X28623Y19269D02*
X28702D01*
X28632Y19067D02*
X28702D01*
X28623Y18974D02*
X28702D01*
X28616Y18569D02*
X28702D01*
X28624Y18469D02*
X28702D01*
X28618Y18374D02*
X28702D01*
X28628Y19579D02*
X28702D01*
X28632Y19774D02*
X28702D01*
X28636Y19874D02*
X28702D01*
X28629Y20069D02*
X28702D01*
X28624Y20271D02*
X28702D01*
X28624Y20573D02*
X28702D01*
X28625Y21138D02*
X28665D01*
X28619Y21036D02*
X28659D01*
X28624Y20540D02*
X28664D01*
X28624Y20435D02*
X28664D01*
X28629Y20335D02*
X28669D01*
X28625Y20236D02*
X28665D01*
X28627Y20039D02*
X28667D01*
X28627Y19939D02*
X28667D01*
X28634Y19840D02*
X28674D01*
X28627Y19739D02*
X28667D01*
X28629Y19545D02*
X28669D01*
X28624Y19435D02*
X28664D01*
X28629Y19335D02*
X28669D01*
X28624Y19235D02*
X28664D01*
X28629Y19035D02*
X28669D01*
X28624Y18940D02*
X28664D01*
X28619Y18835D02*
X28659D01*
X28624Y18735D02*
X28664D01*
X28624Y18535D02*
X28664D01*
X28624Y18440D02*
X28664D01*
X28624Y18340D02*
X28664D01*
X28629Y18238D02*
X28669D01*
X30270Y20423D02*
X30313D01*
X30270Y20423D02*
X30270Y20423D01*
X30239Y20423D02*
X30270D01*
X30270Y20383D02*
X30313D01*
X30270Y20383D02*
X30270Y20383D01*
X30239Y20383D02*
X30270D01*
X30270Y20344D02*
X30313D01*
X30270Y20344D02*
X30270Y20344D01*
X30239Y20344D02*
X30270D01*
X30313Y20305D02*
X30313Y20305D01*
X30239Y20305D02*
X30313D01*
X30313Y20265D02*
X30313Y20265D01*
X30239Y20265D02*
X30313D01*
X30313Y20226D02*
X30313Y20226D01*
X30239Y20226D02*
X30313D01*
X30313Y20187D02*
X30313Y20186D01*
X30239Y20187D02*
X30313D01*
X30313Y20147D02*
X30313Y20147D01*
X30239Y20147D02*
X30313D01*
X30313Y20462D02*
X30313Y20462D01*
X30239Y20462D02*
X30313D01*
X30313Y20501D02*
X30313Y20502D01*
X30239Y20501D02*
X30313D01*
X30313Y20541D02*
X30313Y20541D01*
X30239Y20541D02*
X30313D01*
X30313Y20580D02*
X30313Y20580D01*
X30239Y20580D02*
X30313D01*
X30313Y20620D02*
X30313Y20620D01*
X30239Y20620D02*
X30313D01*
X30239Y20659D02*
X30313D01*
X30239Y20698D02*
X30313D01*
X30570Y20141D02*
Y20147D01*
X30579Y20176D02*
X30581D01*
X30401Y19438D02*
X30482D01*
X30105Y19643D02*
X30107Y19641D01*
X29131D02*
X30107D01*
X29452Y19562D02*
X30107D01*
X33072Y20984D02*
X33125D01*
X33165Y20979D02*
X33322D01*
X33165Y20779D02*
X33322D01*
X33072Y20784D02*
X33125D01*
X33165Y20579D02*
X33322D01*
X33072Y20584D02*
X33125D01*
X33165Y20379D02*
X33322D01*
X33072Y20384D02*
X33125D01*
X33072Y20184D02*
X33125D01*
X33165Y19979D02*
X33322D01*
X33072Y19984D02*
X33125D01*
X33165Y19579D02*
X33322D01*
X33072Y19584D02*
X33125D01*
X33165Y19379D02*
X33322D01*
X33165Y18979D02*
X33322D01*
X33072Y19784D02*
X33125D01*
X33165Y19779D02*
X33322D01*
X33165Y20179D02*
X33322D01*
X33165Y19179D02*
X33322D01*
X32240Y22530D02*
X32574Y22864D01*
X32240Y22515D02*
X32913Y23188D01*
X32240Y22500D02*
X33015Y23275D01*
X33072Y21074D02*
X33317D01*
X33072Y20874D02*
X33317D01*
X33072Y20674D02*
X33317D01*
X33072Y20474D02*
X33317D01*
X33072Y19274D02*
X33317D01*
X33072Y19474D02*
X33317D01*
X33072Y19674D02*
X33317D01*
X33072Y19874D02*
X33317D01*
X33072Y20074D02*
X33317D01*
X33072Y20274D02*
X33317D01*
X32979Y20379D02*
X33017D01*
X33375D02*
X33422D01*
X33338Y20342D02*
X33375Y20379D01*
X33054Y20342D02*
X33338D01*
X33017Y20379D02*
X33054Y20342D01*
X33044Y20242D02*
X33337D01*
X32979Y20279D02*
X33007D01*
X33375D02*
X33422D01*
X33337Y20242D02*
X33375Y20279D01*
X33007D02*
X33044Y20242D01*
X32979Y20179D02*
X33017D01*
X33375D02*
X33422D01*
X33338Y20142D02*
X33375Y20179D01*
X33054Y20142D02*
X33338D01*
X33017Y20179D02*
X33054Y20142D01*
X33044Y20042D02*
X33337D01*
X32979Y20079D02*
X33007D01*
X33375D02*
X33422D01*
X33337Y20042D02*
X33375Y20079D01*
X33007D02*
X33044Y20042D01*
X32979Y19979D02*
X33017D01*
X33375D02*
X33422D01*
X33044Y19841D02*
X33337D01*
X32979Y19879D02*
X33007D01*
X33375D02*
X33422D01*
X33337Y19841D02*
X33375Y19879D01*
X33007D02*
X33044Y19841D01*
X33375Y19779D02*
X33422D01*
X33338Y19742D02*
X33375Y19779D01*
Y19679D02*
X33422D01*
X33337Y19642D02*
X33375Y19679D01*
Y19579D02*
X33422D01*
X33338Y19542D02*
X33375Y19579D01*
Y19479D02*
X33422D01*
X33375Y19379D02*
X33422D01*
X33375Y19279D02*
X33422D01*
X33337Y19242D02*
X33375Y19279D01*
Y19179D02*
X33422D01*
X33338Y19142D02*
X33375Y19179D01*
Y19079D02*
X33422D01*
X33337Y19042D02*
X33375Y19079D01*
Y18979D02*
X33422D01*
X33338Y18942D02*
X33375Y18979D01*
X33044Y20441D02*
X33337D01*
X32979Y20479D02*
X33007D01*
X33375D02*
X33422D01*
X33337Y20441D02*
X33375Y20479D01*
X33007D02*
X33044Y20441D01*
X32979Y20579D02*
X33017D01*
X33375D02*
X33422D01*
X33338Y20542D02*
X33375Y20579D01*
X33054Y20542D02*
X33338D01*
X33017Y20579D02*
X33054Y20542D01*
X33044Y20642D02*
X33337D01*
X32979Y20679D02*
X33007D01*
X33375D02*
X33422D01*
X33337Y20642D02*
X33375Y20679D01*
X33007D02*
X33044Y20642D01*
X32979Y20779D02*
X33017D01*
X33375D02*
X33422D01*
X33338Y20742D02*
X33375Y20779D01*
X33054Y20742D02*
X33338D01*
X33017Y20779D02*
X33054Y20742D01*
X33044Y20841D02*
X33337D01*
X32979Y20879D02*
X33007D01*
X33375D02*
X33422D01*
X33337Y20841D02*
X33375Y20879D01*
X33007D02*
X33044Y20841D01*
X32979Y20979D02*
X33017D01*
X33375D02*
X33422D01*
X33338Y20942D02*
X33375Y20979D01*
X33054Y20942D02*
X33338D01*
X33017Y20979D02*
X33054Y20942D01*
X33044Y21042D02*
X33337D01*
X32979Y21079D02*
X33007D01*
X33375D02*
X33422D01*
X33337Y21042D02*
X33375Y21079D01*
X33007D02*
X33044Y21042D01*
X33307Y21142D02*
X33338D01*
X32979Y21179D02*
X33270D01*
X33375D02*
X33422D01*
X33338Y21142D02*
X33375Y21179D01*
X33270D02*
X33307Y21142D01*
Y21242D02*
X33338D01*
X32979Y21279D02*
X33270D01*
X33375D02*
X33422D01*
X33338Y21242D02*
X33375Y21279D01*
X33270D02*
X33307Y21242D01*
Y21342D02*
X33338D01*
X32979Y21379D02*
X33270D01*
X33375D02*
X33422D01*
X33338Y21342D02*
X33375Y21379D01*
X33270D02*
X33307Y21342D01*
Y21442D02*
X33338D01*
X32979Y21479D02*
X33270D01*
X33375D02*
X33422D01*
X33338Y21442D02*
X33375Y21479D01*
X33270D02*
X33307Y21442D01*
Y21542D02*
X33338D01*
X33375Y21579D02*
X33422D01*
X33338Y21542D02*
X33375Y21579D01*
X33270D02*
X33307Y21542D01*
Y21642D02*
X33338D01*
X32979Y21679D02*
X33270D01*
X33375D02*
X33422D01*
X33338Y21642D02*
X33375Y21679D01*
X33270D02*
X33307Y21642D01*
Y21742D02*
X33338D01*
X32979Y21779D02*
X33270D01*
X33375D02*
X33422D01*
X33338Y21742D02*
X33375Y21779D01*
X33270D02*
X33307Y21742D01*
Y21842D02*
X33338D01*
X32979Y21879D02*
X33270D01*
X33375D02*
X33422D01*
X33338Y21842D02*
X33375Y21879D01*
X33270D02*
X33307Y21842D01*
X31272Y20147D02*
X31282Y20138D01*
X32862Y20462D02*
X32979Y20579D01*
X32702Y20501D02*
X32979Y20779D01*
X31899Y20698D02*
X32979Y21779D01*
X31827Y20727D02*
X32979Y21879D01*
X31281Y20727D02*
X31827D01*
X32936Y20423D02*
X32979Y20379D01*
X32782Y20482D02*
X32979Y20679D01*
X32943Y20442D02*
X32979Y20479D01*
X32775Y20383D02*
X32979Y20179D01*
X31272Y20285D02*
X32373D01*
X32695Y20364D02*
X32979Y20079D01*
X32855Y20403D02*
X32979Y20279D01*
X32621Y20521D02*
X32979Y20879D01*
X32541Y20541D02*
X32979Y20979D01*
X31272Y20718D02*
X31281Y20727D01*
X32461Y20561D02*
X32979Y21079D01*
X32380Y20580D02*
X32979Y21179D01*
X32220Y20620D02*
X32979Y21379D01*
X30570Y20718D02*
Y20728D01*
X30565Y20684D02*
Y20684D01*
X30572Y20698D02*
X30577Y20693D01*
X30482Y20698D02*
X30572D01*
X31272Y20561D02*
X32461D01*
X31272Y20442D02*
X32943D01*
X31272Y20305D02*
X32454D01*
X31272Y20541D02*
X32541D01*
X31272Y20521D02*
X32621D01*
X31272Y20501D02*
X32702D01*
X31272Y20462D02*
X32862D01*
X31272Y20482D02*
X32782D01*
X31272Y20187D02*
X31972D01*
X31272Y20226D02*
X32132D01*
X31272Y20246D02*
X32213D01*
X31272Y20324D02*
X32534D01*
X31272Y20344D02*
X32614D01*
X31272Y20364D02*
X32695D01*
X31272Y20383D02*
X32775D01*
X31272Y20403D02*
X32855D01*
X31272Y20423D02*
X32936D01*
X31978Y20677D02*
X32979Y21679D01*
X31332Y20698D02*
X31340Y20690D01*
X31272Y20698D02*
X31332D01*
X31899D01*
X31272Y20718D02*
X31322D01*
X31327Y20713D01*
X31272Y20659D02*
X31273Y20659D01*
X32059D02*
X32979Y21579D01*
X31356Y20677D02*
X31362Y20671D01*
X31274Y20677D02*
X31356D01*
X31272Y20679D02*
X31274Y20677D01*
X31356D02*
X31978D01*
X32139Y20639D02*
X32979Y21479D01*
X31343Y20654D02*
Y20656D01*
X31345Y20659D01*
X31273D02*
X31345D01*
X32059D01*
X31356Y20636D02*
X31367D01*
X31353Y20639D02*
X31356Y20636D01*
X31272Y20639D02*
X31353D01*
X32139D01*
X31333Y20620D02*
X31341Y20611D01*
X31272Y20600D02*
X31274Y20598D01*
X32299D02*
X32979Y21279D01*
X31272Y20620D02*
X31333D01*
X31373Y20622D02*
X31375Y20620D01*
X32220D01*
X31333D02*
X31335Y20622D01*
X31373D01*
X31368Y20609D02*
X31369Y20608D01*
Y20598D02*
Y20608D01*
Y20598D02*
X32299D01*
X31272Y20580D02*
X31335D01*
X31344Y20588D02*
X31344Y20588D01*
Y20586D02*
Y20588D01*
X31274Y20598D02*
X31369D01*
X31335Y20580D02*
X31344Y20588D01*
X31335Y20580D02*
X32380D01*
X31272Y20561D02*
X31272Y20561D01*
X31197Y20536D02*
Y20541D01*
X31272D01*
X31204Y20521D02*
X31272D01*
X31207Y20501D02*
X31272D01*
X31207Y20501D02*
Y20501D01*
Y20501D02*
X31208Y20499D01*
X31192Y20443D02*
X31241D01*
X31241Y20442D01*
X31272D01*
X31192Y20468D02*
X31235D01*
X31241Y20462D01*
X31272D01*
X31167Y20433D02*
X31177Y20423D01*
X31208Y20499D02*
X31210Y20501D01*
X31177Y20423D02*
X31272D01*
X31180Y20373D02*
X31182Y20375D01*
X31180Y20358D02*
Y20373D01*
X31174Y20501D02*
X31193Y20482D01*
X31272D01*
X31180Y20358D02*
X31194Y20344D01*
X31272D01*
X31192Y20324D02*
X31272D01*
X31192D02*
X31197Y20329D01*
X31190Y20187D02*
X31272D01*
X31190Y20167D02*
X31272D01*
X31190Y20147D02*
X31272D01*
X31196Y20206D02*
X31272D01*
X31186Y20226D02*
X31272D01*
X31174Y20240D02*
X31180Y20246D01*
X31272D01*
X31174Y20265D02*
X31174Y20265D01*
X31272D01*
X31174Y20315D02*
X31185Y20305D01*
X31272D01*
X31174Y20290D02*
X31179Y20285D01*
X31272D01*
X31183Y20174D02*
X31190Y20167D01*
X31173Y20241D02*
X31174Y20240D01*
X31197Y20329D02*
X31199D01*
X31174Y20206D02*
Y20214D01*
X31186Y20226D01*
X31167Y20174D02*
X31183D01*
X32092Y17985D02*
Y18117D01*
X31292Y17985D02*
Y18117D01*
X30592Y17985D02*
X30600Y17992D01*
Y18085D02*
Y18135D01*
X30635Y18085D02*
Y18135D01*
X30535Y18085D02*
Y18135D01*
X30500Y18085D02*
Y18135D01*
Y17992D02*
Y18085D01*
X30435D02*
Y18135D01*
X30400Y18085D02*
Y18135D01*
Y17992D02*
Y18085D01*
X30319Y18080D02*
Y18130D01*
X30284Y18080D02*
Y18130D01*
X31192Y17780D02*
Y17885D01*
Y17628D02*
Y17690D01*
X31292Y17628D02*
Y17690D01*
Y17780D02*
Y17885D01*
X31392Y17628D02*
Y17690D01*
Y17780D02*
Y17885D01*
X31492Y17628D02*
Y17690D01*
Y17780D02*
Y17885D01*
X31592Y17628D02*
Y17690D01*
X31692Y17628D02*
Y17690D01*
Y17780D02*
Y17885D01*
X31792Y17628D02*
Y17690D01*
Y17780D02*
Y17885D01*
X31892Y17628D02*
Y17690D01*
Y17780D02*
Y17885D01*
X31992Y17628D02*
Y17690D01*
Y17780D02*
Y17885D01*
X32092Y17628D02*
Y17690D01*
Y17780D02*
Y17885D01*
X32192Y17628D02*
Y17690D01*
Y17780D02*
Y17885D01*
X32292Y17628D02*
Y17690D01*
Y17780D02*
Y17885D01*
X32392Y17628D02*
Y17690D01*
Y17780D02*
Y17885D01*
X32492Y17628D02*
Y17690D01*
Y17780D02*
Y17885D01*
X32592Y17628D02*
Y17690D01*
Y17780D02*
Y17885D01*
X32692Y17628D02*
Y17690D01*
X33092Y18153D02*
X33097Y18158D01*
Y18210D01*
X31692Y17985D02*
Y18117D01*
X32614Y20344D02*
X32979Y19979D01*
X32534Y20324D02*
X32979Y19879D01*
X33017Y19979D02*
X33054Y19942D01*
X33338D01*
X33375Y19979D01*
X33338Y19342D02*
X33375Y19379D01*
X33337Y19441D02*
X33375Y19479D01*
X31492Y17985D02*
Y18117D01*
X31592Y17780D02*
Y17885D01*
X33072Y19384D02*
X33125D01*
X33054Y19342D02*
X33338D01*
X31272Y20206D02*
X32052D01*
X33072Y19184D02*
X33125D01*
X33072Y19074D02*
X33317D01*
X33044Y19242D02*
X33337D01*
X33054Y19142D02*
X33338D01*
X31272Y20167D02*
X31891D01*
X31282Y20138D02*
X31820D01*
X33017Y19779D02*
X33054Y19742D01*
X33338D01*
X33054Y19542D02*
X33338D01*
X32979Y19479D02*
X33007D01*
X33044Y19441D01*
X33337D01*
X32454Y20305D02*
X32979Y19779D01*
X33017D01*
X32373Y20285D02*
X32979Y19679D01*
X33007D01*
X33044Y19642D01*
X33337D01*
X32979Y19579D02*
X33017D01*
X33054Y19542D01*
X32979Y19379D02*
X33017D01*
X33054Y19342D01*
X32979Y19279D02*
X33007D01*
X33044Y19242D01*
X33017Y19179D02*
X33054Y19142D01*
X31272Y20265D02*
X32293D01*
X32979Y19579D01*
X32213Y20246D02*
X32979Y19479D01*
X32132Y20226D02*
X32979Y19379D01*
X32052Y20206D02*
X32979Y19279D01*
X31891Y20167D02*
X32979Y19079D01*
X31820Y20138D02*
X32979Y18979D01*
X31972Y20187D02*
X32979Y19179D01*
X33017D01*
X32979Y19079D02*
X33007D01*
X33044Y19042D01*
X33337D01*
X33072Y18984D02*
X33125D01*
X33054Y18942D02*
X33338D01*
X33017Y18979D02*
X33054Y18942D01*
X32979Y18979D02*
X33017D01*
X31272Y19675D02*
X31330D01*
X31272Y19694D02*
X31330D01*
X31272Y19714D02*
X31330D01*
X31272Y19734D02*
X31330D01*
X31272Y19753D02*
X31330D01*
X31272Y19773D02*
X31330D01*
X31272Y19793D02*
X31330D01*
X31272Y19812D02*
X31330D01*
X31272Y19832D02*
X31330D01*
X31272Y19852D02*
X31330D01*
X31272Y19872D02*
X31330D01*
X31272Y19891D02*
X31330D01*
X31272Y19911D02*
X31330D01*
X31272Y19931D02*
X31330D01*
X32692Y17780D02*
Y17785D01*
Y17885D01*
X32492D02*
Y17933D01*
X32455Y17970D02*
X32492Y17933D01*
X32392Y17885D02*
Y17933D01*
X32355Y17970D02*
X32392Y17933D01*
X32292Y17885D02*
Y17933D01*
X32255Y17970D02*
X32292Y17933D01*
X32192Y17885D02*
Y17933D01*
X32155Y17970D02*
X32192Y17933D01*
X32055Y17970D02*
Y18148D01*
X32092Y17885D02*
Y17933D01*
X32055Y17970D02*
X32092Y17933D01*
X32055Y18148D02*
X32092Y18185D01*
X31992Y17885D02*
Y17933D01*
X31955Y17970D02*
X31992Y17933D01*
X31892Y17885D02*
Y17933D01*
X31855Y17970D02*
X31892Y17933D01*
X32592Y17885D02*
Y17933D01*
X32555Y17970D02*
X32592Y17933D01*
X32692Y17885D02*
Y17933D01*
X32655Y17970D02*
X32692Y17933D01*
X33192Y17885D02*
Y17915D01*
X31856Y18450D02*
X31859D01*
X30892Y17985D02*
Y18117D01*
X30600Y17992D02*
Y18085D01*
X30755Y17970D02*
Y18000D01*
X30792Y18037D02*
Y18213D01*
Y17885D02*
Y17933D01*
X30755Y17970D02*
X30792Y17933D01*
X30755Y18000D02*
X30792Y18037D01*
X30655Y17970D02*
Y18000D01*
X30692Y18037D02*
Y18213D01*
Y17885D02*
Y17933D01*
X30655Y17970D02*
X30692Y17933D01*
X30655Y18000D02*
X30692Y18037D01*
X30592Y18160D02*
Y18213D01*
Y17885D02*
Y17933D01*
X30555Y17970D02*
X30592Y17933D01*
X30492Y17885D02*
Y17933D01*
X30455Y17970D02*
X30492Y17933D01*
X30392Y18160D02*
Y18213D01*
Y17885D02*
Y17933D01*
X30355Y17970D02*
X30392Y17933D01*
X30355Y17970D02*
Y18123D01*
X30392Y18160D01*
X30284Y18080D02*
X30292Y18072D01*
X30302Y18065D02*
Y18144D01*
X30292Y18154D02*
Y18213D01*
Y17885D02*
Y17933D01*
X30329Y17970D01*
X30292Y18154D02*
X30302Y18144D01*
X30329Y17970D02*
Y18038D01*
X30302Y18065D02*
X30329Y18038D01*
X30292Y17985D02*
X30292Y17985D01*
X30292Y17985D02*
Y18072D01*
X31092Y17885D02*
Y17933D01*
X31192Y17885D02*
Y17933D01*
X31155Y17970D02*
X31192Y17933D01*
X31255Y17970D02*
Y18148D01*
X31292Y17885D02*
Y17933D01*
X31255Y17970D02*
X31292Y17933D01*
X31392Y17885D02*
Y17933D01*
X31355Y17970D02*
X31392Y17933D01*
X31592Y17885D02*
Y17933D01*
X31555Y17970D02*
X31592Y17933D01*
X31655Y17970D02*
Y18148D01*
X31692Y18185D02*
Y18213D01*
Y17885D02*
Y17933D01*
X31655Y17970D02*
X31692Y17933D01*
X31655Y18148D02*
X31692Y18185D01*
X31792Y17885D02*
Y17933D01*
X31755Y17970D02*
X31792Y17933D01*
X31627Y18682D02*
X31859Y18450D01*
X31330Y19931D02*
X31627Y19634D01*
X31330Y19911D02*
X31617Y19624D01*
X31330Y19891D02*
X31607Y19614D01*
X31330Y19872D02*
X31597Y19605D01*
X31330Y19852D02*
X31587Y19595D01*
X31330Y19832D02*
X31577Y19585D01*
X31330Y19812D02*
X31567Y19575D01*
X31330Y19753D02*
X31537Y19546D01*
X31330Y19734D02*
X31527Y19537D01*
X31330Y19675D02*
X31497Y19508D01*
X31627Y18682D02*
Y19634D01*
X30978Y19616D02*
X31029D01*
X30978Y19596D02*
X31029D01*
X30978Y19517D02*
X31029D01*
X30978Y19498D02*
X31029D01*
X30978Y19478D02*
X31029D01*
X30978Y19458D02*
X31029D01*
X30978Y19438D02*
X31029D01*
X30978Y19419D02*
X31029D01*
X30978Y19399D02*
X31029D01*
X30978Y19694D02*
X31029D01*
X30978Y19714D02*
X31029D01*
X30978Y19734D02*
X31029D01*
X30978Y19753D02*
X31029D01*
X30978Y19773D02*
X31029D01*
X30978Y19852D02*
X31029D01*
X30978Y19891D02*
X31029D01*
X30978Y19911D02*
X31029D01*
X30978Y19931D02*
X31029D01*
X30992Y17885D02*
Y17933D01*
X30955Y17970D02*
X30992Y17933D01*
X30892Y17885D02*
Y17933D01*
X30855Y17970D02*
X30892Y17933D01*
X30855Y17970D02*
Y18148D01*
X30892Y18185D01*
Y18213D01*
X30888Y19309D02*
X30978Y19399D01*
X30878Y19319D02*
X30978Y19419D01*
X30868Y19328D02*
X30978Y19438D01*
X30858Y19338D02*
X30978Y19458D01*
X30848Y19348D02*
X30978Y19478D01*
X30838Y19358D02*
X30978Y19498D01*
X30828Y19367D02*
X30978Y19517D01*
X30788Y19406D02*
X30978Y19596D01*
X30778Y19416D02*
X30978Y19616D01*
X30748Y19445D02*
X30978Y19675D01*
X30738Y19454D02*
X30978Y19694D01*
X30728Y19464D02*
X30978Y19714D01*
X30718Y19474D02*
X30978Y19734D01*
X30708Y19483D02*
X30978Y19753D01*
X30698Y19493D02*
X30978Y19773D01*
X30668Y19522D02*
X30978Y19832D01*
X30658Y19532D02*
X30978Y19852D01*
X30648Y19542D02*
X30978Y19872D01*
X30638Y19551D02*
X30978Y19891D01*
X30628Y19561D02*
X30978Y19911D01*
X30618Y19571D02*
X30978Y19931D01*
X32992Y17885D02*
Y17933D01*
X32955Y17970D02*
X32992Y17933D01*
X32792Y17885D02*
Y17933D01*
X32755Y17970D02*
X32792Y17933D01*
X33092Y17885D02*
Y17933D01*
X32855Y17970D02*
X32892Y17933D01*
Y17885D02*
Y17933D01*
X31330Y19537D02*
X31427Y19440D01*
X31272Y19537D02*
X31330D01*
X31272Y19557D02*
X31330D01*
X31437Y19450D01*
X31330Y19576D02*
X31447Y19459D01*
X31272Y19576D02*
X31330D01*
X31272Y19596D02*
X31330D01*
X31457Y19469D01*
X31330Y19616D02*
X31467Y19479D01*
X31272Y19616D02*
X31330D01*
X31272Y19635D02*
X31330D01*
X31477Y19488D01*
X31330Y19655D02*
X31487Y19498D01*
X31272Y19655D02*
X31330D01*
X30298Y18856D02*
X30618Y19176D01*
Y19571D01*
X30628Y19172D02*
Y19561D01*
X30638Y19168D02*
Y19551D01*
X30648Y19164D02*
Y19542D01*
X30658Y19159D02*
Y19532D01*
X30668Y19155D02*
Y19522D01*
X30678Y19151D02*
Y19512D01*
X30688Y19147D02*
Y19503D01*
X30698Y19143D02*
Y19493D01*
X30708Y19139D02*
Y19483D01*
X31155Y17970D02*
Y18000D01*
X31192Y18037D01*
Y18213D01*
X31355Y17970D02*
Y18000D01*
X31392Y18037D01*
X31555Y17970D02*
Y18000D01*
X31592Y18037D01*
Y18213D01*
X31755Y17970D02*
Y18000D01*
X31792Y18037D01*
X32155Y17970D02*
Y18000D01*
X32192Y18037D01*
X32455Y17970D02*
Y18000D01*
X32492Y18037D02*
Y18280D01*
X32455Y18000D02*
X32492Y18037D01*
X32555Y17970D02*
Y18000D01*
X31330Y19714D02*
X31517Y19527D01*
X31955Y17970D02*
Y18000D01*
X31992Y18037D01*
Y18280D01*
X31942Y18330D02*
X31992Y18280D01*
X31807Y18330D02*
X31942D01*
X31507Y18629D02*
X31807Y18330D01*
X31330Y19694D02*
X31507Y19517D01*
X31892Y17985D02*
Y18117D01*
X31855Y17970D02*
Y18148D01*
X31892Y18185D01*
Y18302D01*
X31875Y18319D02*
X31892Y18302D01*
X31859Y18319D02*
X31875D01*
X31858Y18320D02*
X31859Y18319D01*
X31802Y18320D02*
X31858D01*
X31497Y18625D02*
X31802Y18320D01*
X31792Y18037D02*
Y18213D01*
X31427Y19109D02*
Y19440D01*
X32092Y18185D02*
Y18280D01*
X32032Y18340D02*
X32092Y18280D01*
X31811Y18340D02*
X32032D01*
X31517Y18633D02*
X31811Y18340D01*
X31092Y17985D02*
Y18117D01*
X30768Y19425D02*
X30978Y19635D01*
X31029D01*
X30758Y19435D02*
X30978Y19655D01*
X31029D01*
X30978Y19675D02*
X31029D01*
X30555Y17970D02*
Y18123D01*
X30592Y18160D01*
X30455Y17970D02*
Y18123D01*
X30492Y18160D01*
Y18213D01*
X30718Y19135D02*
Y19474D01*
X30728Y19130D02*
Y19464D01*
X30738Y19126D02*
Y19454D01*
X30748Y19122D02*
Y19445D01*
X30758Y19118D02*
Y19435D01*
X30768Y19114D02*
Y19425D01*
X30778Y19110D02*
Y19416D01*
X30788Y19106D02*
Y19406D01*
X30798Y19101D02*
Y19396D01*
X30808Y19097D02*
Y19387D01*
X30818Y19093D02*
Y19377D01*
X30828Y19089D02*
Y19367D01*
X30838Y19085D02*
Y19358D01*
X30848Y19080D02*
Y19348D01*
X30858Y19075D02*
Y19338D01*
X30868Y19070D02*
Y19328D01*
X30878Y19065D02*
Y19319D01*
X30888Y19060D02*
Y19309D01*
X30898Y19055D02*
Y19299D01*
X30908Y19050D02*
Y19290D01*
X31074Y19095D02*
X31286D01*
X31337Y19146D01*
X31078Y19085D02*
X31290D01*
X31347Y19142D01*
X31082Y19075D02*
X31295D01*
X31357Y19138D01*
X31087Y19065D02*
X31299D01*
X31367Y19134D01*
X31091Y19055D02*
X31303D01*
X31377Y19129D01*
X31095Y19045D02*
X31307D01*
X31387Y19125D01*
X31099Y19035D02*
X31311D01*
X31397Y19121D01*
X31315Y19025D02*
X31407Y19117D01*
X31319Y19015D02*
X31417Y19113D01*
X31324Y19005D02*
X31427Y19109D01*
X31328Y18995D02*
X31437Y19105D01*
X31332Y18985D02*
X31447Y19100D01*
X31336Y18975D02*
X31457Y19096D01*
X31340Y18965D02*
X31467Y19092D01*
X31344Y18955D02*
X31477Y19088D01*
X31348Y18945D02*
X31487Y19084D01*
X30898Y19299D02*
X30978Y19379D01*
X31055Y17970D02*
X31092Y17933D01*
X30955Y17970D02*
Y18000D01*
X30992Y18037D01*
X30908Y19290D02*
X30978Y19360D01*
X31029D01*
X30978Y19379D02*
X31029D01*
X31617Y18675D02*
Y19624D01*
Y18675D02*
X31852Y18440D01*
X31607Y18671D02*
X31848Y18430D01*
X31607Y18671D02*
Y19614D01*
X31597Y18667D02*
Y19605D01*
Y18667D02*
X31844Y18420D01*
X31587Y18662D02*
X31840Y18410D01*
X31587Y18662D02*
Y19595D01*
X31577Y18658D02*
Y19585D01*
Y18658D02*
X31836Y18400D01*
X32572D01*
X31831Y18390D02*
X32482D01*
X31567Y18654D02*
X31831Y18390D01*
X31567Y18654D02*
Y19575D01*
X31330Y19793D02*
X31557Y19566D01*
Y18650D02*
Y19566D01*
Y18650D02*
X31827Y18380D01*
X32392D01*
X32492Y18280D01*
X32355Y17970D02*
Y18000D01*
X32392Y18037D01*
Y18280D01*
X32302Y18370D02*
X32392Y18280D01*
X31823Y18370D02*
X32302D01*
X31547Y18646D02*
X31823Y18370D01*
X31547Y18646D02*
Y19556D01*
X31330Y19773D02*
X31547Y19556D01*
X32292Y17985D02*
Y18117D01*
Y18185D02*
Y18280D01*
X32212Y18360D02*
X32292Y18280D01*
X31819Y18360D02*
X32212D01*
X31537Y18642D02*
X31819Y18360D01*
X31537Y18642D02*
Y19546D01*
X32192Y18037D02*
Y18280D01*
X32122Y18350D02*
X32192Y18280D01*
X31815Y18350D02*
X32122D01*
X31527Y18638D02*
X31815Y18350D01*
X31527Y18638D02*
Y19537D01*
X31517Y18633D02*
Y19527D01*
X31507Y18629D02*
Y19517D01*
X31497Y18625D02*
Y19508D01*
X31487Y19084D02*
Y19498D01*
X31477Y19088D02*
Y19488D01*
X31467Y19092D02*
Y19479D01*
X31457Y19096D02*
Y19469D01*
X31447Y19100D02*
Y19459D01*
X31437Y19105D02*
Y19450D01*
X31337Y19146D02*
Y19353D01*
X31330Y19360D02*
X31337Y19353D01*
X31272Y19360D02*
X31330D01*
X31347Y19142D02*
Y19362D01*
X31330Y19379D02*
X31347Y19362D01*
X31272Y19379D02*
X31330D01*
X31357Y19138D02*
Y19372D01*
X31330Y19399D02*
X31357Y19372D01*
X31272Y19399D02*
X31330D01*
X31367Y19134D02*
Y19382D01*
X31330Y19419D02*
X31367Y19382D01*
X31272Y19419D02*
X31330D01*
X31377Y19129D02*
Y19391D01*
X31330Y19438D02*
X31377Y19391D01*
X31272Y19438D02*
X31330D01*
X31387Y19125D02*
Y19401D01*
X31330Y19458D02*
X31387Y19401D01*
X31272Y19458D02*
X31330D01*
X31397Y19121D02*
Y19411D01*
X31330Y19478D02*
X31397Y19411D01*
X31272Y19478D02*
X31330D01*
X31407Y19117D02*
Y19421D01*
X31330Y19498D02*
X31407Y19421D01*
X31272Y19498D02*
X31330D01*
X31417Y19113D02*
Y19430D01*
X31330Y19517D02*
X31417Y19430D01*
X31272Y19517D02*
X31330D01*
X30978Y19872D02*
X31029D01*
X31055Y17970D02*
Y18148D01*
X31092Y18185D01*
Y18213D01*
X31047Y18258D02*
X31092Y18213D01*
X30992Y18037D02*
Y18213D01*
X31037Y18258D01*
X30688Y19503D02*
X30978Y19793D01*
X31029D01*
X30678Y19512D02*
X30978Y19812D01*
X31029D01*
X30978Y19832D02*
X31029D01*
X30798Y19396D02*
X30978Y19576D01*
X31117Y18888D02*
X31792Y18213D01*
X31117Y18888D02*
Y18926D01*
X31136Y18945D01*
X31348D01*
X31132Y18955D02*
X31344D01*
X31107Y18930D02*
X31132Y18955D01*
X31107Y18798D02*
Y18930D01*
Y18798D02*
X31692Y18213D01*
X31097Y18708D02*
X31592Y18213D01*
X31097Y18708D02*
Y18934D01*
X31128Y18965D01*
X31057Y18348D02*
X31192Y18213D01*
X31103Y19025D02*
X31315D01*
X30892Y18213D02*
X31027Y18348D01*
X30792Y18213D02*
X31017Y18438D01*
X30692Y18213D02*
X31007Y18528D01*
X30818Y19377D02*
X30978Y19537D01*
X31029D01*
X30808Y19387D02*
X30978Y19557D01*
X31029D01*
X30978Y19576D02*
X31029D01*
X31840Y18410D02*
X32662D01*
X32555Y18000D02*
X32592Y18037D01*
Y18280D01*
X32482Y18390D02*
X32592Y18280D01*
X32655Y17970D02*
Y18000D01*
X31844Y18420D02*
X32752D01*
X32572Y18400D02*
X32692Y18280D01*
Y18037D02*
Y18280D01*
X32655Y18000D02*
X32692Y18037D01*
X32755Y17970D02*
Y18000D01*
X32792Y18037D01*
Y18280D01*
X32662Y18410D02*
X32792Y18280D01*
X31848Y18430D02*
X32842D01*
X32855Y17970D02*
Y18000D01*
X31852Y18440D02*
X32932D01*
X32752Y18420D02*
X32892Y18280D01*
Y18037D02*
Y18280D01*
X32855Y18000D02*
X32892Y18037D01*
X32955Y17970D02*
Y18000D01*
X32992Y18037D01*
Y18280D01*
X32842Y18430D02*
X32992Y18280D01*
X33055Y17970D02*
X33092Y17933D01*
X32932Y18440D02*
X33092Y18280D01*
Y18266D02*
Y18280D01*
X33055Y18229D02*
X33092Y18266D01*
X31859Y18450D02*
X33022D01*
X33192Y18280D01*
Y18266D02*
Y18280D01*
X33092Y17985D02*
Y18117D01*
X33055Y17970D02*
Y18229D01*
X33192Y17915D02*
X33229Y17952D01*
X33192Y18266D02*
X33229Y18229D01*
Y17952D02*
Y18229D01*
X31128Y18965D02*
X31340D01*
X31124Y18975D02*
X31336D01*
X31087Y18938D02*
X31124Y18975D01*
X31087Y18618D02*
Y18938D01*
Y18618D02*
X31492Y18213D01*
Y18185D02*
Y18213D01*
X31455Y18148D02*
X31492Y18185D01*
X31455Y17970D02*
Y18148D01*
Y17970D02*
X31492Y17933D01*
Y17885D02*
Y17933D01*
X31392Y18037D02*
Y18213D01*
X31077Y18528D02*
X31392Y18213D01*
X31077Y18528D02*
Y18943D01*
X31120Y18985D01*
X31332D01*
X31116Y18995D02*
X31328D01*
X31067Y18947D02*
X31116Y18995D01*
X31067Y18438D02*
Y18947D01*
Y18438D02*
X31292Y18213D01*
Y18185D02*
Y18213D01*
X31255Y18148D02*
X31292Y18185D01*
X31057Y18348D02*
Y18951D01*
X31111Y19005D01*
X31324D01*
X31047Y18258D02*
Y18955D01*
X31107Y19015D01*
X31319D01*
X31037Y18258D02*
Y18959D01*
X31103Y19025D01*
X31027Y18348D02*
Y18963D01*
X31099Y19035D01*
X31017Y18438D02*
Y18967D01*
X31095Y19045D01*
X31007Y18528D02*
Y18972D01*
X31091Y19055D01*
X30592Y18213D02*
X30997Y18618D01*
Y18976D01*
X31087Y19065D01*
X30492Y18213D02*
X30987Y18708D01*
Y18980D01*
X31082Y19075D01*
X30392Y18213D02*
X30977Y18798D01*
Y18984D01*
X31078Y19085D01*
X30292Y18213D02*
X30967Y18888D01*
Y18988D01*
X31074Y19095D01*
X29987Y18846D02*
X30302D01*
X29920Y18716D02*
X30356D01*
X29929Y19438D02*
X30116D01*
X29129Y18639D02*
X29929Y19438D01*
X30009Y19419D02*
X30114D01*
X29129Y18539D02*
X30009Y19419D01*
X30089Y19399D02*
X30114D01*
X29129Y18439D02*
X30089Y19399D01*
X29129Y18339D02*
Y18394D01*
X30114Y19379D01*
X29139Y18335D02*
Y18378D01*
X30114Y19353D01*
X29926Y18706D02*
X30360D01*
X29931Y18696D02*
X30365D01*
X29936Y18686D02*
X30369D01*
X29941Y18676D02*
X30373D01*
X29946Y18666D02*
X30377D01*
X29951Y18656D02*
X30381D01*
X29956Y18646D02*
X30385D01*
X29961Y18636D02*
X30389D01*
X29966Y18626D02*
X30394D01*
X29970Y18615D02*
X30398D01*
X29975Y18604D02*
X30402D01*
X29979Y18594D02*
X30407D01*
X29984Y18583D02*
X30411D01*
X29988Y18573D02*
X30416D01*
X29932Y18736D02*
X30348D01*
X29937Y18746D02*
X30344D01*
X29942Y18756D02*
X30340D01*
X29947Y18766D02*
X30336D01*
X29952Y18776D02*
X30331D01*
X29957Y18786D02*
X30327D01*
X29962Y18796D02*
X30323D01*
X29967Y18806D02*
X30319D01*
X29972Y18816D02*
X30315D01*
X29977Y18826D02*
X30311D01*
X29982Y18836D02*
X30307D01*
X29992Y18856D02*
X30298D01*
X29919Y18687D02*
X29922D01*
X29931Y18696D01*
X29919Y18597D02*
X29922D01*
X29919Y18582D02*
X29922D01*
X29919Y18507D02*
X29922D01*
X29919Y18717D02*
X29920Y18716D01*
X29919Y18702D02*
X29922D01*
X29926Y18706D01*
X29927Y18726D02*
X30352D01*
X29919Y18732D02*
X29922D01*
X29927Y18726D01*
X29919Y18747D02*
X29922D01*
X29932Y18736D01*
X29919Y18762D02*
X29922D01*
X29937Y18746D01*
X29919Y18777D02*
X29922D01*
X29942Y18756D01*
X29919Y18792D02*
X29922D01*
X29947Y18766D01*
X29919Y18807D02*
X29922D01*
X29952Y18776D01*
X29919Y18822D02*
X29922D01*
X29957Y18786D01*
X29919Y18837D02*
X29922D01*
X29962Y18796D01*
X29919Y18852D02*
X29922D01*
X29967Y18806D01*
X29919Y18867D02*
X29922D01*
X29972Y18816D01*
X29919Y18882D02*
X29922D01*
X29977Y18826D01*
X29919Y18897D02*
X29922D01*
X29982Y18836D01*
X29919Y18912D02*
X29922D01*
X29987Y18846D01*
X29919Y18927D02*
X29922D01*
X29992Y18856D01*
X30420Y18562D02*
X30908Y19050D01*
X30416Y18573D02*
X30898Y19055D01*
X30411Y18583D02*
X30888Y19060D01*
X30407Y18594D02*
X30878Y19065D01*
X30402Y18604D02*
X30868Y19070D01*
X30398Y18615D02*
X30858Y19075D01*
X30394Y18626D02*
X30848Y19080D01*
X30389Y18636D02*
X30838Y19085D01*
X30385Y18646D02*
X30828Y19089D01*
X30381Y18656D02*
X30818Y19093D01*
X30377Y18666D02*
X30808Y19097D01*
X30373Y18676D02*
X30798Y19101D01*
X30369Y18686D02*
X30788Y19106D01*
X30365Y18696D02*
X30778Y19110D01*
X30360Y18706D02*
X30768Y19114D01*
X30356Y18716D02*
X30758Y19118D01*
X30352Y18726D02*
X30748Y19122D01*
X30348Y18736D02*
X30738Y19126D01*
X30344Y18746D02*
X30728Y19130D01*
X30340Y18756D02*
X30718Y19135D01*
X30336Y18766D02*
X30708Y19139D01*
X30331Y18776D02*
X30698Y19143D01*
X30327Y18786D02*
X30688Y19147D01*
X30323Y18796D02*
X30678Y19151D01*
X30319Y18806D02*
X30668Y19155D01*
X30315Y18816D02*
X30658Y19159D01*
X30311Y18826D02*
X30648Y19164D01*
X30307Y18836D02*
X30638Y19168D01*
X30302Y18846D02*
X30628Y19172D01*
X29922Y18582D02*
X29966Y18626D01*
X29922Y18597D02*
X29961Y18636D01*
X29919Y18537D02*
X29922D01*
X29979Y18594D01*
X29919Y18492D02*
X29922D01*
X29919Y18612D02*
X29922D01*
X29956Y18646D01*
X29919Y18627D02*
X29922D01*
X29951Y18656D01*
X29919Y18642D02*
X29922D01*
X29946Y18666D01*
X29919Y18657D02*
X29922D01*
X29941Y18676D01*
X29919Y18672D02*
X29922D01*
X29936Y18686D01*
X29919Y18522D02*
X29922D01*
X29919Y18552D02*
X29922D01*
X29975Y18604D01*
X29919Y18567D02*
X29922D01*
X29970Y18615D01*
X29922Y18507D02*
X29988Y18573D01*
X29922Y18522D02*
X29984Y18583D01*
X29992Y18562D02*
X30420D01*
X29922Y18492D02*
X29992Y18562D01*
X30319Y18130D02*
Y18166D01*
X30435Y18136D02*
Y18172D01*
X30635Y18136D02*
Y18172D01*
X32255Y17970D02*
Y18148D01*
X32292Y18185D01*
Y18153D02*
X32316Y18177D01*
Y18180D01*
X30536Y18135D02*
Y18171D01*
X30891Y18153D02*
X30915Y18177D01*
X31091Y18153D02*
X31115Y18177D01*
X31290Y18153D02*
X31314Y18177D01*
X31491Y18153D02*
X31515Y18177D01*
X31691Y18153D02*
X31715Y18177D01*
X31891Y18153D02*
X31915Y18177D01*
X32091Y18153D02*
X32115Y18177D01*
X31195Y19635D02*
X31272D01*
X31195Y19616D02*
X31272D01*
X31195Y19596D02*
X31272D01*
X31195Y19576D02*
X31272D01*
X31195Y19557D02*
X31272D01*
X31195Y19537D02*
X31272D01*
X31195Y19517D02*
X31272D01*
X31195Y19498D02*
X31272D01*
X31195Y19478D02*
X31272D01*
X31195Y19458D02*
X31272D01*
X31195Y19438D02*
X31272D01*
X31195Y19419D02*
X31272D01*
X31195Y19399D02*
X31272D01*
X31195Y19379D02*
X31272D01*
X31195Y19360D02*
X31272D01*
X31195Y19655D02*
X31272D01*
X31195Y19675D02*
X31272D01*
X31195Y19694D02*
X31272D01*
X31195Y19714D02*
X31272D01*
X31195Y19734D02*
X31272D01*
X31195Y19753D02*
X31272D01*
X31195Y19773D02*
X31272D01*
X31195Y19793D02*
X31272D01*
X31195Y19812D02*
X31272D01*
X31195Y19832D02*
X31272D01*
X31195Y19852D02*
X31272D01*
X31195Y19872D02*
X31272D01*
X31195Y19891D02*
X31272D01*
X31195Y19911D02*
X31272D01*
X31195Y19931D02*
X31272D01*
X31117Y19734D02*
X31117Y19734D01*
X31029Y19734D02*
X31117D01*
X31117Y19694D02*
X31117Y19695D01*
X31029Y19694D02*
X31117D01*
X31060Y19655D02*
X31117D01*
X31060Y19655D02*
X31060Y19655D01*
X31029Y19655D02*
X31060D01*
X31060Y19616D02*
X31117D01*
X31060Y19616D02*
X31060Y19616D01*
X31029Y19616D02*
X31060D01*
X31060Y19576D02*
X31117D01*
X31060Y19576D02*
X31060Y19576D01*
X31029Y19576D02*
X31060D01*
X31060Y19537D02*
X31117D01*
X31060Y19537D02*
X31060Y19537D01*
X31029Y19537D02*
X31060D01*
X31117Y19498D02*
X31117Y19498D01*
X31029Y19498D02*
X31117D01*
X31029Y19458D02*
X31117D01*
X31117Y19438D02*
X31117Y19438D01*
X31029Y19438D02*
X31117D01*
X31117Y19773D02*
X31117Y19773D01*
X31029Y19773D02*
X31117D01*
X31117Y19793D02*
X31117Y19793D01*
X31029Y19793D02*
X31117D01*
X31117Y19812D02*
X31117Y19813D01*
X31029Y19812D02*
X31117D01*
X31117Y19832D02*
X31117Y19832D01*
X31029Y19832D02*
X31117D01*
X31117Y19852D02*
X31117Y19852D01*
X31029Y19852D02*
X31117D01*
X31117Y19872D02*
X31117Y19872D01*
X31029Y19872D02*
X31117D01*
X31117Y19891D02*
X31117Y19892D01*
X31029Y19891D02*
X31117D01*
X31117Y19911D02*
X31117Y19911D01*
X31029Y19911D02*
X31117D01*
X31117Y19931D02*
X31117Y19931D01*
X31029Y19931D02*
X31117D01*
X31192Y17592D02*
X31292D01*
X31392D02*
X31492D01*
X31592D01*
X31692D01*
X31792D01*
X31892D02*
X31992D01*
X32092D01*
X32192D02*
X32292D01*
X32392D01*
X32492D02*
X32592D01*
X32692D01*
X31292D02*
X31337D01*
X31392D01*
X31792D02*
X31842D01*
X31892D01*
X32392D02*
X32437D01*
X32492D01*
X32092D02*
X32139D01*
X32192D01*
X31190Y20212D02*
X31196Y20206D01*
X31174Y20315D02*
Y20321D01*
Y20290D02*
Y20296D01*
Y20265D02*
Y20271D01*
X31173Y20241D02*
Y20245D01*
X31174Y20385D02*
X31192Y20403D01*
X31197Y20536D02*
X31197Y20536D01*
X31196Y20561D02*
X31272D01*
X31193Y20385D02*
X31195Y20383D01*
X31272D01*
X31192Y20403D02*
X31272D01*
X31192Y20364D02*
X31272D01*
X31192D02*
X31193Y20364D01*
X31193D01*
X31194Y20365D01*
X30923Y20501D02*
X31029D01*
X30922Y20482D02*
X31029D01*
X30922Y20462D02*
X31029D01*
X30923Y20423D02*
X31029D01*
X30924Y20364D02*
X31029D01*
X30924Y20344D02*
X31029D01*
X30924Y20600D02*
X31029D01*
X30922Y20602D02*
X30924Y20600D01*
X30923Y20521D02*
X31029D01*
X30922Y20502D02*
X30923Y20501D01*
X30922Y20482D02*
X30922Y20482D01*
X30922Y20462D02*
X30922Y20462D01*
X30923Y20442D02*
X31029D01*
X30922Y20442D02*
X30923Y20442D01*
X30922Y20422D02*
X30923Y20423D01*
X30923Y20403D02*
X31029D01*
X30922Y20402D02*
X30923Y20403D01*
X30924Y20383D02*
X31029D01*
X30922Y20382D02*
X30924Y20383D01*
X30922Y20362D02*
X30924Y20364D01*
X30922Y20342D02*
X30924Y20344D01*
X30922Y20222D02*
X30926Y20226D01*
X31029D01*
X30922Y20202D02*
X30926Y20206D01*
X31029D01*
X30922Y20182D02*
X30927Y20187D01*
X31029D01*
X30922Y20162D02*
X30927Y20167D01*
X31029D01*
X30922Y20142D02*
X30927Y20147D01*
X31029D01*
X30922Y20242D02*
X30994D01*
X30997Y20246D01*
X31029D01*
X30922Y20262D02*
X30994D01*
X30997Y20265D01*
X31029D01*
X30922Y20282D02*
X30994D01*
X30997Y20285D01*
X31029D01*
X30922Y20302D02*
X30995D01*
X30997Y20305D01*
X31029D01*
X30922Y20322D02*
X30995D01*
X30997Y20324D01*
X31029D01*
X33187Y17990D02*
Y18210D01*
Y17990D02*
X33192Y17985D01*
X32979Y21579D02*
X33270D01*
D18*
X31151Y19978D02*
X31196D01*
X30361Y20765D02*
X31074D01*
X31135Y20826D01*
X31246D01*
X33179Y22759D01*
X31151Y20558D02*
Y20765D01*
X33179Y22759D02*
Y22801D01*
X31151Y20308D02*
Y20558D01*
Y19520D02*
Y19770D01*
Y19978D01*
Y19313D02*
Y19397D01*
Y19520D01*
X31127Y20184D02*
X31151D01*
Y20100D02*
Y20184D01*
Y20308D01*
X30361Y19520D02*
Y19770D01*
Y19313D02*
Y19398D01*
Y19520D01*
Y19770D02*
Y19895D01*
X30336D02*
X30361D01*
Y19978D01*
Y20308D02*
Y20558D01*
Y20100D02*
Y20190D01*
Y20308D01*
Y20558D02*
Y20682D01*
Y20765D01*
X33422Y21679D02*
X33545D01*
X33770Y21904D01*
Y22604D01*
D19*
X30082Y15537D02*
Y15491D01*
X30063Y15526D02*
X30101Y15503D01*
Y15526D02*
X30063Y15503D01*
X30121Y15465D02*
X30118Y15461D01*
X30121Y15457D01*
X30125Y15461D01*
X30121Y15465D01*
X30200Y15518D02*
X30196Y15526D01*
X30188Y15533D01*
X30181Y15537D01*
X30166D01*
X30158Y15533D01*
X30150Y15526D01*
X30147Y15518D01*
X30143Y15507D01*
Y15488D01*
X30147Y15476D01*
X30150Y15469D01*
X30158Y15461D01*
X30166Y15457D01*
X30181D01*
X30188Y15461D01*
X30196Y15469D01*
X30200Y15476D01*
Y15488D01*
X30181D02*
X30200D01*
X30245Y15537D02*
Y15457D01*
X30218Y15537D02*
X30272D01*
X30281D02*
Y15457D01*
X30327D01*
X30398Y15491D02*
X30467D01*
X30580Y15537D02*
Y15457D01*
X30553Y15537D02*
X30607D01*
X30639D02*
X30631Y15533D01*
X30624Y15526D01*
X30620Y15518D01*
X30616Y15507D01*
Y15488D01*
X30620Y15476D01*
X30624Y15469D01*
X30631Y15461D01*
X30639Y15457D01*
X30654D01*
X30662Y15461D01*
X30670Y15469D01*
X30673Y15476D01*
X30677Y15488D01*
Y15507D01*
X30673Y15518D01*
X30670Y15526D01*
X30662Y15533D01*
X30654Y15537D01*
X30639D01*
X30696Y15495D02*
X30730D01*
X30742Y15499D01*
X30745Y15503D01*
X30749Y15511D01*
Y15522D01*
X30745Y15530D01*
X30742Y15533D01*
X30730Y15537D01*
X30696D01*
Y15457D01*
X30830Y15537D02*
Y15457D01*
X30876D01*
X30945D02*
X30915Y15537D01*
X30884Y15457D01*
X30896Y15484D02*
X30934D01*
X30964Y15537D02*
X30994Y15499D01*
Y15457D01*
X31025Y15537D02*
X30994Y15499D01*
X31085Y15537D02*
X31035D01*
Y15457D01*
X31085D01*
X31035Y15499D02*
X31066D01*
X31098Y15537D02*
Y15457D01*
Y15537D02*
X31132D01*
X31144Y15533D01*
X31148Y15530D01*
X31151Y15522D01*
Y15514D01*
X31148Y15507D01*
X31144Y15503D01*
X31132Y15499D01*
X31098D01*
X31125D02*
X31151Y15457D01*
X31289Y15518D02*
X31285Y15526D01*
X31278Y15533D01*
X31270Y15537D01*
X31255D01*
X31247Y15533D01*
X31240Y15526D01*
X31236Y15518D01*
X31232Y15507D01*
Y15488D01*
X31236Y15476D01*
X31240Y15469D01*
X31247Y15461D01*
X31255Y15457D01*
X31270D01*
X31278Y15461D01*
X31285Y15469D01*
X31289Y15476D01*
Y15488D01*
X31270D02*
X31289D01*
X31357Y15537D02*
X31307D01*
Y15457D01*
X31357D01*
X31307Y15499D02*
X31338D01*
X31370Y15537D02*
Y15457D01*
Y15537D02*
X31405D01*
X31416Y15533D01*
X31420Y15530D01*
X31424Y15522D01*
Y15514D01*
X31420Y15507D01*
X31416Y15503D01*
X31405Y15499D01*
X31370D01*
X31397D02*
X31424Y15457D01*
X31442Y15537D02*
Y15457D01*
Y15537D02*
X31476D01*
X31487Y15533D01*
X31491Y15530D01*
X31495Y15522D01*
Y15514D01*
X31491Y15507D01*
X31487Y15503D01*
X31476Y15499D01*
X31442D02*
X31476D01*
X31487Y15495D01*
X31491Y15491D01*
X31495Y15484D01*
Y15472D01*
X31491Y15465D01*
X31487Y15461D01*
X31476Y15457D01*
X31442D01*
X31562Y15537D02*
X31513D01*
Y15457D01*
X31562D01*
X31513Y15499D02*
X31543D01*
X31576Y15537D02*
Y15457D01*
Y15537D02*
X31610D01*
X31621Y15533D01*
X31625Y15530D01*
X31629Y15522D01*
Y15514D01*
X31625Y15507D01*
X31621Y15503D01*
X31610Y15499D01*
X31576D01*
X31602D02*
X31629Y15457D01*
X31710Y15537D02*
Y15457D01*
Y15537D02*
X31736D01*
X31748Y15533D01*
X31755Y15526D01*
X31759Y15518D01*
X31763Y15507D01*
Y15488D01*
X31759Y15476D01*
X31755Y15469D01*
X31748Y15461D01*
X31736Y15457D01*
X31710D01*
X31842D02*
X31811Y15537D01*
X31781Y15457D01*
X31792Y15484D02*
X31830D01*
X31887Y15537D02*
Y15457D01*
X31861Y15537D02*
X31914D01*
X31984Y15457D02*
X31954Y15537D01*
X31923Y15457D01*
X31935Y15484D02*
X31973D01*
D20*
X27210Y15632D02*
X27220D01*
X27210Y15627D02*
Y15637D01*
Y15627D02*
X27220D01*
Y15637D01*
X27210D02*
X27220D01*
X27205Y15622D02*
Y15637D01*
Y15622D02*
X27225D01*
Y15642D01*
X27205D02*
X27225D01*
X27200Y15617D02*
Y15642D01*
Y15617D02*
X27230D01*
Y15647D01*
X27200D02*
X27230D01*
X27195Y15612D02*
Y15652D01*
Y15612D02*
X27235D01*
Y15652D01*
X27195D02*
X27235D01*
X27260Y15582D02*
X27270D01*
X27260Y15577D02*
Y15587D01*
Y15577D02*
X27270D01*
Y15587D01*
X27260D02*
X27270D01*
X27255Y15572D02*
Y15587D01*
Y15572D02*
X27275D01*
Y15592D01*
X27255D02*
X27275D01*
X27250Y15567D02*
Y15592D01*
Y15567D02*
X27280D01*
Y15597D01*
X27250D02*
X27280D01*
X27245Y15562D02*
Y15602D01*
Y15562D02*
X27285D01*
Y15602D01*
X27245D02*
X27285D01*
X27240Y15557D02*
X27290D01*
Y15607D01*
X27190Y15657D02*
X27240D01*
X27190Y15607D02*
Y15657D01*
X27240Y15357D02*
Y15857D01*
X26990Y15607D02*
X27490D01*
X35198Y24788D02*
X35208D01*
X35198Y24783D02*
Y24793D01*
Y24783D02*
X35208D01*
Y24793D01*
X35198D02*
X35208D01*
X35193Y24778D02*
Y24793D01*
Y24778D02*
X35213D01*
Y24798D01*
X35193D02*
X35213D01*
X35188Y24773D02*
Y24798D01*
Y24773D02*
X35218D01*
Y24803D01*
X35188D02*
X35218D01*
X35183Y24768D02*
Y24808D01*
Y24768D02*
X35223D01*
Y24808D01*
X35183D02*
X35223D01*
X35248Y24738D02*
X35258D01*
X35248Y24733D02*
Y24743D01*
Y24733D02*
X35258D01*
Y24743D01*
X35248D02*
X35258D01*
X35243Y24728D02*
Y24743D01*
Y24728D02*
X35263D01*
Y24748D01*
X35243D02*
X35263D01*
X35238Y24723D02*
Y24748D01*
Y24723D02*
X35268D01*
Y24753D01*
X35238D02*
X35268D01*
X35233Y24718D02*
Y24758D01*
Y24718D02*
X35273D01*
Y24758D01*
X35233D02*
X35273D01*
X35228Y24713D02*
X35278D01*
Y24763D01*
X35178Y24813D02*
X35228D01*
X35178Y24763D02*
Y24813D01*
X35228Y24513D02*
Y25013D01*
X34978Y24763D02*
X35478D01*
X26494Y24871D02*
X26504D01*
X26494Y24866D02*
Y24876D01*
Y24866D02*
X26504D01*
Y24876D01*
X26494D02*
X26504D01*
X26489Y24861D02*
Y24876D01*
Y24861D02*
X26509D01*
Y24881D01*
X26489D02*
X26509D01*
X26484Y24856D02*
Y24881D01*
Y24856D02*
X26514D01*
Y24886D01*
X26484D02*
X26514D01*
X26479Y24851D02*
Y24891D01*
Y24851D02*
X26519D01*
Y24891D01*
X26479D02*
X26519D01*
X26544Y24821D02*
X26554D01*
X26544Y24816D02*
Y24826D01*
Y24816D02*
X26554D01*
Y24826D01*
X26544D02*
X26554D01*
X26539Y24811D02*
Y24826D01*
Y24811D02*
X26559D01*
Y24831D01*
X26539D02*
X26559D01*
X26534Y24806D02*
Y24831D01*
Y24806D02*
X26564D01*
Y24836D01*
X26534D02*
X26564D01*
X26529Y24801D02*
Y24841D01*
Y24801D02*
X26569D01*
Y24841D01*
X26529D02*
X26569D01*
X26524Y24796D02*
X26574D01*
Y24846D01*
X26474Y24896D02*
X26524D01*
X26474Y24846D02*
Y24896D01*
X26524Y24596D02*
Y25096D01*
X26274Y24846D02*
X26774D01*
D21*
X30084Y15818D02*
Y15738D01*
X30130D01*
X30200D02*
X30169Y15818D01*
X30139Y15738D01*
X30150Y15764D02*
X30188D01*
X30272Y15806D02*
X30264Y15814D01*
X30253Y15818D01*
X30237D01*
X30226Y15814D01*
X30218Y15806D01*
Y15799D01*
X30222Y15791D01*
X30226Y15787D01*
X30234Y15783D01*
X30256Y15776D01*
X30264Y15772D01*
X30268Y15768D01*
X30272Y15761D01*
Y15749D01*
X30264Y15742D01*
X30253Y15738D01*
X30237D01*
X30226Y15742D01*
X30218Y15749D01*
X30409Y15799D02*
X30406Y15806D01*
X30398Y15814D01*
X30390Y15818D01*
X30375D01*
X30368Y15814D01*
X30360Y15806D01*
X30356Y15799D01*
X30352Y15787D01*
Y15768D01*
X30356Y15757D01*
X30360Y15749D01*
X30368Y15742D01*
X30375Y15738D01*
X30390D01*
X30398Y15742D01*
X30406Y15749D01*
X30409Y15757D01*
X30432Y15818D02*
Y15761D01*
X30436Y15749D01*
X30443Y15742D01*
X30455Y15738D01*
X30462D01*
X30474Y15742D01*
X30481Y15749D01*
X30485Y15761D01*
Y15818D01*
X30507D02*
Y15738D01*
Y15818D02*
X30538Y15738D01*
X30568Y15818D02*
X30538Y15738D01*
X30568Y15818D02*
Y15738D01*
X30591Y15818D02*
Y15738D01*
Y15818D02*
X30625D01*
X30637Y15814D01*
X30641Y15810D01*
X30644Y15803D01*
Y15795D01*
X30641Y15787D01*
X30637Y15783D01*
X30625Y15780D01*
X30591D02*
X30625D01*
X30637Y15776D01*
X30641Y15772D01*
X30644Y15764D01*
Y15753D01*
X30641Y15745D01*
X30637Y15742D01*
X30625Y15738D01*
X30591D01*
X30662Y15818D02*
Y15738D01*
Y15818D02*
X30697D01*
X30708Y15814D01*
X30712Y15810D01*
X30716Y15803D01*
Y15795D01*
X30712Y15787D01*
X30708Y15783D01*
X30697Y15780D01*
X30662D01*
X30689D02*
X30716Y15738D01*
X30783Y15818D02*
X30734D01*
Y15738D01*
X30783D01*
X30734Y15780D02*
X30764D01*
X30850Y15806D02*
X30842Y15814D01*
X30831Y15818D01*
X30815D01*
X30804Y15814D01*
X30796Y15806D01*
Y15799D01*
X30800Y15791D01*
X30804Y15787D01*
X30812Y15783D01*
X30835Y15776D01*
X30842Y15772D01*
X30846Y15768D01*
X30850Y15761D01*
Y15749D01*
X30842Y15742D01*
X30831Y15738D01*
X30815D01*
X30804Y15742D01*
X30796Y15749D01*
X30953Y15818D02*
X30946Y15814D01*
X30938Y15806D01*
X30934Y15799D01*
X30931Y15787D01*
Y15768D01*
X30934Y15757D01*
X30938Y15749D01*
X30946Y15742D01*
X30953Y15738D01*
X30969D01*
X30976Y15742D01*
X30984Y15749D01*
X30988Y15757D01*
X30991Y15768D01*
Y15787D01*
X30988Y15799D01*
X30984Y15806D01*
X30976Y15814D01*
X30969Y15818D01*
X30953D01*
X31010D02*
Y15738D01*
Y15818D02*
X31044D01*
X31056Y15814D01*
X31060Y15810D01*
X31063Y15803D01*
Y15795D01*
X31060Y15787D01*
X31056Y15783D01*
X31044Y15780D01*
X31010D02*
X31044D01*
X31056Y15776D01*
X31060Y15772D01*
X31063Y15764D01*
Y15753D01*
X31060Y15745D01*
X31056Y15742D01*
X31044Y15738D01*
X31010D01*
X31135Y15806D02*
X31127Y15814D01*
X31116Y15818D01*
X31100D01*
X31089Y15814D01*
X31081Y15806D01*
Y15799D01*
X31085Y15791D01*
X31089Y15787D01*
X31097Y15783D01*
X31119Y15776D01*
X31127Y15772D01*
X31131Y15768D01*
X31135Y15761D01*
Y15749D01*
X31127Y15742D01*
X31116Y15738D01*
X31100D01*
X31089Y15742D01*
X31081Y15749D01*
X31202Y15818D02*
X31153D01*
Y15738D01*
X31202D01*
X31153Y15780D02*
X31183D01*
X31215Y15818D02*
Y15738D01*
Y15818D02*
X31250D01*
X31261Y15814D01*
X31265Y15810D01*
X31269Y15803D01*
Y15795D01*
X31265Y15787D01*
X31261Y15783D01*
X31250Y15780D01*
X31215D01*
X31242D02*
X31269Y15738D01*
X31287Y15818D02*
X31317Y15738D01*
X31348Y15818D02*
X31317Y15738D01*
X31419D02*
X31388Y15818D01*
X31358Y15738D01*
X31369Y15764D02*
X31407D01*
X31464Y15818D02*
Y15738D01*
X31437Y15818D02*
X31491D01*
X31523D02*
X31516Y15814D01*
X31508Y15806D01*
X31504Y15799D01*
X31500Y15787D01*
Y15768D01*
X31504Y15757D01*
X31508Y15749D01*
X31516Y15742D01*
X31523Y15738D01*
X31538D01*
X31546Y15742D01*
X31554Y15749D01*
X31557Y15757D01*
X31561Y15768D01*
Y15787D01*
X31557Y15799D01*
X31554Y15806D01*
X31546Y15814D01*
X31538Y15818D01*
X31523D01*
X31580D02*
Y15738D01*
Y15818D02*
X31614D01*
X31626Y15814D01*
X31629Y15810D01*
X31633Y15803D01*
Y15795D01*
X31629Y15787D01*
X31626Y15783D01*
X31614Y15780D01*
X31580D01*
X31607D02*
X31633Y15738D01*
X31651Y15818D02*
X31682Y15780D01*
Y15738D01*
X31712Y15818D02*
X31682Y15780D01*
X32037Y15803D02*
X32044Y15806D01*
X32056Y15818D01*
Y15738D01*
X32095Y15803D02*
X32103Y15806D01*
X32114Y15818D01*
Y15738D01*
X32154Y15726D02*
X32207Y15818D01*
X32213Y15803D02*
X32220Y15806D01*
X32232Y15818D01*
Y15738D01*
X32271Y15803D02*
X32279Y15806D01*
X32290Y15818D01*
Y15738D01*
X32330Y15726D02*
X32383Y15818D01*
X32392Y15799D02*
Y15803D01*
X32396Y15810D01*
X32400Y15814D01*
X32408Y15818D01*
X32423D01*
X32430Y15814D01*
X32434Y15810D01*
X32438Y15803D01*
Y15795D01*
X32434Y15787D01*
X32427Y15776D01*
X32388Y15738D01*
X32442D01*
X32483Y15818D02*
X32471Y15814D01*
X32464Y15803D01*
X32460Y15783D01*
Y15772D01*
X32464Y15753D01*
X32471Y15742D01*
X32483Y15738D01*
X32490D01*
X32502Y15742D01*
X32509Y15753D01*
X32513Y15772D01*
Y15783D01*
X32509Y15803D01*
X32502Y15814D01*
X32490Y15818D01*
X32483D01*
X32531Y15803D02*
X32539Y15806D01*
X32550Y15818D01*
Y15738D01*
X32590Y15803D02*
X32597Y15806D01*
X32609Y15818D01*
Y15738D01*
D22*
X30084Y15953D02*
X30092Y15956D01*
X30103Y15968D01*
Y15888D01*
X30196Y15968D02*
X30158Y15888D01*
X30143Y15968D02*
X30196D01*
X30260D02*
X30222D01*
X30218Y15933D01*
X30222Y15937D01*
X30233Y15941D01*
X30245D01*
X30256Y15937D01*
X30264Y15930D01*
X30267Y15918D01*
Y15911D01*
X30264Y15899D01*
X30256Y15892D01*
X30245Y15888D01*
X30233D01*
X30222Y15892D01*
X30218Y15895D01*
X30214Y15903D01*
X30285Y15922D02*
X30354D01*
X30400Y15968D02*
X30389Y15964D01*
X30381Y15953D01*
X30377Y15933D01*
Y15922D01*
X30381Y15903D01*
X30389Y15892D01*
X30400Y15888D01*
X30408D01*
X30419Y15892D01*
X30427Y15903D01*
X30431Y15922D01*
Y15933D01*
X30427Y15953D01*
X30419Y15964D01*
X30408Y15968D01*
X30400D01*
X30472D02*
X30460Y15964D01*
X30453Y15953D01*
X30449Y15933D01*
Y15922D01*
X30453Y15903D01*
X30460Y15892D01*
X30472Y15888D01*
X30479D01*
X30491Y15892D01*
X30498Y15903D01*
X30502Y15922D01*
Y15933D01*
X30498Y15953D01*
X30491Y15964D01*
X30479Y15968D01*
X30472D01*
X30543D02*
X30531Y15964D01*
X30524Y15953D01*
X30520Y15933D01*
Y15922D01*
X30524Y15903D01*
X30531Y15892D01*
X30543Y15888D01*
X30550D01*
X30562Y15892D01*
X30569Y15903D01*
X30573Y15922D01*
Y15933D01*
X30569Y15953D01*
X30562Y15964D01*
X30550Y15968D01*
X30543D01*
X30599D02*
X30641D01*
X30618Y15937D01*
X30629D01*
X30637Y15933D01*
X30641Y15930D01*
X30644Y15918D01*
Y15911D01*
X30641Y15899D01*
X30633Y15892D01*
X30622Y15888D01*
X30610D01*
X30599Y15892D01*
X30595Y15895D01*
X30591Y15903D01*
X30708Y15956D02*
X30704Y15964D01*
X30693Y15968D01*
X30685D01*
X30674Y15964D01*
X30666Y15953D01*
X30662Y15933D01*
Y15914D01*
X30666Y15899D01*
X30674Y15892D01*
X30685Y15888D01*
X30689D01*
X30700Y15892D01*
X30708Y15899D01*
X30712Y15911D01*
Y15914D01*
X30708Y15926D01*
X30700Y15933D01*
X30689Y15937D01*
X30685D01*
X30674Y15933D01*
X30666Y15926D01*
X30662Y15914D01*
X30792Y15941D02*
Y15888D01*
Y15918D02*
X30796Y15930D01*
X30804Y15937D01*
X30811Y15941D01*
X30823D01*
X30830Y15918D02*
X30876D01*
Y15926D01*
X30872Y15933D01*
X30868Y15937D01*
X30860Y15941D01*
X30849D01*
X30841Y15937D01*
X30834Y15930D01*
X30830Y15918D01*
Y15911D01*
X30834Y15899D01*
X30841Y15892D01*
X30849Y15888D01*
X30860D01*
X30868Y15892D01*
X30876Y15899D01*
X30893Y15941D02*
X30916Y15888D01*
X30939Y15941D02*
X30916Y15888D01*
X30951Y15953D02*
X30959Y15956D01*
X30971Y15968D01*
Y15888D01*
D23*
X29636Y17879D02*
D03*
X29045Y21816D02*
D03*
X32195Y19257D02*
D03*
Y22210D02*
D03*
X33770Y17092D02*
D03*
X28258D02*
D03*
Y24179D02*
D03*
X33770D02*
D03*
D24*
X31231Y20796D02*
D03*
Y19281D02*
D03*
X30441Y20796D02*
D03*
Y19281D02*
D03*
D25*
X28910Y18239D02*
D03*
Y18339D02*
D03*
Y18439D02*
D03*
Y18539D02*
D03*
Y18639D02*
D03*
Y18739D02*
D03*
Y18839D02*
D03*
Y18939D02*
D03*
Y19039D02*
D03*
Y19139D02*
D03*
Y19239D02*
D03*
Y19339D02*
D03*
Y19439D02*
D03*
Y19539D02*
D03*
Y19639D02*
D03*
Y19739D02*
D03*
Y19839D02*
D03*
Y19939D02*
D03*
Y20039D02*
D03*
Y20139D02*
D03*
Y20239D02*
D03*
Y20339D02*
D03*
Y20439D02*
D03*
Y20539D02*
D03*
Y20639D02*
D03*
Y20739D02*
D03*
Y20839D02*
D03*
Y20939D02*
D03*
Y21039D02*
D03*
Y21139D02*
D03*
X28810Y18239D02*
D03*
Y18339D02*
D03*
Y18439D02*
D03*
Y18539D02*
D03*
Y18639D02*
D03*
Y18739D02*
D03*
Y18839D02*
D03*
Y18939D02*
D03*
Y19039D02*
D03*
Y19139D02*
D03*
Y19239D02*
D03*
Y19339D02*
D03*
Y19439D02*
D03*
Y19539D02*
D03*
Y19639D02*
D03*
Y19739D02*
D03*
Y19839D02*
D03*
Y19939D02*
D03*
Y20039D02*
D03*
Y20139D02*
D03*
Y20239D02*
D03*
Y20339D02*
D03*
Y20439D02*
D03*
Y20539D02*
D03*
Y20639D02*
D03*
Y20739D02*
D03*
Y20839D02*
D03*
Y20939D02*
D03*
Y21039D02*
D03*
X30075Y23540D02*
D03*
X30175D02*
D03*
X30275D02*
D03*
X30375D02*
D03*
X30475D02*
D03*
X30575D02*
D03*
X30675D02*
D03*
X30775D02*
D03*
X30875D02*
D03*
X30975D02*
D03*
X31075D02*
D03*
X31175D02*
D03*
X31275D02*
D03*
X31375D02*
D03*
X31475D02*
D03*
X31575D02*
D03*
X31675D02*
D03*
X31775D02*
D03*
X31875D02*
D03*
X31975D02*
D03*
X32075D02*
D03*
X32175D02*
D03*
X32275D02*
D03*
X32375D02*
D03*
X32475D02*
D03*
X32575D02*
D03*
X32675D02*
D03*
X32775D02*
D03*
X32875D02*
D03*
X32975D02*
D03*
X30075Y23640D02*
D03*
X30175D02*
D03*
X30275D02*
D03*
X30375D02*
D03*
X30475D02*
D03*
X30575D02*
D03*
X30675D02*
D03*
X30775D02*
D03*
X30875D02*
D03*
X30975D02*
D03*
X31075D02*
D03*
X31175D02*
D03*
X31275D02*
D03*
X31375D02*
D03*
X31475D02*
D03*
X31575D02*
D03*
X31675D02*
D03*
X31775D02*
D03*
X31875D02*
D03*
X31975D02*
D03*
X32075D02*
D03*
X32175D02*
D03*
X32275D02*
D03*
X32375D02*
D03*
X32475D02*
D03*
X32575D02*
D03*
X32675D02*
D03*
X32775D02*
D03*
X32875D02*
D03*
X33422Y19079D02*
D03*
Y19179D02*
D03*
Y19279D02*
D03*
Y19379D02*
D03*
Y19479D02*
D03*
Y19579D02*
D03*
Y19679D02*
D03*
Y19779D02*
D03*
Y19879D02*
D03*
Y19979D02*
D03*
Y20079D02*
D03*
Y20179D02*
D03*
Y20279D02*
D03*
Y20379D02*
D03*
Y20479D02*
D03*
Y20579D02*
D03*
Y20679D02*
D03*
Y20779D02*
D03*
Y20879D02*
D03*
Y20979D02*
D03*
Y21079D02*
D03*
Y21179D02*
D03*
Y21279D02*
D03*
Y21379D02*
D03*
Y21479D02*
D03*
Y21579D02*
D03*
Y21679D02*
D03*
Y21779D02*
D03*
Y21879D02*
D03*
X33322Y18979D02*
D03*
Y19079D02*
D03*
Y19179D02*
D03*
Y19279D02*
D03*
Y19379D02*
D03*
Y19479D02*
D03*
Y19579D02*
D03*
Y19679D02*
D03*
Y19779D02*
D03*
Y19879D02*
D03*
Y19979D02*
D03*
Y20079D02*
D03*
Y20179D02*
D03*
Y20279D02*
D03*
Y20379D02*
D03*
Y20479D02*
D03*
Y20579D02*
D03*
Y20679D02*
D03*
Y20779D02*
D03*
Y20879D02*
D03*
Y20979D02*
D03*
Y21079D02*
D03*
Y21179D02*
D03*
Y21279D02*
D03*
Y21379D02*
D03*
Y21479D02*
D03*
Y21579D02*
D03*
Y21679D02*
D03*
Y21779D02*
D03*
Y21879D02*
D03*
X33092Y17985D02*
D03*
X32992D02*
D03*
X32892D02*
D03*
X32792D02*
D03*
X32692D02*
D03*
X32592D02*
D03*
X32492D02*
D03*
X32392D02*
D03*
X32292D02*
D03*
X32192D02*
D03*
X32092D02*
D03*
X31992D02*
D03*
X31892D02*
D03*
X31792D02*
D03*
X31692D02*
D03*
X31592D02*
D03*
X31492D02*
D03*
X31392D02*
D03*
X31292D02*
D03*
X31192D02*
D03*
X31092D02*
D03*
X30992D02*
D03*
X30892D02*
D03*
X30792D02*
D03*
X30692D02*
D03*
X30592D02*
D03*
X30492D02*
D03*
X30392D02*
D03*
X30292D02*
D03*
X33192Y17885D02*
D03*
X33092D02*
D03*
X32992D02*
D03*
X32892D02*
D03*
X32792D02*
D03*
X32692D02*
D03*
X32592D02*
D03*
X32492D02*
D03*
X32392D02*
D03*
X32292D02*
D03*
X32192D02*
D03*
X32092D02*
D03*
X31992D02*
D03*
X31892D02*
D03*
X31792D02*
D03*
X31692D02*
D03*
X31592D02*
D03*
X31492D02*
D03*
X31392D02*
D03*
X31292D02*
D03*
X31192D02*
D03*
X31092D02*
D03*
X30992D02*
D03*
X30892D02*
D03*
X30792D02*
D03*
X30692D02*
D03*
X30592D02*
D03*
X30492D02*
D03*
X30392D02*
D03*
X30292D02*
D03*
X28744Y22867D02*
D03*
X28844D02*
D03*
X28744Y22767D02*
D03*
X28844D02*
D03*
X28744Y22667D02*
D03*
X28844D02*
D03*
X28744Y22567D02*
D03*
X28844D02*
D03*
X28744Y22467D02*
D03*
X28844D02*
D03*
X28744Y22367D02*
D03*
X28844D02*
D03*
X28744Y22267D02*
D03*
D26*
X28810Y21139D02*
D03*
X33422Y18979D02*
D03*
X28844Y22267D02*
D03*
D27*
X32975Y23640D02*
D03*
X33192Y17985D02*
D03*
D28*
X30255Y19249D02*
D03*
Y20829D02*
D03*
X31045Y19249D02*
D03*
Y20829D02*
D03*
X31196Y19978D02*
D03*
X30361Y20682D02*
D03*
X31150Y20676D02*
D03*
X31151Y19397D02*
D03*
X31127Y20184D02*
D03*
X30361Y19398D02*
D03*
X30336Y19895D02*
D03*
X30361Y20190D02*
D03*
D29*
X28578Y23877D02*
D03*
X33668Y18323D02*
D03*
Y23687D02*
D03*
X28320Y17540D02*
D03*
X28350Y21793D02*
D03*
X29902Y17205D02*
D03*
X33179Y22801D02*
D03*
X33376Y22604D02*
D03*
X33573Y22801D02*
D03*
X33770Y22604D02*
D03*
D30*
X30401Y19714D02*
D03*
X30570Y20489D02*
D03*
X30560Y20402D02*
D03*
X30577Y20422D02*
D03*
X30583Y20447D02*
D03*
X30588Y20543D02*
D03*
X30570Y20524D02*
D03*
X30558Y20472D02*
D03*
X30559Y20421D02*
D03*
Y20564D02*
D03*
X30555Y20600D02*
D03*
X30570Y20621D02*
D03*
X30562Y20646D02*
D03*
X30590Y20570D02*
D03*
X30561Y20364D02*
D03*
Y20324D02*
D03*
Y20305D02*
D03*
X30582Y20277D02*
D03*
X30571Y20246D02*
D03*
X30561Y20344D02*
D03*
Y20285D02*
D03*
Y20383D02*
D03*
X30400Y20423D02*
D03*
Y20403D02*
D03*
Y20384D02*
D03*
Y20364D02*
D03*
Y20285D02*
D03*
Y20305D02*
D03*
Y20324D02*
D03*
Y20344D02*
D03*
X30313Y20423D02*
D03*
Y20383D02*
D03*
Y20344D02*
D03*
X30922Y20722D02*
D03*
Y20682D02*
D03*
Y20662D02*
D03*
Y20622D02*
D03*
Y20602D02*
D03*
Y20642D02*
D03*
Y20702D02*
D03*
Y20582D02*
D03*
Y20562D02*
D03*
Y20522D02*
D03*
Y20542D02*
D03*
X30313Y20659D02*
D03*
Y20699D02*
D03*
X30577Y20693D02*
D03*
X30570Y20728D02*
D03*
X29843Y21484D02*
D03*
X29813D02*
D03*
X29783D02*
D03*
X29828D02*
D03*
X29858D02*
D03*
X29873D02*
D03*
X29888D02*
D03*
X29903D02*
D03*
X29933D02*
D03*
X31117Y19458D02*
D03*
X32274Y23315D02*
D03*
X32175D02*
D03*
X32075D02*
D03*
X31975D02*
D03*
X31575D02*
D03*
X31675D02*
D03*
X31775D02*
D03*
X31877D02*
D03*
X30570Y20231D02*
D03*
X30571Y20206D02*
D03*
X30128Y20423D02*
D03*
Y20383D02*
D03*
Y20344D02*
D03*
Y20305D02*
D03*
Y20265D02*
D03*
Y20226D02*
D03*
Y20206D02*
D03*
Y20187D02*
D03*
Y20167D02*
D03*
Y20147D02*
D03*
Y20501D02*
D03*
Y20541D02*
D03*
Y20580D02*
D03*
Y20620D02*
D03*
X29672Y23545D02*
D03*
X29662Y23535D02*
D03*
X29651Y23524D02*
D03*
X29641Y23513D02*
D03*
X29630Y23503D02*
D03*
X29619Y23492D02*
D03*
X29609Y23482D02*
D03*
X29598Y23471D02*
D03*
X29588Y23460D02*
D03*
X29577Y23450D02*
D03*
X29566Y23439D02*
D03*
X29556Y23429D02*
D03*
X29545Y23418D02*
D03*
X29535Y23407D02*
D03*
X29524Y23397D02*
D03*
X29513Y23386D02*
D03*
X29503Y23375D02*
D03*
X29492Y23365D02*
D03*
X29481Y23354D02*
D03*
X29471Y23344D02*
D03*
X29460Y23333D02*
D03*
X29450Y23322D02*
D03*
X29439Y23312D02*
D03*
X29428Y23301D02*
D03*
X29418Y23291D02*
D03*
X29407Y23280D02*
D03*
X29397Y23269D02*
D03*
X29683Y23556D02*
D03*
X29694Y23566D02*
D03*
X29704Y23577D02*
D03*
X29798Y21484D02*
D03*
X29768D02*
D03*
X29918D02*
D03*
X29948D02*
D03*
X29963D02*
D03*
X29978D02*
D03*
X30128Y20659D02*
D03*
Y20698D02*
D03*
Y20724D02*
D03*
X30135Y20684D02*
D03*
Y20645D02*
D03*
Y20605D02*
D03*
Y20566D02*
D03*
X30135Y20526D02*
D03*
X30135Y20408D02*
D03*
Y20369D02*
D03*
X30135Y20330D02*
D03*
X30135Y20290D02*
D03*
Y20251D02*
D03*
X30576Y22596D02*
D03*
Y22581D02*
D03*
Y22566D02*
D03*
Y22551D02*
D03*
Y22536D02*
D03*
Y22521D02*
D03*
Y22506D02*
D03*
Y22491D02*
D03*
Y22476D02*
D03*
Y22461D02*
D03*
Y22446D02*
D03*
Y22431D02*
D03*
X32237Y22500D02*
D03*
Y22515D02*
D03*
Y22530D02*
D03*
Y22545D02*
D03*
X29074Y21104D02*
D03*
X29082Y20913D02*
D03*
X29070Y20719D02*
D03*
X29071Y20524D02*
D03*
X29070Y20320D02*
D03*
X29075Y20124D02*
D03*
X29086Y19924D02*
D03*
X29092Y19723D02*
D03*
X29094Y19555D02*
D03*
X29090Y19361D02*
D03*
X29091Y19167D02*
D03*
X29082Y18958D02*
D03*
X29080Y18756D02*
D03*
X29077Y18558D02*
D03*
X29095Y18366D02*
D03*
X30401Y19812D02*
D03*
Y19832D02*
D03*
Y19852D02*
D03*
Y19872D02*
D03*
Y19931D02*
D03*
X30111Y19501D02*
D03*
X30110Y19384D02*
D03*
X30114Y19349D02*
D03*
X30124Y19659D02*
D03*
X30105Y19642D02*
D03*
X30106Y19679D02*
D03*
X30099Y19751D02*
D03*
X30105Y19716D02*
D03*
X30122Y19737D02*
D03*
X30121Y19856D02*
D03*
X30096Y19791D02*
D03*
X30114Y19810D02*
D03*
X30121Y19916D02*
D03*
X30107Y19938D02*
D03*
X30549Y19596D02*
D03*
Y19576D02*
D03*
Y19557D02*
D03*
Y19419D02*
D03*
Y19399D02*
D03*
Y19616D02*
D03*
Y19655D02*
D03*
Y19675D02*
D03*
Y19695D02*
D03*
Y19714D02*
D03*
Y19754D02*
D03*
Y19773D02*
D03*
Y19793D02*
D03*
Y19813D02*
D03*
Y19911D02*
D03*
Y19931D02*
D03*
X30114Y19773D02*
D03*
X30105Y19835D02*
D03*
X30098Y19870D02*
D03*
X30114Y19891D02*
D03*
Y19423D02*
D03*
X30130Y19429D02*
D03*
X30111Y19461D02*
D03*
X30401Y19419D02*
D03*
X30389Y19521D02*
D03*
X30401Y19393D02*
D03*
Y19368D02*
D03*
Y19343D02*
D03*
X30417Y19496D02*
D03*
X30399Y19477D02*
D03*
Y19452D02*
D03*
X30414Y19431D02*
D03*
X30398Y19573D02*
D03*
X30401Y19548D02*
D03*
X30415Y19525D02*
D03*
X30401Y19689D02*
D03*
Y19664D02*
D03*
Y19639D02*
D03*
X30384Y19620D02*
D03*
X30401Y19614D02*
D03*
X30415Y19592D02*
D03*
X30417Y19730D02*
D03*
X30417Y19793D02*
D03*
X30400Y19773D02*
D03*
X30399Y19748D02*
D03*
X30401Y19905D02*
D03*
X30389Y19882D02*
D03*
X30132Y19386D02*
D03*
X30121Y19620D02*
D03*
X30098Y19592D02*
D03*
X30117Y19574D02*
D03*
X30101Y19567D02*
D03*
X30111Y19532D02*
D03*
X30135Y19474D02*
D03*
X30136Y19509D02*
D03*
X28702Y19471D02*
D03*
Y19371D02*
D03*
Y19269D02*
D03*
Y19067D02*
D03*
Y18974D02*
D03*
Y18871D02*
D03*
Y18771D02*
D03*
Y18569D02*
D03*
Y18469D02*
D03*
Y18374D02*
D03*
Y18202D02*
D03*
Y19579D02*
D03*
Y19774D02*
D03*
Y19874D02*
D03*
Y19971D02*
D03*
Y20069D02*
D03*
Y20271D02*
D03*
Y20371D02*
D03*
Y20471D02*
D03*
Y20573D02*
D03*
Y21000D02*
D03*
Y21102D02*
D03*
X30124Y19698D02*
D03*
X30135Y20448D02*
D03*
Y20487D02*
D03*
X30128Y20462D02*
D03*
X30313Y20147D02*
D03*
Y20186D02*
D03*
Y20226D02*
D03*
Y20265D02*
D03*
Y20305D02*
D03*
Y20462D02*
D03*
Y20502D02*
D03*
Y20541D02*
D03*
Y20580D02*
D03*
Y20620D02*
D03*
X30570Y20187D02*
D03*
Y20141D02*
D03*
X30581Y20176D02*
D03*
X30565Y20684D02*
D03*
X30570Y20659D02*
D03*
X30922Y20422D02*
D03*
Y20402D02*
D03*
Y20382D02*
D03*
Y20362D02*
D03*
Y20342D02*
D03*
Y20322D02*
D03*
Y20302D02*
D03*
Y20282D02*
D03*
Y20262D02*
D03*
Y20242D02*
D03*
Y20222D02*
D03*
Y20202D02*
D03*
Y20182D02*
D03*
Y20162D02*
D03*
Y20142D02*
D03*
Y20442D02*
D03*
Y20462D02*
D03*
Y20482D02*
D03*
Y20502D02*
D03*
X31340Y20690D02*
D03*
X31327Y20713D02*
D03*
X31362Y20671D02*
D03*
X31343Y20654D02*
D03*
X31367Y20636D02*
D03*
X31341Y20611D02*
D03*
X31368Y20609D02*
D03*
X31344Y20586D02*
D03*
X31167Y20433D02*
D03*
X31190Y20147D02*
D03*
X30549Y19360D02*
D03*
Y19379D02*
D03*
Y19458D02*
D03*
Y19478D02*
D03*
Y19498D02*
D03*
Y19517D02*
D03*
X29919Y18687D02*
D03*
Y18717D02*
D03*
Y18747D02*
D03*
Y18777D02*
D03*
Y18792D02*
D03*
Y18807D02*
D03*
Y18822D02*
D03*
Y18837D02*
D03*
Y18852D02*
D03*
Y18867D02*
D03*
Y18882D02*
D03*
Y18897D02*
D03*
Y18912D02*
D03*
Y18927D02*
D03*
Y18492D02*
D03*
Y18657D02*
D03*
Y18642D02*
D03*
Y18627D02*
D03*
Y18612D02*
D03*
Y18597D02*
D03*
Y18567D02*
D03*
Y18762D02*
D03*
Y18732D02*
D03*
Y18702D02*
D03*
Y18582D02*
D03*
Y18552D02*
D03*
Y18672D02*
D03*
Y18537D02*
D03*
Y18507D02*
D03*
Y18522D02*
D03*
X30536Y18171D02*
D03*
X30635Y18172D02*
D03*
X32316Y18180D02*
D03*
X32115D02*
D03*
X31915D02*
D03*
X31715D02*
D03*
X31515D02*
D03*
X31314D02*
D03*
X30915D02*
D03*
X31115D02*
D03*
X30435Y18172D02*
D03*
X30319Y18166D02*
D03*
X30129Y19070D02*
D03*
Y19056D02*
D03*
Y19041D02*
D03*
Y19025D02*
D03*
Y19010D02*
D03*
Y18996D02*
D03*
Y19086D02*
D03*
Y19101D02*
D03*
Y19115D02*
D03*
Y19131D02*
D03*
Y19146D02*
D03*
Y19160D02*
D03*
X31195Y19635D02*
D03*
Y19616D02*
D03*
Y19596D02*
D03*
Y19576D02*
D03*
Y19557D02*
D03*
Y19537D02*
D03*
Y19517D02*
D03*
Y19498D02*
D03*
Y19478D02*
D03*
Y19458D02*
D03*
Y19438D02*
D03*
Y19419D02*
D03*
Y19399D02*
D03*
Y19379D02*
D03*
Y19360D02*
D03*
Y19655D02*
D03*
Y19675D02*
D03*
Y19694D02*
D03*
Y19714D02*
D03*
Y19734D02*
D03*
Y19753D02*
D03*
Y19773D02*
D03*
Y19793D02*
D03*
Y19812D02*
D03*
Y19832D02*
D03*
Y19852D02*
D03*
Y19872D02*
D03*
Y19891D02*
D03*
Y19911D02*
D03*
Y19931D02*
D03*
X31117Y19734D02*
D03*
Y19695D02*
D03*
Y19655D02*
D03*
Y19616D02*
D03*
Y19576D02*
D03*
Y19537D02*
D03*
Y19498D02*
D03*
Y19438D02*
D03*
Y19773D02*
D03*
Y19793D02*
D03*
Y19813D02*
D03*
Y19832D02*
D03*
Y19852D02*
D03*
Y19872D02*
D03*
Y19892D02*
D03*
Y19911D02*
D03*
Y19931D02*
D03*
X31337Y17592D02*
D03*
X31842D02*
D03*
X32437D02*
D03*
X32139D02*
D03*
X31190Y20212D02*
D03*
Y20187D02*
D03*
X31196Y20561D02*
D03*
X31210Y20501D02*
D03*
X31197Y20536D02*
D03*
X31190Y20507D02*
D03*
X31193Y20385D02*
D03*
X31174Y20271D02*
D03*
Y20321D02*
D03*
Y20385D02*
D03*
Y20501D02*
D03*
X31192Y20468D02*
D03*
Y20443D02*
D03*
X31168Y20170D02*
D03*
X31174Y20206D02*
D03*
X31199Y20329D02*
D03*
X31174Y20296D02*
D03*
X31194Y20365D02*
D03*
X31177Y20370D02*
D03*
X31173Y20245D02*
D03*
M02*
