%FSLAX23Y23*%
%MOIN*%
G70*
G01*
G75*
G04 Layer_Physical_Order=1*
G04 Layer_Color=255*
%ADD10R,0.051X0.059*%
%ADD11R,0.102X0.094*%
%ADD12R,0.070X0.135*%
%ADD13R,0.050X0.050*%
%ADD14R,0.079X0.209*%
%ADD15R,0.050X0.050*%
%ADD16R,0.022X0.057*%
%ADD17R,0.022X0.057*%
%ADD18R,0.059X0.051*%
%ADD19R,0.200X0.040*%
%ADD20R,0.200X0.150*%
%ADD21R,0.057X0.022*%
%ADD22R,0.057X0.022*%
%ADD23R,0.036X0.036*%
%ADD24O,0.014X0.067*%
%ADD25O,0.024X0.079*%
%ADD26R,0.059X0.039*%
%ADD27R,0.057X0.012*%
%ADD28R,0.025X0.185*%
%ADD29R,0.025X0.100*%
%ADD30C,0.010*%
%ADD31C,0.050*%
%ADD32C,0.007*%
%ADD33C,0.100*%
%ADD34C,0.012*%
%ADD35C,0.008*%
%ADD36C,0.012*%
%ADD37C,0.012*%
%ADD38C,0.115*%
%ADD39C,0.080*%
%ADD40R,0.120X0.120*%
%ADD41C,0.120*%
%ADD42R,0.059X0.059*%
%ADD43C,0.059*%
%ADD44C,0.050*%
%ADD45R,0.063X0.063*%
%ADD46C,0.063*%
%ADD47C,0.098*%
%ADD48C,0.065*%
%ADD49C,0.220*%
%ADD50C,0.039*%
%ADD51C,0.024*%
%ADD52C,0.030*%
D10*
X24434Y17400D02*
D03*
X24509D02*
D03*
D11*
X24717Y16660D02*
D03*
X24465D02*
D03*
D12*
X17931Y18260D02*
D03*
X22741Y18110D02*
D03*
X18081Y19270D02*
D03*
X20251D02*
D03*
X22161Y19285D02*
D03*
X19751Y18260D02*
D03*
X19571Y18110D02*
D03*
X18941Y18270D02*
D03*
X19141Y18100D02*
D03*
X20901Y18130D02*
D03*
X21071Y18260D02*
D03*
X20261Y18270D02*
D03*
X20471Y18130D02*
D03*
X22251Y18080D02*
D03*
X22421Y18260D02*
D03*
X21621D02*
D03*
X21821Y18080D02*
D03*
X22671Y19090D02*
D03*
D13*
X24556Y16790D02*
D03*
X24466D02*
D03*
Y17020D02*
D03*
X24556D02*
D03*
D14*
X24432Y17200D02*
D03*
X24691D02*
D03*
X18122Y16030D02*
D03*
X18381D02*
D03*
D15*
X18121Y16315D02*
D03*
Y16225D02*
D03*
X22851Y17505D02*
D03*
Y17415D02*
D03*
X17891Y16225D02*
D03*
Y16315D02*
D03*
X22851Y17695D02*
D03*
Y17605D02*
D03*
X24991Y16395D02*
D03*
Y16305D02*
D03*
X24981Y16005D02*
D03*
Y15915D02*
D03*
D16*
X17964Y16228D02*
D03*
D17*
X18001Y16228D02*
D03*
X18039D02*
D03*
Y16312D02*
D03*
X17964D02*
D03*
D18*
X22851Y17803D02*
D03*
Y17877D02*
D03*
D19*
X24246Y16990D02*
D03*
Y16890D02*
D03*
Y16790D02*
D03*
D20*
X23121Y16665D02*
D03*
Y17115D02*
D03*
D21*
X24469Y16947D02*
D03*
D22*
X24469Y16910D02*
D03*
Y16873D02*
D03*
X24554D02*
D03*
Y16947D02*
D03*
D23*
X24764Y17903D02*
D03*
X24678Y17940D02*
D03*
X24764Y17977D02*
D03*
Y17723D02*
D03*
X24678Y17760D02*
D03*
X24764Y17797D02*
D03*
D24*
X25083Y16168D02*
D03*
X25109D02*
D03*
X25134D02*
D03*
X25160D02*
D03*
X25083Y16392D02*
D03*
X25109D02*
D03*
X25134D02*
D03*
X25160D02*
D03*
D25*
X25086Y15811D02*
D03*
X25136D02*
D03*
X25186D02*
D03*
X25236D02*
D03*
X25086Y16008D02*
D03*
X25136D02*
D03*
X25186D02*
D03*
X25236D02*
D03*
D26*
X25538Y15921D02*
D03*
X25385Y15990D02*
D03*
X25538Y16059D02*
D03*
D27*
X24555Y19191D02*
D03*
Y19171D02*
D03*
Y19152D02*
D03*
Y19132D02*
D03*
Y19112D02*
D03*
Y19093D02*
D03*
Y19073D02*
D03*
Y19053D02*
D03*
Y19033D02*
D03*
Y19014D02*
D03*
Y18994D02*
D03*
Y18974D02*
D03*
Y18955D02*
D03*
Y18935D02*
D03*
Y18915D02*
D03*
Y18896D02*
D03*
Y18876D02*
D03*
Y18856D02*
D03*
Y18837D02*
D03*
Y18817D02*
D03*
Y18797D02*
D03*
Y18778D02*
D03*
Y18758D02*
D03*
Y18738D02*
D03*
Y18719D02*
D03*
Y18699D02*
D03*
Y18679D02*
D03*
Y18659D02*
D03*
Y18640D02*
D03*
Y18620D02*
D03*
Y18404D02*
D03*
Y18384D02*
D03*
Y18364D02*
D03*
Y18344D02*
D03*
Y18325D02*
D03*
Y18305D02*
D03*
Y18285D02*
D03*
Y18266D02*
D03*
Y18246D02*
D03*
Y18226D02*
D03*
Y18207D02*
D03*
Y18187D02*
D03*
Y18167D02*
D03*
Y18148D02*
D03*
Y18128D02*
D03*
Y18108D02*
D03*
Y18089D02*
D03*
Y18069D02*
D03*
Y18049D02*
D03*
Y18030D02*
D03*
Y18010D02*
D03*
Y17990D02*
D03*
Y17970D02*
D03*
Y17951D02*
D03*
Y17931D02*
D03*
Y17911D02*
D03*
Y17892D02*
D03*
Y17872D02*
D03*
Y17852D02*
D03*
Y17833D02*
D03*
X24312Y19191D02*
D03*
Y19171D02*
D03*
Y19152D02*
D03*
Y19132D02*
D03*
Y19112D02*
D03*
Y19093D02*
D03*
Y19073D02*
D03*
Y19053D02*
D03*
Y19033D02*
D03*
Y19014D02*
D03*
Y18994D02*
D03*
Y18974D02*
D03*
Y18955D02*
D03*
Y18935D02*
D03*
Y18915D02*
D03*
Y18896D02*
D03*
Y18876D02*
D03*
Y18856D02*
D03*
Y18837D02*
D03*
Y18817D02*
D03*
Y18797D02*
D03*
Y18778D02*
D03*
Y18758D02*
D03*
Y18738D02*
D03*
Y18719D02*
D03*
Y18699D02*
D03*
Y18679D02*
D03*
Y18659D02*
D03*
Y18640D02*
D03*
Y18620D02*
D03*
Y18404D02*
D03*
Y18384D02*
D03*
Y18364D02*
D03*
Y18344D02*
D03*
Y18325D02*
D03*
Y18305D02*
D03*
Y18285D02*
D03*
Y18266D02*
D03*
Y18246D02*
D03*
Y18226D02*
D03*
Y18207D02*
D03*
Y18187D02*
D03*
Y18167D02*
D03*
Y18148D02*
D03*
Y18128D02*
D03*
Y18108D02*
D03*
Y18089D02*
D03*
Y18069D02*
D03*
Y18049D02*
D03*
Y18030D02*
D03*
Y18010D02*
D03*
Y17990D02*
D03*
Y17970D02*
D03*
Y17951D02*
D03*
Y17931D02*
D03*
Y17911D02*
D03*
Y17892D02*
D03*
Y17872D02*
D03*
Y17852D02*
D03*
Y17833D02*
D03*
X23765Y19191D02*
D03*
Y19171D02*
D03*
Y19152D02*
D03*
Y19132D02*
D03*
Y19112D02*
D03*
Y19093D02*
D03*
Y19073D02*
D03*
Y19053D02*
D03*
Y19033D02*
D03*
Y19014D02*
D03*
Y18994D02*
D03*
Y18974D02*
D03*
Y18955D02*
D03*
Y18935D02*
D03*
Y18915D02*
D03*
Y18896D02*
D03*
Y18876D02*
D03*
Y18856D02*
D03*
Y18837D02*
D03*
Y18817D02*
D03*
Y18797D02*
D03*
Y18778D02*
D03*
Y18758D02*
D03*
Y18738D02*
D03*
Y18719D02*
D03*
Y18699D02*
D03*
Y18679D02*
D03*
Y18659D02*
D03*
Y18640D02*
D03*
Y18620D02*
D03*
Y18404D02*
D03*
Y18384D02*
D03*
Y18364D02*
D03*
Y18344D02*
D03*
Y18325D02*
D03*
Y18305D02*
D03*
Y18285D02*
D03*
Y18266D02*
D03*
Y18246D02*
D03*
Y18226D02*
D03*
Y18207D02*
D03*
Y18187D02*
D03*
Y18167D02*
D03*
Y18148D02*
D03*
Y18128D02*
D03*
Y18108D02*
D03*
Y18089D02*
D03*
Y18069D02*
D03*
Y18049D02*
D03*
Y18030D02*
D03*
Y18010D02*
D03*
Y17990D02*
D03*
Y17970D02*
D03*
Y17951D02*
D03*
Y17931D02*
D03*
Y17911D02*
D03*
Y17892D02*
D03*
Y17872D02*
D03*
Y17852D02*
D03*
Y17833D02*
D03*
X23522Y19191D02*
D03*
Y19171D02*
D03*
Y19152D02*
D03*
Y19132D02*
D03*
Y19112D02*
D03*
Y19093D02*
D03*
Y19073D02*
D03*
Y19053D02*
D03*
Y19033D02*
D03*
Y19014D02*
D03*
Y18994D02*
D03*
Y18974D02*
D03*
Y18955D02*
D03*
Y18935D02*
D03*
Y18915D02*
D03*
Y18896D02*
D03*
Y18876D02*
D03*
Y18856D02*
D03*
Y18837D02*
D03*
Y18817D02*
D03*
Y18797D02*
D03*
Y18778D02*
D03*
Y18758D02*
D03*
Y18738D02*
D03*
Y18719D02*
D03*
Y18699D02*
D03*
Y18679D02*
D03*
Y18659D02*
D03*
Y18640D02*
D03*
Y18620D02*
D03*
Y18404D02*
D03*
Y18384D02*
D03*
Y18364D02*
D03*
Y18344D02*
D03*
Y18325D02*
D03*
Y18305D02*
D03*
Y18285D02*
D03*
Y18266D02*
D03*
Y18246D02*
D03*
Y18226D02*
D03*
Y18207D02*
D03*
Y18187D02*
D03*
Y18167D02*
D03*
Y18148D02*
D03*
Y18128D02*
D03*
Y18108D02*
D03*
Y18089D02*
D03*
Y18069D02*
D03*
Y18049D02*
D03*
Y18030D02*
D03*
Y18010D02*
D03*
Y17990D02*
D03*
Y17970D02*
D03*
Y17951D02*
D03*
Y17931D02*
D03*
Y17911D02*
D03*
Y17892D02*
D03*
Y17872D02*
D03*
Y17852D02*
D03*
Y17833D02*
D03*
D28*
X24434Y18781D02*
D03*
Y19031D02*
D03*
Y18243D02*
D03*
Y17993D02*
D03*
X23644Y18781D02*
D03*
Y19031D02*
D03*
Y18243D02*
D03*
Y17993D02*
D03*
D29*
X24434Y19238D02*
D03*
Y17786D02*
D03*
Y18451D02*
D03*
Y18573D02*
D03*
X23644Y19238D02*
D03*
Y17786D02*
D03*
Y18451D02*
D03*
Y18573D02*
D03*
D30*
X17921Y18250D02*
X17931Y18260D01*
X17921Y17160D02*
Y18250D01*
X22541Y18590D02*
X22741Y18390D01*
Y18110D02*
Y18390D01*
X21071Y18260D02*
Y18470D01*
X21191Y18590D01*
X20261Y18270D02*
Y18480D01*
X20371Y18590D01*
X19741Y18111D02*
Y18260D01*
X19751D02*
Y18500D01*
X19661Y18590D02*
X19751Y18500D01*
X18781Y18590D02*
X18941Y18430D01*
Y18270D02*
Y18430D01*
X19140Y18939D02*
X19141Y18940D01*
Y19270D01*
X19441Y18976D02*
Y19270D01*
X21464Y18825D02*
Y18957D01*
Y17015D02*
Y18825D01*
X24196Y18319D02*
Y18823D01*
Y18319D02*
X24230Y18285D01*
X24312D01*
X21151Y19270D02*
X21464Y18957D01*
Y17015D02*
X21616Y16863D01*
Y16495D02*
Y16863D01*
X23359Y18976D02*
X23429Y18906D01*
Y18486D02*
Y18906D01*
Y18486D02*
X23471Y18444D01*
Y18396D02*
Y18444D01*
Y18396D02*
X23484Y18384D01*
X23522D01*
Y18404D02*
Y18440D01*
X23453Y18508D02*
X23522Y18440D01*
X23453Y18508D02*
Y18919D01*
X23433Y18939D02*
X23453Y18919D01*
X18111Y17488D02*
Y18830D01*
X17968Y17345D02*
X18111Y17488D01*
X17968Y16907D02*
Y17345D01*
X17921Y16860D02*
X17968Y16907D01*
X18164Y17026D02*
Y18824D01*
X18112Y16974D02*
X18164Y17026D01*
X18112Y16895D02*
Y16974D01*
X18027Y16810D02*
X18112Y16895D01*
X18021Y16810D02*
X18027D01*
X23121Y16665D02*
Y17115D01*
X23461Y17931D02*
X23522D01*
X23405Y17987D02*
X23461Y17931D01*
X23405Y17987D02*
Y18653D01*
X23385Y18673D02*
X23405Y18653D01*
X19141Y18100D02*
Y18453D01*
X19571Y18110D02*
X19575Y18114D01*
Y18396D01*
X23439Y18433D02*
X23440Y18434D01*
X23439Y18004D02*
Y18433D01*
Y18004D02*
X23489Y17955D01*
X23518D01*
X23522Y17951D01*
X20471Y18130D02*
Y18406D01*
X20553Y18488D01*
X23563Y18168D02*
Y18486D01*
X23596Y18005D02*
Y18135D01*
X23566Y17974D02*
X23596Y18005D01*
X23526Y17974D02*
X23566D01*
X23563Y18168D02*
X23596Y18135D01*
X23522Y17970D02*
X23526Y17974D01*
X23574Y18004D02*
Y18113D01*
X23561Y17990D02*
X23574Y18004D01*
X23522Y17990D02*
X23561D01*
X22251Y18080D02*
X22279Y18108D01*
X22332D01*
X23471Y18044D02*
Y18076D01*
Y18044D02*
X23486Y18030D01*
X23522D01*
X23473Y18010D02*
X23522D01*
X23471Y18008D02*
X23473Y18010D01*
X23335Y18040D02*
Y18201D01*
X23378Y18244D01*
Y18322D01*
X23377Y18323D02*
X23378Y18322D01*
X18494Y16935D02*
Y18155D01*
X17985Y16425D02*
X18494Y16935D01*
X17985Y16280D02*
Y16425D01*
X17964Y16259D02*
X17985Y16280D01*
X17964Y16228D02*
Y16259D01*
X25098Y16693D02*
X25338Y16453D01*
X25098Y16693D02*
Y17349D01*
X25143Y17394D01*
X25258D01*
X25075Y17364D02*
X25135Y17424D01*
X25075Y16664D02*
Y17364D01*
Y16664D02*
X25160Y16580D01*
X25135Y17424D02*
X25188D01*
X25258Y17394D02*
X25362Y17498D01*
X25160Y16392D02*
Y16580D01*
X25188Y17424D02*
X25262Y17498D01*
X25109Y16392D02*
Y16523D01*
X25053Y16578D02*
X25109Y16523D01*
X25053Y16578D02*
Y17390D01*
X25162Y17498D01*
X25027Y17703D02*
X25142Y17818D01*
X25027Y16555D02*
Y17703D01*
Y16555D02*
X25083Y16499D01*
X24991Y16247D02*
X24992Y16246D01*
X24991Y16247D02*
Y16305D01*
X24717Y16565D02*
X24718Y16564D01*
X24717Y16565D02*
Y16660D01*
X24465Y16789D02*
X24466Y16790D01*
X24465Y16660D02*
Y16789D01*
X24998Y16124D02*
X25047D01*
Y16392D01*
Y16102D02*
Y16124D01*
X25537Y16122D02*
X25538Y16121D01*
Y16059D02*
Y16121D01*
X25047Y16392D02*
X25083D01*
X24994D02*
X25047D01*
Y16102D02*
X25086Y16063D01*
Y16008D02*
Y16063D01*
X24984Y17977D02*
X25142Y17818D01*
X25262Y17698D01*
X24991Y16395D02*
X24994Y16392D01*
X25083D02*
Y16499D01*
X25454Y15920D02*
X25456Y15921D01*
X25538D01*
X25136Y16008D02*
X25138Y16010D01*
Y16075D01*
X25384Y16074D02*
X25385Y16074D01*
Y15990D02*
Y16074D01*
X25134Y16322D02*
Y16392D01*
Y16322D02*
X25186Y16270D01*
Y16219D02*
Y16270D01*
Y16219D02*
X25216Y16189D01*
Y16158D02*
Y16189D01*
X25186Y16128D02*
X25216Y16158D01*
X25186Y16008D02*
Y16128D01*
X25236Y16008D02*
Y16228D01*
X25194Y16168D02*
X25194Y16167D01*
X25160Y16168D02*
X25194D01*
X25134D02*
Y16227D01*
X25109Y16168D02*
Y16254D01*
Y16303D02*
Y16392D01*
X25083Y16278D02*
X25109Y16303D01*
X25083Y16168D02*
Y16278D01*
X24981Y16005D02*
X24985Y16008D01*
X25086D01*
X25186Y15811D02*
X25236D01*
X25136D02*
X25186D01*
X25086D02*
X25136D01*
X25017D02*
X25086D01*
X24981Y15847D02*
X25017Y15811D01*
X24981Y15847D02*
Y15915D01*
X24627Y17763D02*
X24630Y17760D01*
X24678D01*
Y17883D02*
Y17940D01*
Y17883D02*
X24764Y17797D01*
Y17723D02*
X24808D01*
X24810Y17721D01*
X24843Y17499D02*
X24845Y17501D01*
Y17880D01*
X24822Y17903D02*
X24845Y17880D01*
X24764Y17903D02*
X24822D01*
X24764Y17977D02*
X24984D01*
X18127Y16916D02*
X18221Y17010D01*
X18127Y16621D02*
Y16916D01*
X17891Y16385D02*
X18127Y16621D01*
X17891Y16315D02*
Y16385D01*
X23432Y17871D02*
X23433Y17872D01*
X23432Y17597D02*
Y17871D01*
X24555Y17595D02*
X24556Y17594D01*
Y17020D02*
Y17594D01*
X23433Y17872D02*
X23434Y17872D01*
X23522D01*
X24432Y17200D02*
X24434Y17202D01*
Y17400D01*
X24506Y17465D02*
X24509Y17463D01*
Y17400D02*
Y17463D01*
X24621Y16795D02*
Y17665D01*
X24431D02*
X24434Y17667D01*
Y17786D01*
Y17993D01*
Y18243D01*
Y18451D01*
X24554Y17017D02*
X24556Y17020D01*
X24554Y16947D02*
Y17017D01*
X24416Y17020D02*
X24466D01*
X24406Y16910D02*
X24406Y16910D01*
X24469D01*
X24554Y16873D02*
X24556Y16870D01*
Y16790D02*
Y16870D01*
X24466D02*
X24469Y16873D01*
X24466Y16790D02*
Y16870D01*
X18001Y16160D02*
X18001Y16160D01*
Y16228D01*
X17891Y16160D02*
Y16225D01*
Y16315D02*
X17894Y16312D01*
X17964D01*
X18042Y16225D02*
X18121D01*
X18039Y16228D02*
X18042Y16225D01*
X18039Y16312D02*
X18042Y16315D01*
X18121D01*
X22660Y18028D02*
X22741Y18110D01*
X22660Y17783D02*
Y18028D01*
Y17783D02*
X22701Y17741D01*
Y17700D02*
Y17741D01*
X22851Y17340D02*
Y17415D01*
Y17505D02*
Y17605D01*
X22706D02*
X22851D01*
X19644Y17648D02*
X19657Y17661D01*
X19740D01*
X19790Y17711D01*
Y17799D01*
X19006Y17728D02*
X19022Y17713D01*
X18940Y17728D02*
X19006D01*
X18871Y17797D02*
X18940Y17728D01*
X18941Y17867D02*
Y18260D01*
X18871Y17797D02*
X18941Y17867D01*
X19141Y17973D02*
Y18080D01*
X19569Y17969D02*
Y18078D01*
X19571Y18080D01*
X19790Y17799D02*
Y18062D01*
X19741Y18111D02*
X19790Y18062D01*
X20471Y17973D02*
Y18080D01*
X20201Y17797D02*
X20270Y17728D01*
X20201Y17797D02*
X20271Y17867D01*
X20336Y17728D02*
X20352Y17713D01*
X20271Y17867D02*
Y18260D01*
X20270Y17728D02*
X20336D01*
X20899Y17969D02*
Y18078D01*
X20974Y17648D02*
X20987Y17661D01*
X21070D01*
X21120Y17711D01*
Y17799D01*
X21071Y18111D02*
Y18260D01*
Y18111D02*
X21120Y18062D01*
Y17799D02*
Y18062D01*
X20899Y18078D02*
X20901Y18080D01*
X21821Y17973D02*
Y18080D01*
X21551Y17797D02*
X21620Y17728D01*
X21551Y17797D02*
X21621Y17867D01*
X21686Y17728D02*
X21702Y17713D01*
X21621Y17867D02*
Y18260D01*
X21620Y17728D02*
X21686D01*
X22249Y17969D02*
Y18078D01*
X22324Y17648D02*
X22337Y17661D01*
X22420D01*
X22470Y17711D01*
Y17799D01*
X22421Y18111D02*
Y18260D01*
Y18111D02*
X22470Y18062D01*
Y17799D02*
Y18062D01*
X22249Y18078D02*
X22251Y18080D01*
X22671Y19090D02*
X22676Y19095D01*
Y19254D01*
D31*
X23281Y18194D02*
X23287Y18188D01*
Y17806D02*
Y18188D01*
X24556Y16790D02*
X24561Y16795D01*
X24621D01*
X24691Y17200D02*
X24821D01*
X24326D02*
X24432D01*
X24246Y17120D02*
X24326Y17200D01*
X24246Y16990D02*
Y17120D01*
X24051Y16890D02*
X24246D01*
Y16790D02*
X24466D01*
X18116Y16480D02*
X18121Y16475D01*
Y16315D02*
Y16475D01*
Y16030D02*
X18122Y16030D01*
X18121Y16030D02*
Y16225D01*
X22701Y17700D02*
X22706Y17695D01*
X22851D01*
Y17877D02*
Y17960D01*
X22704Y17803D02*
X22851D01*
D32*
X23464Y17806D02*
Y17842D01*
X23475Y17852D01*
X23522D01*
X24409Y16945D02*
X24467D01*
X23590D02*
X23592Y16946D01*
Y17890D01*
X23570Y17911D02*
X23592Y17890D01*
X23522Y17911D02*
X23570D01*
X25017Y15764D02*
Y15811D01*
X24243Y18321D02*
X24259Y18305D01*
X24312D01*
X23639Y19363D02*
X23644Y19359D01*
Y19238D02*
Y19359D01*
Y19031D02*
Y19238D01*
Y18781D02*
Y19031D01*
Y18573D02*
Y18781D01*
X23643Y17663D02*
X23644Y17663D01*
Y17786D01*
Y18243D02*
Y18451D01*
Y17993D02*
Y18243D01*
Y17786D02*
Y17993D01*
X24432Y19346D02*
X24434Y19345D01*
Y19238D02*
Y19345D01*
Y18573D02*
Y18781D01*
Y19031D01*
Y19238D01*
X25014Y15767D02*
Y15770D01*
Y15767D02*
X25017Y15764D01*
X25338Y16254D02*
Y16453D01*
X18081Y19146D02*
Y19270D01*
X18078Y19143D02*
X18081Y19146D01*
X20251Y19141D02*
Y19270D01*
X22161Y19144D02*
Y19285D01*
Y19144D02*
X22165Y19140D01*
D33*
X18381Y16030D02*
X18561D01*
D34*
X19956Y14499D02*
Y14454D01*
X19937Y14488D02*
X19975Y14465D01*
Y14488D02*
X19937Y14465D01*
X19995Y14427D02*
X19991Y14423D01*
X19995Y14419D01*
X19999Y14423D01*
X19995Y14427D01*
X20074Y14480D02*
X20070Y14488D01*
X20062Y14496D01*
X20055Y14499D01*
X20039D01*
X20032Y14496D01*
X20024Y14488D01*
X20020Y14480D01*
X20017Y14469D01*
Y14450D01*
X20020Y14439D01*
X20024Y14431D01*
X20032Y14423D01*
X20039Y14419D01*
X20055D01*
X20062Y14423D01*
X20070Y14431D01*
X20074Y14439D01*
Y14450D01*
X20055D02*
X20074D01*
X20119Y14499D02*
Y14419D01*
X20092Y14499D02*
X20145D01*
X20155D02*
Y14419D01*
X20201D01*
X20272Y14454D02*
X20341D01*
X20454Y14499D02*
Y14419D01*
X20427Y14499D02*
X20481D01*
X20513D02*
X20505Y14496D01*
X20498Y14488D01*
X20494Y14480D01*
X20490Y14469D01*
Y14450D01*
X20494Y14439D01*
X20498Y14431D01*
X20505Y14423D01*
X20513Y14419D01*
X20528D01*
X20536Y14423D01*
X20543Y14431D01*
X20547Y14439D01*
X20551Y14450D01*
Y14469D01*
X20547Y14480D01*
X20543Y14488D01*
X20536Y14496D01*
X20528Y14499D01*
X20513D01*
X20570Y14458D02*
X20604D01*
X20615Y14461D01*
X20619Y14465D01*
X20623Y14473D01*
Y14484D01*
X20619Y14492D01*
X20615Y14496D01*
X20604Y14499D01*
X20570D01*
Y14419D01*
X20704Y14499D02*
Y14419D01*
X20749D01*
X20819D02*
X20789Y14499D01*
X20758Y14419D01*
X20770Y14446D02*
X20808D01*
X20838Y14499D02*
X20868Y14461D01*
Y14419D01*
X20899Y14499D02*
X20868Y14461D01*
X20959Y14499D02*
X20909D01*
Y14419D01*
X20959D01*
X20909Y14461D02*
X20939D01*
X20972Y14499D02*
Y14419D01*
Y14499D02*
X21006D01*
X21018Y14496D01*
X21021Y14492D01*
X21025Y14484D01*
Y14477D01*
X21021Y14469D01*
X21018Y14465D01*
X21006Y14461D01*
X20972D01*
X20999D02*
X21025Y14419D01*
X21163Y14480D02*
X21159Y14488D01*
X21152Y14496D01*
X21144Y14499D01*
X21129D01*
X21121Y14496D01*
X21114Y14488D01*
X21110Y14480D01*
X21106Y14469D01*
Y14450D01*
X21110Y14439D01*
X21114Y14431D01*
X21121Y14423D01*
X21129Y14419D01*
X21144D01*
X21152Y14423D01*
X21159Y14431D01*
X21163Y14439D01*
Y14450D01*
X21144D02*
X21163D01*
X21231Y14499D02*
X21181D01*
Y14419D01*
X21231D01*
X21181Y14461D02*
X21212D01*
X21244Y14499D02*
Y14419D01*
Y14499D02*
X21278D01*
X21290Y14496D01*
X21294Y14492D01*
X21297Y14484D01*
Y14477D01*
X21294Y14469D01*
X21290Y14465D01*
X21278Y14461D01*
X21244D01*
X21271D02*
X21297Y14419D01*
X21315Y14499D02*
Y14419D01*
Y14499D02*
X21350D01*
X21361Y14496D01*
X21365Y14492D01*
X21369Y14484D01*
Y14477D01*
X21365Y14469D01*
X21361Y14465D01*
X21350Y14461D01*
X21315D02*
X21350D01*
X21361Y14458D01*
X21365Y14454D01*
X21369Y14446D01*
Y14435D01*
X21365Y14427D01*
X21361Y14423D01*
X21350Y14419D01*
X21315D01*
X21436Y14499D02*
X21387D01*
Y14419D01*
X21436D01*
X21387Y14461D02*
X21417D01*
X21449Y14499D02*
Y14419D01*
Y14499D02*
X21484D01*
X21495Y14496D01*
X21499Y14492D01*
X21503Y14484D01*
Y14477D01*
X21499Y14469D01*
X21495Y14465D01*
X21484Y14461D01*
X21449D01*
X21476D02*
X21503Y14419D01*
X21584Y14499D02*
Y14419D01*
Y14499D02*
X21610D01*
X21622Y14496D01*
X21629Y14488D01*
X21633Y14480D01*
X21637Y14469D01*
Y14450D01*
X21633Y14439D01*
X21629Y14431D01*
X21622Y14423D01*
X21610Y14419D01*
X21584D01*
X21716D02*
X21685Y14499D01*
X21655Y14419D01*
X21666Y14446D02*
X21704D01*
X21761Y14499D02*
Y14419D01*
X21734Y14499D02*
X21788D01*
X21858Y14419D02*
X21828Y14499D01*
X21797Y14419D01*
X21809Y14446D02*
X21847D01*
D35*
X15952Y15000D02*
X15962D01*
X15952Y14995D02*
Y15005D01*
Y14995D02*
X15962D01*
Y15005D01*
X15952D02*
X15962D01*
X15947Y14990D02*
Y15005D01*
Y14990D02*
X15967D01*
Y15010D01*
X15947D02*
X15967D01*
X15942Y14985D02*
Y15010D01*
Y14985D02*
X15972D01*
Y15015D01*
X15942D02*
X15972D01*
X15937Y14980D02*
Y15020D01*
Y14980D02*
X15977D01*
Y15020D01*
X15937D02*
X15977D01*
X16002Y14950D02*
X16012D01*
X16002Y14945D02*
Y14955D01*
Y14945D02*
X16012D01*
Y14955D01*
X16002D02*
X16012D01*
X15997Y14940D02*
Y14955D01*
Y14940D02*
X16017D01*
Y14960D01*
X15997D02*
X16017D01*
X15992Y14935D02*
Y14960D01*
Y14935D02*
X16022D01*
Y14965D01*
X15992D02*
X16022D01*
X15987Y14930D02*
Y14970D01*
Y14930D02*
X16027D01*
Y14970D01*
X15987D02*
X16027D01*
X15982Y14925D02*
X16032D01*
Y14975D01*
X15932Y15025D02*
X15982D01*
X15932Y14975D02*
Y15025D01*
X15982Y14725D02*
Y15225D01*
X15732Y14975D02*
X16232D01*
X16237Y20394D02*
Y20404D01*
X16232Y20394D02*
X16242D01*
Y20404D01*
X16232D02*
X16242D01*
X16232Y20394D02*
Y20404D01*
Y20389D02*
X16247D01*
Y20409D01*
X16227D02*
X16247D01*
X16227Y20389D02*
Y20409D01*
Y20384D02*
X16252D01*
Y20414D01*
X16222D02*
X16252D01*
X16222Y20384D02*
Y20414D01*
X16217Y20379D02*
X16257D01*
Y20419D01*
X16217D02*
X16257D01*
X16217Y20379D02*
Y20419D01*
X16287Y20444D02*
Y20454D01*
X16282Y20444D02*
X16292D01*
Y20454D01*
X16282D02*
X16292D01*
X16282Y20444D02*
Y20454D01*
Y20439D02*
X16297D01*
Y20459D01*
X16277D02*
X16297D01*
X16277Y20439D02*
Y20459D01*
Y20434D02*
X16302D01*
Y20464D01*
X16272D02*
X16302D01*
X16272Y20434D02*
Y20464D01*
X16267Y20429D02*
X16307D01*
Y20469D01*
X16267D02*
X16307D01*
X16267Y20429D02*
Y20469D01*
X16312Y20424D02*
Y20474D01*
X16262D02*
X16312D01*
X16212Y20374D02*
Y20424D01*
Y20374D02*
X16262D01*
X16012Y20424D02*
X16512D01*
X16262Y20174D02*
Y20674D01*
X26278Y20459D02*
X26288D01*
X26278Y20454D02*
Y20464D01*
Y20454D02*
X26288D01*
Y20464D01*
X26278D02*
X26288D01*
X26273Y20449D02*
Y20464D01*
Y20449D02*
X26293D01*
Y20469D01*
X26273D02*
X26293D01*
X26268Y20444D02*
Y20469D01*
Y20444D02*
X26298D01*
Y20474D01*
X26268D02*
X26298D01*
X26263Y20439D02*
Y20479D01*
Y20439D02*
X26303D01*
Y20479D01*
X26263D02*
X26303D01*
X26328Y20409D02*
X26338D01*
X26328Y20404D02*
Y20414D01*
Y20404D02*
X26338D01*
Y20414D01*
X26328D02*
X26338D01*
X26323Y20399D02*
Y20414D01*
Y20399D02*
X26343D01*
Y20419D01*
X26323D02*
X26343D01*
X26318Y20394D02*
Y20419D01*
Y20394D02*
X26348D01*
Y20424D01*
X26318D02*
X26348D01*
X26313Y20389D02*
Y20429D01*
Y20389D02*
X26353D01*
Y20429D01*
X26313D02*
X26353D01*
X26308Y20384D02*
X26358D01*
Y20434D01*
X26258Y20484D02*
X26308D01*
X26258Y20434D02*
Y20484D01*
X26308Y20184D02*
Y20684D01*
X26058Y20434D02*
X26558D01*
D36*
X19958Y14915D02*
X19966Y14919D01*
X19977Y14930D01*
Y14850D01*
X20070Y14930D02*
X20032Y14850D01*
X20017Y14930D02*
X20070D01*
X20134D02*
X20096D01*
X20092Y14896D01*
X20096Y14900D01*
X20107Y14903D01*
X20118D01*
X20130Y14900D01*
X20137Y14892D01*
X20141Y14881D01*
Y14873D01*
X20137Y14861D01*
X20130Y14854D01*
X20118Y14850D01*
X20107D01*
X20096Y14854D01*
X20092Y14858D01*
X20088Y14865D01*
X20159Y14884D02*
X20228D01*
X20274Y14930D02*
X20263Y14926D01*
X20255Y14915D01*
X20251Y14896D01*
Y14884D01*
X20255Y14865D01*
X20263Y14854D01*
X20274Y14850D01*
X20282D01*
X20293Y14854D01*
X20301Y14865D01*
X20305Y14884D01*
Y14896D01*
X20301Y14915D01*
X20293Y14926D01*
X20282Y14930D01*
X20274D01*
X20345D02*
X20334Y14926D01*
X20326Y14915D01*
X20323Y14896D01*
Y14884D01*
X20326Y14865D01*
X20334Y14854D01*
X20345Y14850D01*
X20353D01*
X20364Y14854D01*
X20372Y14865D01*
X20376Y14884D01*
Y14896D01*
X20372Y14915D01*
X20364Y14926D01*
X20353Y14930D01*
X20345D01*
X20417D02*
X20405Y14926D01*
X20398Y14915D01*
X20394Y14896D01*
Y14884D01*
X20398Y14865D01*
X20405Y14854D01*
X20417Y14850D01*
X20424D01*
X20436Y14854D01*
X20443Y14865D01*
X20447Y14884D01*
Y14896D01*
X20443Y14915D01*
X20436Y14926D01*
X20424Y14930D01*
X20417D01*
X20469Y14911D02*
Y14915D01*
X20473Y14922D01*
X20476Y14926D01*
X20484Y14930D01*
X20499D01*
X20507Y14926D01*
X20511Y14922D01*
X20515Y14915D01*
Y14907D01*
X20511Y14900D01*
X20503Y14888D01*
X20465Y14850D01*
X20518D01*
X20544Y14930D02*
X20586D01*
X20563Y14900D01*
X20574D01*
X20582Y14896D01*
X20586Y14892D01*
X20590Y14881D01*
Y14873D01*
X20586Y14861D01*
X20578Y14854D01*
X20567Y14850D01*
X20555D01*
X20544Y14854D01*
X20540Y14858D01*
X20536Y14865D01*
X20615Y14854D02*
X20611Y14850D01*
X20607Y14854D01*
X20611Y14858D01*
X20615Y14854D01*
Y14846D01*
X20611Y14839D01*
X20607Y14835D01*
X20695Y14930D02*
Y14850D01*
Y14930D02*
X20730D01*
X20741Y14926D01*
X20745Y14922D01*
X20749Y14915D01*
Y14907D01*
X20745Y14900D01*
X20741Y14896D01*
X20730Y14892D01*
X20695D01*
X20722D02*
X20749Y14850D01*
X20767Y14881D02*
X20812D01*
Y14888D01*
X20809Y14896D01*
X20805Y14900D01*
X20797Y14903D01*
X20786D01*
X20778Y14900D01*
X20770Y14892D01*
X20767Y14881D01*
Y14873D01*
X20770Y14861D01*
X20778Y14854D01*
X20786Y14850D01*
X20797D01*
X20805Y14854D01*
X20812Y14861D01*
X20829Y14903D02*
X20852Y14850D01*
X20875Y14903D02*
X20852Y14850D01*
X20888Y14915D02*
X20896Y14919D01*
X20907Y14930D01*
Y14850D01*
X20954Y14854D02*
X20951Y14850D01*
X20947Y14854D01*
X20951Y14858D01*
X20954Y14854D01*
Y14846D01*
X20951Y14839D01*
X20947Y14835D01*
X21088Y14919D02*
X21080Y14926D01*
X21069Y14930D01*
X21054D01*
X21042Y14926D01*
X21035Y14919D01*
Y14911D01*
X21039Y14903D01*
X21042Y14900D01*
X21050Y14896D01*
X21073Y14888D01*
X21080Y14884D01*
X21084Y14881D01*
X21088Y14873D01*
Y14861D01*
X21080Y14854D01*
X21069Y14850D01*
X21054D01*
X21042Y14854D01*
X21035Y14861D01*
X21114Y14930D02*
X21117Y14926D01*
X21121Y14930D01*
X21117Y14934D01*
X21114Y14930D01*
X21117Y14903D02*
Y14850D01*
X21135Y14903D02*
Y14850D01*
Y14888D02*
X21147Y14900D01*
X21154Y14903D01*
X21166D01*
X21173Y14900D01*
X21177Y14888D01*
Y14850D01*
X21206Y14930D02*
X21210Y14926D01*
X21213Y14930D01*
X21210Y14934D01*
X21206Y14930D01*
X21210Y14903D02*
Y14850D01*
X21269Y14892D02*
X21266Y14900D01*
X21254Y14903D01*
X21243D01*
X21231Y14900D01*
X21227Y14892D01*
X21231Y14884D01*
X21239Y14881D01*
X21258Y14877D01*
X21266Y14873D01*
X21269Y14865D01*
Y14861D01*
X21266Y14854D01*
X21254Y14850D01*
X21243D01*
X21231Y14854D01*
X21227Y14861D01*
X21298Y14930D02*
Y14865D01*
X21301Y14854D01*
X21309Y14850D01*
X21317D01*
X21286Y14903D02*
X21313D01*
X21347D02*
X21339Y14900D01*
X21332Y14892D01*
X21328Y14881D01*
Y14873D01*
X21332Y14861D01*
X21339Y14854D01*
X21347Y14850D01*
X21359D01*
X21366Y14854D01*
X21374Y14861D01*
X21378Y14873D01*
Y14881D01*
X21374Y14892D01*
X21366Y14900D01*
X21359Y14903D01*
X21347D01*
X21395D02*
Y14850D01*
Y14881D02*
X21399Y14892D01*
X21407Y14900D01*
X21414Y14903D01*
X21426D01*
X21496Y14888D02*
X21530D01*
X21541Y14892D01*
X21545Y14896D01*
X21549Y14903D01*
Y14915D01*
X21545Y14922D01*
X21541Y14926D01*
X21530Y14930D01*
X21496D01*
Y14850D01*
X21586Y14903D02*
X21578Y14900D01*
X21571Y14892D01*
X21567Y14881D01*
Y14873D01*
X21571Y14861D01*
X21578Y14854D01*
X21586Y14850D01*
X21597D01*
X21605Y14854D01*
X21613Y14861D01*
X21616Y14873D01*
Y14881D01*
X21613Y14892D01*
X21605Y14900D01*
X21597Y14903D01*
X21586D01*
X21634D02*
X21649Y14850D01*
X21664Y14903D02*
X21649Y14850D01*
X21664Y14903D02*
X21680Y14850D01*
X21695Y14903D02*
X21680Y14850D01*
X21713Y14881D02*
X21759D01*
Y14888D01*
X21755Y14896D01*
X21752Y14900D01*
X21744Y14903D01*
X21733D01*
X21725Y14900D01*
X21717Y14892D01*
X21713Y14881D01*
Y14873D01*
X21717Y14861D01*
X21725Y14854D01*
X21733Y14850D01*
X21744D01*
X21752Y14854D01*
X21759Y14861D01*
X21776Y14903D02*
Y14850D01*
Y14881D02*
X21780Y14892D01*
X21788Y14900D01*
X21795Y14903D01*
X21807D01*
X21930Y14919D02*
X21923Y14926D01*
X21911Y14930D01*
X21896D01*
X21885Y14926D01*
X21877Y14919D01*
Y14911D01*
X21881Y14903D01*
X21885Y14900D01*
X21892Y14896D01*
X21915Y14888D01*
X21923Y14884D01*
X21926Y14881D01*
X21930Y14873D01*
Y14861D01*
X21923Y14854D01*
X21911Y14850D01*
X21896D01*
X21885Y14854D01*
X21877Y14861D01*
X21948Y14903D02*
Y14865D01*
X21952Y14854D01*
X21960Y14850D01*
X21971D01*
X21979Y14854D01*
X21990Y14865D01*
Y14903D02*
Y14850D01*
X22011Y14903D02*
Y14823D01*
Y14892D02*
X22019Y14900D01*
X22026Y14903D01*
X22038D01*
X22045Y14900D01*
X22053Y14892D01*
X22057Y14881D01*
Y14873D01*
X22053Y14861D01*
X22045Y14854D01*
X22038Y14850D01*
X22026D01*
X22019Y14854D01*
X22011Y14861D01*
X22074Y14903D02*
Y14823D01*
Y14892D02*
X22081Y14900D01*
X22089Y14903D01*
X22100D01*
X22108Y14900D01*
X22116Y14892D01*
X22119Y14881D01*
Y14873D01*
X22116Y14861D01*
X22108Y14854D01*
X22100Y14850D01*
X22089D01*
X22081Y14854D01*
X22074Y14861D01*
X22137Y14930D02*
Y14850D01*
X22157Y14903D02*
X22180Y14850D01*
X22203Y14903D02*
X22180Y14850D01*
X22172Y14835D01*
X22165Y14827D01*
X22157Y14823D01*
X22153D01*
D37*
X19958Y14780D02*
Y14700D01*
X20004D01*
X20073D02*
X20043Y14780D01*
X20013Y14700D01*
X20024Y14727D02*
X20062D01*
X20145Y14769D02*
X20138Y14776D01*
X20126Y14780D01*
X20111D01*
X20100Y14776D01*
X20092Y14769D01*
Y14761D01*
X20096Y14753D01*
X20100Y14750D01*
X20107Y14746D01*
X20130Y14738D01*
X20138Y14734D01*
X20142Y14731D01*
X20145Y14723D01*
Y14711D01*
X20138Y14704D01*
X20126Y14700D01*
X20111D01*
X20100Y14704D01*
X20092Y14711D01*
X20283Y14761D02*
X20280Y14769D01*
X20272Y14776D01*
X20264Y14780D01*
X20249D01*
X20241Y14776D01*
X20234Y14769D01*
X20230Y14761D01*
X20226Y14750D01*
Y14731D01*
X20230Y14719D01*
X20234Y14711D01*
X20241Y14704D01*
X20249Y14700D01*
X20264D01*
X20272Y14704D01*
X20280Y14711D01*
X20283Y14719D01*
X20306Y14780D02*
Y14723D01*
X20310Y14711D01*
X20317Y14704D01*
X20329Y14700D01*
X20336D01*
X20348Y14704D01*
X20355Y14711D01*
X20359Y14723D01*
Y14780D01*
X20381D02*
Y14700D01*
Y14780D02*
X20412Y14700D01*
X20442Y14780D02*
X20412Y14700D01*
X20442Y14780D02*
Y14700D01*
X20465Y14780D02*
Y14700D01*
Y14780D02*
X20499D01*
X20511Y14776D01*
X20515Y14772D01*
X20518Y14765D01*
Y14757D01*
X20515Y14750D01*
X20511Y14746D01*
X20499Y14742D01*
X20465D02*
X20499D01*
X20511Y14738D01*
X20515Y14734D01*
X20518Y14727D01*
Y14715D01*
X20515Y14708D01*
X20511Y14704D01*
X20499Y14700D01*
X20465D01*
X20536Y14780D02*
Y14700D01*
Y14780D02*
X20570D01*
X20582Y14776D01*
X20586Y14772D01*
X20590Y14765D01*
Y14757D01*
X20586Y14750D01*
X20582Y14746D01*
X20570Y14742D01*
X20536D01*
X20563D02*
X20590Y14700D01*
X20657Y14780D02*
X20607D01*
Y14700D01*
X20657D01*
X20607Y14742D02*
X20638D01*
X20724Y14769D02*
X20716Y14776D01*
X20705Y14780D01*
X20689D01*
X20678Y14776D01*
X20670Y14769D01*
Y14761D01*
X20674Y14753D01*
X20678Y14750D01*
X20686Y14746D01*
X20708Y14738D01*
X20716Y14734D01*
X20720Y14731D01*
X20724Y14723D01*
Y14711D01*
X20716Y14704D01*
X20705Y14700D01*
X20689D01*
X20678Y14704D01*
X20670Y14711D01*
X20827Y14780D02*
X20820Y14776D01*
X20812Y14769D01*
X20808Y14761D01*
X20804Y14750D01*
Y14731D01*
X20808Y14719D01*
X20812Y14711D01*
X20820Y14704D01*
X20827Y14700D01*
X20842D01*
X20850Y14704D01*
X20858Y14711D01*
X20861Y14719D01*
X20865Y14731D01*
Y14750D01*
X20861Y14761D01*
X20858Y14769D01*
X20850Y14776D01*
X20842Y14780D01*
X20827D01*
X20884D02*
Y14700D01*
Y14780D02*
X20918D01*
X20930Y14776D01*
X20933Y14772D01*
X20937Y14765D01*
Y14757D01*
X20933Y14750D01*
X20930Y14746D01*
X20918Y14742D01*
X20884D02*
X20918D01*
X20930Y14738D01*
X20933Y14734D01*
X20937Y14727D01*
Y14715D01*
X20933Y14708D01*
X20930Y14704D01*
X20918Y14700D01*
X20884D01*
X21008Y14769D02*
X21001Y14776D01*
X20989Y14780D01*
X20974D01*
X20963Y14776D01*
X20955Y14769D01*
Y14761D01*
X20959Y14753D01*
X20963Y14750D01*
X20970Y14746D01*
X20993Y14738D01*
X21001Y14734D01*
X21005Y14731D01*
X21008Y14723D01*
Y14711D01*
X21001Y14704D01*
X20989Y14700D01*
X20974D01*
X20963Y14704D01*
X20955Y14711D01*
X21076Y14780D02*
X21026D01*
Y14700D01*
X21076D01*
X21026Y14742D02*
X21057D01*
X21089Y14780D02*
Y14700D01*
Y14780D02*
X21124D01*
X21135Y14776D01*
X21139Y14772D01*
X21143Y14765D01*
Y14757D01*
X21139Y14750D01*
X21135Y14746D01*
X21124Y14742D01*
X21089D01*
X21116D02*
X21143Y14700D01*
X21160Y14780D02*
X21191Y14700D01*
X21221Y14780D02*
X21191Y14700D01*
X21293D02*
X21262Y14780D01*
X21232Y14700D01*
X21243Y14727D02*
X21281D01*
X21338Y14780D02*
Y14700D01*
X21311Y14780D02*
X21365D01*
X21397D02*
X21389Y14776D01*
X21382Y14769D01*
X21378Y14761D01*
X21374Y14750D01*
Y14731D01*
X21378Y14719D01*
X21382Y14711D01*
X21389Y14704D01*
X21397Y14700D01*
X21412D01*
X21420Y14704D01*
X21427Y14711D01*
X21431Y14719D01*
X21435Y14731D01*
Y14750D01*
X21431Y14761D01*
X21427Y14769D01*
X21420Y14776D01*
X21412Y14780D01*
X21397D01*
X21454D02*
Y14700D01*
Y14780D02*
X21488D01*
X21499Y14776D01*
X21503Y14772D01*
X21507Y14765D01*
Y14757D01*
X21503Y14750D01*
X21499Y14746D01*
X21488Y14742D01*
X21454D01*
X21480D02*
X21507Y14700D01*
X21525Y14780D02*
X21555Y14742D01*
Y14700D01*
X21586Y14780D02*
X21555Y14742D01*
X21792Y14780D02*
X21834D01*
X21811Y14750D01*
X21823D01*
X21830Y14746D01*
X21834Y14742D01*
X21838Y14731D01*
Y14723D01*
X21834Y14711D01*
X21827Y14704D01*
X21815Y14700D01*
X21804D01*
X21792Y14704D01*
X21789Y14708D01*
X21785Y14715D01*
X21856Y14689D02*
X21909Y14780D01*
X21915Y14765D02*
X21922Y14769D01*
X21934Y14780D01*
Y14700D01*
X22019Y14769D02*
X22015Y14776D01*
X22004Y14780D01*
X21996D01*
X21985Y14776D01*
X21977Y14765D01*
X21973Y14746D01*
Y14727D01*
X21977Y14711D01*
X21985Y14704D01*
X21996Y14700D01*
X22000D01*
X22011Y14704D01*
X22019Y14711D01*
X22023Y14723D01*
Y14727D01*
X22019Y14738D01*
X22011Y14746D01*
X22000Y14750D01*
X21996D01*
X21985Y14746D01*
X21977Y14738D01*
X21973Y14727D01*
X22040Y14689D02*
X22094Y14780D01*
X22103Y14761D02*
Y14765D01*
X22107Y14772D01*
X22110Y14776D01*
X22118Y14780D01*
X22133D01*
X22141Y14776D01*
X22145Y14772D01*
X22148Y14765D01*
Y14757D01*
X22145Y14750D01*
X22137Y14738D01*
X22099Y14700D01*
X22152D01*
X22193Y14780D02*
X22182Y14776D01*
X22174Y14765D01*
X22170Y14746D01*
Y14734D01*
X22174Y14715D01*
X22182Y14704D01*
X22193Y14700D01*
X22201D01*
X22212Y14704D01*
X22220Y14715D01*
X22223Y14734D01*
Y14746D01*
X22220Y14765D01*
X22212Y14776D01*
X22201Y14780D01*
X22193D01*
X22241Y14765D02*
X22249Y14769D01*
X22260Y14780D01*
Y14700D01*
X22300Y14765D02*
X22308Y14769D01*
X22319Y14780D01*
Y14700D01*
D38*
X18781Y18590D02*
D03*
X19661D02*
D03*
X21191D02*
D03*
X20371D02*
D03*
X22541D02*
D03*
D39*
X18781Y18731D02*
D03*
Y18449D02*
D03*
X18640Y18590D02*
D03*
X18922D02*
D03*
X19661Y18731D02*
D03*
Y18449D02*
D03*
X19520Y18590D02*
D03*
X19802D02*
D03*
X21191Y18731D02*
D03*
Y18449D02*
D03*
X21050Y18590D02*
D03*
X21332D02*
D03*
X20371Y18731D02*
D03*
Y18449D02*
D03*
X20230Y18590D02*
D03*
X20512D02*
D03*
X22541Y18731D02*
D03*
Y18449D02*
D03*
X22400Y18590D02*
D03*
X22682D02*
D03*
X25462Y17323D02*
D03*
X25362D02*
D03*
X25262D02*
D03*
X25162D02*
D03*
Y17223D02*
D03*
X25262D02*
D03*
X25362D02*
D03*
X25462D02*
D03*
X25162Y17073D02*
D03*
X25262D02*
D03*
X25362D02*
D03*
X25462D02*
D03*
X25162Y16973D02*
D03*
X25262D02*
D03*
X25362D02*
D03*
X25462D02*
D03*
Y17873D02*
D03*
X25362D02*
D03*
X25262D02*
D03*
X25162D02*
D03*
X25462Y17973D02*
D03*
X25362D02*
D03*
X25262D02*
D03*
X25162D02*
D03*
X25462Y18123D02*
D03*
X25362D02*
D03*
X25262D02*
D03*
X25162D02*
D03*
Y18223D02*
D03*
X25262D02*
D03*
X25362D02*
D03*
X25462D02*
D03*
D40*
X21616Y16495D02*
D03*
X20266D02*
D03*
X18936D02*
D03*
D41*
X21916D02*
D03*
X22116D02*
D03*
X22416Y17295D02*
D03*
X22016D02*
D03*
X21616D02*
D03*
X20266D02*
D03*
X20666D02*
D03*
X21066D02*
D03*
X20766Y16495D02*
D03*
X20566D02*
D03*
X19236D02*
D03*
X19436D02*
D03*
X19736Y17295D02*
D03*
X19336D02*
D03*
X18936D02*
D03*
D42*
X18561Y16560D02*
D03*
X21151Y19270D02*
D03*
X19441D02*
D03*
X18321Y17060D02*
D03*
D43*
X18461Y16560D02*
D03*
X20851Y19270D02*
D03*
X20951D02*
D03*
X21051D02*
D03*
X19141D02*
D03*
X19241D02*
D03*
X19341D02*
D03*
X25362Y18473D02*
D03*
Y16723D02*
D03*
X18221Y16910D02*
D03*
X18021D02*
D03*
Y17010D02*
D03*
Y17110D02*
D03*
X18221D02*
D03*
Y17010D02*
D03*
X18321Y16960D02*
D03*
Y16860D02*
D03*
X18221Y16810D02*
D03*
X18021D02*
D03*
X17921Y16860D02*
D03*
Y16960D02*
D03*
Y17060D02*
D03*
Y17160D02*
D03*
X18021Y17210D02*
D03*
X18221D02*
D03*
X18321Y17160D02*
D03*
D44*
X17361Y19347D02*
D03*
Y15847D02*
D03*
X25772Y15849D02*
D03*
Y19349D02*
D03*
X19140Y18939D02*
D03*
X19441Y18976D02*
D03*
X21464Y18825D02*
D03*
X24196Y18823D02*
D03*
X17832Y17168D02*
D03*
X18494Y18155D02*
D03*
X23281Y18194D02*
D03*
X23287Y17806D02*
D03*
X24627Y17763D02*
D03*
X24810Y17721D02*
D03*
X24843Y17499D02*
D03*
X23432Y17597D02*
D03*
X24555Y17595D02*
D03*
X23433Y17872D02*
D03*
X20571Y18075D02*
D03*
X19226D02*
D03*
X24506Y17465D02*
D03*
X24621Y16795D02*
D03*
Y17665D02*
D03*
X24431D02*
D03*
X24821Y17200D02*
D03*
X24051Y16890D02*
D03*
X18561Y16030D02*
D03*
X18116Y16480D02*
D03*
X18076Y18240D02*
D03*
X19641D02*
D03*
X17826Y16960D02*
D03*
X17731Y17480D02*
D03*
X22611Y17415D02*
D03*
X18551Y16960D02*
D03*
Y17960D02*
D03*
X20171D02*
D03*
X18441Y17060D02*
D03*
X18411Y18075D02*
D03*
X21021D02*
D03*
X18296Y17280D02*
D03*
X18236Y17840D02*
D03*
X18781Y17845D02*
D03*
X22851Y17960D02*
D03*
X19086Y16500D02*
D03*
X19711Y16445D02*
D03*
X19361Y16965D02*
D03*
X19291Y17610D02*
D03*
X19381D02*
D03*
X21041Y16445D02*
D03*
X20621Y17610D02*
D03*
X20691Y16965D02*
D03*
X20416Y16500D02*
D03*
X22391Y16445D02*
D03*
X21971Y17610D02*
D03*
X22041Y16965D02*
D03*
X21766Y16500D02*
D03*
X22676Y19254D02*
D03*
D45*
X22701Y17600D02*
D03*
D46*
Y17700D02*
D03*
Y17800D02*
D03*
D47*
X25255Y19055D02*
D03*
X25455D02*
D03*
D48*
X25162Y17698D02*
D03*
X25262D02*
D03*
X25362D02*
D03*
X25462D02*
D03*
X25162Y17598D02*
D03*
X25262D02*
D03*
X25362D02*
D03*
X25462D02*
D03*
X25162Y17498D02*
D03*
X25262D02*
D03*
X25362D02*
D03*
X25462D02*
D03*
D49*
X24741Y19252D02*
D03*
Y15945D02*
D03*
X23048D02*
D03*
D50*
X24353Y19269D02*
D03*
Y17754D02*
D03*
X23563Y19269D02*
D03*
Y17754D02*
D03*
D51*
X18111Y18830D02*
D03*
X23359Y18976D02*
D03*
X23433Y18939D02*
D03*
X18164Y18824D02*
D03*
X23385Y18673D02*
D03*
X19141Y18453D02*
D03*
X19575Y18396D02*
D03*
X23440Y18434D02*
D03*
X20553Y18488D02*
D03*
X23563Y18486D02*
D03*
X23574Y18113D02*
D03*
X22332Y18108D02*
D03*
X23471Y18076D02*
D03*
Y18008D02*
D03*
X23335Y18040D02*
D03*
X23377Y18323D02*
D03*
X23464Y17806D02*
D03*
X24409Y16945D02*
D03*
X23590D02*
D03*
X24243Y18321D02*
D03*
X23639Y19363D02*
D03*
X23643Y17663D02*
D03*
X24432Y19346D02*
D03*
X25014Y15770D02*
D03*
X25338Y16254D02*
D03*
X24992Y16246D02*
D03*
X24718Y16564D02*
D03*
X24998Y16124D02*
D03*
X25537Y16122D02*
D03*
X25454Y15920D02*
D03*
X25138Y16075D02*
D03*
X25384Y16074D02*
D03*
X25236Y16228D02*
D03*
X25194Y16167D02*
D03*
X25134Y16227D02*
D03*
X25109Y16254D02*
D03*
X24416Y17020D02*
D03*
X24406Y16910D02*
D03*
X18001Y16160D02*
D03*
X17891D02*
D03*
X22851Y17340D02*
D03*
X18078Y19143D02*
D03*
X20251Y19141D02*
D03*
X22165Y19140D02*
D03*
D52*
X21541Y17975D02*
D03*
X19206Y17652D02*
D03*
X19097Y17656D02*
D03*
X19644Y17648D02*
D03*
X19790Y17799D02*
D03*
X19022Y17713D02*
D03*
X18871Y17797D02*
D03*
X19141Y17973D02*
D03*
X19569Y17969D02*
D03*
X19605Y17748D02*
D03*
X19435Y17801D02*
D03*
X20471Y17973D02*
D03*
X20427Y17656D02*
D03*
X20201Y17797D02*
D03*
X20352Y17713D02*
D03*
X20899Y17969D02*
D03*
X20935Y17748D02*
D03*
X20974Y17648D02*
D03*
X21120Y17799D02*
D03*
X20536Y17652D02*
D03*
X20765Y17801D02*
D03*
X21821Y17973D02*
D03*
X21777Y17656D02*
D03*
X21551Y17797D02*
D03*
X21702Y17713D02*
D03*
X22249Y17969D02*
D03*
X22285Y17748D02*
D03*
X22324Y17648D02*
D03*
X22470Y17799D02*
D03*
X21886Y17652D02*
D03*
X22115Y17801D02*
D03*
M02*
