%FSLAX23Y23*%
%MOIN*%
G70*
G01*
G75*
G04 Layer_Physical_Order=1*
G04 Layer_Color=255*
%ADD10C,0.005*%
%ADD11R,0.050X0.050*%
%ADD12R,0.050X0.050*%
%ADD13C,0.006*%
%ADD14C,0.010*%
%ADD15C,0.012*%
%ADD16C,0.008*%
%ADD17C,0.012*%
%ADD18C,0.012*%
%ADD19R,0.075X0.075*%
%ADD20C,0.075*%
%ADD21O,0.024X0.050*%
%ADD22C,0.050*%
D10*
X13724Y11714D02*
X13722Y11723D01*
X13717Y11731D01*
X13709Y11737D01*
X13700Y11740D01*
X13690Y11739D01*
X13681Y11735D01*
X13675Y11727D01*
X13671Y11718D01*
Y11709D01*
X13675Y11700D01*
X13681Y11692D01*
X13690Y11688D01*
X13700Y11687D01*
X13709Y11690D01*
X13717Y11696D01*
X13722Y11704D01*
X13724Y11714D01*
X13704Y11724D02*
X13694Y11725D01*
X13686Y11718D01*
X13687Y11708D01*
X13695Y11702D01*
X13705Y11704D01*
X14371Y11732D02*
X14366Y11737D01*
X14356D01*
X14351Y11732D01*
Y11712D01*
X14356Y11708D01*
X14366D01*
X14371Y11712D01*
X14381Y11708D02*
X14391D01*
X14386D01*
Y11737D01*
X14381Y11732D01*
X14795Y13632D02*
Y13613D01*
X14776Y13632D01*
X14771D01*
X14766Y13627D01*
Y13617D01*
X14771Y13613D01*
X14766Y13642D02*
Y13662D01*
X14771D01*
X14791Y13642D01*
X14795D01*
X13275Y12137D02*
X13270Y12132D01*
Y12122D01*
X13275Y12118D01*
X13295D01*
X13300Y12122D01*
Y12132D01*
X13295Y12137D01*
X13275Y12147D02*
X13270Y12152D01*
Y12162D01*
X13275Y12167D01*
X13280D01*
X13285Y12162D01*
Y12157D01*
Y12162D01*
X13290Y12167D01*
X13295D01*
X13300Y12162D01*
Y12152D01*
X13295Y12147D01*
X14861Y11739D02*
X14856Y11744D01*
X14846D01*
X14842Y11739D01*
Y11719D01*
X14846Y11715D01*
X14856D01*
X14861Y11719D01*
X14891Y11715D02*
X14871D01*
X14891Y11734D01*
Y11739D01*
X14886Y11744D01*
X14876D01*
X14871Y11739D01*
X13502Y13618D02*
Y13627D01*
Y13622D01*
X13472D01*
X13477Y13618D01*
X13547Y13587D02*
Y13568D01*
X13527Y13587D01*
X13522D01*
X13517Y13582D01*
Y13572D01*
X13522Y13568D01*
X13572Y13618D02*
X13567Y13622D01*
Y13632D01*
X13572Y13637D01*
X13577D01*
X13582Y13632D01*
Y13627D01*
Y13632D01*
X13587Y13637D01*
X13592D01*
X13597Y13632D01*
Y13622D01*
X13592Y13618D01*
X13646Y13583D02*
X13617D01*
X13632Y13568D01*
Y13588D01*
X13667Y13637D02*
Y13618D01*
X13682D01*
X13677Y13627D01*
Y13632D01*
X13682Y13637D01*
X13692D01*
X13696Y13632D01*
Y13622D01*
X13692Y13618D01*
X13712Y13582D02*
X13717Y13572D01*
X13727Y13562D01*
X13737D01*
X13741Y13567D01*
Y13577D01*
X13737Y13582D01*
X13732D01*
X13727Y13577D01*
Y13562D01*
X13764Y13616D02*
Y13636D01*
X13769D01*
X13789Y13616D01*
X13793D01*
X13822Y13562D02*
X13817Y13567D01*
Y13577D01*
X13822Y13582D01*
X13827D01*
X13832Y13577D01*
X13837Y13582D01*
X13842D01*
X13847Y13577D01*
Y13567D01*
X13842Y13562D01*
X13837D01*
X13832Y13567D01*
X13827Y13562D01*
X13822D01*
X13832Y13567D02*
Y13577D01*
X13892Y13613D02*
X13896Y13617D01*
Y13627D01*
X13892Y13632D01*
X13872D01*
X13867Y13627D01*
Y13617D01*
X13872Y13613D01*
X13877D01*
X13882Y13617D01*
Y13632D01*
X13946Y13562D02*
Y13572D01*
Y13567D01*
X13917D01*
X13922Y13562D01*
Y13587D02*
X13917Y13592D01*
Y13602D01*
X13922Y13607D01*
X13942D01*
X13946Y13602D01*
Y13592D01*
X13942Y13587D01*
X13922D01*
X13998Y13611D02*
Y13620D01*
Y13615D01*
X13968D01*
X13973Y13611D01*
X13998Y13635D02*
Y13645D01*
Y13640D01*
X13968D01*
X13973Y13635D01*
X14045Y13562D02*
Y13572D01*
Y13567D01*
X14016D01*
X14021Y13562D01*
X14045Y13607D02*
Y13587D01*
X14026Y13607D01*
X14021D01*
X14016Y13602D01*
Y13592D01*
X14021Y13587D01*
X14097Y13613D02*
Y13622D01*
Y13617D01*
X14067D01*
X14072Y13613D01*
Y13637D02*
X14067Y13642D01*
Y13652D01*
X14072Y13657D01*
X14077D01*
X14082Y13652D01*
Y13647D01*
Y13652D01*
X14087Y13657D01*
X14092D01*
X14097Y13652D01*
Y13642D01*
X14092Y13637D01*
X14148Y13566D02*
Y13575D01*
Y13570D01*
X14118D01*
X14123Y13566D01*
X14148Y13605D02*
X14118D01*
X14133Y13590D01*
Y13610D01*
X14194Y13613D02*
Y13623D01*
Y13618D01*
X14165D01*
X14170Y13613D01*
X14165Y13658D02*
Y13638D01*
X14180D01*
X14175Y13648D01*
Y13653D01*
X14180Y13658D01*
X14190D01*
X14194Y13653D01*
Y13643D01*
X14190Y13638D01*
X14245Y13561D02*
Y13571D01*
Y13566D01*
X14216D01*
X14221Y13561D01*
X14216Y13606D02*
X14221Y13596D01*
X14231Y13586D01*
X14241D01*
X14245Y13591D01*
Y13601D01*
X14241Y13606D01*
X14236D01*
X14231Y13601D01*
Y13586D01*
X14297Y13613D02*
Y13622D01*
Y13617D01*
X14267D01*
X14272Y13613D01*
X14267Y13637D02*
Y13657D01*
X14272D01*
X14292Y13637D01*
X14297D01*
X14347Y13564D02*
Y13573D01*
Y13568D01*
X14318D01*
X14323Y13564D01*
Y13588D02*
X14318Y13593D01*
Y13603D01*
X14323Y13608D01*
X14328D01*
X14333Y13603D01*
X14338Y13608D01*
X14343D01*
X14347Y13603D01*
Y13593D01*
X14343Y13588D01*
X14338D01*
X14333Y13593D01*
X14328Y13588D01*
X14323D01*
X14333Y13593D02*
Y13603D01*
X14401Y13613D02*
Y13622D01*
Y13617D01*
X14372D01*
X14377Y13613D01*
X14397Y13637D02*
X14401Y13642D01*
Y13652D01*
X14397Y13657D01*
X14377D01*
X14372Y13652D01*
Y13642D01*
X14377Y13637D01*
X14382D01*
X14387Y13642D01*
Y13657D01*
X14450Y13578D02*
Y13559D01*
X14430Y13578D01*
X14425D01*
X14420Y13573D01*
Y13563D01*
X14425Y13559D01*
Y13588D02*
X14420Y13593D01*
Y13603D01*
X14425Y13608D01*
X14445D01*
X14450Y13603D01*
Y13593D01*
X14445Y13588D01*
X14425D01*
X14498Y13629D02*
Y13609D01*
X14478Y13629D01*
X14473D01*
X14468Y13624D01*
Y13614D01*
X14473Y13609D01*
X14498Y13639D02*
Y13649D01*
Y13644D01*
X14468D01*
X14473Y13639D01*
X14547Y13579D02*
Y13559D01*
X14527Y13579D01*
X14522D01*
X14517Y13574D01*
Y13564D01*
X14522Y13559D01*
X14547Y13609D02*
Y13589D01*
X14527Y13609D01*
X14522D01*
X14517Y13604D01*
Y13594D01*
X14522Y13589D01*
X14594Y13632D02*
Y13613D01*
X14575Y13632D01*
X14570D01*
X14565Y13627D01*
Y13617D01*
X14570Y13613D01*
Y13642D02*
X14565Y13647D01*
Y13657D01*
X14570Y13662D01*
X14575D01*
X14580Y13657D01*
Y13652D01*
Y13657D01*
X14585Y13662D01*
X14590D01*
X14594Y13657D01*
Y13647D01*
X14590Y13642D01*
X14648Y13587D02*
Y13568D01*
X14628Y13587D01*
X14623D01*
X14618Y13582D01*
Y13572D01*
X14623Y13568D01*
X14648Y13612D02*
X14618D01*
X14633Y13597D01*
Y13617D01*
X14696Y13631D02*
Y13611D01*
X14677Y13631D01*
X14672D01*
X14667Y13626D01*
Y13616D01*
X14672Y13611D01*
X14667Y13661D02*
Y13641D01*
X14682D01*
X14677Y13651D01*
Y13656D01*
X14682Y13661D01*
X14692D01*
X14696Y13656D01*
Y13646D01*
X14692Y13641D01*
X14747Y13582D02*
Y13562D01*
X14727Y13582D01*
X14722D01*
X14717Y13577D01*
Y13567D01*
X14722Y13562D01*
X14717Y13612D02*
X14722Y13602D01*
X14732Y13592D01*
X14742D01*
X14747Y13597D01*
Y13607D01*
X14742Y13612D01*
X14737D01*
X14732Y13607D01*
Y13592D01*
X13766Y11703D02*
X13747D01*
X13766Y11722D01*
Y11727D01*
X13761Y11732D01*
X13751D01*
X13747Y11727D01*
X13776D02*
X13781Y11732D01*
X13791D01*
X13796Y11727D01*
Y11707D01*
X13791Y11703D01*
X13781D01*
X13776Y11707D01*
Y11727D01*
X13806D02*
X13811Y11732D01*
X13821D01*
X13826Y11727D01*
Y11707D01*
X13821Y11703D01*
X13811D01*
X13806Y11707D01*
Y11727D01*
X13836Y11707D02*
X13841Y11703D01*
X13851D01*
X13856Y11707D01*
Y11727D01*
X13851Y11732D01*
X13841D01*
X13836Y11727D01*
Y11722D01*
X13841Y11717D01*
X13856D01*
X13316Y11734D02*
Y11705D01*
X13335D01*
X13365Y11729D02*
X13360Y11734D01*
X13350D01*
X13345Y11729D01*
Y11709D01*
X13350Y11705D01*
X13360D01*
X13365Y11709D01*
X13390Y11734D02*
X13380D01*
X13375Y11729D01*
Y11709D01*
X13380Y11705D01*
X13390D01*
X13395Y11709D01*
Y11729D01*
X13390Y11734D01*
X13425Y11729D02*
X13420Y11734D01*
X13410D01*
X13405Y11729D01*
Y11709D01*
X13410Y11705D01*
X13420D01*
X13425Y11709D01*
Y11719D01*
X13415D01*
X13435Y11734D02*
X13455D01*
X13445D01*
Y11705D01*
X13470Y11700D02*
X13475Y11705D01*
Y11709D01*
X13470D01*
Y11705D01*
X13475D01*
X13470Y11700D01*
X13465Y11695D01*
X13525Y11734D02*
X13535D01*
X13530D01*
Y11705D01*
X13525D01*
X13535D01*
X13550D02*
Y11724D01*
X13565D01*
X13570Y11719D01*
Y11705D01*
X13600Y11724D02*
X13585D01*
X13580Y11719D01*
Y11709D01*
X13585Y11705D01*
X13600D01*
X13332Y11790D02*
X13327Y11795D01*
X13317D01*
X13312Y11790D01*
Y11785D01*
X13317Y11780D01*
X13327D01*
X13332Y11775D01*
Y11770D01*
X13327Y11766D01*
X13317D01*
X13312Y11770D01*
X13342Y11795D02*
X13352D01*
X13347D01*
Y11766D01*
X13342D01*
X13352D01*
X13367Y11795D02*
X13387D01*
X13377D01*
Y11766D01*
X13412D02*
X13402D01*
X13397Y11770D01*
Y11780D01*
X13402Y11785D01*
X13412D01*
X13417Y11780D01*
Y11775D01*
X13397D01*
X13477Y11790D02*
X13472Y11795D01*
X13462D01*
X13457Y11790D01*
Y11770D01*
X13462Y11766D01*
X13472D01*
X13477Y11770D01*
X13507Y11790D02*
X13502Y11795D01*
X13492D01*
X13487Y11790D01*
Y11770D01*
X13492Y11766D01*
X13502D01*
X13507Y11770D01*
X13517Y11795D02*
Y11766D01*
X13532D01*
X13537Y11770D01*
Y11790D01*
X13532Y11795D01*
X13517D01*
X13597Y11790D02*
X13592Y11795D01*
X13582D01*
X13577Y11790D01*
Y11785D01*
X13582Y11780D01*
X13592D01*
X13597Y11775D01*
Y11770D01*
X13592Y11766D01*
X13582D01*
X13577Y11770D01*
X13622Y11795D02*
X13612D01*
X13607Y11790D01*
Y11770D01*
X13612Y11766D01*
X13622D01*
X13627Y11770D01*
Y11790D01*
X13622Y11795D01*
X13657Y11790D02*
X13652Y11795D01*
X13642D01*
X13637Y11790D01*
Y11770D01*
X13642Y11766D01*
X13652D01*
X13657Y11770D01*
X13667Y11795D02*
Y11766D01*
Y11775D01*
X13687Y11795D01*
X13672Y11780D01*
X13687Y11766D01*
X13717Y11795D02*
X13697D01*
Y11766D01*
X13717D01*
X13697Y11780D02*
X13707D01*
X13727Y11795D02*
X13747D01*
X13737D01*
Y11766D01*
X13787Y11785D02*
Y11766D01*
Y11775D01*
X13792Y11780D01*
X13797Y11785D01*
X13802D01*
X13832Y11766D02*
X13822D01*
X13817Y11770D01*
Y11780D01*
X13822Y11785D01*
X13832D01*
X13837Y11780D01*
Y11775D01*
X13817D01*
X13847Y11785D02*
X13857Y11766D01*
X13867Y11785D01*
X13877Y11766D02*
Y11770D01*
X13882D01*
Y11766D01*
X13877D01*
X13932D02*
Y11785D01*
X13942Y11795D01*
X13952Y11785D01*
Y11766D01*
Y11780D01*
X13932D01*
D11*
X14526Y11722D02*
D03*
X14436D02*
D03*
X14776D02*
D03*
X14686D02*
D03*
D12*
X13281Y12068D02*
D03*
Y11977D02*
D03*
D13*
X13432Y12538D02*
Y12573D01*
Y12172D02*
X13499Y12105D01*
Y11985D02*
Y12105D01*
Y11985D02*
X13552Y11932D01*
X14781Y12123D02*
X14832Y12172D01*
X14721Y11932D02*
X14781Y11992D01*
X13552Y11932D02*
X14721D01*
X14781Y11992D02*
Y12123D01*
X13281Y12068D02*
X13427D01*
X13432Y12073D01*
X13281Y11977D02*
X13427D01*
X13432Y11972D01*
Y12472D02*
X13535Y12369D01*
Y12001D02*
Y12369D01*
Y12001D02*
X13568Y11967D01*
X14706D01*
X14745Y12007D01*
Y12387D01*
X14832Y12472D01*
X13432Y12373D02*
X13523Y12281D01*
Y11996D02*
Y12281D01*
Y11996D02*
X13563Y11955D01*
X14711D01*
X14757Y12002D01*
Y12299D01*
X14832Y12373D01*
X13432Y12273D02*
X13511Y12193D01*
Y11991D02*
Y12193D01*
Y11991D02*
X13559Y11943D01*
X14716D01*
X14769Y11997D01*
Y12210D01*
X14832Y12273D01*
X13432Y12873D02*
X13571Y12733D01*
Y12016D02*
Y12733D01*
Y12016D02*
X13583Y12003D01*
X14691D01*
X14710Y12021D01*
Y12750D01*
X14832Y12873D01*
X13432Y12773D02*
X13559Y12645D01*
Y12011D02*
Y12645D01*
Y12011D02*
X13578Y11991D01*
X14696D01*
X14722Y12017D01*
Y12663D01*
X14832Y12773D01*
X13432Y12672D02*
X13547Y12557D01*
Y12006D02*
Y12557D01*
Y12006D02*
X13573Y11979D01*
X14701D01*
X14733Y12012D01*
Y12575D01*
X14832Y12672D01*
X13932Y13273D02*
Y13312D01*
X13981Y13363D01*
Y13573D01*
X13337Y12667D02*
X13432Y12573D01*
X13337Y12667D02*
Y13274D01*
X13420Y13356D01*
X13851D01*
X13932Y13436D01*
Y13523D01*
X14031Y13273D02*
Y13523D01*
X14436Y11722D02*
Y11868D01*
X14432Y11873D02*
X14436Y11868D01*
X14526Y11722D02*
X14613D01*
X13627Y11868D02*
X13632Y11873D01*
X14632D02*
X14686Y11818D01*
Y11722D02*
Y11818D01*
X14731Y11873D02*
X14776Y11828D01*
Y11722D02*
Y11828D01*
D14*
X13334Y13470D02*
Y13420D01*
X13344Y13410D01*
X13364D01*
X13374Y13420D01*
Y13470D01*
X13394Y13410D02*
X13414D01*
X13404D01*
Y13470D01*
X13394Y13460D01*
X13231Y11672D02*
X14832D01*
X15031D01*
Y13672D01*
X13231D02*
X15031D01*
X13231Y11672D02*
Y13672D01*
X13582Y12023D02*
X14682D01*
Y13123D01*
X13582D02*
X14682D01*
X13582Y12023D02*
Y13123D01*
D15*
X13285Y9292D02*
Y9247D01*
X13266Y9281D02*
X13304Y9258D01*
Y9281D02*
X13266Y9258D01*
X13324Y9220D02*
X13320Y9216D01*
X13324Y9212D01*
X13328Y9216D01*
X13324Y9220D01*
X13402Y9273D02*
X13398Y9281D01*
X13391Y9289D01*
X13383Y9292D01*
X13368D01*
X13360Y9289D01*
X13353Y9281D01*
X13349Y9273D01*
X13345Y9262D01*
Y9243D01*
X13349Y9232D01*
X13353Y9224D01*
X13360Y9216D01*
X13368Y9212D01*
X13383D01*
X13391Y9216D01*
X13398Y9224D01*
X13402Y9232D01*
Y9243D01*
X13383D02*
X13402D01*
X13447Y9292D02*
Y9212D01*
X13421Y9292D02*
X13474D01*
X13483D02*
Y9212D01*
X13529D01*
X13601Y9247D02*
X13669D01*
X13782Y9292D02*
Y9212D01*
X13756Y9292D02*
X13809D01*
X13841D02*
X13834Y9289D01*
X13826Y9281D01*
X13822Y9273D01*
X13819Y9262D01*
Y9243D01*
X13822Y9232D01*
X13826Y9224D01*
X13834Y9216D01*
X13841Y9212D01*
X13857D01*
X13864Y9216D01*
X13872Y9224D01*
X13876Y9232D01*
X13879Y9243D01*
Y9262D01*
X13876Y9273D01*
X13872Y9281D01*
X13864Y9289D01*
X13857Y9292D01*
X13841D01*
X13898Y9251D02*
X13932D01*
X13944Y9254D01*
X13948Y9258D01*
X13951Y9266D01*
Y9277D01*
X13948Y9285D01*
X13944Y9289D01*
X13932Y9292D01*
X13898D01*
Y9212D01*
X14032Y9292D02*
Y9212D01*
X14078D01*
X14148D02*
X14117Y9292D01*
X14087Y9212D01*
X14098Y9239D02*
X14136D01*
X14166Y9292D02*
X14197Y9254D01*
Y9212D01*
X14227Y9292D02*
X14197Y9254D01*
X14287Y9292D02*
X14237D01*
Y9212D01*
X14287D01*
X14237Y9254D02*
X14268D01*
X14300Y9292D02*
Y9212D01*
Y9292D02*
X14335D01*
X14346Y9289D01*
X14350Y9285D01*
X14354Y9277D01*
Y9270D01*
X14350Y9262D01*
X14346Y9258D01*
X14335Y9254D01*
X14300D01*
X14327D02*
X14354Y9212D01*
X14492Y9273D02*
X14488Y9281D01*
X14480Y9289D01*
X14472Y9292D01*
X14457D01*
X14450Y9289D01*
X14442Y9281D01*
X14438Y9273D01*
X14434Y9262D01*
Y9243D01*
X14438Y9232D01*
X14442Y9224D01*
X14450Y9216D01*
X14457Y9212D01*
X14472D01*
X14480Y9216D01*
X14488Y9224D01*
X14492Y9232D01*
Y9243D01*
X14472D02*
X14492D01*
X14559Y9292D02*
X14510D01*
Y9212D01*
X14559D01*
X14510Y9254D02*
X14540D01*
X14573Y9292D02*
Y9212D01*
Y9292D02*
X14607D01*
X14618Y9289D01*
X14622Y9285D01*
X14626Y9277D01*
Y9270D01*
X14622Y9262D01*
X14618Y9258D01*
X14607Y9254D01*
X14573D01*
X14599D02*
X14626Y9212D01*
X14644Y9292D02*
Y9212D01*
Y9292D02*
X14678D01*
X14690Y9289D01*
X14693Y9285D01*
X14697Y9277D01*
Y9270D01*
X14693Y9262D01*
X14690Y9258D01*
X14678Y9254D01*
X14644D02*
X14678D01*
X14690Y9251D01*
X14693Y9247D01*
X14697Y9239D01*
Y9228D01*
X14693Y9220D01*
X14690Y9216D01*
X14678Y9212D01*
X14644D01*
X14765Y9292D02*
X14715D01*
Y9212D01*
X14765D01*
X14715Y9254D02*
X14746D01*
X14778Y9292D02*
Y9212D01*
Y9292D02*
X14812D01*
X14824Y9289D01*
X14827Y9285D01*
X14831Y9277D01*
Y9270D01*
X14827Y9262D01*
X14824Y9258D01*
X14812Y9254D01*
X14778D01*
X14805D02*
X14831Y9212D01*
X14912Y9292D02*
Y9212D01*
Y9292D02*
X14939D01*
X14950Y9289D01*
X14958Y9281D01*
X14962Y9273D01*
X14965Y9262D01*
Y9243D01*
X14962Y9232D01*
X14958Y9224D01*
X14950Y9216D01*
X14939Y9212D01*
X14912D01*
X15044D02*
X15014Y9292D01*
X14983Y9212D01*
X14995Y9239D02*
X15033D01*
X15089Y9292D02*
Y9212D01*
X15063Y9292D02*
X15116D01*
X15187Y9212D02*
X15156Y9292D01*
X15126Y9212D01*
X15137Y9239D02*
X15175D01*
X15295Y9308D02*
X15287Y9300D01*
X15280Y9289D01*
X15272Y9273D01*
X15268Y9254D01*
Y9239D01*
X15272Y9220D01*
X15280Y9205D01*
X15287Y9193D01*
X15295Y9186D01*
X15287Y9300D02*
X15280Y9285D01*
X15276Y9273D01*
X15272Y9254D01*
Y9239D01*
X15276Y9220D01*
X15280Y9209D01*
X15287Y9193D01*
X15363Y9281D02*
X15356Y9289D01*
X15344Y9292D01*
X15329D01*
X15318Y9289D01*
X15310Y9281D01*
Y9273D01*
X15314Y9266D01*
X15318Y9262D01*
X15325Y9258D01*
X15348Y9251D01*
X15356Y9247D01*
X15360Y9243D01*
X15363Y9235D01*
Y9224D01*
X15356Y9216D01*
X15344Y9212D01*
X15329D01*
X15318Y9216D01*
X15310Y9224D01*
X15381Y9292D02*
Y9212D01*
X15435Y9292D02*
Y9212D01*
X15381Y9254D02*
X15435D01*
X15506Y9292D02*
X15457D01*
Y9212D01*
X15506D01*
X15457Y9254D02*
X15487D01*
X15569Y9292D02*
X15519D01*
Y9212D01*
X15569D01*
X15519Y9254D02*
X15550D01*
X15609Y9292D02*
Y9212D01*
X15582Y9292D02*
X15636D01*
X15754Y9281D02*
X15750Y9289D01*
X15738Y9292D01*
X15731D01*
X15719Y9289D01*
X15712Y9277D01*
X15708Y9258D01*
Y9239D01*
X15712Y9224D01*
X15719Y9216D01*
X15731Y9212D01*
X15735D01*
X15746Y9216D01*
X15754Y9224D01*
X15758Y9235D01*
Y9239D01*
X15754Y9251D01*
X15746Y9258D01*
X15735Y9262D01*
X15731D01*
X15719Y9258D01*
X15712Y9251D01*
X15708Y9239D01*
X15861Y9292D02*
X15853Y9289D01*
X15846Y9281D01*
X15842Y9273D01*
X15838Y9262D01*
Y9243D01*
X15842Y9232D01*
X15846Y9224D01*
X15853Y9216D01*
X15861Y9212D01*
X15876D01*
X15884Y9216D01*
X15891Y9224D01*
X15895Y9232D01*
X15899Y9243D01*
Y9262D01*
X15895Y9273D01*
X15891Y9281D01*
X15884Y9289D01*
X15876Y9292D01*
X15861D01*
X15918D02*
Y9212D01*
Y9292D02*
X15967D01*
X15918Y9254D02*
X15948D01*
X16085Y9281D02*
X16081Y9289D01*
X16069Y9292D01*
X16062D01*
X16050Y9289D01*
X16043Y9277D01*
X16039Y9258D01*
Y9239D01*
X16043Y9224D01*
X16050Y9216D01*
X16062Y9212D01*
X16066D01*
X16077Y9216D01*
X16085Y9224D01*
X16089Y9235D01*
Y9239D01*
X16085Y9251D01*
X16077Y9258D01*
X16066Y9262D01*
X16062D01*
X16050Y9258D01*
X16043Y9251D01*
X16039Y9239D01*
X16106Y9308D02*
X16114Y9300D01*
X16121Y9289D01*
X16129Y9273D01*
X16133Y9254D01*
Y9239D01*
X16129Y9220D01*
X16121Y9205D01*
X16114Y9193D01*
X16106Y9186D01*
X16114Y9300D02*
X16121Y9285D01*
X16125Y9273D01*
X16129Y9254D01*
Y9239D01*
X16125Y9220D01*
X16121Y9209D01*
X16114Y9193D01*
D16*
X15901Y13847D02*
X15911D01*
Y13842D02*
Y13852D01*
X15901D02*
X15911D01*
X15901Y13842D02*
Y13852D01*
Y13842D02*
X15911D01*
X15917D02*
Y13858D01*
X15896D02*
X15917D01*
X15896Y13837D02*
Y13858D01*
Y13837D02*
X15917D01*
X15922D02*
Y13863D01*
X15892D02*
X15922D01*
X15892Y13833D02*
Y13863D01*
Y13833D02*
X15922D01*
X15927Y13828D02*
Y13868D01*
X15887D02*
X15927D01*
X15887Y13828D02*
Y13868D01*
Y13828D02*
X15927D01*
X15851Y13898D02*
X15861D01*
Y13892D02*
Y13903D01*
X15851D02*
X15861D01*
X15851Y13892D02*
Y13903D01*
Y13892D02*
X15861D01*
X15866D02*
Y13908D01*
X15847D02*
X15866D01*
X15847Y13887D02*
Y13908D01*
Y13887D02*
X15866D01*
X15872D02*
Y13913D01*
X15842D02*
X15872D01*
X15842Y13882D02*
Y13913D01*
Y13882D02*
X15872D01*
X15877Y13877D02*
Y13917D01*
X15837D02*
X15877D01*
X15837Y13877D02*
Y13917D01*
Y13877D02*
X15877D01*
X15832Y13922D02*
X15882D01*
X15832Y13873D02*
Y13922D01*
X15882Y13823D02*
X15932D01*
Y13873D01*
X15882Y13623D02*
Y14123D01*
X15632Y13873D02*
X16132D01*
X12201Y10898D02*
X12212D01*
Y10892D02*
Y10903D01*
X12201D02*
X12212D01*
X12201Y10892D02*
Y10903D01*
Y10892D02*
X12212D01*
X12217D02*
Y10908D01*
X12196D02*
X12217D01*
X12196Y10887D02*
Y10908D01*
Y10887D02*
X12217D01*
X12222D02*
Y10913D01*
X12191D02*
X12222D01*
X12191Y10882D02*
Y10913D01*
Y10882D02*
X12222D01*
X12226Y10877D02*
Y10917D01*
X12186D02*
X12226D01*
X12186Y10877D02*
Y10917D01*
Y10877D02*
X12226D01*
X12151Y10948D02*
X12161D01*
Y10943D02*
Y10953D01*
X12151D02*
X12161D01*
X12151Y10943D02*
Y10953D01*
Y10943D02*
X12161D01*
X12167D02*
Y10958D01*
X12146D02*
X12167D01*
X12146Y10938D02*
Y10958D01*
Y10938D02*
X12167D01*
X12172D02*
Y10962D01*
X12142D02*
X12172D01*
X12142Y10932D02*
Y10962D01*
Y10932D02*
X12172D01*
X12177Y10927D02*
Y10967D01*
X12137D02*
X12177D01*
X12137Y10927D02*
Y10967D01*
Y10927D02*
X12177D01*
X12132Y10972D02*
X12182D01*
X12132Y10922D02*
Y10972D01*
X12182Y10873D02*
X12231D01*
Y10922D01*
X12182Y10672D02*
Y11172D01*
X11932Y10922D02*
X12432D01*
X12201Y13898D02*
X12212D01*
Y13892D02*
Y13903D01*
X12201D02*
X12212D01*
X12201Y13892D02*
Y13903D01*
Y13892D02*
X12212D01*
X12217D02*
Y13908D01*
X12196D02*
X12217D01*
X12196Y13887D02*
Y13908D01*
Y13887D02*
X12217D01*
X12222D02*
Y13913D01*
X12191D02*
X12222D01*
X12191Y13882D02*
Y13913D01*
Y13882D02*
X12222D01*
X12226Y13877D02*
Y13917D01*
X12186D02*
X12226D01*
X12186Y13877D02*
Y13917D01*
Y13877D02*
X12226D01*
X12151Y13948D02*
X12161D01*
Y13943D02*
Y13953D01*
X12151D02*
X12161D01*
X12151Y13943D02*
Y13953D01*
Y13943D02*
X12161D01*
X12167D02*
Y13958D01*
X12146D02*
X12167D01*
X12146Y13938D02*
Y13958D01*
Y13938D02*
X12167D01*
X12172D02*
Y13962D01*
X12142D02*
X12172D01*
X12142Y13932D02*
Y13962D01*
Y13932D02*
X12172D01*
X12177Y13927D02*
Y13967D01*
X12137D02*
X12177D01*
X12137Y13927D02*
Y13967D01*
Y13927D02*
X12177D01*
X12132Y13972D02*
X12182D01*
X12132Y13922D02*
Y13972D01*
X12182Y13873D02*
X12231D01*
Y13922D01*
X12182Y13672D02*
Y14172D01*
X11932Y13922D02*
X12432D01*
D17*
X13316Y10404D02*
Y10324D01*
X13361D01*
X13431D02*
X13400Y10404D01*
X13370Y10324D01*
X13381Y10351D02*
X13420D01*
X13503Y10393D02*
X13495Y10400D01*
X13484Y10404D01*
X13469D01*
X13457Y10400D01*
X13450Y10393D01*
Y10385D01*
X13453Y10377D01*
X13457Y10374D01*
X13465Y10370D01*
X13488Y10362D01*
X13495Y10358D01*
X13499Y10355D01*
X13503Y10347D01*
Y10335D01*
X13495Y10328D01*
X13484Y10324D01*
X13469D01*
X13457Y10328D01*
X13450Y10335D01*
X13641Y10385D02*
X13637Y10393D01*
X13629Y10400D01*
X13622Y10404D01*
X13607D01*
X13599Y10400D01*
X13591Y10393D01*
X13587Y10385D01*
X13584Y10374D01*
Y10355D01*
X13587Y10343D01*
X13591Y10335D01*
X13599Y10328D01*
X13607Y10324D01*
X13622D01*
X13629Y10328D01*
X13637Y10335D01*
X13641Y10343D01*
X13663Y10404D02*
Y10347D01*
X13667Y10335D01*
X13675Y10328D01*
X13686Y10324D01*
X13694D01*
X13705Y10328D01*
X13713Y10335D01*
X13717Y10347D01*
Y10404D01*
X13739D02*
Y10324D01*
Y10404D02*
X13769Y10324D01*
X13800Y10404D02*
X13769Y10324D01*
X13800Y10404D02*
Y10324D01*
X13822Y10404D02*
Y10324D01*
Y10404D02*
X13857D01*
X13868Y10400D01*
X13872Y10396D01*
X13876Y10389D01*
Y10381D01*
X13872Y10374D01*
X13868Y10370D01*
X13857Y10366D01*
X13822D02*
X13857D01*
X13868Y10362D01*
X13872Y10358D01*
X13876Y10351D01*
Y10339D01*
X13872Y10332D01*
X13868Y10328D01*
X13857Y10324D01*
X13822D01*
X13894Y10404D02*
Y10324D01*
Y10404D02*
X13928D01*
X13939Y10400D01*
X13943Y10396D01*
X13947Y10389D01*
Y10381D01*
X13943Y10374D01*
X13939Y10370D01*
X13928Y10366D01*
X13894D01*
X13920D02*
X13947Y10324D01*
X14014Y10404D02*
X13965D01*
Y10324D01*
X14014D01*
X13965Y10366D02*
X13995D01*
X14081Y10393D02*
X14073Y10400D01*
X14062Y10404D01*
X14047D01*
X14035Y10400D01*
X14028Y10393D01*
Y10385D01*
X14032Y10377D01*
X14035Y10374D01*
X14043Y10370D01*
X14066Y10362D01*
X14073Y10358D01*
X14077Y10355D01*
X14081Y10347D01*
Y10335D01*
X14073Y10328D01*
X14062Y10324D01*
X14047D01*
X14035Y10328D01*
X14028Y10335D01*
X14185Y10404D02*
X14177Y10400D01*
X14169Y10393D01*
X14166Y10385D01*
X14162Y10374D01*
Y10355D01*
X14166Y10343D01*
X14169Y10335D01*
X14177Y10328D01*
X14185Y10324D01*
X14200D01*
X14208Y10328D01*
X14215Y10335D01*
X14219Y10343D01*
X14223Y10355D01*
Y10374D01*
X14219Y10385D01*
X14215Y10393D01*
X14208Y10400D01*
X14200Y10404D01*
X14185D01*
X14241D02*
Y10324D01*
Y10404D02*
X14276D01*
X14287Y10400D01*
X14291Y10396D01*
X14295Y10389D01*
Y10381D01*
X14291Y10374D01*
X14287Y10370D01*
X14276Y10366D01*
X14241D02*
X14276D01*
X14287Y10362D01*
X14291Y10358D01*
X14295Y10351D01*
Y10339D01*
X14291Y10332D01*
X14287Y10328D01*
X14276Y10324D01*
X14241D01*
X14366Y10393D02*
X14358Y10400D01*
X14347Y10404D01*
X14332D01*
X14320Y10400D01*
X14313Y10393D01*
Y10385D01*
X14316Y10377D01*
X14320Y10374D01*
X14328Y10370D01*
X14351Y10362D01*
X14358Y10358D01*
X14362Y10355D01*
X14366Y10347D01*
Y10335D01*
X14358Y10328D01*
X14347Y10324D01*
X14332D01*
X14320Y10328D01*
X14313Y10335D01*
X14433Y10404D02*
X14384D01*
Y10324D01*
X14433D01*
X14384Y10366D02*
X14414D01*
X14447Y10404D02*
Y10324D01*
Y10404D02*
X14481D01*
X14492Y10400D01*
X14496Y10396D01*
X14500Y10389D01*
Y10381D01*
X14496Y10374D01*
X14492Y10370D01*
X14481Y10366D01*
X14447D01*
X14473D02*
X14500Y10324D01*
X14518Y10404D02*
X14548Y10324D01*
X14579Y10404D02*
X14548Y10324D01*
X14650D02*
X14620Y10404D01*
X14589Y10324D01*
X14601Y10351D02*
X14639D01*
X14695Y10404D02*
Y10324D01*
X14669Y10404D02*
X14722D01*
X14754D02*
X14747Y10400D01*
X14739Y10393D01*
X14735Y10385D01*
X14732Y10374D01*
Y10355D01*
X14735Y10343D01*
X14739Y10335D01*
X14747Y10328D01*
X14754Y10324D01*
X14770D01*
X14777Y10328D01*
X14785Y10335D01*
X14789Y10343D01*
X14793Y10355D01*
Y10374D01*
X14789Y10385D01*
X14785Y10393D01*
X14777Y10400D01*
X14770Y10404D01*
X14754D01*
X14811D02*
Y10324D01*
Y10404D02*
X14845D01*
X14857Y10400D01*
X14861Y10396D01*
X14865Y10389D01*
Y10381D01*
X14861Y10374D01*
X14857Y10370D01*
X14845Y10366D01*
X14811D01*
X14838D02*
X14865Y10324D01*
X14882Y10404D02*
X14913Y10366D01*
Y10324D01*
X14943Y10404D02*
X14913Y10366D01*
X15314Y10404D02*
X15275D01*
X15272Y10370D01*
X15275Y10374D01*
X15287Y10377D01*
X15298D01*
X15310Y10374D01*
X15317Y10366D01*
X15321Y10355D01*
Y10347D01*
X15317Y10335D01*
X15310Y10328D01*
X15298Y10324D01*
X15287D01*
X15275Y10328D01*
X15272Y10332D01*
X15268Y10339D01*
X15339Y10313D02*
X15392Y10404D01*
X15398Y10389D02*
X15405Y10393D01*
X15417Y10404D01*
Y10324D01*
X15475Y10404D02*
X15464Y10400D01*
X15460Y10393D01*
Y10385D01*
X15464Y10377D01*
X15472Y10374D01*
X15487Y10370D01*
X15498Y10366D01*
X15506Y10358D01*
X15510Y10351D01*
Y10339D01*
X15506Y10332D01*
X15502Y10328D01*
X15491Y10324D01*
X15475D01*
X15464Y10328D01*
X15460Y10332D01*
X15456Y10339D01*
Y10351D01*
X15460Y10358D01*
X15468Y10366D01*
X15479Y10370D01*
X15494Y10374D01*
X15502Y10377D01*
X15506Y10385D01*
Y10393D01*
X15502Y10400D01*
X15491Y10404D01*
X15475D01*
X15528Y10313D02*
X15581Y10404D01*
X15590Y10385D02*
Y10389D01*
X15594Y10396D01*
X15598Y10400D01*
X15605Y10404D01*
X15621D01*
X15628Y10400D01*
X15632Y10396D01*
X15636Y10389D01*
Y10381D01*
X15632Y10374D01*
X15624Y10362D01*
X15586Y10324D01*
X15640D01*
X15680Y10404D02*
X15669Y10400D01*
X15661Y10389D01*
X15658Y10370D01*
Y10358D01*
X15661Y10339D01*
X15669Y10328D01*
X15680Y10324D01*
X15688D01*
X15699Y10328D01*
X15707Y10339D01*
X15711Y10358D01*
Y10370D01*
X15707Y10389D01*
X15699Y10400D01*
X15688Y10404D01*
X15680D01*
X15752D02*
X15740Y10400D01*
X15733Y10389D01*
X15729Y10370D01*
Y10358D01*
X15733Y10339D01*
X15740Y10328D01*
X15752Y10324D01*
X15759D01*
X15771Y10328D01*
X15778Y10339D01*
X15782Y10358D01*
Y10370D01*
X15778Y10389D01*
X15771Y10400D01*
X15759Y10404D01*
X15752D01*
X15849Y10377D02*
X15846Y10366D01*
X15838Y10358D01*
X15827Y10355D01*
X15823D01*
X15811Y10358D01*
X15804Y10366D01*
X15800Y10377D01*
Y10381D01*
X15804Y10393D01*
X15811Y10400D01*
X15823Y10404D01*
X15827D01*
X15838Y10400D01*
X15846Y10393D01*
X15849Y10377D01*
Y10358D01*
X15846Y10339D01*
X15838Y10328D01*
X15827Y10324D01*
X15819D01*
X15808Y10328D01*
X15804Y10335D01*
D18*
X13369Y10543D02*
X13361Y10550D01*
X13350Y10554D01*
X13335D01*
X13323Y10550D01*
X13316Y10543D01*
Y10535D01*
X13319Y10527D01*
X13323Y10524D01*
X13331Y10520D01*
X13354Y10512D01*
X13361Y10508D01*
X13365Y10505D01*
X13369Y10497D01*
Y10486D01*
X13361Y10478D01*
X13350Y10474D01*
X13335D01*
X13323Y10478D01*
X13316Y10486D01*
X13387Y10554D02*
Y10474D01*
X13430Y10554D02*
Y10474D01*
X13404Y10554D02*
X13457D01*
X13516D02*
X13466D01*
Y10474D01*
X13516D01*
X13466Y10516D02*
X13497D01*
X13649Y10535D02*
X13645Y10543D01*
X13638Y10550D01*
X13630Y10554D01*
X13615D01*
X13607Y10550D01*
X13600Y10543D01*
X13596Y10535D01*
X13592Y10524D01*
Y10505D01*
X13596Y10493D01*
X13600Y10486D01*
X13607Y10478D01*
X13615Y10474D01*
X13630D01*
X13638Y10478D01*
X13645Y10486D01*
X13649Y10493D01*
X13729Y10535D02*
X13725Y10543D01*
X13717Y10550D01*
X13710Y10554D01*
X13694D01*
X13687Y10550D01*
X13679Y10543D01*
X13675Y10535D01*
X13672Y10524D01*
Y10505D01*
X13675Y10493D01*
X13679Y10486D01*
X13687Y10478D01*
X13694Y10474D01*
X13710D01*
X13717Y10478D01*
X13725Y10486D01*
X13729Y10493D01*
X13751Y10554D02*
Y10474D01*
Y10554D02*
X13778D01*
X13789Y10550D01*
X13797Y10543D01*
X13801Y10535D01*
X13805Y10524D01*
Y10505D01*
X13801Y10493D01*
X13797Y10486D01*
X13789Y10478D01*
X13778Y10474D01*
X13751D01*
X13946D02*
X13916Y10554D01*
X13885Y10474D01*
X13897Y10501D02*
X13935D01*
X13965Y10554D02*
Y10474D01*
Y10554D02*
X13992D01*
X14003Y10550D01*
X14011Y10543D01*
X14014Y10535D01*
X14018Y10524D01*
Y10505D01*
X14014Y10493D01*
X14011Y10486D01*
X14003Y10478D01*
X13992Y10474D01*
X13965D01*
X14097D02*
X14067Y10554D01*
X14036Y10474D01*
X14048Y10501D02*
X14086D01*
X14116Y10512D02*
X14150D01*
X14161Y10516D01*
X14165Y10520D01*
X14169Y10527D01*
Y10539D01*
X14165Y10546D01*
X14161Y10550D01*
X14150Y10554D01*
X14116D01*
Y10474D01*
X14214Y10554D02*
Y10474D01*
X14187Y10554D02*
X14240D01*
X14299D02*
X14250D01*
Y10474D01*
X14299D01*
X14250Y10516D02*
X14280D01*
X14313Y10554D02*
Y10474D01*
Y10554D02*
X14347D01*
X14358Y10550D01*
X14362Y10546D01*
X14366Y10539D01*
Y10531D01*
X14362Y10524D01*
X14358Y10520D01*
X14347Y10516D01*
X14313D01*
X14339D02*
X14366Y10474D01*
D19*
X13432Y11873D02*
D03*
D20*
X13531D02*
D03*
X13632D02*
D03*
X13731D02*
D03*
X13832D02*
D03*
X13932D02*
D03*
X14031D02*
D03*
X14132D02*
D03*
X14231D02*
D03*
X14332D02*
D03*
X14432D02*
D03*
X14531D02*
D03*
X14632D02*
D03*
X14731D02*
D03*
X14832D02*
D03*
Y11972D02*
D03*
Y12073D02*
D03*
Y12172D02*
D03*
Y12273D02*
D03*
Y12373D02*
D03*
Y12472D02*
D03*
Y12573D02*
D03*
Y12672D02*
D03*
Y12773D02*
D03*
Y12873D02*
D03*
Y12972D02*
D03*
Y13073D02*
D03*
Y13172D02*
D03*
Y13273D02*
D03*
X14731D02*
D03*
X14632D02*
D03*
X14531D02*
D03*
X14432D02*
D03*
X14332D02*
D03*
X14231D02*
D03*
X14132D02*
D03*
X14031D02*
D03*
X13932D02*
D03*
X13832D02*
D03*
X13731D02*
D03*
X13632D02*
D03*
X13531D02*
D03*
X13432D02*
D03*
Y13172D02*
D03*
Y13073D02*
D03*
Y12972D02*
D03*
Y12873D02*
D03*
Y12773D02*
D03*
Y12672D02*
D03*
Y12573D02*
D03*
Y12472D02*
D03*
Y12373D02*
D03*
Y12273D02*
D03*
Y12172D02*
D03*
Y12073D02*
D03*
Y11972D02*
D03*
D21*
X14781Y13573D02*
D03*
X13481D02*
D03*
X13531Y13523D02*
D03*
X13582Y13573D02*
D03*
X13632Y13523D02*
D03*
X13682Y13573D02*
D03*
X13731Y13523D02*
D03*
X13781Y13573D02*
D03*
X13832Y13523D02*
D03*
X13882Y13573D02*
D03*
X13932Y13523D02*
D03*
X13981Y13573D02*
D03*
X14031Y13523D02*
D03*
X14082Y13573D02*
D03*
X14132Y13523D02*
D03*
X14182Y13573D02*
D03*
X14231Y13523D02*
D03*
X14281Y13573D02*
D03*
X14332Y13523D02*
D03*
X14382Y13573D02*
D03*
X14432Y13523D02*
D03*
X14481Y13573D02*
D03*
X14531Y13523D02*
D03*
X14582Y13573D02*
D03*
X14632Y13523D02*
D03*
X14682Y13573D02*
D03*
X14731Y13523D02*
D03*
D22*
X14613Y11722D02*
D03*
M02*
