%FSLAX23Y23*%
%MOIN*%
G70*
G01*
G75*
G04 Layer_Color=128*
%ADD10R,0.050X0.050*%
%ADD11R,0.050X0.050*%
%ADD12C,0.006*%
%ADD13C,0.012*%
%ADD14C,0.008*%
%ADD15C,0.010*%
%ADD16C,0.012*%
%ADD17C,0.012*%
%ADD18R,0.075X0.075*%
%ADD19C,0.075*%
%ADD20O,0.024X0.050*%
%ADD21C,0.050*%
%ADD22C,0.040*%
%ADD23C,0.086*%
G04:AMPARAMS|DCode=24|XSize=106mil|YSize=106mil|CornerRadius=0mil|HoleSize=0mil|Usage=FLASHONLY|Rotation=0.000|XOffset=0mil|YOffset=0mil|HoleType=Round|Shape=Relief|Width=10mil|Gap=10mil|Entries=4|*
%AMTHD24*
7,0,0,0.106,0.086,0.010,45*
%
%ADD24THD24*%
%ADD25C,0.054*%
G04:AMPARAMS|DCode=26|XSize=74mil|YSize=74mil|CornerRadius=0mil|HoleSize=0mil|Usage=FLASHONLY|Rotation=0.000|XOffset=0mil|YOffset=0mil|HoleType=Round|Shape=Relief|Width=10mil|Gap=10mil|Entries=4|*
%AMTHD26*
7,0,0,0.074,0.054,0.010,45*
%
%ADD26THD26*%
G04:AMPARAMS|DCode=27|XSize=85mil|YSize=85mil|CornerRadius=0mil|HoleSize=0mil|Usage=FLASHONLY|Rotation=0.000|XOffset=0mil|YOffset=0mil|HoleType=Round|Shape=Relief|Width=10mil|Gap=10mil|Entries=4|*
%AMTHD27*
7,0,0,0.085,0.065,0.010,45*
%
%ADD27THD27*%
%ADD28C,0.010*%
%ADD29C,0.015*%
%ADD30C,0.005*%
D14*
X15901Y13847D02*
X15911D01*
Y13842D02*
Y13852D01*
X15901D02*
X15911D01*
X15901Y13842D02*
Y13852D01*
Y13842D02*
X15911D01*
X15917D02*
Y13858D01*
X15896D02*
X15917D01*
X15896Y13837D02*
Y13858D01*
Y13837D02*
X15917D01*
X15922D02*
Y13863D01*
X15892D02*
X15922D01*
X15892Y13833D02*
Y13863D01*
Y13833D02*
X15922D01*
X15927Y13828D02*
Y13868D01*
X15887D02*
X15927D01*
X15887Y13828D02*
Y13868D01*
Y13828D02*
X15927D01*
X15851Y13898D02*
X15861D01*
Y13892D02*
Y13903D01*
X15851D02*
X15861D01*
X15851Y13892D02*
Y13903D01*
Y13892D02*
X15861D01*
X15866D02*
Y13908D01*
X15847D02*
X15866D01*
X15847Y13887D02*
Y13908D01*
Y13887D02*
X15866D01*
X15872D02*
Y13913D01*
X15842D02*
X15872D01*
X15842Y13882D02*
Y13913D01*
Y13882D02*
X15872D01*
X15877Y13877D02*
Y13917D01*
X15837D02*
X15877D01*
X15837Y13877D02*
Y13917D01*
Y13877D02*
X15877D01*
X15832Y13922D02*
X15882D01*
X15832Y13873D02*
Y13922D01*
X15882Y13823D02*
X15932D01*
Y13873D01*
X15882Y13623D02*
Y14123D01*
X15632Y13873D02*
X16132D01*
X12201Y10898D02*
X12212D01*
Y10892D02*
Y10903D01*
X12201D02*
X12212D01*
X12201Y10892D02*
Y10903D01*
Y10892D02*
X12212D01*
X12217D02*
Y10908D01*
X12196D02*
X12217D01*
X12196Y10887D02*
Y10908D01*
Y10887D02*
X12217D01*
X12222D02*
Y10913D01*
X12191D02*
X12222D01*
X12191Y10882D02*
Y10913D01*
Y10882D02*
X12222D01*
X12226Y10877D02*
Y10917D01*
X12186D02*
X12226D01*
X12186Y10877D02*
Y10917D01*
Y10877D02*
X12226D01*
X12151Y10948D02*
X12161D01*
Y10943D02*
Y10953D01*
X12151D02*
X12161D01*
X12151Y10943D02*
Y10953D01*
Y10943D02*
X12161D01*
X12167D02*
Y10958D01*
X12146D02*
X12167D01*
X12146Y10938D02*
Y10958D01*
Y10938D02*
X12167D01*
X12172D02*
Y10962D01*
X12142D02*
X12172D01*
X12142Y10932D02*
Y10962D01*
Y10932D02*
X12172D01*
X12177Y10927D02*
Y10967D01*
X12137D02*
X12177D01*
X12137Y10927D02*
Y10967D01*
Y10927D02*
X12177D01*
X12132Y10972D02*
X12182D01*
X12132Y10922D02*
Y10972D01*
X12182Y10873D02*
X12231D01*
Y10922D01*
X12182Y10672D02*
Y11172D01*
X11932Y10922D02*
X12432D01*
X12201Y13898D02*
X12212D01*
Y13892D02*
Y13903D01*
X12201D02*
X12212D01*
X12201Y13892D02*
Y13903D01*
Y13892D02*
X12212D01*
X12217D02*
Y13908D01*
X12196D02*
X12217D01*
X12196Y13887D02*
Y13908D01*
Y13887D02*
X12217D01*
X12222D02*
Y13913D01*
X12191D02*
X12222D01*
X12191Y13882D02*
Y13913D01*
Y13882D02*
X12222D01*
X12226Y13877D02*
Y13917D01*
X12186D02*
X12226D01*
X12186Y13877D02*
Y13917D01*
Y13877D02*
X12226D01*
X12151Y13948D02*
X12161D01*
Y13943D02*
Y13953D01*
X12151D02*
X12161D01*
X12151Y13943D02*
Y13953D01*
Y13943D02*
X12161D01*
X12167D02*
Y13958D01*
X12146D02*
X12167D01*
X12146Y13938D02*
Y13958D01*
Y13938D02*
X12167D01*
X12172D02*
Y13962D01*
X12142D02*
X12172D01*
X12142Y13932D02*
Y13962D01*
Y13932D02*
X12172D01*
X12177Y13927D02*
Y13967D01*
X12137D02*
X12177D01*
X12137Y13927D02*
Y13967D01*
Y13927D02*
X12177D01*
X12132Y13972D02*
X12182D01*
X12132Y13922D02*
Y13972D01*
X12182Y13873D02*
X12231D01*
Y13922D01*
X12182Y13672D02*
Y14172D01*
X11932Y13922D02*
X12432D01*
D15*
X13582Y12023D02*
Y13123D01*
X14682D01*
Y12023D02*
Y13123D01*
X13582Y12023D02*
X14682D01*
X13231Y11672D02*
Y13672D01*
X15031D01*
Y11672D02*
Y13672D01*
X14832Y11672D02*
X15031D01*
X13231D02*
X14832D01*
D16*
X13176Y8036D02*
Y7990D01*
X13157Y8025D02*
X13195Y8002D01*
Y8025D02*
X13157Y8002D01*
X13215Y7964D02*
X13211Y7960D01*
X13215Y7956D01*
X13219Y7960D01*
X13215Y7964D01*
X13293Y8017D02*
X13290Y8025D01*
X13282Y8032D01*
X13274Y8036D01*
X13259D01*
X13252Y8032D01*
X13244Y8025D01*
X13240Y8017D01*
X13236Y8006D01*
Y7987D01*
X13240Y7975D01*
X13244Y7968D01*
X13252Y7960D01*
X13259Y7956D01*
X13274D01*
X13282Y7960D01*
X13290Y7968D01*
X13293Y7975D01*
Y7987D01*
X13274D02*
X13293D01*
X13312Y8036D02*
Y7956D01*
Y8036D02*
X13346D01*
X13357Y8032D01*
X13361Y8029D01*
X13365Y8021D01*
Y8013D01*
X13361Y8006D01*
X13357Y8002D01*
X13346Y7998D01*
X13312D02*
X13346D01*
X13357Y7994D01*
X13361Y7990D01*
X13365Y7983D01*
Y7971D01*
X13361Y7964D01*
X13357Y7960D01*
X13346Y7956D01*
X13312D01*
X13383Y7994D02*
X13417D01*
X13429Y7998D01*
X13432Y8002D01*
X13436Y8010D01*
Y8021D01*
X13432Y8029D01*
X13429Y8032D01*
X13417Y8036D01*
X13383D01*
Y7956D01*
X13517Y7990D02*
X13586D01*
X13672Y8036D02*
Y7956D01*
Y8036D02*
X13706D01*
X13718Y8032D01*
X13721Y8029D01*
X13725Y8021D01*
Y8013D01*
X13721Y8006D01*
X13718Y8002D01*
X13706Y7998D01*
X13672D02*
X13706D01*
X13718Y7994D01*
X13721Y7990D01*
X13725Y7983D01*
Y7971D01*
X13721Y7964D01*
X13718Y7960D01*
X13706Y7956D01*
X13672D01*
X13766Y8036D02*
X13758Y8032D01*
X13751Y8025D01*
X13747Y8017D01*
X13743Y8006D01*
Y7987D01*
X13747Y7975D01*
X13751Y7968D01*
X13758Y7960D01*
X13766Y7956D01*
X13781D01*
X13789Y7960D01*
X13797Y7968D01*
X13800Y7975D01*
X13804Y7987D01*
Y8006D01*
X13800Y8017D01*
X13797Y8025D01*
X13789Y8032D01*
X13781Y8036D01*
X13766D01*
X13849D02*
Y7956D01*
X13823Y8036D02*
X13876D01*
X13912D02*
Y7956D01*
X13886Y8036D02*
X13939D01*
X13971D02*
X13964Y8032D01*
X13956Y8025D01*
X13952Y8017D01*
X13948Y8006D01*
Y7987D01*
X13952Y7975D01*
X13956Y7968D01*
X13964Y7960D01*
X13971Y7956D01*
X13987D01*
X13994Y7960D01*
X14002Y7968D01*
X14006Y7975D01*
X14009Y7987D01*
Y8006D01*
X14006Y8017D01*
X14002Y8025D01*
X13994Y8032D01*
X13987Y8036D01*
X13971D01*
X14028D02*
Y7956D01*
Y8036D02*
X14059Y7956D01*
X14089Y8036D02*
X14059Y7956D01*
X14089Y8036D02*
Y7956D01*
X14112Y7990D02*
X14180D01*
X14257Y8025D02*
X14250Y8032D01*
X14238Y8036D01*
X14223D01*
X14212Y8032D01*
X14204Y8025D01*
Y8017D01*
X14208Y8010D01*
X14212Y8006D01*
X14219Y8002D01*
X14242Y7994D01*
X14250Y7990D01*
X14254Y7987D01*
X14257Y7979D01*
Y7968D01*
X14250Y7960D01*
X14238Y7956D01*
X14223D01*
X14212Y7960D01*
X14204Y7968D01*
X14275Y8036D02*
Y7956D01*
X14292Y8036D02*
Y7956D01*
Y8036D02*
X14319D01*
X14330Y8032D01*
X14338Y8025D01*
X14342Y8017D01*
X14345Y8006D01*
Y7987D01*
X14342Y7975D01*
X14338Y7968D01*
X14330Y7960D01*
X14319Y7956D01*
X14292D01*
X14413Y8036D02*
X14363D01*
Y7956D01*
X14413D01*
X14363Y7998D02*
X14394D01*
X14542Y8025D02*
X14535Y8032D01*
X14523Y8036D01*
X14508D01*
X14497Y8032D01*
X14489Y8025D01*
Y8017D01*
X14493Y8010D01*
X14497Y8006D01*
X14504Y8002D01*
X14527Y7994D01*
X14535Y7990D01*
X14538Y7987D01*
X14542Y7979D01*
Y7968D01*
X14535Y7960D01*
X14523Y7956D01*
X14508D01*
X14497Y7960D01*
X14489Y7968D01*
X14583Y8036D02*
X14575Y8032D01*
X14568Y8025D01*
X14564Y8017D01*
X14560Y8006D01*
Y7987D01*
X14564Y7975D01*
X14568Y7968D01*
X14575Y7960D01*
X14583Y7956D01*
X14598D01*
X14606Y7960D01*
X14613Y7968D01*
X14617Y7975D01*
X14621Y7987D01*
Y8006D01*
X14617Y8017D01*
X14613Y8025D01*
X14606Y8032D01*
X14598Y8036D01*
X14583D01*
X14640D02*
Y7956D01*
X14685D01*
X14694Y8036D02*
Y7956D01*
Y8036D02*
X14721D01*
X14732Y8032D01*
X14740Y8025D01*
X14744Y8017D01*
X14748Y8006D01*
Y7987D01*
X14744Y7975D01*
X14740Y7968D01*
X14732Y7960D01*
X14721Y7956D01*
X14694D01*
X14815Y8036D02*
X14765D01*
Y7956D01*
X14815D01*
X14765Y7998D02*
X14796D01*
X14828Y8036D02*
Y7956D01*
Y8036D02*
X14863D01*
X14874Y8032D01*
X14878Y8029D01*
X14882Y8021D01*
Y8013D01*
X14878Y8006D01*
X14874Y8002D01*
X14863Y7998D01*
X14828D01*
X14855D02*
X14882Y7956D01*
X14962Y7994D02*
X14997D01*
X15008Y7998D01*
X15012Y8002D01*
X15016Y8010D01*
Y8021D01*
X15012Y8029D01*
X15008Y8032D01*
X14997Y8036D01*
X14962D01*
Y7956D01*
X15095D02*
X15064Y8036D01*
X15034Y7956D01*
X15045Y7983D02*
X15083D01*
X15167Y8025D02*
X15159Y8032D01*
X15147Y8036D01*
X15132D01*
X15121Y8032D01*
X15113Y8025D01*
Y8017D01*
X15117Y8010D01*
X15121Y8006D01*
X15128Y8002D01*
X15151Y7994D01*
X15159Y7990D01*
X15163Y7987D01*
X15167Y7979D01*
Y7968D01*
X15159Y7960D01*
X15147Y7956D01*
X15132D01*
X15121Y7960D01*
X15113Y7968D01*
X15211Y8036D02*
Y7956D01*
X15184Y8036D02*
X15238D01*
X15297D02*
X15247D01*
Y7956D01*
X15297D01*
X15247Y7998D02*
X15278D01*
X15373Y8036D02*
Y7956D01*
Y8036D02*
X15403Y7956D01*
X15434Y8036D02*
X15403Y7956D01*
X15434Y8036D02*
Y7956D01*
X15518D02*
X15487Y8036D01*
X15457Y7956D01*
X15468Y7983D02*
X15506D01*
X15590Y8025D02*
X15582Y8032D01*
X15571Y8036D01*
X15555D01*
X15544Y8032D01*
X15536Y8025D01*
Y8017D01*
X15540Y8010D01*
X15544Y8006D01*
X15552Y8002D01*
X15574Y7994D01*
X15582Y7990D01*
X15586Y7987D01*
X15590Y7979D01*
Y7968D01*
X15582Y7960D01*
X15571Y7956D01*
X15555D01*
X15544Y7960D01*
X15536Y7968D01*
X15608Y8036D02*
Y7956D01*
X15661Y8036D02*
X15608Y7983D01*
X15627Y8002D02*
X15661Y7956D01*
X15768Y8051D02*
X15761Y8044D01*
X15753Y8032D01*
X15745Y8017D01*
X15742Y7998D01*
Y7983D01*
X15745Y7964D01*
X15753Y7949D01*
X15761Y7937D01*
X15768Y7930D01*
X15761Y8044D02*
X15753Y8029D01*
X15749Y8017D01*
X15745Y7998D01*
Y7983D01*
X15749Y7964D01*
X15753Y7952D01*
X15761Y7937D01*
X15784Y8036D02*
Y7956D01*
Y8036D02*
X15837Y7956D01*
Y8036D02*
Y7956D01*
X15882Y8036D02*
X15874Y8032D01*
X15867Y8025D01*
X15863Y8017D01*
X15859Y8006D01*
Y7987D01*
X15863Y7975D01*
X15867Y7968D01*
X15874Y7960D01*
X15882Y7956D01*
X15897D01*
X15905Y7960D01*
X15912Y7968D01*
X15916Y7975D01*
X15920Y7987D01*
Y8006D01*
X15916Y8017D01*
X15912Y8025D01*
X15905Y8032D01*
X15897Y8036D01*
X15882D01*
X15965D02*
Y7956D01*
X15939Y8036D02*
X15992D01*
X16064D02*
Y7979D01*
X16068Y7968D01*
X16076Y7960D01*
X16087Y7956D01*
X16095D01*
X16106Y7960D01*
X16114Y7968D01*
X16118Y7979D01*
Y8036D01*
X16193Y8025D02*
X16185Y8032D01*
X16174Y8036D01*
X16159D01*
X16147Y8032D01*
X16140Y8025D01*
Y8017D01*
X16143Y8010D01*
X16147Y8006D01*
X16155Y8002D01*
X16178Y7994D01*
X16185Y7990D01*
X16189Y7987D01*
X16193Y7979D01*
Y7968D01*
X16185Y7960D01*
X16174Y7956D01*
X16159D01*
X16147Y7960D01*
X16140Y7968D01*
X16260Y8036D02*
X16211D01*
Y7956D01*
X16260D01*
X16211Y7998D02*
X16241D01*
X16274Y8036D02*
Y7956D01*
Y8036D02*
X16300D01*
X16312Y8032D01*
X16319Y8025D01*
X16323Y8017D01*
X16327Y8006D01*
Y7987D01*
X16323Y7975D01*
X16319Y7968D01*
X16312Y7960D01*
X16300Y7956D01*
X16274D01*
X16434Y8036D02*
Y7956D01*
X16408Y8036D02*
X16461D01*
X16471D02*
Y7956D01*
X16524Y8036D02*
Y7956D01*
X16471Y7998D02*
X16524D01*
X16546Y8036D02*
Y7956D01*
X16616Y8025D02*
X16608Y8032D01*
X16597Y8036D01*
X16582D01*
X16570Y8032D01*
X16563Y8025D01*
Y8017D01*
X16567Y8010D01*
X16570Y8006D01*
X16578Y8002D01*
X16601Y7994D01*
X16608Y7990D01*
X16612Y7987D01*
X16616Y7979D01*
Y7968D01*
X16608Y7960D01*
X16597Y7956D01*
X16582D01*
X16570Y7960D01*
X16563Y7968D01*
X16697Y8036D02*
Y7956D01*
Y8036D02*
X16731D01*
X16743Y8032D01*
X16746Y8029D01*
X16750Y8021D01*
Y8013D01*
X16746Y8006D01*
X16743Y8002D01*
X16731Y7998D01*
X16697D02*
X16731D01*
X16743Y7994D01*
X16746Y7990D01*
X16750Y7983D01*
Y7971D01*
X16746Y7964D01*
X16743Y7960D01*
X16731Y7956D01*
X16697D01*
X16768Y8036D02*
Y7979D01*
X16772Y7968D01*
X16780Y7960D01*
X16791Y7956D01*
X16799D01*
X16810Y7960D01*
X16818Y7968D01*
X16821Y7979D01*
Y8036D01*
X16843D02*
Y7956D01*
X16860Y8036D02*
Y7956D01*
X16906D01*
X16915Y8036D02*
Y7956D01*
Y8036D02*
X16941D01*
X16953Y8032D01*
X16960Y8025D01*
X16964Y8017D01*
X16968Y8006D01*
Y7987D01*
X16964Y7975D01*
X16960Y7968D01*
X16953Y7960D01*
X16941Y7956D01*
X16915D01*
X16986Y8051D02*
X16994Y8044D01*
X17001Y8032D01*
X17009Y8017D01*
X17013Y7998D01*
Y7983D01*
X17009Y7964D01*
X17001Y7949D01*
X16994Y7937D01*
X16986Y7930D01*
X16994Y8044D02*
X17001Y8029D01*
X17005Y8017D01*
X17009Y7998D01*
Y7983D01*
X17005Y7964D01*
X17001Y7952D01*
X16994Y7937D01*
X13369Y10543D02*
X13361Y10550D01*
X13350Y10554D01*
X13335D01*
X13323Y10550D01*
X13316Y10543D01*
Y10535D01*
X13319Y10527D01*
X13323Y10524D01*
X13331Y10520D01*
X13354Y10512D01*
X13361Y10508D01*
X13365Y10505D01*
X13369Y10497D01*
Y10486D01*
X13361Y10478D01*
X13350Y10474D01*
X13335D01*
X13323Y10478D01*
X13316Y10486D01*
X13387Y10554D02*
Y10474D01*
X13430Y10554D02*
Y10474D01*
X13404Y10554D02*
X13457D01*
X13516D02*
X13466D01*
Y10474D01*
X13516D01*
X13466Y10516D02*
X13497D01*
X13649Y10535D02*
X13645Y10543D01*
X13638Y10550D01*
X13630Y10554D01*
X13615D01*
X13607Y10550D01*
X13600Y10543D01*
X13596Y10535D01*
X13592Y10524D01*
Y10505D01*
X13596Y10493D01*
X13600Y10486D01*
X13607Y10478D01*
X13615Y10474D01*
X13630D01*
X13638Y10478D01*
X13645Y10486D01*
X13649Y10493D01*
X13729Y10535D02*
X13725Y10543D01*
X13717Y10550D01*
X13710Y10554D01*
X13694D01*
X13687Y10550D01*
X13679Y10543D01*
X13675Y10535D01*
X13672Y10524D01*
Y10505D01*
X13675Y10493D01*
X13679Y10486D01*
X13687Y10478D01*
X13694Y10474D01*
X13710D01*
X13717Y10478D01*
X13725Y10486D01*
X13729Y10493D01*
X13751Y10554D02*
Y10474D01*
Y10554D02*
X13778D01*
X13789Y10550D01*
X13797Y10543D01*
X13801Y10535D01*
X13805Y10524D01*
Y10505D01*
X13801Y10493D01*
X13797Y10486D01*
X13789Y10478D01*
X13778Y10474D01*
X13751D01*
X13946D02*
X13916Y10554D01*
X13885Y10474D01*
X13897Y10501D02*
X13935D01*
X13965Y10554D02*
Y10474D01*
Y10554D02*
X13992D01*
X14003Y10550D01*
X14011Y10543D01*
X14014Y10535D01*
X14018Y10524D01*
Y10505D01*
X14014Y10493D01*
X14011Y10486D01*
X14003Y10478D01*
X13992Y10474D01*
X13965D01*
X14097D02*
X14067Y10554D01*
X14036Y10474D01*
X14048Y10501D02*
X14086D01*
X14116Y10512D02*
X14150D01*
X14161Y10516D01*
X14165Y10520D01*
X14169Y10527D01*
Y10539D01*
X14165Y10546D01*
X14161Y10550D01*
X14150Y10554D01*
X14116D01*
Y10474D01*
X14214Y10554D02*
Y10474D01*
X14187Y10554D02*
X14240D01*
X14299D02*
X14250D01*
Y10474D01*
X14299D01*
X14250Y10516D02*
X14280D01*
X14313Y10554D02*
Y10474D01*
Y10554D02*
X14347D01*
X14358Y10550D01*
X14362Y10546D01*
X14366Y10539D01*
Y10531D01*
X14362Y10524D01*
X14358Y10520D01*
X14347Y10516D01*
X14313D01*
X14339D02*
X14366Y10474D01*
D17*
X13316Y10404D02*
Y10324D01*
X13361D01*
X13431D02*
X13400Y10404D01*
X13370Y10324D01*
X13381Y10351D02*
X13420D01*
X13503Y10393D02*
X13495Y10400D01*
X13484Y10404D01*
X13469D01*
X13457Y10400D01*
X13450Y10393D01*
Y10385D01*
X13453Y10377D01*
X13457Y10374D01*
X13465Y10370D01*
X13488Y10362D01*
X13495Y10358D01*
X13499Y10355D01*
X13503Y10347D01*
Y10335D01*
X13495Y10328D01*
X13484Y10324D01*
X13469D01*
X13457Y10328D01*
X13450Y10335D01*
X13641Y10385D02*
X13637Y10393D01*
X13629Y10400D01*
X13622Y10404D01*
X13607D01*
X13599Y10400D01*
X13591Y10393D01*
X13587Y10385D01*
X13584Y10374D01*
Y10355D01*
X13587Y10343D01*
X13591Y10335D01*
X13599Y10328D01*
X13607Y10324D01*
X13622D01*
X13629Y10328D01*
X13637Y10335D01*
X13641Y10343D01*
X13663Y10404D02*
Y10347D01*
X13667Y10335D01*
X13675Y10328D01*
X13686Y10324D01*
X13694D01*
X13705Y10328D01*
X13713Y10335D01*
X13717Y10347D01*
Y10404D01*
X13739D02*
Y10324D01*
Y10404D02*
X13769Y10324D01*
X13800Y10404D02*
X13769Y10324D01*
X13800Y10404D02*
Y10324D01*
X13822Y10404D02*
Y10324D01*
Y10404D02*
X13857D01*
X13868Y10400D01*
X13872Y10396D01*
X13876Y10389D01*
Y10381D01*
X13872Y10374D01*
X13868Y10370D01*
X13857Y10366D01*
X13822D02*
X13857D01*
X13868Y10362D01*
X13872Y10358D01*
X13876Y10351D01*
Y10339D01*
X13872Y10332D01*
X13868Y10328D01*
X13857Y10324D01*
X13822D01*
X13894Y10404D02*
Y10324D01*
Y10404D02*
X13928D01*
X13939Y10400D01*
X13943Y10396D01*
X13947Y10389D01*
Y10381D01*
X13943Y10374D01*
X13939Y10370D01*
X13928Y10366D01*
X13894D01*
X13920D02*
X13947Y10324D01*
X14014Y10404D02*
X13965D01*
Y10324D01*
X14014D01*
X13965Y10366D02*
X13995D01*
X14081Y10393D02*
X14073Y10400D01*
X14062Y10404D01*
X14047D01*
X14035Y10400D01*
X14028Y10393D01*
Y10385D01*
X14032Y10377D01*
X14035Y10374D01*
X14043Y10370D01*
X14066Y10362D01*
X14073Y10358D01*
X14077Y10355D01*
X14081Y10347D01*
Y10335D01*
X14073Y10328D01*
X14062Y10324D01*
X14047D01*
X14035Y10328D01*
X14028Y10335D01*
X14185Y10404D02*
X14177Y10400D01*
X14169Y10393D01*
X14166Y10385D01*
X14162Y10374D01*
Y10355D01*
X14166Y10343D01*
X14169Y10335D01*
X14177Y10328D01*
X14185Y10324D01*
X14200D01*
X14208Y10328D01*
X14215Y10335D01*
X14219Y10343D01*
X14223Y10355D01*
Y10374D01*
X14219Y10385D01*
X14215Y10393D01*
X14208Y10400D01*
X14200Y10404D01*
X14185D01*
X14241D02*
Y10324D01*
Y10404D02*
X14276D01*
X14287Y10400D01*
X14291Y10396D01*
X14295Y10389D01*
Y10381D01*
X14291Y10374D01*
X14287Y10370D01*
X14276Y10366D01*
X14241D02*
X14276D01*
X14287Y10362D01*
X14291Y10358D01*
X14295Y10351D01*
Y10339D01*
X14291Y10332D01*
X14287Y10328D01*
X14276Y10324D01*
X14241D01*
X14366Y10393D02*
X14358Y10400D01*
X14347Y10404D01*
X14332D01*
X14320Y10400D01*
X14313Y10393D01*
Y10385D01*
X14316Y10377D01*
X14320Y10374D01*
X14328Y10370D01*
X14351Y10362D01*
X14358Y10358D01*
X14362Y10355D01*
X14366Y10347D01*
Y10335D01*
X14358Y10328D01*
X14347Y10324D01*
X14332D01*
X14320Y10328D01*
X14313Y10335D01*
X14433Y10404D02*
X14384D01*
Y10324D01*
X14433D01*
X14384Y10366D02*
X14414D01*
X14447Y10404D02*
Y10324D01*
Y10404D02*
X14481D01*
X14492Y10400D01*
X14496Y10396D01*
X14500Y10389D01*
Y10381D01*
X14496Y10374D01*
X14492Y10370D01*
X14481Y10366D01*
X14447D01*
X14473D02*
X14500Y10324D01*
X14518Y10404D02*
X14548Y10324D01*
X14579Y10404D02*
X14548Y10324D01*
X14650D02*
X14620Y10404D01*
X14589Y10324D01*
X14601Y10351D02*
X14639D01*
X14695Y10404D02*
Y10324D01*
X14669Y10404D02*
X14722D01*
X14754D02*
X14747Y10400D01*
X14739Y10393D01*
X14735Y10385D01*
X14732Y10374D01*
Y10355D01*
X14735Y10343D01*
X14739Y10335D01*
X14747Y10328D01*
X14754Y10324D01*
X14770D01*
X14777Y10328D01*
X14785Y10335D01*
X14789Y10343D01*
X14793Y10355D01*
Y10374D01*
X14789Y10385D01*
X14785Y10393D01*
X14777Y10400D01*
X14770Y10404D01*
X14754D01*
X14811D02*
Y10324D01*
Y10404D02*
X14845D01*
X14857Y10400D01*
X14861Y10396D01*
X14865Y10389D01*
Y10381D01*
X14861Y10374D01*
X14857Y10370D01*
X14845Y10366D01*
X14811D01*
X14838D02*
X14865Y10324D01*
X14882Y10404D02*
X14913Y10366D01*
Y10324D01*
X14943Y10404D02*
X14913Y10366D01*
X15314Y10404D02*
X15275D01*
X15272Y10370D01*
X15275Y10374D01*
X15287Y10377D01*
X15298D01*
X15310Y10374D01*
X15317Y10366D01*
X15321Y10355D01*
Y10347D01*
X15317Y10335D01*
X15310Y10328D01*
X15298Y10324D01*
X15287D01*
X15275Y10328D01*
X15272Y10332D01*
X15268Y10339D01*
X15339Y10313D02*
X15392Y10404D01*
X15398Y10389D02*
X15405Y10393D01*
X15417Y10404D01*
Y10324D01*
X15475Y10404D02*
X15464Y10400D01*
X15460Y10393D01*
Y10385D01*
X15464Y10377D01*
X15472Y10374D01*
X15487Y10370D01*
X15498Y10366D01*
X15506Y10358D01*
X15510Y10351D01*
Y10339D01*
X15506Y10332D01*
X15502Y10328D01*
X15491Y10324D01*
X15475D01*
X15464Y10328D01*
X15460Y10332D01*
X15456Y10339D01*
Y10351D01*
X15460Y10358D01*
X15468Y10366D01*
X15479Y10370D01*
X15494Y10374D01*
X15502Y10377D01*
X15506Y10385D01*
Y10393D01*
X15502Y10400D01*
X15491Y10404D01*
X15475D01*
X15528Y10313D02*
X15581Y10404D01*
X15590Y10385D02*
Y10389D01*
X15594Y10396D01*
X15598Y10400D01*
X15605Y10404D01*
X15621D01*
X15628Y10400D01*
X15632Y10396D01*
X15636Y10389D01*
Y10381D01*
X15632Y10374D01*
X15624Y10362D01*
X15586Y10324D01*
X15640D01*
X15680Y10404D02*
X15669Y10400D01*
X15661Y10389D01*
X15658Y10370D01*
Y10358D01*
X15661Y10339D01*
X15669Y10328D01*
X15680Y10324D01*
X15688D01*
X15699Y10328D01*
X15707Y10339D01*
X15711Y10358D01*
Y10370D01*
X15707Y10389D01*
X15699Y10400D01*
X15688Y10404D01*
X15680D01*
X15752D02*
X15740Y10400D01*
X15733Y10389D01*
X15729Y10370D01*
Y10358D01*
X15733Y10339D01*
X15740Y10328D01*
X15752Y10324D01*
X15759D01*
X15771Y10328D01*
X15778Y10339D01*
X15782Y10358D01*
Y10370D01*
X15778Y10389D01*
X15771Y10400D01*
X15759Y10404D01*
X15752D01*
X15849Y10377D02*
X15846Y10366D01*
X15838Y10358D01*
X15827Y10355D01*
X15823D01*
X15811Y10358D01*
X15804Y10366D01*
X15800Y10377D01*
Y10381D01*
X15804Y10393D01*
X15811Y10400D01*
X15823Y10404D01*
X15827D01*
X15838Y10400D01*
X15846Y10393D01*
X15849Y10377D01*
Y10358D01*
X15846Y10339D01*
X15838Y10328D01*
X15827Y10324D01*
X15819D01*
X15808Y10328D01*
X15804Y10335D01*
M02*
