%FSLAX23Y23*%
%MOIN*%
G70*
G01*
G75*
G04 Layer_Physical_Order=7*
G04 Layer_Color=16711680*
%ADD10R,0.025X0.100*%
%ADD11R,0.057X0.012*%
%ADD12R,0.025X0.185*%
%ADD13R,0.085X0.138*%
%ADD14R,0.085X0.043*%
%ADD15R,0.085X0.043*%
%ADD16R,0.035X0.053*%
%ADD17R,0.053X0.053*%
%ADD18R,0.070X0.135*%
%ADD19R,0.036X0.036*%
%ADD20R,0.098X0.268*%
%ADD21R,0.078X0.048*%
%ADD22R,0.063X0.075*%
%ADD23R,0.050X0.050*%
%ADD24R,0.079X0.209*%
%ADD25R,0.094X0.130*%
%ADD26O,0.028X0.098*%
%ADD27R,0.087X0.059*%
%ADD28O,0.027X0.010*%
%ADD29R,0.065X0.094*%
%ADD30O,0.024X0.010*%
%ADD31R,0.135X0.070*%
%ADD32R,0.050X0.050*%
%ADD33R,0.115X0.050*%
%ADD34R,0.065X0.135*%
%ADD35C,0.008*%
%ADD36C,0.005*%
%ADD37C,0.012*%
%ADD38C,0.010*%
%ADD39C,0.020*%
%ADD40C,0.100*%
%ADD41C,0.030*%
%ADD42C,0.050*%
%ADD43C,0.025*%
%ADD44C,0.012*%
%ADD45C,0.012*%
%ADD46C,0.060*%
%ADD47C,0.039*%
%ADD48C,0.200*%
%ADD49C,0.020*%
%ADD50C,0.059*%
%ADD51R,0.059X0.059*%
%ADD52C,0.063*%
%ADD53C,0.116*%
%ADD54C,0.065*%
%ADD55C,0.100*%
%ADD56R,0.059X0.059*%
%ADD57C,0.059*%
%ADD58C,0.087*%
%ADD59R,0.087X0.087*%
%ADD60C,0.079*%
%ADD61C,0.157*%
%ADD62C,0.026*%
%ADD63C,0.024*%
%ADD64C,0.050*%
%ADD65C,0.040*%
%ADD66C,0.070*%
G04:AMPARAMS|DCode=67|XSize=90mil|YSize=90mil|CornerRadius=0mil|HoleSize=0mil|Usage=FLASHONLY|Rotation=0.000|XOffset=0mil|YOffset=0mil|HoleType=Round|Shape=Relief|Width=10mil|Gap=10mil|Entries=4|*
%AMTHD67*
7,0,0,0.090,0.070,0.010,45*
%
%ADD67THD67*%
%ADD68C,0.080*%
%ADD69C,0.131*%
%ADD70C,0.075*%
%ADD71C,0.168*%
%ADD72C,0.080*%
%ADD73C,0.103*%
%ADD74C,0.075*%
%ADD75C,0.087*%
%ADD76C,0.076*%
%ADD77C,0.131*%
%ADD78C,0.053*%
G04:AMPARAMS|DCode=79|XSize=110mil|YSize=110mil|CornerRadius=0mil|HoleSize=0mil|Usage=FLASHONLY|Rotation=0.000|XOffset=0mil|YOffset=0mil|HoleType=Round|Shape=Relief|Width=10mil|Gap=10mil|Entries=4|*
%AMTHD79*
7,0,0,0.110,0.090,0.010,45*
%
%ADD79THD79*%
G04:AMPARAMS|DCode=80|XSize=70mil|YSize=70mil|CornerRadius=0mil|HoleSize=0mil|Usage=FLASHONLY|Rotation=0.000|XOffset=0mil|YOffset=0mil|HoleType=Round|Shape=Relief|Width=10mil|Gap=10mil|Entries=4|*
%AMTHD80*
7,0,0,0.070,0.050,0.010,45*
%
%ADD80THD80*%
G04:AMPARAMS|DCode=81|XSize=120mil|YSize=120mil|CornerRadius=0mil|HoleSize=0mil|Usage=FLASHONLY|Rotation=0.000|XOffset=0mil|YOffset=0mil|HoleType=Round|Shape=Relief|Width=10mil|Gap=10mil|Entries=4|*
%AMTHD81*
7,0,0,0.120,0.100,0.010,45*
%
%ADD81THD81*%
%ADD82C,0.068*%
G04:AMPARAMS|DCode=83|XSize=100mil|YSize=100mil|CornerRadius=0mil|HoleSize=0mil|Usage=FLASHONLY|Rotation=0.000|XOffset=0mil|YOffset=0mil|HoleType=Round|Shape=Relief|Width=10mil|Gap=10mil|Entries=4|*
%AMTHD83*
7,0,0,0.100,0.080,0.010,45*
%
%ADD83THD83*%
G04:AMPARAMS|DCode=84|XSize=123mil|YSize=123mil|CornerRadius=0mil|HoleSize=0mil|Usage=FLASHONLY|Rotation=0.000|XOffset=0mil|YOffset=0mil|HoleType=Round|Shape=Relief|Width=10mil|Gap=10mil|Entries=4|*
%AMTHD84*
7,0,0,0.123,0.103,0.010,45*
%
%ADD84THD84*%
G04:AMPARAMS|DCode=85|XSize=95.433mil|YSize=95.433mil|CornerRadius=0mil|HoleSize=0mil|Usage=FLASHONLY|Rotation=0.000|XOffset=0mil|YOffset=0mil|HoleType=Round|Shape=Relief|Width=10mil|Gap=10mil|Entries=4|*
%AMTHD85*
7,0,0,0.095,0.075,0.010,45*
%
%ADD85THD85*%
G04:AMPARAMS|DCode=86|XSize=107.244mil|YSize=107.244mil|CornerRadius=0mil|HoleSize=0mil|Usage=FLASHONLY|Rotation=0.000|XOffset=0mil|YOffset=0mil|HoleType=Round|Shape=Relief|Width=10mil|Gap=10mil|Entries=4|*
%AMTHD86*
7,0,0,0.107,0.087,0.010,45*
%
%ADD86THD86*%
G04:AMPARAMS|DCode=87|XSize=96.221mil|YSize=96.221mil|CornerRadius=0mil|HoleSize=0mil|Usage=FLASHONLY|Rotation=0.000|XOffset=0mil|YOffset=0mil|HoleType=Round|Shape=Relief|Width=10mil|Gap=10mil|Entries=4|*
%AMTHD87*
7,0,0,0.096,0.076,0.010,45*
%
%ADD87THD87*%
G04:AMPARAMS|DCode=88|XSize=150.551mil|YSize=150.551mil|CornerRadius=0mil|HoleSize=0mil|Usage=FLASHONLY|Rotation=0.000|XOffset=0mil|YOffset=0mil|HoleType=Round|Shape=Relief|Width=10mil|Gap=10mil|Entries=4|*
%AMTHD88*
7,0,0,0.151,0.131,0.010,45*
%
%ADD88THD88*%
G04:AMPARAMS|DCode=89|XSize=72.992mil|YSize=72.992mil|CornerRadius=0mil|HoleSize=0mil|Usage=FLASHONLY|Rotation=0.000|XOffset=0mil|YOffset=0mil|HoleType=Round|Shape=Relief|Width=10mil|Gap=10mil|Entries=4|*
%AMTHD89*
7,0,0,0.073,0.053,0.010,45*
%
%ADD89THD89*%
%ADD90C,0.090*%
G04:AMPARAMS|DCode=91|XSize=88mil|YSize=88mil|CornerRadius=0mil|HoleSize=0mil|Usage=FLASHONLY|Rotation=0.000|XOffset=0mil|YOffset=0mil|HoleType=Round|Shape=Relief|Width=10mil|Gap=10mil|Entries=4|*
%AMTHD91*
7,0,0,0.088,0.068,0.010,45*
%
%ADD91THD91*%
D23*
X12445Y11034D02*
D03*
X12535D02*
D03*
X12465Y12009D02*
D03*
X12555D02*
D03*
X12461Y12983D02*
D03*
X12551D02*
D03*
X12475Y13959D02*
D03*
X12565D02*
D03*
X12970Y11682D02*
D03*
X12880D02*
D03*
X12662Y11240D02*
D03*
X12752D02*
D03*
X12757Y11328D02*
D03*
X12667D02*
D03*
D32*
X12995Y11837D02*
D03*
Y11747D02*
D03*
X13007Y11125D02*
D03*
Y11215D02*
D03*
D33*
X12318Y11035D02*
D03*
Y10917D02*
D03*
Y10799D02*
D03*
Y13958D02*
D03*
Y13840D02*
D03*
Y13722D02*
D03*
Y12984D02*
D03*
Y12866D02*
D03*
Y12748D02*
D03*
Y12009D02*
D03*
Y11891D02*
D03*
Y11773D02*
D03*
D34*
X12102Y11188D02*
D03*
Y10646D02*
D03*
Y14111D02*
D03*
Y13569D02*
D03*
Y13137D02*
D03*
Y12594D02*
D03*
Y12162D02*
D03*
Y11620D02*
D03*
D35*
X14034Y11142D02*
X14160D01*
X14168Y11133D01*
X14279Y11161D02*
X14361D01*
X14262Y11179D02*
X14279Y11161D01*
X14034Y11105D02*
X14112D01*
X14214Y11133D02*
X14215Y11134D01*
X14168Y11133D02*
X14214D01*
X14361Y11161D02*
X14362Y11160D01*
X14034Y11179D02*
X14262D01*
X13925Y12983D02*
X13950D01*
X13878Y11551D02*
X14260D01*
X15289Y11144D02*
X15329Y11104D01*
X14738Y11144D02*
X15289D01*
X15181Y13030D02*
X16202D01*
X15181Y13029D02*
X15181Y13030D01*
X15144Y13130D02*
X16202D01*
X15143Y13128D02*
X15144Y13130D01*
X15219Y13180D02*
X16049D01*
X15218Y13180D02*
X15219Y13180D01*
X15293Y13790D02*
X16202D01*
X15156Y13652D02*
X15293Y13790D01*
X15065Y13652D02*
X15156D01*
X15300Y13890D02*
X16202D01*
X15121Y13710D02*
X15300Y13890D01*
X15029Y13710D02*
X15121D01*
X15297Y13940D02*
X16049D01*
X15124Y13766D02*
X15297Y13940D01*
X15102Y13766D02*
X15124D01*
X16018Y10840D02*
X16457D01*
X15912Y10946D02*
X16018Y10840D01*
X14764Y10946D02*
X15912D01*
X16532Y10634D02*
X16688D01*
X16349Y10817D02*
X16532Y10634D01*
X15989Y10817D02*
X16349D01*
X14805Y10917D02*
X15889D01*
X15989Y10817D01*
X14919Y14106D02*
X14906D01*
X14912D01*
Y14146D01*
X14919Y14140D01*
X14886Y14146D02*
X14859D01*
Y14140D01*
X14886Y14113D01*
Y14106D01*
X14819Y14146D02*
X14846D01*
Y14126D01*
X14832Y14133D01*
X14826D01*
X14819Y14126D01*
Y14113D01*
X14826Y14106D01*
X14839D01*
X14846Y14113D01*
X14806Y14126D02*
X14779D01*
X14766Y14140D02*
X14759Y14146D01*
X14746D01*
X14739Y14140D01*
Y14113D01*
X14746Y14106D01*
X14759D01*
X14766Y14113D01*
Y14140D01*
X14726D02*
X14719Y14146D01*
X14706D01*
X14699Y14140D01*
Y14113D01*
X14706Y14106D01*
X14719D01*
X14726Y14113D01*
Y14140D01*
X14686D02*
X14679Y14146D01*
X14666D01*
X14659Y14140D01*
Y14113D01*
X14666Y14106D01*
X14679D01*
X14686Y14113D01*
Y14140D01*
X14646Y14106D02*
X14632D01*
X14639D01*
Y14146D01*
X14646Y14140D01*
X14612D02*
X14606Y14146D01*
X14592D01*
X14586Y14140D01*
Y14133D01*
X14592Y14126D01*
X14599D01*
X14592D01*
X14586Y14120D01*
Y14113D01*
X14592Y14106D01*
X14606D01*
X14612Y14113D01*
X14532Y14133D02*
Y14106D01*
Y14120D01*
X14526Y14126D01*
X14519Y14133D01*
X14512D01*
X14473Y14106D02*
X14486D01*
X14493Y14113D01*
Y14126D01*
X14486Y14133D01*
X14473D01*
X14466Y14126D01*
Y14120D01*
X14493D01*
X14453Y14133D02*
X14439Y14106D01*
X14426Y14133D01*
X14413Y14106D02*
X14399D01*
X14406D01*
Y14146D01*
X14413Y14140D01*
X14379Y14106D02*
Y14133D01*
X14366Y14146D01*
X14353Y14133D01*
Y14106D01*
Y14126D01*
X14379D01*
X14929Y14035D02*
Y14075D01*
X14909D01*
X14902Y14069D01*
Y14055D01*
X14909Y14049D01*
X14929D01*
X14862Y14069D02*
X14869Y14075D01*
X14882D01*
X14889Y14069D01*
Y14042D01*
X14882Y14035D01*
X14869D01*
X14862Y14042D01*
X14849Y14075D02*
Y14035D01*
X14829D01*
X14822Y14042D01*
Y14049D01*
X14829Y14055D01*
X14849D01*
X14829D01*
X14822Y14062D01*
Y14069D01*
X14829Y14075D01*
X14849D01*
X14802Y14029D02*
X14796Y14035D01*
Y14042D01*
X14802D01*
Y14035D01*
X14796D01*
X14802Y14029D01*
X14809Y14022D01*
X14729Y14035D02*
X14716D01*
X14722D01*
Y14075D01*
X14729Y14069D01*
X14696Y14035D02*
Y14062D01*
X14689D01*
X14682Y14055D01*
Y14035D01*
Y14055D01*
X14676Y14062D01*
X14669Y14055D01*
Y14035D01*
X14616D02*
Y14075D01*
X14602Y14062D01*
X14589Y14075D01*
Y14035D01*
X14576Y14075D02*
X14562D01*
X14569D01*
Y14035D01*
X14576D01*
X14562D01*
X14542D02*
Y14075D01*
X14522D01*
X14516Y14069D01*
Y14055D01*
X14522Y14049D01*
X14542D01*
X14529D02*
X14516Y14035D01*
X14503D02*
Y14075D01*
X14483D01*
X14476Y14069D01*
Y14055D01*
X14483Y14049D01*
X14503D01*
X14489D02*
X14476Y14035D01*
X14443Y14075D02*
X14456D01*
X14463Y14069D01*
Y14042D01*
X14456Y14035D01*
X14443D01*
X14436Y14042D01*
Y14069D01*
X14443Y14075D01*
X14423Y14035D02*
Y14075D01*
X14403D01*
X14396Y14069D01*
Y14055D01*
X14403Y14049D01*
X14423D01*
X14409D02*
X14396Y14035D01*
X14316Y14069D02*
X14323Y14075D01*
X14336D01*
X14343Y14069D01*
Y14042D01*
X14336Y14035D01*
X14323D01*
X14316Y14042D01*
X14303Y14075D02*
Y14049D01*
X14289Y14035D01*
X14276Y14049D01*
Y14075D01*
X14263Y14035D02*
Y14075D01*
X14243D01*
X14236Y14069D01*
Y14055D01*
X14243Y14049D01*
X14263D01*
X14249D02*
X14236Y14035D01*
X14156Y14069D02*
X14163Y14075D01*
X14176D01*
X14183Y14069D01*
Y14042D01*
X14176Y14035D01*
X14163D01*
X14156Y14042D01*
X14143Y14035D02*
Y14075D01*
X14116Y14035D01*
Y14075D01*
X14103D02*
X14076D01*
X14089D01*
Y14035D01*
X14063Y14075D02*
Y14035D01*
X14036D01*
X14911Y13994D02*
X14931D01*
X14938Y13987D01*
Y13974D01*
X14931Y13967D01*
X14911D01*
X14831D02*
X14858D01*
X14831Y13994D01*
Y14001D01*
X14838Y14007D01*
X14851D01*
X14858Y14001D01*
X14818D02*
X14811Y14007D01*
X14798D01*
X14791Y14001D01*
Y13974D01*
X14798Y13967D01*
X14811D01*
X14818Y13974D01*
Y14001D01*
X14778Y13967D02*
X14765D01*
X14771D01*
Y14007D01*
X14778Y14001D01*
X14745D02*
X14738Y14007D01*
X14725D01*
X14718Y14001D01*
Y13974D01*
X14725Y13967D01*
X14738D01*
X14745Y13974D01*
Y14001D01*
X14665Y14007D02*
Y13967D01*
X14638D01*
X14618Y13994D02*
X14605D01*
X14598Y13987D01*
Y13967D01*
X14618D01*
X14625Y13974D01*
X14618Y13981D01*
X14598D01*
X14585Y13967D02*
X14565D01*
X14558Y13974D01*
X14565Y13981D01*
X14578D01*
X14585Y13987D01*
X14578Y13994D01*
X14558D01*
X14478Y14001D02*
X14485Y14007D01*
X14498D01*
X14505Y14001D01*
Y13974D01*
X14498Y13967D01*
X14485D01*
X14478Y13974D01*
X14465Y13994D02*
Y13974D01*
X14458Y13967D01*
X14438D01*
Y13994D01*
X14425Y13967D02*
Y13994D01*
X14418D01*
X14412Y13987D01*
Y13967D01*
Y13987D01*
X14405Y13994D01*
X14398Y13987D01*
Y13967D01*
X14385Y14007D02*
Y13967D01*
X14365D01*
X14358Y13974D01*
Y13981D01*
Y13987D01*
X14365Y13994D01*
X14385D01*
X14345D02*
Y13967D01*
Y13981D01*
X14338Y13987D01*
X14332Y13994D01*
X14325D01*
X14285Y13967D02*
X14298D01*
X14305Y13974D01*
Y13987D01*
X14298Y13994D01*
X14285D01*
X14278Y13987D01*
Y13981D01*
X14305D01*
X14265Y13967D02*
X14245D01*
X14238Y13974D01*
X14245Y13981D01*
X14258D01*
X14265Y13987D01*
X14258Y13994D01*
X14238D01*
X14165Y14007D02*
X14178D01*
X14185Y14001D01*
Y13974D01*
X14178Y13967D01*
X14165D01*
X14158Y13974D01*
Y14001D01*
X14165Y14007D01*
X14145D02*
Y13967D01*
X14125D01*
X14118Y13974D01*
Y13981D01*
Y13987D01*
X14125Y13994D01*
X14145D01*
X14105Y13967D02*
X14085D01*
X14078Y13974D01*
X14085Y13981D01*
X14098D01*
X14105Y13987D01*
X14098Y13994D01*
X14078D01*
X14045Y13967D02*
X14058D01*
X14065Y13974D01*
Y13987D01*
X14058Y13994D01*
X14045D01*
X14038Y13987D01*
Y13981D01*
X14065D01*
X14025Y13994D02*
Y13967D01*
Y13981D01*
X14018Y13987D01*
X14012Y13994D01*
X14005D01*
X13985D02*
X13972Y13967D01*
X13958Y13994D01*
X13938D02*
X13925D01*
X13918Y13987D01*
Y13967D01*
X13938D01*
X13945Y13974D01*
X13938Y13981D01*
X13918D01*
X13898Y14001D02*
Y13994D01*
X13905D01*
X13892D01*
X13898D01*
Y13974D01*
X13892Y13967D01*
X13865D02*
X13852D01*
X13845Y13974D01*
Y13987D01*
X13852Y13994D01*
X13865D01*
X13872Y13987D01*
Y13974D01*
X13865Y13967D01*
X13832Y13994D02*
Y13967D01*
Y13981D01*
X13825Y13987D01*
X13818Y13994D01*
X13812D01*
X13792D02*
Y13974D01*
X13785Y13967D01*
X13765D01*
Y13961D01*
X13772Y13954D01*
X13778D01*
X13765Y13967D02*
Y13994D01*
X11311Y14643D02*
X11321D01*
X11311Y14638D02*
Y14648D01*
Y14638D02*
X11321D01*
Y14648D01*
X11311D02*
X11321D01*
X11306Y14633D02*
Y14648D01*
Y14633D02*
X11326D01*
Y14653D01*
X11306D02*
X11326D01*
X11301Y14628D02*
Y14653D01*
Y14628D02*
X11331D01*
Y14658D01*
X11301D02*
X11331D01*
X11296Y14623D02*
Y14663D01*
Y14623D02*
X11336D01*
Y14663D01*
X11296D02*
X11336D01*
X11361Y14593D02*
X11371D01*
X11361Y14588D02*
Y14598D01*
Y14588D02*
X11371D01*
Y14598D01*
X11361D02*
X11371D01*
X11356Y14583D02*
Y14598D01*
Y14583D02*
X11376D01*
Y14603D01*
X11356D02*
X11376D01*
X11351Y14578D02*
Y14603D01*
Y14578D02*
X11381D01*
Y14608D01*
X11351D02*
X11381D01*
X11346Y14573D02*
Y14613D01*
Y14573D02*
X11386D01*
Y14613D01*
X11346D02*
X11386D01*
X11341Y14568D02*
X11391D01*
Y14618D01*
X11291Y14668D02*
X11341D01*
X11291Y14618D02*
Y14668D01*
X11341Y14368D02*
Y14868D01*
X11091Y14618D02*
X11591D01*
X11302Y10123D02*
X11312D01*
X11302Y10118D02*
Y10128D01*
Y10118D02*
X11312D01*
Y10128D01*
X11302D02*
X11312D01*
X11297Y10113D02*
Y10128D01*
Y10113D02*
X11317D01*
Y10133D01*
X11297D02*
X11317D01*
X11292Y10108D02*
Y10133D01*
Y10108D02*
X11322D01*
Y10138D01*
X11292D02*
X11322D01*
X11287Y10103D02*
Y10143D01*
Y10103D02*
X11327D01*
Y10143D01*
X11287D02*
X11327D01*
X11352Y10073D02*
X11362D01*
X11352Y10068D02*
Y10078D01*
Y10068D02*
X11362D01*
Y10078D01*
X11352D02*
X11362D01*
X11347Y10063D02*
Y10078D01*
Y10063D02*
X11367D01*
Y10083D01*
X11347D02*
X11367D01*
X11342Y10058D02*
Y10083D01*
Y10058D02*
X11372D01*
Y10088D01*
X11342D02*
X11372D01*
X11337Y10053D02*
Y10093D01*
Y10053D02*
X11377D01*
Y10093D01*
X11337D02*
X11377D01*
X11332Y10048D02*
X11382D01*
Y10098D01*
X11282Y10148D02*
X11332D01*
X11282Y10098D02*
Y10148D01*
X11332Y9848D02*
Y10348D01*
X11082Y10098D02*
X11582D01*
X17370Y14798D02*
X17380D01*
X17370Y14793D02*
Y14803D01*
Y14793D02*
X17380Y14793D01*
X17380Y14803D01*
X17370D02*
X17380D01*
X17365Y14788D02*
Y14803D01*
Y14788D02*
X17385D01*
Y14808D01*
X17365Y14808D02*
X17385Y14808D01*
X17360Y14783D02*
Y14808D01*
Y14783D02*
X17390D01*
Y14813D01*
X17360D02*
X17390D01*
X17355Y14778D02*
Y14818D01*
Y14778D02*
X17395D01*
Y14818D01*
X17355D02*
X17395D01*
X17420Y14748D02*
X17430D01*
X17420Y14743D02*
X17420Y14753D01*
X17420Y14743D02*
X17430D01*
Y14753D01*
X17420Y14753D02*
X17430Y14753D01*
X17415Y14738D02*
Y14753D01*
Y14738D02*
X17435Y14738D01*
X17435Y14758D02*
X17435Y14738D01*
X17415Y14758D02*
X17435D01*
X17410Y14733D02*
Y14758D01*
Y14733D02*
X17440D01*
Y14763D01*
X17410D02*
X17440D01*
X17405Y14728D02*
Y14768D01*
Y14728D02*
X17445D01*
Y14768D01*
X17405D02*
X17445D01*
X17400Y14723D02*
X17450Y14723D01*
X17450Y14773D02*
X17450Y14723D01*
X17350Y14823D02*
X17400Y14823D01*
X17350Y14823D02*
X17350Y14773D01*
X17400Y14523D02*
Y15023D01*
X17150Y14773D02*
X17650D01*
D36*
X13990Y11328D02*
Y11328D01*
Y11328D02*
X14017Y11301D01*
Y11288D02*
Y11301D01*
Y11288D02*
X14060Y11245D01*
X13965Y11304D02*
X13966D01*
X13964Y11302D02*
X13965Y11304D01*
X16147Y11271D02*
X16179Y11239D01*
X13944Y11282D02*
X14003Y11223D01*
X13964Y11302D02*
X14032Y11234D01*
X14366Y11256D02*
X14378D01*
X14338Y11285D02*
X14366Y11256D01*
X14060Y11245D02*
X14382D01*
X14032Y11234D02*
X14387D01*
X14003Y11223D02*
X14392D01*
X14367Y11271D02*
X16147D01*
X14310Y11304D02*
X14334D01*
X14299Y11315D02*
X14310Y11304D01*
X14334D02*
X14367Y11271D01*
X16040Y11225D02*
X16071Y11194D01*
X14394Y11225D02*
X16040D01*
X14392Y11223D02*
X14394Y11225D01*
X16067Y11236D02*
X16098Y11205D01*
X14389Y11236D02*
X16067D01*
X14387Y11234D02*
X14389Y11236D01*
X16094Y11247D02*
X16125Y11217D01*
X14384Y11247D02*
X16094D01*
X14382Y11245D02*
X14384Y11247D01*
X14380Y11258D02*
X16122D01*
X14378Y11256D02*
X14380Y11258D01*
X14289Y11285D02*
X14338D01*
X16175Y11282D02*
X16206Y11250D01*
X14372Y11282D02*
X16175D01*
X14329Y11324D02*
X14372Y11282D01*
X14902Y11692D02*
X16059D01*
X14883Y11736D02*
X15959D01*
X14865Y11780D02*
X15860D01*
X14911Y11670D02*
X15760D01*
X14817Y11732D02*
X14865Y11780D01*
X14823Y11706D02*
X14874Y11758D01*
X14824Y11676D02*
X14883Y11736D01*
X14833Y11654D02*
X14893Y11714D01*
X14826Y11616D02*
X14902Y11692D01*
X14874Y11758D02*
X15460D01*
X14893Y11714D02*
X15660D01*
X14787Y11732D02*
X14817D01*
X14783Y11736D02*
X14787Y11732D01*
X14783Y11706D02*
X14823D01*
X14835Y11594D02*
X14911Y11670D01*
X14791Y11594D02*
X14835D01*
X14783Y11616D02*
X14826D01*
X14791Y11654D02*
X14833D01*
X14783Y11646D02*
X14791Y11654D01*
X14783Y11676D02*
X14824D01*
X14982Y11951D02*
X16274D01*
X14980Y11933D02*
X16316D01*
X14882Y11834D02*
X14980Y11933D01*
X14831Y11835D02*
X14867D01*
X14830Y11834D02*
X14831Y11835D01*
X14886Y11854D02*
X14982Y11951D01*
X14800Y11855D02*
X14838D01*
X14799Y11854D02*
X14800Y11855D01*
X14839Y11854D02*
X14886D01*
X14838Y11855D02*
X14839Y11854D01*
X14867Y11834D02*
X14882D01*
X14867Y11835D02*
X14867Y11834D01*
X16239Y11907D02*
X16318Y11827D01*
X14969Y11907D02*
X16239D01*
X14877Y11815D02*
X14969Y11907D01*
X16316Y11933D02*
X16369Y11880D01*
X14850Y11815D02*
X14877D01*
X16274Y11951D02*
X16303Y11979D01*
X16369D01*
X16414Y11827D02*
X16467Y11880D01*
X16318Y11827D02*
X16414D01*
X16151Y10904D02*
X16152Y10905D01*
Y11228D01*
X16097Y11004D02*
X16098Y11005D01*
Y11205D01*
X16206Y11055D02*
X16207Y11054D01*
X16206Y11055D02*
Y11250D01*
X16125Y11154D02*
Y11217D01*
X16071Y11178D02*
Y11194D01*
X16179Y10953D02*
Y11239D01*
X16122Y11258D02*
X16152Y11228D01*
X14329Y11319D02*
Y11324D01*
D37*
X13971Y13927D02*
X13990D01*
X13959Y13916D02*
X13971Y13927D01*
X13238Y13916D02*
X13959D01*
X13195Y13959D02*
X13238Y13916D01*
X12565Y13959D02*
X13195D01*
X14203Y11947D02*
X14215Y11934D01*
X12781Y11947D02*
X14203D01*
X12602Y11744D02*
Y11790D01*
X12650Y11838D01*
X12672D01*
X12781Y11947D01*
X12625Y13722D02*
X14079Y13723D01*
X12615Y12750D02*
X14112D01*
X12555Y12012D02*
X14260D01*
X12644Y10856D02*
X14366D01*
X12587Y10799D02*
X12644Y10856D01*
X12551Y12983D02*
X13925D01*
X12535Y11034D02*
X13827D01*
X13021Y13808D02*
X14565D01*
X13518Y9531D02*
X13526Y9535D01*
X13537Y9546D01*
Y9466D01*
X13630Y9546D02*
X13592Y9466D01*
X13577Y9546D02*
X13630D01*
X13694D02*
X13656D01*
X13652Y9512D01*
X13656Y9516D01*
X13667Y9520D01*
X13679D01*
X13690Y9516D01*
X13698Y9508D01*
X13701Y9497D01*
Y9489D01*
X13698Y9478D01*
X13690Y9470D01*
X13679Y9466D01*
X13667D01*
X13656Y9470D01*
X13652Y9474D01*
X13648Y9482D01*
X13719Y9501D02*
X13788D01*
X13834Y9546D02*
X13823Y9543D01*
X13815Y9531D01*
X13811Y9512D01*
Y9501D01*
X13815Y9482D01*
X13823Y9470D01*
X13834Y9466D01*
X13842D01*
X13853Y9470D01*
X13861Y9482D01*
X13865Y9501D01*
Y9512D01*
X13861Y9531D01*
X13853Y9543D01*
X13842Y9546D01*
X13834D01*
X13906D02*
X13894Y9543D01*
X13886Y9531D01*
X13883Y9512D01*
Y9501D01*
X13886Y9482D01*
X13894Y9470D01*
X13906Y9466D01*
X13913D01*
X13925Y9470D01*
X13932Y9482D01*
X13936Y9501D01*
Y9512D01*
X13932Y9531D01*
X13925Y9543D01*
X13913Y9546D01*
X13906D01*
X13977D02*
X13965Y9543D01*
X13958Y9531D01*
X13954Y9512D01*
Y9501D01*
X13958Y9482D01*
X13965Y9470D01*
X13977Y9466D01*
X13984D01*
X13996Y9470D01*
X14003Y9482D01*
X14007Y9501D01*
Y9512D01*
X14003Y9531D01*
X13996Y9543D01*
X13984Y9546D01*
X13977D01*
X14025Y9531D02*
X14033Y9535D01*
X14044Y9546D01*
Y9466D01*
X14091Y9546D02*
X14133D01*
X14110Y9516D01*
X14122D01*
X14129Y9512D01*
X14133Y9508D01*
X14137Y9497D01*
Y9489D01*
X14133Y9478D01*
X14126Y9470D01*
X14114Y9466D01*
X14103D01*
X14091Y9470D01*
X14088Y9474D01*
X14084Y9482D01*
X14218Y9520D02*
Y9466D01*
Y9497D02*
X14222Y9508D01*
X14229Y9516D01*
X14237Y9520D01*
X14248D01*
X14256Y9497D02*
X14301D01*
Y9504D01*
X14297Y9512D01*
X14294Y9516D01*
X14286Y9520D01*
X14275D01*
X14267Y9516D01*
X14259Y9508D01*
X14256Y9497D01*
Y9489D01*
X14259Y9478D01*
X14267Y9470D01*
X14275Y9466D01*
X14286D01*
X14294Y9470D01*
X14301Y9478D01*
X14318Y9520D02*
X14341Y9466D01*
X14364Y9520D02*
X14341Y9466D01*
X14440Y9531D02*
X14447Y9535D01*
X14459Y9546D01*
Y9466D01*
X14559D02*
X14529Y9546D01*
X14499Y9466D01*
X14510Y9493D02*
X14548D01*
X14586Y9470D02*
X14582Y9466D01*
X14578Y9470D01*
X14582Y9474D01*
X14586Y9470D01*
Y9463D01*
X14582Y9455D01*
X14578Y9451D01*
X14666Y9531D02*
X14674Y9535D01*
X14685Y9546D01*
Y9466D01*
X14725Y9520D02*
Y9466D01*
Y9504D02*
X14736Y9516D01*
X14744Y9520D01*
X14755D01*
X14763Y9516D01*
X14767Y9504D01*
Y9466D01*
Y9504D02*
X14778Y9516D01*
X14786Y9520D01*
X14797D01*
X14805Y9516D01*
X14809Y9504D01*
Y9466D01*
X14897Y9546D02*
Y9466D01*
Y9546D02*
X14927Y9466D01*
X14957Y9546D02*
X14927Y9466D01*
X14957Y9546D02*
Y9466D01*
X14988Y9546D02*
X14992Y9543D01*
X14996Y9546D01*
X14992Y9550D01*
X14988Y9546D01*
X14992Y9520D02*
Y9466D01*
X15010Y9520D02*
Y9466D01*
Y9497D02*
X15013Y9508D01*
X15021Y9516D01*
X15029Y9520D01*
X15040D01*
X15047D02*
Y9466D01*
Y9497D02*
X15051Y9508D01*
X15059Y9516D01*
X15066Y9520D01*
X15078D01*
X15104D02*
X15097Y9516D01*
X15089Y9508D01*
X15085Y9497D01*
Y9489D01*
X15089Y9478D01*
X15097Y9470D01*
X15104Y9466D01*
X15116D01*
X15123Y9470D01*
X15131Y9478D01*
X15135Y9489D01*
Y9497D01*
X15131Y9508D01*
X15123Y9516D01*
X15116Y9520D01*
X15104D01*
X15152D02*
Y9466D01*
Y9497D02*
X15156Y9508D01*
X15164Y9516D01*
X15171Y9520D01*
X15183D01*
X15310Y9527D02*
X15306Y9535D01*
X15298Y9543D01*
X15291Y9546D01*
X15276D01*
X15268Y9543D01*
X15260Y9535D01*
X15256Y9527D01*
X15253Y9516D01*
Y9497D01*
X15256Y9485D01*
X15260Y9478D01*
X15268Y9470D01*
X15276Y9466D01*
X15291D01*
X15298Y9470D01*
X15306Y9478D01*
X15310Y9485D01*
X15351Y9520D02*
X15344Y9516D01*
X15336Y9508D01*
X15332Y9497D01*
Y9489D01*
X15336Y9478D01*
X15344Y9470D01*
X15351Y9466D01*
X15363D01*
X15370Y9470D01*
X15378Y9478D01*
X15382Y9489D01*
Y9497D01*
X15378Y9508D01*
X15370Y9516D01*
X15363Y9520D01*
X15351D01*
X15399D02*
X15422Y9466D01*
X15445Y9520D02*
X15422Y9466D01*
X15458Y9497D02*
X15504D01*
Y9504D01*
X15500Y9512D01*
X15496Y9516D01*
X15488Y9520D01*
X15477D01*
X15469Y9516D01*
X15462Y9508D01*
X15458Y9497D01*
Y9489D01*
X15462Y9478D01*
X15469Y9470D01*
X15477Y9466D01*
X15488D01*
X15496Y9470D01*
X15504Y9478D01*
X15521Y9520D02*
Y9466D01*
Y9497D02*
X15525Y9508D01*
X15532Y9516D01*
X15540Y9520D01*
X15551D01*
X15678Y9527D02*
X15675Y9535D01*
X15667Y9543D01*
X15659Y9546D01*
X15644D01*
X15637Y9543D01*
X15629Y9535D01*
X15625Y9527D01*
X15621Y9516D01*
Y9497D01*
X15625Y9485D01*
X15629Y9478D01*
X15637Y9470D01*
X15644Y9466D01*
X15659D01*
X15667Y9470D01*
X15675Y9478D01*
X15678Y9485D01*
X15720Y9520D02*
X15712Y9516D01*
X15705Y9508D01*
X15701Y9497D01*
Y9489D01*
X15705Y9478D01*
X15712Y9470D01*
X15720Y9466D01*
X15731D01*
X15739Y9470D01*
X15747Y9478D01*
X15750Y9489D01*
Y9497D01*
X15747Y9508D01*
X15739Y9516D01*
X15731Y9520D01*
X15720D01*
X15768D02*
Y9466D01*
Y9504D02*
X15779Y9516D01*
X15787Y9520D01*
X15798D01*
X15806Y9516D01*
X15810Y9504D01*
Y9466D01*
X15842Y9546D02*
Y9482D01*
X15846Y9470D01*
X15854Y9466D01*
X15861D01*
X15831Y9520D02*
X15857D01*
X15873D02*
Y9466D01*
Y9497D02*
X15877Y9508D01*
X15884Y9516D01*
X15892Y9520D01*
X15903D01*
X15929D02*
X15922Y9516D01*
X15914Y9508D01*
X15910Y9497D01*
Y9489D01*
X15914Y9478D01*
X15922Y9470D01*
X15929Y9466D01*
X15941D01*
X15949Y9470D01*
X15956Y9478D01*
X15960Y9489D01*
Y9497D01*
X15956Y9508D01*
X15949Y9516D01*
X15941Y9520D01*
X15929D01*
X15977Y9546D02*
Y9466D01*
X15994Y9546D02*
Y9466D01*
X16011Y9497D02*
X16057D01*
Y9504D01*
X16053Y9512D01*
X16049Y9516D01*
X16041Y9520D01*
X16030D01*
X16022Y9516D01*
X16015Y9508D01*
X16011Y9497D01*
Y9489D01*
X16015Y9478D01*
X16022Y9470D01*
X16030Y9466D01*
X16041D01*
X16049Y9470D01*
X16057Y9478D01*
X16074Y9520D02*
Y9466D01*
Y9497D02*
X16078Y9508D01*
X16085Y9516D01*
X16093Y9520D01*
X16104D01*
D38*
X12417Y13840D02*
X12421Y13836D01*
X12318Y13840D02*
X12417D01*
X12414Y12866D02*
X12416Y12867D01*
X12318Y12866D02*
X12414D01*
X12412Y11891D02*
X12414Y11893D01*
X12318Y11891D02*
X12412D01*
X12219Y12748D02*
X12220Y12748D01*
X12318D01*
Y14036D02*
X12351Y14069D01*
X12318Y13958D02*
Y14036D01*
X12474Y13958D02*
X12475Y13959D01*
X12318Y13958D02*
X12474D01*
X12219Y13721D02*
X12220Y13722D01*
X12318D01*
Y13074D02*
X12338Y13094D01*
X12318Y12984D02*
Y13074D01*
Y12984D02*
X12461D01*
X12318Y12089D02*
X12356Y12127D01*
X12318Y12009D02*
Y12089D01*
X12465Y12009D02*
X12465Y12009D01*
X12318Y12009D02*
X12465D01*
X12223Y11772D02*
X12224Y11773D01*
X12318D01*
Y11104D02*
X12357Y11143D01*
X12318Y11035D02*
Y11104D01*
X12225Y10799D02*
X12226Y10799D01*
X12318D01*
X12444Y11035D02*
X12445Y11034D01*
X12318Y11035D02*
X12444D01*
X12421Y10917D02*
X12422Y10916D01*
X12318Y10917D02*
X12421D01*
X12956Y11212D02*
X13004D01*
X13010Y11128D02*
X13060D01*
X12757Y11328D02*
X12803D01*
X12804Y11329D01*
X12618Y11330D02*
X12665D01*
X13004Y11212D02*
X13007Y11215D01*
Y11125D02*
X13010Y11128D01*
X12750Y11242D02*
Y11279D01*
Y11242D02*
X12752Y11240D01*
X12665Y11330D02*
X12667Y11328D01*
X12662Y11240D02*
Y11282D01*
X12663Y11283D01*
X12936Y11724D02*
X12970Y11690D01*
X12789Y11794D02*
X12832Y11837D01*
X12995D01*
X12936Y11724D02*
X12959Y11747D01*
X12995D01*
X12817Y11680D02*
X12880Y11682D01*
X12789Y11734D02*
Y11794D01*
X12970Y11682D02*
Y11690D01*
D44*
X13397Y9122D02*
Y9076D01*
X13378Y9110D02*
X13416Y9087D01*
Y9110D02*
X13378Y9087D01*
X13437Y9049D02*
X13433Y9045D01*
X13437Y9042D01*
X13440Y9045D01*
X13437Y9049D01*
X13515Y9103D02*
X13511Y9110D01*
X13504Y9118D01*
X13496Y9122D01*
X13481D01*
X13473Y9118D01*
X13465Y9110D01*
X13462Y9103D01*
X13458Y9091D01*
Y9072D01*
X13462Y9061D01*
X13465Y9053D01*
X13473Y9045D01*
X13481Y9042D01*
X13496D01*
X13504Y9045D01*
X13511Y9053D01*
X13515Y9061D01*
Y9072D01*
X13496D02*
X13515D01*
X13533Y9122D02*
Y9042D01*
Y9122D02*
X13568D01*
X13579Y9118D01*
X13583Y9114D01*
X13587Y9106D01*
Y9099D01*
X13583Y9091D01*
X13579Y9087D01*
X13568Y9084D01*
X13533D02*
X13568D01*
X13579Y9080D01*
X13583Y9076D01*
X13587Y9068D01*
Y9057D01*
X13583Y9049D01*
X13579Y9045D01*
X13568Y9042D01*
X13533D01*
X13605Y9122D02*
Y9042D01*
X13650D01*
X13722Y9076D02*
X13790D01*
X13877Y9122D02*
Y9042D01*
Y9122D02*
X13911D01*
X13923Y9118D01*
X13926Y9114D01*
X13930Y9106D01*
Y9099D01*
X13926Y9091D01*
X13923Y9087D01*
X13911Y9084D01*
X13877D02*
X13911D01*
X13923Y9080D01*
X13926Y9076D01*
X13930Y9068D01*
Y9057D01*
X13926Y9049D01*
X13923Y9045D01*
X13911Y9042D01*
X13877D01*
X13971Y9122D02*
X13963Y9118D01*
X13956Y9110D01*
X13952Y9103D01*
X13948Y9091D01*
Y9072D01*
X13952Y9061D01*
X13956Y9053D01*
X13963Y9045D01*
X13971Y9042D01*
X13986D01*
X13994Y9045D01*
X14001Y9053D01*
X14005Y9061D01*
X14009Y9072D01*
Y9091D01*
X14005Y9103D01*
X14001Y9110D01*
X13994Y9118D01*
X13986Y9122D01*
X13971D01*
X14054D02*
Y9042D01*
X14028Y9122D02*
X14081D01*
X14117D02*
Y9042D01*
X14091Y9122D02*
X14144D01*
X14176D02*
X14169Y9118D01*
X14161Y9110D01*
X14157Y9103D01*
X14153Y9091D01*
Y9072D01*
X14157Y9061D01*
X14161Y9053D01*
X14169Y9045D01*
X14176Y9042D01*
X14191D01*
X14199Y9045D01*
X14207Y9053D01*
X14210Y9061D01*
X14214Y9072D01*
Y9091D01*
X14210Y9103D01*
X14207Y9110D01*
X14199Y9118D01*
X14191Y9122D01*
X14176D01*
X14233D02*
Y9042D01*
Y9122D02*
X14263Y9042D01*
X14294Y9122D02*
X14263Y9042D01*
X14294Y9122D02*
Y9042D01*
X14380Y9122D02*
Y9042D01*
X14425D01*
X14495D02*
X14465Y9122D01*
X14434Y9042D01*
X14445Y9068D02*
X14484D01*
X14514Y9122D02*
X14544Y9084D01*
Y9042D01*
X14575Y9122D02*
X14544Y9084D01*
X14634Y9122D02*
X14585D01*
Y9042D01*
X14634D01*
X14585Y9084D02*
X14615D01*
X14648Y9122D02*
Y9042D01*
Y9122D02*
X14682D01*
X14693Y9118D01*
X14697Y9114D01*
X14701Y9106D01*
Y9099D01*
X14697Y9091D01*
X14693Y9087D01*
X14682Y9084D01*
X14648D01*
X14674D02*
X14701Y9042D01*
X14839Y9103D02*
X14835Y9110D01*
X14827Y9118D01*
X14820Y9122D01*
X14805D01*
X14797Y9118D01*
X14789Y9110D01*
X14786Y9103D01*
X14782Y9091D01*
Y9072D01*
X14786Y9061D01*
X14789Y9053D01*
X14797Y9045D01*
X14805Y9042D01*
X14820D01*
X14827Y9045D01*
X14835Y9053D01*
X14839Y9061D01*
Y9072D01*
X14820D02*
X14839D01*
X14907Y9122D02*
X14857D01*
Y9042D01*
X14907D01*
X14857Y9084D02*
X14888D01*
X14920Y9122D02*
Y9042D01*
Y9122D02*
X14954D01*
X14966Y9118D01*
X14970Y9114D01*
X14973Y9106D01*
Y9099D01*
X14970Y9091D01*
X14966Y9087D01*
X14954Y9084D01*
X14920D01*
X14947D02*
X14973Y9042D01*
X14991Y9122D02*
Y9042D01*
Y9122D02*
X15026D01*
X15037Y9118D01*
X15041Y9114D01*
X15045Y9106D01*
Y9099D01*
X15041Y9091D01*
X15037Y9087D01*
X15026Y9084D01*
X14991D02*
X15026D01*
X15037Y9080D01*
X15041Y9076D01*
X15045Y9068D01*
Y9057D01*
X15041Y9049D01*
X15037Y9045D01*
X15026Y9042D01*
X14991D01*
X15112Y9122D02*
X15062D01*
Y9042D01*
X15112D01*
X15062Y9084D02*
X15093D01*
X15125Y9122D02*
Y9042D01*
Y9122D02*
X15160D01*
X15171Y9118D01*
X15175Y9114D01*
X15179Y9106D01*
Y9099D01*
X15175Y9091D01*
X15171Y9087D01*
X15160Y9084D01*
X15125D01*
X15152D02*
X15179Y9042D01*
X15259Y9122D02*
Y9042D01*
Y9122D02*
X15286D01*
X15297Y9118D01*
X15305Y9110D01*
X15309Y9103D01*
X15313Y9091D01*
Y9072D01*
X15309Y9061D01*
X15305Y9053D01*
X15297Y9045D01*
X15286Y9042D01*
X15259D01*
X15392D02*
X15361Y9122D01*
X15331Y9042D01*
X15342Y9068D02*
X15380D01*
X15437Y9122D02*
Y9042D01*
X15410Y9122D02*
X15464D01*
X15534Y9042D02*
X15504Y9122D01*
X15473Y9042D01*
X15484Y9068D02*
X15523D01*
D45*
X13518Y9396D02*
Y9316D01*
X13564D01*
X13634D02*
X13603Y9396D01*
X13573Y9316D01*
X13584Y9343D02*
X13622D01*
X13706Y9385D02*
X13698Y9393D01*
X13687Y9396D01*
X13671D01*
X13660Y9393D01*
X13652Y9385D01*
Y9377D01*
X13656Y9370D01*
X13660Y9366D01*
X13667Y9362D01*
X13690Y9354D01*
X13698Y9351D01*
X13702Y9347D01*
X13706Y9339D01*
Y9328D01*
X13698Y9320D01*
X13687Y9316D01*
X13671D01*
X13660Y9320D01*
X13652Y9328D01*
X13843Y9377D02*
X13840Y9385D01*
X13832Y9393D01*
X13824Y9396D01*
X13809D01*
X13802Y9393D01*
X13794Y9385D01*
X13790Y9377D01*
X13786Y9366D01*
Y9347D01*
X13790Y9335D01*
X13794Y9328D01*
X13802Y9320D01*
X13809Y9316D01*
X13824D01*
X13832Y9320D01*
X13840Y9328D01*
X13843Y9335D01*
X13866Y9396D02*
Y9339D01*
X13870Y9328D01*
X13877Y9320D01*
X13889Y9316D01*
X13896D01*
X13908Y9320D01*
X13915Y9328D01*
X13919Y9339D01*
Y9396D01*
X13941D02*
Y9316D01*
Y9396D02*
X13972Y9316D01*
X14002Y9396D02*
X13972Y9316D01*
X14002Y9396D02*
Y9316D01*
X14025Y9396D02*
Y9316D01*
Y9396D02*
X14059D01*
X14071Y9393D01*
X14075Y9389D01*
X14078Y9381D01*
Y9373D01*
X14075Y9366D01*
X14071Y9362D01*
X14059Y9358D01*
X14025D02*
X14059D01*
X14071Y9354D01*
X14075Y9351D01*
X14078Y9343D01*
Y9332D01*
X14075Y9324D01*
X14071Y9320D01*
X14059Y9316D01*
X14025D01*
X14096Y9396D02*
Y9316D01*
Y9396D02*
X14131D01*
X14142Y9393D01*
X14146Y9389D01*
X14150Y9381D01*
Y9373D01*
X14146Y9366D01*
X14142Y9362D01*
X14131Y9358D01*
X14096D01*
X14123D02*
X14150Y9316D01*
X14217Y9396D02*
X14168D01*
Y9316D01*
X14217D01*
X14168Y9358D02*
X14198D01*
X14284Y9385D02*
X14276Y9393D01*
X14265Y9396D01*
X14249D01*
X14238Y9393D01*
X14230Y9385D01*
Y9377D01*
X14234Y9370D01*
X14238Y9366D01*
X14246Y9362D01*
X14268Y9354D01*
X14276Y9351D01*
X14280Y9347D01*
X14284Y9339D01*
Y9328D01*
X14276Y9320D01*
X14265Y9316D01*
X14249D01*
X14238Y9320D01*
X14230Y9328D01*
X14387Y9396D02*
X14380Y9393D01*
X14372Y9385D01*
X14368Y9377D01*
X14364Y9366D01*
Y9347D01*
X14368Y9335D01*
X14372Y9328D01*
X14380Y9320D01*
X14387Y9316D01*
X14403D01*
X14410Y9320D01*
X14418Y9328D01*
X14422Y9335D01*
X14425Y9347D01*
Y9366D01*
X14422Y9377D01*
X14418Y9385D01*
X14410Y9393D01*
X14403Y9396D01*
X14387D01*
X14444D02*
Y9316D01*
Y9396D02*
X14478D01*
X14490Y9393D01*
X14494Y9389D01*
X14497Y9381D01*
Y9373D01*
X14494Y9366D01*
X14490Y9362D01*
X14478Y9358D01*
X14444D02*
X14478D01*
X14490Y9354D01*
X14494Y9351D01*
X14497Y9343D01*
Y9332D01*
X14494Y9324D01*
X14490Y9320D01*
X14478Y9316D01*
X14444D01*
X14569Y9385D02*
X14561Y9393D01*
X14550Y9396D01*
X14534D01*
X14523Y9393D01*
X14515Y9385D01*
Y9377D01*
X14519Y9370D01*
X14523Y9366D01*
X14531Y9362D01*
X14553Y9354D01*
X14561Y9351D01*
X14565Y9347D01*
X14569Y9339D01*
Y9328D01*
X14561Y9320D01*
X14550Y9316D01*
X14534D01*
X14523Y9320D01*
X14515Y9328D01*
X14636Y9396D02*
X14587D01*
Y9316D01*
X14636D01*
X14587Y9358D02*
X14617D01*
X14649Y9396D02*
Y9316D01*
Y9396D02*
X14684D01*
X14695Y9393D01*
X14699Y9389D01*
X14703Y9381D01*
Y9373D01*
X14699Y9366D01*
X14695Y9362D01*
X14684Y9358D01*
X14649D01*
X14676D02*
X14703Y9316D01*
X14721Y9396D02*
X14751Y9316D01*
X14782Y9396D02*
X14751Y9316D01*
X14853D02*
X14822Y9396D01*
X14792Y9316D01*
X14803Y9343D02*
X14841D01*
X14898Y9396D02*
Y9316D01*
X14871Y9396D02*
X14925D01*
X14957D02*
X14949Y9393D01*
X14942Y9385D01*
X14938Y9377D01*
X14934Y9366D01*
Y9347D01*
X14938Y9335D01*
X14942Y9328D01*
X14949Y9320D01*
X14957Y9316D01*
X14972D01*
X14980Y9320D01*
X14988Y9328D01*
X14991Y9335D01*
X14995Y9347D01*
Y9366D01*
X14991Y9377D01*
X14988Y9385D01*
X14980Y9393D01*
X14972Y9396D01*
X14957D01*
X15014D02*
Y9316D01*
Y9396D02*
X15048D01*
X15060Y9393D01*
X15063Y9389D01*
X15067Y9381D01*
Y9373D01*
X15063Y9366D01*
X15060Y9362D01*
X15048Y9358D01*
X15014D01*
X15041D02*
X15067Y9316D01*
X15085Y9396D02*
X15116Y9358D01*
Y9316D01*
X15146Y9396D02*
X15116Y9358D01*
X15490Y9396D02*
X15478Y9393D01*
X15474Y9385D01*
Y9377D01*
X15478Y9370D01*
X15486Y9366D01*
X15501Y9362D01*
X15512Y9358D01*
X15520Y9351D01*
X15524Y9343D01*
Y9332D01*
X15520Y9324D01*
X15516Y9320D01*
X15505Y9316D01*
X15490D01*
X15478Y9320D01*
X15474Y9324D01*
X15471Y9332D01*
Y9343D01*
X15474Y9351D01*
X15482Y9358D01*
X15493Y9362D01*
X15509Y9366D01*
X15516Y9370D01*
X15520Y9377D01*
Y9385D01*
X15516Y9393D01*
X15505Y9396D01*
X15490D01*
X15542Y9305D02*
X15595Y9396D01*
X15608D02*
X15650D01*
X15627Y9366D01*
X15638D01*
X15646Y9362D01*
X15650Y9358D01*
X15654Y9347D01*
Y9339D01*
X15650Y9328D01*
X15642Y9320D01*
X15631Y9316D01*
X15619D01*
X15608Y9320D01*
X15604Y9324D01*
X15600Y9332D01*
X15694Y9396D02*
X15683Y9393D01*
X15675Y9381D01*
X15672Y9362D01*
Y9351D01*
X15675Y9332D01*
X15683Y9320D01*
X15694Y9316D01*
X15702D01*
X15714Y9320D01*
X15721Y9332D01*
X15725Y9351D01*
Y9362D01*
X15721Y9381D01*
X15714Y9393D01*
X15702Y9396D01*
X15694D01*
X15743Y9305D02*
X15796Y9396D01*
X15805Y9377D02*
Y9381D01*
X15809Y9389D01*
X15813Y9393D01*
X15821Y9396D01*
X15836D01*
X15843Y9393D01*
X15847Y9389D01*
X15851Y9381D01*
Y9373D01*
X15847Y9366D01*
X15840Y9354D01*
X15801Y9316D01*
X15855D01*
X15896Y9396D02*
X15884Y9393D01*
X15877Y9381D01*
X15873Y9362D01*
Y9351D01*
X15877Y9332D01*
X15884Y9320D01*
X15896Y9316D01*
X15903D01*
X15915Y9320D01*
X15922Y9332D01*
X15926Y9351D01*
Y9362D01*
X15922Y9381D01*
X15915Y9393D01*
X15903Y9396D01*
X15896D01*
X15944Y9381D02*
X15952Y9385D01*
X15963Y9396D01*
Y9316D01*
X16025Y9396D02*
X16014Y9393D01*
X16006Y9381D01*
X16003Y9362D01*
Y9351D01*
X16006Y9332D01*
X16014Y9320D01*
X16025Y9316D01*
X16033D01*
X16044Y9320D01*
X16052Y9332D01*
X16056Y9351D01*
Y9362D01*
X16052Y9381D01*
X16044Y9393D01*
X16033Y9396D01*
X16025D01*
D46*
X16202Y13690D02*
D03*
X16049Y13740D02*
D03*
X16202Y13790D02*
D03*
X16049Y13840D02*
D03*
X16202Y13890D02*
D03*
X16049Y13940D02*
D03*
X16202Y13990D02*
D03*
Y12930D02*
D03*
X16049Y12980D02*
D03*
X16202Y13030D02*
D03*
X16049Y13080D02*
D03*
X16202Y13130D02*
D03*
X16049Y13180D02*
D03*
X16202Y13230D02*
D03*
D47*
X14627Y12227D02*
D03*
Y10712D02*
D03*
X13837Y12227D02*
D03*
Y10712D02*
D03*
D48*
X15142Y14037D02*
D03*
X13449D02*
D03*
Y10730D02*
D03*
D49*
X14918Y12783D02*
D03*
Y12743D02*
D03*
Y12704D02*
D03*
X14878D02*
D03*
Y12743D02*
D03*
Y12783D02*
D03*
D50*
X16318Y11255D02*
D03*
Y10955D02*
D03*
X16418Y11205D02*
D03*
X16318Y11155D02*
D03*
Y11055D02*
D03*
X16418Y11105D02*
D03*
D51*
Y10905D02*
D03*
D52*
Y11005D02*
D03*
D53*
X16668Y10855D02*
D03*
Y11305D02*
D03*
D54*
X16861Y10831D02*
D03*
X16801Y10931D02*
D03*
X16861Y11229D02*
D03*
X16801Y11329D02*
D03*
D55*
X16548Y10770D02*
D03*
Y11390D02*
D03*
X15949Y12408D02*
D03*
X15594Y12496D02*
D03*
X15777Y13457D02*
D03*
X15423Y13303D02*
D03*
X15765Y14108D02*
D03*
D56*
X15460Y11441D02*
D03*
D57*
Y11541D02*
D03*
X15560Y11441D02*
D03*
Y11541D02*
D03*
X15660Y11441D02*
D03*
Y11541D02*
D03*
X15760Y11441D02*
D03*
Y11541D02*
D03*
X15860Y11441D02*
D03*
Y11541D02*
D03*
X15960Y11441D02*
D03*
Y11541D02*
D03*
X16060Y11441D02*
D03*
Y11541D02*
D03*
D58*
X16769Y12405D02*
D03*
Y12555D02*
D03*
Y12705D02*
D03*
Y12855D02*
D03*
Y13005D02*
D03*
Y13155D02*
D03*
Y13305D02*
D03*
Y13455D02*
D03*
Y13605D02*
D03*
Y13755D02*
D03*
Y13905D02*
D03*
D59*
Y14055D02*
D03*
D60*
X16369Y11979D02*
D03*
Y11880D02*
D03*
X16467D02*
D03*
Y11979D02*
D03*
D61*
X16574Y11693D02*
D03*
Y12167D02*
D03*
D62*
X12880Y11800D02*
D03*
Y11753D02*
D03*
X12859Y11244D02*
D03*
Y11197D02*
D03*
D63*
X14034Y11176D02*
D03*
X14034Y11105D02*
D03*
X14034Y11142D02*
D03*
X13990Y11328D02*
D03*
X13966Y11304D02*
D03*
X14299Y11315D02*
D03*
X16059Y11692D02*
D03*
X15959Y11736D02*
D03*
X15860Y11780D02*
D03*
X15760Y11670D02*
D03*
X15660Y11714D02*
D03*
X15460Y11758D02*
D03*
X14783Y11736D02*
D03*
Y11706D02*
D03*
Y11586D02*
D03*
Y11616D02*
D03*
Y11646D02*
D03*
Y11676D02*
D03*
X14112Y12750D02*
D03*
Y11105D02*
D03*
X14215Y11934D02*
D03*
Y11134D02*
D03*
X14362Y10856D02*
D03*
Y11160D02*
D03*
X14445Y12893D02*
D03*
X14812Y12920D02*
D03*
X12625Y13722D02*
D03*
X12615Y12750D02*
D03*
X12602Y11744D02*
D03*
X12587Y10799D02*
D03*
X13757Y11866D02*
D03*
X13756Y11614D02*
D03*
X13757Y11079D02*
D03*
X14546Y11324D02*
D03*
Y11861D02*
D03*
X14510Y12368D02*
D03*
X15678Y11183D02*
D03*
X12827Y13073D02*
D03*
X13080Y12840D02*
D03*
X12794Y12957D02*
D03*
X16245Y11985D02*
D03*
X14858Y11815D02*
D03*
X14830Y11834D02*
D03*
X14800Y11855D02*
D03*
X16151Y10904D02*
D03*
X16178Y10953D02*
D03*
X16097Y11004D02*
D03*
X16207Y11054D02*
D03*
X16125Y11154D02*
D03*
X16071Y11178D02*
D03*
X14289Y11285D02*
D03*
X14329Y11324D02*
D03*
X13944Y11282D02*
D03*
X12421Y13836D02*
D03*
X12416Y12867D02*
D03*
X12414Y11893D02*
D03*
X12219Y12748D02*
D03*
X12351Y14069D02*
D03*
X12219Y13721D02*
D03*
Y13959D02*
D03*
X12214Y13839D02*
D03*
X12338Y13094D02*
D03*
X12217Y12984D02*
D03*
X12212Y12865D02*
D03*
X12356Y12127D02*
D03*
X12223Y11772D02*
D03*
X12220Y12009D02*
D03*
X12214Y11892D02*
D03*
X12357Y11143D02*
D03*
X12216Y11035D02*
D03*
X12228Y10917D02*
D03*
X12225Y10799D02*
D03*
X12421Y10917D02*
D03*
X12663Y11283D02*
D03*
X13017Y10700D02*
D03*
X12957Y11275D02*
D03*
X13060Y11128D02*
D03*
X13112Y10830D02*
D03*
X13182Y10725D02*
D03*
Y10670D02*
D03*
X12862Y11285D02*
D03*
X12956Y11212D02*
D03*
X12962Y10825D02*
D03*
X12857D02*
D03*
X13182Y10775D02*
D03*
X12804Y11329D02*
D03*
X12618Y11330D02*
D03*
X13002Y11275D02*
D03*
X13012Y10825D02*
D03*
X12912D02*
D03*
X12750Y11279D02*
D03*
X12752Y10825D02*
D03*
X13002Y11340D02*
D03*
X12917D02*
D03*
X12752Y10760D02*
D03*
X12757Y10685D02*
D03*
X12614Y11240D02*
D03*
X12936Y11724D02*
D03*
X12789Y11734D02*
D03*
X12905Y11864D02*
D03*
X12660Y11933D02*
D03*
X12661Y11804D02*
D03*
X12705Y11806D02*
D03*
X12659Y11869D02*
D03*
X12791Y12152D02*
D03*
X12873Y12153D02*
D03*
X12981Y12155D02*
D03*
X12989Y12069D02*
D03*
X12885Y11911D02*
D03*
X12811Y11629D02*
D03*
X13152Y11747D02*
D03*
X13155Y11687D02*
D03*
X13080Y12156D02*
D03*
X13005Y11986D02*
D03*
X12911Y11985D02*
D03*
X12817Y11680D02*
D03*
X14079Y13723D02*
D03*
X13950Y12983D02*
D03*
X13990Y13927D02*
D03*
X13827Y11033D02*
D03*
X13878Y11551D02*
D03*
X14260D02*
D03*
Y12010D02*
D03*
X13953Y11241D02*
D03*
X13822Y11625D02*
D03*
X15450Y11190D02*
D03*
X15443Y11058D02*
D03*
X15329Y11104D02*
D03*
X14738Y11144D02*
D03*
X15181Y13029D02*
D03*
X15143Y13128D02*
D03*
X15218Y13180D02*
D03*
X15065Y13652D02*
D03*
X15029Y13710D02*
D03*
X15102Y13766D02*
D03*
X16028Y13472D02*
D03*
X16457Y10840D02*
D03*
X14764Y10946D02*
D03*
X16688Y10634D02*
D03*
X14805Y10917D02*
D03*
X13021Y13808D02*
D03*
X13027Y14132D02*
D03*
X13018Y13605D02*
D03*
X13014Y13421D02*
D03*
X12978Y13249D02*
D03*
X13224Y11974D02*
D03*
D64*
X15967Y14172D02*
D03*
X14750Y12147D02*
D03*
X14785Y12076D02*
D03*
X13021Y13190D02*
D03*
X14565Y13808D02*
D03*
X15793Y12269D02*
D03*
X15671Y10772D02*
D03*
X12357Y11420D02*
D03*
X13090Y12433D02*
D03*
X13226Y11271D02*
D03*
M02*
