G04 Layer_Color=128*
%FSLAX26Y26*%
%MOIN*%
%TF.FileFunction,Drillmap*%
%TF.Part,Single*%
G01*
G75*
%TA.AperFunction,NonConductor*%
%ADD17C,0.005000*%
D17*
X-680315Y-644882D02*
X-609449D01*
X-644882Y-680315D02*
Y-609449D01*
X609449Y-644882D02*
X680315D01*
X644882Y-680315D02*
Y-609449D01*
X609449Y644882D02*
X680315D01*
X644882Y609449D02*
Y680315D01*
X-680315Y644882D02*
X-609449D01*
X-644882Y609449D02*
Y680315D01*
X-17500Y0D02*
X17500D01*
X0Y-17500D02*
Y17500D01*
X-17500Y150000D02*
X17500D01*
X0Y132500D02*
Y167500D01*
X-134774Y93525D02*
X-99774D01*
X-117274Y76025D02*
Y111025D01*
X-163740Y-33375D02*
X-128740D01*
X-146240Y-50875D02*
Y-15875D01*
X-82587Y-135143D02*
X-47587D01*
X-65087Y-152643D02*
Y-117643D01*
X47577Y-135148D02*
X82577D01*
X65077Y-152648D02*
Y-117648D01*
X128738Y-33385D02*
X163738D01*
X146238Y-50885D02*
Y-15885D01*
X99780Y93516D02*
X134780D01*
X117280Y76016D02*
Y111016D01*
X-17500Y283000D02*
X17500D01*
X0Y265500D02*
Y300500D01*
X-149015Y250585D02*
X-114015D01*
X-131515Y233085D02*
Y268085D01*
X-250403Y160765D02*
X-215403D01*
X-232903Y143265D02*
Y178265D01*
X-298436Y34116D02*
X-263436D01*
X-280936Y16616D02*
Y51616D01*
X-282112Y-100347D02*
X-247112D01*
X-264612Y-117847D02*
Y-82847D01*
X-205169Y-211823D02*
X-170169D01*
X-187669Y-229323D02*
Y-194323D01*
X-85235Y-274774D02*
X-50235D01*
X-67735Y-292274D02*
Y-257274D01*
X50216Y-274779D02*
X85216D01*
X67716Y-292279D02*
Y-257279D01*
X170155Y-211837D02*
X205155D01*
X187655Y-229337D02*
Y-194337D01*
X247105Y-100366D02*
X282105D01*
X264605Y-117866D02*
Y-82866D01*
X263438Y34097D02*
X298438D01*
X280938Y16597D02*
Y51597D01*
X215414Y160749D02*
X250414D01*
X232914Y143249D02*
Y178249D01*
X114033Y250576D02*
X149033D01*
X131533Y233076D02*
Y268076D01*
X-17500Y418000D02*
X17500D01*
X0Y400500D02*
Y435500D01*
X-146669Y397542D02*
X-111669D01*
X-129169Y380042D02*
Y415042D01*
X-263194Y338169D02*
X-228194D01*
X-245694Y320669D02*
Y355669D01*
X-355669Y245694D02*
X-320669D01*
X-338169Y228194D02*
Y263194D01*
X-415042Y129169D02*
X-380042D01*
X-397542Y111669D02*
Y146669D01*
X-435500Y0D02*
X-400500D01*
X-418000Y-17500D02*
Y17500D01*
X-415042Y-129169D02*
X-380042D01*
X-397542Y-146669D02*
Y-111669D01*
X-355669Y-245694D02*
X-320669D01*
X-338169Y-263194D02*
Y-228194D01*
X-263194Y-338169D02*
X-228194D01*
X-245694Y-355669D02*
Y-320669D01*
X-146669Y-397542D02*
X-111669D01*
X-129169Y-415042D02*
Y-380042D01*
X-17500Y-418000D02*
X17500D01*
X0Y-435500D02*
Y-400500D01*
X111669Y-397542D02*
X146669D01*
X129169Y-415042D02*
Y-380042D01*
X228194Y-338169D02*
X263194D01*
X245694Y-355669D02*
Y-320669D01*
X320669Y-245694D02*
X355669D01*
X338169Y-263194D02*
Y-228194D01*
X380042Y-129169D02*
X415042D01*
X397542Y-146669D02*
Y-111669D01*
X400500Y0D02*
X435500D01*
X418000Y-17500D02*
Y17500D01*
X380042Y129169D02*
X415042D01*
X397542Y111669D02*
Y146669D01*
X320669Y245694D02*
X355669D01*
X338169Y228194D02*
Y263194D01*
X228194Y338169D02*
X263194D01*
X245694Y320669D02*
Y355669D01*
X111669Y397542D02*
X146669D01*
X129169Y380042D02*
Y415042D01*
X-943898Y875000D02*
X-806102D01*
X-875000Y806102D02*
Y943898D01*
X806102Y-875000D02*
X943898D01*
X875000Y-943898D02*
Y-806102D01*
X-943898Y-875000D02*
X-806102D01*
X-875000Y-943898D02*
Y-806102D01*
X806102Y875000D02*
X943898D01*
X875000Y806102D02*
Y943898D01*
X39000Y-970000D02*
X61000D01*
X50000Y-981000D02*
Y-959000D01*
X20000Y-1080000D02*
X80000D01*
X50000Y-1110000D02*
Y-1050000D01*
X-280000Y-1080000D02*
X-220000D01*
X-250000Y-1110000D02*
Y-1050000D01*
X-261000Y-970000D02*
X-239000D01*
X-250000Y-981000D02*
Y-959000D01*
X-561000Y-970000D02*
X-539000D01*
X-550000Y-981000D02*
Y-959000D01*
X-580000Y-1080000D02*
X-520000D01*
X-550000Y-1110000D02*
Y-1050000D01*
X170000Y-1080000D02*
X230000D01*
X200000Y-1110000D02*
Y-1050000D01*
X189000Y-970000D02*
X211000D01*
X200000Y-981000D02*
Y-959000D01*
X-111000Y-970000D02*
X-89000D01*
X-100000Y-981000D02*
Y-959000D01*
X-130000Y-1080000D02*
X-70000D01*
X-100000Y-1110000D02*
Y-1050000D01*
X470000Y-1080000D02*
X530000D01*
X500000Y-1110000D02*
Y-1050000D01*
X489000Y-970000D02*
X511000D01*
X500000Y-981000D02*
Y-959000D01*
X-411000Y-970000D02*
X-389000D01*
X-400000Y-981000D02*
Y-959000D01*
X-430000Y-1080000D02*
X-370000D01*
X-400000Y-1110000D02*
Y-1050000D01*
X339000Y-970000D02*
X361000D01*
X350000Y-981000D02*
Y-959000D01*
X320000Y-1080000D02*
X380000D01*
X350000Y-1110000D02*
Y-1050000D01*
X-981000Y300000D02*
X-959000D01*
X-970000Y289000D02*
Y311000D01*
X-1110000Y300000D02*
X-1050000D01*
X-1080000Y270000D02*
Y330000D01*
X-1110000Y-600000D02*
X-1050000D01*
X-1080000Y-630000D02*
Y-570000D01*
X-981000Y-600000D02*
X-959000D01*
X-970000Y-611000D02*
Y-589000D01*
X-981000Y-300000D02*
X-959000D01*
X-970000Y-311000D02*
Y-289000D01*
X-1110000Y-300000D02*
X-1050000D01*
X-1080000Y-330000D02*
Y-270000D01*
X-1110000Y0D02*
X-1050000D01*
X-1080000Y-30000D02*
Y30000D01*
X-981000Y0D02*
X-959000D01*
X-970000Y-11000D02*
Y11000D01*
X-981000Y450000D02*
X-959000D01*
X-970000Y439000D02*
Y461000D01*
X-1110000Y450000D02*
X-1050000D01*
X-1080000Y420000D02*
Y480000D01*
X-1110000Y750000D02*
X-1050000D01*
X-1080000Y720000D02*
Y780000D01*
X-981000Y750000D02*
X-959000D01*
X-970000Y739000D02*
Y761000D01*
X-1110000Y-750000D02*
X-1050000D01*
X-1080000Y-780000D02*
Y-720000D01*
X-981000Y-750000D02*
X-959000D01*
X-970000Y-761000D02*
Y-739000D01*
X-981000Y-450000D02*
X-959000D01*
X-970000Y-461000D02*
Y-439000D01*
X-1110000Y-450000D02*
X-1050000D01*
X-1080000Y-480000D02*
Y-420000D01*
X-1110000Y150000D02*
X-1050000D01*
X-1080000Y120000D02*
Y180000D01*
X-981000Y150000D02*
X-959000D01*
X-970000Y139000D02*
Y161000D01*
X-981000Y600000D02*
X-959000D01*
X-970000Y589000D02*
Y611000D01*
X-1110000Y600000D02*
X-1050000D01*
X-1080000Y570000D02*
Y630000D01*
X-1110000Y-150000D02*
X-1050000D01*
X-1080000Y-180000D02*
Y-120000D01*
X-981000Y-150000D02*
X-959000D01*
X-970000Y-161000D02*
Y-139000D01*
X959000Y150000D02*
X981000D01*
X970000Y139000D02*
Y161000D01*
X1050000Y150000D02*
X1110000D01*
X1080000Y120000D02*
Y180000D01*
X1050000Y-150000D02*
X1110000D01*
X1080000Y-180000D02*
Y-120000D01*
X959000Y-150000D02*
X981000D01*
X970000Y-161000D02*
Y-139000D01*
X959000Y-300000D02*
X981000D01*
X970000Y-311000D02*
Y-289000D01*
X1050000Y-300000D02*
X1110000D01*
X1080000Y-330000D02*
Y-270000D01*
X1050000Y0D02*
X1110000D01*
X1080000Y-30000D02*
Y30000D01*
X959000Y0D02*
X981000D01*
X970000Y-11000D02*
Y11000D01*
X1050000Y300000D02*
X1110000D01*
X1080000Y270000D02*
Y330000D01*
X959000Y300000D02*
X981000D01*
X970000Y289000D02*
Y311000D01*
X120000Y1080000D02*
X180000D01*
X150000Y1050000D02*
Y1110000D01*
X139000Y970000D02*
X161000D01*
X150000Y959000D02*
Y981000D01*
X-461000Y970000D02*
X-439000D01*
X-450000Y959000D02*
Y981000D01*
X-480000Y1080000D02*
X-420000D01*
X-450000Y1050000D02*
Y1110000D01*
X-180000Y1080000D02*
X-120000D01*
X-150000Y1050000D02*
Y1110000D01*
X-161000Y970000D02*
X-139000D01*
X-150000Y959000D02*
Y981000D01*
X-11000Y970000D02*
X11000D01*
X0Y959000D02*
Y981000D01*
X-30000Y1080000D02*
X30000D01*
X0Y1050000D02*
Y1110000D01*
X-330000Y1080000D02*
X-270000D01*
X-300000Y1050000D02*
Y1110000D01*
X-311000Y970000D02*
X-289000D01*
X-300000Y959000D02*
Y981000D01*
X289000Y970000D02*
X311000D01*
X300000Y959000D02*
Y981000D01*
X270000Y1080000D02*
X330000D01*
X300000Y1050000D02*
Y1110000D01*
X439000Y970000D02*
X461000D01*
X450000Y959000D02*
Y981000D01*
X420000Y1080000D02*
X480000D01*
X450000Y1050000D02*
Y1110000D01*
%TF.MD5,d9773336dbfada849a677e43cd2b5e30*%
M02*
