G04 Layer_Physical_Order=2*
G04 Layer_Color=16711680*
%FSAX44Y44*%
%MOMM*%
G71*
G01*
G75*
%ADD10C,0.5000*%
%ADD13C,2.0000*%
%ADD46C,0.2500*%
%ADD47C,0.3000*%
%ADD48C,0.4000*%
%ADD49C,0.2540*%
%ADD59C,1.6000*%
G04:AMPARAMS|DCode=60|XSize=1.6mm|YSize=1.6mm|CornerRadius=0.4mm|HoleSize=0mm|Usage=FLASHONLY|Rotation=315.000|XOffset=0mm|YOffset=0mm|HoleType=Round|Shape=RoundedRectangle|*
%AMROUNDEDRECTD60*
21,1,1.6000,0.8000,0,0,315.0*
21,1,0.8000,1.6000,0,0,315.0*
1,1,0.8000,0.0000,-0.5657*
1,1,0.8000,-0.5657,0.0000*
1,1,0.8000,0.0000,0.5657*
1,1,0.8000,0.5657,0.0000*
%
%ADD60ROUNDEDRECTD60*%
%ADD61C,1.5000*%
%ADD62R,2.2000X2.2000*%
%ADD63C,2.2000*%
%ADD64C,1.7000*%
%ADD65C,1.8000*%
%ADD66C,0.7000*%
%ADD67C,0.6000*%
%ADD68C,0.9000*%
G36*
X01217894Y02254343D02*
X01217545Y02253500D01*
X01217560Y02253464D01*
X01210300Y02246204D01*
X01151452D01*
X01146153Y02251503D01*
X01146403Y02252760D01*
X01147748Y02256006D01*
X01216783D01*
X01217894Y02254343D01*
D02*
G37*
G36*
X01207201Y02340502D02*
X01207923Y02338760D01*
X01211842Y02337136D01*
X01215071Y02333908D01*
X01219663Y02332006D01*
X01237169D01*
Y02320420D01*
X01235545Y02316500D01*
X01237169Y02312580D01*
Y02270552D01*
X01235506Y02269440D01*
X01232663Y02270618D01*
X01228743Y02268994D01*
X01147157D01*
Y02282810D01*
X01205240Y02340892D01*
X01207201Y02340502D01*
D02*
G37*
G36*
X01383926Y02339287D02*
X01382480Y02337841D01*
X01379944Y02331718D01*
X01382480Y02325595D01*
X01388137Y02319939D01*
X01394260Y02317402D01*
X01395250Y02317812D01*
X01396364Y02316151D01*
X01371515Y02291122D01*
X01369850Y02292230D01*
X01371328Y02295797D01*
X01367524Y02304982D01*
X01358339Y02308786D01*
X01349155Y02304982D01*
X01345351Y02295797D01*
X01347866Y02289724D01*
X01346452Y02288310D01*
X01340379Y02290826D01*
X01331194Y02287021D01*
X01327390Y02277837D01*
X01329906Y02271764D01*
X01328492Y02270349D01*
X01322418Y02272865D01*
X01313234Y02269061D01*
X01309430Y02259876D01*
X01313234Y02250692D01*
X01322418Y02246888D01*
X01326527Y02248589D01*
X01327641Y02246929D01*
X01273543Y02192438D01*
X01271925Y02193515D01*
X01270267Y02197518D01*
X01271794Y02201205D01*
Y02221863D01*
X01269892Y02226456D01*
X01250157Y02246190D01*
Y02312580D01*
X01251781Y02316500D01*
X01250157Y02320420D01*
Y02332006D01*
X01324663D01*
X01329255Y02333908D01*
X01359280Y02363933D01*
X01383926Y02339287D01*
D02*
G37*
G36*
X01171793Y02121770D02*
X01173322Y02120361D01*
X01176583Y02112488D01*
X01185767Y02108684D01*
X01188933Y02109995D01*
X01190047Y02108334D01*
X01099147Y02016774D01*
X01031360D01*
X01030962Y02018774D01*
X01035153Y02020510D01*
X01037531Y02026250D01*
X01037507Y02026308D01*
X01041931Y02030732D01*
X01043596Y02034750D01*
Y02116396D01*
X01049054Y02121855D01*
X01170931D01*
X01171793Y02121770D01*
D02*
G37*
G36*
X00908299Y02135679D02*
X00909923Y02131760D01*
X00913842Y02130136D01*
X00940571Y02103408D01*
X00945163Y02101506D01*
X00999973D01*
X01009719Y02091760D01*
Y02016774D01*
X01006420D01*
X00964420Y02051774D01*
X00673040Y02051774D01*
X00672275Y02053622D01*
X00767454Y02148801D01*
X00768663Y02148300D01*
X00775169Y02150994D01*
X00775173Y02151006D01*
X00892973D01*
X00908299Y02135679D01*
D02*
G37*
G36*
X01121569Y02223558D02*
X01121545Y02223500D01*
X01123923Y02217760D01*
X01129663Y02215382D01*
X01134230Y02217274D01*
X01136230Y02215974D01*
Y02204264D01*
X01136173Y02204240D01*
X01133795Y02198500D01*
X01136173Y02192760D01*
X01141913Y02190382D01*
X01147653Y02192760D01*
X01150031Y02198500D01*
X01147653Y02204240D01*
X01147596Y02204264D01*
Y02228250D01*
X01148413Y02228796D01*
X01236207D01*
X01237545Y02227500D01*
X01239923Y02221760D01*
X01245663Y02219382D01*
X01251403Y02221760D01*
X01252125Y02223502D01*
X01254087Y02223892D01*
X01257974Y02220005D01*
X01257894Y02219029D01*
X01255793Y02217734D01*
X01253661Y02218617D01*
X01247921Y02216239D01*
X01245544Y02210499D01*
X01245861Y02209734D01*
X01239837Y02203710D01*
X01237875Y02204100D01*
X01237403Y02205240D01*
X01231663Y02207618D01*
X01225923Y02205240D01*
X01223545Y02199500D01*
X01223569Y02199442D01*
X01163309Y02139183D01*
X01043413D01*
X01040572Y02138006D01*
X01039452Y02139707D01*
X01061681Y02161936D01*
X01063346Y02165954D01*
Y02231146D01*
X01071017Y02238817D01*
X01106309D01*
X01121569Y02223558D01*
D02*
G37*
G36*
X01423424Y02538877D02*
X01423792Y02538724D01*
Y02323503D01*
X01406561Y02323503D01*
X01405796Y02325351D01*
X01406040Y02325595D01*
X01408576Y02331718D01*
X01406040Y02337841D01*
X01400383Y02343498D01*
X01399071Y02344041D01*
X01364638Y02378475D01*
X01338486Y02404627D01*
X01337403Y02407240D01*
X01331663Y02409618D01*
X01328472Y02408296D01*
X01327339Y02409992D01*
X01333484Y02416136D01*
X01337403Y02417760D01*
X01339027Y02421679D01*
X01358255Y02440908D01*
X01358943Y02442569D01*
X01359403Y02442760D01*
X01361781Y02448500D01*
X01359403Y02454240D01*
X01356849Y02455298D01*
X01356459Y02457260D01*
X01410727Y02511528D01*
X01412391Y02515546D01*
Y02530209D01*
X01413459Y02530922D01*
X01419199Y02533300D01*
X01421577Y02539040D01*
X01423424Y02538877D01*
D02*
G37*
G36*
X01423792Y02617235D02*
X01421792Y02616407D01*
X01420681Y02617518D01*
X01419712Y02617920D01*
X01420781Y02620500D01*
X01418403Y02626240D01*
X01412663Y02628618D01*
X01406923Y02626240D01*
X01406899Y02626183D01*
X01398663D01*
X01396346Y02625222D01*
X01394346Y02626559D01*
Y02628500D01*
X01392681Y02632518D01*
X01391757Y02633442D01*
X01391781Y02633500D01*
X01389403Y02639240D01*
X01386247Y02640548D01*
X01385857Y02642509D01*
X01395353Y02652006D01*
X01405743D01*
X01409663Y02650382D01*
X01415403Y02652760D01*
X01417781Y02658500D01*
X01415403Y02664240D01*
X01409663Y02666618D01*
X01405743Y02664995D01*
X01392663D01*
X01388071Y02663092D01*
X01366973Y02641994D01*
X01353663D01*
X01349071Y02640092D01*
X01338592Y02629614D01*
X01334673Y02627990D01*
X01332295Y02622250D01*
X01334673Y02616510D01*
X01340413Y02614132D01*
X01346153Y02616510D01*
X01347777Y02620429D01*
X01356353Y02629006D01*
X01365973D01*
X01376169Y02618810D01*
Y02542690D01*
X01368696Y02535217D01*
X01363923Y02533240D01*
X01361946Y02528467D01*
X01349071Y02515592D01*
X01347169Y02511000D01*
Y02509420D01*
X01345545Y02505500D01*
X01347923Y02499760D01*
X01348355Y02499581D01*
X01348746Y02497619D01*
X01327629Y02476502D01*
X01325493Y02477195D01*
X01323403Y02482240D01*
X01317663Y02484618D01*
X01313743Y02482994D01*
X01301583D01*
X01297663Y02484618D01*
X01291923Y02482240D01*
X01289545Y02476500D01*
X01291923Y02470760D01*
X01297663Y02468382D01*
X01301583Y02470006D01*
X01313743D01*
X01316968Y02468670D01*
X01317661Y02466534D01*
X01254309Y02403183D01*
X01237017D01*
X01219257Y02420942D01*
X01219281Y02421000D01*
X01216903Y02426740D01*
X01211163Y02429118D01*
X01205423Y02426740D01*
X01203045Y02421000D01*
X01205423Y02415260D01*
X01211163Y02412882D01*
X01211221Y02412906D01*
X01230645Y02393482D01*
X01234663Y02391817D01*
X01256663D01*
X01258317Y02392503D01*
X01259980Y02391392D01*
Y02386264D01*
X01259923Y02386240D01*
X01257545Y02380500D01*
X01259923Y02374760D01*
X01261316Y02374183D01*
X01260919Y02372183D01*
X01167663D01*
X01163645Y02370518D01*
X01141309Y02348183D01*
X01112017D01*
X01076757Y02383442D01*
X01076781Y02383500D01*
X01074403Y02389240D01*
X01068663Y02391618D01*
X01062923Y02389240D01*
X01060545Y02383500D01*
X01062923Y02377760D01*
X01068663Y02375382D01*
X01068721Y02375406D01*
X01100096Y02344030D01*
X01099331Y02342183D01*
X01086017D01*
X01076757Y02351442D01*
X01076781Y02351500D01*
X01074403Y02357240D01*
X01068663Y02359618D01*
X01062923Y02357240D01*
X01060545Y02351500D01*
X01062923Y02345760D01*
X01068663Y02343382D01*
X01068721Y02343406D01*
X01079645Y02332482D01*
X01083663Y02330818D01*
X01146663D01*
X01150681Y02332482D01*
X01173017Y02354818D01*
X01198183D01*
X01198948Y02352970D01*
X01136071Y02290092D01*
X01134169Y02285500D01*
Y02266316D01*
X01132169Y02265487D01*
X01054367Y02343289D01*
Y02406387D01*
X01091776Y02443796D01*
X01230663D01*
X01230663Y02443796D01*
X01234697Y02445466D01*
X01257947Y02468717D01*
X01260128Y02468678D01*
X01260923Y02466760D01*
X01266663Y02464382D01*
X01268317Y02465067D01*
X01269980Y02463956D01*
Y02445854D01*
X01254721Y02430594D01*
X01254663Y02430618D01*
X01248923Y02428240D01*
X01246545Y02422500D01*
X01248923Y02416760D01*
X01254663Y02414382D01*
X01260403Y02416760D01*
X01262781Y02422500D01*
X01262757Y02422558D01*
X01279681Y02439482D01*
X01281346Y02443500D01*
Y02482750D01*
X01279681Y02486768D01*
X01269055Y02497394D01*
X01270031Y02499750D01*
X01267653Y02505490D01*
X01266260Y02506068D01*
X01266657Y02508067D01*
X01310328D01*
X01312423Y02503010D01*
X01318163Y02500632D01*
X01323903Y02503010D01*
X01326281Y02508750D01*
X01324296Y02513543D01*
X01326572Y02519039D01*
X01324194Y02524779D01*
X01318454Y02527157D01*
X01312714Y02524779D01*
X01312690Y02524722D01*
X01173678D01*
X01172882Y02526722D01*
X01174918Y02531636D01*
X01191829Y02548547D01*
X01276437D01*
X01281663Y02546382D01*
X01287403Y02548760D01*
X01289781Y02554500D01*
X01287403Y02560240D01*
X01281663Y02562618D01*
X01276437Y02560453D01*
X01189363D01*
X01185154Y02558710D01*
X01166499Y02540055D01*
X01161273Y02537890D01*
X01158895Y02532150D01*
X01161144Y02526722D01*
X01160348Y02524722D01*
X01054947D01*
X01053903Y02527240D01*
X01048163Y02529618D01*
X01042423Y02527240D01*
X01040045Y02521500D01*
X01042423Y02515760D01*
X01043352Y02515375D01*
Y02513375D01*
X01042423Y02512990D01*
X01040045Y02507250D01*
X01042423Y02501510D01*
X01048163Y02499132D01*
X01053903Y02501510D01*
X01056281Y02507250D01*
X01058107Y02508067D01*
X01257169D01*
X01257566Y02506068D01*
X01256173Y02505490D01*
X01253795Y02499750D01*
X01256173Y02494010D01*
X01257488Y02493465D01*
X01257895Y02492482D01*
X01259325Y02491052D01*
X01258559Y02489204D01*
X01252663D01*
X01252663Y02489204D01*
X01248630Y02487534D01*
X01248630Y02487534D01*
X01221530Y02460434D01*
X01181725D01*
X01180614Y02462097D01*
X01180781Y02462500D01*
X01178403Y02468240D01*
X01178346Y02468264D01*
Y02489425D01*
X01179153Y02489760D01*
X01181531Y02495500D01*
X01179153Y02501240D01*
X01173413Y02503618D01*
X01167673Y02501240D01*
X01165295Y02495500D01*
X01166981Y02491431D01*
Y02468264D01*
X01166923Y02468240D01*
X01164545Y02462500D01*
X01164712Y02462097D01*
X01163601Y02460434D01*
X01087352D01*
X01083318Y02458763D01*
X01083318Y02458763D01*
X01039157Y02414603D01*
X01037157Y02415349D01*
Y02437500D01*
X01035255Y02442092D01*
X00968538Y02508810D01*
X00969652Y02511500D01*
X00965847Y02520684D01*
X00956663Y02524489D01*
X00947479Y02520684D01*
X00943674Y02511500D01*
X00947479Y02502316D01*
X00956663Y02498511D01*
X00959353Y02499626D01*
X01024169Y02434810D01*
Y02419220D01*
X01022506Y02418109D01*
X01018663Y02419700D01*
X01012158Y02417006D01*
X01010305Y02417042D01*
X00918537Y02508810D01*
X00919652Y02511500D01*
X00915847Y02520684D01*
X00906663Y02524489D01*
X00897479Y02520684D01*
X00893674Y02511500D01*
X00897479Y02502316D01*
X00906663Y02498511D01*
X00909353Y02499626D01*
X01003071Y02405908D01*
X01007663Y02404006D01*
X01012153D01*
X01012157Y02403994D01*
X01018663Y02401300D01*
X01022506Y02402891D01*
X01024169Y02401780D01*
Y02393190D01*
X01015674Y02384696D01*
X01015663Y02384700D01*
X01009157Y02382006D01*
X01006463Y02375500D01*
X01009157Y02368994D01*
X01015663Y02366300D01*
X01022169Y02368994D01*
X01024863Y02375500D01*
X01024859Y02375511D01*
X01034959Y02385611D01*
X01036959Y02385192D01*
Y02340250D01*
X01036959Y02340250D01*
X01038630Y02336216D01*
X01101066Y02273780D01*
X01100300Y02271933D01*
X01042537D01*
X01041048Y02273933D01*
X01041957Y02278500D01*
X01040793Y02284353D01*
X01037477Y02289314D01*
X01032516Y02292630D01*
X01026663Y02293794D01*
X01020810Y02292630D01*
X01015849Y02289314D01*
X01012533Y02284353D01*
X01011369Y02278500D01*
X01012533Y02272647D01*
X01014848Y02269183D01*
X01013779Y02267183D01*
X00942663D01*
X00938645Y02265518D01*
X00859092Y02185965D01*
X00856913Y02186868D01*
X00851173Y02184490D01*
X00848795Y02178750D01*
X00851173Y02173010D01*
X00856913Y02170632D01*
X00862653Y02173010D01*
X00863250Y02174449D01*
X00863931Y02174732D01*
X00945017Y02255818D01*
X01028218D01*
X01029046Y02253817D01*
X00983071Y02207842D01*
X00981169Y02203250D01*
Y02157420D01*
X00979545Y02153500D01*
X00981923Y02147760D01*
X00987663Y02145382D01*
X00993403Y02147760D01*
X00995781Y02153500D01*
X00994157Y02157420D01*
Y02200560D01*
X01040645Y02247047D01*
X01042340Y02245915D01*
X01042169Y02245500D01*
Y02204420D01*
X01040545Y02200500D01*
X01042923Y02194760D01*
X01048663Y02192382D01*
X01050318Y02193067D01*
X01051981Y02191956D01*
Y02168308D01*
X01013418Y02129745D01*
X01011753Y02125727D01*
Y02120228D01*
X01011554Y02119747D01*
X01009593Y02119357D01*
X00997431Y02131518D01*
X00993413Y02133183D01*
X00985427D01*
X00985403Y02133240D01*
X00979663Y02135618D01*
X00973923Y02133240D01*
X00971545Y02127500D01*
X00973923Y02121760D01*
X00979663Y02119382D01*
X00985403Y02121760D01*
X00985427Y02121817D01*
X00991059D01*
X00996535Y02116342D01*
X00995769Y02114494D01*
X00957251D01*
X00956500Y02116494D01*
X00958781Y02122000D01*
X00957596Y02124862D01*
Y02230132D01*
X00957903Y02230260D01*
X00960281Y02236000D01*
X00957903Y02241740D01*
X00952163Y02244118D01*
X00946423Y02241740D01*
X00944045Y02236000D01*
X00946230Y02230724D01*
Y02128282D01*
X00944923Y02127740D01*
X00942730Y02122446D01*
X00940697Y02121650D01*
X00923027Y02139321D01*
X00921403Y02143240D01*
X00917484Y02144864D01*
X00900255Y02162092D01*
X00895663Y02163994D01*
X00775173D01*
X00775169Y02164006D01*
X00768663Y02166700D01*
X00762157Y02164006D01*
X00759463Y02157500D01*
X00759644Y02157063D01*
X00654354Y02051774D01*
X00568886Y02051774D01*
X00568121Y02053622D01*
X00741817Y02227318D01*
X00760163D01*
X00764181Y02228982D01*
X00777202Y02242003D01*
X00777755Y02242232D01*
X00784931Y02249408D01*
X00785160Y02249961D01*
X00949840Y02414641D01*
X00950663Y02414300D01*
X00957169Y02416994D01*
X00959863Y02423500D01*
X00957169Y02430006D01*
X00950663Y02432700D01*
X00944157Y02430006D01*
X00941463Y02423500D01*
X00941804Y02422677D01*
X00782777Y02263651D01*
X00780493Y02264195D01*
X00778036Y02267872D01*
X00773735Y02270746D01*
X00768663Y02271755D01*
X00763591Y02270746D01*
X00759291Y02267872D01*
X00756417Y02263572D01*
X00755408Y02258500D01*
X00756417Y02253428D01*
X00759291Y02249128D01*
X00762968Y02246670D01*
X00763512Y02244386D01*
X00757809Y02238683D01*
X00739463D01*
X00735445Y02237018D01*
X00550201Y02051774D01*
X00493534D01*
Y02537890D01*
X00891792Y02537890D01*
X00893273Y02537890D01*
X00893663Y02537500D01*
X00893792Y02537629D01*
X00893792Y02539675D01*
Y02583869D01*
X00895792Y02584818D01*
X00898663Y02583629D01*
X01218663D01*
X01222107Y02585056D01*
X01223534Y02588500D01*
Y02713629D01*
X01423792D01*
Y02617235D01*
D02*
G37*
%LPC*%
G36*
X00533663Y02125948D02*
X00524861Y02122302D01*
X00521216Y02113500D01*
X00524861Y02104698D01*
X00533663Y02101053D01*
X00542465Y02104698D01*
X00546110Y02113500D01*
X00542465Y02122302D01*
X00533663Y02125948D01*
D02*
G37*
G36*
X00654663Y02124447D02*
X00645861Y02120802D01*
X00642215Y02112000D01*
X00645861Y02103198D01*
X00654663Y02099552D01*
X00663465Y02103198D01*
X00667111Y02112000D01*
X00663465Y02120802D01*
X00654663Y02124447D01*
D02*
G37*
G36*
X01277663Y02705739D02*
X01268479Y02701935D01*
X01266163Y02696344D01*
X01264163D01*
X01261847Y02701935D01*
X01252663Y02705739D01*
X01243479Y02701935D01*
X01239674Y02692750D01*
X01243479Y02683566D01*
X01252663Y02679761D01*
X01261847Y02683566D01*
X01264163Y02689156D01*
X01266163D01*
X01268479Y02683566D01*
X01277663Y02679761D01*
X01286847Y02683566D01*
X01290652Y02692750D01*
X01286847Y02701935D01*
X01277663Y02705739D01*
D02*
G37*
G36*
X00533663Y02090948D02*
X00524861Y02087302D01*
X00521216Y02078500D01*
X00524861Y02069698D01*
X00533663Y02066053D01*
X00542465Y02069698D01*
X00546110Y02078500D01*
X00542465Y02087302D01*
X00533663Y02090948D01*
D02*
G37*
G36*
X00532663Y02459500D02*
X00519913D01*
X00507913Y02447500D01*
X00507913Y02428000D01*
X00544663Y02391250D01*
X00557913Y02391250D01*
X00570663Y02404000D01*
Y02421500D01*
X00532663Y02459500D01*
D02*
G37*
G36*
X01088663Y02407618D02*
X01082923Y02405240D01*
X01080545Y02399500D01*
X01082169Y02395580D01*
Y02392500D01*
X01084071Y02387908D01*
X01113299Y02358679D01*
X01114923Y02354760D01*
X01120663Y02352382D01*
X01126403Y02354760D01*
X01128781Y02360500D01*
X01126403Y02366240D01*
X01122484Y02367864D01*
X01095157Y02395190D01*
Y02395580D01*
X01096781Y02399500D01*
X01094403Y02405240D01*
X01088663Y02407618D01*
D02*
G37*
G36*
X00550663Y02272245D02*
X00545786Y02271275D01*
X00541651Y02268512D01*
X00538888Y02264377D01*
X00537918Y02259500D01*
X00538888Y02254623D01*
X00541651Y02250488D01*
X00545786Y02247725D01*
X00550663Y02246755D01*
X00555540Y02247725D01*
X00559675Y02250488D01*
X00562438Y02254623D01*
X00563408Y02259500D01*
X00562438Y02264377D01*
X00559675Y02268512D01*
X00555540Y02271275D01*
X00550663Y02272245D01*
D02*
G37*
G36*
X01252663Y02662489D02*
X01243479Y02658684D01*
X01239674Y02649500D01*
X01243479Y02640316D01*
X01249069Y02638000D01*
Y02636000D01*
X01243479Y02633684D01*
X01239674Y02624500D01*
X01243479Y02615316D01*
X01252663Y02611511D01*
X01261847Y02615316D01*
X01265652Y02624500D01*
X01261847Y02633684D01*
X01256257Y02636000D01*
Y02638000D01*
X01261847Y02640316D01*
X01265652Y02649500D01*
X01261847Y02658684D01*
X01252663Y02662489D01*
D02*
G37*
G36*
X01156663Y02430948D02*
X01147861Y02427302D01*
X01144215Y02418500D01*
X01147861Y02409698D01*
X01156663Y02406053D01*
X01165465Y02409698D01*
X01169110Y02418500D01*
X01165465Y02427302D01*
X01156663Y02430948D01*
D02*
G37*
%LPD*%
D10*
X01359663Y02373500D02*
X01394260Y02338903D01*
X01331663Y02401500D02*
X01359663Y02373500D01*
X01394260Y02331718D02*
Y02338903D01*
D13*
X00576663Y02595500D02*
D03*
X00598663Y02495500D02*
D03*
D46*
X01172663Y02462500D02*
Y02496750D01*
X01173413D01*
X01423705Y02549286D02*
Y02568292D01*
X00951913Y02122000D02*
Y02235750D01*
X01030913Y02041500D02*
Y02120500D01*
X01030663Y02120750D02*
X01030913Y02120500D01*
X01030663Y02120750D02*
X01043413Y02133500D01*
X01022913Y02029296D02*
Y02098000D01*
X01037913Y02034750D02*
Y02118750D01*
X01029413Y02026250D02*
X01037913Y02034750D01*
X01022663Y01795500D02*
X01028663Y01789500D01*
X01022663Y01795500D02*
Y02029046D01*
X01022913Y02029296D01*
X00856913Y02178750D02*
X00859913D01*
X00942663Y02261500D01*
X01313163Y02513750D02*
X01318163Y02508750D01*
X01054663Y02513750D02*
X01313163D01*
X01048163Y02507250D02*
X01054663Y02513750D01*
X01141913Y02198500D02*
Y02234608D01*
X01110271Y02266250D02*
X01141913Y02234608D01*
X01034566Y02266250D02*
X01110271D01*
X01029816Y02261500D02*
X01034566Y02266250D01*
X00942663Y02261500D02*
X01029816D01*
X00993413Y02127500D02*
X01022913Y02098000D01*
X00979663Y02127500D02*
X00993413D01*
X00950663Y02122000D02*
X00951913D01*
Y02235750D02*
X00952163Y02236000D01*
X01017436Y02115977D02*
X01017913Y02115500D01*
X01017436Y02115977D02*
Y02125727D01*
X01057663Y02165954D01*
Y02233500D01*
X01046700Y02127537D02*
X01171700D01*
X01037913Y02118750D02*
X01046700Y02127537D01*
X01043413Y02133500D02*
X01165663D01*
X01028663Y01789500D02*
X01046963D01*
X01173413Y02495500D02*
Y02496750D01*
X01050624Y02519039D02*
X01318454D01*
X01287663Y02396500D02*
X01406709Y02515546D01*
Y02581846D01*
X01402209Y02519046D02*
Y02586046D01*
X01397709Y02522546D02*
Y02595546D01*
X01393209Y02526046D02*
Y02615045D01*
X01388663Y02529500D02*
Y02628500D01*
X01265663Y02398500D02*
X01393209Y02526046D01*
X01256663Y02397500D02*
X01388663Y02529500D01*
X01422459Y02568292D02*
X01423705D01*
X01280913Y02397750D02*
X01402209Y02519046D01*
X01272661Y02397498D02*
X01397709Y02522546D01*
X00760163Y02233000D02*
X00773413Y02246250D01*
X00739463Y02233000D02*
X00760163D01*
X00524913Y02018450D02*
X00739463Y02233000D01*
X00780913Y02253750D02*
X00950663Y02423500D01*
X00780913Y02253426D02*
Y02253750D01*
X00773737Y02246250D02*
X00780913Y02253426D01*
X00773413Y02246250D02*
X00773737D01*
X01393209Y02615045D02*
X01398663Y02620500D01*
X01397709Y02595546D02*
X01401663Y02599500D01*
X01402209Y02586046D02*
X01412663Y02596500D01*
X01406709Y02581846D02*
X01419663Y02594800D01*
X01287663Y02374500D02*
Y02396500D01*
X01280913Y02381750D02*
Y02397750D01*
X01234663Y02397500D02*
X01256663D01*
X01401663Y02613500D02*
X01416663D01*
X01398663Y02620500D02*
X01412663D01*
X00573663Y02041500D02*
X00652117D01*
X00768117Y02157500D01*
X00768663D01*
X01211163Y02421000D02*
X01234663Y02397500D01*
X01314163Y02346000D02*
X01333663Y02365500D01*
X01241663Y02346000D02*
X01314163D01*
X01171700Y02127537D02*
X01253661Y02209498D01*
Y02210499D01*
X01165663Y02133500D02*
X01231663Y02199500D01*
Y02199500D02*
Y02199500D01*
X01069663Y02233500D02*
X01084663Y02218500D01*
X01069663Y02233500D02*
Y02235500D01*
X01057663Y02233500D02*
X01068663Y02244500D01*
X01300661Y02369498D02*
Y02389499D01*
X01068663Y02383500D02*
X01069663D01*
X01412663Y02596500D02*
Y02606500D01*
X01280163Y02381000D02*
X01280913Y02381750D01*
X01416663Y02613500D02*
X01419663Y02610500D01*
Y02594800D02*
Y02610500D01*
X01293911Y02386703D02*
Y02392748D01*
X01299663Y02398500D01*
X01272661Y02374499D02*
Y02397498D01*
X01265663Y02380500D02*
Y02398500D01*
X01068663Y02244500D02*
X01108663D01*
X01129663Y02223500D01*
X01068663Y02383500D02*
X01109663Y02342500D01*
X01143663D01*
X01167663Y02366500D01*
X01289209D01*
X01146663Y02336500D02*
X01170663Y02360500D01*
X01291663D01*
X01300661Y02369498D01*
X01383663Y02633500D02*
X01388663Y02628500D01*
X00512963Y01789500D02*
X00524913Y01801450D01*
Y02018450D01*
X01068663Y02351500D02*
X01083663Y02336500D01*
X01146663D01*
X01289209Y02366500D02*
X01295913Y02373204D01*
Y02384701D01*
X01293911Y02386703D02*
X01295913Y02384701D01*
X01413459Y02539040D02*
X01423705Y02549286D01*
X01413459Y02549291D02*
Y02569792D01*
X01422459Y02578792D01*
X01261913Y02496500D02*
Y02499750D01*
Y02496500D02*
X01275663Y02482750D01*
X01254663Y02422500D02*
X01275663Y02443500D01*
Y02482750D01*
X01048163Y02521500D02*
X01050624Y02519039D01*
D47*
X01167013Y02532150D02*
X01189363Y02554500D01*
X01281663D01*
D48*
X01237463Y01777000D02*
X01243963Y01783500D01*
X01294963Y01796500D02*
X01307963Y01783500D01*
X01243963D02*
X01256963Y01796500D01*
X01043413Y02259000D02*
X01107163D01*
X00987663Y02203250D02*
X01043413Y02259000D01*
X00987663Y02153500D02*
Y02203250D01*
X01107163Y02259000D02*
X01123663Y02242500D01*
X01359663Y02373500D02*
X01359913Y02373750D01*
X01324663Y02338500D02*
X01359663Y02373500D01*
X01016213Y01788200D02*
Y02094450D01*
X01002663Y02108000D02*
X01016213Y02094450D01*
X00945163Y02108000D02*
X01002663D01*
X00915663Y02137500D02*
X00945163Y02108000D01*
X01058563Y01775700D02*
X01072363Y01789500D01*
X01028713Y01775700D02*
X01058563D01*
X01016213Y01788200D02*
X01028713Y01775700D01*
X01353663Y02445500D02*
Y02448500D01*
X01084863Y01777000D02*
X01237463D01*
X01072363Y01789500D02*
X01084863Y01777000D01*
X01353663Y02505500D02*
Y02511000D01*
X01030663Y02390500D02*
Y02437500D01*
X01015663Y02375500D02*
X01030663Y02390500D01*
X00956663Y02511500D02*
X01030663Y02437500D01*
X01243663Y02338500D02*
X01324663D01*
X01219663D02*
X01243663D01*
X01213663Y02344500D02*
X01219663Y02338500D01*
X01243663Y02316500D02*
Y02338500D01*
X01257609Y02193515D02*
X01265300Y02201205D01*
Y02221863D01*
X01256963Y01796500D02*
X01294963D01*
X01392663Y02658500D02*
X01409663D01*
X01369663Y02635500D02*
X01392663Y02658500D01*
X01353663Y02635500D02*
X01369663D01*
X01340413Y02622250D02*
X01353663Y02635500D01*
X01048663Y02200500D02*
Y02245500D01*
X01054663Y02251500D01*
X01297663Y02476500D02*
X01317663D01*
X01310663Y02366500D02*
Y02402500D01*
X01331663Y02423500D01*
Y02423500D01*
X01353663Y02445500D01*
X01208663Y02353500D02*
X01297663D01*
X01140663Y02285500D02*
X01208663Y02353500D01*
X01297663D02*
X01310663Y02366500D01*
X01243663Y02243500D02*
Y02316500D01*
Y02243500D02*
X01265300Y02221863D01*
X01141663Y02262500D02*
X01232663D01*
X01140663Y02263500D02*
X01141663Y02262500D01*
X01140663Y02258500D02*
Y02263500D01*
Y02285500D01*
X01369663Y02634500D02*
X01382663Y02621500D01*
X01369663Y02634500D02*
Y02635500D01*
X00906663Y02511500D02*
X01007663Y02410500D01*
X01018663D01*
X01088663Y02392500D02*
Y02399500D01*
Y02392500D02*
X01120663Y02360500D01*
X01382663Y02540000D02*
Y02621500D01*
X00768663Y02157500D02*
X00895663D01*
X00915663Y02137500D01*
X01353663Y02511000D02*
X01382663Y02540000D01*
D49*
X01148413Y02234500D02*
X01238663D01*
X01042663Y02340250D02*
X01148413Y02234500D01*
X01042663Y02340250D02*
Y02410041D01*
X01149089Y02240500D02*
X01212663D01*
X01048663Y02340926D02*
Y02408750D01*
Y02340926D02*
X01149089Y02240500D01*
X01042663Y02410041D02*
X01087352Y02454730D01*
X01223893D02*
X01252663Y02483500D01*
X01087352Y02454730D02*
X01223893D01*
X01256663Y02475500D02*
Y02476500D01*
X01230663Y02449500D02*
X01256663Y02475500D01*
X01212663Y02240500D02*
X01225663Y02253500D01*
X01238663Y02234500D02*
X01245663Y02227500D01*
X01252663Y02483500D02*
X01262663D01*
X01266663Y02479500D01*
Y02472500D02*
Y02479500D01*
X01048663Y02408750D02*
X01089413Y02449500D01*
X01230663D01*
D59*
X01203728Y02139633D02*
D03*
X01239649Y02175554D02*
D03*
X01185767Y02121673D02*
D03*
X01221688Y02157594D02*
D03*
X01167807Y02103712D02*
D03*
X01322418Y02259876D02*
D03*
X01340379Y02277837D02*
D03*
X01376300Y02313758D02*
D03*
X01358339Y02295797D02*
D03*
X00824663Y02063500D02*
D03*
X00956663Y02511500D02*
D03*
X00906663D02*
D03*
X00876663Y02625500D02*
D03*
X01252663Y02649500D02*
D03*
Y02624500D02*
D03*
Y02692750D02*
D03*
X01277663D02*
D03*
D60*
X01257609Y02193515D02*
D03*
X01394260Y02331718D02*
D03*
D61*
X01156663Y02468500D02*
D03*
Y02418500D02*
D03*
X00654663Y02112000D02*
D03*
Y02077000D02*
D03*
X00533663Y02113500D02*
D03*
Y02078500D02*
D03*
X00525663Y02570790D02*
D03*
Y02442210D02*
D03*
X01333363Y01783500D02*
D03*
X01307963D02*
D03*
X01269363D02*
D03*
X01243963D02*
D03*
X00512963Y01789500D02*
D03*
X00538363D02*
D03*
X01046963Y01789500D02*
D03*
X01072363D02*
D03*
D62*
X01278663Y02278500D02*
D03*
Y02303500D02*
D03*
Y02253500D02*
D03*
D63*
X01026663Y02278500D02*
D03*
D64*
X00550663Y02409500D02*
D03*
Y02259500D02*
D03*
D65*
X00768663Y02258500D02*
D03*
D66*
X00934163Y02053500D02*
D03*
X00951663D02*
D03*
X00986663Y02053000D02*
D03*
X00910663Y02055500D02*
D03*
X00934163Y02079750D02*
D03*
X00954163D02*
D03*
X00971913D02*
D03*
X00988413D02*
D03*
X01006413D02*
D03*
X01083913Y02054250D02*
D03*
X01066413Y02053250D02*
D03*
X01047163Y02079500D02*
D03*
X01068663Y02079750D02*
D03*
X01101163Y02056500D02*
D03*
X01005413Y02053500D02*
D03*
X01047413Y02053250D02*
D03*
X01030913Y02041500D02*
D03*
X01029413Y02026250D02*
D03*
X01281163Y02539750D02*
D03*
X01249413Y02408500D02*
D03*
X01338663Y02635750D02*
D03*
X01264163Y02668500D02*
D03*
X01280413Y02616000D02*
D03*
X00824413Y02079500D02*
D03*
X00827413Y02166500D02*
D03*
X00856913Y02178750D02*
D03*
X01194913Y02528000D02*
D03*
X01230163Y02439250D02*
D03*
X01367663Y02465750D02*
D03*
X01125913Y02503750D02*
D03*
X01141913Y02198500D02*
D03*
X00979663Y02127500D02*
D03*
X00950663Y02122000D02*
D03*
X01017913Y02115500D02*
D03*
X01030663Y02148500D02*
D03*
X00981188Y02116019D02*
D03*
X00952163Y02236000D02*
D03*
X01048163Y02507250D02*
D03*
X01173413Y02495500D02*
D03*
X01167013Y02532150D02*
D03*
X01353663Y02448500D02*
D03*
X01413459Y02539040D02*
D03*
Y02549291D02*
D03*
X01422459Y02568292D02*
D03*
X01369663Y02527500D02*
D03*
X01422459Y02578792D02*
D03*
X01048163Y02521500D02*
D03*
X01261913Y02499750D02*
D03*
X01318454Y02519039D02*
D03*
X01358663Y02527500D02*
D03*
X01346163D02*
D03*
X01322913D02*
D03*
X01334663D02*
D03*
X01353663Y02505500D02*
D03*
X01240663Y02564500D02*
D03*
X01401663Y02613500D02*
D03*
X01412663Y02620500D02*
D03*
X01401663Y02599500D02*
D03*
X01172663Y02462500D02*
D03*
X01211163Y02421000D02*
D03*
X01333663Y02365500D02*
D03*
X01241663Y02346000D02*
D03*
X01253661Y02210499D02*
D03*
X01231663Y02199500D02*
D03*
X00668663Y02218500D02*
D03*
X00978663Y02228500D02*
D03*
X00938663D02*
D03*
X00918663Y02202500D02*
D03*
X00798663Y02198500D02*
D03*
X01418663Y02448500D02*
D03*
Y02698500D02*
D03*
X00988663Y02508500D02*
D03*
X00708663Y02298500D02*
D03*
X00908663D02*
D03*
Y02458500D02*
D03*
X00818663D02*
D03*
Y02378500D02*
D03*
X00708663D02*
D03*
X00888663Y02538500D02*
D03*
X00828663Y02508500D02*
D03*
X00768663D02*
D03*
X00708663D02*
D03*
X01398663Y02631500D02*
D03*
X01310663Y02558500D02*
D03*
X01338163Y02577500D02*
D03*
X01291663Y02216500D02*
D03*
X00608663Y02058500D02*
D03*
X00778663D02*
D03*
X00728663D02*
D03*
X00678663D02*
D03*
X00638663Y02268500D02*
D03*
Y02328500D02*
D03*
Y02388500D02*
D03*
Y02448500D02*
D03*
Y02508500D02*
D03*
X00498663Y02248500D02*
D03*
Y02338500D02*
D03*
Y02428500D02*
D03*
X01409663Y02658500D02*
D03*
X01281663Y02554500D02*
D03*
X01331663Y02401500D02*
D03*
X01277772Y02429270D02*
D03*
X00915663Y02137500D02*
D03*
X01183663Y02374500D02*
D03*
Y02386500D02*
D03*
Y02398500D02*
D03*
X01331663Y02423500D02*
D03*
X01331663Y02411500D02*
D03*
X01088663Y02399500D02*
D03*
X01068663Y02383500D02*
D03*
Y02351500D02*
D03*
X01300661Y02389499D02*
D03*
X01299663Y02398500D02*
D03*
X01265663Y02380500D02*
D03*
X01272661Y02374499D02*
D03*
X01280163Y02381000D02*
D03*
X01287663Y02374500D02*
D03*
X01383663Y02633500D02*
D03*
X01412663Y02606500D02*
D03*
X01068663Y02399500D02*
D03*
Y02364500D02*
D03*
X01034163Y02367000D02*
D03*
X01129663Y02223500D02*
D03*
X01031663Y02227500D02*
D03*
X01048663Y02200500D02*
D03*
X01069663Y02235500D02*
D03*
X01031663Y02189500D02*
D03*
X01032663Y02162500D02*
D03*
X01065663Y02157500D02*
D03*
X01061663Y02113500D02*
D03*
X01104663Y02112500D02*
D03*
X01148663Y02179500D02*
D03*
X01137663Y02106500D02*
D03*
Y02118500D02*
D03*
X01140663Y02146500D02*
D03*
X01118663Y02161500D02*
D03*
X00901663Y02064500D02*
D03*
X00884663Y02066500D02*
D03*
X00870663Y02058500D02*
D03*
X00882663Y02172500D02*
D03*
X00851663Y02132500D02*
D03*
X00767663Y02198500D02*
D03*
X01340413Y02622250D02*
D03*
X01373663Y02668500D02*
D03*
X01361663D02*
D03*
X01306663Y02664500D02*
D03*
Y02700500D02*
D03*
X01281661Y02488499D02*
D03*
X01254663Y02422500D02*
D03*
X01256663Y02476500D02*
D03*
X01266663Y02472500D02*
D03*
X01257663Y02305500D02*
D03*
X01243663Y02316500D02*
D03*
X01054663Y02251500D02*
D03*
X01193663Y02482500D02*
D03*
X01220663D02*
D03*
X00987663Y02153500D02*
D03*
X01014663Y02151500D02*
D03*
X01296663Y02329500D02*
D03*
X01120663Y02360500D02*
D03*
X01225663Y02253500D02*
D03*
X01245163Y02216000D02*
D03*
X01317663Y02476500D02*
D03*
X01297663D02*
D03*
X01140663Y02258500D02*
D03*
X01213663Y02344500D02*
D03*
X01245663Y02227500D02*
D03*
X01232663Y02262500D02*
D03*
X01123663Y02242500D02*
D03*
X01311663Y02236500D02*
D03*
X01318663Y02278500D02*
D03*
X01314663Y02314500D02*
D03*
X01341163Y02344000D02*
D03*
X01418663Y02378500D02*
D03*
X01168663Y02218500D02*
D03*
X01158663Y02248500D02*
D03*
X01160663Y02078500D02*
D03*
X01138663Y02058500D02*
D03*
X01068663Y02020500D02*
D03*
X00998663Y02028500D02*
D03*
X00968913Y02053000D02*
D03*
X00916163Y02073000D02*
D03*
X00958663Y02148500D02*
D03*
X00968663Y02188500D02*
D03*
X01086663Y02273500D02*
D03*
X01117663Y02292500D02*
D03*
X01090663Y02321500D02*
D03*
X01129663Y02322500D02*
D03*
X01153663D02*
D03*
X01128663Y02393500D02*
D03*
X01060663Y02296500D02*
D03*
X01014663Y02314500D02*
D03*
Y02296500D02*
D03*
Y02336500D02*
D03*
X01001663Y02355500D02*
D03*
X01008663Y02386500D02*
D03*
X01039663Y02322500D02*
D03*
X01177663Y02289500D02*
D03*
X01214663Y02290500D02*
D03*
X01202663Y02322500D02*
D03*
X01250663Y02383500D02*
D03*
X01207663Y02204500D02*
D03*
X01131663Y02195500D02*
D03*
X00992663Y02274500D02*
D03*
X00978663Y02363500D02*
D03*
Y02321500D02*
D03*
X01318663Y02489500D02*
D03*
X01380663Y02337500D02*
D03*
X01402663Y02356500D02*
D03*
X01108413Y02032250D02*
D03*
X01318163Y02508750D02*
D03*
X01082913Y02038250D02*
D03*
X01093413Y02048500D02*
D03*
X01127663Y02055000D02*
D03*
X01119663Y02043500D02*
D03*
X01097163Y02021250D02*
D03*
D67*
X01353663Y02597500D02*
D03*
X01364663D02*
D03*
X01375663D02*
D03*
X01353663Y02586500D02*
D03*
Y02608500D02*
D03*
X01364663Y02586500D02*
D03*
Y02608500D02*
D03*
X01375663Y02586500D02*
D03*
Y02608500D02*
D03*
X01094663Y02197500D02*
D03*
X01104663Y02190500D02*
D03*
Y02204500D02*
D03*
X01084663Y02204500D02*
D03*
Y02190500D02*
D03*
X01094663Y02183500D02*
D03*
Y02211500D02*
D03*
X01084663Y02218500D02*
D03*
X01104663Y02218500D02*
D03*
X01084663Y02176500D02*
D03*
X01104663Y02176500D02*
D03*
D68*
X00950663Y02423500D02*
D03*
X00573663Y02041500D02*
D03*
X00768663Y02157500D02*
D03*
X01018663Y02410500D02*
D03*
X01015663Y02375500D02*
D03*
M02*
