G04 Layer_Physical_Order=1*
G04 Layer_Color=255*
%FSLAX43Y43*%
%MOMM*%
G71*
G01*
G75*
G04:AMPARAMS|DCode=10|XSize=1.3mm|YSize=0.8mm|CornerRadius=0.1mm|HoleSize=0mm|Usage=FLASHONLY|Rotation=180.000|XOffset=0mm|YOffset=0mm|HoleType=Round|Shape=RoundedRectangle|*
%AMROUNDEDRECTD10*
21,1,1.300,0.600,0,0,180.0*
21,1,1.100,0.800,0,0,180.0*
1,1,0.200,-0.550,0.300*
1,1,0.200,0.550,0.300*
1,1,0.200,0.550,-0.300*
1,1,0.200,-0.550,-0.300*
%
%ADD10ROUNDEDRECTD10*%
G04:AMPARAMS|DCode=11|XSize=1.27mm|YSize=1.27mm|CornerRadius=0.159mm|HoleSize=0mm|Usage=FLASHONLY|Rotation=180.000|XOffset=0mm|YOffset=0mm|HoleType=Round|Shape=RoundedRectangle|*
%AMROUNDEDRECTD11*
21,1,1.270,0.953,0,0,180.0*
21,1,0.953,1.270,0,0,180.0*
1,1,0.318,-0.476,0.476*
1,1,0.318,0.476,0.476*
1,1,0.318,0.476,-0.476*
1,1,0.318,-0.476,-0.476*
%
%ADD11ROUNDEDRECTD11*%
G04:AMPARAMS|DCode=12|XSize=1.4mm|YSize=1mm|CornerRadius=0.125mm|HoleSize=0mm|Usage=FLASHONLY|Rotation=180.000|XOffset=0mm|YOffset=0mm|HoleType=Round|Shape=RoundedRectangle|*
%AMROUNDEDRECTD12*
21,1,1.400,0.750,0,0,180.0*
21,1,1.150,1.000,0,0,180.0*
1,1,0.250,-0.575,0.375*
1,1,0.250,0.575,0.375*
1,1,0.250,0.575,-0.375*
1,1,0.250,-0.575,-0.375*
%
%ADD12ROUNDEDRECTD12*%
%ADD13C,1.500*%
%ADD14C,2.000*%
%ADD15C,1.000*%
%ADD16R,1.500X1.500*%
%ADD17C,1.500*%
%ADD18R,1.500X1.500*%
%ADD19C,4.000*%
%ADD20O,4.000X3.000*%
G36*
X71755Y78740D02*
X41910D01*
Y100711D01*
X71755D01*
Y78740D01*
D02*
G37*
G36*
Y55626D02*
X71628Y55499D01*
X41910D01*
Y77343D01*
X42037Y77470D01*
X71755D01*
Y55626D01*
D02*
G37*
%LPC*%
G36*
X45085Y99001D02*
Y96876D01*
X47210D01*
X47179Y97190D01*
X47050Y97615D01*
X46841Y98007D01*
X46560Y98350D01*
X46216Y98632D01*
X45825Y98841D01*
X45400Y98970D01*
X45085Y99001D01*
D02*
G37*
G36*
X66964Y86489D02*
X66087D01*
Y85612D01*
X66964D01*
Y86489D01*
D02*
G37*
G36*
Y85358D02*
X66087D01*
Y84481D01*
X66964D01*
Y85358D01*
D02*
G37*
G36*
X44831Y96622D02*
X42706D01*
X42737Y96307D01*
X42866Y95882D01*
X43075Y95490D01*
X43356Y95147D01*
X43700Y94865D01*
X44091Y94656D01*
X44516Y94527D01*
X44831Y94496D01*
Y96622D01*
D02*
G37*
G36*
X50165Y90423D02*
X49717D01*
X49569Y90394D01*
X49444Y90310D01*
X49360Y90185D01*
X49331Y90037D01*
Y89789D01*
X50165D01*
Y90423D01*
D02*
G37*
G36*
X47210Y96622D02*
X45085D01*
Y94496D01*
X45400Y94527D01*
X45825Y94656D01*
X45923Y94708D01*
X49221Y91410D01*
X49378Y91289D01*
X49562Y91213D01*
X49759Y91187D01*
X51795D01*
X51804Y91174D01*
X51817Y91165D01*
Y90423D01*
X51816Y90423D01*
X50872D01*
X50867Y90423D01*
X50419D01*
Y89662D01*
X50292D01*
Y89535D01*
X49331D01*
Y89287D01*
X49360Y89139D01*
X49392Y89091D01*
Y88433D01*
X49360Y88385D01*
X49331Y88237D01*
Y87487D01*
X49360Y87339D01*
X49444Y87214D01*
X49569Y87130D01*
X49717Y87101D01*
X50034D01*
X50184Y87038D01*
X50381Y87012D01*
X53753D01*
X53806Y86885D01*
X53691Y86771D01*
X53570Y86613D01*
X53494Y86430D01*
X53468Y86233D01*
Y85713D01*
X53225D01*
Y83705D01*
X55233D01*
Y83948D01*
X56200D01*
X57024Y83124D01*
Y81534D01*
X57050Y81337D01*
X57126Y81154D01*
X57247Y80996D01*
X58296Y79947D01*
X58454Y79826D01*
X58637Y79750D01*
X58834Y79724D01*
X59956D01*
Y79481D01*
X61964D01*
Y79724D01*
X64956D01*
Y79481D01*
X66964D01*
Y81489D01*
X64956D01*
Y81246D01*
X61964D01*
Y81489D01*
X59956D01*
Y81246D01*
X59149D01*
X58546Y81849D01*
Y83439D01*
X58520Y83636D01*
X58444Y83819D01*
X58323Y83977D01*
X57053Y85247D01*
X56895Y85368D01*
X56712Y85444D01*
X56515Y85470D01*
X55233D01*
Y85713D01*
X54990D01*
Y85918D01*
X55148Y86076D01*
X55269Y86234D01*
X55300Y86310D01*
X55345Y86417D01*
X55371Y86614D01*
Y87188D01*
X55415Y87218D01*
X55493Y87335D01*
X55521Y87473D01*
Y88073D01*
X55493Y88211D01*
X55460Y88261D01*
Y89285D01*
X55493Y89335D01*
X55521Y89473D01*
Y90073D01*
X55493Y90211D01*
X55415Y90328D01*
X55371Y90358D01*
Y91424D01*
X55380Y91472D01*
Y92424D01*
X55348Y92585D01*
X55257Y92722D01*
X55120Y92813D01*
X54959Y92845D01*
X54007D01*
X53846Y92813D01*
X53709Y92722D01*
X53701Y92710D01*
X53360D01*
X53352Y92722D01*
X53339Y92731D01*
Y93538D01*
X53655Y93854D01*
X57978D01*
X60199Y91633D01*
Y86489D01*
X59956D01*
Y85612D01*
X60960D01*
Y85485D01*
X61087D01*
Y84481D01*
X61964D01*
Y84724D01*
X64956D01*
Y84481D01*
X65833D01*
Y85485D01*
Y86489D01*
X64956D01*
Y86246D01*
X61964D01*
Y86489D01*
X61721D01*
Y91948D01*
X61695Y92145D01*
X61650Y92252D01*
X61619Y92328D01*
X61498Y92486D01*
X58831Y95153D01*
X58673Y95274D01*
X58490Y95350D01*
X58293Y95376D01*
X53340D01*
X53143Y95350D01*
X53036Y95305D01*
X52960Y95274D01*
X52802Y95153D01*
X52040Y94391D01*
X51919Y94233D01*
X51843Y94050D01*
X51817Y93853D01*
Y92731D01*
X51804Y92722D01*
X51795Y92709D01*
X50074D01*
X46998Y95784D01*
X47050Y95882D01*
X47179Y96307D01*
X47210Y96622D01*
D02*
G37*
G36*
X44831Y99001D02*
X44516Y98970D01*
X44091Y98841D01*
X43700Y98632D01*
X43356Y98350D01*
X43075Y98007D01*
X42866Y97615D01*
X42737Y97190D01*
X42706Y96876D01*
X44831D01*
Y99001D01*
D02*
G37*
G36*
X60833Y85358D02*
X59956D01*
Y84481D01*
X60833D01*
Y85358D01*
D02*
G37*
G36*
X44958Y83545D02*
X44516Y83501D01*
X44091Y83372D01*
X43700Y83163D01*
X43356Y82882D01*
X43075Y82538D01*
X42866Y82147D01*
X42737Y81722D01*
X42693Y81280D01*
X42737Y80838D01*
X42866Y80413D01*
X43075Y80022D01*
X43356Y79678D01*
X43700Y79397D01*
X44091Y79188D01*
X44516Y79059D01*
X44958Y79015D01*
X45400Y79059D01*
X45825Y79188D01*
X46216Y79397D01*
X46560Y79678D01*
X46841Y80022D01*
X47050Y80413D01*
X47083Y80519D01*
X50292D01*
X50489Y80545D01*
X50672Y80621D01*
X50830Y80742D01*
X51496Y81408D01*
X53571D01*
X53723Y81292D01*
X53967Y81191D01*
X54229Y81156D01*
X54491Y81191D01*
X54735Y81292D01*
X54945Y81453D01*
X55106Y81663D01*
X55207Y81907D01*
X55242Y82169D01*
X55207Y82431D01*
X55106Y82675D01*
X54945Y82885D01*
X54735Y83046D01*
X54491Y83147D01*
X54229Y83182D01*
X53967Y83147D01*
X53723Y83046D01*
X53571Y82930D01*
X51181D01*
X50984Y82904D01*
X50801Y82828D01*
X50643Y82707D01*
X49977Y82041D01*
X47083D01*
X47050Y82147D01*
X46841Y82538D01*
X46560Y82882D01*
X46216Y83163D01*
X45825Y83372D01*
X45400Y83501D01*
X44958Y83545D01*
D02*
G37*
G36*
X44831Y77309D02*
X44516Y77278D01*
X44091Y77149D01*
X43700Y76940D01*
X43356Y76659D01*
X43075Y76315D01*
X42866Y75924D01*
X42737Y75499D01*
X42706Y75184D01*
X44831D01*
Y77309D01*
D02*
G37*
G36*
X66964Y75358D02*
X66087D01*
Y74481D01*
X66964D01*
Y75358D01*
D02*
G37*
G36*
Y76489D02*
X66087D01*
Y75612D01*
X66964D01*
Y76489D01*
D02*
G37*
G36*
X45085Y77309D02*
Y75184D01*
X47210D01*
X47179Y75499D01*
X47050Y75924D01*
X46841Y76315D01*
X46560Y76659D01*
X46216Y76940D01*
X45825Y77149D01*
X45400Y77278D01*
X45085Y77309D01*
D02*
G37*
G36*
X44831Y74930D02*
X42706D01*
X42737Y74615D01*
X42866Y74190D01*
X43075Y73799D01*
X43356Y73455D01*
X43700Y73174D01*
X44091Y72965D01*
X44516Y72836D01*
X44831Y72805D01*
Y74930D01*
D02*
G37*
G36*
X54229Y61973D02*
X53967Y61938D01*
X53723Y61837D01*
X53571Y61721D01*
X50927D01*
X50730Y61695D01*
X50623Y61650D01*
X50547Y61619D01*
X50389Y61498D01*
X49240Y60349D01*
X47083D01*
X47050Y60455D01*
X46841Y60847D01*
X46560Y61190D01*
X46216Y61472D01*
X45825Y61681D01*
X45400Y61810D01*
X44958Y61853D01*
X44516Y61810D01*
X44091Y61681D01*
X43700Y61472D01*
X43356Y61190D01*
X43075Y60847D01*
X42866Y60455D01*
X42737Y60030D01*
X42693Y59588D01*
X42737Y59147D01*
X42866Y58722D01*
X43075Y58330D01*
X43356Y57987D01*
X43700Y57705D01*
X44091Y57496D01*
X44516Y57367D01*
X44958Y57323D01*
X45400Y57367D01*
X45825Y57496D01*
X46216Y57705D01*
X46560Y57987D01*
X46841Y58330D01*
X47050Y58722D01*
X47083Y58828D01*
X49555D01*
X49752Y58854D01*
X49806Y58876D01*
X49936Y58930D01*
X50093Y59051D01*
X51242Y60199D01*
X53571D01*
X53723Y60083D01*
X53967Y59982D01*
X54229Y59947D01*
X54491Y59982D01*
X54735Y60083D01*
X54945Y60244D01*
X55106Y60454D01*
X55207Y60698D01*
X55242Y60960D01*
X55207Y61222D01*
X55106Y61466D01*
X54945Y61676D01*
X54735Y61837D01*
X54491Y61938D01*
X54229Y61973D01*
D02*
G37*
G36*
X60833Y76489D02*
X59956D01*
Y76246D01*
X54784D01*
X54587Y76220D01*
X54480Y76175D01*
X54404Y76144D01*
X54246Y76023D01*
X52231Y74007D01*
X52110Y73850D01*
X52056Y73720D01*
X52034Y73666D01*
X52008Y73469D01*
Y71395D01*
X51995Y71386D01*
X51986Y71373D01*
X49718D01*
X46998Y74092D01*
X47050Y74190D01*
X47179Y74615D01*
X47210Y74930D01*
X45085D01*
Y72805D01*
X45400Y72836D01*
X45825Y72965D01*
X45923Y73017D01*
X48865Y70074D01*
X49023Y69953D01*
X49152Y69900D01*
X49206Y69877D01*
X49403Y69851D01*
X51986D01*
X51995Y69838D01*
X52008Y69829D01*
Y69236D01*
X50999D01*
X50994Y69236D01*
X50546D01*
Y68475D01*
X50419D01*
Y68348D01*
X49458D01*
Y68100D01*
X49487Y67952D01*
X49519Y67904D01*
Y67246D01*
X49487Y67198D01*
X49458Y67050D01*
Y66300D01*
X49487Y66152D01*
X49571Y66027D01*
X49696Y65943D01*
X49844Y65914D01*
X50994D01*
X50999Y65914D01*
X51943D01*
X52003Y65903D01*
X53153D01*
X53213Y65914D01*
X53468D01*
Y64504D01*
X53225D01*
Y62496D01*
X55233D01*
Y64504D01*
X54990D01*
Y65757D01*
X55052Y65819D01*
X59849D01*
X60046Y65845D01*
X60100Y65868D01*
X60229Y65921D01*
X60387Y66042D01*
X61498Y67153D01*
X61619Y67311D01*
X61672Y67440D01*
X61695Y67494D01*
X61721Y67691D01*
Y69481D01*
X61964D01*
Y69724D01*
X64956D01*
Y69481D01*
X66964D01*
Y71489D01*
X64956D01*
Y71246D01*
X61964D01*
Y71489D01*
X59956D01*
Y69481D01*
X60199D01*
Y68006D01*
X59534Y67341D01*
X55587D01*
Y68092D01*
X55620Y68142D01*
X55648Y68280D01*
Y68880D01*
X55620Y69018D01*
X55542Y69135D01*
X55498Y69165D01*
Y69913D01*
X55539Y69975D01*
X55571Y70136D01*
Y71088D01*
X55539Y71249D01*
X55447Y71386D01*
X55311Y71477D01*
X55150Y71509D01*
X54197D01*
X54036Y71477D01*
X53900Y71386D01*
X53892Y71374D01*
X53550D01*
X53542Y71386D01*
X53529Y71395D01*
Y73154D01*
X55099Y74724D01*
X59956D01*
Y74481D01*
X60833D01*
Y75485D01*
Y76489D01*
D02*
G37*
G36*
X50292Y69236D02*
X49844D01*
X49696Y69207D01*
X49571Y69123D01*
X49487Y68998D01*
X49458Y68850D01*
Y68602D01*
X50292D01*
Y69236D01*
D02*
G37*
G36*
X65833Y76489D02*
X64956D01*
Y76246D01*
X61964D01*
Y76489D01*
X61087D01*
Y75485D01*
Y74481D01*
X61964D01*
Y74724D01*
X64956D01*
Y74481D01*
X65833D01*
Y75485D01*
Y76489D01*
D02*
G37*
%LPD*%
D10*
X54610Y89773D02*
D03*
Y87773D02*
D03*
X54737Y68580D02*
D03*
Y66580D02*
D03*
D11*
X54483Y91948D02*
D03*
X52578D02*
D03*
X54674Y70612D02*
D03*
X52769D02*
D03*
D12*
X50419Y66675D02*
D03*
Y68475D02*
D03*
X52578Y66664D02*
D03*
Y68464D02*
D03*
X50292Y87862D02*
D03*
Y89662D02*
D03*
X52451Y87873D02*
D03*
Y89673D02*
D03*
D13*
X3382Y67738D02*
Y70565D01*
X8382D01*
X9605D01*
X3382Y85565D02*
X8382D01*
X9605Y70565D02*
X15545Y76505D01*
X3382Y85565D02*
Y88091D01*
X6807Y91516D01*
X15545D01*
X3382Y67738D02*
X6299Y64821D01*
X15545D01*
Y76505D02*
Y86512D01*
D14*
Y69825D02*
X18771D01*
X22352Y73406D01*
X15545Y91516D02*
X19101D01*
X22352Y88265D01*
Y73406D02*
Y88265D01*
D15*
X49759Y91948D02*
X52578D01*
X44958Y96749D02*
X49759Y91948D01*
X54610Y89773D02*
Y91821D01*
X54483Y91948D02*
X54610Y91821D01*
X50292Y87862D02*
X50381Y87773D01*
X50292Y89662D02*
X52440D01*
X52578Y89800D02*
Y91948D01*
X52440Y89662D02*
X52451Y89673D01*
X52578Y89800D01*
X54610Y86614D02*
Y87773D01*
X54229Y86233D02*
X54610Y86614D01*
X54229Y84709D02*
Y86233D01*
X51181Y82169D02*
X54229D01*
X50292Y81280D02*
X51181Y82169D01*
X44958Y81280D02*
X50292D01*
X52578Y91948D02*
Y93853D01*
X53340Y94615D01*
X58293D01*
X60960Y91948D01*
Y85485D02*
Y91948D01*
Y85485D02*
X65960D01*
X50419Y68475D02*
X52567D01*
X52769Y68676D02*
Y70612D01*
X49403D02*
X52769D01*
X44958Y75057D02*
X49403Y70612D01*
X54784Y75485D02*
X60960D01*
X52769Y73469D02*
X54784Y75485D01*
X52769Y70612D02*
Y73469D01*
X54737Y68580D02*
Y70549D01*
X54674Y70612D02*
X54737Y70549D01*
X54642Y66675D02*
X54737Y66580D01*
X60960Y67691D02*
Y70485D01*
X59849Y66580D02*
X60960Y67691D01*
X54737Y66580D02*
X59849D01*
X54229Y63500D02*
Y66072D01*
X54737Y66580D01*
X50927Y60960D02*
X54229D01*
X49555Y59588D02*
X50927Y60960D01*
X44958Y59588D02*
X49555D01*
X54229Y84709D02*
X56515D01*
X57785Y83439D01*
Y81534D02*
Y83439D01*
Y81534D02*
X58834Y80485D01*
X60960D01*
X65960D01*
X50381Y87773D02*
X54610D01*
X60960Y75485D02*
X65960D01*
X60960Y70485D02*
X65960D01*
X50419Y66675D02*
X54642D01*
X52567Y68475D02*
X52769Y68676D01*
D16*
X60960Y85485D02*
D03*
X65960D02*
D03*
Y80485D02*
D03*
X60960D02*
D03*
Y75485D02*
D03*
X65960D02*
D03*
X60960Y70485D02*
D03*
X65960D02*
D03*
X3382Y85565D02*
D03*
X8382D02*
D03*
Y80565D02*
D03*
X3382D02*
D03*
Y75565D02*
D03*
X8382D02*
D03*
X3382Y70565D02*
D03*
X8382D02*
D03*
D17*
X54229Y82169D02*
D03*
Y60960D02*
D03*
D18*
Y84709D02*
D03*
Y63500D02*
D03*
D19*
X44958Y96749D02*
D03*
Y81280D02*
D03*
Y75057D02*
D03*
Y59588D02*
D03*
D20*
X15545Y86512D02*
D03*
Y91516D02*
D03*
Y64821D02*
D03*
Y69825D02*
D03*
M02*
