%FSLAX23Y23*%
%MOIN*%
G70*
G01*
G75*
G04 Layer_Color=65535*
%ADD10R,0.050X0.050*%
%ADD11C,0.040*%
%ADD12R,0.085X0.138*%
%ADD13R,0.085X0.043*%
%ADD14R,0.085X0.043*%
%ADD15R,0.060X0.086*%
%ADD16R,0.035X0.037*%
%ADD17R,0.035X0.037*%
%ADD18R,0.050X0.050*%
%ADD19O,0.098X0.028*%
%ADD20R,0.135X0.070*%
%ADD21R,0.228X0.228*%
%ADD22O,0.008X0.033*%
%ADD23O,0.033X0.008*%
%ADD24R,0.070X0.135*%
%ADD25R,0.138X0.085*%
%ADD26R,0.043X0.085*%
%ADD27R,0.043X0.085*%
%ADD28R,0.031X0.060*%
%ADD29R,0.014X0.060*%
%ADD30R,0.030X0.100*%
%ADD31R,0.048X0.078*%
%ADD32R,0.100X0.100*%
%ADD33O,0.010X0.061*%
%ADD34O,0.061X0.010*%
%ADD35O,0.024X0.087*%
%ADD36R,0.045X0.017*%
%ADD37R,0.028X0.036*%
%ADD38R,0.036X0.036*%
%ADD39R,0.087X0.024*%
%ADD40R,0.036X0.036*%
%ADD41C,0.010*%
%ADD42C,0.005*%
%ADD43C,0.020*%
%ADD44C,0.007*%
%ADD45C,0.012*%
%ADD46R,1.181X0.787*%
%ADD47C,0.012*%
%ADD48C,0.012*%
%ADD49C,0.236*%
%ADD50C,0.050*%
%ADD51C,0.020*%
%ADD52C,0.026*%
%ADD53R,0.059X0.059*%
%ADD54C,0.059*%
%ADD55C,0.024*%
%ADD56C,0.040*%
%ADD57C,0.030*%
%ADD58C,0.033*%
%ADD59C,0.055*%
G04:AMPARAMS|DCode=60|XSize=70mil|YSize=70mil|CornerRadius=0mil|HoleSize=0mil|Usage=FLASHONLY|Rotation=0.000|XOffset=0mil|YOffset=0mil|HoleType=Round|Shape=Relief|Width=10mil|Gap=10mil|Entries=4|*
%AMTHD60*
7,0,0,0.070,0.050,0.010,45*
%
%ADD60THD60*%
%ADD61R,0.094X0.102*%
%ADD62O,0.087X0.024*%
%ADD63R,0.078X0.048*%
%ADD64O,0.028X0.098*%
%ADD65R,0.075X0.063*%
%ADD66R,1.181X0.787*%
%ADD67C,0.010*%
%ADD68C,0.010*%
%ADD69C,0.008*%
%ADD70C,0.024*%
%ADD71C,0.008*%
%ADD72C,0.006*%
%ADD73R,0.240X0.165*%
D41*
X20757Y11404D02*
Y12281D01*
X18198Y11404D02*
Y11930D01*
X19612Y11414D02*
X20757D01*
X18198D02*
X19311D01*
X20697Y11434D02*
X20757Y11414D01*
X20697Y11394D02*
X20757Y11414D01*
X18198D02*
X18258Y11394D01*
X18198Y11414D02*
X18258Y11434D01*
X19807Y12321D02*
X21776D01*
X19559D02*
Y12474D01*
X19228Y12321D02*
Y12537D01*
X19110Y12222D02*
Y12537D01*
X19532Y11947D02*
Y12222D01*
X19480Y11947D02*
Y12222D01*
X19244Y11947D02*
Y12222D01*
X19480D02*
X19532D01*
X19110Y12537D02*
X19228D01*
X19110Y12222D02*
X19244D01*
X19559Y12474D02*
X20803D01*
X19228Y12321D02*
X19559D01*
X19244Y11947D02*
X19480D01*
X19532D02*
X20803D01*
X20713D02*
X21984D01*
X22036D02*
X22272D01*
X21957Y12321D02*
X22287D01*
X20713Y12474D02*
X21957D01*
X22272Y12222D02*
X22406D01*
X22287Y12537D02*
X22406D01*
X21984Y12222D02*
X22036D01*
X22272Y11947D02*
Y12222D01*
X22036Y11947D02*
Y12222D01*
X21984Y11947D02*
Y12222D01*
X22406D02*
Y12537D01*
X22287Y12321D02*
Y12537D01*
X21957Y12321D02*
Y12474D01*
X20163Y12860D02*
X20203D01*
Y12850D01*
X20163Y12810D01*
Y12800D01*
X20223Y12850D02*
X20233Y12860D01*
X20253D01*
X20263Y12850D01*
Y12840D01*
X20253Y12830D01*
X20263Y12820D01*
Y12810D01*
X20253Y12800D01*
X20233D01*
X20223Y12810D01*
Y12820D01*
X20233Y12830D01*
X20223Y12840D01*
Y12850D01*
X20233Y12830D02*
X20253D01*
X20283Y12850D02*
X20293Y12860D01*
X20313D01*
X20323Y12850D01*
Y12810D01*
X20313Y12800D01*
X20293D01*
X20283Y12810D01*
Y12850D01*
X20343Y12830D02*
X20383D01*
X20403Y12850D02*
X20413Y12860D01*
X20433D01*
X20443Y12850D01*
Y12810D01*
X20433Y12800D01*
X20413D01*
X20403Y12810D01*
Y12850D01*
X20463D02*
X20473Y12860D01*
X20493D01*
X20503Y12850D01*
Y12810D01*
X20493Y12800D01*
X20473D01*
X20463Y12810D01*
Y12850D01*
X20523D02*
X20533Y12860D01*
X20553D01*
X20563Y12850D01*
Y12810D01*
X20553Y12800D01*
X20533D01*
X20523Y12810D01*
Y12850D01*
X20583D02*
X20593Y12860D01*
X20613D01*
X20623Y12850D01*
Y12810D01*
X20613Y12800D01*
X20593D01*
X20583Y12810D01*
Y12850D01*
X20683Y12800D02*
X20643D01*
X20683Y12840D01*
Y12850D01*
X20673Y12860D01*
X20653D01*
X20643Y12850D01*
X20199Y12697D02*
X20189Y12707D01*
X20169D01*
X20159Y12697D01*
Y12687D01*
X20169Y12677D01*
X20189D01*
X20199Y12667D01*
Y12657D01*
X20189Y12647D01*
X20169D01*
X20159Y12657D01*
X20259Y12697D02*
X20249Y12707D01*
X20229D01*
X20219Y12697D01*
Y12657D01*
X20229Y12647D01*
X20249D01*
X20259Y12657D01*
X20279Y12707D02*
Y12647D01*
Y12677D01*
X20319D01*
Y12707D01*
Y12647D01*
X20399D02*
Y12707D01*
X20429D01*
X20439Y12697D01*
Y12677D01*
X20429Y12667D01*
X20399D01*
X20419D02*
X20439Y12647D01*
X20489D02*
X20469D01*
X20459Y12657D01*
Y12677D01*
X20469Y12687D01*
X20489D01*
X20499Y12677D01*
Y12667D01*
X20459D01*
X20519Y12687D02*
X20539Y12647D01*
X20559Y12687D01*
D42*
X23230Y13338D02*
X23225Y13343D01*
X23215D01*
X23210Y13338D01*
Y13318D01*
X23215Y13313D01*
X23225D01*
X23230Y13318D01*
X23255Y13313D02*
Y13343D01*
X23240Y13328D01*
X23260D01*
X23270Y13343D02*
X23290D01*
Y13338D01*
X23270Y13318D01*
Y13313D01*
X23829Y13187D02*
X23834Y13192D01*
Y13202D01*
X23829Y13207D01*
X23809D01*
X23805Y13202D01*
Y13192D01*
X23809Y13187D01*
X23805Y13162D02*
X23834D01*
X23819Y13177D01*
Y13157D01*
X23834Y13127D02*
Y13147D01*
X23819D01*
X23824Y13137D01*
Y13132D01*
X23819Y13127D01*
X23809D01*
X23805Y13132D01*
Y13142D01*
X23809Y13147D01*
X23829Y13911D02*
Y13941D01*
X23844D01*
X23849Y13936D01*
Y13926D01*
X23844Y13921D01*
X23829D01*
X23839D02*
X23849Y13911D01*
X23879D02*
X23859D01*
X23879Y13931D01*
Y13936D01*
X23874Y13941D01*
X23864D01*
X23859Y13936D01*
X23909Y13941D02*
X23899Y13936D01*
X23889Y13926D01*
Y13916D01*
X23894Y13911D01*
X23904D01*
X23909Y13916D01*
Y13921D01*
X23904Y13926D01*
X23889D01*
X21167Y13092D02*
Y13067D01*
X21172Y13062D01*
X21182D01*
X21187Y13067D01*
Y13092D01*
X21217Y13062D02*
X21197D01*
X21217Y13082D01*
Y13087D01*
X21212Y13092D01*
X21202D01*
X21197Y13087D01*
X21227Y13062D02*
Y13092D01*
X21247Y13062D01*
Y13092D01*
X20281D02*
Y13067D01*
X20286Y13062D01*
X20296D01*
X20301Y13067D01*
Y13092D01*
X20331Y13062D02*
X20311D01*
X20331Y13082D01*
Y13087D01*
X20326Y13092D01*
X20316D01*
X20311Y13087D01*
X20341Y13062D02*
Y13092D01*
X20351Y13082D01*
X20361Y13092D01*
Y13062D01*
X20281Y13663D02*
Y13638D01*
X20286Y13633D01*
X20296D01*
X20301Y13638D01*
Y13663D01*
X20331Y13633D02*
X20311D01*
X20331Y13653D01*
Y13658D01*
X20326Y13663D01*
X20316D01*
X20311Y13658D01*
X20341Y13663D02*
Y13633D01*
Y13648D01*
X20361D01*
Y13663D01*
Y13633D01*
X19395Y13663D02*
Y13638D01*
X19400Y13633D01*
X19410D01*
X19415Y13638D01*
Y13663D01*
X19445Y13633D02*
X19425D01*
X19445Y13653D01*
Y13658D01*
X19440Y13663D01*
X19430D01*
X19425Y13658D01*
X19475D02*
X19470Y13663D01*
X19460D01*
X19455Y13658D01*
Y13638D01*
X19460Y13633D01*
X19470D01*
X19475Y13638D01*
Y13648D01*
X19465D01*
X21541Y13407D02*
Y13382D01*
X21546Y13377D01*
X21556D01*
X21561Y13382D01*
Y13407D01*
X21571Y13377D02*
X21581D01*
X21576D01*
Y13407D01*
X21571Y13402D01*
X21596Y13377D02*
Y13407D01*
X21616Y13377D01*
Y13407D01*
X20655D02*
Y13382D01*
X20660Y13377D01*
X20670D01*
X20675Y13382D01*
Y13407D01*
X20685Y13377D02*
X20695D01*
X20690D01*
Y13407D01*
X20685Y13402D01*
X20710Y13377D02*
Y13407D01*
X20720Y13397D01*
X20730Y13407D01*
Y13377D01*
X20655Y13978D02*
Y13953D01*
X20660Y13948D01*
X20670D01*
X20675Y13953D01*
Y13978D01*
X20685Y13948D02*
X20695D01*
X20690D01*
Y13978D01*
X20685Y13973D01*
X20710Y13978D02*
Y13948D01*
Y13963D01*
X20730D01*
Y13978D01*
Y13948D01*
X19769Y13978D02*
Y13953D01*
X19774Y13948D01*
X19784D01*
X19789Y13953D01*
Y13978D01*
X19799Y13948D02*
X19809D01*
X19804D01*
Y13978D01*
X19799Y13973D01*
X19844D02*
X19839Y13978D01*
X19829D01*
X19824Y13973D01*
Y13953D01*
X19829Y13948D01*
X19839D01*
X19844Y13953D01*
Y13963D01*
X19834D01*
X21112Y13411D02*
X21132D01*
X21122D01*
Y13381D01*
X21142D02*
Y13411D01*
X21157D01*
X21162Y13406D01*
Y13396D01*
X21157Y13391D01*
X21142D01*
X21172Y13406D02*
X21177Y13411D01*
X21187D01*
X21192Y13406D01*
Y13401D01*
X21187Y13396D01*
X21182D01*
X21187D01*
X21192Y13391D01*
Y13386D01*
X21187Y13381D01*
X21177D01*
X21172Y13386D01*
X21202Y13381D02*
Y13411D01*
X21222Y13381D01*
Y13411D01*
X20226D02*
X20246D01*
X20236D01*
Y13381D01*
X20256D02*
Y13411D01*
X20271D01*
X20276Y13406D01*
Y13396D01*
X20271Y13391D01*
X20256D01*
X20286Y13406D02*
X20291Y13411D01*
X20301D01*
X20306Y13406D01*
Y13401D01*
X20301Y13396D01*
X20296D01*
X20301D01*
X20306Y13391D01*
Y13386D01*
X20301Y13381D01*
X20291D01*
X20286Y13386D01*
X20316Y13381D02*
Y13411D01*
X20326Y13401D01*
X20336Y13411D01*
Y13381D01*
X20226Y13982D02*
X20246D01*
X20236D01*
Y13952D01*
X20256D02*
Y13982D01*
X20271D01*
X20276Y13977D01*
Y13967D01*
X20271Y13962D01*
X20256D01*
X20286Y13977D02*
X20291Y13982D01*
X20301D01*
X20306Y13977D01*
Y13972D01*
X20301Y13967D01*
X20296D01*
X20301D01*
X20306Y13962D01*
Y13957D01*
X20301Y13952D01*
X20291D01*
X20286Y13957D01*
X20316Y13982D02*
Y13952D01*
Y13967D01*
X20336D01*
Y13982D01*
Y13952D01*
X19340Y13982D02*
X19360D01*
X19350D01*
Y13952D01*
X19370D02*
Y13982D01*
X19385D01*
X19390Y13977D01*
Y13967D01*
X19385Y13962D01*
X19370D01*
X19400Y13977D02*
X19405Y13982D01*
X19415D01*
X19420Y13977D01*
Y13972D01*
X19415Y13967D01*
X19410D01*
X19415D01*
X19420Y13962D01*
Y13957D01*
X19415Y13952D01*
X19405D01*
X19400Y13957D01*
X19450Y13977D02*
X19445Y13982D01*
X19435D01*
X19430Y13977D01*
Y13957D01*
X19435Y13952D01*
X19445D01*
X19450Y13957D01*
Y13967D01*
X19440D01*
X21631Y13325D02*
Y13295D01*
X21651D01*
X21681D02*
X21661D01*
X21681Y13315D01*
Y13320D01*
X21676Y13325D01*
X21666D01*
X21661Y13320D01*
X21691Y13295D02*
Y13325D01*
X21711Y13295D01*
Y13325D01*
X20746D02*
Y13295D01*
X20766D01*
X20796D02*
X20776D01*
X20796Y13315D01*
Y13320D01*
X20791Y13325D01*
X20781D01*
X20776Y13320D01*
X20806Y13295D02*
Y13325D01*
X20816Y13315D01*
X20826Y13325D01*
Y13295D01*
X20746Y13896D02*
Y13866D01*
X20766D01*
X20796D02*
X20776D01*
X20796Y13886D01*
Y13891D01*
X20791Y13896D01*
X20781D01*
X20776Y13891D01*
X20806Y13896D02*
Y13866D01*
Y13881D01*
X20826D01*
Y13896D01*
Y13866D01*
X19860Y13896D02*
Y13866D01*
X19880D01*
X19910D02*
X19890D01*
X19910Y13886D01*
Y13891D01*
X19905Y13896D01*
X19895D01*
X19890Y13891D01*
X19940D02*
X19935Y13896D01*
X19925D01*
X19920Y13891D01*
Y13871D01*
X19925Y13866D01*
X19935D01*
X19940Y13871D01*
Y13881D01*
X19930D01*
X21068Y13132D02*
Y13102D01*
X21088D01*
X21098D02*
X21108D01*
X21103D01*
Y13132D01*
X21098Y13127D01*
X21123Y13102D02*
Y13132D01*
X21143Y13102D01*
Y13132D01*
X20183D02*
Y13102D01*
X20203D01*
X20213D02*
X20223D01*
X20218D01*
Y13132D01*
X20213Y13127D01*
X20238Y13102D02*
Y13132D01*
X20248Y13122D01*
X20258Y13132D01*
Y13102D01*
X20183Y13703D02*
Y13673D01*
X20203D01*
X20213D02*
X20223D01*
X20218D01*
Y13703D01*
X20213Y13698D01*
X20238Y13703D02*
Y13673D01*
Y13688D01*
X20258D01*
Y13703D01*
Y13673D01*
X19297Y13703D02*
Y13673D01*
X19317D01*
X19327D02*
X19337D01*
X19332D01*
Y13703D01*
X19327Y13698D01*
X19372D02*
X19367Y13703D01*
X19357D01*
X19352Y13698D01*
Y13678D01*
X19357Y13673D01*
X19367D01*
X19372Y13678D01*
Y13688D01*
X19362D01*
X21273Y13414D02*
X21268Y13419D01*
X21258D01*
X21253Y13414D01*
Y13394D01*
X21258Y13389D01*
X21268D01*
X21273Y13394D01*
X21298Y13389D02*
Y13419D01*
X21283Y13404D01*
X21303D01*
X21313Y13389D02*
Y13419D01*
X21333Y13389D01*
Y13419D01*
X20388Y13414D02*
X20383Y13419D01*
X20373D01*
X20368Y13414D01*
Y13394D01*
X20373Y13389D01*
X20383D01*
X20388Y13394D01*
X20413Y13389D02*
Y13419D01*
X20398Y13404D01*
X20418D01*
X20428Y13389D02*
Y13419D01*
X20438Y13409D01*
X20448Y13419D01*
Y13389D01*
X20388Y13985D02*
X20383Y13990D01*
X20373D01*
X20368Y13985D01*
Y13965D01*
X20373Y13960D01*
X20383D01*
X20388Y13965D01*
X20413Y13960D02*
Y13990D01*
X20398Y13975D01*
X20418D01*
X20428Y13990D02*
Y13960D01*
Y13975D01*
X20448D01*
Y13990D01*
Y13960D01*
X19502Y13985D02*
X19497Y13990D01*
X19487D01*
X19482Y13985D01*
Y13965D01*
X19487Y13960D01*
X19497D01*
X19502Y13965D01*
X19527Y13960D02*
Y13990D01*
X19512Y13975D01*
X19532D01*
X19562Y13985D02*
X19557Y13990D01*
X19547D01*
X19542Y13985D01*
Y13965D01*
X19547Y13960D01*
X19557D01*
X19562Y13965D01*
Y13975D01*
X19552D01*
X21420Y13421D02*
X21415Y13426D01*
X21405D01*
X21400Y13421D01*
Y13401D01*
X21405Y13396D01*
X21415D01*
X21420Y13401D01*
X21450Y13396D02*
X21430D01*
X21450Y13416D01*
Y13421D01*
X21445Y13426D01*
X21435D01*
X21430Y13421D01*
X21460Y13396D02*
Y13426D01*
X21480Y13396D01*
Y13426D01*
X20535Y13421D02*
X20530Y13426D01*
X20520D01*
X20515Y13421D01*
Y13401D01*
X20520Y13396D01*
X20530D01*
X20535Y13401D01*
X20565Y13396D02*
X20545D01*
X20565Y13416D01*
Y13421D01*
X20560Y13426D01*
X20550D01*
X20545Y13421D01*
X20575Y13396D02*
Y13426D01*
X20585Y13416D01*
X20595Y13426D01*
Y13396D01*
X20535Y13992D02*
X20530Y13997D01*
X20520D01*
X20515Y13992D01*
Y13972D01*
X20520Y13967D01*
X20530D01*
X20535Y13972D01*
X20565Y13967D02*
X20545D01*
X20565Y13987D01*
Y13992D01*
X20560Y13997D01*
X20550D01*
X20545Y13992D01*
X20575Y13997D02*
Y13967D01*
Y13982D01*
X20595D01*
Y13997D01*
Y13967D01*
X19649Y13992D02*
X19644Y13997D01*
X19634D01*
X19629Y13992D01*
Y13972D01*
X19634Y13967D01*
X19644D01*
X19649Y13972D01*
X19679Y13967D02*
X19659D01*
X19679Y13987D01*
Y13992D01*
X19674Y13997D01*
X19664D01*
X19659Y13992D01*
X19709D02*
X19704Y13997D01*
X19694D01*
X19689Y13992D01*
Y13972D01*
X19694Y13967D01*
X19704D01*
X19709Y13972D01*
Y13982D01*
X19699D01*
X22053Y13092D02*
Y13067D01*
X22058Y13062D01*
X22068D01*
X22073Y13067D01*
Y13092D01*
X22103Y13062D02*
X22083D01*
X22103Y13082D01*
Y13087D01*
X22098Y13092D01*
X22088D01*
X22083Y13087D01*
X22128Y13092D02*
X22118D01*
X22113Y13087D01*
Y13067D01*
X22118Y13062D01*
X22128D01*
X22133Y13067D01*
Y13087D01*
X22128Y13092D01*
X19395D02*
Y13067D01*
X19400Y13062D01*
X19410D01*
X19415Y13067D01*
Y13092D01*
X19445Y13062D02*
X19425D01*
X19445Y13082D01*
Y13087D01*
X19440Y13092D01*
X19430D01*
X19425Y13087D01*
X19455Y13092D02*
Y13062D01*
X19475D01*
X18509Y13092D02*
Y13067D01*
X18514Y13062D01*
X18524D01*
X18529Y13067D01*
Y13092D01*
X18559Y13062D02*
X18539D01*
X18559Y13082D01*
Y13087D01*
X18554Y13092D01*
X18544D01*
X18539Y13087D01*
X18569Y13092D02*
Y13062D01*
Y13072D01*
X18589Y13092D01*
X18574Y13077D01*
X18589Y13062D01*
X22053Y13663D02*
Y13638D01*
X22058Y13633D01*
X22068D01*
X22073Y13638D01*
Y13663D01*
X22103Y13633D02*
X22083D01*
X22103Y13653D01*
Y13658D01*
X22098Y13663D01*
X22088D01*
X22083Y13658D01*
X22133Y13663D02*
X22123D01*
X22128D01*
Y13638D01*
X22123Y13633D01*
X22118D01*
X22113Y13638D01*
X21167Y13663D02*
Y13638D01*
X21172Y13633D01*
X21182D01*
X21187Y13638D01*
Y13663D01*
X21217Y13633D02*
X21197D01*
X21217Y13653D01*
Y13658D01*
X21212Y13663D01*
X21202D01*
X21197Y13658D01*
X21227Y13663D02*
X21237D01*
X21232D01*
Y13633D01*
X21227D01*
X21237D01*
X18509Y13663D02*
Y13638D01*
X18514Y13633D01*
X18524D01*
X18529Y13638D01*
Y13663D01*
X18559Y13633D02*
X18539D01*
X18559Y13653D01*
Y13658D01*
X18554Y13663D01*
X18544D01*
X18539Y13658D01*
X18589Y13663D02*
X18569D01*
Y13648D01*
X18579D01*
X18569D01*
Y13633D01*
X22427Y13407D02*
Y13382D01*
X22432Y13377D01*
X22442D01*
X22447Y13382D01*
Y13407D01*
X22457Y13377D02*
X22467D01*
X22462D01*
Y13407D01*
X22457Y13402D01*
X22497Y13407D02*
X22487D01*
X22482Y13402D01*
Y13382D01*
X22487Y13377D01*
X22497D01*
X22502Y13382D01*
Y13402D01*
X22497Y13407D01*
X19769D02*
Y13382D01*
X19774Y13377D01*
X19784D01*
X19789Y13382D01*
Y13407D01*
X19799Y13377D02*
X19809D01*
X19804D01*
Y13407D01*
X19799Y13402D01*
X19824Y13407D02*
Y13377D01*
X19844D01*
X18883Y13407D02*
Y13382D01*
X18888Y13377D01*
X18898D01*
X18903Y13382D01*
Y13407D01*
X18913Y13377D02*
X18923D01*
X18918D01*
Y13407D01*
X18913Y13402D01*
X18938Y13407D02*
Y13377D01*
Y13387D01*
X18958Y13407D01*
X18943Y13392D01*
X18958Y13377D01*
X22427Y13978D02*
Y13953D01*
X22432Y13948D01*
X22442D01*
X22447Y13953D01*
Y13978D01*
X22457Y13948D02*
X22467D01*
X22462D01*
Y13978D01*
X22457Y13973D01*
X22502Y13978D02*
X22492D01*
X22497D01*
Y13953D01*
X22492Y13948D01*
X22487D01*
X22482Y13953D01*
X21541Y13978D02*
Y13953D01*
X21546Y13948D01*
X21556D01*
X21561Y13953D01*
Y13978D01*
X21571Y13948D02*
X21581D01*
X21576D01*
Y13978D01*
X21571Y13973D01*
X21596Y13978D02*
X21606D01*
X21601D01*
Y13948D01*
X21596D01*
X21606D01*
X18883Y13978D02*
Y13953D01*
X18888Y13948D01*
X18898D01*
X18903Y13953D01*
Y13978D01*
X18913Y13948D02*
X18923D01*
X18918D01*
Y13978D01*
X18913Y13973D01*
X18958Y13978D02*
X18938D01*
Y13963D01*
X18948D01*
X18938D01*
Y13948D01*
X21998Y13411D02*
X22018D01*
X22008D01*
Y13381D01*
X22028D02*
Y13411D01*
X22043D01*
X22048Y13406D01*
Y13396D01*
X22043Y13391D01*
X22028D01*
X22058Y13406D02*
X22063Y13411D01*
X22073D01*
X22078Y13406D01*
Y13401D01*
X22073Y13396D01*
X22068D01*
X22073D01*
X22078Y13391D01*
Y13386D01*
X22073Y13381D01*
X22063D01*
X22058Y13386D01*
X22102Y13411D02*
X22092D01*
X22087Y13406D01*
Y13386D01*
X22092Y13381D01*
X22102D01*
X22107Y13386D01*
Y13406D01*
X22102Y13411D01*
X19340D02*
X19360D01*
X19350D01*
Y13381D01*
X19370D02*
Y13411D01*
X19385D01*
X19390Y13406D01*
Y13396D01*
X19385Y13391D01*
X19370D01*
X19400Y13406D02*
X19405Y13411D01*
X19415D01*
X19420Y13406D01*
Y13401D01*
X19415Y13396D01*
X19410D01*
X19415D01*
X19420Y13391D01*
Y13386D01*
X19415Y13381D01*
X19405D01*
X19400Y13386D01*
X19430Y13411D02*
Y13381D01*
X19450D01*
X18454Y13411D02*
X18474D01*
X18464D01*
Y13381D01*
X18484D02*
Y13411D01*
X18499D01*
X18504Y13406D01*
Y13396D01*
X18499Y13391D01*
X18484D01*
X18514Y13406D02*
X18519Y13411D01*
X18529D01*
X18534Y13406D01*
Y13401D01*
X18529Y13396D01*
X18524D01*
X18529D01*
X18534Y13391D01*
Y13386D01*
X18529Y13381D01*
X18519D01*
X18514Y13386D01*
X18544Y13411D02*
Y13381D01*
Y13391D01*
X18564Y13411D01*
X18549Y13396D01*
X18564Y13381D01*
X21998Y13982D02*
X22018D01*
X22008D01*
Y13952D01*
X22028D02*
Y13982D01*
X22043D01*
X22048Y13977D01*
Y13967D01*
X22043Y13962D01*
X22028D01*
X22058Y13977D02*
X22063Y13982D01*
X22073D01*
X22078Y13977D01*
Y13972D01*
X22073Y13967D01*
X22068D01*
X22073D01*
X22078Y13962D01*
Y13957D01*
X22073Y13952D01*
X22063D01*
X22058Y13957D01*
X22107Y13982D02*
X22097D01*
X22102D01*
Y13957D01*
X22097Y13952D01*
X22092D01*
X22087Y13957D01*
X21112Y13982D02*
X21132D01*
X21122D01*
Y13952D01*
X21142D02*
Y13982D01*
X21157D01*
X21162Y13977D01*
Y13967D01*
X21157Y13962D01*
X21142D01*
X21172Y13977D02*
X21177Y13982D01*
X21187D01*
X21192Y13977D01*
Y13972D01*
X21187Y13967D01*
X21182D01*
X21187D01*
X21192Y13962D01*
Y13957D01*
X21187Y13952D01*
X21177D01*
X21172Y13957D01*
X21202Y13982D02*
X21212D01*
X21207D01*
Y13952D01*
X21202D01*
X21212D01*
X18454Y13982D02*
X18474D01*
X18464D01*
Y13952D01*
X18484D02*
Y13982D01*
X18499D01*
X18504Y13977D01*
Y13967D01*
X18499Y13962D01*
X18484D01*
X18514Y13977D02*
X18519Y13982D01*
X18529D01*
X18534Y13977D01*
Y13972D01*
X18529Y13967D01*
X18524D01*
X18529D01*
X18534Y13962D01*
Y13957D01*
X18529Y13952D01*
X18519D01*
X18514Y13957D01*
X18564Y13982D02*
X18544D01*
Y13967D01*
X18554D01*
X18544D01*
Y13952D01*
X22517Y13325D02*
Y13295D01*
X22537D01*
X22567D02*
X22547D01*
X22567Y13315D01*
Y13320D01*
X22562Y13325D01*
X22552D01*
X22547Y13320D01*
X22592Y13325D02*
X22582D01*
X22577Y13320D01*
Y13300D01*
X22582Y13295D01*
X22592D01*
X22597Y13300D01*
Y13320D01*
X22592Y13325D01*
X19860D02*
Y13295D01*
X19880D01*
X19910D02*
X19890D01*
X19910Y13315D01*
Y13320D01*
X19905Y13325D01*
X19895D01*
X19890Y13320D01*
X19920Y13325D02*
Y13295D01*
X19940D01*
X18974Y13325D02*
Y13295D01*
X18994D01*
X19024D02*
X19004D01*
X19024Y13315D01*
Y13320D01*
X19019Y13325D01*
X19009D01*
X19004Y13320D01*
X19034Y13325D02*
Y13295D01*
Y13305D01*
X19054Y13325D01*
X19039Y13310D01*
X19054Y13295D01*
X22517Y13896D02*
Y13866D01*
X22537D01*
X22567D02*
X22547D01*
X22567Y13886D01*
Y13891D01*
X22562Y13896D01*
X22552D01*
X22547Y13891D01*
X22597Y13896D02*
X22587D01*
X22592D01*
Y13871D01*
X22587Y13866D01*
X22582D01*
X22577Y13871D01*
X21631Y13896D02*
Y13866D01*
X21651D01*
X21681D02*
X21661D01*
X21681Y13886D01*
Y13891D01*
X21676Y13896D01*
X21666D01*
X21661Y13891D01*
X21691Y13896D02*
X21701D01*
X21696D01*
Y13866D01*
X21691D01*
X21701D01*
X18974Y13896D02*
Y13866D01*
X18994D01*
X19024D02*
X19004D01*
X19024Y13886D01*
Y13891D01*
X19019Y13896D01*
X19009D01*
X19004Y13891D01*
X19054Y13896D02*
X19034D01*
Y13881D01*
X19044D01*
X19034D01*
Y13866D01*
X21954Y13132D02*
Y13102D01*
X21974D01*
X21984D02*
X21994D01*
X21989D01*
Y13132D01*
X21984Y13127D01*
X22024Y13132D02*
X22014D01*
X22009Y13127D01*
Y13107D01*
X22014Y13102D01*
X22024D01*
X22029Y13107D01*
Y13127D01*
X22024Y13132D01*
X19297D02*
Y13102D01*
X19317D01*
X19327D02*
X19337D01*
X19332D01*
Y13132D01*
X19327Y13127D01*
X19352Y13132D02*
Y13102D01*
X19372D01*
X18411Y13132D02*
Y13102D01*
X18431D01*
X18441D02*
X18451D01*
X18446D01*
Y13132D01*
X18441Y13127D01*
X18466Y13132D02*
Y13102D01*
Y13112D01*
X18486Y13132D01*
X18471Y13117D01*
X18486Y13102D01*
X21954Y13703D02*
Y13673D01*
X21974D01*
X21984D02*
X21994D01*
X21989D01*
Y13703D01*
X21984Y13698D01*
X22029Y13703D02*
X22019D01*
X22024D01*
Y13678D01*
X22019Y13673D01*
X22014D01*
X22009Y13678D01*
X21068Y13703D02*
Y13673D01*
X21088D01*
X21098D02*
X21108D01*
X21103D01*
Y13703D01*
X21098Y13698D01*
X21123Y13703D02*
X21133D01*
X21128D01*
Y13673D01*
X21123D01*
X21133D01*
X18411Y13703D02*
Y13673D01*
X18431D01*
X18441D02*
X18451D01*
X18446D01*
Y13703D01*
X18441Y13698D01*
X18486Y13703D02*
X18466D01*
Y13688D01*
X18476D01*
X18466D01*
Y13673D01*
X22159Y13414D02*
X22154Y13419D01*
X22144D01*
X22139Y13414D01*
Y13394D01*
X22144Y13389D01*
X22154D01*
X22159Y13394D01*
X22184Y13389D02*
Y13419D01*
X22169Y13404D01*
X22189D01*
X22214Y13419D02*
X22204D01*
X22199Y13414D01*
Y13394D01*
X22204Y13389D01*
X22214D01*
X22219Y13394D01*
Y13414D01*
X22214Y13419D01*
X19502Y13414D02*
X19497Y13419D01*
X19487D01*
X19482Y13414D01*
Y13394D01*
X19487Y13389D01*
X19497D01*
X19502Y13394D01*
X19527Y13389D02*
Y13419D01*
X19512Y13404D01*
X19532D01*
X19542Y13419D02*
Y13389D01*
X19562D01*
X18616Y13414D02*
X18611Y13419D01*
X18601D01*
X18596Y13414D01*
Y13394D01*
X18601Y13389D01*
X18611D01*
X18616Y13394D01*
X18641Y13389D02*
Y13419D01*
X18626Y13404D01*
X18646D01*
X18656Y13419D02*
Y13389D01*
Y13399D01*
X18676Y13419D01*
X18661Y13404D01*
X18676Y13389D01*
X22159Y13985D02*
X22154Y13990D01*
X22144D01*
X22139Y13985D01*
Y13965D01*
X22144Y13960D01*
X22154D01*
X22159Y13965D01*
X22184Y13960D02*
Y13990D01*
X22169Y13975D01*
X22189D01*
X22219Y13990D02*
X22209D01*
X22214D01*
Y13965D01*
X22209Y13960D01*
X22204D01*
X22199Y13965D01*
X21273Y13985D02*
X21268Y13990D01*
X21258D01*
X21253Y13985D01*
Y13965D01*
X21258Y13960D01*
X21268D01*
X21273Y13965D01*
X21298Y13960D02*
Y13990D01*
X21283Y13975D01*
X21303D01*
X21313Y13990D02*
X21323D01*
X21318D01*
Y13960D01*
X21313D01*
X21323D01*
X18616Y13985D02*
X18611Y13990D01*
X18601D01*
X18596Y13985D01*
Y13965D01*
X18601Y13960D01*
X18611D01*
X18616Y13965D01*
X18641Y13960D02*
Y13990D01*
X18626Y13975D01*
X18646D01*
X18676Y13990D02*
X18656D01*
Y13975D01*
X18666D01*
X18656D01*
Y13960D01*
X22306Y13421D02*
X22301Y13426D01*
X22291D01*
X22286Y13421D01*
Y13401D01*
X22291Y13396D01*
X22301D01*
X22306Y13401D01*
X22336Y13396D02*
X22316D01*
X22336Y13416D01*
Y13421D01*
X22331Y13426D01*
X22321D01*
X22316Y13421D01*
X22361Y13426D02*
X22351D01*
X22346Y13421D01*
Y13401D01*
X22351Y13396D01*
X22361D01*
X22366Y13401D01*
Y13421D01*
X22361Y13426D01*
X19649Y13421D02*
X19644Y13426D01*
X19634D01*
X19629Y13421D01*
Y13401D01*
X19634Y13396D01*
X19644D01*
X19649Y13401D01*
X19679Y13396D02*
X19659D01*
X19679Y13416D01*
Y13421D01*
X19674Y13426D01*
X19664D01*
X19659Y13421D01*
X19689Y13426D02*
Y13396D01*
X19709D01*
X18763Y13421D02*
X18758Y13426D01*
X18748D01*
X18743Y13421D01*
Y13401D01*
X18748Y13396D01*
X18758D01*
X18763Y13401D01*
X18793Y13396D02*
X18773D01*
X18793Y13416D01*
Y13421D01*
X18788Y13426D01*
X18778D01*
X18773Y13421D01*
X18803Y13426D02*
Y13396D01*
Y13406D01*
X18823Y13426D01*
X18808Y13411D01*
X18823Y13396D01*
X22306Y13992D02*
X22301Y13997D01*
X22291D01*
X22286Y13992D01*
Y13972D01*
X22291Y13967D01*
X22301D01*
X22306Y13972D01*
X22336Y13967D02*
X22316D01*
X22336Y13987D01*
Y13992D01*
X22331Y13997D01*
X22321D01*
X22316Y13992D01*
X22366Y13997D02*
X22356D01*
X22361D01*
Y13972D01*
X22356Y13967D01*
X22351D01*
X22346Y13972D01*
X21420Y13992D02*
X21415Y13997D01*
X21405D01*
X21400Y13992D01*
Y13972D01*
X21405Y13967D01*
X21415D01*
X21420Y13972D01*
X21450Y13967D02*
X21430D01*
X21450Y13987D01*
Y13992D01*
X21445Y13997D01*
X21435D01*
X21430Y13992D01*
X21460Y13997D02*
X21470D01*
X21465D01*
Y13967D01*
X21460D01*
X21470D01*
X18763Y13992D02*
X18758Y13997D01*
X18748D01*
X18743Y13992D01*
Y13972D01*
X18748Y13967D01*
X18758D01*
X18763Y13972D01*
X18793Y13967D02*
X18773D01*
X18793Y13987D01*
Y13992D01*
X18788Y13997D01*
X18778D01*
X18773Y13992D01*
X18823Y13997D02*
X18803D01*
Y13982D01*
X18813D01*
X18803D01*
Y13967D01*
X23212Y15442D02*
Y15417D01*
X23217Y15412D01*
X23227D01*
X23232Y15417D01*
Y15442D01*
X23242Y15412D02*
X23252D01*
X23247D01*
Y15442D01*
X23242Y15437D01*
X23287Y15442D02*
X23277Y15437D01*
X23267Y15427D01*
Y15417D01*
X23272Y15412D01*
X23282D01*
X23287Y15417D01*
Y15422D01*
X23282Y15427D01*
X23267D01*
X23250Y16132D02*
Y16107D01*
X23254Y16103D01*
X23264D01*
X23269Y16107D01*
Y16132D01*
X23279Y16103D02*
X23289D01*
X23284D01*
Y16132D01*
X23279Y16127D01*
X23304D02*
X23309Y16132D01*
X23319D01*
X23324Y16127D01*
Y16122D01*
X23319Y16117D01*
X23314D01*
X23319D01*
X23324Y16112D01*
Y16107D01*
X23319Y16103D01*
X23309D01*
X23304Y16107D01*
X18650Y12749D02*
X18670D01*
X18660D01*
Y12719D01*
X18680D02*
Y12749D01*
X18695D01*
X18700Y12744D01*
Y12734D01*
X18695Y12729D01*
X18680D01*
X18710Y12719D02*
X18720D01*
X18715D01*
Y12749D01*
X18710Y12744D01*
X18735D02*
X18740Y12749D01*
X18750D01*
X18755Y12744D01*
Y12724D01*
X18750Y12719D01*
X18740D01*
X18735Y12724D01*
Y12744D01*
X18283Y12707D02*
X18303D01*
X18293D01*
Y12677D01*
X18313D02*
Y12707D01*
X18328D01*
X18333Y12702D01*
Y12692D01*
X18328Y12687D01*
X18313D01*
X18343Y12682D02*
X18348Y12677D01*
X18358D01*
X18363Y12682D01*
Y12702D01*
X18358Y12707D01*
X18348D01*
X18343Y12702D01*
Y12697D01*
X18348Y12692D01*
X18363D01*
X23330Y13573D02*
X23350D01*
X23340D01*
Y13543D01*
X23360D02*
Y13573D01*
X23375D01*
X23380Y13568D01*
Y13558D01*
X23375Y13553D01*
X23360D01*
X23390Y13568D02*
X23395Y13573D01*
X23405D01*
X23410Y13568D01*
Y13563D01*
X23405Y13558D01*
X23410Y13553D01*
Y13548D01*
X23405Y13543D01*
X23395D01*
X23390Y13548D01*
Y13553D01*
X23395Y13558D01*
X23390Y13563D01*
Y13568D01*
X23395Y13558D02*
X23405D01*
X23996Y13896D02*
X24016D01*
X24006D01*
Y13866D01*
X24026D02*
Y13896D01*
X24041D01*
X24046Y13891D01*
Y13881D01*
X24041Y13876D01*
X24026D01*
X24056Y13896D02*
X24076D01*
Y13891D01*
X24056Y13871D01*
Y13866D01*
X23861Y12775D02*
X23881D01*
X23871D01*
Y12745D01*
X23891D02*
Y12775D01*
X23906D01*
X23911Y12770D01*
Y12760D01*
X23906Y12755D01*
X23891D01*
X23941Y12775D02*
X23931Y12770D01*
X23921Y12760D01*
Y12750D01*
X23926Y12745D01*
X23936D01*
X23941Y12750D01*
Y12755D01*
X23936Y12760D01*
X23921D01*
X23351Y13193D02*
X23371D01*
X23361D01*
Y13163D01*
X23381D02*
Y13193D01*
X23396D01*
X23401Y13188D01*
Y13178D01*
X23396Y13173D01*
X23381D01*
X23431Y13193D02*
X23411D01*
Y13178D01*
X23421Y13183D01*
X23426D01*
X23431Y13178D01*
Y13168D01*
X23426Y13163D01*
X23416D01*
X23411Y13168D01*
X21728Y15179D02*
X21748D01*
X21738D01*
Y15149D01*
X21758D02*
Y15179D01*
X21773D01*
X21778Y15174D01*
Y15164D01*
X21773Y15159D01*
X21758D01*
X21803Y15149D02*
Y15179D01*
X21788Y15164D01*
X21808D01*
X21817Y15179D02*
Y15149D01*
X21832D01*
X21837Y15154D01*
Y15174D01*
X21832Y15179D01*
X21817D01*
X20655D02*
X20675D01*
X20665D01*
Y15149D01*
X20685D02*
Y15179D01*
X20700D01*
X20705Y15174D01*
Y15164D01*
X20700Y15159D01*
X20685D01*
X20730Y15149D02*
Y15179D01*
X20715Y15164D01*
X20735D01*
X20765Y15174D02*
X20760Y15179D01*
X20750D01*
X20745Y15174D01*
Y15154D01*
X20750Y15149D01*
X20760D01*
X20765Y15154D01*
X19582Y15179D02*
X19602D01*
X19592D01*
Y15149D01*
X19612D02*
Y15179D01*
X19627D01*
X19632Y15174D01*
Y15164D01*
X19627Y15159D01*
X19612D01*
X19657Y15149D02*
Y15179D01*
X19642Y15164D01*
X19662D01*
X19672Y15179D02*
Y15149D01*
X19687D01*
X19692Y15154D01*
Y15159D01*
X19687Y15164D01*
X19672D01*
X19687D01*
X19692Y15169D01*
Y15174D01*
X19687Y15179D01*
X19672D01*
X18509D02*
X18529D01*
X18519D01*
Y15149D01*
X18539D02*
Y15179D01*
X18554D01*
X18559Y15174D01*
Y15164D01*
X18554Y15159D01*
X18539D01*
X18584Y15149D02*
Y15179D01*
X18569Y15164D01*
X18589D01*
X18599Y15149D02*
Y15169D01*
X18609Y15179D01*
X18619Y15169D01*
Y15149D01*
Y15164D01*
X18599D01*
X21112Y14573D02*
X21132D01*
X21122D01*
Y14543D01*
X21142D02*
Y14573D01*
X21157D01*
X21162Y14568D01*
Y14558D01*
X21157Y14553D01*
X21142D01*
X21172Y14568D02*
X21177Y14573D01*
X21187D01*
X21192Y14568D01*
Y14563D01*
X21187Y14558D01*
X21182D01*
X21187D01*
X21192Y14553D01*
Y14548D01*
X21187Y14543D01*
X21177D01*
X21172Y14548D01*
X21202Y14573D02*
Y14543D01*
X21217D01*
X21222Y14548D01*
Y14568D01*
X21217Y14573D01*
X21202D01*
X20226D02*
X20246D01*
X20236D01*
Y14543D01*
X20256D02*
Y14573D01*
X20271D01*
X20276Y14568D01*
Y14558D01*
X20271Y14553D01*
X20256D01*
X20286Y14568D02*
X20291Y14573D01*
X20301D01*
X20306Y14568D01*
Y14563D01*
X20301Y14558D01*
X20296D01*
X20301D01*
X20306Y14553D01*
Y14548D01*
X20301Y14543D01*
X20291D01*
X20286Y14548D01*
X20336Y14568D02*
X20331Y14573D01*
X20321D01*
X20316Y14568D01*
Y14548D01*
X20321Y14543D01*
X20331D01*
X20336Y14548D01*
X18454Y14573D02*
X18474D01*
X18464D01*
Y14543D01*
X18484D02*
Y14573D01*
X18499D01*
X18504Y14568D01*
Y14558D01*
X18499Y14553D01*
X18484D01*
X18514Y14568D02*
X18519Y14573D01*
X18529D01*
X18534Y14568D01*
Y14563D01*
X18529Y14558D01*
X18524D01*
X18529D01*
X18534Y14553D01*
Y14548D01*
X18529Y14543D01*
X18519D01*
X18514Y14548D01*
X18544Y14543D02*
Y14563D01*
X18554Y14573D01*
X18564Y14563D01*
Y14543D01*
Y14558D01*
X18544D01*
X22361Y15401D02*
Y15421D01*
Y15411D01*
X22391D01*
Y15431D02*
X22361D01*
Y15446D01*
X22366Y15451D01*
X22376D01*
X22381Y15446D01*
Y15431D01*
X22391Y15481D02*
Y15461D01*
X22371Y15481D01*
X22366D01*
X22361Y15476D01*
Y15466D01*
X22366Y15461D01*
X22361Y15511D02*
Y15491D01*
X22376D01*
Y15501D01*
Y15491D01*
X22391D01*
X21574Y15401D02*
Y15421D01*
Y15411D01*
X21604D01*
Y15431D02*
X21574D01*
Y15446D01*
X21579Y15451D01*
X21589D01*
X21594Y15446D01*
Y15431D01*
X21604Y15481D02*
Y15461D01*
X21584Y15481D01*
X21579D01*
X21574Y15476D01*
Y15466D01*
X21579Y15461D01*
X21574Y15511D02*
Y15491D01*
X21604D01*
Y15511D01*
X21589Y15491D02*
Y15501D01*
X20786Y15401D02*
Y15421D01*
Y15411D01*
X20816D01*
Y15431D02*
X20786D01*
Y15446D01*
X20791Y15451D01*
X20801D01*
X20806Y15446D01*
Y15431D01*
X20816Y15481D02*
Y15461D01*
X20796Y15481D01*
X20791D01*
X20786Y15476D01*
Y15466D01*
X20791Y15461D01*
X20786Y15491D02*
X20816D01*
Y15506D01*
X20811Y15511D01*
X20791D01*
X20786Y15506D01*
Y15491D01*
X19999Y15401D02*
Y15421D01*
Y15411D01*
X20029D01*
Y15431D02*
X19999D01*
Y15446D01*
X20004Y15451D01*
X20014D01*
X20019Y15446D01*
Y15431D01*
X20029Y15481D02*
Y15461D01*
X20009Y15481D01*
X20004D01*
X19999Y15476D01*
Y15466D01*
X20004Y15461D01*
Y15511D02*
X19999Y15506D01*
Y15496D01*
X20004Y15491D01*
X20024D01*
X20029Y15496D01*
Y15506D01*
X20024Y15511D01*
X19211Y15401D02*
Y15421D01*
Y15411D01*
X19241D01*
Y15431D02*
X19211D01*
Y15446D01*
X19216Y15451D01*
X19226D01*
X19231Y15446D01*
Y15431D01*
X19241Y15481D02*
Y15461D01*
X19221Y15481D01*
X19216D01*
X19211Y15476D01*
Y15466D01*
X19216Y15461D01*
X19211Y15491D02*
X19241D01*
Y15506D01*
X19236Y15511D01*
X19231D01*
X19226Y15506D01*
Y15491D01*
Y15506D01*
X19221Y15511D01*
X19216D01*
X19211Y15506D01*
Y15491D01*
X18424Y15401D02*
Y15421D01*
Y15411D01*
X18454D01*
Y15431D02*
X18424D01*
Y15446D01*
X18429Y15451D01*
X18439D01*
X18444Y15446D01*
Y15431D01*
X18454Y15481D02*
Y15461D01*
X18434Y15481D01*
X18429D01*
X18424Y15476D01*
Y15466D01*
X18429Y15461D01*
X18454Y15491D02*
X18434D01*
X18424Y15501D01*
X18434Y15511D01*
X18454D01*
X18439D01*
Y15491D01*
X22863Y16001D02*
Y16021D01*
Y16011D01*
X22893D01*
Y16031D02*
X22863D01*
Y16046D01*
X22868Y16051D01*
X22878D01*
X22883Y16046D01*
Y16031D01*
X22893Y16061D02*
Y16071D01*
Y16066D01*
X22863D01*
X22868Y16061D01*
X22863Y16106D02*
Y16086D01*
X22878D01*
Y16096D01*
Y16086D01*
X22893D01*
X22075Y16001D02*
Y16021D01*
Y16011D01*
X22105D01*
Y16031D02*
X22075D01*
Y16046D01*
X22080Y16051D01*
X22090D01*
X22095Y16046D01*
Y16031D01*
X22105Y16061D02*
Y16071D01*
Y16066D01*
X22075D01*
X22080Y16061D01*
X22075Y16106D02*
Y16086D01*
X22105D01*
Y16106D01*
X22090Y16086D02*
Y16096D01*
X21288Y16001D02*
Y16021D01*
Y16011D01*
X21318D01*
Y16031D02*
X21288D01*
Y16046D01*
X21293Y16051D01*
X21303D01*
X21308Y16046D01*
Y16031D01*
X21318Y16061D02*
Y16071D01*
Y16066D01*
X21288D01*
X21293Y16061D01*
X21288Y16086D02*
X21318D01*
Y16101D01*
X21313Y16106D01*
X21293D01*
X21288Y16101D01*
Y16086D01*
X20501Y16001D02*
Y16021D01*
Y16011D01*
X20531D01*
Y16031D02*
X20501D01*
Y16046D01*
X20506Y16051D01*
X20516D01*
X20521Y16046D01*
Y16031D01*
X20531Y16061D02*
Y16071D01*
Y16066D01*
X20501D01*
X20506Y16061D01*
Y16106D02*
X20501Y16101D01*
Y16091D01*
X20506Y16086D01*
X20526D01*
X20531Y16091D01*
Y16101D01*
X20526Y16106D01*
X19713Y16001D02*
Y16021D01*
Y16011D01*
X19743D01*
Y16031D02*
X19713D01*
Y16046D01*
X19718Y16051D01*
X19728D01*
X19733Y16046D01*
Y16031D01*
X19743Y16061D02*
Y16071D01*
Y16066D01*
X19713D01*
X19718Y16061D01*
X19713Y16086D02*
X19743D01*
Y16101D01*
X19738Y16106D01*
X19733D01*
X19728Y16101D01*
Y16086D01*
Y16101D01*
X19723Y16106D01*
X19718D01*
X19713Y16101D01*
Y16086D01*
X18926Y16001D02*
Y16021D01*
Y16011D01*
X18956D01*
Y16031D02*
X18926D01*
Y16046D01*
X18931Y16051D01*
X18941D01*
X18946Y16046D01*
Y16031D01*
X18956Y16061D02*
Y16071D01*
Y16066D01*
X18926D01*
X18931Y16061D01*
X18956Y16086D02*
X18936D01*
X18926Y16096D01*
X18936Y16106D01*
X18956D01*
X18941D01*
Y16086D01*
X23384Y13282D02*
Y13257D01*
X23389Y13252D01*
X23399D01*
X23404Y13257D01*
Y13282D01*
X23414Y13252D02*
X23424D01*
X23419D01*
Y13282D01*
X23414Y13277D01*
X23439D02*
X23444Y13282D01*
X23454D01*
X23459Y13277D01*
Y13272D01*
X23454Y13267D01*
X23459Y13262D01*
Y13257D01*
X23454Y13252D01*
X23444D01*
X23439Y13257D01*
Y13262D01*
X23444Y13267D01*
X23439Y13272D01*
Y13277D01*
X23444Y13267D02*
X23454D01*
X23029Y13213D02*
Y13188D01*
X23034Y13183D01*
X23044D01*
X23049Y13188D01*
Y13213D01*
X23059Y13183D02*
X23069D01*
X23064D01*
Y13213D01*
X23059Y13208D01*
X23084Y13213D02*
X23104D01*
Y13208D01*
X23084Y13188D01*
Y13183D01*
X18435Y12730D02*
Y12705D01*
X18440Y12700D01*
X18450D01*
X18455Y12705D01*
Y12730D01*
X18465Y12700D02*
X18475D01*
X18470D01*
Y12730D01*
X18465Y12725D01*
X18505Y12700D02*
Y12730D01*
X18490Y12715D01*
X18510D01*
X23538Y13738D02*
X23563D01*
X23568Y13743D01*
Y13753D01*
X23563Y13758D01*
X23538D01*
X23568Y13768D02*
Y13778D01*
Y13773D01*
X23538D01*
X23543Y13768D01*
X23568Y13813D02*
Y13793D01*
X23548Y13813D01*
X23543D01*
X23538Y13808D01*
Y13798D01*
X23543Y13793D01*
X18763Y14582D02*
X18758Y14587D01*
X18748D01*
X18743Y14582D01*
Y14562D01*
X18748Y14557D01*
X18758D01*
X18763Y14562D01*
X18793Y14557D02*
X18773D01*
X18793Y14577D01*
Y14582D01*
X18788Y14587D01*
X18778D01*
X18773Y14582D01*
X18803Y14557D02*
Y14577D01*
X18813Y14587D01*
X18823Y14577D01*
Y14557D01*
Y14572D01*
X18803D01*
X20535Y14582D02*
X20530Y14587D01*
X20520D01*
X20515Y14582D01*
Y14562D01*
X20520Y14557D01*
X20530D01*
X20535Y14562D01*
X20565Y14557D02*
X20545D01*
X20565Y14577D01*
Y14582D01*
X20560Y14587D01*
X20550D01*
X20545Y14582D01*
X20595D02*
X20590Y14587D01*
X20580D01*
X20575Y14582D01*
Y14562D01*
X20580Y14557D01*
X20590D01*
X20595Y14562D01*
X21420Y14582D02*
X21415Y14587D01*
X21405D01*
X21400Y14582D01*
Y14562D01*
X21405Y14557D01*
X21415D01*
X21420Y14562D01*
X21450Y14557D02*
X21430D01*
X21450Y14577D01*
Y14582D01*
X21445Y14587D01*
X21435D01*
X21430Y14582D01*
X21460Y14587D02*
Y14557D01*
X21475D01*
X21480Y14562D01*
Y14582D01*
X21475Y14587D01*
X21460D01*
X18616Y14576D02*
X18611Y14581D01*
X18601D01*
X18596Y14576D01*
Y14556D01*
X18601Y14551D01*
X18611D01*
X18616Y14556D01*
X18641Y14551D02*
Y14581D01*
X18626Y14566D01*
X18646D01*
X18656Y14551D02*
Y14571D01*
X18666Y14581D01*
X18676Y14571D01*
Y14551D01*
Y14566D01*
X18656D01*
X20388Y14576D02*
X20383Y14581D01*
X20373D01*
X20368Y14576D01*
Y14556D01*
X20373Y14551D01*
X20383D01*
X20388Y14556D01*
X20413Y14551D02*
Y14581D01*
X20398Y14566D01*
X20418D01*
X20448Y14576D02*
X20443Y14581D01*
X20433D01*
X20428Y14576D01*
Y14556D01*
X20433Y14551D01*
X20443D01*
X20448Y14556D01*
X21273Y14576D02*
X21268Y14581D01*
X21258D01*
X21253Y14576D01*
Y14556D01*
X21258Y14551D01*
X21268D01*
X21273Y14556D01*
X21298Y14551D02*
Y14581D01*
X21283Y14566D01*
X21303D01*
X21313Y14581D02*
Y14551D01*
X21328D01*
X21333Y14556D01*
Y14576D01*
X21328Y14581D01*
X21313D01*
X18679Y15178D02*
X18674Y15183D01*
X18664D01*
X18659Y15178D01*
Y15158D01*
X18664Y15153D01*
X18674D01*
X18679Y15158D01*
X18709Y15183D02*
X18699Y15178D01*
X18689Y15168D01*
Y15158D01*
X18694Y15153D01*
X18704D01*
X18709Y15158D01*
Y15163D01*
X18704Y15168D01*
X18689D01*
X18719Y15153D02*
Y15173D01*
X18729Y15183D01*
X18739Y15173D01*
Y15153D01*
Y15168D01*
X18719D01*
X19751Y15178D02*
X19746Y15183D01*
X19736D01*
X19731Y15178D01*
Y15158D01*
X19736Y15153D01*
X19746D01*
X19751Y15158D01*
X19781Y15183D02*
X19771Y15178D01*
X19761Y15168D01*
Y15158D01*
X19766Y15153D01*
X19776D01*
X19781Y15158D01*
Y15163D01*
X19776Y15168D01*
X19761D01*
X19791Y15183D02*
Y15153D01*
X19806D01*
X19811Y15158D01*
Y15163D01*
X19806Y15168D01*
X19791D01*
X19806D01*
X19811Y15173D01*
Y15178D01*
X19806Y15183D01*
X19791D01*
X20824Y15178D02*
X20819Y15183D01*
X20809D01*
X20804Y15178D01*
Y15158D01*
X20809Y15153D01*
X20819D01*
X20824Y15158D01*
X20854Y15183D02*
X20844Y15178D01*
X20834Y15168D01*
Y15158D01*
X20839Y15153D01*
X20849D01*
X20854Y15158D01*
Y15163D01*
X20849Y15168D01*
X20834D01*
X20884Y15178D02*
X20879Y15183D01*
X20869D01*
X20864Y15178D01*
Y15158D01*
X20869Y15153D01*
X20879D01*
X20884Y15158D01*
X21897Y15178D02*
X21892Y15183D01*
X21882D01*
X21877Y15178D01*
Y15158D01*
X21882Y15153D01*
X21892D01*
X21897Y15158D01*
X21927Y15183D02*
X21917Y15178D01*
X21907Y15168D01*
Y15158D01*
X21912Y15153D01*
X21922D01*
X21927Y15158D01*
Y15163D01*
X21922Y15168D01*
X21907D01*
X21937Y15183D02*
Y15153D01*
X21952D01*
X21957Y15158D01*
Y15178D01*
X21952Y15183D01*
X21937D01*
X22813Y12610D02*
X22808Y12615D01*
X22798D01*
X22793Y12610D01*
Y12590D01*
X22798Y12585D01*
X22808D01*
X22813Y12590D01*
X22823Y12615D02*
X22843D01*
Y12610D01*
X22823Y12590D01*
Y12585D01*
X24014Y14060D02*
X24009Y14065D01*
X23999D01*
X23994Y14060D01*
Y14040D01*
X23999Y14035D01*
X24009D01*
X24014Y14040D01*
X24024Y14035D02*
X24034D01*
X24029D01*
Y14065D01*
X24024Y14060D01*
X24049Y14065D02*
X24069D01*
Y14060D01*
X24049Y14040D01*
Y14035D01*
X23954Y13876D02*
X23949Y13871D01*
Y13861D01*
X23954Y13856D01*
X23974D01*
X23979Y13861D01*
Y13871D01*
X23974Y13876D01*
X23954Y13886D02*
X23949Y13891D01*
Y13901D01*
X23954Y13906D01*
X23959D01*
X23964Y13901D01*
Y13896D01*
Y13901D01*
X23969Y13906D01*
X23974D01*
X23979Y13901D01*
Y13891D01*
X23974Y13886D01*
X23954Y13916D02*
X23949Y13921D01*
Y13931D01*
X23954Y13936D01*
X23974D01*
X23979Y13931D01*
Y13921D01*
X23974Y13916D01*
X23954D01*
X18907Y15178D02*
X18902Y15183D01*
X18892D01*
X18887Y15178D01*
Y15158D01*
X18892Y15153D01*
X18902D01*
X18907Y15158D01*
X18917Y15178D02*
X18922Y15183D01*
X18932D01*
X18937Y15178D01*
Y15173D01*
X18932Y15168D01*
X18927D01*
X18932D01*
X18937Y15163D01*
Y15158D01*
X18932Y15153D01*
X18922D01*
X18917Y15158D01*
X18947Y15183D02*
X18967D01*
Y15178D01*
X18947Y15158D01*
Y15153D01*
X18977D02*
Y15173D01*
X18987Y15183D01*
X18997Y15173D01*
Y15153D01*
Y15168D01*
X18977D01*
X19980Y15178D02*
X19975Y15183D01*
X19965D01*
X19960Y15178D01*
Y15158D01*
X19965Y15153D01*
X19975D01*
X19980Y15158D01*
X19990Y15178D02*
X19995Y15183D01*
X20005D01*
X20010Y15178D01*
Y15173D01*
X20005Y15168D01*
X20000D01*
X20005D01*
X20010Y15163D01*
Y15158D01*
X20005Y15153D01*
X19995D01*
X19990Y15158D01*
X20020Y15183D02*
X20040D01*
Y15178D01*
X20020Y15158D01*
Y15153D01*
X20050Y15183D02*
Y15153D01*
X20065D01*
X20070Y15158D01*
Y15163D01*
X20065Y15168D01*
X20050D01*
X20065D01*
X20070Y15173D01*
Y15178D01*
X20065Y15183D01*
X20050D01*
X21053Y15178D02*
X21048Y15183D01*
X21038D01*
X21033Y15178D01*
Y15158D01*
X21038Y15153D01*
X21048D01*
X21053Y15158D01*
X21063Y15178D02*
X21068Y15183D01*
X21078D01*
X21083Y15178D01*
Y15173D01*
X21078Y15168D01*
X21073D01*
X21078D01*
X21083Y15163D01*
Y15158D01*
X21078Y15153D01*
X21068D01*
X21063Y15158D01*
X21093Y15183D02*
X21113D01*
Y15178D01*
X21093Y15158D01*
Y15153D01*
X21143Y15178D02*
X21138Y15183D01*
X21128D01*
X21123Y15178D01*
Y15158D01*
X21128Y15153D01*
X21138D01*
X21143Y15158D01*
X22125Y15178D02*
X22120Y15183D01*
X22110D01*
X22105Y15178D01*
Y15158D01*
X22110Y15153D01*
X22120D01*
X22125Y15158D01*
X22135Y15178D02*
X22140Y15183D01*
X22150D01*
X22155Y15178D01*
Y15173D01*
X22150Y15168D01*
X22145D01*
X22150D01*
X22155Y15163D01*
Y15158D01*
X22150Y15153D01*
X22140D01*
X22135Y15158D01*
X22165Y15183D02*
X22185D01*
Y15178D01*
X22165Y15158D01*
Y15153D01*
X22195Y15183D02*
Y15153D01*
X22210D01*
X22215Y15158D01*
Y15178D01*
X22210Y15183D01*
X22195D01*
X18231Y12472D02*
X18226Y12467D01*
Y12457D01*
X18231Y12452D01*
X18251D01*
X18256Y12457D01*
Y12467D01*
X18251Y12472D01*
X18256Y12497D02*
X18226D01*
X18241Y12482D01*
Y12502D01*
X18256Y12532D02*
Y12512D01*
X18236Y12532D01*
X18231D01*
X18226Y12527D01*
Y12517D01*
X18231Y12512D01*
X22936Y13828D02*
X22931Y13823D01*
Y13813D01*
X22936Y13808D01*
X22956D01*
X22961Y13813D01*
Y13823D01*
X22956Y13828D01*
X22931Y13858D02*
Y13838D01*
X22946D01*
X22941Y13848D01*
Y13853D01*
X22946Y13858D01*
X22956D01*
X22961Y13853D01*
Y13843D01*
X22956Y13838D01*
X22931Y13888D02*
X22936Y13878D01*
X22946Y13868D01*
X22956D01*
X22961Y13873D01*
Y13883D01*
X22956Y13888D01*
X22951D01*
X22946Y13883D01*
Y13868D01*
X22214Y12880D02*
X22209Y12885D01*
X22199D01*
X22194Y12880D01*
Y12860D01*
X22199Y12855D01*
X22209D01*
X22214Y12860D01*
X22244Y12885D02*
X22224D01*
Y12870D01*
X22234Y12875D01*
X22239D01*
X22244Y12870D01*
Y12860D01*
X22239Y12855D01*
X22229D01*
X22224Y12860D01*
X22254Y12885D02*
X22274D01*
Y12880D01*
X22254Y12860D01*
Y12855D01*
X22071Y12882D02*
X22066Y12887D01*
X22056D01*
X22051Y12882D01*
Y12862D01*
X22056Y12857D01*
X22066D01*
X22071Y12862D01*
X22101Y12887D02*
X22081D01*
Y12872D01*
X22091Y12877D01*
X22096D01*
X22101Y12872D01*
Y12862D01*
X22096Y12857D01*
X22086D01*
X22081Y12862D01*
X22111Y12882D02*
X22116Y12887D01*
X22126D01*
X22131Y12882D01*
Y12877D01*
X22126Y12872D01*
X22131Y12867D01*
Y12862D01*
X22126Y12857D01*
X22116D01*
X22111Y12862D01*
Y12867D01*
X22116Y12872D01*
X22111Y12877D01*
Y12882D01*
X22116Y12872D02*
X22126D01*
X19511Y12944D02*
X19506Y12949D01*
X19496D01*
X19491Y12944D01*
Y12924D01*
X19496Y12919D01*
X19506D01*
X19511Y12924D01*
X19541Y12949D02*
X19521D01*
Y12934D01*
X19531Y12939D01*
X19536D01*
X19541Y12934D01*
Y12924D01*
X19536Y12919D01*
X19526D01*
X19521Y12924D01*
X19551D02*
X19556Y12919D01*
X19566D01*
X19571Y12924D01*
Y12944D01*
X19566Y12949D01*
X19556D01*
X19551Y12944D01*
Y12939D01*
X19556Y12934D01*
X19571D01*
X18710Y14773D02*
Y14743D01*
X18725D01*
X18730Y14748D01*
Y14768D01*
X18725Y14773D01*
X18710D01*
X18740Y14743D02*
X18750D01*
X18745D01*
Y14773D01*
X18740Y14768D01*
X18765Y14743D02*
Y14763D01*
X18775Y14773D01*
X18785Y14763D01*
Y14743D01*
Y14758D01*
X18765D01*
X19783Y14773D02*
Y14743D01*
X19798D01*
X19803Y14748D01*
Y14768D01*
X19798Y14773D01*
X19783D01*
X19813Y14743D02*
X19823D01*
X19818D01*
Y14773D01*
X19813Y14768D01*
X19838Y14773D02*
Y14743D01*
X19853D01*
X19858Y14748D01*
Y14753D01*
X19853Y14758D01*
X19838D01*
X19853D01*
X19858Y14763D01*
Y14768D01*
X19853Y14773D01*
X19838D01*
X20855D02*
Y14743D01*
X20870D01*
X20875Y14748D01*
Y14768D01*
X20870Y14773D01*
X20855D01*
X20885Y14743D02*
X20895D01*
X20890D01*
Y14773D01*
X20885Y14768D01*
X20930D02*
X20925Y14773D01*
X20915D01*
X20910Y14768D01*
Y14748D01*
X20915Y14743D01*
X20925D01*
X20930Y14748D01*
X21928Y14773D02*
Y14743D01*
X21943D01*
X21948Y14748D01*
Y14768D01*
X21943Y14773D01*
X21928D01*
X21958Y14743D02*
X21968D01*
X21963D01*
Y14773D01*
X21958Y14768D01*
X21983Y14773D02*
Y14743D01*
X21998D01*
X22003Y14748D01*
Y14768D01*
X21998Y14773D01*
X21983D01*
X18859D02*
Y14743D01*
X18874D01*
X18879Y14748D01*
Y14768D01*
X18874Y14773D01*
X18859D01*
X18909Y14743D02*
X18889D01*
X18909Y14763D01*
Y14768D01*
X18904Y14773D01*
X18894D01*
X18889Y14768D01*
X18919Y14743D02*
Y14763D01*
X18929Y14773D01*
X18939Y14763D01*
Y14743D01*
Y14758D01*
X18919D01*
X19932Y14773D02*
Y14743D01*
X19947D01*
X19952Y14748D01*
Y14768D01*
X19947Y14773D01*
X19932D01*
X19982Y14743D02*
X19962D01*
X19982Y14763D01*
Y14768D01*
X19977Y14773D01*
X19967D01*
X19962Y14768D01*
X19992Y14773D02*
Y14743D01*
X20007D01*
X20012Y14748D01*
Y14753D01*
X20007Y14758D01*
X19992D01*
X20007D01*
X20012Y14763D01*
Y14768D01*
X20007Y14773D01*
X19992D01*
X21005D02*
Y14743D01*
X21020D01*
X21025Y14748D01*
Y14768D01*
X21020Y14773D01*
X21005D01*
X21055Y14743D02*
X21035D01*
X21055Y14763D01*
Y14768D01*
X21050Y14773D01*
X21040D01*
X21035Y14768D01*
X21085D02*
X21080Y14773D01*
X21070D01*
X21065Y14768D01*
Y14748D01*
X21070Y14743D01*
X21080D01*
X21085Y14748D01*
X22078Y14773D02*
Y14743D01*
X22093D01*
X22098Y14748D01*
Y14768D01*
X22093Y14773D01*
X22078D01*
X22128Y14743D02*
X22108D01*
X22128Y14763D01*
Y14768D01*
X22123Y14773D01*
X22113D01*
X22108Y14768D01*
X22138Y14773D02*
Y14743D01*
X22153D01*
X22158Y14748D01*
Y14768D01*
X22153Y14773D01*
X22138D01*
X19153Y12596D02*
X19143D01*
X19148D01*
Y12571D01*
X19143Y12566D01*
X19138D01*
X19133Y12571D01*
X19163Y12566D02*
X19173D01*
X19168D01*
Y12596D01*
X19163Y12591D01*
X18411Y14293D02*
Y14263D01*
X18431D01*
X18441D02*
X18451D01*
X18446D01*
Y14293D01*
X18441Y14288D01*
X18466Y14263D02*
Y14283D01*
X18476Y14293D01*
X18486Y14283D01*
Y14263D01*
Y14278D01*
X18466D01*
X20183Y14293D02*
Y14263D01*
X20203D01*
X20213D02*
X20223D01*
X20218D01*
Y14293D01*
X20213Y14288D01*
X20258D02*
X20253Y14293D01*
X20243D01*
X20238Y14288D01*
Y14268D01*
X20243Y14263D01*
X20253D01*
X20258Y14268D01*
X21068Y14293D02*
Y14263D01*
X21088D01*
X21098D02*
X21108D01*
X21103D01*
Y14293D01*
X21098Y14288D01*
X21123Y14293D02*
Y14263D01*
X21138D01*
X21143Y14268D01*
Y14288D01*
X21138Y14293D01*
X21123D01*
X18974Y14486D02*
Y14456D01*
X18994D01*
X19024D02*
X19004D01*
X19024Y14476D01*
Y14481D01*
X19019Y14486D01*
X19009D01*
X19004Y14481D01*
X19034Y14456D02*
Y14476D01*
X19044Y14486D01*
X19054Y14476D01*
Y14456D01*
Y14471D01*
X19034D01*
X20746Y14486D02*
Y14456D01*
X20766D01*
X20796D02*
X20776D01*
X20796Y14476D01*
Y14481D01*
X20791Y14486D01*
X20781D01*
X20776Y14481D01*
X20826D02*
X20821Y14486D01*
X20811D01*
X20806Y14481D01*
Y14461D01*
X20811Y14456D01*
X20821D01*
X20826Y14461D01*
X21631Y14486D02*
Y14456D01*
X21651D01*
X21681D02*
X21661D01*
X21681Y14476D01*
Y14481D01*
X21676Y14486D01*
X21666D01*
X21661Y14481D01*
X21691Y14486D02*
Y14456D01*
X21706D01*
X21711Y14461D01*
Y14481D01*
X21706Y14486D01*
X21691D01*
X19056Y15183D02*
Y15153D01*
X19076D01*
X19086Y15178D02*
X19091Y15183D01*
X19101D01*
X19106Y15178D01*
Y15173D01*
X19101Y15168D01*
X19096D01*
X19101D01*
X19106Y15163D01*
Y15158D01*
X19101Y15153D01*
X19091D01*
X19086Y15158D01*
X19116Y15153D02*
Y15173D01*
X19126Y15183D01*
X19136Y15173D01*
Y15153D01*
Y15168D01*
X19116D01*
X20129Y15183D02*
Y15153D01*
X20149D01*
X20159Y15178D02*
X20164Y15183D01*
X20174D01*
X20179Y15178D01*
Y15173D01*
X20174Y15168D01*
X20169D01*
X20174D01*
X20179Y15163D01*
Y15158D01*
X20174Y15153D01*
X20164D01*
X20159Y15158D01*
X20189Y15183D02*
Y15153D01*
X20204D01*
X20209Y15158D01*
Y15163D01*
X20204Y15168D01*
X20189D01*
X20204D01*
X20209Y15173D01*
Y15178D01*
X20204Y15183D01*
X20189D01*
X21202D02*
Y15153D01*
X21222D01*
X21232Y15178D02*
X21237Y15183D01*
X21247D01*
X21252Y15178D01*
Y15173D01*
X21247Y15168D01*
X21242D01*
X21247D01*
X21252Y15163D01*
Y15158D01*
X21247Y15153D01*
X21237D01*
X21232Y15158D01*
X21282Y15178D02*
X21277Y15183D01*
X21267D01*
X21262Y15178D01*
Y15158D01*
X21267Y15153D01*
X21277D01*
X21282Y15158D01*
X22275Y15183D02*
Y15153D01*
X22295D01*
X22305Y15178D02*
X22310Y15183D01*
X22320D01*
X22325Y15178D01*
Y15173D01*
X22320Y15168D01*
X22315D01*
X22320D01*
X22325Y15163D01*
Y15158D01*
X22320Y15153D01*
X22310D01*
X22305Y15158D01*
X22335Y15183D02*
Y15153D01*
X22350D01*
X22355Y15158D01*
Y15178D01*
X22350Y15183D01*
X22335D01*
X18404Y14948D02*
X18434D01*
Y14968D01*
Y14993D02*
X18404D01*
X18419Y14978D01*
Y14998D01*
X18434Y15008D02*
X18414D01*
X18404Y15018D01*
X18414Y15028D01*
X18434D01*
X18419D01*
Y15008D01*
X19477Y14948D02*
X19507D01*
Y14968D01*
Y14993D02*
X19477D01*
X19492Y14978D01*
Y14998D01*
X19477Y15008D02*
X19507D01*
Y15023D01*
X19502Y15028D01*
X19497D01*
X19492Y15023D01*
Y15008D01*
Y15023D01*
X19487Y15028D01*
X19482D01*
X19477Y15023D01*
Y15008D01*
X20550Y14948D02*
X20580D01*
Y14968D01*
Y14993D02*
X20550D01*
X20565Y14978D01*
Y14998D01*
X20555Y15028D02*
X20550Y15023D01*
Y15013D01*
X20555Y15008D01*
X20575D01*
X20580Y15013D01*
Y15023D01*
X20575Y15028D01*
X21623Y14948D02*
X21653D01*
Y14968D01*
Y14993D02*
X21623D01*
X21638Y14978D01*
Y14998D01*
X21623Y15008D02*
X21653D01*
Y15023D01*
X21648Y15028D01*
X21628D01*
X21623Y15023D01*
Y15008D01*
X23788Y14549D02*
X23758D01*
Y14564D01*
X23763Y14569D01*
X23773D01*
X23778Y14564D01*
Y14549D01*
X23788Y14579D02*
Y14589D01*
Y14584D01*
X23758D01*
X23763Y14579D01*
X18563Y16125D02*
Y16145D01*
X18558Y16150D01*
X18548D01*
X18543Y16145D01*
Y16125D01*
X18548Y16120D01*
X18558D01*
X18553Y16130D02*
X18563Y16120D01*
X18558D02*
X18563Y16125D01*
X18573Y16120D02*
X18583D01*
X18578D01*
Y16150D01*
X18573Y16145D01*
X18598Y16120D02*
Y16140D01*
X18608Y16150D01*
X18618Y16140D01*
Y16120D01*
Y16135D01*
X18598D01*
X19350Y16125D02*
Y16145D01*
X19345Y16150D01*
X19335D01*
X19330Y16145D01*
Y16125D01*
X19335Y16120D01*
X19345D01*
X19340Y16130D02*
X19350Y16120D01*
X19345D02*
X19350Y16125D01*
X19360Y16120D02*
X19370D01*
X19365D01*
Y16150D01*
X19360Y16145D01*
X19385Y16150D02*
Y16120D01*
X19400D01*
X19405Y16125D01*
Y16130D01*
X19400Y16135D01*
X19385D01*
X19400D01*
X19405Y16140D01*
Y16145D01*
X19400Y16150D01*
X19385D01*
X20137Y16125D02*
Y16145D01*
X20132Y16150D01*
X20122D01*
X20117Y16145D01*
Y16125D01*
X20122Y16120D01*
X20132D01*
X20127Y16130D02*
X20137Y16120D01*
X20132D02*
X20137Y16125D01*
X20147Y16120D02*
X20157D01*
X20152D01*
Y16150D01*
X20147Y16145D01*
X20192D02*
X20187Y16150D01*
X20177D01*
X20172Y16145D01*
Y16125D01*
X20177Y16120D01*
X20187D01*
X20192Y16125D01*
X20925D02*
Y16145D01*
X20920Y16150D01*
X20910D01*
X20905Y16145D01*
Y16125D01*
X20910Y16120D01*
X20920D01*
X20915Y16130D02*
X20925Y16120D01*
X20920D02*
X20925Y16125D01*
X20935Y16120D02*
X20945D01*
X20940D01*
Y16150D01*
X20935Y16145D01*
X20960Y16150D02*
Y16120D01*
X20975D01*
X20980Y16125D01*
Y16145D01*
X20975Y16150D01*
X20960D01*
X21712Y16125D02*
Y16145D01*
X21707Y16150D01*
X21697D01*
X21692Y16145D01*
Y16125D01*
X21697Y16120D01*
X21707D01*
X21702Y16130D02*
X21712Y16120D01*
X21707D02*
X21712Y16125D01*
X21722Y16120D02*
X21732D01*
X21727D01*
Y16150D01*
X21722Y16145D01*
X21767Y16150D02*
X21747D01*
Y16120D01*
X21767D01*
X21747Y16135D02*
X21757D01*
X22500Y16125D02*
Y16145D01*
X22495Y16150D01*
X22485D01*
X22480Y16145D01*
Y16125D01*
X22485Y16120D01*
X22495D01*
X22490Y16130D02*
X22500Y16120D01*
X22495D02*
X22500Y16125D01*
X22510Y16120D02*
X22520D01*
X22515D01*
Y16150D01*
X22510Y16145D01*
X22555Y16150D02*
X22535D01*
Y16135D01*
X22545D01*
X22535D01*
Y16120D01*
X18786Y15391D02*
Y15411D01*
X18781Y15416D01*
X18771D01*
X18766Y15411D01*
Y15391D01*
X18771Y15386D01*
X18781D01*
X18776Y15396D02*
X18786Y15386D01*
X18781D02*
X18786Y15391D01*
X18816Y15386D02*
X18796D01*
X18816Y15406D01*
Y15411D01*
X18811Y15416D01*
X18801D01*
X18796Y15411D01*
X18826Y15386D02*
Y15406D01*
X18836Y15416D01*
X18846Y15406D01*
Y15386D01*
Y15401D01*
X18826D01*
X19573Y15391D02*
Y15411D01*
X19568Y15416D01*
X19558D01*
X19553Y15411D01*
Y15391D01*
X19558Y15386D01*
X19568D01*
X19563Y15396D02*
X19573Y15386D01*
X19568D02*
X19573Y15391D01*
X19603Y15386D02*
X19583D01*
X19603Y15406D01*
Y15411D01*
X19598Y15416D01*
X19588D01*
X19583Y15411D01*
X19613Y15416D02*
Y15386D01*
X19628D01*
X19633Y15391D01*
Y15396D01*
X19628Y15401D01*
X19613D01*
X19628D01*
X19633Y15406D01*
Y15411D01*
X19628Y15416D01*
X19613D01*
X20361Y15391D02*
Y15411D01*
X20356Y15416D01*
X20346D01*
X20341Y15411D01*
Y15391D01*
X20346Y15386D01*
X20356D01*
X20351Y15396D02*
X20361Y15386D01*
X20356D02*
X20361Y15391D01*
X20391Y15386D02*
X20371D01*
X20391Y15406D01*
Y15411D01*
X20386Y15416D01*
X20376D01*
X20371Y15411D01*
X20421D02*
X20416Y15416D01*
X20406D01*
X20401Y15411D01*
Y15391D01*
X20406Y15386D01*
X20416D01*
X20421Y15391D01*
X21148D02*
Y15411D01*
X21143Y15416D01*
X21133D01*
X21128Y15411D01*
Y15391D01*
X21133Y15386D01*
X21143D01*
X21138Y15396D02*
X21148Y15386D01*
X21143D02*
X21148Y15391D01*
X21178Y15386D02*
X21158D01*
X21178Y15406D01*
Y15411D01*
X21173Y15416D01*
X21163D01*
X21158Y15411D01*
X21188Y15416D02*
Y15386D01*
X21203D01*
X21208Y15391D01*
Y15411D01*
X21203Y15416D01*
X21188D01*
X21936Y15391D02*
Y15411D01*
X21931Y15416D01*
X21921D01*
X21916Y15411D01*
Y15391D01*
X21921Y15386D01*
X21931D01*
X21926Y15396D02*
X21936Y15386D01*
X21931D02*
X21936Y15391D01*
X21966Y15386D02*
X21946D01*
X21966Y15406D01*
Y15411D01*
X21961Y15416D01*
X21951D01*
X21946Y15411D01*
X21996Y15416D02*
X21976D01*
Y15386D01*
X21996D01*
X21976Y15401D02*
X21986D01*
X22723Y15391D02*
Y15411D01*
X22718Y15416D01*
X22708D01*
X22703Y15411D01*
Y15391D01*
X22708Y15386D01*
X22718D01*
X22713Y15396D02*
X22723Y15386D01*
X22718D02*
X22723Y15391D01*
X22753Y15386D02*
X22733D01*
X22753Y15406D01*
Y15411D01*
X22748Y15416D01*
X22738D01*
X22733Y15411D01*
X22783Y15416D02*
X22763D01*
Y15401D01*
X22773D01*
X22763D01*
Y15386D01*
X23286Y13099D02*
Y13119D01*
X23281Y13124D01*
X23271D01*
X23266Y13119D01*
Y13099D01*
X23271Y13094D01*
X23281D01*
X23276Y13104D02*
X23286Y13094D01*
X23281D02*
X23286Y13099D01*
X23296Y13119D02*
X23301Y13124D01*
X23311D01*
X23316Y13119D01*
Y13114D01*
X23311Y13109D01*
X23306D01*
X23311D01*
X23316Y13104D01*
Y13099D01*
X23311Y13094D01*
X23301D01*
X23296Y13099D01*
X23871Y13127D02*
Y13147D01*
X23866Y13152D01*
X23856D01*
X23851Y13147D01*
Y13127D01*
X23856Y13122D01*
X23866D01*
X23861Y13132D02*
X23871Y13122D01*
X23866D02*
X23871Y13127D01*
X23896Y13122D02*
Y13152D01*
X23881Y13137D01*
X23901D01*
X23829Y13553D02*
Y13573D01*
X23824Y13578D01*
X23814D01*
X23809Y13573D01*
Y13553D01*
X23814Y13548D01*
X23824D01*
X23819Y13558D02*
X23829Y13548D01*
X23824D02*
X23829Y13553D01*
X23859Y13578D02*
X23839D01*
Y13563D01*
X23849Y13568D01*
X23854D01*
X23859Y13563D01*
Y13553D01*
X23854Y13548D01*
X23844D01*
X23839Y13553D01*
X19218Y15127D02*
Y15157D01*
X19233D01*
X19238Y15152D01*
Y15142D01*
X19233Y15137D01*
X19218D01*
X19228D02*
X19238Y15127D01*
X19248Y15152D02*
X19253Y15157D01*
X19263D01*
X19268Y15152D01*
Y15147D01*
X19263Y15142D01*
X19258D01*
X19263D01*
X19268Y15137D01*
Y15132D01*
X19263Y15127D01*
X19253D01*
X19248Y15132D01*
X19278Y15127D02*
Y15147D01*
X19288Y15157D01*
X19298Y15147D01*
Y15127D01*
Y15142D01*
X19278D01*
X20291Y15127D02*
Y15157D01*
X20306D01*
X20311Y15152D01*
Y15142D01*
X20306Y15137D01*
X20291D01*
X20301D02*
X20311Y15127D01*
X20321Y15152D02*
X20326Y15157D01*
X20336D01*
X20341Y15152D01*
Y15147D01*
X20336Y15142D01*
X20331D01*
X20336D01*
X20341Y15137D01*
Y15132D01*
X20336Y15127D01*
X20326D01*
X20321Y15132D01*
X20351Y15157D02*
Y15127D01*
X20365D01*
X20370Y15132D01*
Y15137D01*
X20365Y15142D01*
X20351D01*
X20365D01*
X20370Y15147D01*
Y15152D01*
X20365Y15157D01*
X20351D01*
X21363Y15127D02*
Y15157D01*
X21378D01*
X21383Y15152D01*
Y15142D01*
X21378Y15137D01*
X21363D01*
X21373D02*
X21383Y15127D01*
X21393Y15152D02*
X21398Y15157D01*
X21408D01*
X21413Y15152D01*
Y15147D01*
X21408Y15142D01*
X21403D01*
X21408D01*
X21413Y15137D01*
Y15132D01*
X21408Y15127D01*
X21398D01*
X21393Y15132D01*
X21443Y15152D02*
X21438Y15157D01*
X21428D01*
X21423Y15152D01*
Y15132D01*
X21428Y15127D01*
X21438D01*
X21443Y15132D01*
X22436Y15127D02*
Y15157D01*
X22451D01*
X22456Y15152D01*
Y15142D01*
X22451Y15137D01*
X22436D01*
X22446D02*
X22456Y15127D01*
X22466Y15152D02*
X22471Y15157D01*
X22481D01*
X22486Y15152D01*
Y15147D01*
X22481Y15142D01*
X22476D01*
X22481D01*
X22486Y15137D01*
Y15132D01*
X22481Y15127D01*
X22471D01*
X22466Y15132D01*
X22496Y15157D02*
Y15127D01*
X22511D01*
X22516Y15132D01*
Y15152D01*
X22511Y15157D01*
X22496D01*
X18513Y14739D02*
Y14769D01*
X18528D01*
X18533Y14764D01*
Y14754D01*
X18528Y14749D01*
X18513D01*
X18523D02*
X18533Y14739D01*
X18558D02*
Y14769D01*
X18543Y14754D01*
X18563D01*
X18573Y14739D02*
Y14759D01*
X18583Y14769D01*
X18593Y14759D01*
Y14739D01*
Y14754D01*
X18573D01*
X19586Y14739D02*
Y14769D01*
X19601D01*
X19606Y14764D01*
Y14754D01*
X19601Y14749D01*
X19586D01*
X19596D02*
X19606Y14739D01*
X19631D02*
Y14769D01*
X19616Y14754D01*
X19636D01*
X19646Y14769D02*
Y14739D01*
X19661D01*
X19666Y14744D01*
Y14749D01*
X19661Y14754D01*
X19646D01*
X19661D01*
X19666Y14759D01*
Y14764D01*
X19661Y14769D01*
X19646D01*
X20659Y14739D02*
Y14769D01*
X20674D01*
X20679Y14764D01*
Y14754D01*
X20674Y14749D01*
X20659D01*
X20669D02*
X20679Y14739D01*
X20704D02*
Y14769D01*
X20689Y14754D01*
X20709D01*
X20739Y14764D02*
X20734Y14769D01*
X20724D01*
X20719Y14764D01*
Y14744D01*
X20724Y14739D01*
X20734D01*
X20739Y14744D01*
X21731Y14739D02*
Y14769D01*
X21746D01*
X21751Y14764D01*
Y14754D01*
X21746Y14749D01*
X21731D01*
X21741D02*
X21751Y14739D01*
X21776D02*
Y14769D01*
X21761Y14754D01*
X21781D01*
X21791Y14769D02*
Y14739D01*
X21806D01*
X21811Y14744D01*
Y14764D01*
X21806Y14769D01*
X21791D01*
X18395Y14869D02*
Y14899D01*
X18410D01*
X18415Y14894D01*
Y14884D01*
X18410Y14879D01*
X18395D01*
X18405D02*
X18415Y14869D01*
X18445Y14899D02*
X18425D01*
Y14884D01*
X18435Y14889D01*
X18440D01*
X18445Y14884D01*
Y14874D01*
X18440Y14869D01*
X18430D01*
X18425Y14874D01*
X18455Y14869D02*
Y14889D01*
X18465Y14899D01*
X18475Y14889D01*
Y14869D01*
Y14884D01*
X18455D01*
X19468Y14869D02*
Y14899D01*
X19483D01*
X19488Y14894D01*
Y14884D01*
X19483Y14879D01*
X19468D01*
X19478D02*
X19488Y14869D01*
X19518Y14899D02*
X19498D01*
Y14884D01*
X19508Y14889D01*
X19513D01*
X19518Y14884D01*
Y14874D01*
X19513Y14869D01*
X19503D01*
X19498Y14874D01*
X19528Y14899D02*
Y14869D01*
X19543D01*
X19548Y14874D01*
Y14879D01*
X19543Y14884D01*
X19528D01*
X19543D01*
X19548Y14889D01*
Y14894D01*
X19543Y14899D01*
X19528D01*
X20541Y14869D02*
Y14899D01*
X20556D01*
X20561Y14894D01*
Y14884D01*
X20556Y14879D01*
X20541D01*
X20551D02*
X20561Y14869D01*
X20591Y14899D02*
X20571D01*
Y14884D01*
X20581Y14889D01*
X20586D01*
X20591Y14884D01*
Y14874D01*
X20586Y14869D01*
X20576D01*
X20571Y14874D01*
X20620Y14894D02*
X20615Y14899D01*
X20605D01*
X20601Y14894D01*
Y14874D01*
X20605Y14869D01*
X20615D01*
X20620Y14874D01*
X21613Y14869D02*
Y14899D01*
X21628D01*
X21633Y14894D01*
Y14884D01*
X21628Y14879D01*
X21613D01*
X21623D02*
X21633Y14869D01*
X21663Y14899D02*
X21643D01*
Y14884D01*
X21653Y14889D01*
X21658D01*
X21663Y14884D01*
Y14874D01*
X21658Y14869D01*
X21648D01*
X21643Y14874D01*
X21673Y14899D02*
Y14869D01*
X21688D01*
X21693Y14874D01*
Y14894D01*
X21688Y14899D01*
X21673D01*
X19340Y15007D02*
Y15037D01*
X19355D01*
X19360Y15032D01*
Y15022D01*
X19355Y15017D01*
X19340D01*
X19350D02*
X19360Y15007D01*
X19390Y15037D02*
X19380Y15032D01*
X19370Y15022D01*
Y15012D01*
X19375Y15007D01*
X19385D01*
X19390Y15012D01*
Y15017D01*
X19385Y15022D01*
X19370D01*
X19400Y15007D02*
Y15027D01*
X19410Y15037D01*
X19420Y15027D01*
Y15007D01*
Y15022D01*
X19400D01*
X20413Y15007D02*
Y15037D01*
X20428D01*
X20433Y15032D01*
Y15022D01*
X20428Y15017D01*
X20413D01*
X20423D02*
X20433Y15007D01*
X20463Y15037D02*
X20453Y15032D01*
X20443Y15022D01*
Y15012D01*
X20448Y15007D01*
X20458D01*
X20463Y15012D01*
Y15017D01*
X20458Y15022D01*
X20443D01*
X20473Y15037D02*
Y15007D01*
X20488D01*
X20493Y15012D01*
Y15017D01*
X20488Y15022D01*
X20473D01*
X20488D01*
X20493Y15027D01*
Y15032D01*
X20488Y15037D01*
X20473D01*
X21486Y15007D02*
Y15037D01*
X21501D01*
X21506Y15032D01*
Y15022D01*
X21501Y15017D01*
X21486D01*
X21496D02*
X21506Y15007D01*
X21536Y15037D02*
X21526Y15032D01*
X21516Y15022D01*
Y15012D01*
X21521Y15007D01*
X21531D01*
X21536Y15012D01*
Y15017D01*
X21531Y15022D01*
X21516D01*
X21566Y15032D02*
X21561Y15037D01*
X21551D01*
X21546Y15032D01*
Y15012D01*
X21551Y15007D01*
X21561D01*
X21566Y15012D01*
X22559Y15007D02*
Y15037D01*
X22574D01*
X22579Y15032D01*
Y15022D01*
X22574Y15017D01*
X22559D01*
X22569D02*
X22579Y15007D01*
X22609Y15037D02*
X22599Y15032D01*
X22589Y15022D01*
Y15012D01*
X22594Y15007D01*
X22604D01*
X22609Y15012D01*
Y15017D01*
X22604Y15022D01*
X22589D01*
X22619Y15037D02*
Y15007D01*
X22634D01*
X22639Y15012D01*
Y15032D01*
X22634Y15037D01*
X22619D01*
X18516Y15624D02*
X18486D01*
Y15639D01*
X18491Y15644D01*
X18501D01*
X18506Y15639D01*
Y15624D01*
Y15634D02*
X18516Y15644D01*
X18491Y15654D02*
X18486Y15659D01*
Y15669D01*
X18491Y15674D01*
X18496D01*
X18501Y15669D01*
X18506Y15674D01*
X18511D01*
X18516Y15669D01*
Y15659D01*
X18511Y15654D01*
X18506D01*
X18501Y15659D01*
X18496Y15654D01*
X18491D01*
X18501Y15659D02*
Y15669D01*
X18516Y15684D02*
X18496D01*
X18486Y15694D01*
X18496Y15704D01*
X18516D01*
X18501D01*
Y15684D01*
X19302Y15625D02*
X19272D01*
Y15640D01*
X19277Y15645D01*
X19287D01*
X19292Y15640D01*
Y15625D01*
Y15635D02*
X19302Y15645D01*
X19277Y15655D02*
X19272Y15660D01*
Y15670D01*
X19277Y15675D01*
X19282D01*
X19287Y15670D01*
X19292Y15675D01*
X19297D01*
X19302Y15670D01*
Y15660D01*
X19297Y15655D01*
X19292D01*
X19287Y15660D01*
X19282Y15655D01*
X19277D01*
X19287Y15660D02*
Y15670D01*
X19272Y15685D02*
X19302D01*
Y15700D01*
X19297Y15705D01*
X19292D01*
X19287Y15700D01*
Y15685D01*
Y15700D01*
X19282Y15705D01*
X19277D01*
X19272Y15700D01*
Y15685D01*
X20083Y15598D02*
X20053D01*
Y15613D01*
X20058Y15618D01*
X20068D01*
X20073Y15613D01*
Y15598D01*
Y15608D02*
X20083Y15618D01*
X20058Y15628D02*
X20053Y15633D01*
Y15643D01*
X20058Y15648D01*
X20063D01*
X20068Y15643D01*
X20073Y15648D01*
X20078D01*
X20083Y15643D01*
Y15633D01*
X20078Y15628D01*
X20073D01*
X20068Y15633D01*
X20063Y15628D01*
X20058D01*
X20068Y15633D02*
Y15643D01*
X20058Y15678D02*
X20053Y15673D01*
Y15663D01*
X20058Y15658D01*
X20078D01*
X20083Y15663D01*
Y15673D01*
X20078Y15678D01*
X20877Y15625D02*
X20847D01*
Y15640D01*
X20852Y15645D01*
X20862D01*
X20867Y15640D01*
Y15625D01*
Y15635D02*
X20877Y15645D01*
X20852Y15655D02*
X20847Y15660D01*
Y15670D01*
X20852Y15675D01*
X20857D01*
X20862Y15670D01*
X20867Y15675D01*
X20872D01*
X20877Y15670D01*
Y15660D01*
X20872Y15655D01*
X20867D01*
X20862Y15660D01*
X20857Y15655D01*
X20852D01*
X20862Y15660D02*
Y15670D01*
X20847Y15685D02*
X20877D01*
Y15700D01*
X20872Y15705D01*
X20852D01*
X20847Y15700D01*
Y15685D01*
X21664Y15625D02*
X21634D01*
Y15640D01*
X21639Y15645D01*
X21649D01*
X21654Y15640D01*
Y15625D01*
Y15635D02*
X21664Y15645D01*
X21639Y15655D02*
X21634Y15660D01*
Y15670D01*
X21639Y15675D01*
X21644D01*
X21649Y15670D01*
X21654Y15675D01*
X21659D01*
X21664Y15670D01*
Y15660D01*
X21659Y15655D01*
X21654D01*
X21649Y15660D01*
X21644Y15655D01*
X21639D01*
X21649Y15660D02*
Y15670D01*
X21634Y15705D02*
Y15685D01*
X21664D01*
Y15705D01*
X21649Y15685D02*
Y15695D01*
X22452Y15625D02*
X22422D01*
Y15640D01*
X22427Y15645D01*
X22437D01*
X22442Y15640D01*
Y15625D01*
Y15635D02*
X22452Y15645D01*
X22427Y15655D02*
X22422Y15660D01*
Y15670D01*
X22427Y15675D01*
X22432D01*
X22437Y15670D01*
X22442Y15675D01*
X22447D01*
X22452Y15670D01*
Y15660D01*
X22447Y15655D01*
X22442D01*
X22437Y15660D01*
X22432Y15655D01*
X22427D01*
X22437Y15660D02*
Y15670D01*
X22422Y15705D02*
Y15685D01*
X22437D01*
Y15695D01*
Y15685D01*
X22452D01*
X18926Y15657D02*
X18896D01*
Y15672D01*
X18901Y15677D01*
X18911D01*
X18916Y15672D01*
Y15657D01*
Y15667D02*
X18926Y15677D01*
Y15687D02*
Y15697D01*
Y15692D01*
X18896D01*
X18901Y15687D01*
Y15712D02*
X18896Y15717D01*
Y15727D01*
X18901Y15732D01*
X18921D01*
X18926Y15727D01*
Y15717D01*
X18921Y15712D01*
X18901D01*
X18926Y15742D02*
X18906D01*
X18896Y15752D01*
X18906Y15762D01*
X18926D01*
X18911D01*
Y15742D01*
X19714Y15657D02*
X19684D01*
Y15672D01*
X19689Y15677D01*
X19699D01*
X19704Y15672D01*
Y15657D01*
Y15667D02*
X19714Y15677D01*
Y15687D02*
Y15697D01*
Y15692D01*
X19684D01*
X19689Y15687D01*
Y15712D02*
X19684Y15717D01*
Y15727D01*
X19689Y15732D01*
X19709D01*
X19714Y15727D01*
Y15717D01*
X19709Y15712D01*
X19689D01*
X19684Y15742D02*
X19714D01*
Y15757D01*
X19709Y15762D01*
X19704D01*
X19699Y15757D01*
Y15742D01*
Y15757D01*
X19694Y15762D01*
X19689D01*
X19684Y15757D01*
Y15742D01*
X20501Y15657D02*
X20471D01*
Y15672D01*
X20476Y15677D01*
X20486D01*
X20491Y15672D01*
Y15657D01*
Y15667D02*
X20501Y15677D01*
Y15687D02*
Y15697D01*
Y15692D01*
X20471D01*
X20476Y15687D01*
Y15712D02*
X20471Y15717D01*
Y15727D01*
X20476Y15732D01*
X20496D01*
X20501Y15727D01*
Y15717D01*
X20496Y15712D01*
X20476D01*
Y15762D02*
X20471Y15757D01*
Y15747D01*
X20476Y15742D01*
X20496D01*
X20501Y15747D01*
Y15757D01*
X20496Y15762D01*
X21289Y15657D02*
X21259D01*
Y15672D01*
X21264Y15677D01*
X21274D01*
X21279Y15672D01*
Y15657D01*
Y15667D02*
X21289Y15677D01*
Y15687D02*
Y15697D01*
Y15692D01*
X21259D01*
X21264Y15687D01*
Y15712D02*
X21259Y15717D01*
Y15727D01*
X21264Y15732D01*
X21284D01*
X21289Y15727D01*
Y15717D01*
X21284Y15712D01*
X21264D01*
X21259Y15742D02*
X21289D01*
Y15757D01*
X21284Y15762D01*
X21264D01*
X21259Y15757D01*
Y15742D01*
X22076Y15657D02*
X22046D01*
Y15672D01*
X22051Y15677D01*
X22061D01*
X22066Y15672D01*
Y15657D01*
Y15667D02*
X22076Y15677D01*
Y15687D02*
Y15697D01*
Y15692D01*
X22046D01*
X22051Y15687D01*
Y15712D02*
X22046Y15717D01*
Y15727D01*
X22051Y15732D01*
X22071D01*
X22076Y15727D01*
Y15717D01*
X22071Y15712D01*
X22051D01*
X22046Y15762D02*
Y15742D01*
X22076D01*
Y15762D01*
X22061Y15742D02*
Y15752D01*
X22863Y15657D02*
X22833D01*
Y15672D01*
X22838Y15677D01*
X22848D01*
X22853Y15672D01*
Y15657D01*
Y15667D02*
X22863Y15677D01*
Y15687D02*
Y15697D01*
Y15692D01*
X22833D01*
X22838Y15687D01*
Y15712D02*
X22833Y15717D01*
Y15727D01*
X22838Y15732D01*
X22858D01*
X22863Y15727D01*
Y15717D01*
X22858Y15712D01*
X22838D01*
X22833Y15762D02*
Y15742D01*
X22848D01*
Y15752D01*
Y15742D01*
X22863D01*
X22647Y12216D02*
X22617D01*
Y12231D01*
X22622Y12236D01*
X22632D01*
X22637Y12231D01*
Y12216D01*
Y12226D02*
X22647Y12236D01*
Y12246D02*
Y12256D01*
Y12251D01*
X22617D01*
X22622Y12246D01*
X22647Y12271D02*
Y12281D01*
Y12276D01*
X22617D01*
X22622Y12271D01*
X18474Y16001D02*
X18444D01*
Y16016D01*
X18449Y16021D01*
X18459D01*
X18464Y16016D01*
Y16001D01*
Y16011D02*
X18474Y16021D01*
Y16031D02*
Y16041D01*
Y16036D01*
X18444D01*
X18449Y16031D01*
X18474Y16076D02*
Y16056D01*
X18454Y16076D01*
X18449D01*
X18444Y16071D01*
Y16061D01*
X18449Y16056D01*
X18474Y16086D02*
X18454D01*
X18444Y16096D01*
X18454Y16106D01*
X18474D01*
X18459D01*
Y16086D01*
X19261Y16001D02*
X19231D01*
Y16016D01*
X19236Y16021D01*
X19246D01*
X19251Y16016D01*
Y16001D01*
Y16011D02*
X19261Y16021D01*
Y16031D02*
Y16041D01*
Y16036D01*
X19231D01*
X19236Y16031D01*
X19261Y16076D02*
Y16056D01*
X19241Y16076D01*
X19236D01*
X19231Y16071D01*
Y16061D01*
X19236Y16056D01*
X19231Y16086D02*
X19261D01*
Y16101D01*
X19256Y16106D01*
X19251D01*
X19246Y16101D01*
Y16086D01*
Y16101D01*
X19241Y16106D01*
X19236D01*
X19231Y16101D01*
Y16086D01*
X20048Y16001D02*
X20018D01*
Y16016D01*
X20023Y16021D01*
X20033D01*
X20038Y16016D01*
Y16001D01*
Y16011D02*
X20048Y16021D01*
Y16031D02*
Y16041D01*
Y16036D01*
X20018D01*
X20023Y16031D01*
X20048Y16076D02*
Y16056D01*
X20028Y16076D01*
X20023D01*
X20018Y16071D01*
Y16061D01*
X20023Y16056D01*
Y16106D02*
X20018Y16101D01*
Y16091D01*
X20023Y16086D01*
X20043D01*
X20048Y16091D01*
Y16101D01*
X20043Y16106D01*
X20836Y16001D02*
X20806D01*
Y16016D01*
X20811Y16021D01*
X20821D01*
X20826Y16016D01*
Y16001D01*
Y16011D02*
X20836Y16021D01*
Y16031D02*
Y16041D01*
Y16036D01*
X20806D01*
X20811Y16031D01*
X20836Y16076D02*
Y16056D01*
X20816Y16076D01*
X20811D01*
X20806Y16071D01*
Y16061D01*
X20811Y16056D01*
X20806Y16086D02*
X20836D01*
Y16101D01*
X20831Y16106D01*
X20811D01*
X20806Y16101D01*
Y16086D01*
X21623Y16001D02*
X21593D01*
Y16016D01*
X21598Y16021D01*
X21608D01*
X21613Y16016D01*
Y16001D01*
Y16011D02*
X21623Y16021D01*
Y16031D02*
Y16041D01*
Y16036D01*
X21593D01*
X21598Y16031D01*
X21623Y16076D02*
Y16056D01*
X21603Y16076D01*
X21598D01*
X21593Y16071D01*
Y16061D01*
X21598Y16056D01*
X21593Y16106D02*
Y16086D01*
X21623D01*
Y16106D01*
X21608Y16086D02*
Y16096D01*
X22411Y16001D02*
X22381D01*
Y16016D01*
X22386Y16021D01*
X22396D01*
X22401Y16016D01*
Y16001D01*
Y16011D02*
X22411Y16021D01*
Y16031D02*
Y16041D01*
Y16036D01*
X22381D01*
X22386Y16031D01*
X22411Y16076D02*
Y16056D01*
X22391Y16076D01*
X22386D01*
X22381Y16071D01*
Y16061D01*
X22386Y16056D01*
X22381Y16106D02*
Y16086D01*
X22396D01*
Y16096D01*
Y16086D01*
X22411D01*
X18926Y15814D02*
X18896D01*
Y15829D01*
X18901Y15834D01*
X18911D01*
X18916Y15829D01*
Y15814D01*
Y15824D02*
X18926Y15834D01*
Y15844D02*
Y15854D01*
Y15849D01*
X18896D01*
X18901Y15844D01*
Y15869D02*
X18896Y15874D01*
Y15884D01*
X18901Y15889D01*
X18906D01*
X18911Y15884D01*
Y15879D01*
Y15884D01*
X18916Y15889D01*
X18921D01*
X18926Y15884D01*
Y15874D01*
X18921Y15869D01*
X18926Y15899D02*
X18906D01*
X18896Y15909D01*
X18906Y15919D01*
X18926D01*
X18911D01*
Y15899D01*
X19714Y15814D02*
X19684D01*
Y15829D01*
X19689Y15834D01*
X19699D01*
X19704Y15829D01*
Y15814D01*
Y15824D02*
X19714Y15834D01*
Y15844D02*
Y15854D01*
Y15849D01*
X19684D01*
X19689Y15844D01*
Y15869D02*
X19684Y15874D01*
Y15884D01*
X19689Y15889D01*
X19694D01*
X19699Y15884D01*
Y15879D01*
Y15884D01*
X19704Y15889D01*
X19709D01*
X19714Y15884D01*
Y15874D01*
X19709Y15869D01*
X19684Y15899D02*
X19714D01*
Y15914D01*
X19709Y15919D01*
X19704D01*
X19699Y15914D01*
Y15899D01*
Y15914D01*
X19694Y15919D01*
X19689D01*
X19684Y15914D01*
Y15899D01*
X20501Y15814D02*
X20471D01*
Y15829D01*
X20476Y15834D01*
X20486D01*
X20491Y15829D01*
Y15814D01*
Y15824D02*
X20501Y15834D01*
Y15844D02*
Y15854D01*
Y15849D01*
X20471D01*
X20476Y15844D01*
Y15869D02*
X20471Y15874D01*
Y15884D01*
X20476Y15889D01*
X20481D01*
X20486Y15884D01*
Y15879D01*
Y15884D01*
X20491Y15889D01*
X20496D01*
X20501Y15884D01*
Y15874D01*
X20496Y15869D01*
X20476Y15919D02*
X20471Y15914D01*
Y15904D01*
X20476Y15899D01*
X20496D01*
X20501Y15904D01*
Y15914D01*
X20496Y15919D01*
X21289Y15814D02*
X21259D01*
Y15829D01*
X21264Y15834D01*
X21274D01*
X21279Y15829D01*
Y15814D01*
Y15824D02*
X21289Y15834D01*
Y15844D02*
Y15854D01*
Y15849D01*
X21259D01*
X21264Y15844D01*
Y15869D02*
X21259Y15874D01*
Y15884D01*
X21264Y15889D01*
X21269D01*
X21274Y15884D01*
Y15879D01*
Y15884D01*
X21279Y15889D01*
X21284D01*
X21289Y15884D01*
Y15874D01*
X21284Y15869D01*
X21259Y15899D02*
X21289D01*
Y15914D01*
X21284Y15919D01*
X21264D01*
X21259Y15914D01*
Y15899D01*
X22076Y15814D02*
X22046D01*
Y15829D01*
X22051Y15834D01*
X22061D01*
X22066Y15829D01*
Y15814D01*
Y15824D02*
X22076Y15834D01*
Y15844D02*
Y15854D01*
Y15849D01*
X22046D01*
X22051Y15844D01*
Y15869D02*
X22046Y15874D01*
Y15884D01*
X22051Y15889D01*
X22056D01*
X22061Y15884D01*
Y15879D01*
Y15884D01*
X22066Y15889D01*
X22071D01*
X22076Y15884D01*
Y15874D01*
X22071Y15869D01*
X22046Y15919D02*
Y15899D01*
X22076D01*
Y15919D01*
X22061Y15899D02*
Y15909D01*
X22863Y15814D02*
X22833D01*
Y15829D01*
X22838Y15834D01*
X22848D01*
X22853Y15829D01*
Y15814D01*
Y15824D02*
X22863Y15834D01*
Y15844D02*
Y15854D01*
Y15849D01*
X22833D01*
X22838Y15844D01*
Y15869D02*
X22833Y15874D01*
Y15884D01*
X22838Y15889D01*
X22843D01*
X22848Y15884D01*
Y15879D01*
Y15884D01*
X22853Y15889D01*
X22858D01*
X22863Y15884D01*
Y15874D01*
X22858Y15869D01*
X22833Y15919D02*
Y15899D01*
X22848D01*
Y15909D01*
Y15899D01*
X22863D01*
X18352Y15615D02*
Y15645D01*
X18367D01*
X18372Y15640D01*
Y15630D01*
X18367Y15625D01*
X18352D01*
X18362D02*
X18372Y15615D01*
X18382D02*
X18392D01*
X18387D01*
Y15645D01*
X18382Y15640D01*
X18407Y15645D02*
X18427D01*
Y15640D01*
X18407Y15620D01*
Y15615D01*
X18437D02*
Y15635D01*
X18447Y15645D01*
X18457Y15635D01*
Y15615D01*
Y15630D01*
X18437D01*
X19119Y15593D02*
Y15623D01*
X19134D01*
X19139Y15618D01*
Y15608D01*
X19134Y15603D01*
X19119D01*
X19129D02*
X19139Y15593D01*
X19149D02*
X19159D01*
X19154D01*
Y15623D01*
X19149Y15618D01*
X19174Y15623D02*
X19194D01*
Y15618D01*
X19174Y15598D01*
Y15593D01*
X19204Y15623D02*
Y15593D01*
X19219D01*
X19224Y15598D01*
Y15603D01*
X19219Y15608D01*
X19204D01*
X19219D01*
X19224Y15613D01*
Y15618D01*
X19219Y15623D01*
X19204D01*
X19906Y15593D02*
Y15623D01*
X19921D01*
X19926Y15618D01*
Y15608D01*
X19921Y15603D01*
X19906D01*
X19916D02*
X19926Y15593D01*
X19936D02*
X19946D01*
X19941D01*
Y15623D01*
X19936Y15618D01*
X19961Y15623D02*
X19981D01*
Y15618D01*
X19961Y15598D01*
Y15593D01*
X20011Y15618D02*
X20006Y15623D01*
X19996D01*
X19991Y15618D01*
Y15598D01*
X19996Y15593D01*
X20006D01*
X20011Y15598D01*
X20694Y15593D02*
Y15623D01*
X20709D01*
X20714Y15618D01*
Y15608D01*
X20709Y15603D01*
X20694D01*
X20704D02*
X20714Y15593D01*
X20724D02*
X20734D01*
X20729D01*
Y15623D01*
X20724Y15618D01*
X20749Y15623D02*
X20769D01*
Y15618D01*
X20749Y15598D01*
Y15593D01*
X20779Y15623D02*
Y15593D01*
X20794D01*
X20799Y15598D01*
Y15618D01*
X20794Y15623D01*
X20779D01*
X21481Y15593D02*
Y15623D01*
X21496D01*
X21501Y15618D01*
Y15608D01*
X21496Y15603D01*
X21481D01*
X21491D02*
X21501Y15593D01*
X21511D02*
X21521D01*
X21516D01*
Y15623D01*
X21511Y15618D01*
X21536Y15623D02*
X21556D01*
Y15618D01*
X21536Y15598D01*
Y15593D01*
X21586Y15623D02*
X21566D01*
Y15593D01*
X21586D01*
X21566Y15608D02*
X21576D01*
X22269Y15593D02*
Y15623D01*
X22284D01*
X22289Y15618D01*
Y15608D01*
X22284Y15603D01*
X22269D01*
X22279D02*
X22289Y15593D01*
X22299D02*
X22309D01*
X22304D01*
Y15623D01*
X22299Y15618D01*
X22324Y15623D02*
X22344D01*
Y15618D01*
X22324Y15598D01*
Y15593D01*
X22374Y15623D02*
X22354D01*
Y15608D01*
X22364D01*
X22354D01*
Y15593D01*
X18926Y15440D02*
X18896D01*
Y15455D01*
X18901Y15460D01*
X18911D01*
X18916Y15455D01*
Y15440D01*
Y15450D02*
X18926Y15460D01*
Y15490D02*
Y15470D01*
X18906Y15490D01*
X18901D01*
X18896Y15485D01*
Y15475D01*
X18901Y15470D01*
Y15500D02*
X18896Y15505D01*
Y15515D01*
X18901Y15520D01*
X18921D01*
X18926Y15515D01*
Y15505D01*
X18921Y15500D01*
X18901D01*
X18926Y15530D02*
X18906D01*
X18896Y15540D01*
X18906Y15550D01*
X18926D01*
X18911D01*
Y15530D01*
X19714Y15440D02*
X19684D01*
Y15455D01*
X19689Y15460D01*
X19699D01*
X19704Y15455D01*
Y15440D01*
Y15450D02*
X19714Y15460D01*
Y15490D02*
Y15470D01*
X19694Y15490D01*
X19689D01*
X19684Y15485D01*
Y15475D01*
X19689Y15470D01*
Y15500D02*
X19684Y15505D01*
Y15515D01*
X19689Y15520D01*
X19709D01*
X19714Y15515D01*
Y15505D01*
X19709Y15500D01*
X19689D01*
X19684Y15530D02*
X19714D01*
Y15545D01*
X19709Y15550D01*
X19704D01*
X19699Y15545D01*
Y15530D01*
Y15545D01*
X19694Y15550D01*
X19689D01*
X19684Y15545D01*
Y15530D01*
X20501Y15440D02*
X20471D01*
Y15455D01*
X20476Y15460D01*
X20486D01*
X20491Y15455D01*
Y15440D01*
Y15450D02*
X20501Y15460D01*
Y15490D02*
Y15470D01*
X20481Y15490D01*
X20476D01*
X20471Y15485D01*
Y15475D01*
X20476Y15470D01*
Y15500D02*
X20471Y15505D01*
Y15515D01*
X20476Y15520D01*
X20496D01*
X20501Y15515D01*
Y15505D01*
X20496Y15500D01*
X20476D01*
Y15550D02*
X20471Y15545D01*
Y15535D01*
X20476Y15530D01*
X20496D01*
X20501Y15535D01*
Y15545D01*
X20496Y15550D01*
X21289Y15440D02*
X21259D01*
Y15455D01*
X21264Y15460D01*
X21274D01*
X21279Y15455D01*
Y15440D01*
Y15450D02*
X21289Y15460D01*
Y15490D02*
Y15470D01*
X21269Y15490D01*
X21264D01*
X21259Y15485D01*
Y15475D01*
X21264Y15470D01*
Y15500D02*
X21259Y15505D01*
Y15515D01*
X21264Y15520D01*
X21284D01*
X21289Y15515D01*
Y15505D01*
X21284Y15500D01*
X21264D01*
X21259Y15530D02*
X21289D01*
Y15545D01*
X21284Y15550D01*
X21264D01*
X21259Y15545D01*
Y15530D01*
X22076Y15440D02*
X22046D01*
Y15455D01*
X22051Y15460D01*
X22061D01*
X22066Y15455D01*
Y15440D01*
Y15450D02*
X22076Y15460D01*
Y15490D02*
Y15470D01*
X22056Y15490D01*
X22051D01*
X22046Y15485D01*
Y15475D01*
X22051Y15470D01*
Y15500D02*
X22046Y15505D01*
Y15515D01*
X22051Y15520D01*
X22071D01*
X22076Y15515D01*
Y15505D01*
X22071Y15500D01*
X22051D01*
X22046Y15550D02*
Y15530D01*
X22076D01*
Y15550D01*
X22061Y15530D02*
Y15540D01*
X22863Y15440D02*
X22833D01*
Y15455D01*
X22838Y15460D01*
X22848D01*
X22853Y15455D01*
Y15440D01*
Y15450D02*
X22863Y15460D01*
Y15490D02*
Y15470D01*
X22843Y15490D01*
X22838D01*
X22833Y15485D01*
Y15475D01*
X22838Y15470D01*
Y15500D02*
X22833Y15505D01*
Y15515D01*
X22838Y15520D01*
X22858D01*
X22863Y15515D01*
Y15505D01*
X22858Y15500D01*
X22838D01*
X22833Y15550D02*
Y15530D01*
X22848D01*
Y15540D01*
Y15530D01*
X22863D01*
X23999Y13664D02*
Y13694D01*
X24014D01*
X24019Y13689D01*
Y13679D01*
X24014Y13674D01*
X23999D01*
X24009D02*
X24019Y13664D01*
X24049D02*
X24029D01*
X24049Y13684D01*
Y13689D01*
X24044Y13694D01*
X24034D01*
X24029Y13689D01*
X24059Y13664D02*
X24069D01*
X24064D01*
Y13694D01*
X24059Y13689D01*
X23835Y13616D02*
Y13646D01*
X23850D01*
X23855Y13641D01*
Y13631D01*
X23850Y13626D01*
X23835D01*
X23845D02*
X23855Y13616D01*
X23885D02*
X23865D01*
X23885Y13636D01*
Y13641D01*
X23880Y13646D01*
X23870D01*
X23865Y13641D01*
X23915Y13616D02*
X23895D01*
X23915Y13636D01*
Y13641D01*
X23910Y13646D01*
X23900D01*
X23895Y13641D01*
X23716Y12849D02*
X23686D01*
Y12864D01*
X23691Y12869D01*
X23701D01*
X23706Y12864D01*
Y12849D01*
Y12859D02*
X23716Y12869D01*
X23691Y12879D02*
X23686Y12884D01*
Y12894D01*
X23691Y12899D01*
X23696D01*
X23701Y12894D01*
Y12889D01*
Y12894D01*
X23706Y12899D01*
X23711D01*
X23716Y12894D01*
Y12884D01*
X23711Y12879D01*
X23716Y12909D02*
Y12919D01*
Y12914D01*
X23686D01*
X23691Y12909D01*
X23716Y13084D02*
X23686D01*
Y13099D01*
X23691Y13104D01*
X23701D01*
X23706Y13099D01*
Y13084D01*
Y13094D02*
X23716Y13104D01*
X23691Y13114D02*
X23686Y13119D01*
Y13129D01*
X23691Y13134D01*
X23696D01*
X23701Y13129D01*
Y13124D01*
Y13129D01*
X23706Y13134D01*
X23711D01*
X23716Y13129D01*
Y13119D01*
X23711Y13114D01*
X23716Y13164D02*
Y13144D01*
X23696Y13164D01*
X23691D01*
X23686Y13159D01*
Y13149D01*
X23691Y13144D01*
X18718Y12375D02*
Y12405D01*
X18733D01*
X18738Y12400D01*
Y12390D01*
X18733Y12385D01*
X18718D01*
X18728D02*
X18738Y12375D01*
X18763D02*
Y12405D01*
X18748Y12390D01*
X18768D01*
X18798Y12405D02*
X18778D01*
Y12390D01*
X18788Y12395D01*
X18793D01*
X18798Y12390D01*
Y12380D01*
X18793Y12375D01*
X18783D01*
X18778Y12380D01*
X18606Y12374D02*
Y12404D01*
X18621D01*
X18626Y12399D01*
Y12389D01*
X18621Y12384D01*
X18606D01*
X18616D02*
X18626Y12374D01*
X18651D02*
Y12404D01*
X18636Y12389D01*
X18656D01*
X18686Y12404D02*
X18676Y12399D01*
X18666Y12389D01*
Y12379D01*
X18671Y12374D01*
X18681D01*
X18686Y12379D01*
Y12384D01*
X18681Y12389D01*
X18666D01*
X18326Y12374D02*
Y12404D01*
X18341D01*
X18346Y12399D01*
Y12389D01*
X18341Y12384D01*
X18326D01*
X18336D02*
X18346Y12374D01*
X18371D02*
Y12404D01*
X18356Y12389D01*
X18376D01*
X18386Y12404D02*
X18406D01*
Y12399D01*
X18386Y12379D01*
Y12374D01*
X18883Y14569D02*
Y14544D01*
X18888Y14539D01*
X18898D01*
X18903Y14544D01*
Y14569D01*
X18913Y14539D02*
X18923D01*
X18918D01*
Y14569D01*
X18913Y14564D01*
X18938Y14539D02*
Y14559D01*
X18948Y14569D01*
X18958Y14559D01*
Y14539D01*
Y14554D01*
X18938D01*
X20655Y14569D02*
Y14544D01*
X20660Y14539D01*
X20670D01*
X20675Y14544D01*
Y14569D01*
X20685Y14539D02*
X20695D01*
X20690D01*
Y14569D01*
X20685Y14564D01*
X20730D02*
X20725Y14569D01*
X20715D01*
X20710Y14564D01*
Y14544D01*
X20715Y14539D01*
X20725D01*
X20730Y14544D01*
X21541Y14569D02*
Y14544D01*
X21546Y14539D01*
X21556D01*
X21561Y14544D01*
Y14569D01*
X21571Y14539D02*
X21581D01*
X21576D01*
Y14569D01*
X21571Y14564D01*
X21596Y14569D02*
Y14539D01*
X21611D01*
X21616Y14544D01*
Y14564D01*
X21611Y14569D01*
X21596D01*
X18509Y14254D02*
Y14229D01*
X18514Y14224D01*
X18524D01*
X18529Y14229D01*
Y14254D01*
X18559Y14224D02*
X18539D01*
X18559Y14244D01*
Y14249D01*
X18554Y14254D01*
X18544D01*
X18539Y14249D01*
X18569Y14224D02*
Y14244D01*
X18579Y14254D01*
X18589Y14244D01*
Y14224D01*
Y14239D01*
X18569D01*
X20281Y14254D02*
Y14229D01*
X20286Y14224D01*
X20296D01*
X20301Y14229D01*
Y14254D01*
X20331Y14224D02*
X20311D01*
X20331Y14244D01*
Y14249D01*
X20326Y14254D01*
X20316D01*
X20311Y14249D01*
X20361D02*
X20356Y14254D01*
X20346D01*
X20341Y14249D01*
Y14229D01*
X20346Y14224D01*
X20356D01*
X20361Y14229D01*
X21167Y14254D02*
Y14229D01*
X21172Y14224D01*
X21182D01*
X21187Y14229D01*
Y14254D01*
X21217Y14224D02*
X21197D01*
X21217Y14244D01*
Y14249D01*
X21212Y14254D01*
X21202D01*
X21197Y14249D01*
X21227Y14254D02*
Y14224D01*
X21242D01*
X21247Y14229D01*
Y14249D01*
X21242Y14254D01*
X21227D01*
X18773Y15183D02*
Y15158D01*
X18778Y15153D01*
X18788D01*
X18793Y15158D01*
Y15183D01*
X18818Y15153D02*
Y15183D01*
X18803Y15168D01*
X18823D01*
X18833Y15153D02*
Y15173D01*
X18843Y15183D01*
X18853Y15173D01*
Y15153D01*
Y15168D01*
X18833D01*
X19846Y15183D02*
Y15158D01*
X19851Y15153D01*
X19861D01*
X19866Y15158D01*
Y15183D01*
X19891Y15153D02*
Y15183D01*
X19876Y15168D01*
X19896D01*
X19906Y15183D02*
Y15153D01*
X19921D01*
X19926Y15158D01*
Y15163D01*
X19921Y15168D01*
X19906D01*
X19921D01*
X19926Y15173D01*
Y15178D01*
X19921Y15183D01*
X19906D01*
X20918D02*
Y15158D01*
X20923Y15153D01*
X20933D01*
X20938Y15158D01*
Y15183D01*
X20963Y15153D02*
Y15183D01*
X20948Y15168D01*
X20968D01*
X20998Y15178D02*
X20993Y15183D01*
X20983D01*
X20978Y15178D01*
Y15158D01*
X20983Y15153D01*
X20993D01*
X20998Y15158D01*
X21991Y15183D02*
Y15158D01*
X21996Y15153D01*
X22006D01*
X22011Y15158D01*
Y15183D01*
X22036Y15153D02*
Y15183D01*
X22021Y15168D01*
X22041D01*
X22051Y15183D02*
Y15153D01*
X22066D01*
X22071Y15158D01*
Y15178D01*
X22066Y15183D01*
X22051D01*
X18997Y14773D02*
Y14748D01*
X19002Y14743D01*
X19012D01*
X19017Y14748D01*
Y14773D01*
X19027D02*
X19047D01*
Y14768D01*
X19027Y14748D01*
Y14743D01*
X19057D02*
Y14763D01*
X19067Y14773D01*
X19077Y14763D01*
Y14743D01*
Y14758D01*
X19057D01*
X20070Y14773D02*
Y14748D01*
X20075Y14743D01*
X20085D01*
X20090Y14748D01*
Y14773D01*
X20100D02*
X20120D01*
Y14768D01*
X20100Y14748D01*
Y14743D01*
X20130Y14773D02*
Y14743D01*
X20145D01*
X20150Y14748D01*
Y14753D01*
X20145Y14758D01*
X20130D01*
X20145D01*
X20150Y14763D01*
Y14768D01*
X20145Y14773D01*
X20130D01*
X21143D02*
Y14748D01*
X21148Y14743D01*
X21158D01*
X21163Y14748D01*
Y14773D01*
X21173D02*
X21193D01*
Y14768D01*
X21173Y14748D01*
Y14743D01*
X21223Y14768D02*
X21218Y14773D01*
X21208D01*
X21203Y14768D01*
Y14748D01*
X21208Y14743D01*
X21218D01*
X21223Y14748D01*
X22216Y14773D02*
Y14748D01*
X22221Y14743D01*
X22231D01*
X22236Y14748D01*
Y14773D01*
X22246D02*
X22266D01*
Y14768D01*
X22246Y14748D01*
Y14743D01*
X22276Y14773D02*
Y14743D01*
X22291D01*
X22296Y14748D01*
Y14768D01*
X22291Y14773D01*
X22276D01*
X22930Y14753D02*
Y14728D01*
X22935Y14723D01*
X22945D01*
X22950Y14728D01*
Y14753D01*
X22960Y14728D02*
X22965Y14723D01*
X22975D01*
X22980Y14728D01*
Y14748D01*
X22975Y14753D01*
X22965D01*
X22960Y14748D01*
Y14743D01*
X22965Y14738D01*
X22980D01*
X19649Y14582D02*
X19644Y14587D01*
X19634D01*
X19629Y14582D01*
Y14562D01*
X19634Y14557D01*
X19644D01*
X19649Y14562D01*
X19679Y14557D02*
X19659D01*
X19679Y14577D01*
Y14582D01*
X19674Y14587D01*
X19664D01*
X19659Y14582D01*
X19689Y14587D02*
Y14557D01*
X19704D01*
X19709Y14562D01*
Y14567D01*
X19704Y14572D01*
X19689D01*
X19704D01*
X19709Y14577D01*
Y14582D01*
X19704Y14587D01*
X19689D01*
X22306Y14582D02*
X22301Y14587D01*
X22291D01*
X22286Y14582D01*
Y14562D01*
X22291Y14557D01*
X22301D01*
X22306Y14562D01*
X22336Y14557D02*
X22316D01*
X22336Y14577D01*
Y14582D01*
X22331Y14587D01*
X22321D01*
X22316Y14582D01*
X22366Y14587D02*
X22346D01*
Y14557D01*
X22366D01*
X22346Y14572D02*
X22356D01*
X19502Y14576D02*
X19497Y14581D01*
X19487D01*
X19482Y14576D01*
Y14556D01*
X19487Y14551D01*
X19497D01*
X19502Y14556D01*
X19527Y14551D02*
Y14581D01*
X19512Y14566D01*
X19532D01*
X19542Y14581D02*
Y14551D01*
X19557D01*
X19562Y14556D01*
Y14561D01*
X19557Y14566D01*
X19542D01*
X19557D01*
X19562Y14571D01*
Y14576D01*
X19557Y14581D01*
X19542D01*
X22159Y14576D02*
X22154Y14581D01*
X22144D01*
X22139Y14576D01*
Y14556D01*
X22144Y14551D01*
X22154D01*
X22159Y14556D01*
X22184Y14551D02*
Y14581D01*
X22169Y14566D01*
X22189D01*
X22219Y14581D02*
X22199D01*
Y14551D01*
X22219D01*
X22199Y14566D02*
X22209D01*
X19297Y14293D02*
Y14263D01*
X19317D01*
X19327D02*
X19337D01*
X19332D01*
Y14293D01*
X19327Y14288D01*
X19352Y14293D02*
Y14263D01*
X19367D01*
X19372Y14268D01*
Y14273D01*
X19367Y14278D01*
X19352D01*
X19367D01*
X19372Y14283D01*
Y14288D01*
X19367Y14293D01*
X19352D01*
X21954D02*
Y14263D01*
X21974D01*
X21984D02*
X21994D01*
X21989D01*
Y14293D01*
X21984Y14288D01*
X22029Y14293D02*
X22009D01*
Y14263D01*
X22029D01*
X22009Y14278D02*
X22019D01*
X19860Y14486D02*
Y14456D01*
X19880D01*
X19910D02*
X19890D01*
X19910Y14476D01*
Y14481D01*
X19905Y14486D01*
X19895D01*
X19890Y14481D01*
X19920Y14486D02*
Y14456D01*
X19935D01*
X19940Y14461D01*
Y14466D01*
X19935Y14471D01*
X19920D01*
X19935D01*
X19940Y14476D01*
Y14481D01*
X19935Y14486D01*
X19920D01*
X22517D02*
Y14456D01*
X22537D01*
X22567D02*
X22547D01*
X22567Y14476D01*
Y14481D01*
X22562Y14486D01*
X22552D01*
X22547Y14481D01*
X22597Y14486D02*
X22577D01*
Y14456D01*
X22597D01*
X22577Y14471D02*
X22587D01*
X19340Y14573D02*
X19360D01*
X19350D01*
Y14543D01*
X19370D02*
Y14573D01*
X19385D01*
X19390Y14568D01*
Y14558D01*
X19385Y14553D01*
X19370D01*
X19400Y14568D02*
X19405Y14573D01*
X19415D01*
X19420Y14568D01*
Y14563D01*
X19415Y14558D01*
X19410D01*
X19415D01*
X19420Y14553D01*
Y14548D01*
X19415Y14543D01*
X19405D01*
X19400Y14548D01*
X19430Y14573D02*
Y14543D01*
X19445D01*
X19450Y14548D01*
Y14553D01*
X19445Y14558D01*
X19430D01*
X19445D01*
X19450Y14563D01*
Y14568D01*
X19445Y14573D01*
X19430D01*
X21998D02*
X22018D01*
X22008D01*
Y14543D01*
X22028D02*
Y14573D01*
X22043D01*
X22048Y14568D01*
Y14558D01*
X22043Y14553D01*
X22028D01*
X22058Y14568D02*
X22063Y14573D01*
X22073D01*
X22078Y14568D01*
Y14563D01*
X22073Y14558D01*
X22068D01*
X22073D01*
X22078Y14553D01*
Y14548D01*
X22073Y14543D01*
X22063D01*
X22058Y14548D01*
X22107Y14573D02*
X22087D01*
Y14543D01*
X22107D01*
X22087Y14558D02*
X22097D01*
X19769Y14569D02*
Y14544D01*
X19774Y14539D01*
X19784D01*
X19789Y14544D01*
Y14569D01*
X19799Y14539D02*
X19809D01*
X19804D01*
Y14569D01*
X19799Y14564D01*
X19824Y14569D02*
Y14539D01*
X19839D01*
X19844Y14544D01*
Y14549D01*
X19839Y14554D01*
X19824D01*
X19839D01*
X19844Y14559D01*
Y14564D01*
X19839Y14569D01*
X19824D01*
X22427D02*
Y14544D01*
X22432Y14539D01*
X22442D01*
X22447Y14544D01*
Y14569D01*
X22457Y14539D02*
X22467D01*
X22462D01*
Y14569D01*
X22457Y14564D01*
X22502Y14569D02*
X22482D01*
Y14539D01*
X22502D01*
X22482Y14554D02*
X22492D01*
X19395Y14254D02*
Y14229D01*
X19400Y14224D01*
X19410D01*
X19415Y14229D01*
Y14254D01*
X19445Y14224D02*
X19425D01*
X19445Y14244D01*
Y14249D01*
X19440Y14254D01*
X19430D01*
X19425Y14249D01*
X19455Y14254D02*
Y14224D01*
X19470D01*
X19475Y14229D01*
Y14234D01*
X19470Y14239D01*
X19455D01*
X19470D01*
X19475Y14244D01*
Y14249D01*
X19470Y14254D01*
X19455D01*
X22053D02*
Y14229D01*
X22058Y14224D01*
X22068D01*
X22073Y14229D01*
Y14254D01*
X22103Y14224D02*
X22083D01*
X22103Y14244D01*
Y14249D01*
X22098Y14254D01*
X22088D01*
X22083Y14249D01*
X22133Y14254D02*
X22113D01*
Y14224D01*
X22133D01*
X22113Y14239D02*
X22123D01*
X23782Y15547D02*
X23752D01*
Y15562D01*
X23757Y15567D01*
X23767D01*
X23772Y15562D01*
Y15547D01*
X23757Y15577D02*
X23752Y15582D01*
Y15592D01*
X23757Y15597D01*
X23762D01*
X23767Y15592D01*
Y15587D01*
Y15592D01*
X23772Y15597D01*
X23777D01*
X23782Y15592D01*
Y15582D01*
X23777Y15577D01*
X22573Y12555D02*
X22568Y12560D01*
X22558D01*
X22553Y12555D01*
Y12535D01*
X22558Y12530D01*
X22568D01*
X22573Y12535D01*
X22583Y12530D02*
X22593D01*
X22588D01*
Y12560D01*
X22583Y12555D01*
X22628Y12530D02*
X22608D01*
X22628Y12550D01*
Y12555D01*
X22623Y12560D01*
X22613D01*
X22608Y12555D01*
X22573Y12490D02*
X22568Y12495D01*
X22558D01*
X22553Y12490D01*
Y12470D01*
X22558Y12465D01*
X22568D01*
X22573Y12470D01*
X22583Y12465D02*
X22593D01*
X22588D01*
Y12495D01*
X22583Y12490D01*
X22628Y12495D02*
X22618Y12490D01*
X22608Y12480D01*
Y12470D01*
X22613Y12465D01*
X22623D01*
X22628Y12470D01*
Y12475D01*
X22623Y12480D01*
X22608D01*
X23993Y14197D02*
Y14227D01*
X24008D01*
X24013Y14222D01*
Y14212D01*
X24008Y14207D01*
X23993D01*
X24003D02*
X24013Y14197D01*
X24023D02*
Y14227D01*
X24043Y14197D01*
Y14227D01*
X24053Y14197D02*
X24063D01*
X24058D01*
Y14227D01*
X24053Y14222D01*
X22710Y12280D02*
Y12255D01*
X22715Y12250D01*
X22725D01*
X22730Y12255D01*
Y12280D01*
X22740Y12250D02*
X22750D01*
X22745D01*
Y12280D01*
X22740Y12275D01*
X22765D02*
X22770Y12280D01*
X22780D01*
X22785Y12275D01*
Y12255D01*
X22780Y12250D01*
X22770D01*
X22765Y12255D01*
Y12275D01*
X18794Y12719D02*
Y12694D01*
X18799Y12689D01*
X18809D01*
X18814Y12694D01*
Y12719D01*
X18824Y12689D02*
X18834D01*
X18829D01*
Y12719D01*
X18824Y12714D01*
X18869Y12719D02*
X18849D01*
Y12704D01*
X18859Y12709D01*
X18864D01*
X18869Y12704D01*
Y12694D01*
X18864Y12689D01*
X18854D01*
X18849Y12694D01*
X23093Y13973D02*
Y14003D01*
X23108D01*
X23113Y13998D01*
Y13988D01*
X23108Y13983D01*
X23093D01*
X23143Y13973D02*
X23123D01*
X23143Y13993D01*
Y13998D01*
X23138Y14003D01*
X23128D01*
X23123Y13998D01*
X19011Y15939D02*
Y15959D01*
Y15949D01*
X19041D01*
Y15969D02*
X19011D01*
Y15984D01*
X19016Y15989D01*
X19026D01*
X19031Y15984D01*
Y15969D01*
X19041Y15999D02*
Y16009D01*
Y16004D01*
X19011D01*
X19016Y15999D01*
X19041Y16024D02*
Y16034D01*
Y16029D01*
X19011D01*
X19016Y16024D01*
X21496Y15994D02*
Y16014D01*
Y16004D01*
X21526D01*
Y16024D02*
X21496D01*
Y16039D01*
X21501Y16044D01*
X21511D01*
X21516Y16039D01*
Y16024D01*
X21526Y16054D02*
Y16064D01*
Y16059D01*
X21496D01*
X21501Y16054D01*
X21526Y16099D02*
Y16079D01*
X21506Y16099D01*
X21501D01*
X21496Y16094D01*
Y16084D01*
X21501Y16079D01*
X22969Y15922D02*
X22989D01*
X22979D01*
Y15892D01*
X22999D02*
Y15922D01*
X23014D01*
X23019Y15917D01*
Y15907D01*
X23014Y15902D01*
X22999D01*
X23029Y15892D02*
X23039D01*
X23034D01*
Y15922D01*
X23029Y15917D01*
X23054D02*
X23059Y15922D01*
X23069D01*
X23074Y15917D01*
Y15912D01*
X23069Y15907D01*
X23064D01*
X23069D01*
X23074Y15902D01*
Y15897D01*
X23069Y15892D01*
X23059D01*
X23054Y15897D01*
X18283Y15966D02*
Y15986D01*
Y15976D01*
X18313D01*
Y15996D02*
X18283D01*
Y16011D01*
X18288Y16016D01*
X18298D01*
X18303Y16011D01*
Y15996D01*
X18313Y16026D02*
Y16036D01*
Y16031D01*
X18283D01*
X18288Y16026D01*
X18313Y16066D02*
X18283D01*
X18298Y16051D01*
Y16071D01*
X22982Y15255D02*
X23002D01*
X22992D01*
Y15225D01*
X23012D02*
Y15255D01*
X23027D01*
X23032Y15250D01*
Y15240D01*
X23027Y15235D01*
X23012D01*
X23042Y15225D02*
X23052D01*
X23047D01*
Y15255D01*
X23042Y15250D01*
X23087Y15255D02*
X23067D01*
Y15240D01*
X23077Y15245D01*
X23082D01*
X23087Y15240D01*
Y15230D01*
X23082Y15225D01*
X23072D01*
X23067Y15230D01*
X18481Y15241D02*
X18501D01*
X18491D01*
Y15211D01*
X18511D02*
Y15241D01*
X18526D01*
X18531Y15236D01*
Y15226D01*
X18526Y15221D01*
X18511D01*
X18541Y15211D02*
X18551D01*
X18546D01*
Y15241D01*
X18541Y15236D01*
X18586Y15241D02*
X18576Y15236D01*
X18566Y15226D01*
Y15216D01*
X18571Y15211D01*
X18581D01*
X18586Y15216D01*
Y15221D01*
X18581Y15226D01*
X18566D01*
X22169Y15331D02*
X22189D01*
X22179D01*
Y15301D01*
X22199D02*
Y15331D01*
X22214D01*
X22219Y15326D01*
Y15316D01*
X22214Y15311D01*
X22199D01*
X22229Y15301D02*
X22239D01*
X22234D01*
Y15331D01*
X22229Y15326D01*
X22254Y15331D02*
X22274D01*
Y15326D01*
X22254Y15306D01*
Y15301D01*
X23017Y13555D02*
X23037D01*
X23027D01*
Y13525D01*
X23047D02*
Y13555D01*
X23062D01*
X23067Y13550D01*
Y13540D01*
X23062Y13535D01*
X23047D01*
X23077Y13525D02*
X23087D01*
X23082D01*
Y13555D01*
X23077Y13550D01*
X23102D02*
X23107Y13555D01*
X23117D01*
X23122Y13550D01*
Y13545D01*
X23117Y13540D01*
X23122Y13535D01*
Y13530D01*
X23117Y13525D01*
X23107D01*
X23102Y13530D01*
Y13535D01*
X23107Y13540D01*
X23102Y13545D01*
Y13550D01*
X23107Y13540D02*
X23117D01*
X23236Y13730D02*
X23256D01*
X23246D01*
Y13700D01*
X23266D02*
Y13730D01*
X23281D01*
X23286Y13725D01*
Y13715D01*
X23281Y13710D01*
X23266D01*
X23296Y13700D02*
X23306D01*
X23301D01*
Y13730D01*
X23296Y13725D01*
X23321Y13705D02*
X23326Y13700D01*
X23336D01*
X23341Y13705D01*
Y13725D01*
X23336Y13730D01*
X23326D01*
X23321Y13725D01*
Y13720D01*
X23326Y13715D01*
X23341D01*
X22335Y12604D02*
X22355D01*
X22345D01*
Y12574D01*
X22365D02*
Y12604D01*
X22380D01*
X22385Y12599D01*
Y12589D01*
X22380Y12584D01*
X22365D01*
X22415Y12574D02*
X22395D01*
X22415Y12594D01*
Y12599D01*
X22410Y12604D01*
X22400D01*
X22395Y12599D01*
X22425D02*
X22430Y12604D01*
X22440D01*
X22445Y12599D01*
Y12579D01*
X22440Y12574D01*
X22430D01*
X22425Y12579D01*
Y12599D01*
X19062Y15250D02*
X19082D01*
X19072D01*
Y15220D01*
X19092D02*
Y15250D01*
X19107D01*
X19112Y15245D01*
Y15235D01*
X19107Y15230D01*
X19092D01*
X19142Y15220D02*
X19122D01*
X19142Y15240D01*
Y15245D01*
X19137Y15250D01*
X19127D01*
X19122Y15245D01*
X19152Y15220D02*
X19162D01*
X19157D01*
Y15250D01*
X19152Y15245D01*
X21614Y12769D02*
Y12789D01*
X21609Y12794D01*
X21599D01*
X21594Y12789D01*
Y12769D01*
X21599Y12764D01*
X21609D01*
X21604Y12774D02*
X21614Y12764D01*
X21609D02*
X21614Y12769D01*
X21644Y12794D02*
X21634Y12789D01*
X21624Y12779D01*
Y12769D01*
X21629Y12764D01*
X21639D01*
X21644Y12769D01*
Y12774D01*
X21639Y12779D01*
X21624D01*
X21338Y12794D02*
Y12769D01*
X21343Y12764D01*
X21353D01*
X21358Y12769D01*
Y12794D01*
X21368Y12764D02*
X21378D01*
X21373D01*
Y12794D01*
X21368Y12789D01*
X21393Y12769D02*
X21398Y12764D01*
X21408D01*
X21413Y12769D01*
Y12789D01*
X21408Y12794D01*
X21398D01*
X21393Y12789D01*
Y12784D01*
X21398Y12779D01*
X21413D01*
X18232Y15942D02*
X18227Y15947D01*
X18217D01*
X18212Y15942D01*
Y15922D01*
X18217Y15917D01*
X18227D01*
X18232Y15922D01*
X18257Y15917D02*
Y15947D01*
X18242Y15932D01*
X18262D01*
X18287Y15917D02*
Y15947D01*
X18272Y15932D01*
X18292D01*
X18302Y15917D02*
Y15937D01*
X18312Y15947D01*
X18322Y15937D01*
Y15917D01*
Y15932D01*
X18302D01*
X18999Y15900D02*
X18994Y15905D01*
X18984D01*
X18979Y15900D01*
Y15880D01*
X18984Y15875D01*
X18994D01*
X18999Y15880D01*
X19024Y15875D02*
Y15905D01*
X19009Y15890D01*
X19029D01*
X19054Y15875D02*
Y15905D01*
X19039Y15890D01*
X19059D01*
X19069Y15905D02*
Y15875D01*
X19084D01*
X19089Y15880D01*
Y15885D01*
X19084Y15890D01*
X19069D01*
X19084D01*
X19089Y15895D01*
Y15900D01*
X19084Y15905D01*
X19069D01*
X19786Y15900D02*
X19781Y15905D01*
X19771D01*
X19766Y15900D01*
Y15880D01*
X19771Y15875D01*
X19781D01*
X19786Y15880D01*
X19811Y15875D02*
Y15905D01*
X19796Y15890D01*
X19816D01*
X19841Y15875D02*
Y15905D01*
X19826Y15890D01*
X19846D01*
X19876Y15900D02*
X19871Y15905D01*
X19861D01*
X19856Y15900D01*
Y15880D01*
X19861Y15875D01*
X19871D01*
X19876Y15880D01*
X20574Y15900D02*
X20569Y15905D01*
X20559D01*
X20554Y15900D01*
Y15880D01*
X20559Y15875D01*
X20569D01*
X20574Y15880D01*
X20599Y15875D02*
Y15905D01*
X20584Y15890D01*
X20604D01*
X20629Y15875D02*
Y15905D01*
X20614Y15890D01*
X20634D01*
X20644Y15905D02*
Y15875D01*
X20659D01*
X20664Y15880D01*
Y15900D01*
X20659Y15905D01*
X20644D01*
X21361Y15900D02*
X21356Y15905D01*
X21346D01*
X21341Y15900D01*
Y15880D01*
X21346Y15875D01*
X21356D01*
X21361Y15880D01*
X21386Y15875D02*
Y15905D01*
X21371Y15890D01*
X21391D01*
X21416Y15875D02*
Y15905D01*
X21401Y15890D01*
X21421D01*
X21451Y15905D02*
X21431D01*
Y15875D01*
X21451D01*
X21431Y15890D02*
X21441D01*
X22149Y15900D02*
X22144Y15905D01*
X22134D01*
X22129Y15900D01*
Y15880D01*
X22134Y15875D01*
X22144D01*
X22149Y15880D01*
X22174Y15875D02*
Y15905D01*
X22159Y15890D01*
X22179D01*
X22204Y15875D02*
Y15905D01*
X22189Y15890D01*
X22209D01*
X22239Y15905D02*
X22219D01*
Y15890D01*
X22229D01*
X22219D01*
Y15875D01*
X18222Y15870D02*
Y15845D01*
X18227Y15840D01*
X18237D01*
X18242Y15845D01*
Y15870D01*
X18272Y15840D02*
X18252D01*
X18272Y15860D01*
Y15865D01*
X18267Y15870D01*
X18257D01*
X18252Y15865D01*
X18282D02*
X18287Y15870D01*
X18297D01*
X18302Y15865D01*
Y15845D01*
X18297Y15840D01*
X18287D01*
X18282Y15845D01*
Y15865D01*
X18312Y15840D02*
Y15860D01*
X18322Y15870D01*
X18332Y15860D01*
Y15840D01*
Y15855D01*
X18312D01*
X19045Y15678D02*
X19070D01*
X19075Y15683D01*
Y15693D01*
X19070Y15698D01*
X19045D01*
X19075Y15728D02*
Y15708D01*
X19055Y15728D01*
X19050D01*
X19045Y15723D01*
Y15713D01*
X19050Y15708D01*
Y15738D02*
X19045Y15743D01*
Y15753D01*
X19050Y15758D01*
X19070D01*
X19075Y15753D01*
Y15743D01*
X19070Y15738D01*
X19050D01*
X19045Y15768D02*
X19075D01*
Y15783D01*
X19070Y15788D01*
X19065D01*
X19060Y15783D01*
Y15768D01*
Y15783D01*
X19055Y15788D01*
X19050D01*
X19045Y15783D01*
Y15768D01*
X19845Y15684D02*
X19870D01*
X19875Y15689D01*
Y15699D01*
X19870Y15704D01*
X19845D01*
X19875Y15734D02*
Y15714D01*
X19855Y15734D01*
X19850D01*
X19845Y15729D01*
Y15719D01*
X19850Y15714D01*
Y15744D02*
X19845Y15749D01*
Y15759D01*
X19850Y15764D01*
X19870D01*
X19875Y15759D01*
Y15749D01*
X19870Y15744D01*
X19850D01*
Y15794D02*
X19845Y15789D01*
Y15779D01*
X19850Y15774D01*
X19870D01*
X19875Y15779D01*
Y15789D01*
X19870Y15794D01*
X20622Y15688D02*
X20647D01*
X20652Y15693D01*
Y15703D01*
X20647Y15708D01*
X20622D01*
X20652Y15738D02*
Y15718D01*
X20632Y15738D01*
X20627D01*
X20622Y15733D01*
Y15723D01*
X20627Y15718D01*
Y15748D02*
X20622Y15753D01*
Y15763D01*
X20627Y15768D01*
X20647D01*
X20652Y15763D01*
Y15753D01*
X20647Y15748D01*
X20627D01*
X20622Y15778D02*
X20652D01*
Y15793D01*
X20647Y15798D01*
X20627D01*
X20622Y15793D01*
Y15778D01*
X21407Y15678D02*
X21432D01*
X21437Y15683D01*
Y15693D01*
X21432Y15698D01*
X21407D01*
X21437Y15728D02*
Y15708D01*
X21417Y15728D01*
X21412D01*
X21407Y15723D01*
Y15713D01*
X21412Y15708D01*
Y15738D02*
X21407Y15743D01*
Y15753D01*
X21412Y15758D01*
X21432D01*
X21437Y15753D01*
Y15743D01*
X21432Y15738D01*
X21412D01*
X21407Y15788D02*
Y15768D01*
X21437D01*
Y15788D01*
X21422Y15768D02*
Y15778D01*
X22195Y15678D02*
X22220D01*
X22225Y15683D01*
Y15693D01*
X22220Y15698D01*
X22195D01*
X22225Y15728D02*
Y15708D01*
X22205Y15728D01*
X22200D01*
X22195Y15723D01*
Y15713D01*
X22200Y15708D01*
Y15738D02*
X22195Y15743D01*
Y15753D01*
X22200Y15758D01*
X22220D01*
X22225Y15753D01*
Y15743D01*
X22220Y15738D01*
X22200D01*
X22195Y15788D02*
Y15768D01*
X22210D01*
Y15778D01*
Y15768D01*
X22225D01*
X23886Y14287D02*
Y14267D01*
X23866Y14287D01*
X23861D01*
X23856Y14282D01*
Y14272D01*
X23861Y14267D01*
X23986Y14287D02*
Y14297D01*
Y14292D01*
X23956D01*
X23961Y14287D01*
X23981Y14827D02*
X23986Y14832D01*
Y14842D01*
X23981Y14847D01*
X23961D01*
X23956Y14842D01*
Y14832D01*
X23961Y14827D01*
X23966D01*
X23971Y14832D01*
Y14847D01*
X23886Y14827D02*
Y14837D01*
Y14832D01*
X23856D01*
X23861Y14827D01*
Y14852D02*
X23856Y14857D01*
Y14867D01*
X23861Y14872D01*
X23881D01*
X23886Y14867D01*
Y14857D01*
X23881Y14852D01*
X23861D01*
X19276Y12467D02*
X19246D01*
Y12482D01*
X19251Y12487D01*
X19261D01*
X19266Y12482D01*
Y12467D01*
X19251Y12517D02*
X19246Y12512D01*
Y12502D01*
X19251Y12497D01*
X19271D01*
X19276Y12502D01*
Y12512D01*
X19271Y12517D01*
X19251Y12527D02*
X19246Y12532D01*
Y12542D01*
X19251Y12547D01*
X19271D01*
X19276Y12542D01*
Y12532D01*
X19271Y12527D01*
X19251D01*
X19246Y12557D02*
Y12577D01*
X19251D01*
X19271Y12557D01*
X19276D01*
X22218Y12448D02*
X22188D01*
Y12463D01*
X22193Y12468D01*
X22203D01*
X22208Y12463D01*
Y12448D01*
X22193Y12498D02*
X22188Y12493D01*
Y12483D01*
X22193Y12478D01*
X22213D01*
X22218Y12483D01*
Y12493D01*
X22213Y12498D01*
X22193Y12508D02*
X22188Y12513D01*
Y12523D01*
X22193Y12528D01*
X22213D01*
X22218Y12523D01*
Y12513D01*
X22213Y12508D01*
X22193D01*
X22218Y12538D02*
Y12548D01*
Y12543D01*
X22188D01*
X22193Y12538D01*
X19606Y12488D02*
Y12498D01*
Y12493D01*
X19576D01*
X19581Y12488D01*
X19576Y12533D02*
Y12513D01*
X19591D01*
X19586Y12523D01*
Y12528D01*
X19591Y12533D01*
X19601D01*
X19606Y12528D01*
Y12518D01*
X19601Y12513D01*
X19576Y12563D02*
Y12543D01*
X19591D01*
X19586Y12553D01*
Y12558D01*
X19591Y12563D01*
X19601D01*
X19606Y12558D01*
Y12548D01*
X19601Y12543D01*
X21924Y12495D02*
Y12505D01*
Y12500D01*
X21894D01*
X21899Y12495D01*
X23883Y16175D02*
Y16155D01*
X23863Y16175D01*
X23858D01*
X23853Y16170D01*
Y16160D01*
X23858Y16155D01*
X23883Y16200D02*
X23853D01*
X23868Y16185D01*
Y16205D01*
X23983Y16175D02*
Y16155D01*
X23963Y16175D01*
X23958D01*
X23953Y16170D01*
Y16160D01*
X23958Y16155D01*
Y16185D02*
X23953Y16190D01*
Y16200D01*
X23958Y16205D01*
X23963D01*
X23968Y16200D01*
Y16195D01*
Y16200D01*
X23973Y16205D01*
X23978D01*
X23983Y16200D01*
Y16190D01*
X23978Y16185D01*
X23819Y14923D02*
Y14903D01*
X23799Y14923D01*
X23794D01*
X23789Y14918D01*
Y14908D01*
X23794Y14903D01*
X24009D02*
Y14913D01*
Y14908D01*
X23979D01*
X23984Y14903D01*
X22971Y13669D02*
X22991D01*
X22981Y13679D02*
Y13659D01*
X23021Y13654D02*
X23001D01*
X23021Y13674D01*
Y13679D01*
X23016Y13684D01*
X23006D01*
X23001Y13679D01*
X23031D02*
X23036Y13684D01*
X23046D01*
X23051Y13679D01*
Y13674D01*
X23046Y13669D01*
X23051Y13664D01*
Y13659D01*
X23046Y13654D01*
X23036D01*
X23031Y13659D01*
Y13664D01*
X23036Y13669D01*
X23031Y13674D01*
Y13679D01*
X23036Y13669D02*
X23046D01*
X23061Y13684D02*
Y13664D01*
X23071Y13654D01*
X23081Y13664D01*
Y13684D01*
X23245Y13860D02*
Y13840D01*
X23255Y13830D01*
X23265Y13840D01*
Y13860D01*
X23295Y13855D02*
X23290Y13860D01*
X23280D01*
X23275Y13855D01*
Y13835D01*
X23280Y13830D01*
X23290D01*
X23295Y13835D01*
X23325Y13855D02*
X23320Y13860D01*
X23310D01*
X23305Y13855D01*
Y13835D01*
X23310Y13830D01*
X23320D01*
X23325Y13835D01*
X22937Y15456D02*
Y15426D01*
X22952D01*
X22957Y15431D01*
Y15451D01*
X22952Y15456D01*
X22937D01*
X22987Y15451D02*
X22982Y15456D01*
X22972D01*
X22967Y15451D01*
Y15431D01*
X22972Y15426D01*
X22982D01*
X22987Y15431D01*
Y15441D01*
X22977D01*
X22997Y15426D02*
Y15456D01*
X23017Y15426D01*
Y15456D01*
X23027D02*
Y15426D01*
X23042D01*
X23047Y15431D01*
Y15451D01*
X23042Y15456D01*
X23027D01*
X22999Y16088D02*
Y16108D01*
X23009Y16118D01*
X23019Y16108D01*
Y16088D01*
Y16103D01*
X22999D01*
X23049Y16113D02*
X23044Y16118D01*
X23034D01*
X23029Y16113D01*
Y16093D01*
X23034Y16088D01*
X23044D01*
X23049Y16093D01*
Y16103D01*
X23039D01*
X23059Y16088D02*
Y16118D01*
X23079Y16088D01*
Y16118D01*
X23089D02*
Y16088D01*
X23104D01*
X23109Y16093D01*
Y16113D01*
X23104Y16118D01*
X23089D01*
X21407Y16116D02*
Y16136D01*
X21417Y16146D01*
X21427Y16136D01*
Y16116D01*
Y16131D01*
X21407D01*
X21457Y16141D02*
X21452Y16146D01*
X21442D01*
X21437Y16141D01*
Y16121D01*
X21442Y16116D01*
X21452D01*
X21457Y16121D01*
Y16131D01*
X21447D01*
X21467Y16116D02*
Y16146D01*
X21487Y16116D01*
Y16146D01*
X21497D02*
Y16116D01*
X21512D01*
X21517Y16121D01*
Y16141D01*
X21512Y16146D01*
X21497D01*
X19037Y16075D02*
Y16095D01*
X19047Y16105D01*
X19057Y16095D01*
Y16075D01*
Y16090D01*
X19037D01*
X19087Y16100D02*
X19082Y16105D01*
X19072D01*
X19067Y16100D01*
Y16080D01*
X19072Y16075D01*
X19082D01*
X19087Y16080D01*
Y16090D01*
X19077D01*
X19097Y16075D02*
Y16105D01*
X19117Y16075D01*
Y16105D01*
X19127D02*
Y16075D01*
X19142D01*
X19147Y16080D01*
Y16100D01*
X19142Y16105D01*
X19127D01*
X18309Y16107D02*
Y16127D01*
X18319Y16137D01*
X18329Y16127D01*
Y16107D01*
Y16122D01*
X18309D01*
X18359Y16132D02*
X18354Y16137D01*
X18344D01*
X18339Y16132D01*
Y16112D01*
X18344Y16107D01*
X18354D01*
X18359Y16112D01*
Y16122D01*
X18349D01*
X18369Y16107D02*
Y16137D01*
X18389Y16107D01*
Y16137D01*
X18399D02*
Y16107D01*
X18414D01*
X18419Y16112D01*
Y16132D01*
X18414Y16137D01*
X18399D01*
X18477Y15347D02*
X18497D01*
X18487Y15357D02*
Y15337D01*
X18507Y15332D02*
X18517D01*
X18512D01*
Y15362D01*
X18507Y15357D01*
X18552Y15332D02*
X18532D01*
X18552Y15352D01*
Y15357D01*
X18547Y15362D01*
X18537D01*
X18532Y15357D01*
X18562Y15362D02*
Y15342D01*
X18572Y15332D01*
X18582Y15342D01*
Y15362D01*
X19047Y15362D02*
X19067D01*
X19077Y15347D02*
X19087D01*
X19082D01*
Y15377D01*
X19077Y15372D01*
X19122Y15347D02*
X19102D01*
X19122Y15367D01*
Y15372D01*
X19117Y15377D01*
X19107D01*
X19102Y15372D01*
X19132Y15377D02*
Y15357D01*
X19142Y15347D01*
X19152Y15357D01*
Y15377D01*
X22139Y15448D02*
X22159D01*
X22149Y15458D02*
Y15438D01*
X22189Y15463D02*
X22169D01*
Y15448D01*
X22179Y15453D01*
X22184D01*
X22189Y15448D01*
Y15438D01*
X22184Y15433D01*
X22174D01*
X22169Y15438D01*
X22199Y15433D02*
Y15453D01*
X22209Y15463D01*
X22219Y15453D01*
Y15433D01*
Y15448D01*
X22199D01*
X22229Y15433D02*
Y15463D01*
X22249Y15433D01*
Y15463D01*
X22259Y15433D02*
Y15453D01*
X22269Y15463D01*
X22279Y15453D01*
Y15433D01*
Y15448D01*
X22259D01*
X22308Y12719D02*
X22328D01*
X22358Y12734D02*
X22338D01*
Y12719D01*
X22348Y12724D01*
X22353D01*
X22358Y12719D01*
Y12709D01*
X22353Y12704D01*
X22343D01*
X22338Y12709D01*
X22368Y12704D02*
Y12724D01*
X22378Y12734D01*
X22388Y12724D01*
Y12704D01*
Y12719D01*
X22368D01*
X22398Y12704D02*
Y12734D01*
X22418Y12704D01*
Y12734D01*
X22428Y12704D02*
Y12724D01*
X22438Y12734D01*
X22448Y12724D01*
Y12704D01*
Y12719D01*
X22428D01*
X23183Y13784D02*
Y13804D01*
X23193Y13814D01*
X23203Y13804D01*
Y13784D01*
Y13799D01*
X23183D01*
X23187Y13912D02*
Y13882D01*
X23202D01*
X23207Y13887D01*
Y13907D01*
X23202Y13912D01*
X23187D01*
D44*
X21218Y13152D02*
X21225Y13155D01*
X21228Y13162D01*
X21082D02*
X21085Y13155D01*
X21092Y13152D01*
X21093Y13276D02*
X21085Y13273D01*
X21082Y13265D01*
X21228Y13266D02*
X21225Y13273D01*
X21218Y13276D01*
X21604D02*
X21597Y13273D01*
X21594Y13266D01*
X21740D02*
X21737Y13273D01*
X21730Y13276D01*
X21729Y13152D02*
X21737Y13155D01*
X21740Y13163D01*
X21594Y13162D02*
X21597Y13155D01*
X21604Y13152D01*
X20332D02*
X20339Y13155D01*
X20342Y13162D01*
X20196D02*
X20199Y13155D01*
X20206Y13152D01*
X20207Y13276D02*
X20199Y13273D01*
X20196Y13265D01*
X20342Y13266D02*
X20339Y13273D01*
X20332Y13276D01*
X20718D02*
X20711Y13273D01*
X20708Y13266D01*
X20854D02*
X20851Y13273D01*
X20844Y13276D01*
X20843Y13152D02*
X20851Y13155D01*
X20854Y13163D01*
X20708Y13162D02*
X20711Y13155D01*
X20718Y13152D01*
X20332Y13723D02*
X20339Y13726D01*
X20342Y13733D01*
X20196D02*
X20199Y13726D01*
X20206Y13723D01*
X20207Y13847D02*
X20199Y13844D01*
X20196Y13836D01*
X20342Y13837D02*
X20339Y13844D01*
X20332Y13847D01*
X20718D02*
X20711Y13844D01*
X20708Y13837D01*
X20854D02*
X20851Y13844D01*
X20844Y13847D01*
X20843Y13723D02*
X20851Y13726D01*
X20854Y13734D01*
X20708Y13733D02*
X20711Y13726D01*
X20718Y13723D01*
X19446Y13723D02*
X19453Y13726D01*
X19456Y13733D01*
X19310D02*
X19313Y13726D01*
X19320Y13723D01*
X19321Y13847D02*
X19314Y13844D01*
X19310Y13836D01*
X19456Y13837D02*
X19453Y13844D01*
X19446Y13847D01*
X19832D02*
X19825Y13844D01*
X19822Y13837D01*
X19968D02*
X19965Y13844D01*
X19958Y13847D01*
X19957Y13723D02*
X19965Y13726D01*
X19968Y13734D01*
X19822Y13733D02*
X19825Y13726D01*
X19832Y13723D01*
X22104Y13152D02*
X22111Y13155D01*
X22114Y13162D01*
X21968D02*
X21971Y13155D01*
X21978Y13152D01*
X21979Y13276D02*
X21971Y13273D01*
X21968Y13265D01*
X22114Y13266D02*
X22111Y13273D01*
X22104Y13276D01*
X22490D02*
X22483Y13273D01*
X22480Y13266D01*
X22626D02*
X22623Y13273D01*
X22616Y13276D01*
X22615Y13152D02*
X22622Y13155D01*
X22626Y13163D01*
X22480Y13162D02*
X22483Y13155D01*
X22490Y13152D01*
X19446D02*
X19453Y13155D01*
X19456Y13162D01*
X19310D02*
X19313Y13155D01*
X19320Y13152D01*
X19321Y13276D02*
X19314Y13273D01*
X19310Y13265D01*
X19456Y13266D02*
X19453Y13273D01*
X19446Y13276D01*
X19832D02*
X19825Y13273D01*
X19822Y13266D01*
X19968D02*
X19965Y13273D01*
X19958Y13276D01*
X19957Y13152D02*
X19965Y13155D01*
X19968Y13163D01*
X19822Y13162D02*
X19825Y13155D01*
X19832Y13152D01*
X18561D02*
X18568Y13155D01*
X18571Y13162D01*
X18425D02*
X18427Y13155D01*
X18435Y13152D01*
X18436Y13276D02*
X18428Y13273D01*
X18425Y13265D01*
X18571Y13266D02*
X18568Y13273D01*
X18561Y13276D01*
X18946D02*
X18939Y13273D01*
X18936Y13266D01*
X19082D02*
X19079Y13273D01*
X19072Y13276D01*
X19071Y13152D02*
X19079Y13155D01*
X19082Y13163D01*
X18936Y13162D02*
X18939Y13155D01*
X18946Y13152D01*
X22104Y13723D02*
X22111Y13726D01*
X22114Y13733D01*
X21968D02*
X21971Y13726D01*
X21978Y13723D01*
X21979Y13847D02*
X21971Y13844D01*
X21968Y13836D01*
X22114Y13837D02*
X22111Y13844D01*
X22104Y13847D01*
X22490D02*
X22483Y13844D01*
X22480Y13837D01*
X22626D02*
X22623Y13844D01*
X22616Y13847D01*
X22615Y13723D02*
X22622Y13726D01*
X22626Y13734D01*
X22480Y13733D02*
X22483Y13726D01*
X22490Y13723D01*
X21218D02*
X21225Y13726D01*
X21228Y13733D01*
X21082D02*
X21085Y13726D01*
X21092Y13723D01*
X21093Y13847D02*
X21085Y13844D01*
X21082Y13836D01*
X21228Y13837D02*
X21225Y13844D01*
X21218Y13847D01*
X21604D02*
X21597Y13844D01*
X21594Y13837D01*
X21740D02*
X21737Y13844D01*
X21730Y13847D01*
X21729Y13723D02*
X21737Y13726D01*
X21740Y13734D01*
X21594Y13733D02*
X21597Y13726D01*
X21604Y13723D01*
X18561D02*
X18568Y13726D01*
X18571Y13733D01*
X18425D02*
X18427Y13726D01*
X18435Y13723D01*
X18436Y13847D02*
X18428Y13844D01*
X18425Y13836D01*
X18571Y13837D02*
X18568Y13844D01*
X18561Y13847D01*
X18946D02*
X18939Y13844D01*
X18936Y13837D01*
X19082D02*
X19079Y13844D01*
X19072Y13847D01*
X19071Y13723D02*
X19079Y13726D01*
X19082Y13734D01*
X18936Y13733D02*
X18939Y13726D01*
X18946Y13723D01*
X18628Y15025D02*
X18625Y15032D01*
X18618Y15035D01*
X18493D02*
X18486Y15032D01*
X18482Y15024D01*
Y14921D02*
X18485Y14914D01*
X18492Y14911D01*
X18618D02*
X18625Y14914D01*
X18628Y14921D01*
X19138Y15125D02*
X19135Y15132D01*
X19128Y15135D01*
X19003D02*
X18996Y15132D01*
X18992Y15124D01*
Y15021D02*
X18995Y15014D01*
X19002Y15011D01*
X19128D02*
X19135Y15014D01*
X19138Y15021D01*
X18936Y14323D02*
X18939Y14316D01*
X18946Y14313D01*
X19071D02*
X19079Y14317D01*
X19082Y14324D01*
Y14427D02*
X19079Y14434D01*
X19072Y14437D01*
X18946D02*
X18939Y14434D01*
X18936Y14427D01*
X18571D02*
X18568Y14434D01*
X18561Y14437D01*
X18436D02*
X18428Y14434D01*
X18425Y14426D01*
Y14323D02*
X18427Y14316D01*
X18435Y14313D01*
X18561D02*
X18568Y14316D01*
X18571Y14323D01*
X20708D02*
X20711Y14316D01*
X20718Y14313D01*
X20843D02*
X20851Y14317D01*
X20854Y14324D01*
Y14427D02*
X20851Y14434D01*
X20844Y14437D01*
X20718D02*
X20711Y14434D01*
X20708Y14427D01*
X20342D02*
X20339Y14434D01*
X20332Y14437D01*
X20207D02*
X20199Y14434D01*
X20196Y14426D01*
Y14323D02*
X20199Y14316D01*
X20206Y14313D01*
X20332D02*
X20339Y14316D01*
X20342Y14323D01*
X21594D02*
X21597Y14316D01*
X21604Y14313D01*
X21729D02*
X21737Y14317D01*
X21740Y14324D01*
Y14427D02*
X21737Y14434D01*
X21730Y14437D01*
X21604D02*
X21597Y14434D01*
X21594Y14427D01*
X21228D02*
X21225Y14434D01*
X21218Y14437D01*
X21093D02*
X21085Y14434D01*
X21082Y14426D01*
Y14323D02*
X21085Y14316D01*
X21092Y14313D01*
X21218D02*
X21225Y14316D01*
X21228Y14323D01*
X20774Y15025D02*
X20771Y15032D01*
X20764Y15035D01*
X20639D02*
X20631Y15032D01*
X20628Y15024D01*
Y14921D02*
X20631Y14914D01*
X20638Y14911D01*
X20764D02*
X20771Y14914D01*
X20774Y14921D01*
X21284Y15125D02*
X21281Y15132D01*
X21274Y15135D01*
X21149D02*
X21141Y15132D01*
X21138Y15124D01*
Y15021D02*
X21141Y15014D01*
X21148Y15011D01*
X21274D02*
X21281Y15014D01*
X21284Y15021D01*
X21847Y15025D02*
X21844Y15032D01*
X21837Y15035D01*
X21712D02*
X21704Y15032D01*
X21701Y15024D01*
Y14921D02*
X21704Y14914D01*
X21711Y14911D01*
X21837D02*
X21844Y14914D01*
X21847Y14921D01*
X22357Y15125D02*
X22354Y15132D01*
X22347Y15135D01*
X22222D02*
X22214Y15132D01*
X22211Y15124D01*
Y15021D02*
X22214Y15014D01*
X22221Y15011D01*
X22347D02*
X22354Y15014D01*
X22357Y15021D01*
X19822Y14323D02*
X19825Y14316D01*
X19832Y14313D01*
X19957D02*
X19965Y14317D01*
X19968Y14324D01*
Y14427D02*
X19965Y14434D01*
X19958Y14437D01*
X19832D02*
X19825Y14434D01*
X19822Y14427D01*
X19456D02*
X19453Y14434D01*
X19446Y14437D01*
X19321D02*
X19314Y14434D01*
X19310Y14426D01*
Y14323D02*
X19313Y14316D01*
X19320Y14313D01*
X19446D02*
X19453Y14316D01*
X19456Y14323D01*
X22480D02*
X22483Y14316D01*
X22490Y14313D01*
X22615D02*
X22622Y14317D01*
X22626Y14324D01*
Y14427D02*
X22623Y14434D01*
X22616Y14437D01*
X22490D02*
X22483Y14434D01*
X22480Y14427D01*
X22114D02*
X22111Y14434D01*
X22104Y14437D01*
X21979D02*
X21971Y14434D01*
X21968Y14426D01*
Y14323D02*
X21971Y14316D01*
X21978Y14313D01*
X22104D02*
X22111Y14316D01*
X22114Y14323D01*
X20201Y15011D02*
X20208Y15014D01*
X20211Y15021D01*
X20065D02*
X20068Y15014D01*
X20075Y15011D01*
X20076Y15135D02*
X20068Y15132D01*
X20065Y15124D01*
X20211Y15125D02*
X20208Y15132D01*
X20201Y15135D01*
X19691Y14911D02*
X19698Y14914D01*
X19701Y14921D01*
X19555D02*
X19558Y14914D01*
X19565Y14911D01*
X19566Y15035D02*
X19558Y15032D01*
X19555Y15024D01*
X19701Y15025D02*
X19698Y15032D01*
X19691Y15035D01*
X21092Y13152D02*
X21218D01*
X21093Y13276D02*
X21218D01*
X21604D02*
X21730D01*
X21604Y13152D02*
X21729D01*
X20206D02*
X20332D01*
X20207Y13276D02*
X20332D01*
X20718D02*
X20844D01*
X20718Y13152D02*
X20843D01*
X20206Y13723D02*
X20332D01*
X20207Y13847D02*
X20332D01*
X20718D02*
X20844D01*
X20718Y13723D02*
X20843D01*
X19320Y13723D02*
X19446D01*
X19321Y13847D02*
X19446D01*
X19832D02*
X19958D01*
X19832Y13723D02*
X19957D01*
X21978Y13152D02*
X22104D01*
X21979Y13276D02*
X22104D01*
X22490D02*
X22616D01*
X22490Y13152D02*
X22615D01*
X19320Y13152D02*
X19446D01*
X19321Y13276D02*
X19446D01*
X19832D02*
X19958D01*
X19832Y13152D02*
X19957D01*
X18435D02*
X18561D01*
X18436Y13276D02*
X18561D01*
X18946D02*
X19072D01*
X18946Y13152D02*
X19071D01*
X21978Y13723D02*
X22104D01*
X21979Y13847D02*
X22104D01*
X22490D02*
X22616D01*
X22490Y13723D02*
X22615D01*
X21092D02*
X21218D01*
X21093Y13847D02*
X21218D01*
X21604D02*
X21730D01*
X21604Y13723D02*
X21729D01*
X18435D02*
X18561D01*
X18436Y13847D02*
X18561D01*
X18946D02*
X19072D01*
X18946Y13723D02*
X19071D01*
X22898Y12554D02*
Y12584D01*
X22883Y12569D02*
X22913D01*
X22169Y12595D02*
Y12625D01*
X22154Y12610D02*
X22184D01*
X22041Y12595D02*
Y12625D01*
X22026Y12610D02*
X22056D01*
X19293Y12626D02*
X19323D01*
X19308Y12611D02*
Y12641D01*
X18493Y15035D02*
X18618D01*
X18492Y14911D02*
X18618D01*
X19003Y15135D02*
X19128D01*
X19002Y15011D02*
X19128D01*
X18946Y14313D02*
X19071D01*
X18946Y14437D02*
X19072D01*
X18436D02*
X18561D01*
X18435Y14313D02*
X18561D01*
X20718D02*
X20843D01*
X20718Y14437D02*
X20844D01*
X20207D02*
X20332D01*
X20206Y14313D02*
X20332D01*
X21604D02*
X21729D01*
X21604Y14437D02*
X21730D01*
X21093D02*
X21218D01*
X21092Y14313D02*
X21218D01*
X20639Y15035D02*
X20764D01*
X20638Y14911D02*
X20764D01*
X21149Y15135D02*
X21274D01*
X21148Y15011D02*
X21274D01*
X21712Y15035D02*
X21837D01*
X21711Y14911D02*
X21837D01*
X22222Y15135D02*
X22347D01*
X22221Y15011D02*
X22347D01*
X19832Y14313D02*
X19957D01*
X19832Y14437D02*
X19958D01*
X19321D02*
X19446D01*
X19320Y14313D02*
X19446D01*
X22490D02*
X22615D01*
X22490Y14437D02*
X22616D01*
X21979D02*
X22104D01*
X21978Y14313D02*
X22104D01*
X20075Y15011D02*
X20201D01*
X20076Y15135D02*
X20201D01*
X19565Y14911D02*
X19691D01*
X19566Y15035D02*
X19691D01*
D45*
X19574Y10041D02*
Y9995D01*
X19555Y10030D02*
X19593Y10007D01*
Y10030D02*
X19555Y10007D01*
X19613Y9969D02*
X19609Y9965D01*
X19613Y9961D01*
X19617Y9965D01*
X19613Y9969D01*
X19692Y10022D02*
X19688Y10030D01*
X19680Y10037D01*
X19673Y10041D01*
X19657D01*
X19650Y10037D01*
X19642Y10030D01*
X19638Y10022D01*
X19635Y10011D01*
Y9991D01*
X19638Y9980D01*
X19642Y9972D01*
X19650Y9965D01*
X19657Y9961D01*
X19673D01*
X19680Y9965D01*
X19688Y9972D01*
X19692Y9980D01*
Y9991D01*
X19673D02*
X19692D01*
X19737Y10041D02*
Y9961D01*
X19710Y10041D02*
X19763D01*
X19796D02*
X19788Y10037D01*
X19780Y10030D01*
X19777Y10022D01*
X19773Y10011D01*
Y9991D01*
X19777Y9980D01*
X19780Y9972D01*
X19788Y9965D01*
X19796Y9961D01*
X19811D01*
X19819Y9965D01*
X19826Y9972D01*
X19830Y9980D01*
X19834Y9991D01*
Y10011D01*
X19830Y10022D01*
X19826Y10030D01*
X19819Y10037D01*
X19811Y10041D01*
X19796D01*
X19915Y9995D02*
X19984D01*
X20097Y10041D02*
Y9961D01*
X20070Y10041D02*
X20124D01*
X20156D02*
X20148Y10037D01*
X20141Y10030D01*
X20137Y10022D01*
X20133Y10011D01*
Y9991D01*
X20137Y9980D01*
X20141Y9972D01*
X20148Y9965D01*
X20156Y9961D01*
X20171D01*
X20179Y9965D01*
X20186Y9972D01*
X20190Y9980D01*
X20194Y9991D01*
Y10011D01*
X20190Y10022D01*
X20186Y10030D01*
X20179Y10037D01*
X20171Y10041D01*
X20156D01*
X20213Y9999D02*
X20247D01*
X20258Y10003D01*
X20262Y10007D01*
X20266Y10014D01*
Y10026D01*
X20262Y10033D01*
X20258Y10037D01*
X20247Y10041D01*
X20213D01*
Y9961D01*
X20370Y10041D02*
X20362Y10037D01*
X20354Y10030D01*
X20351Y10022D01*
X20347Y10011D01*
Y9991D01*
X20351Y9980D01*
X20354Y9972D01*
X20362Y9965D01*
X20370Y9961D01*
X20385D01*
X20393Y9965D01*
X20400Y9972D01*
X20404Y9980D01*
X20408Y9991D01*
Y10011D01*
X20404Y10022D01*
X20400Y10030D01*
X20393Y10037D01*
X20385Y10041D01*
X20370D01*
X20426D02*
X20457Y9961D01*
X20487Y10041D02*
X20457Y9961D01*
X20547Y10041D02*
X20498D01*
Y9961D01*
X20547D01*
X20498Y10003D02*
X20528D01*
X20560Y10041D02*
Y9961D01*
Y10041D02*
X20595D01*
X20606Y10037D01*
X20610Y10033D01*
X20614Y10026D01*
Y10018D01*
X20610Y10011D01*
X20606Y10007D01*
X20595Y10003D01*
X20560D01*
X20587D02*
X20614Y9961D01*
X20632Y10041D02*
Y9961D01*
X20677D01*
X20747D02*
X20717Y10041D01*
X20686Y9961D01*
X20698Y9988D02*
X20736D01*
X20766Y10041D02*
X20796Y10003D01*
Y9961D01*
X20827Y10041D02*
X20796Y10003D01*
X20957Y10022D02*
X20953Y10030D01*
X20946Y10037D01*
X20938Y10041D01*
X20923D01*
X20915Y10037D01*
X20907Y10030D01*
X20904Y10022D01*
X20900Y10011D01*
Y9991D01*
X20904Y9980D01*
X20907Y9972D01*
X20915Y9965D01*
X20923Y9961D01*
X20938D01*
X20946Y9965D01*
X20953Y9972D01*
X20957Y9980D01*
Y9991D01*
X20938D02*
X20957D01*
X21025Y10041D02*
X20975D01*
Y9961D01*
X21025D01*
X20975Y10003D02*
X21006D01*
X21038Y10041D02*
Y9961D01*
Y10041D02*
X21072D01*
X21084Y10037D01*
X21088Y10033D01*
X21091Y10026D01*
Y10018D01*
X21088Y10011D01*
X21084Y10007D01*
X21072Y10003D01*
X21038D01*
X21065D02*
X21091Y9961D01*
X21109Y10041D02*
Y9961D01*
Y10041D02*
X21144D01*
X21155Y10037D01*
X21159Y10033D01*
X21163Y10026D01*
Y10018D01*
X21159Y10011D01*
X21155Y10007D01*
X21144Y10003D01*
X21109D02*
X21144D01*
X21155Y9999D01*
X21159Y9995D01*
X21163Y9988D01*
Y9976D01*
X21159Y9969D01*
X21155Y9965D01*
X21144Y9961D01*
X21109D01*
X21230Y10041D02*
X21181D01*
Y9961D01*
X21230D01*
X21181Y10003D02*
X21211D01*
X21243Y10041D02*
Y9961D01*
Y10041D02*
X21278D01*
X21289Y10037D01*
X21293Y10033D01*
X21297Y10026D01*
Y10018D01*
X21293Y10011D01*
X21289Y10007D01*
X21278Y10003D01*
X21243D01*
X21270D02*
X21297Y9961D01*
X21377Y10041D02*
Y9961D01*
Y10041D02*
X21404D01*
X21416Y10037D01*
X21423Y10030D01*
X21427Y10022D01*
X21431Y10011D01*
Y9991D01*
X21427Y9980D01*
X21423Y9972D01*
X21416Y9965D01*
X21404Y9961D01*
X21377D01*
X21510D02*
X21479Y10041D01*
X21449Y9961D01*
X21460Y9988D02*
X21498D01*
X21555Y10041D02*
Y9961D01*
X21528Y10041D02*
X21582D01*
X21652Y9961D02*
X21622Y10041D01*
X21591Y9961D01*
X21603Y9988D02*
X21641D01*
D47*
X19880Y10539D02*
X19842Y10459D01*
X19827Y10539D02*
X19880D01*
X19917D02*
X19906Y10535D01*
X19902Y10527D01*
Y10520D01*
X19906Y10512D01*
X19913Y10508D01*
X19929Y10504D01*
X19940Y10500D01*
X19948Y10493D01*
X19952Y10485D01*
Y10474D01*
X19948Y10466D01*
X19944Y10462D01*
X19933Y10459D01*
X19917D01*
X19906Y10462D01*
X19902Y10466D01*
X19898Y10474D01*
Y10485D01*
X19902Y10493D01*
X19910Y10500D01*
X19921Y10504D01*
X19936Y10508D01*
X19944Y10512D01*
X19948Y10520D01*
Y10527D01*
X19944Y10535D01*
X19933Y10539D01*
X19917D01*
X19992D02*
X19981Y10535D01*
X19973Y10523D01*
X19969Y10504D01*
Y10493D01*
X19973Y10474D01*
X19981Y10462D01*
X19992Y10459D01*
X20000D01*
X20011Y10462D01*
X20019Y10474D01*
X20023Y10493D01*
Y10504D01*
X20019Y10523D01*
X20011Y10535D01*
X20000Y10539D01*
X19992D01*
X20041Y10493D02*
X20109D01*
X20156Y10539D02*
X20144Y10535D01*
X20137Y10523D01*
X20133Y10504D01*
Y10493D01*
X20137Y10474D01*
X20144Y10462D01*
X20156Y10459D01*
X20163D01*
X20175Y10462D01*
X20182Y10474D01*
X20186Y10493D01*
Y10504D01*
X20182Y10523D01*
X20175Y10535D01*
X20163Y10539D01*
X20156D01*
X20227D02*
X20216Y10535D01*
X20208Y10523D01*
X20204Y10504D01*
Y10493D01*
X20208Y10474D01*
X20216Y10462D01*
X20227Y10459D01*
X20235D01*
X20246Y10462D01*
X20254Y10474D01*
X20257Y10493D01*
Y10504D01*
X20254Y10523D01*
X20246Y10535D01*
X20235Y10539D01*
X20227D01*
X20298D02*
X20287Y10535D01*
X20279Y10523D01*
X20275Y10504D01*
Y10493D01*
X20279Y10474D01*
X20287Y10462D01*
X20298Y10459D01*
X20306D01*
X20317Y10462D01*
X20325Y10474D01*
X20329Y10493D01*
Y10504D01*
X20325Y10523D01*
X20317Y10535D01*
X20306Y10539D01*
X20298D01*
X20369D02*
X20358Y10535D01*
X20350Y10523D01*
X20347Y10504D01*
Y10493D01*
X20350Y10474D01*
X20358Y10462D01*
X20369Y10459D01*
X20377D01*
X20388Y10462D01*
X20396Y10474D01*
X20400Y10493D01*
Y10504D01*
X20396Y10523D01*
X20388Y10535D01*
X20377Y10539D01*
X20369D01*
X20422Y10520D02*
Y10523D01*
X20425Y10531D01*
X20429Y10535D01*
X20437Y10539D01*
X20452D01*
X20460Y10535D01*
X20463Y10531D01*
X20467Y10523D01*
Y10516D01*
X20463Y10508D01*
X20456Y10497D01*
X20418Y10459D01*
X20471D01*
X20552Y10512D02*
Y10459D01*
Y10489D02*
X20556Y10500D01*
X20563Y10508D01*
X20571Y10512D01*
X20582D01*
X20590Y10489D02*
X20635D01*
Y10497D01*
X20631Y10504D01*
X20628Y10508D01*
X20620Y10512D01*
X20609D01*
X20601Y10508D01*
X20593Y10500D01*
X20590Y10489D01*
Y10481D01*
X20593Y10470D01*
X20601Y10462D01*
X20609Y10459D01*
X20620D01*
X20628Y10462D01*
X20635Y10470D01*
X20652Y10512D02*
X20675Y10459D01*
X20698Y10512D02*
X20675Y10459D01*
X20715Y10520D02*
Y10523D01*
X20719Y10531D01*
X20722Y10535D01*
X20730Y10539D01*
X20745D01*
X20753Y10535D01*
X20757Y10531D01*
X20761Y10523D01*
Y10516D01*
X20757Y10508D01*
X20749Y10497D01*
X20711Y10459D01*
X20764D01*
X20790Y10462D02*
X20786Y10459D01*
X20782Y10462D01*
X20786Y10466D01*
X20790Y10462D01*
Y10455D01*
X20786Y10447D01*
X20782Y10443D01*
X20927Y10520D02*
X20924Y10527D01*
X20916Y10535D01*
X20908Y10539D01*
X20893D01*
X20885Y10535D01*
X20878Y10527D01*
X20874Y10520D01*
X20870Y10508D01*
Y10489D01*
X20874Y10478D01*
X20878Y10470D01*
X20885Y10462D01*
X20893Y10459D01*
X20908D01*
X20916Y10462D01*
X20924Y10470D01*
X20927Y10478D01*
X20950Y10539D02*
Y10459D01*
X20996D01*
X21027Y10539D02*
X21020Y10535D01*
X21012Y10527D01*
X21008Y10520D01*
X21004Y10508D01*
Y10489D01*
X21008Y10478D01*
X21012Y10470D01*
X21020Y10462D01*
X21027Y10459D01*
X21042D01*
X21050Y10462D01*
X21058Y10470D01*
X21061Y10478D01*
X21065Y10489D01*
Y10508D01*
X21061Y10520D01*
X21058Y10527D01*
X21050Y10535D01*
X21042Y10539D01*
X21027D01*
X21141Y10520D02*
X21137Y10527D01*
X21130Y10535D01*
X21122Y10539D01*
X21107D01*
X21099Y10535D01*
X21092Y10527D01*
X21088Y10520D01*
X21084Y10508D01*
Y10489D01*
X21088Y10478D01*
X21092Y10470D01*
X21099Y10462D01*
X21107Y10459D01*
X21122D01*
X21130Y10462D01*
X21137Y10470D01*
X21141Y10478D01*
X21164Y10539D02*
Y10459D01*
X21217Y10539D02*
X21164Y10485D01*
X21183Y10504D02*
X21217Y10459D01*
X21298Y10539D02*
Y10459D01*
Y10539D02*
X21332D01*
X21343Y10535D01*
X21347Y10531D01*
X21351Y10523D01*
Y10516D01*
X21347Y10508D01*
X21343Y10504D01*
X21332Y10500D01*
X21298D02*
X21332D01*
X21343Y10497D01*
X21347Y10493D01*
X21351Y10485D01*
Y10474D01*
X21347Y10466D01*
X21343Y10462D01*
X21332Y10459D01*
X21298D01*
X21392Y10539D02*
X21384Y10535D01*
X21376Y10527D01*
X21373Y10520D01*
X21369Y10508D01*
Y10489D01*
X21373Y10478D01*
X21376Y10470D01*
X21384Y10462D01*
X21392Y10459D01*
X21407D01*
X21415Y10462D01*
X21422Y10470D01*
X21426Y10478D01*
X21430Y10489D01*
Y10508D01*
X21426Y10520D01*
X21422Y10527D01*
X21415Y10535D01*
X21407Y10539D01*
X21392D01*
X21509Y10459D02*
X21479Y10539D01*
X21448Y10459D01*
X21460Y10485D02*
X21498D01*
X21528Y10539D02*
Y10459D01*
Y10539D02*
X21562D01*
X21574Y10535D01*
X21578Y10531D01*
X21581Y10523D01*
Y10516D01*
X21578Y10508D01*
X21574Y10504D01*
X21562Y10500D01*
X21528D01*
X21555D02*
X21581Y10459D01*
X21599Y10539D02*
Y10459D01*
Y10539D02*
X21626D01*
X21637Y10535D01*
X21645Y10527D01*
X21649Y10520D01*
X21653Y10508D01*
Y10489D01*
X21649Y10478D01*
X21645Y10470D01*
X21637Y10462D01*
X21626Y10459D01*
X21599D01*
D48*
X19827Y10389D02*
Y10309D01*
X19873D01*
X19942D02*
X19912Y10389D01*
X19881Y10309D01*
X19893Y10335D02*
X19931D01*
X20014Y10377D02*
X20007Y10385D01*
X19995Y10389D01*
X19980D01*
X19969Y10385D01*
X19961Y10377D01*
Y10370D01*
X19965Y10362D01*
X19969Y10358D01*
X19976Y10354D01*
X19999Y10347D01*
X20007Y10343D01*
X20011Y10339D01*
X20014Y10331D01*
Y10320D01*
X20007Y10312D01*
X19995Y10309D01*
X19980D01*
X19969Y10312D01*
X19961Y10320D01*
X20152Y10370D02*
X20148Y10377D01*
X20141Y10385D01*
X20133Y10389D01*
X20118D01*
X20110Y10385D01*
X20103Y10377D01*
X20099Y10370D01*
X20095Y10358D01*
Y10339D01*
X20099Y10328D01*
X20103Y10320D01*
X20110Y10312D01*
X20118Y10309D01*
X20133D01*
X20141Y10312D01*
X20148Y10320D01*
X20152Y10328D01*
X20175Y10389D02*
Y10331D01*
X20179Y10320D01*
X20186Y10312D01*
X20198Y10309D01*
X20205D01*
X20217Y10312D01*
X20224Y10320D01*
X20228Y10331D01*
Y10389D01*
X20250D02*
Y10309D01*
Y10389D02*
X20281Y10309D01*
X20311Y10389D02*
X20281Y10309D01*
X20311Y10389D02*
Y10309D01*
X20334Y10389D02*
Y10309D01*
Y10389D02*
X20368D01*
X20380Y10385D01*
X20383Y10381D01*
X20387Y10373D01*
Y10366D01*
X20383Y10358D01*
X20380Y10354D01*
X20368Y10350D01*
X20334D02*
X20368D01*
X20380Y10347D01*
X20383Y10343D01*
X20387Y10335D01*
Y10324D01*
X20383Y10316D01*
X20380Y10312D01*
X20368Y10309D01*
X20334D01*
X20405Y10389D02*
Y10309D01*
Y10389D02*
X20439D01*
X20451Y10385D01*
X20455Y10381D01*
X20459Y10373D01*
Y10366D01*
X20455Y10358D01*
X20451Y10354D01*
X20439Y10350D01*
X20405D01*
X20432D02*
X20459Y10309D01*
X20526Y10389D02*
X20476D01*
Y10309D01*
X20526D01*
X20476Y10350D02*
X20507D01*
X20593Y10377D02*
X20585Y10385D01*
X20574Y10389D01*
X20558D01*
X20547Y10385D01*
X20539Y10377D01*
Y10370D01*
X20543Y10362D01*
X20547Y10358D01*
X20554Y10354D01*
X20577Y10347D01*
X20585Y10343D01*
X20589Y10339D01*
X20593Y10331D01*
Y10320D01*
X20585Y10312D01*
X20574Y10309D01*
X20558D01*
X20547Y10312D01*
X20539Y10320D01*
X20696Y10389D02*
X20689Y10385D01*
X20681Y10377D01*
X20677Y10370D01*
X20673Y10358D01*
Y10339D01*
X20677Y10328D01*
X20681Y10320D01*
X20689Y10312D01*
X20696Y10309D01*
X20711D01*
X20719Y10312D01*
X20727Y10320D01*
X20730Y10328D01*
X20734Y10339D01*
Y10358D01*
X20730Y10370D01*
X20727Y10377D01*
X20719Y10385D01*
X20711Y10389D01*
X20696D01*
X20753D02*
Y10309D01*
Y10389D02*
X20787D01*
X20799Y10385D01*
X20802Y10381D01*
X20806Y10373D01*
Y10366D01*
X20802Y10358D01*
X20799Y10354D01*
X20787Y10350D01*
X20753D02*
X20787D01*
X20799Y10347D01*
X20802Y10343D01*
X20806Y10335D01*
Y10324D01*
X20802Y10316D01*
X20799Y10312D01*
X20787Y10309D01*
X20753D01*
X20877Y10377D02*
X20870Y10385D01*
X20858Y10389D01*
X20843D01*
X20832Y10385D01*
X20824Y10377D01*
Y10370D01*
X20828Y10362D01*
X20832Y10358D01*
X20839Y10354D01*
X20862Y10347D01*
X20870Y10343D01*
X20874Y10339D01*
X20877Y10331D01*
Y10320D01*
X20870Y10312D01*
X20858Y10309D01*
X20843D01*
X20832Y10312D01*
X20824Y10320D01*
X20945Y10389D02*
X20895D01*
Y10309D01*
X20945D01*
X20895Y10350D02*
X20926D01*
X20958Y10389D02*
Y10309D01*
Y10389D02*
X20992D01*
X21004Y10385D01*
X21008Y10381D01*
X21012Y10373D01*
Y10366D01*
X21008Y10358D01*
X21004Y10354D01*
X20992Y10350D01*
X20958D01*
X20985D02*
X21012Y10309D01*
X21029Y10389D02*
X21060Y10309D01*
X21090Y10389D02*
X21060Y10309D01*
X21162D02*
X21131Y10389D01*
X21101Y10309D01*
X21112Y10335D02*
X21150D01*
X21207Y10389D02*
Y10309D01*
X21180Y10389D02*
X21234D01*
X21266D02*
X21258Y10385D01*
X21251Y10377D01*
X21247Y10370D01*
X21243Y10358D01*
Y10339D01*
X21247Y10328D01*
X21251Y10320D01*
X21258Y10312D01*
X21266Y10309D01*
X21281D01*
X21289Y10312D01*
X21296Y10320D01*
X21300Y10328D01*
X21304Y10339D01*
Y10358D01*
X21300Y10370D01*
X21296Y10377D01*
X21289Y10385D01*
X21281Y10389D01*
X21266D01*
X21323D02*
Y10309D01*
Y10389D02*
X21357D01*
X21368Y10385D01*
X21372Y10381D01*
X21376Y10373D01*
Y10366D01*
X21372Y10358D01*
X21368Y10354D01*
X21357Y10350D01*
X21323D01*
X21349D02*
X21376Y10309D01*
X21394Y10389D02*
X21424Y10350D01*
Y10309D01*
X21455Y10389D02*
X21424Y10350D01*
X21787Y10389D02*
X21829D01*
X21806Y10358D01*
X21817D01*
X21825Y10354D01*
X21829Y10350D01*
X21833Y10339D01*
Y10331D01*
X21829Y10320D01*
X21821Y10312D01*
X21810Y10309D01*
X21798D01*
X21787Y10312D01*
X21783Y10316D01*
X21779Y10324D01*
X21851Y10297D02*
X21904Y10389D01*
X21959Y10362D02*
X21955Y10350D01*
X21947Y10343D01*
X21936Y10339D01*
X21932D01*
X21921Y10343D01*
X21913Y10350D01*
X21909Y10362D01*
Y10366D01*
X21913Y10377D01*
X21921Y10385D01*
X21932Y10389D01*
X21936D01*
X21947Y10385D01*
X21955Y10377D01*
X21959Y10362D01*
Y10343D01*
X21955Y10324D01*
X21947Y10312D01*
X21936Y10309D01*
X21928D01*
X21917Y10312D01*
X21913Y10320D01*
X21980Y10297D02*
X22034Y10389D01*
X22043Y10370D02*
Y10373D01*
X22047Y10381D01*
X22051Y10385D01*
X22058Y10389D01*
X22073D01*
X22081Y10385D01*
X22085Y10381D01*
X22089Y10373D01*
Y10366D01*
X22085Y10358D01*
X22077Y10347D01*
X22039Y10309D01*
X22092D01*
X22133Y10389D02*
X22122Y10385D01*
X22114Y10373D01*
X22110Y10354D01*
Y10343D01*
X22114Y10324D01*
X22122Y10312D01*
X22133Y10309D01*
X22141D01*
X22152Y10312D01*
X22160Y10324D01*
X22164Y10343D01*
Y10354D01*
X22160Y10373D01*
X22152Y10385D01*
X22141Y10389D01*
X22133D01*
X22182Y10373D02*
X22189Y10377D01*
X22201Y10389D01*
Y10309D01*
X22263Y10389D02*
X22252Y10385D01*
X22244Y10373D01*
X22240Y10354D01*
Y10343D01*
X22244Y10324D01*
X22252Y10312D01*
X22263Y10309D01*
X22271D01*
X22282Y10312D01*
X22290Y10324D01*
X22294Y10343D01*
Y10354D01*
X22290Y10373D01*
X22282Y10385D01*
X22271Y10389D01*
X22263D01*
D67*
X23381Y13331D02*
D03*
X23703Y13189D02*
D03*
X21294Y13312D02*
D03*
X21373D02*
D03*
X20408D02*
D03*
X20487D02*
D03*
X20408Y13883D02*
D03*
X20487D02*
D03*
X19523Y13883D02*
D03*
X19601D02*
D03*
X22180Y13312D02*
D03*
X22259D02*
D03*
X19523Y13312D02*
D03*
X19601D02*
D03*
X18637D02*
D03*
X18715D02*
D03*
X22180Y13883D02*
D03*
X22259D02*
D03*
X21294D02*
D03*
X21373D02*
D03*
X18637D02*
D03*
X18715D02*
D03*
X18298Y12496D02*
D03*
X18363D02*
D03*
X18668Y12491D02*
D03*
X18733D02*
D03*
X23873Y13680D02*
D03*
Y13745D02*
D03*
Y13810D02*
D03*
X23652Y13040D02*
D03*
Y12890D02*
D03*
X23908Y14043D02*
D03*
X22639Y12360D02*
D03*
X23010Y13842D02*
D03*
X19257Y15013D02*
D03*
X18557Y14873D02*
D03*
X19257Y15093D02*
D03*
X18557Y14803D02*
D03*
X18927Y15073D02*
D03*
X18697D02*
D03*
X20330Y15013D02*
D03*
X19630Y14873D02*
D03*
X20000Y15073D02*
D03*
X19770D02*
D03*
X18715Y14474D02*
D03*
X18637D02*
D03*
X18863Y15499D02*
D03*
X18401Y15684D02*
D03*
X18863Y15706D02*
D03*
X18862Y15870D02*
D03*
X18499Y15794D02*
D03*
X18509Y16050D02*
D03*
X19650Y15499D02*
D03*
X19171Y15665D02*
D03*
X19650Y15706D02*
D03*
X19649Y15870D02*
D03*
X19286Y15794D02*
D03*
X19296Y16050D02*
D03*
X20438Y15499D02*
D03*
X19959Y15665D02*
D03*
X20438Y15706D02*
D03*
X20437Y15870D02*
D03*
X20074Y15794D02*
D03*
X20083Y16050D02*
D03*
X21225Y15499D02*
D03*
X20746Y15665D02*
D03*
X21225Y15706D02*
D03*
X21224Y15870D02*
D03*
X20861Y15794D02*
D03*
X20871Y16050D02*
D03*
X22012Y15499D02*
D03*
X21534Y15665D02*
D03*
X22012Y15706D02*
D03*
X22012Y15870D02*
D03*
X21648Y15794D02*
D03*
X21658Y16050D02*
D03*
X22800Y15706D02*
D03*
X22799Y15870D02*
D03*
X22436Y15794D02*
D03*
X22446Y16050D02*
D03*
X20487Y14474D02*
D03*
X20408D02*
D03*
X21373D02*
D03*
X21294D02*
D03*
X21402Y15013D02*
D03*
X20702Y14873D02*
D03*
X21402Y15093D02*
D03*
X20702Y14803D02*
D03*
X21072Y15073D02*
D03*
X20842D02*
D03*
X22475Y15013D02*
D03*
X21775Y14873D02*
D03*
X22475Y15093D02*
D03*
X21775Y14803D02*
D03*
X22145Y15073D02*
D03*
X21915D02*
D03*
X22800Y15499D02*
D03*
X22321Y15665D02*
D03*
X19601Y14474D02*
D03*
X19523D02*
D03*
X22259D02*
D03*
X22180D02*
D03*
X19630Y14803D02*
D03*
X20330Y15093D02*
D03*
X22714Y12545D02*
D03*
Y12480D02*
D03*
X18406Y15910D02*
D03*
X19174Y15893D02*
D03*
X19962D02*
D03*
X20749D02*
D03*
X21537D02*
D03*
X22324D02*
D03*
X23870Y13875D02*
D03*
D68*
X23591Y12879D02*
X23584Y12884D01*
Y12875D01*
X23591Y12879D01*
X21428Y13266D02*
X21420Y13270D01*
Y13262D01*
X21428Y13266D01*
X21319Y13246D02*
X21312Y13250D01*
Y13241D01*
X21319Y13246D01*
X20542Y13266D02*
X20534Y13270D01*
Y13262D01*
X20542Y13266D01*
X20434Y13246D02*
X20426Y13250D01*
Y13241D01*
X20434Y13246D01*
X20542Y13837D02*
X20534Y13841D01*
Y13833D01*
X20542Y13837D01*
X20434Y13817D02*
X20426Y13821D01*
Y13812D01*
X20434Y13817D01*
X19656Y13837D02*
X19649Y13841D01*
Y13833D01*
X19656Y13837D01*
X19548Y13817D02*
X19540Y13821D01*
Y13812D01*
X19548Y13817D01*
X22313Y13266D02*
X22306Y13270D01*
Y13262D01*
X22313Y13266D01*
X22205Y13246D02*
X22198Y13250D01*
Y13241D01*
X22205Y13246D01*
X19656Y13266D02*
X19649Y13270D01*
Y13262D01*
X19656Y13266D01*
X19548Y13246D02*
X19540Y13250D01*
Y13241D01*
X19548Y13246D01*
X18770Y13266D02*
X18763Y13270D01*
Y13262D01*
X18770Y13266D01*
X18662Y13246D02*
X18655Y13250D01*
Y13241D01*
X18662Y13246D01*
X22313Y13837D02*
X22306Y13841D01*
Y13833D01*
X22313Y13837D01*
X22205Y13817D02*
X22198Y13821D01*
Y13812D01*
X22205Y13817D01*
X21428Y13837D02*
X21420Y13841D01*
Y13833D01*
X21428Y13837D01*
X21319Y13817D02*
X21312Y13821D01*
Y13812D01*
X21319Y13817D01*
X18770Y13837D02*
X18763Y13841D01*
Y13833D01*
X18770Y13837D01*
X18662Y13817D02*
X18655Y13821D01*
Y13812D01*
X18662Y13817D01*
X23254Y16002D02*
X23247Y16006D01*
Y15997D01*
X23254Y16002D01*
X23245Y15325D02*
X23238Y15329D01*
Y15321D01*
X23245Y15325D01*
X22536Y15776D02*
X22528Y15780D01*
Y15771D01*
X22536Y15776D01*
X23713Y13493D02*
X23706Y13498D01*
Y13489D01*
X23713Y13493D01*
X23724Y13060D02*
X23717Y13065D01*
Y13056D01*
X23724Y13060D01*
X22961Y14623D02*
X22954Y14628D01*
Y14619D01*
X22961Y14623D01*
X19034Y14984D02*
X19026Y14988D01*
Y14979D01*
X19034Y14984D01*
X18824Y14804D02*
X18816Y14808D01*
Y14800D01*
X18824Y14804D01*
X18674D02*
X18666Y14808D01*
Y14800D01*
X18674Y14804D01*
X18744Y15027D02*
X18736Y15031D01*
Y15023D01*
X18744Y15027D01*
X20107Y14984D02*
X20099Y14988D01*
Y14979D01*
X20107Y14984D01*
X19896Y14804D02*
X19889Y14808D01*
Y14800D01*
X19896Y14804D01*
X19746D02*
X19739Y14808D01*
Y14800D01*
X19746Y14804D01*
X19816Y15027D02*
X19809Y15031D01*
Y15023D01*
X19816Y15027D01*
X18662Y14407D02*
X18655Y14411D01*
Y14403D01*
X18662Y14407D01*
X18770Y14428D02*
X18763Y14432D01*
Y14423D01*
X18770Y14428D01*
X18780Y15734D02*
X18772Y15739D01*
Y15730D01*
X18780Y15734D01*
X18599Y15776D02*
X18591Y15780D01*
Y15771D01*
X18599Y15776D01*
X19567Y15734D02*
X19560Y15739D01*
Y15730D01*
X19567Y15734D01*
X19386Y15776D02*
X19379Y15780D01*
Y15771D01*
X19386Y15776D01*
X20355Y15734D02*
X20347Y15739D01*
Y15730D01*
X20355Y15734D01*
X20173Y15776D02*
X20166Y15780D01*
Y15771D01*
X20173Y15776D01*
X21142Y15734D02*
X21135Y15739D01*
Y15730D01*
X21142Y15734D01*
X20961Y15776D02*
X20953Y15780D01*
Y15771D01*
X20961Y15776D01*
X21929Y15734D02*
X21922Y15739D01*
Y15730D01*
X21929Y15734D01*
X21748Y15776D02*
X21741Y15780D01*
Y15771D01*
X21748Y15776D01*
X22717Y15734D02*
X22709Y15739D01*
Y15730D01*
X22717Y15734D01*
X20434Y14407D02*
X20426Y14411D01*
Y14403D01*
X20434Y14407D01*
X20542Y14428D02*
X20534Y14432D01*
Y14423D01*
X20542Y14428D01*
X21319Y14407D02*
X21312Y14411D01*
Y14403D01*
X21319Y14407D01*
X21428Y14428D02*
X21420Y14432D01*
Y14423D01*
X21428Y14428D01*
X21180Y14984D02*
X21172Y14988D01*
Y14979D01*
X21180Y14984D01*
X20969Y14804D02*
X20962Y14808D01*
Y14800D01*
X20969Y14804D01*
X20819D02*
X20812Y14808D01*
Y14800D01*
X20819Y14804D01*
X20889Y15027D02*
X20882Y15031D01*
Y15023D01*
X20889Y15027D01*
X22252Y14984D02*
X22245Y14988D01*
Y14979D01*
X22252Y14984D01*
X22042Y14804D02*
X22035Y14808D01*
Y14800D01*
X22042Y14804D01*
X21892D02*
X21885Y14808D01*
Y14800D01*
X21892Y14804D01*
X21962Y15027D02*
X21955Y15031D01*
Y15023D01*
X21962Y15027D01*
X19548Y14407D02*
X19540Y14411D01*
Y14403D01*
X19548Y14407D01*
X19656Y14428D02*
X19649Y14432D01*
Y14423D01*
X19656Y14428D01*
X22205Y14407D02*
X22198Y14411D01*
Y14403D01*
X22205Y14407D01*
X22313Y14428D02*
X22306Y14432D01*
Y14423D01*
X22313Y14428D01*
X18788Y12441D02*
X18781Y12445D01*
Y12437D01*
X18788Y12441D01*
X23588Y13681D02*
X23581Y13685D01*
Y13676D01*
X23588Y13681D01*
X23491Y13303D02*
X23484Y13308D01*
Y13299D01*
X23491Y13303D01*
X18418Y12446D02*
X18411Y12450D01*
Y12442D01*
X18418Y12446D01*
X22964Y13163D02*
X22956Y13168D01*
Y13159D01*
X22964Y13163D01*
D69*
X22872Y12342D02*
X22882Y12346D01*
X22886Y12356D01*
X22810D02*
X22814Y12346D01*
X22824Y12342D01*
Y12558D02*
X22814Y12554D01*
X22810Y12544D01*
X22886D02*
X22882Y12554D01*
X22872Y12558D01*
X22195Y12837D02*
X22185Y12833D01*
X22181Y12823D01*
X22257D02*
X22253Y12833D01*
X22243Y12837D01*
Y12621D02*
X22253Y12625D01*
X22257Y12635D01*
X22181D02*
X22185Y12625D01*
X22195Y12621D01*
X22067Y12837D02*
X22057Y12833D01*
X22053Y12823D01*
X22129D02*
X22125Y12833D01*
X22115Y12837D01*
Y12621D02*
X22125Y12625D01*
X22129Y12635D01*
X22053D02*
X22057Y12625D01*
X22067Y12621D01*
X19339Y12641D02*
X19343Y12631D01*
X19353Y12627D01*
X19453D02*
X19463Y12631D01*
X19467Y12641D01*
Y12971D02*
X19463Y12981D01*
X19453Y12985D01*
X19353D02*
X19343Y12981D01*
X19339Y12971D01*
X22781Y12434D02*
X22775Y12440D01*
X22769Y12434D01*
X22775Y12428D01*
X22781Y12434D01*
X18371Y15728D02*
X18365Y15734D01*
X18359Y15728D01*
X18365Y15722D01*
X18371Y15728D01*
X19142Y15711D02*
X19136Y15717D01*
X19130Y15711D01*
X19136Y15705D01*
X19142Y15711D01*
X19929D02*
X19923Y15717D01*
X19917Y15711D01*
X19923Y15705D01*
X19929Y15711D01*
X20717D02*
X20711Y15717D01*
X20705Y15711D01*
X20711Y15705D01*
X20717Y15711D01*
X21504D02*
X21498Y15717D01*
X21492Y15711D01*
X21498Y15705D01*
X21504Y15711D01*
X22292D02*
X22286Y15717D01*
X22280Y15711D01*
X22286Y15705D01*
X22292Y15711D01*
X22810Y12356D02*
Y12544D01*
X22886Y12356D02*
Y12544D01*
X22824Y12558D02*
X22872D01*
X22824Y12342D02*
X22872D01*
X22257Y12635D02*
Y12823D01*
X22181Y12635D02*
Y12823D01*
X22195Y12621D02*
X22243D01*
X22195Y12837D02*
X22243D01*
X22129Y12635D02*
Y12823D01*
X22053Y12635D02*
Y12823D01*
X22067Y12621D02*
X22115D01*
X22067Y12837D02*
X22115D01*
X19467Y12641D02*
Y12971D01*
X19339Y12641D02*
Y12971D01*
X19353Y12627D02*
X19453D01*
X19353Y12985D02*
X19453D01*
X22771Y12434D02*
X22779D01*
X22775Y12430D02*
Y12438D01*
X18361Y15728D02*
X18369D01*
X18365Y15724D02*
Y15732D01*
X19132Y15711D02*
X19140D01*
X19136Y15707D02*
Y15715D01*
X19919Y15711D02*
X19927D01*
X19923Y15707D02*
Y15715D01*
X20707Y15711D02*
X20715D01*
X20711Y15707D02*
Y15715D01*
X21494Y15711D02*
X21502D01*
X21498Y15707D02*
Y15715D01*
X22282Y15711D02*
X22290D01*
X22286Y15707D02*
Y15715D01*
X23722Y14335D02*
Y14319D01*
Y14327D01*
X23764D01*
X23772Y14319D01*
Y14310D01*
X23764Y14302D01*
X23722Y14352D02*
Y14385D01*
Y14369D01*
X23772D01*
Y14402D02*
X23739D01*
X23722Y14419D01*
X23739Y14435D01*
X23772D01*
X23747D01*
Y14402D01*
X23730Y14485D02*
X23722Y14477D01*
Y14460D01*
X23730Y14452D01*
X23764D01*
X23772Y14460D01*
Y14477D01*
X23764Y14485D01*
X23747D01*
Y14469D01*
D70*
X23054Y14571D02*
X23049Y14580D01*
X23039Y14583D01*
X23031Y14576D01*
Y14566D01*
X23039Y14560D01*
X23049Y14562D01*
X23054Y14571D01*
D71*
X23047Y13152D02*
X23050Y13143D01*
X23057Y13138D01*
X23066D01*
X23073Y13143D01*
X23076Y13152D01*
X23336Y13102D02*
X23464D01*
X23336Y12838D02*
X23464D01*
Y13102D01*
X23336Y12838D02*
Y13102D01*
X21551Y13301D02*
Y13359D01*
X21448Y13301D02*
Y13359D01*
X21466D01*
X21533D02*
X21551D01*
X21379Y13037D02*
X21442D01*
X21379Y13234D02*
X21442D01*
Y13037D02*
Y13234D01*
X21379Y13037D02*
Y13234D01*
X20665Y13301D02*
Y13359D01*
X20562Y13301D02*
Y13359D01*
X20580D01*
X20647D02*
X20665D01*
X20494Y13037D02*
X20557D01*
X20494Y13234D02*
X20557D01*
Y13037D02*
Y13234D01*
X20494Y13037D02*
Y13234D01*
X20665Y13871D02*
Y13930D01*
X20562Y13871D02*
Y13930D01*
X20580D01*
X20647D02*
X20665D01*
X20494Y13608D02*
X20557D01*
X20494Y13805D02*
X20557D01*
Y13608D02*
Y13805D01*
X20494Y13608D02*
Y13805D01*
X19779Y13871D02*
Y13930D01*
X19677Y13871D02*
Y13930D01*
X19694D01*
X19761D02*
X19779D01*
X19608Y13608D02*
X19671D01*
X19608Y13805D02*
X19671D01*
Y13608D02*
Y13805D01*
X19608Y13608D02*
Y13805D01*
X22437Y13301D02*
Y13359D01*
X22334Y13301D02*
Y13359D01*
X22352D01*
X22419D02*
X22437D01*
X22265Y13037D02*
X22328D01*
X22265Y13234D02*
X22328D01*
Y13037D02*
Y13234D01*
X22265Y13037D02*
Y13234D01*
X19779Y13301D02*
Y13359D01*
X19677Y13301D02*
Y13359D01*
X19694D01*
X19761D02*
X19779D01*
X19608Y13037D02*
X19671D01*
X19608Y13234D02*
X19671D01*
Y13037D02*
Y13234D01*
X19608Y13037D02*
Y13234D01*
X18893Y13301D02*
Y13359D01*
X18791Y13301D02*
Y13359D01*
X18809D01*
X18875D02*
X18893D01*
X18722Y13037D02*
X18785D01*
X18722Y13234D02*
X18785D01*
Y13037D02*
Y13234D01*
X18722Y13037D02*
Y13234D01*
X22437Y13871D02*
Y13930D01*
X22334Y13871D02*
Y13930D01*
X22352D01*
X22419D02*
X22437D01*
X22265Y13608D02*
X22328D01*
X22265Y13805D02*
X22328D01*
Y13608D02*
Y13805D01*
X22265Y13608D02*
Y13805D01*
X21551Y13871D02*
Y13930D01*
X21448Y13871D02*
Y13930D01*
X21466D01*
X21533D02*
X21551D01*
X21379Y13608D02*
X21442D01*
X21379Y13805D02*
X21442D01*
Y13608D02*
Y13805D01*
X21379Y13608D02*
Y13805D01*
X18893Y13871D02*
Y13930D01*
X18791Y13871D02*
Y13930D01*
X18809D01*
X18875D02*
X18893D01*
X18722Y13608D02*
X18785D01*
X18722Y13805D02*
X18785D01*
Y13608D02*
Y13805D01*
X18722Y13608D02*
Y13805D01*
X23287Y16023D02*
Y16035D01*
X23299D01*
X23287Y15752D02*
Y15764D01*
Y15752D02*
X23299D01*
X23570D02*
Y15764D01*
X23558Y15752D02*
X23570D01*
Y16023D02*
Y16035D01*
X23558D02*
X23570D01*
X23278Y15347D02*
Y15358D01*
X23290D01*
X23278Y15075D02*
Y15087D01*
Y15075D02*
X23290D01*
X23561D02*
Y15087D01*
X23549Y15075D02*
X23561D01*
Y15347D02*
Y15358D01*
X23549D02*
X23561D01*
X22753Y15898D02*
Y16026D01*
X22489Y15898D02*
Y16026D01*
Y15898D02*
X22753D01*
X22489Y16026D02*
X22753D01*
X23958Y13271D02*
Y13535D01*
X23830Y13271D02*
Y13535D01*
X23958D01*
X23830Y13271D02*
X23958D01*
X23969Y12838D02*
Y13102D01*
X23841Y12838D02*
Y13102D01*
X23969D01*
X23841Y12838D02*
X23969D01*
X23816Y14817D02*
X24016D01*
X23816Y14317D02*
X24016D01*
X23816D02*
Y14817D01*
X24016Y14317D02*
Y14817D01*
X23002Y14111D02*
X23502D01*
X23002Y14611D02*
X23502D01*
Y14111D02*
Y14611D01*
X23002Y14111D02*
Y14611D01*
X19094Y14775D02*
Y14972D01*
X19157Y14775D02*
Y14972D01*
X19094D02*
X19157D01*
X19094Y14775D02*
X19157D01*
X18947Y14839D02*
Y14903D01*
X18844Y14839D02*
Y14903D01*
X18862D01*
X18929D02*
X18947D01*
X18797Y14839D02*
Y14903D01*
X18694Y14839D02*
Y14903D01*
X18712D01*
X18779D02*
X18797D01*
X18849Y15120D02*
X18867D01*
X18764D02*
X18782D01*
X18764Y15061D02*
Y15120D01*
X18867Y15061D02*
Y15120D01*
X20167Y14775D02*
Y14972D01*
X20230Y14775D02*
Y14972D01*
X20167D02*
X20230D01*
X20167Y14775D02*
X20230D01*
X20019Y14839D02*
Y14903D01*
X19917Y14839D02*
Y14903D01*
X19935D01*
X20002D02*
X20019D01*
X19869Y14839D02*
Y14903D01*
X19767Y14839D02*
Y14903D01*
X19785D01*
X19852D02*
X19869D01*
X19922Y15120D02*
X19939D01*
X19837D02*
X19855D01*
X19837Y15061D02*
Y15120D01*
X19939Y15061D02*
Y15120D01*
X18722Y14198D02*
Y14395D01*
X18785Y14198D02*
Y14395D01*
X18722D02*
X18785D01*
X18722Y14198D02*
X18785D01*
X18875Y14520D02*
X18893D01*
X18791D02*
X18809D01*
X18791Y14462D02*
Y14520D01*
X18893Y14462D02*
Y14520D01*
X18552Y15484D02*
X18816D01*
X18552Y15612D02*
X18816D01*
Y15484D02*
Y15612D01*
X18552Y15484D02*
Y15612D01*
Y16026D02*
X18816D01*
X18552Y15898D02*
X18816D01*
X18552D02*
Y16026D01*
X18816Y15898D02*
Y16026D01*
X19340Y15484D02*
X19604D01*
X19340Y15612D02*
X19604D01*
Y15484D02*
Y15612D01*
X19340Y15484D02*
Y15612D01*
Y16026D02*
X19604D01*
X19340Y15898D02*
X19604D01*
X19340D02*
Y16026D01*
X19604Y15898D02*
Y16026D01*
X20127Y15484D02*
X20391D01*
X20127Y15612D02*
X20391D01*
Y15484D02*
Y15612D01*
X20127Y15484D02*
Y15612D01*
Y16026D02*
X20391D01*
X20127Y15898D02*
X20391D01*
X20127D02*
Y16026D01*
X20391Y15898D02*
Y16026D01*
X20915Y15484D02*
X21178D01*
X20915Y15612D02*
X21178D01*
Y15484D02*
Y15612D01*
X20915Y15484D02*
Y15612D01*
Y16026D02*
X21178D01*
X20915Y15898D02*
X21178D01*
X20915D02*
Y16026D01*
X21178Y15898D02*
Y16026D01*
X21702Y15484D02*
X21966D01*
X21702Y15612D02*
X21966D01*
Y15484D02*
Y15612D01*
X21702Y15484D02*
Y15612D01*
Y16026D02*
X21966D01*
X21702Y15898D02*
X21966D01*
X21702D02*
Y16026D01*
X21966Y15898D02*
Y16026D01*
X22489Y15484D02*
X22753D01*
X22489Y15612D02*
X22753D01*
Y15484D02*
Y15612D01*
X22489Y15484D02*
Y15612D01*
X20494Y14198D02*
Y14395D01*
X20557Y14198D02*
Y14395D01*
X20494D02*
X20557D01*
X20494Y14198D02*
X20557D01*
X20647Y14520D02*
X20665D01*
X20562D02*
X20580D01*
X20562Y14462D02*
Y14520D01*
X20665Y14462D02*
Y14520D01*
X21379Y14198D02*
Y14395D01*
X21442Y14198D02*
Y14395D01*
X21379D02*
X21442D01*
X21379Y14198D02*
X21442D01*
X21533Y14520D02*
X21551D01*
X21448D02*
X21466D01*
X21448Y14462D02*
Y14520D01*
X21551Y14462D02*
Y14520D01*
X21240Y14775D02*
Y14972D01*
X21303Y14775D02*
Y14972D01*
X21240D02*
X21303D01*
X21240Y14775D02*
X21303D01*
X21092Y14839D02*
Y14903D01*
X20990Y14839D02*
Y14903D01*
X21008D01*
X21075D02*
X21092D01*
X20942Y14839D02*
Y14903D01*
X20840Y14839D02*
Y14903D01*
X20858D01*
X20925D02*
X20942D01*
X20995Y15120D02*
X21012D01*
X20910D02*
X20928D01*
X20910Y15061D02*
Y15120D01*
X21012Y15061D02*
Y15120D01*
X22312Y14775D02*
Y14972D01*
X22375Y14775D02*
Y14972D01*
X22312D02*
X22375D01*
X22312Y14775D02*
X22375D01*
X22165Y14839D02*
Y14903D01*
X22063Y14839D02*
Y14903D01*
X22080D01*
X22147D02*
X22165D01*
X22015Y14839D02*
Y14903D01*
X21913Y14839D02*
Y14903D01*
X21930D01*
X21997D02*
X22015D01*
X22067Y15120D02*
X22085D01*
X21983D02*
X22000D01*
X21983Y15061D02*
Y15120D01*
X22085Y15061D02*
Y15120D01*
X19608Y14198D02*
Y14395D01*
X19671Y14198D02*
Y14395D01*
X19608D02*
X19671D01*
X19608Y14198D02*
X19671D01*
X19761Y14520D02*
X19779D01*
X19677D02*
X19694D01*
X19677Y14462D02*
Y14520D01*
X19779Y14462D02*
Y14520D01*
X22265Y14198D02*
Y14395D01*
X22328Y14198D02*
Y14395D01*
X22265D02*
X22328D01*
X22265Y14198D02*
X22328D01*
X22419Y14520D02*
X22437D01*
X22334D02*
X22352D01*
X22334Y14462D02*
Y14520D01*
X22437Y14462D02*
Y14520D01*
X24013Y14945D02*
Y16145D01*
X23813Y14945D02*
Y16145D01*
Y14945D02*
X24013D01*
X23813Y16145D02*
X24013D01*
X18793Y12500D02*
X18990D01*
X18793Y12571D02*
X18990D01*
X18793Y12500D02*
Y12571D01*
X18990Y12500D02*
Y12571D01*
X23843Y14226D02*
X23847D01*
X23879D02*
X23938D01*
X23879Y14085D02*
X23938D01*
X23061Y13745D02*
Y13945D01*
Y13745D02*
X23161D01*
Y13945D01*
X23061D02*
X23161D01*
X23594Y13740D02*
X23790D01*
X23594Y13810D02*
X23790D01*
X23594Y13740D02*
Y13810D01*
X23790Y13740D02*
Y13810D01*
X23496Y13362D02*
X23693D01*
X23496Y13433D02*
X23693D01*
X23496Y13362D02*
Y13433D01*
X23693Y13362D02*
Y13433D01*
X18423Y12505D02*
X18620D01*
X18423Y12576D02*
X18620D01*
X18423Y12505D02*
Y12576D01*
X18620Y12505D02*
Y12576D01*
X23105Y12758D02*
Y13152D01*
X23018Y12758D02*
Y13152D01*
Y12758D02*
X23105D01*
X23076Y13152D02*
X23105D01*
X23018D02*
X23047D01*
D72*
X22795Y12337D02*
Y12375D01*
X22681Y12337D02*
Y12375D01*
X22727Y12330D02*
X22749D01*
X21398Y12746D02*
X21441D01*
X21398Y12632D02*
X21441D01*
X21398Y12715D02*
Y12746D01*
Y12632D02*
Y12663D01*
X21448Y12678D02*
Y12700D01*
X21554Y12746D02*
X21597D01*
X21554Y12632D02*
X21597D01*
X21554Y12715D02*
Y12746D01*
Y12632D02*
Y12663D01*
X21604Y12678D02*
Y12700D01*
X18345Y15787D02*
Y15825D01*
X18459Y15787D02*
Y15825D01*
X18391Y15832D02*
X18413D01*
X19116Y15770D02*
Y15808D01*
X19230Y15770D02*
Y15808D01*
X19162Y15815D02*
X19184D01*
X19903Y15770D02*
Y15808D01*
X20017Y15770D02*
Y15808D01*
X19949Y15815D02*
X19971D01*
X20691Y15770D02*
Y15808D01*
X20805Y15770D02*
Y15808D01*
X20737Y15815D02*
X20759D01*
X21478Y15770D02*
Y15808D01*
X21592Y15770D02*
Y15808D01*
X21524Y15815D02*
X21546D01*
X22266Y15770D02*
Y15808D01*
X22380Y15770D02*
Y15808D01*
X22312Y15815D02*
X22334D01*
X19367Y11438D02*
X19347Y11428D01*
X19327Y11408D01*
Y11388D01*
X19337Y11378D01*
X19357D01*
X19367Y11388D01*
Y11398D01*
X19357Y11408D01*
X19327D01*
X19427Y11438D02*
X19387D01*
Y11408D01*
X19407Y11418D01*
X19417D01*
X19427Y11408D01*
Y11388D01*
X19417Y11378D01*
X19397D01*
X19387Y11388D01*
X19447Y11378D02*
Y11388D01*
X19457D01*
Y11378D01*
X19447D01*
X19497Y11428D02*
X19507Y11438D01*
X19527D01*
X19537Y11428D01*
Y11388D01*
X19527Y11378D01*
X19507D01*
X19497Y11388D01*
Y11428D01*
X19556D02*
X19566Y11438D01*
X19586D01*
X19596Y11428D01*
Y11388D01*
X19586Y11378D01*
X19566D01*
X19556Y11388D01*
Y11428D01*
D73*
X20721Y12677D02*
D03*
M02*
