%FSLAX23Y23*%
%MOIN*%
G70*
G01*
G75*
G04 Layer_Color=8421504*
%ADD10C,0.005*%
%ADD11C,0.040*%
%ADD12R,0.085X0.138*%
%ADD13R,0.085X0.043*%
%ADD14R,0.085X0.043*%
%ADD15R,0.060X0.086*%
%ADD16R,0.035X0.037*%
%ADD17R,0.035X0.037*%
%ADD18R,0.050X0.050*%
%ADD19O,0.098X0.028*%
%ADD20R,0.135X0.070*%
%ADD21R,0.228X0.228*%
%ADD22O,0.008X0.033*%
%ADD23O,0.033X0.008*%
%ADD24R,0.070X0.135*%
%ADD25R,0.138X0.085*%
%ADD26R,0.043X0.085*%
%ADD27R,0.043X0.085*%
%ADD28R,0.031X0.060*%
%ADD29R,0.014X0.060*%
%ADD30R,0.030X0.100*%
%ADD31R,0.050X0.050*%
%ADD32R,0.048X0.078*%
%ADD33R,0.100X0.100*%
%ADD34O,0.010X0.061*%
%ADD35O,0.061X0.010*%
%ADD36O,0.024X0.087*%
%ADD37R,0.045X0.017*%
%ADD38R,0.028X0.036*%
%ADD39R,0.036X0.036*%
%ADD40R,0.087X0.024*%
%ADD41C,0.020*%
%ADD42C,0.010*%
%ADD43C,0.012*%
%ADD44R,1.181X0.787*%
%ADD45C,0.008*%
%ADD46C,0.012*%
%ADD47C,0.012*%
%ADD48C,0.236*%
%ADD49C,0.050*%
%ADD50C,0.020*%
%ADD51C,0.026*%
%ADD52R,0.059X0.059*%
%ADD53C,0.059*%
%ADD54C,0.024*%
%ADD55C,0.040*%
%ADD56C,0.030*%
%ADD57C,0.033*%
%ADD58C,0.055*%
G04:AMPARAMS|DCode=59|XSize=70mil|YSize=70mil|CornerRadius=0mil|HoleSize=0mil|Usage=FLASHONLY|Rotation=0.000|XOffset=0mil|YOffset=0mil|HoleType=Round|Shape=Relief|Width=10mil|Gap=10mil|Entries=4|*
%AMTHD59*
7,0,0,0.070,0.050,0.010,45*
%
%ADD59THD59*%
%ADD60C,0.007*%
%ADD61C,0.045*%
G04:AMPARAMS|DCode=62|XSize=95.433mil|YSize=95.433mil|CornerRadius=0mil|HoleSize=0mil|Usage=FLASHONLY|Rotation=0.000|XOffset=0mil|YOffset=0mil|HoleType=Round|Shape=Relief|Width=10mil|Gap=10mil|Entries=4|*
%AMTHD62*
7,0,0,0.095,0.075,0.010,45*
%
%ADD62THD62*%
%ADD63R,0.094X0.102*%
%ADD64O,0.087X0.024*%
%ADD65R,0.078X0.048*%
%ADD66O,0.028X0.098*%
%ADD67R,0.075X0.063*%
%ADD68R,1.181X0.787*%
%ADD69C,0.010*%
%ADD70C,0.010*%
%ADD71C,0.024*%
%ADD72C,0.008*%
%ADD73C,0.006*%
%ADD74R,0.240X0.165*%
%ADD75R,0.020X0.082*%
D11*
X15366Y13595D02*
D03*
X15698Y14009D02*
D03*
X15343Y12972D02*
D03*
X15700Y13310D02*
D03*
X14960Y12502D02*
D03*
X15028Y11956D02*
D03*
X15653Y11968D02*
D03*
X14842Y9993D02*
D03*
X10394Y10905D02*
D03*
X10408Y13675D02*
D03*
D12*
X15381Y10869D02*
D03*
X16120Y11302D02*
D03*
X16131Y10869D02*
D03*
D13*
X15626Y10960D02*
D03*
Y10779D02*
D03*
X15876Y11393D02*
D03*
Y11212D02*
D03*
X15886Y10960D02*
D03*
Y10779D02*
D03*
D14*
X15626Y10869D02*
D03*
X15876Y11302D02*
D03*
X15886Y10869D02*
D03*
D15*
X13323Y11113D02*
D03*
X13193D02*
D03*
X13705D02*
D03*
X13835D02*
D03*
X12437D02*
D03*
X12307D02*
D03*
X12819D02*
D03*
X12949D02*
D03*
X12437Y11684D02*
D03*
X12307D02*
D03*
X12819D02*
D03*
X12949D02*
D03*
X11552Y11684D02*
D03*
X11422D02*
D03*
X11933D02*
D03*
X12063D02*
D03*
X14209Y11113D02*
D03*
X14079D02*
D03*
X14591D02*
D03*
X14721D02*
D03*
X11552Y11113D02*
D03*
X11422D02*
D03*
X11933D02*
D03*
X12063D02*
D03*
X10666D02*
D03*
X10536D02*
D03*
X11048D02*
D03*
X11178D02*
D03*
X14209Y11684D02*
D03*
X14079D02*
D03*
X14591D02*
D03*
X14721D02*
D03*
X13323D02*
D03*
X13193D02*
D03*
X13705D02*
D03*
X13835D02*
D03*
X10666D02*
D03*
X10536D02*
D03*
X11048D02*
D03*
X11178D02*
D03*
X10594Y12873D02*
D03*
X10724D02*
D03*
X11104Y12973D02*
D03*
X11234D02*
D03*
X11178Y12275D02*
D03*
X11048D02*
D03*
X10536D02*
D03*
X10666D02*
D03*
X12949D02*
D03*
X12819D02*
D03*
X12307D02*
D03*
X12437D02*
D03*
X13835D02*
D03*
X13705D02*
D03*
X13193D02*
D03*
X13323D02*
D03*
X12739Y12873D02*
D03*
X12869D02*
D03*
X13249Y12973D02*
D03*
X13379D02*
D03*
X13812Y12873D02*
D03*
X13942D02*
D03*
X14322Y12973D02*
D03*
X14452D02*
D03*
X12063Y12275D02*
D03*
X11933D02*
D03*
X11422D02*
D03*
X11552D02*
D03*
X14721D02*
D03*
X14591D02*
D03*
X14079D02*
D03*
X14209D02*
D03*
X12307Y12973D02*
D03*
X12177D02*
D03*
X11797Y12873D02*
D03*
X11667D02*
D03*
D16*
X13603Y11258D02*
D03*
X13565Y11166D02*
D03*
X12717Y11258D02*
D03*
X12680Y11166D02*
D03*
X12717Y11829D02*
D03*
X12680Y11737D02*
D03*
X11831Y11829D02*
D03*
X11794Y11737D02*
D03*
X14489Y11258D02*
D03*
X14451Y11166D02*
D03*
X11831Y11258D02*
D03*
X11794Y11166D02*
D03*
X10945Y11258D02*
D03*
X10908Y11166D02*
D03*
X14489Y11829D02*
D03*
X14451Y11737D02*
D03*
X13603Y11829D02*
D03*
X13565Y11737D02*
D03*
X10945Y11829D02*
D03*
X10908Y11737D02*
D03*
X10999Y12802D02*
D03*
X10961Y12704D02*
D03*
X10849Y12802D02*
D03*
X10811Y12704D02*
D03*
X10881Y12927D02*
D03*
X10919Y13019D02*
D03*
X12072Y12802D02*
D03*
X12034Y12704D02*
D03*
X11922Y12802D02*
D03*
X11884Y12704D02*
D03*
X11954Y12927D02*
D03*
X11992Y13019D02*
D03*
X10908Y12327D02*
D03*
X10945Y12420D02*
D03*
X12680Y12327D02*
D03*
X12717Y12420D02*
D03*
X13565Y12327D02*
D03*
X13603Y12420D02*
D03*
X13144Y12802D02*
D03*
X13107Y12704D02*
D03*
X12994Y12802D02*
D03*
X12957Y12704D02*
D03*
X13027Y12927D02*
D03*
X13064Y13019D02*
D03*
X14217Y12802D02*
D03*
X14180Y12704D02*
D03*
X14067Y12802D02*
D03*
X14030Y12704D02*
D03*
X14100Y12927D02*
D03*
X14137Y13019D02*
D03*
X11794Y12327D02*
D03*
X11831Y12420D02*
D03*
X14451Y12327D02*
D03*
X14489Y12420D02*
D03*
D17*
X13640Y11166D02*
D03*
X12754D02*
D03*
X12754Y11737D02*
D03*
X11869Y11737D02*
D03*
X14526Y11166D02*
D03*
X11869D02*
D03*
X10983D02*
D03*
X14526Y11737D02*
D03*
X13640D02*
D03*
X10983D02*
D03*
X11036Y12704D02*
D03*
X10886D02*
D03*
X10956Y12927D02*
D03*
X12109Y12704D02*
D03*
X11959D02*
D03*
X12029Y12927D02*
D03*
X10983Y12327D02*
D03*
X12754D02*
D03*
X13640D02*
D03*
X13182Y12704D02*
D03*
X13032D02*
D03*
X13102Y12927D02*
D03*
X14255Y12704D02*
D03*
X14105D02*
D03*
X14175Y12927D02*
D03*
X11869Y12327D02*
D03*
X14526D02*
D03*
D18*
X13396Y11167D02*
D03*
Y11257D02*
D03*
X13475Y11167D02*
D03*
Y11257D02*
D03*
X12510Y11167D02*
D03*
Y11257D02*
D03*
X12589Y11167D02*
D03*
Y11257D02*
D03*
X12510Y11738D02*
D03*
Y11828D02*
D03*
X12589Y11738D02*
D03*
Y11828D02*
D03*
X11624Y11738D02*
D03*
Y11828D02*
D03*
X11703Y11738D02*
D03*
Y11828D02*
D03*
X14282Y11167D02*
D03*
Y11257D02*
D03*
X14361Y11167D02*
D03*
Y11257D02*
D03*
X11624Y11167D02*
D03*
Y11257D02*
D03*
X11703Y11167D02*
D03*
Y11257D02*
D03*
X10739Y11167D02*
D03*
Y11257D02*
D03*
X10817Y11167D02*
D03*
Y11257D02*
D03*
X14282Y11738D02*
D03*
Y11828D02*
D03*
X14361Y11738D02*
D03*
Y11828D02*
D03*
X13396Y11738D02*
D03*
Y11828D02*
D03*
X13475Y11738D02*
D03*
Y11828D02*
D03*
X10739Y11738D02*
D03*
Y11828D02*
D03*
X10817Y11738D02*
D03*
Y11828D02*
D03*
X10400Y10350D02*
D03*
Y10440D02*
D03*
X10465D02*
D03*
Y10350D02*
D03*
X10770Y10345D02*
D03*
Y10435D02*
D03*
X10835Y10435D02*
D03*
Y10345D02*
D03*
X15753Y10894D02*
D03*
Y10984D02*
D03*
Y10744D02*
D03*
Y10834D02*
D03*
X14741Y10215D02*
D03*
Y10305D02*
D03*
X15112Y11787D02*
D03*
Y11697D02*
D03*
X11029Y13018D02*
D03*
Y12928D02*
D03*
X10799Y13018D02*
D03*
Y12928D02*
D03*
X12102Y13018D02*
D03*
Y12928D02*
D03*
X11872Y13018D02*
D03*
Y12928D02*
D03*
X10817Y12418D02*
D03*
Y12328D02*
D03*
X10739Y12418D02*
D03*
Y12328D02*
D03*
X10965Y13354D02*
D03*
Y13444D02*
D03*
X10602Y13572D02*
D03*
Y13482D02*
D03*
X10965Y13650D02*
D03*
Y13560D02*
D03*
X10964Y13725D02*
D03*
Y13815D02*
D03*
X10601Y13739D02*
D03*
Y13649D02*
D03*
X10610Y13905D02*
D03*
Y13995D02*
D03*
X11752Y13354D02*
D03*
Y13444D02*
D03*
X11389Y13572D02*
D03*
Y13482D02*
D03*
X11752Y13650D02*
D03*
Y13560D02*
D03*
X11751Y13725D02*
D03*
Y13815D02*
D03*
X11388Y13739D02*
D03*
Y13649D02*
D03*
X11398Y13905D02*
D03*
Y13995D02*
D03*
X12540Y13354D02*
D03*
Y13444D02*
D03*
X12177Y13572D02*
D03*
Y13482D02*
D03*
X12540Y13650D02*
D03*
Y13560D02*
D03*
X12539Y13725D02*
D03*
Y13815D02*
D03*
X12175Y13739D02*
D03*
Y13649D02*
D03*
X12185Y13905D02*
D03*
Y13995D02*
D03*
X13327Y13354D02*
D03*
Y13444D02*
D03*
X12964Y13572D02*
D03*
Y13482D02*
D03*
X13327Y13650D02*
D03*
Y13560D02*
D03*
X13326Y13725D02*
D03*
Y13815D02*
D03*
X12963Y13739D02*
D03*
Y13649D02*
D03*
X12973Y13905D02*
D03*
Y13995D02*
D03*
X14114Y13354D02*
D03*
Y13444D02*
D03*
X13752Y13572D02*
D03*
Y13482D02*
D03*
X14114Y13650D02*
D03*
Y13560D02*
D03*
X14113Y13725D02*
D03*
Y13815D02*
D03*
X13750Y13739D02*
D03*
Y13649D02*
D03*
X13760Y13905D02*
D03*
Y13995D02*
D03*
X14902Y13650D02*
D03*
Y13560D02*
D03*
X14901Y13725D02*
D03*
Y13815D02*
D03*
X14538Y13739D02*
D03*
Y13649D02*
D03*
X14547Y13905D02*
D03*
Y13995D02*
D03*
X12589Y12418D02*
D03*
Y12328D02*
D03*
X12510Y12418D02*
D03*
Y12328D02*
D03*
X13475Y12418D02*
D03*
Y12328D02*
D03*
X13396Y12418D02*
D03*
Y12328D02*
D03*
X13174Y13018D02*
D03*
Y12928D02*
D03*
X12944Y13018D02*
D03*
Y12928D02*
D03*
X14247Y13018D02*
D03*
Y12928D02*
D03*
X14017Y13018D02*
D03*
Y12928D02*
D03*
X14902Y13444D02*
D03*
Y13354D02*
D03*
X14539Y13482D02*
D03*
Y13572D02*
D03*
X11703Y12418D02*
D03*
Y12328D02*
D03*
X11624Y12418D02*
D03*
Y12328D02*
D03*
X14361Y12418D02*
D03*
Y12328D02*
D03*
X14282Y12418D02*
D03*
Y12328D02*
D03*
D19*
X13611Y10960D02*
D03*
Y11010D02*
D03*
Y11060D02*
D03*
Y11110D02*
D03*
X13418Y10960D02*
D03*
Y11010D02*
D03*
Y11060D02*
D03*
Y11110D02*
D03*
X12725Y10960D02*
D03*
Y11010D02*
D03*
Y11060D02*
D03*
Y11110D02*
D03*
X12532Y10960D02*
D03*
Y11010D02*
D03*
Y11060D02*
D03*
Y11110D02*
D03*
X12725Y11531D02*
D03*
Y11581D02*
D03*
Y11631D02*
D03*
Y11681D02*
D03*
X12532Y11531D02*
D03*
Y11581D02*
D03*
Y11631D02*
D03*
Y11681D02*
D03*
X11839Y11531D02*
D03*
Y11581D02*
D03*
Y11631D02*
D03*
Y11681D02*
D03*
X11646Y11531D02*
D03*
Y11581D02*
D03*
Y11631D02*
D03*
Y11681D02*
D03*
X14496Y10960D02*
D03*
Y11010D02*
D03*
Y11060D02*
D03*
Y11110D02*
D03*
X14304Y10960D02*
D03*
Y11010D02*
D03*
Y11060D02*
D03*
Y11110D02*
D03*
X11839Y10960D02*
D03*
Y11010D02*
D03*
Y11060D02*
D03*
Y11110D02*
D03*
X11646Y10960D02*
D03*
Y11010D02*
D03*
Y11060D02*
D03*
Y11110D02*
D03*
X10953Y10960D02*
D03*
Y11010D02*
D03*
Y11060D02*
D03*
Y11110D02*
D03*
X10760Y10960D02*
D03*
Y11010D02*
D03*
Y11060D02*
D03*
Y11110D02*
D03*
X14496Y11531D02*
D03*
Y11581D02*
D03*
Y11631D02*
D03*
Y11681D02*
D03*
X14304Y11531D02*
D03*
Y11581D02*
D03*
Y11631D02*
D03*
Y11681D02*
D03*
X13611Y11531D02*
D03*
Y11581D02*
D03*
Y11631D02*
D03*
Y11681D02*
D03*
X13418Y11531D02*
D03*
Y11581D02*
D03*
Y11631D02*
D03*
Y11681D02*
D03*
X10953Y11531D02*
D03*
Y11581D02*
D03*
Y11631D02*
D03*
Y11681D02*
D03*
X10760Y11531D02*
D03*
Y11581D02*
D03*
Y11631D02*
D03*
Y11681D02*
D03*
X11132Y12848D02*
D03*
Y12798D02*
D03*
Y12748D02*
D03*
Y12698D02*
D03*
X11325Y12848D02*
D03*
Y12798D02*
D03*
Y12748D02*
D03*
Y12698D02*
D03*
X12205Y12848D02*
D03*
Y12798D02*
D03*
Y12748D02*
D03*
Y12698D02*
D03*
X12398Y12848D02*
D03*
Y12798D02*
D03*
Y12748D02*
D03*
Y12698D02*
D03*
X10760Y12271D02*
D03*
Y12221D02*
D03*
Y12171D02*
D03*
Y12121D02*
D03*
X10953Y12271D02*
D03*
Y12221D02*
D03*
Y12171D02*
D03*
Y12121D02*
D03*
X12532Y12271D02*
D03*
Y12221D02*
D03*
Y12171D02*
D03*
Y12121D02*
D03*
X12725Y12271D02*
D03*
Y12221D02*
D03*
Y12171D02*
D03*
Y12121D02*
D03*
X13418Y12271D02*
D03*
Y12221D02*
D03*
Y12171D02*
D03*
Y12121D02*
D03*
X13611Y12271D02*
D03*
Y12221D02*
D03*
Y12171D02*
D03*
Y12121D02*
D03*
X13278Y12848D02*
D03*
Y12798D02*
D03*
Y12748D02*
D03*
Y12698D02*
D03*
X13471Y12848D02*
D03*
Y12798D02*
D03*
Y12748D02*
D03*
Y12698D02*
D03*
X14351Y12848D02*
D03*
Y12798D02*
D03*
Y12748D02*
D03*
Y12698D02*
D03*
X14544Y12848D02*
D03*
Y12798D02*
D03*
Y12748D02*
D03*
Y12698D02*
D03*
X11646Y12271D02*
D03*
Y12221D02*
D03*
Y12171D02*
D03*
Y12121D02*
D03*
X11839Y12271D02*
D03*
Y12221D02*
D03*
Y12171D02*
D03*
Y12121D02*
D03*
X14304Y12271D02*
D03*
Y12221D02*
D03*
Y12171D02*
D03*
Y12121D02*
D03*
X14496Y12271D02*
D03*
Y12221D02*
D03*
Y12171D02*
D03*
Y12121D02*
D03*
D20*
X13268Y11232D02*
D03*
X12382D02*
D03*
Y11802D02*
D03*
X11496Y11802D02*
D03*
X14154Y11232D02*
D03*
X11496D02*
D03*
X10611D02*
D03*
X14154Y11802D02*
D03*
X13268D02*
D03*
X10611D02*
D03*
X13887Y13003D02*
D03*
X12814D02*
D03*
X13268Y12393D02*
D03*
X12382D02*
D03*
X10611D02*
D03*
X11742Y13003D02*
D03*
X10669D02*
D03*
X15623Y11054D02*
D03*
X15883Y10689D02*
D03*
X10440Y10535D02*
D03*
X10810Y10530D02*
D03*
X11496Y12393D02*
D03*
X14154D02*
D03*
X10640Y13188D02*
D03*
X14318Y13283D02*
D03*
X15127Y11506D02*
D03*
X15392Y11681D02*
D03*
X14495Y10547D02*
D03*
X11213Y13201D02*
D03*
D21*
X15532Y13793D02*
D03*
X15523Y13116D02*
D03*
D22*
X15423Y13934D02*
D03*
X15443D02*
D03*
X15463D02*
D03*
X15483D02*
D03*
X15502D02*
D03*
X15522D02*
D03*
X15542D02*
D03*
X15561D02*
D03*
X15581D02*
D03*
X15601D02*
D03*
X15620D02*
D03*
X15640D02*
D03*
Y13652D02*
D03*
X15620D02*
D03*
X15581D02*
D03*
X15561D02*
D03*
X15542D02*
D03*
X15522D02*
D03*
X15502D02*
D03*
X15483D02*
D03*
X15463D02*
D03*
X15443D02*
D03*
X15423D02*
D03*
X15414Y13257D02*
D03*
X15434D02*
D03*
X15454D02*
D03*
X15474D02*
D03*
X15493D02*
D03*
X15513D02*
D03*
X15533D02*
D03*
X15552D02*
D03*
X15572D02*
D03*
X15592D02*
D03*
X15611D02*
D03*
X15631D02*
D03*
Y12976D02*
D03*
X15611D02*
D03*
X15592D02*
D03*
X15572D02*
D03*
X15552D02*
D03*
X15533D02*
D03*
X15513D02*
D03*
X15493D02*
D03*
X15474D02*
D03*
X15454D02*
D03*
X15434D02*
D03*
X15414D02*
D03*
X15601Y13652D02*
D03*
D23*
X15673Y13901D02*
D03*
Y13882D02*
D03*
Y13862D02*
D03*
Y13842D02*
D03*
Y13823D02*
D03*
Y13803D02*
D03*
Y13783D02*
D03*
Y13763D02*
D03*
Y13744D02*
D03*
Y13724D02*
D03*
Y13704D02*
D03*
Y13685D02*
D03*
X15391Y13704D02*
D03*
Y13724D02*
D03*
Y13744D02*
D03*
Y13763D02*
D03*
Y13783D02*
D03*
Y13803D02*
D03*
Y13823D02*
D03*
Y13842D02*
D03*
Y13862D02*
D03*
Y13882D02*
D03*
Y13901D02*
D03*
X15664Y13225D02*
D03*
Y13205D02*
D03*
Y13185D02*
D03*
Y13165D02*
D03*
Y13146D02*
D03*
Y13126D02*
D03*
Y13106D02*
D03*
Y13087D02*
D03*
Y13067D02*
D03*
Y13047D02*
D03*
Y13028D02*
D03*
Y13008D02*
D03*
X15382D02*
D03*
Y13028D02*
D03*
Y13047D02*
D03*
Y13067D02*
D03*
Y13087D02*
D03*
Y13106D02*
D03*
Y13126D02*
D03*
Y13146D02*
D03*
Y13165D02*
D03*
Y13185D02*
D03*
Y13205D02*
D03*
Y13225D02*
D03*
X15391Y13685D02*
D03*
D24*
X13337Y13950D02*
D03*
X11762D02*
D03*
X10975D02*
D03*
X12549D02*
D03*
X14124D02*
D03*
X14912D02*
D03*
X14538Y13358D02*
D03*
X13750D02*
D03*
X12963D02*
D03*
X12175D02*
D03*
X11388D02*
D03*
X10601D02*
D03*
X16100Y11680D02*
D03*
X15528Y11292D02*
D03*
X15090Y13240D02*
D03*
X11197Y13896D02*
D03*
X13558Y13885D02*
D03*
X15122Y13907D02*
D03*
X10465Y13918D02*
D03*
D25*
X14725Y13983D02*
D03*
X10788Y13326D02*
D03*
Y13983D02*
D03*
X11575Y13326D02*
D03*
Y13983D02*
D03*
X12362Y13326D02*
D03*
Y13983D02*
D03*
X13150Y13326D02*
D03*
Y13983D02*
D03*
X13937Y13326D02*
D03*
Y13983D02*
D03*
X14725Y13326D02*
D03*
D26*
X14815Y13739D02*
D03*
X14634D02*
D03*
X10878Y13570D02*
D03*
X10697D02*
D03*
Y13739D02*
D03*
X10878D02*
D03*
X11666Y13570D02*
D03*
X11484D02*
D03*
Y13739D02*
D03*
X11666D02*
D03*
X12453Y13570D02*
D03*
X12272D02*
D03*
Y13739D02*
D03*
X12453D02*
D03*
X13240Y13570D02*
D03*
X13059D02*
D03*
Y13739D02*
D03*
X13240D02*
D03*
X14028Y13570D02*
D03*
X13847D02*
D03*
Y13739D02*
D03*
X14028D02*
D03*
X14815Y13570D02*
D03*
X14634D02*
D03*
D27*
X14725Y13739D02*
D03*
X10788Y13570D02*
D03*
Y13739D02*
D03*
X11575Y13570D02*
D03*
Y13739D02*
D03*
X12362Y13570D02*
D03*
Y13739D02*
D03*
X13150Y13570D02*
D03*
Y13739D02*
D03*
X13937Y13570D02*
D03*
Y13739D02*
D03*
X14725Y13570D02*
D03*
D28*
X11670Y10261D02*
D03*
X12410D02*
D03*
X12510D02*
D03*
X13250D02*
D03*
X13350D02*
D03*
X14090D02*
D03*
D29*
X14013Y10289D02*
D03*
X13988D02*
D03*
X13963D02*
D03*
X13938D02*
D03*
X13913D02*
D03*
X13888D02*
D03*
X13863D02*
D03*
X13838D02*
D03*
X13813D02*
D03*
X13788D02*
D03*
X13763D02*
D03*
X13738D02*
D03*
X13713D02*
D03*
X13688D02*
D03*
X13663D02*
D03*
X13638D02*
D03*
X13613D02*
D03*
X13588D02*
D03*
X13563D02*
D03*
X13538D02*
D03*
X13513D02*
D03*
X13488D02*
D03*
X13463D02*
D03*
X13438D02*
D03*
X13413D02*
D03*
X13388D02*
D03*
X13172Y10288D02*
D03*
X13147D02*
D03*
X13122D02*
D03*
X13097D02*
D03*
X13072D02*
D03*
X13047D02*
D03*
X13022D02*
D03*
X12997D02*
D03*
X12972D02*
D03*
X12947D02*
D03*
X12922D02*
D03*
X12897D02*
D03*
X12872D02*
D03*
X12847D02*
D03*
X12822D02*
D03*
X12797D02*
D03*
X12772D02*
D03*
X12747D02*
D03*
X12722D02*
D03*
X12697D02*
D03*
X12672D02*
D03*
X12647D02*
D03*
X12622D02*
D03*
X12597D02*
D03*
X12572D02*
D03*
X12547D02*
D03*
X12332D02*
D03*
X12307D02*
D03*
X12282D02*
D03*
X12257D02*
D03*
X12232D02*
D03*
X12207D02*
D03*
X12182D02*
D03*
X12157D02*
D03*
X12132D02*
D03*
X12107D02*
D03*
X12082D02*
D03*
X12057D02*
D03*
X12032D02*
D03*
X12007D02*
D03*
X11982D02*
D03*
X11957D02*
D03*
X11932D02*
D03*
X11907D02*
D03*
X11882D02*
D03*
X11857D02*
D03*
X11832D02*
D03*
X11807D02*
D03*
X11782D02*
D03*
X11757D02*
D03*
X11732D02*
D03*
X11707D02*
D03*
D30*
X11416Y10279D02*
D03*
X11495D02*
D03*
X14226Y10279D02*
D03*
X14305D02*
D03*
D31*
X16020Y11775D02*
D03*
X15930D02*
D03*
X15930Y11580D02*
D03*
X16020D02*
D03*
X16020Y11645D02*
D03*
X15930D02*
D03*
X16020Y11710D02*
D03*
X15930D02*
D03*
X16055Y11942D02*
D03*
X15965D02*
D03*
X11314Y12913D02*
D03*
X11404D02*
D03*
X10704Y12773D02*
D03*
X10614D02*
D03*
X11404Y12993D02*
D03*
X11314D02*
D03*
X10614Y12703D02*
D03*
X10704D02*
D03*
X12387Y12913D02*
D03*
X12477D02*
D03*
X11777Y12773D02*
D03*
X11687D02*
D03*
X13459Y12913D02*
D03*
X13549D02*
D03*
X12849Y12773D02*
D03*
X12759D02*
D03*
X13549Y12993D02*
D03*
X13459D02*
D03*
X12759Y12703D02*
D03*
X12849D02*
D03*
X14532Y12913D02*
D03*
X14622D02*
D03*
X13922Y12773D02*
D03*
X13832D02*
D03*
X14622Y12993D02*
D03*
X14532D02*
D03*
X13832Y12703D02*
D03*
X13922D02*
D03*
X11777D02*
D03*
X11687D02*
D03*
X12387Y12993D02*
D03*
X12477D02*
D03*
X14861Y10445D02*
D03*
X14771D02*
D03*
X14861Y10380D02*
D03*
X14771D02*
D03*
D32*
X14951Y10405D02*
D03*
Y10295D02*
D03*
X14322Y10574D02*
D03*
Y10684D02*
D03*
X14194Y10574D02*
D03*
Y10684D02*
D03*
D33*
X11506Y10821D02*
D03*
Y10591D02*
D03*
D34*
X15119Y12556D02*
D03*
X15139D02*
D03*
X15159D02*
D03*
X15179D02*
D03*
X15198D02*
D03*
X15218D02*
D03*
X15238D02*
D03*
X15257D02*
D03*
X15277D02*
D03*
X15297D02*
D03*
X15316D02*
D03*
X15336D02*
D03*
X15356D02*
D03*
X15375D02*
D03*
X15395D02*
D03*
X15415D02*
D03*
X15434D02*
D03*
X15454D02*
D03*
X15474D02*
D03*
X15493D02*
D03*
X15513D02*
D03*
X15533D02*
D03*
X15553D02*
D03*
X15572D02*
D03*
X15592D02*
D03*
Y11964D02*
D03*
X15572D02*
D03*
X15553D02*
D03*
X15533D02*
D03*
X15513D02*
D03*
X15493D02*
D03*
X15474D02*
D03*
X15454D02*
D03*
X15434D02*
D03*
X15415D02*
D03*
X15395D02*
D03*
X15375D02*
D03*
X15356D02*
D03*
X15336D02*
D03*
X15316D02*
D03*
X15297D02*
D03*
X15277D02*
D03*
X15257D02*
D03*
X15238D02*
D03*
X15218D02*
D03*
X15198D02*
D03*
X15179D02*
D03*
X15159D02*
D03*
X15139D02*
D03*
X15119D02*
D03*
D35*
X15652Y12496D02*
D03*
Y12477D02*
D03*
Y12457D02*
D03*
Y12437D02*
D03*
Y12418D02*
D03*
Y12398D02*
D03*
Y12378D02*
D03*
Y12359D02*
D03*
Y12339D02*
D03*
Y12319D02*
D03*
Y12300D02*
D03*
Y12280D02*
D03*
Y12260D02*
D03*
Y12240D02*
D03*
Y12221D02*
D03*
Y12201D02*
D03*
Y12181D02*
D03*
Y12162D02*
D03*
Y12142D02*
D03*
Y12122D02*
D03*
Y12103D02*
D03*
Y12083D02*
D03*
Y12063D02*
D03*
Y12044D02*
D03*
Y12024D02*
D03*
X15059D02*
D03*
Y12044D02*
D03*
Y12063D02*
D03*
Y12083D02*
D03*
Y12103D02*
D03*
Y12122D02*
D03*
Y12142D02*
D03*
Y12162D02*
D03*
Y12181D02*
D03*
Y12201D02*
D03*
Y12221D02*
D03*
Y12240D02*
D03*
Y12260D02*
D03*
Y12280D02*
D03*
Y12300D02*
D03*
Y12319D02*
D03*
Y12339D02*
D03*
Y12359D02*
D03*
Y12378D02*
D03*
Y12398D02*
D03*
Y12418D02*
D03*
Y12437D02*
D03*
Y12457D02*
D03*
Y12477D02*
D03*
Y12496D02*
D03*
D36*
X10920Y10341D02*
D03*
X10970D02*
D03*
X11020D02*
D03*
X11070D02*
D03*
X10920Y10530D02*
D03*
X10970D02*
D03*
X11020D02*
D03*
X11070D02*
D03*
X15720Y11580D02*
D03*
X15770D02*
D03*
X15820D02*
D03*
X15870D02*
D03*
X15720Y11769D02*
D03*
X15770D02*
D03*
X15820D02*
D03*
X15870D02*
D03*
X15623Y11203D02*
D03*
X15673D02*
D03*
X15723D02*
D03*
X15773D02*
D03*
X15623Y11392D02*
D03*
X15673D02*
D03*
X15723D02*
D03*
X15773D02*
D03*
X10550Y10346D02*
D03*
X10600D02*
D03*
X10650D02*
D03*
X10700D02*
D03*
X10550Y10535D02*
D03*
X10600D02*
D03*
X10650D02*
D03*
X10700D02*
D03*
D37*
X16051Y12102D02*
D03*
Y12071D02*
D03*
Y12039D02*
D03*
Y12008D02*
D03*
X15974D02*
D03*
Y12039D02*
D03*
Y12071D02*
D03*
Y12102D02*
D03*
D38*
X14878Y10298D02*
D03*
X14804D02*
D03*
X14841D02*
D03*
D39*
X14878Y10212D02*
D03*
X14804D02*
D03*
D40*
X15267Y10680D02*
D03*
Y10730D02*
D03*
Y10780D02*
D03*
Y10830D02*
D03*
Y10880D02*
D03*
Y10930D02*
D03*
Y10980D02*
D03*
Y11030D02*
D03*
X15062Y10680D02*
D03*
Y10730D02*
D03*
Y10780D02*
D03*
Y10830D02*
D03*
Y10880D02*
D03*
Y10930D02*
D03*
Y10980D02*
D03*
Y11030D02*
D03*
D45*
X9498Y14412D02*
X9998D01*
X9748Y14162D02*
Y14662D01*
X9698Y14412D02*
Y14462D01*
X9748D01*
X9798Y14362D02*
Y14412D01*
X9748Y14362D02*
X9798D01*
X9753Y14407D02*
X9793D01*
Y14367D02*
Y14407D01*
X9753Y14367D02*
X9793D01*
X9753D02*
Y14407D01*
X9758Y14402D02*
X9788D01*
Y14372D02*
Y14402D01*
X9758Y14372D02*
X9788D01*
X9758D02*
Y14397D01*
X9763D02*
X9783D01*
Y14377D02*
Y14397D01*
X9763Y14377D02*
X9783D01*
X9763D02*
Y14392D01*
X9768D02*
X9778D01*
Y14382D02*
Y14392D01*
X9768Y14382D02*
X9778D01*
X9768D02*
Y14392D01*
Y14387D02*
X9778D01*
X9703Y14457D02*
X9743D01*
Y14417D02*
Y14457D01*
X9703Y14417D02*
X9743D01*
X9703D02*
Y14457D01*
X9708Y14452D02*
X9738D01*
Y14422D02*
Y14452D01*
X9708Y14422D02*
X9738D01*
X9708D02*
Y14447D01*
X9713D02*
X9733D01*
Y14427D02*
Y14447D01*
X9713Y14427D02*
X9733D01*
X9713D02*
Y14442D01*
X9718D02*
X9728D01*
Y14432D02*
Y14442D01*
X9718Y14432D02*
X9728D01*
X9718D02*
Y14442D01*
Y14437D02*
X9728D01*
X9680Y9190D02*
X9690D01*
X9680Y9185D02*
Y9195D01*
Y9185D02*
X9690D01*
Y9195D01*
X9680D02*
X9690D01*
X9675Y9180D02*
Y9195D01*
Y9180D02*
X9695D01*
Y9200D01*
X9675D02*
X9695D01*
X9670Y9175D02*
Y9200D01*
Y9175D02*
X9700D01*
Y9205D01*
X9670D02*
X9700D01*
X9665Y9170D02*
Y9210D01*
Y9170D02*
X9705D01*
Y9210D01*
X9665D02*
X9705D01*
X9730Y9140D02*
X9740D01*
X9730Y9135D02*
Y9145D01*
Y9135D02*
X9740D01*
Y9145D01*
X9730D02*
X9740D01*
X9725Y9130D02*
Y9145D01*
Y9130D02*
X9745D01*
Y9150D01*
X9725D02*
X9745D01*
X9720Y9125D02*
Y9150D01*
Y9125D02*
X9750D01*
Y9155D01*
X9720D02*
X9750D01*
X9715Y9120D02*
Y9160D01*
Y9120D02*
X9755D01*
Y9160D01*
X9715D02*
X9755D01*
X9710Y9115D02*
X9760D01*
Y9165D01*
X9660Y9215D02*
X9710D01*
X9660Y9165D02*
Y9215D01*
X9710Y8915D02*
Y9415D01*
X9460Y9165D02*
X9960D01*
X16790Y14700D02*
X16800D01*
X16790Y14695D02*
Y14705D01*
Y14695D02*
X16800D01*
Y14705D01*
X16790D02*
X16800D01*
X16785Y14690D02*
Y14705D01*
Y14690D02*
X16805D01*
Y14710D01*
X16785D02*
X16805D01*
X16780Y14685D02*
Y14710D01*
Y14685D02*
X16810D01*
Y14715D01*
X16780D02*
X16810D01*
X16775Y14680D02*
Y14720D01*
Y14680D02*
X16815D01*
Y14720D01*
X16775D02*
X16815D01*
X16840Y14650D02*
X16850D01*
X16840Y14645D02*
Y14655D01*
Y14645D02*
X16850D01*
Y14655D01*
X16840D02*
X16850D01*
X16835Y14640D02*
Y14655D01*
Y14640D02*
X16855D01*
Y14660D01*
X16835D02*
X16855D01*
X16830Y14635D02*
Y14660D01*
Y14635D02*
X16860D01*
Y14665D01*
X16830D02*
X16860D01*
X16825Y14630D02*
Y14670D01*
Y14630D02*
X16865D01*
Y14670D01*
X16825D02*
X16865D01*
X16820Y14625D02*
X16870D01*
Y14675D01*
X16770Y14725D02*
X16820D01*
X16770Y14675D02*
Y14725D01*
X16820Y14425D02*
Y14925D01*
X16570Y14675D02*
X17070D01*
D46*
X11677Y7940D02*
Y7895D01*
X11658Y7929D02*
X11696Y7906D01*
Y7929D02*
X11658Y7906D01*
X11717Y7868D02*
X11713Y7864D01*
X11717Y7860D01*
X11720Y7864D01*
X11717Y7868D01*
X11795Y7921D02*
X11791Y7929D01*
X11784Y7937D01*
X11776Y7940D01*
X11761D01*
X11753Y7937D01*
X11745Y7929D01*
X11742Y7921D01*
X11738Y7910D01*
Y7891D01*
X11742Y7880D01*
X11745Y7872D01*
X11753Y7864D01*
X11761Y7860D01*
X11776D01*
X11784Y7864D01*
X11791Y7872D01*
X11795Y7880D01*
Y7891D01*
X11776D02*
X11795D01*
X11840Y7940D02*
Y7860D01*
X11813Y7940D02*
X11867D01*
X11876Y7899D02*
X11910D01*
X11922Y7902D01*
X11926Y7906D01*
X11929Y7914D01*
Y7925D01*
X11926Y7933D01*
X11922Y7937D01*
X11910Y7940D01*
X11876D01*
Y7860D01*
X12010Y7895D02*
X12079D01*
X12192Y7940D02*
Y7860D01*
X12165Y7940D02*
X12219D01*
X12251D02*
X12243Y7937D01*
X12236Y7929D01*
X12232Y7921D01*
X12228Y7910D01*
Y7891D01*
X12232Y7880D01*
X12236Y7872D01*
X12243Y7864D01*
X12251Y7860D01*
X12266D01*
X12274Y7864D01*
X12281Y7872D01*
X12285Y7880D01*
X12289Y7891D01*
Y7910D01*
X12285Y7921D01*
X12281Y7929D01*
X12274Y7937D01*
X12266Y7940D01*
X12251D01*
X12308Y7899D02*
X12342D01*
X12353Y7902D01*
X12357Y7906D01*
X12361Y7914D01*
Y7925D01*
X12357Y7933D01*
X12353Y7937D01*
X12342Y7940D01*
X12308D01*
Y7860D01*
X12379Y7895D02*
X12447D01*
X12524Y7929D02*
X12517Y7937D01*
X12505Y7940D01*
X12490D01*
X12479Y7937D01*
X12471Y7929D01*
Y7921D01*
X12475Y7914D01*
X12479Y7910D01*
X12486Y7906D01*
X12509Y7899D01*
X12517Y7895D01*
X12521Y7891D01*
X12524Y7883D01*
Y7872D01*
X12517Y7864D01*
X12505Y7860D01*
X12490D01*
X12479Y7864D01*
X12471Y7872D01*
X12542Y7940D02*
Y7860D01*
X12559Y7940D02*
Y7860D01*
Y7940D02*
X12586D01*
X12597Y7937D01*
X12605Y7929D01*
X12609Y7921D01*
X12612Y7910D01*
Y7891D01*
X12609Y7880D01*
X12605Y7872D01*
X12597Y7864D01*
X12586Y7860D01*
X12559D01*
X12680Y7940D02*
X12630D01*
Y7860D01*
X12680D01*
X12630Y7902D02*
X12661D01*
X12809Y7929D02*
X12802Y7937D01*
X12790Y7940D01*
X12775D01*
X12764Y7937D01*
X12756Y7929D01*
Y7921D01*
X12760Y7914D01*
X12764Y7910D01*
X12771Y7906D01*
X12794Y7899D01*
X12802Y7895D01*
X12805Y7891D01*
X12809Y7883D01*
Y7872D01*
X12802Y7864D01*
X12790Y7860D01*
X12775D01*
X12764Y7864D01*
X12756Y7872D01*
X12850Y7940D02*
X12842Y7937D01*
X12835Y7929D01*
X12831Y7921D01*
X12827Y7910D01*
Y7891D01*
X12831Y7880D01*
X12835Y7872D01*
X12842Y7864D01*
X12850Y7860D01*
X12865D01*
X12873Y7864D01*
X12880Y7872D01*
X12884Y7880D01*
X12888Y7891D01*
Y7910D01*
X12884Y7921D01*
X12880Y7929D01*
X12873Y7937D01*
X12865Y7940D01*
X12850D01*
X12907D02*
Y7860D01*
X12952D01*
X12961Y7940D02*
Y7860D01*
Y7940D02*
X12988D01*
X12999Y7937D01*
X13007Y7929D01*
X13011Y7921D01*
X13015Y7910D01*
Y7891D01*
X13011Y7880D01*
X13007Y7872D01*
X12999Y7864D01*
X12988Y7860D01*
X12961D01*
X13082Y7940D02*
X13032D01*
Y7860D01*
X13082D01*
X13032Y7902D02*
X13063D01*
X13095Y7940D02*
Y7860D01*
Y7940D02*
X13130D01*
X13141Y7937D01*
X13145Y7933D01*
X13149Y7925D01*
Y7918D01*
X13145Y7910D01*
X13141Y7906D01*
X13130Y7902D01*
X13095D01*
X13122D02*
X13149Y7860D01*
X13229Y7899D02*
X13264D01*
X13275Y7902D01*
X13279Y7906D01*
X13283Y7914D01*
Y7925D01*
X13279Y7933D01*
X13275Y7937D01*
X13264Y7940D01*
X13229D01*
Y7860D01*
X13362D02*
X13331Y7940D01*
X13301Y7860D01*
X13312Y7887D02*
X13350D01*
X13433Y7929D02*
X13426Y7937D01*
X13414Y7940D01*
X13399D01*
X13388Y7937D01*
X13380Y7929D01*
Y7921D01*
X13384Y7914D01*
X13388Y7910D01*
X13395Y7906D01*
X13418Y7899D01*
X13426Y7895D01*
X13430Y7891D01*
X13433Y7883D01*
Y7872D01*
X13426Y7864D01*
X13414Y7860D01*
X13399D01*
X13388Y7864D01*
X13380Y7872D01*
X13478Y7940D02*
Y7860D01*
X13451Y7940D02*
X13505D01*
X13564D02*
X13514D01*
Y7860D01*
X13564D01*
X13514Y7902D02*
X13545D01*
X13640Y7940D02*
Y7860D01*
Y7940D02*
X13670Y7860D01*
X13701Y7940D02*
X13670Y7860D01*
X13701Y7940D02*
Y7860D01*
X13785D02*
X13754Y7940D01*
X13724Y7860D01*
X13735Y7887D02*
X13773D01*
X13857Y7929D02*
X13849Y7937D01*
X13838Y7940D01*
X13822D01*
X13811Y7937D01*
X13803Y7929D01*
Y7921D01*
X13807Y7914D01*
X13811Y7910D01*
X13819Y7906D01*
X13841Y7899D01*
X13849Y7895D01*
X13853Y7891D01*
X13857Y7883D01*
Y7872D01*
X13849Y7864D01*
X13838Y7860D01*
X13822D01*
X13811Y7864D01*
X13803Y7872D01*
X13875Y7940D02*
Y7860D01*
X13928Y7940D02*
X13875Y7887D01*
X13894Y7906D02*
X13928Y7860D01*
X11987Y8419D02*
X11984Y8427D01*
X11976Y8434D01*
X11968Y8438D01*
X11953D01*
X11946Y8434D01*
X11938Y8427D01*
X11934Y8419D01*
X11930Y8408D01*
Y8389D01*
X11934Y8377D01*
X11938Y8370D01*
X11946Y8362D01*
X11953Y8358D01*
X11968D01*
X11976Y8362D01*
X11984Y8370D01*
X11987Y8377D01*
X12010Y8438D02*
Y8358D01*
X12056D01*
X12087Y8438D02*
X12080Y8434D01*
X12072Y8427D01*
X12068Y8419D01*
X12064Y8408D01*
Y8389D01*
X12068Y8377D01*
X12072Y8370D01*
X12080Y8362D01*
X12087Y8358D01*
X12102D01*
X12110Y8362D01*
X12118Y8370D01*
X12121Y8377D01*
X12125Y8389D01*
Y8408D01*
X12121Y8419D01*
X12118Y8427D01*
X12110Y8434D01*
X12102Y8438D01*
X12087D01*
X12201Y8419D02*
X12197Y8427D01*
X12190Y8434D01*
X12182Y8438D01*
X12167D01*
X12159Y8434D01*
X12152Y8427D01*
X12148Y8419D01*
X12144Y8408D01*
Y8389D01*
X12148Y8377D01*
X12152Y8370D01*
X12159Y8362D01*
X12167Y8358D01*
X12182D01*
X12190Y8362D01*
X12197Y8370D01*
X12201Y8377D01*
X12224Y8438D02*
Y8358D01*
X12277Y8438D02*
X12224Y8385D01*
X12243Y8404D02*
X12277Y8358D01*
X12358Y8438D02*
Y8358D01*
Y8438D02*
X12392D01*
X12403Y8434D01*
X12407Y8430D01*
X12411Y8423D01*
Y8415D01*
X12407Y8408D01*
X12403Y8404D01*
X12392Y8400D01*
X12358D02*
X12392D01*
X12403Y8396D01*
X12407Y8392D01*
X12411Y8385D01*
Y8373D01*
X12407Y8366D01*
X12403Y8362D01*
X12392Y8358D01*
X12358D01*
X12452Y8438D02*
X12444Y8434D01*
X12436Y8427D01*
X12433Y8419D01*
X12429Y8408D01*
Y8389D01*
X12433Y8377D01*
X12436Y8370D01*
X12444Y8362D01*
X12452Y8358D01*
X12467D01*
X12475Y8362D01*
X12482Y8370D01*
X12486Y8377D01*
X12490Y8389D01*
Y8408D01*
X12486Y8419D01*
X12482Y8427D01*
X12475Y8434D01*
X12467Y8438D01*
X12452D01*
X12569Y8358D02*
X12539Y8438D01*
X12508Y8358D01*
X12520Y8385D02*
X12558D01*
X12588Y8438D02*
Y8358D01*
Y8438D02*
X12622D01*
X12634Y8434D01*
X12638Y8430D01*
X12641Y8423D01*
Y8415D01*
X12638Y8408D01*
X12634Y8404D01*
X12622Y8400D01*
X12588D01*
X12615D02*
X12641Y8358D01*
X12659Y8438D02*
Y8358D01*
Y8438D02*
X12686D01*
X12697Y8434D01*
X12705Y8427D01*
X12709Y8419D01*
X12713Y8408D01*
Y8389D01*
X12709Y8377D01*
X12705Y8370D01*
X12697Y8362D01*
X12686Y8358D01*
X12659D01*
X12793Y8438D02*
Y8358D01*
Y8438D02*
X12828D01*
X12839Y8434D01*
X12843Y8430D01*
X12847Y8423D01*
Y8415D01*
X12843Y8408D01*
X12839Y8404D01*
X12828Y8400D01*
X12793D01*
X12820D02*
X12847Y8358D01*
X12865Y8389D02*
X12910D01*
Y8396D01*
X12906Y8404D01*
X12903Y8408D01*
X12895Y8411D01*
X12884D01*
X12876Y8408D01*
X12868Y8400D01*
X12865Y8389D01*
Y8381D01*
X12868Y8370D01*
X12876Y8362D01*
X12884Y8358D01*
X12895D01*
X12903Y8362D01*
X12910Y8370D01*
X12927Y8411D02*
X12950Y8358D01*
X12973Y8411D02*
X12950Y8358D01*
X12990Y8366D02*
X12986Y8362D01*
X12990Y8358D01*
X12994Y8362D01*
X12990Y8366D01*
X13135Y8358D02*
X13105Y8438D01*
X13074Y8358D01*
X13085Y8385D02*
X13124D01*
D47*
X11930Y8288D02*
Y8208D01*
X11976D01*
X12046D02*
X12015Y8288D01*
X11985Y8208D01*
X11996Y8235D02*
X12034D01*
X12118Y8277D02*
X12110Y8284D01*
X12099Y8288D01*
X12083D01*
X12072Y8284D01*
X12064Y8277D01*
Y8269D01*
X12068Y8261D01*
X12072Y8258D01*
X12080Y8254D01*
X12102Y8246D01*
X12110Y8242D01*
X12114Y8239D01*
X12118Y8231D01*
Y8220D01*
X12110Y8212D01*
X12099Y8208D01*
X12083D01*
X12072Y8212D01*
X12064Y8220D01*
X12256Y8269D02*
X12252Y8277D01*
X12244Y8284D01*
X12237Y8288D01*
X12221D01*
X12214Y8284D01*
X12206Y8277D01*
X12202Y8269D01*
X12198Y8258D01*
Y8239D01*
X12202Y8227D01*
X12206Y8220D01*
X12214Y8212D01*
X12221Y8208D01*
X12237D01*
X12244Y8212D01*
X12252Y8220D01*
X12256Y8227D01*
X12278Y8288D02*
Y8231D01*
X12282Y8220D01*
X12289Y8212D01*
X12301Y8208D01*
X12309D01*
X12320Y8212D01*
X12328Y8220D01*
X12331Y8231D01*
Y8288D01*
X12353D02*
Y8208D01*
Y8288D02*
X12384Y8208D01*
X12414Y8288D02*
X12384Y8208D01*
X12414Y8288D02*
Y8208D01*
X12437Y8288D02*
Y8208D01*
Y8288D02*
X12472D01*
X12483Y8284D01*
X12487Y8280D01*
X12491Y8273D01*
Y8265D01*
X12487Y8258D01*
X12483Y8254D01*
X12472Y8250D01*
X12437D02*
X12472D01*
X12483Y8246D01*
X12487Y8242D01*
X12491Y8235D01*
Y8223D01*
X12487Y8216D01*
X12483Y8212D01*
X12472Y8208D01*
X12437D01*
X12508Y8288D02*
Y8208D01*
Y8288D02*
X12543D01*
X12554Y8284D01*
X12558Y8280D01*
X12562Y8273D01*
Y8265D01*
X12558Y8258D01*
X12554Y8254D01*
X12543Y8250D01*
X12508D01*
X12535D02*
X12562Y8208D01*
X12629Y8288D02*
X12580D01*
Y8208D01*
X12629D01*
X12580Y8250D02*
X12610D01*
X12696Y8277D02*
X12688Y8284D01*
X12677Y8288D01*
X12662D01*
X12650Y8284D01*
X12643Y8277D01*
Y8269D01*
X12646Y8261D01*
X12650Y8258D01*
X12658Y8254D01*
X12681Y8246D01*
X12688Y8242D01*
X12692Y8239D01*
X12696Y8231D01*
Y8220D01*
X12688Y8212D01*
X12677Y8208D01*
X12662D01*
X12650Y8212D01*
X12643Y8220D01*
X12799Y8288D02*
X12792Y8284D01*
X12784Y8277D01*
X12780Y8269D01*
X12777Y8258D01*
Y8239D01*
X12780Y8227D01*
X12784Y8220D01*
X12792Y8212D01*
X12799Y8208D01*
X12815D01*
X12822Y8212D01*
X12830Y8220D01*
X12834Y8227D01*
X12838Y8239D01*
Y8258D01*
X12834Y8269D01*
X12830Y8277D01*
X12822Y8284D01*
X12815Y8288D01*
X12799D01*
X12856D02*
Y8208D01*
Y8288D02*
X12890D01*
X12902Y8284D01*
X12906Y8280D01*
X12910Y8273D01*
Y8265D01*
X12906Y8258D01*
X12902Y8254D01*
X12890Y8250D01*
X12856D02*
X12890D01*
X12902Y8246D01*
X12906Y8242D01*
X12910Y8235D01*
Y8223D01*
X12906Y8216D01*
X12902Y8212D01*
X12890Y8208D01*
X12856D01*
X12981Y8277D02*
X12973Y8284D01*
X12962Y8288D01*
X12946D01*
X12935Y8284D01*
X12927Y8277D01*
Y8269D01*
X12931Y8261D01*
X12935Y8258D01*
X12943Y8254D01*
X12966Y8246D01*
X12973Y8242D01*
X12977Y8239D01*
X12981Y8231D01*
Y8220D01*
X12973Y8212D01*
X12962Y8208D01*
X12946D01*
X12935Y8212D01*
X12927Y8220D01*
X13048Y8288D02*
X12999D01*
Y8208D01*
X13048D01*
X12999Y8250D02*
X13029D01*
X13061Y8288D02*
Y8208D01*
Y8288D02*
X13096D01*
X13107Y8284D01*
X13111Y8280D01*
X13115Y8273D01*
Y8265D01*
X13111Y8258D01*
X13107Y8254D01*
X13096Y8250D01*
X13061D01*
X13088D02*
X13115Y8208D01*
X13133Y8288D02*
X13163Y8208D01*
X13194Y8288D02*
X13163Y8208D01*
X13265D02*
X13234Y8288D01*
X13204Y8208D01*
X13215Y8235D02*
X13253D01*
X13310Y8288D02*
Y8208D01*
X13284Y8288D02*
X13337D01*
X13369D02*
X13362Y8284D01*
X13354Y8277D01*
X13350Y8269D01*
X13346Y8258D01*
Y8239D01*
X13350Y8227D01*
X13354Y8220D01*
X13362Y8212D01*
X13369Y8208D01*
X13384D01*
X13392Y8212D01*
X13400Y8220D01*
X13404Y8227D01*
X13407Y8239D01*
Y8258D01*
X13404Y8269D01*
X13400Y8277D01*
X13392Y8284D01*
X13384Y8288D01*
X13369D01*
X13426D02*
Y8208D01*
Y8288D02*
X13460D01*
X13472Y8284D01*
X13475Y8280D01*
X13479Y8273D01*
Y8265D01*
X13475Y8258D01*
X13472Y8254D01*
X13460Y8250D01*
X13426D01*
X13453D02*
X13479Y8208D01*
X13497Y8288D02*
X13528Y8250D01*
Y8208D01*
X13558Y8288D02*
X13528Y8250D01*
X13928Y8277D02*
X13925Y8284D01*
X13913Y8288D01*
X13905D01*
X13894Y8284D01*
X13886Y8273D01*
X13883Y8254D01*
Y8235D01*
X13886Y8220D01*
X13894Y8212D01*
X13905Y8208D01*
X13909D01*
X13921Y8212D01*
X13928Y8220D01*
X13932Y8231D01*
Y8235D01*
X13928Y8246D01*
X13921Y8254D01*
X13909Y8258D01*
X13905D01*
X13894Y8254D01*
X13886Y8246D01*
X13883Y8235D01*
X13950Y8197D02*
X14003Y8288D01*
X14008Y8273D02*
X14016Y8277D01*
X14027Y8288D01*
Y8208D01*
X14113Y8288D02*
X14075D01*
X14071Y8254D01*
X14075Y8258D01*
X14086Y8261D01*
X14097D01*
X14109Y8258D01*
X14116Y8250D01*
X14120Y8239D01*
Y8231D01*
X14116Y8220D01*
X14109Y8212D01*
X14097Y8208D01*
X14086D01*
X14075Y8212D01*
X14071Y8216D01*
X14067Y8223D01*
X14138Y8197D02*
X14192Y8288D01*
X14201Y8269D02*
Y8273D01*
X14204Y8280D01*
X14208Y8284D01*
X14216Y8288D01*
X14231D01*
X14239Y8284D01*
X14243Y8280D01*
X14246Y8273D01*
Y8265D01*
X14243Y8258D01*
X14235Y8246D01*
X14197Y8208D01*
X14250D01*
X14291Y8288D02*
X14280Y8284D01*
X14272Y8273D01*
X14268Y8254D01*
Y8242D01*
X14272Y8223D01*
X14280Y8212D01*
X14291Y8208D01*
X14299D01*
X14310Y8212D01*
X14318Y8223D01*
X14321Y8242D01*
Y8254D01*
X14318Y8273D01*
X14310Y8284D01*
X14299Y8288D01*
X14291D01*
X14362D02*
X14351Y8284D01*
X14343Y8273D01*
X14339Y8254D01*
Y8242D01*
X14343Y8223D01*
X14351Y8212D01*
X14362Y8208D01*
X14370D01*
X14381Y8212D01*
X14389Y8223D01*
X14393Y8242D01*
Y8254D01*
X14389Y8273D01*
X14381Y8284D01*
X14370Y8288D01*
X14362D01*
X14460Y8261D02*
X14456Y8250D01*
X14449Y8242D01*
X14437Y8239D01*
X14433D01*
X14422Y8242D01*
X14414Y8250D01*
X14411Y8261D01*
Y8265D01*
X14414Y8277D01*
X14422Y8284D01*
X14433Y8288D01*
X14437D01*
X14449Y8284D01*
X14456Y8277D01*
X14460Y8261D01*
Y8242D01*
X14456Y8223D01*
X14449Y8212D01*
X14437Y8208D01*
X14430D01*
X14418Y8212D01*
X14414Y8220D01*
M02*
