%FSLAX23Y23*%
%MOIN*%
G70*
G01*
G75*
G04 Layer_Physical_Order=1*
G04 Layer_Color=255*
%ADD10C,0.005*%
%ADD11C,0.040*%
%ADD12R,0.085X0.138*%
%ADD13R,0.085X0.043*%
%ADD14R,0.085X0.043*%
%ADD15R,0.060X0.086*%
%ADD16R,0.035X0.037*%
%ADD17R,0.035X0.037*%
%ADD18R,0.050X0.050*%
%ADD19O,0.098X0.028*%
%ADD20R,0.135X0.070*%
%ADD21R,0.228X0.228*%
%ADD22O,0.008X0.033*%
%ADD23O,0.033X0.008*%
%ADD24R,0.070X0.135*%
%ADD25R,0.138X0.085*%
%ADD26R,0.043X0.085*%
%ADD27R,0.043X0.085*%
%ADD28R,0.031X0.060*%
%ADD29R,0.014X0.060*%
%ADD30R,0.030X0.100*%
%ADD31R,0.050X0.050*%
%ADD32R,0.048X0.078*%
%ADD33R,0.100X0.100*%
%ADD34O,0.010X0.061*%
%ADD35O,0.061X0.010*%
%ADD36O,0.024X0.087*%
%ADD37R,0.045X0.017*%
%ADD38R,0.028X0.036*%
%ADD39R,0.036X0.036*%
%ADD40R,0.087X0.024*%
%ADD41C,0.020*%
%ADD42C,0.010*%
%ADD43C,0.012*%
%ADD44R,1.181X0.787*%
%ADD45C,0.008*%
%ADD46C,0.012*%
%ADD47C,0.012*%
%ADD48C,0.236*%
%ADD49C,0.050*%
%ADD50C,0.020*%
%ADD51C,0.026*%
%ADD52R,0.059X0.059*%
%ADD53C,0.059*%
%ADD54C,0.024*%
G36*
X14919Y12379D02*
X14919Y12379D01*
X14919Y12379D01*
X14919Y12379D01*
X14919Y12378D01*
X14919Y12378D01*
X14920Y12377D01*
X14920Y12376D01*
X14920Y12375D01*
X14920Y12374D01*
Y12374D01*
Y12374D01*
X14920Y12373D01*
X14920Y12373D01*
X14920Y12373D01*
X14920Y12372D01*
X14919Y12372D01*
X14919Y12371D01*
X14919Y12371D01*
X14919Y12371D01*
X14919Y12371D01*
X14919Y12370D01*
X14918Y12370D01*
X14918Y12369D01*
X14918Y12369D01*
X14918Y12369D01*
X14918Y12369D01*
X14917Y12369D01*
X14917Y12369D01*
X14917Y12369D01*
X14916Y12369D01*
X14916Y12368D01*
X14915Y12368D01*
X14915D01*
X14915Y12368D01*
X14915D01*
X14914Y12368D01*
X14914Y12368D01*
X14913D01*
X14913Y12368D01*
X14901D01*
Y12365D01*
X14896D01*
Y12368D01*
X14891D01*
X14888Y12374D01*
X14896D01*
Y12378D01*
X14901D01*
Y12374D01*
X14912D01*
X14912Y12374D01*
X14913D01*
X14914Y12374D01*
X14914D01*
X14914Y12374D01*
X14914Y12374D01*
X14914Y12375D01*
X14914Y12375D01*
Y12375D01*
X14914Y12375D01*
X14915Y12375D01*
X14915Y12376D01*
X14915Y12376D01*
Y12376D01*
Y12376D01*
X14915Y12376D01*
X14915Y12377D01*
X14915Y12377D01*
X14914Y12377D01*
X14914Y12378D01*
X14914Y12378D01*
X14919Y12379D01*
Y12379D01*
D02*
G37*
G36*
X14920Y11967D02*
X14857D01*
Y11979D01*
X14909D01*
Y12012D01*
X14920D01*
Y11967D01*
D02*
G37*
G36*
X14909Y12335D02*
X14910D01*
X14910Y12335D01*
X14910Y12335D01*
X14911Y12335D01*
X14912Y12335D01*
X14912Y12336D01*
X14913Y12336D01*
X14914Y12337D01*
X14914Y12337D01*
X14914Y12337D01*
X14914Y12337D01*
X14914Y12337D01*
X14915Y12338D01*
X14915Y12339D01*
X14915Y12339D01*
X14915Y12340D01*
Y12340D01*
Y12340D01*
X14915Y12341D01*
X14915Y12341D01*
X14915Y12341D01*
X14915Y12342D01*
X14915Y12342D01*
X14914Y12342D01*
X14914Y12342D01*
X14914Y12343D01*
X14914Y12343D01*
X14914Y12343D01*
X14913Y12343D01*
X14913Y12344D01*
X14913Y12344D01*
X14912Y12344D01*
X14913Y12350D01*
X14913D01*
X14913Y12350D01*
X14913Y12350D01*
X14913Y12350D01*
X14914Y12350D01*
X14914Y12350D01*
X14915Y12349D01*
X14916Y12349D01*
X14917Y12348D01*
X14917Y12347D01*
X14918Y12346D01*
Y12346D01*
X14918Y12346D01*
X14918Y12346D01*
X14918Y12346D01*
X14918Y12346D01*
X14919Y12345D01*
X14919Y12345D01*
X14919Y12345D01*
X14919Y12344D01*
X14919Y12344D01*
X14920Y12343D01*
X14920Y12341D01*
X14920Y12340D01*
Y12340D01*
Y12340D01*
X14920Y12339D01*
X14920Y12339D01*
X14920Y12338D01*
X14920Y12338D01*
X14919Y12337D01*
X14919Y12337D01*
X14919Y12336D01*
X14919Y12335D01*
X14919Y12334D01*
X14918Y12334D01*
X14918Y12333D01*
X14917Y12332D01*
X14917Y12332D01*
X14916Y12331D01*
X14916Y12331D01*
X14916Y12331D01*
X14916Y12331D01*
X14915Y12331D01*
X14915Y12331D01*
X14915Y12330D01*
X14914Y12330D01*
X14914Y12330D01*
X14913Y12330D01*
X14913Y12330D01*
X14912Y12329D01*
X14911Y12329D01*
X14910Y12329D01*
X14910Y12329D01*
X14909Y12329D01*
X14908Y12329D01*
X14908D01*
X14907Y12329D01*
X14907D01*
X14906Y12329D01*
X14906Y12329D01*
X14905Y12329D01*
X14905Y12329D01*
X14904Y12329D01*
X14903Y12330D01*
X14902Y12330D01*
X14902Y12330D01*
X14901Y12330D01*
X14900Y12331D01*
X14899Y12331D01*
X14899Y12332D01*
X14899Y12332D01*
X14899Y12332D01*
X14899Y12332D01*
X14898Y12332D01*
X14898Y12333D01*
X14898Y12333D01*
X14898Y12333D01*
X14897Y12334D01*
X14897Y12334D01*
X14897Y12335D01*
X14896Y12336D01*
X14896Y12336D01*
X14896Y12337D01*
X14896Y12338D01*
X14896Y12339D01*
X14896Y12339D01*
Y12339D01*
Y12340D01*
X14896Y12340D01*
Y12340D01*
X14896Y12341D01*
X14896Y12341D01*
X14896Y12342D01*
X14896Y12342D01*
X14896Y12343D01*
X14896Y12344D01*
X14897Y12344D01*
X14897Y12345D01*
X14897Y12346D01*
X14898Y12346D01*
X14898Y12347D01*
X14899Y12348D01*
X14899Y12348D01*
X14899Y12348D01*
X14899Y12348D01*
X14900Y12348D01*
X14900Y12348D01*
X14900Y12349D01*
X14901Y12349D01*
X14902Y12349D01*
X14902Y12349D01*
X14903Y12350D01*
X14904Y12350D01*
X14905Y12350D01*
X14906Y12350D01*
X14907Y12350D01*
X14908Y12350D01*
X14909D01*
Y12335D01*
D02*
G37*
G36*
X14919Y12279D02*
X14913D01*
Y12285D01*
X14919D01*
Y12279D01*
D02*
G37*
G36*
Y12306D02*
X14906D01*
X14905Y12306D01*
X14905Y12306D01*
X14904Y12306D01*
X14903Y12306D01*
X14903Y12306D01*
X14903Y12306D01*
X14903Y12305D01*
X14903D01*
X14902Y12305D01*
X14902Y12305D01*
X14902Y12305D01*
X14902Y12305D01*
X14901Y12305D01*
X14901Y12304D01*
X14901Y12304D01*
X14901Y12304D01*
X14901Y12304D01*
X14901Y12304D01*
X14901Y12304D01*
X14900Y12303D01*
X14900Y12303D01*
X14900Y12302D01*
X14900Y12302D01*
Y12302D01*
Y12302D01*
X14900Y12301D01*
X14900Y12301D01*
X14900Y12301D01*
X14901Y12300D01*
X14901Y12300D01*
X14901Y12299D01*
X14901Y12299D01*
X14901Y12299D01*
X14901Y12299D01*
X14902Y12298D01*
X14902Y12298D01*
X14902Y12298D01*
X14903Y12298D01*
X14903Y12297D01*
X14904D01*
X14904Y12297D01*
X14904Y12297D01*
X14904D01*
X14904Y12297D01*
X14905Y12297D01*
X14905Y12297D01*
X14905Y12297D01*
X14906Y12297D01*
X14906Y12297D01*
X14907Y12297D01*
X14907D01*
X14908Y12297D01*
X14919D01*
Y12291D01*
X14896D01*
Y12297D01*
X14900D01*
X14899Y12297D01*
X14899Y12297D01*
X14899Y12297D01*
X14899Y12297D01*
X14899Y12297D01*
X14898Y12298D01*
X14898Y12298D01*
X14898Y12299D01*
X14897Y12299D01*
X14897Y12300D01*
X14896Y12300D01*
X14896Y12301D01*
X14896Y12302D01*
X14896Y12303D01*
X14896Y12303D01*
X14896Y12304D01*
Y12304D01*
Y12304D01*
Y12305D01*
X14896Y12305D01*
X14896Y12305D01*
X14896Y12306D01*
X14896Y12307D01*
X14896Y12307D01*
X14896Y12308D01*
X14896Y12308D01*
X14896Y12308D01*
X14897Y12308D01*
X14897Y12309D01*
X14897Y12309D01*
X14897Y12310D01*
X14898Y12310D01*
X14898Y12310D01*
X14898Y12310D01*
X14898Y12311D01*
X14899Y12311D01*
X14899Y12311D01*
X14899Y12311D01*
X14900Y12311D01*
X14900Y12311D01*
X14901Y12312D01*
X14901D01*
X14901Y12312D01*
X14901Y12312D01*
X14902Y12312D01*
X14902Y12312D01*
X14903Y12312D01*
X14904Y12312D01*
X14919D01*
Y12306D01*
D02*
G37*
G36*
X14867Y12252D02*
X14920D01*
Y12239D01*
X14867D01*
Y12220D01*
X14856D01*
Y12271D01*
X14867D01*
Y12252D01*
D02*
G37*
G36*
X14912Y12213D02*
X14912Y12212D01*
X14912Y12212D01*
X14912Y12212D01*
X14913Y12211D01*
X14913Y12211D01*
X14913Y12210D01*
X14914Y12210D01*
X14914Y12209D01*
X14915Y12208D01*
X14916Y12207D01*
X14916Y12206D01*
X14917Y12205D01*
X14917Y12204D01*
X14918Y12202D01*
X14918Y12201D01*
Y12201D01*
X14919Y12200D01*
X14919Y12200D01*
X14919Y12199D01*
X14919Y12199D01*
X14919Y12198D01*
X14920Y12197D01*
X14920Y12196D01*
X14920Y12195D01*
X14921Y12194D01*
X14921Y12191D01*
X14921Y12188D01*
X14921Y12185D01*
Y12185D01*
Y12185D01*
Y12184D01*
X14921Y12184D01*
X14921Y12183D01*
X14921Y12182D01*
X14921Y12181D01*
X14921Y12179D01*
X14921Y12178D01*
X14920Y12177D01*
X14920Y12174D01*
X14919Y12172D01*
X14919Y12171D01*
X14918Y12169D01*
X14917Y12168D01*
X14917Y12168D01*
X14917Y12167D01*
X14917Y12167D01*
X14917Y12166D01*
X14916Y12166D01*
X14916Y12165D01*
X14915Y12164D01*
X14914Y12164D01*
X14913Y12163D01*
X14912Y12162D01*
X14911Y12161D01*
X14910Y12160D01*
X14909Y12159D01*
X14908Y12158D01*
X14907Y12157D01*
X14905Y12157D01*
X14905D01*
X14905Y12156D01*
X14904Y12156D01*
X14904Y12156D01*
X14903Y12156D01*
X14902Y12155D01*
X14901Y12155D01*
X14900Y12155D01*
X14899Y12154D01*
X14898Y12154D01*
X14896Y12154D01*
X14895Y12153D01*
X14891Y12153D01*
X14890Y12153D01*
X14888Y12153D01*
X14887D01*
X14886Y12153D01*
X14885Y12153D01*
X14884Y12153D01*
X14883Y12153D01*
X14882Y12153D01*
X14881Y12154D01*
X14879Y12154D01*
X14876Y12155D01*
X14875Y12155D01*
X14873Y12156D01*
X14872Y12156D01*
X14870Y12157D01*
X14870Y12157D01*
X14870Y12157D01*
X14870Y12157D01*
X14869Y12158D01*
X14868Y12158D01*
X14868Y12159D01*
X14867Y12159D01*
X14866Y12160D01*
X14865Y12161D01*
X14864Y12162D01*
X14863Y12163D01*
X14862Y12164D01*
X14861Y12165D01*
X14860Y12166D01*
X14859Y12168D01*
X14858Y12169D01*
Y12169D01*
X14858Y12169D01*
X14858Y12170D01*
X14858Y12170D01*
X14858Y12171D01*
X14857Y12172D01*
X14857Y12172D01*
X14857Y12173D01*
X14856Y12175D01*
X14856Y12176D01*
X14856Y12177D01*
X14856Y12178D01*
X14855Y12180D01*
X14855Y12181D01*
X14855Y12185D01*
Y12185D01*
Y12185D01*
Y12186D01*
X14855Y12187D01*
X14855Y12188D01*
X14855Y12189D01*
X14855Y12190D01*
X14856Y12191D01*
X14856Y12194D01*
X14857Y12196D01*
X14857Y12197D01*
X14858Y12199D01*
X14858Y12200D01*
X14859Y12202D01*
X14860Y12203D01*
X14860Y12203D01*
X14860Y12203D01*
X14861Y12204D01*
X14861Y12204D01*
X14862Y12205D01*
X14862Y12205D01*
X14863Y12206D01*
X14864Y12207D01*
X14865Y12207D01*
X14866Y12208D01*
X14867Y12209D01*
X14868Y12210D01*
X14869Y12210D01*
X14871Y12211D01*
X14872Y12211D01*
X14874Y12212D01*
X14876Y12199D01*
X14876D01*
X14876Y12199D01*
X14876Y12199D01*
X14876Y12199D01*
X14875Y12198D01*
X14874Y12198D01*
X14872Y12197D01*
X14871Y12196D01*
X14870Y12195D01*
X14869Y12194D01*
X14869Y12194D01*
X14868Y12193D01*
X14868Y12192D01*
X14867Y12191D01*
X14867Y12190D01*
X14867Y12188D01*
X14866Y12187D01*
X14866Y12185D01*
Y12184D01*
Y12184D01*
Y12184D01*
X14866Y12183D01*
X14866Y12182D01*
X14866Y12182D01*
X14867Y12181D01*
X14867Y12180D01*
X14867Y12178D01*
X14868Y12176D01*
X14868Y12175D01*
X14869Y12174D01*
X14870Y12173D01*
X14871Y12172D01*
X14872Y12171D01*
X14872Y12171D01*
X14872Y12171D01*
X14872Y12171D01*
X14873Y12170D01*
X14873Y12170D01*
X14874Y12170D01*
X14875Y12169D01*
X14876Y12169D01*
X14877Y12168D01*
X14878Y12168D01*
X14879Y12167D01*
X14881Y12167D01*
X14882Y12167D01*
X14884Y12166D01*
X14886Y12166D01*
X14888Y12166D01*
X14889D01*
X14889Y12166D01*
X14890Y12166D01*
X14891Y12166D01*
X14893Y12167D01*
X14894Y12167D01*
X14897Y12167D01*
X14898Y12168D01*
X14900Y12168D01*
X14901Y12169D01*
X14902Y12169D01*
X14904Y12170D01*
X14905Y12171D01*
X14905Y12171D01*
X14905Y12171D01*
X14905Y12172D01*
X14906Y12172D01*
X14906Y12173D01*
X14906Y12173D01*
X14907Y12174D01*
X14908Y12175D01*
X14908Y12176D01*
X14909Y12177D01*
X14909Y12178D01*
X14909Y12179D01*
X14910Y12180D01*
X14910Y12182D01*
X14910Y12183D01*
X14910Y12184D01*
Y12185D01*
Y12185D01*
Y12185D01*
X14910Y12186D01*
X14910Y12187D01*
X14910Y12188D01*
X14910Y12190D01*
X14909Y12191D01*
X14909Y12193D01*
Y12193D01*
X14909Y12193D01*
X14909Y12193D01*
X14908Y12194D01*
X14908Y12195D01*
X14907Y12196D01*
X14907Y12197D01*
X14906Y12198D01*
X14905Y12200D01*
X14897D01*
Y12185D01*
X14886D01*
Y12213D01*
X14912D01*
X14912Y12213D01*
D02*
G37*
G36*
X14901Y12074D02*
X14902Y12074D01*
X14902Y12074D01*
X14903Y12073D01*
X14904Y12073D01*
X14905Y12073D01*
X14906Y12072D01*
X14909Y12071D01*
X14910Y12070D01*
X14912Y12069D01*
X14913Y12068D01*
X14914Y12067D01*
X14915Y12066D01*
X14916Y12065D01*
X14916Y12065D01*
X14917Y12064D01*
X14917Y12064D01*
X14917Y12064D01*
X14917Y12063D01*
X14918Y12062D01*
X14918Y12061D01*
X14919Y12060D01*
X14919Y12059D01*
X14920Y12058D01*
X14920Y12056D01*
X14921Y12055D01*
X14921Y12053D01*
X14921Y12051D01*
X14921Y12050D01*
X14921Y12048D01*
Y12048D01*
Y12047D01*
X14921Y12046D01*
X14921Y12046D01*
X14921Y12045D01*
X14921Y12043D01*
X14921Y12042D01*
X14920Y12040D01*
X14920Y12039D01*
X14919Y12037D01*
X14919Y12035D01*
X14918Y12033D01*
X14917Y12032D01*
X14916Y12030D01*
X14914Y12028D01*
X14913Y12027D01*
X14913Y12027D01*
X14912Y12026D01*
X14912Y12026D01*
X14911Y12025D01*
X14910Y12025D01*
X14909Y12024D01*
X14908Y12023D01*
X14906Y12023D01*
X14905Y12022D01*
X14903Y12021D01*
X14901Y12020D01*
X14899Y12020D01*
X14897Y12019D01*
X14894Y12019D01*
X14892Y12019D01*
X14889Y12019D01*
X14888D01*
X14887Y12019D01*
X14886Y12019D01*
X14885Y12019D01*
X14883Y12019D01*
X14882Y12019D01*
X14880Y12020D01*
X14878Y12020D01*
X14876Y12021D01*
X14874Y12021D01*
X14872Y12022D01*
X14870Y12023D01*
X14868Y12024D01*
X14866Y12025D01*
X14864Y12027D01*
X14864Y12027D01*
X14864Y12027D01*
X14863Y12028D01*
X14863Y12028D01*
X14862Y12029D01*
X14861Y12030D01*
X14860Y12031D01*
X14859Y12033D01*
X14859Y12034D01*
X14858Y12036D01*
X14857Y12037D01*
X14856Y12039D01*
X14856Y12041D01*
X14855Y12044D01*
X14855Y12046D01*
X14855Y12048D01*
Y12049D01*
Y12049D01*
X14855Y12050D01*
Y12050D01*
X14855Y12051D01*
X14855Y12053D01*
X14856Y12054D01*
X14856Y12055D01*
X14856Y12057D01*
X14857Y12058D01*
X14857Y12060D01*
X14858Y12062D01*
X14859Y12063D01*
X14860Y12065D01*
X14861Y12066D01*
X14862Y12068D01*
X14862Y12068D01*
X14862Y12068D01*
X14862Y12068D01*
X14863Y12068D01*
X14863Y12069D01*
X14864Y12069D01*
X14864Y12070D01*
X14865Y12070D01*
X14866Y12071D01*
X14867Y12071D01*
X14868Y12072D01*
X14869Y12072D01*
X14870Y12073D01*
X14871Y12073D01*
X14872Y12074D01*
X14874Y12074D01*
X14877Y12061D01*
X14877D01*
X14877Y12061D01*
X14876Y12061D01*
X14876Y12061D01*
X14875Y12061D01*
X14874Y12060D01*
X14873Y12060D01*
X14871Y12059D01*
X14870Y12058D01*
X14869Y12057D01*
X14869Y12056D01*
X14869Y12056D01*
X14868Y12055D01*
X14868Y12054D01*
X14867Y12053D01*
X14867Y12051D01*
X14866Y12050D01*
X14866Y12048D01*
Y12048D01*
Y12047D01*
Y12047D01*
X14866Y12047D01*
X14866Y12046D01*
X14866Y12045D01*
X14867Y12044D01*
X14867Y12042D01*
X14868Y12041D01*
X14868Y12040D01*
X14869Y12039D01*
X14870Y12038D01*
X14870Y12037D01*
X14871Y12036D01*
X14871Y12036D01*
X14872Y12036D01*
X14872Y12036D01*
X14872Y12036D01*
X14873Y12035D01*
X14874Y12035D01*
X14874Y12034D01*
X14875Y12034D01*
X14876Y12034D01*
X14878Y12033D01*
X14879Y12033D01*
X14880Y12033D01*
X14882Y12032D01*
X14884Y12032D01*
X14886Y12032D01*
X14888Y12032D01*
X14889D01*
X14890Y12032D01*
X14891Y12032D01*
X14892Y12032D01*
X14893Y12032D01*
X14895Y12032D01*
X14897Y12033D01*
X14900Y12034D01*
X14902Y12034D01*
X14903Y12035D01*
X14904Y12035D01*
X14905Y12036D01*
X14905Y12036D01*
X14905Y12036D01*
X14906Y12037D01*
X14906Y12037D01*
X14906Y12037D01*
X14907Y12038D01*
X14907Y12039D01*
X14908Y12039D01*
X14909Y12041D01*
X14909Y12043D01*
X14910Y12044D01*
X14910Y12045D01*
X14910Y12046D01*
X14910Y12048D01*
Y12048D01*
Y12048D01*
Y12048D01*
X14910Y12048D01*
X14910Y12049D01*
X14910Y12051D01*
X14909Y12052D01*
X14909Y12053D01*
X14908Y12055D01*
X14907Y12056D01*
X14907Y12056D01*
X14907Y12057D01*
X14906Y12057D01*
X14906Y12058D01*
X14904Y12058D01*
X14904Y12059D01*
X14903Y12059D01*
X14902Y12060D01*
X14901Y12060D01*
X14900Y12061D01*
X14899Y12061D01*
X14898Y12061D01*
X14897Y12062D01*
X14901Y12074D01*
X14901D01*
X14901Y12074D01*
D02*
G37*
G36*
X14890Y12145D02*
X14891Y12145D01*
X14892Y12145D01*
X14894Y12145D01*
X14895Y12144D01*
X14897Y12144D01*
X14899Y12143D01*
X14901Y12143D01*
X14903Y12142D01*
X14905Y12141D01*
X14907Y12140D01*
X14909Y12139D01*
X14911Y12138D01*
X14913Y12136D01*
X14913Y12136D01*
X14913Y12136D01*
X14914Y12136D01*
X14914Y12135D01*
X14915Y12134D01*
X14915Y12133D01*
X14916Y12132D01*
X14917Y12130D01*
X14918Y12129D01*
X14919Y12127D01*
X14919Y12125D01*
X14920Y12123D01*
X14921Y12121D01*
X14921Y12119D01*
X14921Y12117D01*
X14921Y12114D01*
Y12114D01*
Y12113D01*
X14921Y12113D01*
X14921Y12112D01*
X14921Y12110D01*
X14921Y12109D01*
X14921Y12107D01*
X14920Y12106D01*
X14920Y12104D01*
X14919Y12102D01*
X14919Y12100D01*
X14918Y12098D01*
X14917Y12097D01*
X14916Y12095D01*
X14914Y12093D01*
X14913Y12091D01*
X14913Y12091D01*
X14912Y12091D01*
X14912Y12091D01*
X14911Y12090D01*
X14910Y12089D01*
X14909Y12089D01*
X14908Y12088D01*
X14906Y12087D01*
X14905Y12086D01*
X14903Y12086D01*
X14901Y12085D01*
X14899Y12084D01*
X14897Y12084D01*
X14894Y12083D01*
X14892Y12083D01*
X14889Y12083D01*
X14888D01*
X14887Y12083D01*
X14886D01*
X14885Y12083D01*
X14884Y12083D01*
X14883Y12083D01*
X14880Y12084D01*
X14878Y12084D01*
X14875Y12085D01*
X14872Y12086D01*
X14872D01*
X14872Y12086D01*
X14872Y12086D01*
X14871Y12086D01*
X14870Y12087D01*
X14869Y12087D01*
X14868Y12088D01*
X14866Y12089D01*
X14865Y12090D01*
X14863Y12092D01*
X14863Y12092D01*
X14863Y12092D01*
X14863Y12092D01*
X14862Y12093D01*
X14861Y12094D01*
X14860Y12095D01*
X14859Y12097D01*
X14858Y12098D01*
X14858Y12100D01*
Y12100D01*
X14858Y12100D01*
X14857Y12101D01*
X14857Y12101D01*
X14857Y12102D01*
X14857Y12102D01*
X14857Y12103D01*
X14856Y12104D01*
X14856Y12105D01*
X14856Y12106D01*
X14855Y12108D01*
X14855Y12111D01*
X14855Y12114D01*
Y12114D01*
Y12114D01*
X14855Y12115D01*
X14855Y12116D01*
X14855Y12117D01*
X14856Y12119D01*
X14856Y12120D01*
X14856Y12122D01*
X14857Y12124D01*
X14857Y12126D01*
X14858Y12127D01*
X14859Y12129D01*
X14860Y12131D01*
X14861Y12133D01*
X14862Y12135D01*
X14864Y12136D01*
X14864Y12137D01*
X14864Y12137D01*
X14865Y12137D01*
X14865Y12138D01*
X14866Y12138D01*
X14867Y12139D01*
X14869Y12140D01*
X14870Y12141D01*
X14872Y12142D01*
X14874Y12142D01*
X14876Y12143D01*
X14878Y12144D01*
X14880Y12144D01*
X14883Y12145D01*
X14886Y12145D01*
X14888Y12145D01*
X14889D01*
X14890Y12145D01*
D02*
G37*
%LPC*%
G36*
X14906Y12344D02*
X14905D01*
X14905Y12344D01*
X14905Y12344D01*
X14904Y12344D01*
X14904Y12344D01*
X14903Y12344D01*
X14902Y12343D01*
X14902Y12343D01*
X14902Y12343D01*
X14901Y12343D01*
X14901Y12342D01*
X14901Y12342D01*
X14901Y12342D01*
X14900Y12341D01*
X14900Y12340D01*
X14900Y12340D01*
Y12340D01*
Y12340D01*
X14900Y12339D01*
X14900Y12339D01*
X14900Y12339D01*
X14901Y12338D01*
X14901Y12338D01*
X14901Y12337D01*
X14902Y12336D01*
X14902Y12336D01*
X14902Y12336D01*
X14902Y12336D01*
X14903Y12336D01*
X14903Y12336D01*
X14904Y12335D01*
X14905Y12335D01*
X14906Y12335D01*
Y12344D01*
D02*
G37*
G36*
X14888Y12132D02*
X14887D01*
X14886Y12132D01*
X14885Y12131D01*
X14884Y12131D01*
X14883Y12131D01*
X14882Y12131D01*
X14879Y12130D01*
X14878Y12130D01*
X14876Y12130D01*
X14875Y12129D01*
X14874Y12128D01*
X14873Y12128D01*
X14872Y12127D01*
X14872Y12127D01*
X14871Y12127D01*
X14871Y12126D01*
X14871Y12126D01*
X14870Y12125D01*
X14870Y12125D01*
X14869Y12124D01*
X14869Y12123D01*
X14868Y12123D01*
X14868Y12122D01*
X14867Y12120D01*
X14867Y12119D01*
X14867Y12118D01*
X14866Y12117D01*
X14866Y12115D01*
X14866Y12114D01*
Y12114D01*
Y12114D01*
Y12113D01*
X14866Y12113D01*
X14866Y12112D01*
X14866Y12111D01*
X14867Y12110D01*
X14867Y12109D01*
X14867Y12107D01*
X14868Y12106D01*
X14868Y12105D01*
X14869Y12104D01*
X14870Y12103D01*
X14871Y12102D01*
X14872Y12101D01*
X14872Y12101D01*
X14872Y12101D01*
X14872Y12101D01*
X14873Y12100D01*
X14873Y12100D01*
X14874Y12100D01*
X14875Y12099D01*
X14876Y12099D01*
X14877Y12098D01*
X14878Y12098D01*
X14879Y12097D01*
X14881Y12097D01*
X14883Y12097D01*
X14884Y12096D01*
X14886Y12096D01*
X14888Y12096D01*
X14889D01*
X14890Y12096D01*
X14891Y12096D01*
X14892Y12096D01*
X14893Y12097D01*
X14894Y12097D01*
X14897Y12097D01*
X14898Y12098D01*
X14900Y12098D01*
X14901Y12099D01*
X14902Y12100D01*
X14904Y12100D01*
X14905Y12101D01*
X14905Y12101D01*
X14905Y12101D01*
X14905Y12102D01*
X14906Y12102D01*
X14906Y12103D01*
X14907Y12103D01*
X14907Y12104D01*
X14908Y12105D01*
X14908Y12106D01*
X14909Y12107D01*
X14909Y12108D01*
X14909Y12109D01*
X14910Y12110D01*
X14910Y12111D01*
X14910Y12113D01*
X14910Y12114D01*
Y12114D01*
Y12114D01*
Y12115D01*
X14910Y12115D01*
X14910Y12116D01*
X14910Y12117D01*
X14910Y12118D01*
X14910Y12118D01*
X14909Y12120D01*
X14909Y12122D01*
X14908Y12123D01*
X14907Y12124D01*
X14907Y12125D01*
X14906Y12126D01*
X14905Y12127D01*
X14905Y12127D01*
X14905Y12127D01*
X14904Y12127D01*
X14904Y12127D01*
X14903Y12128D01*
X14902Y12128D01*
X14902Y12129D01*
X14901Y12129D01*
X14899Y12130D01*
X14898Y12130D01*
X14897Y12130D01*
X14895Y12131D01*
X14894Y12131D01*
X14892Y12131D01*
X14890Y12132D01*
X14888Y12132D01*
D02*
G37*
%LPD*%
D10*
X14954Y12218D02*
X14947Y12224D01*
X14939Y12229D01*
X14931Y12233D01*
X14922Y12236D01*
X14913Y12238D01*
X14904Y12239D01*
Y12179D02*
X14913Y12179D01*
X14922Y12181D01*
X14931Y12184D01*
X14939Y12188D01*
X14947Y12193D01*
X14954Y12200D01*
X14824D02*
X14831Y12193D01*
X14839Y12188D01*
X14848Y12184D01*
X14856Y12181D01*
X14866Y12179D01*
X14875Y12179D01*
Y12239D02*
X14866Y12238D01*
X14856Y12236D01*
X14848Y12233D01*
X14839Y12229D01*
X14831Y12224D01*
X14824Y12218D01*
X14956Y12209D02*
X14956Y12218D01*
X14953Y12228D01*
X14950Y12238D01*
X14945Y12246D01*
X14938Y12254D01*
X14931Y12261D01*
X14923Y12267D01*
X14914Y12271D01*
X14904Y12274D01*
X14894Y12275D01*
X14884D01*
X14874Y12274D01*
X14865Y12271D01*
X14856Y12267D01*
X14847Y12261D01*
X14840Y12254D01*
X14834Y12246D01*
X14829Y12238D01*
X14825Y12228D01*
X14823Y12218D01*
X14822Y12209D01*
X14823Y12199D01*
X14825Y12189D01*
X14829Y12179D01*
X14834Y12171D01*
X14840Y12163D01*
X14847Y12156D01*
X14856Y12150D01*
X14865Y12146D01*
X14874Y12143D01*
X14884Y12142D01*
X14894D01*
X14904Y12143D01*
X14914Y12146D01*
X14923Y12150D01*
X14931Y12156D01*
X14938Y12163D01*
X14945Y12171D01*
X14950Y12179D01*
X14953Y12189D01*
X14956Y12199D01*
X14956Y12209D01*
X14889Y12239D02*
X14904D01*
X14889Y12179D02*
X14904D01*
X14875D02*
X14889D01*
X14875Y12239D02*
X14889D01*
X14822Y12209D02*
X14956D01*
X14889Y12142D02*
Y12276D01*
X14850Y12155D02*
Y12263D01*
X14928Y12155D02*
Y12263D01*
X14822Y12209D02*
Y12212D01*
X14344Y10625D02*
X14358Y10610D01*
X14760D01*
X14985Y11002D02*
X14992D01*
X14921Y10937D02*
X14985Y11002D01*
X14921Y10771D02*
Y10937D01*
X14760Y10610D02*
X14921Y10771D01*
X14173Y10625D02*
X14344D01*
X13938Y10390D02*
X14173Y10625D01*
X13938Y10289D02*
Y10390D01*
X14615Y10712D02*
X14771D01*
X14615Y10703D02*
X14775D01*
X14615Y10730D02*
X14763D01*
X14615Y10757D02*
X14752D01*
X14615Y10748D02*
X14756D01*
X14615Y10739D02*
X14760D01*
X14615Y10721D02*
X14767D01*
X14615Y10766D02*
X14748D01*
X14615Y10694D02*
X14778D01*
X14564Y10703D02*
X14615D01*
X14579Y10739D02*
X14615D01*
X14575Y10730D02*
X14615D01*
X14571Y10721D02*
X14615D01*
X14568Y10712D02*
X14615D01*
X14560Y10694D02*
X14615D01*
X14586Y10757D02*
X14615D01*
X14583Y10748D02*
X14615D01*
X14590Y10766D02*
X14615D01*
X14160Y10729D02*
X14524D01*
X14157Y10738D02*
X14528D01*
X14153Y10747D02*
X14532D01*
X14149Y10756D02*
X14536D01*
X14145Y10765D02*
X14539D01*
X14142Y10774D02*
X14543D01*
X14138Y10783D02*
X14547D01*
X14134Y10792D02*
X14550D01*
X14131Y10801D02*
X14554D01*
X14590Y10766D01*
X14550Y10792D02*
X14586Y10757D01*
X14547Y10783D02*
X14583Y10748D01*
X14543Y10774D02*
X14579Y10739D01*
X14539Y10765D02*
X14575Y10730D01*
X14536Y10756D02*
X14571Y10721D01*
X14532Y10747D02*
X14568Y10712D01*
X14528Y10738D02*
X14564Y10703D01*
X14524Y10729D02*
X14560Y10694D01*
X14771Y10712D02*
X14828Y10768D01*
X14775Y10703D02*
X14837Y10765D01*
X14778Y10694D02*
X14846Y10761D01*
X13937Y10506D02*
X14160Y10729D01*
X13928Y10510D02*
X14157Y10738D01*
X13919Y10513D02*
X14153Y10747D01*
X13910Y10517D02*
X14149Y10756D01*
X13909Y10529D02*
X14145Y10765D01*
X13905Y10538D02*
X14142Y10774D01*
X13902Y10547D02*
X14138Y10783D01*
X13898Y10556D02*
X14134Y10792D01*
X13894Y10565D02*
X14131Y10801D01*
X15705Y12204D02*
X15858Y12051D01*
X15688Y12221D02*
X15705Y12204D01*
X15348Y13205D02*
X15382D01*
X15342Y13200D02*
X15348Y13205D01*
X15342Y13174D02*
Y13200D01*
Y13174D02*
X15350Y13165D01*
X15382D01*
X12306Y10248D02*
Y10288D01*
X12183Y10248D02*
Y10288D01*
X12058Y10248D02*
Y10288D01*
X12083Y10248D02*
Y10288D01*
X12008Y10248D02*
Y10288D01*
X11881Y10248D02*
Y10288D01*
X11807Y10248D02*
X11807Y10248D01*
X11807Y10248D02*
X11832D01*
X11757D02*
X11807D01*
X11807Y10248D02*
Y10288D01*
X15794Y12932D02*
X15807Y12945D01*
X15631Y12976D02*
X15636Y12971D01*
X15871D01*
X15664Y13008D02*
X15863D01*
X15870Y13001D01*
X15664Y13165D02*
X15664Y13165D01*
X15788D01*
X15611Y13257D02*
Y13308D01*
X15610Y13310D02*
X15611Y13308D01*
X15454Y13257D02*
X15455Y13258D01*
Y13318D01*
X15456Y13320D01*
X15414Y13257D02*
X15415Y13258D01*
Y13326D01*
X14687Y10302D02*
X14742D01*
X15767Y10671D02*
X15789Y10693D01*
X15340Y10671D02*
X15767D01*
X15313Y10698D02*
X15340Y10671D01*
X15169Y10698D02*
X15313D01*
X15137Y10730D02*
X15169Y10698D01*
X15062Y10730D02*
X15137D01*
X15203D02*
X15267D01*
X15197Y10724D02*
X15203Y10730D01*
X15147Y10980D02*
X15172Y11005D01*
X15062Y10980D02*
X15147D01*
X15528Y11097D02*
Y11292D01*
X15502Y11072D02*
X15528Y11097D01*
X15502Y10945D02*
Y11072D01*
X15342Y10980D02*
X15343Y10981D01*
X15267Y10980D02*
X15342D01*
X16100Y11680D02*
X16101Y11681D01*
X16167Y11680D01*
X15352Y10780D02*
X15398Y10734D01*
X15267Y10780D02*
X15352D01*
X14939Y10930D02*
X15062D01*
X14939Y10930D02*
X14939Y10930D01*
X15205D02*
X15267D01*
X15193Y10942D02*
X15205Y10930D01*
X14911Y10646D02*
Y10749D01*
X14942Y10780D02*
X15062D01*
X14911Y10749D02*
X14942Y10780D01*
X12647Y10361D02*
X12647Y10360D01*
Y10288D02*
Y10360D01*
X12622Y10336D02*
X12622Y10335D01*
Y10288D02*
Y10335D01*
X12597Y10362D02*
X12597Y10361D01*
Y10288D02*
Y10361D01*
X12572Y10338D02*
X12572Y10337D01*
Y10288D02*
Y10337D01*
X10440Y10598D02*
X10441Y10600D01*
X10440Y10535D02*
Y10598D01*
X10810Y10530D02*
Y10598D01*
X10811Y10600D01*
X15472Y11962D02*
X15474Y11964D01*
X14878Y10247D02*
X14881Y10250D01*
X14878Y10212D02*
Y10247D01*
X14685Y10215D02*
X14741D01*
X14682Y10218D02*
X14685Y10215D01*
X15395Y12556D02*
Y12586D01*
X15664Y13165D02*
X15665Y13167D01*
X16077Y11580D02*
X16079Y11581D01*
X16020Y11580D02*
X16077D01*
X15930Y11809D02*
X15940Y11819D01*
X15930Y11775D02*
Y11809D01*
X15756Y13724D02*
X15756Y13725D01*
X15673Y13724D02*
X15756D01*
X15700Y13704D02*
X15708Y13697D01*
X15673Y13704D02*
X15700D01*
X15291Y13028D02*
X15382D01*
X15260Y13059D02*
X15291Y13028D01*
X15315Y13616D02*
X15351Y13652D01*
Y13690D01*
X15366Y13704D01*
X15391D01*
X15381Y13047D02*
X15382Y13047D01*
X15347Y13047D02*
X15381D01*
X15352Y13725D02*
X15353Y13724D01*
X15391D01*
X15361Y13882D02*
X15391D01*
X15352Y13873D02*
X15361Y13882D01*
X15352Y13854D02*
Y13873D01*
Y13854D02*
X15364Y13842D01*
X15391D01*
Y13630D02*
Y13685D01*
Y13630D02*
X15483Y13538D01*
X15338Y13418D02*
X15452D01*
X15260Y13346D02*
X15463D01*
X15492Y13258D02*
X15493Y13257D01*
X15492Y13258D02*
Y13317D01*
X15463Y13346D02*
X15492Y13317D01*
X15454Y12936D02*
Y12976D01*
X15422Y12905D02*
X15454Y12936D01*
X15434Y12935D02*
Y12976D01*
X15416Y12918D02*
X15434Y12935D01*
X15251Y12918D02*
X15416D01*
X15238Y12905D02*
X15422D01*
X15414Y12939D02*
Y12976D01*
X15402Y12927D02*
X15414Y12939D01*
X15258Y12927D02*
X15402D01*
X15169Y12974D02*
X15238Y12905D01*
X15187Y12982D02*
X15251Y12918D01*
X15211Y12974D02*
X15258Y12927D01*
X15169Y12974D02*
Y13013D01*
X15166Y13016D02*
X15169Y13013D01*
X15211Y12974D02*
Y13012D01*
X15208Y13015D02*
X15211Y13012D01*
X15256Y13008D02*
X15382D01*
X15229Y12982D02*
X15256Y13008D01*
X15452Y13418D02*
X15533Y13337D01*
Y13257D02*
Y13337D01*
X15524Y13378D02*
X15552Y13349D01*
Y13257D02*
Y13349D01*
X15547Y13495D02*
X15631Y13411D01*
Y13257D02*
Y13411D01*
X15341Y13901D02*
X15391D01*
X15314Y13875D02*
X15341Y13901D01*
X15270Y14025D02*
X15289Y14044D01*
X15600D01*
X15725Y13918D01*
Y13854D02*
Y13918D01*
X15713Y13842D02*
X15725Y13854D01*
X15673Y13842D02*
X15713D01*
X15358Y13932D02*
X15359D01*
X15417Y13990D01*
X15443D01*
X15463Y13970D01*
Y13934D02*
Y13970D01*
X15312Y14035D02*
X15596D01*
X15640Y13934D02*
Y13991D01*
X15333Y14026D02*
X15585D01*
X15620Y13934D02*
Y13991D01*
X15395Y13999D02*
X15475D01*
X15483Y13934D02*
Y13991D01*
X15375Y14008D02*
X15525D01*
X15542Y13934D02*
Y13991D01*
X15354Y14017D02*
X15535D01*
X15561Y13934D02*
Y13991D01*
X15301Y14023D02*
X15312Y14035D01*
X15300Y13993D02*
X15333Y14026D01*
X15331Y13993D02*
X15354Y14017D01*
X15330Y13963D02*
X15375Y14008D01*
X15360Y13964D02*
X15395Y13999D01*
X15596Y14035D02*
X15640Y13991D01*
X15585Y14026D02*
X15620Y13991D01*
X15535Y14017D02*
X15561Y13991D01*
X15525Y14008D02*
X15542Y13991D01*
X15475Y13999D02*
X15483Y13991D01*
X15483Y13538D02*
X15567D01*
X15598Y13506D01*
X15636D01*
X15667Y13538D01*
X15423Y13610D02*
Y13652D01*
Y13610D02*
X15487Y13547D01*
X15570D01*
X15602Y13515D01*
X15632D02*
X15664Y13547D01*
X15602Y13515D02*
X15632D01*
X15664Y13547D02*
X15793D01*
X15443Y13603D02*
Y13652D01*
Y13603D02*
X15491Y13556D01*
X15463Y13596D02*
Y13652D01*
Y13596D02*
X15494Y13565D01*
X15601Y13633D02*
Y13652D01*
Y13633D02*
X15660Y13574D01*
X15620Y13626D02*
Y13652D01*
Y13626D02*
X15664Y13583D01*
X15640Y13619D02*
Y13652D01*
Y13619D02*
X15667Y13592D01*
X15673Y13618D02*
Y13685D01*
Y13618D02*
X15690Y13601D01*
X15796Y13538D02*
X15872Y13613D01*
Y13879D01*
X15793Y13547D02*
X15863Y13617D01*
Y13891D01*
X15789Y13556D02*
X15854Y13621D01*
Y13903D01*
X15785Y13565D02*
X15845Y13625D01*
Y14006D01*
X15781Y13574D02*
X15836Y13628D01*
Y13903D01*
X15778Y13583D02*
X15827Y13632D01*
Y13891D01*
X15774Y13592D02*
X15818Y13636D01*
Y13879D01*
X15809Y13640D02*
Y13867D01*
X15667Y13538D02*
X15796D01*
X15491Y13556D02*
X15789D01*
X15494Y13565D02*
X15785D01*
X15660Y13574D02*
X15781D01*
X15664Y13583D02*
X15778D01*
X15667Y13592D02*
X15774D01*
X15690Y13601D02*
X15770D01*
X15809Y13640D01*
X15872Y13879D02*
X15908Y13915D01*
X15863Y13891D02*
X15887Y13915D01*
X15854Y13903D02*
X15866Y13915D01*
X15761D02*
X15809Y13867D01*
X15782Y13915D02*
X15818Y13879D01*
X15803Y13915D02*
X15827Y13891D01*
X15824Y13915D02*
X15836Y13903D01*
X15908Y13915D02*
Y13972D01*
X15887Y13915D02*
Y14006D01*
X15866Y13915D02*
Y13972D01*
X15761Y13915D02*
Y14006D01*
X15782Y13915D02*
Y13972D01*
X15803Y13915D02*
Y14006D01*
X15824Y13915D02*
Y13972D01*
X15381Y13250D02*
X15382Y13249D01*
Y13225D02*
Y13249D01*
X15344Y13075D02*
X15356Y13087D01*
X15382D01*
X15533Y12951D02*
X15544Y12940D01*
X15533Y12951D02*
Y12976D01*
X15694Y13067D02*
X15694Y13068D01*
X15664Y13067D02*
X15694D01*
X15694Y13185D02*
X15694Y13186D01*
X15664Y13185D02*
X15694D01*
X15663Y13247D02*
X15664Y13246D01*
Y13225D02*
Y13246D01*
X15592Y13257D02*
Y13277D01*
X15579Y13290D02*
X15592Y13277D01*
X15572Y13282D02*
X15579Y13290D01*
X15572Y13257D02*
Y13282D01*
X15513Y13289D02*
X15513Y13290D01*
X15513Y13257D02*
Y13289D01*
X15473Y13289D02*
X15474Y13288D01*
Y13257D02*
Y13288D01*
X15434Y13288D02*
X15434Y13289D01*
X15434Y13257D02*
Y13288D01*
X15353Y13756D02*
Y13757D01*
X15360Y13763D01*
X15391D01*
X15552Y13618D02*
Y13620D01*
X15542Y13628D02*
X15552Y13618D01*
X15542Y13628D02*
Y13652D01*
X15521Y13652D02*
X15522Y13652D01*
X15521Y13618D02*
Y13652D01*
X15710Y13744D02*
X15710Y13745D01*
X15673Y13744D02*
X15710D01*
X15706Y13862D02*
X15706Y13863D01*
X15673Y13862D02*
X15706D01*
X15672Y13922D02*
X15673Y13921D01*
Y13901D02*
Y13921D01*
X15601Y13934D02*
Y13955D01*
X15588Y13968D02*
X15601Y13955D01*
X15581Y13960D02*
X15588Y13968D01*
X15581Y13934D02*
Y13960D01*
X15502Y13934D02*
Y13958D01*
X15512Y13969D01*
X15522Y13959D01*
Y13934D02*
Y13959D01*
X15443Y13934D02*
Y13961D01*
X15438Y13966D02*
X15443Y13961D01*
X15423Y13966D02*
X15438D01*
X15423D02*
X15423Y13965D01*
Y13934D02*
Y13965D01*
X13249Y12973D02*
X13254Y12978D01*
Y13176D01*
X14322Y12973D02*
X14323Y12974D01*
Y13170D01*
X13064Y13019D02*
Y13171D01*
X13050Y13186D02*
X13064Y13171D01*
X14137Y13019D02*
X14137Y13019D01*
Y13174D01*
X11102Y13157D02*
X11104Y13155D01*
Y12973D02*
Y13155D01*
X10919Y13019D02*
X10922Y13023D01*
Y13181D01*
X12177Y12973D02*
X12178Y12975D01*
Y13159D01*
X11992Y13019D02*
X11992Y13020D01*
Y13183D01*
X12762Y12465D02*
X13570D01*
X10945Y12420D02*
X10988Y12463D01*
X11781D01*
X11825Y12418D01*
X11868Y12462D01*
X12675D01*
X12717Y12420D01*
X12762Y12465D01*
X14485Y11262D02*
X14489Y11258D01*
X14485Y11262D02*
Y11357D01*
X14479Y12429D02*
X14489Y12420D01*
X14479Y12429D02*
Y12551D01*
X14079Y11684D02*
X14082Y11681D01*
Y11491D02*
Y11681D01*
X14721Y11443D02*
Y11684D01*
X13988Y10289D02*
Y10331D01*
X14011Y10355D01*
X14741Y10225D02*
X14791D01*
X14804Y10212D01*
X14741Y10315D02*
X14758Y10298D01*
X14804D01*
X14861Y10380D02*
X14878Y10363D01*
Y10298D02*
Y10363D01*
X14771Y10380D02*
X14806Y10345D01*
X14831D01*
X14841Y10335D01*
Y10298D02*
Y10335D01*
X14771Y10380D02*
Y10445D01*
Y10490D01*
X13963Y10289D02*
Y10332D01*
X14015Y10385D01*
X14081D01*
X15059Y12260D02*
X15111D01*
X15111Y12260D01*
X15059Y12339D02*
X15109D01*
X15111Y12340D01*
X15218Y11964D02*
Y12018D01*
X15216Y12020D02*
X15218Y12018D01*
X15493Y11964D02*
Y12026D01*
X15494Y12026D01*
X15513Y11964D02*
Y11997D01*
X15562Y12045D01*
X15238Y11964D02*
Y11998D01*
X15262Y12022D01*
X15602Y12181D02*
X15652D01*
X15602Y12181D02*
X15602Y12181D01*
X15602Y12260D02*
X15652D01*
X15602Y12260D02*
X15602Y12260D01*
X15553Y12330D02*
X15583Y12300D01*
X15513Y12508D02*
X15513Y12509D01*
X15237Y12502D02*
Y12556D01*
X15257Y12521D02*
Y12556D01*
Y12521D02*
X15277Y12501D01*
X15059Y12319D02*
X15108D01*
X15116Y12311D01*
Y12306D02*
Y12311D01*
X15109Y12300D02*
X15116Y12306D01*
X15059Y12300D02*
X15109D01*
X15611Y12201D02*
X15652D01*
X15599Y12213D02*
X15611Y12201D01*
X15599Y12213D02*
Y12220D01*
X15554Y12493D02*
X15560D01*
X14951Y10235D02*
Y10295D01*
Y10235D02*
X14951Y10235D01*
X15870Y11580D02*
X15871Y11580D01*
X15820Y11509D02*
X15822Y11508D01*
X15347Y13106D02*
X15382D01*
X15346Y13106D02*
X15347Y13106D01*
X15513Y12940D02*
Y12976D01*
X15512Y12940D02*
X15513Y12940D01*
X15357Y13783D02*
X15391D01*
X15356Y13784D02*
X15357Y13783D01*
X15513Y12509D02*
Y12556D01*
X15533Y12514D02*
X15554Y12493D01*
X15533Y12514D02*
Y12556D01*
X15583Y12300D02*
X15652D01*
X10965Y13650D02*
X11108D01*
X11752D02*
X11895D01*
X12540D02*
X12683D01*
X13327D02*
X13470D01*
X14114D02*
X14258D01*
X14902D02*
X15060D01*
X11108D02*
X11108Y13651D01*
X15611Y12939D02*
Y12976D01*
Y12939D02*
X15619Y12932D01*
X15794D01*
X15592Y12925D02*
Y12976D01*
Y12925D02*
X15605Y12911D01*
X15811D01*
X15630Y12836D02*
X15689D01*
X15616Y12821D02*
X15630Y12836D01*
X15626Y12845D02*
X15693D01*
X15612Y12830D02*
X15626Y12845D01*
X15597Y12867D02*
X15683D01*
X15593Y12821D02*
X15616D01*
X15597Y12830D02*
X15612D01*
X15583Y12854D02*
X15597Y12867D01*
X15579Y12836D02*
X15593Y12821D01*
X15582Y12845D02*
X15597Y12830D01*
X15272Y12719D02*
X15395Y12596D01*
X15261Y12710D02*
X15375Y12596D01*
X15251Y12701D02*
X15356Y12596D01*
X15240Y12692D02*
X15336Y12596D01*
X15229Y12683D02*
X15316Y12596D01*
X15395Y12556D02*
Y12596D01*
X15375Y12556D02*
Y12596D01*
X15356Y12556D02*
Y12596D01*
X15336Y12556D02*
Y12596D01*
X15316Y12556D02*
Y12596D01*
X15113Y12686D02*
X15119Y12692D01*
X15104Y12690D02*
X15115Y12701D01*
X15095Y12694D02*
X15111Y12710D01*
X15086Y12697D02*
X15107Y12719D01*
X15086Y12668D02*
Y12697D01*
X15053Y12635D02*
X15086Y12668D01*
X15048Y12698D02*
X15096Y12746D01*
X15045Y12614D02*
X15095Y12664D01*
Y12694D01*
X15037Y12593D02*
X15104Y12660D01*
Y12690D01*
X15028Y12572D02*
X15113Y12656D01*
Y12686D01*
X15122Y12653D02*
Y12683D01*
X15020Y12551D02*
X15122Y12653D01*
X14691Y12551D02*
X15020D01*
X15095Y12869D02*
X15111Y12854D01*
X15095Y12869D02*
Y12899D01*
X15107Y12719D02*
X15272D01*
X15111Y12710D02*
X15261D01*
X15115Y12701D02*
X15251D01*
X15119Y12692D02*
X15240D01*
X15122Y12683D02*
X15229D01*
X15104Y12836D02*
X15579D01*
X15107Y12845D02*
X15582D01*
X15111Y12854D02*
X15583D01*
X14713Y12572D02*
X15028D01*
X14735Y12593D02*
X15037D01*
X14757Y12614D02*
X15045D01*
X14776Y12635D02*
X15053D01*
X15089Y12800D02*
X15564D01*
X15065Y12824D02*
X15089Y12800D01*
X15678Y12809D02*
X15711Y12775D01*
X15641Y12809D02*
X15678D01*
X15627Y12794D02*
X15641Y12809D01*
X15582Y12794D02*
X15627D01*
X15567Y12809D02*
X15582Y12794D01*
X15092Y12809D02*
X15567D01*
X15637Y12818D02*
X15682D01*
X15623Y12803D02*
X15637Y12818D01*
X15585Y12803D02*
X15623D01*
X15571Y12818D02*
X15585Y12803D01*
X15096Y12818D02*
X15571D01*
X15685Y12827D02*
X15731Y12781D01*
X15634Y12827D02*
X15685D01*
X15619Y12812D02*
X15634Y12827D01*
X15589Y12812D02*
X15619D01*
X15575Y12827D02*
X15589Y12812D01*
X15100Y12827D02*
X15575D01*
X15689Y12836D02*
X15741Y12783D01*
X15693Y12845D02*
X15750Y12787D01*
X15683Y12867D02*
X15759Y12791D01*
X15687Y12876D02*
X15768Y12795D01*
X15020Y13013D02*
X15138Y12894D01*
X15694D01*
X15786Y12802D01*
Y12415D02*
Y12802D01*
X15652Y12319D02*
X15691D01*
X15786Y12415D01*
X15690Y12885D02*
X15777Y12798D01*
X13885Y10492D02*
X13899D01*
X13910Y10503D01*
Y10517D01*
X13838Y10432D02*
X13889Y10483D01*
X13903D01*
X13919Y10499D01*
Y10513D01*
X13863Y10445D02*
X13892Y10474D01*
X13906D01*
X13928Y10495D01*
Y10510D01*
X13813Y10420D02*
X13885Y10492D01*
X13884Y10529D02*
X13909D01*
X13788Y10433D02*
X13884Y10529D01*
X13880Y10538D02*
X13905D01*
X13738Y10396D02*
X13880Y10538D01*
X13876Y10547D02*
X13902D01*
X13713Y10384D02*
X13876Y10547D01*
X13872Y10556D02*
X13898D01*
X13688Y10371D02*
X13872Y10556D01*
X13663Y10359D02*
X13869Y10565D01*
X13894D01*
X14774Y10791D02*
Y10832D01*
X14748Y10766D02*
X14774Y10791D01*
X14752Y10757D02*
X14783Y10787D01*
Y10828D01*
X14756Y10748D02*
X14792Y10783D01*
Y10825D01*
X14760Y10739D02*
X14801Y10780D01*
X14763Y10730D02*
X14810Y10776D01*
X14767Y10721D02*
X14819Y10772D01*
X13663Y10289D02*
Y10359D01*
X13688Y10289D02*
Y10371D01*
X13713Y10289D02*
Y10384D01*
X13738Y10289D02*
Y10396D01*
X13788Y10289D02*
Y10433D01*
X13813Y10289D02*
Y10420D01*
X13838Y10289D02*
Y10432D01*
X13863Y10289D02*
Y10445D01*
X14774Y10791D02*
Y10934D01*
X15559Y11719D01*
X14783Y10787D02*
Y10930D01*
X15568Y11716D01*
X14792Y10783D02*
Y10926D01*
X15577Y11712D01*
X14801Y10780D02*
Y10923D01*
X15586Y11708D01*
X14810Y10776D02*
Y10919D01*
X15595Y11704D01*
X14819Y10772D02*
Y10915D01*
X15604Y11701D01*
X14828Y10768D02*
Y10911D01*
X15613Y11697D01*
X14837Y10765D02*
Y10908D01*
X15622Y11693D01*
X15559Y11719D02*
Y11787D01*
X15568Y11716D02*
Y11784D01*
X15577Y11712D02*
Y11780D01*
X15586Y11708D02*
Y11776D01*
X15604Y11701D02*
Y11769D01*
X15613Y11697D02*
Y11765D01*
X15622Y11693D02*
Y11761D01*
X15559Y11787D02*
X15756Y11984D01*
X15622Y11761D02*
X15849Y11988D01*
X15652Y12044D02*
X15654Y12046D01*
X15756Y11984D02*
Y12003D01*
X15736Y12024D02*
X15756Y12003D01*
X15652Y12024D02*
X15736D01*
X15613Y11765D02*
X15840Y11992D01*
X15604Y11769D02*
X15831Y11996D01*
X15595Y11772D02*
X15822Y11999D01*
X15595Y11765D02*
Y11772D01*
Y11765D02*
X15595Y11765D01*
Y11704D02*
Y11765D01*
X15652Y12221D02*
X15688D01*
X15858Y11985D02*
Y12051D01*
X15631Y11758D02*
X15858Y11985D01*
X15631Y11690D02*
Y11758D01*
X14846Y10904D02*
X15631Y11690D01*
X14846Y10761D02*
Y10904D01*
X13937Y10492D02*
Y10506D01*
X13913Y10468D02*
X13937Y10492D01*
X13913Y10289D02*
Y10468D01*
X15652Y12162D02*
X15734D01*
X15849Y12047D01*
Y11988D02*
Y12047D01*
X15652Y12142D02*
X15741D01*
X15840Y12043D01*
Y11992D02*
Y12043D01*
X15652Y12122D02*
X15748D01*
X15831Y12039D01*
Y11996D02*
Y12039D01*
X15652Y12103D02*
X15755D01*
X15822Y12036D01*
Y11999D02*
Y12036D01*
X15652Y12083D02*
X15762D01*
X15813Y12032D01*
Y12003D02*
Y12032D01*
X15586Y11776D02*
X15813Y12003D01*
X15652Y12063D02*
X15769D01*
X15804Y12028D01*
Y12007D02*
Y12028D01*
X15577Y11780D02*
X15804Y12007D01*
X15654Y12046D02*
X15774D01*
X15795Y12024D01*
Y12011D02*
Y12024D01*
X15568Y11784D02*
X15795Y12011D01*
X15487Y11795D02*
Y11862D01*
X15474Y11875D02*
X15487Y11862D01*
X15474Y11875D02*
Y11964D01*
X15508Y11827D02*
X15533Y11851D01*
Y11964D01*
X15466Y11827D02*
Y11862D01*
X15434Y11893D02*
X15466Y11862D01*
X15434Y11893D02*
Y11964D01*
X15445Y11795D02*
Y11870D01*
X15415Y11900D02*
X15445Y11870D01*
X15415Y11900D02*
Y11964D01*
X15424Y11827D02*
Y11878D01*
X15395Y11907D02*
X15424Y11878D01*
X15395Y11907D02*
Y11964D01*
X15403Y11795D02*
Y11882D01*
X15375Y11910D02*
X15403Y11882D01*
X15375Y11910D02*
Y11964D01*
X15382Y11827D02*
Y11890D01*
X15356Y11917D02*
X15382Y11890D01*
X15356Y11917D02*
Y11964D01*
X15361Y11795D02*
Y11898D01*
X15336Y11923D02*
X15361Y11898D01*
X15336Y11923D02*
Y11964D01*
X15089Y12764D02*
X15325D01*
X15493Y12596D01*
Y12556D02*
Y12596D01*
X15085Y12773D02*
X15376D01*
X15553Y12596D01*
Y12556D02*
Y12596D01*
X15386Y12782D02*
X15572Y12596D01*
Y12556D02*
Y12596D01*
X15652Y12457D02*
X15691D01*
X15682Y12818D02*
X15721Y12778D01*
Y12487D02*
Y12778D01*
X15691Y12457D02*
X15721Y12487D01*
X15085Y12791D02*
X15397D01*
X15592Y12596D01*
Y12556D02*
Y12596D01*
X15564Y12800D02*
X15578Y12785D01*
X15631D01*
X15652Y12496D02*
X15691D01*
X15702Y12507D01*
Y12772D01*
X15631Y12785D02*
X15645Y12800D01*
X15674D01*
X15702Y12772D01*
X14902Y12761D02*
X14903Y12762D01*
X15711Y12497D02*
Y12775D01*
X15691Y12477D02*
X15711Y12497D01*
X15652Y12477D02*
X15691D01*
X15073Y12761D02*
X15085Y12773D01*
X14803Y13013D02*
X15020D01*
X15593Y12876D02*
X15687D01*
X15768Y12436D02*
Y12795D01*
X15691Y12359D02*
X15768Y12436D01*
X15652Y12359D02*
X15691D01*
X15579Y12863D02*
X15593Y12876D01*
X15104Y12873D02*
Y12903D01*
Y12873D02*
X15115Y12863D01*
X15579D01*
X15589Y12885D02*
X15690D01*
X15028Y12992D02*
X15113Y12907D01*
X15777Y12425D02*
Y12798D01*
X15692Y12339D02*
X15777Y12425D01*
X15652Y12339D02*
X15692D01*
X15575Y12872D02*
X15589Y12885D01*
X15113Y12877D02*
Y12907D01*
Y12877D02*
X15119Y12872D01*
X15575D01*
X14829Y12992D02*
X15028D01*
X15045Y12950D02*
X15095Y12899D01*
X15759Y12446D02*
Y12791D01*
X15691Y12378D02*
X15759Y12446D01*
X15652Y12378D02*
X15691D01*
X15065Y12740D02*
X15089Y12764D01*
X14881Y12740D02*
X14883Y12742D01*
X14863Y12719D02*
X14864Y12720D01*
X15100Y12737D02*
X15293D01*
X15434Y12596D01*
Y12556D02*
Y12596D01*
X15096Y12746D02*
X15304D01*
X15454Y12596D01*
Y12556D02*
Y12596D01*
X14846Y12698D02*
X15048D01*
X15073Y12803D02*
X15085Y12791D01*
X14924Y12782D02*
X15386D01*
X15086Y12866D02*
X15107Y12845D01*
X15086Y12866D02*
Y12895D01*
X15077Y12862D02*
X15104Y12836D01*
X15741Y12468D02*
Y12783D01*
X15691Y12418D02*
X15741Y12468D01*
X15652Y12418D02*
X15691D01*
X15061Y12908D02*
X15077Y12892D01*
Y12862D02*
Y12892D01*
X15750Y12457D02*
Y12787D01*
X15691Y12398D02*
X15750Y12457D01*
X15652Y12398D02*
X15691D01*
X14914Y12908D02*
X15061D01*
X15056Y12845D02*
X15092Y12809D01*
X15731Y12477D02*
Y12781D01*
X15691Y12437D02*
X15731Y12477D01*
X15652Y12437D02*
X15691D01*
X15040Y12887D02*
X15100Y12827D01*
X14936Y12887D02*
X15040D01*
X14871Y12950D02*
X15045D01*
X15092Y12755D02*
X15315D01*
X15474Y12596D01*
Y12556D02*
Y12596D01*
X15077Y12701D02*
X15104Y12728D01*
X15283D01*
X15415Y12596D01*
Y12556D02*
Y12596D01*
X15077Y12671D02*
Y12701D01*
X15061Y12656D02*
X15077Y12671D01*
X14797Y12656D02*
X15061D01*
X15040Y12677D02*
X15100Y12737D01*
X14824Y12677D02*
X15040D01*
X15056Y12719D02*
X15092Y12755D01*
X15053Y12929D02*
X15086Y12895D01*
X15037Y12971D02*
X15104Y12903D01*
X14892Y12929D02*
X15053D01*
X14850Y12971D02*
X15037D01*
X15048Y12866D02*
X15096Y12818D01*
X14963Y12866D02*
X15048D01*
X14891Y12930D02*
X14892Y12929D01*
X14912Y12910D02*
X14914Y12908D01*
X14934Y12889D02*
X14936Y12887D01*
X14961Y12868D02*
X14963Y12866D01*
X14902Y12761D02*
X15073D01*
X14881Y12740D02*
X15065D01*
X14863Y12719D02*
X15056D01*
X15004Y12277D02*
X15008Y12280D01*
X15059D01*
X15096Y12240D02*
X15117Y12220D01*
X15059Y12240D02*
X15096D01*
X14965Y12824D02*
X15065D01*
X14985Y12845D02*
X15056D01*
X14944Y12803D02*
X15073D01*
X15016Y12083D02*
X15059D01*
X15015Y12083D02*
X15016Y12083D01*
X15059Y12063D02*
X15106D01*
X15015Y12044D02*
X15059D01*
X15014Y12043D02*
X15015Y12044D01*
X15059Y12024D02*
X15107D01*
X15107Y12024D01*
X15106Y12063D02*
X15106Y12064D01*
X15915Y12009D02*
X15973D01*
X15899Y12039D02*
X15974D01*
X15872Y12100D02*
X15971D01*
X15900Y12068D02*
X15903Y12071D01*
X15974D01*
X15886Y12027D02*
X15899Y12039D01*
X15664Y13047D02*
X15700D01*
X15717Y13064D01*
Y13100D01*
X15664Y13028D02*
X15722D01*
X15746Y13052D01*
Y13129D01*
X15652Y12280D02*
X15717D01*
X15652Y12280D02*
X15652Y12280D01*
X15652Y12241D02*
X15746D01*
X15652Y12240D02*
X15652Y12241D01*
X15200Y12558D02*
Y12656D01*
X15198Y12556D02*
X15200Y12558D01*
X15220Y12559D02*
Y12628D01*
X15218Y12556D02*
X15220Y12559D01*
X14908Y10405D02*
X14951D01*
X14908Y10405D02*
X14908Y10405D01*
X14895Y10392D02*
X14908Y10405D01*
X14864Y10392D02*
X14895D01*
X14861Y10380D02*
Y10389D01*
Y10445D01*
Y10389D02*
X14864Y10392D01*
X15119Y11880D02*
X15131Y11869D01*
X15119Y11880D02*
Y11964D01*
X15913Y11942D02*
X15965D01*
X15912Y11943D02*
X15913Y11942D01*
X15999Y11886D02*
X16055Y11942D01*
X15912Y11886D02*
X15999D01*
X15206Y11787D02*
X15214Y11795D01*
X12410Y10261D02*
Y10295D01*
X12369Y10336D02*
X12410Y10295D01*
X12510Y10261D02*
Y10334D01*
X12509Y10335D02*
X12510Y10334D01*
X13209Y10331D02*
X13229D01*
X13250Y10310D01*
Y10261D02*
Y10310D01*
X13350Y10261D02*
Y10326D01*
X13349Y10327D02*
X13350Y10326D01*
X14034Y10343D02*
X14050D01*
X14013Y10321D02*
X14034Y10343D01*
X14013Y10289D02*
Y10321D01*
X14050Y10343D02*
X14069D01*
X14090Y10322D01*
Y10261D02*
Y10322D01*
X13388Y10289D02*
Y10324D01*
X13386Y10326D02*
X13388Y10324D01*
X13350Y10326D02*
X13386D01*
X13187Y10331D02*
X13209D01*
X13172Y10316D02*
X13187Y10331D01*
X13172Y10288D02*
Y10316D01*
X12547Y10288D02*
Y10323D01*
X12536Y10335D02*
X12547Y10323D01*
X12509Y10335D02*
X12536D01*
X12349Y10336D02*
X12369D01*
X12332Y10319D02*
X12349Y10336D01*
X11707Y10288D02*
Y10337D01*
X11704Y10340D02*
X11707Y10337D01*
X11670Y10340D02*
X11704D01*
X12332Y10288D02*
Y10319D01*
X12672Y10245D02*
Y10293D01*
X12797Y10245D02*
Y10293D01*
X12923Y10245D02*
Y10293D01*
X13047Y10245D02*
Y10293D01*
X13513Y10245D02*
Y10294D01*
X13638Y10245D02*
Y10294D01*
X13764Y10245D02*
Y10294D01*
X13888Y10245D02*
Y10294D01*
X11807Y10266D02*
Y10288D01*
X11704Y10285D02*
X11707Y10288D01*
X11704Y10269D02*
Y10285D01*
Y10269D02*
X11726Y10248D01*
X12318D02*
X12332Y10262D01*
X11757Y10248D02*
Y10288D01*
X11832Y10248D02*
Y10288D01*
X11726Y10248D02*
X11757D01*
X11832D02*
X11881D01*
X11932D01*
X11957D01*
X12008D01*
X12058D01*
X12083D01*
X12132D01*
X12183D01*
X12207D01*
X12257D01*
X11932D02*
Y10288D01*
X11957Y10248D02*
Y10288D01*
X12207Y10248D02*
Y10288D01*
X12132Y10248D02*
Y10288D01*
X12257Y10248D02*
Y10288D01*
Y10248D02*
X12306D01*
X12318D01*
X13388Y10267D02*
Y10289D01*
Y10267D02*
X13410Y10245D01*
X13990D01*
X14013Y10267D01*
Y10289D01*
X12547Y10266D02*
Y10288D01*
Y10266D02*
X12569Y10245D01*
X13151D01*
X13172Y10266D01*
Y10288D01*
X15127Y11456D02*
Y11506D01*
X15096Y11425D02*
X15127Y11456D01*
X15309Y11623D02*
X15394Y11708D01*
X15403D01*
X15090Y13240D02*
X15179D01*
X15344Y13075D01*
X15074Y13907D02*
X15122D01*
X15034Y13867D02*
X15074Y13907D01*
X15034Y13850D02*
Y13867D01*
X13558Y13885D02*
X13632D01*
X11197Y13896D02*
X11261D01*
X11262Y13897D01*
X10368Y13918D02*
X10465D01*
D11*
X15366Y13595D02*
D03*
X15698Y14009D02*
D03*
X15343Y12972D02*
D03*
X15700Y13310D02*
D03*
X14960Y12502D02*
D03*
X15028Y11956D02*
D03*
X15653Y11968D02*
D03*
X14842Y9993D02*
D03*
X10394Y10905D02*
D03*
X10408Y13675D02*
D03*
D12*
X15381Y10869D02*
D03*
X16120Y11302D02*
D03*
X16131Y10869D02*
D03*
D13*
X15626Y10960D02*
D03*
Y10779D02*
D03*
X15876Y11393D02*
D03*
Y11212D02*
D03*
X15886Y10960D02*
D03*
Y10779D02*
D03*
D14*
X15626Y10869D02*
D03*
X15876Y11302D02*
D03*
X15886Y10869D02*
D03*
D15*
X13323Y11113D02*
D03*
X13193D02*
D03*
X13705D02*
D03*
X13835D02*
D03*
X12437D02*
D03*
X12307D02*
D03*
X12819D02*
D03*
X12949D02*
D03*
X12437Y11684D02*
D03*
X12307D02*
D03*
X12819D02*
D03*
X12949D02*
D03*
X11552Y11684D02*
D03*
X11422D02*
D03*
X11933D02*
D03*
X12063D02*
D03*
X14209Y11113D02*
D03*
X14079D02*
D03*
X14591D02*
D03*
X14721D02*
D03*
X11552Y11113D02*
D03*
X11422D02*
D03*
X11933D02*
D03*
X12063D02*
D03*
X10666D02*
D03*
X10536D02*
D03*
X11048D02*
D03*
X11178D02*
D03*
X14209Y11684D02*
D03*
X14079D02*
D03*
X14591D02*
D03*
X14721D02*
D03*
X13323D02*
D03*
X13193D02*
D03*
X13705D02*
D03*
X13835D02*
D03*
X10666D02*
D03*
X10536D02*
D03*
X11048D02*
D03*
X11178D02*
D03*
X10594Y12873D02*
D03*
X10724D02*
D03*
X11104Y12973D02*
D03*
X11234D02*
D03*
X11178Y12275D02*
D03*
X11048D02*
D03*
X10536D02*
D03*
X10666D02*
D03*
X12949D02*
D03*
X12819D02*
D03*
X12307D02*
D03*
X12437D02*
D03*
X13835D02*
D03*
X13705D02*
D03*
X13193D02*
D03*
X13323D02*
D03*
X12739Y12873D02*
D03*
X12869D02*
D03*
X13249Y12973D02*
D03*
X13379D02*
D03*
X13812Y12873D02*
D03*
X13942D02*
D03*
X14322Y12973D02*
D03*
X14452D02*
D03*
X12063Y12275D02*
D03*
X11933D02*
D03*
X11422D02*
D03*
X11552D02*
D03*
X14721D02*
D03*
X14591D02*
D03*
X14079D02*
D03*
X14209D02*
D03*
X12307Y12973D02*
D03*
X12177D02*
D03*
X11797Y12873D02*
D03*
X11667D02*
D03*
D16*
X13603Y11258D02*
D03*
X13565Y11166D02*
D03*
X12717Y11258D02*
D03*
X12680Y11166D02*
D03*
X12717Y11829D02*
D03*
X12680Y11737D02*
D03*
X11831Y11829D02*
D03*
X11794Y11737D02*
D03*
X14489Y11258D02*
D03*
X14451Y11166D02*
D03*
X11831Y11258D02*
D03*
X11794Y11166D02*
D03*
X10945Y11258D02*
D03*
X10908Y11166D02*
D03*
X14489Y11829D02*
D03*
X14451Y11737D02*
D03*
X13603Y11829D02*
D03*
X13565Y11737D02*
D03*
X10945Y11829D02*
D03*
X10908Y11737D02*
D03*
X10999Y12802D02*
D03*
X10961Y12704D02*
D03*
X10849Y12802D02*
D03*
X10811Y12704D02*
D03*
X10881Y12927D02*
D03*
X10919Y13019D02*
D03*
X12072Y12802D02*
D03*
X12034Y12704D02*
D03*
X11922Y12802D02*
D03*
X11884Y12704D02*
D03*
X11954Y12927D02*
D03*
X11992Y13019D02*
D03*
X10908Y12327D02*
D03*
X10945Y12420D02*
D03*
X12680Y12327D02*
D03*
X12717Y12420D02*
D03*
X13565Y12327D02*
D03*
X13603Y12420D02*
D03*
X13144Y12802D02*
D03*
X13107Y12704D02*
D03*
X12994Y12802D02*
D03*
X12957Y12704D02*
D03*
X13027Y12927D02*
D03*
X13064Y13019D02*
D03*
X14217Y12802D02*
D03*
X14180Y12704D02*
D03*
X14067Y12802D02*
D03*
X14030Y12704D02*
D03*
X14100Y12927D02*
D03*
X14137Y13019D02*
D03*
X11794Y12327D02*
D03*
X11831Y12420D02*
D03*
X14451Y12327D02*
D03*
X14489Y12420D02*
D03*
D17*
X13640Y11166D02*
D03*
X12754D02*
D03*
X12754Y11737D02*
D03*
X11869Y11737D02*
D03*
X14526Y11166D02*
D03*
X11869D02*
D03*
X10983D02*
D03*
X14526Y11737D02*
D03*
X13640D02*
D03*
X10983D02*
D03*
X11036Y12704D02*
D03*
X10886D02*
D03*
X10956Y12927D02*
D03*
X12109Y12704D02*
D03*
X11959D02*
D03*
X12029Y12927D02*
D03*
X10983Y12327D02*
D03*
X12754D02*
D03*
X13640D02*
D03*
X13182Y12704D02*
D03*
X13032D02*
D03*
X13102Y12927D02*
D03*
X14255Y12704D02*
D03*
X14105D02*
D03*
X14175Y12927D02*
D03*
X11869Y12327D02*
D03*
X14526D02*
D03*
D18*
X13396Y11167D02*
D03*
Y11257D02*
D03*
X13475Y11167D02*
D03*
Y11257D02*
D03*
X12510Y11167D02*
D03*
Y11257D02*
D03*
X12589Y11167D02*
D03*
Y11257D02*
D03*
X12510Y11738D02*
D03*
Y11828D02*
D03*
X12589Y11738D02*
D03*
Y11828D02*
D03*
X11624Y11738D02*
D03*
Y11828D02*
D03*
X11703Y11738D02*
D03*
Y11828D02*
D03*
X14282Y11167D02*
D03*
Y11257D02*
D03*
X14361Y11167D02*
D03*
Y11257D02*
D03*
X11624Y11167D02*
D03*
Y11257D02*
D03*
X11703Y11167D02*
D03*
Y11257D02*
D03*
X10739Y11167D02*
D03*
Y11257D02*
D03*
X10817Y11167D02*
D03*
Y11257D02*
D03*
X14282Y11738D02*
D03*
Y11828D02*
D03*
X14361Y11738D02*
D03*
Y11828D02*
D03*
X13396Y11738D02*
D03*
Y11828D02*
D03*
X13475Y11738D02*
D03*
Y11828D02*
D03*
X10739Y11738D02*
D03*
Y11828D02*
D03*
X10817Y11738D02*
D03*
Y11828D02*
D03*
X10400Y10350D02*
D03*
Y10440D02*
D03*
X10465D02*
D03*
Y10350D02*
D03*
X10770Y10345D02*
D03*
Y10435D02*
D03*
X10835Y10435D02*
D03*
Y10345D02*
D03*
X15753Y10894D02*
D03*
Y10984D02*
D03*
Y10744D02*
D03*
Y10834D02*
D03*
X14741Y10215D02*
D03*
Y10305D02*
D03*
X15112Y11787D02*
D03*
Y11697D02*
D03*
X11029Y13018D02*
D03*
Y12928D02*
D03*
X10799Y13018D02*
D03*
Y12928D02*
D03*
X12102Y13018D02*
D03*
Y12928D02*
D03*
X11872Y13018D02*
D03*
Y12928D02*
D03*
X10817Y12418D02*
D03*
Y12328D02*
D03*
X10739Y12418D02*
D03*
Y12328D02*
D03*
X10965Y13354D02*
D03*
Y13444D02*
D03*
X10602Y13572D02*
D03*
Y13482D02*
D03*
X10965Y13650D02*
D03*
Y13560D02*
D03*
X10964Y13725D02*
D03*
Y13815D02*
D03*
X10601Y13739D02*
D03*
Y13649D02*
D03*
X10610Y13905D02*
D03*
Y13995D02*
D03*
X11752Y13354D02*
D03*
Y13444D02*
D03*
X11389Y13572D02*
D03*
Y13482D02*
D03*
X11752Y13650D02*
D03*
Y13560D02*
D03*
X11751Y13725D02*
D03*
Y13815D02*
D03*
X11388Y13739D02*
D03*
Y13649D02*
D03*
X11398Y13905D02*
D03*
Y13995D02*
D03*
X12540Y13354D02*
D03*
Y13444D02*
D03*
X12177Y13572D02*
D03*
Y13482D02*
D03*
X12540Y13650D02*
D03*
Y13560D02*
D03*
X12539Y13725D02*
D03*
Y13815D02*
D03*
X12175Y13739D02*
D03*
Y13649D02*
D03*
X12185Y13905D02*
D03*
Y13995D02*
D03*
X13327Y13354D02*
D03*
Y13444D02*
D03*
X12964Y13572D02*
D03*
Y13482D02*
D03*
X13327Y13650D02*
D03*
Y13560D02*
D03*
X13326Y13725D02*
D03*
Y13815D02*
D03*
X12963Y13739D02*
D03*
Y13649D02*
D03*
X12973Y13905D02*
D03*
Y13995D02*
D03*
X14114Y13354D02*
D03*
Y13444D02*
D03*
X13752Y13572D02*
D03*
Y13482D02*
D03*
X14114Y13650D02*
D03*
Y13560D02*
D03*
X14113Y13725D02*
D03*
Y13815D02*
D03*
X13750Y13739D02*
D03*
Y13649D02*
D03*
X13760Y13905D02*
D03*
Y13995D02*
D03*
X14902Y13650D02*
D03*
Y13560D02*
D03*
X14901Y13725D02*
D03*
Y13815D02*
D03*
X14538Y13739D02*
D03*
Y13649D02*
D03*
X14547Y13905D02*
D03*
Y13995D02*
D03*
X12589Y12418D02*
D03*
Y12328D02*
D03*
X12510Y12418D02*
D03*
Y12328D02*
D03*
X13475Y12418D02*
D03*
Y12328D02*
D03*
X13396Y12418D02*
D03*
Y12328D02*
D03*
X13174Y13018D02*
D03*
Y12928D02*
D03*
X12944Y13018D02*
D03*
Y12928D02*
D03*
X14247Y13018D02*
D03*
Y12928D02*
D03*
X14017Y13018D02*
D03*
Y12928D02*
D03*
X14902Y13444D02*
D03*
Y13354D02*
D03*
X14539Y13482D02*
D03*
Y13572D02*
D03*
X11703Y12418D02*
D03*
Y12328D02*
D03*
X11624Y12418D02*
D03*
Y12328D02*
D03*
X14361Y12418D02*
D03*
Y12328D02*
D03*
X14282Y12418D02*
D03*
Y12328D02*
D03*
D19*
X13611Y10960D02*
D03*
Y11010D02*
D03*
Y11060D02*
D03*
Y11110D02*
D03*
X13418Y10960D02*
D03*
Y11010D02*
D03*
Y11060D02*
D03*
Y11110D02*
D03*
X12725Y10960D02*
D03*
Y11010D02*
D03*
Y11060D02*
D03*
Y11110D02*
D03*
X12532Y10960D02*
D03*
Y11010D02*
D03*
Y11060D02*
D03*
Y11110D02*
D03*
X12725Y11531D02*
D03*
Y11581D02*
D03*
Y11631D02*
D03*
Y11681D02*
D03*
X12532Y11531D02*
D03*
Y11581D02*
D03*
Y11631D02*
D03*
Y11681D02*
D03*
X11839Y11531D02*
D03*
Y11581D02*
D03*
Y11631D02*
D03*
Y11681D02*
D03*
X11646Y11531D02*
D03*
Y11581D02*
D03*
Y11631D02*
D03*
Y11681D02*
D03*
X14496Y10960D02*
D03*
Y11010D02*
D03*
Y11060D02*
D03*
Y11110D02*
D03*
X14304Y10960D02*
D03*
Y11010D02*
D03*
Y11060D02*
D03*
Y11110D02*
D03*
X11839Y10960D02*
D03*
Y11010D02*
D03*
Y11060D02*
D03*
Y11110D02*
D03*
X11646Y10960D02*
D03*
Y11010D02*
D03*
Y11060D02*
D03*
Y11110D02*
D03*
X10953Y10960D02*
D03*
Y11010D02*
D03*
Y11060D02*
D03*
Y11110D02*
D03*
X10760Y10960D02*
D03*
Y11010D02*
D03*
Y11060D02*
D03*
Y11110D02*
D03*
X14496Y11531D02*
D03*
Y11581D02*
D03*
Y11631D02*
D03*
Y11681D02*
D03*
X14304Y11531D02*
D03*
Y11581D02*
D03*
Y11631D02*
D03*
Y11681D02*
D03*
X13611Y11531D02*
D03*
Y11581D02*
D03*
Y11631D02*
D03*
Y11681D02*
D03*
X13418Y11531D02*
D03*
Y11581D02*
D03*
Y11631D02*
D03*
Y11681D02*
D03*
X10953Y11531D02*
D03*
Y11581D02*
D03*
Y11631D02*
D03*
Y11681D02*
D03*
X10760Y11531D02*
D03*
Y11581D02*
D03*
Y11631D02*
D03*
Y11681D02*
D03*
X11132Y12848D02*
D03*
Y12798D02*
D03*
Y12748D02*
D03*
Y12698D02*
D03*
X11325Y12848D02*
D03*
Y12798D02*
D03*
Y12748D02*
D03*
Y12698D02*
D03*
X12205Y12848D02*
D03*
Y12798D02*
D03*
Y12748D02*
D03*
Y12698D02*
D03*
X12398Y12848D02*
D03*
Y12798D02*
D03*
Y12748D02*
D03*
Y12698D02*
D03*
X10760Y12271D02*
D03*
Y12221D02*
D03*
Y12171D02*
D03*
Y12121D02*
D03*
X10953Y12271D02*
D03*
Y12221D02*
D03*
Y12171D02*
D03*
Y12121D02*
D03*
X12532Y12271D02*
D03*
Y12221D02*
D03*
Y12171D02*
D03*
Y12121D02*
D03*
X12725Y12271D02*
D03*
Y12221D02*
D03*
Y12171D02*
D03*
Y12121D02*
D03*
X13418Y12271D02*
D03*
Y12221D02*
D03*
Y12171D02*
D03*
Y12121D02*
D03*
X13611Y12271D02*
D03*
Y12221D02*
D03*
Y12171D02*
D03*
Y12121D02*
D03*
X13278Y12848D02*
D03*
Y12798D02*
D03*
Y12748D02*
D03*
Y12698D02*
D03*
X13471Y12848D02*
D03*
Y12798D02*
D03*
Y12748D02*
D03*
Y12698D02*
D03*
X14351Y12848D02*
D03*
Y12798D02*
D03*
Y12748D02*
D03*
Y12698D02*
D03*
X14544Y12848D02*
D03*
Y12798D02*
D03*
Y12748D02*
D03*
Y12698D02*
D03*
X11646Y12271D02*
D03*
Y12221D02*
D03*
Y12171D02*
D03*
Y12121D02*
D03*
X11839Y12271D02*
D03*
Y12221D02*
D03*
Y12171D02*
D03*
Y12121D02*
D03*
X14304Y12271D02*
D03*
Y12221D02*
D03*
Y12171D02*
D03*
Y12121D02*
D03*
X14496Y12271D02*
D03*
Y12221D02*
D03*
Y12171D02*
D03*
Y12121D02*
D03*
D20*
X13268Y11232D02*
D03*
X12382D02*
D03*
Y11802D02*
D03*
X11496Y11802D02*
D03*
X14154Y11232D02*
D03*
X11496D02*
D03*
X10611D02*
D03*
X14154Y11802D02*
D03*
X13268D02*
D03*
X10611D02*
D03*
X13887Y13003D02*
D03*
X12814D02*
D03*
X13268Y12393D02*
D03*
X12382D02*
D03*
X10611D02*
D03*
X11742Y13003D02*
D03*
X10669D02*
D03*
X15623Y11054D02*
D03*
X15883Y10689D02*
D03*
X10440Y10535D02*
D03*
X10810Y10530D02*
D03*
X11496Y12393D02*
D03*
X14154D02*
D03*
X10640Y13188D02*
D03*
X14318Y13283D02*
D03*
X15127Y11506D02*
D03*
X15392Y11681D02*
D03*
X14495Y10547D02*
D03*
X11213Y13201D02*
D03*
D21*
X15532Y13793D02*
D03*
X15523Y13116D02*
D03*
D22*
X15423Y13934D02*
D03*
X15443D02*
D03*
X15463D02*
D03*
X15483D02*
D03*
X15502D02*
D03*
X15522D02*
D03*
X15542D02*
D03*
X15561D02*
D03*
X15581D02*
D03*
X15601D02*
D03*
X15620D02*
D03*
X15640D02*
D03*
Y13652D02*
D03*
X15620D02*
D03*
X15581D02*
D03*
X15561D02*
D03*
X15542D02*
D03*
X15522D02*
D03*
X15502D02*
D03*
X15483D02*
D03*
X15463D02*
D03*
X15443D02*
D03*
X15423D02*
D03*
X15414Y13257D02*
D03*
X15434D02*
D03*
X15454D02*
D03*
X15474D02*
D03*
X15493D02*
D03*
X15513D02*
D03*
X15533D02*
D03*
X15552D02*
D03*
X15572D02*
D03*
X15592D02*
D03*
X15611D02*
D03*
X15631D02*
D03*
Y12976D02*
D03*
X15611D02*
D03*
X15592D02*
D03*
X15572D02*
D03*
X15552D02*
D03*
X15533D02*
D03*
X15513D02*
D03*
X15493D02*
D03*
X15474D02*
D03*
X15454D02*
D03*
X15434D02*
D03*
X15414D02*
D03*
X15601Y13652D02*
D03*
D23*
X15673Y13901D02*
D03*
Y13882D02*
D03*
Y13862D02*
D03*
Y13842D02*
D03*
Y13823D02*
D03*
Y13803D02*
D03*
Y13783D02*
D03*
Y13763D02*
D03*
Y13744D02*
D03*
Y13724D02*
D03*
Y13704D02*
D03*
Y13685D02*
D03*
X15391Y13704D02*
D03*
Y13724D02*
D03*
Y13744D02*
D03*
Y13763D02*
D03*
Y13783D02*
D03*
Y13803D02*
D03*
Y13823D02*
D03*
Y13842D02*
D03*
Y13862D02*
D03*
Y13882D02*
D03*
Y13901D02*
D03*
X15664Y13225D02*
D03*
Y13205D02*
D03*
Y13185D02*
D03*
Y13165D02*
D03*
Y13146D02*
D03*
Y13126D02*
D03*
Y13106D02*
D03*
Y13087D02*
D03*
Y13067D02*
D03*
Y13047D02*
D03*
Y13028D02*
D03*
Y13008D02*
D03*
X15382D02*
D03*
Y13028D02*
D03*
Y13047D02*
D03*
Y13067D02*
D03*
Y13087D02*
D03*
Y13106D02*
D03*
Y13126D02*
D03*
Y13146D02*
D03*
Y13165D02*
D03*
Y13185D02*
D03*
Y13205D02*
D03*
Y13225D02*
D03*
X15391Y13685D02*
D03*
D24*
X13337Y13950D02*
D03*
X11762D02*
D03*
X10975D02*
D03*
X12549D02*
D03*
X14124D02*
D03*
X14912D02*
D03*
X14538Y13358D02*
D03*
X13750D02*
D03*
X12963D02*
D03*
X12175D02*
D03*
X11388D02*
D03*
X10601D02*
D03*
X16100Y11680D02*
D03*
X15528Y11292D02*
D03*
X15090Y13240D02*
D03*
X11197Y13896D02*
D03*
X13558Y13885D02*
D03*
X15122Y13907D02*
D03*
X10465Y13918D02*
D03*
D25*
X14725Y13983D02*
D03*
X10788Y13326D02*
D03*
Y13983D02*
D03*
X11575Y13326D02*
D03*
Y13983D02*
D03*
X12362Y13326D02*
D03*
Y13983D02*
D03*
X13150Y13326D02*
D03*
Y13983D02*
D03*
X13937Y13326D02*
D03*
Y13983D02*
D03*
X14725Y13326D02*
D03*
D26*
X14815Y13739D02*
D03*
X14634D02*
D03*
X10878Y13570D02*
D03*
X10697D02*
D03*
Y13739D02*
D03*
X10878D02*
D03*
X11666Y13570D02*
D03*
X11484D02*
D03*
Y13739D02*
D03*
X11666D02*
D03*
X12453Y13570D02*
D03*
X12272D02*
D03*
Y13739D02*
D03*
X12453D02*
D03*
X13240Y13570D02*
D03*
X13059D02*
D03*
Y13739D02*
D03*
X13240D02*
D03*
X14028Y13570D02*
D03*
X13847D02*
D03*
Y13739D02*
D03*
X14028D02*
D03*
X14815Y13570D02*
D03*
X14634D02*
D03*
D27*
X14725Y13739D02*
D03*
X10788Y13570D02*
D03*
Y13739D02*
D03*
X11575Y13570D02*
D03*
Y13739D02*
D03*
X12362Y13570D02*
D03*
Y13739D02*
D03*
X13150Y13570D02*
D03*
Y13739D02*
D03*
X13937Y13570D02*
D03*
Y13739D02*
D03*
X14725Y13570D02*
D03*
D28*
X11670Y10261D02*
D03*
X12410D02*
D03*
X12510D02*
D03*
X13250D02*
D03*
X13350D02*
D03*
X14090D02*
D03*
D29*
X14013Y10289D02*
D03*
X13988D02*
D03*
X13963D02*
D03*
X13938D02*
D03*
X13913D02*
D03*
X13888D02*
D03*
X13863D02*
D03*
X13838D02*
D03*
X13813D02*
D03*
X13788D02*
D03*
X13763D02*
D03*
X13738D02*
D03*
X13713D02*
D03*
X13688D02*
D03*
X13663D02*
D03*
X13638D02*
D03*
X13613D02*
D03*
X13588D02*
D03*
X13563D02*
D03*
X13538D02*
D03*
X13513D02*
D03*
X13488D02*
D03*
X13463D02*
D03*
X13438D02*
D03*
X13413D02*
D03*
X13388D02*
D03*
X13172Y10288D02*
D03*
X13147D02*
D03*
X13122D02*
D03*
X13097D02*
D03*
X13072D02*
D03*
X13047D02*
D03*
X13022D02*
D03*
X12997D02*
D03*
X12972D02*
D03*
X12947D02*
D03*
X12922D02*
D03*
X12897D02*
D03*
X12872D02*
D03*
X12847D02*
D03*
X12822D02*
D03*
X12797D02*
D03*
X12772D02*
D03*
X12747D02*
D03*
X12722D02*
D03*
X12697D02*
D03*
X12672D02*
D03*
X12647D02*
D03*
X12622D02*
D03*
X12597D02*
D03*
X12572D02*
D03*
X12547D02*
D03*
X12332D02*
D03*
X12307D02*
D03*
X12282D02*
D03*
X12257D02*
D03*
X12232D02*
D03*
X12207D02*
D03*
X12182D02*
D03*
X12157D02*
D03*
X12132D02*
D03*
X12107D02*
D03*
X12082D02*
D03*
X12057D02*
D03*
X12032D02*
D03*
X12007D02*
D03*
X11982D02*
D03*
X11957D02*
D03*
X11932D02*
D03*
X11907D02*
D03*
X11882D02*
D03*
X11857D02*
D03*
X11832D02*
D03*
X11807D02*
D03*
X11782D02*
D03*
X11757D02*
D03*
X11732D02*
D03*
X11707D02*
D03*
D30*
X11416Y10279D02*
D03*
X11495D02*
D03*
X14226Y10279D02*
D03*
X14305D02*
D03*
D31*
X16020Y11775D02*
D03*
X15930D02*
D03*
X15930Y11580D02*
D03*
X16020D02*
D03*
X16020Y11645D02*
D03*
X15930D02*
D03*
X16020Y11710D02*
D03*
X15930D02*
D03*
X16055Y11942D02*
D03*
X15965D02*
D03*
X11314Y12913D02*
D03*
X11404D02*
D03*
X10704Y12773D02*
D03*
X10614D02*
D03*
X11404Y12993D02*
D03*
X11314D02*
D03*
X10614Y12703D02*
D03*
X10704D02*
D03*
X12387Y12913D02*
D03*
X12477D02*
D03*
X11777Y12773D02*
D03*
X11687D02*
D03*
X13459Y12913D02*
D03*
X13549D02*
D03*
X12849Y12773D02*
D03*
X12759D02*
D03*
X13549Y12993D02*
D03*
X13459D02*
D03*
X12759Y12703D02*
D03*
X12849D02*
D03*
X14532Y12913D02*
D03*
X14622D02*
D03*
X13922Y12773D02*
D03*
X13832D02*
D03*
X14622Y12993D02*
D03*
X14532D02*
D03*
X13832Y12703D02*
D03*
X13922D02*
D03*
X11777D02*
D03*
X11687D02*
D03*
X12387Y12993D02*
D03*
X12477D02*
D03*
X14861Y10445D02*
D03*
X14771D02*
D03*
X14861Y10380D02*
D03*
X14771D02*
D03*
D32*
X14951Y10405D02*
D03*
Y10295D02*
D03*
X14322Y10574D02*
D03*
Y10684D02*
D03*
X14194Y10574D02*
D03*
Y10684D02*
D03*
D33*
X11506Y10821D02*
D03*
Y10591D02*
D03*
D34*
X15119Y12556D02*
D03*
X15139D02*
D03*
X15159D02*
D03*
X15179D02*
D03*
X15198D02*
D03*
X15218D02*
D03*
X15238D02*
D03*
X15257D02*
D03*
X15277D02*
D03*
X15297D02*
D03*
X15316D02*
D03*
X15336D02*
D03*
X15356D02*
D03*
X15375D02*
D03*
X15395D02*
D03*
X15415D02*
D03*
X15434D02*
D03*
X15454D02*
D03*
X15474D02*
D03*
X15493D02*
D03*
X15513D02*
D03*
X15533D02*
D03*
X15553D02*
D03*
X15572D02*
D03*
X15592D02*
D03*
Y11964D02*
D03*
X15572D02*
D03*
X15553D02*
D03*
X15533D02*
D03*
X15513D02*
D03*
X15493D02*
D03*
X15474D02*
D03*
X15454D02*
D03*
X15434D02*
D03*
X15415D02*
D03*
X15395D02*
D03*
X15375D02*
D03*
X15356D02*
D03*
X15336D02*
D03*
X15316D02*
D03*
X15297D02*
D03*
X15277D02*
D03*
X15257D02*
D03*
X15238D02*
D03*
X15218D02*
D03*
X15198D02*
D03*
X15179D02*
D03*
X15159D02*
D03*
X15139D02*
D03*
X15119D02*
D03*
D35*
X15652Y12496D02*
D03*
Y12477D02*
D03*
Y12457D02*
D03*
Y12437D02*
D03*
Y12418D02*
D03*
Y12398D02*
D03*
Y12378D02*
D03*
Y12359D02*
D03*
Y12339D02*
D03*
Y12319D02*
D03*
Y12300D02*
D03*
Y12280D02*
D03*
Y12260D02*
D03*
Y12240D02*
D03*
Y12221D02*
D03*
Y12201D02*
D03*
Y12181D02*
D03*
Y12162D02*
D03*
Y12142D02*
D03*
Y12122D02*
D03*
Y12103D02*
D03*
Y12083D02*
D03*
Y12063D02*
D03*
Y12044D02*
D03*
Y12024D02*
D03*
X15059D02*
D03*
Y12044D02*
D03*
Y12063D02*
D03*
Y12083D02*
D03*
Y12103D02*
D03*
Y12122D02*
D03*
Y12142D02*
D03*
Y12162D02*
D03*
Y12181D02*
D03*
Y12201D02*
D03*
Y12221D02*
D03*
Y12240D02*
D03*
Y12260D02*
D03*
Y12280D02*
D03*
Y12300D02*
D03*
Y12319D02*
D03*
Y12339D02*
D03*
Y12359D02*
D03*
Y12378D02*
D03*
Y12398D02*
D03*
Y12418D02*
D03*
Y12437D02*
D03*
Y12457D02*
D03*
Y12477D02*
D03*
Y12496D02*
D03*
D36*
X10920Y10341D02*
D03*
X10970D02*
D03*
X11020D02*
D03*
X11070D02*
D03*
X10920Y10530D02*
D03*
X10970D02*
D03*
X11020D02*
D03*
X11070D02*
D03*
X15720Y11580D02*
D03*
X15770D02*
D03*
X15820D02*
D03*
X15870D02*
D03*
X15720Y11769D02*
D03*
X15770D02*
D03*
X15820D02*
D03*
X15870D02*
D03*
X15623Y11203D02*
D03*
X15673D02*
D03*
X15723D02*
D03*
X15773D02*
D03*
X15623Y11392D02*
D03*
X15673D02*
D03*
X15723D02*
D03*
X15773D02*
D03*
X10550Y10346D02*
D03*
X10600D02*
D03*
X10650D02*
D03*
X10700D02*
D03*
X10550Y10535D02*
D03*
X10600D02*
D03*
X10650D02*
D03*
X10700D02*
D03*
D37*
X16051Y12102D02*
D03*
Y12071D02*
D03*
Y12039D02*
D03*
Y12008D02*
D03*
X15974D02*
D03*
Y12039D02*
D03*
Y12071D02*
D03*
Y12102D02*
D03*
D38*
X14878Y10298D02*
D03*
X14804D02*
D03*
X14841D02*
D03*
D39*
X14878Y10212D02*
D03*
X14804D02*
D03*
D40*
X15267Y10680D02*
D03*
Y10730D02*
D03*
Y10780D02*
D03*
Y10830D02*
D03*
Y10880D02*
D03*
Y10930D02*
D03*
Y10980D02*
D03*
Y11030D02*
D03*
X15062Y10680D02*
D03*
Y10730D02*
D03*
Y10780D02*
D03*
Y10830D02*
D03*
Y10880D02*
D03*
Y10930D02*
D03*
Y10980D02*
D03*
Y11030D02*
D03*
D41*
X11504Y10512D02*
X11506Y10514D01*
X11504Y10512D02*
X11530D01*
X11410D02*
X11504D01*
X11506Y10514D02*
Y10591D01*
X11530Y10512D02*
X11582Y10460D01*
X11427Y10742D02*
X11506Y10821D01*
X11427Y10742D02*
Y10742D01*
X14305Y10279D02*
Y10363D01*
X14321Y10380D01*
X14226Y10279D02*
Y10370D01*
X14191Y10405D02*
X14226Y10370D01*
X14321Y10380D02*
Y10445D01*
Y10574D01*
Y10445D02*
X14376D01*
X14191Y10405D02*
Y10455D01*
Y10574D01*
X11416Y10279D02*
Y10390D01*
X11416Y10391D01*
X11495Y10279D02*
X11582Y10366D01*
Y10460D01*
X14191Y10455D02*
X14231D01*
X15112Y11787D02*
X15206D01*
X15112Y11697D02*
X15212D01*
X15214Y11695D01*
X11629Y10415D02*
X11670Y10374D01*
Y10261D02*
Y10340D01*
Y10374D01*
D42*
X14384Y10631D02*
Y10663D01*
X14363Y10684D02*
X14384Y10663D01*
X14322Y10684D02*
X14363D01*
X14194Y10689D02*
X14307D01*
X10650Y10388D02*
X10671Y10409D01*
X10650Y10346D02*
Y10388D01*
X15878Y11360D02*
X15905D01*
X15978Y11287D01*
X15878Y11354D02*
Y11360D01*
X16007Y11287D02*
X16046Y11326D01*
X15978Y11287D02*
X16007D01*
X10805Y10535D02*
X10810Y10530D01*
X10835Y10505D01*
X10630Y10435D02*
X10770D01*
X10600Y10465D02*
X10630Y10435D01*
X14137Y13019D02*
X14137D01*
X14108D02*
X14137D01*
X13355Y12415D02*
X13392D01*
X13570Y12465D02*
X13603Y12432D01*
Y12420D02*
Y12432D01*
X14241Y11253D02*
X14278D01*
X12950Y11409D02*
X12950Y11409D01*
X12949Y11409D02*
X12950D01*
X12949D02*
Y11684D01*
Y11113D02*
Y11409D01*
X14241Y12415D02*
X14278D01*
X14241Y11824D02*
X14278D01*
X13192Y11487D02*
Y11683D01*
Y11115D02*
Y11487D01*
X12306Y11434D02*
Y11683D01*
Y11115D02*
Y11434D01*
X11420D02*
Y11683D01*
Y11115D02*
Y11434D01*
X10534Y11430D02*
Y11683D01*
Y11115D02*
Y11430D01*
X10697Y11824D02*
X10735D01*
X10697Y11253D02*
X10735D01*
X10534Y11115D02*
X10536Y11113D01*
X10534Y11683D02*
X10536Y11684D01*
X11583Y11824D02*
X11621D01*
X11583Y11253D02*
X11621D01*
X11420Y11115D02*
X11422Y11113D01*
X11420Y11683D02*
X11422Y11684D01*
X12469Y11824D02*
X12507D01*
X12469Y11253D02*
X12507D01*
X12306Y11115D02*
X12307Y11113D01*
X12306Y11683D02*
X12307Y11684D01*
X13355Y11824D02*
X13392D01*
X13355Y11253D02*
X13392D01*
X13192Y11115D02*
X13193Y11113D01*
X13192Y11683D02*
X13193Y11684D01*
X11176Y11380D02*
X11178Y11381D01*
Y11382D01*
Y11684D01*
Y11113D02*
Y11382D01*
X12063Y11384D02*
X12064Y11384D01*
X12063Y11384D02*
Y11388D01*
Y11684D01*
Y11113D02*
Y11388D01*
X13835Y11113D02*
X13846Y11125D01*
Y11446D01*
X13835Y11457D02*
X13846Y11446D01*
X13835Y11457D02*
Y11684D01*
X14658Y12949D02*
Y13055D01*
X14622Y12913D02*
X14658Y12949D01*
X14532Y12993D02*
Y13055D01*
X13583Y13062D02*
X13583Y13061D01*
Y12959D02*
Y13061D01*
X13549Y12925D02*
X13583Y12959D01*
X13549Y12913D02*
Y12925D01*
X13459Y13058D02*
X13460Y13059D01*
X13459Y12993D02*
Y13058D01*
X12515Y12952D02*
Y13061D01*
X12477Y12913D02*
X12515Y12952D01*
X12387Y13063D02*
X12387Y13064D01*
X12387Y12993D02*
Y13063D01*
X11454Y12963D02*
Y13056D01*
X11404Y12913D02*
X11454Y12963D01*
X11313Y13065D02*
X11314Y13064D01*
Y12993D02*
Y13064D01*
X12332Y12748D02*
X12398D01*
X12132D02*
X12205D01*
X12027Y12924D02*
X12029Y12927D01*
X12401Y12913D02*
X12456Y12857D01*
X12387Y12913D02*
X12401D01*
X12443Y12825D02*
X12456Y12838D01*
Y12857D01*
X12289Y12825D02*
X12443D01*
X12262Y12798D02*
X12289Y12825D01*
X12205Y12798D02*
X12262D01*
X11777Y12703D02*
Y12773D01*
X11687Y12677D02*
Y12703D01*
X11664Y12655D02*
X11687Y12677D01*
X12477Y12978D02*
Y12993D01*
X12431Y12947D02*
X12477Y12993D01*
X12358Y12947D02*
X12431D01*
X12346Y12935D02*
X12358Y12947D01*
X12346Y12926D02*
Y12935D01*
X12343Y12923D02*
X12346Y12926D01*
X12343Y12903D02*
Y12923D01*
X11797Y12873D02*
X11977D01*
X11787Y12863D02*
X11797Y12873D01*
X11752Y12863D02*
X11787D01*
X12307Y12973D02*
X12307Y12973D01*
X12307Y12908D02*
Y12973D01*
X12177D02*
X12177Y12973D01*
X12072Y12802D02*
Y12858D01*
X12044Y12830D02*
X12072Y12802D01*
X12072Y12802D01*
X11844Y12830D02*
X12044D01*
X11836Y12821D02*
X11844Y12830D01*
X11735Y12821D02*
X11836D01*
X11687Y12773D02*
X11735Y12821D01*
X11912Y12733D02*
X11927D01*
X11884Y12705D02*
X11912Y12733D01*
X11884Y12704D02*
Y12705D01*
X12102Y12928D02*
X12152Y12878D01*
X12277D01*
X12327Y12848D02*
X12398D01*
X12277Y12878D02*
X12307Y12848D01*
X12327D01*
X12517Y12718D02*
Y12868D01*
X12497Y12698D02*
X12517Y12718D01*
X12398Y12698D02*
X12497D01*
X12119Y13036D02*
X12153D01*
X12102Y13018D02*
X12119Y13036D01*
X12102Y13018D02*
X12111Y13027D01*
X12045Y13018D02*
X12102D01*
X11954Y12927D02*
X12045Y13018D01*
X11963Y13019D02*
X11992D01*
X11872Y12928D02*
X11963Y13019D01*
X11872Y12928D02*
X11906Y12894D01*
X11991D01*
X11758Y12925D02*
X11869D01*
X11872Y12928D01*
X12029Y12855D02*
X12102Y12928D01*
X11991Y12894D02*
X12029Y12855D01*
X11706Y12873D02*
X11758Y12925D01*
X11667Y12873D02*
X11706D01*
X11827Y12973D02*
X11872Y13018D01*
X11827Y12953D02*
Y12973D01*
X12177Y12913D02*
Y12973D01*
X12027Y12888D02*
Y12924D01*
X11892Y12773D02*
X11922Y12802D01*
X11892Y12767D02*
Y12773D01*
X11975Y12763D02*
X12034Y12704D01*
X11892Y12767D02*
X11897Y12763D01*
X11975D01*
X11742Y12943D02*
Y13003D01*
X11722Y12923D02*
X11742Y12943D01*
X11777Y12773D02*
X11892D01*
X13404Y12748D02*
X13471D01*
X13204D02*
X13278D01*
X13099Y12924D02*
X13102Y12927D01*
X13473Y12913D02*
X13529Y12857D01*
X13459Y12913D02*
X13473D01*
X13516Y12825D02*
X13529Y12838D01*
Y12857D01*
X13362Y12825D02*
X13516D01*
X13334Y12798D02*
X13362Y12825D01*
X13278Y12798D02*
X13334D01*
X12849Y12703D02*
Y12773D01*
X12759Y12677D02*
Y12703D01*
X12737Y12655D02*
X12759Y12677D01*
X13549Y12978D02*
Y12993D01*
X13503Y12947D02*
X13549Y12993D01*
X13431Y12947D02*
X13503D01*
X13418Y12935D02*
X13431Y12947D01*
X13418Y12926D02*
Y12935D01*
X13415Y12923D02*
X13418Y12926D01*
X13415Y12903D02*
Y12923D01*
X12869Y12873D02*
X13049D01*
X12859Y12863D02*
X12869Y12873D01*
X12824Y12863D02*
X12859D01*
X13379Y12973D02*
X13379Y12973D01*
X13379Y12908D02*
Y12973D01*
X13249D02*
X13249Y12973D01*
X13144Y12802D02*
Y12858D01*
X13117Y12830D02*
X13144Y12802D01*
X13144Y12802D01*
X12917Y12830D02*
X13117D01*
X12908Y12821D02*
X12917Y12830D01*
X12807Y12821D02*
X12908D01*
X12759Y12773D02*
X12807Y12821D01*
X12984Y12733D02*
X12999D01*
X12957Y12705D02*
X12984Y12733D01*
X12957Y12704D02*
Y12705D01*
X13174Y12928D02*
X13224Y12878D01*
X13349D01*
X13399Y12848D02*
X13471D01*
X13349Y12878D02*
X13379Y12848D01*
X13399D01*
X13589Y12718D02*
Y12868D01*
X13569Y12698D02*
X13589Y12718D01*
X13471Y12698D02*
X13569D01*
X13192Y13036D02*
X13226D01*
X13174Y13018D02*
X13192Y13036D01*
X13174Y13018D02*
X13183Y13027D01*
X13118Y13018D02*
X13174D01*
X13027Y12927D02*
X13118Y13018D01*
X13036Y13019D02*
X13064D01*
X12944Y12928D02*
X13036Y13019D01*
X12944Y12928D02*
X12978Y12894D01*
X13063D01*
X12830Y12925D02*
X12941D01*
X12944Y12928D01*
X13102Y12855D02*
X13174Y12928D01*
X13063Y12894D02*
X13102Y12855D01*
X12778Y12873D02*
X12830Y12925D01*
X12739Y12873D02*
X12778D01*
X12899Y12973D02*
X12944Y13018D01*
X12899Y12953D02*
Y12973D01*
X13249Y12913D02*
Y12973D01*
X13099Y12888D02*
Y12924D01*
X12965Y12773D02*
X12994Y12802D01*
X12965Y12767D02*
Y12773D01*
X13048Y12763D02*
X13107Y12704D01*
X12965Y12767D02*
X12969Y12763D01*
X13048D01*
X12814Y12943D02*
Y13003D01*
X12794Y12923D02*
X12814Y12943D01*
X12849Y12773D02*
X12965D01*
X14477Y12748D02*
X14544D01*
X14277D02*
X14351D01*
X14172Y12924D02*
X14175Y12927D01*
X14532Y12913D02*
X14546D01*
X14588Y12825D02*
X14602Y12838D01*
X14434Y12825D02*
X14588D01*
X14407Y12798D02*
X14434Y12825D01*
X14351Y12798D02*
X14407D01*
X13922Y12703D02*
Y12773D01*
X13832Y12677D02*
Y12703D01*
X13810Y12655D02*
X13832Y12677D01*
X14622Y12978D02*
Y12993D01*
X14576Y12947D02*
X14622Y12993D01*
X14503Y12947D02*
X14576D01*
X14491Y12935D02*
X14503Y12947D01*
X14491Y12926D02*
Y12935D01*
X14488Y12923D02*
X14491Y12926D01*
X14488Y12903D02*
Y12923D01*
X13942Y12873D02*
X14122D01*
X13932Y12863D02*
X13942Y12873D01*
X13897Y12863D02*
X13932D01*
X14452Y12973D02*
X14452Y12973D01*
X14452Y12908D02*
Y12973D01*
X14322D02*
X14322Y12973D01*
X14217Y12802D02*
Y12858D01*
X14189Y12830D02*
X14217Y12802D01*
X14217Y12802D01*
X13990Y12830D02*
X14189D01*
X13981Y12821D02*
X13990Y12830D01*
X13880Y12821D02*
X13981D01*
X13832Y12773D02*
X13880Y12821D01*
X14057Y12733D02*
X14072D01*
X14030Y12705D02*
X14057Y12733D01*
X14030Y12704D02*
Y12705D01*
X14247Y12928D02*
X14297Y12878D01*
X14422D01*
X14472Y12848D02*
X14544D01*
X14422Y12878D02*
X14452Y12848D01*
X14472D01*
X14265Y13036D02*
X14299D01*
X14247Y13018D02*
X14265Y13036D01*
X14247Y13018D02*
X14256Y13027D01*
X14191Y13018D02*
X14247D01*
X14100Y12927D02*
X14191Y13018D01*
X14017Y12928D02*
X14108Y13019D01*
X14017Y12928D02*
X14051Y12894D01*
X14136D01*
X13903Y12925D02*
X14014D01*
X14017Y12928D01*
X14175Y12855D02*
X14247Y12928D01*
X14136Y12894D02*
X14175Y12855D01*
X13851Y12873D02*
X13903Y12925D01*
X13812Y12873D02*
X13851D01*
X13972Y12973D02*
X14017Y13018D01*
X13972Y12953D02*
Y12973D01*
X14322Y12913D02*
Y12973D01*
X14172Y12888D02*
Y12924D01*
X14038Y12773D02*
X14067Y12802D01*
X14038Y12767D02*
Y12773D01*
X14121Y12763D02*
X14180Y12704D01*
X14038Y12767D02*
X14042Y12763D01*
X14121D01*
X13887Y12943D02*
Y13003D01*
X13867Y12923D02*
X13887Y12943D01*
X13922Y12773D02*
X14038D01*
X11046Y13036D02*
X11080D01*
X11029Y13018D02*
X11046Y13036D01*
X11029Y13018D02*
X11038Y13027D01*
X12156Y10350D02*
X12157Y10349D01*
Y10288D02*
Y10349D01*
X12231Y10350D02*
X12232Y10349D01*
Y10288D02*
Y10349D01*
X14863Y13482D02*
X14902Y13444D01*
X14855Y13482D02*
X14863D01*
X14752Y13354D02*
X14902D01*
X14540Y13482D02*
X14595D01*
X14539Y13482D02*
X14540Y13482D01*
X14539Y13572D02*
X14541Y13570D01*
X14899Y13820D02*
X14902Y13818D01*
X14849Y13820D02*
X14899D01*
X14890Y13739D02*
X14902Y13728D01*
X14547Y13995D02*
X14713D01*
X14602Y13872D02*
X14603Y13873D01*
X14580Y13872D02*
X14602D01*
X14547Y13905D02*
X14580Y13872D01*
X14678Y13649D02*
X14678Y13650D01*
X14538Y13649D02*
X14678D01*
X14538D02*
X14541Y13652D01*
X14538Y13649D02*
X14544Y13656D01*
X14538Y13640D02*
Y13649D01*
X14591Y13792D02*
Y13818D01*
X14538Y13739D02*
X14591Y13792D01*
X14634Y13506D02*
X14646Y13494D01*
X14669D01*
X14634Y13506D02*
Y13570D01*
X14541D02*
X14634D01*
X14862Y13582D02*
Y13609D01*
X14850Y13570D02*
X14862Y13582D01*
X14815Y13570D02*
X14850D01*
X14815Y13739D02*
X14890D01*
X14780Y13775D02*
X14815Y13739D01*
X14780Y13775D02*
Y13815D01*
X14634Y13739D02*
X14681D01*
X14912Y13919D02*
X14956Y13875D01*
Y13782D02*
Y13875D01*
X14902Y13728D02*
X14956Y13782D01*
X14912Y13919D02*
Y13950D01*
X14493Y13526D02*
X14539Y13572D01*
X14493Y13437D02*
X14538Y13393D01*
X14493Y13437D02*
Y13526D01*
X14538Y13359D02*
Y13393D01*
X14076Y13482D02*
X14114Y13444D01*
X14068Y13482D02*
X14076D01*
X13965Y13354D02*
X14114D01*
X13752Y13482D02*
X13807D01*
X13752Y13482D02*
X13752Y13482D01*
X13752Y13572D02*
X13753Y13570D01*
X14112Y13820D02*
X14114Y13818D01*
X14061Y13820D02*
X14112D01*
X14103Y13739D02*
X14114Y13728D01*
X13760Y13995D02*
X13926D01*
X13814Y13872D02*
X13815Y13873D01*
X13793Y13872D02*
X13814D01*
X13760Y13905D02*
X13793Y13872D01*
X13890Y13649D02*
X13891Y13650D01*
X13750Y13649D02*
X13890D01*
X13750D02*
X13753Y13652D01*
X13750Y13649D02*
X13757Y13656D01*
X13750Y13640D02*
Y13649D01*
X13803Y13792D02*
Y13818D01*
X13750Y13739D02*
X13803Y13792D01*
X13847Y13506D02*
X13858Y13494D01*
X13882D01*
X13847Y13506D02*
Y13570D01*
X13753D02*
X13847D01*
X14074Y13582D02*
Y13609D01*
X14062Y13570D02*
X14074Y13582D01*
X14028Y13570D02*
X14062D01*
X14028Y13739D02*
X14103D01*
X13992Y13775D02*
X14028Y13739D01*
X13992Y13775D02*
Y13815D01*
X13847Y13739D02*
X13894D01*
X14124Y13919D02*
X14168Y13875D01*
Y13782D02*
Y13875D01*
X14114Y13728D02*
X14168Y13782D01*
X14124Y13919D02*
Y13950D01*
X13706Y13526D02*
X13752Y13572D01*
X13706Y13437D02*
X13750Y13393D01*
X13706Y13437D02*
Y13526D01*
X13750Y13359D02*
Y13393D01*
X13288Y13482D02*
X13327Y13444D01*
X13281Y13482D02*
X13288D01*
X13178Y13354D02*
X13327D01*
X12965Y13482D02*
X13020D01*
X12964Y13482D02*
X12965Y13482D01*
X12964Y13572D02*
X12966Y13570D01*
X13325Y13820D02*
X13327Y13818D01*
X13274Y13820D02*
X13325D01*
X13315Y13739D02*
X13327Y13728D01*
X12973Y13995D02*
X13138D01*
X13027Y13872D02*
X13028Y13873D01*
X13005Y13872D02*
X13027D01*
X12973Y13905D02*
X13005Y13872D01*
X13103Y13649D02*
X13104Y13650D01*
X12963Y13649D02*
X13103D01*
X12963D02*
X12966Y13652D01*
X12963Y13649D02*
X12969Y13656D01*
X12963Y13640D02*
Y13649D01*
X13016Y13792D02*
Y13818D01*
X12963Y13739D02*
X13016Y13792D01*
X13059Y13506D02*
X13071Y13494D01*
X13095D01*
X13059Y13506D02*
Y13570D01*
X12966D02*
X13059D01*
X13287Y13582D02*
Y13609D01*
X13275Y13570D02*
X13287Y13582D01*
X13240Y13570D02*
X13275D01*
X13240Y13739D02*
X13315D01*
X13205Y13775D02*
X13240Y13739D01*
X13205Y13775D02*
Y13815D01*
X13059Y13739D02*
X13106D01*
X13337Y13919D02*
X13381Y13875D01*
Y13782D02*
Y13875D01*
X13327Y13728D02*
X13381Y13782D01*
X13337Y13919D02*
Y13950D01*
X12918Y13526D02*
X12964Y13572D01*
X12918Y13437D02*
X12963Y13393D01*
X12918Y13437D02*
Y13526D01*
X12963Y13359D02*
Y13393D01*
X11713Y13482D02*
X11752Y13444D01*
X11706Y13482D02*
X11713D01*
X11603Y13354D02*
X11752D01*
X11390Y13482D02*
X11445D01*
X11389Y13482D02*
X11390Y13482D01*
X11389Y13572D02*
X11391Y13570D01*
X11750Y13820D02*
X11752Y13818D01*
X11699Y13820D02*
X11750D01*
X11741Y13739D02*
X11752Y13728D01*
X11398Y13995D02*
X11563D01*
X11452Y13872D02*
X11453Y13873D01*
X11431Y13872D02*
X11452D01*
X11398Y13905D02*
X11431Y13872D01*
X11528Y13649D02*
X11529Y13650D01*
X11388Y13649D02*
X11528D01*
X11388D02*
X11391Y13652D01*
X11388Y13649D02*
X11395Y13656D01*
X11388Y13640D02*
Y13649D01*
X11441Y13792D02*
Y13818D01*
X11388Y13739D02*
X11441Y13792D01*
X11484Y13506D02*
X11496Y13494D01*
X11520D01*
X11484Y13506D02*
Y13570D01*
X11391D02*
X11484D01*
X11712Y13582D02*
Y13609D01*
X11700Y13570D02*
X11712Y13582D01*
X11666Y13570D02*
X11700D01*
X11666Y13739D02*
X11741D01*
X11630Y13775D02*
X11666Y13739D01*
X11630Y13775D02*
Y13815D01*
X11484Y13739D02*
X11532D01*
X11762Y13919D02*
X11806Y13875D01*
Y13782D02*
Y13875D01*
X11752Y13728D02*
X11806Y13782D01*
X11762Y13919D02*
Y13950D01*
X11344Y13526D02*
X11389Y13572D01*
X11344Y13437D02*
X11388Y13393D01*
X11344Y13437D02*
Y13526D01*
X11388Y13359D02*
Y13393D01*
X10926Y13482D02*
X10965Y13444D01*
X10918Y13482D02*
X10926D01*
X10815Y13354D02*
X10965D01*
X10603Y13482D02*
X10658D01*
X10602Y13482D02*
X10603Y13482D01*
X10602Y13572D02*
X10604Y13570D01*
X10962Y13820D02*
X10965Y13818D01*
X10912Y13820D02*
X10962D01*
X10953Y13739D02*
X10965Y13728D01*
X10610Y13995D02*
X10776D01*
X10665Y13872D02*
X10666Y13873D01*
X10643Y13872D02*
X10665D01*
X10610Y13905D02*
X10643Y13872D01*
X10741Y13649D02*
X10741Y13650D01*
X10601Y13649D02*
X10741D01*
X10601D02*
X10604Y13652D01*
X10601Y13649D02*
X10607Y13656D01*
X10601Y13640D02*
Y13649D01*
X10654Y13792D02*
Y13818D01*
X10601Y13739D02*
X10654Y13792D01*
X10697Y13506D02*
X10709Y13494D01*
X10732D01*
X10697Y13506D02*
Y13570D01*
X10604D02*
X10697D01*
X10925Y13582D02*
Y13609D01*
X10913Y13570D02*
X10925Y13582D01*
X10878Y13570D02*
X10913D01*
X10878Y13739D02*
X10953D01*
X10843Y13775D02*
X10878Y13739D01*
X10843Y13775D02*
Y13815D01*
X10697Y13739D02*
X10744D01*
X10975Y13919D02*
X11019Y13875D01*
Y13782D02*
Y13875D01*
X10965Y13728D02*
X11019Y13782D01*
X10975Y13919D02*
Y13950D01*
X10556Y13526D02*
X10602Y13572D01*
X10556Y13437D02*
X10601Y13393D01*
X10556Y13437D02*
Y13526D01*
X10601Y13359D02*
Y13393D01*
X12501Y13482D02*
X12540Y13444D01*
X12493Y13482D02*
X12501D01*
X12177Y13572D02*
X12178Y13570D01*
X12177Y13482D02*
X12177Y13482D01*
X12232D01*
X12486Y13820D02*
X12537D01*
X12540Y13818D01*
X12528Y13739D02*
X12540Y13728D01*
X12218Y13872D02*
X12239D01*
X12240Y13873D01*
X12185Y13905D02*
X12218Y13872D01*
X12175Y13640D02*
Y13649D01*
X12178Y13652D01*
X12175Y13649D02*
X12182Y13656D01*
X12175Y13739D02*
X12229Y13792D01*
Y13818D01*
X12284Y13494D02*
X12307D01*
X12272Y13506D02*
Y13570D01*
Y13506D02*
X12284Y13494D01*
X12178Y13570D02*
X12272D01*
X12488D02*
X12499Y13582D01*
X12453Y13570D02*
X12488D01*
X12499Y13582D02*
Y13609D01*
X12453Y13739D02*
X12528D01*
X12417Y13775D02*
X12453Y13739D01*
X12417Y13775D02*
Y13815D01*
X12540Y13728D02*
X12594Y13782D01*
Y13875D01*
X12549Y13919D02*
X12594Y13875D01*
X12549Y13919D02*
Y13950D01*
X12175Y13359D02*
Y13393D01*
X12131Y13437D02*
X12175Y13393D01*
X12131Y13437D02*
Y13526D01*
X12589Y11256D02*
Y11257D01*
Y11256D02*
X12647Y11198D01*
X12659Y10959D02*
X12724D01*
X12647Y11198D02*
X12680Y11166D01*
X12510Y11167D02*
X12589D01*
X12307Y11113D02*
X12352D01*
X12378Y11140D01*
X12386D01*
X12398Y11152D01*
Y11160D01*
X12404Y11165D01*
X12431D02*
X12459Y11193D01*
X12404Y11165D02*
X12431D01*
X12784Y11166D02*
X12796Y11177D01*
X12754Y11166D02*
X12784D01*
X12459Y11193D02*
Y11243D01*
X12469Y11253D01*
X12469Y11253D01*
X12507Y11253D02*
X12510Y11257D01*
X12387Y11113D02*
X12437D01*
X12949D02*
Y11125D01*
X12717Y11197D02*
Y11258D01*
Y11197D02*
X12718Y11198D01*
X12896Y11178D02*
X12949Y11125D01*
X12819Y11095D02*
X12854Y11060D01*
X12819Y11095D02*
Y11113D01*
X12854Y11060D02*
X12872D01*
X12381Y11161D02*
X12381Y11161D01*
X12377Y11161D02*
X12381D01*
X12381Y11231D02*
X12382Y11232D01*
X12532Y11060D02*
X12610D01*
X12623Y11073D02*
X12624D01*
X12460Y11010D02*
X12460Y11010D01*
X12532D01*
X12657Y11032D02*
X12679Y11010D01*
X12725D01*
X12131Y13526D02*
X12177Y13572D01*
X12589Y11167D02*
X12646Y11110D01*
X12827Y11178D02*
X12896D01*
X12718Y11198D02*
X12807D01*
X12827Y11178D01*
X12717Y11118D02*
Y11197D01*
Y11118D02*
X12725Y11110D01*
X12646D02*
X12725D01*
X12272Y13739D02*
X12319D01*
X12315Y13649D02*
X12316Y13650D01*
X12175Y13649D02*
X12315D01*
X12185Y13995D02*
X12351D01*
X12390Y13354D02*
X12540D01*
X12610Y11060D02*
X12624Y11073D01*
X12381Y11161D02*
Y11231D01*
X14361Y11256D02*
Y11257D01*
Y11256D02*
X14419Y11198D01*
X14431Y10959D02*
X14496D01*
X14419Y11198D02*
X14451Y11166D01*
X14361Y11167D02*
X14418Y11110D01*
X14496D01*
X14282Y11167D02*
X14361D01*
X14079Y11113D02*
X14123D01*
X14150Y11140D01*
X14158D01*
X14170Y11152D01*
Y11160D01*
X14175Y11165D02*
X14203D01*
X14170Y11160D02*
X14175Y11165D01*
X14203D02*
X14230Y11193D01*
Y11243D01*
X14241Y11253D01*
X14241Y11253D01*
X14278Y11253D02*
X14282Y11257D01*
X14159Y11113D02*
X14209D01*
X14599Y11178D02*
X14668D01*
X14721Y11113D02*
Y11125D01*
X14668Y11178D02*
X14721Y11125D01*
X14489Y11118D02*
Y11197D01*
Y11258D01*
X14579Y11198D02*
X14599Y11178D01*
X14489Y11197D02*
X14490Y11198D01*
X14579D01*
X14591Y11095D02*
X14625Y11060D01*
X14591Y11095D02*
Y11113D01*
X14625Y11060D02*
X14644D01*
X14153Y11161D02*
X14153Y11161D01*
X14149Y11161D02*
X14153D01*
X14153Y11161D02*
Y11231D01*
X14154Y11232D01*
X14382Y11060D02*
X14395Y11073D01*
X14395D02*
X14395D01*
X14232Y11010D02*
X14232Y11010D01*
X14304D01*
X14489Y11118D02*
X14496Y11110D01*
X14429Y11032D02*
X14451Y11010D01*
X14496D01*
X10817Y11827D02*
Y11828D01*
Y11827D02*
X10875Y11769D01*
X10887Y11530D02*
X10952D01*
X10875Y11769D02*
X10908Y11737D01*
X10817Y11738D02*
X10874Y11681D01*
X10953D01*
X10739Y11738D02*
X10817D01*
X10536Y11684D02*
X10580D01*
X10606Y11711D01*
X10614D01*
X10627Y11723D01*
Y11731D01*
X10632Y11736D02*
X10660D01*
X10627Y11731D02*
X10632Y11736D01*
X10983Y11737D02*
X11012D01*
X10660Y11736D02*
X10687Y11764D01*
X11012Y11737D02*
X11024Y11748D01*
X10687Y11764D02*
Y11814D01*
X10697Y11824D01*
X10697Y11824D01*
X10735Y11824D02*
X10739Y11828D01*
X10616Y11684D02*
X10666D01*
X11056Y11749D02*
X11124D01*
X11178Y11684D02*
Y11696D01*
X11124Y11749D02*
X11178Y11696D01*
X10945Y11688D02*
Y11768D01*
Y11829D01*
X11036Y11769D02*
X11056Y11749D01*
X10945Y11768D02*
X10947Y11769D01*
X11036D01*
X11048Y11666D02*
X11082Y11631D01*
X11048Y11666D02*
Y11684D01*
X11082Y11631D02*
X11101D01*
X10610Y11732D02*
X10610Y11732D01*
X10606Y11732D02*
X10610D01*
X10610Y11732D02*
Y11801D01*
X10611Y11802D01*
X10760Y11631D02*
X10838D01*
X10852Y11644D01*
X10852D02*
X10852D01*
X10688Y11581D02*
X10689Y11581D01*
X10760D01*
X10945Y11688D02*
X10953Y11681D01*
X10885Y11603D02*
X10907Y11581D01*
X10953D01*
X11703Y11827D02*
Y11828D01*
Y11827D02*
X11761Y11769D01*
X11773Y11530D02*
X11838D01*
X11761Y11769D02*
X11794Y11737D01*
X11703Y11738D02*
X11760Y11681D01*
X11839D01*
X11624Y11738D02*
X11703D01*
X11422Y11684D02*
X11466D01*
X11492Y11711D01*
X11500D01*
X11513Y11723D01*
Y11731D01*
X11518Y11736D02*
X11546D01*
X11513Y11731D02*
X11518Y11736D01*
X11869Y11737D02*
X11898D01*
X11546Y11736D02*
X11573Y11764D01*
X11898Y11737D02*
X11910Y11748D01*
X11573Y11764D02*
Y11814D01*
X11583Y11824D01*
X11583Y11824D01*
X11621Y11824D02*
X11624Y11828D01*
X11501Y11684D02*
X11552D01*
X11941Y11749D02*
X12010D01*
X12063Y11684D02*
Y11696D01*
X12010Y11749D02*
X12063Y11696D01*
X11831Y11688D02*
Y11768D01*
Y11829D01*
X11921Y11769D02*
X11941Y11749D01*
X11831Y11768D02*
X11832Y11769D01*
X11921D01*
X11933Y11666D02*
X11968Y11631D01*
X11933Y11666D02*
Y11684D01*
X11968Y11631D02*
X11987D01*
X11495Y11732D02*
X11495Y11732D01*
X11492Y11732D02*
X11495D01*
X11495Y11732D02*
Y11801D01*
X11496Y11802D01*
X11646Y11631D02*
X11724D01*
X11738Y11644D01*
X11738D02*
X11738D01*
X11574Y11581D02*
X11575Y11581D01*
X11646D01*
X11831Y11688D02*
X11839Y11681D01*
X11771Y11603D02*
X11793Y11581D01*
X11839D01*
X11703Y11256D02*
Y11257D01*
Y11256D02*
X11761Y11198D01*
X11773Y10959D02*
X11838D01*
X11761Y11198D02*
X11794Y11166D01*
X11703Y11167D02*
X11760Y11110D01*
X11839D01*
X11624Y11167D02*
X11703D01*
X11422Y11113D02*
X11466D01*
X11492Y11140D01*
X11500D01*
X11513Y11152D01*
Y11160D01*
X11518Y11165D02*
X11546D01*
X11513Y11160D02*
X11518Y11165D01*
X11869Y11166D02*
X11898D01*
X11546Y11165D02*
X11573Y11193D01*
X11898Y11166D02*
X11910Y11177D01*
X11573Y11193D02*
Y11243D01*
X11583Y11253D01*
X11583Y11253D01*
X11621Y11253D02*
X11624Y11257D01*
X11501Y11113D02*
X11552D01*
X11941Y11178D02*
X12010D01*
X12063Y11113D02*
Y11125D01*
X12010Y11178D02*
X12063Y11125D01*
X11831Y11118D02*
Y11197D01*
Y11258D01*
X11921Y11198D02*
X11941Y11178D01*
X11831Y11197D02*
X11832Y11198D01*
X11921D01*
X11933Y11095D02*
X11968Y11060D01*
X11933Y11095D02*
Y11113D01*
X11968Y11060D02*
X11987D01*
X11495Y11161D02*
X11495Y11161D01*
X11492Y11161D02*
X11495D01*
X11495Y11161D02*
Y11231D01*
X11496Y11232D01*
X11646Y11060D02*
X11724D01*
X11738Y11073D01*
X11738D02*
X11738D01*
X11574Y11010D02*
X11575Y11010D01*
X11646D01*
X11831Y11118D02*
X11839Y11110D01*
X11771Y11032D02*
X11793Y11010D01*
X11839D01*
X10817Y11256D02*
Y11257D01*
Y11256D02*
X10875Y11198D01*
X10887Y10959D02*
X10952D01*
X10875Y11198D02*
X10908Y11166D01*
X10817Y11167D02*
X10874Y11110D01*
X10953D01*
X10739Y11167D02*
X10817D01*
X10536Y11113D02*
X10580D01*
X10606Y11140D01*
X10614D01*
X10627Y11152D01*
Y11160D01*
X10632Y11165D02*
X10660D01*
X10627Y11160D02*
X10632Y11165D01*
X10983Y11166D02*
X11012D01*
X10660Y11165D02*
X10687Y11193D01*
X11012Y11166D02*
X11024Y11177D01*
X10687Y11193D02*
Y11243D01*
X10697Y11253D01*
X10697Y11253D01*
X10735Y11253D02*
X10739Y11257D01*
X10616Y11113D02*
X10666D01*
X11056Y11178D02*
X11124D01*
X11178Y11113D02*
Y11125D01*
X11124Y11178D02*
X11178Y11125D01*
X10945Y11118D02*
Y11197D01*
Y11258D01*
X11036Y11198D02*
X11056Y11178D01*
X10945Y11197D02*
X10947Y11198D01*
X11036D01*
X11048Y11095D02*
X11082Y11060D01*
X11048Y11095D02*
Y11113D01*
X11082Y11060D02*
X11101D01*
X10610Y11161D02*
X10610Y11161D01*
X10606Y11161D02*
X10610D01*
X10610Y11161D02*
Y11231D01*
X10611Y11232D01*
X10760Y11060D02*
X10838D01*
X10852Y11073D01*
X10852D02*
X10852D01*
X10688Y11010D02*
X10689Y11010D01*
X10760D01*
X10945Y11118D02*
X10953Y11110D01*
X10885Y11032D02*
X10907Y11010D01*
X10953D01*
X14361Y11827D02*
Y11828D01*
Y11827D02*
X14419Y11769D01*
X14431Y11530D02*
X14496D01*
X14419Y11769D02*
X14451Y11737D01*
X14361Y11738D02*
X14418Y11681D01*
X14496D01*
X14282Y11738D02*
X14361D01*
X14079Y11684D02*
X14123D01*
X14150Y11711D01*
X14158D01*
X14170Y11723D01*
Y11731D01*
X14175Y11736D02*
X14203D01*
X14170Y11731D02*
X14175Y11736D01*
X14526Y11737D02*
X14556D01*
X14203Y11736D02*
X14230Y11764D01*
X14556Y11737D02*
X14567Y11748D01*
X14230Y11764D02*
Y11814D01*
X14241Y11824D01*
X14241Y11824D01*
X14278Y11824D02*
X14282Y11828D01*
X14159Y11684D02*
X14209D01*
X14599Y11749D02*
X14668D01*
X14721Y11684D02*
Y11696D01*
X14668Y11749D02*
X14721Y11696D01*
X14489Y11688D02*
Y11768D01*
Y11829D01*
X14579Y11769D02*
X14599Y11749D01*
X14489Y11768D02*
X14490Y11769D01*
X14579D01*
X14591Y11666D02*
X14625Y11631D01*
X14591Y11666D02*
Y11684D01*
X14625Y11631D02*
X14644D01*
X14153Y11732D02*
X14153Y11732D01*
X14149Y11732D02*
X14153D01*
X14153Y11732D02*
Y11801D01*
X14154Y11802D01*
X14304Y11631D02*
X14382D01*
X14395Y11644D01*
X14395D02*
X14395D01*
X14232Y11581D02*
X14232Y11581D01*
X14304D01*
X14489Y11688D02*
X14496Y11681D01*
X14429Y11603D02*
X14451Y11581D01*
X14496D01*
X13475Y11827D02*
Y11828D01*
Y11827D02*
X13533Y11769D01*
X13545Y11530D02*
X13610D01*
X13533Y11769D02*
X13565Y11737D01*
X13475Y11738D02*
X13532Y11681D01*
X13611D01*
X13396Y11738D02*
X13475D01*
X13193Y11684D02*
X13238D01*
X13264Y11711D01*
X13272D01*
X13284Y11723D01*
Y11731D01*
X13290Y11736D02*
X13317D01*
X13284Y11731D02*
X13290Y11736D01*
X13640Y11737D02*
X13670D01*
X13317Y11736D02*
X13345Y11764D01*
X13670Y11737D02*
X13682Y11748D01*
X13345Y11764D02*
Y11814D01*
X13355Y11824D01*
X13355Y11824D01*
X13392Y11824D02*
X13396Y11828D01*
X13273Y11684D02*
X13323D01*
X13713Y11749D02*
X13782D01*
X13835Y11684D02*
Y11696D01*
X13782Y11749D02*
X13835Y11696D01*
X13603Y11688D02*
Y11768D01*
Y11829D01*
X13693Y11769D02*
X13713Y11749D01*
X13603Y11768D02*
X13604Y11769D01*
X13693D01*
X13705Y11666D02*
X13740Y11631D01*
X13705Y11666D02*
Y11684D01*
X13740Y11631D02*
X13758D01*
X13267Y11732D02*
X13267Y11732D01*
X13263Y11732D02*
X13267D01*
X13267Y11732D02*
Y11801D01*
X13268Y11802D01*
X13418Y11631D02*
X13496D01*
X13509Y11644D01*
X13509D02*
X13509D01*
X13346Y11581D02*
X13346Y11581D01*
X13418D01*
X13603Y11688D02*
X13611Y11681D01*
X13543Y11603D02*
X13565Y11581D01*
X13611D01*
X13475Y12418D02*
Y12418D01*
Y12418D02*
X13533Y12360D01*
X13545Y12120D02*
X13610D01*
X13533Y12360D02*
X13565Y12327D01*
X13475Y12328D02*
X13532Y12271D01*
X13611D01*
X13396Y12328D02*
X13475D01*
X13193Y12275D02*
X13238D01*
X13264Y12301D01*
X13272D01*
X13284Y12314D01*
Y12322D01*
X13290Y12327D02*
X13317D01*
X13284Y12322D02*
X13290Y12327D01*
X13640Y12327D02*
X13670D01*
X13317Y12327D02*
X13345Y12354D01*
X13670Y12327D02*
X13682Y12339D01*
X13345Y12354D02*
Y12405D01*
X13355Y12415D01*
X13355Y12415D01*
X13392Y12415D02*
X13396Y12418D01*
X13273Y12275D02*
X13323D01*
X13713Y12340D02*
X13782D01*
X13835Y12275D02*
Y12287D01*
X13782Y12340D02*
X13835Y12287D01*
X13603Y12279D02*
Y12359D01*
Y12420D01*
X13693Y12360D02*
X13713Y12340D01*
X13603Y12359D02*
X13604Y12360D01*
X13693D01*
X13705Y12256D02*
X13740Y12222D01*
X13705Y12256D02*
Y12275D01*
X13740Y12222D02*
X13758D01*
X13267Y12322D02*
X13267Y12322D01*
X13263Y12322D02*
X13267D01*
X13267Y12322D02*
Y12392D01*
X13268Y12393D01*
X13418Y12221D02*
X13496D01*
X13509Y12235D01*
X13509D02*
X13509D01*
X13346Y12172D02*
X13346Y12171D01*
X13418D01*
X13603Y12279D02*
X13611Y12271D01*
X13543Y12193D02*
X13565Y12171D01*
X13611D01*
X12589Y12418D02*
Y12418D01*
Y12418D02*
X12647Y12360D01*
X12659Y12120D02*
X12724D01*
X12647Y12360D02*
X12680Y12327D01*
X12589Y12328D02*
X12646Y12271D01*
X12725D01*
X12510Y12328D02*
X12589D01*
X12307Y12275D02*
X12352D01*
X12378Y12301D01*
X12386D01*
X12398Y12314D01*
Y12322D01*
X12404Y12327D02*
X12431D01*
X12398Y12322D02*
X12404Y12327D01*
X12754Y12327D02*
X12784D01*
X12431Y12327D02*
X12459Y12354D01*
X12784Y12327D02*
X12796Y12339D01*
X12459Y12354D02*
Y12405D01*
X12469Y12415D01*
X12469Y12415D01*
X12469Y12415D02*
X12507D01*
X12510Y12418D01*
X12387Y12275D02*
X12437D01*
X12827Y12340D02*
X12896D01*
X12949Y12275D02*
Y12287D01*
X12896Y12340D02*
X12949Y12287D01*
X12717Y12279D02*
Y12359D01*
Y12420D01*
X12807Y12360D02*
X12827Y12340D01*
X12717Y12359D02*
X12718Y12360D01*
X12807D01*
X12819Y12256D02*
X12854Y12222D01*
X12819Y12256D02*
Y12275D01*
X12854Y12222D02*
X12872D01*
X12381Y12322D02*
X12381Y12322D01*
X12377Y12322D02*
X12381D01*
X12381Y12322D02*
Y12392D01*
X12382Y12393D01*
X12532Y12221D02*
X12610D01*
X12624Y12235D01*
X12623D02*
X12624D01*
X12460Y12172D02*
X12460Y12171D01*
X12532D01*
X12717Y12279D02*
X12725Y12271D01*
X12657Y12193D02*
X12679Y12171D01*
X12725D01*
X14361Y12418D02*
Y12418D01*
Y12418D02*
X14419Y12360D01*
X14431Y12120D02*
X14496D01*
X14419Y12360D02*
X14451Y12327D01*
X14361Y12328D02*
X14418Y12271D01*
X14282Y12328D02*
X14361D01*
X14079Y12275D02*
X14123D01*
X14150Y12301D01*
X14158D01*
X14170Y12314D01*
Y12322D01*
X14175Y12327D02*
X14203D01*
X14170Y12322D02*
X14175Y12327D01*
X14203D02*
X14230Y12354D01*
Y12405D01*
X14241Y12415D01*
X14241Y12415D01*
X14278Y12415D02*
X14282Y12418D01*
X14159Y12275D02*
X14209D01*
X14721D02*
Y12287D01*
X14668Y12340D02*
X14721Y12287D01*
X14489Y12359D02*
X14490Y12360D01*
X14591Y12256D02*
X14625Y12222D01*
X14591Y12256D02*
Y12275D01*
X14625Y12222D02*
X14644D01*
X14153Y12322D02*
X14153Y12322D01*
X14149Y12322D02*
X14153D01*
X14153Y12322D02*
Y12392D01*
X14154Y12393D01*
X14304Y12221D02*
X14382D01*
X14395Y12235D01*
X14395D02*
X14395D01*
X14232Y12172D02*
X14232Y12171D01*
X14304D01*
X14429Y12193D02*
X14451Y12171D01*
X14496D01*
X10817Y12418D02*
Y12418D01*
Y12418D02*
X10875Y12360D01*
X10887Y12120D02*
X10952D01*
X10875Y12360D02*
X10908Y12327D01*
X10817Y12328D02*
X10874Y12271D01*
X10953D01*
X10739Y12328D02*
X10817D01*
X10536Y12275D02*
X10580D01*
X10606Y12301D01*
X10614D01*
X10627Y12314D01*
Y12322D01*
X10632Y12327D02*
X10660D01*
X10627Y12322D02*
X10632Y12327D01*
X10983Y12327D02*
X11012D01*
X10660Y12327D02*
X10687Y12354D01*
X11012Y12327D02*
X11024Y12339D01*
X10687Y12354D02*
Y12405D01*
X10697Y12415D01*
X10697Y12415D01*
X10697Y12415D02*
X10735D01*
X10739Y12418D01*
X10616Y12275D02*
X10666D01*
X11056Y12340D02*
X11124D01*
X11178Y12275D02*
Y12287D01*
X11124Y12340D02*
X11178Y12287D01*
X10945Y12279D02*
Y12359D01*
Y12420D01*
X11036Y12360D02*
X11056Y12340D01*
X10945Y12359D02*
X10947Y12360D01*
X11036D01*
X11048Y12256D02*
X11082Y12222D01*
X11048Y12256D02*
Y12275D01*
X11082Y12222D02*
X11101D01*
X10610Y12322D02*
X10610Y12322D01*
X10606Y12322D02*
X10610D01*
X10610Y12322D02*
Y12392D01*
X10611Y12393D01*
X10760Y12221D02*
X10838D01*
X10852Y12235D01*
X10852D02*
X10852D01*
X10688Y12172D02*
X10689Y12171D01*
X10760D01*
X10945Y12279D02*
X10953Y12271D01*
X10885Y12193D02*
X10907Y12171D01*
X10953D01*
X13475Y11256D02*
Y11257D01*
Y11256D02*
X13533Y11198D01*
X13545Y10959D02*
X13610D01*
X13533Y11198D02*
X13565Y11166D01*
X13475Y11167D02*
X13532Y11110D01*
X13611D01*
X13396Y11167D02*
X13475D01*
X13193Y11113D02*
X13238D01*
X13264Y11140D01*
X13272D01*
X13284Y11152D01*
Y11160D01*
X13290Y11165D02*
X13317D01*
X13284Y11160D02*
X13290Y11165D01*
X13640Y11166D02*
X13670D01*
X13317Y11165D02*
X13345Y11193D01*
X13670Y11166D02*
X13682Y11177D01*
X13345Y11193D02*
Y11243D01*
X13355Y11253D01*
X13355Y11253D01*
X13392Y11253D02*
X13396Y11257D01*
X13273Y11113D02*
X13323D01*
X13713Y11178D02*
X13782D01*
X13835Y11113D02*
Y11125D01*
X13782Y11178D02*
X13835Y11125D01*
X13603Y11118D02*
Y11197D01*
Y11258D01*
X13693Y11198D02*
X13713Y11178D01*
X13603Y11197D02*
X13604Y11198D01*
X13693D01*
X13705Y11095D02*
X13740Y11060D01*
X13705Y11095D02*
Y11113D01*
X13740Y11060D02*
X13758D01*
X13267Y11161D02*
X13267Y11161D01*
X13263Y11161D02*
X13267D01*
X13267Y11161D02*
Y11231D01*
X13268Y11232D01*
X13418Y11060D02*
X13496D01*
X13509Y11073D01*
X13509D02*
X13509D01*
X13346Y11010D02*
X13346Y11010D01*
X13418D01*
X13603Y11118D02*
X13611Y11110D01*
X13543Y11032D02*
X13565Y11010D01*
X13611D01*
X12589Y11827D02*
Y11828D01*
Y11827D02*
X12647Y11769D01*
X12659Y11530D02*
X12724D01*
X12647Y11769D02*
X12680Y11737D01*
X12589Y11738D02*
X12646Y11681D01*
X12725D01*
X12510Y11738D02*
X12589D01*
X12307Y11684D02*
X12352D01*
X12378Y11711D01*
X12386D01*
X12398Y11723D01*
Y11731D01*
X12404Y11736D02*
X12431D01*
X12398Y11731D02*
X12404Y11736D01*
X12754Y11737D02*
X12784D01*
X12431Y11736D02*
X12459Y11764D01*
X12784Y11737D02*
X12796Y11748D01*
X12459Y11764D02*
Y11814D01*
X12469Y11824D01*
X12469Y11824D01*
X12507Y11824D02*
X12510Y11828D01*
X12387Y11684D02*
X12437D01*
X12827Y11749D02*
X12896D01*
X12949Y11684D02*
Y11696D01*
X12896Y11749D02*
X12949Y11696D01*
X12717Y11688D02*
Y11768D01*
Y11829D01*
X12807Y11769D02*
X12827Y11749D01*
X12717Y11768D02*
X12718Y11769D01*
X12807D01*
X12819Y11666D02*
X12854Y11631D01*
X12819Y11666D02*
Y11684D01*
X12854Y11631D02*
X12872D01*
X12381Y11732D02*
X12381Y11732D01*
X12377Y11732D02*
X12381D01*
X12381Y11732D02*
Y11801D01*
X12382Y11802D01*
X12532Y11631D02*
X12610D01*
X12624Y11644D01*
X12623D02*
X12624D01*
X12460Y11581D02*
X12460Y11581D01*
X12532D01*
X12717Y11688D02*
X12725Y11681D01*
X12657Y11603D02*
X12679Y11581D01*
X12725D01*
X11703Y12418D02*
Y12418D01*
Y12418D02*
X11761Y12360D01*
X11773Y12120D02*
X11838D01*
X11761Y12360D02*
X11794Y12327D01*
X11703Y12328D02*
X11760Y12271D01*
X11839D01*
X11624Y12328D02*
X11703D01*
X11422Y12275D02*
X11466D01*
X11492Y12301D01*
X11500D01*
X11513Y12314D01*
Y12322D01*
X11518Y12327D02*
X11546D01*
X11513Y12322D02*
X11518Y12327D01*
X11869Y12327D02*
X11898D01*
X11546Y12327D02*
X11573Y12354D01*
X11898Y12327D02*
X11910Y12339D01*
X11573Y12354D02*
Y12405D01*
X11583Y12415D01*
X11583Y12415D01*
X11583Y12415D02*
X11621D01*
X11624Y12418D01*
X11501Y12275D02*
X11552D01*
X11941Y12340D02*
X12010D01*
X12063Y12275D02*
Y12287D01*
X12010Y12340D02*
X12063Y12287D01*
X11831Y12279D02*
Y12359D01*
Y12420D01*
X11921Y12360D02*
X11941Y12340D01*
X11831Y12359D02*
X11832Y12360D01*
X11921D01*
X11933Y12256D02*
X11968Y12222D01*
X11933Y12256D02*
Y12275D01*
X11968Y12222D02*
X11987D01*
X11495Y12322D02*
X11495Y12322D01*
X11492Y12322D02*
X11495D01*
X11495Y12322D02*
Y12392D01*
X11496Y12393D01*
X11646Y12221D02*
X11724D01*
X11738Y12235D01*
X11738D02*
X11738D01*
X11574Y12172D02*
X11575Y12171D01*
X11646D01*
X11831Y12279D02*
X11839Y12271D01*
X11771Y12193D02*
X11793Y12171D01*
X11839D01*
X11325Y12698D02*
X11424D01*
X11444Y12718D01*
Y12868D01*
X11259Y12748D02*
X11325D01*
X11234Y12848D02*
X11254D01*
X11204Y12878D02*
X11234Y12848D01*
X11254D02*
X11325D01*
X11079Y12878D02*
X11204D01*
X11029Y12928D02*
X11079Y12878D01*
X11059Y12748D02*
X11132D01*
Y12798D02*
X11189D01*
X11216Y12825D01*
X11370D01*
X11383Y12838D02*
Y12857D01*
X11370Y12825D02*
X11383Y12838D01*
X11328Y12913D02*
X11383Y12857D01*
X10799Y12928D02*
X10890Y13019D01*
X10919D01*
X10954Y12888D02*
Y12924D01*
X10956Y12927D01*
X11104Y12913D02*
Y12973D01*
X10754Y12953D02*
Y12973D01*
X10799Y13018D01*
X10881Y12927D02*
X10973Y13018D01*
X11029D01*
X11314Y12913D02*
X11328D01*
X10614Y12773D02*
X10662Y12821D01*
X10763D01*
X10772Y12830D01*
X10971D01*
X10999Y12802D01*
X10704Y12703D02*
Y12773D01*
X10819D01*
X10649Y12923D02*
X10669Y12943D01*
Y13003D01*
X10819Y12767D02*
X10824Y12763D01*
X10902D02*
X10961Y12704D01*
X10819Y12767D02*
Y12773D01*
X10824Y12763D02*
X10902D01*
X10819Y12773D02*
X10849Y12802D01*
X11270Y12903D02*
Y12923D01*
X11273Y12926D01*
Y12935D01*
X11285Y12947D01*
X11358D01*
X11404Y12993D01*
Y12978D02*
Y12993D01*
X10679Y12863D02*
X10714D01*
X10724Y12873D01*
X10904D01*
X10594D02*
X10633D01*
X10685Y12925D01*
X10796D01*
X11234Y12908D02*
Y12973D01*
X11234Y12973D01*
X11104Y12973D02*
X11104Y12973D01*
X10999Y12802D02*
X10999Y12802D01*
X10999Y12802D02*
Y12858D01*
X10811Y12704D02*
Y12705D01*
X10839Y12733D01*
X10854D01*
X10918Y12894D02*
X10956Y12855D01*
X11029Y12928D01*
X10833Y12894D02*
X10918D01*
X10799Y12928D02*
X10833Y12894D01*
X10796Y12925D02*
X10799Y12928D01*
X10614Y12677D02*
Y12703D01*
X10591Y12655D02*
X10614Y12677D01*
X12282Y10288D02*
Y10349D01*
X12107Y10288D02*
Y10349D01*
X12106Y10350D02*
X12107Y10349D01*
X12032Y10288D02*
Y10349D01*
X11982Y10288D02*
Y10346D01*
X11907Y10288D02*
Y10349D01*
X11857Y10288D02*
Y10348D01*
X11857Y10348D02*
X11857Y10348D01*
X11782Y10288D02*
Y10347D01*
X11783Y10348D01*
X11732Y10288D02*
Y10345D01*
X11733Y10346D01*
X14526Y11166D02*
X14556D01*
X14567Y11177D01*
X14304Y11060D02*
X14382D01*
X16020Y11645D02*
X16055Y11680D01*
X16100D01*
X16020Y11645D02*
Y11710D01*
Y11775D01*
Y11819D01*
X15871Y11580D02*
X15930D01*
Y11645D01*
Y11710D01*
X15770Y11769D02*
Y11824D01*
X15762Y11833D02*
X15770Y11824D01*
X15732Y11833D02*
X15762D01*
X15720Y11821D02*
X15732Y11833D01*
X15720Y11769D02*
Y11821D01*
Y11506D02*
Y11580D01*
X15717Y11503D02*
X15720Y11506D01*
X15820Y11769D02*
Y11831D01*
X15822Y11833D01*
X15770Y11511D02*
Y11580D01*
Y11511D02*
X15772Y11513D01*
X15820Y11509D02*
Y11580D01*
X16017Y11843D02*
X16020Y11839D01*
Y11819D02*
Y11839D01*
X15883Y10689D02*
Y10776D01*
X15886Y10779D01*
X15647Y10960D02*
X15694Y10913D01*
X15626Y10960D02*
X15647D01*
X15623Y10962D02*
X15626Y10960D01*
X15623Y10962D02*
Y11054D01*
X15694Y10848D02*
Y10913D01*
X15789Y10693D02*
X15880D01*
X15883Y10689D01*
X15866Y10960D02*
X15886D01*
X15979Y10871D02*
Y10943D01*
X15626Y10779D02*
X15638D01*
X15694Y10723D01*
Y10804D02*
Y10848D01*
Y10804D02*
X15753Y10744D01*
X16113Y10959D02*
X16114Y10958D01*
X15995Y10959D02*
X16113D01*
X15979Y10943D02*
X15995Y10959D01*
X15969Y10793D02*
X15971Y10792D01*
X15753Y10834D02*
Y10894D01*
X15800D01*
X15821Y10915D02*
X15866Y10960D01*
X15714Y11043D02*
X15744D01*
X15753Y11034D01*
Y10984D02*
Y11034D01*
X15886Y10779D02*
X15979Y10871D01*
X15814Y10843D02*
Y10878D01*
X15821Y10886D01*
Y10915D01*
X15673Y11392D02*
Y11457D01*
X15653Y11477D02*
X15673Y11457D01*
X15638Y11477D02*
X15653D01*
X15623Y11462D02*
X15638Y11477D01*
X15623Y11392D02*
Y11462D01*
X15623Y11127D02*
Y11203D01*
X15623Y11127D02*
X15623Y11127D01*
X15673Y11157D02*
Y11203D01*
X15643Y11127D02*
X15673Y11157D01*
X15623Y11127D02*
X15643D01*
X15773Y11162D02*
Y11203D01*
Y11162D02*
X15788Y11147D01*
X15833D01*
X15723Y11127D02*
Y11203D01*
X15723Y11203D01*
X15953Y11217D02*
X15973Y11197D01*
X15881Y11217D02*
X15953D01*
X15876Y11212D02*
X15881Y11217D01*
X15774Y11393D02*
X15876D01*
X15773Y11392D02*
X15774Y11393D01*
X15723Y11392D02*
Y11442D01*
X15743Y11462D01*
X15528Y11292D02*
X15773D01*
X15848Y11217D02*
X15870D01*
X15876Y11212D01*
X15773Y11292D02*
X15848Y11217D01*
X10545Y10350D02*
X10550Y10346D01*
X10400Y10350D02*
X10465D01*
X10545D01*
X10550Y10535D02*
X10600D01*
Y10465D02*
Y10535D01*
X10550Y10535D02*
X10550Y10535D01*
X10440Y10535D02*
X10550D01*
X10700Y10535D02*
X10805D01*
X10835Y10435D02*
Y10505D01*
X10700Y10346D02*
X10700Y10345D01*
X10835D01*
X11070Y10341D02*
X11109D01*
X11110Y10341D01*
X10969Y10342D02*
X10970Y10341D01*
X10969Y10342D02*
Y10415D01*
X11020Y10462D02*
Y10530D01*
X10520Y10440D02*
X10520Y10440D01*
X10465Y10440D02*
X10520D01*
X10662Y10469D02*
X10669D01*
X10650Y10481D02*
X10662Y10469D01*
X10650Y10481D02*
Y10535D01*
X10400Y10440D02*
X10429Y10411D01*
Y10395D02*
Y10411D01*
Y10395D02*
X10431Y10393D01*
X15215Y10880D02*
X15267D01*
X15165Y10930D02*
X15215Y10880D01*
X15165Y10930D02*
Y10955D01*
X14998Y10880D02*
X15062D01*
X14986Y10868D02*
X14998Y10880D01*
X14986Y10841D02*
Y10868D01*
Y10841D02*
X14997Y10830D01*
X15122D02*
X15166Y10786D01*
Y10749D02*
Y10786D01*
X14997Y10830D02*
X15062D01*
X15122D01*
X15062Y10680D02*
X15133D01*
X15267D01*
X16051Y12102D02*
X16055Y12098D01*
Y11942D02*
Y12098D01*
X14526Y12327D02*
X14556D01*
X14567Y12339D01*
X14489Y12359D02*
Y12420D01*
X14490Y12360D02*
X14579D01*
X14418Y12271D02*
X14496D01*
X14489Y12279D02*
X14496Y12271D01*
X14489Y12279D02*
Y12359D01*
X14579Y12360D02*
X14599Y12340D01*
X14668D01*
X14546Y12913D02*
X14602Y12857D01*
Y12838D02*
Y12857D01*
X14544Y12698D02*
X14642D01*
X14662Y12718D01*
Y12868D01*
X10600Y10346D02*
Y10395D01*
X10583Y10412D02*
X10600Y10395D01*
X15130Y11030D02*
X15131D01*
X15062D02*
X15130D01*
X15131D02*
X15267D01*
X15870Y11769D02*
Y11826D01*
X15882Y11838D01*
X11201Y13213D02*
X11213Y13201D01*
X11102Y13213D02*
X11201D01*
X10624Y13204D02*
X10640Y13188D01*
X10545Y13204D02*
X10624D01*
X14165Y13283D02*
X14318D01*
X14076Y13194D02*
X14165Y13283D01*
X14076Y13115D02*
Y13194D01*
X14398Y10547D02*
X14495D01*
X12540Y13560D02*
X12606D01*
X12624Y13543D01*
X11754Y13559D02*
X11846D01*
X11752Y13560D02*
X11754Y13559D01*
X10965Y13560D02*
X11041D01*
X11053Y13549D01*
X13345Y13543D02*
X13422D01*
X13327Y13560D02*
X13345Y13543D01*
X14114Y13560D02*
X14200D01*
X14213Y13548D01*
X14931Y13560D02*
X14994Y13624D01*
X14902Y13560D02*
X14931D01*
D43*
X11677Y7940D02*
Y7895D01*
X11658Y7929D02*
X11696Y7906D01*
Y7929D02*
X11658Y7906D01*
X11717Y7868D02*
X11713Y7864D01*
X11717Y7860D01*
X11720Y7864D01*
X11717Y7868D01*
X11795Y7921D02*
X11791Y7929D01*
X11784Y7937D01*
X11776Y7940D01*
X11761D01*
X11753Y7937D01*
X11745Y7929D01*
X11742Y7921D01*
X11738Y7910D01*
Y7891D01*
X11742Y7880D01*
X11745Y7872D01*
X11753Y7864D01*
X11761Y7860D01*
X11776D01*
X11784Y7864D01*
X11791Y7872D01*
X11795Y7880D01*
Y7891D01*
X11776D02*
X11795D01*
X11840Y7940D02*
Y7860D01*
X11813Y7940D02*
X11867D01*
X11876D02*
Y7860D01*
X11922D01*
X11993Y7895D02*
X12062D01*
X12175Y7940D02*
Y7860D01*
X12148Y7940D02*
X12202D01*
X12234D02*
X12227Y7937D01*
X12219Y7929D01*
X12215Y7921D01*
X12211Y7910D01*
Y7891D01*
X12215Y7880D01*
X12219Y7872D01*
X12227Y7864D01*
X12234Y7860D01*
X12249D01*
X12257Y7864D01*
X12265Y7872D01*
X12268Y7880D01*
X12272Y7891D01*
Y7910D01*
X12268Y7921D01*
X12265Y7929D01*
X12257Y7937D01*
X12249Y7940D01*
X12234D01*
X12291Y7899D02*
X12325D01*
X12337Y7902D01*
X12340Y7906D01*
X12344Y7914D01*
Y7925D01*
X12340Y7933D01*
X12337Y7937D01*
X12325Y7940D01*
X12291D01*
Y7860D01*
X12425Y7940D02*
Y7860D01*
X12471D01*
X12540D02*
X12510Y7940D01*
X12479Y7860D01*
X12491Y7887D02*
X12529D01*
X12559Y7940D02*
X12589Y7902D01*
Y7860D01*
X12620Y7940D02*
X12589Y7902D01*
X12680Y7940D02*
X12630D01*
Y7860D01*
X12680D01*
X12630Y7902D02*
X12661D01*
X12693Y7940D02*
Y7860D01*
Y7940D02*
X12727D01*
X12739Y7937D01*
X12743Y7933D01*
X12746Y7925D01*
Y7918D01*
X12743Y7910D01*
X12739Y7906D01*
X12727Y7902D01*
X12693D01*
X12720D02*
X12746Y7860D01*
X12884Y7921D02*
X12880Y7929D01*
X12873Y7937D01*
X12865Y7940D01*
X12850D01*
X12842Y7937D01*
X12835Y7929D01*
X12831Y7921D01*
X12827Y7910D01*
Y7891D01*
X12831Y7880D01*
X12835Y7872D01*
X12842Y7864D01*
X12850Y7860D01*
X12865D01*
X12873Y7864D01*
X12880Y7872D01*
X12884Y7880D01*
Y7891D01*
X12865D02*
X12884D01*
X12952Y7940D02*
X12903D01*
Y7860D01*
X12952D01*
X12903Y7902D02*
X12933D01*
X12965Y7940D02*
Y7860D01*
Y7940D02*
X13000D01*
X13011Y7937D01*
X13015Y7933D01*
X13019Y7925D01*
Y7918D01*
X13015Y7910D01*
X13011Y7906D01*
X13000Y7902D01*
X12965D01*
X12992D02*
X13019Y7860D01*
X13037Y7940D02*
Y7860D01*
Y7940D02*
X13071D01*
X13082Y7937D01*
X13086Y7933D01*
X13090Y7925D01*
Y7918D01*
X13086Y7910D01*
X13082Y7906D01*
X13071Y7902D01*
X13037D02*
X13071D01*
X13082Y7899D01*
X13086Y7895D01*
X13090Y7887D01*
Y7876D01*
X13086Y7868D01*
X13082Y7864D01*
X13071Y7860D01*
X13037D01*
X13157Y7940D02*
X13108D01*
Y7860D01*
X13157D01*
X13108Y7902D02*
X13138D01*
X13171Y7940D02*
Y7860D01*
Y7940D02*
X13205D01*
X13216Y7937D01*
X13220Y7933D01*
X13224Y7925D01*
Y7918D01*
X13220Y7910D01*
X13216Y7906D01*
X13205Y7902D01*
X13171D01*
X13197D02*
X13224Y7860D01*
X13305Y7940D02*
Y7860D01*
Y7940D02*
X13331D01*
X13343Y7937D01*
X13350Y7929D01*
X13354Y7921D01*
X13358Y7910D01*
Y7891D01*
X13354Y7880D01*
X13350Y7872D01*
X13343Y7864D01*
X13331Y7860D01*
X13305D01*
X13437D02*
X13406Y7940D01*
X13376Y7860D01*
X13387Y7887D02*
X13426D01*
X13482Y7940D02*
Y7860D01*
X13456Y7940D02*
X13509D01*
X13579Y7860D02*
X13549Y7940D01*
X13518Y7860D01*
X13530Y7887D02*
X13568D01*
D44*
X15616Y10220D02*
D03*
D45*
X9498Y14412D02*
X9998D01*
X9748Y14162D02*
Y14662D01*
X9698Y14412D02*
Y14462D01*
X9748D01*
X9798Y14362D02*
Y14412D01*
X9748Y14362D02*
X9798D01*
X9753Y14407D02*
X9793D01*
Y14367D02*
Y14407D01*
X9753Y14367D02*
X9793D01*
X9753D02*
Y14407D01*
X9758Y14402D02*
X9788D01*
Y14372D02*
Y14402D01*
X9758Y14372D02*
X9788D01*
X9758D02*
Y14397D01*
X9763D02*
X9783D01*
Y14377D02*
Y14397D01*
X9763Y14377D02*
X9783D01*
X9763D02*
Y14392D01*
X9768D02*
X9778D01*
Y14382D02*
Y14392D01*
X9768Y14382D02*
X9778D01*
X9768D02*
Y14392D01*
Y14387D02*
X9778D01*
X9703Y14457D02*
X9743D01*
Y14417D02*
Y14457D01*
X9703Y14417D02*
X9743D01*
X9703D02*
Y14457D01*
X9708Y14452D02*
X9738D01*
Y14422D02*
Y14452D01*
X9708Y14422D02*
X9738D01*
X9708D02*
Y14447D01*
X9713D02*
X9733D01*
Y14427D02*
Y14447D01*
X9713Y14427D02*
X9733D01*
X9713D02*
Y14442D01*
X9718D02*
X9728D01*
Y14432D02*
Y14442D01*
X9718Y14432D02*
X9728D01*
X9718D02*
Y14442D01*
Y14437D02*
X9728D01*
X9680Y9190D02*
X9690D01*
X9680Y9185D02*
Y9195D01*
Y9185D02*
X9690D01*
Y9195D01*
X9680D02*
X9690D01*
X9675Y9180D02*
Y9195D01*
Y9180D02*
X9695D01*
Y9200D01*
X9675D02*
X9695D01*
X9670Y9175D02*
Y9200D01*
Y9175D02*
X9700D01*
Y9205D01*
X9670D02*
X9700D01*
X9665Y9170D02*
Y9210D01*
Y9170D02*
X9705D01*
Y9210D01*
X9665D02*
X9705D01*
X9730Y9140D02*
X9740D01*
X9730Y9135D02*
Y9145D01*
Y9135D02*
X9740D01*
Y9145D01*
X9730D02*
X9740D01*
X9725Y9130D02*
Y9145D01*
Y9130D02*
X9745D01*
Y9150D01*
X9725D02*
X9745D01*
X9720Y9125D02*
Y9150D01*
Y9125D02*
X9750D01*
Y9155D01*
X9720D02*
X9750D01*
X9715Y9120D02*
Y9160D01*
Y9120D02*
X9755D01*
Y9160D01*
X9715D02*
X9755D01*
X9710Y9115D02*
X9760D01*
Y9165D01*
X9660Y9215D02*
X9710D01*
X9660Y9165D02*
Y9215D01*
X9710Y8915D02*
Y9415D01*
X9460Y9165D02*
X9960D01*
X16790Y14700D02*
X16800D01*
X16790Y14695D02*
Y14705D01*
Y14695D02*
X16800D01*
Y14705D01*
X16790D02*
X16800D01*
X16785Y14690D02*
Y14705D01*
Y14690D02*
X16805D01*
Y14710D01*
X16785D02*
X16805D01*
X16780Y14685D02*
Y14710D01*
Y14685D02*
X16810D01*
Y14715D01*
X16780D02*
X16810D01*
X16775Y14680D02*
Y14720D01*
Y14680D02*
X16815D01*
Y14720D01*
X16775D02*
X16815D01*
X16840Y14650D02*
X16850D01*
X16840Y14645D02*
Y14655D01*
Y14645D02*
X16850D01*
Y14655D01*
X16840D02*
X16850D01*
X16835Y14640D02*
Y14655D01*
Y14640D02*
X16855D01*
Y14660D01*
X16835D02*
X16855D01*
X16830Y14635D02*
Y14660D01*
Y14635D02*
X16860D01*
Y14665D01*
X16830D02*
X16860D01*
X16825Y14630D02*
Y14670D01*
Y14630D02*
X16865D01*
Y14670D01*
X16825D02*
X16865D01*
X16820Y14625D02*
X16870D01*
Y14675D01*
X16770Y14725D02*
X16820D01*
X16770Y14675D02*
Y14725D01*
X16820Y14425D02*
Y14925D01*
X16570Y14675D02*
X17070D01*
D46*
X11987Y8419D02*
X11984Y8427D01*
X11976Y8434D01*
X11968Y8438D01*
X11953D01*
X11946Y8434D01*
X11938Y8427D01*
X11934Y8419D01*
X11930Y8408D01*
Y8389D01*
X11934Y8377D01*
X11938Y8370D01*
X11946Y8362D01*
X11953Y8358D01*
X11968D01*
X11976Y8362D01*
X11984Y8370D01*
X11987Y8377D01*
X12010Y8438D02*
Y8358D01*
X12056D01*
X12087Y8438D02*
X12080Y8434D01*
X12072Y8427D01*
X12068Y8419D01*
X12064Y8408D01*
Y8389D01*
X12068Y8377D01*
X12072Y8370D01*
X12080Y8362D01*
X12087Y8358D01*
X12102D01*
X12110Y8362D01*
X12118Y8370D01*
X12121Y8377D01*
X12125Y8389D01*
Y8408D01*
X12121Y8419D01*
X12118Y8427D01*
X12110Y8434D01*
X12102Y8438D01*
X12087D01*
X12201Y8419D02*
X12197Y8427D01*
X12190Y8434D01*
X12182Y8438D01*
X12167D01*
X12159Y8434D01*
X12152Y8427D01*
X12148Y8419D01*
X12144Y8408D01*
Y8389D01*
X12148Y8377D01*
X12152Y8370D01*
X12159Y8362D01*
X12167Y8358D01*
X12182D01*
X12190Y8362D01*
X12197Y8370D01*
X12201Y8377D01*
X12224Y8438D02*
Y8358D01*
X12277Y8438D02*
X12224Y8385D01*
X12243Y8404D02*
X12277Y8358D01*
X12358Y8438D02*
Y8358D01*
Y8438D02*
X12392D01*
X12403Y8434D01*
X12407Y8430D01*
X12411Y8423D01*
Y8415D01*
X12407Y8408D01*
X12403Y8404D01*
X12392Y8400D01*
X12358D02*
X12392D01*
X12403Y8396D01*
X12407Y8392D01*
X12411Y8385D01*
Y8373D01*
X12407Y8366D01*
X12403Y8362D01*
X12392Y8358D01*
X12358D01*
X12452Y8438D02*
X12444Y8434D01*
X12436Y8427D01*
X12433Y8419D01*
X12429Y8408D01*
Y8389D01*
X12433Y8377D01*
X12436Y8370D01*
X12444Y8362D01*
X12452Y8358D01*
X12467D01*
X12475Y8362D01*
X12482Y8370D01*
X12486Y8377D01*
X12490Y8389D01*
Y8408D01*
X12486Y8419D01*
X12482Y8427D01*
X12475Y8434D01*
X12467Y8438D01*
X12452D01*
X12569Y8358D02*
X12539Y8438D01*
X12508Y8358D01*
X12520Y8385D02*
X12558D01*
X12588Y8438D02*
Y8358D01*
Y8438D02*
X12622D01*
X12634Y8434D01*
X12638Y8430D01*
X12641Y8423D01*
Y8415D01*
X12638Y8408D01*
X12634Y8404D01*
X12622Y8400D01*
X12588D01*
X12615D02*
X12641Y8358D01*
X12659Y8438D02*
Y8358D01*
Y8438D02*
X12686D01*
X12697Y8434D01*
X12705Y8427D01*
X12709Y8419D01*
X12713Y8408D01*
Y8389D01*
X12709Y8377D01*
X12705Y8370D01*
X12697Y8362D01*
X12686Y8358D01*
X12659D01*
X12793Y8438D02*
Y8358D01*
Y8438D02*
X12828D01*
X12839Y8434D01*
X12843Y8430D01*
X12847Y8423D01*
Y8415D01*
X12843Y8408D01*
X12839Y8404D01*
X12828Y8400D01*
X12793D01*
X12820D02*
X12847Y8358D01*
X12865Y8389D02*
X12910D01*
Y8396D01*
X12906Y8404D01*
X12903Y8408D01*
X12895Y8411D01*
X12884D01*
X12876Y8408D01*
X12868Y8400D01*
X12865Y8389D01*
Y8381D01*
X12868Y8370D01*
X12876Y8362D01*
X12884Y8358D01*
X12895D01*
X12903Y8362D01*
X12910Y8370D01*
X12927Y8411D02*
X12950Y8358D01*
X12973Y8411D02*
X12950Y8358D01*
X12990Y8366D02*
X12986Y8362D01*
X12990Y8358D01*
X12994Y8362D01*
X12990Y8366D01*
X13135Y8358D02*
X13105Y8438D01*
X13074Y8358D01*
X13085Y8385D02*
X13124D01*
D47*
X11930Y8288D02*
Y8208D01*
X11976D01*
X12046D02*
X12015Y8288D01*
X11985Y8208D01*
X11996Y8235D02*
X12034D01*
X12118Y8277D02*
X12110Y8284D01*
X12099Y8288D01*
X12083D01*
X12072Y8284D01*
X12064Y8277D01*
Y8269D01*
X12068Y8261D01*
X12072Y8258D01*
X12080Y8254D01*
X12102Y8246D01*
X12110Y8242D01*
X12114Y8239D01*
X12118Y8231D01*
Y8220D01*
X12110Y8212D01*
X12099Y8208D01*
X12083D01*
X12072Y8212D01*
X12064Y8220D01*
X12256Y8269D02*
X12252Y8277D01*
X12244Y8284D01*
X12237Y8288D01*
X12221D01*
X12214Y8284D01*
X12206Y8277D01*
X12202Y8269D01*
X12198Y8258D01*
Y8239D01*
X12202Y8227D01*
X12206Y8220D01*
X12214Y8212D01*
X12221Y8208D01*
X12237D01*
X12244Y8212D01*
X12252Y8220D01*
X12256Y8227D01*
X12278Y8288D02*
Y8231D01*
X12282Y8220D01*
X12289Y8212D01*
X12301Y8208D01*
X12309D01*
X12320Y8212D01*
X12328Y8220D01*
X12331Y8231D01*
Y8288D01*
X12353D02*
Y8208D01*
Y8288D02*
X12384Y8208D01*
X12414Y8288D02*
X12384Y8208D01*
X12414Y8288D02*
Y8208D01*
X12437Y8288D02*
Y8208D01*
Y8288D02*
X12472D01*
X12483Y8284D01*
X12487Y8280D01*
X12491Y8273D01*
Y8265D01*
X12487Y8258D01*
X12483Y8254D01*
X12472Y8250D01*
X12437D02*
X12472D01*
X12483Y8246D01*
X12487Y8242D01*
X12491Y8235D01*
Y8223D01*
X12487Y8216D01*
X12483Y8212D01*
X12472Y8208D01*
X12437D01*
X12508Y8288D02*
Y8208D01*
Y8288D02*
X12543D01*
X12554Y8284D01*
X12558Y8280D01*
X12562Y8273D01*
Y8265D01*
X12558Y8258D01*
X12554Y8254D01*
X12543Y8250D01*
X12508D01*
X12535D02*
X12562Y8208D01*
X12629Y8288D02*
X12580D01*
Y8208D01*
X12629D01*
X12580Y8250D02*
X12610D01*
X12696Y8277D02*
X12688Y8284D01*
X12677Y8288D01*
X12662D01*
X12650Y8284D01*
X12643Y8277D01*
Y8269D01*
X12646Y8261D01*
X12650Y8258D01*
X12658Y8254D01*
X12681Y8246D01*
X12688Y8242D01*
X12692Y8239D01*
X12696Y8231D01*
Y8220D01*
X12688Y8212D01*
X12677Y8208D01*
X12662D01*
X12650Y8212D01*
X12643Y8220D01*
X12799Y8288D02*
X12792Y8284D01*
X12784Y8277D01*
X12780Y8269D01*
X12777Y8258D01*
Y8239D01*
X12780Y8227D01*
X12784Y8220D01*
X12792Y8212D01*
X12799Y8208D01*
X12815D01*
X12822Y8212D01*
X12830Y8220D01*
X12834Y8227D01*
X12838Y8239D01*
Y8258D01*
X12834Y8269D01*
X12830Y8277D01*
X12822Y8284D01*
X12815Y8288D01*
X12799D01*
X12856D02*
Y8208D01*
Y8288D02*
X12890D01*
X12902Y8284D01*
X12906Y8280D01*
X12910Y8273D01*
Y8265D01*
X12906Y8258D01*
X12902Y8254D01*
X12890Y8250D01*
X12856D02*
X12890D01*
X12902Y8246D01*
X12906Y8242D01*
X12910Y8235D01*
Y8223D01*
X12906Y8216D01*
X12902Y8212D01*
X12890Y8208D01*
X12856D01*
X12981Y8277D02*
X12973Y8284D01*
X12962Y8288D01*
X12946D01*
X12935Y8284D01*
X12927Y8277D01*
Y8269D01*
X12931Y8261D01*
X12935Y8258D01*
X12943Y8254D01*
X12966Y8246D01*
X12973Y8242D01*
X12977Y8239D01*
X12981Y8231D01*
Y8220D01*
X12973Y8212D01*
X12962Y8208D01*
X12946D01*
X12935Y8212D01*
X12927Y8220D01*
X13048Y8288D02*
X12999D01*
Y8208D01*
X13048D01*
X12999Y8250D02*
X13029D01*
X13061Y8288D02*
Y8208D01*
Y8288D02*
X13096D01*
X13107Y8284D01*
X13111Y8280D01*
X13115Y8273D01*
Y8265D01*
X13111Y8258D01*
X13107Y8254D01*
X13096Y8250D01*
X13061D01*
X13088D02*
X13115Y8208D01*
X13133Y8288D02*
X13163Y8208D01*
X13194Y8288D02*
X13163Y8208D01*
X13265D02*
X13234Y8288D01*
X13204Y8208D01*
X13215Y8235D02*
X13253D01*
X13310Y8288D02*
Y8208D01*
X13284Y8288D02*
X13337D01*
X13369D02*
X13362Y8284D01*
X13354Y8277D01*
X13350Y8269D01*
X13346Y8258D01*
Y8239D01*
X13350Y8227D01*
X13354Y8220D01*
X13362Y8212D01*
X13369Y8208D01*
X13384D01*
X13392Y8212D01*
X13400Y8220D01*
X13404Y8227D01*
X13407Y8239D01*
Y8258D01*
X13404Y8269D01*
X13400Y8277D01*
X13392Y8284D01*
X13384Y8288D01*
X13369D01*
X13426D02*
Y8208D01*
Y8288D02*
X13460D01*
X13472Y8284D01*
X13475Y8280D01*
X13479Y8273D01*
Y8265D01*
X13475Y8258D01*
X13472Y8254D01*
X13460Y8250D01*
X13426D01*
X13453D02*
X13479Y8208D01*
X13497Y8288D02*
X13528Y8250D01*
Y8208D01*
X13558Y8288D02*
X13528Y8250D01*
X13928Y8277D02*
X13925Y8284D01*
X13913Y8288D01*
X13905D01*
X13894Y8284D01*
X13886Y8273D01*
X13883Y8254D01*
Y8235D01*
X13886Y8220D01*
X13894Y8212D01*
X13905Y8208D01*
X13909D01*
X13921Y8212D01*
X13928Y8220D01*
X13932Y8231D01*
Y8235D01*
X13928Y8246D01*
X13921Y8254D01*
X13909Y8258D01*
X13905D01*
X13894Y8254D01*
X13886Y8246D01*
X13883Y8235D01*
X13950Y8197D02*
X14003Y8288D01*
X14008Y8273D02*
X14016Y8277D01*
X14027Y8288D01*
Y8208D01*
X14113Y8288D02*
X14075D01*
X14071Y8254D01*
X14075Y8258D01*
X14086Y8261D01*
X14097D01*
X14109Y8258D01*
X14116Y8250D01*
X14120Y8239D01*
Y8231D01*
X14116Y8220D01*
X14109Y8212D01*
X14097Y8208D01*
X14086D01*
X14075Y8212D01*
X14071Y8216D01*
X14067Y8223D01*
X14138Y8197D02*
X14192Y8288D01*
X14201Y8269D02*
Y8273D01*
X14204Y8280D01*
X14208Y8284D01*
X14216Y8288D01*
X14231D01*
X14239Y8284D01*
X14243Y8280D01*
X14246Y8273D01*
Y8265D01*
X14243Y8258D01*
X14235Y8246D01*
X14197Y8208D01*
X14250D01*
X14291Y8288D02*
X14280Y8284D01*
X14272Y8273D01*
X14268Y8254D01*
Y8242D01*
X14272Y8223D01*
X14280Y8212D01*
X14291Y8208D01*
X14299D01*
X14310Y8212D01*
X14318Y8223D01*
X14321Y8242D01*
Y8254D01*
X14318Y8273D01*
X14310Y8284D01*
X14299Y8288D01*
X14291D01*
X14362D02*
X14351Y8284D01*
X14343Y8273D01*
X14339Y8254D01*
Y8242D01*
X14343Y8223D01*
X14351Y8212D01*
X14362Y8208D01*
X14370D01*
X14381Y8212D01*
X14389Y8223D01*
X14393Y8242D01*
Y8254D01*
X14389Y8273D01*
X14381Y8284D01*
X14370Y8288D01*
X14362D01*
X14460Y8261D02*
X14456Y8250D01*
X14449Y8242D01*
X14437Y8239D01*
X14433D01*
X14422Y8242D01*
X14414Y8250D01*
X14411Y8261D01*
Y8265D01*
X14414Y8277D01*
X14422Y8284D01*
X14433Y8288D01*
X14437D01*
X14449Y8284D01*
X14456Y8277D01*
X14460Y8261D01*
Y8242D01*
X14456Y8223D01*
X14449Y8212D01*
X14437Y8208D01*
X14430D01*
X14418Y8212D01*
X14414Y8220D01*
D48*
X16010Y10220D02*
D03*
X15223D02*
D03*
D49*
X15144Y9905D02*
D03*
X15301D02*
D03*
X15459D02*
D03*
X15616D02*
D03*
X15774D02*
D03*
X15931D02*
D03*
X16089D02*
D03*
Y10062D02*
D03*
X15931D02*
D03*
X15774D02*
D03*
X15616D02*
D03*
X15459D02*
D03*
X15301D02*
D03*
X15144D02*
D03*
X15774Y10220D02*
D03*
X15616D02*
D03*
X15459D02*
D03*
X16089Y10377D02*
D03*
X15931D02*
D03*
X15774D02*
D03*
X15616D02*
D03*
X15459D02*
D03*
X15301D02*
D03*
X15144D02*
D03*
X16089Y10534D02*
D03*
X15931D02*
D03*
X15774D02*
D03*
X15616D02*
D03*
X15459D02*
D03*
X15301D02*
D03*
X15144D02*
D03*
D50*
X15366Y10830D02*
D03*
Y10869D02*
D03*
Y10909D02*
D03*
X15405D02*
D03*
Y10869D02*
D03*
Y10830D02*
D03*
X14685Y13999D02*
D03*
X14725D02*
D03*
X14764D02*
D03*
Y13960D02*
D03*
X14725D02*
D03*
X14685D02*
D03*
X16096Y11342D02*
D03*
Y11302D02*
D03*
Y11263D02*
D03*
X16136D02*
D03*
Y11302D02*
D03*
Y11342D02*
D03*
X16107Y10909D02*
D03*
Y10869D02*
D03*
Y10830D02*
D03*
X16146D02*
D03*
Y10869D02*
D03*
Y10909D02*
D03*
X10827Y13349D02*
D03*
X10788D02*
D03*
X10748D02*
D03*
Y13310D02*
D03*
X10788D02*
D03*
X10827D02*
D03*
X10748Y13960D02*
D03*
X10788D02*
D03*
X10827D02*
D03*
Y13999D02*
D03*
X10788D02*
D03*
X10748D02*
D03*
X11614Y13349D02*
D03*
X11575D02*
D03*
X11536D02*
D03*
Y13310D02*
D03*
X11575D02*
D03*
X11614D02*
D03*
X11536Y13960D02*
D03*
X11575D02*
D03*
X11614D02*
D03*
Y13999D02*
D03*
X11575D02*
D03*
X11536D02*
D03*
X12402Y13349D02*
D03*
X12362D02*
D03*
X12323D02*
D03*
Y13310D02*
D03*
X12362D02*
D03*
X12402D02*
D03*
X12323Y13960D02*
D03*
X12362D02*
D03*
X12402D02*
D03*
Y13999D02*
D03*
X12362D02*
D03*
X12323D02*
D03*
X13189Y13349D02*
D03*
X13150D02*
D03*
X13110D02*
D03*
Y13310D02*
D03*
X13150D02*
D03*
X13189D02*
D03*
X13110Y13960D02*
D03*
X13150D02*
D03*
X13189D02*
D03*
Y13999D02*
D03*
X13150D02*
D03*
X13110D02*
D03*
X13977Y13349D02*
D03*
X13937D02*
D03*
X13898D02*
D03*
Y13310D02*
D03*
X13937D02*
D03*
X13977D02*
D03*
X13898Y13960D02*
D03*
X13937D02*
D03*
X13977D02*
D03*
Y13999D02*
D03*
X13937D02*
D03*
X13898D02*
D03*
X14764Y13349D02*
D03*
X14725D02*
D03*
X14685D02*
D03*
Y13310D02*
D03*
X14725D02*
D03*
X14764D02*
D03*
D51*
X15437Y13699D02*
D03*
X15485D02*
D03*
X15532D02*
D03*
X15579D02*
D03*
X15626D02*
D03*
Y13746D02*
D03*
X15579D02*
D03*
X15532D02*
D03*
X15485D02*
D03*
X15437D02*
D03*
X15626Y13793D02*
D03*
X15579D02*
D03*
X15532D02*
D03*
X15485D02*
D03*
X15437D02*
D03*
X15626Y13840D02*
D03*
X15579D02*
D03*
X15532D02*
D03*
X15485D02*
D03*
X15437D02*
D03*
X15626Y13887D02*
D03*
X15579D02*
D03*
X15532D02*
D03*
X15485D02*
D03*
X15437D02*
D03*
X15428Y13022D02*
D03*
X15476D02*
D03*
X15523D02*
D03*
X15570D02*
D03*
X15617D02*
D03*
Y13069D02*
D03*
X15570D02*
D03*
X15523D02*
D03*
X15476D02*
D03*
X15428D02*
D03*
X15617Y13116D02*
D03*
X15570D02*
D03*
X15523D02*
D03*
X15476D02*
D03*
X15428D02*
D03*
X15617Y13164D02*
D03*
X15570D02*
D03*
X15523D02*
D03*
X15476D02*
D03*
X15428D02*
D03*
X15617Y13211D02*
D03*
X15570D02*
D03*
X15523D02*
D03*
X15476D02*
D03*
X15428D02*
D03*
D52*
X16069Y12267D02*
D03*
X16066Y12895D02*
D03*
X15214Y11695D02*
D03*
D53*
X15969Y12267D02*
D03*
X16069Y12367D02*
D03*
X15969D02*
D03*
X16069Y12467D02*
D03*
X15969D02*
D03*
X16069Y12567D02*
D03*
X15969D02*
D03*
X16069Y12667D02*
D03*
X15969D02*
D03*
X15966Y13995D02*
D03*
X16066D02*
D03*
X15966Y13895D02*
D03*
X16066D02*
D03*
X15966Y13795D02*
D03*
X16066D02*
D03*
X15966Y13695D02*
D03*
X16066D02*
D03*
X15966Y13595D02*
D03*
X16066D02*
D03*
X15966Y13495D02*
D03*
X16066D02*
D03*
X15966Y13395D02*
D03*
X16066D02*
D03*
X15966Y13295D02*
D03*
X16066D02*
D03*
X15966Y13195D02*
D03*
X16066D02*
D03*
X15966Y13095D02*
D03*
X16066D02*
D03*
X15966Y12995D02*
D03*
X16066D02*
D03*
X15966Y12895D02*
D03*
X15214Y11795D02*
D03*
D54*
X14384Y10631D02*
D03*
X10454Y10802D02*
D03*
X15261Y12609D02*
D03*
X15626D02*
D03*
X15705Y12204D02*
D03*
X15638Y11477D02*
D03*
X15623Y11127D02*
D03*
X15723D02*
D03*
X15788Y13165D02*
D03*
X15610Y13310D02*
D03*
X15787Y13309D02*
D03*
X15456Y13320D02*
D03*
X15801Y13335D02*
D03*
X15415Y13326D02*
D03*
X15824Y13357D02*
D03*
X15870Y13001D02*
D03*
X15871Y12971D02*
D03*
X15807Y12945D02*
D03*
X15811Y12911D02*
D03*
X16046Y11326D02*
D03*
X16012Y11482D02*
D03*
X16030Y11043D02*
D03*
X16115Y11062D02*
D03*
X16071Y11082D02*
D03*
X15960Y11083D02*
D03*
X15969Y10793D02*
D03*
X16125Y11008D02*
D03*
X15172Y11005D02*
D03*
X15502Y10945D02*
D03*
X15343Y10981D02*
D03*
X16167Y11680D02*
D03*
Y10742D02*
D03*
X15398Y10734D02*
D03*
X15197Y10724D02*
D03*
X14939Y10930D02*
D03*
X14937Y10704D02*
D03*
X15193Y10942D02*
D03*
X15272Y10638D02*
D03*
X14911Y10646D02*
D03*
X12572Y10661D02*
D03*
X12597Y10691D02*
D03*
X12622Y10661D02*
D03*
X12647Y10691D02*
D03*
Y10361D02*
D03*
X12622Y10336D02*
D03*
X12597Y10362D02*
D03*
X12572Y10338D02*
D03*
X10336Y10697D02*
D03*
X11039D02*
D03*
X11041Y10423D02*
D03*
X10391Y10741D02*
D03*
X11072Y10740D02*
D03*
Y10455D02*
D03*
X11111Y10802D02*
D03*
X11151Y10521D02*
D03*
X11171Y10820D02*
D03*
Y10555D02*
D03*
X10441Y10760D02*
D03*
X15671Y11620D02*
D03*
Y10690D02*
D03*
X10441Y10600D02*
D03*
X10811Y10780D02*
D03*
X12107Y10639D02*
D03*
X10811Y10600D02*
D03*
X14881Y10250D02*
D03*
X14682Y10218D02*
D03*
X14687Y10302D02*
D03*
X10568Y10470D02*
D03*
X10669Y10469D02*
D03*
X10671Y10409D02*
D03*
X15530Y11042D02*
D03*
X15548Y11457D02*
D03*
X15216Y12020D02*
D03*
X15776Y11042D02*
D03*
X16079Y11581D02*
D03*
X15940Y11819D02*
D03*
X15756Y13725D02*
D03*
X15708Y13697D02*
D03*
X15260Y13059D02*
D03*
X15315Y13616D02*
D03*
X15347Y13047D02*
D03*
X15352Y13725D02*
D03*
X15166Y13016D02*
D03*
X15187Y12982D02*
D03*
X15208Y13015D02*
D03*
X15229Y12982D02*
D03*
X15060Y13650D02*
D03*
X15087Y14045D02*
D03*
X15033Y13689D02*
D03*
X15260Y13346D02*
D03*
X15338Y13418D02*
D03*
X15524Y13378D02*
D03*
X15547Y13495D02*
D03*
X15260Y13739D02*
D03*
X15322Y13834D02*
D03*
X15112Y14064D02*
D03*
X15194Y13434D02*
D03*
X15228Y13404D02*
D03*
X15136Y13540D02*
D03*
X15166Y13513D02*
D03*
X15314Y13875D02*
D03*
X15270Y14025D02*
D03*
X15358Y13932D02*
D03*
X15301Y14023D02*
D03*
X15300Y13993D02*
D03*
X15331Y13993D02*
D03*
X15330Y13963D02*
D03*
X15360Y13964D02*
D03*
X15381Y13250D02*
D03*
X15344Y13075D02*
D03*
X15544Y12940D02*
D03*
X15694Y13186D02*
D03*
X15663Y13247D02*
D03*
X15579Y13290D02*
D03*
X15513D02*
D03*
X15473Y13289D02*
D03*
X15434D02*
D03*
X15353Y13756D02*
D03*
X15552Y13620D02*
D03*
X15710Y13745D02*
D03*
X15706Y13863D02*
D03*
X15672Y13922D02*
D03*
X15588Y13968D02*
D03*
X15512Y13969D02*
D03*
X15423Y13966D02*
D03*
X15908Y13972D02*
D03*
X15866D02*
D03*
X15824D02*
D03*
X15782D02*
D03*
X15887Y14006D02*
D03*
X15845D02*
D03*
X15803D02*
D03*
X15761D02*
D03*
X13254Y13176D02*
D03*
X14323Y13170D02*
D03*
X14739Y13193D02*
D03*
X13050Y13186D02*
D03*
X14137Y13174D02*
D03*
X14667Y13189D02*
D03*
X11102Y13157D02*
D03*
X10922Y13181D02*
D03*
X12178Y13159D02*
D03*
X13993Y13190D02*
D03*
X11992Y13183D02*
D03*
X13881Y13193D02*
D03*
X13088Y12465D02*
D03*
X12551Y11299D02*
D03*
X14485Y11357D02*
D03*
X12950Y11409D02*
D03*
X12393Y11371D02*
D03*
X14479Y12551D02*
D03*
X11520Y12550D02*
D03*
X11632Y12526D02*
D03*
X14082Y11491D02*
D03*
X13192Y11487D02*
D03*
X12306Y11434D02*
D03*
X11420D02*
D03*
X10534Y11430D02*
D03*
X10413Y13798D02*
D03*
X14721Y11443D02*
D03*
X11176Y11380D02*
D03*
X12064Y11384D02*
D03*
X13846Y11446D02*
D03*
X10365Y11380D02*
D03*
X10364Y13505D02*
D03*
X14532Y13126D02*
D03*
X13578Y13197D02*
D03*
X13462Y13209D02*
D03*
X14658Y13055D02*
D03*
X14532Y13056D02*
D03*
X13583Y13062D02*
D03*
X13460Y13059D02*
D03*
X12514Y13201D02*
D03*
X12515Y13061D02*
D03*
X12387Y13218D02*
D03*
Y13064D02*
D03*
X11454Y13238D02*
D03*
Y13056D02*
D03*
X11313Y13259D02*
D03*
Y13065D02*
D03*
X12482Y12868D02*
D03*
X12467Y12723D02*
D03*
X11917Y12928D02*
D03*
X11667Y12938D02*
D03*
X12332Y12748D02*
D03*
X12052Y12983D02*
D03*
X12132Y12748D02*
D03*
X11664Y12655D02*
D03*
X12343Y12903D02*
D03*
X11977Y12873D02*
D03*
X11752Y12863D02*
D03*
X12307Y12908D02*
D03*
X12072Y12858D02*
D03*
X11927Y12733D02*
D03*
X12327Y12848D02*
D03*
X12517Y12868D02*
D03*
X12153Y13036D02*
D03*
X11827Y12953D02*
D03*
X12177Y12913D02*
D03*
X12027Y12888D02*
D03*
X11832Y12773D02*
D03*
X11722Y12923D02*
D03*
X13554Y12868D02*
D03*
X13539Y12723D02*
D03*
X12989Y12928D02*
D03*
X12739Y12938D02*
D03*
X13404Y12748D02*
D03*
X13124Y12983D02*
D03*
X13204Y12748D02*
D03*
X12737Y12655D02*
D03*
X13415Y12903D02*
D03*
X13049Y12873D02*
D03*
X12824Y12863D02*
D03*
X13379Y12908D02*
D03*
X13144Y12858D02*
D03*
X12999Y12733D02*
D03*
X13399Y12848D02*
D03*
X13589Y12868D02*
D03*
X13226Y13036D02*
D03*
X12899Y12953D02*
D03*
X13249Y12913D02*
D03*
X13099Y12888D02*
D03*
X12904Y12773D02*
D03*
X12794Y12923D02*
D03*
X14062Y12928D02*
D03*
X13812Y12938D02*
D03*
X14477Y12748D02*
D03*
X14197Y12983D02*
D03*
X14277Y12748D02*
D03*
X13810Y12655D02*
D03*
X14488Y12903D02*
D03*
X14122Y12873D02*
D03*
X13897Y12863D02*
D03*
X14452Y12908D02*
D03*
X14217Y12858D02*
D03*
X14072Y12733D02*
D03*
X14472Y12848D02*
D03*
X14299Y13036D02*
D03*
X13972Y12953D02*
D03*
X14322Y12913D02*
D03*
X14172Y12888D02*
D03*
X13977Y12773D02*
D03*
X13867Y12923D02*
D03*
X11080Y13036D02*
D03*
X14367Y10892D02*
D03*
X13481Y10799D02*
D03*
X13482Y10894D02*
D03*
X12593Y10823D02*
D03*
X12596Y10899D02*
D03*
X11710Y10895D02*
D03*
X10823Y10891D02*
D03*
X14367Y11465D02*
D03*
X13482Y11412D02*
D03*
X13483Y11467D02*
D03*
X12597Y11381D02*
D03*
Y11463D02*
D03*
X11710Y11338D02*
D03*
X11709Y11467D02*
D03*
X10824Y11318D02*
D03*
X10826Y11466D02*
D03*
X14369Y12056D02*
D03*
X13481Y11989D02*
D03*
X13482Y12060D02*
D03*
X12597Y11957D02*
D03*
X12598Y12053D02*
D03*
X11709Y11921D02*
D03*
X11710Y12050D02*
D03*
X10821Y11885D02*
D03*
X10822Y12053D02*
D03*
X11931Y10677D02*
D03*
X11906Y10645D02*
D03*
X11783Y10522D02*
D03*
X11806Y10555D02*
D03*
X11857Y10584D02*
D03*
X11758Y10490D02*
D03*
X11733Y10447D02*
D03*
X12281Y10429D02*
D03*
X12511Y10670D02*
D03*
X12225Y10702D02*
D03*
X12155Y10734D02*
D03*
X12257Y10471D02*
D03*
X12257Y10392D02*
D03*
X12231Y10509D02*
D03*
X12183Y10547D02*
D03*
X12158Y10579D02*
D03*
X12131Y10611D02*
D03*
X12057Y10668D02*
D03*
X12032Y10701D02*
D03*
X12007Y10732D02*
D03*
X11881Y10614D02*
D03*
X12982Y10640D02*
D03*
X13051Y10612D02*
D03*
X13125Y10579D02*
D03*
X12281Y10350D02*
D03*
X12181Y10395D02*
D03*
X12156Y10350D02*
D03*
X12231D02*
D03*
X12131Y10394D02*
D03*
X13396Y10548D02*
D03*
X13891Y10511D02*
D03*
X11621Y10677D02*
D03*
X14583Y13536D02*
D03*
X14859Y13768D02*
D03*
X14839Y13447D02*
D03*
X14669Y13822D02*
D03*
X14589Y13313D02*
D03*
X14594Y13405D02*
D03*
X14844Y13905D02*
D03*
X14860Y13995D02*
D03*
X14746Y13639D02*
D03*
X14745Y13674D02*
D03*
X14855Y13482D02*
D03*
X14595D02*
D03*
X14849Y13820D02*
D03*
X14603Y13873D02*
D03*
X14678Y13650D02*
D03*
X14591Y13818D02*
D03*
X14669Y13494D02*
D03*
X14862Y13609D02*
D03*
X14780Y13815D02*
D03*
X14681Y13739D02*
D03*
X13795Y13536D02*
D03*
X14072Y13768D02*
D03*
X14051Y13447D02*
D03*
X13882Y13822D02*
D03*
X13801Y13313D02*
D03*
X13806Y13405D02*
D03*
X14057Y13905D02*
D03*
X14073Y13995D02*
D03*
X13959Y13639D02*
D03*
X13958Y13674D02*
D03*
X14068Y13482D02*
D03*
X13807D02*
D03*
X14061Y13820D02*
D03*
X13815Y13873D02*
D03*
X13891Y13650D02*
D03*
X13803Y13818D02*
D03*
X13882Y13494D02*
D03*
X14074Y13609D02*
D03*
X13992Y13815D02*
D03*
X13894Y13739D02*
D03*
X13008Y13536D02*
D03*
X13285Y13768D02*
D03*
X13264Y13447D02*
D03*
X13095Y13822D02*
D03*
X13014Y13313D02*
D03*
X13019Y13405D02*
D03*
X13270Y13905D02*
D03*
X13286Y13995D02*
D03*
X13171Y13639D02*
D03*
X13170Y13674D02*
D03*
X13281Y13482D02*
D03*
X13020D02*
D03*
X13274Y13820D02*
D03*
X13028Y13873D02*
D03*
X13104Y13650D02*
D03*
X13016Y13818D02*
D03*
X13095Y13494D02*
D03*
X13287Y13609D02*
D03*
X13205Y13815D02*
D03*
X13106Y13739D02*
D03*
X11433Y13536D02*
D03*
X11710Y13768D02*
D03*
X11689Y13447D02*
D03*
X11520Y13822D02*
D03*
X11439Y13313D02*
D03*
X11444Y13405D02*
D03*
X11695Y13905D02*
D03*
X11711Y13995D02*
D03*
X11597Y13639D02*
D03*
X11596Y13674D02*
D03*
X11706Y13482D02*
D03*
X11445D02*
D03*
X11699Y13820D02*
D03*
X11453Y13873D02*
D03*
X11529Y13650D02*
D03*
X11441Y13818D02*
D03*
X11520Y13494D02*
D03*
X11712Y13609D02*
D03*
X11630Y13815D02*
D03*
X11532Y13739D02*
D03*
X10646Y13536D02*
D03*
X10922Y13768D02*
D03*
X10902Y13447D02*
D03*
X10732Y13822D02*
D03*
X10652Y13313D02*
D03*
X10657Y13405D02*
D03*
X10907Y13905D02*
D03*
X10923Y13995D02*
D03*
X10809Y13639D02*
D03*
X10808Y13674D02*
D03*
X10918Y13482D02*
D03*
X10658D02*
D03*
X10912Y13820D02*
D03*
X10666Y13873D02*
D03*
X10741Y13650D02*
D03*
X10654Y13818D02*
D03*
X10732Y13494D02*
D03*
X10925Y13609D02*
D03*
X10843Y13815D02*
D03*
X10744Y13739D02*
D03*
X12497Y13768D02*
D03*
X12231Y13405D02*
D03*
X12227Y13313D02*
D03*
X12482Y13905D02*
D03*
X12498Y13995D02*
D03*
X12477Y13447D02*
D03*
X12307Y13822D02*
D03*
X12493Y13482D02*
D03*
X12232D02*
D03*
X12486Y13820D02*
D03*
X12240Y13873D02*
D03*
X12229Y13818D02*
D03*
X12307Y13494D02*
D03*
X12499Y13609D02*
D03*
X12417Y13815D02*
D03*
X12659Y10959D02*
D03*
X12796Y11177D02*
D03*
X12469Y11253D02*
D03*
X12387Y11113D02*
D03*
X12872Y11060D02*
D03*
X12377Y11161D02*
D03*
X12460Y11010D02*
D03*
X12657Y11032D02*
D03*
X12347Y11171D02*
D03*
X12805Y11238D02*
D03*
X12221Y13536D02*
D03*
X12623Y11073D02*
D03*
X12647Y11198D02*
D03*
X12319Y13739D02*
D03*
X12383Y13674D02*
D03*
X12384Y13639D02*
D03*
X12316Y13650D02*
D03*
X12872Y11060D02*
D03*
X14419Y11198D02*
D03*
X14431Y10959D02*
D03*
X14159Y11113D02*
D03*
X14644Y11060D02*
D03*
D03*
X14149Y11161D02*
D03*
X14232Y11010D02*
D03*
X14429Y11032D02*
D03*
X14119Y11171D02*
D03*
X10875Y11769D02*
D03*
X10887Y11530D02*
D03*
X10697Y11824D02*
D03*
X11024Y11748D02*
D03*
X10616Y11684D02*
D03*
X11101Y11631D02*
D03*
D03*
X10606Y11732D02*
D03*
X10852Y11644D02*
D03*
X10688Y11581D02*
D03*
X10885Y11603D02*
D03*
X10575Y11741D02*
D03*
X11033Y11809D02*
D03*
X11761Y11769D02*
D03*
X11773Y11530D02*
D03*
X11583Y11824D02*
D03*
X11910Y11748D02*
D03*
X11501Y11684D02*
D03*
X11987Y11631D02*
D03*
D03*
X11492Y11732D02*
D03*
X11738Y11644D02*
D03*
X11574Y11581D02*
D03*
X11771Y11603D02*
D03*
X11461Y11741D02*
D03*
X11919Y11809D02*
D03*
X11761Y11198D02*
D03*
X11773Y10959D02*
D03*
X11583Y11253D02*
D03*
X11910Y11177D02*
D03*
X11501Y11113D02*
D03*
X11987Y11060D02*
D03*
D03*
X11492Y11161D02*
D03*
X11738Y11073D02*
D03*
X11574Y11010D02*
D03*
X11771Y11032D02*
D03*
X11461Y11171D02*
D03*
X11919Y11238D02*
D03*
X10875Y11198D02*
D03*
X10887Y10959D02*
D03*
X10697Y11253D02*
D03*
X11024Y11177D02*
D03*
X10616Y11113D02*
D03*
X11101Y11060D02*
D03*
D03*
X10606Y11161D02*
D03*
X10852Y11073D02*
D03*
X10688Y11010D02*
D03*
X10885Y11032D02*
D03*
X10575Y11171D02*
D03*
X11033Y11238D02*
D03*
X14419Y11769D02*
D03*
X14431Y11530D02*
D03*
X14241Y11824D02*
D03*
X14567Y11748D02*
D03*
X14159Y11684D02*
D03*
X14644Y11631D02*
D03*
D03*
X14149Y11732D02*
D03*
X14395Y11644D02*
D03*
X14232Y11581D02*
D03*
X14429Y11603D02*
D03*
X14119Y11741D02*
D03*
X14576Y11809D02*
D03*
X13533Y11769D02*
D03*
X13545Y11530D02*
D03*
X13355Y11824D02*
D03*
X13682Y11748D02*
D03*
X13273Y11684D02*
D03*
X13758Y11631D02*
D03*
D03*
X13263Y11732D02*
D03*
X13509Y11644D02*
D03*
X13346Y11581D02*
D03*
X13543Y11603D02*
D03*
X13233Y11741D02*
D03*
X13690Y11809D02*
D03*
X13533Y12360D02*
D03*
X13545Y12120D02*
D03*
X13355Y12415D02*
D03*
X13682Y12339D02*
D03*
X13273Y12275D02*
D03*
X13758Y12222D02*
D03*
D03*
X13263Y12322D02*
D03*
X13509Y12235D02*
D03*
X13346Y12172D02*
D03*
X13543Y12193D02*
D03*
X13233Y12332D02*
D03*
X13690Y12400D02*
D03*
X12647Y12360D02*
D03*
X12659Y12120D02*
D03*
X12469Y12415D02*
D03*
X12796Y12339D02*
D03*
X12387Y12275D02*
D03*
X12872Y12222D02*
D03*
D03*
X12377Y12322D02*
D03*
X12623Y12235D02*
D03*
X12460Y12172D02*
D03*
X12657Y12193D02*
D03*
X12347Y12332D02*
D03*
X12805Y12400D02*
D03*
X14419Y12360D02*
D03*
X14431Y12120D02*
D03*
X14241Y12415D02*
D03*
X14159Y12275D02*
D03*
X14644Y12222D02*
D03*
D03*
X14149Y12322D02*
D03*
X14395Y12235D02*
D03*
X14232Y12172D02*
D03*
X14429Y12193D02*
D03*
X14119Y12332D02*
D03*
X14576Y12400D02*
D03*
X10875Y12360D02*
D03*
X10887Y12120D02*
D03*
X10697Y12415D02*
D03*
X11024Y12339D02*
D03*
X10616Y12275D02*
D03*
X11101Y12222D02*
D03*
D03*
X10606Y12322D02*
D03*
X10852Y12235D02*
D03*
X10688Y12172D02*
D03*
X10885Y12193D02*
D03*
X10575Y12332D02*
D03*
X11033Y12400D02*
D03*
X13545Y10959D02*
D03*
X13355Y11253D02*
D03*
X13682Y11177D02*
D03*
X13273Y11113D02*
D03*
X13758Y11060D02*
D03*
D03*
X13263Y11161D02*
D03*
X13509Y11073D02*
D03*
X13346Y11010D02*
D03*
X13543Y11032D02*
D03*
X13233Y11171D02*
D03*
X12647Y11769D02*
D03*
X12659Y11530D02*
D03*
X12469Y11824D02*
D03*
X12796Y11748D02*
D03*
X12387Y11684D02*
D03*
X12872Y11631D02*
D03*
D03*
X12377Y11732D02*
D03*
X12623Y11644D02*
D03*
X12460Y11581D02*
D03*
X12657Y11603D02*
D03*
X12347Y11741D02*
D03*
X12805Y11809D02*
D03*
X11761Y12360D02*
D03*
X11773Y12120D02*
D03*
X11583Y12415D02*
D03*
X11910Y12339D02*
D03*
X11501Y12275D02*
D03*
X11987Y12222D02*
D03*
D03*
X11492Y12322D02*
D03*
X11738Y12235D02*
D03*
X11574Y12172D02*
D03*
X11771Y12193D02*
D03*
X11461Y12332D02*
D03*
X11919Y12400D02*
D03*
X11444Y12868D02*
D03*
X10979Y12983D02*
D03*
X11259Y12748D02*
D03*
X11254Y12848D02*
D03*
X11059Y12748D02*
D03*
X10954Y12888D02*
D03*
X11104Y12913D02*
D03*
X10754Y12953D02*
D03*
X10649Y12923D02*
D03*
X10759Y12773D02*
D03*
X11270Y12903D02*
D03*
X10679Y12863D02*
D03*
X10904Y12873D02*
D03*
X11234Y12908D02*
D03*
X10999Y12858D02*
D03*
X10854Y12733D02*
D03*
X10844Y12928D02*
D03*
X11394Y12723D02*
D03*
X11409Y12868D02*
D03*
X10594Y12938D02*
D03*
X10591Y12655D02*
D03*
X10336D02*
D03*
X10736Y12055D02*
D03*
X10391D02*
D03*
X10736Y11465D02*
D03*
X10446D02*
D03*
X10736Y10890D02*
D03*
X11211Y12610D02*
D03*
X11621Y12050D02*
D03*
X11266D02*
D03*
X11621Y11470D02*
D03*
X11331D02*
D03*
X11621Y10890D02*
D03*
X12091Y12650D02*
D03*
X12506Y12055D02*
D03*
X12156D02*
D03*
X12511Y11465D02*
D03*
X12226D02*
D03*
X12511Y10890D02*
D03*
X12981Y12650D02*
D03*
X13396Y12060D02*
D03*
X13051D02*
D03*
X13396Y11465D02*
D03*
X13126D02*
D03*
X13396Y10890D02*
D03*
X14281Y12055D02*
D03*
X13896D02*
D03*
X14281Y11465D02*
D03*
X13966D02*
D03*
X14286Y10890D02*
D03*
X14036D02*
D03*
X12106Y10350D02*
D03*
X12031D02*
D03*
X11907Y10349D02*
D03*
X11982Y10346D02*
D03*
X11857Y10348D02*
D03*
X11783D02*
D03*
X11733Y10346D02*
D03*
X11757Y10383D02*
D03*
X11807Y10385D02*
D03*
X11881Y10389D02*
D03*
X12007Y10391D02*
D03*
X11931Y10390D02*
D03*
X12056D02*
D03*
X12257Y10392D02*
D03*
X11214Y10583D02*
D03*
X11269Y10614D02*
D03*
X11331Y10645D02*
D03*
X11516Y10365D02*
D03*
X14371D02*
D03*
X14171Y10340D02*
D03*
X14376Y10445D02*
D03*
X14036Y10433D02*
D03*
X14241Y11253D02*
D03*
X14395Y11073D02*
D03*
X13533Y11198D02*
D03*
X13690Y11238D02*
D03*
X14567Y11177D02*
D03*
X14576Y11238D02*
D03*
X14011Y10355D02*
D03*
X14081Y10385D02*
D03*
X14771Y10490D02*
D03*
X13964Y10471D02*
D03*
X15111Y12260D02*
D03*
Y12340D02*
D03*
X15291D02*
D03*
X15286Y12260D02*
D03*
X15221Y12215D02*
D03*
X15351Y12036D02*
D03*
X15494Y12026D02*
D03*
X15562Y12045D02*
D03*
X15262Y12022D02*
D03*
X15602Y12181D02*
D03*
X15453Y12166D02*
D03*
X15465Y12219D02*
D03*
X15602Y12260D02*
D03*
X15553Y12330D02*
D03*
X15326Y12415D02*
D03*
X15237Y12502D02*
D03*
X15277Y12501D02*
D03*
X15351Y12267D02*
D03*
X15116Y12306D02*
D03*
X15599Y12220D02*
D03*
X15560Y12493D02*
D03*
X14951Y10235D02*
D03*
X15717Y11503D02*
D03*
X15822Y11833D02*
D03*
X15772Y11513D02*
D03*
X15822Y11508D02*
D03*
X15862D02*
D03*
X16077Y11778D02*
D03*
X15972Y11623D02*
D03*
X15682Y11768D02*
D03*
X15882Y11838D02*
D03*
X16017Y11843D02*
D03*
X15979Y10943D02*
D03*
X15694Y10848D02*
D03*
X15789Y10693D02*
D03*
X15414Y10778D02*
D03*
X15814Y10843D02*
D03*
X15694Y10723D02*
D03*
X16029Y10938D02*
D03*
X16114Y10958D02*
D03*
X16064Y10698D02*
D03*
X15969Y10793D02*
D03*
X16029Y10701D02*
D03*
X15744Y10698D02*
D03*
X15714Y11043D02*
D03*
X15800Y10894D02*
D03*
X15469Y11038D02*
D03*
X15833Y11147D02*
D03*
X15973Y11197D02*
D03*
X15743Y11462D02*
D03*
X15998Y11452D02*
D03*
X16043Y11242D02*
D03*
X15878Y11354D02*
D03*
X16029Y10701D02*
D03*
X11110Y10341D02*
D03*
X10969Y10415D02*
D03*
X11020Y10462D02*
D03*
X10520Y10440D02*
D03*
X10431Y10393D02*
D03*
X15165Y10955D02*
D03*
X15166Y10749D02*
D03*
X15133Y10680D02*
D03*
X15130Y11030D02*
D03*
X15346Y13106D02*
D03*
X15299Y12970D02*
D03*
X15512Y12940D02*
D03*
X15604Y12849D02*
D03*
X15356Y13784D02*
D03*
X15307Y13650D02*
D03*
X15521Y13618D02*
D03*
X15615Y13534D02*
D03*
X14567Y12339D02*
D03*
X15407Y12501D02*
D03*
X15513Y12508D02*
D03*
X11108Y13651D02*
D03*
X11069Y13690D02*
D03*
X11068Y14136D02*
D03*
X11108Y14121D02*
D03*
X11896Y13651D02*
D03*
X11857Y13690D02*
D03*
X12683Y13651D02*
D03*
X12644Y13690D02*
D03*
X13471Y13650D02*
D03*
X13432Y13689D02*
D03*
X14258Y13650D02*
D03*
X14219Y13689D02*
D03*
X11857Y14110D02*
D03*
X11896Y14089D02*
D03*
X12644Y14092D02*
D03*
X12683Y14069D02*
D03*
X13433Y14070D02*
D03*
X13471Y14058D02*
D03*
X14219Y14047D02*
D03*
X14258Y14021D02*
D03*
X13652Y13469D02*
D03*
Y13363D02*
D03*
X13843Y13335D02*
D03*
X14627Y12868D02*
D03*
X14612Y12723D02*
D03*
X14662Y12868D02*
D03*
X14691Y12551D02*
D03*
X14713Y12572D02*
D03*
X14735Y12593D02*
D03*
X14757Y12614D02*
D03*
X14776Y12635D02*
D03*
X14824Y12677D02*
D03*
X14829Y12992D02*
D03*
X14803Y13013D02*
D03*
X14829Y13126D02*
D03*
X14850Y13177D02*
D03*
X14871Y13198D02*
D03*
X14890Y13219D02*
D03*
X14913Y13240D02*
D03*
X14935Y13261D02*
D03*
X14959Y13282D02*
D03*
X14691Y12056D02*
D03*
X14713Y11989D02*
D03*
X14735Y11957D02*
D03*
X14757Y11922D02*
D03*
X14776Y11885D02*
D03*
X14882Y11318D02*
D03*
X14865Y11355D02*
D03*
X14846Y11380D02*
D03*
X14824Y11412D02*
D03*
X14797Y11460D02*
D03*
X14673Y10893D02*
D03*
X14694Y10863D02*
D03*
X14715Y10844D02*
D03*
X14735Y10823D02*
D03*
X14755Y10799D02*
D03*
X15508Y11827D02*
D03*
X15487Y11795D02*
D03*
X15466Y11827D02*
D03*
X15445Y11795D02*
D03*
X15424Y11827D02*
D03*
X15403Y11795D02*
D03*
X15382Y11827D02*
D03*
X15361Y11795D02*
D03*
X14850Y12971D02*
D03*
X14934Y12887D02*
D03*
X14924Y12782D02*
D03*
X14797Y12656D02*
D03*
X14864Y12720D02*
D03*
X14846Y12698D02*
D03*
X14883Y12742D02*
D03*
X14903Y12762D02*
D03*
X14960Y12866D02*
D03*
X14912Y12908D02*
D03*
X14871Y12950D02*
D03*
X14891Y12929D02*
D03*
X14944Y12803D02*
D03*
X14992Y11002D02*
D03*
X15004Y12277D02*
D03*
X15003Y13044D02*
D03*
X15117Y12220D02*
D03*
X14985Y12845D02*
D03*
X14965Y12824D02*
D03*
X15015Y12083D02*
D03*
X15014Y12043D02*
D03*
X15106Y12063D02*
D03*
X15915Y12009D02*
D03*
X15887Y12027D02*
D03*
X15886D02*
D03*
X15872Y12100D02*
D03*
X15107Y12024D02*
D03*
X15900Y12068D02*
D03*
X16154Y12011D02*
D03*
X16130Y12035D02*
D03*
X16069Y12367D02*
D03*
X16106Y12074D02*
D03*
X15717Y13100D02*
D03*
X15746Y13129D02*
D03*
X15717Y12280D02*
D03*
X15746Y12241D02*
D03*
X15843Y12656D02*
D03*
X15200D02*
D03*
X15809Y12633D02*
D03*
D03*
X15220Y12628D02*
D03*
D03*
X16029Y10938D02*
D03*
X15924Y11144D02*
D03*
X15588Y11387D02*
D03*
X11416Y10391D02*
D03*
X11427Y10742D02*
D03*
X11466Y10388D02*
D03*
X11629Y10415D02*
D03*
X15665Y12601D02*
D03*
X15694Y13068D02*
D03*
X15353Y13756D02*
D03*
D03*
X15299Y12970D02*
D03*
X15160Y12624D02*
D03*
X11410Y10512D02*
D03*
X14908Y10405D02*
D03*
X13144Y13799D02*
D03*
X10786Y13823D02*
D03*
X11571Y13806D02*
D03*
X12362Y13809D02*
D03*
X13934D02*
D03*
X14720Y13810D02*
D03*
X14231Y10455D02*
D03*
X14076Y13115D02*
D03*
X15064Y13100D02*
D03*
Y13101D02*
D03*
X15148Y12940D02*
D03*
X14996Y13589D02*
D03*
X10583Y10412D02*
D03*
X15131Y11030D02*
D03*
Y11869D02*
D03*
X15912Y11943D02*
D03*
Y11886D02*
D03*
X12369Y10336D02*
D03*
X12509Y10335D02*
D03*
X13209Y10331D02*
D03*
X13349Y10327D02*
D03*
X14050Y10343D02*
D03*
X15309Y11623D02*
D03*
X15096Y11425D02*
D03*
X15034Y13850D02*
D03*
X13632Y13885D02*
D03*
X11262Y13897D02*
D03*
X10368Y13918D02*
D03*
X11102Y13213D02*
D03*
X10545Y13204D02*
D03*
X14398Y10547D02*
D03*
X12624Y13543D02*
D03*
X11846Y13559D02*
D03*
X11053Y13549D02*
D03*
X13422Y13543D02*
D03*
X14213Y13548D02*
D03*
Y13547D02*
D03*
X14994Y13624D02*
D03*
X14366Y10564D02*
D03*
M02*
