%FSLAX23Y23*%
%MOIN*%
G70*
G01*
G75*
G04 Layer_Physical_Order=1*
G04 Layer_Color=255*
%ADD10R,0.050X0.050*%
%ADD11C,0.040*%
%ADD12R,0.085X0.138*%
%ADD13R,0.085X0.043*%
%ADD14R,0.085X0.043*%
%ADD15R,0.060X0.086*%
%ADD16R,0.035X0.037*%
%ADD17R,0.035X0.037*%
%ADD18R,0.050X0.050*%
%ADD19O,0.098X0.028*%
%ADD20R,0.135X0.070*%
%ADD21R,0.228X0.228*%
%ADD22O,0.008X0.033*%
%ADD23O,0.033X0.008*%
%ADD24R,0.070X0.135*%
%ADD25R,0.138X0.085*%
%ADD26R,0.043X0.085*%
%ADD27R,0.043X0.085*%
%ADD28R,0.031X0.060*%
%ADD29R,0.014X0.060*%
%ADD30R,0.030X0.100*%
%ADD31R,0.048X0.078*%
%ADD32R,0.100X0.100*%
%ADD33O,0.010X0.061*%
%ADD34O,0.061X0.010*%
%ADD35O,0.024X0.087*%
%ADD36R,0.045X0.017*%
%ADD37R,0.028X0.036*%
%ADD38R,0.036X0.036*%
%ADD39R,0.087X0.024*%
%ADD40R,0.036X0.036*%
%ADD41C,0.010*%
%ADD42C,0.005*%
%ADD43C,0.020*%
%ADD44C,0.007*%
%ADD45C,0.012*%
%ADD46R,1.181X0.787*%
%ADD47C,0.012*%
%ADD48C,0.012*%
%ADD49C,0.236*%
%ADD50C,0.050*%
%ADD51C,0.020*%
%ADD52C,0.026*%
%ADD53R,0.059X0.059*%
%ADD54C,0.059*%
%ADD55C,0.024*%
D10*
X23425Y13331D02*
D03*
X23335D02*
D03*
X23657Y13189D02*
D03*
X23747D02*
D03*
X23827Y13680D02*
D03*
X23917D02*
D03*
X23917Y13745D02*
D03*
X23827D02*
D03*
X23917Y13810D02*
D03*
X23827D02*
D03*
X23952Y14043D02*
D03*
X23862D02*
D03*
X19210Y15013D02*
D03*
X19300D02*
D03*
X18600Y14873D02*
D03*
X18510D02*
D03*
X19300Y15093D02*
D03*
X19210D02*
D03*
X18510Y14803D02*
D03*
X18600D02*
D03*
X20283Y15013D02*
D03*
X20373D02*
D03*
X19673Y14873D02*
D03*
X19583D02*
D03*
X18355Y15684D02*
D03*
X18445D02*
D03*
X19125Y15665D02*
D03*
X19215D02*
D03*
X19912D02*
D03*
X20002D02*
D03*
X20700D02*
D03*
X20790D02*
D03*
X21487D02*
D03*
X21577D02*
D03*
X21356Y15013D02*
D03*
X21446D02*
D03*
X20746Y14873D02*
D03*
X20656D02*
D03*
X21446Y15093D02*
D03*
X21356D02*
D03*
X20656Y14803D02*
D03*
X20746D02*
D03*
X22429Y15013D02*
D03*
X22519D02*
D03*
X21819Y14873D02*
D03*
X21729D02*
D03*
X22519Y15093D02*
D03*
X22429D02*
D03*
X21729Y14803D02*
D03*
X21819D02*
D03*
X22365Y15665D02*
D03*
X22275D02*
D03*
X19673Y14803D02*
D03*
X19583D02*
D03*
X20283Y15093D02*
D03*
X20373D02*
D03*
X22758Y12545D02*
D03*
X22668D02*
D03*
X22758Y12480D02*
D03*
X22668D02*
D03*
X18450Y15910D02*
D03*
X18360D02*
D03*
X19218Y15893D02*
D03*
X19128D02*
D03*
X20005D02*
D03*
X19915D02*
D03*
X20793D02*
D03*
X20703D02*
D03*
X21580D02*
D03*
X21490D02*
D03*
X22368D02*
D03*
X22278D02*
D03*
X23824Y13875D02*
D03*
X23914D02*
D03*
D11*
X23263Y15695D02*
D03*
X23595Y16109D02*
D03*
X23240Y15072D02*
D03*
X23597Y15410D02*
D03*
X22857Y14602D02*
D03*
X22925Y14056D02*
D03*
X23550Y14068D02*
D03*
X22739Y12093D02*
D03*
X18291Y13005D02*
D03*
X18305Y15775D02*
D03*
D12*
X23278Y12970D02*
D03*
X24017Y13403D02*
D03*
X24027Y12970D02*
D03*
D13*
X23522Y13060D02*
D03*
Y12879D02*
D03*
X23772Y13493D02*
D03*
Y13312D02*
D03*
X23783Y13060D02*
D03*
Y12879D02*
D03*
D14*
X23522Y12970D02*
D03*
X23772Y13403D02*
D03*
X23783Y12970D02*
D03*
D15*
X21220Y13214D02*
D03*
X21090D02*
D03*
X21602D02*
D03*
X21732D02*
D03*
X20334D02*
D03*
X20204D02*
D03*
X20716D02*
D03*
X20846D02*
D03*
X20334Y13785D02*
D03*
X20204D02*
D03*
X20716D02*
D03*
X20846D02*
D03*
X19448Y13785D02*
D03*
X19318D02*
D03*
X19830D02*
D03*
X19960D02*
D03*
X22106Y13214D02*
D03*
X21976D02*
D03*
X22488D02*
D03*
X22618D02*
D03*
X19448Y13214D02*
D03*
X19318D02*
D03*
X19830D02*
D03*
X19960D02*
D03*
X18563D02*
D03*
X18433D02*
D03*
X18944D02*
D03*
X19074D02*
D03*
X22106Y13785D02*
D03*
X21976D02*
D03*
X22488D02*
D03*
X22618D02*
D03*
X21220D02*
D03*
X21090D02*
D03*
X21602D02*
D03*
X21732D02*
D03*
X18563D02*
D03*
X18433D02*
D03*
X18944D02*
D03*
X19074D02*
D03*
X18490Y14973D02*
D03*
X18620D02*
D03*
X19000Y15073D02*
D03*
X19130D02*
D03*
X19074Y14375D02*
D03*
X18944D02*
D03*
X18433D02*
D03*
X18563D02*
D03*
X20846D02*
D03*
X20716D02*
D03*
X20204D02*
D03*
X20334D02*
D03*
X21732D02*
D03*
X21602D02*
D03*
X21090D02*
D03*
X21220D02*
D03*
X20636Y14973D02*
D03*
X20766D02*
D03*
X21146Y15073D02*
D03*
X21276D02*
D03*
X21709Y14973D02*
D03*
X21839D02*
D03*
X22219Y15073D02*
D03*
X22349D02*
D03*
X19960Y14375D02*
D03*
X19830D02*
D03*
X19318D02*
D03*
X19448D02*
D03*
X22618D02*
D03*
X22488D02*
D03*
X21976D02*
D03*
X22106D02*
D03*
X20203Y15073D02*
D03*
X20073D02*
D03*
X19693Y14973D02*
D03*
X19563D02*
D03*
D16*
X21499Y13359D02*
D03*
X21462Y13266D02*
D03*
X20614Y13359D02*
D03*
X20576Y13266D02*
D03*
X20614Y13930D02*
D03*
X20576Y13837D02*
D03*
X19728Y13930D02*
D03*
X19690Y13837D02*
D03*
X22385Y13359D02*
D03*
X22348Y13266D02*
D03*
X19728Y13359D02*
D03*
X19690Y13266D02*
D03*
X18842Y13359D02*
D03*
X18805Y13266D02*
D03*
X22385Y13930D02*
D03*
X22348Y13837D02*
D03*
X21499Y13930D02*
D03*
X21462Y13837D02*
D03*
X18842Y13930D02*
D03*
X18805Y13837D02*
D03*
X18895Y14903D02*
D03*
X18858Y14804D02*
D03*
X18745Y14903D02*
D03*
X18708Y14804D02*
D03*
X18778Y15027D02*
D03*
X18815Y15120D02*
D03*
X19968Y14903D02*
D03*
X19931Y14804D02*
D03*
X19818Y14903D02*
D03*
X19781Y14804D02*
D03*
X19851Y15027D02*
D03*
X19888Y15120D02*
D03*
X18805Y14428D02*
D03*
X18842Y14520D02*
D03*
X20576Y14428D02*
D03*
X20614Y14520D02*
D03*
X21462Y14428D02*
D03*
X21499Y14520D02*
D03*
X21041Y14903D02*
D03*
X21004Y14804D02*
D03*
X20891Y14903D02*
D03*
X20854Y14804D02*
D03*
X20924Y15027D02*
D03*
X20961Y15120D02*
D03*
X22114Y14903D02*
D03*
X22077Y14804D02*
D03*
X21964Y14903D02*
D03*
X21927Y14804D02*
D03*
X21997Y15027D02*
D03*
X22034Y15120D02*
D03*
X19690Y14428D02*
D03*
X19728Y14520D02*
D03*
X22348Y14428D02*
D03*
X22385Y14520D02*
D03*
D17*
X21537Y13266D02*
D03*
X20651D02*
D03*
X20651Y13837D02*
D03*
X19765Y13837D02*
D03*
X22423Y13266D02*
D03*
X19765D02*
D03*
X18879D02*
D03*
X22423Y13837D02*
D03*
X21537D02*
D03*
X18879D02*
D03*
X18933Y14804D02*
D03*
X18783D02*
D03*
X18853Y15027D02*
D03*
X20006Y14804D02*
D03*
X19856D02*
D03*
X19926Y15027D02*
D03*
X18879Y14428D02*
D03*
X20651D02*
D03*
X21537D02*
D03*
X21078Y14804D02*
D03*
X20928D02*
D03*
X20998Y15027D02*
D03*
X22151Y14804D02*
D03*
X22001D02*
D03*
X22071Y15027D02*
D03*
X19765Y14428D02*
D03*
X22423D02*
D03*
D18*
X21293Y13267D02*
D03*
Y13357D02*
D03*
X21372Y13267D02*
D03*
Y13357D02*
D03*
X20407Y13267D02*
D03*
Y13357D02*
D03*
X20486Y13267D02*
D03*
Y13357D02*
D03*
X20407Y13838D02*
D03*
Y13928D02*
D03*
X20486Y13838D02*
D03*
Y13928D02*
D03*
X19521Y13838D02*
D03*
Y13928D02*
D03*
X19600Y13838D02*
D03*
Y13928D02*
D03*
X22179Y13267D02*
D03*
Y13357D02*
D03*
X22257Y13267D02*
D03*
Y13357D02*
D03*
X19521Y13267D02*
D03*
Y13357D02*
D03*
X19600Y13267D02*
D03*
Y13357D02*
D03*
X18635Y13267D02*
D03*
Y13357D02*
D03*
X18714Y13267D02*
D03*
Y13357D02*
D03*
X22179Y13838D02*
D03*
Y13928D02*
D03*
X22257Y13838D02*
D03*
Y13928D02*
D03*
X21293Y13838D02*
D03*
Y13928D02*
D03*
X21372Y13838D02*
D03*
Y13928D02*
D03*
X18635Y13838D02*
D03*
Y13928D02*
D03*
X18714Y13838D02*
D03*
Y13928D02*
D03*
X18296Y12451D02*
D03*
Y12541D02*
D03*
X18361D02*
D03*
Y12451D02*
D03*
X18666Y12446D02*
D03*
Y12536D02*
D03*
X18731Y12536D02*
D03*
Y12446D02*
D03*
X23650Y12995D02*
D03*
Y13085D02*
D03*
Y12845D02*
D03*
Y12935D02*
D03*
X22638Y12315D02*
D03*
Y12405D02*
D03*
X23009Y13887D02*
D03*
Y13797D02*
D03*
X18925Y15118D02*
D03*
Y15028D02*
D03*
X18695Y15118D02*
D03*
Y15028D02*
D03*
X19998Y15118D02*
D03*
Y15028D02*
D03*
X19768Y15118D02*
D03*
Y15028D02*
D03*
X18714Y14519D02*
D03*
Y14429D02*
D03*
X18635Y14519D02*
D03*
Y14429D02*
D03*
X18861Y15454D02*
D03*
Y15544D02*
D03*
Y15751D02*
D03*
Y15661D02*
D03*
X18860Y15825D02*
D03*
Y15915D02*
D03*
X18497Y15839D02*
D03*
Y15749D02*
D03*
X18507Y16005D02*
D03*
Y16095D02*
D03*
X19649Y15454D02*
D03*
Y15544D02*
D03*
Y15751D02*
D03*
Y15661D02*
D03*
X19648Y15825D02*
D03*
Y15915D02*
D03*
X19285Y15839D02*
D03*
Y15749D02*
D03*
X19295Y16005D02*
D03*
Y16095D02*
D03*
X20436Y15454D02*
D03*
Y15544D02*
D03*
Y15751D02*
D03*
Y15661D02*
D03*
X20435Y15825D02*
D03*
Y15915D02*
D03*
X20072Y15839D02*
D03*
Y15749D02*
D03*
X20082Y16005D02*
D03*
Y16095D02*
D03*
X21224Y15454D02*
D03*
Y15544D02*
D03*
Y15751D02*
D03*
Y15661D02*
D03*
X21223Y15825D02*
D03*
Y15915D02*
D03*
X20859Y15839D02*
D03*
Y15749D02*
D03*
X20869Y16005D02*
D03*
Y16095D02*
D03*
X22011Y15454D02*
D03*
Y15544D02*
D03*
Y15751D02*
D03*
Y15661D02*
D03*
X22010Y15825D02*
D03*
Y15915D02*
D03*
X21647Y15839D02*
D03*
Y15749D02*
D03*
X21657Y16005D02*
D03*
Y16095D02*
D03*
X22798Y15751D02*
D03*
Y15661D02*
D03*
X22797Y15825D02*
D03*
Y15915D02*
D03*
X22434Y15839D02*
D03*
Y15749D02*
D03*
X22444Y16005D02*
D03*
Y16095D02*
D03*
X20486Y14519D02*
D03*
Y14429D02*
D03*
X20407Y14519D02*
D03*
Y14429D02*
D03*
X21372Y14519D02*
D03*
Y14429D02*
D03*
X21293Y14519D02*
D03*
Y14429D02*
D03*
X21071Y15118D02*
D03*
Y15028D02*
D03*
X20841Y15118D02*
D03*
Y15028D02*
D03*
X22144Y15118D02*
D03*
Y15028D02*
D03*
X21914Y15118D02*
D03*
Y15028D02*
D03*
X22798Y15544D02*
D03*
Y15454D02*
D03*
X19600Y14519D02*
D03*
Y14429D02*
D03*
X19521Y14519D02*
D03*
Y14429D02*
D03*
X22257Y14519D02*
D03*
Y14429D02*
D03*
X22179Y14519D02*
D03*
Y14429D02*
D03*
D19*
X21507Y13060D02*
D03*
Y13110D02*
D03*
Y13160D02*
D03*
Y13210D02*
D03*
X21314Y13060D02*
D03*
Y13110D02*
D03*
Y13160D02*
D03*
Y13210D02*
D03*
X20622Y13060D02*
D03*
Y13110D02*
D03*
Y13160D02*
D03*
Y13210D02*
D03*
X20429Y13060D02*
D03*
Y13110D02*
D03*
Y13160D02*
D03*
Y13210D02*
D03*
X20622Y13631D02*
D03*
Y13681D02*
D03*
Y13731D02*
D03*
Y13781D02*
D03*
X20429Y13631D02*
D03*
Y13681D02*
D03*
Y13731D02*
D03*
Y13781D02*
D03*
X19736Y13631D02*
D03*
Y13681D02*
D03*
Y13731D02*
D03*
Y13781D02*
D03*
X19543Y13631D02*
D03*
Y13681D02*
D03*
Y13731D02*
D03*
Y13781D02*
D03*
X22393Y13060D02*
D03*
Y13110D02*
D03*
Y13160D02*
D03*
Y13210D02*
D03*
X22200Y13060D02*
D03*
Y13110D02*
D03*
Y13160D02*
D03*
Y13210D02*
D03*
X19736Y13060D02*
D03*
Y13110D02*
D03*
Y13160D02*
D03*
Y13210D02*
D03*
X19543Y13060D02*
D03*
Y13110D02*
D03*
Y13160D02*
D03*
Y13210D02*
D03*
X18850Y13060D02*
D03*
Y13110D02*
D03*
Y13160D02*
D03*
Y13210D02*
D03*
X18657Y13060D02*
D03*
Y13110D02*
D03*
Y13160D02*
D03*
Y13210D02*
D03*
X22393Y13631D02*
D03*
Y13681D02*
D03*
Y13731D02*
D03*
Y13781D02*
D03*
X22200Y13631D02*
D03*
Y13681D02*
D03*
Y13731D02*
D03*
Y13781D02*
D03*
X21507Y13631D02*
D03*
Y13681D02*
D03*
Y13731D02*
D03*
Y13781D02*
D03*
X21314Y13631D02*
D03*
Y13681D02*
D03*
Y13731D02*
D03*
Y13781D02*
D03*
X18850Y13631D02*
D03*
Y13681D02*
D03*
Y13731D02*
D03*
Y13781D02*
D03*
X18657Y13631D02*
D03*
Y13681D02*
D03*
Y13731D02*
D03*
Y13781D02*
D03*
X19029Y14948D02*
D03*
Y14898D02*
D03*
Y14848D02*
D03*
Y14798D02*
D03*
X19222Y14948D02*
D03*
Y14898D02*
D03*
Y14848D02*
D03*
Y14798D02*
D03*
X20102Y14948D02*
D03*
Y14898D02*
D03*
Y14848D02*
D03*
Y14798D02*
D03*
X20295Y14948D02*
D03*
Y14898D02*
D03*
Y14848D02*
D03*
Y14798D02*
D03*
X18657Y14372D02*
D03*
Y14322D02*
D03*
Y14272D02*
D03*
Y14222D02*
D03*
X18850Y14372D02*
D03*
Y14322D02*
D03*
Y14272D02*
D03*
Y14222D02*
D03*
X20429Y14372D02*
D03*
Y14322D02*
D03*
Y14272D02*
D03*
Y14222D02*
D03*
X20622Y14372D02*
D03*
Y14322D02*
D03*
Y14272D02*
D03*
Y14222D02*
D03*
X21314Y14372D02*
D03*
Y14322D02*
D03*
Y14272D02*
D03*
Y14222D02*
D03*
X21507Y14372D02*
D03*
Y14322D02*
D03*
Y14272D02*
D03*
Y14222D02*
D03*
X21175Y14948D02*
D03*
Y14898D02*
D03*
Y14848D02*
D03*
Y14798D02*
D03*
X21368Y14948D02*
D03*
Y14898D02*
D03*
Y14848D02*
D03*
Y14798D02*
D03*
X22247Y14948D02*
D03*
Y14898D02*
D03*
Y14848D02*
D03*
Y14798D02*
D03*
X22440Y14948D02*
D03*
Y14898D02*
D03*
Y14848D02*
D03*
Y14798D02*
D03*
X19543Y14372D02*
D03*
Y14322D02*
D03*
Y14272D02*
D03*
Y14222D02*
D03*
X19736Y14372D02*
D03*
Y14322D02*
D03*
Y14272D02*
D03*
Y14222D02*
D03*
X22200Y14372D02*
D03*
Y14322D02*
D03*
Y14272D02*
D03*
Y14222D02*
D03*
X22393Y14372D02*
D03*
Y14322D02*
D03*
Y14272D02*
D03*
Y14222D02*
D03*
D20*
X21165Y13332D02*
D03*
X20279D02*
D03*
Y13903D02*
D03*
X19393Y13903D02*
D03*
X22051Y13332D02*
D03*
X19393D02*
D03*
X18507D02*
D03*
X22051Y13903D02*
D03*
X21165D02*
D03*
X18507D02*
D03*
X21784Y15103D02*
D03*
X20711D02*
D03*
X21165Y14494D02*
D03*
X20279D02*
D03*
X18507D02*
D03*
X19638Y15103D02*
D03*
X18565D02*
D03*
X23520Y13155D02*
D03*
X23780Y12790D02*
D03*
X18337Y12635D02*
D03*
X18707Y12630D02*
D03*
X19393Y14494D02*
D03*
X22051D02*
D03*
X18537Y15288D02*
D03*
X22215Y15383D02*
D03*
X23024Y13606D02*
D03*
X23289Y13781D02*
D03*
X22392Y12647D02*
D03*
X19110Y15301D02*
D03*
D21*
X23428Y15893D02*
D03*
X23419Y15217D02*
D03*
D22*
X23320Y16034D02*
D03*
X23340D02*
D03*
X23360D02*
D03*
X23379D02*
D03*
X23399D02*
D03*
X23419D02*
D03*
X23438D02*
D03*
X23458D02*
D03*
X23478D02*
D03*
X23497D02*
D03*
X23517D02*
D03*
X23537D02*
D03*
Y15753D02*
D03*
X23517D02*
D03*
X23478D02*
D03*
X23458D02*
D03*
X23438D02*
D03*
X23419D02*
D03*
X23399D02*
D03*
X23379D02*
D03*
X23360D02*
D03*
X23340D02*
D03*
X23320D02*
D03*
X23311Y15357D02*
D03*
X23331D02*
D03*
X23351D02*
D03*
X23370D02*
D03*
X23390D02*
D03*
X23410D02*
D03*
X23429D02*
D03*
X23449D02*
D03*
X23469D02*
D03*
X23488D02*
D03*
X23508D02*
D03*
X23528D02*
D03*
Y15076D02*
D03*
X23508D02*
D03*
X23488D02*
D03*
X23469D02*
D03*
X23449D02*
D03*
X23429D02*
D03*
X23410D02*
D03*
X23390D02*
D03*
X23370D02*
D03*
X23351D02*
D03*
X23331D02*
D03*
X23311D02*
D03*
X23497Y15753D02*
D03*
D23*
X23569Y16002D02*
D03*
Y15982D02*
D03*
Y15962D02*
D03*
Y15943D02*
D03*
Y15923D02*
D03*
Y15903D02*
D03*
Y15884D02*
D03*
Y15864D02*
D03*
Y15844D02*
D03*
Y15825D02*
D03*
Y15805D02*
D03*
Y15785D02*
D03*
X23288Y15805D02*
D03*
Y15825D02*
D03*
Y15844D02*
D03*
Y15864D02*
D03*
Y15884D02*
D03*
Y15903D02*
D03*
Y15923D02*
D03*
Y15943D02*
D03*
Y15962D02*
D03*
Y15982D02*
D03*
Y16002D02*
D03*
X23560Y15325D02*
D03*
Y15305D02*
D03*
Y15286D02*
D03*
Y15266D02*
D03*
Y15246D02*
D03*
Y15227D02*
D03*
Y15207D02*
D03*
Y15187D02*
D03*
Y15168D02*
D03*
Y15148D02*
D03*
Y15128D02*
D03*
Y15108D02*
D03*
X23279D02*
D03*
Y15128D02*
D03*
Y15148D02*
D03*
Y15168D02*
D03*
Y15187D02*
D03*
Y15207D02*
D03*
Y15227D02*
D03*
Y15246D02*
D03*
Y15266D02*
D03*
Y15286D02*
D03*
Y15305D02*
D03*
Y15325D02*
D03*
X23288Y15785D02*
D03*
D24*
X21234Y16050D02*
D03*
X19659D02*
D03*
X18871D02*
D03*
X20446D02*
D03*
X22021D02*
D03*
X22808D02*
D03*
X22434Y15458D02*
D03*
X21647D02*
D03*
X20859D02*
D03*
X20072D02*
D03*
X19285D02*
D03*
X18497D02*
D03*
X23997Y13780D02*
D03*
X23370Y13458D02*
D03*
X22987Y15340D02*
D03*
X19094Y15996D02*
D03*
X21441Y16019D02*
D03*
X23019Y16007D02*
D03*
X18362Y16018D02*
D03*
D25*
X22621Y16084D02*
D03*
X18684Y15426D02*
D03*
Y16084D02*
D03*
X19472Y15426D02*
D03*
Y16084D02*
D03*
X20259Y15426D02*
D03*
Y16084D02*
D03*
X21047Y15426D02*
D03*
Y16084D02*
D03*
X21834Y15426D02*
D03*
Y16084D02*
D03*
X22621Y15426D02*
D03*
D26*
X22712Y15840D02*
D03*
X22531D02*
D03*
X18775Y15670D02*
D03*
X18594D02*
D03*
Y15840D02*
D03*
X18775D02*
D03*
X19562Y15670D02*
D03*
X19381D02*
D03*
Y15840D02*
D03*
X19562D02*
D03*
X20350Y15670D02*
D03*
X20169D02*
D03*
Y15840D02*
D03*
X20350D02*
D03*
X21137Y15670D02*
D03*
X20956D02*
D03*
Y15840D02*
D03*
X21137D02*
D03*
X21924Y15670D02*
D03*
X21743D02*
D03*
Y15840D02*
D03*
X21924D02*
D03*
X22712Y15670D02*
D03*
X22531D02*
D03*
D27*
X22621Y15840D02*
D03*
X18684Y15670D02*
D03*
Y15840D02*
D03*
X19472Y15670D02*
D03*
Y15840D02*
D03*
X20259Y15670D02*
D03*
Y15840D02*
D03*
X21047Y15670D02*
D03*
Y15840D02*
D03*
X21834Y15670D02*
D03*
Y15840D02*
D03*
X22621Y15670D02*
D03*
D28*
X19567Y12361D02*
D03*
X20307D02*
D03*
X20407D02*
D03*
X21147D02*
D03*
X21247D02*
D03*
X21987D02*
D03*
D29*
X21910Y12389D02*
D03*
X21885D02*
D03*
X21860D02*
D03*
X21835D02*
D03*
X21810D02*
D03*
X21785D02*
D03*
X21760D02*
D03*
X21735D02*
D03*
X21710D02*
D03*
X21685D02*
D03*
X21660D02*
D03*
X21635D02*
D03*
X21610D02*
D03*
X21585D02*
D03*
X21560D02*
D03*
X21535D02*
D03*
X21510D02*
D03*
X21485D02*
D03*
X21460D02*
D03*
X21435D02*
D03*
X21410D02*
D03*
X21385D02*
D03*
X21360D02*
D03*
X21335D02*
D03*
X21310D02*
D03*
X21285D02*
D03*
X21069Y12388D02*
D03*
X21044D02*
D03*
X21019D02*
D03*
X20994D02*
D03*
X20969D02*
D03*
X20944D02*
D03*
X20919D02*
D03*
X20894D02*
D03*
X20869D02*
D03*
X20844D02*
D03*
X20819D02*
D03*
X20794D02*
D03*
X20769D02*
D03*
X20744D02*
D03*
X20719D02*
D03*
X20694D02*
D03*
X20669D02*
D03*
X20644D02*
D03*
X20619D02*
D03*
X20594D02*
D03*
X20569D02*
D03*
X20544D02*
D03*
X20519D02*
D03*
X20494D02*
D03*
X20469D02*
D03*
X20444D02*
D03*
X20229D02*
D03*
X20204D02*
D03*
X20179D02*
D03*
X20154D02*
D03*
X20129D02*
D03*
X20104D02*
D03*
X20079D02*
D03*
X20054D02*
D03*
X20029D02*
D03*
X20004D02*
D03*
X19979D02*
D03*
X19954D02*
D03*
X19929D02*
D03*
X19904D02*
D03*
X19879D02*
D03*
X19854D02*
D03*
X19829D02*
D03*
X19804D02*
D03*
X19779D02*
D03*
X19754D02*
D03*
X19729D02*
D03*
X19704D02*
D03*
X19679D02*
D03*
X19654D02*
D03*
X19629D02*
D03*
X19604D02*
D03*
D30*
X19313Y12379D02*
D03*
X19392D02*
D03*
X22123Y12380D02*
D03*
X22202D02*
D03*
D31*
X22848Y12505D02*
D03*
Y12395D02*
D03*
X22219Y12674D02*
D03*
Y12784D02*
D03*
X22091Y12674D02*
D03*
Y12784D02*
D03*
D32*
X19403Y12921D02*
D03*
Y12691D02*
D03*
D33*
X23016Y14657D02*
D03*
X23036D02*
D03*
X23056D02*
D03*
X23075D02*
D03*
X23095D02*
D03*
X23115D02*
D03*
X23134D02*
D03*
X23154D02*
D03*
X23174D02*
D03*
X23193D02*
D03*
X23213D02*
D03*
X23233D02*
D03*
X23252D02*
D03*
X23272D02*
D03*
X23292D02*
D03*
X23311D02*
D03*
X23331D02*
D03*
X23351D02*
D03*
X23371D02*
D03*
X23390D02*
D03*
X23410D02*
D03*
X23430D02*
D03*
X23449D02*
D03*
X23469D02*
D03*
X23489D02*
D03*
Y14064D02*
D03*
X23469D02*
D03*
X23449D02*
D03*
X23430D02*
D03*
X23410D02*
D03*
X23390D02*
D03*
X23371D02*
D03*
X23351D02*
D03*
X23331D02*
D03*
X23311D02*
D03*
X23292D02*
D03*
X23272D02*
D03*
X23252D02*
D03*
X23233D02*
D03*
X23213D02*
D03*
X23193D02*
D03*
X23174D02*
D03*
X23154D02*
D03*
X23134D02*
D03*
X23115D02*
D03*
X23095D02*
D03*
X23075D02*
D03*
X23056D02*
D03*
X23036D02*
D03*
X23016D02*
D03*
D34*
X23549Y14597D02*
D03*
Y14577D02*
D03*
Y14557D02*
D03*
Y14538D02*
D03*
Y14518D02*
D03*
Y14498D02*
D03*
Y14479D02*
D03*
Y14459D02*
D03*
Y14439D02*
D03*
Y14420D02*
D03*
Y14400D02*
D03*
Y14380D02*
D03*
Y14361D02*
D03*
Y14341D02*
D03*
Y14321D02*
D03*
Y14302D02*
D03*
Y14282D02*
D03*
Y14262D02*
D03*
Y14243D02*
D03*
Y14223D02*
D03*
Y14203D02*
D03*
Y14183D02*
D03*
Y14164D02*
D03*
Y14144D02*
D03*
Y14124D02*
D03*
X22956D02*
D03*
Y14144D02*
D03*
Y14164D02*
D03*
Y14183D02*
D03*
Y14203D02*
D03*
Y14223D02*
D03*
Y14243D02*
D03*
Y14262D02*
D03*
Y14282D02*
D03*
Y14302D02*
D03*
Y14321D02*
D03*
Y14341D02*
D03*
Y14361D02*
D03*
Y14380D02*
D03*
Y14400D02*
D03*
Y14420D02*
D03*
Y14439D02*
D03*
Y14459D02*
D03*
Y14479D02*
D03*
Y14498D02*
D03*
Y14518D02*
D03*
Y14538D02*
D03*
Y14557D02*
D03*
Y14577D02*
D03*
Y14597D02*
D03*
D35*
X18816Y12441D02*
D03*
X18866D02*
D03*
X18916D02*
D03*
X18966D02*
D03*
X18816Y12630D02*
D03*
X18866D02*
D03*
X18916D02*
D03*
X18966D02*
D03*
X23617Y13681D02*
D03*
X23667D02*
D03*
X23717D02*
D03*
X23767D02*
D03*
X23617Y13869D02*
D03*
X23667D02*
D03*
X23717D02*
D03*
X23767D02*
D03*
X23519Y13303D02*
D03*
X23569D02*
D03*
X23619D02*
D03*
X23669D02*
D03*
X23519Y13492D02*
D03*
X23569D02*
D03*
X23619D02*
D03*
X23669D02*
D03*
X18446Y12446D02*
D03*
X18496D02*
D03*
X18546D02*
D03*
X18596D02*
D03*
X18446Y12635D02*
D03*
X18496D02*
D03*
X18546D02*
D03*
X18596D02*
D03*
D36*
X23948Y14203D02*
D03*
Y14171D02*
D03*
Y14140D02*
D03*
Y14108D02*
D03*
X23871D02*
D03*
Y14140D02*
D03*
Y14171D02*
D03*
Y14203D02*
D03*
D37*
X22775Y12398D02*
D03*
X22701D02*
D03*
X22738D02*
D03*
X18365Y15764D02*
D03*
X18439D02*
D03*
X18402D02*
D03*
X19136Y15747D02*
D03*
X19210D02*
D03*
X19173D02*
D03*
X19923D02*
D03*
X19997D02*
D03*
X19960D02*
D03*
X20711D02*
D03*
X20785D02*
D03*
X20748D02*
D03*
X21498D02*
D03*
X21572D02*
D03*
X21535D02*
D03*
X22286D02*
D03*
X22360D02*
D03*
X22323D02*
D03*
D38*
X22775Y12312D02*
D03*
X22701D02*
D03*
X18365Y15850D02*
D03*
X18439D02*
D03*
X19136Y15833D02*
D03*
X19210D02*
D03*
X19923D02*
D03*
X19997D02*
D03*
X20711D02*
D03*
X20785D02*
D03*
X21498D02*
D03*
X21572D02*
D03*
X22286D02*
D03*
X22360D02*
D03*
D39*
X23164Y12780D02*
D03*
Y12830D02*
D03*
Y12880D02*
D03*
Y12930D02*
D03*
Y12980D02*
D03*
Y13030D02*
D03*
Y13080D02*
D03*
Y13130D02*
D03*
X22959Y12780D02*
D03*
Y12830D02*
D03*
Y12880D02*
D03*
Y12930D02*
D03*
Y12980D02*
D03*
Y13030D02*
D03*
Y13080D02*
D03*
Y13130D02*
D03*
D40*
X21466Y12726D02*
D03*
X21380Y12689D02*
D03*
X21466Y12652D02*
D03*
X21622Y12726D02*
D03*
X21536Y12689D02*
D03*
X21622Y12652D02*
D03*
D41*
X23650Y13134D02*
Y13182D01*
Y13085D02*
Y13134D01*
X23641Y13144D02*
X23650Y13134D01*
Y13182D02*
X23657Y13189D01*
X23465Y13331D02*
X23473Y13339D01*
X23425Y13331D02*
X23465D01*
X23331Y13327D02*
X23335Y13331D01*
X23331Y13287D02*
Y13327D01*
X23370Y13458D02*
X23448D01*
X23513Y13393D01*
X23473Y13234D02*
Y13339D01*
X23549Y13373D02*
X23569Y13353D01*
X23473Y13339D02*
X23507Y13373D01*
X23569Y13303D02*
Y13353D01*
X23507Y13373D02*
X23549D01*
X23747Y13189D02*
X23752Y13184D01*
Y13156D02*
Y13184D01*
Y13156D02*
X23768Y13140D01*
X22255Y15716D02*
Y15716D01*
X22286Y15747D01*
X22368Y15890D02*
Y15945D01*
X22369Y15946D01*
X22323Y15845D02*
X22368Y15890D01*
X22323Y15747D02*
Y15845D01*
X22392Y15692D02*
Y15801D01*
X22365Y15665D02*
X22392Y15692D01*
X22360Y15833D02*
X22392Y15801D01*
X22275Y15665D02*
X22313Y15626D01*
X22390D01*
X22365Y15665D02*
Y15710D01*
X22366Y15711D01*
X22432Y15747D02*
X22434Y15749D01*
X22323Y15747D02*
X22360D01*
X22368Y15885D02*
Y15893D01*
X22137Y13354D02*
X22175D01*
X21251Y13925D02*
X21289D01*
X21088Y13785D02*
Y13787D01*
X22440Y14798D02*
X22442Y14797D01*
X22069Y15025D02*
X22071Y15027D01*
X22443Y15013D02*
X22499Y14958D01*
X22429Y15013D02*
X22443D01*
X22485Y14926D02*
X22499Y14939D01*
Y14958D01*
X22331Y14926D02*
X22485D01*
X22304Y14898D02*
X22331Y14926D01*
X22247Y14898D02*
X22304D01*
X22429Y15165D02*
X22429Y15165D01*
Y15163D02*
X22430Y15164D01*
X21729Y14777D02*
Y14803D01*
X21707Y14755D02*
X21729Y14777D01*
X21819Y14803D02*
Y14873D01*
X21829Y14963D02*
X21839Y14973D01*
X22219Y15073D02*
X22219Y15073D01*
X22349Y15073D02*
X22349Y15073D01*
X22086Y14930D02*
X22114Y14903D01*
X22114Y14903D01*
X21887Y14930D02*
X22086D01*
X21878Y14921D02*
X21887Y14930D01*
X21777Y14921D02*
X21878D01*
X21729Y14873D02*
X21777Y14921D01*
X21927Y14804D02*
Y14806D01*
X22144Y15118D02*
X22162Y15136D01*
X22144Y15118D02*
X22153Y15127D01*
X22088Y15118D02*
X22144D01*
X21997Y15027D02*
X22088Y15118D01*
X21869Y15073D02*
X21914Y15118D01*
X21869Y15053D02*
Y15073D01*
X22219Y15013D02*
Y15073D01*
X22069Y14988D02*
Y15025D01*
X22005Y15120D02*
X22034D01*
X21914Y15028D02*
X22005Y15120D01*
X21914Y15028D02*
X21948Y14994D01*
X21911Y15025D02*
X21914Y15028D01*
X21948Y14994D02*
X22033D01*
X21800Y15025D02*
X21911D01*
X22071Y14956D02*
X22144Y15028D01*
X22033Y14994D02*
X22071Y14956D01*
X21748Y14973D02*
X21800Y15025D01*
X21709Y14973D02*
X21748D01*
X21935Y14873D02*
X21964Y14903D01*
X21939Y14863D02*
X22017D01*
X21935Y14868D02*
Y14873D01*
X22017Y14863D02*
X22077Y14804D01*
X21935Y14868D02*
X21939Y14863D01*
X21784Y15043D02*
Y15103D01*
X21764Y15023D02*
X21784Y15043D01*
X21819Y14873D02*
X21935D01*
X22114Y14903D02*
Y14958D01*
X21954Y14833D02*
X21969D01*
X21927Y14806D02*
X21954Y14833D01*
X22374Y14848D02*
X22440D01*
X21839Y14973D02*
X22019D01*
X22442Y14797D02*
X22535D01*
X22144Y15028D02*
X22194Y14978D01*
X22322Y14975D02*
X22349D01*
X22319Y14978D02*
X22322Y14975D01*
X22194Y14978D02*
X22319D01*
X22319Y14948D02*
X22440D01*
X22162Y15136D02*
X22196D01*
X21794Y14963D02*
X21829D01*
X22349Y15008D02*
Y15073D01*
X22174Y14848D02*
X22247D01*
X21368Y14798D02*
X21369Y14797D01*
X20996Y15025D02*
X20998Y15027D01*
X21370Y15013D02*
X21426Y14958D01*
X21356Y15013D02*
X21370D01*
X21412Y14926D02*
X21426Y14939D01*
Y14958D01*
X21258Y14926D02*
X21412D01*
X21231Y14898D02*
X21258Y14926D01*
X21175Y14898D02*
X21231D01*
X21356Y15163D02*
X21357Y15164D01*
X21356Y15165D02*
X21356Y15165D01*
X20746Y14803D02*
Y14873D01*
X20656Y14777D02*
Y14803D01*
X20634Y14755D02*
X20656Y14777D01*
X20756Y14963D02*
X20766Y14973D01*
X21276Y15073D02*
X21276Y15073D01*
X21146Y15073D02*
X21146Y15073D01*
X21013Y14930D02*
X21041Y14903D01*
X21041Y14903D01*
X20814Y14930D02*
X21013D01*
X20805Y14921D02*
X20814Y14930D01*
X20704Y14921D02*
X20805D01*
X20656Y14873D02*
X20704Y14921D01*
X20854Y14804D02*
Y14806D01*
X21071Y15118D02*
X21089Y15136D01*
X21071Y15118D02*
X21080Y15127D01*
X21015Y15118D02*
X21071D01*
X20924Y15027D02*
X21015Y15118D01*
X21146Y15013D02*
Y15073D01*
X20796D02*
X20841Y15118D01*
X20796Y15053D02*
Y15073D01*
X20996Y14988D02*
Y15025D01*
X20999Y14956D02*
X21071Y15028D01*
X20932Y15120D02*
X20961D01*
X20841Y15028D02*
X20932Y15120D01*
X20838Y15025D02*
X20841Y15028D01*
X20875Y14994D01*
X20727Y15025D02*
X20838D01*
X20875Y14994D02*
X20960D01*
X20675Y14973D02*
X20727Y15025D01*
X20960Y14994D02*
X20999Y14956D01*
X20636Y14973D02*
X20675D01*
X20862Y14873D02*
X20891Y14903D01*
X20866Y14863D02*
X20944D01*
X20862Y14868D02*
Y14873D01*
X20944Y14863D02*
X21004Y14804D01*
X20862Y14868D02*
X20866Y14863D01*
X20711Y15043D02*
Y15103D01*
X20691Y15023D02*
X20711Y15043D01*
X20746Y14873D02*
X20862D01*
X21041Y14903D02*
Y14958D01*
X20881Y14833D02*
X20896D01*
X20854Y14806D02*
X20881Y14833D01*
X21301Y14848D02*
X21368D01*
X20766Y14973D02*
X20946D01*
X21246Y14978D02*
X21249Y14975D01*
X21121Y14978D02*
X21246D01*
X21071Y15028D02*
X21121Y14978D01*
X21369Y14797D02*
X21462D01*
X21249Y14975D02*
X21276D01*
X21246Y14948D02*
X21367D01*
X21089Y15136D02*
X21123D01*
X20721Y14963D02*
X20756D01*
X21276Y15008D02*
Y15073D01*
X21101Y14848D02*
X21175D01*
X20295Y14798D02*
X20296Y14797D01*
X19923Y15025D02*
X19926Y15027D01*
X20297Y15013D02*
X20353Y14958D01*
X20283Y15013D02*
X20297D01*
X20340Y14926D02*
X20353Y14939D01*
Y14958D01*
X20185Y14926D02*
X20340D01*
X20158Y14898D02*
X20185Y14926D01*
X20102Y14898D02*
X20158D01*
X20283Y15165D02*
X20283Y15165D01*
X19583Y14777D02*
Y14803D01*
X19561Y14755D02*
X19583Y14777D01*
X19673Y14803D02*
Y14873D01*
X19683Y14963D02*
X19693Y14973D01*
X20073Y15073D02*
X20073Y15073D01*
X20203Y15073D02*
X20203Y15073D01*
X19941Y14930D02*
X19968Y14903D01*
X19968Y14903D01*
X19741Y14930D02*
X19941D01*
X19732Y14921D02*
X19741Y14930D01*
X19631Y14921D02*
X19732D01*
X19583Y14873D02*
X19631Y14921D01*
X19781Y14804D02*
Y14806D01*
X19998Y15118D02*
X20016Y15136D01*
X19998Y15118D02*
X20007Y15127D01*
X19942Y15118D02*
X19998D01*
X19851Y15027D02*
X19942Y15118D01*
X19723Y15073D02*
X19768Y15118D01*
X19723Y15053D02*
Y15073D01*
X20073Y15013D02*
Y15073D01*
X19923Y14988D02*
Y15025D01*
X19859Y15120D02*
X19888D01*
X19768Y15028D02*
X19859Y15120D01*
X19768Y15028D02*
X19802Y14994D01*
X19765Y15025D02*
X19768Y15028D01*
X19802Y14994D02*
X19887D01*
X19654Y15025D02*
X19765D01*
X19926Y14956D02*
X19998Y15028D01*
X19887Y14994D02*
X19926Y14956D01*
X19602Y14973D02*
X19654Y15025D01*
X19563Y14973D02*
X19602D01*
X19789Y14873D02*
X19818Y14903D01*
X19793Y14863D02*
X19872D01*
X19789Y14868D02*
Y14873D01*
X19872Y14863D02*
X19931Y14804D01*
X19789Y14868D02*
X19793Y14863D01*
X19638Y15043D02*
Y15103D01*
X19618Y15023D02*
X19638Y15043D01*
X19673Y14873D02*
X19789D01*
X19968Y14903D02*
Y14958D01*
X19808Y14833D02*
X19823D01*
X19781Y14806D02*
X19808Y14833D01*
X20228Y14848D02*
X20295D01*
X19693Y14973D02*
X19873D01*
X20296Y14797D02*
X20389D01*
X19998Y15028D02*
X20048Y14978D01*
X20177Y14975D02*
X20203D01*
X20173Y14978D02*
X20177Y14975D01*
X20048Y14978D02*
X20173D01*
X20173Y14948D02*
X20294D01*
X20016Y15136D02*
X20050D01*
X19648Y14963D02*
X19683D01*
X20203Y15008D02*
Y15073D01*
X20028Y14848D02*
X20102D01*
X21889Y15875D02*
X21924Y15840D01*
X21889Y15875D02*
Y15916D01*
X19754Y12388D02*
Y12448D01*
X19754Y12448D02*
X19754Y12448D01*
X21743Y15606D02*
X21755Y15595D01*
X21743Y15606D02*
Y15670D01*
X21755Y15595D02*
X21779D01*
X21975Y13587D02*
X21976Y13588D01*
Y13785D01*
X22535Y13631D02*
X22618Y13714D01*
X20846Y13714D02*
Y13785D01*
Y13509D02*
Y13714D01*
X20763Y13631D02*
X20846Y13714D01*
Y13214D02*
Y13509D01*
X19960Y13714D02*
Y13785D01*
Y13485D02*
Y13714D01*
X19877Y13631D02*
X19960Y13714D01*
Y13214D02*
Y13485D01*
X19074Y13714D02*
Y13785D01*
Y13481D02*
Y13714D01*
X18991Y13631D02*
X19074Y13714D01*
Y13214D02*
Y13481D01*
X21649Y13631D02*
X21723Y13557D01*
X21732D01*
X21251Y14515D02*
X21289D01*
X20366D02*
X20403D01*
X19480D02*
X19518D01*
X18594D02*
X18632D01*
X19100Y14948D02*
X19222D01*
X19267Y14926D02*
X19280Y14939D01*
X19113Y14926D02*
X19267D01*
X19085Y14898D02*
X19113Y14926D01*
X19104Y14975D02*
X19130D01*
X19222Y14798D02*
X19223Y14797D01*
X19316D01*
X22281Y12731D02*
Y12763D01*
X22260Y12784D02*
X22281Y12763D01*
X22219Y12784D02*
X22260D01*
X22091Y12789D02*
X22204D01*
X18546Y12489D02*
X18567Y12510D01*
X18546Y12446D02*
Y12489D01*
X23774Y13461D02*
X23801D01*
X23874Y13388D01*
X23774Y13455D02*
Y13461D01*
X23903Y13388D02*
X23942Y13427D01*
X23874Y13388D02*
X23903D01*
X18702Y12635D02*
X18707Y12630D01*
X18731Y12605D01*
X18527Y12536D02*
X18666D01*
X18496Y12566D02*
X18527Y12536D01*
X20847Y13509D02*
X20847Y13509D01*
X20846Y13509D02*
X20847D01*
X21088Y13216D02*
Y13785D01*
X20203Y13534D02*
Y13783D01*
Y13216D02*
Y13534D01*
X19317D02*
Y13783D01*
Y13216D02*
Y13534D01*
X18431Y13530D02*
Y13783D01*
Y13216D02*
Y13530D01*
X18594Y13354D02*
X18632D01*
X18431Y13216D02*
X18433Y13214D01*
X21743Y13225D02*
Y13546D01*
X21732Y13557D02*
X21743Y13546D01*
X20283Y15163D02*
X20284Y15164D01*
X19210Y15165D02*
X19210Y15165D01*
X18943Y15136D02*
X18977D01*
X18925Y15118D02*
X18943Y15136D01*
X18925Y15118D02*
X18934Y15127D01*
X20053Y12450D02*
X20054Y12449D01*
Y12388D02*
Y12449D01*
X20128Y12450D02*
X20129Y12449D01*
Y12388D02*
Y12449D01*
X22760Y15583D02*
X22798Y15544D01*
X22752Y15583D02*
X22760D01*
X22649Y15454D02*
X22798D01*
X22436Y15672D02*
X22437Y15670D01*
X22796Y15920D02*
X22798Y15918D01*
X22745Y15920D02*
X22796D01*
X22787Y15840D02*
X22798Y15828D01*
X22444Y16095D02*
X22610D01*
X22498Y15973D02*
X22499Y15974D01*
X22477Y15973D02*
X22498D01*
X22444Y16005D02*
X22477Y15973D01*
X22574Y15749D02*
X22575Y15750D01*
X22434Y15749D02*
X22574D01*
X22434D02*
X22437Y15752D01*
X22434Y15749D02*
X22441Y15756D01*
X22434Y15740D02*
Y15749D01*
X22487Y15893D02*
Y15918D01*
X22434Y15839D02*
X22487Y15893D01*
X22531Y15606D02*
X22543Y15595D01*
X22566D01*
X22531Y15606D02*
Y15670D01*
X22437D02*
X22531D01*
X22758Y15682D02*
Y15709D01*
X22747Y15670D02*
X22758Y15682D01*
X22712Y15670D02*
X22747D01*
X22712Y15840D02*
X22787D01*
X22676Y15875D02*
X22712Y15840D01*
X22676Y15875D02*
Y15916D01*
X22531Y15840D02*
X22578D01*
X22808Y16020D02*
X22853Y15976D01*
Y15882D02*
Y15976D01*
X22798Y15828D02*
X22853Y15882D01*
X22808Y16020D02*
Y16050D01*
X22390Y15626D02*
X22436Y15672D01*
X22390Y15538D02*
X22434Y15493D01*
X22390Y15538D02*
Y15626D01*
X22434Y15460D02*
Y15493D01*
X21972Y15583D02*
X22011Y15544D01*
X21965Y15583D02*
X21972D01*
X21862Y15454D02*
X22011D01*
X22009Y15920D02*
X22011Y15918D01*
X21958Y15920D02*
X22009D01*
X22000Y15840D02*
X22011Y15828D01*
X21657Y16095D02*
X21822D01*
X21711Y15973D02*
X21712Y15974D01*
X21689Y15973D02*
X21711D01*
X21657Y16005D02*
X21689Y15973D01*
X21787Y15749D02*
X21788Y15750D01*
X21647Y15749D02*
X21787D01*
X21647D02*
X21650Y15752D01*
X21647Y15749D02*
X21654Y15756D01*
X21647Y15740D02*
Y15749D01*
X21700Y15893D02*
Y15918D01*
X21647Y15839D02*
X21700Y15893D01*
X21650Y15670D02*
X21743D01*
X21971Y15682D02*
Y15709D01*
X21959Y15670D02*
X21971Y15682D01*
X21924Y15670D02*
X21959D01*
X21924Y15840D02*
X22000D01*
X21743D02*
X21791D01*
X22021Y16020D02*
X22065Y15976D01*
Y15882D02*
Y15976D01*
X22011Y15828D02*
X22065Y15882D01*
X22021Y16020D02*
Y16050D01*
X21603Y15626D02*
X21648Y15672D01*
X21603Y15538D02*
X21647Y15493D01*
Y15460D02*
Y15493D01*
X21185Y15583D02*
X21224Y15544D01*
X21177Y15583D02*
X21185D01*
X21074Y15454D02*
X21224D01*
X20861Y15672D02*
X20863Y15670D01*
X21221Y15920D02*
X21224Y15918D01*
X21171Y15920D02*
X21221D01*
X21212Y15840D02*
X21224Y15828D01*
X20869Y16095D02*
X21035D01*
X20923Y15973D02*
X20924Y15974D01*
X20902Y15973D02*
X20923D01*
X20869Y16005D02*
X20902Y15973D01*
X21000Y15749D02*
X21000Y15750D01*
X20859Y15749D02*
X21000D01*
X20859D02*
X20862Y15752D01*
X20859Y15749D02*
X20866Y15756D01*
X20859Y15740D02*
Y15749D01*
X20913Y15893D02*
Y15918D01*
X20859Y15839D02*
X20913Y15893D01*
X20956Y15606D02*
X20968Y15595D01*
X20991D01*
X20956Y15606D02*
Y15670D01*
X20863D02*
X20956D01*
X21183Y15682D02*
Y15709D01*
X21172Y15670D02*
X21183Y15682D01*
X21137Y15670D02*
X21172D01*
X21137Y15840D02*
X21212D01*
X21102Y15875D02*
X21137Y15840D01*
X21102Y15875D02*
Y15916D01*
X20956Y15840D02*
X21003D01*
X21234Y16020D02*
X21278Y15976D01*
Y15882D02*
Y15976D01*
X21224Y15828D02*
X21278Y15882D01*
X21234Y16020D02*
Y16050D01*
X20815Y15626D02*
X20861Y15672D01*
X20815Y15538D02*
X20859Y15493D01*
Y15460D02*
Y15493D01*
X18823Y15583D02*
X18861Y15544D01*
X18815Y15583D02*
X18823D01*
X18712Y15454D02*
X18861D01*
X18859Y15920D02*
X18861Y15918D01*
X18808Y15920D02*
X18859D01*
X18850Y15840D02*
X18861Y15828D01*
X18507Y16095D02*
X18673D01*
X18561Y15973D02*
X18562Y15974D01*
X18540Y15973D02*
X18561D01*
X18507Y16005D02*
X18540Y15973D01*
X18637Y15749D02*
X18638Y15750D01*
X18497Y15749D02*
X18637D01*
X18497D02*
X18500Y15752D01*
X18497Y15749D02*
X18504Y15756D01*
X18497Y15740D02*
Y15749D01*
X18550Y15893D02*
Y15918D01*
X18497Y15839D02*
X18550Y15893D01*
X18594Y15606D02*
X18606Y15595D01*
X18629D01*
X18594Y15606D02*
Y15670D01*
X18500D02*
X18594D01*
X18821Y15682D02*
Y15709D01*
X18809Y15670D02*
X18821Y15682D01*
X18775Y15670D02*
X18809D01*
X18775Y15840D02*
X18850D01*
X18739Y15875D02*
X18775Y15840D01*
X18739Y15875D02*
Y15916D01*
X18594Y15840D02*
X18641D01*
X18871Y16020D02*
X18916Y15976D01*
Y15882D02*
Y15976D01*
X18861Y15828D02*
X18916Y15882D01*
X18871Y16020D02*
Y16050D01*
X18453Y15626D02*
X18499Y15672D01*
X18453Y15538D02*
X18497Y15493D01*
X18453Y15538D02*
Y15626D01*
X18497Y15460D02*
Y15493D01*
X18714Y13357D02*
Y13357D01*
Y13357D02*
X18772Y13299D01*
X18805Y13266D01*
X18635Y13267D02*
X18714D01*
X18433Y13214D02*
X18477D01*
X18503Y13240D01*
X18511D01*
X18524Y13253D01*
Y13261D01*
X18529Y13266D02*
X18556D01*
X18524Y13261D02*
X18529Y13266D01*
X18879Y13266D02*
X18909D01*
X18556Y13266D02*
X18584Y13293D01*
X18909Y13266D02*
X18921Y13278D01*
X18584Y13293D02*
Y13344D01*
X18594Y13354D01*
X18594Y13354D01*
X18632Y13354D02*
X18635Y13357D01*
X18512Y13214D02*
X18563D01*
X18952Y13279D02*
X19021D01*
X19074Y13214D02*
Y13226D01*
X19021Y13279D02*
X19074Y13226D01*
X18842Y13298D02*
Y13359D01*
X18932Y13299D02*
X18952Y13279D01*
X18842Y13298D02*
X18843Y13299D01*
X18932D01*
X18944Y13195D02*
X18979Y13161D01*
X18944Y13195D02*
Y13214D01*
X18979Y13161D02*
X18998D01*
X18506Y13261D02*
X18506Y13261D01*
X18502Y13261D02*
X18506D01*
X18506Y13261D02*
Y13331D01*
X18507Y13332D01*
X18657Y13160D02*
X18735D01*
X18749Y13174D01*
X18749D02*
X18749D01*
X18585Y13111D02*
X18586Y13110D01*
X18657D01*
X18782Y13132D02*
X18804Y13110D01*
X18850D01*
X19155Y14848D02*
X19222D01*
X19100Y14978D02*
X19104Y14975D01*
X18975Y14978D02*
X19100D01*
X18925Y15028D02*
X18975Y14978D01*
X18955Y14848D02*
X19029D01*
Y14898D02*
X19085D01*
X19280Y14939D02*
Y14958D01*
X19225Y15013D02*
X19280Y14958D01*
X18695Y15028D02*
X18787Y15120D01*
X18815D01*
X18850Y14988D02*
Y15025D01*
X18853Y15027D01*
X19000Y15013D02*
Y15073D01*
X18650Y15053D02*
Y15073D01*
X18695Y15118D01*
X18778Y15027D02*
X18869Y15118D01*
X18925D01*
X19210Y15013D02*
X19225D01*
X18510Y14873D02*
X18558Y14921D01*
X18659D01*
X18668Y14930D01*
X18868D01*
X18895Y14903D01*
X18600Y14803D02*
Y14873D01*
X18716D01*
X18545Y15023D02*
X18565Y15043D01*
Y15103D01*
X18716Y14868D02*
X18720Y14863D01*
X18799D02*
X18858Y14804D01*
X18716Y14868D02*
Y14873D01*
X18720Y14863D02*
X18799D01*
X18716Y14873D02*
X18745Y14903D01*
X18575Y14963D02*
X18610D01*
X18620Y14973D01*
X18800D01*
X18490D02*
X18529D01*
X18581Y15025D01*
X18692D01*
X19130Y15008D02*
Y15073D01*
X19130Y15073D01*
X19000Y15073D02*
X19000Y15073D01*
X18895Y14903D02*
X18895Y14903D01*
X18895Y14903D02*
Y14958D01*
X18708Y14804D02*
Y14806D01*
X18735Y14833D01*
X18750D01*
X18814Y14994D02*
X18853Y14956D01*
X18925Y15028D01*
X18729Y14994D02*
X18814D01*
X18695Y15028D02*
X18729Y14994D01*
X18692Y15025D02*
X18695Y15028D01*
X18510Y14777D02*
Y14803D01*
X18488Y14755D02*
X18510Y14777D01*
X20179Y12388D02*
Y12449D01*
X20004Y12388D02*
Y12449D01*
X20003Y12450D02*
X20004Y12449D01*
X19929Y12388D02*
Y12449D01*
X19879Y12388D02*
Y12446D01*
X19804Y12388D02*
Y12449D01*
X19679Y12388D02*
Y12447D01*
X19680Y12448D01*
X19629Y12388D02*
Y12445D01*
X19630Y12446D01*
X23917Y13745D02*
X23952Y13780D01*
X23997D01*
X23917Y13745D02*
Y13810D01*
X23827Y13680D02*
Y13745D01*
Y13810D01*
X23613Y13603D02*
X23617Y13607D01*
X23717Y13869D02*
Y13932D01*
X23718Y13933D01*
X23667Y13612D02*
Y13681D01*
Y13612D02*
X23668Y13613D01*
X23780Y12790D02*
Y12876D01*
X23783Y12879D01*
X23544Y13060D02*
X23591Y13014D01*
X23522Y13060D02*
X23544D01*
X23520Y13063D02*
X23522Y13060D01*
X23520Y13063D02*
Y13155D01*
X23591Y12949D02*
Y13014D01*
X23686Y12794D02*
X23777D01*
X23780Y12790D01*
X23763Y13060D02*
X23783D01*
X23876Y12972D02*
Y13044D01*
X23522Y12879D02*
X23535D01*
X23591Y12824D01*
Y12904D02*
Y12949D01*
Y12904D02*
X23650Y12845D01*
X24010Y13060D02*
X24011Y13059D01*
X23892Y13060D02*
X24010D01*
X23876Y13044D02*
X23892Y13060D01*
X23866Y12894D02*
X23867Y12892D01*
X23650Y12935D02*
Y12995D01*
X23697D01*
X23718Y13016D02*
X23763Y13060D01*
X23611Y13144D02*
X23641D01*
X23783Y12879D02*
X23876Y12972D01*
X23711Y12944D02*
Y12979D01*
X23718Y12986D01*
Y13016D01*
X23569Y13492D02*
Y13558D01*
X23549Y13578D02*
X23569Y13558D01*
X23534Y13578D02*
X23549D01*
X23519Y13563D02*
X23534Y13578D01*
X23519Y13492D02*
Y13563D01*
X23519Y13228D02*
Y13303D01*
X23519Y13228D02*
X23519Y13228D01*
X23669Y13263D02*
Y13303D01*
Y13263D02*
X23684Y13248D01*
X23729D01*
X23619Y13228D02*
Y13303D01*
X23619Y13303D01*
X23849Y13318D02*
X23869Y13298D01*
X23778Y13318D02*
X23849D01*
X23772Y13312D02*
X23778Y13318D01*
X23671Y13493D02*
X23772D01*
X23669Y13492D02*
X23671Y13493D01*
X23619Y13492D02*
Y13543D01*
X23639Y13563D01*
X23513Y13393D02*
X23669D01*
X23744Y13318D02*
X23767D01*
X23772Y13312D01*
X23669Y13393D02*
X23744Y13318D01*
X18442Y12451D02*
X18446Y12446D01*
X18296Y12451D02*
X18361D01*
X18442D01*
X18446Y12635D02*
X18496D01*
Y12566D02*
Y12635D01*
X18446Y12635D02*
X18446Y12635D01*
X18337Y12635D02*
X18446D01*
X18596Y12635D02*
X18702D01*
X18731Y12536D02*
Y12605D01*
X18596Y12446D02*
X18597Y12446D01*
X18731D01*
X18966Y12441D02*
X19006D01*
X19006Y12442D01*
X18865Y12442D02*
X18866Y12441D01*
X18865Y12442D02*
Y12516D01*
X18916Y12563D02*
Y12630D01*
X18416Y12541D02*
X18416Y12541D01*
X18361Y12541D02*
X18416D01*
X18558Y12570D02*
X18565D01*
X18546Y12582D02*
X18558Y12570D01*
X18546Y12582D02*
Y12635D01*
X18296Y12541D02*
X18325Y12512D01*
Y12496D02*
Y12512D01*
Y12496D02*
X18327Y12494D01*
X23111Y12980D02*
X23164D01*
X23061Y13030D02*
X23111Y12980D01*
X23061Y13030D02*
Y13055D01*
X23018Y12930D02*
X23062Y12886D01*
Y12849D02*
Y12886D01*
X22959Y12930D02*
X23018D01*
X22959Y12780D02*
X23029D01*
X23164D01*
X23948Y14203D02*
X23952Y14198D01*
Y14043D02*
Y14198D01*
X18496Y12446D02*
Y12496D01*
X18480Y12512D02*
X18496Y12496D01*
X23026Y13130D02*
X23028D01*
X22959D02*
X23026D01*
X23028D02*
X23164D01*
X19098Y15313D02*
X19110Y15301D01*
X18999Y15313D02*
X19098D01*
X18521Y15304D02*
X18537Y15288D01*
X18442Y15304D02*
X18521D01*
X22062Y15383D02*
X22215D01*
X21973Y15294D02*
X22062Y15383D01*
X21973Y15215D02*
Y15294D01*
X22295Y12647D02*
X22392D01*
X18861Y15661D02*
X18938D01*
X18950Y15649D01*
X21241Y15643D02*
X21319D01*
X21224Y15661D02*
X21241Y15643D01*
X22011Y15661D02*
X22097D01*
X22110Y15648D01*
X22828Y15661D02*
X22891Y15724D01*
X22798Y15661D02*
X22828D01*
X18850Y13210D02*
Y13221D01*
X18805Y13266D02*
X18850Y13221D01*
X18714Y13267D02*
X18754D01*
X18784Y13238D01*
Y13170D02*
Y13238D01*
X18757Y13143D02*
X18784Y13170D01*
X18757Y13084D02*
Y13143D01*
Y13084D02*
X18781Y13060D01*
X18850D01*
X18991D01*
X19074Y13143D01*
Y13214D01*
X19073Y13480D02*
X19074Y13481D01*
X19960Y13485D02*
X19961Y13484D01*
X18757Y14245D02*
Y14304D01*
X18781Y14222D02*
X18850D01*
X18757Y14245D02*
X18781Y14222D01*
X18714Y14429D02*
X18754D01*
X18635D02*
X18714D01*
X18757Y14304D02*
X18784Y14331D01*
X18754Y14429D02*
X18784Y14399D01*
Y14331D02*
Y14399D01*
X18714Y14518D02*
Y14519D01*
Y14518D02*
X18772Y14460D01*
X18805Y14428D01*
X18433Y14375D02*
X18477D01*
X18503Y14402D01*
X18511D01*
X18524Y14414D01*
Y14422D01*
X18529Y14427D01*
X18556D01*
X18584Y14455D01*
X18879Y14428D02*
X18909D01*
X18921Y14439D01*
X18584Y14455D02*
Y14505D01*
X18594Y14515D01*
X18594Y14515D01*
X18632Y14515D02*
X18635Y14519D01*
X18512Y14375D02*
X18563D01*
X18431Y14377D02*
X18433Y14375D01*
X18944Y14357D02*
X18979Y14322D01*
X18944Y14357D02*
Y14375D01*
X18979Y14322D02*
X18998D01*
X18850Y14222D02*
X18991D01*
X19074Y14305D01*
Y14375D01*
Y14387D01*
X19021Y14440D02*
X19074Y14387D01*
X18842Y14459D02*
X18843Y14460D01*
X18932D02*
X18952Y14440D01*
X19021D01*
X18843Y14460D02*
X18932D01*
X18842Y14459D02*
Y14520D01*
X18506Y14423D02*
Y14493D01*
X18506Y14423D02*
X18506Y14423D01*
X18502Y14423D02*
X18506D01*
X18506Y14493D02*
X18507Y14494D01*
X18805Y14428D02*
X18850Y14382D01*
X18782Y14294D02*
X18804Y14272D01*
X18850D01*
Y14372D02*
Y14382D01*
X18585Y14272D02*
X18586Y14272D01*
X18657D01*
Y14322D02*
X18735D01*
X18749Y14335D01*
X18749D02*
X18749D01*
X19643Y14245D02*
Y14304D01*
X19667Y14222D02*
X19736D01*
X19643Y14245D02*
X19667Y14222D01*
X19600Y14429D02*
X19640D01*
X19521D02*
X19600D01*
X19643Y14304D02*
X19669Y14331D01*
X19640Y14429D02*
X19669Y14399D01*
Y14331D02*
Y14399D01*
X19600Y14518D02*
Y14519D01*
Y14518D02*
X19658Y14460D01*
X19690Y14428D01*
X19318Y14375D02*
X19363D01*
X19389Y14402D01*
X19397D01*
X19409Y14414D01*
Y14422D01*
X19415Y14427D01*
X19442D01*
X19470Y14455D01*
X19765Y14428D02*
X19795D01*
X19807Y14439D01*
X19470Y14455D02*
Y14505D01*
X19480Y14515D01*
X19480Y14515D01*
X19518Y14515D02*
X19521Y14519D01*
X19398Y14375D02*
X19448D01*
X19317Y14377D02*
X19318Y14375D01*
X19830Y14357D02*
X19865Y14322D01*
X19830Y14357D02*
Y14375D01*
X19865Y14322D02*
X19883D01*
X19736Y14222D02*
X19877D01*
X19960Y14305D01*
Y14375D01*
Y14387D01*
X19907Y14440D02*
X19960Y14387D01*
X19728Y14459D02*
X19729Y14460D01*
X19818D02*
X19838Y14440D01*
X19907D01*
X19729Y14460D02*
X19818D01*
X19728Y14459D02*
Y14520D01*
X19392Y14423D02*
Y14493D01*
X19392Y14423D02*
X19392Y14423D01*
X19388Y14423D02*
X19392D01*
X19392Y14493D02*
X19393Y14494D01*
X19690Y14428D02*
X19736Y14382D01*
X19668Y14294D02*
X19690Y14272D01*
X19736D01*
Y14372D02*
Y14382D01*
X19471Y14272D02*
X19471Y14272D01*
X19543D01*
Y14322D02*
X19621D01*
X19634Y14335D01*
X19634D02*
X19634D01*
X20529Y14245D02*
Y14304D01*
X20552Y14222D02*
X20622D01*
X20529Y14245D02*
X20552Y14222D01*
X20486Y14429D02*
X20526D01*
X20407D02*
X20486D01*
X20529Y14304D02*
X20555Y14331D01*
X20526Y14429D02*
X20555Y14399D01*
Y14331D02*
Y14399D01*
X20486Y14518D02*
Y14519D01*
Y14518D02*
X20544Y14460D01*
X20576Y14428D01*
X20204Y14375D02*
X20248D01*
X20275Y14402D01*
X20283D01*
X20295Y14414D01*
Y14422D01*
X20300Y14427D01*
X20328D01*
X20356Y14455D01*
X20651Y14428D02*
X20681D01*
X20692Y14439D01*
X20356Y14455D02*
Y14505D01*
X20366Y14515D01*
X20366Y14515D01*
X20403Y14515D02*
X20407Y14519D01*
X20284Y14375D02*
X20334D01*
X20203Y14377D02*
X20204Y14375D01*
X20716Y14357D02*
X20750Y14322D01*
X20716Y14357D02*
Y14375D01*
X20750Y14322D02*
X20769D01*
X20622Y14222D02*
X20763D01*
X20846Y14305D01*
Y14375D01*
Y14387D01*
X20793Y14440D02*
X20846Y14387D01*
X20614Y14459D02*
X20615Y14460D01*
X20704D02*
X20724Y14440D01*
X20793D01*
X20615Y14460D02*
X20704D01*
X20614Y14459D02*
Y14520D01*
X20278Y14423D02*
Y14493D01*
X20278Y14423D02*
X20278Y14423D01*
X20274Y14423D02*
X20278D01*
X20278Y14493D02*
X20279Y14494D01*
X20576Y14428D02*
X20622Y14382D01*
X20554Y14294D02*
X20576Y14272D01*
X20622D01*
Y14372D02*
Y14382D01*
X20357Y14272D02*
X20357Y14272D01*
X20429D01*
Y14322D02*
X20507D01*
X20520Y14335D01*
X20520D02*
X20520D01*
X21414Y14245D02*
Y14304D01*
X21438Y14222D02*
X21507D01*
X21414Y14245D02*
X21438Y14222D01*
X21372Y14429D02*
X21412D01*
X21293D02*
X21372D01*
X21414Y14304D02*
X21441Y14331D01*
X21412Y14429D02*
X21441Y14399D01*
Y14331D02*
Y14399D01*
X21372Y14518D02*
Y14519D01*
Y14518D02*
X21430Y14460D01*
X21462Y14428D01*
X21090Y14375D02*
X21134D01*
X21161Y14402D01*
X21169D01*
X21181Y14414D01*
Y14422D01*
X21186Y14427D01*
X21214D01*
X21241Y14455D01*
X21537Y14428D02*
X21566D01*
X21578Y14439D01*
X21241Y14455D02*
Y14505D01*
X21251Y14515D01*
X21252Y14515D01*
X21289Y14515D02*
X21293Y14519D01*
X21170Y14375D02*
X21220D01*
X21088Y14377D02*
X21090Y14375D01*
X21602Y14357D02*
X21636Y14322D01*
X21602Y14357D02*
Y14375D01*
X21636Y14322D02*
X21655D01*
X21507Y14222D02*
X21649D01*
X21732Y14305D01*
Y14375D01*
Y14387D01*
X21679Y14440D02*
X21732Y14387D01*
X21499Y14459D02*
X21501Y14460D01*
X21590D02*
X21610Y14440D01*
X21679D01*
X21501Y14460D02*
X21590D01*
X21499Y14459D02*
Y14520D01*
X21164Y14423D02*
Y14493D01*
X21164Y14423D02*
X21164Y14423D01*
X21160Y14423D02*
X21164D01*
X21164Y14493D02*
X21165Y14494D01*
X21462Y14428D02*
X21507Y14382D01*
X21439Y14294D02*
X21462Y14272D01*
X21507D01*
Y14372D02*
Y14382D01*
X21243Y14272D02*
X21243Y14272D01*
X21314D01*
Y14322D02*
X21393D01*
X21406Y14335D01*
X21406D02*
X21406D01*
X22300Y14245D02*
Y14304D01*
X22324Y14222D02*
X22393D01*
X22300Y14245D02*
X22324Y14222D01*
X22257Y14429D02*
X22298D01*
X22179D02*
X22257D01*
X22300Y14304D02*
X22327Y14331D01*
X22298Y14429D02*
X22327Y14399D01*
Y14331D02*
Y14399D01*
X22257Y14518D02*
Y14519D01*
Y14518D02*
X22315Y14460D01*
X22348Y14428D01*
X21976Y14375D02*
X22020D01*
X22046Y14402D01*
X22055D01*
X22067Y14414D01*
Y14422D01*
X22072Y14427D01*
X22100D01*
X22127Y14455D01*
X22423Y14428D02*
X22452D01*
X22464Y14439D01*
X22127Y14455D02*
Y14505D01*
X22137Y14515D01*
X22137Y14515D01*
X22137Y14515D02*
X22175D01*
X22179Y14519D01*
X22056Y14375D02*
X22106D01*
X21974Y14377D02*
X21976Y14375D01*
X22488Y14357D02*
X22522Y14322D01*
X22488Y14357D02*
Y14375D01*
X22522Y14322D02*
X22541D01*
X22393Y14222D02*
X22535D01*
X22618Y14305D01*
Y14375D01*
Y14387D01*
X22564Y14440D02*
X22618Y14387D01*
X22385Y14459D02*
X22387Y14460D01*
X22476D02*
X22496Y14440D01*
X22564D01*
X22387Y14460D02*
X22476D01*
X22385Y14459D02*
Y14520D01*
X22050Y14423D02*
Y14493D01*
X22050Y14423D02*
X22050Y14423D01*
X22046Y14423D02*
X22050D01*
X22050Y14493D02*
X22051Y14494D01*
X22348Y14428D02*
X22393Y14382D01*
X22325Y14294D02*
X22347Y14272D01*
X22393D01*
Y14372D02*
Y14382D01*
X22128Y14272D02*
X22129Y14272D01*
X22200D01*
Y14322D02*
X22278D01*
X22292Y14335D01*
X22292D02*
X22292D01*
X18757Y13655D02*
Y13714D01*
X18781Y13631D02*
X18850D01*
X18757Y13655D02*
X18781Y13631D01*
X18714Y13838D02*
X18754D01*
X18635D02*
X18714D01*
X18757Y13714D02*
X18784Y13740D01*
X18754Y13838D02*
X18784Y13809D01*
Y13740D02*
Y13809D01*
X18714Y13928D02*
Y13928D01*
Y13928D02*
X18772Y13869D01*
X18805Y13837D01*
X18433Y13785D02*
X18477D01*
X18503Y13811D01*
X18511D01*
X18524Y13823D01*
Y13832D01*
X18529Y13837D01*
X18556D01*
X18584Y13864D01*
X18879Y13837D02*
X18909D01*
X18921Y13849D01*
X18584Y13864D02*
Y13915D01*
X18594Y13925D01*
X18594Y13925D01*
X18594Y13925D02*
X18632D01*
X18635Y13928D01*
X18512Y13785D02*
X18563D01*
X18431Y13787D02*
X18433Y13785D01*
X18944Y13766D02*
X18979Y13732D01*
X18944Y13766D02*
Y13785D01*
X18979Y13732D02*
X18998D01*
X18850Y13631D02*
X18991D01*
X19074Y13714D02*
Y13797D01*
X19021Y13850D02*
X19074Y13797D01*
X18842Y13869D02*
X18843Y13870D01*
X18932D02*
X18952Y13850D01*
X19021D01*
X18843Y13870D02*
X18932D01*
X18842Y13869D02*
Y13930D01*
X18506Y13832D02*
Y13902D01*
X18506Y13832D02*
X18506Y13832D01*
X18502Y13832D02*
X18506D01*
X18506Y13902D02*
X18507Y13903D01*
X18805Y13837D02*
X18850Y13792D01*
X18782Y13703D02*
X18804Y13681D01*
X18850D01*
Y13781D02*
Y13792D01*
X18585Y13681D02*
X18586Y13681D01*
X18657D01*
Y13731D02*
X18735D01*
X18749Y13745D01*
X18749D02*
X18749D01*
X19643Y13655D02*
Y13714D01*
X19667Y13631D02*
X19736D01*
X19643Y13655D02*
X19667Y13631D01*
X19600Y13838D02*
X19640D01*
X19521D02*
X19600D01*
X19643Y13714D02*
X19669Y13740D01*
X19640Y13838D02*
X19669Y13809D01*
Y13740D02*
Y13809D01*
X19600Y13928D02*
Y13928D01*
Y13928D02*
X19658Y13869D01*
X19690Y13837D01*
X19318Y13785D02*
X19363D01*
X19389Y13811D01*
X19397D01*
X19409Y13823D01*
Y13832D01*
X19415Y13837D01*
X19442D01*
X19470Y13864D01*
X19765Y13837D02*
X19795D01*
X19807Y13849D01*
X19470Y13864D02*
Y13915D01*
X19480Y13925D01*
X19480Y13925D01*
X19480Y13925D02*
X19518D01*
X19521Y13928D01*
X19398Y13785D02*
X19448D01*
X19317Y13787D02*
X19318Y13785D01*
X19830Y13766D02*
X19865Y13732D01*
X19830Y13766D02*
Y13785D01*
X19865Y13732D02*
X19883D01*
X19736Y13631D02*
X19877D01*
X19960Y13714D02*
Y13797D01*
X19907Y13850D02*
X19960Y13797D01*
X19728Y13869D02*
X19729Y13870D01*
X19818D02*
X19838Y13850D01*
X19907D01*
X19729Y13870D02*
X19818D01*
X19728Y13869D02*
Y13930D01*
X19392Y13832D02*
Y13902D01*
X19392Y13832D02*
X19392Y13832D01*
X19388Y13832D02*
X19392D01*
X19392Y13902D02*
X19393Y13903D01*
X19690Y13837D02*
X19736Y13792D01*
X19668Y13703D02*
X19690Y13681D01*
X19736D01*
Y13781D02*
Y13792D01*
X19471Y13681D02*
X19471Y13681D01*
X19543D01*
Y13731D02*
X19621D01*
X19634Y13745D01*
X19634D02*
X19634D01*
X20529Y13655D02*
Y13714D01*
X20552Y13631D02*
X20622D01*
X20529Y13655D02*
X20552Y13631D01*
X20486Y13838D02*
X20526D01*
X20407D02*
X20486D01*
X20529Y13714D02*
X20555Y13740D01*
X20526Y13838D02*
X20555Y13809D01*
Y13740D02*
Y13809D01*
X20486Y13928D02*
Y13928D01*
Y13928D02*
X20544Y13869D01*
X20576Y13837D01*
X20204Y13785D02*
X20248D01*
X20275Y13811D01*
X20283D01*
X20295Y13823D01*
Y13832D01*
X20300Y13837D01*
X20328D01*
X20356Y13864D01*
X20651Y13837D02*
X20681D01*
X20692Y13849D01*
X20356Y13864D02*
Y13915D01*
X20366Y13925D01*
X20366Y13925D01*
X20366Y13925D02*
X20403D01*
X20407Y13928D01*
X20284Y13785D02*
X20334D01*
X20203Y13787D02*
X20204Y13785D01*
X20716Y13766D02*
X20750Y13732D01*
X20716Y13766D02*
Y13785D01*
X20750Y13732D02*
X20769D01*
X20622Y13631D02*
X20763D01*
X20846Y13714D02*
Y13797D01*
X20793Y13850D02*
X20846Y13797D01*
X20614Y13869D02*
X20615Y13870D01*
X20704D02*
X20724Y13850D01*
X20793D01*
X20615Y13870D02*
X20704D01*
X20614Y13869D02*
Y13930D01*
X20278Y13832D02*
Y13902D01*
X20278Y13832D02*
X20278Y13832D01*
X20274Y13832D02*
X20278D01*
X20278Y13902D02*
X20279Y13903D01*
X20576Y13837D02*
X20622Y13792D01*
X20554Y13703D02*
X20576Y13681D01*
X20622D01*
Y13781D02*
Y13792D01*
X20357Y13681D02*
X20357Y13681D01*
X20429D01*
Y13731D02*
X20507D01*
X20520Y13745D01*
X20520D02*
X20520D01*
X21414Y13655D02*
Y13714D01*
X21438Y13631D02*
X21507D01*
X21414Y13655D02*
X21438Y13631D01*
X21372Y13838D02*
X21412D01*
X21293D02*
X21372D01*
X21414Y13714D02*
X21441Y13740D01*
X21412Y13838D02*
X21441Y13809D01*
Y13740D02*
Y13809D01*
X21372Y13928D02*
Y13928D01*
Y13928D02*
X21430Y13869D01*
X21462Y13837D01*
X21090Y13785D02*
X21134D01*
X21161Y13811D01*
X21169D01*
X21181Y13823D01*
Y13832D01*
X21186Y13837D01*
X21214D01*
X21241Y13864D01*
X21537Y13837D02*
X21566D01*
X21578Y13849D01*
X21241Y13864D02*
Y13915D01*
X21251Y13925D01*
X21252Y13925D01*
X21289Y13925D02*
X21293Y13928D01*
X21170Y13785D02*
X21220D01*
X21088Y13787D02*
X21090Y13785D01*
X21602Y13766D02*
X21636Y13732D01*
X21602Y13766D02*
Y13785D01*
X21636Y13732D02*
X21655D01*
X21507Y13631D02*
X21649D01*
X21732Y13714D01*
Y13785D01*
Y13797D01*
X21679Y13850D02*
X21732Y13797D01*
X21499Y13869D02*
X21501Y13870D01*
X21590D02*
X21610Y13850D01*
X21679D01*
X21501Y13870D02*
X21590D01*
X21499Y13869D02*
Y13930D01*
X21164Y13832D02*
Y13902D01*
X21164Y13832D02*
X21164Y13832D01*
X21160Y13832D02*
X21164D01*
X21164Y13902D02*
X21165Y13903D01*
X21462Y13837D02*
X21507Y13792D01*
X21439Y13703D02*
X21462Y13681D01*
X21507D01*
Y13781D02*
Y13792D01*
X21243Y13681D02*
X21243Y13681D01*
X21314D01*
Y13731D02*
X21393D01*
X21406Y13745D01*
X21406D02*
X21406D01*
X22300Y13655D02*
Y13714D01*
X22324Y13631D02*
X22393D01*
X22300Y13655D02*
X22324Y13631D01*
X22257Y13838D02*
X22298D01*
X22179D02*
X22257D01*
X22300Y13714D02*
X22327Y13740D01*
X22298Y13838D02*
X22327Y13809D01*
Y13740D02*
Y13809D01*
X22257Y13928D02*
Y13928D01*
Y13928D02*
X22315Y13869D01*
X22348Y13837D01*
X21976Y13785D02*
X22020D01*
X22046Y13811D01*
X22055D01*
X22067Y13823D01*
Y13832D01*
X22072Y13837D01*
X22100D01*
X22127Y13864D01*
X22423Y13837D02*
X22452D01*
X22464Y13849D01*
X22127Y13864D02*
Y13915D01*
X22137Y13925D01*
X22137Y13925D01*
X22137Y13925D02*
X22175D01*
X22179Y13928D01*
X22056Y13785D02*
X22106D01*
X21974Y13787D02*
X21976Y13785D01*
X22488Y13766D02*
X22522Y13732D01*
X22488Y13766D02*
Y13785D01*
X22522Y13732D02*
X22541D01*
X22393Y13631D02*
X22535D01*
X22618Y13714D02*
Y13797D01*
X22564Y13850D02*
X22618Y13797D01*
X22385Y13869D02*
X22387Y13870D01*
X22476D02*
X22496Y13850D01*
X22564D01*
X22387Y13870D02*
X22476D01*
X22385Y13869D02*
Y13930D01*
X22050Y13832D02*
Y13902D01*
X22050Y13832D02*
X22050Y13832D01*
X22046Y13832D02*
X22050D01*
X22050Y13902D02*
X22051Y13903D01*
X22348Y13837D02*
X22393Y13792D01*
X22325Y13703D02*
X22347Y13681D01*
X22393D01*
Y13781D02*
Y13792D01*
X22128Y13681D02*
X22129Y13681D01*
X22200D01*
Y13731D02*
X22278D01*
X22292Y13745D01*
X22292D02*
X22292D01*
X19643Y13084D02*
Y13143D01*
X19667Y13060D02*
X19736D01*
X19643Y13084D02*
X19667Y13060D01*
X19600Y13267D02*
X19640D01*
X19521D02*
X19600D01*
X19643Y13143D02*
X19669Y13170D01*
X19640Y13267D02*
X19669Y13238D01*
Y13170D02*
Y13238D01*
X19600Y13357D02*
Y13357D01*
Y13357D02*
X19658Y13299D01*
X19690Y13266D01*
X19318Y13214D02*
X19363D01*
X19389Y13240D01*
X19397D01*
X19409Y13253D01*
Y13261D01*
X19415Y13266D01*
X19442D01*
X19470Y13293D01*
X19765Y13266D02*
X19795D01*
X19807Y13278D01*
X19470Y13293D02*
Y13344D01*
X19480Y13354D01*
X19480Y13354D01*
X19480Y13354D02*
X19518D01*
X19521Y13357D01*
X19398Y13214D02*
X19448D01*
X19317Y13216D02*
X19318Y13214D01*
X19830Y13195D02*
X19865Y13161D01*
X19830Y13195D02*
Y13214D01*
X19865Y13161D02*
X19883D01*
X19736Y13060D02*
X19877D01*
X19960Y13143D01*
Y13214D01*
Y13226D01*
X19907Y13279D02*
X19960Y13226D01*
X19728Y13298D02*
X19729Y13299D01*
X19818D02*
X19838Y13279D01*
X19907D01*
X19729Y13299D02*
X19818D01*
X19728Y13298D02*
Y13359D01*
X19392Y13261D02*
Y13331D01*
X19392Y13261D02*
X19392Y13261D01*
X19388Y13261D02*
X19392D01*
X19392Y13331D02*
X19393Y13332D01*
X19690Y13266D02*
X19736Y13221D01*
X19668Y13132D02*
X19690Y13110D01*
X19736D01*
Y13210D02*
Y13221D01*
X19471Y13111D02*
X19471Y13110D01*
X19543D01*
Y13160D02*
X19621D01*
X19634Y13174D01*
X19634D02*
X19634D01*
X20529Y13084D02*
Y13143D01*
X20552Y13060D02*
X20622D01*
X20529Y13084D02*
X20552Y13060D01*
X20486Y13267D02*
X20526D01*
X20407D02*
X20486D01*
X20529Y13143D02*
X20555Y13170D01*
X20526Y13267D02*
X20555Y13238D01*
Y13170D02*
Y13238D01*
X20486Y13357D02*
Y13357D01*
Y13357D02*
X20544Y13299D01*
X20576Y13266D01*
X20204Y13214D02*
X20248D01*
X20275Y13240D01*
X20283D01*
X20295Y13253D01*
Y13261D01*
X20300Y13266D01*
X20328D01*
X20356Y13293D01*
X20651Y13266D02*
X20681D01*
X20692Y13278D01*
X20356Y13293D02*
Y13344D01*
X20366Y13354D01*
X20366Y13354D01*
X20366Y13354D02*
X20403D01*
X20407Y13357D01*
X20284Y13214D02*
X20334D01*
X20203Y13216D02*
X20204Y13214D01*
X20716Y13195D02*
X20750Y13161D01*
X20716Y13195D02*
Y13214D01*
X20750Y13161D02*
X20769D01*
X20622Y13060D02*
X20763D01*
X20846Y13143D01*
Y13214D01*
Y13226D01*
X20793Y13279D02*
X20846Y13226D01*
X20614Y13298D02*
X20615Y13299D01*
X20704D02*
X20724Y13279D01*
X20793D01*
X20615Y13299D02*
X20704D01*
X20614Y13298D02*
Y13359D01*
X20278Y13261D02*
Y13331D01*
X20278Y13261D02*
X20278Y13261D01*
X20274Y13261D02*
X20278D01*
X20278Y13331D02*
X20279Y13332D01*
X20576Y13266D02*
X20622Y13221D01*
X20554Y13132D02*
X20576Y13110D01*
X20622D01*
Y13210D02*
Y13221D01*
X20357Y13111D02*
X20357Y13110D01*
X20429D01*
Y13160D02*
X20507D01*
X20520Y13174D01*
X20520D02*
X20520D01*
X21414Y13084D02*
Y13143D01*
X21438Y13060D02*
X21507D01*
X21414Y13084D02*
X21438Y13060D01*
X21372Y13267D02*
X21412D01*
X21293D02*
X21372D01*
X21414Y13143D02*
X21441Y13170D01*
X21412Y13267D02*
X21441Y13238D01*
Y13170D02*
Y13238D01*
X21372Y13357D02*
Y13357D01*
Y13357D02*
X21430Y13299D01*
X21462Y13266D01*
X21090Y13214D02*
X21134D01*
X21161Y13240D01*
X21169D01*
X21181Y13253D01*
Y13261D01*
X21186Y13266D01*
X21214D01*
X21241Y13293D01*
X21537Y13266D02*
X21566D01*
X21578Y13278D01*
X21241Y13293D02*
Y13344D01*
X21251Y13354D01*
X21252Y13354D01*
X21251Y13354D02*
X21289D01*
X21293Y13357D01*
X21170Y13214D02*
X21220D01*
X21088Y13216D02*
X21090Y13214D01*
X21602Y13195D02*
X21636Y13161D01*
X21602Y13195D02*
Y13214D01*
X21636Y13161D02*
X21655D01*
X21507Y13060D02*
X21649D01*
X21732Y13143D01*
Y13214D01*
Y13226D01*
X21679Y13279D02*
X21732Y13226D01*
X21499Y13298D02*
X21501Y13299D01*
X21590D02*
X21610Y13279D01*
X21679D01*
X21501Y13299D02*
X21590D01*
X21499Y13298D02*
Y13359D01*
X21164Y13261D02*
Y13331D01*
X21164Y13261D02*
X21164Y13261D01*
X21160Y13261D02*
X21164D01*
X21164Y13331D02*
X21165Y13332D01*
X21462Y13266D02*
X21507Y13221D01*
X21439Y13132D02*
X21462Y13110D01*
X21507D01*
Y13210D02*
Y13221D01*
X21243Y13111D02*
X21243Y13110D01*
X21314D01*
Y13160D02*
X21393D01*
X21406Y13174D01*
X21406D02*
X21406D01*
X22300Y13084D02*
Y13143D01*
Y13084D02*
X22324Y13060D01*
X22257Y13267D02*
X22298D01*
X22179D02*
X22257D01*
X22300Y13143D02*
X22327Y13170D01*
X22298Y13267D02*
X22327Y13238D01*
Y13170D02*
Y13238D01*
X22257Y13357D02*
Y13357D01*
Y13357D02*
X22315Y13299D01*
X22348Y13266D01*
X21976Y13214D02*
X22020D01*
X22046Y13240D01*
X22055D01*
X22067Y13253D01*
Y13261D01*
X22072Y13266D01*
X22100D01*
X22127Y13293D01*
X22423Y13266D02*
X22452D01*
X22464Y13278D01*
X22127Y13293D02*
Y13344D01*
X22137Y13354D01*
X22137Y13354D01*
X22175Y13354D02*
X22179Y13357D01*
X22056Y13214D02*
X22106D01*
X21974Y13216D02*
X21976Y13214D01*
X22488Y13195D02*
X22522Y13161D01*
X22488Y13195D02*
Y13214D01*
X22522Y13161D02*
X22541D01*
X22324Y13060D02*
X22535D01*
X22618Y13143D01*
Y13226D01*
X22564Y13279D02*
X22618Y13226D01*
X22385Y13298D02*
X22387Y13299D01*
X22476D02*
X22496Y13279D01*
X22564D01*
X22387Y13299D02*
X22476D01*
X22385Y13298D02*
Y13359D01*
X22050Y13261D02*
Y13331D01*
X22050Y13261D02*
X22050Y13261D01*
X22046Y13261D02*
X22050D01*
X22050Y13331D02*
X22051Y13332D01*
X22348Y13266D02*
X22393Y13221D01*
X22325Y13132D02*
X22347Y13110D01*
X22393D01*
Y13210D02*
Y13221D01*
X22128Y13111D02*
X22129Y13110D01*
X22200D01*
Y13160D02*
X22278D01*
X22292Y13174D01*
X22292D02*
X22292D01*
X18450Y15910D02*
Y15963D01*
X18355Y15684D02*
X18413Y15626D01*
X18453D01*
X19285Y15460D02*
Y15493D01*
X19659Y16020D02*
Y16050D01*
X19527Y15875D02*
X19562Y15840D01*
X19527Y15875D02*
Y15916D01*
X19381Y15840D02*
X19428D01*
X19381Y15606D02*
Y15670D01*
X19393Y15595D02*
X19417D01*
X19381Y15606D02*
X19393Y15595D01*
X19609Y15682D02*
Y15709D01*
X19597Y15670D02*
X19609Y15682D01*
X19562Y15670D02*
X19597D01*
X19425Y15749D02*
X19425Y15750D01*
X19285Y15749D02*
X19288Y15752D01*
X19285Y15749D02*
X19291Y15756D01*
X19285Y15740D02*
Y15749D01*
X19425D01*
X19338Y15893D02*
Y15918D01*
X19285Y15839D02*
X19338Y15893D01*
X19651Y15659D02*
X19743D01*
X19649Y15661D02*
X19651Y15659D01*
X19295Y16095D02*
X19460D01*
X19295Y16005D02*
X19327Y15973D01*
X19349D02*
X19350Y15974D01*
X19327Y15973D02*
X19349D01*
X19647Y15920D02*
X19649Y15918D01*
X19596Y15920D02*
X19647D01*
X19659Y16020D02*
X19703Y15976D01*
Y15882D02*
Y15976D01*
X19562Y15840D02*
X19637D01*
X19649Y15828D01*
X19703Y15882D01*
X19240Y15626D02*
X19286Y15672D01*
X19288Y15670D02*
X19381D01*
X19240Y15538D02*
X19285Y15493D01*
X19610Y15583D02*
X19649Y15544D01*
X19603Y15583D02*
X19610D01*
X19500Y15454D02*
X19649D01*
X19218Y15893D02*
Y15946D01*
X19210Y15713D02*
Y15747D01*
X18402Y15764D02*
X18439D01*
X18402D02*
Y15862D01*
X18450Y15910D01*
X19173Y15747D02*
X19210D01*
X19240Y15538D02*
Y15618D01*
Y15626D01*
X20072Y15460D02*
Y15493D01*
X20446Y16020D02*
Y16050D01*
X20314Y15875D02*
X20350Y15840D01*
X20314Y15875D02*
Y15916D01*
X20169Y15840D02*
X20216D01*
X20169Y15606D02*
Y15670D01*
Y15606D02*
X20180Y15595D01*
X20204D01*
X20396Y15682D02*
Y15709D01*
X20384Y15670D02*
X20396Y15682D01*
X20350Y15670D02*
X20384D01*
X20072Y15749D02*
X20075Y15752D01*
X20072Y15749D02*
X20079Y15756D01*
X20072Y15749D02*
X20212D01*
X20213Y15750D01*
X20072Y15740D02*
Y15749D01*
X20125Y15893D02*
Y15918D01*
X20072Y15839D02*
X20125Y15893D01*
X20503Y15661D02*
X20521Y15643D01*
X20436Y15661D02*
X20503D01*
X20082Y16095D02*
X20248D01*
X20136Y15973D02*
X20137Y15974D01*
X20115Y15973D02*
X20136D01*
X20082Y16005D02*
X20115Y15973D01*
X20383Y15920D02*
X20434D01*
X20436Y15918D01*
X20446Y16020D02*
X20490Y15976D01*
Y15882D02*
Y15976D01*
X20350Y15840D02*
X20425D01*
X20436Y15828D02*
X20490Y15882D01*
X20425Y15840D02*
X20436Y15828D01*
X20028Y15538D02*
X20072Y15493D01*
X20398Y15583D02*
X20436Y15544D01*
X20390Y15583D02*
X20398D01*
X20287Y15454D02*
X20436D01*
X20002Y15665D02*
Y15694D01*
X20029Y15721D01*
Y15801D01*
X19997Y15833D02*
X20029Y15801D01*
X20028Y15538D02*
Y15602D01*
Y15626D01*
X19975Y15602D02*
X20028D01*
X19912Y15665D02*
X19975Y15602D01*
X20072Y15670D02*
X20169D01*
X20028Y15626D02*
X20072Y15670D01*
X20018Y15665D02*
X20054Y15701D01*
X20002Y15665D02*
X20018D01*
X19960Y15747D02*
X19997D01*
X19960D02*
Y15848D01*
X20005Y15893D01*
Y15942D01*
X20004Y15943D02*
X20005Y15942D01*
X20748Y15747D02*
X20785D01*
X20748D02*
Y15848D01*
X20793Y15893D01*
Y15934D01*
X20793Y15934D01*
X20790Y15692D02*
X20817Y15719D01*
Y15801D01*
X20785Y15833D02*
X20817Y15801D01*
X20700Y15665D02*
X20768Y15597D01*
X20815D01*
Y15538D02*
Y15597D01*
Y15626D01*
X20673Y15714D02*
Y15738D01*
X20682Y15747D01*
X20711D01*
X20790Y15665D02*
Y15682D01*
X20762Y15710D02*
X20790Y15682D01*
X21535Y15747D02*
X21572D01*
X21535D02*
Y15848D01*
X21580Y15893D01*
X21529Y15944D02*
X21580Y15893D01*
X21529Y15944D02*
Y15985D01*
X21487Y15665D02*
X21544Y15608D01*
X21603D01*
Y15538D02*
Y15608D01*
Y15626D01*
X21577Y15665D02*
Y15695D01*
X21601Y15719D01*
Y15804D01*
X21572Y15833D02*
X21601Y15804D01*
X21465Y15715D02*
X21497Y15747D01*
X21498D01*
X21549Y15712D02*
X21560D01*
X21577Y15695D01*
X23667Y13869D02*
Y13954D01*
X23667Y13954D02*
X23667Y13954D01*
X23767Y13647D02*
Y13681D01*
Y13647D02*
X23783Y13631D01*
X23843D01*
X23868Y13656D02*
Y13853D01*
X23843Y13631D02*
X23868Y13656D01*
X23910Y13871D02*
X23914Y13875D01*
X23868Y13853D02*
Y13873D01*
X23870Y13875D01*
X23914D01*
X23717Y13681D02*
Y13713D01*
X23751Y13747D02*
X23768D01*
X23717Y13713D02*
X23751Y13747D01*
X22875Y12980D02*
X22959D01*
X22873Y12982D02*
X22875Y12980D01*
D42*
X23370Y13286D02*
Y13458D01*
Y13286D02*
X23399Y13257D01*
Y13172D02*
Y13257D01*
X23158Y15883D02*
X23177Y15864D01*
X23287Y15844D02*
X23288Y15844D01*
X23226Y15844D02*
X23287D01*
X23225Y15843D02*
X23226Y15844D01*
X23219Y15168D02*
X23279D01*
X21474Y15156D02*
X21480Y15162D01*
X22034Y15120D02*
X22038Y15123D01*
X22519Y15013D02*
X22566D01*
X22519Y15013D02*
X22519Y15013D01*
X22492Y15156D02*
X22558D01*
X22429Y15093D02*
X22492Y15156D01*
X20961Y15120D02*
X20965Y15123D01*
X21446Y15013D02*
X21493D01*
X21446Y15013D02*
X21446Y15013D01*
X21419Y15156D02*
X21474D01*
X21356Y15093D02*
X21419Y15156D01*
X20283Y15093D02*
X20346Y15156D01*
X20412D01*
X19888Y15120D02*
X19892Y15123D01*
X20374Y15013D02*
X20420D01*
X20373Y15013D02*
X20374Y15013D01*
X19000Y15073D02*
Y15256D01*
X18999Y15257D02*
X19000Y15256D01*
X20075Y15075D02*
Y15259D01*
X18819Y15123D02*
Y15281D01*
X19889Y15120D02*
Y15283D01*
X22799Y14861D02*
X22970D01*
X22618Y13714D02*
Y13785D01*
Y13543D02*
Y13714D01*
X18842Y14520D02*
X18885Y14563D01*
X21499Y14520D02*
Y14551D01*
X21485Y14565D02*
X21499Y14551D01*
X20985Y14565D02*
X21485D01*
X20659D02*
X20985D01*
X20614Y14520D02*
X20659Y14565D01*
X20572Y14562D02*
X20614Y14520D01*
X20572Y14562D02*
Y14562D01*
X18885Y14563D02*
X19690D01*
X19728Y14525D01*
X19765Y14562D01*
X22858Y14968D02*
X22860Y14966D01*
X19300Y15013D02*
X19301Y15013D01*
X19347D01*
X22831Y14989D02*
X22833Y14987D01*
X19210Y15093D02*
X19273Y15156D01*
X19351D01*
X22241Y12725D02*
X22255Y12710D01*
X22657D01*
X22882Y13102D02*
X22889D01*
X22817Y13038D02*
X22882Y13102D01*
X22817Y12871D02*
Y13038D01*
X22657Y12710D02*
X22817Y12871D01*
X22069Y12725D02*
X22241D01*
X21835Y12490D02*
X22069Y12725D01*
X21835Y12389D02*
Y12490D01*
X22512Y12830D02*
X22660D01*
X22512Y12857D02*
X22649D01*
X22512Y12848D02*
X22653D01*
X22487Y12866D02*
X22645D01*
X22472Y12830D02*
X22512D01*
X22483Y12857D02*
X22512D01*
X22479Y12848D02*
X22512D01*
X22042Y12866D02*
X22436D01*
X22038Y12875D02*
X22440D01*
X22035Y12884D02*
X22443D01*
X22031Y12893D02*
X22447D01*
X22027Y12902D02*
X22451D01*
X22487Y12866D01*
X22447Y12893D02*
X22483Y12857D01*
X22443Y12884D02*
X22479Y12848D01*
X22440Y12875D02*
X22476Y12839D01*
X22436Y12866D02*
X22472Y12830D01*
X22432Y12857D02*
X22468Y12821D01*
X22429Y12848D02*
X22464Y12812D01*
X22425Y12839D02*
X22461Y12803D01*
X22421Y12830D02*
X22457Y12794D01*
X22668Y12812D02*
X22725Y12869D01*
X22671Y12803D02*
X22733Y12865D01*
X22675Y12794D02*
X22743Y12862D01*
X21806Y12630D02*
X22042Y12866D01*
X21802Y12639D02*
X22038Y12875D01*
X21798Y12648D02*
X22035Y12884D01*
X21795Y12656D02*
X22031Y12893D01*
X21791Y12665D02*
X22027Y12902D01*
X23602Y14304D02*
X23755Y14151D01*
X23585Y14321D02*
X23602Y14304D01*
X23244Y15305D02*
X23279D01*
X23239Y15300D02*
X23244Y15305D01*
X23239Y15274D02*
Y15300D01*
Y15274D02*
X23247Y15266D01*
X23279D01*
X20203Y12348D02*
Y12388D01*
X20080Y12348D02*
Y12388D01*
X19955Y12348D02*
Y12388D01*
X19980Y12348D02*
Y12388D01*
X19905Y12348D02*
Y12388D01*
X19778Y12348D02*
Y12388D01*
X19704Y12348D02*
X19704Y12348D01*
X19704Y12348D02*
X19729D01*
X19654D02*
X19704D01*
X19704Y12348D02*
Y12388D01*
X23691Y15032D02*
X23704Y15045D01*
X23528Y15076D02*
X23533Y15071D01*
X23767D01*
X23560Y15108D02*
X23760D01*
X23767Y15102D01*
X23560Y15266D02*
X23561Y15265D01*
X23685D01*
X23508Y15357D02*
Y15409D01*
X23507Y15410D02*
X23508Y15409D01*
X23351Y15357D02*
X23351Y15358D01*
Y15418D01*
X23353Y15420D01*
X23311Y15357D02*
X23312Y15358D01*
Y15426D01*
X22584Y12402D02*
X22639D01*
X23664Y12771D02*
X23686Y12794D01*
X23236Y12771D02*
X23664D01*
X23210Y12798D02*
X23236Y12771D01*
X23066Y12798D02*
X23210D01*
X23034Y12830D02*
X23066Y12798D01*
X22959Y12830D02*
X23034D01*
X23100D02*
X23164D01*
X23094Y12824D02*
X23100Y12830D01*
X23044Y13080D02*
X23069Y13105D01*
X22959Y13080D02*
X23044D01*
X23399Y13045D02*
Y13172D01*
X23239Y13080D02*
X23240Y13081D01*
X23164Y13080D02*
X23239D01*
X23997Y13780D02*
X23998Y13781D01*
X23249Y12880D02*
X23295Y12834D01*
X23164Y12880D02*
X23249D01*
X22836Y13030D02*
X22959D01*
X22836Y13030D02*
X22836Y13030D01*
X23102D02*
X23164D01*
X23090Y13042D02*
X23102Y13030D01*
X22808Y12746D02*
Y12849D01*
X22839Y12880D02*
X22959D01*
X22808Y12849D02*
X22839Y12880D01*
X20544Y12461D02*
X20544Y12461D01*
Y12388D02*
Y12461D01*
X20519Y12436D02*
X20519Y12436D01*
Y12388D02*
Y12436D01*
X20494Y12462D02*
X20494Y12462D01*
Y12388D02*
Y12462D01*
X20469Y12438D02*
X20469Y12438D01*
Y12388D02*
Y12438D01*
X18337Y12699D02*
X18338Y12700D01*
X18337Y12635D02*
Y12699D01*
X18707Y12630D02*
Y12699D01*
X18708Y12700D01*
X23368Y14062D02*
X23371Y14064D01*
X22775Y12347D02*
X22778Y12350D01*
X22775Y12312D02*
Y12347D01*
X22582Y12315D02*
X22638D01*
X22579Y12318D02*
X22582Y12315D01*
X23292Y14657D02*
Y14686D01*
X23560Y15266D02*
X23562Y15267D01*
X23974Y13680D02*
X23975Y13681D01*
X23917Y13680D02*
X23974D01*
X23653Y15825D02*
X23653Y15825D01*
X23569Y15825D02*
X23653D01*
X23597Y15805D02*
X23605Y15797D01*
X23569Y15805D02*
X23597D01*
X23188Y15128D02*
X23279D01*
X23157Y15159D02*
X23188Y15128D01*
X23212Y15716D02*
X23248Y15752D01*
Y15790D01*
X23263Y15805D01*
X23288D01*
X23278Y15147D02*
X23279Y15148D01*
X23244Y15147D02*
X23278D01*
X23249Y15825D02*
X23249Y15825D01*
X23288D01*
X23258Y15982D02*
X23288D01*
X23249Y15973D02*
X23258Y15982D01*
X23249Y15954D02*
Y15973D01*
Y15954D02*
X23260Y15943D01*
X23288D01*
Y15730D02*
Y15785D01*
Y15730D02*
X23380Y15638D01*
X23235Y15518D02*
X23349D01*
X23157Y15446D02*
X23360D01*
X23389Y15359D02*
X23390Y15357D01*
X23389Y15359D02*
Y15417D01*
X23360Y15446D02*
X23389Y15417D01*
X23351Y15037D02*
Y15076D01*
X23319Y15005D02*
X23351Y15037D01*
X23331Y15036D02*
Y15076D01*
X23313Y15018D02*
X23331Y15036D01*
X23148Y15018D02*
X23313D01*
X23135Y15005D02*
X23319D01*
X23311Y15039D02*
Y15076D01*
X23299Y15027D02*
X23311Y15039D01*
X23155Y15027D02*
X23299D01*
X23066Y15074D02*
X23135Y15005D01*
X23084Y15082D02*
X23148Y15018D01*
X23108Y15074D02*
X23155Y15027D01*
X23066Y15074D02*
Y15113D01*
X23063Y15116D02*
X23066Y15113D01*
X23108Y15074D02*
Y15113D01*
X23105Y15115D02*
X23108Y15113D01*
X23152Y15108D02*
X23279D01*
X23126Y15082D02*
X23152Y15108D01*
X23349Y15518D02*
X23429Y15438D01*
Y15357D02*
Y15438D01*
X23421Y15478D02*
X23449Y15450D01*
Y15357D02*
Y15450D01*
X23444Y15595D02*
X23528Y15511D01*
Y15357D02*
Y15511D01*
X23238Y16002D02*
X23288D01*
X23211Y15975D02*
X23238Y16002D01*
X23167Y16125D02*
X23186Y16144D01*
X23496D01*
X23622Y16019D01*
Y15955D02*
Y16019D01*
X23610Y15943D02*
X23622Y15955D01*
X23569Y15943D02*
X23610D01*
X23255Y16032D02*
X23256D01*
X23314Y16090D01*
X23340D01*
X23360Y16070D01*
Y16034D02*
Y16070D01*
X23209Y16135D02*
X23493D01*
X23537Y16034D02*
Y16091D01*
X23230Y16126D02*
X23482D01*
X23517Y16034D02*
Y16091D01*
X23292Y16099D02*
X23371D01*
X23379Y16034D02*
Y16091D01*
X23251Y16117D02*
X23432D01*
X23458Y16034D02*
Y16091D01*
X23198Y16123D02*
X23209Y16135D01*
X23197Y16093D02*
X23230Y16126D01*
X23227Y16094D02*
X23251Y16117D01*
X23257Y16064D02*
X23292Y16099D01*
X23493Y16135D02*
X23537Y16091D01*
X23482Y16126D02*
X23517Y16091D01*
X23432Y16117D02*
X23458Y16091D01*
X23371Y16099D02*
X23379Y16091D01*
X23380Y15638D02*
X23463D01*
X23495Y15606D01*
X23532D01*
X23564Y15638D01*
X23320Y15710D02*
Y15753D01*
Y15710D02*
X23384Y15647D01*
X23467D01*
X23499Y15616D01*
X23529D02*
X23560Y15647D01*
X23499Y15616D02*
X23529D01*
X23560Y15647D02*
X23689D01*
X23340Y15703D02*
Y15753D01*
Y15703D02*
X23387Y15656D01*
X23360Y15696D02*
Y15753D01*
Y15696D02*
X23391Y15665D01*
X23537Y15719D02*
Y15753D01*
Y15719D02*
X23564Y15692D01*
X23569Y15719D02*
Y15785D01*
Y15719D02*
X23587Y15701D01*
X23693Y15638D02*
X23769Y15714D01*
Y15979D01*
X23689Y15647D02*
X23760Y15718D01*
Y15991D01*
X23686Y15656D02*
X23751Y15721D01*
Y16003D01*
X23682Y15665D02*
X23742Y15725D01*
Y16106D01*
X23671Y15692D02*
X23715Y15736D01*
Y15979D01*
X23706Y15740D02*
Y15967D01*
X23564Y15638D02*
X23693D01*
X23387Y15656D02*
X23686D01*
X23391Y15665D02*
X23682D01*
X23564Y15692D02*
X23671D01*
X23587Y15701D02*
X23667D01*
X23706Y15740D01*
X23769Y15979D02*
X23805Y16015D01*
X23760Y15991D02*
X23784Y16015D01*
X23751Y16003D02*
X23763Y16015D01*
X23658D02*
X23706Y15967D01*
X23679Y16015D02*
X23715Y15979D01*
X23805Y16015D02*
Y16072D01*
X23784Y16015D02*
Y16106D01*
X23763Y16015D02*
Y16072D01*
X23658Y16015D02*
Y16106D01*
X23679Y16015D02*
Y16072D01*
X23278Y15350D02*
X23279Y15349D01*
Y15325D02*
Y15349D01*
X23429Y15052D02*
X23441Y15040D01*
X23429Y15052D02*
Y15076D01*
X23591Y15168D02*
X23591Y15168D01*
X23560Y15168D02*
X23591D01*
X23591Y15286D02*
X23591Y15286D01*
X23560Y15286D02*
X23591D01*
X23560Y15347D02*
X23560Y15347D01*
Y15325D02*
Y15347D01*
X23488Y15357D02*
Y15378D01*
X23476Y15390D02*
X23488Y15378D01*
X23469Y15383D02*
X23476Y15390D01*
X23469Y15357D02*
Y15383D01*
X23410Y15390D02*
X23410Y15390D01*
X23410Y15357D02*
Y15390D01*
X23370Y15389D02*
X23370Y15389D01*
Y15357D02*
Y15389D01*
X23331Y15389D02*
X23331Y15389D01*
X23331Y15357D02*
Y15389D01*
X23177Y15864D02*
X23288D01*
X23449Y15718D02*
Y15720D01*
X23438Y15729D02*
X23449Y15718D01*
X23438Y15729D02*
Y15753D01*
X23418Y15752D02*
X23419Y15753D01*
X23418Y15718D02*
Y15752D01*
X23606Y15844D02*
X23607Y15845D01*
X23569Y15844D02*
X23606D01*
X23602Y15962D02*
X23603Y15963D01*
X23569Y15962D02*
X23602D01*
X23569Y16022D02*
X23569Y16022D01*
Y16002D02*
Y16022D01*
X23497Y16034D02*
Y16056D01*
X23485Y16068D02*
X23497Y16056D01*
X23478Y16061D02*
X23485Y16068D01*
X23478Y16034D02*
Y16061D01*
X23399Y16034D02*
Y16059D01*
X23409Y16069D01*
X23419Y16059D01*
Y16034D02*
Y16059D01*
X23340Y16034D02*
Y16061D01*
X23335Y16066D02*
X23340Y16061D01*
X23320Y16066D02*
X23335D01*
X23320D02*
X23320Y16066D01*
Y16034D02*
Y16066D01*
X21151Y15078D02*
Y15276D01*
X22220Y15074D02*
Y15270D01*
X20961Y15120D02*
Y15272D01*
X20947Y15286D02*
X20961Y15272D01*
X22034Y15120D02*
Y15274D01*
X18815Y15120D02*
X18819Y15123D01*
X19765Y14562D02*
X20572D01*
X22376Y14529D02*
Y14651D01*
X21885Y12389D02*
Y12432D01*
X21908Y12455D01*
X22638Y12325D02*
X22688D01*
X22701Y12312D01*
X22638Y12415D02*
X22655Y12398D01*
X22701D01*
X22758Y12480D02*
X22775Y12463D01*
Y12398D02*
Y12463D01*
X22668Y12480D02*
X22703Y12445D01*
X22728D01*
X22738Y12435D01*
Y12398D02*
Y12435D01*
X22668Y12480D02*
Y12545D01*
Y12590D01*
X21860Y12389D02*
Y12433D01*
X21912Y12485D01*
X21978D01*
X22956Y14361D02*
X23007D01*
X23007Y14361D01*
X22956Y14439D02*
X23006D01*
X23007Y14441D01*
X23115Y14064D02*
Y14118D01*
X23112Y14121D02*
X23115Y14118D01*
X23390Y14064D02*
Y14126D01*
X23390Y14127D01*
X23410Y14064D02*
Y14097D01*
X23458Y14146D01*
X23134Y14064D02*
Y14099D01*
X23158Y14123D01*
X23499Y14282D02*
X23549D01*
X23498Y14282D02*
X23499Y14282D01*
X23498Y14361D02*
X23549D01*
X23498Y14361D02*
X23498Y14361D01*
X23449Y14431D02*
X23480Y14400D01*
X23409Y14609D02*
X23410Y14609D01*
X23133Y14603D02*
Y14656D01*
X23154Y14621D02*
Y14657D01*
Y14621D02*
X23173Y14602D01*
X22956Y14420D02*
X23004D01*
X23012Y14412D01*
Y14407D02*
Y14412D01*
X23006Y14400D02*
X23012Y14407D01*
X22956Y14400D02*
X23006D01*
X23507Y14302D02*
X23549D01*
X23495Y14314D02*
X23507Y14302D01*
X23495Y14314D02*
Y14321D01*
X23450Y14594D02*
X23456D01*
X22848Y12335D02*
Y12395D01*
Y12335D02*
X22848Y12335D01*
X23244Y15207D02*
X23279D01*
X23243Y15206D02*
X23244Y15207D01*
X23410Y15041D02*
Y15076D01*
X23409Y15040D02*
X23410Y15041D01*
X23253Y15884D02*
X23288D01*
X23253Y15884D02*
X23253Y15884D01*
X23410Y14609D02*
Y14657D01*
X23430Y14614D02*
X23450Y14594D01*
X23430Y14614D02*
Y14657D01*
X23480Y14400D02*
X23549D01*
X18861Y15751D02*
X19005D01*
X19649D02*
X19792D01*
X21224D02*
X21367D01*
X22011D02*
X22154D01*
X22798D02*
X22957D01*
X19005D02*
X19005Y15751D01*
X23508Y15040D02*
Y15076D01*
Y15040D02*
X23516Y15032D01*
X23691D01*
X23488Y15026D02*
Y15076D01*
Y15026D02*
X23502Y15012D01*
X23708D01*
X23527Y14936D02*
X23586D01*
X23512Y14922D02*
X23527Y14936D01*
X23523Y14945D02*
X23590D01*
X23509Y14931D02*
X23523Y14945D01*
X23493Y14968D02*
X23580D01*
X23490Y14922D02*
X23512D01*
X23493Y14931D02*
X23509D01*
X23480Y14954D02*
X23493Y14968D01*
X23475Y14936D02*
X23490Y14922D01*
X23479Y14945D02*
X23493Y14931D01*
X23169Y14819D02*
X23292Y14696D01*
X23158Y14810D02*
X23272Y14696D01*
X23147Y14801D02*
X23252Y14696D01*
X23137Y14792D02*
X23233Y14696D01*
X23126Y14783D02*
X23213Y14696D01*
X23292Y14657D02*
Y14696D01*
X23272Y14657D02*
Y14696D01*
X23252Y14657D02*
Y14696D01*
X23233Y14657D02*
Y14696D01*
X23213Y14657D02*
Y14696D01*
X23010Y14787D02*
X23015Y14792D01*
X23001Y14790D02*
X23012Y14801D01*
X22992Y14794D02*
X23008Y14810D01*
X22983Y14798D02*
X23004Y14819D01*
X22983Y14768D02*
Y14798D01*
X22950Y14735D02*
X22983Y14768D01*
X22945Y14798D02*
X22993Y14846D01*
X22942Y14714D02*
X22992Y14764D01*
Y14794D01*
X22933Y14693D02*
X23001Y14761D01*
Y14790D01*
X22925Y14672D02*
X23010Y14757D01*
Y14787D01*
X23019Y14753D02*
Y14783D01*
X22917Y14651D02*
X23019Y14753D01*
X22588Y14651D02*
X22917D01*
X22992Y14970D02*
X23008Y14954D01*
X22992Y14970D02*
Y15000D01*
X23004Y14819D02*
X23169D01*
X23008Y14810D02*
X23158D01*
X23012Y14801D02*
X23147D01*
X23015Y14792D02*
X23137D01*
X23019Y14783D02*
X23126D01*
X23000Y14936D02*
X23475D01*
X23004Y14945D02*
X23479D01*
X23008Y14954D02*
X23480D01*
X22610Y14672D02*
X22925D01*
X22632Y14693D02*
X22933D01*
X22654Y14714D02*
X22942D01*
X22673Y14735D02*
X22950D01*
X22985Y14900D02*
X23460D01*
X22961Y14924D02*
X22985Y14900D01*
X23575Y14909D02*
X23608Y14876D01*
X23538Y14909D02*
X23575D01*
X23524Y14895D02*
X23538Y14909D01*
X23478Y14895D02*
X23524D01*
X23464Y14909D02*
X23478Y14895D01*
X22989Y14909D02*
X23464D01*
X23534Y14918D02*
X23578D01*
X23520Y14904D02*
X23534Y14918D01*
X23482Y14904D02*
X23520D01*
X23468Y14918D02*
X23482Y14904D01*
X22993Y14918D02*
X23468D01*
X23582Y14927D02*
X23628Y14881D01*
X23530Y14927D02*
X23582D01*
X23516Y14913D02*
X23530Y14927D01*
X23486Y14913D02*
X23516D01*
X23472Y14927D02*
X23486Y14913D01*
X22997Y14927D02*
X23472D01*
X23586Y14936D02*
X23638Y14884D01*
X23590Y14945D02*
X23647Y14888D01*
X23580Y14968D02*
X23656Y14891D01*
X23583Y14977D02*
X23665Y14895D01*
X22916Y15113D02*
X23035Y14995D01*
X23591D01*
X23683Y14903D01*
Y14515D02*
Y14903D01*
X23549Y14420D02*
X23588D01*
X23683Y14515D01*
X23587Y14986D02*
X23674Y14899D01*
X21780Y12630D02*
X21806D01*
X21685Y12534D02*
X21780Y12630D01*
X21777Y12639D02*
X21802D01*
X21635Y12496D02*
X21777Y12639D01*
X21773Y12648D02*
X21798D01*
X21610Y12484D02*
X21773Y12648D01*
X21769Y12656D02*
X21795D01*
X21585Y12472D02*
X21769Y12656D01*
X21765Y12665D02*
X21791D01*
X22670Y12891D02*
Y12932D01*
X22645Y12866D02*
X22670Y12891D01*
X22649Y12857D02*
X22680Y12888D01*
Y12929D01*
X22653Y12848D02*
X22688Y12884D01*
Y12925D01*
X22656Y12839D02*
X22698Y12880D01*
X22660Y12830D02*
X22706Y12876D01*
X22664Y12821D02*
X22715Y12873D01*
X21560Y12389D02*
Y12460D01*
X21585Y12389D02*
Y12472D01*
X21610Y12389D02*
Y12484D01*
X21635Y12389D02*
Y12496D01*
X21685Y12389D02*
Y12534D01*
X22670Y12891D02*
Y13034D01*
X22680Y12888D02*
Y13031D01*
X22688Y12884D02*
Y13027D01*
X22698Y12880D02*
Y13023D01*
X22706Y12876D02*
Y13019D01*
X22715Y12873D02*
Y13016D01*
X23501Y13801D01*
X22725Y12869D02*
Y13012D01*
X23510Y13797D01*
X22733Y12865D02*
Y13008D01*
X23519Y13794D01*
X23549Y14321D02*
X23585D01*
X23755Y14085D02*
Y14151D01*
X23528Y13790D02*
Y13858D01*
X22743Y13005D02*
X23528Y13790D01*
X22743Y12862D02*
Y13005D01*
X21810Y12568D02*
X21833Y12592D01*
X21810Y12389D02*
Y12568D01*
X23549Y14262D02*
X23631D01*
X23384Y13895D02*
Y13962D01*
X23371Y13975D02*
X23384Y13962D01*
X23371Y13975D02*
Y14064D01*
X23363Y13927D02*
Y13962D01*
X23331Y13994D02*
X23363Y13962D01*
X23331Y13994D02*
Y14064D01*
X23342Y13895D02*
Y13970D01*
X23311Y14001D02*
X23342Y13970D01*
X23311Y14001D02*
Y14064D01*
X23321Y13927D02*
Y13979D01*
X23292Y14008D02*
X23321Y13979D01*
X23292Y14008D02*
Y14064D01*
X23300Y13895D02*
Y13983D01*
X23272Y14011D02*
X23300Y13983D01*
X23272Y14011D02*
Y14064D01*
X23279Y13927D02*
Y13991D01*
X23252Y14018D02*
X23279Y13991D01*
X23252Y14018D02*
Y14064D01*
X23258Y13895D02*
Y13998D01*
X23233Y14023D02*
X23258Y13998D01*
X23233Y14023D02*
Y14064D01*
X22985Y14864D02*
X23222D01*
X23390Y14696D01*
Y14657D02*
Y14696D01*
X22982Y14873D02*
X23272D01*
X23449Y14696D01*
Y14657D02*
Y14696D01*
X23283Y14882D02*
X23469Y14696D01*
Y14657D02*
Y14696D01*
X23549Y14557D02*
X23588D01*
X23578Y14918D02*
X23618Y14878D01*
Y14587D02*
Y14878D01*
X23588Y14557D02*
X23618Y14587D01*
X22982Y14891D02*
X23294D01*
X23489Y14696D01*
Y14657D02*
Y14696D01*
X23460Y14900D02*
X23475Y14886D01*
X23527D01*
X23549Y14597D02*
X23588D01*
X23599Y14608D01*
Y14872D01*
X23527Y14886D02*
X23542Y14900D01*
X23571D01*
X23599Y14872D01*
X22799Y14861D02*
X22800Y14862D01*
X23608Y14597D02*
Y14876D01*
X23588Y14577D02*
X23608Y14597D01*
X23549Y14577D02*
X23588D01*
X22970Y14861D02*
X22982Y14873D01*
X22700Y15113D02*
X22916D01*
X23490Y14977D02*
X23583D01*
X23665Y14536D02*
Y14895D01*
X23588Y14459D02*
X23665Y14536D01*
X23549Y14459D02*
X23588D01*
X23476Y14963D02*
X23490Y14977D01*
X23001Y14974D02*
Y15003D01*
Y14974D02*
X23012Y14963D01*
X23476D01*
X23486Y14986D02*
X23587D01*
X22925Y15092D02*
X23010Y15007D01*
X23674Y14525D02*
Y14899D01*
X23588Y14439D02*
X23674Y14525D01*
X23549Y14439D02*
X23588D01*
X23472Y14972D02*
X23486Y14986D01*
X23010Y14977D02*
Y15007D01*
Y14977D02*
X23015Y14972D01*
X23472D01*
X22726Y15092D02*
X22925D01*
X22942Y15050D02*
X22992Y15000D01*
X23656Y14547D02*
Y14891D01*
X23588Y14479D02*
X23656Y14547D01*
X23549Y14479D02*
X23588D01*
X22961Y14840D02*
X22985Y14864D01*
X22778Y14840D02*
X22780Y14842D01*
X22760Y14819D02*
X22761Y14820D01*
X22997Y14837D02*
X23190D01*
X23331Y14696D01*
Y14657D02*
Y14696D01*
X22993Y14846D02*
X23201D01*
X23351Y14696D01*
Y14657D02*
Y14696D01*
X22743Y14798D02*
X22945D01*
X22970Y14903D02*
X22982Y14891D01*
X22821Y14882D02*
X23283D01*
X22983Y14966D02*
X23004Y14945D01*
X22983Y14966D02*
Y14996D01*
X22974Y14962D02*
X23000Y14936D01*
X23638Y14568D02*
Y14884D01*
X23588Y14518D02*
X23638Y14568D01*
X23549Y14518D02*
X23588D01*
X22958Y15008D02*
X22974Y14992D01*
Y14962D02*
Y14992D01*
X23647Y14557D02*
Y14888D01*
X23588Y14498D02*
X23647Y14557D01*
X23549Y14498D02*
X23588D01*
X22811Y15008D02*
X22958D01*
X22953Y14945D02*
X22989Y14909D01*
X23628Y14578D02*
Y14881D01*
X23588Y14538D02*
X23628Y14578D01*
X23549Y14538D02*
X23588D01*
X22937Y14987D02*
X22997Y14927D01*
X22833Y14987D02*
X22937D01*
X22768Y15050D02*
X22942D01*
X22989Y14855D02*
X23212D01*
X23371Y14696D01*
Y14657D02*
Y14696D01*
X22974Y14802D02*
X23000Y14828D01*
X23179D01*
X23311Y14696D01*
Y14657D02*
Y14696D01*
X22974Y14772D02*
Y14802D01*
X22958Y14756D02*
X22974Y14772D01*
X22694Y14756D02*
X22958D01*
X22937Y14777D02*
X22997Y14837D01*
X22721Y14777D02*
X22937D01*
X22953Y14819D02*
X22989Y14855D01*
X22950Y15029D02*
X22983Y14996D01*
X22933Y15071D02*
X23001Y15003D01*
X22789Y15029D02*
X22950D01*
X22747Y15071D02*
X22933D01*
X22945Y14966D02*
X22993Y14918D01*
X22860Y14966D02*
X22945D01*
X22788Y15030D02*
X22789Y15029D01*
X22809Y15010D02*
X22811Y15008D01*
X22778Y14840D02*
X22961D01*
X22760Y14819D02*
X22953D01*
X22901Y14377D02*
X22904Y14380D01*
X22956D01*
X22993Y14341D02*
X23014Y14320D01*
X22956Y14341D02*
X22993D01*
X22862Y14924D02*
X22961D01*
X22882Y14945D02*
X22953D01*
X22841Y14903D02*
X22970D01*
X22912Y14183D02*
X22956D01*
X22912Y14183D02*
X22912Y14183D01*
X22956Y14164D02*
X23003D01*
X22912Y14144D02*
X22956D01*
X22911Y14143D02*
X22912Y14144D01*
X22956Y14124D02*
X23004D01*
X23004Y14124D01*
X23003Y14164D02*
X23003Y14164D01*
X23812Y14109D02*
X23870D01*
X23796Y14140D02*
X23871D01*
X23769Y14200D02*
X23868D01*
X23797Y14168D02*
X23800Y14171D01*
X23871D01*
X23783Y14127D02*
X23796Y14140D01*
X23560Y15148D02*
X23597D01*
X23614Y15165D01*
Y15200D01*
X23560Y15128D02*
X23619D01*
X23643Y15152D01*
Y15229D01*
X23549Y14380D02*
X23614D01*
X23549Y14380D02*
X23549Y14380D01*
X23549Y14341D02*
X23643D01*
X23549Y14341D02*
X23549Y14341D01*
X23097Y14659D02*
Y14756D01*
X23095Y14657D02*
X23097Y14659D01*
X23117Y14659D02*
Y14728D01*
X23115Y14657D02*
X23117Y14659D01*
X22805Y12505D02*
X22848D01*
X22805Y12505D02*
X22805Y12505D01*
X22792Y12492D02*
X22805Y12505D01*
X22761Y12492D02*
X22792D01*
X22758Y12480D02*
Y12489D01*
Y12545D01*
Y12489D02*
X22761Y12492D01*
X23016Y13981D02*
X23028Y13969D01*
X23016Y13981D02*
Y14064D01*
X23809Y14043D02*
X23862D01*
X23809Y14043D02*
X23809Y14043D01*
X23103Y13887D02*
X23111Y13895D01*
X20307Y12361D02*
Y12395D01*
X20266Y12436D02*
X20307Y12395D01*
X20407Y12361D02*
Y12434D01*
X20406Y12435D02*
X20407Y12434D01*
X21106Y12431D02*
X21126D01*
X21147Y12410D01*
Y12361D02*
Y12410D01*
X21247Y12361D02*
Y12426D01*
X21246Y12427D02*
X21247Y12426D01*
X21931Y12443D02*
X21947D01*
X21910Y12422D02*
X21931Y12443D01*
X21910Y12389D02*
Y12422D01*
X21947Y12443D02*
X21966D01*
X21987Y12422D01*
Y12361D02*
Y12422D01*
X21285Y12389D02*
Y12424D01*
X21283Y12426D02*
X21285Y12424D01*
X21247Y12426D02*
X21283D01*
X21084Y12431D02*
X21106D01*
X21069Y12416D02*
X21084Y12431D01*
X21069Y12388D02*
Y12416D01*
X20444Y12388D02*
Y12424D01*
X20433Y12435D02*
X20444Y12424D01*
X20406Y12435D02*
X20433D01*
X20246Y12436D02*
X20266D01*
X20229Y12419D02*
X20246Y12436D01*
X19604Y12388D02*
Y12437D01*
X19601Y12440D02*
X19604Y12437D01*
X19567Y12440D02*
X19601D01*
X20229Y12388D02*
Y12419D01*
X20569Y12345D02*
Y12393D01*
X20694Y12345D02*
Y12393D01*
X20820Y12345D02*
Y12393D01*
X20944Y12345D02*
Y12393D01*
X19704Y12367D02*
Y12388D01*
X19601Y12385D02*
X19604Y12388D01*
X19601Y12370D02*
Y12385D01*
Y12370D02*
X19623Y12348D01*
X20215D02*
X20229Y12362D01*
X19654Y12348D02*
Y12388D01*
X19729Y12348D02*
Y12388D01*
X19623Y12348D02*
X19654D01*
X19729D02*
X19778D01*
X19829D01*
X19854D01*
X19905D01*
X19955D01*
X19980D01*
X20029D01*
X20080D01*
X20104D01*
X20154D01*
X19829D02*
Y12388D01*
X19854Y12348D02*
Y12388D01*
X20104Y12348D02*
Y12388D01*
X20029Y12348D02*
Y12388D01*
X20154Y12348D02*
Y12388D01*
Y12348D02*
X20203D01*
X20215D01*
X21285Y12368D02*
Y12389D01*
Y12368D02*
X21307Y12346D01*
X21887D02*
X21910Y12368D01*
Y12389D01*
X20444Y12367D02*
Y12388D01*
Y12367D02*
X20466Y12345D01*
X21047D01*
X21069Y12367D01*
Y12388D01*
X23024Y13556D02*
Y13606D01*
X22993Y13525D02*
X23024Y13556D01*
X23206Y13723D02*
X23291Y13808D01*
X23300D01*
X22987Y15340D02*
X23076D01*
X22971Y16007D02*
X23019D01*
X22931Y15967D02*
X22971Y16007D01*
X22931Y15950D02*
Y15967D01*
X21455Y15985D02*
X21529D01*
X19094Y15996D02*
X19158D01*
X19159Y15997D01*
X18265Y16018D02*
X18362D01*
X18363Y15728D02*
Y15762D01*
X18365Y15764D01*
X19096Y15747D02*
X19136D01*
X19125Y15665D02*
X19172Y15618D01*
X19240D01*
X23721Y16015D02*
X23733Y16003D01*
X23721Y16015D02*
Y16072D01*
X23733Y15729D02*
Y16003D01*
X23678Y15674D02*
X23733Y15729D01*
X23557Y15674D02*
X23678D01*
X23497Y15733D02*
Y15753D01*
Y15733D02*
X23557Y15674D01*
X22382Y13362D02*
Y13457D01*
X23700Y16015D02*
X23724Y15991D01*
X23700Y16015D02*
Y16106D01*
X23724Y15733D02*
Y15991D01*
X23674Y15683D02*
X23724Y15733D01*
X23560Y15683D02*
X23674D01*
X23517Y15726D02*
Y15753D01*
Y15726D02*
X23560Y15683D01*
X20436Y15751D02*
X20580D01*
X23271Y16108D02*
X23421D01*
X23227Y16063D02*
X23271Y16108D01*
X23421D02*
X23438Y16091D01*
Y16034D02*
Y16091D01*
X19894Y15747D02*
X19923D01*
X19865Y15718D02*
X19894Y15747D01*
X19865Y15645D02*
Y15718D01*
X23617Y13681D02*
Y13745D01*
X23615Y13747D02*
X23617Y13745D01*
X21796Y12592D02*
X21806Y12603D01*
Y12617D01*
X22046Y12857D01*
X22432D01*
X21710Y12389D02*
Y12520D01*
X21782Y12592D01*
X21796D01*
X21799Y12583D02*
X21816Y12600D01*
Y12614D01*
X22050Y12848D01*
X22429D01*
X21735Y12389D02*
Y12533D01*
X21785Y12583D01*
X21799D01*
X21824Y12596D02*
Y12610D01*
X22053Y12839D01*
X22425D01*
X21833Y12592D02*
Y12606D01*
X22057Y12830D01*
X22421D01*
X23519Y13794D02*
Y13862D01*
X21803Y12575D02*
X21824Y12596D01*
X23631Y14262D02*
X23746Y14147D01*
Y14089D02*
Y14147D01*
X21760Y12389D02*
Y12545D01*
X21789Y12575D01*
X21803D01*
X23549Y14243D02*
X23638D01*
X23737Y14144D01*
X23501Y13801D02*
Y13869D01*
X23549Y14223D02*
X23645D01*
X23728Y14140D01*
Y14096D02*
Y14140D01*
X23549Y14203D02*
X23652D01*
X23492Y13865D02*
Y13873D01*
X23652Y14203D02*
X23719Y14136D01*
Y14100D02*
Y14136D01*
X22706Y13019D02*
X23492Y13805D01*
Y13865D01*
X23492Y13865D02*
X23492Y13865D01*
X23549Y14183D02*
X23659D01*
X23710Y14132D01*
X22698Y13023D02*
X23483Y13809D01*
X23549Y14164D02*
X23666D01*
X23701Y14129D01*
X22688Y13027D02*
X23474Y13812D01*
X23549Y14144D02*
X23551Y14146D01*
X23671D01*
X23692Y14125D01*
Y14111D02*
Y14125D01*
X22680Y13031D02*
X23465Y13816D01*
X23549Y14124D02*
X23633D01*
X23653Y14104D01*
X22670Y13034D02*
X23456Y13820D01*
X22476Y12839D02*
X22512D01*
X22656D01*
X22468Y12821D02*
X22512D01*
X22664D01*
X23510Y13797D02*
Y13865D01*
X22464Y12812D02*
X22512D01*
X22668D01*
X22461Y12803D02*
X22512D01*
X22671D01*
X22457Y12794D02*
X22512D01*
X22675D01*
X23456Y13820D02*
Y13888D01*
X23653Y14085D01*
Y14104D01*
X23465Y13816D02*
Y13884D01*
X23692Y14111D01*
X23474Y13812D02*
Y13880D01*
X23701Y14107D01*
Y14129D01*
X23483Y13809D02*
Y13877D01*
X23710Y14104D01*
Y14132D01*
X23492Y13873D02*
X23719Y14100D01*
X23501Y13869D02*
X23728Y14096D01*
X23510Y13865D02*
X23737Y14092D01*
Y14144D01*
X23519Y13862D02*
X23746Y14089D01*
X23528Y13858D02*
X23755Y14085D01*
X23767Y13869D02*
X23818D01*
X23824Y13875D01*
X23767Y13869D02*
Y13922D01*
X23812Y13967D02*
X23903D01*
X23809Y13986D02*
X23895D01*
X23952Y14043D02*
X23952D01*
X23895Y13986D02*
X23952Y14043D01*
X23767Y13922D02*
X23812Y13967D01*
X23903D02*
X23912Y13977D01*
X21560Y12460D02*
X21663Y12563D01*
X21765Y12665D01*
X21622Y12604D02*
X21663Y12563D01*
X21622Y12604D02*
Y12652D01*
X21499Y12726D02*
X21536Y12689D01*
X21466Y12726D02*
X21499D01*
X21622D02*
X21667D01*
X21669Y12728D01*
X21410Y12389D02*
Y12481D01*
X21388Y12503D02*
X21410Y12481D01*
X21388Y12503D02*
Y12681D01*
X21380Y12689D02*
X21388Y12681D01*
X21307Y12346D02*
X21410D01*
X21535D01*
X21661D01*
X21785D01*
X21887D01*
X21535D02*
Y12394D01*
X21410Y12346D02*
Y12394D01*
X21661Y12346D02*
Y12394D01*
X21785Y12346D02*
Y12394D01*
D43*
X22286Y15833D02*
Y15885D01*
X22278Y15893D02*
X22286Y15885D01*
X22214Y15829D02*
X22278Y15893D01*
X22214Y15810D02*
Y15829D01*
X18361Y15814D02*
Y15909D01*
X22088Y12555D02*
Y12674D01*
X19401Y12612D02*
X19403Y12614D01*
X19401Y12612D02*
X19427D01*
X19307D02*
X19401D01*
X19403Y12614D02*
Y12691D01*
X19427Y12612D02*
X19479Y12560D01*
X19324Y12842D02*
X19403Y12921D01*
X19324Y12842D02*
Y12842D01*
X22202Y12380D02*
Y12464D01*
X22218Y12480D01*
X22123Y12380D02*
Y12470D01*
X22088Y12505D02*
X22123Y12470D01*
X22218Y12480D02*
Y12545D01*
Y12674D01*
Y12545D02*
X22273D01*
X22088Y12505D02*
Y12555D01*
X19313Y12379D02*
Y12491D01*
X19313Y12491D01*
X19392Y12379D02*
X19479Y12467D01*
Y12560D01*
X22088Y12555D02*
X22128D01*
X23009Y13887D02*
X23103D01*
X23009Y13797D02*
X23109D01*
X23111Y13795D01*
X19526Y12515D02*
X19567Y12474D01*
Y12361D02*
Y12440D01*
Y12474D01*
X18360Y15910D02*
X18361Y15909D01*
X19085Y15814D02*
Y15850D01*
X19128Y15893D01*
X19136Y15885D01*
Y15833D02*
Y15885D01*
X19856Y15816D02*
Y15834D01*
X19915Y15893D01*
X19923Y15885D01*
Y15833D02*
Y15885D01*
X20663Y15814D02*
Y15853D01*
X20703Y15893D01*
X20711Y15885D01*
Y15833D02*
Y15885D01*
X21448Y15814D02*
Y15851D01*
X21490Y15893D01*
X21498Y15885D01*
Y15833D02*
Y15885D01*
D44*
X23216Y15203D02*
X23233Y15187D01*
X22987Y15340D02*
X23124D01*
X23186Y15278D01*
X23216Y15248D01*
Y15203D02*
Y15248D01*
X23233Y15187D02*
X23278D01*
X23279Y15187D01*
X18445Y15684D02*
Y15721D01*
X18461Y15737D01*
Y15828D01*
X18439Y15850D02*
X18461Y15828D01*
X18403Y15726D02*
X18445Y15684D01*
X18403Y15726D02*
Y15726D01*
X19210Y15812D02*
Y15833D01*
Y15812D02*
X19241Y15781D01*
Y15691D02*
Y15781D01*
X19215Y15665D02*
X19241Y15691D01*
X19174Y15706D02*
X19215Y15665D01*
X19174Y15706D02*
Y15707D01*
X24042Y13913D02*
Y13935D01*
X23997Y13780D02*
Y13868D01*
X24042Y13913D01*
X23617Y13822D02*
Y13869D01*
Y13822D02*
X23629Y13810D01*
X23827D01*
X21510Y12389D02*
Y12502D01*
X21466Y12546D02*
X21510Y12502D01*
X21466Y12546D02*
Y12652D01*
D45*
X19574Y10041D02*
Y9995D01*
X19555Y10030D02*
X19593Y10007D01*
Y10030D02*
X19555Y10007D01*
X19613Y9969D02*
X19609Y9965D01*
X19613Y9961D01*
X19617Y9965D01*
X19613Y9969D01*
X19692Y10022D02*
X19688Y10030D01*
X19680Y10037D01*
X19673Y10041D01*
X19657D01*
X19650Y10037D01*
X19642Y10030D01*
X19638Y10022D01*
X19635Y10011D01*
Y9991D01*
X19638Y9980D01*
X19642Y9972D01*
X19650Y9965D01*
X19657Y9961D01*
X19673D01*
X19680Y9965D01*
X19688Y9972D01*
X19692Y9980D01*
Y9991D01*
X19673D02*
X19692D01*
X19737Y10041D02*
Y9961D01*
X19710Y10041D02*
X19763D01*
X19773D02*
Y9961D01*
X19819D01*
X19890Y9995D02*
X19959D01*
X20072Y10041D02*
Y9961D01*
X20045Y10041D02*
X20099D01*
X20131D02*
X20123Y10037D01*
X20116Y10030D01*
X20112Y10022D01*
X20108Y10011D01*
Y9991D01*
X20112Y9980D01*
X20116Y9972D01*
X20123Y9965D01*
X20131Y9961D01*
X20146D01*
X20154Y9965D01*
X20161Y9972D01*
X20165Y9980D01*
X20169Y9991D01*
Y10011D01*
X20165Y10022D01*
X20161Y10030D01*
X20154Y10037D01*
X20146Y10041D01*
X20131D01*
X20188Y9999D02*
X20222D01*
X20233Y10003D01*
X20237Y10007D01*
X20241Y10014D01*
Y10026D01*
X20237Y10033D01*
X20233Y10037D01*
X20222Y10041D01*
X20188D01*
Y9961D01*
X20322Y10041D02*
Y9961D01*
X20367D01*
X20437D02*
X20407Y10041D01*
X20376Y9961D01*
X20388Y9988D02*
X20426D01*
X20456Y10041D02*
X20486Y10003D01*
Y9961D01*
X20517Y10041D02*
X20486Y10003D01*
X20576Y10041D02*
X20527D01*
Y9961D01*
X20576D01*
X20527Y10003D02*
X20557D01*
X20590Y10041D02*
Y9961D01*
Y10041D02*
X20624D01*
X20636Y10037D01*
X20639Y10033D01*
X20643Y10026D01*
Y10018D01*
X20639Y10011D01*
X20636Y10007D01*
X20624Y10003D01*
X20590D01*
X20616D02*
X20643Y9961D01*
X20781Y10022D02*
X20777Y10030D01*
X20770Y10037D01*
X20762Y10041D01*
X20747D01*
X20739Y10037D01*
X20732Y10030D01*
X20728Y10022D01*
X20724Y10011D01*
Y9991D01*
X20728Y9980D01*
X20732Y9972D01*
X20739Y9965D01*
X20747Y9961D01*
X20762D01*
X20770Y9965D01*
X20777Y9972D01*
X20781Y9980D01*
Y9991D01*
X20762D02*
X20781D01*
X20849Y10041D02*
X20799D01*
Y9961D01*
X20849D01*
X20799Y10003D02*
X20830D01*
X20862Y10041D02*
Y9961D01*
Y10041D02*
X20896D01*
X20908Y10037D01*
X20912Y10033D01*
X20915Y10026D01*
Y10018D01*
X20912Y10011D01*
X20908Y10007D01*
X20896Y10003D01*
X20862D01*
X20889D02*
X20915Y9961D01*
X20933Y10041D02*
Y9961D01*
Y10041D02*
X20968D01*
X20979Y10037D01*
X20983Y10033D01*
X20987Y10026D01*
Y10018D01*
X20983Y10011D01*
X20979Y10007D01*
X20968Y10003D01*
X20933D02*
X20968D01*
X20979Y9999D01*
X20983Y9995D01*
X20987Y9988D01*
Y9976D01*
X20983Y9969D01*
X20979Y9965D01*
X20968Y9961D01*
X20933D01*
X21054Y10041D02*
X21005D01*
Y9961D01*
X21054D01*
X21005Y10003D02*
X21035D01*
X21067Y10041D02*
Y9961D01*
Y10041D02*
X21102D01*
X21113Y10037D01*
X21117Y10033D01*
X21121Y10026D01*
Y10018D01*
X21117Y10011D01*
X21113Y10007D01*
X21102Y10003D01*
X21067D01*
X21094D02*
X21121Y9961D01*
X21202Y10041D02*
Y9961D01*
Y10041D02*
X21228D01*
X21240Y10037D01*
X21247Y10030D01*
X21251Y10022D01*
X21255Y10011D01*
Y9991D01*
X21251Y9980D01*
X21247Y9972D01*
X21240Y9965D01*
X21228Y9961D01*
X21202D01*
X21334D02*
X21303Y10041D01*
X21273Y9961D01*
X21284Y9988D02*
X21322D01*
X21379Y10041D02*
Y9961D01*
X21352Y10041D02*
X21406D01*
X21476Y9961D02*
X21446Y10041D01*
X21415Y9961D01*
X21427Y9988D02*
X21465D01*
D46*
X23513Y12320D02*
D03*
D47*
X19880Y10539D02*
X19842Y10459D01*
X19827Y10539D02*
X19880D01*
X19917D02*
X19906Y10535D01*
X19902Y10527D01*
Y10520D01*
X19906Y10512D01*
X19913Y10508D01*
X19929Y10504D01*
X19940Y10500D01*
X19948Y10493D01*
X19952Y10485D01*
Y10474D01*
X19948Y10466D01*
X19944Y10462D01*
X19933Y10459D01*
X19917D01*
X19906Y10462D01*
X19902Y10466D01*
X19898Y10474D01*
Y10485D01*
X19902Y10493D01*
X19910Y10500D01*
X19921Y10504D01*
X19936Y10508D01*
X19944Y10512D01*
X19948Y10520D01*
Y10527D01*
X19944Y10535D01*
X19933Y10539D01*
X19917D01*
X19992D02*
X19981Y10535D01*
X19973Y10523D01*
X19969Y10504D01*
Y10493D01*
X19973Y10474D01*
X19981Y10462D01*
X19992Y10459D01*
X20000D01*
X20011Y10462D01*
X20019Y10474D01*
X20023Y10493D01*
Y10504D01*
X20019Y10523D01*
X20011Y10535D01*
X20000Y10539D01*
X19992D01*
X20041Y10493D02*
X20109D01*
X20156Y10539D02*
X20144Y10535D01*
X20137Y10523D01*
X20133Y10504D01*
Y10493D01*
X20137Y10474D01*
X20144Y10462D01*
X20156Y10459D01*
X20163D01*
X20175Y10462D01*
X20182Y10474D01*
X20186Y10493D01*
Y10504D01*
X20182Y10523D01*
X20175Y10535D01*
X20163Y10539D01*
X20156D01*
X20227D02*
X20216Y10535D01*
X20208Y10523D01*
X20204Y10504D01*
Y10493D01*
X20208Y10474D01*
X20216Y10462D01*
X20227Y10459D01*
X20235D01*
X20246Y10462D01*
X20254Y10474D01*
X20257Y10493D01*
Y10504D01*
X20254Y10523D01*
X20246Y10535D01*
X20235Y10539D01*
X20227D01*
X20298D02*
X20287Y10535D01*
X20279Y10523D01*
X20275Y10504D01*
Y10493D01*
X20279Y10474D01*
X20287Y10462D01*
X20298Y10459D01*
X20306D01*
X20317Y10462D01*
X20325Y10474D01*
X20329Y10493D01*
Y10504D01*
X20325Y10523D01*
X20317Y10535D01*
X20306Y10539D01*
X20298D01*
X20369D02*
X20358Y10535D01*
X20350Y10523D01*
X20347Y10504D01*
Y10493D01*
X20350Y10474D01*
X20358Y10462D01*
X20369Y10459D01*
X20377D01*
X20388Y10462D01*
X20396Y10474D01*
X20400Y10493D01*
Y10504D01*
X20396Y10523D01*
X20388Y10535D01*
X20377Y10539D01*
X20369D01*
X20422Y10520D02*
Y10523D01*
X20425Y10531D01*
X20429Y10535D01*
X20437Y10539D01*
X20452D01*
X20460Y10535D01*
X20463Y10531D01*
X20467Y10523D01*
Y10516D01*
X20463Y10508D01*
X20456Y10497D01*
X20418Y10459D01*
X20471D01*
X20552Y10512D02*
Y10459D01*
Y10489D02*
X20556Y10500D01*
X20563Y10508D01*
X20571Y10512D01*
X20582D01*
X20590Y10489D02*
X20635D01*
Y10497D01*
X20631Y10504D01*
X20628Y10508D01*
X20620Y10512D01*
X20609D01*
X20601Y10508D01*
X20593Y10500D01*
X20590Y10489D01*
Y10481D01*
X20593Y10470D01*
X20601Y10462D01*
X20609Y10459D01*
X20620D01*
X20628Y10462D01*
X20635Y10470D01*
X20652Y10512D02*
X20675Y10459D01*
X20698Y10512D02*
X20675Y10459D01*
X20715Y10520D02*
Y10523D01*
X20719Y10531D01*
X20722Y10535D01*
X20730Y10539D01*
X20745D01*
X20753Y10535D01*
X20757Y10531D01*
X20761Y10523D01*
Y10516D01*
X20757Y10508D01*
X20749Y10497D01*
X20711Y10459D01*
X20764D01*
X20790Y10462D02*
X20786Y10459D01*
X20782Y10462D01*
X20786Y10466D01*
X20790Y10462D01*
Y10455D01*
X20786Y10447D01*
X20782Y10443D01*
X20927Y10520D02*
X20924Y10527D01*
X20916Y10535D01*
X20908Y10539D01*
X20893D01*
X20885Y10535D01*
X20878Y10527D01*
X20874Y10520D01*
X20870Y10508D01*
Y10489D01*
X20874Y10478D01*
X20878Y10470D01*
X20885Y10462D01*
X20893Y10459D01*
X20908D01*
X20916Y10462D01*
X20924Y10470D01*
X20927Y10478D01*
X20950Y10539D02*
Y10459D01*
X20996D01*
X21027Y10539D02*
X21020Y10535D01*
X21012Y10527D01*
X21008Y10520D01*
X21004Y10508D01*
Y10489D01*
X21008Y10478D01*
X21012Y10470D01*
X21020Y10462D01*
X21027Y10459D01*
X21042D01*
X21050Y10462D01*
X21058Y10470D01*
X21061Y10478D01*
X21065Y10489D01*
Y10508D01*
X21061Y10520D01*
X21058Y10527D01*
X21050Y10535D01*
X21042Y10539D01*
X21027D01*
X21141Y10520D02*
X21137Y10527D01*
X21130Y10535D01*
X21122Y10539D01*
X21107D01*
X21099Y10535D01*
X21092Y10527D01*
X21088Y10520D01*
X21084Y10508D01*
Y10489D01*
X21088Y10478D01*
X21092Y10470D01*
X21099Y10462D01*
X21107Y10459D01*
X21122D01*
X21130Y10462D01*
X21137Y10470D01*
X21141Y10478D01*
X21164Y10539D02*
Y10459D01*
X21217Y10539D02*
X21164Y10485D01*
X21183Y10504D02*
X21217Y10459D01*
X21298Y10539D02*
Y10459D01*
Y10539D02*
X21332D01*
X21343Y10535D01*
X21347Y10531D01*
X21351Y10523D01*
Y10516D01*
X21347Y10508D01*
X21343Y10504D01*
X21332Y10500D01*
X21298D02*
X21332D01*
X21343Y10497D01*
X21347Y10493D01*
X21351Y10485D01*
Y10474D01*
X21347Y10466D01*
X21343Y10462D01*
X21332Y10459D01*
X21298D01*
X21392Y10539D02*
X21384Y10535D01*
X21376Y10527D01*
X21373Y10520D01*
X21369Y10508D01*
Y10489D01*
X21373Y10478D01*
X21376Y10470D01*
X21384Y10462D01*
X21392Y10459D01*
X21407D01*
X21415Y10462D01*
X21422Y10470D01*
X21426Y10478D01*
X21430Y10489D01*
Y10508D01*
X21426Y10520D01*
X21422Y10527D01*
X21415Y10535D01*
X21407Y10539D01*
X21392D01*
X21509Y10459D02*
X21479Y10539D01*
X21448Y10459D01*
X21460Y10485D02*
X21498D01*
X21528Y10539D02*
Y10459D01*
Y10539D02*
X21562D01*
X21574Y10535D01*
X21578Y10531D01*
X21581Y10523D01*
Y10516D01*
X21578Y10508D01*
X21574Y10504D01*
X21562Y10500D01*
X21528D01*
X21555D02*
X21581Y10459D01*
X21599Y10539D02*
Y10459D01*
Y10539D02*
X21626D01*
X21637Y10535D01*
X21645Y10527D01*
X21649Y10520D01*
X21653Y10508D01*
Y10489D01*
X21649Y10478D01*
X21645Y10470D01*
X21637Y10462D01*
X21626Y10459D01*
X21599D01*
D48*
X19827Y10389D02*
Y10309D01*
X19873D01*
X19942D02*
X19912Y10389D01*
X19881Y10309D01*
X19893Y10335D02*
X19931D01*
X20014Y10377D02*
X20007Y10385D01*
X19995Y10389D01*
X19980D01*
X19969Y10385D01*
X19961Y10377D01*
Y10370D01*
X19965Y10362D01*
X19969Y10358D01*
X19976Y10354D01*
X19999Y10347D01*
X20007Y10343D01*
X20011Y10339D01*
X20014Y10331D01*
Y10320D01*
X20007Y10312D01*
X19995Y10309D01*
X19980D01*
X19969Y10312D01*
X19961Y10320D01*
X20152Y10370D02*
X20148Y10377D01*
X20141Y10385D01*
X20133Y10389D01*
X20118D01*
X20110Y10385D01*
X20103Y10377D01*
X20099Y10370D01*
X20095Y10358D01*
Y10339D01*
X20099Y10328D01*
X20103Y10320D01*
X20110Y10312D01*
X20118Y10309D01*
X20133D01*
X20141Y10312D01*
X20148Y10320D01*
X20152Y10328D01*
X20175Y10389D02*
Y10331D01*
X20179Y10320D01*
X20186Y10312D01*
X20198Y10309D01*
X20205D01*
X20217Y10312D01*
X20224Y10320D01*
X20228Y10331D01*
Y10389D01*
X20250D02*
Y10309D01*
Y10389D02*
X20281Y10309D01*
X20311Y10389D02*
X20281Y10309D01*
X20311Y10389D02*
Y10309D01*
X20334Y10389D02*
Y10309D01*
Y10389D02*
X20368D01*
X20380Y10385D01*
X20383Y10381D01*
X20387Y10373D01*
Y10366D01*
X20383Y10358D01*
X20380Y10354D01*
X20368Y10350D01*
X20334D02*
X20368D01*
X20380Y10347D01*
X20383Y10343D01*
X20387Y10335D01*
Y10324D01*
X20383Y10316D01*
X20380Y10312D01*
X20368Y10309D01*
X20334D01*
X20405Y10389D02*
Y10309D01*
Y10389D02*
X20439D01*
X20451Y10385D01*
X20455Y10381D01*
X20459Y10373D01*
Y10366D01*
X20455Y10358D01*
X20451Y10354D01*
X20439Y10350D01*
X20405D01*
X20432D02*
X20459Y10309D01*
X20526Y10389D02*
X20476D01*
Y10309D01*
X20526D01*
X20476Y10350D02*
X20507D01*
X20593Y10377D02*
X20585Y10385D01*
X20574Y10389D01*
X20558D01*
X20547Y10385D01*
X20539Y10377D01*
Y10370D01*
X20543Y10362D01*
X20547Y10358D01*
X20554Y10354D01*
X20577Y10347D01*
X20585Y10343D01*
X20589Y10339D01*
X20593Y10331D01*
Y10320D01*
X20585Y10312D01*
X20574Y10309D01*
X20558D01*
X20547Y10312D01*
X20539Y10320D01*
X20696Y10389D02*
X20689Y10385D01*
X20681Y10377D01*
X20677Y10370D01*
X20673Y10358D01*
Y10339D01*
X20677Y10328D01*
X20681Y10320D01*
X20689Y10312D01*
X20696Y10309D01*
X20711D01*
X20719Y10312D01*
X20727Y10320D01*
X20730Y10328D01*
X20734Y10339D01*
Y10358D01*
X20730Y10370D01*
X20727Y10377D01*
X20719Y10385D01*
X20711Y10389D01*
X20696D01*
X20753D02*
Y10309D01*
Y10389D02*
X20787D01*
X20799Y10385D01*
X20802Y10381D01*
X20806Y10373D01*
Y10366D01*
X20802Y10358D01*
X20799Y10354D01*
X20787Y10350D01*
X20753D02*
X20787D01*
X20799Y10347D01*
X20802Y10343D01*
X20806Y10335D01*
Y10324D01*
X20802Y10316D01*
X20799Y10312D01*
X20787Y10309D01*
X20753D01*
X20877Y10377D02*
X20870Y10385D01*
X20858Y10389D01*
X20843D01*
X20832Y10385D01*
X20824Y10377D01*
Y10370D01*
X20828Y10362D01*
X20832Y10358D01*
X20839Y10354D01*
X20862Y10347D01*
X20870Y10343D01*
X20874Y10339D01*
X20877Y10331D01*
Y10320D01*
X20870Y10312D01*
X20858Y10309D01*
X20843D01*
X20832Y10312D01*
X20824Y10320D01*
X20945Y10389D02*
X20895D01*
Y10309D01*
X20945D01*
X20895Y10350D02*
X20926D01*
X20958Y10389D02*
Y10309D01*
Y10389D02*
X20992D01*
X21004Y10385D01*
X21008Y10381D01*
X21012Y10373D01*
Y10366D01*
X21008Y10358D01*
X21004Y10354D01*
X20992Y10350D01*
X20958D01*
X20985D02*
X21012Y10309D01*
X21029Y10389D02*
X21060Y10309D01*
X21090Y10389D02*
X21060Y10309D01*
X21162D02*
X21131Y10389D01*
X21101Y10309D01*
X21112Y10335D02*
X21150D01*
X21207Y10389D02*
Y10309D01*
X21180Y10389D02*
X21234D01*
X21266D02*
X21258Y10385D01*
X21251Y10377D01*
X21247Y10370D01*
X21243Y10358D01*
Y10339D01*
X21247Y10328D01*
X21251Y10320D01*
X21258Y10312D01*
X21266Y10309D01*
X21281D01*
X21289Y10312D01*
X21296Y10320D01*
X21300Y10328D01*
X21304Y10339D01*
Y10358D01*
X21300Y10370D01*
X21296Y10377D01*
X21289Y10385D01*
X21281Y10389D01*
X21266D01*
X21323D02*
Y10309D01*
Y10389D02*
X21357D01*
X21368Y10385D01*
X21372Y10381D01*
X21376Y10373D01*
Y10366D01*
X21372Y10358D01*
X21368Y10354D01*
X21357Y10350D01*
X21323D01*
X21349D02*
X21376Y10309D01*
X21394Y10389D02*
X21424Y10350D01*
Y10309D01*
X21455Y10389D02*
X21424Y10350D01*
X21787Y10389D02*
X21829D01*
X21806Y10358D01*
X21817D01*
X21825Y10354D01*
X21829Y10350D01*
X21833Y10339D01*
Y10331D01*
X21829Y10320D01*
X21821Y10312D01*
X21810Y10309D01*
X21798D01*
X21787Y10312D01*
X21783Y10316D01*
X21779Y10324D01*
X21851Y10297D02*
X21904Y10389D01*
X21959Y10362D02*
X21955Y10350D01*
X21947Y10343D01*
X21936Y10339D01*
X21932D01*
X21921Y10343D01*
X21913Y10350D01*
X21909Y10362D01*
Y10366D01*
X21913Y10377D01*
X21921Y10385D01*
X21932Y10389D01*
X21936D01*
X21947Y10385D01*
X21955Y10377D01*
X21959Y10362D01*
Y10343D01*
X21955Y10324D01*
X21947Y10312D01*
X21936Y10309D01*
X21928D01*
X21917Y10312D01*
X21913Y10320D01*
X21980Y10297D02*
X22034Y10389D01*
X22043Y10370D02*
Y10373D01*
X22047Y10381D01*
X22051Y10385D01*
X22058Y10389D01*
X22073D01*
X22081Y10385D01*
X22085Y10381D01*
X22089Y10373D01*
Y10366D01*
X22085Y10358D01*
X22077Y10347D01*
X22039Y10309D01*
X22092D01*
X22133Y10389D02*
X22122Y10385D01*
X22114Y10373D01*
X22110Y10354D01*
Y10343D01*
X22114Y10324D01*
X22122Y10312D01*
X22133Y10309D01*
X22141D01*
X22152Y10312D01*
X22160Y10324D01*
X22164Y10343D01*
Y10354D01*
X22160Y10373D01*
X22152Y10385D01*
X22141Y10389D01*
X22133D01*
X22182Y10373D02*
X22189Y10377D01*
X22201Y10389D01*
Y10309D01*
X22263Y10389D02*
X22252Y10385D01*
X22244Y10373D01*
X22240Y10354D01*
Y10343D01*
X22244Y10324D01*
X22252Y10312D01*
X22263Y10309D01*
X22271D01*
X22282Y10312D01*
X22290Y10324D01*
X22294Y10343D01*
Y10354D01*
X22290Y10373D01*
X22282Y10385D01*
X22271Y10389D01*
X22263D01*
D49*
X23907Y12320D02*
D03*
X23119D02*
D03*
D50*
X23041Y12005D02*
D03*
X23198D02*
D03*
X23355D02*
D03*
X23513D02*
D03*
X23670D02*
D03*
X23828D02*
D03*
X23985D02*
D03*
Y12163D02*
D03*
X23828D02*
D03*
X23670D02*
D03*
X23513D02*
D03*
X23355D02*
D03*
X23198D02*
D03*
X23041D02*
D03*
X23670Y12320D02*
D03*
X23513D02*
D03*
X23355D02*
D03*
X23985Y12477D02*
D03*
X23828D02*
D03*
X23670D02*
D03*
X23513D02*
D03*
X23355D02*
D03*
X23198D02*
D03*
X23041D02*
D03*
X23985Y12635D02*
D03*
X23828D02*
D03*
X23670D02*
D03*
X23513D02*
D03*
X23355D02*
D03*
X23198D02*
D03*
X23041D02*
D03*
D51*
X23262Y12931D02*
D03*
Y12970D02*
D03*
Y13009D02*
D03*
X23302D02*
D03*
Y12970D02*
D03*
Y12931D02*
D03*
X22582Y16100D02*
D03*
X22621D02*
D03*
X22661D02*
D03*
Y16060D02*
D03*
X22621D02*
D03*
X22582D02*
D03*
X23993Y13442D02*
D03*
Y13403D02*
D03*
Y13363D02*
D03*
X24032D02*
D03*
Y13403D02*
D03*
Y13442D02*
D03*
X24004Y13009D02*
D03*
Y12970D02*
D03*
Y12931D02*
D03*
X24043D02*
D03*
Y12970D02*
D03*
Y13009D02*
D03*
X18724Y15450D02*
D03*
X18684D02*
D03*
X18645D02*
D03*
Y15411D02*
D03*
X18684D02*
D03*
X18724D02*
D03*
X18645Y16060D02*
D03*
X18684D02*
D03*
X18724D02*
D03*
Y16100D02*
D03*
X18684D02*
D03*
X18645D02*
D03*
X19511Y15450D02*
D03*
X19472D02*
D03*
X19432D02*
D03*
Y15411D02*
D03*
X19472D02*
D03*
X19511D02*
D03*
X19432Y16060D02*
D03*
X19472D02*
D03*
X19511D02*
D03*
Y16100D02*
D03*
X19472D02*
D03*
X19432D02*
D03*
X20298Y15450D02*
D03*
X20259D02*
D03*
X20220D02*
D03*
Y15411D02*
D03*
X20259D02*
D03*
X20298D02*
D03*
X20220Y16060D02*
D03*
X20259D02*
D03*
X20298D02*
D03*
Y16100D02*
D03*
X20259D02*
D03*
X20220D02*
D03*
X21086Y15450D02*
D03*
X21047D02*
D03*
X21007D02*
D03*
Y15411D02*
D03*
X21047D02*
D03*
X21086D02*
D03*
X21007Y16060D02*
D03*
X21047D02*
D03*
X21086D02*
D03*
Y16100D02*
D03*
X21047D02*
D03*
X21007D02*
D03*
X21873Y15450D02*
D03*
X21834D02*
D03*
X21795D02*
D03*
Y15411D02*
D03*
X21834D02*
D03*
X21873D02*
D03*
X21795Y16060D02*
D03*
X21834D02*
D03*
X21873D02*
D03*
Y16100D02*
D03*
X21834D02*
D03*
X21795D02*
D03*
X22661Y15450D02*
D03*
X22621D02*
D03*
X22582D02*
D03*
Y15411D02*
D03*
X22621D02*
D03*
X22661D02*
D03*
D52*
X23334Y15799D02*
D03*
X23381D02*
D03*
X23428D02*
D03*
X23476D02*
D03*
X23523D02*
D03*
Y15846D02*
D03*
X23476D02*
D03*
X23428D02*
D03*
X23381D02*
D03*
X23334D02*
D03*
X23523Y15893D02*
D03*
X23476D02*
D03*
X23428D02*
D03*
X23381D02*
D03*
X23334D02*
D03*
X23523Y15941D02*
D03*
X23476D02*
D03*
X23428D02*
D03*
X23381D02*
D03*
X23334D02*
D03*
X23523Y15988D02*
D03*
X23476D02*
D03*
X23428D02*
D03*
X23381D02*
D03*
X23334D02*
D03*
X23325Y15122D02*
D03*
X23372D02*
D03*
X23419D02*
D03*
X23467D02*
D03*
X23514D02*
D03*
Y15170D02*
D03*
X23467D02*
D03*
X23419D02*
D03*
X23372D02*
D03*
X23325D02*
D03*
X23514Y15217D02*
D03*
X23467D02*
D03*
X23419D02*
D03*
X23372D02*
D03*
X23325D02*
D03*
X23514Y15264D02*
D03*
X23467D02*
D03*
X23419D02*
D03*
X23372D02*
D03*
X23325D02*
D03*
X23514Y15311D02*
D03*
X23467D02*
D03*
X23419D02*
D03*
X23372D02*
D03*
X23325D02*
D03*
D53*
X23966Y14367D02*
D03*
X23963Y14995D02*
D03*
X23111Y13795D02*
D03*
D54*
X23866Y14367D02*
D03*
X23966Y14467D02*
D03*
X23866D02*
D03*
X23966Y14567D02*
D03*
X23866D02*
D03*
X23966Y14667D02*
D03*
X23866D02*
D03*
X23966Y14767D02*
D03*
X23866D02*
D03*
X23863Y16095D02*
D03*
X23963D02*
D03*
X23863Y15995D02*
D03*
X23963D02*
D03*
X23863Y15895D02*
D03*
X23963D02*
D03*
X23863Y15795D02*
D03*
X23963D02*
D03*
X23863Y15695D02*
D03*
X23963D02*
D03*
X23863Y15595D02*
D03*
X23963D02*
D03*
X23863Y15495D02*
D03*
X23963D02*
D03*
X23863Y15395D02*
D03*
X23963D02*
D03*
X23863Y15295D02*
D03*
X23963D02*
D03*
X23863Y15195D02*
D03*
X23963D02*
D03*
X23863Y15095D02*
D03*
X23963D02*
D03*
X23863Y14995D02*
D03*
X23111Y13895D02*
D03*
D55*
X23331Y13287D02*
D03*
X23473Y13234D02*
D03*
X23768Y13140D02*
D03*
X22255Y15716D02*
D03*
X22369Y15946D02*
D03*
X22366Y15711D02*
D03*
X22214Y15810D02*
D03*
X23056Y14730D02*
D03*
X23186Y15278D02*
D03*
X23157Y15883D02*
D03*
X23225Y15843D02*
D03*
X23218Y15166D02*
D03*
X21088Y13587D02*
D03*
X21480Y15162D02*
D03*
X22566Y15013D02*
D03*
X22430Y15164D02*
D03*
X21707Y14755D02*
D03*
X22558Y15156D02*
D03*
X21869Y15053D02*
D03*
X22219Y15013D02*
D03*
X22069Y14988D02*
D03*
X21874Y14873D02*
D03*
X21764Y15023D02*
D03*
X22114Y14958D02*
D03*
X21969Y14833D02*
D03*
X22374Y14848D02*
D03*
X22094Y15083D02*
D03*
X22019Y14973D02*
D03*
X22535Y14797D02*
D03*
X22349Y14975D02*
D03*
X22509Y14823D02*
D03*
X21959Y15028D02*
D03*
X22319Y14948D02*
D03*
D03*
X22196Y15136D02*
D03*
D03*
X21709Y15038D02*
D03*
X21794Y14963D02*
D03*
X22349Y15008D02*
D03*
X22174Y14848D02*
D03*
X21357Y15164D02*
D03*
X21493Y15013D02*
D03*
X20634Y14755D02*
D03*
X20796Y15053D02*
D03*
X21146Y15013D02*
D03*
X20996Y14988D02*
D03*
X20801Y14873D02*
D03*
X20691Y15023D02*
D03*
X21041Y14958D02*
D03*
X20896Y14833D02*
D03*
X21301Y14848D02*
D03*
X21021Y15083D02*
D03*
X20946Y14973D02*
D03*
X21276Y14975D02*
D03*
X21462Y14797D02*
D03*
X21436Y14823D02*
D03*
X20886Y15028D02*
D03*
X21246Y14948D02*
D03*
D03*
X21123Y15136D02*
D03*
D03*
X20636Y15038D02*
D03*
X20721Y14963D02*
D03*
X21276Y15008D02*
D03*
X21101Y14848D02*
D03*
X20420Y15013D02*
D03*
X19561Y14755D02*
D03*
X19723Y15053D02*
D03*
X20073Y15013D02*
D03*
X19923Y14988D02*
D03*
X19728Y14873D02*
D03*
X19618Y15023D02*
D03*
X19968Y14958D02*
D03*
X19823Y14833D02*
D03*
X20228Y14848D02*
D03*
X19948Y15083D02*
D03*
X19873Y14973D02*
D03*
X20389Y14797D02*
D03*
X20203Y14975D02*
D03*
X20363Y14823D02*
D03*
X19813Y15028D02*
D03*
X20173Y14948D02*
D03*
D03*
X20050Y15136D02*
D03*
D03*
X19563Y15038D02*
D03*
X19648Y14963D02*
D03*
X20203Y15008D02*
D03*
X20028Y14848D02*
D03*
X18999Y15257D02*
D03*
X20075Y15259D02*
D03*
X21890Y15290D02*
D03*
X21889Y15916D02*
D03*
X19108Y14710D02*
D03*
X19111Y12683D02*
D03*
X19754Y12448D02*
D03*
Y12684D02*
D03*
X18819Y15281D02*
D03*
X19889Y15283D02*
D03*
X21778Y15293D02*
D03*
X21779Y15595D02*
D03*
X21975Y13587D02*
D03*
X19100Y14948D02*
D03*
D03*
X18977Y15136D02*
D03*
X19347Y15013D02*
D03*
X19316Y14797D02*
D03*
X19130Y14975D02*
D03*
X22281Y12731D02*
D03*
X18351Y12902D02*
D03*
X23158Y14709D02*
D03*
X23523D02*
D03*
X23602Y14304D02*
D03*
X23534Y13578D02*
D03*
X23519Y13228D02*
D03*
X23619D02*
D03*
X23685Y15265D02*
D03*
X23507Y15410D02*
D03*
X23684Y15409D02*
D03*
X23353Y15420D02*
D03*
X23698Y15435D02*
D03*
X23312Y15426D02*
D03*
X23721Y15458D02*
D03*
X23767Y15102D02*
D03*
X23767Y15071D02*
D03*
X23704Y15045D02*
D03*
X23708Y15012D02*
D03*
X23942Y13427D02*
D03*
X23880Y13581D02*
D03*
X23927Y13143D02*
D03*
X24012Y13162D02*
D03*
X23968Y13182D02*
D03*
X23857Y13183D02*
D03*
X23866Y12894D02*
D03*
X24022Y13108D02*
D03*
X23069Y13105D02*
D03*
X23399Y13045D02*
D03*
X23240Y13081D02*
D03*
X24064Y12842D02*
D03*
X23295Y12834D02*
D03*
X23094Y12824D02*
D03*
X22836Y13030D02*
D03*
X22834Y12804D02*
D03*
X23090Y13042D02*
D03*
X23169Y12738D02*
D03*
X22808Y12746D02*
D03*
X20469Y12761D02*
D03*
X20494Y12791D02*
D03*
X20519Y12761D02*
D03*
X20544Y12791D02*
D03*
Y12461D02*
D03*
X20519Y12436D02*
D03*
X20494Y12462D02*
D03*
X20469Y12438D02*
D03*
X18233Y12797D02*
D03*
X18936D02*
D03*
X18938Y12523D02*
D03*
X18288Y12841D02*
D03*
X18969Y12840D02*
D03*
Y12555D02*
D03*
X19008Y12902D02*
D03*
X19048Y12621D02*
D03*
X19068Y12920D02*
D03*
Y12655D02*
D03*
X18338Y12860D02*
D03*
X23568Y13720D02*
D03*
Y12790D02*
D03*
X18338Y12700D02*
D03*
X18708Y12880D02*
D03*
X20004Y12739D02*
D03*
X18708Y12700D02*
D03*
X22778Y12350D02*
D03*
X22579Y12318D02*
D03*
X22584Y12402D02*
D03*
X18464Y12571D02*
D03*
X18565Y12570D02*
D03*
X18567Y12510D02*
D03*
X23427Y13143D02*
D03*
X23444Y13558D02*
D03*
X23112Y14121D02*
D03*
X23975Y13681D02*
D03*
X23653Y15825D02*
D03*
X23605Y15797D02*
D03*
X23157Y15159D02*
D03*
X23212Y15716D02*
D03*
X23244Y15147D02*
D03*
X23249Y15825D02*
D03*
X23063Y15116D02*
D03*
X23084Y15082D02*
D03*
X23105Y15115D02*
D03*
X23126Y15082D02*
D03*
X22957Y15751D02*
D03*
X22984Y16145D02*
D03*
X22930Y15789D02*
D03*
X23157Y15446D02*
D03*
X23235Y15518D02*
D03*
X23421Y15478D02*
D03*
X23444Y15595D02*
D03*
X23157Y15839D02*
D03*
X23219Y15934D02*
D03*
X23009Y16164D02*
D03*
X23091Y15534D02*
D03*
X23125Y15504D02*
D03*
X23033Y15640D02*
D03*
X23062Y15614D02*
D03*
X23211Y15975D02*
D03*
X23167Y16125D02*
D03*
X23255Y16032D02*
D03*
X23198Y16123D02*
D03*
X23197Y16093D02*
D03*
X23227Y16094D02*
D03*
X23257Y16064D02*
D03*
X23278Y15350D02*
D03*
X23441Y15040D02*
D03*
X23591Y15286D02*
D03*
X23560Y15347D02*
D03*
X23476Y15390D02*
D03*
X23410D02*
D03*
X23370Y15389D02*
D03*
X23331D02*
D03*
X23449Y15720D02*
D03*
X23607Y15845D02*
D03*
X23603Y15963D02*
D03*
X23569Y16022D02*
D03*
X23485Y16068D02*
D03*
X23409Y16069D02*
D03*
X23320Y16066D02*
D03*
X23805Y16072D02*
D03*
X23763D02*
D03*
X23679D02*
D03*
X23784Y16106D02*
D03*
X23742D02*
D03*
X23658D02*
D03*
X21151Y15276D02*
D03*
X22220Y15270D02*
D03*
X22636Y15293D02*
D03*
X20947Y15286D02*
D03*
X22034Y15274D02*
D03*
X22564Y15289D02*
D03*
X20985Y14565D02*
D03*
X20448Y13399D02*
D03*
X20847Y13509D02*
D03*
X22376Y14651D02*
D03*
X19417Y14650D02*
D03*
X19529Y14626D02*
D03*
X20203Y13534D02*
D03*
X19317D02*
D03*
X18431Y13530D02*
D03*
X18310Y15898D02*
D03*
X22618Y13543D02*
D03*
X19073Y13480D02*
D03*
X19961Y13484D02*
D03*
X21743Y13546D02*
D03*
X18262Y13480D02*
D03*
X18261Y15605D02*
D03*
X22429Y15226D02*
D03*
X21475Y15297D02*
D03*
X21359Y15310D02*
D03*
X20411Y15301D02*
D03*
X20412Y15161D02*
D03*
X20284Y15318D02*
D03*
Y15164D02*
D03*
X19351Y15338D02*
D03*
Y15156D02*
D03*
X19210Y15359D02*
D03*
Y15165D02*
D03*
X18977Y15136D02*
D03*
X21378Y12899D02*
D03*
X20490Y12923D02*
D03*
X18720Y12991D02*
D03*
X21379Y13512D02*
D03*
X20494Y13481D02*
D03*
X19607Y13438D02*
D03*
X18721Y13418D02*
D03*
X21378Y14089D02*
D03*
X20494Y14057D02*
D03*
X19606Y14021D02*
D03*
X18718Y13985D02*
D03*
X19828Y12777D02*
D03*
X19803Y12745D02*
D03*
X19680Y12622D02*
D03*
X19703Y12655D02*
D03*
X19655Y12590D02*
D03*
X19630Y12547D02*
D03*
X20178Y12529D02*
D03*
X20408Y12770D02*
D03*
X20122Y12802D02*
D03*
X20052Y12834D02*
D03*
X20154Y12571D02*
D03*
X20154Y12492D02*
D03*
X20128Y12609D02*
D03*
X20080Y12647D02*
D03*
X20055Y12679D02*
D03*
X20028Y12711D02*
D03*
X19954Y12768D02*
D03*
X19929Y12801D02*
D03*
X19904Y12832D02*
D03*
X19778Y12714D02*
D03*
X20879Y12740D02*
D03*
X20948Y12712D02*
D03*
X21022Y12679D02*
D03*
X20178Y12450D02*
D03*
X20078Y12495D02*
D03*
X20053Y12450D02*
D03*
X20128D02*
D03*
X20028Y12494D02*
D03*
X21293Y12648D02*
D03*
X21788Y12611D02*
D03*
X19518Y12777D02*
D03*
X22756Y15868D02*
D03*
X22735Y15547D02*
D03*
X22566Y15922D02*
D03*
X22485Y15414D02*
D03*
X22490Y15505D02*
D03*
X22741Y16005D02*
D03*
X22757Y16096D02*
D03*
X22643Y15739D02*
D03*
X22642Y15775D02*
D03*
X22752Y15583D02*
D03*
X22491D02*
D03*
X22745Y15920D02*
D03*
X22499Y15974D02*
D03*
X22575Y15750D02*
D03*
X22487Y15918D02*
D03*
X22566Y15595D02*
D03*
X22758Y15709D02*
D03*
X22676Y15916D02*
D03*
X22578Y15840D02*
D03*
X21969Y15868D02*
D03*
X21948Y15547D02*
D03*
X21779Y15922D02*
D03*
X21698Y15414D02*
D03*
X21703Y15505D02*
D03*
X21954Y16005D02*
D03*
X21970Y16096D02*
D03*
X21856Y15739D02*
D03*
X21855Y15775D02*
D03*
X21965Y15583D02*
D03*
X21704D02*
D03*
X21958Y15920D02*
D03*
X21712Y15974D02*
D03*
X21788Y15750D02*
D03*
X21700Y15918D02*
D03*
X21971Y15709D02*
D03*
X21791Y15840D02*
D03*
X21181Y15868D02*
D03*
X21161Y15547D02*
D03*
X20991Y15922D02*
D03*
X20911Y15414D02*
D03*
X20916Y15505D02*
D03*
X21166Y16005D02*
D03*
X21182Y16096D02*
D03*
X21068Y15739D02*
D03*
X21067Y15775D02*
D03*
X21177Y15583D02*
D03*
X20917D02*
D03*
X21171Y15920D02*
D03*
X20924Y15974D02*
D03*
X21000Y15750D02*
D03*
X20913Y15918D02*
D03*
X20991Y15595D02*
D03*
X21183Y15709D02*
D03*
X21102Y15916D02*
D03*
X21003Y15840D02*
D03*
X19342Y15583D02*
D03*
X18819Y15868D02*
D03*
X18798Y15547D02*
D03*
X18629Y15922D02*
D03*
X18548Y15414D02*
D03*
X18553Y15505D02*
D03*
X18804Y16005D02*
D03*
X18820Y16096D02*
D03*
X18706Y15739D02*
D03*
X18705Y15775D02*
D03*
X18815Y15583D02*
D03*
X18554D02*
D03*
X18808Y15920D02*
D03*
X18562Y15974D02*
D03*
X18638Y15750D02*
D03*
X18550Y15918D02*
D03*
X18629Y15595D02*
D03*
X18821Y15709D02*
D03*
X18739Y15916D02*
D03*
X18641Y15840D02*
D03*
X20129Y15583D02*
D03*
X18772Y13299D02*
D03*
X18594Y13354D02*
D03*
X18921Y13278D02*
D03*
X18512Y13214D02*
D03*
X18998Y13161D02*
D03*
D03*
X18502Y13261D02*
D03*
X18749Y13174D02*
D03*
X18585Y13111D02*
D03*
X18782Y13132D02*
D03*
X18472Y13271D02*
D03*
X18930Y13339D02*
D03*
X18875Y15083D02*
D03*
X19155Y14848D02*
D03*
X18955D02*
D03*
X18850Y14988D02*
D03*
X19000Y15013D02*
D03*
X18650Y15053D02*
D03*
X18545Y15023D02*
D03*
X18655Y14873D02*
D03*
X18575Y14963D02*
D03*
X18800Y14973D02*
D03*
X19130Y15008D02*
D03*
X18895Y14958D02*
D03*
X18750Y14833D02*
D03*
X18740Y15028D02*
D03*
X19290Y14823D02*
D03*
X18490Y15038D02*
D03*
X18488Y14755D02*
D03*
X18233D02*
D03*
X18288Y14155D02*
D03*
X18343Y13565D02*
D03*
X18633Y12990D02*
D03*
X19163Y14150D02*
D03*
X19228Y13570D02*
D03*
X19988Y14750D02*
D03*
X20053Y14155D02*
D03*
X20123Y13565D02*
D03*
X20878Y14750D02*
D03*
X20948Y14160D02*
D03*
X21023Y13565D02*
D03*
X21793Y14155D02*
D03*
X21863Y13565D02*
D03*
X21933Y12990D02*
D03*
X20003Y12450D02*
D03*
X19928D02*
D03*
X19804Y12449D02*
D03*
X19879Y12446D02*
D03*
X19680Y12448D02*
D03*
X19630Y12446D02*
D03*
X19654Y12483D02*
D03*
X19704Y12485D02*
D03*
X19778Y12489D02*
D03*
X19904Y12491D02*
D03*
X19828Y12490D02*
D03*
X19953D02*
D03*
X20154Y12492D02*
D03*
X19166Y12714D02*
D03*
X19228Y12745D02*
D03*
X19413Y12465D02*
D03*
X22268D02*
D03*
X22068Y12440D02*
D03*
X22273Y12545D02*
D03*
X21933Y12533D02*
D03*
X21908Y12455D02*
D03*
X21978Y12485D02*
D03*
X22668Y12590D02*
D03*
X21861Y12571D02*
D03*
X23007Y14361D02*
D03*
Y14441D02*
D03*
X23187D02*
D03*
X23182Y14361D02*
D03*
X23117Y14316D02*
D03*
X23247Y14137D02*
D03*
X23390Y14127D02*
D03*
X23458Y14146D02*
D03*
X23158Y14123D02*
D03*
X23498Y14282D02*
D03*
X23349Y14267D02*
D03*
X23361Y14320D02*
D03*
X23498Y14361D02*
D03*
X23449Y14431D02*
D03*
X23222Y14516D02*
D03*
X23133Y14603D02*
D03*
X23173Y14602D02*
D03*
X23247Y14368D02*
D03*
X23012Y14407D02*
D03*
X23495Y14321D02*
D03*
X23456Y14594D02*
D03*
X22848Y12335D02*
D03*
X23613Y13603D02*
D03*
X23718Y13933D02*
D03*
X23668Y13613D02*
D03*
X23758Y13608D02*
D03*
X23876Y13044D02*
D03*
X23591Y12949D02*
D03*
X23686Y12794D02*
D03*
X23311Y12879D02*
D03*
X23711Y12944D02*
D03*
X23591Y12824D02*
D03*
X24011Y13059D02*
D03*
X23961Y12799D02*
D03*
X23866Y12894D02*
D03*
X23926Y12802D02*
D03*
X23641Y12799D02*
D03*
X23611Y13144D02*
D03*
X23697Y12995D02*
D03*
X23366Y13139D02*
D03*
X23729Y13248D02*
D03*
X23869Y13298D02*
D03*
X23639Y13563D02*
D03*
X23894Y13553D02*
D03*
X23939Y13343D02*
D03*
X23774Y13455D02*
D03*
X23926Y12802D02*
D03*
X19006Y12442D02*
D03*
X18865Y12516D02*
D03*
X18916Y12563D02*
D03*
X18416Y12541D02*
D03*
X18327Y12494D02*
D03*
X23061Y13055D02*
D03*
X23062Y12849D02*
D03*
X23029Y12780D02*
D03*
X23026Y13130D02*
D03*
X23243Y15206D02*
D03*
X23196Y15070D02*
D03*
X23409Y15040D02*
D03*
X23501Y14949D02*
D03*
X23253Y15884D02*
D03*
X23204Y15750D02*
D03*
X23418Y15718D02*
D03*
X23512Y15634D02*
D03*
X23303Y14602D02*
D03*
X23409Y14609D02*
D03*
X19005Y15751D02*
D03*
X18966Y15790D02*
D03*
X18965Y16236D02*
D03*
X19005Y16221D02*
D03*
X19792Y15751D02*
D03*
X19753Y15790D02*
D03*
X21367Y15751D02*
D03*
X21328Y15790D02*
D03*
X22155Y15751D02*
D03*
X22116Y15790D02*
D03*
X19753Y16210D02*
D03*
X19792Y16189D02*
D03*
X21330Y16170D02*
D03*
X21367Y16158D02*
D03*
X22116Y16147D02*
D03*
X22155Y16121D02*
D03*
X21549Y15569D02*
D03*
Y15463D02*
D03*
X21740Y15435D02*
D03*
X22588Y14651D02*
D03*
X22610Y14672D02*
D03*
X22632Y14693D02*
D03*
X22654Y14714D02*
D03*
X22673Y14735D02*
D03*
X22721Y14777D02*
D03*
X22726Y15092D02*
D03*
X22700Y15113D02*
D03*
X22726Y15226D02*
D03*
X22747Y15277D02*
D03*
X22768Y15298D02*
D03*
X22787Y15319D02*
D03*
X22810Y15340D02*
D03*
X22832Y15361D02*
D03*
X22856Y15382D02*
D03*
X22610Y14089D02*
D03*
X22632Y14057D02*
D03*
X22654Y14023D02*
D03*
X22673Y13985D02*
D03*
X22779Y13418D02*
D03*
X22761Y13455D02*
D03*
X22743Y13480D02*
D03*
X22721Y13512D02*
D03*
X22694Y13560D02*
D03*
X22591Y12963D02*
D03*
X22612Y12944D02*
D03*
X22632Y12923D02*
D03*
X22652Y12899D02*
D03*
X23405Y13927D02*
D03*
X23384Y13895D02*
D03*
X23363Y13927D02*
D03*
X23342Y13895D02*
D03*
X23321Y13927D02*
D03*
X23300Y13895D02*
D03*
X23279Y13927D02*
D03*
X23258Y13895D02*
D03*
X22747Y15071D02*
D03*
X22831Y14987D02*
D03*
X22821Y14882D02*
D03*
X22694Y14756D02*
D03*
X22761Y14820D02*
D03*
X22743Y14798D02*
D03*
X22780Y14842D02*
D03*
X22800Y14862D02*
D03*
X22857Y14966D02*
D03*
X22809Y15008D02*
D03*
X22768Y15050D02*
D03*
X22788Y15029D02*
D03*
X22841Y14903D02*
D03*
X22889Y13102D02*
D03*
X22901Y14377D02*
D03*
X22900Y15144D02*
D03*
X23014Y14320D02*
D03*
X22882Y14945D02*
D03*
X22862Y14924D02*
D03*
X22912Y14183D02*
D03*
X22911Y14143D02*
D03*
X23003Y14164D02*
D03*
X23812Y14109D02*
D03*
X23784Y14127D02*
D03*
X23783D02*
D03*
X23769Y14200D02*
D03*
X23004Y14124D02*
D03*
X23797Y14168D02*
D03*
X24051Y14111D02*
D03*
X24027Y14135D02*
D03*
X23966Y14467D02*
D03*
X24003Y14174D02*
D03*
X23614Y15200D02*
D03*
X23643Y15229D02*
D03*
X23614Y14380D02*
D03*
X23643Y14341D02*
D03*
X23740Y14756D02*
D03*
X23097D02*
D03*
X23706Y14733D02*
D03*
D03*
X23117Y14728D02*
D03*
D03*
X23926Y13039D02*
D03*
X23821Y13244D02*
D03*
X23484Y13488D02*
D03*
X19313Y12491D02*
D03*
X19324Y12842D02*
D03*
X19363Y12488D02*
D03*
X19526Y12515D02*
D03*
X23562Y14701D02*
D03*
X23591Y15168D02*
D03*
X19307Y12612D02*
D03*
X22805Y12505D02*
D03*
X21041Y15899D02*
D03*
X18683Y15923D02*
D03*
X21831Y15909D02*
D03*
X22617Y15910D02*
D03*
X22128Y12555D02*
D03*
X21973Y15215D02*
D03*
X22961Y15200D02*
D03*
Y15201D02*
D03*
X23045Y15040D02*
D03*
X22893Y15689D02*
D03*
X18480Y12512D02*
D03*
X23028Y13130D02*
D03*
Y13969D02*
D03*
X23809Y14043D02*
D03*
Y13986D02*
D03*
X20266Y12436D02*
D03*
X20406Y12435D02*
D03*
X21106Y12431D02*
D03*
X21246Y12427D02*
D03*
X21947Y12443D02*
D03*
X23206Y13723D02*
D03*
X22993Y13525D02*
D03*
X22931Y15950D02*
D03*
X21529Y15985D02*
D03*
X19159Y15997D02*
D03*
X18265Y16018D02*
D03*
X18999Y15313D02*
D03*
X18442Y15304D02*
D03*
X22295Y12647D02*
D03*
X18950Y15649D02*
D03*
X21319Y15643D02*
D03*
X22110Y15648D02*
D03*
Y15647D02*
D03*
X22891Y15724D02*
D03*
X22263Y12664D02*
D03*
X18772Y14460D02*
D03*
X18921Y14439D02*
D03*
X18594Y14515D02*
D03*
X18512Y14375D02*
D03*
X18998Y14322D02*
D03*
D03*
X18502Y14423D02*
D03*
X18782Y14294D02*
D03*
X18585Y14272D02*
D03*
X18749Y14335D02*
D03*
X18472Y14432D02*
D03*
X18930Y14500D02*
D03*
X18720Y14152D02*
D03*
X18633Y14151D02*
D03*
X19658Y14460D02*
D03*
X19807Y14439D02*
D03*
X19480Y14515D02*
D03*
X19398Y14375D02*
D03*
X19883Y14322D02*
D03*
D03*
X19388Y14423D02*
D03*
X19668Y14294D02*
D03*
X19471Y14272D02*
D03*
X19634Y14335D02*
D03*
X19358Y14432D02*
D03*
X19815Y14500D02*
D03*
X19606Y14152D02*
D03*
X19519Y14151D02*
D03*
X20544Y14460D02*
D03*
X20692Y14439D02*
D03*
X20366Y14515D02*
D03*
X20284Y14375D02*
D03*
X20769Y14322D02*
D03*
D03*
X20274Y14423D02*
D03*
X20554Y14294D02*
D03*
X20357Y14272D02*
D03*
X20520Y14335D02*
D03*
X20244Y14432D02*
D03*
X20701Y14500D02*
D03*
X20492Y14152D02*
D03*
X20405Y14151D02*
D03*
X21430Y14460D02*
D03*
X21578Y14439D02*
D03*
X21252Y14515D02*
D03*
X21170Y14375D02*
D03*
X21655Y14322D02*
D03*
D03*
X21160Y14423D02*
D03*
X21439Y14294D02*
D03*
X21243Y14272D02*
D03*
X21406Y14335D02*
D03*
X21129Y14432D02*
D03*
X21587Y14500D02*
D03*
X21377Y14152D02*
D03*
X21290Y14151D02*
D03*
X22315Y14460D02*
D03*
X22464Y14439D02*
D03*
X22137Y14515D02*
D03*
X22056Y14375D02*
D03*
X22541Y14322D02*
D03*
D03*
X22046Y14423D02*
D03*
X22325Y14294D02*
D03*
X22128Y14272D02*
D03*
X22292Y14335D02*
D03*
X22015Y14432D02*
D03*
X22473Y14500D02*
D03*
X22263Y14152D02*
D03*
X22176Y14151D02*
D03*
X18772Y13869D02*
D03*
X18921Y13849D02*
D03*
X18594Y13925D02*
D03*
X18512Y13785D02*
D03*
X18998Y13732D02*
D03*
D03*
X18502Y13832D02*
D03*
X18782Y13703D02*
D03*
X18585Y13681D02*
D03*
X18749Y13745D02*
D03*
X18472Y13842D02*
D03*
X18930Y13910D02*
D03*
X18720Y13562D02*
D03*
X18633Y13561D02*
D03*
X19658Y13869D02*
D03*
X19807Y13849D02*
D03*
X19480Y13925D02*
D03*
X19398Y13785D02*
D03*
X19883Y13732D02*
D03*
D03*
X19388Y13832D02*
D03*
X19668Y13703D02*
D03*
X19471Y13681D02*
D03*
X19634Y13745D02*
D03*
X19358Y13842D02*
D03*
X19815Y13910D02*
D03*
X19606Y13562D02*
D03*
X19519Y13561D02*
D03*
X20544Y13869D02*
D03*
X20692Y13849D02*
D03*
X20366Y13925D02*
D03*
X20284Y13785D02*
D03*
X20769Y13732D02*
D03*
D03*
X20274Y13832D02*
D03*
X20554Y13703D02*
D03*
X20357Y13681D02*
D03*
X20520Y13745D02*
D03*
X20244Y13842D02*
D03*
X20701Y13910D02*
D03*
X20492Y13562D02*
D03*
X20405Y13561D02*
D03*
X21430Y13869D02*
D03*
X21578Y13849D02*
D03*
X21252Y13925D02*
D03*
X21170Y13785D02*
D03*
X21655Y13732D02*
D03*
D03*
X21160Y13832D02*
D03*
X21439Y13703D02*
D03*
X21243Y13681D02*
D03*
X21406Y13745D02*
D03*
X21129Y13842D02*
D03*
X21587Y13910D02*
D03*
X21377Y13562D02*
D03*
X21290Y13561D02*
D03*
X22315Y13869D02*
D03*
X22464Y13849D02*
D03*
X22137Y13925D02*
D03*
X22056Y13785D02*
D03*
X22541Y13732D02*
D03*
D03*
X22046Y13832D02*
D03*
X22325Y13703D02*
D03*
X22128Y13681D02*
D03*
X22292Y13745D02*
D03*
X22015Y13842D02*
D03*
X22473Y13910D02*
D03*
X22263Y13562D02*
D03*
X22176Y13561D02*
D03*
X19658Y13299D02*
D03*
X19807Y13278D02*
D03*
X19480Y13354D02*
D03*
X19398Y13214D02*
D03*
X19883Y13161D02*
D03*
D03*
X19388Y13261D02*
D03*
X19668Y13132D02*
D03*
X19471Y13111D02*
D03*
X19634Y13174D02*
D03*
X19358Y13271D02*
D03*
X19815Y13339D02*
D03*
X19606Y12991D02*
D03*
X19519Y12990D02*
D03*
X20544Y13299D02*
D03*
X20692Y13278D02*
D03*
X20366Y13354D02*
D03*
X20284Y13214D02*
D03*
X20769Y13161D02*
D03*
D03*
X20274Y13261D02*
D03*
X20554Y13132D02*
D03*
X20357Y13111D02*
D03*
X20520Y13174D02*
D03*
X20244Y13271D02*
D03*
X20701Y13339D02*
D03*
X20492Y12991D02*
D03*
X20405Y12990D02*
D03*
X21430Y13299D02*
D03*
X21578Y13278D02*
D03*
X21252Y13354D02*
D03*
X21170Y13214D02*
D03*
X21655Y13161D02*
D03*
D03*
X21160Y13261D02*
D03*
X21439Y13132D02*
D03*
X21243Y13111D02*
D03*
X21406Y13174D02*
D03*
X21129Y13271D02*
D03*
X21587Y13339D02*
D03*
X21377Y12991D02*
D03*
X21290Y12990D02*
D03*
X22315Y13299D02*
D03*
X22464Y13278D02*
D03*
X22137Y13354D02*
D03*
X22056Y13214D02*
D03*
X22541Y13161D02*
D03*
D03*
X22046Y13261D02*
D03*
X22325Y13132D02*
D03*
X22128Y13111D02*
D03*
X22292Y13174D02*
D03*
X22015Y13271D02*
D03*
X22473Y13339D02*
D03*
X22263Y12991D02*
D03*
X22176Y12990D02*
D03*
X18361Y15814D02*
D03*
X18450Y15963D02*
D03*
X18403Y15726D02*
D03*
X18363Y15728D02*
D03*
X19468Y15906D02*
D03*
X19493Y15739D02*
D03*
X19492Y15775D02*
D03*
X19592Y16005D02*
D03*
X19608Y16096D02*
D03*
X19336Y15414D02*
D03*
X19341Y15505D02*
D03*
X19417Y15922D02*
D03*
X19586Y15547D02*
D03*
X19607Y15868D02*
D03*
X19527Y15916D02*
D03*
X19428Y15840D02*
D03*
X19417Y15595D02*
D03*
X19609Y15709D02*
D03*
X19425Y15750D02*
D03*
X19338Y15918D02*
D03*
X19743Y15659D02*
D03*
X19350Y15974D02*
D03*
X19596Y15920D02*
D03*
X19603Y15583D02*
D03*
X19085Y15814D02*
D03*
X19218Y15946D02*
D03*
X19210Y15713D02*
D03*
X19174Y15707D02*
D03*
X19096Y15747D02*
D03*
X19342Y15583D02*
D03*
X23721Y16072D02*
D03*
X20541Y16192D02*
D03*
Y15790D02*
D03*
X22382Y13457D02*
D03*
X20290Y13471D02*
D03*
X23700Y16106D02*
D03*
X20580Y16169D02*
D03*
Y15751D02*
D03*
X23227Y16063D02*
D03*
X20259Y15909D02*
D03*
X20281Y15739D02*
D03*
X20280Y15775D02*
D03*
X20379Y16005D02*
D03*
X20395Y16096D02*
D03*
X20123Y15414D02*
D03*
X20128Y15505D02*
D03*
X20204Y15922D02*
D03*
X20373Y15547D02*
D03*
X20394Y15868D02*
D03*
X20314Y15916D02*
D03*
X20216Y15840D02*
D03*
X20204Y15595D02*
D03*
X20396Y15709D02*
D03*
X20213Y15750D02*
D03*
X20125Y15918D02*
D03*
X20521Y15643D02*
D03*
X20137Y15974D02*
D03*
X20383Y15920D02*
D03*
X20390Y15583D02*
D03*
X19856Y15816D02*
D03*
X19865Y15645D02*
D03*
X20054Y15701D02*
D03*
X20004Y15943D02*
D03*
X20663Y15814D02*
D03*
X20793Y15934D02*
D03*
X20673Y15714D02*
D03*
X20762Y15710D02*
D03*
X21448Y15814D02*
D03*
X21465Y15715D02*
D03*
X21549Y15712D02*
D03*
X23615Y13747D02*
D03*
X23578Y13868D02*
D03*
X23667Y13954D02*
D03*
X24042Y13935D02*
D03*
X23768Y13747D02*
D03*
X23868Y13853D02*
D03*
X23912Y13977D02*
D03*
X23768Y13981D02*
D03*
X21669Y12728D02*
D03*
X22873Y12982D02*
D03*
M02*
