%FSLAX23Y23*%
%MOIN*%
G70*
G01*
G75*
G04 Layer_Color=8421504*
%ADD10R,0.135X0.070*%
%ADD11R,0.050X0.050*%
%ADD12R,0.094X0.059*%
%ADD13R,0.037X0.035*%
%ADD14R,0.037X0.035*%
%ADD15R,0.050X0.050*%
%ADD16R,0.048X0.078*%
%ADD17C,0.010*%
%ADD18C,0.012*%
%ADD19C,0.008*%
%ADD20C,0.012*%
%ADD21C,0.012*%
%ADD22C,0.157*%
%ADD23C,0.315*%
%ADD24O,0.079X0.039*%
%ADD25O,0.079X0.039*%
%ADD26C,0.047*%
%ADD27C,0.024*%
%ADD28C,0.040*%
%ADD29C,0.127*%
%ADD30C,0.170*%
G04:AMPARAMS|DCode=31|XSize=87.559mil|YSize=87.559mil|CornerRadius=0mil|HoleSize=0mil|Usage=FLASHONLY|Rotation=0.000|XOffset=0mil|YOffset=0mil|HoleType=Round|Shape=Relief|Width=10mil|Gap=10mil|Entries=4|*
%AMTHD31*
7,0,0,0.088,0.068,0.010,45*
%
%ADD31THD31*%
%ADD32C,0.068*%
%ADD33C,0.087*%
%ADD34C,0.050*%
G04:AMPARAMS|DCode=35|XSize=70mil|YSize=70mil|CornerRadius=0mil|HoleSize=0mil|Usage=FLASHONLY|Rotation=0.000|XOffset=0mil|YOffset=0mil|HoleType=Round|Shape=Relief|Width=10mil|Gap=10mil|Entries=4|*
%AMTHD35*
7,0,0,0.070,0.050,0.010,45*
%
%ADD35THD35*%
%ADD36O,0.028X0.098*%
%ADD37R,0.085X0.022*%
%ADD38C,0.006*%
%ADD39C,0.010*%
%ADD40C,0.010*%
%ADD41C,0.008*%
%ADD42C,0.007*%
%ADD43C,0.005*%
%ADD44R,0.122X0.163*%
D10*
X16881Y11873D02*
D03*
X16601D02*
D03*
D11*
X16031Y12748D02*
D03*
X15941D02*
D03*
X15888Y11937D02*
D03*
X15978D02*
D03*
X16027Y11567D02*
D03*
X15937D02*
D03*
X15611Y11938D02*
D03*
X15701D02*
D03*
X15750Y11568D02*
D03*
X15660D02*
D03*
X15339Y11938D02*
D03*
X15429D02*
D03*
X15478Y11568D02*
D03*
X15388D02*
D03*
X15063Y11936D02*
D03*
X15153D02*
D03*
X15202Y11566D02*
D03*
X15112D02*
D03*
X15894Y12528D02*
D03*
X15984D02*
D03*
X16033Y12156D02*
D03*
X15943D02*
D03*
X15617Y12529D02*
D03*
X15707D02*
D03*
X15756Y12159D02*
D03*
X15666D02*
D03*
X15341Y12528D02*
D03*
X15431D02*
D03*
X15480Y12158D02*
D03*
X15390D02*
D03*
X15063Y12527D02*
D03*
X15153D02*
D03*
X15202Y12160D02*
D03*
X15112D02*
D03*
X15892Y13118D02*
D03*
X15982D02*
D03*
X15616Y13118D02*
D03*
X15706D02*
D03*
X15755Y12748D02*
D03*
X15665D02*
D03*
X15341Y13118D02*
D03*
X15431D02*
D03*
X15480Y12747D02*
D03*
X15390D02*
D03*
X15070Y13118D02*
D03*
X15160D02*
D03*
X15209Y12744D02*
D03*
X15119D02*
D03*
D12*
X15958Y11864D02*
D03*
Y11647D02*
D03*
X15682Y11864D02*
D03*
Y11647D02*
D03*
X15407Y11864D02*
D03*
Y11647D02*
D03*
X15131Y11864D02*
D03*
Y11647D02*
D03*
X15958Y12454D02*
D03*
Y12238D02*
D03*
X15682Y12454D02*
D03*
Y12238D02*
D03*
X15407Y12454D02*
D03*
Y12238D02*
D03*
X15131Y12454D02*
D03*
Y12238D02*
D03*
X15958Y13045D02*
D03*
Y12828D02*
D03*
X15682Y13045D02*
D03*
Y12828D02*
D03*
X15407Y13045D02*
D03*
Y12828D02*
D03*
X15131Y13045D02*
D03*
Y12828D02*
D03*
D13*
X16821Y12142D02*
D03*
X16914Y12104D02*
D03*
X16566Y12175D02*
D03*
X16659Y12138D02*
D03*
X16755Y12359D02*
D03*
X16848Y12322D02*
D03*
X16493Y12400D02*
D03*
X16585Y12363D02*
D03*
X16244Y12447D02*
D03*
X16337Y12410D02*
D03*
X16749Y12597D02*
D03*
X16841Y12560D02*
D03*
X16487Y12648D02*
D03*
X16579Y12611D02*
D03*
X16234Y12688D02*
D03*
X16327Y12651D02*
D03*
X16801Y12803D02*
D03*
X16894Y12765D02*
D03*
X16549Y12852D02*
D03*
X16642Y12814D02*
D03*
X16850Y13000D02*
D03*
X16942Y12962D02*
D03*
X16609Y13038D02*
D03*
X16702Y13001D02*
D03*
D14*
X16821Y12067D02*
D03*
X16566Y12101D02*
D03*
X16755Y12284D02*
D03*
X16493Y12325D02*
D03*
X16244Y12372D02*
D03*
X16749Y12523D02*
D03*
X16487Y12573D02*
D03*
X16234Y12613D02*
D03*
X16801Y12728D02*
D03*
X16549Y12777D02*
D03*
X16850Y12925D02*
D03*
X16609Y12963D02*
D03*
D15*
X16752Y12064D02*
D03*
Y12154D02*
D03*
X16498Y12098D02*
D03*
Y12188D02*
D03*
X16686Y12282D02*
D03*
Y12372D02*
D03*
X16424Y12323D02*
D03*
Y12413D02*
D03*
X16175Y12370D02*
D03*
Y12460D02*
D03*
X16680Y12520D02*
D03*
Y12610D02*
D03*
X16418Y12571D02*
D03*
Y12661D02*
D03*
X16168Y12618D02*
D03*
Y12708D02*
D03*
X16740Y12728D02*
D03*
Y12818D02*
D03*
X16485Y12779D02*
D03*
Y12869D02*
D03*
X16786Y12927D02*
D03*
Y13017D02*
D03*
X16546Y12967D02*
D03*
Y13057D02*
D03*
D16*
X17431Y11858D02*
D03*
Y11968D02*
D03*
D19*
X14123Y10950D02*
X14623D01*
X14373Y10700D02*
Y11200D01*
X14323Y10950D02*
Y11000D01*
X14373D01*
X14423Y10900D02*
Y10950D01*
X14373Y10900D02*
X14423D01*
X14378Y10945D02*
X14418D01*
Y10905D02*
Y10945D01*
X14378Y10905D02*
X14418D01*
X14378D02*
Y10945D01*
X14383Y10940D02*
X14413D01*
Y10910D02*
Y10940D01*
X14383Y10910D02*
X14413D01*
X14383D02*
Y10935D01*
X14388D02*
X14408D01*
Y10915D02*
Y10935D01*
X14388Y10915D02*
X14408D01*
X14388D02*
Y10930D01*
X14393D02*
X14403D01*
Y10920D02*
Y10930D01*
X14393Y10920D02*
X14403D01*
X14393D02*
Y10930D01*
Y10925D02*
X14403D01*
X14328Y10995D02*
X14368D01*
Y10955D02*
Y10995D01*
X14328Y10955D02*
X14368D01*
X14328D02*
Y10995D01*
X14333Y10990D02*
X14363D01*
Y10960D02*
Y10990D01*
X14333Y10960D02*
X14363D01*
X14333D02*
Y10985D01*
X14338D02*
X14358D01*
Y10965D02*
Y10985D01*
X14338Y10965D02*
X14358D01*
X14338D02*
Y10980D01*
X14343D02*
X14353D01*
Y10970D02*
Y10980D01*
X14343Y10970D02*
X14353D01*
X14343D02*
Y10980D01*
Y10975D02*
X14353D01*
X17902Y13781D02*
X18402D01*
X18152Y13531D02*
Y14031D01*
X18102Y13781D02*
Y13831D01*
X18152D01*
X18202Y13731D02*
Y13781D01*
X18152Y13731D02*
X18202D01*
X18157Y13776D02*
X18197D01*
Y13736D02*
Y13776D01*
X18157Y13736D02*
X18197D01*
X18157D02*
Y13776D01*
X18162Y13771D02*
X18192D01*
Y13741D02*
Y13771D01*
X18162Y13741D02*
X18192D01*
X18162D02*
Y13766D01*
X18167D02*
X18187D01*
Y13746D02*
Y13766D01*
X18167Y13746D02*
X18187D01*
X18167D02*
Y13761D01*
X18172D02*
X18182D01*
Y13751D02*
Y13761D01*
X18172Y13751D02*
X18182D01*
X18172D02*
Y13761D01*
Y13756D02*
X18182D01*
X18107Y13826D02*
X18147D01*
Y13786D02*
Y13826D01*
X18107Y13786D02*
X18147D01*
X18107D02*
Y13826D01*
X18112Y13821D02*
X18142D01*
Y13791D02*
Y13821D01*
X18112Y13791D02*
X18142D01*
X18112D02*
Y13816D01*
X18117D02*
X18137D01*
Y13796D02*
Y13816D01*
X18117Y13796D02*
X18137D01*
X18117D02*
Y13811D01*
X18122D02*
X18132D01*
Y13801D02*
Y13811D01*
X18122Y13801D02*
X18132D01*
X18122D02*
Y13811D01*
Y13806D02*
X18132D01*
X14042Y13738D02*
X14542D01*
X14292Y13488D02*
Y13988D01*
X14242Y13738D02*
Y13788D01*
X14292D01*
X14342Y13688D02*
Y13738D01*
X14292Y13688D02*
X14342D01*
X14297Y13733D02*
X14337D01*
Y13693D02*
Y13733D01*
X14297Y13693D02*
X14337D01*
X14297D02*
Y13733D01*
X14302Y13728D02*
X14332D01*
Y13698D02*
Y13728D01*
X14302Y13698D02*
X14332D01*
X14302D02*
Y13723D01*
X14307D02*
X14327D01*
Y13703D02*
Y13723D01*
X14307Y13703D02*
X14327D01*
X14307D02*
Y13718D01*
X14312D02*
X14322D01*
Y13708D02*
Y13718D01*
X14312Y13708D02*
X14322D01*
X14312D02*
Y13718D01*
Y13713D02*
X14322D01*
X14247Y13783D02*
X14287D01*
Y13743D02*
Y13783D01*
X14247Y13743D02*
X14287D01*
X14247D02*
Y13783D01*
X14252Y13778D02*
X14282D01*
Y13748D02*
Y13778D01*
X14252Y13748D02*
X14282D01*
X14252D02*
Y13773D01*
X14257D02*
X14277D01*
Y13753D02*
Y13773D01*
X14257Y13753D02*
X14277D01*
X14257D02*
Y13768D01*
X14262D02*
X14272D01*
Y13758D02*
Y13768D01*
X14262Y13758D02*
X14272D01*
X14262D02*
Y13768D01*
Y13763D02*
X14272D01*
D20*
X14961Y10449D02*
Y10369D01*
X15007D01*
X15076D02*
X15046Y10449D01*
X15015Y10369D01*
X15027Y10396D02*
X15065D01*
X15148Y10438D02*
X15141Y10445D01*
X15129Y10449D01*
X15114D01*
X15103Y10445D01*
X15095Y10438D01*
Y10430D01*
X15099Y10423D01*
X15103Y10419D01*
X15110Y10415D01*
X15133Y10407D01*
X15141Y10404D01*
X15145Y10400D01*
X15148Y10392D01*
Y10381D01*
X15141Y10373D01*
X15129Y10369D01*
X15114D01*
X15103Y10373D01*
X15095Y10381D01*
X15286Y10430D02*
X15282Y10438D01*
X15275Y10445D01*
X15267Y10449D01*
X15252D01*
X15244Y10445D01*
X15237Y10438D01*
X15233Y10430D01*
X15229Y10419D01*
Y10400D01*
X15233Y10388D01*
X15237Y10381D01*
X15244Y10373D01*
X15252Y10369D01*
X15267D01*
X15275Y10373D01*
X15282Y10381D01*
X15286Y10388D01*
X15309Y10449D02*
Y10392D01*
X15313Y10381D01*
X15320Y10373D01*
X15332Y10369D01*
X15339D01*
X15351Y10373D01*
X15358Y10381D01*
X15362Y10392D01*
Y10449D01*
X15384D02*
Y10369D01*
Y10449D02*
X15415Y10369D01*
X15445Y10449D02*
X15415Y10369D01*
X15445Y10449D02*
Y10369D01*
X15468Y10449D02*
Y10369D01*
Y10449D02*
X15502D01*
X15514Y10445D01*
X15517Y10442D01*
X15521Y10434D01*
Y10426D01*
X15517Y10419D01*
X15514Y10415D01*
X15502Y10411D01*
X15468D02*
X15502D01*
X15514Y10407D01*
X15517Y10404D01*
X15521Y10396D01*
Y10385D01*
X15517Y10377D01*
X15514Y10373D01*
X15502Y10369D01*
X15468D01*
X15539Y10449D02*
Y10369D01*
Y10449D02*
X15573D01*
X15585Y10445D01*
X15589Y10442D01*
X15593Y10434D01*
Y10426D01*
X15589Y10419D01*
X15585Y10415D01*
X15573Y10411D01*
X15539D01*
X15566D02*
X15593Y10369D01*
X15660Y10449D02*
X15610D01*
Y10369D01*
X15660D01*
X15610Y10411D02*
X15641D01*
X15727Y10438D02*
X15719Y10445D01*
X15708Y10449D01*
X15692D01*
X15681Y10445D01*
X15673Y10438D01*
Y10430D01*
X15677Y10423D01*
X15681Y10419D01*
X15688Y10415D01*
X15711Y10407D01*
X15719Y10404D01*
X15723Y10400D01*
X15727Y10392D01*
Y10381D01*
X15719Y10373D01*
X15708Y10369D01*
X15692D01*
X15681Y10373D01*
X15673Y10381D01*
X15830Y10449D02*
X15823Y10445D01*
X15815Y10438D01*
X15811Y10430D01*
X15807Y10419D01*
Y10400D01*
X15811Y10388D01*
X15815Y10381D01*
X15823Y10373D01*
X15830Y10369D01*
X15845D01*
X15853Y10373D01*
X15861Y10381D01*
X15864Y10388D01*
X15868Y10400D01*
Y10419D01*
X15864Y10430D01*
X15861Y10438D01*
X15853Y10445D01*
X15845Y10449D01*
X15830D01*
X15887D02*
Y10369D01*
Y10449D02*
X15921D01*
X15933Y10445D01*
X15936Y10442D01*
X15940Y10434D01*
Y10426D01*
X15936Y10419D01*
X15933Y10415D01*
X15921Y10411D01*
X15887D02*
X15921D01*
X15933Y10407D01*
X15936Y10404D01*
X15940Y10396D01*
Y10385D01*
X15936Y10377D01*
X15933Y10373D01*
X15921Y10369D01*
X15887D01*
X16011Y10438D02*
X16004Y10445D01*
X15992Y10449D01*
X15977D01*
X15966Y10445D01*
X15958Y10438D01*
Y10430D01*
X15962Y10423D01*
X15966Y10419D01*
X15973Y10415D01*
X15996Y10407D01*
X16004Y10404D01*
X16008Y10400D01*
X16011Y10392D01*
Y10381D01*
X16004Y10373D01*
X15992Y10369D01*
X15977D01*
X15966Y10373D01*
X15958Y10381D01*
X16079Y10449D02*
X16029D01*
Y10369D01*
X16079D01*
X16029Y10411D02*
X16060D01*
X16092Y10449D02*
Y10369D01*
Y10449D02*
X16126D01*
X16138Y10445D01*
X16142Y10442D01*
X16146Y10434D01*
Y10426D01*
X16142Y10419D01*
X16138Y10415D01*
X16126Y10411D01*
X16092D01*
X16119D02*
X16146Y10369D01*
X16163Y10449D02*
X16194Y10369D01*
X16224Y10449D02*
X16194Y10369D01*
X16296D02*
X16265Y10449D01*
X16235Y10369D01*
X16246Y10396D02*
X16284D01*
X16341Y10449D02*
Y10369D01*
X16314Y10449D02*
X16368D01*
X16400D02*
X16392Y10445D01*
X16385Y10438D01*
X16381Y10430D01*
X16377Y10419D01*
Y10400D01*
X16381Y10388D01*
X16385Y10381D01*
X16392Y10373D01*
X16400Y10369D01*
X16415D01*
X16423Y10373D01*
X16430Y10381D01*
X16434Y10388D01*
X16438Y10400D01*
Y10419D01*
X16434Y10430D01*
X16430Y10438D01*
X16423Y10445D01*
X16415Y10449D01*
X16400D01*
X16457D02*
Y10369D01*
Y10449D02*
X16491D01*
X16502Y10445D01*
X16506Y10442D01*
X16510Y10434D01*
Y10426D01*
X16506Y10419D01*
X16502Y10415D01*
X16491Y10411D01*
X16457D01*
X16483D02*
X16510Y10369D01*
X16528Y10449D02*
X16558Y10411D01*
Y10369D01*
X16589Y10449D02*
X16558Y10411D01*
X16913Y10434D02*
X16921Y10438D01*
X16932Y10449D01*
Y10369D01*
X16972Y10434D02*
X16980Y10438D01*
X16991Y10449D01*
Y10369D01*
X17031Y10358D02*
X17084Y10449D01*
X17139Y10423D02*
X17135Y10411D01*
X17127Y10404D01*
X17116Y10400D01*
X17112D01*
X17101Y10404D01*
X17093Y10411D01*
X17089Y10423D01*
Y10426D01*
X17093Y10438D01*
X17101Y10445D01*
X17112Y10449D01*
X17116D01*
X17127Y10445D01*
X17135Y10438D01*
X17139Y10423D01*
Y10404D01*
X17135Y10385D01*
X17127Y10373D01*
X17116Y10369D01*
X17108D01*
X17097Y10373D01*
X17093Y10381D01*
X17161Y10358D02*
X17214Y10449D01*
X17223Y10430D02*
Y10434D01*
X17227Y10442D01*
X17231Y10445D01*
X17238Y10449D01*
X17253D01*
X17261Y10445D01*
X17265Y10442D01*
X17269Y10434D01*
Y10426D01*
X17265Y10419D01*
X17257Y10407D01*
X17219Y10369D01*
X17273D01*
X17313Y10449D02*
X17302Y10445D01*
X17294Y10434D01*
X17290Y10415D01*
Y10404D01*
X17294Y10385D01*
X17302Y10373D01*
X17313Y10369D01*
X17321D01*
X17332Y10373D01*
X17340Y10385D01*
X17344Y10404D01*
Y10415D01*
X17340Y10434D01*
X17332Y10445D01*
X17321Y10449D01*
X17313D01*
X17362Y10434D02*
X17369Y10438D01*
X17381Y10449D01*
Y10369D01*
X17443Y10449D02*
X17432Y10445D01*
X17424Y10434D01*
X17420Y10415D01*
Y10404D01*
X17424Y10385D01*
X17432Y10373D01*
X17443Y10369D01*
X17451D01*
X17462Y10373D01*
X17470Y10385D01*
X17474Y10404D01*
Y10415D01*
X17470Y10434D01*
X17462Y10445D01*
X17451Y10449D01*
X17443D01*
D21*
X14708Y10102D02*
Y10056D01*
X14689Y10090D02*
X14727Y10067D01*
Y10090D02*
X14689Y10067D01*
X14747Y10029D02*
X14743Y10026D01*
X14747Y10022D01*
X14751Y10026D01*
X14747Y10029D01*
X14826Y10083D02*
X14822Y10090D01*
X14814Y10098D01*
X14807Y10102D01*
X14791D01*
X14784Y10098D01*
X14776Y10090D01*
X14772Y10083D01*
X14769Y10071D01*
Y10052D01*
X14772Y10041D01*
X14776Y10033D01*
X14784Y10026D01*
X14791Y10022D01*
X14807D01*
X14814Y10026D01*
X14822Y10033D01*
X14826Y10041D01*
Y10052D01*
X14807D02*
X14826D01*
X14871Y10102D02*
Y10022D01*
X14844Y10102D02*
X14897D01*
X14907Y10060D02*
X14941D01*
X14953Y10064D01*
X14956Y10067D01*
X14960Y10075D01*
Y10086D01*
X14956Y10094D01*
X14953Y10098D01*
X14941Y10102D01*
X14907D01*
Y10022D01*
X15041Y10056D02*
X15109D01*
X15223Y10102D02*
Y10022D01*
X15196Y10102D02*
X15249D01*
X15282D02*
X15274Y10098D01*
X15266Y10090D01*
X15263Y10083D01*
X15259Y10071D01*
Y10052D01*
X15263Y10041D01*
X15266Y10033D01*
X15274Y10026D01*
X15282Y10022D01*
X15297D01*
X15304Y10026D01*
X15312Y10033D01*
X15316Y10041D01*
X15320Y10052D01*
Y10071D01*
X15316Y10083D01*
X15312Y10090D01*
X15304Y10098D01*
X15297Y10102D01*
X15282D01*
X15338Y10060D02*
X15373D01*
X15384Y10064D01*
X15388Y10067D01*
X15392Y10075D01*
Y10086D01*
X15388Y10094D01*
X15384Y10098D01*
X15373Y10102D01*
X15338D01*
Y10022D01*
X15410Y10056D02*
X15478D01*
X15555Y10090D02*
X15547Y10098D01*
X15536Y10102D01*
X15521D01*
X15509Y10098D01*
X15502Y10090D01*
Y10083D01*
X15506Y10075D01*
X15509Y10071D01*
X15517Y10067D01*
X15540Y10060D01*
X15547Y10056D01*
X15551Y10052D01*
X15555Y10045D01*
Y10033D01*
X15547Y10026D01*
X15536Y10022D01*
X15521D01*
X15509Y10026D01*
X15502Y10033D01*
X15573Y10102D02*
Y10022D01*
X15590Y10102D02*
Y10022D01*
Y10102D02*
X15616D01*
X15628Y10098D01*
X15635Y10090D01*
X15639Y10083D01*
X15643Y10071D01*
Y10052D01*
X15639Y10041D01*
X15635Y10033D01*
X15628Y10026D01*
X15616Y10022D01*
X15590D01*
X15710Y10102D02*
X15661D01*
Y10022D01*
X15710D01*
X15661Y10064D02*
X15691D01*
X15840Y10090D02*
X15832Y10098D01*
X15821Y10102D01*
X15806D01*
X15794Y10098D01*
X15787Y10090D01*
Y10083D01*
X15790Y10075D01*
X15794Y10071D01*
X15802Y10067D01*
X15825Y10060D01*
X15832Y10056D01*
X15836Y10052D01*
X15840Y10045D01*
Y10033D01*
X15832Y10026D01*
X15821Y10022D01*
X15806D01*
X15794Y10026D01*
X15787Y10033D01*
X15881Y10102D02*
X15873Y10098D01*
X15866Y10090D01*
X15862Y10083D01*
X15858Y10071D01*
Y10052D01*
X15862Y10041D01*
X15866Y10033D01*
X15873Y10026D01*
X15881Y10022D01*
X15896D01*
X15904Y10026D01*
X15911Y10033D01*
X15915Y10041D01*
X15919Y10052D01*
Y10071D01*
X15915Y10083D01*
X15911Y10090D01*
X15904Y10098D01*
X15896Y10102D01*
X15881D01*
X15937D02*
Y10022D01*
X15983D01*
X15992Y10102D02*
Y10022D01*
Y10102D02*
X16019D01*
X16030Y10098D01*
X16038Y10090D01*
X16041Y10083D01*
X16045Y10071D01*
Y10052D01*
X16041Y10041D01*
X16038Y10033D01*
X16030Y10026D01*
X16019Y10022D01*
X15992D01*
X16113Y10102D02*
X16063D01*
Y10022D01*
X16113D01*
X16063Y10064D02*
X16094D01*
X16126Y10102D02*
Y10022D01*
Y10102D02*
X16160D01*
X16172Y10098D01*
X16176Y10094D01*
X16179Y10086D01*
Y10079D01*
X16176Y10071D01*
X16172Y10067D01*
X16160Y10064D01*
X16126D01*
X16153D02*
X16179Y10022D01*
X16260Y10060D02*
X16294D01*
X16306Y10064D01*
X16310Y10067D01*
X16313Y10075D01*
Y10086D01*
X16310Y10094D01*
X16306Y10098D01*
X16294Y10102D01*
X16260D01*
Y10022D01*
X16392D02*
X16362Y10102D01*
X16331Y10022D01*
X16343Y10048D02*
X16381D01*
X16464Y10090D02*
X16457Y10098D01*
X16445Y10102D01*
X16430D01*
X16419Y10098D01*
X16411Y10090D01*
Y10083D01*
X16415Y10075D01*
X16419Y10071D01*
X16426Y10067D01*
X16449Y10060D01*
X16457Y10056D01*
X16460Y10052D01*
X16464Y10045D01*
Y10033D01*
X16457Y10026D01*
X16445Y10022D01*
X16430D01*
X16419Y10026D01*
X16411Y10033D01*
X16509Y10102D02*
Y10022D01*
X16482Y10102D02*
X16535D01*
X16594D02*
X16545D01*
Y10022D01*
X16594D01*
X16545Y10064D02*
X16575D01*
X16671Y10102D02*
Y10022D01*
Y10102D02*
X16701Y10022D01*
X16732Y10102D02*
X16701Y10022D01*
X16732Y10102D02*
Y10022D01*
X16815D02*
X16785Y10102D01*
X16754Y10022D01*
X16766Y10048D02*
X16804D01*
X16887Y10090D02*
X16880Y10098D01*
X16868Y10102D01*
X16853D01*
X16842Y10098D01*
X16834Y10090D01*
Y10083D01*
X16838Y10075D01*
X16842Y10071D01*
X16849Y10067D01*
X16872Y10060D01*
X16880Y10056D01*
X16884Y10052D01*
X16887Y10045D01*
Y10033D01*
X16880Y10026D01*
X16868Y10022D01*
X16853D01*
X16842Y10026D01*
X16834Y10033D01*
X16905Y10102D02*
Y10022D01*
X16959Y10102D02*
X16905Y10048D01*
X16924Y10067D02*
X16959Y10022D01*
X14961Y10584D02*
X14969Y10588D01*
X14980Y10599D01*
Y10519D01*
X15073Y10599D02*
X15035Y10519D01*
X15020Y10599D02*
X15073D01*
X15137D02*
X15099D01*
X15095Y10565D01*
X15099Y10569D01*
X15110Y10573D01*
X15121D01*
X15133Y10569D01*
X15140Y10561D01*
X15144Y10550D01*
Y10542D01*
X15140Y10531D01*
X15133Y10523D01*
X15121Y10519D01*
X15110D01*
X15099Y10523D01*
X15095Y10527D01*
X15091Y10535D01*
X15162Y10554D02*
X15231D01*
X15277Y10599D02*
X15266Y10595D01*
X15258Y10584D01*
X15254Y10565D01*
Y10554D01*
X15258Y10535D01*
X15266Y10523D01*
X15277Y10519D01*
X15285D01*
X15296Y10523D01*
X15304Y10535D01*
X15308Y10554D01*
Y10565D01*
X15304Y10584D01*
X15296Y10595D01*
X15285Y10599D01*
X15277D01*
X15348D02*
X15337Y10595D01*
X15329Y10584D01*
X15326Y10565D01*
Y10554D01*
X15329Y10535D01*
X15337Y10523D01*
X15348Y10519D01*
X15356D01*
X15367Y10523D01*
X15375Y10535D01*
X15379Y10554D01*
Y10565D01*
X15375Y10584D01*
X15367Y10595D01*
X15356Y10599D01*
X15348D01*
X15420D02*
X15408Y10595D01*
X15401Y10584D01*
X15397Y10565D01*
Y10554D01*
X15401Y10535D01*
X15408Y10523D01*
X15420Y10519D01*
X15427D01*
X15439Y10523D01*
X15446Y10535D01*
X15450Y10554D01*
Y10565D01*
X15446Y10584D01*
X15439Y10595D01*
X15427Y10599D01*
X15420D01*
X15468Y10584D02*
X15476Y10588D01*
X15487Y10599D01*
Y10519D01*
X15576Y10573D02*
X15572Y10561D01*
X15565Y10554D01*
X15553Y10550D01*
X15549D01*
X15538Y10554D01*
X15530Y10561D01*
X15527Y10573D01*
Y10576D01*
X15530Y10588D01*
X15538Y10595D01*
X15549Y10599D01*
X15553D01*
X15565Y10595D01*
X15572Y10588D01*
X15576Y10573D01*
Y10554D01*
X15572Y10535D01*
X15565Y10523D01*
X15553Y10519D01*
X15546D01*
X15534Y10523D01*
X15530Y10531D01*
X15605Y10523D02*
X15602Y10519D01*
X15598Y10523D01*
X15602Y10527D01*
X15605Y10523D01*
Y10515D01*
X15602Y10508D01*
X15598Y10504D01*
X15686Y10557D02*
X15720D01*
X15732Y10561D01*
X15735Y10565D01*
X15739Y10573D01*
Y10584D01*
X15735Y10592D01*
X15732Y10595D01*
X15720Y10599D01*
X15686D01*
Y10519D01*
X15757Y10573D02*
Y10519D01*
Y10550D02*
X15761Y10561D01*
X15768Y10569D01*
X15776Y10573D01*
X15788D01*
X15814D02*
X15806Y10569D01*
X15799Y10561D01*
X15795Y10550D01*
Y10542D01*
X15799Y10531D01*
X15806Y10523D01*
X15814Y10519D01*
X15825D01*
X15833Y10523D01*
X15840Y10531D01*
X15844Y10542D01*
Y10550D01*
X15840Y10561D01*
X15833Y10569D01*
X15825Y10573D01*
X15814D01*
X15862D02*
X15904Y10519D01*
Y10573D02*
X15862Y10519D01*
X15928Y10599D02*
X15932Y10595D01*
X15936Y10599D01*
X15932Y10603D01*
X15928Y10599D01*
X15932Y10573D02*
Y10519D01*
X15950Y10550D02*
X15995D01*
Y10557D01*
X15992Y10565D01*
X15988Y10569D01*
X15980Y10573D01*
X15969D01*
X15961Y10569D01*
X15954Y10561D01*
X15950Y10550D01*
Y10542D01*
X15954Y10531D01*
X15961Y10523D01*
X15969Y10519D01*
X15980D01*
X15988Y10523D01*
X15995Y10531D01*
X16129Y10588D02*
X16121Y10595D01*
X16110Y10599D01*
X16095D01*
X16083Y10595D01*
X16075Y10588D01*
Y10580D01*
X16079Y10573D01*
X16083Y10569D01*
X16091Y10565D01*
X16114Y10557D01*
X16121Y10554D01*
X16125Y10550D01*
X16129Y10542D01*
Y10531D01*
X16121Y10523D01*
X16110Y10519D01*
X16095D01*
X16083Y10523D01*
X16075Y10531D01*
X16147Y10550D02*
X16192D01*
Y10557D01*
X16189Y10565D01*
X16185Y10569D01*
X16177Y10573D01*
X16166D01*
X16158Y10569D01*
X16150Y10561D01*
X16147Y10550D01*
Y10542D01*
X16150Y10531D01*
X16158Y10523D01*
X16166Y10519D01*
X16177D01*
X16185Y10523D01*
X16192Y10531D01*
X16210Y10573D02*
Y10519D01*
Y10557D02*
X16221Y10569D01*
X16229Y10573D01*
X16240D01*
X16248Y10569D01*
X16251Y10557D01*
Y10519D01*
X16314Y10561D02*
X16310Y10569D01*
X16299Y10573D01*
X16288D01*
X16276Y10569D01*
X16272Y10561D01*
X16276Y10554D01*
X16284Y10550D01*
X16303Y10546D01*
X16310Y10542D01*
X16314Y10535D01*
Y10531D01*
X16310Y10523D01*
X16299Y10519D01*
X16288D01*
X16276Y10523D01*
X16272Y10531D01*
X16350Y10573D02*
X16342Y10569D01*
X16335Y10561D01*
X16331Y10550D01*
Y10542D01*
X16335Y10531D01*
X16342Y10523D01*
X16350Y10519D01*
X16361D01*
X16369Y10523D01*
X16377Y10531D01*
X16381Y10542D01*
Y10550D01*
X16377Y10561D01*
X16369Y10569D01*
X16361Y10573D01*
X16350D01*
X16398D02*
Y10519D01*
Y10550D02*
X16402Y10561D01*
X16409Y10569D01*
X16417Y10573D01*
X16429D01*
X16499Y10599D02*
Y10519D01*
Y10599D02*
X16533D01*
X16544Y10595D01*
X16548Y10592D01*
X16552Y10584D01*
Y10576D01*
X16548Y10569D01*
X16544Y10565D01*
X16533Y10561D01*
X16499D02*
X16533D01*
X16544Y10557D01*
X16548Y10554D01*
X16552Y10546D01*
Y10535D01*
X16548Y10527D01*
X16544Y10523D01*
X16533Y10519D01*
X16499D01*
X16570Y10573D02*
Y10519D01*
Y10550D02*
X16574Y10561D01*
X16581Y10569D01*
X16589Y10573D01*
X16600D01*
X16653Y10599D02*
Y10519D01*
Y10561D02*
X16646Y10569D01*
X16638Y10573D01*
X16627D01*
X16619Y10569D01*
X16611Y10561D01*
X16608Y10550D01*
Y10542D01*
X16611Y10531D01*
X16619Y10523D01*
X16627Y10519D01*
X16638D01*
X16646Y10523D01*
X16653Y10531D01*
X16682Y10523D02*
X16678Y10519D01*
X16675Y10523D01*
X16678Y10527D01*
X16682Y10523D01*
Y10515D01*
X16678Y10508D01*
X16675Y10504D01*
X16816Y10588D02*
X16808Y10595D01*
X16797Y10599D01*
X16782D01*
X16770Y10595D01*
X16763Y10588D01*
Y10580D01*
X16766Y10573D01*
X16770Y10569D01*
X16778Y10565D01*
X16801Y10557D01*
X16808Y10554D01*
X16812Y10550D01*
X16816Y10542D01*
Y10531D01*
X16808Y10523D01*
X16797Y10519D01*
X16782D01*
X16770Y10523D01*
X16763Y10531D01*
X16841Y10599D02*
X16845Y10595D01*
X16849Y10599D01*
X16845Y10603D01*
X16841Y10599D01*
X16845Y10573D02*
Y10519D01*
X16863Y10573D02*
Y10519D01*
Y10557D02*
X16875Y10569D01*
X16882Y10573D01*
X16894D01*
X16901Y10569D01*
X16905Y10557D01*
Y10519D01*
X16934Y10599D02*
X16937Y10595D01*
X16941Y10599D01*
X16937Y10603D01*
X16934Y10599D01*
X16937Y10573D02*
Y10519D01*
X16997Y10561D02*
X16993Y10569D01*
X16982Y10573D01*
X16971D01*
X16959Y10569D01*
X16955Y10561D01*
X16959Y10554D01*
X16967Y10550D01*
X16986Y10546D01*
X16993Y10542D01*
X16997Y10535D01*
Y10531D01*
X16993Y10523D01*
X16982Y10519D01*
X16971D01*
X16959Y10523D01*
X16955Y10531D01*
X17025Y10599D02*
Y10535D01*
X17029Y10523D01*
X17037Y10519D01*
X17044D01*
X17014Y10573D02*
X17041D01*
X17056D02*
Y10519D01*
Y10550D02*
X17060Y10561D01*
X17067Y10569D01*
X17075Y10573D01*
X17086D01*
X17113D02*
X17105Y10569D01*
X17097Y10561D01*
X17094Y10550D01*
Y10542D01*
X17097Y10531D01*
X17105Y10523D01*
X17113Y10519D01*
X17124D01*
X17132Y10523D01*
X17139Y10531D01*
X17143Y10542D01*
Y10550D01*
X17139Y10561D01*
X17132Y10569D01*
X17124Y10573D01*
X17113D01*
X17223Y10599D02*
Y10519D01*
Y10599D02*
X17273D01*
X17223Y10561D02*
X17254D01*
X17282Y10599D02*
X17301Y10519D01*
X17320Y10599D02*
X17301Y10519D01*
X17320Y10599D02*
X17339Y10519D01*
X17358Y10599D02*
X17339Y10519D01*
X17382Y10523D02*
X17378Y10519D01*
X17374Y10523D01*
X17378Y10527D01*
X17382Y10523D01*
Y10515D01*
X17378Y10508D01*
X17374Y10504D01*
X17462Y10599D02*
Y10519D01*
Y10599D02*
X17496D01*
X17508Y10595D01*
X17512Y10592D01*
X17516Y10584D01*
Y10576D01*
X17512Y10569D01*
X17508Y10565D01*
X17496Y10561D01*
X17462D01*
X17489D02*
X17516Y10519D01*
X17533Y10550D02*
X17579D01*
Y10557D01*
X17575Y10565D01*
X17572Y10569D01*
X17564Y10573D01*
X17552D01*
X17545Y10569D01*
X17537Y10561D01*
X17533Y10550D01*
Y10542D01*
X17537Y10531D01*
X17545Y10523D01*
X17552Y10519D01*
X17564D01*
X17572Y10523D01*
X17579Y10531D01*
X17596Y10573D02*
X17619Y10519D01*
X17642Y10573D02*
X17619Y10519D01*
X17655Y10493D02*
X17716D01*
X17726Y10584D02*
X17734Y10588D01*
X17745Y10599D01*
Y10519D01*
M02*
