%FSLAX23Y23*%
%MOIN*%
G70*
G01*
G75*
G04 Layer_Physical_Order=8*
G04 Layer_Color=16711680*
%ADD10R,0.050X0.050*%
%ADD11R,0.030X0.125*%
%ADD12R,0.022X0.085*%
%ADD13O,0.024X0.010*%
%ADD14R,0.071X0.075*%
%ADD15O,0.069X0.012*%
%ADD16R,0.050X0.050*%
%ADD17C,0.030*%
%ADD18C,0.020*%
%ADD19C,0.010*%
%ADD20C,0.005*%
%ADD21C,0.012*%
%ADD22C,0.008*%
%ADD23C,0.012*%
%ADD24C,0.012*%
%ADD25C,0.134*%
%ADD26P,0.084X4X165.0*%
%ADD27C,0.059*%
%ADD28R,0.059X0.059*%
%ADD29R,0.059X0.059*%
%ADD30C,0.047*%
%ADD31C,0.024*%
%ADD32P,0.084X4X285.0*%
%ADD33C,0.050*%
%ADD34C,0.040*%
%ADD35C,0.174*%
%ADD36C,0.075*%
%ADD37C,0.087*%
G04:AMPARAMS|DCode=38|XSize=95.433mil|YSize=95.433mil|CornerRadius=0mil|HoleSize=0mil|Usage=FLASHONLY|Rotation=0.000|XOffset=0mil|YOffset=0mil|HoleType=Round|Shape=Relief|Width=10mil|Gap=10mil|Entries=4|*
%AMTHD38*
7,0,0,0.095,0.075,0.010,45*
%
%ADD38THD38*%
%ADD39C,0.068*%
G04:AMPARAMS|DCode=40|XSize=70mil|YSize=70mil|CornerRadius=0mil|HoleSize=0mil|Usage=FLASHONLY|Rotation=0.000|XOffset=0mil|YOffset=0mil|HoleType=Round|Shape=Relief|Width=10mil|Gap=10mil|Entries=4|*
%AMTHD40*
7,0,0,0.070,0.050,0.010,45*
%
%ADD40THD40*%
G04:AMPARAMS|DCode=41|XSize=88mil|YSize=88mil|CornerRadius=0mil|HoleSize=0mil|Usage=FLASHONLY|Rotation=0.000|XOffset=0mil|YOffset=0mil|HoleType=Round|Shape=Relief|Width=10mil|Gap=10mil|Entries=4|*
%AMTHD41*
7,0,0,0.088,0.068,0.010,45*
%
%ADD41THD41*%
%ADD42C,0.075*%
D19*
X41333Y24303D02*
X41332Y24313D01*
X41330Y24322D01*
X41326Y24331D01*
X41320Y24339D01*
X41313Y24347D01*
X41305Y24353D01*
X41296Y24357D01*
X41287Y24360D01*
X41277Y24361D01*
X41267Y24361D01*
X41257Y24359D01*
X41248Y24355D01*
X41240Y24350D01*
X41232Y24343D01*
X41226Y24335D01*
X41221Y24327D01*
X41218Y24317D01*
X41216Y24308D01*
Y24298D01*
X41218Y24288D01*
X41221Y24279D01*
X41226Y24270D01*
X41232Y24262D01*
X41240Y24256D01*
X41248Y24250D01*
X41257Y24247D01*
X41267Y24245D01*
X41277Y24244D01*
X41287Y24245D01*
X41296Y24248D01*
X41305Y24253D01*
X41313Y24259D01*
X41320Y24266D01*
X41326Y24274D01*
X41330Y24283D01*
X41332Y24293D01*
X41333Y24303D01*
X42536Y20760D02*
X42569Y20793D01*
X42031Y20784D02*
X42056Y20760D01*
X42512Y20780D02*
X42561Y20829D01*
X42064Y20780D02*
X42512D01*
X42038Y20806D02*
X42064Y20780D01*
X42056Y20760D02*
X42536D01*
X41711Y20784D02*
X42031D01*
X41668Y20828D02*
X41711Y20784D01*
X41742Y20806D02*
X42038D01*
X41679Y20869D02*
X41742Y20806D01*
X40759Y20869D02*
X41679D01*
X40789Y20828D02*
X41668D01*
X42602Y20793D02*
X42641Y20832D01*
X42569Y20793D02*
X42602D01*
X42508Y21294D02*
X42592D01*
X42505Y21297D02*
X42508Y21294D01*
X42196Y21297D02*
X42505D01*
X42499Y21282D02*
X42520Y21261D01*
X42128Y21282D02*
X42499D01*
X42463Y21215D02*
X42479Y21200D01*
X42034Y21215D02*
X42463D01*
X42030Y21211D02*
X42034Y21215D01*
X41071Y21211D02*
X42030D01*
X41063Y21219D02*
X41071Y21211D01*
X41103Y21318D02*
X42092D01*
X40997Y21211D02*
X41103Y21318D01*
X42092D02*
X42128Y21282D01*
X42154Y21339D02*
X42196Y21297D01*
X41064Y21339D02*
X42154D01*
X41019Y21294D02*
X41064Y21339D01*
X41010Y21119D02*
X41018Y21111D01*
X41137D01*
X41173Y21148D02*
X41980D01*
X41137Y21111D02*
X41173Y21148D01*
X42080Y21163D02*
X42679D01*
X42063Y21145D02*
X42080Y21163D01*
X41980Y21148D02*
X41982Y21145D01*
X42063D01*
X41018Y21295D02*
X41019Y21294D01*
X42592D02*
X42597Y21299D01*
X40990Y21218D02*
X40997Y21211D01*
X41111Y21545D02*
X42382D01*
X40786Y21499D02*
X41065D01*
X42382Y21545D02*
X42385Y21542D01*
X41065Y21499D02*
X41111Y21545D01*
X40672Y21612D02*
X40786Y21499D01*
X40672Y21612D02*
Y21650D01*
X40655Y21667D02*
X40672Y21650D01*
X40933Y21663D02*
X41024Y21572D01*
X41289D01*
X41304Y21587D01*
X42440D01*
D21*
X39060Y19499D02*
Y19453D01*
X39041Y19488D02*
X39079Y19465D01*
Y19488D02*
X39041Y19465D01*
X39099Y19427D02*
X39095Y19423D01*
X39099Y19419D01*
X39103Y19423D01*
X39099Y19427D01*
X39177Y19480D02*
X39173Y19488D01*
X39166Y19495D01*
X39158Y19499D01*
X39143D01*
X39135Y19495D01*
X39128Y19488D01*
X39124Y19480D01*
X39120Y19469D01*
Y19450D01*
X39124Y19438D01*
X39128Y19431D01*
X39135Y19423D01*
X39143Y19419D01*
X39158D01*
X39166Y19423D01*
X39173Y19431D01*
X39177Y19438D01*
Y19450D01*
X39158D02*
X39177D01*
X39196Y19499D02*
Y19419D01*
Y19499D02*
X39230D01*
X39241Y19495D01*
X39245Y19492D01*
X39249Y19484D01*
Y19476D01*
X39245Y19469D01*
X39241Y19465D01*
X39230Y19461D01*
X39196D02*
X39230D01*
X39241Y19457D01*
X39245Y19453D01*
X39249Y19446D01*
Y19434D01*
X39245Y19427D01*
X39241Y19423D01*
X39230Y19419D01*
X39196D01*
X39267Y19499D02*
Y19419D01*
X39313D01*
X39384Y19453D02*
X39453D01*
X39539Y19499D02*
Y19419D01*
Y19499D02*
X39573D01*
X39585Y19495D01*
X39589Y19492D01*
X39592Y19484D01*
Y19476D01*
X39589Y19469D01*
X39585Y19465D01*
X39573Y19461D01*
X39539D02*
X39573D01*
X39585Y19457D01*
X39589Y19453D01*
X39592Y19446D01*
Y19434D01*
X39589Y19427D01*
X39585Y19423D01*
X39573Y19419D01*
X39539D01*
X39633Y19499D02*
X39626Y19495D01*
X39618Y19488D01*
X39614Y19480D01*
X39610Y19469D01*
Y19450D01*
X39614Y19438D01*
X39618Y19431D01*
X39626Y19423D01*
X39633Y19419D01*
X39648D01*
X39656Y19423D01*
X39664Y19431D01*
X39667Y19438D01*
X39671Y19450D01*
Y19469D01*
X39667Y19480D01*
X39664Y19488D01*
X39656Y19495D01*
X39648Y19499D01*
X39633D01*
X39717D02*
Y19419D01*
X39690Y19499D02*
X39743D01*
X39779D02*
Y19419D01*
X39753Y19499D02*
X39806D01*
X39838D02*
X39831Y19495D01*
X39823Y19488D01*
X39819Y19480D01*
X39816Y19469D01*
Y19450D01*
X39819Y19438D01*
X39823Y19431D01*
X39831Y19423D01*
X39838Y19419D01*
X39854D01*
X39861Y19423D01*
X39869Y19431D01*
X39873Y19438D01*
X39877Y19450D01*
Y19469D01*
X39873Y19480D01*
X39869Y19488D01*
X39861Y19495D01*
X39854Y19499D01*
X39838D01*
X39895D02*
Y19419D01*
Y19499D02*
X39926Y19419D01*
X39956Y19499D02*
X39926Y19419D01*
X39956Y19499D02*
Y19419D01*
X40042Y19499D02*
Y19419D01*
X40088D01*
X40157D02*
X40127Y19499D01*
X40096Y19419D01*
X40108Y19446D02*
X40146D01*
X40176Y19499D02*
X40206Y19461D01*
Y19419D01*
X40237Y19499D02*
X40206Y19461D01*
X40297Y19499D02*
X40247D01*
Y19419D01*
X40297D01*
X40247Y19461D02*
X40278D01*
X40310Y19499D02*
Y19419D01*
Y19499D02*
X40344D01*
X40356Y19495D01*
X40360Y19492D01*
X40363Y19484D01*
Y19476D01*
X40360Y19469D01*
X40356Y19465D01*
X40344Y19461D01*
X40310D01*
X40337D02*
X40363Y19419D01*
X40501Y19480D02*
X40497Y19488D01*
X40490Y19495D01*
X40482Y19499D01*
X40467D01*
X40459Y19495D01*
X40452Y19488D01*
X40448Y19480D01*
X40444Y19469D01*
Y19450D01*
X40448Y19438D01*
X40452Y19431D01*
X40459Y19423D01*
X40467Y19419D01*
X40482D01*
X40490Y19423D01*
X40497Y19431D01*
X40501Y19438D01*
Y19450D01*
X40482D02*
X40501D01*
X40569Y19499D02*
X40519D01*
Y19419D01*
X40569D01*
X40519Y19461D02*
X40550D01*
X40582Y19499D02*
Y19419D01*
Y19499D02*
X40617D01*
X40628Y19495D01*
X40632Y19492D01*
X40636Y19484D01*
Y19476D01*
X40632Y19469D01*
X40628Y19465D01*
X40617Y19461D01*
X40582D01*
X40609D02*
X40636Y19419D01*
X40654Y19499D02*
Y19419D01*
Y19499D02*
X40688D01*
X40699Y19495D01*
X40703Y19492D01*
X40707Y19484D01*
Y19476D01*
X40703Y19469D01*
X40699Y19465D01*
X40688Y19461D01*
X40654D02*
X40688D01*
X40699Y19457D01*
X40703Y19453D01*
X40707Y19446D01*
Y19434D01*
X40703Y19427D01*
X40699Y19423D01*
X40688Y19419D01*
X40654D01*
X40774Y19499D02*
X40725D01*
Y19419D01*
X40774D01*
X40725Y19461D02*
X40755D01*
X40788Y19499D02*
Y19419D01*
Y19499D02*
X40822D01*
X40833Y19495D01*
X40837Y19492D01*
X40841Y19484D01*
Y19476D01*
X40837Y19469D01*
X40833Y19465D01*
X40822Y19461D01*
X40788D01*
X40814D02*
X40841Y19419D01*
X40922Y19499D02*
Y19419D01*
Y19499D02*
X40948D01*
X40960Y19495D01*
X40967Y19488D01*
X40971Y19480D01*
X40975Y19469D01*
Y19450D01*
X40971Y19438D01*
X40967Y19431D01*
X40960Y19423D01*
X40948Y19419D01*
X40922D01*
X41054D02*
X41023Y19499D01*
X40993Y19419D01*
X41004Y19446D02*
X41042D01*
X41099Y19499D02*
Y19419D01*
X41073Y19499D02*
X41126D01*
X41196Y19419D02*
X41166Y19499D01*
X41135Y19419D01*
X41147Y19446D02*
X41185D01*
D22*
X41813Y24996D02*
Y24979D01*
Y24987D01*
X41763D01*
X41772Y24996D01*
X41763Y24954D02*
Y24921D01*
X41772D01*
X41805Y24954D01*
X41813D01*
X41763Y24871D02*
Y24904D01*
X41788D01*
X41780Y24887D01*
Y24879D01*
X41788Y24871D01*
X41805D01*
X41813Y24879D01*
Y24896D01*
X41805Y24904D01*
X41788Y24854D02*
Y24821D01*
X41772Y24804D02*
X41763Y24796D01*
Y24779D01*
X41772Y24771D01*
X41805D01*
X41813Y24779D01*
Y24796D01*
X41805Y24804D01*
X41772D01*
Y24754D02*
X41763Y24746D01*
Y24729D01*
X41772Y24721D01*
X41805D01*
X41813Y24729D01*
Y24746D01*
X41805Y24754D01*
X41772D01*
Y24704D02*
X41763Y24696D01*
Y24679D01*
X41772Y24671D01*
X41805D01*
X41813Y24679D01*
Y24696D01*
X41805Y24704D01*
X41772D01*
X41813Y24621D02*
Y24654D01*
X41780Y24621D01*
X41772D01*
X41763Y24629D01*
Y24646D01*
X41772Y24654D01*
Y24604D02*
X41763Y24596D01*
Y24579D01*
X41772Y24571D01*
X41805D01*
X41813Y24579D01*
Y24596D01*
X41805Y24604D01*
X41772D01*
X41813Y24504D02*
X41763D01*
Y24479D01*
X41772Y24471D01*
X41788D01*
X41797Y24479D01*
Y24504D01*
Y24487D02*
X41813Y24471D01*
Y24429D02*
Y24446D01*
X41805Y24454D01*
X41788D01*
X41780Y24446D01*
Y24429D01*
X41788Y24421D01*
X41797D01*
Y24454D01*
X41780Y24404D02*
X41813Y24387D01*
X41780Y24371D01*
X41813Y24304D02*
Y24288D01*
Y24296D01*
X41763D01*
X41772Y24304D01*
X41822Y24254D02*
X41813Y24246D01*
X41805D01*
Y24254D01*
X41813D01*
Y24246D01*
X41822Y24254D01*
X41830Y24263D01*
X41813Y24163D02*
X41763D01*
Y24138D01*
X41772Y24129D01*
X41788D01*
X41797Y24138D01*
Y24163D01*
X41772Y24079D02*
X41763Y24088D01*
Y24104D01*
X41772Y24113D01*
X41805D01*
X41813Y24104D01*
Y24088D01*
X41805Y24079D01*
X41763Y24063D02*
X41813D01*
Y24038D01*
X41805Y24029D01*
X41797D01*
X41788Y24038D01*
Y24063D01*
Y24038D01*
X41780Y24029D01*
X41772D01*
X41763Y24038D01*
Y24063D01*
X41822Y24004D02*
X41813Y23996D01*
X41805D01*
Y24004D01*
X41813D01*
Y23996D01*
X41822Y24004D01*
X41830Y24013D01*
X41772Y23879D02*
X41763Y23888D01*
Y23904D01*
X41772Y23913D01*
X41780D01*
X41788Y23904D01*
Y23888D01*
X41797Y23879D01*
X41805D01*
X41813Y23888D01*
Y23904D01*
X41805Y23913D01*
X41763Y23863D02*
Y23829D01*
Y23846D01*
X41813D01*
X41763Y23779D02*
Y23813D01*
X41813D01*
Y23779D01*
X41788Y23813D02*
Y23796D01*
X41813Y23763D02*
X41763D01*
Y23738D01*
X41772Y23729D01*
X41788D01*
X41797Y23738D01*
Y23763D01*
X41813Y23663D02*
X41763D01*
X41780Y23646D01*
X41763Y23629D01*
X41813D01*
X41763Y23588D02*
Y23604D01*
X41772Y23613D01*
X41805D01*
X41813Y23604D01*
Y23588D01*
X41805Y23579D01*
X41772D01*
X41763Y23588D01*
Y23563D02*
Y23529D01*
Y23546D01*
X41813D01*
X41763Y23488D02*
Y23504D01*
X41772Y23513D01*
X41805D01*
X41813Y23504D01*
Y23488D01*
X41805Y23479D01*
X41772D01*
X41763Y23488D01*
X41813Y23463D02*
X41763D01*
Y23438D01*
X41772Y23429D01*
X41788D01*
X41797Y23438D01*
Y23463D01*
Y23446D02*
X41813Y23429D01*
X41763Y23363D02*
Y23346D01*
Y23354D01*
X41813D01*
Y23363D01*
Y23346D01*
Y23321D02*
X41763D01*
X41813Y23288D01*
X41763D01*
Y23271D02*
Y23238D01*
Y23255D01*
X41813D01*
X41763Y23188D02*
Y23221D01*
X41813D01*
Y23188D01*
X41788Y23221D02*
Y23205D01*
X41813Y23171D02*
X41763D01*
Y23146D01*
X41772Y23138D01*
X41788D01*
X41797Y23146D01*
Y23171D01*
Y23155D02*
X41813Y23138D01*
X41772Y23088D02*
X41763Y23096D01*
Y23113D01*
X41772Y23121D01*
X41805D01*
X41813Y23113D01*
Y23096D01*
X41805Y23088D01*
X41763Y23046D02*
Y23063D01*
X41772Y23071D01*
X41805D01*
X41813Y23063D01*
Y23046D01*
X41805Y23038D01*
X41772D01*
X41763Y23046D01*
X41813Y23021D02*
X41763D01*
X41813Y22988D01*
X41763D01*
X41813Y22971D02*
X41763D01*
X41813Y22938D01*
X41763D01*
Y22888D02*
Y22921D01*
X41813D01*
Y22888D01*
X41788Y22921D02*
Y22905D01*
X41772Y22838D02*
X41763Y22846D01*
Y22863D01*
X41772Y22871D01*
X41805D01*
X41813Y22863D01*
Y22846D01*
X41805Y22838D01*
X41763Y22821D02*
Y22788D01*
Y22805D01*
X41813D01*
X41090Y24354D02*
X41140D01*
Y24321D01*
Y24304D02*
X41107D01*
X41090Y24287D01*
X41107Y24271D01*
X41140D01*
X41115D01*
Y24304D01*
X41099Y24221D02*
X41090Y24229D01*
Y24246D01*
X41099Y24254D01*
X41107D01*
X41115Y24246D01*
Y24229D01*
X41124Y24221D01*
X41132D01*
X41140Y24229D01*
Y24246D01*
X41132Y24254D01*
X41099Y24121D02*
X41090Y24129D01*
Y24146D01*
X41099Y24154D01*
X41132D01*
X41140Y24146D01*
Y24129D01*
X41132Y24121D01*
X41090Y24104D02*
X41132D01*
X41140Y24096D01*
Y24079D01*
X41132Y24071D01*
X41090D01*
X41140Y24054D02*
X41090D01*
X41107Y24037D01*
X41090Y24021D01*
X41140D01*
X41090Y24004D02*
X41140D01*
Y23979D01*
X41132Y23971D01*
X41124D01*
X41115Y23979D01*
Y24004D01*
Y23979D01*
X41107Y23971D01*
X41099D01*
X41090Y23979D01*
Y24004D01*
X41140Y23954D02*
X41090D01*
Y23929D01*
X41099Y23921D01*
X41115D01*
X41124Y23929D01*
Y23954D01*
Y23937D02*
X41140Y23921D01*
X41090Y23871D02*
Y23904D01*
X41140D01*
Y23871D01*
X41115Y23904D02*
Y23887D01*
X41099Y23821D02*
X41090Y23829D01*
Y23846D01*
X41099Y23854D01*
X41107D01*
X41115Y23846D01*
Y23829D01*
X41124Y23821D01*
X41132D01*
X41140Y23829D01*
Y23846D01*
X41132Y23854D01*
X41090Y23729D02*
Y23746D01*
X41099Y23754D01*
X41132D01*
X41140Y23746D01*
Y23729D01*
X41132Y23721D01*
X41099D01*
X41090Y23729D01*
Y23704D02*
X41140D01*
Y23679D01*
X41132Y23671D01*
X41124D01*
X41115Y23679D01*
Y23704D01*
Y23679D01*
X41107Y23671D01*
X41099D01*
X41090Y23679D01*
Y23704D01*
X41099Y23621D02*
X41090Y23629D01*
Y23646D01*
X41099Y23654D01*
X41107D01*
X41115Y23646D01*
Y23629D01*
X41124Y23621D01*
X41132D01*
X41140Y23629D01*
Y23646D01*
X41132Y23654D01*
X41090Y23571D02*
Y23604D01*
X41140D01*
Y23571D01*
X41115Y23604D02*
Y23587D01*
X41140Y23554D02*
X41090D01*
Y23529D01*
X41099Y23521D01*
X41115D01*
X41124Y23529D01*
Y23554D01*
Y23537D02*
X41140Y23521D01*
X41090Y23504D02*
X41124D01*
X41140Y23487D01*
X41124Y23471D01*
X41090D01*
X41140Y23454D02*
X41107D01*
X41090Y23438D01*
X41107Y23421D01*
X41140D01*
X41115D01*
Y23454D01*
X41090Y23404D02*
Y23371D01*
Y23388D01*
X41140D01*
X41090Y23329D02*
Y23346D01*
X41099Y23354D01*
X41132D01*
X41140Y23346D01*
Y23329D01*
X41132Y23321D01*
X41099D01*
X41090Y23329D01*
X41140Y23304D02*
X41090D01*
Y23279D01*
X41099Y23271D01*
X41115D01*
X41124Y23279D01*
Y23304D01*
Y23288D02*
X41140Y23271D01*
X41090Y23254D02*
X41099D01*
X41115Y23238D01*
X41099Y23221D01*
X41090D01*
X41115Y23238D02*
X41140D01*
X41256Y24297D02*
Y24322D01*
X41265Y24330D01*
X41281D01*
X41290Y24322D01*
Y24297D01*
Y24097D02*
Y24130D01*
X41256Y24097D01*
X41248D01*
X41240Y24105D01*
Y24122D01*
X41248Y24130D01*
Y24080D02*
X41240Y24072D01*
Y24055D01*
X41248Y24047D01*
X41281D01*
X41290Y24055D01*
Y24072D01*
X41281Y24080D01*
X41248D01*
X41290Y24030D02*
Y24014D01*
Y24022D01*
X41240D01*
X41248Y24030D01*
Y23989D02*
X41240Y23980D01*
Y23964D01*
X41248Y23955D01*
X41281D01*
X41290Y23964D01*
Y23980D01*
X41281Y23989D01*
X41248D01*
X35245Y20325D02*
X35255D01*
X35245Y20320D02*
Y20330D01*
Y20320D02*
X35255D01*
Y20330D01*
X35245D02*
X35255D01*
X35240Y20315D02*
Y20330D01*
Y20315D02*
X35260D01*
Y20335D01*
X35240D02*
X35260D01*
X35235Y20310D02*
Y20335D01*
Y20310D02*
X35265D01*
Y20340D01*
X35235D02*
X35265D01*
X35230Y20305D02*
Y20345D01*
Y20305D02*
X35270D01*
Y20345D01*
X35230D02*
X35270D01*
X35295Y20275D02*
X35305D01*
X35295Y20270D02*
Y20280D01*
Y20270D02*
X35305D01*
Y20280D01*
X35295D02*
X35305D01*
X35290Y20265D02*
Y20280D01*
Y20265D02*
X35310D01*
Y20285D01*
X35290D02*
X35310D01*
X35285Y20260D02*
Y20285D01*
Y20260D02*
X35315D01*
Y20290D01*
X35285D02*
X35315D01*
X35280Y20255D02*
Y20295D01*
Y20255D02*
X35320D01*
Y20295D01*
X35280D02*
X35320D01*
X35275Y20250D02*
X35325D01*
Y20300D01*
X35225Y20350D02*
X35275D01*
X35225Y20300D02*
Y20350D01*
X35275Y20050D02*
Y20550D01*
X35025Y20300D02*
X35525D01*
X43265Y35125D02*
X43275D01*
X43265Y35120D02*
Y35130D01*
Y35120D02*
X43275D01*
Y35130D01*
X43265D02*
X43275D01*
X43260Y35115D02*
Y35130D01*
Y35115D02*
X43280D01*
Y35135D01*
X43260D02*
X43280D01*
X43255Y35110D02*
Y35135D01*
Y35110D02*
X43285D01*
Y35140D01*
X43255D02*
X43285D01*
X43250Y35105D02*
Y35145D01*
Y35105D02*
X43290D01*
Y35145D01*
X43250D02*
X43290D01*
X43315Y35075D02*
X43325D01*
X43315Y35070D02*
Y35080D01*
Y35070D02*
X43325D01*
Y35080D01*
X43315D02*
X43325D01*
X43310Y35065D02*
Y35080D01*
Y35065D02*
X43330D01*
Y35085D01*
X43310D02*
X43330D01*
X43305Y35060D02*
Y35085D01*
Y35060D02*
X43335D01*
Y35090D01*
X43305D02*
X43335D01*
X43300Y35055D02*
Y35095D01*
Y35055D02*
X43340D01*
Y35095D01*
X43300D02*
X43340D01*
X43295Y35050D02*
X43345D01*
Y35100D01*
X43245Y35150D02*
X43295D01*
X43245Y35100D02*
Y35150D01*
X43295Y34850D02*
Y35350D01*
X43045Y35100D02*
X43545D01*
X34505Y35125D02*
X34515D01*
X34505Y35120D02*
Y35130D01*
Y35120D02*
X34515D01*
Y35130D01*
X34505D02*
X34515D01*
X34500Y35115D02*
Y35130D01*
Y35115D02*
X34520D01*
Y35135D01*
X34500D02*
X34520D01*
X34495Y35110D02*
Y35135D01*
Y35110D02*
X34525D01*
Y35140D01*
X34495D02*
X34525D01*
X34490Y35105D02*
Y35145D01*
Y35105D02*
X34530D01*
Y35145D01*
X34490D02*
X34530D01*
X34555Y35075D02*
X34565D01*
X34555Y35070D02*
Y35080D01*
Y35070D02*
X34565D01*
Y35080D01*
X34555D02*
X34565D01*
X34550Y35065D02*
Y35080D01*
Y35065D02*
X34570D01*
Y35085D01*
X34550D02*
X34570D01*
X34545Y35060D02*
Y35085D01*
Y35060D02*
X34575D01*
Y35090D01*
X34545D02*
X34575D01*
X34540Y35055D02*
Y35095D01*
Y35055D02*
X34580D01*
Y35095D01*
X34540D02*
X34580D01*
X34535Y35050D02*
X34585D01*
Y35100D01*
X34485Y35150D02*
X34535D01*
X34485Y35100D02*
Y35150D01*
X34535Y34850D02*
Y35350D01*
X34285Y35100D02*
X34785D01*
D23*
X39062Y19780D02*
Y19700D01*
X39107D01*
X39177D02*
X39147Y19780D01*
X39116Y19700D01*
X39127Y19726D02*
X39166D01*
X39249Y19768D02*
X39241Y19776D01*
X39230Y19780D01*
X39215D01*
X39203Y19776D01*
X39196Y19768D01*
Y19761D01*
X39199Y19753D01*
X39203Y19749D01*
X39211Y19745D01*
X39234Y19738D01*
X39241Y19734D01*
X39245Y19730D01*
X39249Y19723D01*
Y19711D01*
X39241Y19704D01*
X39230Y19700D01*
X39215D01*
X39203Y19704D01*
X39196Y19711D01*
X39387Y19761D02*
X39383Y19768D01*
X39375Y19776D01*
X39368Y19780D01*
X39353D01*
X39345Y19776D01*
X39337Y19768D01*
X39334Y19761D01*
X39330Y19749D01*
Y19730D01*
X39334Y19719D01*
X39337Y19711D01*
X39345Y19704D01*
X39353Y19700D01*
X39368D01*
X39375Y19704D01*
X39383Y19711D01*
X39387Y19719D01*
X39409Y19780D02*
Y19723D01*
X39413Y19711D01*
X39421Y19704D01*
X39432Y19700D01*
X39440D01*
X39451Y19704D01*
X39459Y19711D01*
X39463Y19723D01*
Y19780D01*
X39485D02*
Y19700D01*
Y19780D02*
X39515Y19700D01*
X39546Y19780D02*
X39515Y19700D01*
X39546Y19780D02*
Y19700D01*
X39569Y19780D02*
Y19700D01*
Y19780D02*
X39603D01*
X39614Y19776D01*
X39618Y19772D01*
X39622Y19764D01*
Y19757D01*
X39618Y19749D01*
X39614Y19745D01*
X39603Y19742D01*
X39569D02*
X39603D01*
X39614Y19738D01*
X39618Y19734D01*
X39622Y19726D01*
Y19715D01*
X39618Y19707D01*
X39614Y19704D01*
X39603Y19700D01*
X39569D01*
X39640Y19780D02*
Y19700D01*
Y19780D02*
X39674D01*
X39685Y19776D01*
X39689Y19772D01*
X39693Y19764D01*
Y19757D01*
X39689Y19749D01*
X39685Y19745D01*
X39674Y19742D01*
X39640D01*
X39666D02*
X39693Y19700D01*
X39760Y19780D02*
X39711D01*
Y19700D01*
X39760D01*
X39711Y19742D02*
X39741D01*
X39827Y19768D02*
X39820Y19776D01*
X39808Y19780D01*
X39793D01*
X39781Y19776D01*
X39774Y19768D01*
Y19761D01*
X39778Y19753D01*
X39781Y19749D01*
X39789Y19745D01*
X39812Y19738D01*
X39820Y19734D01*
X39823Y19730D01*
X39827Y19723D01*
Y19711D01*
X39820Y19704D01*
X39808Y19700D01*
X39793D01*
X39781Y19704D01*
X39774Y19711D01*
X39931Y19780D02*
X39923Y19776D01*
X39916Y19768D01*
X39912Y19761D01*
X39908Y19749D01*
Y19730D01*
X39912Y19719D01*
X39916Y19711D01*
X39923Y19704D01*
X39931Y19700D01*
X39946D01*
X39954Y19704D01*
X39961Y19711D01*
X39965Y19719D01*
X39969Y19730D01*
Y19749D01*
X39965Y19761D01*
X39961Y19768D01*
X39954Y19776D01*
X39946Y19780D01*
X39931D01*
X39987D02*
Y19700D01*
Y19780D02*
X40022D01*
X40033Y19776D01*
X40037Y19772D01*
X40041Y19764D01*
Y19757D01*
X40037Y19749D01*
X40033Y19745D01*
X40022Y19742D01*
X39987D02*
X40022D01*
X40033Y19738D01*
X40037Y19734D01*
X40041Y19726D01*
Y19715D01*
X40037Y19707D01*
X40033Y19704D01*
X40022Y19700D01*
X39987D01*
X40112Y19768D02*
X40104Y19776D01*
X40093Y19780D01*
X40078D01*
X40066Y19776D01*
X40059Y19768D01*
Y19761D01*
X40063Y19753D01*
X40066Y19749D01*
X40074Y19745D01*
X40097Y19738D01*
X40104Y19734D01*
X40108Y19730D01*
X40112Y19723D01*
Y19711D01*
X40104Y19704D01*
X40093Y19700D01*
X40078D01*
X40066Y19704D01*
X40059Y19711D01*
X40179Y19780D02*
X40130D01*
Y19700D01*
X40179D01*
X40130Y19742D02*
X40160D01*
X40193Y19780D02*
Y19700D01*
Y19780D02*
X40227D01*
X40238Y19776D01*
X40242Y19772D01*
X40246Y19764D01*
Y19757D01*
X40242Y19749D01*
X40238Y19745D01*
X40227Y19742D01*
X40193D01*
X40219D02*
X40246Y19700D01*
X40264Y19780D02*
X40294Y19700D01*
X40325Y19780D02*
X40294Y19700D01*
X40396D02*
X40366Y19780D01*
X40335Y19700D01*
X40347Y19726D02*
X40385D01*
X40441Y19780D02*
Y19700D01*
X40415Y19780D02*
X40468D01*
X40501D02*
X40493Y19776D01*
X40485Y19768D01*
X40481Y19761D01*
X40478Y19749D01*
Y19730D01*
X40481Y19719D01*
X40485Y19711D01*
X40493Y19704D01*
X40501Y19700D01*
X40516D01*
X40523Y19704D01*
X40531Y19711D01*
X40535Y19719D01*
X40539Y19730D01*
Y19749D01*
X40535Y19761D01*
X40531Y19768D01*
X40523Y19776D01*
X40516Y19780D01*
X40501D01*
X40557D02*
Y19700D01*
Y19780D02*
X40592D01*
X40603Y19776D01*
X40607Y19772D01*
X40611Y19764D01*
Y19757D01*
X40607Y19749D01*
X40603Y19745D01*
X40592Y19742D01*
X40557D01*
X40584D02*
X40611Y19700D01*
X40629Y19780D02*
X40659Y19742D01*
Y19700D01*
X40689Y19780D02*
X40659Y19742D01*
X41014Y19764D02*
X41022Y19768D01*
X41033Y19780D01*
Y19700D01*
X41073Y19764D02*
X41080Y19768D01*
X41092Y19780D01*
Y19700D01*
X41131Y19688D02*
X41185Y19780D01*
X41194Y19761D02*
Y19764D01*
X41198Y19772D01*
X41201Y19776D01*
X41209Y19780D01*
X41224D01*
X41232Y19776D01*
X41236Y19772D01*
X41239Y19764D01*
Y19757D01*
X41236Y19749D01*
X41228Y19738D01*
X41190Y19700D01*
X41243D01*
X41311Y19753D02*
X41307Y19742D01*
X41299Y19734D01*
X41288Y19730D01*
X41284D01*
X41273Y19734D01*
X41265Y19742D01*
X41261Y19753D01*
Y19757D01*
X41265Y19768D01*
X41273Y19776D01*
X41284Y19780D01*
X41288D01*
X41299Y19776D01*
X41307Y19768D01*
X41311Y19753D01*
Y19734D01*
X41307Y19715D01*
X41299Y19704D01*
X41288Y19700D01*
X41280D01*
X41269Y19704D01*
X41265Y19711D01*
X41332Y19688D02*
X41386Y19780D01*
X41395Y19761D02*
Y19764D01*
X41399Y19772D01*
X41402Y19776D01*
X41410Y19780D01*
X41425D01*
X41433Y19776D01*
X41437Y19772D01*
X41441Y19764D01*
Y19757D01*
X41437Y19749D01*
X41429Y19738D01*
X41391Y19700D01*
X41444D01*
X41485Y19780D02*
X41474Y19776D01*
X41466Y19764D01*
X41462Y19745D01*
Y19734D01*
X41466Y19715D01*
X41474Y19704D01*
X41485Y19700D01*
X41493D01*
X41504Y19704D01*
X41512Y19715D01*
X41516Y19734D01*
Y19745D01*
X41512Y19764D01*
X41504Y19776D01*
X41493Y19780D01*
X41485D01*
X41533Y19764D02*
X41541Y19768D01*
X41552Y19780D01*
Y19700D01*
X41615Y19780D02*
X41604Y19776D01*
X41596Y19764D01*
X41592Y19745D01*
Y19734D01*
X41596Y19715D01*
X41604Y19704D01*
X41615Y19700D01*
X41623D01*
X41634Y19704D01*
X41642Y19715D01*
X41645Y19734D01*
Y19745D01*
X41642Y19764D01*
X41634Y19776D01*
X41623Y19780D01*
X41615D01*
D24*
X39062Y19915D02*
X39069Y19918D01*
X39081Y19930D01*
Y19850D01*
X39174Y19930D02*
X39135Y19850D01*
X39120Y19930D02*
X39174D01*
X39237D02*
X39199D01*
X39195Y19895D01*
X39199Y19899D01*
X39211Y19903D01*
X39222D01*
X39233Y19899D01*
X39241Y19892D01*
X39245Y19880D01*
Y19873D01*
X39241Y19861D01*
X39233Y19854D01*
X39222Y19850D01*
X39211D01*
X39199Y19854D01*
X39195Y19857D01*
X39191Y19865D01*
X39263Y19884D02*
X39331D01*
X39378Y19930D02*
X39366Y19926D01*
X39359Y19915D01*
X39355Y19895D01*
Y19884D01*
X39359Y19865D01*
X39366Y19854D01*
X39378Y19850D01*
X39385D01*
X39397Y19854D01*
X39404Y19865D01*
X39408Y19884D01*
Y19895D01*
X39404Y19915D01*
X39397Y19926D01*
X39385Y19930D01*
X39378D01*
X39449D02*
X39438Y19926D01*
X39430Y19915D01*
X39426Y19895D01*
Y19884D01*
X39430Y19865D01*
X39438Y19854D01*
X39449Y19850D01*
X39457D01*
X39468Y19854D01*
X39476Y19865D01*
X39479Y19884D01*
Y19895D01*
X39476Y19915D01*
X39468Y19926D01*
X39457Y19930D01*
X39449D01*
X39520D02*
X39509Y19926D01*
X39501Y19915D01*
X39497Y19895D01*
Y19884D01*
X39501Y19865D01*
X39509Y19854D01*
X39520Y19850D01*
X39528D01*
X39539Y19854D01*
X39547Y19865D01*
X39551Y19884D01*
Y19895D01*
X39547Y19915D01*
X39539Y19926D01*
X39528Y19930D01*
X39520D01*
X39572Y19911D02*
Y19915D01*
X39576Y19922D01*
X39580Y19926D01*
X39588Y19930D01*
X39603D01*
X39610Y19926D01*
X39614Y19922D01*
X39618Y19915D01*
Y19907D01*
X39614Y19899D01*
X39607Y19888D01*
X39569Y19850D01*
X39622D01*
X39663Y19930D02*
X39651Y19926D01*
X39644Y19915D01*
X39640Y19895D01*
Y19884D01*
X39644Y19865D01*
X39651Y19854D01*
X39663Y19850D01*
X39670D01*
X39682Y19854D01*
X39689Y19865D01*
X39693Y19884D01*
Y19895D01*
X39689Y19915D01*
X39682Y19926D01*
X39670Y19930D01*
X39663D01*
X39711Y19823D02*
X39772D01*
X39782Y19903D02*
Y19850D01*
Y19880D02*
X39786Y19892D01*
X39794Y19899D01*
X39801Y19903D01*
X39813D01*
X39820Y19880D02*
X39866D01*
Y19888D01*
X39862Y19895D01*
X39858Y19899D01*
X39850Y19903D01*
X39839D01*
X39831Y19899D01*
X39824Y19892D01*
X39820Y19880D01*
Y19873D01*
X39824Y19861D01*
X39831Y19854D01*
X39839Y19850D01*
X39850D01*
X39858Y19854D01*
X39866Y19861D01*
X39883Y19903D02*
X39906Y19850D01*
X39928Y19903D02*
X39906Y19850D01*
X39941Y19915D02*
X39949Y19918D01*
X39960Y19930D01*
Y19850D01*
X40116Y19918D02*
X40109Y19926D01*
X40097Y19930D01*
X40082D01*
X40071Y19926D01*
X40063Y19918D01*
Y19911D01*
X40067Y19903D01*
X40071Y19899D01*
X40078Y19895D01*
X40101Y19888D01*
X40109Y19884D01*
X40112Y19880D01*
X40116Y19873D01*
Y19861D01*
X40109Y19854D01*
X40097Y19850D01*
X40082D01*
X40071Y19854D01*
X40063Y19861D01*
X40146Y19930D02*
Y19865D01*
X40149Y19854D01*
X40157Y19850D01*
X40165D01*
X40134Y19903D02*
X40161D01*
X40176Y19880D02*
X40222D01*
Y19888D01*
X40218Y19895D01*
X40214Y19899D01*
X40206Y19903D01*
X40195D01*
X40187Y19899D01*
X40180Y19892D01*
X40176Y19880D01*
Y19873D01*
X40180Y19861D01*
X40187Y19854D01*
X40195Y19850D01*
X40206D01*
X40214Y19854D01*
X40222Y19861D01*
X40239Y19903D02*
Y19823D01*
Y19892D02*
X40246Y19899D01*
X40254Y19903D01*
X40266D01*
X40273Y19899D01*
X40281Y19892D01*
X40285Y19880D01*
Y19873D01*
X40281Y19861D01*
X40273Y19854D01*
X40266Y19850D01*
X40254D01*
X40246Y19854D01*
X40239Y19861D01*
X40365Y19930D02*
Y19850D01*
Y19930D02*
X40395Y19850D01*
X40425Y19930D02*
X40395Y19850D01*
X40425Y19930D02*
Y19850D01*
X40467Y19903D02*
X40460Y19899D01*
X40452Y19892D01*
X40448Y19880D01*
Y19873D01*
X40452Y19861D01*
X40460Y19854D01*
X40467Y19850D01*
X40479D01*
X40486Y19854D01*
X40494Y19861D01*
X40498Y19873D01*
Y19880D01*
X40494Y19892D01*
X40486Y19899D01*
X40479Y19903D01*
X40467D01*
X40527Y19930D02*
Y19865D01*
X40531Y19854D01*
X40538Y19850D01*
X40546D01*
X40515Y19903D02*
X40542D01*
X40576D02*
X40569Y19899D01*
X40561Y19892D01*
X40557Y19880D01*
Y19873D01*
X40561Y19861D01*
X40569Y19854D01*
X40576Y19850D01*
X40588D01*
X40595Y19854D01*
X40603Y19861D01*
X40607Y19873D01*
Y19880D01*
X40603Y19892D01*
X40595Y19899D01*
X40588Y19903D01*
X40576D01*
X40624D02*
Y19850D01*
Y19880D02*
X40628Y19892D01*
X40636Y19899D01*
X40643Y19903D01*
X40655D01*
X40725Y19930D02*
Y19850D01*
X40742Y19903D02*
Y19850D01*
Y19888D02*
X40753Y19899D01*
X40761Y19903D01*
X40772D01*
X40780Y19899D01*
X40784Y19888D01*
Y19850D01*
X40816Y19930D02*
Y19865D01*
X40820Y19854D01*
X40827Y19850D01*
X40835D01*
X40804Y19903D02*
X40831D01*
X40846Y19880D02*
X40892D01*
Y19888D01*
X40888Y19895D01*
X40884Y19899D01*
X40877Y19903D01*
X40865D01*
X40858Y19899D01*
X40850Y19892D01*
X40846Y19880D01*
Y19873D01*
X40850Y19861D01*
X40858Y19854D01*
X40865Y19850D01*
X40877D01*
X40884Y19854D01*
X40892Y19861D01*
X40909Y19903D02*
Y19850D01*
Y19880D02*
X40913Y19892D01*
X40921Y19899D01*
X40928Y19903D01*
X40940D01*
X40993Y19892D02*
X40985Y19899D01*
X40977Y19903D01*
X40966D01*
X40958Y19899D01*
X40951Y19892D01*
X40947Y19880D01*
Y19873D01*
X40951Y19861D01*
X40958Y19854D01*
X40966Y19850D01*
X40977D01*
X40985Y19854D01*
X40993Y19861D01*
X41029Y19903D02*
X41021Y19899D01*
X41014Y19892D01*
X41010Y19880D01*
Y19873D01*
X41014Y19861D01*
X41021Y19854D01*
X41029Y19850D01*
X41040D01*
X41048Y19854D01*
X41055Y19861D01*
X41059Y19873D01*
Y19880D01*
X41055Y19892D01*
X41048Y19899D01*
X41040Y19903D01*
X41029D01*
X41077D02*
Y19850D01*
Y19888D02*
X41088Y19899D01*
X41096Y19903D01*
X41107D01*
X41115Y19899D01*
X41119Y19888D01*
Y19850D01*
X41140Y19903D02*
Y19850D01*
Y19888D02*
X41151Y19899D01*
X41159Y19903D01*
X41170D01*
X41178Y19899D01*
X41182Y19888D01*
Y19850D01*
X41202Y19880D02*
X41248D01*
Y19888D01*
X41244Y19895D01*
X41241Y19899D01*
X41233Y19903D01*
X41222D01*
X41214Y19899D01*
X41206Y19892D01*
X41202Y19880D01*
Y19873D01*
X41206Y19861D01*
X41214Y19854D01*
X41222Y19850D01*
X41233D01*
X41241Y19854D01*
X41248Y19861D01*
X41311Y19892D02*
X41303Y19899D01*
X41296Y19903D01*
X41284D01*
X41277Y19899D01*
X41269Y19892D01*
X41265Y19880D01*
Y19873D01*
X41269Y19861D01*
X41277Y19854D01*
X41284Y19850D01*
X41296D01*
X41303Y19854D01*
X41311Y19861D01*
X41340Y19930D02*
Y19865D01*
X41343Y19854D01*
X41351Y19850D01*
X41359D01*
X41328Y19903D02*
X41355D01*
D25*
X40384Y21661D02*
D03*
X43140Y20874D02*
D03*
X41487Y25834D02*
D03*
X36069Y29279D02*
D03*
X37321Y33315D02*
D03*
X40613D02*
D03*
X41865Y29279D02*
D03*
D26*
X40968Y31939D02*
D03*
D27*
X40918Y32026D02*
D03*
X40868Y32113D02*
D03*
X40818Y32199D02*
D03*
X38923Y28724D02*
D03*
X39023D02*
D03*
X39123D02*
D03*
X41120Y21051D02*
D03*
Y21151D02*
D03*
Y21251D02*
D03*
X37063Y32108D02*
D03*
X37013Y32021D02*
D03*
X36963Y31935D02*
D03*
X40364Y21354D02*
D03*
X40464D02*
D03*
X40364Y21254D02*
D03*
X40464D02*
D03*
X40364Y21154D02*
D03*
X40464D02*
D03*
X40364Y21054D02*
D03*
X40464Y21054D02*
D03*
X40364Y20954D02*
D03*
D28*
X38823Y28724D02*
D03*
D29*
X41120Y20951D02*
D03*
X40464Y20954D02*
D03*
D30*
X42728Y20966D02*
D03*
X41683Y20966D02*
D03*
X42728Y21841D02*
D03*
X41683Y21841D02*
D03*
X43060Y22201D02*
D03*
X42211D02*
D03*
X42373Y21396D02*
D03*
X41328D02*
D03*
D31*
X40832Y21646D02*
D03*
Y21607D02*
D03*
X43010Y22307D02*
D03*
X40789Y20829D02*
D03*
X40759Y20869D02*
D03*
X40841Y21198D02*
D03*
X40844Y21244D02*
D03*
X40834Y21098D02*
D03*
X40984Y21041D02*
D03*
X40622Y20869D02*
D03*
X40710Y20872D02*
D03*
X43010Y22067D02*
D03*
X42561Y20829D02*
D03*
X42641Y20832D02*
D03*
X42520Y21261D02*
D03*
X42479Y21200D02*
D03*
X41063Y21219D02*
D03*
X41010Y21119D02*
D03*
X42679Y21163D02*
D03*
X41018Y21295D02*
D03*
X42597Y21299D02*
D03*
X40990Y21218D02*
D03*
X42385Y21542D02*
D03*
X40655Y21667D02*
D03*
X40933Y21663D02*
D03*
X42440Y21587D02*
D03*
X40988Y21316D02*
D03*
X40980Y21375D02*
D03*
X40554Y21403D02*
D03*
X40533Y21248D02*
D03*
X40561Y21171D02*
D03*
X40552Y21091D02*
D03*
D32*
X37113Y32194D02*
D03*
D33*
X41770Y21653D02*
D03*
X42326Y20828D02*
D03*
X42244D02*
D03*
X42166D02*
D03*
X42096Y20820D02*
D03*
X40555Y21041D02*
D03*
X40558Y20982D02*
D03*
X41050Y21534D02*
D03*
X40707Y21627D02*
D03*
X40984Y21694D02*
D03*
X43040Y21088D02*
D03*
X43030Y21489D02*
D03*
X43055Y21560D02*
D03*
X43070Y21949D02*
D03*
X42403Y21707D02*
D03*
X42562Y21694D02*
D03*
X42639Y21699D02*
D03*
X42280Y21115D02*
D03*
X42204D02*
D03*
X42124D02*
D03*
X42048Y21180D02*
D03*
X41965Y21113D02*
D03*
X41890D02*
D03*
X41812D02*
D03*
X41733D02*
D03*
X42014Y20846D02*
D03*
X41773D02*
D03*
X41852D02*
D03*
X41927D02*
D03*
X41928Y21713D02*
D03*
X42263Y21649D02*
D03*
X42178Y21653D02*
D03*
X42087Y21651D02*
D03*
X42002Y21653D02*
D03*
X41274Y21607D02*
D03*
X41370Y21631D02*
D03*
X41451Y21671D02*
D03*
X41588Y21654D02*
D03*
X41855Y21662D02*
D03*
X41683Y21679D02*
D03*
M02*
