M48
;Layer_Color=9474304
;FILE_FORMAT=2:3
INCH,LZ
;TYPE=PLATED
T1F00S00C0.010
T2F00S00C0.013
T3F00S00C0.028
T4F00S00C0.030
T5F00S00C0.035
T6F00S00C0.036
T7F00S00C0.040
T8F00S00C0.047
T9F00S00C0.050
T10F00S00C0.060
T11F00S00C0.063
T12F00S00C0.091
%
T01
X04646Y00205
X04415Y00411
X04109Y00475
X04136Y00524
X04165Y00625
X04055Y00575
X03401Y00629
X03287Y00675
X02763Y00488
X02722Y00517
X0232Y00427
X0207Y00676
X01992
X01785Y00604
X01715Y0065
X0114Y00345
Y00295
Y0024
X00975Y0027
X0097Y00395
X0092
X0087
X00815
X0071
Y0033
X00715Y00255
X00545Y0037
X00379Y00487
X00186Y00488
X00183Y0037
X00174Y00606
X0107Y004
X01018Y00698
X00914Y00782
X00915Y00845
X0096
Y0091
X00875
X0082Y00855
X00762Y00899
X00708Y00849
X00621Y00853
X00576Y009
X00572Y0081
X00315Y00714
X00181Y01343
X00172Y01463
X00178Y0158
X00314Y01698
X00372Y01464
X00617Y01439
X00618Y01503
X00619Y01374
X00663Y01376
X00747Y01304
X00775Y01251
X00769Y012
X00894Y01294
X00863Y01435
X00843Y01481
X00869Y01555
X00963Y01556
X00947Y0164
X00939Y01725
X01038Y01726
X00831Y01723
X00749Y01722
X0056Y01315
X0111Y01317
X01113Y01257
X01182Y01545
X01715Y01437
X01714Y01185
X0178Y01196
X01836Y01122
X01948Y00899
X01924Y00874
X01902Y00853
X01911Y00812
X01992Y00746
Y00712
X02173Y00705
X0232Y00731
X02247Y00855
X02257Y00885
X02287Y00895
X02504
X02696Y00715
X02741Y01157
Y01187
Y01217
Y01247
Y01277
Y01307
X02758Y01425
X02788Y01405
X02816Y01385
X02504Y01432
X02173Y01505
X02218Y01581
Y01122
X02468Y01939
X03418Y01328
X03618Y01284
X03718Y0124
X03818Y0135
X03917Y01306
X04017Y01262
X04203Y01556
X04083Y00725
X04029Y00749
X03636Y00754
X03408Y00761
X03139Y026
X03101Y02699
X03176Y02751
X03023Y03223
X02987Y03281
X0306Y03337
X03986Y03043
X0277Y02491
X02836Y02353
X02876
Y02314
Y02274
X02836
Y02314
X02403Y02464
X0207Y02321
X01908Y02554
X02037Y03294
X01948Y03498
X00979Y03379
X00976Y03176
X00972Y02992
X00936Y0282
X00785Y02644
X00752Y02528
X00573Y02321
X00374Y02438
X0017Y02436
X00177Y02319
X00175Y02555
X00296Y02665
X00177Y03292
X00172Y0341
X00177Y0353
X00309Y0364
X00379Y03407
X00583Y03293
X00985Y03703
X01038Y02411
T02
X00817Y00767
Y00814
X00838Y01324
Y01371
T03
X03629Y00343
X01184Y00842
X00315Y00991
X01048Y02004
X02708Y01718
X02743Y01647
X03751Y0184
X03925Y03743
X02523Y03379
X00979Y02761
T04
X04007Y0255
Y0265
Y0275
X0416Y027
Y026
Y025
Y028
Y0326
Y0336
Y0346
Y0356
X04007Y0351
Y0341
Y0331
T05
X04276Y00525
Y00625
X04376Y00675
Y00575
Y00475
Y00775
X04276Y00825
Y00725
X04018Y01012
X03918
X03818
X03718
X03618
X03518
X03418
Y01112
X03518
X03618
X03718
X03818
X03918
X04018
T06
X04326Y01451
Y01549
X04425
Y01451
T07
X04819Y00401
X04759Y00501
X04819Y00799
X04759Y00899
T08
X04726Y01975
Y02125
Y02275
Y02425
Y02575
Y02725
Y02875
Y03025
Y03175
Y03325
Y03475
Y03625
T09
X03552Y02067
X03907Y01979
T10
X03381Y02874
X03735Y03028
X03723Y03679
T11
X04506Y0034
Y0096
T12
X01407Y003
X04531Y01263
Y01737
X031Y03607
X01407
M30
