%FSLAX23Y23*%
%MOIN*%
G70*
G01*
G75*
G04 Layer_Physical_Order=1*
G04 Layer_Color=255*
%ADD10R,0.025X0.100*%
%ADD11R,0.057X0.012*%
%ADD12R,0.025X0.185*%
%ADD13R,0.085X0.138*%
%ADD14R,0.085X0.043*%
%ADD15R,0.085X0.043*%
%ADD16R,0.035X0.053*%
%ADD17R,0.053X0.053*%
%ADD18R,0.070X0.135*%
%ADD19R,0.036X0.036*%
%ADD20R,0.098X0.268*%
%ADD21R,0.078X0.048*%
%ADD22R,0.063X0.075*%
%ADD23R,0.050X0.050*%
%ADD24R,0.079X0.209*%
%ADD25R,0.094X0.130*%
%ADD26O,0.028X0.098*%
%ADD27R,0.087X0.059*%
%ADD28O,0.027X0.010*%
%ADD29R,0.065X0.094*%
%ADD30O,0.024X0.010*%
%ADD31R,0.135X0.070*%
%ADD32R,0.050X0.050*%
%ADD33R,0.115X0.050*%
%ADD34R,0.065X0.135*%
%ADD35C,0.050*%
%ADD36C,0.008*%
%ADD37C,0.005*%
%ADD38C,0.012*%
%ADD39C,0.010*%
%ADD40C,0.020*%
%ADD41C,0.100*%
%ADD42C,0.030*%
%ADD43C,0.025*%
%ADD44C,0.012*%
%ADD45C,0.012*%
%ADD46C,0.060*%
%ADD47C,0.039*%
%ADD48C,0.220*%
%ADD49C,0.020*%
%ADD50C,0.059*%
%ADD51R,0.059X0.059*%
%ADD52C,0.063*%
%ADD53C,0.116*%
%ADD54C,0.065*%
%ADD55C,0.100*%
%ADD56C,0.079*%
%ADD57R,0.059X0.059*%
%ADD58C,0.059*%
%ADD59C,0.087*%
%ADD60R,0.087X0.087*%
%ADD61C,0.157*%
%ADD62C,0.026*%
%ADD63C,0.024*%
%ADD64C,0.050*%
G36*
X12898Y11260D02*
X12827D01*
Y11355D01*
X12898D01*
Y11260D01*
D02*
G37*
G36*
X13017D02*
X12904D01*
Y11355D01*
X13017D01*
Y11260D01*
D02*
G37*
G36*
X13222Y11195D02*
Y10881D01*
X12732D01*
Y11079D01*
X12793D01*
Y11080D01*
X12806D01*
Y10970D01*
X12808Y10965D01*
X12812Y10963D01*
X12947D01*
X12952Y10965D01*
X12954Y10970D01*
Y11180D01*
X12952Y11184D01*
X12947Y11186D01*
X12928D01*
X12927Y11186D01*
X12923Y11187D01*
X12916D01*
Y11199D01*
X12943Y11199D01*
X12943Y11199D01*
X12949Y11195D01*
X12956Y11193D01*
X12963Y11195D01*
X12969Y11199D01*
X12969Y11199D01*
X13217Y11200D01*
X13222Y11195D01*
D02*
G37*
G36*
X12817Y11189D02*
X12725D01*
Y10875D01*
X13222D01*
Y10635D01*
X12700D01*
Y10636D01*
X12672D01*
Y11199D01*
X12817D01*
Y11189D01*
D02*
G37*
G36*
X12947Y10970D02*
X12812D01*
Y11155D01*
X12902D01*
Y11180D01*
X12947D01*
Y10970D01*
D02*
G37*
G36*
X16869Y12258D02*
X16868Y12256D01*
X16867Y12253D01*
X16336D01*
Y12886D01*
X16719D01*
Y12850D01*
X16818D01*
Y12886D01*
X16869D01*
Y12258D01*
D02*
G37*
G36*
X13002Y11941D02*
X13002D01*
X13002Y11941D01*
X13003Y11941D01*
X13003Y11941D01*
X13003Y11941D01*
X13003Y11941D01*
X13003Y11940D01*
Y11848D01*
X12984D01*
Y11804D01*
X12910D01*
X12909Y11803D01*
X12848D01*
Y11848D01*
X12778D01*
X12777Y11848D01*
X12776Y11849D01*
Y11941D01*
X12777Y11941D01*
X12778Y11942D01*
X13001D01*
X13002Y11941D01*
D02*
G37*
G36*
X12881Y12033D02*
X12881Y12033D01*
Y11949D01*
Y11949D01*
X12841D01*
X12841Y11948D01*
X12776D01*
X12772Y11946D01*
X12770Y11942D01*
Y11848D01*
X12772Y11843D01*
X12776Y11841D01*
X12838D01*
Y11806D01*
X12834Y11802D01*
X12738D01*
X12737Y11802D01*
X12736Y11803D01*
Y11848D01*
X12748D01*
Y11935D01*
X12736D01*
Y12034D01*
X12880D01*
X12881Y12033D01*
D02*
G37*
G36*
X12730Y11933D02*
X12732Y11929D01*
X12736Y11927D01*
X12739D01*
Y11857D01*
X12736D01*
X12732Y11855D01*
X12730Y11850D01*
Y11802D01*
X12732Y11797D01*
X12736Y11795D01*
X12816D01*
X12816Y11795D01*
X12833D01*
X12836Y11794D01*
Y11780D01*
X12634D01*
X12634Y11780D01*
X12634Y11780D01*
X12633Y11780D01*
Y11953D01*
X12730D01*
Y11933D01*
D02*
G37*
G36*
X13133Y12008D02*
X13119D01*
Y11946D01*
X13133D01*
Y11787D01*
X13129Y11783D01*
X13046D01*
Y11786D01*
X13046D01*
Y11848D01*
X13010D01*
Y11941D01*
X13010Y11941D01*
X13010Y11941D01*
X13009Y11943D01*
X13008Y11945D01*
X13008Y11945D01*
X13008Y11946D01*
X13007Y11947D01*
X13005Y11947D01*
X13002Y11948D01*
X12888D01*
X12888Y11949D01*
Y12034D01*
X12886Y12038D01*
X12881Y12040D01*
X12736D01*
Y12292D01*
X12736Y12292D01*
X12736Y12292D01*
X12737Y12294D01*
X13133D01*
Y12008D01*
D02*
G37*
%LPC*%
G36*
X13112Y10851D02*
X13104Y10849D01*
X13097Y10845D01*
X13092Y10838D01*
X13091Y10830D01*
Y10806D01*
X13081D01*
Y10744D01*
X13143D01*
Y10753D01*
X13182D01*
X13190Y10755D01*
X13197Y10759D01*
X13202Y10766D01*
X13204Y10775D01*
X13202Y10783D01*
X13197Y10790D01*
X13190Y10794D01*
X13182Y10796D01*
X13143D01*
Y10806D01*
X13134D01*
Y10830D01*
X13132Y10838D01*
X13127Y10845D01*
X13120Y10849D01*
X13112Y10851D01*
D02*
G37*
G36*
X13060Y11146D02*
X13053Y11145D01*
X13047Y11141D01*
X13043Y11135D01*
X13042Y11128D01*
X13043Y11121D01*
X13047Y11115D01*
X13053Y11111D01*
X13060Y11109D01*
X13067Y11111D01*
X13073Y11115D01*
X13077Y11121D01*
X13078Y11128D01*
X13077Y11135D01*
X13073Y11141D01*
X13067Y11145D01*
X13060Y11146D01*
D02*
G37*
%LPD*%
D10*
X14547Y11409D02*
D03*
Y11531D02*
D03*
Y12196D02*
D03*
Y10744D02*
D03*
X13757Y11409D02*
D03*
Y11531D02*
D03*
Y12196D02*
D03*
Y10744D02*
D03*
D11*
X14669Y12149D02*
D03*
Y12129D02*
D03*
Y12110D02*
D03*
Y12090D02*
D03*
Y12070D02*
D03*
Y12050D02*
D03*
Y12031D02*
D03*
Y12011D02*
D03*
Y11991D02*
D03*
Y11972D02*
D03*
Y11952D02*
D03*
Y11932D02*
D03*
Y11913D02*
D03*
Y11893D02*
D03*
Y11873D02*
D03*
Y11854D02*
D03*
Y11834D02*
D03*
Y11814D02*
D03*
Y11795D02*
D03*
Y11775D02*
D03*
Y11755D02*
D03*
Y11736D02*
D03*
Y11716D02*
D03*
Y11696D02*
D03*
Y11676D02*
D03*
Y11657D02*
D03*
Y11637D02*
D03*
Y11617D02*
D03*
Y11598D02*
D03*
Y11578D02*
D03*
Y11362D02*
D03*
Y11342D02*
D03*
Y11322D02*
D03*
Y11302D02*
D03*
Y11283D02*
D03*
Y11263D02*
D03*
Y11243D02*
D03*
Y11224D02*
D03*
Y11204D02*
D03*
Y11184D02*
D03*
Y11165D02*
D03*
Y11145D02*
D03*
Y11125D02*
D03*
Y11106D02*
D03*
Y11086D02*
D03*
Y11066D02*
D03*
Y11047D02*
D03*
Y11027D02*
D03*
Y11007D02*
D03*
Y10987D02*
D03*
Y10968D02*
D03*
Y10948D02*
D03*
Y10928D02*
D03*
Y10909D02*
D03*
Y10889D02*
D03*
Y10869D02*
D03*
Y10850D02*
D03*
Y10830D02*
D03*
Y10810D02*
D03*
Y10791D02*
D03*
X14425Y12149D02*
D03*
Y12129D02*
D03*
Y12110D02*
D03*
Y12090D02*
D03*
Y12070D02*
D03*
Y12050D02*
D03*
Y12031D02*
D03*
Y12011D02*
D03*
Y11991D02*
D03*
Y11972D02*
D03*
Y11952D02*
D03*
Y11932D02*
D03*
Y11913D02*
D03*
Y11893D02*
D03*
Y11873D02*
D03*
Y11854D02*
D03*
Y11834D02*
D03*
Y11814D02*
D03*
Y11795D02*
D03*
Y11775D02*
D03*
Y11755D02*
D03*
Y11736D02*
D03*
Y11716D02*
D03*
Y11696D02*
D03*
Y11676D02*
D03*
Y11657D02*
D03*
Y11637D02*
D03*
Y11617D02*
D03*
Y11598D02*
D03*
Y11578D02*
D03*
Y11362D02*
D03*
Y11342D02*
D03*
Y11322D02*
D03*
Y11302D02*
D03*
Y11283D02*
D03*
Y11263D02*
D03*
Y11243D02*
D03*
Y11224D02*
D03*
Y11204D02*
D03*
Y11184D02*
D03*
Y11165D02*
D03*
Y11145D02*
D03*
Y11125D02*
D03*
Y11106D02*
D03*
Y11086D02*
D03*
Y11066D02*
D03*
Y11047D02*
D03*
Y11027D02*
D03*
Y11007D02*
D03*
Y10987D02*
D03*
Y10968D02*
D03*
Y10948D02*
D03*
Y10928D02*
D03*
Y10909D02*
D03*
Y10889D02*
D03*
Y10869D02*
D03*
Y10850D02*
D03*
Y10830D02*
D03*
Y10810D02*
D03*
Y10791D02*
D03*
X13878Y12149D02*
D03*
Y12129D02*
D03*
Y12110D02*
D03*
Y12090D02*
D03*
Y12070D02*
D03*
Y12050D02*
D03*
Y12031D02*
D03*
Y12011D02*
D03*
Y11991D02*
D03*
Y11972D02*
D03*
Y11952D02*
D03*
Y11932D02*
D03*
Y11913D02*
D03*
Y11893D02*
D03*
Y11873D02*
D03*
Y11854D02*
D03*
Y11834D02*
D03*
Y11814D02*
D03*
Y11795D02*
D03*
Y11775D02*
D03*
Y11755D02*
D03*
Y11736D02*
D03*
Y11716D02*
D03*
Y11696D02*
D03*
Y11676D02*
D03*
Y11657D02*
D03*
Y11637D02*
D03*
Y11617D02*
D03*
Y11598D02*
D03*
Y11578D02*
D03*
Y11362D02*
D03*
Y11342D02*
D03*
Y11322D02*
D03*
Y11302D02*
D03*
Y11283D02*
D03*
Y11263D02*
D03*
Y11243D02*
D03*
Y11224D02*
D03*
Y11204D02*
D03*
Y11184D02*
D03*
Y11165D02*
D03*
Y11145D02*
D03*
Y11125D02*
D03*
Y11106D02*
D03*
Y11086D02*
D03*
Y11066D02*
D03*
Y11047D02*
D03*
Y11027D02*
D03*
Y11007D02*
D03*
Y10987D02*
D03*
Y10968D02*
D03*
Y10948D02*
D03*
Y10928D02*
D03*
Y10909D02*
D03*
Y10889D02*
D03*
Y10869D02*
D03*
Y10850D02*
D03*
Y10830D02*
D03*
Y10810D02*
D03*
Y10791D02*
D03*
X13635Y12149D02*
D03*
Y12129D02*
D03*
Y12110D02*
D03*
Y12090D02*
D03*
Y12070D02*
D03*
Y12050D02*
D03*
Y12031D02*
D03*
Y12011D02*
D03*
Y11991D02*
D03*
Y11972D02*
D03*
Y11952D02*
D03*
Y11932D02*
D03*
Y11913D02*
D03*
Y11893D02*
D03*
Y11873D02*
D03*
Y11854D02*
D03*
Y11834D02*
D03*
Y11814D02*
D03*
Y11795D02*
D03*
Y11775D02*
D03*
Y11755D02*
D03*
Y11736D02*
D03*
Y11716D02*
D03*
Y11696D02*
D03*
Y11676D02*
D03*
Y11657D02*
D03*
Y11637D02*
D03*
Y11617D02*
D03*
Y11598D02*
D03*
Y11578D02*
D03*
Y11362D02*
D03*
Y11342D02*
D03*
Y11322D02*
D03*
Y11302D02*
D03*
Y11283D02*
D03*
Y11263D02*
D03*
Y11243D02*
D03*
Y11224D02*
D03*
Y11204D02*
D03*
Y11184D02*
D03*
Y11165D02*
D03*
Y11145D02*
D03*
Y11125D02*
D03*
Y11106D02*
D03*
Y11086D02*
D03*
Y11066D02*
D03*
Y11047D02*
D03*
Y11027D02*
D03*
Y11007D02*
D03*
Y10987D02*
D03*
Y10968D02*
D03*
Y10948D02*
D03*
Y10928D02*
D03*
Y10909D02*
D03*
Y10889D02*
D03*
Y10869D02*
D03*
Y10850D02*
D03*
Y10830D02*
D03*
Y10810D02*
D03*
Y10791D02*
D03*
D12*
X14547Y11988D02*
D03*
Y11738D02*
D03*
Y10951D02*
D03*
Y11201D02*
D03*
X13757Y11988D02*
D03*
Y11738D02*
D03*
Y10951D02*
D03*
Y11201D02*
D03*
D13*
X14902Y12743D02*
D03*
D14*
X14658Y12653D02*
D03*
Y12834D02*
D03*
D15*
Y12743D02*
D03*
D16*
X16109Y11971D02*
D03*
Y11884D02*
D03*
X16183D02*
D03*
D17*
X16176Y11971D02*
D03*
D18*
X15793Y12138D02*
D03*
X16382Y12674D02*
D03*
X12442Y11417D02*
D03*
X15759Y10779D02*
D03*
D19*
X15369Y11104D02*
D03*
X15406Y11190D02*
D03*
X15443Y11104D02*
D03*
D20*
X15598Y13545D02*
D03*
Y14025D02*
D03*
X15595Y12722D02*
D03*
Y13202D02*
D03*
D21*
X13004Y12642D02*
D03*
X12894D02*
D03*
X14553Y12475D02*
D03*
X14663D02*
D03*
X13015Y13073D02*
D03*
X12905D02*
D03*
D22*
X13074Y11895D02*
D03*
X12964D02*
D03*
X12710Y11892D02*
D03*
X12820D02*
D03*
D23*
X14566Y12570D02*
D03*
X14656D02*
D03*
X12437Y10799D02*
D03*
X12527D02*
D03*
X12458Y11773D02*
D03*
X12548D02*
D03*
X12469Y12748D02*
D03*
X12559D02*
D03*
X12468Y13722D02*
D03*
X12558D02*
D03*
X16755Y10636D02*
D03*
X16845D02*
D03*
X16713Y11492D02*
D03*
X16803D02*
D03*
X13150Y11977D02*
D03*
X13060D02*
D03*
X13105Y11752D02*
D03*
X13015D02*
D03*
Y11817D02*
D03*
X13105D02*
D03*
X13015Y11687D02*
D03*
X13105D02*
D03*
X12662Y11330D02*
D03*
X12752D02*
D03*
X13157Y11315D02*
D03*
X13067D02*
D03*
X13157Y11235D02*
D03*
X13067D02*
D03*
X12747Y11240D02*
D03*
X12657D02*
D03*
X12867Y11320D02*
D03*
X12957D02*
D03*
X14568Y12368D02*
D03*
X14658D02*
D03*
X14660Y12921D02*
D03*
X14750D02*
D03*
X14445Y12833D02*
D03*
X14535D02*
D03*
D24*
X16394Y12407D02*
D03*
X16134D02*
D03*
D25*
X13144Y11050D02*
D03*
X12870D02*
D03*
D26*
X13021Y12942D02*
D03*
X12971D02*
D03*
X12921D02*
D03*
X12871D02*
D03*
X13021Y12749D02*
D03*
X12971D02*
D03*
X12921D02*
D03*
X12871D02*
D03*
D27*
X12917Y10926D02*
D03*
Y10674D02*
D03*
X12820Y11996D02*
D03*
Y12248D02*
D03*
D28*
X12825Y11806D02*
D03*
Y11787D02*
D03*
Y11767D02*
D03*
Y11747D02*
D03*
X12936D02*
D03*
Y11767D02*
D03*
X12936Y11787D02*
D03*
X12936Y11806D02*
D03*
D29*
X12880Y11777D02*
D03*
X12859Y11220D02*
D03*
D30*
X12916Y11265D02*
D03*
Y11247D02*
D03*
X12802Y11265D02*
D03*
Y11247D02*
D03*
Y11229D02*
D03*
Y11211D02*
D03*
Y11194D02*
D03*
Y11176D02*
D03*
X12916D02*
D03*
Y11194D02*
D03*
Y11211D02*
D03*
Y11229D02*
D03*
D31*
X16202Y12790D02*
D03*
Y13350D02*
D03*
Y13550D02*
D03*
Y14110D02*
D03*
X13019Y13674D02*
D03*
X13026Y14061D02*
D03*
X13015Y13481D02*
D03*
X13021Y13873D02*
D03*
X12484Y11147D02*
D03*
X12502Y12124D02*
D03*
X12500Y13099D02*
D03*
X12521Y14074D02*
D03*
X12475Y10683D02*
D03*
X12500Y11659D02*
D03*
X12509Y12629D02*
D03*
X12514Y13600D02*
D03*
X13015Y13326D02*
D03*
X12963Y12430D02*
D03*
D32*
X16027Y13413D02*
D03*
Y13323D02*
D03*
X16035Y14173D02*
D03*
Y14083D02*
D03*
X15658Y11337D02*
D03*
Y11247D02*
D03*
X12741Y11659D02*
D03*
Y11749D02*
D03*
X12762Y11020D02*
D03*
Y11110D02*
D03*
X13112Y10775D02*
D03*
Y10685D02*
D03*
D33*
X12318Y13722D02*
D03*
Y13840D02*
D03*
Y13958D02*
D03*
Y12748D02*
D03*
Y12866D02*
D03*
Y12984D02*
D03*
Y11773D02*
D03*
Y11891D02*
D03*
Y12009D02*
D03*
Y10799D02*
D03*
Y10917D02*
D03*
Y11035D02*
D03*
D34*
X12102Y13569D02*
D03*
Y14111D02*
D03*
Y12594D02*
D03*
Y13137D02*
D03*
Y11620D02*
D03*
Y12162D02*
D03*
Y10646D02*
D03*
Y11188D02*
D03*
D35*
X16716Y14055D02*
X16769D01*
X16539Y13878D02*
X16716Y14055D01*
X16692Y13905D02*
X16769D01*
X16476Y13690D02*
X16692Y13905D01*
X16202Y13690D02*
X16476D01*
X16451Y13990D02*
X16539Y14078D01*
X16202Y13990D02*
X16451D01*
X16754Y13755D02*
X16769D01*
X16502Y13503D02*
X16754Y13755D01*
X16429Y13230D02*
X16502Y13303D01*
X16202Y13230D02*
X16429D01*
X16644Y13480D02*
X16769Y13605D01*
X16644Y13057D02*
Y13480D01*
X16516Y12930D02*
X16644Y13057D01*
X16202Y12930D02*
X16516D01*
D36*
X13994Y11142D02*
X14034D01*
X13912Y11224D02*
X13994Y11142D01*
X13986Y11175D02*
X14034D01*
X13917Y11243D02*
X13986Y11175D01*
X13878Y11224D02*
X13912D01*
X13878Y11243D02*
X13917D01*
X14009Y11105D02*
X14034D01*
X13910Y11204D02*
X14009Y11105D01*
X13878Y11204D02*
X13910D01*
X13878Y11184D02*
X13907D01*
X13917Y11175D01*
Y11170D02*
X14010Y11077D01*
X13917Y11170D02*
Y11175D01*
X14010Y11077D02*
X14056D01*
X12916Y11229D02*
X12933D01*
X12938Y11235D01*
X13008D01*
X13032Y11259D01*
Y11264D01*
X13067Y11299D01*
Y11315D01*
X16536Y11492D02*
X16713D01*
X16476Y11433D02*
X16536Y11492D01*
X16476Y11322D02*
Y11433D01*
Y11322D02*
X16564Y11234D01*
X15029Y12713D02*
Y13710D01*
X14897Y12581D02*
X15029Y12713D01*
X14897Y11462D02*
Y12581D01*
X14699Y11263D02*
X14897Y11462D01*
X14669Y11263D02*
X14699D01*
X15067Y12731D02*
Y13652D01*
X14911Y12576D02*
X15067Y12731D01*
X14911Y11456D02*
Y12576D01*
X14699Y11243D02*
X14911Y11456D01*
X14669Y11243D02*
X14699D01*
X15105Y12749D02*
Y13766D01*
X14925Y12570D02*
X15105Y12749D01*
X14925Y11450D02*
Y12570D01*
X14699Y11224D02*
X14925Y11450D01*
X14669Y11224D02*
X14699D01*
X15143Y12767D02*
Y13128D01*
X14939Y12564D02*
X15143Y12767D01*
X14939Y11444D02*
Y12564D01*
X14699Y11204D02*
X14939Y11444D01*
X14669Y11204D02*
X14699D01*
X15181Y12786D02*
Y13029D01*
X14953Y12558D02*
X15181Y12786D01*
X14953Y11438D02*
Y12558D01*
X14699Y11184D02*
X14953Y11438D01*
X14669Y11184D02*
X14699D01*
X14967Y12552D02*
X15219Y12804D01*
X14967Y11433D02*
Y12552D01*
X14702Y11167D02*
X14967Y11433D01*
X14112Y11105D02*
Y12750D01*
X14215Y11134D02*
Y11934D01*
X14362Y10856D02*
Y11160D01*
X14056Y11077D02*
X14079Y11100D01*
Y13723D01*
X13878Y11362D02*
X13923D01*
X13950Y11388D01*
Y12983D01*
X13878Y11342D02*
X13944D01*
X13990Y11388D01*
Y13927D01*
X13835Y11598D02*
X13878D01*
X13827Y11590D02*
X13835Y11598D01*
X13827Y11033D02*
Y11590D01*
X13878Y11552D02*
Y11578D01*
X13878Y11551D02*
X13878Y11552D01*
X14260Y11551D02*
Y12010D01*
X13878Y11263D02*
X13931D01*
X13953Y11241D01*
X13830Y11617D02*
X13878D01*
X13822Y11625D02*
X13830Y11617D01*
X15406Y11190D02*
X15450D01*
X15329Y11104D02*
X15369D01*
X14669Y11144D02*
X14738D01*
X14669Y11145D02*
X14669Y11144D01*
X14669Y11165D02*
X14702D01*
Y11167D01*
X15219Y12804D02*
Y13180D01*
X15181Y13029D02*
X15181Y13029D01*
X15143Y13128D02*
X15143Y13128D01*
X16049Y13180D02*
Y13241D01*
X16027Y13263D02*
X16049Y13241D01*
X16027Y13263D02*
Y13323D01*
X16801Y11329D02*
Y11491D01*
X16803Y11492D01*
X16564Y10947D02*
Y11234D01*
X16457Y10840D02*
X16564Y10947D01*
X14670Y10946D02*
X14764D01*
X14669Y10948D02*
X14670Y10946D01*
X16861Y10769D02*
Y10831D01*
X16845Y10752D02*
X16861Y10769D01*
X16845Y10636D02*
Y10752D01*
X16690Y10636D02*
X16755D01*
X16688Y10634D02*
X16690Y10636D01*
X14757Y10917D02*
X14805D01*
X14746Y10928D02*
X14757Y10917D01*
X14669Y10928D02*
X14746D01*
X11311Y14643D02*
X11321D01*
X11311Y14638D02*
Y14648D01*
Y14638D02*
X11321D01*
Y14648D01*
X11311D02*
X11321D01*
X11306Y14633D02*
Y14648D01*
Y14633D02*
X11326D01*
Y14653D01*
X11306D02*
X11326D01*
X11301Y14628D02*
Y14653D01*
Y14628D02*
X11331D01*
Y14658D01*
X11301D02*
X11331D01*
X11296Y14623D02*
Y14663D01*
Y14623D02*
X11336D01*
Y14663D01*
X11296D02*
X11336D01*
X11361Y14593D02*
X11371D01*
X11361Y14588D02*
Y14598D01*
Y14588D02*
X11371D01*
Y14598D01*
X11361D02*
X11371D01*
X11356Y14583D02*
Y14598D01*
Y14583D02*
X11376D01*
Y14603D01*
X11356D02*
X11376D01*
X11351Y14578D02*
Y14603D01*
Y14578D02*
X11381D01*
Y14608D01*
X11351D02*
X11381D01*
X11346Y14573D02*
Y14613D01*
Y14573D02*
X11386D01*
Y14613D01*
X11346D02*
X11386D01*
X11341Y14568D02*
X11391D01*
Y14618D01*
X11291Y14668D02*
X11341D01*
X11291Y14618D02*
Y14668D01*
X11341Y14368D02*
Y14868D01*
X11091Y14618D02*
X11591D01*
X11302Y10123D02*
X11312D01*
X11302Y10118D02*
Y10128D01*
Y10118D02*
X11312D01*
Y10128D01*
X11302D02*
X11312D01*
X11297Y10113D02*
Y10128D01*
Y10113D02*
X11317D01*
Y10133D01*
X11297D02*
X11317D01*
X11292Y10108D02*
Y10133D01*
Y10108D02*
X11322D01*
Y10138D01*
X11292D02*
X11322D01*
X11287Y10103D02*
Y10143D01*
Y10103D02*
X11327D01*
Y10143D01*
X11287D02*
X11327D01*
X11352Y10073D02*
X11362D01*
X11352Y10068D02*
Y10078D01*
Y10068D02*
X11362D01*
Y10078D01*
X11352D02*
X11362D01*
X11347Y10063D02*
Y10078D01*
Y10063D02*
X11367D01*
Y10083D01*
X11347D02*
X11367D01*
X11342Y10058D02*
Y10083D01*
Y10058D02*
X11372D01*
Y10088D01*
X11342D02*
X11372D01*
X11337Y10053D02*
Y10093D01*
Y10053D02*
X11377D01*
Y10093D01*
X11337D02*
X11377D01*
X11332Y10048D02*
X11382D01*
Y10098D01*
X11282Y10148D02*
X11332D01*
X11282Y10098D02*
Y10148D01*
X11332Y9848D02*
Y10348D01*
X11082Y10098D02*
X11582D01*
X17370Y14798D02*
X17380D01*
X17370Y14793D02*
Y14803D01*
Y14793D02*
X17380Y14793D01*
X17380Y14803D01*
X17370D02*
X17380D01*
X17365Y14788D02*
Y14803D01*
Y14788D02*
X17385D01*
Y14808D01*
X17365Y14808D02*
X17385Y14808D01*
X17360Y14783D02*
Y14808D01*
Y14783D02*
X17390D01*
Y14813D01*
X17360D02*
X17390D01*
X17355Y14778D02*
Y14818D01*
Y14778D02*
X17395D01*
Y14818D01*
X17355D02*
X17395D01*
X17420Y14748D02*
X17430D01*
X17420Y14743D02*
X17420Y14753D01*
X17420Y14743D02*
X17430D01*
Y14753D01*
X17420Y14753D02*
X17430Y14753D01*
X17415Y14738D02*
Y14753D01*
Y14738D02*
X17435Y14738D01*
X17435Y14758D02*
X17435Y14738D01*
X17415Y14758D02*
X17435D01*
X17410Y14733D02*
Y14758D01*
Y14733D02*
X17440D01*
Y14763D01*
X17410D02*
X17440D01*
X17405Y14728D02*
Y14768D01*
Y14728D02*
X17445D01*
Y14768D01*
X17405D02*
X17445D01*
X17400Y14723D02*
X17450Y14723D01*
X17450Y14773D02*
X17450Y14723D01*
X17350Y14823D02*
X17400Y14823D01*
X17350Y14823D02*
X17350Y14773D01*
X17400Y14523D02*
Y15023D01*
X17150Y14773D02*
X17650D01*
D37*
X13988Y11331D02*
X13990Y11328D01*
X13955Y11323D02*
X13963Y11331D01*
X13955Y11322D02*
X13955Y11323D01*
X13956D01*
X13963Y11331D02*
X13988D01*
X13880Y11304D02*
X13966D01*
X13878Y11302D02*
X13880Y11304D01*
X13878Y11322D02*
X13955D01*
X13990Y11328D02*
Y11329D01*
X14299Y11315D02*
X14311Y11302D01*
X16059Y11692D02*
X16060Y11691D01*
Y11639D02*
Y11691D01*
X15959Y11736D02*
X15960Y11735D01*
Y11679D02*
Y11735D01*
X15860Y11780D02*
X15860Y11780D01*
X15760Y11670D02*
X15760Y11670D01*
X15760Y11626D02*
Y11670D01*
X15660Y11714D02*
X15660Y11714D01*
X15660Y11657D02*
Y11714D01*
X15460Y11758D02*
X15460Y11758D01*
X15460Y11695D02*
Y11758D01*
X14669Y11716D02*
X14763D01*
X14669Y11696D02*
X14773D01*
X14669Y11676D02*
X14783D01*
X14669Y11657D02*
X14773D01*
X14669Y11637D02*
X14763D01*
X14669Y11617D02*
X14752D01*
X14773Y11657D02*
X14783Y11646D01*
X14763Y11637D02*
X14783Y11616D01*
X14752Y11617D02*
X14783Y11586D01*
X14763Y11716D02*
X14783Y11736D01*
X14773Y11696D02*
X14783Y11706D01*
X15460Y11541D02*
Y11695D01*
X15860Y11541D02*
Y11780D01*
X15960Y11541D02*
Y11679D01*
X14849Y11814D02*
X14850Y11815D01*
X14669Y11814D02*
X14849D01*
X14669Y11814D02*
X14669Y11814D01*
X16060Y11638D02*
Y11639D01*
Y11541D02*
Y11639D01*
X15760Y11541D02*
Y11618D01*
Y11626D01*
X15660Y11541D02*
Y11657D01*
X16230Y11971D02*
X16245Y11985D01*
X16176Y11971D02*
X16230D01*
X16109D02*
X16161Y12023D01*
X16324D01*
X16369Y11979D01*
X16109Y11884D02*
X16153Y11928D01*
X16321D01*
X16369Y11880D01*
X16183Y11884D02*
X16243Y11824D01*
X16411D01*
X16467Y11880D01*
X14669Y11854D02*
X14809D01*
X14669Y11834D02*
X14829D01*
X14830Y11834D01*
X14809Y11854D02*
X14810Y11854D01*
X16151Y10904D02*
X16151Y10905D01*
X16418D01*
X16178Y10953D02*
X16179Y10955D01*
X16318D01*
X16097Y11004D02*
X16097Y11005D01*
X16418D01*
X16318Y11055D02*
X16368Y11105D01*
X16318Y11054D02*
X16318Y11055D01*
X16207Y11054D02*
X16318D01*
X16368Y11105D02*
X16418D01*
X16125Y11154D02*
X16125Y11155D01*
X16318D01*
X16071Y11178D02*
X16162D01*
X16238Y11255D01*
X16318D01*
X14311Y11302D02*
X14425D01*
X14291Y11283D02*
X14425D01*
X14331Y11322D02*
X14425D01*
X14289Y11285D02*
X14291Y11283D01*
X14329Y11324D02*
X14331Y11322D01*
X13878Y11283D02*
X13944D01*
X13944Y11282D01*
D38*
X14445Y12833D02*
Y12893D01*
X14657Y12833D02*
Y12919D01*
X14535Y12833D02*
X14657D01*
X12558Y13722D02*
X12625D01*
X12613Y12748D02*
X12615Y12750D01*
X12559Y12748D02*
X12613D01*
X12573Y11773D02*
X12602Y11744D01*
X12548Y11773D02*
X12573D01*
X12527Y10799D02*
X12587D01*
X13757Y11867D02*
Y12196D01*
Y11867D02*
X13757Y11866D01*
Y11739D02*
Y11866D01*
X13756Y11738D02*
X13757Y11739D01*
X13756Y11614D02*
Y11738D01*
Y11614D02*
X13757Y11614D01*
Y11531D02*
Y11614D01*
X13757Y11079D02*
Y11408D01*
X13757Y10951D02*
Y11079D01*
Y10744D02*
Y10951D01*
Y11079D02*
X13757Y11079D01*
X14547Y11988D02*
Y12196D01*
Y11862D02*
Y11988D01*
Y11201D02*
Y11323D01*
Y10951D02*
Y11201D01*
Y10744D02*
Y10951D01*
X14546Y11324D02*
Y11861D01*
Y11324D02*
X14547Y11323D01*
X14546Y11861D02*
X14547Y11862D01*
X14566Y12370D02*
Y12570D01*
X14510Y12368D02*
X14568D01*
X14566Y12370D02*
X14568Y12368D01*
X14669Y12149D02*
Y12187D01*
X15443Y11058D02*
Y11104D01*
X15968Y14173D02*
X16035D01*
X15967Y14172D02*
X15968Y14173D01*
X16027Y13413D02*
Y13471D01*
X16028Y13472D01*
X13021Y13808D02*
Y13873D01*
X13019Y13806D02*
X13021Y13808D01*
X13026Y14061D02*
Y14131D01*
X13027Y14132D01*
X14565Y13096D02*
Y13808D01*
X14390Y12921D02*
X14565Y13096D01*
X14390Y12761D02*
Y12921D01*
Y12761D02*
X14499Y12652D01*
X14567D01*
X15793Y12138D02*
Y12269D01*
X15678Y10779D02*
X15759D01*
X15671Y10772D02*
X15678Y10779D01*
X12360Y11417D02*
X12442D01*
X12357Y11420D02*
X12360Y11417D01*
X12963Y12430D02*
X13087D01*
X13090Y12433D01*
X13518Y9531D02*
X13526Y9535D01*
X13537Y9546D01*
Y9466D01*
X13630Y9546D02*
X13592Y9466D01*
X13577Y9546D02*
X13630D01*
X13694D02*
X13656D01*
X13652Y9512D01*
X13656Y9516D01*
X13667Y9520D01*
X13679D01*
X13690Y9516D01*
X13698Y9508D01*
X13701Y9497D01*
Y9489D01*
X13698Y9478D01*
X13690Y9470D01*
X13679Y9466D01*
X13667D01*
X13656Y9470D01*
X13652Y9474D01*
X13648Y9482D01*
X13719Y9501D02*
X13788D01*
X13834Y9546D02*
X13823Y9543D01*
X13815Y9531D01*
X13811Y9512D01*
Y9501D01*
X13815Y9482D01*
X13823Y9470D01*
X13834Y9466D01*
X13842D01*
X13853Y9470D01*
X13861Y9482D01*
X13865Y9501D01*
Y9512D01*
X13861Y9531D01*
X13853Y9543D01*
X13842Y9546D01*
X13834D01*
X13906D02*
X13894Y9543D01*
X13886Y9531D01*
X13883Y9512D01*
Y9501D01*
X13886Y9482D01*
X13894Y9470D01*
X13906Y9466D01*
X13913D01*
X13925Y9470D01*
X13932Y9482D01*
X13936Y9501D01*
Y9512D01*
X13932Y9531D01*
X13925Y9543D01*
X13913Y9546D01*
X13906D01*
X13977D02*
X13965Y9543D01*
X13958Y9531D01*
X13954Y9512D01*
Y9501D01*
X13958Y9482D01*
X13965Y9470D01*
X13977Y9466D01*
X13984D01*
X13996Y9470D01*
X14003Y9482D01*
X14007Y9501D01*
Y9512D01*
X14003Y9531D01*
X13996Y9543D01*
X13984Y9546D01*
X13977D01*
X14025Y9531D02*
X14033Y9535D01*
X14044Y9546D01*
Y9466D01*
X14091Y9546D02*
X14133D01*
X14110Y9516D01*
X14122D01*
X14129Y9512D01*
X14133Y9508D01*
X14137Y9497D01*
Y9489D01*
X14133Y9478D01*
X14126Y9470D01*
X14114Y9466D01*
X14103D01*
X14091Y9470D01*
X14088Y9474D01*
X14084Y9482D01*
X14218Y9520D02*
Y9466D01*
Y9497D02*
X14222Y9508D01*
X14229Y9516D01*
X14237Y9520D01*
X14248D01*
X14256Y9497D02*
X14301D01*
Y9504D01*
X14297Y9512D01*
X14294Y9516D01*
X14286Y9520D01*
X14275D01*
X14267Y9516D01*
X14259Y9508D01*
X14256Y9497D01*
Y9489D01*
X14259Y9478D01*
X14267Y9470D01*
X14275Y9466D01*
X14286D01*
X14294Y9470D01*
X14301Y9478D01*
X14318Y9520D02*
X14341Y9466D01*
X14364Y9520D02*
X14341Y9466D01*
X14444Y9527D02*
Y9531D01*
X14447Y9539D01*
X14451Y9543D01*
X14459Y9546D01*
X14474D01*
X14482Y9543D01*
X14486Y9539D01*
X14489Y9531D01*
Y9523D01*
X14486Y9516D01*
X14478Y9504D01*
X14440Y9466D01*
X14493D01*
X14519Y9470D02*
X14515Y9466D01*
X14511Y9470D01*
X14515Y9474D01*
X14519Y9470D01*
Y9463D01*
X14515Y9455D01*
X14511Y9451D01*
X14599Y9531D02*
X14607Y9535D01*
X14618Y9546D01*
Y9466D01*
X14658Y9520D02*
Y9466D01*
Y9504D02*
X14669Y9516D01*
X14677Y9520D01*
X14688D01*
X14696Y9516D01*
X14700Y9504D01*
Y9466D01*
Y9504D02*
X14711Y9516D01*
X14719Y9520D01*
X14730D01*
X14738Y9516D01*
X14742Y9504D01*
Y9466D01*
X14830Y9546D02*
Y9466D01*
Y9546D02*
X14860Y9466D01*
X14890Y9546D02*
X14860Y9466D01*
X14890Y9546D02*
Y9466D01*
X14921Y9546D02*
X14925Y9543D01*
X14929Y9546D01*
X14925Y9550D01*
X14921Y9546D01*
X14925Y9520D02*
Y9466D01*
X14943Y9520D02*
Y9466D01*
Y9497D02*
X14946Y9508D01*
X14954Y9516D01*
X14962Y9520D01*
X14973D01*
X14980D02*
Y9466D01*
Y9497D02*
X14984Y9508D01*
X14992Y9516D01*
X14999Y9520D01*
X15011D01*
X15037D02*
X15029Y9516D01*
X15022Y9508D01*
X15018Y9497D01*
Y9489D01*
X15022Y9478D01*
X15029Y9470D01*
X15037Y9466D01*
X15049D01*
X15056Y9470D01*
X15064Y9478D01*
X15068Y9489D01*
Y9497D01*
X15064Y9508D01*
X15056Y9516D01*
X15049Y9520D01*
X15037D01*
X15085D02*
Y9466D01*
Y9497D02*
X15089Y9508D01*
X15097Y9516D01*
X15104Y9520D01*
X15116D01*
X15243Y9527D02*
X15239Y9535D01*
X15231Y9543D01*
X15224Y9546D01*
X15208D01*
X15201Y9543D01*
X15193Y9535D01*
X15189Y9527D01*
X15186Y9516D01*
Y9497D01*
X15189Y9485D01*
X15193Y9478D01*
X15201Y9470D01*
X15208Y9466D01*
X15224D01*
X15231Y9470D01*
X15239Y9478D01*
X15243Y9485D01*
X15284Y9520D02*
X15277Y9516D01*
X15269Y9508D01*
X15265Y9497D01*
Y9489D01*
X15269Y9478D01*
X15277Y9470D01*
X15284Y9466D01*
X15296D01*
X15303Y9470D01*
X15311Y9478D01*
X15315Y9489D01*
Y9497D01*
X15311Y9508D01*
X15303Y9516D01*
X15296Y9520D01*
X15284D01*
X15332D02*
X15355Y9466D01*
X15378Y9520D02*
X15355Y9466D01*
X15391Y9497D02*
X15437D01*
Y9504D01*
X15433Y9512D01*
X15429Y9516D01*
X15421Y9520D01*
X15410D01*
X15402Y9516D01*
X15395Y9508D01*
X15391Y9497D01*
Y9489D01*
X15395Y9478D01*
X15402Y9470D01*
X15410Y9466D01*
X15421D01*
X15429Y9470D01*
X15437Y9478D01*
X15454Y9520D02*
Y9466D01*
Y9497D02*
X15458Y9508D01*
X15465Y9516D01*
X15473Y9520D01*
X15484D01*
X15611Y9527D02*
X15608Y9535D01*
X15600Y9543D01*
X15592Y9546D01*
X15577D01*
X15570Y9543D01*
X15562Y9535D01*
X15558Y9527D01*
X15554Y9516D01*
Y9497D01*
X15558Y9485D01*
X15562Y9478D01*
X15570Y9470D01*
X15577Y9466D01*
X15592D01*
X15600Y9470D01*
X15608Y9478D01*
X15611Y9485D01*
X15653Y9520D02*
X15645Y9516D01*
X15638Y9508D01*
X15634Y9497D01*
Y9489D01*
X15638Y9478D01*
X15645Y9470D01*
X15653Y9466D01*
X15664D01*
X15672Y9470D01*
X15680Y9478D01*
X15683Y9489D01*
Y9497D01*
X15680Y9508D01*
X15672Y9516D01*
X15664Y9520D01*
X15653D01*
X15701D02*
Y9466D01*
Y9504D02*
X15712Y9516D01*
X15720Y9520D01*
X15731D01*
X15739Y9516D01*
X15743Y9504D01*
Y9466D01*
X15775Y9546D02*
Y9482D01*
X15779Y9470D01*
X15787Y9466D01*
X15794D01*
X15764Y9520D02*
X15790D01*
X15806D02*
Y9466D01*
Y9497D02*
X15809Y9508D01*
X15817Y9516D01*
X15825Y9520D01*
X15836D01*
X15862D02*
X15855Y9516D01*
X15847Y9508D01*
X15843Y9497D01*
Y9489D01*
X15847Y9478D01*
X15855Y9470D01*
X15862Y9466D01*
X15874D01*
X15881Y9470D01*
X15889Y9478D01*
X15893Y9489D01*
Y9497D01*
X15889Y9508D01*
X15881Y9516D01*
X15874Y9520D01*
X15862D01*
X15910Y9546D02*
Y9466D01*
X15927Y9546D02*
Y9466D01*
X15944Y9497D02*
X15990D01*
Y9504D01*
X15986Y9512D01*
X15982Y9516D01*
X15974Y9520D01*
X15963D01*
X15955Y9516D01*
X15948Y9508D01*
X15944Y9497D01*
Y9489D01*
X15948Y9478D01*
X15955Y9470D01*
X15963Y9466D01*
X15974D01*
X15982Y9470D01*
X15990Y9478D01*
X16007Y9520D02*
Y9466D01*
Y9497D02*
X16011Y9508D01*
X16018Y9516D01*
X16026Y9520D01*
X16037D01*
D39*
X14811Y12921D02*
X14812Y12920D01*
X14750Y12921D02*
X14811D01*
X15658Y11203D02*
X15678Y11183D01*
X15658Y11203D02*
Y11247D01*
Y11337D02*
Y11439D01*
X12827Y13073D02*
X12905D01*
X12982Y12840D02*
X13080D01*
X12971Y12829D02*
X12982Y12840D01*
X12971Y12749D02*
Y12829D01*
X13021Y12685D02*
Y12749D01*
X13004Y12668D02*
X13021Y12685D01*
X13004Y12642D02*
Y12668D01*
X12921Y12684D02*
Y12749D01*
X12894Y12657D02*
X12921Y12684D01*
X12894Y12642D02*
Y12657D01*
X13015Y13073D02*
X13021Y13067D01*
X12516Y14069D02*
X12521Y14074D01*
X12351Y14069D02*
X12516D01*
X12219Y13959D02*
X12220Y13958D01*
X12318D01*
X12214Y13839D02*
X12215Y13840D01*
X12318D01*
X12468Y13722D02*
X12514Y13676D01*
Y13600D02*
Y13676D01*
X12318Y13722D02*
X12468D01*
X12495Y13094D02*
X12500Y13099D01*
X12338Y13094D02*
X12495D01*
X12217Y12984D02*
X12218Y12984D01*
X12318D01*
X12212Y12865D02*
X12212Y12866D01*
X12318D01*
X12468Y12748D02*
X12509Y12707D01*
Y12629D02*
Y12707D01*
X12318Y12748D02*
X12468D01*
X12499Y12127D02*
X12502Y12124D01*
X12356Y12127D02*
X12499D01*
X12220Y12009D02*
X12220Y12009D01*
X12318D01*
X12214Y11892D02*
X12215Y11891D01*
X12318D01*
X12458Y11773D02*
X12500Y11731D01*
Y11659D02*
Y11731D01*
X12318Y11773D02*
X12458D01*
X12361Y11147D02*
X12484D01*
X12357Y11143D02*
X12361Y11147D01*
X12216Y11035D02*
X12216Y11035D01*
X12318D01*
X12228Y10917D02*
X12228Y10917D01*
X12318D01*
X12436Y10799D02*
X12475Y10760D01*
Y10683D02*
Y10760D01*
X12318Y10799D02*
X12436D01*
X12956Y11211D02*
X13017D01*
X13040Y11235D01*
X12752Y11330D02*
X12802Y11280D01*
Y11211D02*
X12850D01*
X13040Y11235D02*
X13067D01*
X12754Y11247D02*
X12802D01*
Y11265D02*
Y11280D01*
X12774Y11176D02*
X12802D01*
X12618Y11330D02*
X12662D01*
X12614Y11240D02*
X12657D01*
X13157Y11276D02*
Y11315D01*
X12916Y11211D02*
X12956D01*
X12956Y11212D01*
X12850Y11211D02*
X12859Y11220D01*
X12762Y11130D02*
Y11165D01*
X13157Y11235D02*
Y11276D01*
X12750Y11243D02*
Y11279D01*
Y11243D02*
X12754Y11247D01*
X12762Y11165D02*
X12774Y11176D01*
X12740Y11767D02*
X12825D01*
X12936D02*
X13000D01*
X13015Y11687D02*
Y11752D01*
Y11817D01*
X13000Y11767D02*
X13015Y11752D01*
X12936Y11724D02*
Y11747D01*
Y11724D02*
X12936Y11724D01*
X12740Y11767D02*
X12740Y11767D01*
X12774Y11749D02*
X12789Y11734D01*
X12741Y11749D02*
X12774D01*
X16202Y12790D02*
Y12930D01*
Y13230D02*
Y13350D01*
Y13550D02*
Y13690D01*
Y13990D02*
Y14110D01*
X16035Y14037D02*
Y14083D01*
Y14037D02*
X16049Y14023D01*
Y13940D02*
Y14023D01*
X14669Y12129D02*
X14732D01*
X14750Y12147D01*
X14669Y12110D02*
X14752D01*
X14785Y12076D01*
X13015Y13286D02*
Y13326D01*
X12978Y13249D02*
X13015Y13286D01*
X13157Y11276D02*
X13222D01*
X13226Y11271D01*
D40*
X14669Y12187D02*
Y12314D01*
X14656Y12570D02*
Y12651D01*
Y12326D02*
Y12570D01*
Y12326D02*
X14669Y12314D01*
X14656Y12651D02*
X14658Y12653D01*
X13150Y11977D02*
X13195D01*
X13196Y11978D01*
X13105Y11752D02*
X13110Y11747D01*
X13152D01*
X13105Y11687D02*
X13155D01*
X12741Y11659D02*
X12787D01*
X14567Y12653D02*
X14658D01*
X16382Y12419D02*
Y12674D01*
Y12419D02*
X16394Y12407D01*
X13196Y11978D02*
X13200Y11974D01*
X13224D01*
X12787Y11659D02*
X12811Y11635D01*
Y11629D02*
Y11635D01*
D41*
X15949Y12408D02*
X15950Y12407D01*
X16134D01*
X15595Y12495D02*
Y12722D01*
X15598Y13545D02*
X15689D01*
X15777Y13457D01*
X15525Y13202D02*
X15595D01*
X15424Y13303D02*
X15525Y13202D01*
X15598Y14025D02*
X15681D01*
X15765Y14109D01*
Y14108D02*
Y14109D01*
D42*
X13112Y10775D02*
Y10830D01*
Y10775D02*
X13182D01*
D43*
X13021Y12942D02*
Y13190D01*
X12810Y12942D02*
X12871D01*
X12794Y12957D02*
X12810Y12942D01*
X13019Y13606D02*
Y13674D01*
X13018Y13605D02*
X13019Y13606D01*
X13015Y13422D02*
Y13481D01*
X13014Y13421D02*
X13015Y13422D01*
D44*
X13397Y9122D02*
Y9076D01*
X13378Y9110D02*
X13416Y9087D01*
Y9110D02*
X13378Y9087D01*
X13437Y9049D02*
X13433Y9045D01*
X13437Y9042D01*
X13440Y9045D01*
X13437Y9049D01*
X13515Y9103D02*
X13511Y9110D01*
X13504Y9118D01*
X13496Y9122D01*
X13481D01*
X13473Y9118D01*
X13465Y9110D01*
X13462Y9103D01*
X13458Y9091D01*
Y9072D01*
X13462Y9061D01*
X13465Y9053D01*
X13473Y9045D01*
X13481Y9042D01*
X13496D01*
X13504Y9045D01*
X13511Y9053D01*
X13515Y9061D01*
Y9072D01*
X13496D02*
X13515D01*
X13560Y9122D02*
Y9042D01*
X13533Y9122D02*
X13587D01*
X13596D02*
Y9042D01*
X13642D01*
X13713Y9076D02*
X13782D01*
X13895Y9122D02*
Y9042D01*
X13868Y9122D02*
X13922D01*
X13954D02*
X13947Y9118D01*
X13939Y9110D01*
X13935Y9103D01*
X13931Y9091D01*
Y9072D01*
X13935Y9061D01*
X13939Y9053D01*
X13947Y9045D01*
X13954Y9042D01*
X13969D01*
X13977Y9045D01*
X13985Y9053D01*
X13988Y9061D01*
X13992Y9072D01*
Y9091D01*
X13988Y9103D01*
X13985Y9110D01*
X13977Y9118D01*
X13969Y9122D01*
X13954D01*
X14011Y9080D02*
X14045D01*
X14057Y9084D01*
X14060Y9087D01*
X14064Y9095D01*
Y9106D01*
X14060Y9114D01*
X14057Y9118D01*
X14045Y9122D01*
X14011D01*
Y9042D01*
X14145Y9122D02*
Y9042D01*
X14191D01*
X14260D02*
X14230Y9122D01*
X14199Y9042D01*
X14211Y9068D02*
X14249D01*
X14279Y9122D02*
X14310Y9084D01*
Y9042D01*
X14340Y9122D02*
X14310Y9084D01*
X14400Y9122D02*
X14350D01*
Y9042D01*
X14400D01*
X14350Y9084D02*
X14381D01*
X14413Y9122D02*
Y9042D01*
Y9122D02*
X14447D01*
X14459Y9118D01*
X14463Y9114D01*
X14466Y9106D01*
Y9099D01*
X14463Y9091D01*
X14459Y9087D01*
X14447Y9084D01*
X14413D01*
X14440D02*
X14466Y9042D01*
X14604Y9103D02*
X14600Y9110D01*
X14593Y9118D01*
X14585Y9122D01*
X14570D01*
X14562Y9118D01*
X14555Y9110D01*
X14551Y9103D01*
X14547Y9091D01*
Y9072D01*
X14551Y9061D01*
X14555Y9053D01*
X14562Y9045D01*
X14570Y9042D01*
X14585D01*
X14593Y9045D01*
X14600Y9053D01*
X14604Y9061D01*
Y9072D01*
X14585D02*
X14604D01*
X14672Y9122D02*
X14623D01*
Y9042D01*
X14672D01*
X14623Y9084D02*
X14653D01*
X14685Y9122D02*
Y9042D01*
Y9122D02*
X14720D01*
X14731Y9118D01*
X14735Y9114D01*
X14739Y9106D01*
Y9099D01*
X14735Y9091D01*
X14731Y9087D01*
X14720Y9084D01*
X14685D01*
X14712D02*
X14739Y9042D01*
X14757Y9122D02*
Y9042D01*
Y9122D02*
X14791D01*
X14802Y9118D01*
X14806Y9114D01*
X14810Y9106D01*
Y9099D01*
X14806Y9091D01*
X14802Y9087D01*
X14791Y9084D01*
X14757D02*
X14791D01*
X14802Y9080D01*
X14806Y9076D01*
X14810Y9068D01*
Y9057D01*
X14806Y9049D01*
X14802Y9045D01*
X14791Y9042D01*
X14757D01*
X14877Y9122D02*
X14828D01*
Y9042D01*
X14877D01*
X14828Y9084D02*
X14858D01*
X14891Y9122D02*
Y9042D01*
Y9122D02*
X14925D01*
X14936Y9118D01*
X14940Y9114D01*
X14944Y9106D01*
Y9099D01*
X14940Y9091D01*
X14936Y9087D01*
X14925Y9084D01*
X14891D01*
X14917D02*
X14944Y9042D01*
X15025Y9122D02*
Y9042D01*
Y9122D02*
X15051D01*
X15063Y9118D01*
X15070Y9110D01*
X15074Y9103D01*
X15078Y9091D01*
Y9072D01*
X15074Y9061D01*
X15070Y9053D01*
X15063Y9045D01*
X15051Y9042D01*
X15025D01*
X15157D02*
X15126Y9122D01*
X15096Y9042D01*
X15107Y9068D02*
X15146D01*
X15202Y9122D02*
Y9042D01*
X15176Y9122D02*
X15229D01*
X15299Y9042D02*
X15269Y9122D01*
X15238Y9042D01*
X15250Y9068D02*
X15288D01*
D45*
X13518Y9396D02*
Y9316D01*
X13564D01*
X13634D02*
X13603Y9396D01*
X13573Y9316D01*
X13584Y9343D02*
X13622D01*
X13706Y9385D02*
X13698Y9393D01*
X13687Y9396D01*
X13671D01*
X13660Y9393D01*
X13652Y9385D01*
Y9377D01*
X13656Y9370D01*
X13660Y9366D01*
X13667Y9362D01*
X13690Y9354D01*
X13698Y9351D01*
X13702Y9347D01*
X13706Y9339D01*
Y9328D01*
X13698Y9320D01*
X13687Y9316D01*
X13671D01*
X13660Y9320D01*
X13652Y9328D01*
X13843Y9377D02*
X13840Y9385D01*
X13832Y9393D01*
X13824Y9396D01*
X13809D01*
X13802Y9393D01*
X13794Y9385D01*
X13790Y9377D01*
X13786Y9366D01*
Y9347D01*
X13790Y9335D01*
X13794Y9328D01*
X13802Y9320D01*
X13809Y9316D01*
X13824D01*
X13832Y9320D01*
X13840Y9328D01*
X13843Y9335D01*
X13866Y9396D02*
Y9339D01*
X13870Y9328D01*
X13877Y9320D01*
X13889Y9316D01*
X13896D01*
X13908Y9320D01*
X13915Y9328D01*
X13919Y9339D01*
Y9396D01*
X13941D02*
Y9316D01*
Y9396D02*
X13972Y9316D01*
X14002Y9396D02*
X13972Y9316D01*
X14002Y9396D02*
Y9316D01*
X14025Y9396D02*
Y9316D01*
Y9396D02*
X14059D01*
X14071Y9393D01*
X14075Y9389D01*
X14078Y9381D01*
Y9373D01*
X14075Y9366D01*
X14071Y9362D01*
X14059Y9358D01*
X14025D02*
X14059D01*
X14071Y9354D01*
X14075Y9351D01*
X14078Y9343D01*
Y9332D01*
X14075Y9324D01*
X14071Y9320D01*
X14059Y9316D01*
X14025D01*
X14096Y9396D02*
Y9316D01*
Y9396D02*
X14131D01*
X14142Y9393D01*
X14146Y9389D01*
X14150Y9381D01*
Y9373D01*
X14146Y9366D01*
X14142Y9362D01*
X14131Y9358D01*
X14096D01*
X14123D02*
X14150Y9316D01*
X14217Y9396D02*
X14168D01*
Y9316D01*
X14217D01*
X14168Y9358D02*
X14198D01*
X14284Y9385D02*
X14276Y9393D01*
X14265Y9396D01*
X14249D01*
X14238Y9393D01*
X14230Y9385D01*
Y9377D01*
X14234Y9370D01*
X14238Y9366D01*
X14246Y9362D01*
X14268Y9354D01*
X14276Y9351D01*
X14280Y9347D01*
X14284Y9339D01*
Y9328D01*
X14276Y9320D01*
X14265Y9316D01*
X14249D01*
X14238Y9320D01*
X14230Y9328D01*
X14387Y9396D02*
X14380Y9393D01*
X14372Y9385D01*
X14368Y9377D01*
X14364Y9366D01*
Y9347D01*
X14368Y9335D01*
X14372Y9328D01*
X14380Y9320D01*
X14387Y9316D01*
X14403D01*
X14410Y9320D01*
X14418Y9328D01*
X14422Y9335D01*
X14425Y9347D01*
Y9366D01*
X14422Y9377D01*
X14418Y9385D01*
X14410Y9393D01*
X14403Y9396D01*
X14387D01*
X14444D02*
Y9316D01*
Y9396D02*
X14478D01*
X14490Y9393D01*
X14494Y9389D01*
X14497Y9381D01*
Y9373D01*
X14494Y9366D01*
X14490Y9362D01*
X14478Y9358D01*
X14444D02*
X14478D01*
X14490Y9354D01*
X14494Y9351D01*
X14497Y9343D01*
Y9332D01*
X14494Y9324D01*
X14490Y9320D01*
X14478Y9316D01*
X14444D01*
X14569Y9385D02*
X14561Y9393D01*
X14550Y9396D01*
X14534D01*
X14523Y9393D01*
X14515Y9385D01*
Y9377D01*
X14519Y9370D01*
X14523Y9366D01*
X14531Y9362D01*
X14553Y9354D01*
X14561Y9351D01*
X14565Y9347D01*
X14569Y9339D01*
Y9328D01*
X14561Y9320D01*
X14550Y9316D01*
X14534D01*
X14523Y9320D01*
X14515Y9328D01*
X14636Y9396D02*
X14587D01*
Y9316D01*
X14636D01*
X14587Y9358D02*
X14617D01*
X14649Y9396D02*
Y9316D01*
Y9396D02*
X14684D01*
X14695Y9393D01*
X14699Y9389D01*
X14703Y9381D01*
Y9373D01*
X14699Y9366D01*
X14695Y9362D01*
X14684Y9358D01*
X14649D01*
X14676D02*
X14703Y9316D01*
X14721Y9396D02*
X14751Y9316D01*
X14782Y9396D02*
X14751Y9316D01*
X14853D02*
X14822Y9396D01*
X14792Y9316D01*
X14803Y9343D02*
X14841D01*
X14898Y9396D02*
Y9316D01*
X14871Y9396D02*
X14925D01*
X14957D02*
X14949Y9393D01*
X14942Y9385D01*
X14938Y9377D01*
X14934Y9366D01*
Y9347D01*
X14938Y9335D01*
X14942Y9328D01*
X14949Y9320D01*
X14957Y9316D01*
X14972D01*
X14980Y9320D01*
X14988Y9328D01*
X14991Y9335D01*
X14995Y9347D01*
Y9366D01*
X14991Y9377D01*
X14988Y9385D01*
X14980Y9393D01*
X14972Y9396D01*
X14957D01*
X15014D02*
Y9316D01*
Y9396D02*
X15048D01*
X15060Y9393D01*
X15063Y9389D01*
X15067Y9381D01*
Y9373D01*
X15063Y9366D01*
X15060Y9362D01*
X15048Y9358D01*
X15014D01*
X15041D02*
X15067Y9316D01*
X15085Y9396D02*
X15116Y9358D01*
Y9316D01*
X15146Y9396D02*
X15116Y9358D01*
X15471Y9381D02*
X15478Y9385D01*
X15490Y9396D01*
Y9316D01*
X15529Y9381D02*
X15537Y9385D01*
X15548Y9396D01*
Y9316D01*
X15588Y9305D02*
X15641Y9396D01*
X15650Y9377D02*
Y9381D01*
X15654Y9389D01*
X15658Y9393D01*
X15666Y9396D01*
X15681D01*
X15688Y9393D01*
X15692Y9389D01*
X15696Y9381D01*
Y9373D01*
X15692Y9366D01*
X15685Y9354D01*
X15646Y9316D01*
X15700D01*
X15718Y9305D02*
X15771Y9396D01*
X15780Y9377D02*
Y9381D01*
X15784Y9389D01*
X15788Y9393D01*
X15795Y9396D01*
X15811D01*
X15818Y9393D01*
X15822Y9389D01*
X15826Y9381D01*
Y9373D01*
X15822Y9366D01*
X15814Y9354D01*
X15776Y9316D01*
X15830D01*
X15870Y9396D02*
X15859Y9393D01*
X15851Y9381D01*
X15848Y9362D01*
Y9351D01*
X15851Y9332D01*
X15859Y9320D01*
X15870Y9316D01*
X15878D01*
X15889Y9320D01*
X15897Y9332D01*
X15901Y9351D01*
Y9362D01*
X15897Y9381D01*
X15889Y9393D01*
X15878Y9396D01*
X15870D01*
X15919Y9381D02*
X15926Y9385D01*
X15938Y9396D01*
Y9316D01*
X15977Y9381D02*
X15985Y9385D01*
X15996Y9396D01*
Y9316D01*
D46*
X16202Y13690D02*
D03*
X16049Y13740D02*
D03*
X16202Y13790D02*
D03*
X16049Y13840D02*
D03*
X16202Y13890D02*
D03*
X16049Y13940D02*
D03*
X16202Y13990D02*
D03*
Y12930D02*
D03*
X16049Y12980D02*
D03*
X16202Y13030D02*
D03*
X16049Y13080D02*
D03*
X16202Y13130D02*
D03*
X16049Y13180D02*
D03*
X16202Y13230D02*
D03*
D47*
X14627Y12227D02*
D03*
Y10712D02*
D03*
X13837Y12227D02*
D03*
Y10712D02*
D03*
D48*
X15142Y14037D02*
D03*
X13449D02*
D03*
Y10730D02*
D03*
D49*
X14918Y12783D02*
D03*
Y12743D02*
D03*
Y12704D02*
D03*
X14878D02*
D03*
Y12743D02*
D03*
Y12783D02*
D03*
D50*
X16318Y11255D02*
D03*
Y10955D02*
D03*
X16418Y11205D02*
D03*
X16318Y11155D02*
D03*
Y11055D02*
D03*
X16418Y11105D02*
D03*
D51*
Y10905D02*
D03*
D52*
Y11005D02*
D03*
D53*
X16668Y10855D02*
D03*
Y11305D02*
D03*
D54*
X16861Y10831D02*
D03*
X16801Y10931D02*
D03*
X16861Y11229D02*
D03*
X16801Y11329D02*
D03*
D55*
X16548Y10770D02*
D03*
Y11390D02*
D03*
X15949Y12408D02*
D03*
X15594Y12496D02*
D03*
X15777Y13457D02*
D03*
X15423Y13303D02*
D03*
X15765Y14108D02*
D03*
D56*
X16502Y13503D02*
D03*
Y13303D02*
D03*
X16369Y11979D02*
D03*
Y11880D02*
D03*
X16467D02*
D03*
Y11979D02*
D03*
X16539Y13878D02*
D03*
Y14078D02*
D03*
D57*
X15460Y11441D02*
D03*
D58*
Y11541D02*
D03*
X15560Y11441D02*
D03*
Y11541D02*
D03*
X15660Y11441D02*
D03*
Y11541D02*
D03*
X15760Y11441D02*
D03*
Y11541D02*
D03*
X15860Y11441D02*
D03*
Y11541D02*
D03*
X15960Y11441D02*
D03*
Y11541D02*
D03*
X16060Y11441D02*
D03*
Y11541D02*
D03*
D59*
X16769Y13605D02*
D03*
Y13755D02*
D03*
Y13905D02*
D03*
Y12749D02*
D03*
D60*
Y14055D02*
D03*
Y12899D02*
D03*
D61*
X16574Y11693D02*
D03*
Y12167D02*
D03*
D62*
X12880Y11800D02*
D03*
Y11753D02*
D03*
X12859Y11244D02*
D03*
Y11197D02*
D03*
D63*
X14034Y11176D02*
D03*
X14034Y11105D02*
D03*
X14034Y11142D02*
D03*
X13990Y11328D02*
D03*
X13966Y11304D02*
D03*
X14299Y11315D02*
D03*
X16059Y11692D02*
D03*
X15959Y11736D02*
D03*
X15860Y11780D02*
D03*
X15760Y11670D02*
D03*
X15660Y11714D02*
D03*
X15460Y11758D02*
D03*
X14783Y11736D02*
D03*
Y11706D02*
D03*
Y11586D02*
D03*
Y11616D02*
D03*
Y11646D02*
D03*
Y11676D02*
D03*
X14112Y12750D02*
D03*
Y11105D02*
D03*
X14215Y11934D02*
D03*
Y11134D02*
D03*
X14362Y10856D02*
D03*
Y11160D02*
D03*
X14445Y12893D02*
D03*
X14812Y12920D02*
D03*
X12625Y13722D02*
D03*
X12615Y12750D02*
D03*
X12602Y11744D02*
D03*
X12587Y10799D02*
D03*
X13757Y11866D02*
D03*
X13756Y11614D02*
D03*
X13757Y11079D02*
D03*
X14546Y11324D02*
D03*
Y11861D02*
D03*
X14510Y12368D02*
D03*
X15678Y11183D02*
D03*
X12827Y13073D02*
D03*
X13080Y12840D02*
D03*
X12794Y12957D02*
D03*
X16245Y11985D02*
D03*
X14858Y11815D02*
D03*
X14830Y11834D02*
D03*
X14800Y11855D02*
D03*
X16151Y10904D02*
D03*
X16178Y10953D02*
D03*
X16097Y11004D02*
D03*
X16207Y11054D02*
D03*
X16125Y11154D02*
D03*
X16071Y11178D02*
D03*
X14289Y11285D02*
D03*
X14329Y11324D02*
D03*
X13944Y11282D02*
D03*
X12421Y13836D02*
D03*
X12416Y12867D02*
D03*
X12414Y11893D02*
D03*
X12219Y12748D02*
D03*
X12351Y14069D02*
D03*
X12219Y13721D02*
D03*
Y13959D02*
D03*
X12214Y13839D02*
D03*
X12338Y13094D02*
D03*
X12217Y12984D02*
D03*
X12212Y12865D02*
D03*
X12356Y12127D02*
D03*
X12223Y11772D02*
D03*
X12220Y12009D02*
D03*
X12214Y11892D02*
D03*
X12357Y11143D02*
D03*
X12216Y11035D02*
D03*
X12228Y10917D02*
D03*
X12225Y10799D02*
D03*
X12421Y10917D02*
D03*
X12663Y11283D02*
D03*
X13017Y10700D02*
D03*
X12957Y11275D02*
D03*
X13060Y11128D02*
D03*
X13112Y10830D02*
D03*
X13182Y10725D02*
D03*
Y10670D02*
D03*
X12862Y11285D02*
D03*
X12956Y11212D02*
D03*
X12962Y10825D02*
D03*
X12857D02*
D03*
X13182Y10775D02*
D03*
X12804Y11329D02*
D03*
X12618Y11330D02*
D03*
X13002Y11275D02*
D03*
X13012Y10825D02*
D03*
X12912D02*
D03*
X12750Y11279D02*
D03*
X12752Y10825D02*
D03*
X13002Y11340D02*
D03*
X12917D02*
D03*
X12752Y10760D02*
D03*
X12757Y10685D02*
D03*
X12614Y11240D02*
D03*
X12936Y11724D02*
D03*
X12789Y11734D02*
D03*
X12905Y11864D02*
D03*
X12660Y11933D02*
D03*
X12661Y11804D02*
D03*
X12705Y11806D02*
D03*
X12659Y11869D02*
D03*
X12791Y12152D02*
D03*
X12873Y12153D02*
D03*
X12981Y12155D02*
D03*
X12989Y12069D02*
D03*
X12885Y11911D02*
D03*
X12811Y11629D02*
D03*
X13152Y11747D02*
D03*
X13155Y11687D02*
D03*
X13080Y12156D02*
D03*
X13005Y11986D02*
D03*
X12911Y11985D02*
D03*
X12817Y11680D02*
D03*
X14079Y13723D02*
D03*
X13950Y12983D02*
D03*
X13990Y13927D02*
D03*
X13827Y11033D02*
D03*
X13878Y11551D02*
D03*
X14260D02*
D03*
Y12010D02*
D03*
X13953Y11241D02*
D03*
X13822Y11625D02*
D03*
X15450Y11190D02*
D03*
X15443Y11058D02*
D03*
X15329Y11104D02*
D03*
X14738Y11144D02*
D03*
X15181Y13029D02*
D03*
X15143Y13128D02*
D03*
X15218Y13180D02*
D03*
X15065Y13652D02*
D03*
X15029Y13710D02*
D03*
X15102Y13766D02*
D03*
X16028Y13472D02*
D03*
X16457Y10840D02*
D03*
X14764Y10946D02*
D03*
X16688Y10634D02*
D03*
X14805Y10917D02*
D03*
X13021Y13808D02*
D03*
X13027Y14132D02*
D03*
X13018Y13605D02*
D03*
X13014Y13421D02*
D03*
X12978Y13249D02*
D03*
X13224Y11974D02*
D03*
D64*
X15967Y14172D02*
D03*
X14750Y12147D02*
D03*
X14785Y12076D02*
D03*
X13021Y13190D02*
D03*
X14565Y13808D02*
D03*
X15793Y12269D02*
D03*
X15671Y10772D02*
D03*
X12357Y11420D02*
D03*
X13090Y12433D02*
D03*
X13226Y11271D02*
D03*
M02*
