%FSLAX23Y23*%
%MOIN*%
G70*
G01*
G75*
G04 Layer_Color=2752767*
%ADD10C,0.004*%
%ADD11C,0.039*%
%ADD12C,0.005*%
%ADD13C,0.007*%
%ADD14C,0.004*%
%ADD15C,0.010*%
%ADD16C,0.020*%
%ADD17C,0.030*%
%ADD18C,0.018*%
%ADD19C,0.024*%
%ADD20C,0.006*%
%ADD21C,0.016*%
%ADD22C,0.012*%
%ADD23C,0.013*%
%ADD24C,0.008*%
D10*
X12999Y10550D02*
X13015D01*
X13007Y10542D02*
Y10557D01*
D11*
X12042Y9930D02*
Y13827D01*
X16924D01*
X16924Y9930D01*
X12042D02*
X16924D01*
D12*
X16182Y13170D02*
Y13210D01*
X16222D01*
Y13170D01*
X16182D01*
X16029Y13220D02*
Y13260D01*
X16069D01*
Y13220D01*
X16029D01*
X16182Y13270D02*
Y13310D01*
X16222D01*
Y13270D01*
X16182D01*
X16029Y13320D02*
Y13360D01*
X16069D01*
Y13320D01*
X16029D01*
X16182Y13370D02*
Y13410D01*
X16222D01*
Y13370D01*
X16182D01*
X16029Y13420D02*
Y13460D01*
X16069D01*
Y13420D01*
X16029D01*
X16182Y13470D02*
Y13510D01*
X16222D01*
Y13470D01*
X16182D01*
X15142Y13517D02*
X15122Y13557D01*
X15162D01*
X15142Y13517D01*
X13449D02*
X13429Y13557D01*
X13469D01*
X13449Y13517D01*
Y10210D02*
X13429Y10250D01*
X13469D01*
X13449Y10210D01*
X14918Y12263D02*
X14928Y12273D01*
X14938D01*
X14928Y12283D01*
X14938Y12293D01*
X14928D01*
X14918Y12303D01*
X14908Y12293D01*
X14898D01*
X14908Y12283D01*
X14898Y12273D01*
X14908D01*
X14918Y12263D01*
Y12223D02*
X14928Y12233D01*
X14938D01*
X14928Y12243D01*
X14938Y12253D01*
X14928D01*
X14918Y12263D01*
X14908Y12253D01*
X14898D01*
X14908Y12243D01*
X14898Y12233D01*
X14908D01*
X14918Y12223D01*
Y12184D02*
X14928Y12194D01*
X14938D01*
X14928Y12204D01*
X14938Y12214D01*
X14928D01*
X14918Y12224D01*
X14908Y12214D01*
X14898D01*
X14908Y12204D01*
X14898Y12194D01*
X14908D01*
X14918Y12184D01*
X14878D02*
X14888Y12194D01*
X14898D01*
X14888Y12204D01*
X14898Y12214D01*
X14888D01*
X14878Y12224D01*
X14868Y12214D01*
X14858D01*
X14868Y12204D01*
X14858Y12194D01*
X14868D01*
X14878Y12184D01*
Y12223D02*
X14888Y12233D01*
X14898D01*
X14888Y12243D01*
X14898Y12253D01*
X14888D01*
X14878Y12263D01*
X14868Y12253D01*
X14858D01*
X14868Y12243D01*
X14858Y12233D01*
X14868D01*
X14878Y12223D01*
Y12263D02*
X14888Y12273D01*
X14898D01*
X14888Y12283D01*
X14898Y12293D01*
X14888D01*
X14878Y12303D01*
X14868Y12293D01*
X14858D01*
X14868Y12283D01*
X14858Y12273D01*
X14868D01*
X14878Y12263D01*
X16298Y10735D02*
X16308Y10755D01*
X16298Y10775D01*
X16318Y10765D01*
X16338Y10775D01*
X16328Y10755D01*
X16338Y10735D01*
X16318Y10745D01*
X16298Y10735D01*
Y10435D02*
X16308Y10455D01*
X16298Y10475D01*
X16318Y10465D01*
X16338Y10475D01*
X16328Y10455D01*
X16338Y10435D01*
X16318Y10445D01*
X16298Y10435D01*
X16398Y10385D02*
X16408Y10405D01*
X16398Y10425D01*
X16418Y10415D01*
X16438Y10425D01*
X16428Y10405D01*
X16438Y10385D01*
X16418Y10395D01*
X16398Y10385D01*
Y10685D02*
X16408Y10705D01*
X16398Y10725D01*
X16418Y10715D01*
X16438Y10725D01*
X16428Y10705D01*
X16438Y10685D01*
X16418Y10695D01*
X16398Y10685D01*
X16298Y10635D02*
X16308Y10655D01*
X16298Y10675D01*
X16318Y10665D01*
X16338Y10675D01*
X16328Y10655D01*
X16338Y10635D01*
X16318Y10645D01*
X16298Y10635D01*
Y10535D02*
X16308Y10555D01*
X16298Y10575D01*
X16318Y10565D01*
X16338Y10575D01*
X16328Y10555D01*
X16338Y10535D01*
X16318Y10545D01*
X16298Y10535D01*
X16398Y10585D02*
X16408Y10605D01*
X16398Y10625D01*
X16418Y10615D01*
X16438Y10625D01*
X16428Y10605D01*
X16438Y10585D01*
X16418Y10595D01*
X16398Y10585D01*
Y10485D02*
X16408Y10505D01*
X16398Y10525D01*
X16418Y10515D01*
X16438Y10525D01*
X16428Y10505D01*
X16438Y10485D01*
X16418Y10495D01*
X16398Y10485D01*
X16658Y10345D02*
Y10335D01*
X16678D01*
Y10345D01*
X16688D01*
Y10365D01*
X16678D01*
Y10375D01*
X16658D01*
Y10365D01*
X16648D01*
Y10345D01*
X16658D01*
Y10795D02*
Y10785D01*
X16678D01*
Y10795D01*
X16688D01*
Y10815D01*
X16678D01*
Y10825D01*
X16658D01*
Y10815D01*
X16648D01*
Y10795D01*
X16658D01*
X16841Y10311D02*
X16851D01*
X16861Y10321D01*
X16871Y10311D01*
X16881D01*
Y10321D01*
X16871Y10331D01*
X16881Y10341D01*
Y10351D01*
X16871D01*
X16861Y10341D01*
X16851Y10351D01*
X16841D01*
Y10341D01*
X16851Y10331D01*
X16841Y10321D01*
Y10311D01*
X16781Y10411D02*
X16791D01*
X16801Y10421D01*
X16811Y10411D01*
X16821D01*
Y10421D01*
X16811Y10431D01*
X16821Y10441D01*
Y10451D01*
X16811D01*
X16801Y10441D01*
X16791Y10451D01*
X16781D01*
Y10441D01*
X16791Y10431D01*
X16781Y10421D01*
Y10411D01*
X16841Y10709D02*
X16851D01*
X16861Y10719D01*
X16871Y10709D01*
X16881D01*
Y10719D01*
X16871Y10729D01*
X16881Y10739D01*
Y10749D01*
X16871D01*
X16861Y10739D01*
X16851Y10749D01*
X16841D01*
Y10739D01*
X16851Y10729D01*
X16841Y10719D01*
Y10709D01*
X16781Y10809D02*
X16791D01*
X16801Y10819D01*
X16811Y10809D01*
X16821D01*
Y10819D01*
X16811Y10829D01*
X16821Y10839D01*
Y10849D01*
X16811D01*
X16801Y10839D01*
X16791Y10849D01*
X16781D01*
Y10839D01*
X16791Y10829D01*
X16781Y10819D01*
Y10809D01*
X16528Y10270D02*
X16548Y10290D01*
X16568Y10270D01*
X16548Y10250D01*
X16528Y10270D01*
Y10890D02*
X16548Y10910D01*
X16568Y10890D01*
X16548Y10870D01*
X16528Y10890D01*
X16482Y12983D02*
Y13023D01*
X16522D01*
Y12983D01*
X16482D01*
X16490Y12991D02*
Y13015D01*
X16514D01*
Y12991D01*
X16490D01*
X16482Y12783D02*
Y12823D01*
X16522D01*
Y12783D01*
X16482D01*
X16490Y12791D02*
Y12815D01*
X16514D01*
Y12791D01*
X16490D01*
X15440Y10921D02*
X15450Y10941D01*
X15440Y10961D01*
X15460Y10951D01*
X15480Y10961D01*
X15470Y10941D01*
X15480Y10921D01*
X15460Y10931D01*
X15440Y10921D01*
Y11021D02*
X15450Y11041D01*
X15440Y11061D01*
X15460Y11051D01*
X15480Y11061D01*
X15470Y11041D01*
X15480Y11021D01*
X15460Y11031D01*
X15440Y11021D01*
X15540Y10921D02*
X15550Y10941D01*
X15540Y10961D01*
X15560Y10951D01*
X15580Y10961D01*
X15570Y10941D01*
X15580Y10921D01*
X15560Y10931D01*
X15540Y10921D01*
Y11021D02*
X15550Y11041D01*
X15540Y11061D01*
X15560Y11051D01*
X15580Y11061D01*
X15570Y11041D01*
X15580Y11021D01*
X15560Y11031D01*
X15540Y11021D01*
X15640Y10921D02*
X15650Y10941D01*
X15640Y10961D01*
X15660Y10951D01*
X15680Y10961D01*
X15670Y10941D01*
X15680Y10921D01*
X15660Y10931D01*
X15640Y10921D01*
Y11021D02*
X15650Y11041D01*
X15640Y11061D01*
X15660Y11051D01*
X15680Y11061D01*
X15670Y11041D01*
X15680Y11021D01*
X15660Y11031D01*
X15640Y11021D01*
X15740Y10921D02*
X15750Y10941D01*
X15740Y10961D01*
X15760Y10951D01*
X15780Y10961D01*
X15770Y10941D01*
X15780Y10921D01*
X15760Y10931D01*
X15740Y10921D01*
Y11021D02*
X15750Y11041D01*
X15740Y11061D01*
X15760Y11051D01*
X15780Y11061D01*
X15770Y11041D01*
X15780Y11021D01*
X15760Y11031D01*
X15740Y11021D01*
X15840Y10921D02*
X15850Y10941D01*
X15840Y10961D01*
X15860Y10951D01*
X15880Y10961D01*
X15870Y10941D01*
X15880Y10921D01*
X15860Y10931D01*
X15840Y10921D01*
Y11021D02*
X15850Y11041D01*
X15840Y11061D01*
X15860Y11051D01*
X15880Y11061D01*
X15870Y11041D01*
X15880Y11021D01*
X15860Y11031D01*
X15840Y11021D01*
X15940Y10921D02*
X15950Y10941D01*
X15940Y10961D01*
X15960Y10951D01*
X15980Y10961D01*
X15970Y10941D01*
X15980Y10921D01*
X15960Y10931D01*
X15940Y10921D01*
Y11021D02*
X15950Y11041D01*
X15940Y11061D01*
X15960Y11051D01*
X15980Y11061D01*
X15970Y11041D01*
X15980Y11021D01*
X15960Y11031D01*
X15940Y11021D01*
X16040Y10921D02*
X16050Y10941D01*
X16040Y10961D01*
X16060Y10951D01*
X16080Y10961D01*
X16070Y10941D01*
X16080Y10921D01*
X16060Y10931D01*
X16040Y10921D01*
Y11021D02*
X16050Y11041D01*
X16040Y11061D01*
X16060Y11051D01*
X16080Y11061D01*
X16070Y11041D01*
X16080Y11021D01*
X16060Y11031D01*
X16040Y11021D01*
X16749Y13085D02*
Y13125D01*
X16789D01*
Y13085D01*
X16749D01*
X16757Y13093D02*
Y13117D01*
X16781D01*
Y13093D01*
X16757D01*
X16749Y13235D02*
Y13275D01*
X16789D01*
Y13235D01*
X16749D01*
X16757Y13243D02*
Y13267D01*
X16781D01*
Y13243D01*
X16757D01*
X16749Y13385D02*
Y13425D01*
X16789D01*
Y13385D01*
X16749D01*
X16757Y13393D02*
Y13417D01*
X16781D01*
Y13393D01*
X16757D01*
X16749Y13535D02*
Y13575D01*
X16789D01*
Y13535D01*
X16749D01*
X16757Y13543D02*
Y13567D01*
X16781D01*
Y13543D01*
X16757D01*
X16749Y12379D02*
Y12419D01*
X16789D01*
Y12379D01*
X16749D01*
X16757Y12387D02*
Y12411D01*
X16781D01*
Y12387D01*
X16757D01*
X16749Y12229D02*
Y12269D01*
X16789D01*
Y12229D01*
X16749D01*
X16757Y12237D02*
Y12261D01*
X16781D01*
Y12237D01*
X16757D01*
X16574Y11173D02*
X16554Y11213D01*
X16594D01*
X16574Y11173D01*
Y11181D02*
X16562Y11205D01*
X16586D01*
X16574Y11181D01*
Y11647D02*
X16554Y11687D01*
X16594D01*
X16574Y11647D01*
Y11655D02*
X16562Y11679D01*
X16586D01*
X16574Y11655D01*
X16182Y12410D02*
Y12450D01*
X16222D01*
Y12410D01*
X16182D01*
X16029Y12460D02*
Y12500D01*
X16069D01*
Y12460D01*
X16029D01*
X16182Y12510D02*
Y12550D01*
X16222D01*
Y12510D01*
X16182D01*
X16029Y12560D02*
Y12600D01*
X16069D01*
Y12560D01*
X16029D01*
X16182Y12610D02*
Y12650D01*
X16222D01*
Y12610D01*
X16182D01*
X16029Y12660D02*
Y12700D01*
X16069D01*
Y12660D01*
X16029D01*
X16182Y12710D02*
Y12750D01*
X16222D01*
Y12710D01*
X16182D01*
X16519Y13358D02*
Y13398D01*
X16559D01*
Y13358D01*
X16519D01*
X16527Y13366D02*
Y13390D01*
X16551D01*
Y13366D01*
X16527D01*
X16519Y13558D02*
Y13598D01*
X16559D01*
Y13558D01*
X16519D01*
X16527Y13566D02*
Y13590D01*
X16551D01*
Y13566D01*
X16527D01*
X12880Y11280D02*
X12890Y11290D01*
X12900D01*
X12890Y11300D01*
X12900Y11310D01*
X12890D01*
X12880Y11320D01*
X12870Y11310D01*
X12860D01*
X12870Y11300D01*
X12860Y11290D01*
X12870D01*
X12880Y11280D01*
Y11288D02*
X12886Y11294D01*
X12892D01*
X12886Y11300D01*
X12892Y11306D01*
X12886D01*
X12880Y11312D01*
X12874Y11306D01*
X12868D01*
X12874Y11300D01*
X12868Y11294D01*
X12874D01*
X12880Y11288D01*
Y11233D02*
X12890Y11243D01*
X12900D01*
X12890Y11253D01*
X12900Y11263D01*
X12890D01*
X12880Y11273D01*
X12870Y11263D01*
X12860D01*
X12870Y11253D01*
X12860Y11243D01*
X12870D01*
X12880Y11233D01*
Y11241D02*
X12886Y11247D01*
X12892D01*
X12886Y11253D01*
X12892Y11259D01*
X12886D01*
X12880Y11265D01*
X12874Y11259D01*
X12868D01*
X12874Y11253D01*
X12868Y11247D01*
X12874D01*
X12880Y11241D01*
X12859Y10724D02*
X12869Y10734D01*
X12879D01*
X12869Y10744D01*
X12879Y10754D01*
X12869D01*
X12859Y10764D01*
X12849Y10754D01*
X12839D01*
X12849Y10744D01*
X12839Y10734D01*
X12849D01*
X12859Y10724D01*
Y10732D02*
X12865Y10738D01*
X12871D01*
X12865Y10744D01*
X12871Y10750D01*
X12865D01*
X12859Y10756D01*
X12853Y10750D01*
X12847D01*
X12853Y10744D01*
X12847Y10738D01*
X12853D01*
X12859Y10732D01*
Y10677D02*
X12869Y10687D01*
X12879D01*
X12869Y10697D01*
X12879Y10707D01*
X12869D01*
X12859Y10717D01*
X12849Y10707D01*
X12839D01*
X12849Y10697D01*
X12839Y10687D01*
X12849D01*
X12859Y10677D01*
Y10685D02*
X12865Y10691D01*
X12871D01*
X12865Y10697D01*
X12871Y10703D01*
X12865D01*
X12859Y10709D01*
X12853Y10703D01*
X12847D01*
X12853Y10697D01*
X12847Y10691D01*
X12853D01*
X12859Y10685D01*
X14034Y10656D02*
X14044Y10666D01*
X14054D01*
X14044Y10676D01*
X14054Y10686D01*
X14044D01*
X14034Y10696D01*
X14024Y10686D01*
X14014D01*
X14024Y10676D01*
X14014Y10666D01*
X14024D01*
X14034Y10656D01*
X14034Y10585D02*
X14044Y10595D01*
X14054D01*
X14044Y10605D01*
X14054Y10615D01*
X14044D01*
X14034Y10625D01*
X14024Y10615D01*
X14014D01*
X14024Y10605D01*
X14014Y10595D01*
X14024D01*
X14034Y10585D01*
X14034Y10622D02*
X14044Y10632D01*
X14054D01*
X14044Y10642D01*
X14054Y10652D01*
X14044D01*
X14034Y10662D01*
X14024Y10652D01*
X14014D01*
X14024Y10642D01*
X14014Y10632D01*
X14024D01*
X14034Y10622D01*
X13990Y10808D02*
X14000Y10818D01*
X14010D01*
X14000Y10828D01*
X14010Y10838D01*
X14000D01*
X13990Y10848D01*
X13980Y10838D01*
X13970D01*
X13980Y10828D01*
X13970Y10818D01*
X13980D01*
X13990Y10808D01*
X13966Y10784D02*
X13976Y10794D01*
X13986D01*
X13976Y10804D01*
X13986Y10814D01*
X13976D01*
X13966Y10824D01*
X13956Y10814D01*
X13946D01*
X13956Y10804D01*
X13946Y10794D01*
X13956D01*
X13966Y10784D01*
X14299Y10795D02*
X14309Y10805D01*
X14319D01*
X14309Y10815D01*
X14319Y10825D01*
X14309D01*
X14299Y10835D01*
X14289Y10825D01*
X14279D01*
X14289Y10815D01*
X14279Y10805D01*
X14289D01*
X14299Y10795D01*
X16059Y11172D02*
X16069Y11182D01*
X16079D01*
X16069Y11192D01*
X16079Y11202D01*
X16069D01*
X16059Y11212D01*
X16049Y11202D01*
X16039D01*
X16049Y11192D01*
X16039Y11182D01*
X16049D01*
X16059Y11172D01*
X15959Y11216D02*
X15969Y11226D01*
X15979D01*
X15969Y11236D01*
X15979Y11246D01*
X15969D01*
X15959Y11256D01*
X15949Y11246D01*
X15939D01*
X15949Y11236D01*
X15939Y11226D01*
X15949D01*
X15959Y11216D01*
X15860Y11260D02*
X15870Y11270D01*
X15880D01*
X15870Y11280D01*
X15880Y11290D01*
X15870D01*
X15860Y11300D01*
X15850Y11290D01*
X15840D01*
X15850Y11280D01*
X15840Y11270D01*
X15850D01*
X15860Y11260D01*
X15760Y11150D02*
X15770Y11160D01*
X15780D01*
X15770Y11170D01*
X15780Y11180D01*
X15770D01*
X15760Y11190D01*
X15750Y11180D01*
X15740D01*
X15750Y11170D01*
X15740Y11160D01*
X15750D01*
X15760Y11150D01*
X15660Y11194D02*
X15670Y11204D01*
X15680D01*
X15670Y11214D01*
X15680Y11224D01*
X15670D01*
X15660Y11234D01*
X15650Y11224D01*
X15640D01*
X15650Y11214D01*
X15640Y11204D01*
X15650D01*
X15660Y11194D01*
X15460Y11238D02*
X15470Y11248D01*
X15480D01*
X15470Y11258D01*
X15480Y11268D01*
X15470D01*
X15460Y11278D01*
X15450Y11268D01*
X15440D01*
X15450Y11258D01*
X15440Y11248D01*
X15450D01*
X15460Y11238D01*
X14783Y11216D02*
X14793Y11226D01*
X14803D01*
X14793Y11236D01*
X14803Y11246D01*
X14793D01*
X14783Y11256D01*
X14773Y11246D01*
X14763D01*
X14773Y11236D01*
X14763Y11226D01*
X14773D01*
X14783Y11216D01*
Y11186D02*
X14793Y11196D01*
X14803D01*
X14793Y11206D01*
X14803Y11216D01*
X14793D01*
X14783Y11226D01*
X14773Y11216D01*
X14763D01*
X14773Y11206D01*
X14763Y11196D01*
X14773D01*
X14783Y11186D01*
Y11066D02*
X14793Y11076D01*
X14803D01*
X14793Y11086D01*
X14803Y11096D01*
X14793D01*
X14783Y11106D01*
X14773Y11096D01*
X14763D01*
X14773Y11086D01*
X14763Y11076D01*
X14773D01*
X14783Y11066D01*
Y11096D02*
X14793Y11106D01*
X14803D01*
X14793Y11116D01*
X14803Y11126D01*
X14793D01*
X14783Y11136D01*
X14773Y11126D01*
X14763D01*
X14773Y11116D01*
X14763Y11106D01*
X14773D01*
X14783Y11096D01*
Y11126D02*
X14793Y11136D01*
X14803D01*
X14793Y11146D01*
X14803Y11156D01*
X14793D01*
X14783Y11166D01*
X14773Y11156D01*
X14763D01*
X14773Y11146D01*
X14763Y11136D01*
X14773D01*
X14783Y11126D01*
Y11156D02*
X14793Y11166D01*
X14803D01*
X14793Y11176D01*
X14803Y11186D01*
X14793D01*
X14783Y11196D01*
X14773Y11186D01*
X14763D01*
X14773Y11176D01*
X14763Y11166D01*
X14773D01*
X14783Y11156D01*
X14112Y12230D02*
X14122Y12240D01*
X14132D01*
X14122Y12250D01*
X14132Y12260D01*
X14122D01*
X14112Y12270D01*
X14102Y12260D01*
X14092D01*
X14102Y12250D01*
X14092Y12240D01*
X14102D01*
X14112Y12230D01*
Y10585D02*
X14122Y10595D01*
X14132D01*
X14122Y10605D01*
X14132Y10615D01*
X14122D01*
X14112Y10625D01*
X14102Y10615D01*
X14092D01*
X14102Y10605D01*
X14092Y10595D01*
X14102D01*
X14112Y10585D01*
X14215Y11414D02*
X14225Y11424D01*
X14235D01*
X14225Y11434D01*
X14235Y11444D01*
X14225D01*
X14215Y11454D01*
X14205Y11444D01*
X14195D01*
X14205Y11434D01*
X14195Y11424D01*
X14205D01*
X14215Y11414D01*
Y10614D02*
X14225Y10624D01*
X14235D01*
X14225Y10634D01*
X14235Y10644D01*
X14225D01*
X14215Y10654D01*
X14205Y10644D01*
X14195D01*
X14205Y10634D01*
X14195Y10624D01*
X14205D01*
X14215Y10614D01*
X14362Y10336D02*
X14372Y10346D01*
X14382D01*
X14372Y10356D01*
X14382Y10366D01*
X14372D01*
X14362Y10376D01*
X14352Y10366D01*
X14342D01*
X14352Y10356D01*
X14342Y10346D01*
X14352D01*
X14362Y10336D01*
Y10640D02*
X14372Y10650D01*
X14382D01*
X14372Y10660D01*
X14382Y10670D01*
X14372D01*
X14362Y10680D01*
X14352Y10670D01*
X14342D01*
X14352Y10660D01*
X14342Y10650D01*
X14352D01*
X14362Y10640D01*
X14445Y12373D02*
X14455Y12383D01*
X14465D01*
X14455Y12393D01*
X14465Y12403D01*
X14455D01*
X14445Y12413D01*
X14435Y12403D01*
X14425D01*
X14435Y12393D01*
X14425Y12383D01*
X14435D01*
X14445Y12373D01*
X14812Y12400D02*
X14822Y12410D01*
X14832D01*
X14822Y12420D01*
X14832Y12430D01*
X14822D01*
X14812Y12440D01*
X14802Y12430D01*
X14792D01*
X14802Y12420D01*
X14792Y12410D01*
X14802D01*
X14812Y12400D01*
X12625Y13202D02*
X12635Y13212D01*
X12645D01*
X12635Y13222D01*
X12645Y13232D01*
X12635D01*
X12625Y13242D01*
X12615Y13232D01*
X12605D01*
X12615Y13222D01*
X12605Y13212D01*
X12615D01*
X12625Y13202D01*
X12615Y12230D02*
X12625Y12240D01*
X12635D01*
X12625Y12250D01*
X12635Y12260D01*
X12625D01*
X12615Y12270D01*
X12605Y12260D01*
X12595D01*
X12605Y12250D01*
X12595Y12240D01*
X12605D01*
X12615Y12230D01*
X12602Y11224D02*
X12612Y11234D01*
X12622D01*
X12612Y11244D01*
X12622Y11254D01*
X12612D01*
X12602Y11264D01*
X12592Y11254D01*
X12582D01*
X12592Y11244D01*
X12582Y11234D01*
X12592D01*
X12602Y11224D01*
X12587Y10279D02*
X12597Y10289D01*
X12607D01*
X12597Y10299D01*
X12607Y10309D01*
X12597D01*
X12587Y10319D01*
X12577Y10309D01*
X12567D01*
X12577Y10299D01*
X12567Y10289D01*
X12577D01*
X12587Y10279D01*
X13757Y11346D02*
X13767Y11356D01*
X13777D01*
X13767Y11366D01*
X13777Y11376D01*
X13767D01*
X13757Y11386D01*
X13747Y11376D01*
X13737D01*
X13747Y11366D01*
X13737Y11356D01*
X13747D01*
X13757Y11346D01*
X13756Y11094D02*
X13766Y11104D01*
X13776D01*
X13766Y11114D01*
X13776Y11124D01*
X13766D01*
X13756Y11134D01*
X13746Y11124D01*
X13736D01*
X13746Y11114D01*
X13736Y11104D01*
X13746D01*
X13756Y11094D01*
X13757Y10559D02*
X13767Y10569D01*
X13777D01*
X13767Y10579D01*
X13777Y10589D01*
X13767D01*
X13757Y10599D01*
X13747Y10589D01*
X13737D01*
X13747Y10579D01*
X13737Y10569D01*
X13747D01*
X13757Y10559D01*
X14546Y10804D02*
X14556Y10814D01*
X14566D01*
X14556Y10824D01*
X14566Y10834D01*
X14556D01*
X14546Y10844D01*
X14536Y10834D01*
X14526D01*
X14536Y10824D01*
X14526Y10814D01*
X14536D01*
X14546Y10804D01*
Y11341D02*
X14556Y11351D01*
X14566D01*
X14556Y11361D01*
X14566Y11371D01*
X14556D01*
X14546Y11381D01*
X14536Y11371D01*
X14526D01*
X14536Y11361D01*
X14526Y11351D01*
X14536D01*
X14546Y11341D01*
X14510Y11848D02*
X14520Y11858D01*
X14530D01*
X14520Y11868D01*
X14530Y11878D01*
X14520D01*
X14510Y11888D01*
X14500Y11878D01*
X14490D01*
X14500Y11868D01*
X14490Y11858D01*
X14500D01*
X14510Y11848D01*
X15678Y10663D02*
X15688Y10673D01*
X15698D01*
X15688Y10683D01*
X15698Y10693D01*
X15688D01*
X15678Y10703D01*
X15668Y10693D01*
X15658D01*
X15668Y10683D01*
X15658Y10673D01*
X15668D01*
X15678Y10663D01*
X12827Y12553D02*
X12837Y12563D01*
X12847D01*
X12837Y12573D01*
X12847Y12583D01*
X12837D01*
X12827Y12593D01*
X12817Y12583D01*
X12807D01*
X12817Y12573D01*
X12807Y12563D01*
X12817D01*
X12827Y12553D01*
X13080Y12320D02*
X13090Y12330D01*
X13100D01*
X13090Y12340D01*
X13100Y12350D01*
X13090D01*
X13080Y12360D01*
X13070Y12350D01*
X13060D01*
X13070Y12340D01*
X13060Y12330D01*
X13070D01*
X13080Y12320D01*
X12794Y12437D02*
X12804Y12447D01*
X12814D01*
X12804Y12457D01*
X12814Y12467D01*
X12804D01*
X12794Y12477D01*
X12784Y12467D01*
X12774D01*
X12784Y12457D01*
X12774Y12447D01*
X12784D01*
X12794Y12437D01*
X16245Y11465D02*
X16255Y11475D01*
X16265D01*
X16255Y11485D01*
X16265Y11495D01*
X16255D01*
X16245Y11505D01*
X16235Y11495D01*
X16225D01*
X16235Y11485D01*
X16225Y11475D01*
X16235D01*
X16245Y11465D01*
X14858Y11295D02*
X14868Y11305D01*
X14878D01*
X14868Y11315D01*
X14878Y11325D01*
X14868D01*
X14858Y11335D01*
X14848Y11325D01*
X14838D01*
X14848Y11315D01*
X14838Y11305D01*
X14848D01*
X14858Y11295D01*
X14830Y11314D02*
X14840Y11324D01*
X14850D01*
X14840Y11334D01*
X14850Y11344D01*
X14840D01*
X14830Y11354D01*
X14820Y11344D01*
X14810D01*
X14820Y11334D01*
X14810Y11324D01*
X14820D01*
X14830Y11314D01*
X14800Y11335D02*
X14810Y11345D01*
X14820D01*
X14810Y11355D01*
X14820Y11365D01*
X14810D01*
X14800Y11375D01*
X14790Y11365D01*
X14780D01*
X14790Y11355D01*
X14780Y11345D01*
X14790D01*
X14800Y11335D01*
X16151Y10384D02*
X16161Y10394D01*
X16171D01*
X16161Y10404D01*
X16171Y10414D01*
X16161D01*
X16151Y10424D01*
X16141Y10414D01*
X16131D01*
X16141Y10404D01*
X16131Y10394D01*
X16141D01*
X16151Y10384D01*
X16178Y10433D02*
X16188Y10443D01*
X16198D01*
X16188Y10453D01*
X16198Y10463D01*
X16188D01*
X16178Y10473D01*
X16168Y10463D01*
X16158D01*
X16168Y10453D01*
X16158Y10443D01*
X16168D01*
X16178Y10433D01*
X16097Y10484D02*
X16107Y10494D01*
X16117D01*
X16107Y10504D01*
X16117Y10514D01*
X16107D01*
X16097Y10524D01*
X16087Y10514D01*
X16077D01*
X16087Y10504D01*
X16077Y10494D01*
X16087D01*
X16097Y10484D01*
X16207Y10534D02*
X16217Y10544D01*
X16227D01*
X16217Y10554D01*
X16227Y10564D01*
X16217D01*
X16207Y10574D01*
X16197Y10564D01*
X16187D01*
X16197Y10554D01*
X16187Y10544D01*
X16197D01*
X16207Y10534D01*
X16125Y10634D02*
X16135Y10644D01*
X16145D01*
X16135Y10654D01*
X16145Y10664D01*
X16135D01*
X16125Y10674D01*
X16115Y10664D01*
X16105D01*
X16115Y10654D01*
X16105Y10644D01*
X16115D01*
X16125Y10634D01*
X16071Y10658D02*
X16081Y10668D01*
X16091D01*
X16081Y10678D01*
X16091Y10688D01*
X16081D01*
X16071Y10698D01*
X16061Y10688D01*
X16051D01*
X16061Y10678D01*
X16051Y10668D01*
X16061D01*
X16071Y10658D01*
X14289Y10765D02*
X14299Y10775D01*
X14309D01*
X14299Y10785D01*
X14309Y10795D01*
X14299D01*
X14289Y10805D01*
X14279Y10795D01*
X14269D01*
X14279Y10785D01*
X14269Y10775D01*
X14279D01*
X14289Y10765D01*
X14329Y10804D02*
X14339Y10814D01*
X14349D01*
X14339Y10824D01*
X14349Y10834D01*
X14339D01*
X14329Y10844D01*
X14319Y10834D01*
X14309D01*
X14319Y10824D01*
X14309Y10814D01*
X14319D01*
X14329Y10804D01*
X13944Y10762D02*
X13954Y10772D01*
X13964D01*
X13954Y10782D01*
X13964Y10792D01*
X13954D01*
X13944Y10802D01*
X13934Y10792D01*
X13924D01*
X13934Y10782D01*
X13924Y10772D01*
X13934D01*
X13944Y10762D01*
X15929Y11888D02*
X15939Y11908D01*
X15929Y11928D01*
X15949Y11918D01*
X15969Y11928D01*
X15959Y11908D01*
X15969Y11888D01*
X15949Y11898D01*
X15929Y11888D01*
X15937Y11896D02*
X15943Y11908D01*
X15937Y11920D01*
X15949Y11914D01*
X15961Y11920D01*
X15955Y11908D01*
X15961Y11896D01*
X15949Y11902D01*
X15937Y11896D01*
X12421Y13316D02*
X12431Y13326D01*
X12441D01*
X12431Y13336D01*
X12441Y13346D01*
X12431D01*
X12421Y13356D01*
X12411Y13346D01*
X12401D01*
X12411Y13336D01*
X12401Y13326D01*
X12411D01*
X12421Y13316D01*
X12416Y12347D02*
X12426Y12357D01*
X12436D01*
X12426Y12367D01*
X12436Y12377D01*
X12426D01*
X12416Y12387D01*
X12406Y12377D01*
X12396D01*
X12406Y12367D01*
X12396Y12357D01*
X12406D01*
X12416Y12347D01*
X12414Y11373D02*
X12424Y11383D01*
X12434D01*
X12424Y11393D01*
X12434Y11403D01*
X12424D01*
X12414Y11413D01*
X12404Y11403D01*
X12394D01*
X12404Y11393D01*
X12394Y11383D01*
X12404D01*
X12414Y11373D01*
X12219Y12228D02*
X12229Y12238D01*
X12239D01*
X12229Y12248D01*
X12239Y12258D01*
X12229D01*
X12219Y12268D01*
X12209Y12258D01*
X12199D01*
X12209Y12248D01*
X12199Y12238D01*
X12209D01*
X12219Y12228D01*
X12351Y13549D02*
X12361Y13559D01*
X12371D01*
X12361Y13569D01*
X12371Y13579D01*
X12361D01*
X12351Y13589D01*
X12341Y13579D01*
X12331D01*
X12341Y13569D01*
X12331Y13559D01*
X12341D01*
X12351Y13549D01*
X12219Y13201D02*
X12229Y13211D01*
X12239D01*
X12229Y13221D01*
X12239Y13231D01*
X12229D01*
X12219Y13241D01*
X12209Y13231D01*
X12199D01*
X12209Y13221D01*
X12199Y13211D01*
X12209D01*
X12219Y13201D01*
Y13439D02*
X12229Y13449D01*
X12239D01*
X12229Y13459D01*
X12239Y13469D01*
X12229D01*
X12219Y13479D01*
X12209Y13469D01*
X12199D01*
X12209Y13459D01*
X12199Y13449D01*
X12209D01*
X12219Y13439D01*
X12214Y13319D02*
X12224Y13329D01*
X12234D01*
X12224Y13339D01*
X12234Y13349D01*
X12224D01*
X12214Y13359D01*
X12204Y13349D01*
X12194D01*
X12204Y13339D01*
X12194Y13329D01*
X12204D01*
X12214Y13319D01*
X12338Y12574D02*
X12348Y12584D01*
X12358D01*
X12348Y12594D01*
X12358Y12604D01*
X12348D01*
X12338Y12614D01*
X12328Y12604D01*
X12318D01*
X12328Y12594D01*
X12318Y12584D01*
X12328D01*
X12338Y12574D01*
X12217Y12464D02*
X12227Y12474D01*
X12237D01*
X12227Y12484D01*
X12237Y12494D01*
X12227D01*
X12217Y12504D01*
X12207Y12494D01*
X12197D01*
X12207Y12484D01*
X12197Y12474D01*
X12207D01*
X12217Y12464D01*
X12212Y12345D02*
X12222Y12355D01*
X12232D01*
X12222Y12365D01*
X12232Y12375D01*
X12222D01*
X12212Y12385D01*
X12202Y12375D01*
X12192D01*
X12202Y12365D01*
X12192Y12355D01*
X12202D01*
X12212Y12345D01*
X12356Y11607D02*
X12366Y11617D01*
X12376D01*
X12366Y11627D01*
X12376Y11637D01*
X12366D01*
X12356Y11647D01*
X12346Y11637D01*
X12336D01*
X12346Y11627D01*
X12336Y11617D01*
X12346D01*
X12356Y11607D01*
X12223Y11252D02*
X12233Y11262D01*
X12243D01*
X12233Y11272D01*
X12243Y11282D01*
X12233D01*
X12223Y11292D01*
X12213Y11282D01*
X12203D01*
X12213Y11272D01*
X12203Y11262D01*
X12213D01*
X12223Y11252D01*
X12220Y11489D02*
X12230Y11499D01*
X12240D01*
X12230Y11509D01*
X12240Y11519D01*
X12230D01*
X12220Y11529D01*
X12210Y11519D01*
X12200D01*
X12210Y11509D01*
X12200Y11499D01*
X12210D01*
X12220Y11489D01*
X12214Y11372D02*
X12224Y11382D01*
X12234D01*
X12224Y11392D01*
X12234Y11402D01*
X12224D01*
X12214Y11412D01*
X12204Y11402D01*
X12194D01*
X12204Y11392D01*
X12194Y11382D01*
X12204D01*
X12214Y11372D01*
X12357Y10623D02*
X12367Y10633D01*
X12377D01*
X12367Y10643D01*
X12377Y10653D01*
X12367D01*
X12357Y10663D01*
X12347Y10653D01*
X12337D01*
X12347Y10643D01*
X12337Y10633D01*
X12347D01*
X12357Y10623D01*
X12216Y10515D02*
X12226Y10525D01*
X12236D01*
X12226Y10535D01*
X12236Y10545D01*
X12226D01*
X12216Y10555D01*
X12206Y10545D01*
X12196D01*
X12206Y10535D01*
X12196Y10525D01*
X12206D01*
X12216Y10515D01*
X12228Y10397D02*
X12238Y10407D01*
X12248D01*
X12238Y10417D01*
X12248Y10427D01*
X12238D01*
X12228Y10437D01*
X12218Y10427D01*
X12208D01*
X12218Y10417D01*
X12208Y10407D01*
X12218D01*
X12228Y10397D01*
X12225Y10279D02*
X12235Y10289D01*
X12245D01*
X12235Y10299D01*
X12245Y10309D01*
X12235D01*
X12225Y10319D01*
X12215Y10309D01*
X12205D01*
X12215Y10299D01*
X12205Y10289D01*
X12215D01*
X12225Y10279D01*
X12421Y10397D02*
X12431Y10407D01*
X12441D01*
X12431Y10417D01*
X12441Y10427D01*
X12431D01*
X12421Y10437D01*
X12411Y10427D01*
X12401D01*
X12411Y10417D01*
X12401Y10407D01*
X12411D01*
X12421Y10397D01*
X12663Y10763D02*
X12673Y10773D01*
X12683D01*
X12673Y10783D01*
X12683Y10793D01*
X12673D01*
X12663Y10803D01*
X12653Y10793D01*
X12643D01*
X12653Y10783D01*
X12643Y10773D01*
X12653D01*
X12663Y10763D01*
X13017Y10180D02*
X13027Y10190D01*
X13037D01*
X13027Y10200D01*
X13037Y10210D01*
X13027D01*
X13017Y10220D01*
X13007Y10210D01*
X12997D01*
X13007Y10200D01*
X12997Y10190D01*
X13007D01*
X13017Y10180D01*
X12957Y10755D02*
X12967Y10765D01*
X12977D01*
X12967Y10775D01*
X12977Y10785D01*
X12967D01*
X12957Y10795D01*
X12947Y10785D01*
X12937D01*
X12947Y10775D01*
X12937Y10765D01*
X12947D01*
X12957Y10755D01*
X13060Y10608D02*
X13070Y10618D01*
X13080D01*
X13070Y10628D01*
X13080Y10638D01*
X13070D01*
X13060Y10648D01*
X13050Y10638D01*
X13040D01*
X13050Y10628D01*
X13040Y10618D01*
X13050D01*
X13060Y10608D01*
X13112Y10310D02*
X13122Y10320D01*
X13132D01*
X13122Y10330D01*
X13132Y10340D01*
X13122D01*
X13112Y10350D01*
X13102Y10340D01*
X13092D01*
X13102Y10330D01*
X13092Y10320D01*
X13102D01*
X13112Y10310D01*
X13182Y10205D02*
X13192Y10215D01*
X13202D01*
X13192Y10225D01*
X13202Y10235D01*
X13192D01*
X13182Y10245D01*
X13172Y10235D01*
X13162D01*
X13172Y10225D01*
X13162Y10215D01*
X13172D01*
X13182Y10205D01*
Y10150D02*
X13192Y10160D01*
X13202D01*
X13192Y10170D01*
X13202Y10180D01*
X13192D01*
X13182Y10190D01*
X13172Y10180D01*
X13162D01*
X13172Y10170D01*
X13162Y10160D01*
X13172D01*
X13182Y10150D01*
X12862Y10765D02*
X12872Y10775D01*
X12882D01*
X12872Y10785D01*
X12882Y10795D01*
X12872D01*
X12862Y10805D01*
X12852Y10795D01*
X12842D01*
X12852Y10785D01*
X12842Y10775D01*
X12852D01*
X12862Y10765D01*
X12956Y10692D02*
X12966Y10702D01*
X12976D01*
X12966Y10712D01*
X12976Y10722D01*
X12966D01*
X12956Y10732D01*
X12946Y10722D01*
X12936D01*
X12946Y10712D01*
X12936Y10702D01*
X12946D01*
X12956Y10692D01*
X12962Y10305D02*
X12972Y10315D01*
X12982D01*
X12972Y10325D01*
X12982Y10335D01*
X12972D01*
X12962Y10345D01*
X12952Y10335D01*
X12942D01*
X12952Y10325D01*
X12942Y10315D01*
X12952D01*
X12962Y10305D01*
X12857D02*
X12867Y10315D01*
X12877D01*
X12867Y10325D01*
X12877Y10335D01*
X12867D01*
X12857Y10345D01*
X12847Y10335D01*
X12837D01*
X12847Y10325D01*
X12837Y10315D01*
X12847D01*
X12857Y10305D01*
X13182Y10255D02*
X13192Y10265D01*
X13202D01*
X13192Y10275D01*
X13202Y10285D01*
X13192D01*
X13182Y10295D01*
X13172Y10285D01*
X13162D01*
X13172Y10275D01*
X13162Y10265D01*
X13172D01*
X13182Y10255D01*
X12804Y10809D02*
X12814Y10819D01*
X12824D01*
X12814Y10829D01*
X12824Y10839D01*
X12814D01*
X12804Y10849D01*
X12794Y10839D01*
X12784D01*
X12794Y10829D01*
X12784Y10819D01*
X12794D01*
X12804Y10809D01*
X12618Y10810D02*
X12628Y10820D01*
X12638D01*
X12628Y10830D01*
X12638Y10840D01*
X12628D01*
X12618Y10850D01*
X12608Y10840D01*
X12598D01*
X12608Y10830D01*
X12598Y10820D01*
X12608D01*
X12618Y10810D01*
X13002Y10755D02*
X13012Y10765D01*
X13022D01*
X13012Y10775D01*
X13022Y10785D01*
X13012D01*
X13002Y10795D01*
X12992Y10785D01*
X12982D01*
X12992Y10775D01*
X12982Y10765D01*
X12992D01*
X13002Y10755D01*
X13012Y10305D02*
X13022Y10315D01*
X13032D01*
X13022Y10325D01*
X13032Y10335D01*
X13022D01*
X13012Y10345D01*
X13002Y10335D01*
X12992D01*
X13002Y10325D01*
X12992Y10315D01*
X13002D01*
X13012Y10305D01*
X12912D02*
X12922Y10315D01*
X12932D01*
X12922Y10325D01*
X12932Y10335D01*
X12922D01*
X12912Y10345D01*
X12902Y10335D01*
X12892D01*
X12902Y10325D01*
X12892Y10315D01*
X12902D01*
X12912Y10305D01*
X12750Y10759D02*
X12760Y10769D01*
X12770D01*
X12760Y10779D01*
X12770Y10789D01*
X12760D01*
X12750Y10799D01*
X12740Y10789D01*
X12730D01*
X12740Y10779D01*
X12730Y10769D01*
X12740D01*
X12750Y10759D01*
X12752Y10305D02*
X12762Y10315D01*
X12772D01*
X12762Y10325D01*
X12772Y10335D01*
X12762D01*
X12752Y10345D01*
X12742Y10335D01*
X12732D01*
X12742Y10325D01*
X12732Y10315D01*
X12742D01*
X12752Y10305D01*
X13002Y10820D02*
X13012Y10830D01*
X13022D01*
X13012Y10840D01*
X13022Y10850D01*
X13012D01*
X13002Y10860D01*
X12992Y10850D01*
X12982D01*
X12992Y10840D01*
X12982Y10830D01*
X12992D01*
X13002Y10820D01*
X12917D02*
X12927Y10830D01*
X12937D01*
X12927Y10840D01*
X12937Y10850D01*
X12927D01*
X12917Y10860D01*
X12907Y10850D01*
X12897D01*
X12907Y10840D01*
X12897Y10830D01*
X12907D01*
X12917Y10820D01*
X12752Y10240D02*
X12762Y10250D01*
X12772D01*
X12762Y10260D01*
X12772Y10270D01*
X12762D01*
X12752Y10280D01*
X12742Y10270D01*
X12732D01*
X12742Y10260D01*
X12732Y10250D01*
X12742D01*
X12752Y10240D01*
X12757Y10165D02*
X12767Y10175D01*
X12777D01*
X12767Y10185D01*
X12777Y10195D01*
X12767D01*
X12757Y10205D01*
X12747Y10195D01*
X12737D01*
X12747Y10185D01*
X12737Y10175D01*
X12747D01*
X12757Y10165D01*
X12614Y10720D02*
X12624Y10730D01*
X12634D01*
X12624Y10740D01*
X12634Y10750D01*
X12624D01*
X12614Y10760D01*
X12604Y10750D01*
X12594D01*
X12604Y10740D01*
X12594Y10730D01*
X12604D01*
X12614Y10720D01*
X12936Y11204D02*
X12946Y11214D01*
X12956D01*
X12946Y11224D01*
X12956Y11234D01*
X12946D01*
X12936Y11244D01*
X12926Y11234D01*
X12916D01*
X12926Y11224D01*
X12916Y11214D01*
X12926D01*
X12936Y11204D01*
X12789Y11214D02*
X12799Y11224D01*
X12809D01*
X12799Y11234D01*
X12809Y11244D01*
X12799D01*
X12789Y11254D01*
X12779Y11244D01*
X12769D01*
X12779Y11234D01*
X12769Y11224D01*
X12779D01*
X12789Y11214D01*
X12905Y11344D02*
X12915Y11354D01*
X12925D01*
X12915Y11364D01*
X12925Y11374D01*
X12915D01*
X12905Y11384D01*
X12895Y11374D01*
X12885D01*
X12895Y11364D01*
X12885Y11354D01*
X12895D01*
X12905Y11344D01*
X12660Y11413D02*
X12670Y11423D01*
X12680D01*
X12670Y11433D01*
X12680Y11443D01*
X12670D01*
X12660Y11453D01*
X12650Y11443D01*
X12640D01*
X12650Y11433D01*
X12640Y11423D01*
X12650D01*
X12660Y11413D01*
X12661Y11284D02*
X12671Y11294D01*
X12681D01*
X12671Y11304D01*
X12681Y11314D01*
X12671D01*
X12661Y11324D01*
X12651Y11314D01*
X12641D01*
X12651Y11304D01*
X12641Y11294D01*
X12651D01*
X12661Y11284D01*
X12705Y11286D02*
X12715Y11296D01*
X12725D01*
X12715Y11306D01*
X12725Y11316D01*
X12715D01*
X12705Y11326D01*
X12695Y11316D01*
X12685D01*
X12695Y11306D01*
X12685Y11296D01*
X12695D01*
X12705Y11286D01*
X12659Y11349D02*
X12669Y11359D01*
X12679D01*
X12669Y11369D01*
X12679Y11379D01*
X12669D01*
X12659Y11389D01*
X12649Y11379D01*
X12639D01*
X12649Y11369D01*
X12639Y11359D01*
X12649D01*
X12659Y11349D01*
X12791Y11632D02*
X12801Y11642D01*
X12811D01*
X12801Y11652D01*
X12811Y11662D01*
X12801D01*
X12791Y11672D01*
X12781Y11662D01*
X12771D01*
X12781Y11652D01*
X12771Y11642D01*
X12781D01*
X12791Y11632D01*
X12873Y11633D02*
X12883Y11643D01*
X12893D01*
X12883Y11653D01*
X12893Y11663D01*
X12883D01*
X12873Y11673D01*
X12863Y11663D01*
X12853D01*
X12863Y11653D01*
X12853Y11643D01*
X12863D01*
X12873Y11633D01*
X12981Y11635D02*
X12991Y11645D01*
X13001D01*
X12991Y11655D01*
X13001Y11665D01*
X12991D01*
X12981Y11675D01*
X12971Y11665D01*
X12961D01*
X12971Y11655D01*
X12961Y11645D01*
X12971D01*
X12981Y11635D01*
X12989Y11549D02*
X12999Y11559D01*
X13009D01*
X12999Y11569D01*
X13009Y11579D01*
X12999D01*
X12989Y11589D01*
X12979Y11579D01*
X12969D01*
X12979Y11569D01*
X12969Y11559D01*
X12979D01*
X12989Y11549D01*
X12885Y11391D02*
X12895Y11401D01*
X12905D01*
X12895Y11411D01*
X12905Y11421D01*
X12895D01*
X12885Y11431D01*
X12875Y11421D01*
X12865D01*
X12875Y11411D01*
X12865Y11401D01*
X12875D01*
X12885Y11391D01*
X12811Y11109D02*
X12821Y11119D01*
X12831D01*
X12821Y11129D01*
X12831Y11139D01*
X12821D01*
X12811Y11149D01*
X12801Y11139D01*
X12791D01*
X12801Y11129D01*
X12791Y11119D01*
X12801D01*
X12811Y11109D01*
X13152Y11227D02*
X13162Y11237D01*
X13172D01*
X13162Y11247D01*
X13172Y11257D01*
X13162D01*
X13152Y11267D01*
X13142Y11257D01*
X13132D01*
X13142Y11247D01*
X13132Y11237D01*
X13142D01*
X13152Y11227D01*
X13155Y11167D02*
X13165Y11177D01*
X13175D01*
X13165Y11187D01*
X13175Y11197D01*
X13165D01*
X13155Y11207D01*
X13145Y11197D01*
X13135D01*
X13145Y11187D01*
X13135Y11177D01*
X13145D01*
X13155Y11167D01*
X13080Y11636D02*
X13090Y11646D01*
X13100D01*
X13090Y11656D01*
X13100Y11666D01*
X13090D01*
X13080Y11676D01*
X13070Y11666D01*
X13060D01*
X13070Y11656D01*
X13060Y11646D01*
X13070D01*
X13080Y11636D01*
X13005Y11466D02*
X13015Y11476D01*
X13025D01*
X13015Y11486D01*
X13025Y11496D01*
X13015D01*
X13005Y11506D01*
X12995Y11496D01*
X12985D01*
X12995Y11486D01*
X12985Y11476D01*
X12995D01*
X13005Y11466D01*
X12911Y11465D02*
X12921Y11475D01*
X12931D01*
X12921Y11485D01*
X12931Y11495D01*
X12921D01*
X12911Y11505D01*
X12901Y11495D01*
X12891D01*
X12901Y11485D01*
X12891Y11475D01*
X12901D01*
X12911Y11465D01*
X12817Y11160D02*
X12827Y11170D01*
X12837D01*
X12827Y11180D01*
X12837Y11190D01*
X12827D01*
X12817Y11200D01*
X12807Y11190D01*
X12797D01*
X12807Y11180D01*
X12797Y11170D01*
X12807D01*
X12817Y11160D01*
X14079Y13203D02*
X14089Y13213D01*
X14099D01*
X14089Y13223D01*
X14099Y13233D01*
X14089D01*
X14079Y13243D01*
X14069Y13233D01*
X14059D01*
X14069Y13223D01*
X14059Y13213D01*
X14069D01*
X14079Y13203D01*
X13950Y12463D02*
X13960Y12473D01*
X13970D01*
X13960Y12483D01*
X13970Y12493D01*
X13960D01*
X13950Y12503D01*
X13940Y12493D01*
X13930D01*
X13940Y12483D01*
X13930Y12473D01*
X13940D01*
X13950Y12463D01*
X13990Y13407D02*
X14000Y13417D01*
X14010D01*
X14000Y13427D01*
X14010Y13437D01*
X14000D01*
X13990Y13447D01*
X13980Y13437D01*
X13970D01*
X13980Y13427D01*
X13970Y13417D01*
X13980D01*
X13990Y13407D01*
X13827Y10513D02*
X13837Y10523D01*
X13847D01*
X13837Y10533D01*
X13847Y10543D01*
X13837D01*
X13827Y10553D01*
X13817Y10543D01*
X13807D01*
X13817Y10533D01*
X13807Y10523D01*
X13817D01*
X13827Y10513D01*
X13878Y11031D02*
X13888Y11041D01*
X13898D01*
X13888Y11051D01*
X13898Y11061D01*
X13888D01*
X13878Y11071D01*
X13868Y11061D01*
X13858D01*
X13868Y11051D01*
X13858Y11041D01*
X13868D01*
X13878Y11031D01*
X14260D02*
X14270Y11041D01*
X14280D01*
X14270Y11051D01*
X14280Y11061D01*
X14270D01*
X14260Y11071D01*
X14250Y11061D01*
X14240D01*
X14250Y11051D01*
X14240Y11041D01*
X14250D01*
X14260Y11031D01*
Y11490D02*
X14270Y11500D01*
X14280D01*
X14270Y11510D01*
X14280Y11520D01*
X14270D01*
X14260Y11530D01*
X14250Y11520D01*
X14240D01*
X14250Y11510D01*
X14240Y11500D01*
X14250D01*
X14260Y11490D01*
X13953Y10721D02*
X13963Y10731D01*
X13973D01*
X13963Y10741D01*
X13973Y10751D01*
X13963D01*
X13953Y10761D01*
X13943Y10751D01*
X13933D01*
X13943Y10741D01*
X13933Y10731D01*
X13943D01*
X13953Y10721D01*
X13822Y11105D02*
X13832Y11115D01*
X13842D01*
X13832Y11125D01*
X13842Y11135D01*
X13832D01*
X13822Y11145D01*
X13812Y11135D01*
X13802D01*
X13812Y11125D01*
X13802Y11115D01*
X13812D01*
X13822Y11105D01*
X15450Y10670D02*
X15460Y10680D01*
X15470D01*
X15460Y10690D01*
X15470Y10700D01*
X15460D01*
X15450Y10710D01*
X15440Y10700D01*
X15430D01*
X15440Y10690D01*
X15430Y10680D01*
X15440D01*
X15450Y10670D01*
X15443Y10538D02*
X15453Y10548D01*
X15463D01*
X15453Y10558D01*
X15463Y10568D01*
X15453D01*
X15443Y10578D01*
X15433Y10568D01*
X15423D01*
X15433Y10558D01*
X15423Y10548D01*
X15433D01*
X15443Y10538D01*
X15329Y10584D02*
X15339Y10594D01*
X15349D01*
X15339Y10604D01*
X15349Y10614D01*
X15339D01*
X15329Y10624D01*
X15319Y10614D01*
X15309D01*
X15319Y10604D01*
X15309Y10594D01*
X15319D01*
X15329Y10584D01*
X14738Y10624D02*
X14748Y10634D01*
X14758D01*
X14748Y10644D01*
X14758Y10654D01*
X14748D01*
X14738Y10664D01*
X14728Y10654D01*
X14718D01*
X14728Y10644D01*
X14718Y10634D01*
X14728D01*
X14738Y10624D01*
X15181Y12509D02*
X15191Y12519D01*
X15201D01*
X15191Y12529D01*
X15201Y12539D01*
X15191D01*
X15181Y12549D01*
X15171Y12539D01*
X15161D01*
X15171Y12529D01*
X15161Y12519D01*
X15171D01*
X15181Y12509D01*
X15143Y12608D02*
X15153Y12618D01*
X15163D01*
X15153Y12628D01*
X15163Y12638D01*
X15153D01*
X15143Y12648D01*
X15133Y12638D01*
X15123D01*
X15133Y12628D01*
X15123Y12618D01*
X15133D01*
X15143Y12608D01*
X15218Y12660D02*
X15228Y12670D01*
X15238D01*
X15228Y12680D01*
X15238Y12690D01*
X15228D01*
X15218Y12700D01*
X15208Y12690D01*
X15198D01*
X15208Y12680D01*
X15198Y12670D01*
X15208D01*
X15218Y12660D01*
X15065Y13132D02*
X15075Y13142D01*
X15085D01*
X15075Y13152D01*
X15085Y13162D01*
X15075D01*
X15065Y13172D01*
X15055Y13162D01*
X15045D01*
X15055Y13152D01*
X15045Y13142D01*
X15055D01*
X15065Y13132D01*
X15029Y13190D02*
X15039Y13200D01*
X15049D01*
X15039Y13210D01*
X15049Y13220D01*
X15039D01*
X15029Y13230D01*
X15019Y13220D01*
X15009D01*
X15019Y13210D01*
X15009Y13200D01*
X15019D01*
X15029Y13190D01*
X15102Y13246D02*
X15112Y13256D01*
X15122D01*
X15112Y13266D01*
X15122Y13276D01*
X15112D01*
X15102Y13286D01*
X15092Y13276D01*
X15082D01*
X15092Y13266D01*
X15082Y13256D01*
X15092D01*
X15102Y13246D01*
X15574Y11976D02*
X15584Y11996D01*
X15574Y12016D01*
X15594Y12006D01*
X15614Y12016D01*
X15604Y11996D01*
X15614Y11976D01*
X15594Y11986D01*
X15574Y11976D01*
X15582Y11984D02*
X15588Y11996D01*
X15582Y12008D01*
X15594Y12002D01*
X15606Y12008D01*
X15600Y11996D01*
X15606Y11984D01*
X15594Y11990D01*
X15582Y11984D01*
X15767Y12947D02*
Y12937D01*
X15787D01*
Y12947D01*
X15797D01*
Y12967D01*
X15787D01*
Y12977D01*
X15767D01*
Y12967D01*
X15757D01*
Y12947D01*
X15767D01*
X15771Y12951D02*
Y12945D01*
X15783D01*
Y12951D01*
X15789D01*
Y12963D01*
X15783D01*
Y12969D01*
X15771D01*
Y12963D01*
X15765D01*
Y12951D01*
X15771D01*
X15413Y12793D02*
Y12783D01*
X15433D01*
Y12793D01*
X15443D01*
Y12813D01*
X15433D01*
Y12823D01*
X15413D01*
Y12813D01*
X15403D01*
Y12793D01*
X15413D01*
X15417Y12797D02*
Y12791D01*
X15429D01*
Y12797D01*
X15435D01*
Y12809D01*
X15429D01*
Y12815D01*
X15417D01*
Y12809D01*
X15411D01*
Y12797D01*
X15417D01*
X15755Y13598D02*
Y13588D01*
X15775D01*
Y13598D01*
X15785D01*
Y13618D01*
X15775D01*
Y13628D01*
X15755D01*
Y13618D01*
X15745D01*
Y13598D01*
X15755D01*
X15759Y13602D02*
Y13596D01*
X15771D01*
Y13602D01*
X15777D01*
Y13614D01*
X15771D01*
Y13620D01*
X15759D01*
Y13614D01*
X15753D01*
Y13602D01*
X15759D01*
X15947Y13652D02*
X15957D01*
X15967Y13662D01*
X15977Y13652D01*
X15987D01*
Y13662D01*
X15977Y13672D01*
X15987Y13682D01*
Y13692D01*
X15977D01*
X15967Y13682D01*
X15957Y13692D01*
X15947D01*
Y13682D01*
X15957Y13672D01*
X15947Y13662D01*
Y13652D01*
X15955Y13660D02*
X15961D01*
X15967Y13666D01*
X15973Y13660D01*
X15979D01*
Y13666D01*
X15973Y13672D01*
X15979Y13678D01*
Y13684D01*
X15973D01*
X15967Y13678D01*
X15961Y13684D01*
X15955D01*
Y13678D01*
X15961Y13672D01*
X15955Y13666D01*
Y13660D01*
X16028Y12952D02*
X16038Y12962D01*
X16048D01*
X16038Y12972D01*
X16048Y12982D01*
X16038D01*
X16028Y12992D01*
X16018Y12982D01*
X16008D01*
X16018Y12972D01*
X16008Y12962D01*
X16018D01*
X16028Y12952D01*
X16457Y10320D02*
X16467Y10330D01*
X16477D01*
X16467Y10340D01*
X16477Y10350D01*
X16467D01*
X16457Y10360D01*
X16447Y10350D01*
X16437D01*
X16447Y10340D01*
X16437Y10330D01*
X16447D01*
X16457Y10320D01*
X14764Y10426D02*
X14774Y10436D01*
X14784D01*
X14774Y10446D01*
X14784Y10456D01*
X14774D01*
X14764Y10466D01*
X14754Y10456D01*
X14744D01*
X14754Y10446D01*
X14744Y10436D01*
X14754D01*
X14764Y10426D01*
X16688Y10114D02*
X16698Y10124D01*
X16708D01*
X16698Y10134D01*
X16708Y10144D01*
X16698D01*
X16688Y10154D01*
X16678Y10144D01*
X16668D01*
X16678Y10134D01*
X16668Y10124D01*
X16678D01*
X16688Y10114D01*
X14805Y10397D02*
X14815Y10407D01*
X14825D01*
X14815Y10417D01*
X14825Y10427D01*
X14815D01*
X14805Y10437D01*
X14795Y10427D01*
X14785D01*
X14795Y10417D01*
X14785Y10407D01*
X14795D01*
X14805Y10397D01*
X14730Y11627D02*
X14740D01*
X14750Y11637D01*
X14760Y11627D01*
X14770D01*
Y11637D01*
X14760Y11647D01*
X14770Y11657D01*
Y11667D01*
X14760D01*
X14750Y11657D01*
X14740Y11667D01*
X14730D01*
Y11657D01*
X14740Y11647D01*
X14730Y11637D01*
Y11627D01*
X14738Y11635D02*
X14744D01*
X14750Y11641D01*
X14756Y11635D01*
X14762D01*
Y11641D01*
X14756Y11647D01*
X14762Y11653D01*
Y11659D01*
X14756D01*
X14750Y11653D01*
X14744Y11659D01*
X14738D01*
Y11653D01*
X14744Y11647D01*
X14738Y11641D01*
Y11635D01*
X14765Y11556D02*
X14775D01*
X14785Y11566D01*
X14795Y11556D01*
X14805D01*
Y11566D01*
X14795Y11576D01*
X14805Y11586D01*
Y11596D01*
X14795D01*
X14785Y11586D01*
X14775Y11596D01*
X14765D01*
Y11586D01*
X14775Y11576D01*
X14765Y11566D01*
Y11556D01*
X14773Y11564D02*
X14779D01*
X14785Y11570D01*
X14791Y11564D01*
X14797D01*
Y11570D01*
X14791Y11576D01*
X14797Y11582D01*
Y11588D01*
X14791D01*
X14785Y11582D01*
X14779Y11588D01*
X14773D01*
Y11582D01*
X14779Y11576D01*
X14773Y11570D01*
Y11564D01*
X13001Y12670D02*
X13011D01*
X13021Y12680D01*
X13031Y12670D01*
X13041D01*
Y12680D01*
X13031Y12690D01*
X13041Y12700D01*
Y12710D01*
X13031D01*
X13021Y12700D01*
X13011Y12710D01*
X13001D01*
Y12700D01*
X13011Y12690D01*
X13001Y12680D01*
Y12670D01*
X13009Y12678D02*
X13015D01*
X13021Y12684D01*
X13027Y12678D01*
X13033D01*
Y12684D01*
X13027Y12690D01*
X13033Y12696D01*
Y12702D01*
X13027D01*
X13021Y12696D01*
X13015Y12702D01*
X13009D01*
Y12696D01*
X13015Y12690D01*
X13009Y12684D01*
Y12678D01*
X13021Y13288D02*
X13031Y13298D01*
X13041D01*
X13031Y13308D01*
X13041Y13318D01*
X13031D01*
X13021Y13328D01*
X13011Y13318D01*
X13001D01*
X13011Y13308D01*
X13001Y13298D01*
X13011D01*
X13021Y13288D01*
X13027Y13612D02*
X13037Y13622D01*
X13047D01*
X13037Y13632D01*
X13047Y13642D01*
X13037D01*
X13027Y13652D01*
X13017Y13642D01*
X13007D01*
X13017Y13632D01*
X13007Y13622D01*
X13017D01*
X13027Y13612D01*
X13018Y13085D02*
X13028Y13095D01*
X13038D01*
X13028Y13105D01*
X13038Y13115D01*
X13028D01*
X13018Y13125D01*
X13008Y13115D01*
X12998D01*
X13008Y13105D01*
X12998Y13095D01*
X13008D01*
X13018Y13085D01*
X13014Y12901D02*
X13024Y12911D01*
X13034D01*
X13024Y12921D01*
X13034Y12931D01*
X13024D01*
X13014Y12941D01*
X13004Y12931D01*
X12994D01*
X13004Y12921D01*
X12994Y12911D01*
X13004D01*
X13014Y12901D01*
X12978Y12729D02*
X12988Y12739D01*
X12998D01*
X12988Y12749D01*
X12998Y12759D01*
X12988D01*
X12978Y12769D01*
X12968Y12759D01*
X12958D01*
X12968Y12749D01*
X12958Y12739D01*
X12968D01*
X12978Y12729D01*
X14545Y13288D02*
X14555D01*
X14565Y13298D01*
X14575Y13288D01*
X14585D01*
Y13298D01*
X14575Y13308D01*
X14585Y13318D01*
Y13328D01*
X14575D01*
X14565Y13318D01*
X14555Y13328D01*
X14545D01*
Y13318D01*
X14555Y13308D01*
X14545Y13298D01*
Y13288D01*
X14553Y13296D02*
X14559D01*
X14565Y13302D01*
X14571Y13296D01*
X14577D01*
Y13302D01*
X14571Y13308D01*
X14577Y13314D01*
Y13320D01*
X14571D01*
X14565Y13314D01*
X14559Y13320D01*
X14553D01*
Y13314D01*
X14559Y13308D01*
X14553Y13302D01*
Y13296D01*
X15773Y11749D02*
X15783D01*
X15793Y11759D01*
X15803Y11749D01*
X15813D01*
Y11759D01*
X15803Y11769D01*
X15813Y11779D01*
Y11789D01*
X15803D01*
X15793Y11779D01*
X15783Y11789D01*
X15773D01*
Y11779D01*
X15783Y11769D01*
X15773Y11759D01*
Y11749D01*
X15781Y11757D02*
X15787D01*
X15793Y11763D01*
X15799Y11757D01*
X15805D01*
Y11763D01*
X15799Y11769D01*
X15805Y11775D01*
Y11781D01*
X15799D01*
X15793Y11775D01*
X15787Y11781D01*
X15781D01*
Y11775D01*
X15787Y11769D01*
X15781Y11763D01*
Y11757D01*
X15651Y10252D02*
X15661D01*
X15671Y10262D01*
X15681Y10252D01*
X15691D01*
Y10262D01*
X15681Y10272D01*
X15691Y10282D01*
Y10292D01*
X15681D01*
X15671Y10282D01*
X15661Y10292D01*
X15651D01*
Y10282D01*
X15661Y10272D01*
X15651Y10262D01*
Y10252D01*
X15659Y10260D02*
X15665D01*
X15671Y10266D01*
X15677Y10260D01*
X15683D01*
Y10266D01*
X15677Y10272D01*
X15683Y10278D01*
Y10284D01*
X15677D01*
X15671Y10278D01*
X15665Y10284D01*
X15659D01*
Y10278D01*
X15665Y10272D01*
X15659Y10266D01*
Y10260D01*
X12337Y10900D02*
X12347D01*
X12357Y10910D01*
X12367Y10900D01*
X12377D01*
Y10910D01*
X12367Y10920D01*
X12377Y10930D01*
Y10940D01*
X12367D01*
X12357Y10930D01*
X12347Y10940D01*
X12337D01*
Y10930D01*
X12347Y10920D01*
X12337Y10910D01*
Y10900D01*
X12345Y10908D02*
X12351D01*
X12357Y10914D01*
X12363Y10908D01*
X12369D01*
Y10914D01*
X12363Y10920D01*
X12369Y10926D01*
Y10932D01*
X12363D01*
X12357Y10926D01*
X12351Y10932D01*
X12345D01*
Y10926D01*
X12351Y10920D01*
X12345Y10914D01*
Y10908D01*
X13070Y11913D02*
X13080D01*
X13090Y11923D01*
X13100Y11913D01*
X13110D01*
Y11923D01*
X13100Y11933D01*
X13110Y11943D01*
Y11953D01*
X13100D01*
X13090Y11943D01*
X13080Y11953D01*
X13070D01*
Y11943D01*
X13080Y11933D01*
X13070Y11923D01*
Y11913D01*
X13078Y11921D02*
X13084D01*
X13090Y11927D01*
X13096Y11921D01*
X13102D01*
Y11927D01*
X13096Y11933D01*
X13102Y11939D01*
Y11945D01*
X13096D01*
X13090Y11939D01*
X13084Y11945D01*
X13078D01*
Y11939D01*
X13084Y11933D01*
X13078Y11927D01*
Y11921D01*
X13224Y11454D02*
X13234Y11464D01*
X13244D01*
X13234Y11474D01*
X13244Y11484D01*
X13234D01*
X13224Y11494D01*
X13214Y11484D01*
X13204D01*
X13214Y11474D01*
X13204Y11464D01*
X13214D01*
X13224Y11454D01*
X13206Y10751D02*
X13216D01*
X13226Y10761D01*
X13236Y10751D01*
X13246D01*
Y10761D01*
X13236Y10771D01*
X13246Y10781D01*
Y10791D01*
X13236D01*
X13226Y10781D01*
X13216Y10791D01*
X13206D01*
Y10781D01*
X13216Y10771D01*
X13206Y10761D01*
Y10751D01*
X13214Y10759D02*
X13220D01*
X13226Y10765D01*
X13232Y10759D01*
X13238D01*
Y10765D01*
X13232Y10771D01*
X13238Y10777D01*
Y10783D01*
X13232D01*
X13226Y10777D01*
X13220Y10783D01*
X13214D01*
Y10777D01*
X13220Y10771D01*
X13214Y10765D01*
Y10759D01*
X4503Y13047D02*
X4523Y13067D01*
X4543D01*
X4523Y13087D01*
X4543Y13107D01*
X4523D01*
X4503Y13127D01*
X4483Y13107D01*
X4463D01*
X4483Y13087D01*
X4463Y13067D01*
X4483D01*
X4503Y13047D01*
Y12847D02*
X4523Y12867D01*
X4543D01*
X4523Y12887D01*
X4543Y12907D01*
X4523D01*
X4503Y12927D01*
X4483Y12907D01*
X4463D01*
X4483Y12887D01*
X4463Y12867D01*
X4483D01*
X4503Y12847D01*
Y12863D02*
X4515Y12875D01*
X4527D01*
X4515Y12887D01*
X4527Y12899D01*
X4515D01*
X4503Y12911D01*
X4491Y12899D01*
X4479D01*
X4491Y12887D01*
X4479Y12875D01*
X4491D01*
X4503Y12863D01*
X4463Y12647D02*
X4483D01*
X4503Y12667D01*
X4523Y12647D01*
X4543D01*
Y12667D01*
X4523Y12687D01*
X4543Y12707D01*
Y12727D01*
X4523D01*
X4503Y12707D01*
X4483Y12727D01*
X4463D01*
Y12707D01*
X4483Y12687D01*
X4463Y12667D01*
Y12647D01*
X4479Y12663D02*
X4491D01*
X4503Y12675D01*
X4515Y12663D01*
X4527D01*
Y12675D01*
X4515Y12687D01*
X4527Y12699D01*
Y12711D01*
X4515D01*
X4503Y12699D01*
X4491Y12711D01*
X4479D01*
Y12699D01*
X4491Y12687D01*
X4479Y12675D01*
Y12663D01*
X4463Y12447D02*
Y12527D01*
X4543D01*
Y12447D01*
X4463D01*
Y12247D02*
X4483Y12287D01*
X4463Y12327D01*
X4503Y12307D01*
X4543Y12327D01*
X4523Y12287D01*
X4543Y12247D01*
X4503Y12267D01*
X4463Y12247D01*
Y11847D02*
X4483D01*
X4503Y11867D01*
X4523Y11847D01*
X4543D01*
Y11867D01*
X4523Y11887D01*
X4543Y11907D01*
Y11927D01*
X4523D01*
X4503Y11907D01*
X4483Y11927D01*
X4463D01*
Y11907D01*
X4483Y11887D01*
X4463Y11867D01*
Y11847D01*
Y11447D02*
Y11527D01*
X4543D01*
Y11447D01*
X4463D01*
X4479Y11463D02*
Y11511D01*
X4527D01*
Y11463D01*
X4479D01*
X4463Y11247D02*
X4483Y11287D01*
X4463Y11327D01*
X4503Y11307D01*
X4543Y11327D01*
X4523Y11287D01*
X4543Y11247D01*
X4503Y11267D01*
X4463Y11247D01*
X4479Y11263D02*
X4491Y11287D01*
X4479Y11311D01*
X4503Y11299D01*
X4527Y11311D01*
X4515Y11287D01*
X4527Y11263D01*
X4503Y11275D01*
X4479Y11263D01*
X4483Y11067D02*
Y11047D01*
X4523D01*
Y11067D01*
X4543D01*
Y11107D01*
X4523D01*
Y11127D01*
X4483D01*
Y11107D01*
X4463D01*
Y11067D01*
X4483D01*
X4491Y11075D02*
Y11063D01*
X4515D01*
Y11075D01*
X4527D01*
Y11099D01*
X4515D01*
Y11111D01*
X4491D01*
Y11099D01*
X4479D01*
Y11075D01*
X4491D01*
X4463Y10887D02*
X4503Y10927D01*
X4543Y10887D01*
X4503Y10847D01*
X4463Y10887D01*
X4503Y10647D02*
X4463Y10727D01*
X4543D01*
X4503Y10647D01*
Y10663D02*
X4479Y10711D01*
X4527D01*
X4503Y10663D01*
X4483Y10467D02*
Y10447D01*
X4523D01*
Y10467D01*
X4543D01*
Y10507D01*
X4523D01*
Y10527D01*
X4483D01*
Y10507D01*
X4463D01*
Y10467D01*
X4483D01*
X4503Y10247D02*
X4463Y10327D01*
X4543D01*
X4503Y10247D01*
D13*
X14647Y11727D02*
X14645Y11737D01*
X14639Y11744D01*
X14630Y11747D01*
X14620Y11746D01*
X14612Y11741D01*
X14608Y11732D01*
Y11722D01*
X14612Y11714D01*
X14620Y11709D01*
X14630Y11707D01*
X14639Y11711D01*
X14645Y11718D01*
X14647Y11727D01*
Y10212D02*
X14645Y10222D01*
X14639Y10229D01*
X14630Y10232D01*
X14620Y10231D01*
X14612Y10226D01*
X14608Y10217D01*
Y10208D01*
X14612Y10199D01*
X14620Y10194D01*
X14630Y10192D01*
X14639Y10196D01*
X14645Y10203D01*
X14647Y10212D01*
X13857Y11727D02*
X13855Y11737D01*
X13848Y11744D01*
X13839Y11747D01*
X13830Y11746D01*
X13822Y11741D01*
X13818Y11732D01*
Y11722D01*
X13822Y11714D01*
X13830Y11709D01*
X13839Y11707D01*
X13848Y11711D01*
X13855Y11718D01*
X13857Y11727D01*
Y10212D02*
X13855Y10222D01*
X13848Y10229D01*
X13839Y10232D01*
X13830Y10231D01*
X13822Y10226D01*
X13818Y10217D01*
Y10208D01*
X13822Y10199D01*
X13830Y10194D01*
X13839Y10192D01*
X13848Y10196D01*
X13855Y10203D01*
X13857Y10212D01*
X16389Y11479D02*
X16386Y11488D01*
X16380Y11495D01*
X16371Y11499D01*
X16361Y11498D01*
X16354Y11492D01*
X16349Y11484D01*
Y11474D01*
X16354Y11466D01*
X16361Y11460D01*
X16371Y11459D01*
X16380Y11462D01*
X16386Y11470D01*
X16389Y11479D01*
Y11380D02*
X16386Y11390D01*
X16380Y11397D01*
X16371Y11400D01*
X16361Y11399D01*
X16354Y11394D01*
X16349Y11385D01*
Y11376D01*
X16354Y11367D01*
X16361Y11362D01*
X16371Y11361D01*
X16380Y11364D01*
X16386Y11371D01*
X16389Y11380D01*
X16487D02*
X16485Y11390D01*
X16478Y11397D01*
X16469Y11400D01*
X16460Y11399D01*
X16452Y11394D01*
X16448Y11385D01*
Y11376D01*
X16452Y11367D01*
X16460Y11362D01*
X16469Y11361D01*
X16478Y11364D01*
X16485Y11371D01*
X16487Y11380D01*
Y11479D02*
X16485Y11488D01*
X16478Y11495D01*
X16469Y11499D01*
X16460Y11498D01*
X16452Y11492D01*
X16448Y11484D01*
Y11474D01*
X16452Y11466D01*
X16460Y11460D01*
X16469Y11459D01*
X16478Y11462D01*
X16485Y11470D01*
X16487Y11479D01*
D14*
X16381D02*
X16377Y11487D01*
X16369Y11491D01*
X16360Y11487D01*
X16357Y11479D01*
X16360Y11470D01*
X16369Y11467D01*
X16377Y11470D01*
X16381Y11479D01*
Y11380D02*
X16377Y11389D01*
X16369Y11392D01*
X16360Y11389D01*
X16357Y11380D01*
X16360Y11372D01*
X16369Y11368D01*
X16377Y11372D01*
X16381Y11380D01*
X16479D02*
X16475Y11389D01*
X16467Y11392D01*
X16458Y11389D01*
X16455Y11380D01*
X16458Y11372D01*
X16467Y11368D01*
X16475Y11372D01*
X16479Y11380D01*
Y11479D02*
X16475Y11487D01*
X16467Y11491D01*
X16458Y11487D01*
X16455Y11479D01*
X16458Y11470D01*
X16467Y11467D01*
X16475Y11470D01*
X16479Y11479D01*
D15*
X21199Y2042D02*
X21209Y2043D01*
X21219Y2047D01*
X21227Y2053D01*
X21234Y2062D01*
X21238Y2071D01*
X21239Y2082D01*
X20819Y2092D02*
X20820Y2082D01*
X20823Y2073D01*
X20828Y2064D01*
X20834Y2056D01*
X20841Y2050D01*
X20850Y2046D01*
X20859Y2043D01*
X20869Y2042D01*
X21239Y2252D02*
X21238Y2262D01*
X21234Y2272D01*
X21227Y2280D01*
X21219Y2286D01*
X21209Y2290D01*
X21199Y2292D01*
X18659Y2042D02*
X18669Y2043D01*
X18679Y2047D01*
X18687Y2053D01*
X18694Y2062D01*
X18698Y2071D01*
X18699Y2082D01*
X19829Y2712D02*
X19830Y2702D01*
X19833Y2693D01*
X19838Y2684D01*
X19844Y2676D01*
X19851Y2670D01*
X19860Y2666D01*
X19869Y2663D01*
X19879Y2662D01*
X19789Y2862D02*
X19788Y2872D01*
X19785Y2881D01*
X19781Y2890D01*
X19774Y2897D01*
X19767Y2903D01*
X19758Y2908D01*
X19749Y2911D01*
X19739Y2912D01*
Y2662D02*
X19749Y2663D01*
X19758Y2666D01*
X19767Y2670D01*
X19774Y2676D01*
X19781Y2684D01*
X19785Y2693D01*
X19788Y2702D01*
X19789Y2712D01*
X21379D02*
X21380Y2702D01*
X21383Y2693D01*
X21388Y2684D01*
X21394Y2676D01*
X21401Y2670D01*
X21410Y2666D01*
X21419Y2663D01*
X21429Y2662D01*
X21289D02*
X21299Y2663D01*
X21308Y2666D01*
X21317Y2670D01*
X21324Y2676D01*
X21331Y2684D01*
X21335Y2693D01*
X21338Y2702D01*
X21339Y2712D01*
Y2862D02*
X21338Y2872D01*
X21335Y2881D01*
X21331Y2890D01*
X21324Y2897D01*
X21317Y2903D01*
X21308Y2908D01*
X21299Y2911D01*
X21289Y2912D01*
X22279Y2572D02*
X22278Y2582D01*
X22275Y2591D01*
X22271Y2600D01*
X22264Y2607D01*
X22257Y2613D01*
X22248Y2618D01*
X22239Y2621D01*
X22229Y2622D01*
Y2332D02*
X22239Y2333D01*
X22248Y2336D01*
X22257Y2340D01*
X22264Y2346D01*
X22271Y2354D01*
X22275Y2363D01*
X22278Y2372D01*
X22279Y2382D01*
X18279D02*
X18280Y2372D01*
X18283Y2363D01*
X18288Y2354D01*
X18294Y2346D01*
X18301Y2340D01*
X18310Y2336D01*
X18319Y2333D01*
X18329Y2332D01*
X18739Y2082D02*
X18741Y2071D01*
X18745Y2062D01*
X18751Y2053D01*
X18759Y2047D01*
X18769Y2043D01*
X18779Y2042D01*
X18279Y2092D02*
X18280Y2082D01*
X18283Y2073D01*
X18288Y2064D01*
X18294Y2056D01*
X18301Y2050D01*
X18310Y2046D01*
X18319Y2043D01*
X18329Y2042D01*
X21279Y2082D02*
X21281Y2071D01*
X21285Y2062D01*
X21291Y2053D01*
X21299Y2047D01*
X21309Y2043D01*
X21319Y2042D01*
X18279Y2702D02*
X18281Y2691D01*
X18285Y2682D01*
X18291Y2673D01*
X18299Y2667D01*
X18309Y2663D01*
X18319Y2662D01*
X18699Y2252D02*
X18698Y2262D01*
X18694Y2272D01*
X18687Y2280D01*
X18679Y2286D01*
X18669Y2290D01*
X18659Y2292D01*
X20779Y2252D02*
X20778Y2262D01*
X20774Y2272D01*
X20767Y2280D01*
X20759Y2286D01*
X20749Y2290D01*
X20739Y2292D01*
Y2042D02*
X20749Y2043D01*
X20759Y2047D01*
X20767Y2053D01*
X20774Y2062D01*
X20778Y2071D01*
X20779Y2082D01*
X22229Y2042D02*
X22239Y2043D01*
X22248Y2046D01*
X22257Y2050D01*
X22264Y2056D01*
X22271Y2064D01*
X22275Y2073D01*
X22278Y2082D01*
X22279Y2092D01*
Y2242D02*
X22278Y2252D01*
X22275Y2261D01*
X22271Y2270D01*
X22264Y2277D01*
X22257Y2283D01*
X22248Y2288D01*
X22239Y2291D01*
X22229Y2292D01*
X22279Y2862D02*
X22278Y2872D01*
X22275Y2881D01*
X22271Y2890D01*
X22264Y2897D01*
X22257Y2903D01*
X22248Y2908D01*
X22239Y2911D01*
X22229Y2912D01*
Y2662D02*
X22239Y2663D01*
X22248Y2666D01*
X22257Y2670D01*
X22264Y2676D01*
X22271Y2684D01*
X22275Y2693D01*
X22278Y2702D01*
X22279Y2712D01*
X20869Y2042D02*
X21199D01*
X20819Y2292D02*
X21199D01*
X20819Y2092D02*
Y2292D01*
X21239Y2082D02*
Y2252D01*
X18319Y2662D02*
X19739D01*
X19879D02*
X21289D01*
X19829Y2912D02*
X21289D01*
X18279D02*
X19739D01*
X21429Y2662D02*
X22229D01*
X21379Y2912D02*
X22229D01*
X18279Y2622D02*
X22229D01*
X18329Y2332D02*
X22229D01*
X18779Y2042D02*
X20739D01*
X18329D02*
X18659D01*
X18739Y2292D02*
X20739D01*
X18279D02*
X18659D01*
X21319Y2042D02*
X22229D01*
X21279Y2292D02*
X22229D01*
X19829Y2712D02*
Y2912D01*
X19789Y2712D02*
Y2862D01*
X21339Y2712D02*
Y2862D01*
X21379Y2712D02*
Y2912D01*
X22279Y2382D02*
Y2572D01*
X18279Y2382D02*
Y2622D01*
Y2092D02*
Y2292D01*
Y2702D02*
Y2912D01*
X18699Y2082D02*
Y2252D01*
X18739Y2082D02*
Y2292D01*
X20779Y2082D02*
Y2252D01*
X21279Y2082D02*
Y2292D01*
X22279Y2092D02*
Y2242D01*
Y2712D02*
Y2862D01*
X1334Y1986D02*
Y17986D01*
Y1986D02*
X22334D01*
Y17986D01*
X1334D02*
X22334D01*
X1449Y2107D02*
Y2047D01*
X1462Y2107D02*
Y2047D01*
Y2107D02*
X1502Y2047D01*
Y2107D02*
Y2047D01*
X1565Y2107D02*
X1580Y2047D01*
X1594Y2107D02*
X1580Y2047D01*
X1594Y2107D02*
X1608Y2047D01*
X1623Y2107D02*
X1608Y2047D01*
X1635Y2107D02*
Y2047D01*
Y2107D02*
X1660D01*
X1669Y2104D01*
X1672Y2101D01*
X1675Y2095D01*
Y2090D01*
X1672Y2084D01*
X1669Y2081D01*
X1660Y2078D01*
X1635D01*
X1655D02*
X1675Y2047D01*
X1688Y2107D02*
Y2047D01*
X1721Y2107D02*
Y2047D01*
X1701Y2107D02*
X1741D01*
X1748D02*
Y2047D01*
X1760Y2107D02*
Y2047D01*
Y2107D02*
X1800Y2047D01*
Y2107D02*
Y2047D01*
X1860Y2092D02*
X1857Y2098D01*
X1851Y2104D01*
X1845Y2107D01*
X1834D01*
X1828Y2104D01*
X1822Y2098D01*
X1820Y2092D01*
X1817Y2084D01*
Y2070D01*
X1820Y2061D01*
X1822Y2055D01*
X1828Y2050D01*
X1834Y2047D01*
X1845D01*
X1851Y2050D01*
X1857Y2055D01*
X1860Y2061D01*
Y2070D01*
X1845D02*
X1860D01*
X1879Y2050D02*
X1876Y2047D01*
X1873Y2050D01*
X1876Y2052D01*
X1879Y2050D01*
Y2044D01*
X1876Y2038D01*
X1873Y2035D01*
X1985Y2047D02*
X1962Y2107D01*
X1939Y2047D01*
X1948Y2067D02*
X1976D01*
X1999Y2107D02*
Y2047D01*
X2033D01*
X2040Y2107D02*
Y2047D01*
X2074D01*
X2128Y2107D02*
Y2047D01*
Y2107D02*
X2154D01*
X2162Y2104D01*
X2165Y2101D01*
X2168Y2095D01*
Y2090D01*
X2165Y2084D01*
X2162Y2081D01*
X2154Y2078D01*
X2128D01*
X2148D02*
X2168Y2047D01*
X2181Y2107D02*
Y2047D01*
X2237Y2092D02*
X2234Y2098D01*
X2228Y2104D01*
X2222Y2107D01*
X2211D01*
X2205Y2104D01*
X2200Y2098D01*
X2197Y2092D01*
X2194Y2084D01*
Y2070D01*
X2197Y2061D01*
X2200Y2055D01*
X2205Y2050D01*
X2211Y2047D01*
X2222D01*
X2228Y2050D01*
X2234Y2055D01*
X2237Y2061D01*
Y2070D01*
X2222D02*
X2237D01*
X2250Y2107D02*
Y2047D01*
X2290Y2107D02*
Y2047D01*
X2250Y2078D02*
X2290D01*
X2327Y2107D02*
Y2047D01*
X2307Y2107D02*
X2347D01*
X2394Y2098D02*
X2388Y2104D01*
X2380Y2107D01*
X2368D01*
X2360Y2104D01*
X2354Y2098D01*
Y2092D01*
X2357Y2087D01*
X2360Y2084D01*
X2366Y2081D01*
X2383Y2075D01*
X2388Y2072D01*
X2391Y2070D01*
X2394Y2064D01*
Y2055D01*
X2388Y2050D01*
X2380Y2047D01*
X2368D01*
X2360Y2050D01*
X2354Y2055D01*
X2500Y2047D02*
X2477Y2107D01*
X2455Y2047D01*
X2463Y2067D02*
X2492D01*
X2514Y2107D02*
Y2047D01*
Y2107D02*
X2540D01*
X2549Y2104D01*
X2551Y2101D01*
X2554Y2095D01*
Y2090D01*
X2551Y2084D01*
X2549Y2081D01*
X2540Y2078D01*
X2514D01*
X2534D02*
X2554Y2047D01*
X2605Y2107D02*
X2568D01*
Y2047D01*
X2605D01*
X2568Y2078D02*
X2591D01*
X2662Y2107D02*
Y2047D01*
Y2107D02*
X2688D01*
X2696Y2104D01*
X2699Y2101D01*
X2702Y2095D01*
Y2090D01*
X2699Y2084D01*
X2696Y2081D01*
X2688Y2078D01*
X2662D01*
X2682D02*
X2702Y2047D01*
X2753Y2107D02*
X2715D01*
Y2047D01*
X2753D01*
X2715Y2078D02*
X2738D01*
X2803Y2098D02*
X2797Y2104D01*
X2788Y2107D01*
X2777D01*
X2768Y2104D01*
X2763Y2098D01*
Y2092D01*
X2765Y2087D01*
X2768Y2084D01*
X2774Y2081D01*
X2791Y2075D01*
X2797Y2072D01*
X2800Y2070D01*
X2803Y2064D01*
Y2055D01*
X2797Y2050D01*
X2788Y2047D01*
X2777D01*
X2768Y2050D01*
X2763Y2055D01*
X2853Y2107D02*
X2816D01*
Y2047D01*
X2853D01*
X2816Y2078D02*
X2839D01*
X2863Y2107D02*
Y2047D01*
Y2107D02*
X2889D01*
X2897Y2104D01*
X2900Y2101D01*
X2903Y2095D01*
Y2090D01*
X2900Y2084D01*
X2897Y2081D01*
X2889Y2078D01*
X2863D01*
X2883D02*
X2903Y2047D01*
X2917Y2107D02*
X2939Y2047D01*
X2962Y2107D02*
X2939Y2047D01*
X3007Y2107D02*
X2970D01*
Y2047D01*
X3007D01*
X2970Y2078D02*
X2993D01*
X3017Y2107D02*
Y2047D01*
Y2107D02*
X3037D01*
X3046Y2104D01*
X3051Y2098D01*
X3054Y2092D01*
X3057Y2084D01*
Y2070D01*
X3054Y2061D01*
X3051Y2055D01*
X3046Y2050D01*
X3037Y2047D01*
X3017D01*
X3118Y2107D02*
Y2047D01*
Y2107D02*
X3143D01*
X3152Y2104D01*
X3155Y2101D01*
X3158Y2095D01*
Y2090D01*
X3155Y2084D01*
X3152Y2081D01*
X3143Y2078D01*
X3118D02*
X3143D01*
X3152Y2075D01*
X3155Y2072D01*
X3158Y2067D01*
Y2058D01*
X3155Y2052D01*
X3152Y2050D01*
X3143Y2047D01*
X3118D01*
X3171Y2107D02*
X3194Y2078D01*
Y2047D01*
X3217Y2107D02*
X3194Y2078D01*
X3272Y2107D02*
Y2047D01*
X3306D01*
X3358D02*
X3335Y2107D01*
X3312Y2047D01*
X3321Y2067D02*
X3350D01*
X3412Y2098D02*
X3406Y2104D01*
X3398Y2107D01*
X3386D01*
X3378Y2104D01*
X3372Y2098D01*
Y2092D01*
X3375Y2087D01*
X3378Y2084D01*
X3384Y2081D01*
X3401Y2075D01*
X3406Y2072D01*
X3409Y2070D01*
X3412Y2064D01*
Y2055D01*
X3406Y2050D01*
X3398Y2047D01*
X3386D01*
X3378Y2050D01*
X3372Y2055D01*
X3516Y2092D02*
X3513Y2098D01*
X3507Y2104D01*
X3501Y2107D01*
X3490D01*
X3484Y2104D01*
X3478Y2098D01*
X3476Y2092D01*
X3473Y2084D01*
Y2070D01*
X3476Y2061D01*
X3478Y2055D01*
X3484Y2050D01*
X3490Y2047D01*
X3501D01*
X3507Y2050D01*
X3513Y2055D01*
X3516Y2061D01*
X3532Y2107D02*
Y2064D01*
X3535Y2055D01*
X3541Y2050D01*
X3550Y2047D01*
X3555D01*
X3564Y2050D01*
X3570Y2055D01*
X3572Y2064D01*
Y2107D01*
X3589D02*
Y2047D01*
Y2107D02*
X3612Y2047D01*
X3635Y2107D02*
X3612Y2047D01*
X3635Y2107D02*
Y2047D01*
X3652Y2107D02*
Y2047D01*
Y2107D02*
X3678D01*
X3686Y2104D01*
X3689Y2101D01*
X3692Y2095D01*
Y2090D01*
X3689Y2084D01*
X3686Y2081D01*
X3678Y2078D01*
X3652D02*
X3678D01*
X3686Y2075D01*
X3689Y2072D01*
X3692Y2067D01*
Y2058D01*
X3689Y2052D01*
X3686Y2050D01*
X3678Y2047D01*
X3652D01*
X3705Y2107D02*
Y2047D01*
Y2107D02*
X3731D01*
X3740Y2104D01*
X3742Y2101D01*
X3745Y2095D01*
Y2090D01*
X3742Y2084D01*
X3740Y2081D01*
X3731Y2078D01*
X3705D01*
X3725D02*
X3745Y2047D01*
X3796Y2107D02*
X3759D01*
Y2047D01*
X3796D01*
X3759Y2078D02*
X3781D01*
X3846Y2098D02*
X3840Y2104D01*
X3831Y2107D01*
X3820D01*
X3811Y2104D01*
X3806Y2098D01*
Y2092D01*
X3809Y2087D01*
X3811Y2084D01*
X3817Y2081D01*
X3834Y2075D01*
X3840Y2072D01*
X3843Y2070D01*
X3846Y2064D01*
Y2055D01*
X3840Y2050D01*
X3831Y2047D01*
X3820D01*
X3811Y2050D01*
X3806Y2055D01*
X3923Y2107D02*
X3918Y2104D01*
X3912Y2098D01*
X3909Y2092D01*
X3906Y2084D01*
Y2070D01*
X3909Y2061D01*
X3912Y2055D01*
X3918Y2050D01*
X3923Y2047D01*
X3935D01*
X3941Y2050D01*
X3946Y2055D01*
X3949Y2061D01*
X3952Y2070D01*
Y2084D01*
X3949Y2092D01*
X3946Y2098D01*
X3941Y2104D01*
X3935Y2107D01*
X3923D01*
X3966D02*
Y2047D01*
Y2107D02*
X3992D01*
X4000Y2104D01*
X4003Y2101D01*
X4006Y2095D01*
Y2090D01*
X4003Y2084D01*
X4000Y2081D01*
X3992Y2078D01*
X3966D02*
X3992D01*
X4000Y2075D01*
X4003Y2072D01*
X4006Y2067D01*
Y2058D01*
X4003Y2052D01*
X4000Y2050D01*
X3992Y2047D01*
X3966D01*
X4059Y2098D02*
X4054Y2104D01*
X4045Y2107D01*
X4034D01*
X4025Y2104D01*
X4019Y2098D01*
Y2092D01*
X4022Y2087D01*
X4025Y2084D01*
X4031Y2081D01*
X4048Y2075D01*
X4054Y2072D01*
X4057Y2070D01*
X4059Y2064D01*
Y2055D01*
X4054Y2050D01*
X4045Y2047D01*
X4034D01*
X4025Y2050D01*
X4019Y2055D01*
X4110Y2107D02*
X4073D01*
Y2047D01*
X4110D01*
X4073Y2078D02*
X4096D01*
X4120Y2107D02*
Y2047D01*
Y2107D02*
X4146D01*
X4154Y2104D01*
X4157Y2101D01*
X4160Y2095D01*
Y2090D01*
X4157Y2084D01*
X4154Y2081D01*
X4146Y2078D01*
X4120D01*
X4140D02*
X4160Y2047D01*
X4173Y2107D02*
X4196Y2047D01*
X4219Y2107D02*
X4196Y2047D01*
X4273D02*
X4250Y2107D01*
X4227Y2047D01*
X4235Y2067D02*
X4264D01*
X4307Y2107D02*
Y2047D01*
X4287Y2107D02*
X4327D01*
X4351D02*
X4345Y2104D01*
X4339Y2098D01*
X4337Y2092D01*
X4334Y2084D01*
Y2070D01*
X4337Y2061D01*
X4339Y2055D01*
X4345Y2050D01*
X4351Y2047D01*
X4362D01*
X4368Y2050D01*
X4374Y2055D01*
X4377Y2061D01*
X4379Y2070D01*
Y2084D01*
X4377Y2092D01*
X4374Y2098D01*
X4368Y2104D01*
X4362Y2107D01*
X4351D01*
X4393D02*
Y2047D01*
Y2107D02*
X4419D01*
X4428Y2104D01*
X4431Y2101D01*
X4433Y2095D01*
Y2090D01*
X4431Y2084D01*
X4428Y2081D01*
X4419Y2078D01*
X4393D01*
X4413D02*
X4433Y2047D01*
X4447Y2107D02*
X4470Y2078D01*
Y2047D01*
X4492Y2107D02*
X4470Y2078D01*
X4503Y2052D02*
X4500Y2050D01*
X4503Y2047D01*
X4506Y2050D01*
X4503Y2052D01*
X1469Y2392D02*
Y2332D01*
X1449Y2392D02*
X1489D01*
X1496D02*
Y2332D01*
X1536Y2392D02*
Y2332D01*
X1496Y2363D02*
X1536D01*
X1553Y2392D02*
Y2332D01*
X1605Y2383D02*
X1600Y2389D01*
X1591Y2392D01*
X1580D01*
X1571Y2389D01*
X1565Y2383D01*
Y2377D01*
X1568Y2372D01*
X1571Y2369D01*
X1577Y2366D01*
X1594Y2360D01*
X1600Y2357D01*
X1603Y2355D01*
X1605Y2349D01*
Y2340D01*
X1600Y2335D01*
X1591Y2332D01*
X1580D01*
X1571Y2335D01*
X1565Y2340D01*
X1666Y2392D02*
Y2332D01*
Y2392D02*
X1686D01*
X1695Y2389D01*
X1700Y2383D01*
X1703Y2377D01*
X1706Y2369D01*
Y2355D01*
X1703Y2346D01*
X1700Y2340D01*
X1695Y2335D01*
X1686Y2332D01*
X1666D01*
X1719Y2392D02*
Y2332D01*
Y2392D02*
X1745D01*
X1754Y2389D01*
X1757Y2386D01*
X1759Y2380D01*
Y2375D01*
X1757Y2369D01*
X1754Y2366D01*
X1745Y2363D01*
X1719D01*
X1739D02*
X1759Y2332D01*
X1818D02*
X1796Y2392D01*
X1773Y2332D01*
X1781Y2352D02*
X1810D01*
X1832Y2392D02*
X1847Y2332D01*
X1861Y2392D02*
X1847Y2332D01*
X1861Y2392D02*
X1875Y2332D01*
X1890Y2392D02*
X1875Y2332D01*
X1902Y2392D02*
Y2332D01*
X1914Y2392D02*
Y2332D01*
Y2392D02*
X1954Y2332D01*
Y2392D02*
Y2332D01*
X2014Y2377D02*
X2011Y2383D01*
X2005Y2389D01*
X1999Y2392D01*
X1988D01*
X1982Y2389D01*
X1976Y2383D01*
X1974Y2377D01*
X1971Y2369D01*
Y2355D01*
X1974Y2346D01*
X1976Y2340D01*
X1982Y2335D01*
X1988Y2332D01*
X1999D01*
X2005Y2335D01*
X2011Y2340D01*
X2014Y2346D01*
Y2355D01*
X1999D02*
X2014D01*
X2112Y2392D02*
X2074D01*
Y2332D01*
X2112D01*
X2074Y2363D02*
X2097D01*
X2122Y2392D02*
Y2332D01*
Y2392D02*
X2144Y2332D01*
X2167Y2392D02*
X2144Y2332D01*
X2167Y2392D02*
Y2332D01*
X2184Y2392D02*
Y2332D01*
Y2392D02*
X2210D01*
X2219Y2389D01*
X2222Y2386D01*
X2224Y2380D01*
Y2375D01*
X2222Y2369D01*
X2219Y2366D01*
X2210Y2363D01*
X2184D02*
X2210D01*
X2219Y2360D01*
X2222Y2357D01*
X2224Y2352D01*
Y2343D01*
X2222Y2337D01*
X2219Y2335D01*
X2210Y2332D01*
X2184D01*
X2255Y2392D02*
X2249Y2389D01*
X2244Y2383D01*
X2241Y2377D01*
X2238Y2369D01*
Y2355D01*
X2241Y2346D01*
X2244Y2340D01*
X2249Y2335D01*
X2255Y2332D01*
X2266D01*
X2272Y2335D01*
X2278Y2340D01*
X2281Y2346D01*
X2284Y2355D01*
Y2369D01*
X2281Y2377D01*
X2278Y2383D01*
X2272Y2389D01*
X2266Y2392D01*
X2255D01*
X2298D02*
Y2332D01*
Y2392D02*
X2318D01*
X2326Y2389D01*
X2332Y2383D01*
X2335Y2377D01*
X2338Y2369D01*
Y2355D01*
X2335Y2346D01*
X2332Y2340D01*
X2326Y2335D01*
X2318Y2332D01*
X2298D01*
X2351Y2392D02*
Y2332D01*
X2401Y2392D02*
X2364D01*
Y2332D01*
X2401D01*
X2364Y2363D02*
X2386D01*
X2451Y2383D02*
X2445Y2389D01*
X2436Y2392D01*
X2425D01*
X2416Y2389D01*
X2411Y2383D01*
Y2377D01*
X2414Y2372D01*
X2416Y2369D01*
X2422Y2366D01*
X2439Y2360D01*
X2445Y2357D01*
X2448Y2355D01*
X2451Y2349D01*
Y2340D01*
X2445Y2335D01*
X2436Y2332D01*
X2425D01*
X2416Y2335D01*
X2411Y2340D01*
X2557Y2332D02*
X2534Y2392D01*
X2511Y2332D01*
X2520Y2352D02*
X2548D01*
X2618Y2360D02*
X2644D01*
X2652Y2363D01*
X2655Y2366D01*
X2658Y2372D01*
Y2380D01*
X2655Y2386D01*
X2652Y2389D01*
X2644Y2392D01*
X2618D01*
Y2332D01*
X2671Y2392D02*
Y2332D01*
Y2392D02*
X2697D01*
X2706Y2389D01*
X2709Y2386D01*
X2711Y2380D01*
Y2375D01*
X2709Y2369D01*
X2706Y2366D01*
X2697Y2363D01*
X2671D01*
X2691D02*
X2711Y2332D01*
X2742Y2392D02*
X2736Y2389D01*
X2731Y2383D01*
X2728Y2377D01*
X2725Y2369D01*
Y2355D01*
X2728Y2346D01*
X2731Y2340D01*
X2736Y2335D01*
X2742Y2332D01*
X2753D01*
X2759Y2335D01*
X2765Y2340D01*
X2768Y2346D01*
X2771Y2355D01*
Y2369D01*
X2768Y2377D01*
X2765Y2383D01*
X2759Y2389D01*
X2753Y2392D01*
X2742D01*
X2785Y2360D02*
X2810D01*
X2819Y2363D01*
X2822Y2366D01*
X2825Y2372D01*
Y2380D01*
X2822Y2386D01*
X2819Y2389D01*
X2810Y2392D01*
X2785D01*
Y2332D01*
X2838Y2392D02*
Y2332D01*
Y2392D02*
X2864D01*
X2872Y2389D01*
X2875Y2386D01*
X2878Y2380D01*
Y2375D01*
X2875Y2369D01*
X2872Y2366D01*
X2864Y2363D01*
X2838D01*
X2858D02*
X2878Y2332D01*
X2891Y2392D02*
Y2332D01*
X2941Y2392D02*
X2904D01*
Y2332D01*
X2941D01*
X2904Y2363D02*
X2927D01*
X2971Y2392D02*
Y2332D01*
X2951Y2392D02*
X2991D01*
X3044Y2332D02*
X3021Y2392D01*
X2998Y2332D01*
X3007Y2352D02*
X3035D01*
X3058Y2392D02*
Y2332D01*
Y2392D02*
X3084D01*
X3092Y2389D01*
X3095Y2386D01*
X3098Y2380D01*
Y2375D01*
X3095Y2369D01*
X3092Y2366D01*
X3084Y2363D01*
X3058D01*
X3078D02*
X3098Y2332D01*
X3111Y2392D02*
X3134Y2363D01*
Y2332D01*
X3157Y2392D02*
X3134Y2363D01*
X3212Y2392D02*
Y2332D01*
Y2392D02*
X3232D01*
X3240Y2389D01*
X3246Y2383D01*
X3249Y2377D01*
X3252Y2369D01*
Y2355D01*
X3249Y2346D01*
X3246Y2340D01*
X3240Y2335D01*
X3232Y2332D01*
X3212D01*
X3302Y2392D02*
X3265D01*
Y2332D01*
X3302D01*
X3265Y2363D02*
X3288D01*
X3352Y2383D02*
X3347Y2389D01*
X3338Y2392D01*
X3327D01*
X3318Y2389D01*
X3312Y2383D01*
Y2377D01*
X3315Y2372D01*
X3318Y2369D01*
X3324Y2366D01*
X3341Y2360D01*
X3347Y2357D01*
X3350Y2355D01*
X3352Y2349D01*
Y2340D01*
X3347Y2335D01*
X3338Y2332D01*
X3327D01*
X3318Y2335D01*
X3312Y2340D01*
X3366Y2392D02*
Y2332D01*
X3421Y2377D02*
X3418Y2383D01*
X3413Y2389D01*
X3407Y2392D01*
X3396D01*
X3390Y2389D01*
X3384Y2383D01*
X3381Y2377D01*
X3378Y2369D01*
Y2355D01*
X3381Y2346D01*
X3384Y2340D01*
X3390Y2335D01*
X3396Y2332D01*
X3407D01*
X3413Y2335D01*
X3418Y2340D01*
X3421Y2346D01*
Y2355D01*
X3407D02*
X3421D01*
X3435Y2392D02*
Y2332D01*
Y2392D02*
X3475Y2332D01*
Y2392D02*
Y2332D01*
X3556Y2392D02*
X3550Y2389D01*
X3544Y2383D01*
X3542Y2377D01*
X3539Y2369D01*
Y2355D01*
X3542Y2346D01*
X3544Y2340D01*
X3550Y2335D01*
X3556Y2332D01*
X3567D01*
X3573Y2335D01*
X3579Y2340D01*
X3582Y2346D01*
X3584Y2355D01*
Y2369D01*
X3582Y2377D01*
X3579Y2383D01*
X3573Y2389D01*
X3567Y2392D01*
X3556D01*
X3598D02*
X3613Y2332D01*
X3627Y2392D02*
X3613Y2332D01*
X3627Y2392D02*
X3641Y2332D01*
X3656Y2392D02*
X3641Y2332D01*
X3668Y2392D02*
Y2332D01*
Y2392D02*
X3708Y2332D01*
Y2392D02*
Y2332D01*
X3761Y2392D02*
X3724D01*
Y2332D01*
X3761D01*
X3724Y2363D02*
X3747D01*
X3771Y2392D02*
Y2332D01*
Y2392D02*
X3791D01*
X3800Y2389D01*
X3805Y2383D01*
X3808Y2377D01*
X3811Y2369D01*
Y2355D01*
X3808Y2346D01*
X3805Y2340D01*
X3800Y2335D01*
X3791Y2332D01*
X3771D01*
X3872Y2392D02*
Y2332D01*
Y2392D02*
X3897D01*
X3906Y2389D01*
X3909Y2386D01*
X3912Y2380D01*
Y2375D01*
X3909Y2369D01*
X3906Y2366D01*
X3897Y2363D01*
X3872D02*
X3897D01*
X3906Y2360D01*
X3909Y2357D01*
X3912Y2352D01*
Y2343D01*
X3909Y2337D01*
X3906Y2335D01*
X3897Y2332D01*
X3872D01*
X3925Y2392D02*
X3948Y2363D01*
Y2332D01*
X3971Y2392D02*
X3948Y2363D01*
X4026Y2392D02*
Y2332D01*
X4060D01*
X4112D02*
X4089Y2392D01*
X4067Y2332D01*
X4075Y2352D02*
X4104D01*
X4166Y2383D02*
X4161Y2389D01*
X4152Y2392D01*
X4141D01*
X4132Y2389D01*
X4126Y2383D01*
Y2377D01*
X4129Y2372D01*
X4132Y2369D01*
X4138Y2366D01*
X4155Y2360D01*
X4161Y2357D01*
X4163Y2355D01*
X4166Y2349D01*
Y2340D01*
X4161Y2335D01*
X4152Y2332D01*
X4141D01*
X4132Y2335D01*
X4126Y2340D01*
X4270Y2377D02*
X4267Y2383D01*
X4261Y2389D01*
X4255Y2392D01*
X4244D01*
X4238Y2389D01*
X4233Y2383D01*
X4230Y2377D01*
X4227Y2369D01*
Y2355D01*
X4230Y2346D01*
X4233Y2340D01*
X4238Y2335D01*
X4244Y2332D01*
X4255D01*
X4261Y2335D01*
X4267Y2340D01*
X4270Y2346D01*
X4287Y2392D02*
Y2349D01*
X4289Y2340D01*
X4295Y2335D01*
X4304Y2332D01*
X4309D01*
X4318Y2335D01*
X4324Y2340D01*
X4327Y2349D01*
Y2392D01*
X4343D02*
Y2332D01*
Y2392D02*
X4366Y2332D01*
X4389Y2392D02*
X4366Y2332D01*
X4389Y2392D02*
Y2332D01*
X4406Y2392D02*
Y2332D01*
Y2392D02*
X4432D01*
X4440Y2389D01*
X4443Y2386D01*
X4446Y2380D01*
Y2375D01*
X4443Y2369D01*
X4440Y2366D01*
X4432Y2363D01*
X4406D02*
X4432D01*
X4440Y2360D01*
X4443Y2357D01*
X4446Y2352D01*
Y2343D01*
X4443Y2337D01*
X4440Y2335D01*
X4432Y2332D01*
X4406D01*
X4459Y2392D02*
Y2332D01*
Y2392D02*
X4485D01*
X4494Y2389D01*
X4496Y2386D01*
X4499Y2380D01*
Y2375D01*
X4496Y2369D01*
X4494Y2366D01*
X4485Y2363D01*
X4459D01*
X4479D02*
X4499Y2332D01*
X4550Y2392D02*
X4513D01*
Y2332D01*
X4550D01*
X4513Y2363D02*
X4536D01*
X4600Y2383D02*
X4594Y2389D01*
X4586Y2392D01*
X4574D01*
X4566Y2389D01*
X4560Y2383D01*
Y2377D01*
X4563Y2372D01*
X4566Y2369D01*
X4571Y2366D01*
X4588Y2360D01*
X4594Y2357D01*
X4597Y2355D01*
X4600Y2349D01*
Y2340D01*
X4594Y2335D01*
X4586Y2332D01*
X4574D01*
X4566Y2335D01*
X4560Y2340D01*
X1466Y2292D02*
X1461Y2289D01*
X1455Y2283D01*
X1452Y2277D01*
X1449Y2269D01*
Y2255D01*
X1452Y2246D01*
X1455Y2240D01*
X1461Y2235D01*
X1466Y2232D01*
X1478D01*
X1483Y2235D01*
X1489Y2240D01*
X1492Y2246D01*
X1495Y2255D01*
Y2269D01*
X1492Y2277D01*
X1489Y2283D01*
X1483Y2289D01*
X1478Y2292D01*
X1466D01*
X1509D02*
Y2232D01*
Y2292D02*
X1535D01*
X1543Y2289D01*
X1546Y2286D01*
X1549Y2280D01*
Y2275D01*
X1546Y2269D01*
X1543Y2266D01*
X1535Y2263D01*
X1509D02*
X1535D01*
X1543Y2260D01*
X1546Y2257D01*
X1549Y2252D01*
Y2243D01*
X1546Y2237D01*
X1543Y2235D01*
X1535Y2232D01*
X1509D01*
X1602Y2283D02*
X1597Y2289D01*
X1588Y2292D01*
X1577D01*
X1568Y2289D01*
X1562Y2283D01*
Y2277D01*
X1565Y2272D01*
X1568Y2269D01*
X1574Y2266D01*
X1591Y2260D01*
X1597Y2257D01*
X1599Y2255D01*
X1602Y2249D01*
Y2240D01*
X1597Y2235D01*
X1588Y2232D01*
X1577D01*
X1568Y2235D01*
X1562Y2240D01*
X1653Y2292D02*
X1616D01*
Y2232D01*
X1653D01*
X1616Y2263D02*
X1639D01*
X1663Y2292D02*
Y2232D01*
Y2292D02*
X1689D01*
X1697Y2289D01*
X1700Y2286D01*
X1703Y2280D01*
Y2275D01*
X1700Y2269D01*
X1697Y2266D01*
X1689Y2263D01*
X1663D01*
X1683D02*
X1703Y2232D01*
X1716Y2292D02*
X1739Y2232D01*
X1762Y2292D02*
X1739Y2232D01*
X1815D02*
X1792Y2292D01*
X1770Y2232D01*
X1778Y2252D02*
X1807D01*
X1849Y2292D02*
Y2232D01*
X1829Y2292D02*
X1869D01*
X1894D02*
X1888Y2289D01*
X1882Y2283D01*
X1879Y2277D01*
X1876Y2269D01*
Y2255D01*
X1879Y2246D01*
X1882Y2240D01*
X1888Y2235D01*
X1894Y2232D01*
X1905D01*
X1911Y2235D01*
X1916Y2240D01*
X1919Y2246D01*
X1922Y2255D01*
Y2269D01*
X1919Y2277D01*
X1916Y2283D01*
X1911Y2289D01*
X1905Y2292D01*
X1894D01*
X1936D02*
Y2232D01*
Y2292D02*
X1962D01*
X1970Y2289D01*
X1973Y2286D01*
X1976Y2280D01*
Y2275D01*
X1973Y2269D01*
X1970Y2266D01*
X1962Y2263D01*
X1936D01*
X1956D02*
X1976Y2232D01*
X1990Y2292D02*
X2012Y2263D01*
Y2232D01*
X2035Y2292D02*
X2012Y2263D01*
X2046Y2237D02*
X2043Y2235D01*
X2046Y2232D01*
X2049Y2235D01*
X2046Y2237D01*
X2156Y2292D02*
Y2232D01*
X2189Y2292D02*
Y2232D01*
X2169Y2292D02*
X2209D01*
X2263D02*
Y2232D01*
X2316Y2283D02*
X2310Y2289D01*
X2301Y2292D01*
X2290D01*
X2281Y2289D01*
X2276Y2283D01*
Y2277D01*
X2278Y2272D01*
X2281Y2269D01*
X2287Y2266D01*
X2304Y2260D01*
X2310Y2257D01*
X2313Y2255D01*
X2316Y2249D01*
Y2240D01*
X2310Y2235D01*
X2301Y2232D01*
X2290D01*
X2281Y2235D01*
X2276Y2240D01*
X2416Y2283D02*
X2410Y2289D01*
X2402Y2292D01*
X2390D01*
X2382Y2289D01*
X2376Y2283D01*
Y2277D01*
X2379Y2272D01*
X2382Y2269D01*
X2388Y2266D01*
X2405Y2260D01*
X2410Y2257D01*
X2413Y2255D01*
X2416Y2249D01*
Y2240D01*
X2410Y2235D01*
X2402Y2232D01*
X2390D01*
X2382Y2235D01*
X2376Y2240D01*
X2430Y2292D02*
Y2249D01*
X2432Y2240D01*
X2438Y2235D01*
X2447Y2232D01*
X2452D01*
X2461Y2235D01*
X2467Y2240D01*
X2469Y2249D01*
Y2292D01*
X2486D02*
Y2232D01*
Y2292D02*
X2512D01*
X2520Y2289D01*
X2523Y2286D01*
X2526Y2280D01*
Y2275D01*
X2523Y2269D01*
X2520Y2266D01*
X2512Y2263D01*
X2486D02*
X2512D01*
X2520Y2260D01*
X2523Y2257D01*
X2526Y2252D01*
Y2243D01*
X2523Y2237D01*
X2520Y2235D01*
X2512Y2232D01*
X2486D01*
X2539Y2292D02*
Y2232D01*
Y2292D02*
X2562Y2232D01*
X2585Y2292D02*
X2562Y2232D01*
X2585Y2292D02*
Y2232D01*
X2602Y2292D02*
Y2232D01*
X2635Y2292D02*
Y2232D01*
X2615Y2292D02*
X2655D01*
X2682D02*
Y2232D01*
X2662Y2292D02*
X2702D01*
X2746D02*
X2709D01*
Y2232D01*
X2746D01*
X2709Y2263D02*
X2732D01*
X2756Y2292D02*
Y2232D01*
Y2292D02*
X2776D01*
X2785Y2289D01*
X2791Y2283D01*
X2793Y2277D01*
X2796Y2269D01*
Y2255D01*
X2793Y2246D01*
X2791Y2240D01*
X2785Y2235D01*
X2776Y2232D01*
X2756D01*
X2857Y2292D02*
Y2232D01*
Y2292D02*
X2894D01*
X2857Y2263D02*
X2880D01*
X2918Y2292D02*
X2912Y2289D01*
X2907Y2283D01*
X2904Y2277D01*
X2901Y2269D01*
Y2255D01*
X2904Y2246D01*
X2907Y2240D01*
X2912Y2235D01*
X2918Y2232D01*
X2929D01*
X2935Y2235D01*
X2941Y2240D01*
X2944Y2246D01*
X2947Y2255D01*
Y2269D01*
X2944Y2277D01*
X2941Y2283D01*
X2935Y2289D01*
X2929Y2292D01*
X2918D01*
X2961D02*
Y2232D01*
Y2292D02*
X2986D01*
X2995Y2289D01*
X2998Y2286D01*
X3001Y2280D01*
Y2275D01*
X2998Y2269D01*
X2995Y2266D01*
X2986Y2263D01*
X2961D01*
X2981D02*
X3001Y2232D01*
X3107D02*
X3084Y2292D01*
X3061Y2232D01*
X3070Y2252D02*
X3098D01*
X3208Y2283D02*
X3202Y2289D01*
X3194Y2292D01*
X3182D01*
X3174Y2289D01*
X3168Y2283D01*
Y2277D01*
X3171Y2272D01*
X3174Y2269D01*
X3179Y2266D01*
X3196Y2260D01*
X3202Y2257D01*
X3205Y2255D01*
X3208Y2249D01*
Y2240D01*
X3202Y2235D01*
X3194Y2232D01*
X3182D01*
X3174Y2235D01*
X3168Y2240D01*
X3221Y2260D02*
X3247D01*
X3256Y2263D01*
X3258Y2266D01*
X3261Y2272D01*
Y2280D01*
X3258Y2286D01*
X3256Y2289D01*
X3247Y2292D01*
X3221D01*
Y2232D01*
X3312Y2292D02*
X3275D01*
Y2232D01*
X3312D01*
X3275Y2263D02*
X3298D01*
X3365Y2277D02*
X3362Y2283D01*
X3356Y2289D01*
X3350Y2292D01*
X3339D01*
X3333Y2289D01*
X3328Y2283D01*
X3325Y2277D01*
X3322Y2269D01*
Y2255D01*
X3325Y2246D01*
X3328Y2240D01*
X3333Y2235D01*
X3339Y2232D01*
X3350D01*
X3356Y2235D01*
X3362Y2240D01*
X3365Y2246D01*
X3382Y2292D02*
Y2232D01*
X3394Y2292D02*
Y2232D01*
Y2292D02*
X3431D01*
X3394Y2263D02*
X3417D01*
X3438Y2292D02*
Y2232D01*
X3494Y2277D02*
X3491Y2283D01*
X3485Y2289D01*
X3479Y2292D01*
X3468D01*
X3462Y2289D01*
X3456Y2283D01*
X3454Y2277D01*
X3451Y2269D01*
Y2255D01*
X3454Y2246D01*
X3456Y2240D01*
X3462Y2235D01*
X3468Y2232D01*
X3479D01*
X3485Y2235D01*
X3491Y2240D01*
X3494Y2246D01*
X3558Y2260D02*
X3583D01*
X3592Y2263D01*
X3595Y2266D01*
X3598Y2272D01*
Y2280D01*
X3595Y2286D01*
X3592Y2289D01*
X3583Y2292D01*
X3558D01*
Y2232D01*
X3611Y2292D02*
Y2249D01*
X3614Y2240D01*
X3620Y2235D01*
X3628Y2232D01*
X3634D01*
X3642Y2235D01*
X3648Y2240D01*
X3651Y2249D01*
Y2292D01*
X3668D02*
Y2232D01*
Y2292D02*
X3693D01*
X3702Y2289D01*
X3705Y2286D01*
X3708Y2280D01*
Y2275D01*
X3705Y2269D01*
X3702Y2266D01*
X3693Y2263D01*
X3668D01*
X3688D02*
X3708Y2232D01*
X3721Y2260D02*
X3747D01*
X3755Y2263D01*
X3758Y2266D01*
X3761Y2272D01*
Y2280D01*
X3758Y2286D01*
X3755Y2289D01*
X3747Y2292D01*
X3721D01*
Y2232D01*
X3791Y2292D02*
X3786Y2289D01*
X3780Y2283D01*
X3777Y2277D01*
X3774Y2269D01*
Y2255D01*
X3777Y2246D01*
X3780Y2240D01*
X3786Y2235D01*
X3791Y2232D01*
X3803D01*
X3809Y2235D01*
X3814Y2240D01*
X3817Y2246D01*
X3820Y2255D01*
Y2269D01*
X3817Y2277D01*
X3814Y2283D01*
X3809Y2289D01*
X3803Y2292D01*
X3791D01*
X3874Y2283D02*
X3868Y2289D01*
X3860Y2292D01*
X3848D01*
X3840Y2289D01*
X3834Y2283D01*
Y2277D01*
X3837Y2272D01*
X3840Y2269D01*
X3845Y2266D01*
X3863Y2260D01*
X3868Y2257D01*
X3871Y2255D01*
X3874Y2249D01*
Y2240D01*
X3868Y2235D01*
X3860Y2232D01*
X3848D01*
X3840Y2235D01*
X3834Y2240D01*
X3925Y2292D02*
X3887D01*
Y2232D01*
X3925D01*
X3887Y2263D02*
X3910D01*
X3982Y2292D02*
Y2249D01*
X3985Y2240D01*
X3990Y2235D01*
X3999Y2232D01*
X4005D01*
X4013Y2235D01*
X4019Y2240D01*
X4022Y2249D01*
Y2292D01*
X4038D02*
Y2232D01*
Y2292D02*
X4078Y2232D01*
Y2292D02*
Y2232D01*
X4095Y2292D02*
Y2232D01*
Y2292D02*
X4115D01*
X4123Y2289D01*
X4129Y2283D01*
X4132Y2277D01*
X4135Y2269D01*
Y2255D01*
X4132Y2246D01*
X4129Y2240D01*
X4123Y2235D01*
X4115Y2232D01*
X4095D01*
X4185Y2292D02*
X4148D01*
Y2232D01*
X4185D01*
X4148Y2263D02*
X4171D01*
X4195Y2292D02*
Y2232D01*
Y2292D02*
X4221D01*
X4230Y2289D01*
X4233Y2286D01*
X4235Y2280D01*
Y2275D01*
X4233Y2269D01*
X4230Y2266D01*
X4221Y2263D01*
X4195D01*
X4215D02*
X4235Y2232D01*
X4342D02*
X4319Y2292D01*
X4296Y2232D01*
X4305Y2252D02*
X4333D01*
X4446Y2277D02*
X4443Y2283D01*
X4437Y2289D01*
X4431Y2292D01*
X4420D01*
X4414Y2289D01*
X4409Y2283D01*
X4406Y2277D01*
X4403Y2269D01*
Y2255D01*
X4406Y2246D01*
X4409Y2240D01*
X4414Y2235D01*
X4420Y2232D01*
X4431D01*
X4437Y2235D01*
X4443Y2240D01*
X4446Y2246D01*
X4480Y2292D02*
X4474Y2289D01*
X4468Y2283D01*
X4465Y2277D01*
X4462Y2269D01*
Y2255D01*
X4465Y2246D01*
X4468Y2240D01*
X4474Y2235D01*
X4480Y2232D01*
X4491D01*
X4497Y2235D01*
X4502Y2240D01*
X4505Y2246D01*
X4508Y2255D01*
Y2269D01*
X4505Y2277D01*
X4502Y2283D01*
X4497Y2289D01*
X4491Y2292D01*
X4480D01*
X4522D02*
Y2232D01*
Y2292D02*
X4562Y2232D01*
Y2292D02*
Y2232D01*
X4579Y2257D02*
X4630D01*
X1449Y2197D02*
Y2137D01*
Y2197D02*
X1486D01*
X1449Y2168D02*
X1472D01*
X1493Y2197D02*
Y2137D01*
X1506Y2197D02*
Y2137D01*
Y2197D02*
X1526D01*
X1534Y2194D01*
X1540Y2188D01*
X1543Y2182D01*
X1546Y2174D01*
Y2160D01*
X1543Y2151D01*
X1540Y2145D01*
X1534Y2140D01*
X1526Y2137D01*
X1506D01*
X1596Y2197D02*
X1559D01*
Y2137D01*
X1596D01*
X1559Y2168D02*
X1582D01*
X1606Y2197D02*
Y2137D01*
Y2197D02*
X1646Y2137D01*
Y2197D02*
Y2137D01*
X1683Y2197D02*
Y2137D01*
X1663Y2197D02*
X1703D01*
X1710D02*
Y2137D01*
X1768D02*
X1745Y2197D01*
X1723Y2137D01*
X1731Y2157D02*
X1760D01*
X1782Y2197D02*
Y2137D01*
X1816D01*
X1870Y2197D02*
Y2137D01*
Y2197D02*
X1896D01*
X1904Y2194D01*
X1907Y2191D01*
X1910Y2185D01*
Y2180D01*
X1907Y2174D01*
X1904Y2171D01*
X1896Y2168D01*
X1870D01*
X1890D02*
X1910Y2137D01*
X1961Y2197D02*
X1924D01*
Y2137D01*
X1961D01*
X1924Y2168D02*
X1946D01*
X1971Y2197D02*
Y2137D01*
X2005D01*
X2057D02*
X2034Y2197D01*
X2012Y2137D01*
X2020Y2157D02*
X2049D01*
X2091Y2197D02*
Y2137D01*
X2071Y2197D02*
X2111D01*
X2118D02*
Y2137D01*
X2148Y2197D02*
X2142Y2194D01*
X2137Y2188D01*
X2134Y2182D01*
X2131Y2174D01*
Y2160D01*
X2134Y2151D01*
X2137Y2145D01*
X2142Y2140D01*
X2148Y2137D01*
X2160D01*
X2165Y2140D01*
X2171Y2145D01*
X2174Y2151D01*
X2177Y2160D01*
Y2174D01*
X2174Y2182D01*
X2171Y2188D01*
X2165Y2194D01*
X2160Y2197D01*
X2148D01*
X2191D02*
Y2137D01*
Y2197D02*
X2231Y2137D01*
Y2197D02*
Y2137D01*
X2287Y2188D02*
X2282Y2194D01*
X2273Y2197D01*
X2262D01*
X2253Y2194D01*
X2247Y2188D01*
Y2182D01*
X2250Y2177D01*
X2253Y2174D01*
X2259Y2171D01*
X2276Y2165D01*
X2282Y2162D01*
X2284Y2160D01*
X2287Y2154D01*
Y2145D01*
X2282Y2140D01*
X2273Y2137D01*
X2262D01*
X2253Y2140D01*
X2247Y2145D01*
X2301Y2197D02*
Y2137D01*
X2341Y2197D02*
Y2137D01*
X2301Y2168D02*
X2341D01*
X2357Y2197D02*
Y2137D01*
X2370Y2165D02*
X2396D01*
X2404Y2168D01*
X2407Y2171D01*
X2410Y2177D01*
Y2185D01*
X2407Y2191D01*
X2404Y2194D01*
X2396Y2197D01*
X2370D01*
Y2137D01*
X2429Y2140D02*
X2426Y2137D01*
X2423Y2140D01*
X2426Y2142D01*
X2429Y2140D01*
Y2134D01*
X2426Y2128D01*
X2423Y2125D01*
X2535Y2137D02*
X2512Y2197D01*
X2489Y2137D01*
X2498Y2157D02*
X2526D01*
X2549Y2197D02*
Y2137D01*
Y2197D02*
X2589Y2137D01*
Y2197D02*
Y2137D01*
X2605Y2197D02*
Y2137D01*
Y2197D02*
X2625D01*
X2634Y2194D01*
X2640Y2188D01*
X2643Y2182D01*
X2645Y2174D01*
Y2160D01*
X2643Y2151D01*
X2640Y2145D01*
X2634Y2140D01*
X2625Y2137D01*
X2605D01*
X2743Y2197D02*
X2706D01*
Y2137D01*
X2743D01*
X2706Y2168D02*
X2729D01*
X2753Y2197D02*
X2793Y2137D01*
Y2197D02*
X2753Y2137D01*
X2849Y2182D02*
X2847Y2188D01*
X2841Y2194D01*
X2835Y2197D01*
X2824D01*
X2818Y2194D01*
X2812Y2188D01*
X2809Y2182D01*
X2807Y2174D01*
Y2160D01*
X2809Y2151D01*
X2812Y2145D01*
X2818Y2140D01*
X2824Y2137D01*
X2835D01*
X2841Y2140D01*
X2847Y2145D01*
X2849Y2151D01*
X2903Y2197D02*
X2866D01*
Y2137D01*
X2903D01*
X2866Y2168D02*
X2889D01*
X2913Y2165D02*
X2939D01*
X2948Y2168D01*
X2951Y2171D01*
X2953Y2177D01*
Y2185D01*
X2951Y2191D01*
X2948Y2194D01*
X2939Y2197D01*
X2913D01*
Y2137D01*
X2987Y2197D02*
Y2137D01*
X2967Y2197D02*
X3007D01*
X3061D02*
Y2137D01*
Y2197D02*
X3098D01*
X3061Y2168D02*
X3084D01*
X3122Y2197D02*
X3116Y2194D01*
X3111Y2188D01*
X3108Y2182D01*
X3105Y2174D01*
Y2160D01*
X3108Y2151D01*
X3111Y2145D01*
X3116Y2140D01*
X3122Y2137D01*
X3134D01*
X3139Y2140D01*
X3145Y2145D01*
X3148Y2151D01*
X3151Y2160D01*
Y2174D01*
X3148Y2182D01*
X3145Y2188D01*
X3139Y2194D01*
X3134Y2197D01*
X3122D01*
X3165D02*
Y2137D01*
Y2197D02*
X3190D01*
X3199Y2194D01*
X3202Y2191D01*
X3205Y2185D01*
Y2180D01*
X3202Y2174D01*
X3199Y2171D01*
X3190Y2168D01*
X3165D01*
X3185D02*
X3205Y2137D01*
X3265Y2165D02*
X3291D01*
X3300Y2168D01*
X3302Y2171D01*
X3305Y2177D01*
Y2185D01*
X3302Y2191D01*
X3300Y2194D01*
X3291Y2197D01*
X3265D01*
Y2137D01*
X3319Y2197D02*
Y2154D01*
X3322Y2145D01*
X3327Y2140D01*
X3336Y2137D01*
X3342D01*
X3350Y2140D01*
X3356Y2145D01*
X3359Y2154D01*
Y2197D01*
X3375D02*
Y2137D01*
Y2197D02*
X3401D01*
X3410Y2194D01*
X3412Y2191D01*
X3415Y2185D01*
Y2180D01*
X3412Y2174D01*
X3410Y2171D01*
X3401Y2168D01*
X3375D01*
X3395D02*
X3415Y2137D01*
X3429Y2165D02*
X3454D01*
X3463Y2168D01*
X3466Y2171D01*
X3469Y2177D01*
Y2185D01*
X3466Y2191D01*
X3463Y2194D01*
X3454Y2197D01*
X3429D01*
Y2137D01*
X3499Y2197D02*
X3494Y2194D01*
X3488Y2188D01*
X3485Y2182D01*
X3482Y2174D01*
Y2160D01*
X3485Y2151D01*
X3488Y2145D01*
X3494Y2140D01*
X3499Y2137D01*
X3511D01*
X3516Y2140D01*
X3522Y2145D01*
X3525Y2151D01*
X3528Y2160D01*
Y2174D01*
X3525Y2182D01*
X3522Y2188D01*
X3516Y2194D01*
X3511Y2197D01*
X3499D01*
X3582Y2188D02*
X3576Y2194D01*
X3568Y2197D01*
X3556D01*
X3548Y2194D01*
X3542Y2188D01*
Y2182D01*
X3545Y2177D01*
X3548Y2174D01*
X3553Y2171D01*
X3570Y2165D01*
X3576Y2162D01*
X3579Y2160D01*
X3582Y2154D01*
Y2145D01*
X3576Y2140D01*
X3568Y2137D01*
X3556D01*
X3548Y2140D01*
X3542Y2145D01*
X3632Y2197D02*
X3595D01*
Y2137D01*
X3632D01*
X3595Y2168D02*
X3618D01*
X3682Y2188D02*
X3677Y2194D01*
X3668Y2197D01*
X3657D01*
X3648Y2194D01*
X3642Y2188D01*
Y2182D01*
X3645Y2177D01*
X3648Y2174D01*
X3654Y2171D01*
X3671Y2165D01*
X3677Y2162D01*
X3680Y2160D01*
X3682Y2154D01*
Y2145D01*
X3677Y2140D01*
X3668Y2137D01*
X3657D01*
X3648Y2140D01*
X3642Y2145D01*
X3780Y2197D02*
X3743D01*
Y2137D01*
X3780D01*
X3743Y2168D02*
X3766D01*
X3790Y2197D02*
X3830Y2137D01*
Y2197D02*
X3790Y2137D01*
X3843Y2165D02*
X3869D01*
X3878Y2168D01*
X3881Y2171D01*
X3883Y2177D01*
Y2185D01*
X3881Y2191D01*
X3878Y2194D01*
X3869Y2197D01*
X3843D01*
Y2137D01*
X3897Y2197D02*
Y2137D01*
Y2197D02*
X3923D01*
X3931Y2194D01*
X3934Y2191D01*
X3937Y2185D01*
Y2180D01*
X3934Y2174D01*
X3931Y2171D01*
X3923Y2168D01*
X3897D01*
X3917D02*
X3937Y2137D01*
X3987Y2197D02*
X3950D01*
Y2137D01*
X3987D01*
X3950Y2168D02*
X3973D01*
X4037Y2188D02*
X4032Y2194D01*
X4023Y2197D01*
X4012D01*
X4003Y2194D01*
X3997Y2188D01*
Y2182D01*
X4000Y2177D01*
X4003Y2174D01*
X4009Y2171D01*
X4026Y2165D01*
X4032Y2162D01*
X4035Y2160D01*
X4037Y2154D01*
Y2145D01*
X4032Y2140D01*
X4023Y2137D01*
X4012D01*
X4003Y2140D01*
X3997Y2145D01*
X4091Y2188D02*
X4085Y2194D01*
X4077Y2197D01*
X4065D01*
X4057Y2194D01*
X4051Y2188D01*
Y2182D01*
X4054Y2177D01*
X4057Y2174D01*
X4062Y2171D01*
X4079Y2165D01*
X4085Y2162D01*
X4088Y2160D01*
X4091Y2154D01*
Y2145D01*
X4085Y2140D01*
X4077Y2137D01*
X4065D01*
X4057Y2140D01*
X4051Y2145D01*
X4104Y2197D02*
Y2137D01*
X4139D01*
X4145Y2197D02*
X4168Y2168D01*
Y2137D01*
X4191Y2197D02*
X4168Y2168D01*
X4289Y2182D02*
X4286Y2188D01*
X4280Y2194D01*
X4274Y2197D01*
X4263D01*
X4257Y2194D01*
X4251Y2188D01*
X4249Y2182D01*
X4246Y2174D01*
Y2160D01*
X4249Y2151D01*
X4251Y2145D01*
X4257Y2140D01*
X4263Y2137D01*
X4274D01*
X4280Y2140D01*
X4286Y2145D01*
X4289Y2151D01*
Y2160D01*
X4274D02*
X4289D01*
X4302Y2197D02*
Y2137D01*
Y2197D02*
X4328D01*
X4337Y2194D01*
X4339Y2191D01*
X4342Y2185D01*
Y2180D01*
X4339Y2174D01*
X4337Y2171D01*
X4328Y2168D01*
X4302D01*
X4322D02*
X4342Y2137D01*
X4401D02*
X4379Y2197D01*
X4356Y2137D01*
X4364Y2157D02*
X4393D01*
X4415Y2197D02*
Y2137D01*
Y2197D02*
X4455Y2137D01*
Y2197D02*
Y2137D01*
X4492Y2197D02*
Y2137D01*
X4472Y2197D02*
X4512D01*
X4556D02*
X4519D01*
Y2137D01*
X4556D01*
X4519Y2168D02*
X4542D01*
X4566Y2197D02*
Y2137D01*
Y2197D02*
X4586D01*
X4595Y2194D01*
X4600Y2188D01*
X4603Y2182D01*
X4606Y2174D01*
Y2160D01*
X4603Y2151D01*
X4600Y2145D01*
X4595Y2140D01*
X4586Y2137D01*
X4566D01*
X18785Y2819D02*
Y2764D01*
Y2819D02*
X18809D01*
X18817Y2816D01*
X18819Y2814D01*
X18822Y2808D01*
Y2803D01*
X18819Y2798D01*
X18817Y2795D01*
X18809Y2793D01*
X18785D01*
X18803D02*
X18822Y2764D01*
X18839Y2819D02*
X18842Y2816D01*
X18845Y2819D01*
X18842Y2821D01*
X18839Y2819D01*
X18842Y2800D02*
Y2764D01*
X18886Y2793D02*
X18880Y2798D01*
X18875Y2800D01*
X18867D01*
X18862Y2798D01*
X18857Y2793D01*
X18854Y2785D01*
Y2779D01*
X18857Y2772D01*
X18862Y2766D01*
X18867Y2764D01*
X18875D01*
X18880Y2766D01*
X18886Y2772D01*
X18897Y2819D02*
Y2764D01*
Y2790D02*
X18905Y2798D01*
X18911Y2800D01*
X18918D01*
X18924Y2798D01*
X18926Y2790D01*
Y2764D01*
X18984Y2819D02*
Y2764D01*
X19015D01*
X19034Y2800D02*
X19029Y2798D01*
X19024Y2793D01*
X19021Y2785D01*
Y2779D01*
X19024Y2772D01*
X19029Y2766D01*
X19034Y2764D01*
X19042D01*
X19048Y2766D01*
X19053Y2772D01*
X19055Y2779D01*
Y2785D01*
X19053Y2793D01*
X19048Y2798D01*
X19042Y2800D01*
X19034D01*
X19067Y2819D02*
Y2764D01*
Y2793D02*
X19073Y2798D01*
X19078Y2800D01*
X19086D01*
X19091Y2798D01*
X19096Y2793D01*
X19099Y2785D01*
Y2779D01*
X19096Y2772D01*
X19091Y2766D01*
X19086Y2764D01*
X19078D01*
X19073Y2766D01*
X19067Y2772D01*
X19142Y2819D02*
Y2764D01*
Y2793D02*
X19137Y2798D01*
X19132Y2800D01*
X19124D01*
X19118Y2798D01*
X19113Y2793D01*
X19111Y2785D01*
Y2779D01*
X19113Y2772D01*
X19118Y2766D01*
X19124Y2764D01*
X19132D01*
X19137Y2766D01*
X19142Y2772D01*
X19162Y2819D02*
X19165Y2816D01*
X19167Y2819D01*
X19165Y2821D01*
X19162Y2819D01*
X19165Y2800D02*
Y2764D01*
X19177Y2819D02*
Y2764D01*
X19188Y2819D02*
Y2764D01*
X20346Y2817D02*
Y2762D01*
Y2817D02*
X20370D01*
X20378Y2814D01*
X20380Y2812D01*
X20383Y2806D01*
Y2801D01*
X20380Y2796D01*
X20378Y2793D01*
X20370Y2791D01*
X20346D01*
X20364D02*
X20383Y2762D01*
X20400Y2817D02*
X20403Y2814D01*
X20406Y2817D01*
X20403Y2819D01*
X20400Y2817D01*
X20403Y2798D02*
Y2762D01*
X20447Y2791D02*
X20441Y2796D01*
X20436Y2798D01*
X20428D01*
X20423Y2796D01*
X20418Y2791D01*
X20415Y2783D01*
Y2777D01*
X20418Y2770D01*
X20423Y2764D01*
X20428Y2762D01*
X20436D01*
X20441Y2764D01*
X20447Y2770D01*
X20458Y2817D02*
Y2762D01*
Y2788D02*
X20466Y2796D01*
X20472Y2798D01*
X20479D01*
X20485Y2796D01*
X20487Y2788D01*
Y2762D01*
X20545Y2817D02*
Y2762D01*
X20576D01*
X20595Y2798D02*
X20590Y2796D01*
X20585Y2791D01*
X20582Y2783D01*
Y2777D01*
X20585Y2770D01*
X20590Y2764D01*
X20595Y2762D01*
X20603D01*
X20609Y2764D01*
X20614Y2770D01*
X20616Y2777D01*
Y2783D01*
X20614Y2791D01*
X20609Y2796D01*
X20603Y2798D01*
X20595D01*
X20628Y2817D02*
Y2762D01*
Y2791D02*
X20634Y2796D01*
X20639Y2798D01*
X20647D01*
X20652Y2796D01*
X20657Y2791D01*
X20660Y2783D01*
Y2777D01*
X20657Y2770D01*
X20652Y2764D01*
X20647Y2762D01*
X20639D01*
X20634Y2764D01*
X20628Y2770D01*
X20703Y2817D02*
Y2762D01*
Y2791D02*
X20698Y2796D01*
X20693Y2798D01*
X20685D01*
X20679Y2796D01*
X20674Y2791D01*
X20672Y2783D01*
Y2777D01*
X20674Y2770D01*
X20679Y2764D01*
X20685Y2762D01*
X20693D01*
X20698Y2764D01*
X20703Y2770D01*
X20723Y2817D02*
X20726Y2814D01*
X20728Y2817D01*
X20726Y2819D01*
X20723Y2817D01*
X20726Y2798D02*
Y2762D01*
X20738Y2817D02*
Y2762D01*
X20749Y2817D02*
Y2762D01*
X5191Y13118D02*
X5200Y13122D01*
X5214Y13137D01*
Y13037D01*
X5321Y13137D02*
X5273D01*
X5269Y13094D01*
X5273Y13099D01*
X5288Y13103D01*
X5302D01*
X5316Y13099D01*
X5326Y13089D01*
X5331Y13075D01*
Y13065D01*
X5326Y13051D01*
X5316Y13041D01*
X5302Y13037D01*
X5288D01*
X5273Y13041D01*
X5269Y13046D01*
X5264Y13056D01*
X5358Y13113D02*
Y13118D01*
X5362Y13127D01*
X5367Y13132D01*
X5377Y13137D01*
X5396D01*
X5405Y13132D01*
X5410Y13127D01*
X5415Y13118D01*
Y13108D01*
X5410Y13099D01*
X5401Y13084D01*
X5353Y13037D01*
X5420D01*
X6127Y13118D02*
X6137Y13122D01*
X6151Y13137D01*
Y13037D01*
X6229Y13137D02*
X6215Y13132D01*
X6205Y13118D01*
X6200Y13094D01*
Y13079D01*
X6205Y13056D01*
X6215Y13041D01*
X6229Y13037D01*
X6238D01*
X6253Y13041D01*
X6262Y13056D01*
X6267Y13079D01*
Y13094D01*
X6262Y13118D01*
X6253Y13132D01*
X6238Y13137D01*
X6229D01*
X6289Y13103D02*
Y13037D01*
Y13084D02*
X6304Y13099D01*
X6313Y13103D01*
X6327D01*
X6337Y13099D01*
X6342Y13084D01*
Y13037D01*
Y13084D02*
X6356Y13099D01*
X6366Y13103D01*
X6380D01*
X6389Y13099D01*
X6394Y13084D01*
Y13037D01*
X6435Y13137D02*
X6440Y13132D01*
X6445Y13137D01*
X6440Y13141D01*
X6435Y13137D01*
X6440Y13103D02*
Y13037D01*
X6462Y13137D02*
Y13037D01*
X6595Y13156D02*
X6585Y13146D01*
X6576Y13132D01*
X6566Y13113D01*
X6562Y13089D01*
Y13070D01*
X6566Y13046D01*
X6576Y13027D01*
X6585Y13013D01*
X6595Y13003D01*
X6585Y13146D02*
X6576Y13127D01*
X6571Y13113D01*
X6566Y13089D01*
Y13070D01*
X6571Y13046D01*
X6576Y13032D01*
X6585Y13013D01*
X6643Y13137D02*
X6628Y13132D01*
X6619Y13118D01*
X6614Y13094D01*
Y13079D01*
X6619Y13056D01*
X6628Y13041D01*
X6643Y13037D01*
X6652D01*
X6666Y13041D01*
X6676Y13056D01*
X6681Y13079D01*
Y13094D01*
X6676Y13118D01*
X6666Y13132D01*
X6652Y13137D01*
X6643D01*
X6708Y13046D02*
X6703Y13041D01*
X6708Y13037D01*
X6713Y13041D01*
X6708Y13046D01*
X6739Y13113D02*
Y13118D01*
X6744Y13127D01*
X6749Y13132D01*
X6758Y13137D01*
X6777D01*
X6787Y13132D01*
X6792Y13127D01*
X6796Y13118D01*
Y13108D01*
X6792Y13099D01*
X6782Y13084D01*
X6734Y13037D01*
X6801D01*
X6881Y13137D02*
X6833D01*
X6828Y13094D01*
X6833Y13099D01*
X6847Y13103D01*
X6862D01*
X6876Y13099D01*
X6885Y13089D01*
X6890Y13075D01*
Y13065D01*
X6885Y13051D01*
X6876Y13041D01*
X6862Y13037D01*
X6847D01*
X6833Y13041D01*
X6828Y13046D01*
X6824Y13056D01*
X6960Y13137D02*
X6913Y13070D01*
X6984D01*
X6960Y13137D02*
Y13037D01*
X7002Y13103D02*
Y13037D01*
Y13084D02*
X7016Y13099D01*
X7025Y13103D01*
X7040D01*
X7049Y13099D01*
X7054Y13084D01*
Y13037D01*
Y13084D02*
X7068Y13099D01*
X7078Y13103D01*
X7092D01*
X7102Y13099D01*
X7106Y13084D01*
Y13037D01*
X7138Y13103D02*
Y13037D01*
Y13084D02*
X7152Y13099D01*
X7162Y13103D01*
X7176D01*
X7185Y13099D01*
X7190Y13084D01*
Y13037D01*
Y13084D02*
X7204Y13099D01*
X7214Y13103D01*
X7228D01*
X7238Y13099D01*
X7242Y13084D01*
Y13037D01*
X7274Y13156D02*
X7283Y13146D01*
X7293Y13132D01*
X7302Y13113D01*
X7307Y13089D01*
Y13070D01*
X7302Y13046D01*
X7293Y13027D01*
X7283Y13013D01*
X7274Y13003D01*
X7283Y13146D02*
X7293Y13127D01*
X7298Y13113D01*
X7302Y13089D01*
Y13070D01*
X7298Y13046D01*
X7293Y13032D01*
X7283Y13013D01*
X8013Y13084D02*
X8056D01*
X8070Y13089D01*
X8075Y13094D01*
X8080Y13103D01*
Y13118D01*
X8075Y13127D01*
X8070Y13132D01*
X8056Y13137D01*
X8013D01*
Y13037D01*
X8135Y13137D02*
Y13037D01*
X8102Y13137D02*
X8169D01*
X8181D02*
Y13037D01*
X8247Y13137D02*
Y13037D01*
X8181Y13089D02*
X8247D01*
X8639Y13137D02*
Y13037D01*
Y13137D02*
X8682D01*
X8696Y13132D01*
X8701Y13127D01*
X8706Y13118D01*
Y13108D01*
X8701Y13099D01*
X8696Y13094D01*
X8682Y13089D01*
X8639D01*
X8673D02*
X8706Y13037D01*
X8752Y13103D02*
X8743Y13099D01*
X8733Y13089D01*
X8728Y13075D01*
Y13065D01*
X8733Y13051D01*
X8743Y13041D01*
X8752Y13037D01*
X8766D01*
X8776Y13041D01*
X8785Y13051D01*
X8790Y13065D01*
Y13075D01*
X8785Y13089D01*
X8776Y13099D01*
X8766Y13103D01*
X8752D01*
X8812D02*
Y13056D01*
X8817Y13041D01*
X8826Y13037D01*
X8841D01*
X8850Y13041D01*
X8864Y13056D01*
Y13103D02*
Y13037D01*
X8891Y13103D02*
Y13037D01*
Y13084D02*
X8905Y13099D01*
X8914Y13103D01*
X8929D01*
X8938Y13099D01*
X8943Y13084D01*
Y13037D01*
X9026Y13137D02*
Y13037D01*
Y13089D02*
X9017Y13099D01*
X9007Y13103D01*
X8993D01*
X8983Y13099D01*
X8974Y13089D01*
X8969Y13075D01*
Y13065D01*
X8974Y13051D01*
X8983Y13041D01*
X8993Y13037D01*
X9007D01*
X9017Y13041D01*
X9026Y13051D01*
X5238Y12937D02*
X5191Y12870D01*
X5262D01*
X5238Y12937D02*
Y12837D01*
X6127Y12918D02*
X6137Y12922D01*
X6151Y12937D01*
Y12837D01*
X6205Y12913D02*
Y12918D01*
X6210Y12927D01*
X6215Y12932D01*
X6224Y12937D01*
X6243D01*
X6253Y12932D01*
X6257Y12927D01*
X6262Y12918D01*
Y12908D01*
X6257Y12899D01*
X6248Y12884D01*
X6200Y12837D01*
X6267D01*
X6294Y12846D02*
X6289Y12841D01*
X6294Y12837D01*
X6299Y12841D01*
X6294Y12846D01*
X6383Y12903D02*
X6378Y12889D01*
X6368Y12879D01*
X6354Y12875D01*
X6349D01*
X6335Y12879D01*
X6326Y12889D01*
X6321Y12903D01*
Y12908D01*
X6326Y12922D01*
X6335Y12932D01*
X6349Y12937D01*
X6354D01*
X6368Y12932D01*
X6378Y12922D01*
X6383Y12903D01*
Y12879D01*
X6378Y12856D01*
X6368Y12841D01*
X6354Y12837D01*
X6345D01*
X6330Y12841D01*
X6326Y12851D01*
X6472Y12903D02*
X6467Y12889D01*
X6457Y12879D01*
X6443Y12875D01*
X6438D01*
X6424Y12879D01*
X6415Y12889D01*
X6410Y12903D01*
Y12908D01*
X6415Y12922D01*
X6424Y12932D01*
X6438Y12937D01*
X6443D01*
X6457Y12932D01*
X6467Y12922D01*
X6472Y12903D01*
Y12879D01*
X6467Y12856D01*
X6457Y12841D01*
X6443Y12837D01*
X6434D01*
X6419Y12841D01*
X6415Y12851D01*
X6504Y12913D02*
Y12918D01*
X6508Y12927D01*
X6513Y12932D01*
X6523Y12937D01*
X6542D01*
X6551Y12932D01*
X6556Y12927D01*
X6561Y12918D01*
Y12908D01*
X6556Y12899D01*
X6546Y12884D01*
X6499Y12837D01*
X6565D01*
X6588Y12903D02*
Y12837D01*
Y12884D02*
X6602Y12899D01*
X6612Y12903D01*
X6626D01*
X6635Y12899D01*
X6640Y12884D01*
Y12837D01*
Y12884D02*
X6654Y12899D01*
X6664Y12903D01*
X6678D01*
X6688Y12899D01*
X6693Y12884D01*
Y12837D01*
X6734Y12937D02*
X6738Y12932D01*
X6743Y12937D01*
X6738Y12941D01*
X6734Y12937D01*
X6738Y12903D02*
Y12837D01*
X6761Y12937D02*
Y12837D01*
X6893Y12956D02*
X6884Y12946D01*
X6874Y12932D01*
X6865Y12913D01*
X6860Y12889D01*
Y12870D01*
X6865Y12846D01*
X6874Y12827D01*
X6884Y12813D01*
X6893Y12803D01*
X6884Y12946D02*
X6874Y12927D01*
X6870Y12913D01*
X6865Y12889D01*
Y12870D01*
X6870Y12846D01*
X6874Y12832D01*
X6884Y12813D01*
X6941Y12937D02*
X6927Y12932D01*
X6917Y12918D01*
X6913Y12894D01*
Y12879D01*
X6917Y12856D01*
X6927Y12841D01*
X6941Y12837D01*
X6951D01*
X6965Y12841D01*
X6974Y12856D01*
X6979Y12879D01*
Y12894D01*
X6974Y12918D01*
X6965Y12932D01*
X6951Y12937D01*
X6941D01*
X7006Y12846D02*
X7002Y12841D01*
X7006Y12837D01*
X7011Y12841D01*
X7006Y12846D01*
X7043Y12937D02*
X7095D01*
X7066Y12899D01*
X7081D01*
X7090Y12894D01*
X7095Y12889D01*
X7100Y12875D01*
Y12865D01*
X7095Y12851D01*
X7085Y12841D01*
X7071Y12837D01*
X7057D01*
X7043Y12841D01*
X7038Y12846D01*
X7033Y12856D01*
X7132Y12937D02*
X7184D01*
X7155Y12899D01*
X7170D01*
X7179Y12894D01*
X7184Y12889D01*
X7189Y12875D01*
Y12865D01*
X7184Y12851D01*
X7174Y12841D01*
X7160Y12837D01*
X7146D01*
X7132Y12841D01*
X7127Y12846D01*
X7122Y12856D01*
X7211Y12903D02*
Y12837D01*
Y12884D02*
X7225Y12899D01*
X7235Y12903D01*
X7249D01*
X7259Y12899D01*
X7263Y12884D01*
Y12837D01*
Y12884D02*
X7278Y12899D01*
X7287Y12903D01*
X7301D01*
X7311Y12899D01*
X7316Y12884D01*
Y12837D01*
X7347Y12903D02*
Y12837D01*
Y12884D02*
X7361Y12899D01*
X7371Y12903D01*
X7385D01*
X7395Y12899D01*
X7400Y12884D01*
Y12837D01*
Y12884D02*
X7414Y12899D01*
X7423Y12903D01*
X7438D01*
X7447Y12899D01*
X7452Y12884D01*
Y12837D01*
X7483Y12956D02*
X7493Y12946D01*
X7502Y12932D01*
X7512Y12913D01*
X7517Y12889D01*
Y12870D01*
X7512Y12846D01*
X7502Y12827D01*
X7493Y12813D01*
X7483Y12803D01*
X7493Y12946D02*
X7502Y12927D01*
X7507Y12913D01*
X7512Y12889D01*
Y12870D01*
X7507Y12846D01*
X7502Y12832D01*
X7493Y12813D01*
X8013Y12884D02*
X8056D01*
X8070Y12889D01*
X8075Y12894D01*
X8080Y12903D01*
Y12918D01*
X8075Y12927D01*
X8070Y12932D01*
X8056Y12937D01*
X8013D01*
Y12837D01*
X8135Y12937D02*
Y12837D01*
X8102Y12937D02*
X8169D01*
X8181D02*
Y12837D01*
X8247Y12937D02*
Y12837D01*
X8181Y12889D02*
X8247D01*
X8639Y12937D02*
Y12837D01*
Y12937D02*
X8682D01*
X8696Y12932D01*
X8701Y12927D01*
X8706Y12918D01*
Y12908D01*
X8701Y12899D01*
X8696Y12894D01*
X8682Y12889D01*
X8639D01*
X8673D02*
X8706Y12837D01*
X8752Y12903D02*
X8743Y12899D01*
X8733Y12889D01*
X8728Y12875D01*
Y12865D01*
X8733Y12851D01*
X8743Y12841D01*
X8752Y12837D01*
X8766D01*
X8776Y12841D01*
X8785Y12851D01*
X8790Y12865D01*
Y12875D01*
X8785Y12889D01*
X8776Y12899D01*
X8766Y12903D01*
X8752D01*
X8812D02*
Y12856D01*
X8817Y12841D01*
X8826Y12837D01*
X8841D01*
X8850Y12841D01*
X8864Y12856D01*
Y12903D02*
Y12837D01*
X8891Y12903D02*
Y12837D01*
Y12884D02*
X8905Y12899D01*
X8914Y12903D01*
X8929D01*
X8938Y12899D01*
X8943Y12884D01*
Y12837D01*
X9026Y12937D02*
Y12837D01*
Y12889D02*
X9017Y12899D01*
X9007Y12903D01*
X8993D01*
X8983Y12899D01*
X8974Y12889D01*
X8969Y12875D01*
Y12865D01*
X8974Y12851D01*
X8983Y12841D01*
X8993Y12837D01*
X9007D01*
X9017Y12841D01*
X9026Y12851D01*
X5191Y12718D02*
X5200Y12722D01*
X5214Y12737D01*
Y12637D01*
X5292Y12737D02*
X5278Y12732D01*
X5269Y12718D01*
X5264Y12694D01*
Y12679D01*
X5269Y12656D01*
X5278Y12641D01*
X5292Y12637D01*
X5302D01*
X5316Y12641D01*
X5326Y12656D01*
X5331Y12679D01*
Y12694D01*
X5326Y12718D01*
X5316Y12732D01*
X5302Y12737D01*
X5292D01*
X6132Y12713D02*
Y12718D01*
X6137Y12727D01*
X6141Y12732D01*
X6151Y12737D01*
X6170D01*
X6179Y12732D01*
X6184Y12727D01*
X6189Y12718D01*
Y12708D01*
X6184Y12699D01*
X6175Y12684D01*
X6127Y12637D01*
X6194D01*
X6240Y12737D02*
X6226Y12732D01*
X6221Y12722D01*
Y12713D01*
X6226Y12703D01*
X6235Y12699D01*
X6254Y12694D01*
X6268Y12689D01*
X6278Y12679D01*
X6283Y12670D01*
Y12656D01*
X6278Y12646D01*
X6273Y12641D01*
X6259Y12637D01*
X6240D01*
X6226Y12641D01*
X6221Y12646D01*
X6216Y12656D01*
Y12670D01*
X6221Y12679D01*
X6230Y12689D01*
X6245Y12694D01*
X6264Y12699D01*
X6273Y12703D01*
X6278Y12713D01*
Y12722D01*
X6273Y12732D01*
X6259Y12737D01*
X6240D01*
X6305Y12703D02*
Y12637D01*
Y12684D02*
X6319Y12699D01*
X6329Y12703D01*
X6343D01*
X6353Y12699D01*
X6357Y12684D01*
Y12637D01*
Y12684D02*
X6372Y12699D01*
X6381Y12703D01*
X6396D01*
X6405Y12699D01*
X6410Y12684D01*
Y12637D01*
X6451Y12737D02*
X6455Y12732D01*
X6460Y12737D01*
X6455Y12741D01*
X6451Y12737D01*
X6455Y12703D02*
Y12637D01*
X6478Y12737D02*
Y12637D01*
X6611Y12756D02*
X6601Y12746D01*
X6592Y12732D01*
X6582Y12713D01*
X6577Y12689D01*
Y12670D01*
X6582Y12646D01*
X6592Y12627D01*
X6601Y12613D01*
X6611Y12603D01*
X6601Y12746D02*
X6592Y12727D01*
X6587Y12713D01*
X6582Y12689D01*
Y12670D01*
X6587Y12646D01*
X6592Y12632D01*
X6601Y12613D01*
X6658Y12737D02*
X6644Y12732D01*
X6634Y12718D01*
X6630Y12694D01*
Y12679D01*
X6634Y12656D01*
X6644Y12641D01*
X6658Y12637D01*
X6668D01*
X6682Y12641D01*
X6692Y12656D01*
X6696Y12679D01*
Y12694D01*
X6692Y12718D01*
X6682Y12732D01*
X6668Y12737D01*
X6658D01*
X6724Y12646D02*
X6719Y12641D01*
X6724Y12637D01*
X6728Y12641D01*
X6724Y12646D01*
X6817Y12737D02*
X6769Y12637D01*
X6750Y12737D02*
X6817D01*
X6839Y12718D02*
X6849Y12722D01*
X6863Y12737D01*
Y12637D01*
X6913Y12718D02*
X6922Y12722D01*
X6936Y12737D01*
Y12637D01*
X6991Y12713D02*
Y12718D01*
X6995Y12727D01*
X7000Y12732D01*
X7010Y12737D01*
X7029D01*
X7038Y12732D01*
X7043Y12727D01*
X7048Y12718D01*
Y12708D01*
X7043Y12699D01*
X7033Y12684D01*
X6986Y12637D01*
X7053D01*
X7075Y12703D02*
Y12637D01*
Y12684D02*
X7089Y12699D01*
X7099Y12703D01*
X7113D01*
X7122Y12699D01*
X7127Y12684D01*
Y12637D01*
Y12684D02*
X7142Y12699D01*
X7151Y12703D01*
X7165D01*
X7175Y12699D01*
X7180Y12684D01*
Y12637D01*
X7211Y12703D02*
Y12637D01*
Y12684D02*
X7225Y12699D01*
X7235Y12703D01*
X7249D01*
X7259Y12699D01*
X7263Y12684D01*
Y12637D01*
Y12684D02*
X7278Y12699D01*
X7287Y12703D01*
X7301D01*
X7311Y12699D01*
X7316Y12684D01*
Y12637D01*
X7347Y12756D02*
X7357Y12746D01*
X7366Y12732D01*
X7376Y12713D01*
X7381Y12689D01*
Y12670D01*
X7376Y12646D01*
X7366Y12627D01*
X7357Y12613D01*
X7347Y12603D01*
X7357Y12746D02*
X7366Y12727D01*
X7371Y12713D01*
X7376Y12689D01*
Y12670D01*
X7371Y12646D01*
X7366Y12632D01*
X7357Y12613D01*
X8013Y12684D02*
X8056D01*
X8070Y12689D01*
X8075Y12694D01*
X8080Y12703D01*
Y12718D01*
X8075Y12727D01*
X8070Y12732D01*
X8056Y12737D01*
X8013D01*
Y12637D01*
X8135Y12737D02*
Y12637D01*
X8102Y12737D02*
X8169D01*
X8181D02*
Y12637D01*
X8247Y12737D02*
Y12637D01*
X8181Y12689D02*
X8247D01*
X8639Y12737D02*
Y12637D01*
Y12737D02*
X8682D01*
X8696Y12732D01*
X8701Y12727D01*
X8706Y12718D01*
Y12708D01*
X8701Y12699D01*
X8696Y12694D01*
X8682Y12689D01*
X8639D01*
X8673D02*
X8706Y12637D01*
X8752Y12703D02*
X8743Y12699D01*
X8733Y12689D01*
X8728Y12675D01*
Y12665D01*
X8733Y12651D01*
X8743Y12641D01*
X8752Y12637D01*
X8766D01*
X8776Y12641D01*
X8785Y12651D01*
X8790Y12665D01*
Y12675D01*
X8785Y12689D01*
X8776Y12699D01*
X8766Y12703D01*
X8752D01*
X8812D02*
Y12656D01*
X8817Y12641D01*
X8826Y12637D01*
X8841D01*
X8850Y12641D01*
X8864Y12656D01*
Y12703D02*
Y12637D01*
X8891Y12703D02*
Y12637D01*
Y12684D02*
X8905Y12699D01*
X8914Y12703D01*
X8929D01*
X8938Y12699D01*
X8943Y12684D01*
Y12637D01*
X9026Y12737D02*
Y12637D01*
Y12689D02*
X9017Y12699D01*
X9007Y12703D01*
X8993D01*
X8983Y12699D01*
X8974Y12689D01*
X8969Y12675D01*
Y12665D01*
X8974Y12651D01*
X8983Y12641D01*
X8993Y12637D01*
X9007D01*
X9017Y12641D01*
X9026Y12651D01*
X5191Y12518D02*
X5200Y12522D01*
X5214Y12537D01*
Y12437D01*
X5312Y12537D02*
X5264Y12470D01*
X5335D01*
X5312Y12537D02*
Y12437D01*
X6137Y12537D02*
X6189D01*
X6160Y12499D01*
X6175D01*
X6184Y12494D01*
X6189Y12489D01*
X6194Y12475D01*
Y12465D01*
X6189Y12451D01*
X6179Y12441D01*
X6165Y12437D01*
X6151D01*
X6137Y12441D01*
X6132Y12446D01*
X6127Y12456D01*
X6245Y12537D02*
X6230Y12532D01*
X6221Y12518D01*
X6216Y12494D01*
Y12479D01*
X6221Y12456D01*
X6230Y12441D01*
X6245Y12437D01*
X6254D01*
X6268Y12441D01*
X6278Y12456D01*
X6283Y12479D01*
Y12494D01*
X6278Y12518D01*
X6268Y12532D01*
X6254Y12537D01*
X6245D01*
X6305Y12503D02*
Y12437D01*
Y12484D02*
X6319Y12499D01*
X6329Y12503D01*
X6343D01*
X6353Y12499D01*
X6357Y12484D01*
Y12437D01*
Y12484D02*
X6372Y12499D01*
X6381Y12503D01*
X6396D01*
X6405Y12499D01*
X6410Y12484D01*
Y12437D01*
X6451Y12537D02*
X6455Y12532D01*
X6460Y12537D01*
X6455Y12541D01*
X6451Y12537D01*
X6455Y12503D02*
Y12437D01*
X6478Y12537D02*
Y12437D01*
X6611Y12556D02*
X6601Y12546D01*
X6592Y12532D01*
X6582Y12513D01*
X6577Y12489D01*
Y12470D01*
X6582Y12446D01*
X6592Y12427D01*
X6601Y12413D01*
X6611Y12403D01*
X6601Y12546D02*
X6592Y12527D01*
X6587Y12513D01*
X6582Y12489D01*
Y12470D01*
X6587Y12446D01*
X6592Y12432D01*
X6601Y12413D01*
X6658Y12537D02*
X6644Y12532D01*
X6634Y12518D01*
X6630Y12494D01*
Y12479D01*
X6634Y12456D01*
X6644Y12441D01*
X6658Y12437D01*
X6668D01*
X6682Y12441D01*
X6692Y12456D01*
X6696Y12479D01*
Y12494D01*
X6692Y12518D01*
X6682Y12532D01*
X6668Y12537D01*
X6658D01*
X6724Y12446D02*
X6719Y12441D01*
X6724Y12437D01*
X6728Y12441D01*
X6724Y12446D01*
X6817Y12537D02*
X6769Y12437D01*
X6750Y12537D02*
X6817D01*
X6896Y12522D02*
X6892Y12532D01*
X6877Y12537D01*
X6868D01*
X6853Y12532D01*
X6844Y12518D01*
X6839Y12494D01*
Y12470D01*
X6844Y12451D01*
X6853Y12441D01*
X6868Y12437D01*
X6873D01*
X6887Y12441D01*
X6896Y12451D01*
X6901Y12465D01*
Y12470D01*
X6896Y12484D01*
X6887Y12494D01*
X6873Y12499D01*
X6868D01*
X6853Y12494D01*
X6844Y12484D01*
X6839Y12470D01*
X6928Y12513D02*
Y12518D01*
X6933Y12527D01*
X6937Y12532D01*
X6947Y12537D01*
X6966D01*
X6975Y12532D01*
X6980Y12527D01*
X6985Y12518D01*
Y12508D01*
X6980Y12499D01*
X6971Y12484D01*
X6923Y12437D01*
X6990D01*
X7012Y12503D02*
Y12437D01*
Y12484D02*
X7026Y12499D01*
X7036Y12503D01*
X7050D01*
X7060Y12499D01*
X7064Y12484D01*
Y12437D01*
Y12484D02*
X7079Y12499D01*
X7088Y12503D01*
X7102D01*
X7112Y12499D01*
X7117Y12484D01*
Y12437D01*
X7148Y12503D02*
Y12437D01*
Y12484D02*
X7162Y12499D01*
X7172Y12503D01*
X7186D01*
X7196Y12499D01*
X7201Y12484D01*
Y12437D01*
Y12484D02*
X7215Y12499D01*
X7224Y12503D01*
X7239D01*
X7248Y12499D01*
X7253Y12484D01*
Y12437D01*
X7284Y12556D02*
X7294Y12546D01*
X7303Y12532D01*
X7313Y12513D01*
X7318Y12489D01*
Y12470D01*
X7313Y12446D01*
X7303Y12427D01*
X7294Y12413D01*
X7284Y12403D01*
X7294Y12546D02*
X7303Y12527D01*
X7308Y12513D01*
X7313Y12489D01*
Y12470D01*
X7308Y12446D01*
X7303Y12432D01*
X7294Y12413D01*
X8013Y12484D02*
X8056D01*
X8070Y12489D01*
X8075Y12494D01*
X8080Y12503D01*
Y12518D01*
X8075Y12527D01*
X8070Y12532D01*
X8056Y12537D01*
X8013D01*
Y12437D01*
X8135Y12537D02*
Y12437D01*
X8102Y12537D02*
X8169D01*
X8181D02*
Y12437D01*
X8247Y12537D02*
Y12437D01*
X8181Y12489D02*
X8247D01*
X8639Y12537D02*
Y12437D01*
Y12537D02*
X8682D01*
X8696Y12532D01*
X8701Y12527D01*
X8706Y12518D01*
Y12508D01*
X8701Y12499D01*
X8696Y12494D01*
X8682Y12489D01*
X8639D01*
X8673D02*
X8706Y12437D01*
X8752Y12503D02*
X8743Y12499D01*
X8733Y12489D01*
X8728Y12475D01*
Y12465D01*
X8733Y12451D01*
X8743Y12441D01*
X8752Y12437D01*
X8766D01*
X8776Y12441D01*
X8785Y12451D01*
X8790Y12465D01*
Y12475D01*
X8785Y12489D01*
X8776Y12499D01*
X8766Y12503D01*
X8752D01*
X8812D02*
Y12456D01*
X8817Y12441D01*
X8826Y12437D01*
X8841D01*
X8850Y12441D01*
X8864Y12456D01*
Y12503D02*
Y12437D01*
X8891Y12503D02*
Y12437D01*
Y12484D02*
X8905Y12499D01*
X8914Y12503D01*
X8929D01*
X8938Y12499D01*
X8943Y12484D01*
Y12437D01*
X9026Y12537D02*
Y12437D01*
Y12489D02*
X9017Y12499D01*
X9007Y12503D01*
X8993D01*
X8983Y12499D01*
X8974Y12489D01*
X8969Y12475D01*
Y12465D01*
X8974Y12451D01*
X8983Y12441D01*
X8993Y12437D01*
X9007D01*
X9017Y12441D01*
X9026Y12451D01*
X5195Y12313D02*
Y12318D01*
X5200Y12327D01*
X5205Y12332D01*
X5214Y12337D01*
X5233D01*
X5243Y12332D01*
X5248Y12327D01*
X5252Y12318D01*
Y12308D01*
X5248Y12299D01*
X5238Y12284D01*
X5191Y12237D01*
X5257D01*
X5284Y12313D02*
Y12318D01*
X5289Y12327D01*
X5294Y12332D01*
X5303Y12337D01*
X5322D01*
X5332Y12332D01*
X5337Y12327D01*
X5342Y12318D01*
Y12308D01*
X5337Y12299D01*
X5327Y12284D01*
X5280Y12237D01*
X5346D01*
X6137Y12337D02*
X6189D01*
X6160Y12299D01*
X6175D01*
X6184Y12294D01*
X6189Y12289D01*
X6194Y12275D01*
Y12265D01*
X6189Y12251D01*
X6179Y12241D01*
X6165Y12237D01*
X6151D01*
X6137Y12241D01*
X6132Y12246D01*
X6127Y12256D01*
X6273Y12337D02*
X6226D01*
X6221Y12294D01*
X6226Y12299D01*
X6240Y12303D01*
X6254D01*
X6268Y12299D01*
X6278Y12289D01*
X6283Y12275D01*
Y12265D01*
X6278Y12251D01*
X6268Y12241D01*
X6254Y12237D01*
X6240D01*
X6226Y12241D01*
X6221Y12246D01*
X6216Y12256D01*
X6310Y12246D02*
X6305Y12241D01*
X6310Y12237D01*
X6315Y12241D01*
X6310Y12246D01*
X6384Y12337D02*
X6336Y12270D01*
X6408D01*
X6384Y12337D02*
Y12237D01*
X6435Y12337D02*
X6487D01*
X6459Y12299D01*
X6473D01*
X6483Y12294D01*
X6487Y12289D01*
X6492Y12275D01*
Y12265D01*
X6487Y12251D01*
X6478Y12241D01*
X6464Y12237D01*
X6449D01*
X6435Y12241D01*
X6430Y12246D01*
X6425Y12256D01*
X6524Y12337D02*
X6576D01*
X6548Y12299D01*
X6562D01*
X6572Y12294D01*
X6576Y12289D01*
X6581Y12275D01*
Y12265D01*
X6576Y12251D01*
X6567Y12241D01*
X6553Y12237D01*
X6538D01*
X6524Y12241D01*
X6519Y12246D01*
X6515Y12256D01*
X6604Y12303D02*
Y12237D01*
Y12284D02*
X6618Y12299D01*
X6627Y12303D01*
X6642D01*
X6651Y12299D01*
X6656Y12284D01*
Y12237D01*
Y12284D02*
X6670Y12299D01*
X6680Y12303D01*
X6694D01*
X6704Y12299D01*
X6708Y12284D01*
Y12237D01*
X6749Y12337D02*
X6754Y12332D01*
X6759Y12337D01*
X6754Y12341D01*
X6749Y12337D01*
X6754Y12303D02*
Y12237D01*
X6776Y12337D02*
Y12237D01*
X6909Y12356D02*
X6900Y12346D01*
X6890Y12332D01*
X6881Y12313D01*
X6876Y12289D01*
Y12270D01*
X6881Y12246D01*
X6890Y12227D01*
X6900Y12213D01*
X6909Y12203D01*
X6900Y12346D02*
X6890Y12327D01*
X6885Y12313D01*
X6881Y12289D01*
Y12270D01*
X6885Y12246D01*
X6890Y12232D01*
X6900Y12213D01*
X6957Y12337D02*
X6943Y12332D01*
X6933Y12318D01*
X6928Y12294D01*
Y12279D01*
X6933Y12256D01*
X6943Y12241D01*
X6957Y12237D01*
X6966D01*
X6981Y12241D01*
X6990Y12256D01*
X6995Y12279D01*
Y12294D01*
X6990Y12318D01*
X6981Y12332D01*
X6966Y12337D01*
X6957D01*
X7022Y12246D02*
X7017Y12241D01*
X7022Y12237D01*
X7027Y12241D01*
X7022Y12246D01*
X7111Y12303D02*
X7106Y12289D01*
X7096Y12279D01*
X7082Y12275D01*
X7077D01*
X7063Y12279D01*
X7053Y12289D01*
X7049Y12303D01*
Y12308D01*
X7053Y12322D01*
X7063Y12332D01*
X7077Y12337D01*
X7082D01*
X7096Y12332D01*
X7106Y12322D01*
X7111Y12303D01*
Y12279D01*
X7106Y12256D01*
X7096Y12241D01*
X7082Y12237D01*
X7072D01*
X7058Y12241D01*
X7053Y12251D01*
X7138Y12303D02*
Y12237D01*
Y12284D02*
X7152Y12299D01*
X7162Y12303D01*
X7176D01*
X7185Y12299D01*
X7190Y12284D01*
Y12237D01*
Y12284D02*
X7204Y12299D01*
X7214Y12303D01*
X7228D01*
X7238Y12299D01*
X7242Y12284D01*
Y12237D01*
X7274Y12303D02*
Y12237D01*
Y12284D02*
X7288Y12299D01*
X7298Y12303D01*
X7312D01*
X7321Y12299D01*
X7326Y12284D01*
Y12237D01*
Y12284D02*
X7341Y12299D01*
X7350Y12303D01*
X7364D01*
X7374Y12299D01*
X7379Y12284D01*
Y12237D01*
X7410Y12356D02*
X7420Y12346D01*
X7429Y12332D01*
X7439Y12313D01*
X7443Y12289D01*
Y12270D01*
X7439Y12246D01*
X7429Y12227D01*
X7420Y12213D01*
X7410Y12203D01*
X7420Y12346D02*
X7429Y12327D01*
X7434Y12313D01*
X7439Y12289D01*
Y12270D01*
X7434Y12246D01*
X7429Y12232D01*
X7420Y12213D01*
X8013Y12284D02*
X8056D01*
X8070Y12289D01*
X8075Y12294D01*
X8080Y12303D01*
Y12318D01*
X8075Y12327D01*
X8070Y12332D01*
X8056Y12337D01*
X8013D01*
Y12237D01*
X8135Y12337D02*
Y12237D01*
X8102Y12337D02*
X8169D01*
X8181D02*
Y12237D01*
X8247Y12337D02*
Y12237D01*
X8181Y12289D02*
X8247D01*
X8639Y12337D02*
Y12237D01*
Y12337D02*
X8682D01*
X8696Y12332D01*
X8701Y12327D01*
X8706Y12318D01*
Y12308D01*
X8701Y12299D01*
X8696Y12294D01*
X8682Y12289D01*
X8639D01*
X8673D02*
X8706Y12237D01*
X8752Y12303D02*
X8743Y12299D01*
X8733Y12289D01*
X8728Y12275D01*
Y12265D01*
X8733Y12251D01*
X8743Y12241D01*
X8752Y12237D01*
X8766D01*
X8776Y12241D01*
X8785Y12251D01*
X8790Y12265D01*
Y12275D01*
X8785Y12289D01*
X8776Y12299D01*
X8766Y12303D01*
X8752D01*
X8812D02*
Y12256D01*
X8817Y12241D01*
X8826Y12237D01*
X8841D01*
X8850Y12241D01*
X8864Y12256D01*
Y12303D02*
Y12237D01*
X8891Y12303D02*
Y12237D01*
Y12284D02*
X8905Y12299D01*
X8914Y12303D01*
X8929D01*
X8938Y12299D01*
X8943Y12284D01*
Y12237D01*
X9026Y12337D02*
Y12237D01*
Y12289D02*
X9017Y12299D01*
X9007Y12303D01*
X8993D01*
X8983Y12299D01*
X8974Y12289D01*
X8969Y12275D01*
Y12265D01*
X8974Y12251D01*
X8983Y12241D01*
X8993Y12237D01*
X9007D01*
X9017Y12241D01*
X9026Y12251D01*
X5238Y12137D02*
X5191Y12070D01*
X5262D01*
X5238Y12137D02*
Y12037D01*
X6137Y12137D02*
X6189D01*
X6160Y12099D01*
X6175D01*
X6184Y12094D01*
X6189Y12089D01*
X6194Y12075D01*
Y12065D01*
X6189Y12051D01*
X6179Y12041D01*
X6165Y12037D01*
X6151D01*
X6137Y12041D01*
X6132Y12046D01*
X6127Y12056D01*
X6273Y12122D02*
X6268Y12132D01*
X6254Y12137D01*
X6245D01*
X6230Y12132D01*
X6221Y12118D01*
X6216Y12094D01*
Y12070D01*
X6221Y12051D01*
X6230Y12041D01*
X6245Y12037D01*
X6249D01*
X6264Y12041D01*
X6273Y12051D01*
X6278Y12065D01*
Y12070D01*
X6273Y12084D01*
X6264Y12094D01*
X6249Y12099D01*
X6245D01*
X6230Y12094D01*
X6221Y12084D01*
X6216Y12070D01*
X6305Y12046D02*
X6300Y12041D01*
X6305Y12037D01*
X6309Y12041D01*
X6305Y12046D01*
X6336Y12113D02*
Y12118D01*
X6341Y12127D01*
X6346Y12132D01*
X6355Y12137D01*
X6374D01*
X6384Y12132D01*
X6388Y12127D01*
X6393Y12118D01*
Y12108D01*
X6388Y12099D01*
X6379Y12084D01*
X6331Y12037D01*
X6398D01*
X6425Y12113D02*
Y12118D01*
X6430Y12127D01*
X6435Y12132D01*
X6444Y12137D01*
X6463D01*
X6473Y12132D01*
X6477Y12127D01*
X6482Y12118D01*
Y12108D01*
X6477Y12099D01*
X6468Y12084D01*
X6420Y12037D01*
X6487D01*
X6509Y12118D02*
X6519Y12122D01*
X6533Y12137D01*
Y12037D01*
X6583Y12103D02*
Y12037D01*
Y12084D02*
X6597Y12099D01*
X6606Y12103D01*
X6621D01*
X6630Y12099D01*
X6635Y12084D01*
Y12037D01*
Y12084D02*
X6649Y12099D01*
X6659Y12103D01*
X6673D01*
X6683Y12099D01*
X6687Y12084D01*
Y12037D01*
X6728Y12137D02*
X6733Y12132D01*
X6738Y12137D01*
X6733Y12141D01*
X6728Y12137D01*
X6733Y12103D02*
Y12037D01*
X6755Y12137D02*
Y12037D01*
X6888Y12156D02*
X6879Y12146D01*
X6869Y12132D01*
X6860Y12113D01*
X6855Y12089D01*
Y12070D01*
X6860Y12046D01*
X6869Y12027D01*
X6879Y12013D01*
X6888Y12003D01*
X6879Y12146D02*
X6869Y12127D01*
X6864Y12113D01*
X6860Y12089D01*
Y12070D01*
X6864Y12046D01*
X6869Y12032D01*
X6879Y12013D01*
X6936Y12137D02*
X6922Y12132D01*
X6912Y12118D01*
X6907Y12094D01*
Y12079D01*
X6912Y12056D01*
X6922Y12041D01*
X6936Y12037D01*
X6945D01*
X6960Y12041D01*
X6969Y12056D01*
X6974Y12079D01*
Y12094D01*
X6969Y12118D01*
X6960Y12132D01*
X6945Y12137D01*
X6936D01*
X7001Y12046D02*
X6996Y12041D01*
X7001Y12037D01*
X7006Y12041D01*
X7001Y12046D01*
X7090Y12103D02*
X7085Y12089D01*
X7075Y12079D01*
X7061Y12075D01*
X7056D01*
X7042Y12079D01*
X7033Y12089D01*
X7028Y12103D01*
Y12108D01*
X7033Y12122D01*
X7042Y12132D01*
X7056Y12137D01*
X7061D01*
X7075Y12132D01*
X7085Y12122D01*
X7090Y12103D01*
Y12079D01*
X7085Y12056D01*
X7075Y12041D01*
X7061Y12037D01*
X7052D01*
X7037Y12041D01*
X7033Y12051D01*
X7122Y12113D02*
Y12118D01*
X7126Y12127D01*
X7131Y12132D01*
X7141Y12137D01*
X7160D01*
X7169Y12132D01*
X7174Y12127D01*
X7179Y12118D01*
Y12108D01*
X7174Y12099D01*
X7164Y12084D01*
X7117Y12037D01*
X7183D01*
X7206Y12103D02*
Y12037D01*
Y12084D02*
X7220Y12099D01*
X7230Y12103D01*
X7244D01*
X7253Y12099D01*
X7258Y12084D01*
Y12037D01*
Y12084D02*
X7272Y12099D01*
X7282Y12103D01*
X7296D01*
X7306Y12099D01*
X7311Y12084D01*
Y12037D01*
X7342Y12103D02*
Y12037D01*
Y12084D02*
X7356Y12099D01*
X7366Y12103D01*
X7380D01*
X7390Y12099D01*
X7394Y12084D01*
Y12037D01*
Y12084D02*
X7409Y12099D01*
X7418Y12103D01*
X7432D01*
X7442Y12099D01*
X7447Y12084D01*
Y12037D01*
X7478Y12156D02*
X7488Y12146D01*
X7497Y12132D01*
X7507Y12113D01*
X7511Y12089D01*
Y12070D01*
X7507Y12046D01*
X7497Y12027D01*
X7488Y12013D01*
X7478Y12003D01*
X7488Y12146D02*
X7497Y12127D01*
X7502Y12113D01*
X7507Y12089D01*
Y12070D01*
X7502Y12046D01*
X7497Y12032D01*
X7488Y12013D01*
X8013Y12084D02*
X8056D01*
X8070Y12089D01*
X8075Y12094D01*
X8080Y12103D01*
Y12118D01*
X8075Y12127D01*
X8070Y12132D01*
X8056Y12137D01*
X8013D01*
Y12037D01*
X8135Y12137D02*
Y12037D01*
X8102Y12137D02*
X8169D01*
X8181D02*
Y12037D01*
X8247Y12137D02*
Y12037D01*
X8181Y12089D02*
X8247D01*
X8639Y12137D02*
Y12037D01*
Y12137D02*
X8682D01*
X8696Y12132D01*
X8701Y12127D01*
X8706Y12118D01*
Y12108D01*
X8701Y12099D01*
X8696Y12094D01*
X8682Y12089D01*
X8639D01*
X8673D02*
X8706Y12037D01*
X8752Y12103D02*
X8743Y12099D01*
X8733Y12089D01*
X8728Y12075D01*
Y12065D01*
X8733Y12051D01*
X8743Y12041D01*
X8752Y12037D01*
X8766D01*
X8776Y12041D01*
X8785Y12051D01*
X8790Y12065D01*
Y12075D01*
X8785Y12089D01*
X8776Y12099D01*
X8766Y12103D01*
X8752D01*
X8812D02*
Y12056D01*
X8817Y12041D01*
X8826Y12037D01*
X8841D01*
X8850Y12041D01*
X8864Y12056D01*
Y12103D02*
Y12037D01*
X8891Y12103D02*
Y12037D01*
Y12084D02*
X8905Y12099D01*
X8914Y12103D01*
X8929D01*
X8938Y12099D01*
X8943Y12084D01*
Y12037D01*
X9026Y12137D02*
Y12037D01*
Y12089D02*
X9017Y12099D01*
X9007Y12103D01*
X8993D01*
X8983Y12099D01*
X8974Y12089D01*
X8969Y12075D01*
Y12065D01*
X8974Y12051D01*
X8983Y12041D01*
X8993Y12037D01*
X9007D01*
X9017Y12041D01*
X9026Y12051D01*
X5238Y11937D02*
X5191Y11870D01*
X5262D01*
X5238Y11937D02*
Y11837D01*
X6175Y11937D02*
X6127Y11870D01*
X6198D01*
X6175Y11937D02*
Y11837D01*
X6245Y11937D02*
X6230Y11932D01*
X6221Y11918D01*
X6216Y11894D01*
Y11879D01*
X6221Y11856D01*
X6230Y11841D01*
X6245Y11837D01*
X6254D01*
X6268Y11841D01*
X6278Y11856D01*
X6283Y11879D01*
Y11894D01*
X6278Y11918D01*
X6268Y11932D01*
X6254Y11937D01*
X6245D01*
X6305Y11903D02*
Y11837D01*
Y11884D02*
X6319Y11899D01*
X6329Y11903D01*
X6343D01*
X6353Y11899D01*
X6357Y11884D01*
Y11837D01*
Y11884D02*
X6372Y11899D01*
X6381Y11903D01*
X6396D01*
X6405Y11899D01*
X6410Y11884D01*
Y11837D01*
X6451Y11937D02*
X6455Y11932D01*
X6460Y11937D01*
X6455Y11941D01*
X6451Y11937D01*
X6455Y11903D02*
Y11837D01*
X6478Y11937D02*
Y11837D01*
X6611Y11956D02*
X6601Y11946D01*
X6592Y11932D01*
X6582Y11913D01*
X6577Y11889D01*
Y11870D01*
X6582Y11846D01*
X6592Y11827D01*
X6601Y11813D01*
X6611Y11803D01*
X6601Y11946D02*
X6592Y11927D01*
X6587Y11913D01*
X6582Y11889D01*
Y11870D01*
X6587Y11846D01*
X6592Y11832D01*
X6601Y11813D01*
X6630Y11918D02*
X6639Y11922D01*
X6654Y11937D01*
Y11837D01*
X6708Y11846D02*
X6703Y11841D01*
X6708Y11837D01*
X6713Y11841D01*
X6708Y11846D01*
X6763Y11937D02*
X6749Y11932D01*
X6739Y11918D01*
X6734Y11894D01*
Y11879D01*
X6739Y11856D01*
X6749Y11841D01*
X6763Y11837D01*
X6773D01*
X6787Y11841D01*
X6796Y11856D01*
X6801Y11879D01*
Y11894D01*
X6796Y11918D01*
X6787Y11932D01*
X6773Y11937D01*
X6763D01*
X6824Y11918D02*
X6833Y11922D01*
X6847Y11937D01*
Y11837D01*
X6954Y11922D02*
X6949Y11932D01*
X6935Y11937D01*
X6925D01*
X6911Y11932D01*
X6902Y11918D01*
X6897Y11894D01*
Y11870D01*
X6902Y11851D01*
X6911Y11841D01*
X6925Y11837D01*
X6930D01*
X6944Y11841D01*
X6954Y11851D01*
X6959Y11865D01*
Y11870D01*
X6954Y11884D01*
X6944Y11894D01*
X6930Y11899D01*
X6925D01*
X6911Y11894D01*
X6902Y11884D01*
X6897Y11870D01*
X6981Y11903D02*
Y11837D01*
Y11884D02*
X6995Y11899D01*
X7004Y11903D01*
X7019D01*
X7028Y11899D01*
X7033Y11884D01*
Y11837D01*
Y11884D02*
X7047Y11899D01*
X7057Y11903D01*
X7071D01*
X7081Y11899D01*
X7085Y11884D01*
Y11837D01*
X7117Y11903D02*
Y11837D01*
Y11884D02*
X7131Y11899D01*
X7141Y11903D01*
X7155D01*
X7164Y11899D01*
X7169Y11884D01*
Y11837D01*
Y11884D02*
X7183Y11899D01*
X7193Y11903D01*
X7207D01*
X7217Y11899D01*
X7222Y11884D01*
Y11837D01*
X7253Y11956D02*
X7262Y11946D01*
X7272Y11932D01*
X7282Y11913D01*
X7286Y11889D01*
Y11870D01*
X7282Y11846D01*
X7272Y11827D01*
X7262Y11813D01*
X7253Y11803D01*
X7262Y11946D02*
X7272Y11927D01*
X7277Y11913D01*
X7282Y11889D01*
Y11870D01*
X7277Y11846D01*
X7272Y11832D01*
X7262Y11813D01*
X8013Y11884D02*
X8056D01*
X8070Y11889D01*
X8075Y11894D01*
X8080Y11903D01*
Y11918D01*
X8075Y11927D01*
X8070Y11932D01*
X8056Y11937D01*
X8013D01*
Y11837D01*
X8135Y11937D02*
Y11837D01*
X8102Y11937D02*
X8169D01*
X8181D02*
Y11837D01*
X8247Y11937D02*
Y11837D01*
X8181Y11889D02*
X8247D01*
X8639Y11937D02*
Y11837D01*
Y11937D02*
X8682D01*
X8696Y11932D01*
X8701Y11927D01*
X8706Y11918D01*
Y11908D01*
X8701Y11899D01*
X8696Y11894D01*
X8682Y11889D01*
X8639D01*
X8673D02*
X8706Y11837D01*
X8752Y11903D02*
X8743Y11899D01*
X8733Y11889D01*
X8728Y11875D01*
Y11865D01*
X8733Y11851D01*
X8743Y11841D01*
X8752Y11837D01*
X8766D01*
X8776Y11841D01*
X8785Y11851D01*
X8790Y11865D01*
Y11875D01*
X8785Y11889D01*
X8776Y11899D01*
X8766Y11903D01*
X8752D01*
X8812D02*
Y11856D01*
X8817Y11841D01*
X8826Y11837D01*
X8841D01*
X8850Y11841D01*
X8864Y11856D01*
Y11903D02*
Y11837D01*
X8891Y11903D02*
Y11837D01*
Y11884D02*
X8905Y11899D01*
X8914Y11903D01*
X8929D01*
X8938Y11899D01*
X8943Y11884D01*
Y11837D01*
X9026Y11937D02*
Y11837D01*
Y11889D02*
X9017Y11899D01*
X9007Y11903D01*
X8993D01*
X8983Y11899D01*
X8974Y11889D01*
X8969Y11875D01*
Y11865D01*
X8974Y11851D01*
X8983Y11841D01*
X8993Y11837D01*
X9007D01*
X9017Y11841D01*
X9026Y11851D01*
X5238Y11737D02*
X5191Y11670D01*
X5262D01*
X5238Y11737D02*
Y11637D01*
X6175Y11737D02*
X6127Y11670D01*
X6198D01*
X6175Y11737D02*
Y11637D01*
X6245Y11737D02*
X6230Y11732D01*
X6221Y11718D01*
X6216Y11694D01*
Y11679D01*
X6221Y11656D01*
X6230Y11641D01*
X6245Y11637D01*
X6254D01*
X6268Y11641D01*
X6278Y11656D01*
X6283Y11679D01*
Y11694D01*
X6278Y11718D01*
X6268Y11732D01*
X6254Y11737D01*
X6245D01*
X6310Y11646D02*
X6305Y11641D01*
X6310Y11637D01*
X6315Y11641D01*
X6310Y11646D01*
X6336Y11718D02*
X6346Y11722D01*
X6360Y11737D01*
Y11637D01*
X6467Y11737D02*
X6419D01*
X6415Y11694D01*
X6419Y11699D01*
X6434Y11703D01*
X6448D01*
X6462Y11699D01*
X6472Y11689D01*
X6476Y11675D01*
Y11665D01*
X6472Y11651D01*
X6462Y11641D01*
X6448Y11637D01*
X6434D01*
X6419Y11641D01*
X6415Y11646D01*
X6410Y11656D01*
X6565Y11737D02*
X6518Y11637D01*
X6499Y11737D02*
X6565D01*
X6588Y11703D02*
Y11637D01*
Y11684D02*
X6602Y11699D01*
X6612Y11703D01*
X6626D01*
X6635Y11699D01*
X6640Y11684D01*
Y11637D01*
Y11684D02*
X6654Y11699D01*
X6664Y11703D01*
X6678D01*
X6688Y11699D01*
X6693Y11684D01*
Y11637D01*
X6734Y11737D02*
X6738Y11732D01*
X6743Y11737D01*
X6738Y11741D01*
X6734Y11737D01*
X6738Y11703D02*
Y11637D01*
X6761Y11737D02*
Y11637D01*
X6893Y11756D02*
X6884Y11746D01*
X6874Y11732D01*
X6865Y11713D01*
X6860Y11689D01*
Y11670D01*
X6865Y11646D01*
X6874Y11627D01*
X6884Y11613D01*
X6893Y11603D01*
X6884Y11746D02*
X6874Y11727D01*
X6870Y11713D01*
X6865Y11689D01*
Y11670D01*
X6870Y11646D01*
X6874Y11632D01*
X6884Y11613D01*
X6913Y11718D02*
X6922Y11722D01*
X6936Y11737D01*
Y11637D01*
X6991Y11646D02*
X6986Y11641D01*
X6991Y11637D01*
X6995Y11641D01*
X6991Y11646D01*
X7046Y11737D02*
X7032Y11732D01*
X7022Y11718D01*
X7017Y11694D01*
Y11679D01*
X7022Y11656D01*
X7032Y11641D01*
X7046Y11637D01*
X7055D01*
X7070Y11641D01*
X7079Y11656D01*
X7084Y11679D01*
Y11694D01*
X7079Y11718D01*
X7070Y11732D01*
X7055Y11737D01*
X7046D01*
X7111Y11713D02*
Y11718D01*
X7116Y11727D01*
X7121Y11732D01*
X7130Y11737D01*
X7149D01*
X7159Y11732D01*
X7163Y11727D01*
X7168Y11718D01*
Y11708D01*
X7163Y11699D01*
X7154Y11684D01*
X7106Y11637D01*
X7173D01*
X7195Y11703D02*
Y11637D01*
Y11684D02*
X7210Y11699D01*
X7219Y11703D01*
X7233D01*
X7243Y11699D01*
X7248Y11684D01*
Y11637D01*
Y11684D02*
X7262Y11699D01*
X7272Y11703D01*
X7286D01*
X7295Y11699D01*
X7300Y11684D01*
Y11637D01*
X7331Y11703D02*
Y11637D01*
Y11684D02*
X7346Y11699D01*
X7355Y11703D01*
X7370D01*
X7379Y11699D01*
X7384Y11684D01*
Y11637D01*
Y11684D02*
X7398Y11699D01*
X7408Y11703D01*
X7422D01*
X7431Y11699D01*
X7436Y11684D01*
Y11637D01*
X7468Y11756D02*
X7477Y11746D01*
X7487Y11732D01*
X7496Y11713D01*
X7501Y11689D01*
Y11670D01*
X7496Y11646D01*
X7487Y11627D01*
X7477Y11613D01*
X7468Y11603D01*
X7477Y11746D02*
X7487Y11727D01*
X7491Y11713D01*
X7496Y11689D01*
Y11670D01*
X7491Y11646D01*
X7487Y11632D01*
X7477Y11613D01*
X8013Y11737D02*
Y11637D01*
Y11737D02*
X8080Y11637D01*
Y11737D02*
Y11637D01*
X8107Y11684D02*
X8150D01*
X8164Y11689D01*
X8169Y11694D01*
X8174Y11703D01*
Y11718D01*
X8169Y11727D01*
X8164Y11732D01*
X8150Y11737D01*
X8107D01*
Y11637D01*
X8230Y11737D02*
Y11637D01*
X8196Y11737D02*
X8263D01*
X8275D02*
Y11637D01*
X8342Y11737D02*
Y11637D01*
X8275Y11689D02*
X8342D01*
X8639Y11737D02*
Y11637D01*
Y11737D02*
X8682D01*
X8696Y11732D01*
X8701Y11727D01*
X8706Y11718D01*
Y11708D01*
X8701Y11699D01*
X8696Y11694D01*
X8682Y11689D01*
X8639D01*
X8673D02*
X8706Y11637D01*
X8752Y11703D02*
X8743Y11699D01*
X8733Y11689D01*
X8728Y11675D01*
Y11665D01*
X8733Y11651D01*
X8743Y11641D01*
X8752Y11637D01*
X8766D01*
X8776Y11641D01*
X8785Y11651D01*
X8790Y11665D01*
Y11675D01*
X8785Y11689D01*
X8776Y11699D01*
X8766Y11703D01*
X8752D01*
X8812D02*
Y11656D01*
X8817Y11641D01*
X8826Y11637D01*
X8841D01*
X8850Y11641D01*
X8864Y11656D01*
Y11703D02*
Y11637D01*
X8891Y11703D02*
Y11637D01*
Y11684D02*
X8905Y11699D01*
X8914Y11703D01*
X8929D01*
X8938Y11699D01*
X8943Y11684D01*
Y11637D01*
X9026Y11737D02*
Y11637D01*
Y11689D02*
X9017Y11699D01*
X9007Y11703D01*
X8993D01*
X8983Y11699D01*
X8974Y11689D01*
X8969Y11675D01*
Y11665D01*
X8974Y11651D01*
X8983Y11641D01*
X8993Y11637D01*
X9007D01*
X9017Y11641D01*
X9026Y11651D01*
X5191Y11518D02*
X5200Y11522D01*
X5214Y11537D01*
Y11437D01*
X5292Y11537D02*
X5278Y11532D01*
X5269Y11518D01*
X5264Y11494D01*
Y11479D01*
X5269Y11456D01*
X5278Y11441D01*
X5292Y11437D01*
X5302D01*
X5316Y11441D01*
X5326Y11456D01*
X5331Y11479D01*
Y11494D01*
X5326Y11518D01*
X5316Y11532D01*
X5302Y11537D01*
X5292D01*
X6175D02*
X6127Y11470D01*
X6198D01*
X6175Y11537D02*
Y11437D01*
X6283Y11537D02*
X6235Y11437D01*
X6216Y11537D02*
X6283D01*
X6310Y11446D02*
X6305Y11441D01*
X6310Y11437D01*
X6315Y11441D01*
X6310Y11446D01*
X6341Y11513D02*
Y11518D01*
X6346Y11527D01*
X6351Y11532D01*
X6360Y11537D01*
X6379D01*
X6389Y11532D01*
X6394Y11527D01*
X6398Y11518D01*
Y11508D01*
X6394Y11499D01*
X6384Y11484D01*
X6336Y11437D01*
X6403D01*
X6473Y11537D02*
X6425Y11470D01*
X6497D01*
X6473Y11537D02*
Y11437D01*
X6562Y11537D02*
X6515Y11470D01*
X6586D01*
X6562Y11537D02*
Y11437D01*
X6604Y11503D02*
Y11437D01*
Y11484D02*
X6618Y11499D01*
X6627Y11503D01*
X6642D01*
X6651Y11499D01*
X6656Y11484D01*
Y11437D01*
Y11484D02*
X6670Y11499D01*
X6680Y11503D01*
X6694D01*
X6704Y11499D01*
X6708Y11484D01*
Y11437D01*
X6749Y11537D02*
X6754Y11532D01*
X6759Y11537D01*
X6754Y11541D01*
X6749Y11537D01*
X6754Y11503D02*
Y11437D01*
X6776Y11537D02*
Y11437D01*
X6909Y11556D02*
X6900Y11546D01*
X6890Y11532D01*
X6881Y11513D01*
X6876Y11489D01*
Y11470D01*
X6881Y11446D01*
X6890Y11427D01*
X6900Y11413D01*
X6909Y11403D01*
X6900Y11546D02*
X6890Y11527D01*
X6885Y11513D01*
X6881Y11489D01*
Y11470D01*
X6885Y11446D01*
X6890Y11432D01*
X6900Y11413D01*
X6928Y11518D02*
X6938Y11522D01*
X6952Y11537D01*
Y11437D01*
X7006Y11446D02*
X7002Y11441D01*
X7006Y11437D01*
X7011Y11441D01*
X7006Y11446D01*
X7038Y11513D02*
Y11518D01*
X7043Y11527D01*
X7047Y11532D01*
X7057Y11537D01*
X7076D01*
X7085Y11532D01*
X7090Y11527D01*
X7095Y11518D01*
Y11508D01*
X7090Y11499D01*
X7081Y11484D01*
X7033Y11437D01*
X7100D01*
X7122Y11503D02*
Y11437D01*
Y11484D02*
X7136Y11499D01*
X7146Y11503D01*
X7160D01*
X7170Y11499D01*
X7174Y11484D01*
Y11437D01*
Y11484D02*
X7189Y11499D01*
X7198Y11503D01*
X7212D01*
X7222Y11499D01*
X7227Y11484D01*
Y11437D01*
X7258Y11503D02*
Y11437D01*
Y11484D02*
X7272Y11499D01*
X7282Y11503D01*
X7296D01*
X7306Y11499D01*
X7311Y11484D01*
Y11437D01*
Y11484D02*
X7325Y11499D01*
X7334Y11503D01*
X7349D01*
X7358Y11499D01*
X7363Y11484D01*
Y11437D01*
X7394Y11556D02*
X7404Y11546D01*
X7413Y11532D01*
X7423Y11513D01*
X7428Y11489D01*
Y11470D01*
X7423Y11446D01*
X7413Y11427D01*
X7404Y11413D01*
X7394Y11403D01*
X7404Y11546D02*
X7413Y11527D01*
X7418Y11513D01*
X7423Y11489D01*
Y11470D01*
X7418Y11446D01*
X7413Y11432D01*
X7404Y11413D01*
X8013Y11484D02*
X8056D01*
X8070Y11489D01*
X8075Y11494D01*
X8080Y11503D01*
Y11518D01*
X8075Y11527D01*
X8070Y11532D01*
X8056Y11537D01*
X8013D01*
Y11437D01*
X8135Y11537D02*
Y11437D01*
X8102Y11537D02*
X8169D01*
X8181D02*
Y11437D01*
X8247Y11537D02*
Y11437D01*
X8181Y11489D02*
X8247D01*
X8639Y11537D02*
Y11437D01*
Y11537D02*
X8682D01*
X8696Y11532D01*
X8701Y11527D01*
X8706Y11518D01*
Y11508D01*
X8701Y11499D01*
X8696Y11494D01*
X8682Y11489D01*
X8639D01*
X8673D02*
X8706Y11437D01*
X8752Y11503D02*
X8743Y11499D01*
X8733Y11489D01*
X8728Y11475D01*
Y11465D01*
X8733Y11451D01*
X8743Y11441D01*
X8752Y11437D01*
X8766D01*
X8776Y11441D01*
X8785Y11451D01*
X8790Y11465D01*
Y11475D01*
X8785Y11489D01*
X8776Y11499D01*
X8766Y11503D01*
X8752D01*
X8812D02*
Y11456D01*
X8817Y11441D01*
X8826Y11437D01*
X8841D01*
X8850Y11441D01*
X8864Y11456D01*
Y11503D02*
Y11437D01*
X8891Y11503D02*
Y11437D01*
Y11484D02*
X8905Y11499D01*
X8914Y11503D01*
X8929D01*
X8938Y11499D01*
X8943Y11484D01*
Y11437D01*
X9026Y11537D02*
Y11437D01*
Y11489D02*
X9017Y11499D01*
X9007Y11503D01*
X8993D01*
X8983Y11499D01*
X8974Y11489D01*
X8969Y11475D01*
Y11465D01*
X8974Y11451D01*
X8983Y11441D01*
X8993Y11437D01*
X9007D01*
X9017Y11441D01*
X9026Y11451D01*
X5195Y11313D02*
Y11318D01*
X5200Y11327D01*
X5205Y11332D01*
X5214Y11337D01*
X5233D01*
X5243Y11332D01*
X5248Y11327D01*
X5252Y11318D01*
Y11308D01*
X5248Y11299D01*
X5238Y11284D01*
X5191Y11237D01*
X5257D01*
X6184Y11337D02*
X6137D01*
X6132Y11294D01*
X6137Y11299D01*
X6151Y11303D01*
X6165D01*
X6179Y11299D01*
X6189Y11289D01*
X6194Y11275D01*
Y11265D01*
X6189Y11251D01*
X6179Y11241D01*
X6165Y11237D01*
X6151D01*
X6137Y11241D01*
X6132Y11246D01*
X6127Y11256D01*
X6245Y11337D02*
X6230Y11332D01*
X6221Y11318D01*
X6216Y11294D01*
Y11279D01*
X6221Y11256D01*
X6230Y11241D01*
X6245Y11237D01*
X6254D01*
X6268Y11241D01*
X6278Y11256D01*
X6283Y11279D01*
Y11294D01*
X6278Y11318D01*
X6268Y11332D01*
X6254Y11337D01*
X6245D01*
X6305Y11303D02*
Y11237D01*
Y11284D02*
X6319Y11299D01*
X6329Y11303D01*
X6343D01*
X6353Y11299D01*
X6357Y11284D01*
Y11237D01*
Y11284D02*
X6372Y11299D01*
X6381Y11303D01*
X6396D01*
X6405Y11299D01*
X6410Y11284D01*
Y11237D01*
X6451Y11337D02*
X6455Y11332D01*
X6460Y11337D01*
X6455Y11341D01*
X6451Y11337D01*
X6455Y11303D02*
Y11237D01*
X6478Y11337D02*
Y11237D01*
X6611Y11356D02*
X6601Y11346D01*
X6592Y11332D01*
X6582Y11313D01*
X6577Y11289D01*
Y11270D01*
X6582Y11246D01*
X6592Y11227D01*
X6601Y11213D01*
X6611Y11203D01*
X6601Y11346D02*
X6592Y11327D01*
X6587Y11313D01*
X6582Y11289D01*
Y11270D01*
X6587Y11246D01*
X6592Y11232D01*
X6601Y11213D01*
X6630Y11318D02*
X6639Y11322D01*
X6654Y11337D01*
Y11237D01*
X6708Y11246D02*
X6703Y11241D01*
X6708Y11237D01*
X6713Y11241D01*
X6708Y11246D01*
X6739Y11313D02*
Y11318D01*
X6744Y11327D01*
X6749Y11332D01*
X6758Y11337D01*
X6777D01*
X6787Y11332D01*
X6792Y11327D01*
X6796Y11318D01*
Y11308D01*
X6792Y11299D01*
X6782Y11284D01*
X6734Y11237D01*
X6801D01*
X6890Y11337D02*
X6843Y11237D01*
X6824Y11337D02*
X6890D01*
X6913Y11303D02*
Y11237D01*
Y11284D02*
X6927Y11299D01*
X6936Y11303D01*
X6951D01*
X6960Y11299D01*
X6965Y11284D01*
Y11237D01*
Y11284D02*
X6979Y11299D01*
X6989Y11303D01*
X7003D01*
X7013Y11299D01*
X7017Y11284D01*
Y11237D01*
X7049Y11303D02*
Y11237D01*
Y11284D02*
X7063Y11299D01*
X7072Y11303D01*
X7087D01*
X7096Y11299D01*
X7101Y11284D01*
Y11237D01*
Y11284D02*
X7115Y11299D01*
X7125Y11303D01*
X7139D01*
X7149Y11299D01*
X7153Y11284D01*
Y11237D01*
X7185Y11356D02*
X7194Y11346D01*
X7204Y11332D01*
X7213Y11313D01*
X7218Y11289D01*
Y11270D01*
X7213Y11246D01*
X7204Y11227D01*
X7194Y11213D01*
X7185Y11203D01*
X7194Y11346D02*
X7204Y11327D01*
X7209Y11313D01*
X7213Y11289D01*
Y11270D01*
X7209Y11246D01*
X7204Y11232D01*
X7194Y11213D01*
X8013Y11284D02*
X8056D01*
X8070Y11289D01*
X8075Y11294D01*
X8080Y11303D01*
Y11318D01*
X8075Y11327D01*
X8070Y11332D01*
X8056Y11337D01*
X8013D01*
Y11237D01*
X8135Y11337D02*
Y11237D01*
X8102Y11337D02*
X8169D01*
X8181D02*
Y11237D01*
X8247Y11337D02*
Y11237D01*
X8181Y11289D02*
X8247D01*
X8639Y11337D02*
Y11237D01*
Y11337D02*
X8682D01*
X8696Y11332D01*
X8701Y11327D01*
X8706Y11318D01*
Y11308D01*
X8701Y11299D01*
X8696Y11294D01*
X8682Y11289D01*
X8639D01*
X8673D02*
X8706Y11237D01*
X8752Y11303D02*
X8743Y11299D01*
X8733Y11289D01*
X8728Y11275D01*
Y11265D01*
X8733Y11251D01*
X8743Y11241D01*
X8752Y11237D01*
X8766D01*
X8776Y11241D01*
X8785Y11251D01*
X8790Y11265D01*
Y11275D01*
X8785Y11289D01*
X8776Y11299D01*
X8766Y11303D01*
X8752D01*
X8812D02*
Y11256D01*
X8817Y11241D01*
X8826Y11237D01*
X8841D01*
X8850Y11241D01*
X8864Y11256D01*
Y11303D02*
Y11237D01*
X8891Y11303D02*
Y11237D01*
Y11284D02*
X8905Y11299D01*
X8914Y11303D01*
X8929D01*
X8938Y11299D01*
X8943Y11284D01*
Y11237D01*
X9026Y11337D02*
Y11237D01*
Y11289D02*
X9017Y11299D01*
X9007Y11303D01*
X8993D01*
X8983Y11299D01*
X8974Y11289D01*
X8969Y11275D01*
Y11265D01*
X8974Y11251D01*
X8983Y11241D01*
X8993Y11237D01*
X9007D01*
X9017Y11241D01*
X9026Y11251D01*
X5200Y11137D02*
X5252D01*
X5224Y11099D01*
X5238D01*
X5248Y11094D01*
X5252Y11089D01*
X5257Y11075D01*
Y11065D01*
X5252Y11051D01*
X5243Y11041D01*
X5229Y11037D01*
X5214D01*
X5200Y11041D01*
X5195Y11046D01*
X5191Y11056D01*
X6184Y11122D02*
X6179Y11132D01*
X6165Y11137D01*
X6156D01*
X6141Y11132D01*
X6132Y11118D01*
X6127Y11094D01*
Y11070D01*
X6132Y11051D01*
X6141Y11041D01*
X6156Y11037D01*
X6160D01*
X6175Y11041D01*
X6184Y11051D01*
X6189Y11065D01*
Y11070D01*
X6184Y11084D01*
X6175Y11094D01*
X6160Y11099D01*
X6156D01*
X6141Y11094D01*
X6132Y11084D01*
X6127Y11070D01*
X6239Y11137D02*
X6225Y11132D01*
X6216Y11118D01*
X6211Y11094D01*
Y11079D01*
X6216Y11056D01*
X6225Y11041D01*
X6239Y11037D01*
X6249D01*
X6263Y11041D01*
X6273Y11056D01*
X6277Y11079D01*
Y11094D01*
X6273Y11118D01*
X6263Y11132D01*
X6249Y11137D01*
X6239D01*
X6300Y11103D02*
Y11037D01*
Y11084D02*
X6314Y11099D01*
X6324Y11103D01*
X6338D01*
X6347Y11099D01*
X6352Y11084D01*
Y11037D01*
Y11084D02*
X6366Y11099D01*
X6376Y11103D01*
X6390D01*
X6400Y11099D01*
X6405Y11084D01*
Y11037D01*
X6445Y11137D02*
X6450Y11132D01*
X6455Y11137D01*
X6450Y11141D01*
X6445Y11137D01*
X6450Y11103D02*
Y11037D01*
X6473Y11137D02*
Y11037D01*
X6605Y11156D02*
X6596Y11146D01*
X6586Y11132D01*
X6577Y11113D01*
X6572Y11089D01*
Y11070D01*
X6577Y11046D01*
X6586Y11027D01*
X6596Y11013D01*
X6605Y11003D01*
X6596Y11146D02*
X6586Y11127D01*
X6582Y11113D01*
X6577Y11089D01*
Y11070D01*
X6582Y11046D01*
X6586Y11032D01*
X6596Y11013D01*
X6624Y11118D02*
X6634Y11122D01*
X6648Y11137D01*
Y11037D01*
X6703Y11046D02*
X6698Y11041D01*
X6703Y11037D01*
X6707Y11041D01*
X6703Y11046D01*
X6786Y11137D02*
X6739D01*
X6734Y11094D01*
X6739Y11099D01*
X6753Y11103D01*
X6767D01*
X6782Y11099D01*
X6791Y11089D01*
X6796Y11075D01*
Y11065D01*
X6791Y11051D01*
X6782Y11041D01*
X6767Y11037D01*
X6753D01*
X6739Y11041D01*
X6734Y11046D01*
X6729Y11056D01*
X6823Y11113D02*
Y11118D01*
X6828Y11127D01*
X6833Y11132D01*
X6842Y11137D01*
X6861D01*
X6871Y11132D01*
X6875Y11127D01*
X6880Y11118D01*
Y11108D01*
X6875Y11099D01*
X6866Y11084D01*
X6818Y11037D01*
X6885D01*
X6955Y11137D02*
X6907Y11070D01*
X6979D01*
X6955Y11137D02*
Y11037D01*
X6996Y11103D02*
Y11037D01*
Y11084D02*
X7011Y11099D01*
X7020Y11103D01*
X7034D01*
X7044Y11099D01*
X7049Y11084D01*
Y11037D01*
Y11084D02*
X7063Y11099D01*
X7072Y11103D01*
X7087D01*
X7096Y11099D01*
X7101Y11084D01*
Y11037D01*
X7132Y11103D02*
Y11037D01*
Y11084D02*
X7147Y11099D01*
X7156Y11103D01*
X7171D01*
X7180Y11099D01*
X7185Y11084D01*
Y11037D01*
Y11084D02*
X7199Y11099D01*
X7209Y11103D01*
X7223D01*
X7232Y11099D01*
X7237Y11084D01*
Y11037D01*
X7269Y11156D02*
X7278Y11146D01*
X7288Y11132D01*
X7297Y11113D01*
X7302Y11089D01*
Y11070D01*
X7297Y11046D01*
X7288Y11027D01*
X7278Y11013D01*
X7269Y11003D01*
X7278Y11146D02*
X7288Y11127D01*
X7292Y11113D01*
X7297Y11089D01*
Y11070D01*
X7292Y11046D01*
X7288Y11032D01*
X7278Y11013D01*
X8013Y11084D02*
X8056D01*
X8070Y11089D01*
X8075Y11094D01*
X8080Y11103D01*
Y11118D01*
X8075Y11127D01*
X8070Y11132D01*
X8056Y11137D01*
X8013D01*
Y11037D01*
X8135Y11137D02*
Y11037D01*
X8102Y11137D02*
X8169D01*
X8181D02*
Y11037D01*
X8247Y11137D02*
Y11037D01*
X8181Y11089D02*
X8247D01*
X8639Y11137D02*
Y11037D01*
Y11137D02*
X8682D01*
X8696Y11132D01*
X8701Y11127D01*
X8706Y11118D01*
Y11108D01*
X8701Y11099D01*
X8696Y11094D01*
X8682Y11089D01*
X8639D01*
X8673D02*
X8706Y11037D01*
X8752Y11103D02*
X8743Y11099D01*
X8733Y11089D01*
X8728Y11075D01*
Y11065D01*
X8733Y11051D01*
X8743Y11041D01*
X8752Y11037D01*
X8766D01*
X8776Y11041D01*
X8785Y11051D01*
X8790Y11065D01*
Y11075D01*
X8785Y11089D01*
X8776Y11099D01*
X8766Y11103D01*
X8752D01*
X8812D02*
Y11056D01*
X8817Y11041D01*
X8826Y11037D01*
X8841D01*
X8850Y11041D01*
X8864Y11056D01*
Y11103D02*
Y11037D01*
X8891Y11103D02*
Y11037D01*
Y11084D02*
X8905Y11099D01*
X8914Y11103D01*
X8929D01*
X8938Y11099D01*
X8943Y11084D01*
Y11037D01*
X9026Y11137D02*
Y11037D01*
Y11089D02*
X9017Y11099D01*
X9007Y11103D01*
X8993D01*
X8983Y11099D01*
X8974Y11089D01*
X8969Y11075D01*
Y11065D01*
X8974Y11051D01*
X8983Y11041D01*
X8993Y11037D01*
X9007D01*
X9017Y11041D01*
X9026Y11051D01*
X5195Y10913D02*
Y10918D01*
X5200Y10927D01*
X5205Y10932D01*
X5214Y10937D01*
X5233D01*
X5243Y10932D01*
X5248Y10927D01*
X5252Y10918D01*
Y10908D01*
X5248Y10899D01*
X5238Y10884D01*
X5191Y10837D01*
X5257D01*
X6184Y10922D02*
X6179Y10932D01*
X6165Y10937D01*
X6156D01*
X6141Y10932D01*
X6132Y10918D01*
X6127Y10894D01*
Y10870D01*
X6132Y10851D01*
X6141Y10841D01*
X6156Y10837D01*
X6160D01*
X6175Y10841D01*
X6184Y10851D01*
X6189Y10865D01*
Y10870D01*
X6184Y10884D01*
X6175Y10894D01*
X6160Y10899D01*
X6156D01*
X6141Y10894D01*
X6132Y10884D01*
X6127Y10870D01*
X6220Y10937D02*
X6273D01*
X6244Y10899D01*
X6258D01*
X6268Y10894D01*
X6273Y10889D01*
X6277Y10875D01*
Y10865D01*
X6273Y10851D01*
X6263Y10841D01*
X6249Y10837D01*
X6235D01*
X6220Y10841D01*
X6216Y10846D01*
X6211Y10856D01*
X6300Y10903D02*
Y10837D01*
Y10884D02*
X6314Y10899D01*
X6324Y10903D01*
X6338D01*
X6347Y10899D01*
X6352Y10884D01*
Y10837D01*
Y10884D02*
X6366Y10899D01*
X6376Y10903D01*
X6390D01*
X6400Y10899D01*
X6405Y10884D01*
Y10837D01*
X6445Y10937D02*
X6450Y10932D01*
X6455Y10937D01*
X6450Y10941D01*
X6445Y10937D01*
X6450Y10903D02*
Y10837D01*
X6473Y10937D02*
Y10837D01*
X6605Y10956D02*
X6596Y10946D01*
X6586Y10932D01*
X6577Y10913D01*
X6572Y10889D01*
Y10870D01*
X6577Y10846D01*
X6586Y10827D01*
X6596Y10813D01*
X6605Y10803D01*
X6596Y10946D02*
X6586Y10927D01*
X6582Y10913D01*
X6577Y10889D01*
Y10870D01*
X6582Y10846D01*
X6586Y10832D01*
X6596Y10813D01*
X6624Y10918D02*
X6634Y10922D01*
X6648Y10937D01*
Y10837D01*
X6703Y10846D02*
X6698Y10841D01*
X6703Y10837D01*
X6707Y10841D01*
X6703Y10846D01*
X6786Y10922D02*
X6782Y10932D01*
X6767Y10937D01*
X6758D01*
X6744Y10932D01*
X6734Y10918D01*
X6729Y10894D01*
Y10870D01*
X6734Y10851D01*
X6744Y10841D01*
X6758Y10837D01*
X6763D01*
X6777Y10841D01*
X6786Y10851D01*
X6791Y10865D01*
Y10870D01*
X6786Y10884D01*
X6777Y10894D01*
X6763Y10899D01*
X6758D01*
X6744Y10894D01*
X6734Y10884D01*
X6729Y10870D01*
X6842Y10937D02*
X6827Y10932D01*
X6818Y10918D01*
X6813Y10894D01*
Y10879D01*
X6818Y10856D01*
X6827Y10841D01*
X6842Y10837D01*
X6851D01*
X6865Y10841D01*
X6875Y10856D01*
X6880Y10879D01*
Y10894D01*
X6875Y10918D01*
X6865Y10932D01*
X6851Y10937D01*
X6842D01*
X6931D02*
X6916Y10932D01*
X6907Y10918D01*
X6902Y10894D01*
Y10879D01*
X6907Y10856D01*
X6916Y10841D01*
X6931Y10837D01*
X6940D01*
X6954Y10841D01*
X6964Y10856D01*
X6969Y10879D01*
Y10894D01*
X6964Y10918D01*
X6954Y10932D01*
X6940Y10937D01*
X6931D01*
X6996Y10913D02*
Y10918D01*
X7001Y10927D01*
X7005Y10932D01*
X7015Y10937D01*
X7034D01*
X7043Y10932D01*
X7048Y10927D01*
X7053Y10918D01*
Y10908D01*
X7048Y10899D01*
X7039Y10884D01*
X6991Y10837D01*
X7058D01*
X7080Y10903D02*
Y10837D01*
Y10884D02*
X7094Y10899D01*
X7104Y10903D01*
X7118D01*
X7128Y10899D01*
X7132Y10884D01*
Y10837D01*
Y10884D02*
X7147Y10899D01*
X7156Y10903D01*
X7171D01*
X7180Y10899D01*
X7185Y10884D01*
Y10837D01*
X7216Y10903D02*
Y10837D01*
Y10884D02*
X7231Y10899D01*
X7240Y10903D01*
X7254D01*
X7264Y10899D01*
X7269Y10884D01*
Y10837D01*
Y10884D02*
X7283Y10899D01*
X7292Y10903D01*
X7307D01*
X7316Y10899D01*
X7321Y10884D01*
Y10837D01*
X7352Y10956D02*
X7362Y10946D01*
X7371Y10932D01*
X7381Y10913D01*
X7386Y10889D01*
Y10870D01*
X7381Y10846D01*
X7371Y10827D01*
X7362Y10813D01*
X7352Y10803D01*
X7362Y10946D02*
X7371Y10927D01*
X7376Y10913D01*
X7381Y10889D01*
Y10870D01*
X7376Y10846D01*
X7371Y10832D01*
X7362Y10813D01*
X8013Y10884D02*
X8056D01*
X8070Y10889D01*
X8075Y10894D01*
X8080Y10903D01*
Y10918D01*
X8075Y10927D01*
X8070Y10932D01*
X8056Y10937D01*
X8013D01*
Y10837D01*
X8135Y10937D02*
Y10837D01*
X8102Y10937D02*
X8169D01*
X8181D02*
Y10837D01*
X8247Y10937D02*
Y10837D01*
X8181Y10889D02*
X8247D01*
X8639Y10937D02*
Y10837D01*
Y10937D02*
X8682D01*
X8696Y10932D01*
X8701Y10927D01*
X8706Y10918D01*
Y10908D01*
X8701Y10899D01*
X8696Y10894D01*
X8682Y10889D01*
X8639D01*
X8673D02*
X8706Y10837D01*
X8752Y10903D02*
X8743Y10899D01*
X8733Y10889D01*
X8728Y10875D01*
Y10865D01*
X8733Y10851D01*
X8743Y10841D01*
X8752Y10837D01*
X8766D01*
X8776Y10841D01*
X8785Y10851D01*
X8790Y10865D01*
Y10875D01*
X8785Y10889D01*
X8776Y10899D01*
X8766Y10903D01*
X8752D01*
X8812D02*
Y10856D01*
X8817Y10841D01*
X8826Y10837D01*
X8841D01*
X8850Y10841D01*
X8864Y10856D01*
Y10903D02*
Y10837D01*
X8891Y10903D02*
Y10837D01*
Y10884D02*
X8905Y10899D01*
X8914Y10903D01*
X8929D01*
X8938Y10899D01*
X8943Y10884D01*
Y10837D01*
X9026Y10937D02*
Y10837D01*
Y10889D02*
X9017Y10899D01*
X9007Y10903D01*
X8993D01*
X8983Y10899D01*
X8974Y10889D01*
X8969Y10875D01*
Y10865D01*
X8974Y10851D01*
X8983Y10841D01*
X8993Y10837D01*
X9007D01*
X9017Y10841D01*
X9026Y10851D01*
X5195Y10713D02*
Y10718D01*
X5200Y10727D01*
X5205Y10732D01*
X5214Y10737D01*
X5233D01*
X5243Y10732D01*
X5248Y10727D01*
X5252Y10718D01*
Y10708D01*
X5248Y10699D01*
X5238Y10684D01*
X5191Y10637D01*
X5257D01*
X6189Y10703D02*
X6184Y10689D01*
X6175Y10679D01*
X6160Y10675D01*
X6156D01*
X6141Y10679D01*
X6132Y10689D01*
X6127Y10703D01*
Y10708D01*
X6132Y10722D01*
X6141Y10732D01*
X6156Y10737D01*
X6160D01*
X6175Y10732D01*
X6184Y10722D01*
X6189Y10703D01*
Y10679D01*
X6184Y10656D01*
X6175Y10641D01*
X6160Y10637D01*
X6151D01*
X6137Y10641D01*
X6132Y10651D01*
X6245Y10737D02*
X6230Y10732D01*
X6221Y10718D01*
X6216Y10694D01*
Y10679D01*
X6221Y10656D01*
X6230Y10641D01*
X6245Y10637D01*
X6254D01*
X6268Y10641D01*
X6278Y10656D01*
X6283Y10679D01*
Y10694D01*
X6278Y10718D01*
X6268Y10732D01*
X6254Y10737D01*
X6245D01*
X6310Y10646D02*
X6305Y10641D01*
X6310Y10637D01*
X6315Y10641D01*
X6310Y10646D01*
X6394Y10737D02*
X6346D01*
X6341Y10694D01*
X6346Y10699D01*
X6360Y10703D01*
X6375D01*
X6389Y10699D01*
X6398Y10689D01*
X6403Y10675D01*
Y10665D01*
X6398Y10651D01*
X6389Y10641D01*
X6375Y10637D01*
X6360D01*
X6346Y10641D01*
X6341Y10646D01*
X6336Y10656D01*
X6483Y10737D02*
X6435D01*
X6430Y10694D01*
X6435Y10699D01*
X6449Y10703D01*
X6464D01*
X6478Y10699D01*
X6487Y10689D01*
X6492Y10675D01*
Y10665D01*
X6487Y10651D01*
X6478Y10641D01*
X6464Y10637D01*
X6449D01*
X6435Y10641D01*
X6430Y10646D01*
X6425Y10656D01*
X6515Y10718D02*
X6524Y10722D01*
X6538Y10737D01*
Y10637D01*
X6588Y10703D02*
Y10637D01*
Y10684D02*
X6602Y10699D01*
X6612Y10703D01*
X6626D01*
X6635Y10699D01*
X6640Y10684D01*
Y10637D01*
Y10684D02*
X6654Y10699D01*
X6664Y10703D01*
X6678D01*
X6688Y10699D01*
X6693Y10684D01*
Y10637D01*
X6734Y10737D02*
X6738Y10732D01*
X6743Y10737D01*
X6738Y10741D01*
X6734Y10737D01*
X6738Y10703D02*
Y10637D01*
X6761Y10737D02*
Y10637D01*
X6893Y10756D02*
X6884Y10746D01*
X6874Y10732D01*
X6865Y10713D01*
X6860Y10689D01*
Y10670D01*
X6865Y10646D01*
X6874Y10627D01*
X6884Y10613D01*
X6893Y10603D01*
X6884Y10746D02*
X6874Y10727D01*
X6870Y10713D01*
X6865Y10689D01*
Y10670D01*
X6870Y10646D01*
X6874Y10632D01*
X6884Y10613D01*
X6917Y10713D02*
Y10718D01*
X6922Y10727D01*
X6927Y10732D01*
X6936Y10737D01*
X6955D01*
X6965Y10732D01*
X6970Y10727D01*
X6974Y10718D01*
Y10708D01*
X6970Y10699D01*
X6960Y10684D01*
X6913Y10637D01*
X6979D01*
X7006Y10646D02*
X7002Y10641D01*
X7006Y10637D01*
X7011Y10641D01*
X7006Y10646D01*
X7043Y10737D02*
X7095D01*
X7066Y10699D01*
X7081D01*
X7090Y10694D01*
X7095Y10689D01*
X7100Y10675D01*
Y10665D01*
X7095Y10651D01*
X7085Y10641D01*
X7071Y10637D01*
X7057D01*
X7043Y10641D01*
X7038Y10646D01*
X7033Y10656D01*
X7122Y10703D02*
Y10637D01*
Y10684D02*
X7136Y10699D01*
X7146Y10703D01*
X7160D01*
X7170Y10699D01*
X7174Y10684D01*
Y10637D01*
Y10684D02*
X7189Y10699D01*
X7198Y10703D01*
X7212D01*
X7222Y10699D01*
X7227Y10684D01*
Y10637D01*
X7258Y10703D02*
Y10637D01*
Y10684D02*
X7272Y10699D01*
X7282Y10703D01*
X7296D01*
X7306Y10699D01*
X7311Y10684D01*
Y10637D01*
Y10684D02*
X7325Y10699D01*
X7334Y10703D01*
X7349D01*
X7358Y10699D01*
X7363Y10684D01*
Y10637D01*
X7394Y10756D02*
X7404Y10746D01*
X7413Y10732D01*
X7423Y10713D01*
X7428Y10689D01*
Y10670D01*
X7423Y10646D01*
X7413Y10627D01*
X7404Y10613D01*
X7394Y10603D01*
X7404Y10746D02*
X7413Y10727D01*
X7418Y10713D01*
X7423Y10689D01*
Y10670D01*
X7418Y10646D01*
X7413Y10632D01*
X7404Y10613D01*
X8013Y10684D02*
X8056D01*
X8070Y10689D01*
X8075Y10694D01*
X8080Y10703D01*
Y10718D01*
X8075Y10727D01*
X8070Y10732D01*
X8056Y10737D01*
X8013D01*
Y10637D01*
X8135Y10737D02*
Y10637D01*
X8102Y10737D02*
X8169D01*
X8181D02*
Y10637D01*
X8247Y10737D02*
Y10637D01*
X8181Y10689D02*
X8247D01*
X8639Y10737D02*
Y10637D01*
Y10737D02*
X8682D01*
X8696Y10732D01*
X8701Y10727D01*
X8706Y10718D01*
Y10708D01*
X8701Y10699D01*
X8696Y10694D01*
X8682Y10689D01*
X8639D01*
X8673D02*
X8706Y10637D01*
X8752Y10703D02*
X8743Y10699D01*
X8733Y10689D01*
X8728Y10675D01*
Y10665D01*
X8733Y10651D01*
X8743Y10641D01*
X8752Y10637D01*
X8766D01*
X8776Y10641D01*
X8785Y10651D01*
X8790Y10665D01*
Y10675D01*
X8785Y10689D01*
X8776Y10699D01*
X8766Y10703D01*
X8752D01*
X8812D02*
Y10656D01*
X8817Y10641D01*
X8826Y10637D01*
X8841D01*
X8850Y10641D01*
X8864Y10656D01*
Y10703D02*
Y10637D01*
X8891Y10703D02*
Y10637D01*
Y10684D02*
X8905Y10699D01*
X8914Y10703D01*
X8929D01*
X8938Y10699D01*
X8943Y10684D01*
Y10637D01*
X9026Y10737D02*
Y10637D01*
Y10689D02*
X9017Y10699D01*
X9007Y10703D01*
X8993D01*
X8983Y10699D01*
X8974Y10689D01*
X8969Y10675D01*
Y10665D01*
X8974Y10651D01*
X8983Y10641D01*
X8993Y10637D01*
X9007D01*
X9017Y10641D01*
X9026Y10651D01*
X5195Y10513D02*
Y10518D01*
X5200Y10527D01*
X5205Y10532D01*
X5214Y10537D01*
X5233D01*
X5243Y10532D01*
X5248Y10527D01*
X5252Y10518D01*
Y10508D01*
X5248Y10499D01*
X5238Y10484D01*
X5191Y10437D01*
X5257D01*
X6127Y10518D02*
X6137Y10522D01*
X6151Y10537D01*
Y10437D01*
X6205Y10513D02*
Y10518D01*
X6210Y10527D01*
X6215Y10532D01*
X6224Y10537D01*
X6243D01*
X6253Y10532D01*
X6257Y10527D01*
X6262Y10518D01*
Y10508D01*
X6257Y10499D01*
X6248Y10484D01*
X6200Y10437D01*
X6267D01*
X6356Y10537D02*
X6308Y10437D01*
X6289Y10537D02*
X6356D01*
X6383Y10446D02*
X6378Y10441D01*
X6383Y10437D01*
X6388Y10441D01*
X6383Y10446D01*
X6472Y10503D02*
X6467Y10489D01*
X6457Y10479D01*
X6443Y10475D01*
X6438D01*
X6424Y10479D01*
X6415Y10489D01*
X6410Y10503D01*
Y10508D01*
X6415Y10522D01*
X6424Y10532D01*
X6438Y10537D01*
X6443D01*
X6457Y10532D01*
X6467Y10522D01*
X6472Y10503D01*
Y10479D01*
X6467Y10456D01*
X6457Y10441D01*
X6443Y10437D01*
X6434D01*
X6419Y10441D01*
X6415Y10451D01*
X6556Y10537D02*
X6508D01*
X6504Y10494D01*
X6508Y10499D01*
X6523Y10503D01*
X6537D01*
X6551Y10499D01*
X6561Y10489D01*
X6565Y10475D01*
Y10465D01*
X6561Y10451D01*
X6551Y10441D01*
X6537Y10437D01*
X6523D01*
X6508Y10441D01*
X6504Y10446D01*
X6499Y10456D01*
X6597Y10537D02*
X6650D01*
X6621Y10499D01*
X6635D01*
X6645Y10494D01*
X6650Y10489D01*
X6654Y10475D01*
Y10465D01*
X6650Y10451D01*
X6640Y10441D01*
X6626Y10437D01*
X6612D01*
X6597Y10441D01*
X6593Y10446D01*
X6588Y10456D01*
X6677Y10503D02*
Y10437D01*
Y10484D02*
X6691Y10499D01*
X6701Y10503D01*
X6715D01*
X6724Y10499D01*
X6729Y10484D01*
Y10437D01*
Y10484D02*
X6744Y10499D01*
X6753Y10503D01*
X6767D01*
X6777Y10499D01*
X6782Y10484D01*
Y10437D01*
X6823Y10537D02*
X6827Y10532D01*
X6832Y10537D01*
X6827Y10541D01*
X6823Y10537D01*
X6827Y10503D02*
Y10437D01*
X6850Y10537D02*
Y10437D01*
X6983Y10556D02*
X6973Y10546D01*
X6963Y10532D01*
X6954Y10513D01*
X6949Y10489D01*
Y10470D01*
X6954Y10446D01*
X6963Y10427D01*
X6973Y10413D01*
X6983Y10403D01*
X6973Y10546D02*
X6963Y10527D01*
X6959Y10513D01*
X6954Y10489D01*
Y10470D01*
X6959Y10446D01*
X6963Y10432D01*
X6973Y10413D01*
X7011Y10537D02*
X7063D01*
X7035Y10499D01*
X7049D01*
X7059Y10494D01*
X7063Y10489D01*
X7068Y10475D01*
Y10465D01*
X7063Y10451D01*
X7054Y10441D01*
X7040Y10437D01*
X7025D01*
X7011Y10441D01*
X7006Y10446D01*
X7002Y10456D01*
X7095Y10446D02*
X7091Y10441D01*
X7095Y10437D01*
X7100Y10441D01*
X7095Y10446D01*
X7127Y10513D02*
Y10518D01*
X7132Y10527D01*
X7136Y10532D01*
X7146Y10537D01*
X7165D01*
X7174Y10532D01*
X7179Y10527D01*
X7184Y10518D01*
Y10508D01*
X7179Y10499D01*
X7170Y10484D01*
X7122Y10437D01*
X7189D01*
X7268Y10537D02*
X7221D01*
X7216Y10494D01*
X7221Y10499D01*
X7235Y10503D01*
X7249D01*
X7263Y10499D01*
X7273Y10489D01*
X7278Y10475D01*
Y10465D01*
X7273Y10451D01*
X7263Y10441D01*
X7249Y10437D01*
X7235D01*
X7221Y10441D01*
X7216Y10446D01*
X7211Y10456D01*
X7329Y10537D02*
X7314Y10532D01*
X7305Y10518D01*
X7300Y10494D01*
Y10479D01*
X7305Y10456D01*
X7314Y10441D01*
X7329Y10437D01*
X7338D01*
X7352Y10441D01*
X7362Y10456D01*
X7367Y10479D01*
Y10494D01*
X7362Y10518D01*
X7352Y10532D01*
X7338Y10537D01*
X7329D01*
X7418D02*
X7403Y10532D01*
X7394Y10518D01*
X7389Y10494D01*
Y10479D01*
X7394Y10456D01*
X7403Y10441D01*
X7418Y10437D01*
X7427D01*
X7441Y10441D01*
X7451Y10456D01*
X7456Y10479D01*
Y10494D01*
X7451Y10518D01*
X7441Y10532D01*
X7427Y10537D01*
X7418D01*
X7478Y10518D02*
X7488Y10522D01*
X7502Y10537D01*
Y10437D01*
X7551Y10503D02*
Y10437D01*
Y10484D02*
X7566Y10499D01*
X7575Y10503D01*
X7590D01*
X7599Y10499D01*
X7604Y10484D01*
Y10437D01*
Y10484D02*
X7618Y10499D01*
X7628Y10503D01*
X7642D01*
X7651Y10499D01*
X7656Y10484D01*
Y10437D01*
X7688Y10503D02*
Y10437D01*
Y10484D02*
X7702Y10499D01*
X7711Y10503D01*
X7726D01*
X7735Y10499D01*
X7740Y10484D01*
Y10437D01*
Y10484D02*
X7754Y10499D01*
X7764Y10503D01*
X7778D01*
X7788Y10499D01*
X7792Y10484D01*
Y10437D01*
X7824Y10556D02*
X7833Y10546D01*
X7843Y10532D01*
X7852Y10513D01*
X7857Y10489D01*
Y10470D01*
X7852Y10446D01*
X7843Y10427D01*
X7833Y10413D01*
X7824Y10403D01*
X7833Y10546D02*
X7843Y10527D01*
X7848Y10513D01*
X7852Y10489D01*
Y10470D01*
X7848Y10446D01*
X7843Y10432D01*
X7833Y10413D01*
X8013Y10537D02*
Y10437D01*
Y10537D02*
X8080Y10437D01*
Y10537D02*
Y10437D01*
X8107Y10484D02*
X8150D01*
X8164Y10489D01*
X8169Y10494D01*
X8174Y10503D01*
Y10518D01*
X8169Y10527D01*
X8164Y10532D01*
X8150Y10537D01*
X8107D01*
Y10437D01*
X8230Y10537D02*
Y10437D01*
X8196Y10537D02*
X8263D01*
X8275D02*
Y10437D01*
X8342Y10537D02*
Y10437D01*
X8275Y10489D02*
X8342D01*
X8639Y10537D02*
Y10437D01*
Y10537D02*
X8682D01*
X8696Y10532D01*
X8701Y10527D01*
X8706Y10518D01*
Y10508D01*
X8701Y10499D01*
X8696Y10494D01*
X8682Y10489D01*
X8639D01*
X8673D02*
X8706Y10437D01*
X8752Y10503D02*
X8743Y10499D01*
X8733Y10489D01*
X8728Y10475D01*
Y10465D01*
X8733Y10451D01*
X8743Y10441D01*
X8752Y10437D01*
X8766D01*
X8776Y10441D01*
X8785Y10451D01*
X8790Y10465D01*
Y10475D01*
X8785Y10489D01*
X8776Y10499D01*
X8766Y10503D01*
X8752D01*
X8812D02*
Y10456D01*
X8817Y10441D01*
X8826Y10437D01*
X8841D01*
X8850Y10441D01*
X8864Y10456D01*
Y10503D02*
Y10437D01*
X8891Y10503D02*
Y10437D01*
Y10484D02*
X8905Y10499D01*
X8914Y10503D01*
X8929D01*
X8938Y10499D01*
X8943Y10484D01*
Y10437D01*
X9026Y10537D02*
Y10437D01*
Y10489D02*
X9017Y10499D01*
X9007Y10503D01*
X8993D01*
X8983Y10499D01*
X8974Y10489D01*
X8969Y10475D01*
Y10465D01*
X8974Y10451D01*
X8983Y10441D01*
X8993Y10437D01*
X9007D01*
X9017Y10441D01*
X9026Y10451D01*
X5200Y10337D02*
X5252D01*
X5224Y10299D01*
X5238D01*
X5248Y10294D01*
X5252Y10289D01*
X5257Y10275D01*
Y10265D01*
X5252Y10251D01*
X5243Y10241D01*
X5229Y10237D01*
X5214D01*
X5200Y10241D01*
X5195Y10246D01*
X5191Y10256D01*
X6127Y10318D02*
X6137Y10322D01*
X6151Y10337D01*
Y10237D01*
X6257Y10322D02*
X6253Y10332D01*
X6238Y10337D01*
X6229D01*
X6215Y10332D01*
X6205Y10318D01*
X6200Y10294D01*
Y10270D01*
X6205Y10251D01*
X6215Y10241D01*
X6229Y10237D01*
X6234D01*
X6248Y10241D01*
X6257Y10251D01*
X6262Y10265D01*
Y10270D01*
X6257Y10284D01*
X6248Y10294D01*
X6234Y10299D01*
X6229D01*
X6215Y10294D01*
X6205Y10284D01*
X6200Y10270D01*
X6341Y10322D02*
X6336Y10332D01*
X6322Y10337D01*
X6313D01*
X6298Y10332D01*
X6289Y10318D01*
X6284Y10294D01*
Y10270D01*
X6289Y10251D01*
X6298Y10241D01*
X6313Y10237D01*
X6317D01*
X6332Y10241D01*
X6341Y10251D01*
X6346Y10265D01*
Y10270D01*
X6341Y10284D01*
X6332Y10294D01*
X6317Y10299D01*
X6313D01*
X6298Y10294D01*
X6289Y10284D01*
X6284Y10270D01*
X6373Y10246D02*
X6368Y10241D01*
X6373Y10237D01*
X6377Y10241D01*
X6373Y10246D01*
X6399Y10318D02*
X6409Y10322D01*
X6423Y10337D01*
Y10237D01*
X6520Y10337D02*
X6473Y10270D01*
X6544D01*
X6520Y10337D02*
Y10237D01*
X6566Y10313D02*
Y10318D01*
X6571Y10327D01*
X6576Y10332D01*
X6585Y10337D01*
X6605D01*
X6614Y10332D01*
X6619Y10327D01*
X6624Y10318D01*
Y10308D01*
X6619Y10299D01*
X6609Y10284D01*
X6562Y10237D01*
X6628D01*
X6651Y10303D02*
Y10237D01*
Y10284D02*
X6665Y10299D01*
X6674Y10303D01*
X6689D01*
X6698Y10299D01*
X6703Y10284D01*
Y10237D01*
Y10284D02*
X6717Y10299D01*
X6727Y10303D01*
X6741D01*
X6751Y10299D01*
X6755Y10284D01*
Y10237D01*
X6796Y10337D02*
X6801Y10332D01*
X6806Y10337D01*
X6801Y10341D01*
X6796Y10337D01*
X6801Y10303D02*
Y10237D01*
X6824Y10337D02*
Y10237D01*
X6956Y10356D02*
X6947Y10346D01*
X6937Y10332D01*
X6928Y10313D01*
X6923Y10289D01*
Y10270D01*
X6928Y10246D01*
X6937Y10227D01*
X6947Y10213D01*
X6956Y10203D01*
X6947Y10346D02*
X6937Y10327D01*
X6933Y10313D01*
X6928Y10289D01*
Y10270D01*
X6933Y10246D01*
X6937Y10232D01*
X6947Y10213D01*
X7023Y10337D02*
X6975Y10270D01*
X7047D01*
X7023Y10337D02*
Y10237D01*
X7069Y10246D02*
X7064Y10241D01*
X7069Y10237D01*
X7074Y10241D01*
X7069Y10246D01*
X7101Y10313D02*
Y10318D01*
X7105Y10327D01*
X7110Y10332D01*
X7120Y10337D01*
X7139D01*
X7148Y10332D01*
X7153Y10327D01*
X7158Y10318D01*
Y10308D01*
X7153Y10299D01*
X7143Y10284D01*
X7096Y10237D01*
X7162D01*
X7190Y10313D02*
Y10318D01*
X7194Y10327D01*
X7199Y10332D01*
X7209Y10337D01*
X7228D01*
X7237Y10332D01*
X7242Y10327D01*
X7247Y10318D01*
Y10308D01*
X7242Y10299D01*
X7232Y10284D01*
X7185Y10237D01*
X7252D01*
X7274Y10303D02*
Y10237D01*
Y10284D02*
X7288Y10299D01*
X7298Y10303D01*
X7312D01*
X7321Y10299D01*
X7326Y10284D01*
Y10237D01*
Y10284D02*
X7341Y10299D01*
X7350Y10303D01*
X7364D01*
X7374Y10299D01*
X7379Y10284D01*
Y10237D01*
X7410Y10303D02*
Y10237D01*
Y10284D02*
X7424Y10299D01*
X7434Y10303D01*
X7448D01*
X7458Y10299D01*
X7462Y10284D01*
Y10237D01*
Y10284D02*
X7477Y10299D01*
X7486Y10303D01*
X7501D01*
X7510Y10299D01*
X7515Y10284D01*
Y10237D01*
X7546Y10356D02*
X7556Y10346D01*
X7565Y10332D01*
X7575Y10313D01*
X7580Y10289D01*
Y10270D01*
X7575Y10246D01*
X7565Y10227D01*
X7556Y10213D01*
X7546Y10203D01*
X7556Y10346D02*
X7565Y10327D01*
X7570Y10313D01*
X7575Y10289D01*
Y10270D01*
X7570Y10246D01*
X7565Y10232D01*
X7556Y10213D01*
X8013Y10284D02*
X8056D01*
X8070Y10289D01*
X8075Y10294D01*
X8080Y10303D01*
Y10318D01*
X8075Y10327D01*
X8070Y10332D01*
X8056Y10337D01*
X8013D01*
Y10237D01*
X8135Y10337D02*
Y10237D01*
X8102Y10337D02*
X8169D01*
X8181D02*
Y10237D01*
X8247Y10337D02*
Y10237D01*
X8181Y10289D02*
X8247D01*
X8639Y10337D02*
Y10237D01*
Y10337D02*
X8682D01*
X8696Y10332D01*
X8701Y10327D01*
X8706Y10318D01*
Y10308D01*
X8701Y10299D01*
X8696Y10294D01*
X8682Y10289D01*
X8639D01*
X8673D02*
X8706Y10237D01*
X8752Y10303D02*
X8743Y10299D01*
X8733Y10289D01*
X8728Y10275D01*
Y10265D01*
X8733Y10251D01*
X8743Y10241D01*
X8752Y10237D01*
X8766D01*
X8776Y10241D01*
X8785Y10251D01*
X8790Y10265D01*
Y10275D01*
X8785Y10289D01*
X8776Y10299D01*
X8766Y10303D01*
X8752D01*
X8812D02*
Y10256D01*
X8817Y10241D01*
X8826Y10237D01*
X8841D01*
X8850Y10241D01*
X8864Y10256D01*
Y10303D02*
Y10237D01*
X8891Y10303D02*
Y10237D01*
Y10284D02*
X8905Y10299D01*
X8914Y10303D01*
X8929D01*
X8938Y10299D01*
X8943Y10284D01*
Y10237D01*
X9026Y10337D02*
Y10237D01*
Y10289D02*
X9017Y10299D01*
X9007Y10303D01*
X8993D01*
X8983Y10299D01*
X8974Y10289D01*
X8969Y10275D01*
Y10265D01*
X8974Y10251D01*
X8983Y10241D01*
X8993Y10237D01*
X9007D01*
X9017Y10241D01*
X9026Y10251D01*
X5195Y10113D02*
Y10118D01*
X5200Y10127D01*
X5205Y10132D01*
X5214Y10137D01*
X5233D01*
X5243Y10132D01*
X5248Y10127D01*
X5252Y10118D01*
Y10108D01*
X5248Y10099D01*
X5238Y10084D01*
X5191Y10037D01*
X5257D01*
X5289Y10137D02*
X5342D01*
X5313Y10099D01*
X5327D01*
X5337Y10094D01*
X5342Y10089D01*
X5346Y10075D01*
Y10065D01*
X5342Y10051D01*
X5332Y10041D01*
X5318Y10037D01*
X5303D01*
X5289Y10041D01*
X5284Y10046D01*
X5280Y10056D01*
X5392Y10137D02*
X5378Y10132D01*
X5373Y10122D01*
Y10113D01*
X5378Y10103D01*
X5388Y10099D01*
X5407Y10094D01*
X5421Y10089D01*
X5431Y10079D01*
X5435Y10070D01*
Y10056D01*
X5431Y10046D01*
X5426Y10041D01*
X5411Y10037D01*
X5392D01*
X5378Y10041D01*
X5373Y10046D01*
X5369Y10056D01*
Y10070D01*
X5373Y10079D01*
X5383Y10089D01*
X5397Y10094D01*
X5416Y10099D01*
X5426Y10103D01*
X5431Y10113D01*
Y10122D01*
X5426Y10132D01*
X5411Y10137D01*
X5392D01*
X5625D02*
Y10037D01*
X5591Y10137D02*
X5658D01*
X5694Y10103D02*
X5684Y10099D01*
X5675Y10089D01*
X5670Y10075D01*
Y10065D01*
X5675Y10051D01*
X5684Y10041D01*
X5694Y10037D01*
X5708D01*
X5717Y10041D01*
X5727Y10051D01*
X5732Y10065D01*
Y10075D01*
X5727Y10089D01*
X5717Y10099D01*
X5708Y10103D01*
X5694D01*
X5768Y10137D02*
Y10056D01*
X5773Y10041D01*
X5782Y10037D01*
X5792D01*
X5754Y10103D02*
X5787D01*
X5863D02*
Y10037D01*
Y10089D02*
X5854Y10099D01*
X5844Y10103D01*
X5830D01*
X5820Y10099D01*
X5811Y10089D01*
X5806Y10075D01*
Y10065D01*
X5811Y10051D01*
X5820Y10041D01*
X5830Y10037D01*
X5844D01*
X5854Y10041D01*
X5863Y10051D01*
X5890Y10137D02*
Y10037D01*
D16*
X18239Y2092D02*
X18240Y2082D01*
X18241Y2072D01*
X18244Y2062D01*
X18248Y2053D01*
X18253Y2044D01*
X18259Y2036D01*
X18266Y2028D01*
X18273Y2021D01*
X18281Y2016D01*
X18290Y2011D01*
X18299Y2007D01*
X18309Y2004D01*
X18319Y2002D01*
X18329Y2002D01*
X22229D02*
X22239Y2002D01*
X22249Y2004D01*
X22259Y2007D01*
X22268Y2011D01*
X22277Y2016D01*
X22285Y2021D01*
X22293Y2028D01*
X22300Y2036D01*
X22305Y2044D01*
X22310Y2053D01*
X22314Y2062D01*
X22317Y2072D01*
X22319Y2082D01*
X22319Y2092D01*
X18279Y2952D02*
X18269Y2950D01*
X18259Y2946D01*
X18251Y2940D01*
X18245Y2932D01*
X18241Y2922D01*
X18239Y2912D01*
X18279Y2992D02*
X18269Y2991D01*
X18260Y2989D01*
X18251Y2987D01*
X18242Y2983D01*
X18234Y2978D01*
X18226Y2972D01*
X18219Y2965D01*
X18213Y2957D01*
X18208Y2949D01*
X18204Y2940D01*
X18201Y2931D01*
X18200Y2921D01*
X18199Y2912D01*
X22319Y2862D02*
X22319Y2872D01*
X22317Y2882D01*
X22314Y2892D01*
X22310Y2901D01*
X22305Y2910D01*
X22300Y2918D01*
X22293Y2925D01*
X22285Y2932D01*
X22277Y2938D01*
X22268Y2943D01*
X22259Y2947D01*
X22249Y2950D01*
X22239Y2951D01*
X22229Y2952D01*
X22318Y2957D02*
X22310Y2963D01*
X22303Y2969D01*
X22294Y2974D01*
X22286Y2979D01*
X22277Y2983D01*
X22268Y2986D01*
X22258Y2989D01*
X22249Y2990D01*
X22239Y2991D01*
X22229Y2992D01*
X18199Y2092D02*
X18200Y2082D01*
X18201Y2072D01*
X18202Y2063D01*
X18205Y2053D01*
X18208Y2044D01*
X18212Y2035D01*
X18217Y2027D01*
X18222Y2018D01*
X18228Y2011D01*
X18234Y2003D01*
X1959Y2492D02*
X1962Y2485D01*
X1969Y2482D01*
X1959Y2542D02*
X1959Y2552D01*
X1957Y2562D01*
X1954Y2572D01*
X1950Y2581D01*
X1945Y2590D01*
X1940Y2598D01*
X1933Y2605D01*
X1925Y2612D01*
X1917Y2618D01*
X1908Y2623D01*
X1899Y2627D01*
X1889Y2630D01*
X1879Y2631D01*
X1869Y2632D01*
X1409D02*
X1399Y2631D01*
X1388Y2629D01*
X1378Y2626D01*
X1368Y2622D01*
X1359Y2617D01*
X4684Y2002D02*
X4689Y2011D01*
X4694Y2021D01*
X4697Y2031D01*
X4699Y2041D01*
X4699Y2052D01*
Y2392D02*
X4699Y2402D01*
X4697Y2412D01*
X4694Y2422D01*
X4690Y2431D01*
X4685Y2440D01*
X4680Y2448D01*
X4673Y2455D01*
X4665Y2462D01*
X4657Y2468D01*
X4648Y2473D01*
X4639Y2477D01*
X4629Y2480D01*
X4619Y2481D01*
X4609Y2482D01*
X1919Y2492D02*
X1920Y2482D01*
X1923Y2473D01*
X1928Y2464D01*
X1934Y2456D01*
X1941Y2450D01*
X1950Y2446D01*
X1959Y2443D01*
X1969Y2442D01*
X4609Y2002D02*
X4619Y2003D01*
X4628Y2006D01*
X4637Y2010D01*
X4644Y2016D01*
X4651Y2024D01*
X4655Y2033D01*
X4658Y2042D01*
X4659Y2052D01*
Y2392D02*
X4658Y2402D01*
X4655Y2411D01*
X4651Y2420D01*
X4644Y2427D01*
X4637Y2433D01*
X4628Y2438D01*
X4619Y2441D01*
X4609Y2442D01*
X1409Y2592D02*
X1399Y2591D01*
X1390Y2588D01*
X1381Y2583D01*
X1374Y2577D01*
X1368Y2570D01*
X1363Y2561D01*
X1360Y2552D01*
X1359Y2542D01*
X1919D02*
X1918Y2552D01*
X1915Y2561D01*
X1911Y2570D01*
X1904Y2577D01*
X1897Y2583D01*
X1888Y2588D01*
X1879Y2591D01*
X1869Y2592D01*
X1359Y2052D02*
X1360Y2042D01*
X1363Y2033D01*
X1368Y2024D01*
X1374Y2016D01*
X1381Y2010D01*
X1390Y2006D01*
X1399Y2003D01*
X1409Y2002D01*
X18329D02*
X22229D01*
X18279Y2952D02*
X22229D01*
X18279Y2992D02*
X22229D01*
X1409Y2002D02*
X4609D01*
X1969Y2482D02*
X4609D01*
X1409Y2632D02*
X1869D01*
X1969Y2442D02*
X4609D01*
X1409Y2592D02*
X1869D01*
X18239Y2092D02*
Y2912D01*
X22319Y2092D02*
Y2862D01*
X18199Y2092D02*
Y2912D01*
X1359Y2052D02*
Y2542D01*
X1959Y2492D02*
Y2542D01*
X4699Y2052D02*
Y2392D01*
X4659Y2052D02*
Y2392D01*
X1919Y2492D02*
Y2542D01*
X21549Y2193D02*
Y2198D01*
X21554Y2207D01*
X21558Y2212D01*
X21568Y2217D01*
X21587D01*
X21597Y2212D01*
X21601Y2207D01*
X21606Y2198D01*
Y2188D01*
X21601Y2179D01*
X21592Y2164D01*
X21544Y2117D01*
X21611D01*
X21964Y2193D02*
Y2198D01*
X21969Y2207D01*
X21973Y2212D01*
X21983Y2217D01*
X22002D01*
X22012Y2212D01*
X22016Y2207D01*
X22021Y2198D01*
Y2188D01*
X22016Y2179D01*
X22007Y2164D01*
X21959Y2117D01*
X22026D01*
X22077Y2217D02*
X22062Y2212D01*
X22053Y2198D01*
X22048Y2174D01*
Y2160D01*
X22053Y2136D01*
X22062Y2122D01*
X22077Y2117D01*
X22086D01*
X22101Y2122D01*
X22110Y2136D01*
X22115Y2160D01*
Y2174D01*
X22110Y2198D01*
X22101Y2212D01*
X22086Y2217D01*
X22077D01*
D17*
X834Y1486D02*
Y18486D01*
Y1486D02*
X22834D01*
Y18486D01*
X834D02*
X22834D01*
D18*
X18516Y2507D02*
X18526Y2511D01*
X18540Y2526D01*
Y2426D01*
X18656Y2526D02*
X18609Y2426D01*
X18589Y2526D02*
X18656D01*
X18736D02*
X18688D01*
X18683Y2483D01*
X18688Y2488D01*
X18702Y2492D01*
X18717D01*
X18731Y2488D01*
X18740Y2478D01*
X18745Y2464D01*
Y2454D01*
X18740Y2440D01*
X18731Y2431D01*
X18717Y2426D01*
X18702D01*
X18688Y2431D01*
X18683Y2435D01*
X18678Y2445D01*
X18768Y2469D02*
X18853D01*
X18911Y2526D02*
X18897Y2521D01*
X18887Y2507D01*
X18883Y2483D01*
Y2469D01*
X18887Y2445D01*
X18897Y2431D01*
X18911Y2426D01*
X18921D01*
X18935Y2431D01*
X18945Y2445D01*
X18949Y2469D01*
Y2483D01*
X18945Y2507D01*
X18935Y2521D01*
X18921Y2526D01*
X18911D01*
X19000D02*
X18986Y2521D01*
X18977Y2507D01*
X18972Y2483D01*
Y2469D01*
X18977Y2445D01*
X18986Y2431D01*
X19000Y2426D01*
X19010D01*
X19024Y2431D01*
X19034Y2445D01*
X19038Y2469D01*
Y2483D01*
X19034Y2507D01*
X19024Y2521D01*
X19010Y2526D01*
X19000D01*
X19089D02*
X19075Y2521D01*
X19066Y2507D01*
X19061Y2483D01*
Y2469D01*
X19066Y2445D01*
X19075Y2431D01*
X19089Y2426D01*
X19099D01*
X19113Y2431D01*
X19123Y2445D01*
X19127Y2469D01*
Y2483D01*
X19123Y2507D01*
X19113Y2521D01*
X19099Y2526D01*
X19089D01*
X19150Y2507D02*
X19159Y2511D01*
X19174Y2526D01*
Y2426D01*
X19233Y2526D02*
X19285D01*
X19256Y2488D01*
X19271D01*
X19280Y2483D01*
X19285Y2478D01*
X19290Y2464D01*
Y2454D01*
X19285Y2440D01*
X19276Y2431D01*
X19261Y2426D01*
X19247D01*
X19233Y2431D01*
X19228Y2435D01*
X19223Y2445D01*
X19322Y2431D02*
X19317Y2426D01*
X19312Y2431D01*
X19317Y2435D01*
X19322Y2431D01*
Y2421D01*
X19317Y2411D01*
X19312Y2407D01*
X19422Y2507D02*
X19432Y2511D01*
X19446Y2526D01*
Y2426D01*
X19495Y2492D02*
Y2426D01*
Y2473D02*
X19510Y2488D01*
X19519Y2492D01*
X19534D01*
X19543Y2488D01*
X19548Y2473D01*
Y2426D01*
Y2473D02*
X19562Y2488D01*
X19572Y2492D01*
X19586D01*
X19595Y2488D01*
X19600Y2473D01*
Y2426D01*
X19710Y2526D02*
Y2426D01*
Y2526D02*
X19748Y2426D01*
X19786Y2526D02*
X19748Y2426D01*
X19786Y2526D02*
Y2426D01*
X19824Y2526D02*
X19829Y2521D01*
X19834Y2526D01*
X19829Y2531D01*
X19824Y2526D01*
X19829Y2492D02*
Y2426D01*
X19852Y2492D02*
Y2426D01*
Y2464D02*
X19856Y2478D01*
X19866Y2488D01*
X19875Y2492D01*
X19890D01*
X19899D02*
Y2426D01*
Y2464D02*
X19903Y2478D01*
X19913Y2488D01*
X19923Y2492D01*
X19937D01*
X19970D02*
X19960Y2488D01*
X19951Y2478D01*
X19946Y2464D01*
Y2454D01*
X19951Y2440D01*
X19960Y2431D01*
X19970Y2426D01*
X19984D01*
X19993Y2431D01*
X20003Y2440D01*
X20008Y2454D01*
Y2464D01*
X20003Y2478D01*
X19993Y2488D01*
X19984Y2492D01*
X19970D01*
X20030D02*
Y2426D01*
Y2464D02*
X20034Y2478D01*
X20044Y2488D01*
X20053Y2492D01*
X20068D01*
X20227Y2502D02*
X20222Y2511D01*
X20212Y2521D01*
X20203Y2526D01*
X20184D01*
X20174Y2521D01*
X20165Y2511D01*
X20160Y2502D01*
X20155Y2488D01*
Y2464D01*
X20160Y2450D01*
X20165Y2440D01*
X20174Y2431D01*
X20184Y2426D01*
X20203D01*
X20212Y2431D01*
X20222Y2440D01*
X20227Y2450D01*
X20279Y2492D02*
X20269Y2488D01*
X20260Y2478D01*
X20255Y2464D01*
Y2454D01*
X20260Y2440D01*
X20269Y2431D01*
X20279Y2426D01*
X20293D01*
X20302Y2431D01*
X20312Y2440D01*
X20317Y2454D01*
Y2464D01*
X20312Y2478D01*
X20302Y2488D01*
X20293Y2492D01*
X20279D01*
X20339D02*
X20367Y2426D01*
X20396Y2492D02*
X20367Y2426D01*
X20412Y2464D02*
X20469D01*
Y2473D01*
X20464Y2483D01*
X20460Y2488D01*
X20450Y2492D01*
X20436D01*
X20426Y2488D01*
X20417Y2478D01*
X20412Y2464D01*
Y2454D01*
X20417Y2440D01*
X20426Y2431D01*
X20436Y2426D01*
X20450D01*
X20460Y2431D01*
X20469Y2440D01*
X20490Y2492D02*
Y2426D01*
Y2464D02*
X20495Y2478D01*
X20505Y2488D01*
X20514Y2492D01*
X20529D01*
X20688Y2502D02*
X20683Y2511D01*
X20673Y2521D01*
X20664Y2526D01*
X20645D01*
X20635Y2521D01*
X20626Y2511D01*
X20621Y2502D01*
X20616Y2488D01*
Y2464D01*
X20621Y2450D01*
X20626Y2440D01*
X20635Y2431D01*
X20645Y2426D01*
X20664D01*
X20673Y2431D01*
X20683Y2440D01*
X20688Y2450D01*
X20739Y2492D02*
X20730Y2488D01*
X20720Y2478D01*
X20716Y2464D01*
Y2454D01*
X20720Y2440D01*
X20730Y2431D01*
X20739Y2426D01*
X20754D01*
X20763Y2431D01*
X20773Y2440D01*
X20778Y2454D01*
Y2464D01*
X20773Y2478D01*
X20763Y2488D01*
X20754Y2492D01*
X20739D01*
X20799D02*
Y2426D01*
Y2473D02*
X20814Y2488D01*
X20823Y2492D01*
X20838D01*
X20847Y2488D01*
X20852Y2473D01*
Y2426D01*
X20892Y2526D02*
Y2445D01*
X20897Y2431D01*
X20907Y2426D01*
X20916D01*
X20878Y2492D02*
X20911D01*
X20930D02*
Y2426D01*
Y2464D02*
X20935Y2478D01*
X20945Y2488D01*
X20954Y2492D01*
X20968D01*
X21001D02*
X20992Y2488D01*
X20982Y2478D01*
X20978Y2464D01*
Y2454D01*
X20982Y2440D01*
X20992Y2431D01*
X21001Y2426D01*
X21016D01*
X21025Y2431D01*
X21035Y2440D01*
X21039Y2454D01*
Y2464D01*
X21035Y2478D01*
X21025Y2488D01*
X21016Y2492D01*
X21001D01*
X21061Y2526D02*
Y2426D01*
X21082Y2526D02*
Y2426D01*
X21103Y2464D02*
X21160D01*
Y2473D01*
X21156Y2483D01*
X21151Y2488D01*
X21141Y2492D01*
X21127D01*
X21117Y2488D01*
X21108Y2478D01*
X21103Y2464D01*
Y2454D01*
X21108Y2440D01*
X21117Y2431D01*
X21127Y2426D01*
X21141D01*
X21151Y2431D01*
X21160Y2440D01*
X21182Y2492D02*
Y2426D01*
Y2464D02*
X21187Y2478D01*
X21196Y2488D01*
X21206Y2492D01*
X21220D01*
X20220Y2177D02*
X20214Y2189D01*
X20203Y2200D01*
X20191Y2206D01*
X20168D01*
X20157Y2200D01*
X20146Y2189D01*
X20140Y2177D01*
X20134Y2160D01*
Y2131D01*
X20140Y2114D01*
X20146Y2103D01*
X20157Y2091D01*
X20168Y2086D01*
X20191D01*
X20203Y2091D01*
X20214Y2103D01*
X20220Y2114D01*
Y2131D01*
X20191D02*
X20220D01*
X20247Y2206D02*
Y2086D01*
Y2206D02*
X20287D01*
X20304Y2200D01*
X20316Y2189D01*
X20322Y2177D01*
X20327Y2160D01*
Y2131D01*
X20322Y2114D01*
X20316Y2103D01*
X20304Y2091D01*
X20287Y2086D01*
X20247D01*
X20354Y2183D02*
X20366Y2189D01*
X20383Y2206D01*
Y2086D01*
X18520Y2177D02*
X18514Y2189D01*
X18503Y2200D01*
X18491Y2206D01*
X18468D01*
X18457Y2200D01*
X18446Y2189D01*
X18440Y2177D01*
X18434Y2160D01*
Y2131D01*
X18440Y2114D01*
X18446Y2103D01*
X18457Y2091D01*
X18468Y2086D01*
X18491D01*
X18503Y2091D01*
X18514Y2103D01*
X18520Y2114D01*
D19*
X20985Y2201D02*
Y2207D01*
X20992Y2219D01*
X20998Y2226D01*
X21010Y2232D01*
X21035D01*
X21047Y2226D01*
X21053Y2219D01*
X21060Y2207D01*
Y2195D01*
X21053Y2182D01*
X21041Y2164D01*
X20979Y2102D01*
X21066D01*
X19825Y2157D02*
X19936D01*
D20*
X20839Y2272D02*
Y2240D01*
Y2272D02*
X20853D01*
X20857Y2270D01*
X20859Y2269D01*
X20860Y2266D01*
Y2263D01*
X20859Y2260D01*
X20857Y2258D01*
X20853Y2257D01*
X20839D01*
X20850D02*
X20860Y2240D01*
X20887Y2272D02*
X20868D01*
Y2240D01*
X20887D01*
X20868Y2257D02*
X20880D01*
X20893Y2272D02*
X20905Y2240D01*
X20917Y2272D02*
X20905Y2240D01*
X21320Y2267D02*
X21317Y2270D01*
X21313Y2272D01*
X21307D01*
X21302Y2270D01*
X21299Y2267D01*
Y2264D01*
X21301Y2261D01*
X21302Y2260D01*
X21305Y2258D01*
X21314Y2255D01*
X21317Y2254D01*
X21319Y2252D01*
X21320Y2249D01*
Y2245D01*
X21317Y2242D01*
X21313Y2240D01*
X21307D01*
X21302Y2242D01*
X21299Y2245D01*
X21328Y2272D02*
Y2240D01*
X21349Y2272D02*
Y2240D01*
X21328Y2257D02*
X21349D01*
X21378Y2272D02*
X21358D01*
Y2240D01*
X21378D01*
X21358Y2257D02*
X21370D01*
X21403Y2272D02*
X21383D01*
Y2240D01*
X21403D01*
X21383Y2257D02*
X21395D01*
X21419Y2272D02*
Y2240D01*
X21408Y2272D02*
X21429D01*
X18759D02*
Y2240D01*
Y2272D02*
X18770D01*
X18774Y2270D01*
X18777Y2267D01*
X18779Y2264D01*
X18780Y2260D01*
Y2252D01*
X18779Y2248D01*
X18777Y2245D01*
X18774Y2242D01*
X18770Y2240D01*
X18759D01*
X18797Y2272D02*
X18794Y2270D01*
X18791Y2267D01*
X18789Y2264D01*
X18788Y2260D01*
Y2252D01*
X18789Y2248D01*
X18791Y2245D01*
X18794Y2242D01*
X18797Y2240D01*
X18803D01*
X18806Y2242D01*
X18809Y2245D01*
X18810Y2248D01*
X18812Y2252D01*
Y2260D01*
X18810Y2264D01*
X18809Y2267D01*
X18806Y2270D01*
X18803Y2272D01*
X18797D01*
X18842Y2264D02*
X18841Y2267D01*
X18838Y2270D01*
X18835Y2272D01*
X18829D01*
X18826Y2270D01*
X18823Y2267D01*
X18821Y2264D01*
X18819Y2260D01*
Y2252D01*
X18821Y2248D01*
X18823Y2245D01*
X18826Y2242D01*
X18829Y2240D01*
X18835D01*
X18838Y2242D01*
X18841Y2245D01*
X18842Y2248D01*
X18876Y2272D02*
Y2240D01*
Y2272D02*
X18898Y2240D01*
Y2272D02*
Y2240D01*
X18916Y2272D02*
X18913Y2270D01*
X18910Y2267D01*
X18908Y2264D01*
X18907Y2260D01*
Y2252D01*
X18908Y2248D01*
X18910Y2245D01*
X18913Y2242D01*
X18916Y2240D01*
X18922D01*
X18925Y2242D01*
X18928Y2245D01*
X18929Y2248D01*
X18931Y2252D01*
Y2260D01*
X18929Y2264D01*
X18928Y2267D01*
X18925Y2270D01*
X18922Y2272D01*
X18916D01*
X18940Y2243D02*
X18938Y2242D01*
X18940Y2240D01*
X18942Y2242D01*
X18940Y2243D01*
X18320Y2267D02*
X18317Y2270D01*
X18313Y2272D01*
X18307D01*
X18302Y2270D01*
X18299Y2267D01*
Y2264D01*
X18301Y2261D01*
X18302Y2260D01*
X18305Y2258D01*
X18314Y2255D01*
X18317Y2254D01*
X18319Y2252D01*
X18320Y2249D01*
Y2245D01*
X18317Y2242D01*
X18313Y2240D01*
X18307D01*
X18302Y2242D01*
X18299Y2245D01*
X18328Y2272D02*
Y2240D01*
X18356Y2272D02*
X18334Y2240D01*
Y2272D02*
X18356D01*
X18334Y2240D02*
X18356D01*
X18383Y2272D02*
X18363D01*
Y2240D01*
X18383D01*
X18363Y2257D02*
X18375D01*
X18310Y2602D02*
Y2570D01*
X18299Y2602D02*
X18320D01*
X18324D02*
Y2570D01*
X18342Y2602D02*
Y2570D01*
X18331Y2602D02*
X18352D01*
X18356D02*
Y2570D01*
X18374D01*
X18398Y2602D02*
X18378D01*
Y2570D01*
X18398D01*
X18378Y2587D02*
X18390D01*
X21420Y2887D02*
X21417Y2890D01*
X21413Y2892D01*
X21407D01*
X21402Y2890D01*
X21399Y2887D01*
Y2884D01*
X21401Y2881D01*
X21402Y2880D01*
X21405Y2878D01*
X21414Y2875D01*
X21417Y2874D01*
X21419Y2872D01*
X21420Y2869D01*
Y2865D01*
X21417Y2862D01*
X21413Y2860D01*
X21407D01*
X21402Y2862D01*
X21399Y2865D01*
X21450Y2884D02*
X21449Y2887D01*
X21446Y2890D01*
X21443Y2892D01*
X21437D01*
X21434Y2890D01*
X21431Y2887D01*
X21429Y2884D01*
X21428Y2880D01*
Y2872D01*
X21429Y2868D01*
X21431Y2865D01*
X21434Y2862D01*
X21437Y2860D01*
X21443D01*
X21446Y2862D01*
X21449Y2865D01*
X21450Y2868D01*
X21484Y2860D02*
X21472Y2892D01*
X21459Y2860D01*
X21464Y2871D02*
X21479D01*
X21491Y2892D02*
Y2860D01*
X21510D01*
X21533Y2892D02*
X21513D01*
Y2860D01*
X21533D01*
X21513Y2877D02*
X21525D01*
X19849Y2892D02*
Y2860D01*
Y2892D02*
X19860D01*
X19864Y2890D01*
X19867Y2887D01*
X19869Y2884D01*
X19870Y2880D01*
Y2872D01*
X19869Y2868D01*
X19867Y2865D01*
X19864Y2862D01*
X19860Y2860D01*
X19849D01*
X19878Y2892D02*
Y2860D01*
Y2892D02*
X19891D01*
X19896Y2890D01*
X19897Y2889D01*
X19899Y2886D01*
Y2883D01*
X19897Y2880D01*
X19896Y2878D01*
X19891Y2877D01*
X19878D01*
X19888D02*
X19899Y2860D01*
X19930D02*
X19918Y2892D01*
X19906Y2860D01*
X19911Y2871D02*
X19926D01*
X19938Y2892D02*
X19946Y2860D01*
X19953Y2892D02*
X19946Y2860D01*
X19953Y2892D02*
X19961Y2860D01*
X19968Y2892D02*
X19961Y2860D01*
X19975Y2892D02*
Y2860D01*
Y2892D02*
X19996Y2860D01*
Y2892D02*
Y2860D01*
X18299Y2892D02*
Y2860D01*
Y2892D02*
X18310D01*
X18314Y2890D01*
X18317Y2887D01*
X18319Y2884D01*
X18320Y2880D01*
Y2872D01*
X18319Y2868D01*
X18317Y2865D01*
X18314Y2862D01*
X18310Y2860D01*
X18299D01*
X18347Y2892D02*
X18328D01*
Y2860D01*
X18347D01*
X18328Y2877D02*
X18340D01*
X18374Y2887D02*
X18371Y2890D01*
X18366Y2892D01*
X18360D01*
X18356Y2890D01*
X18353Y2887D01*
Y2884D01*
X18354Y2881D01*
X18356Y2880D01*
X18359Y2878D01*
X18368Y2875D01*
X18371Y2874D01*
X18373Y2872D01*
X18374Y2869D01*
Y2865D01*
X18371Y2862D01*
X18366Y2860D01*
X18360D01*
X18356Y2862D01*
X18353Y2865D01*
X18381Y2892D02*
Y2860D01*
X18411Y2884D02*
X18409Y2887D01*
X18406Y2890D01*
X18403Y2892D01*
X18397D01*
X18394Y2890D01*
X18391Y2887D01*
X18389Y2884D01*
X18388Y2880D01*
Y2872D01*
X18389Y2868D01*
X18391Y2865D01*
X18394Y2862D01*
X18397Y2860D01*
X18403D01*
X18406Y2862D01*
X18409Y2865D01*
X18411Y2868D01*
Y2872D01*
X18403D02*
X18411D01*
X18418Y2892D02*
Y2860D01*
Y2892D02*
X18439Y2860D01*
Y2892D02*
Y2860D01*
X18468Y2892D02*
X18448D01*
Y2860D01*
X18468D01*
X18448Y2877D02*
X18460D01*
X18473Y2892D02*
Y2860D01*
Y2892D02*
X18484D01*
X18489Y2890D01*
X18492Y2887D01*
X18493Y2884D01*
X18495Y2880D01*
Y2872D01*
X18493Y2868D01*
X18492Y2865D01*
X18489Y2862D01*
X18484Y2860D01*
X18473D01*
D21*
X21684Y2815D02*
X21693Y2819D01*
X21706Y2832D01*
Y2742D01*
X21825Y2802D02*
X21821Y2797D01*
X21825Y2793D01*
X21829Y2797D01*
X21825Y2802D01*
Y2750D02*
X21821Y2746D01*
X21825Y2742D01*
X21829Y2746D01*
X21825Y2750D01*
X21920Y2815D02*
X21928Y2819D01*
X21941Y2832D01*
Y2742D01*
X1414Y2547D02*
Y2447D01*
Y2547D02*
X1481Y2447D01*
Y2547D02*
Y2447D01*
X1537Y2547D02*
X1527Y2542D01*
X1518Y2532D01*
X1513Y2523D01*
X1508Y2509D01*
Y2485D01*
X1513Y2471D01*
X1518Y2461D01*
X1527Y2452D01*
X1537Y2447D01*
X1556D01*
X1566Y2452D01*
X1575Y2461D01*
X1580Y2471D01*
X1585Y2485D01*
Y2509D01*
X1580Y2523D01*
X1575Y2532D01*
X1566Y2542D01*
X1556Y2547D01*
X1537D01*
X1641D02*
Y2447D01*
X1608Y2547D02*
X1675D01*
X1686D02*
Y2447D01*
X1779Y2523D02*
X1774Y2532D01*
X1765Y2542D01*
X1755Y2547D01*
X1736D01*
X1726Y2542D01*
X1717Y2532D01*
X1712Y2523D01*
X1707Y2509D01*
Y2485D01*
X1712Y2471D01*
X1717Y2461D01*
X1726Y2452D01*
X1736Y2447D01*
X1755D01*
X1765Y2452D01*
X1774Y2461D01*
X1779Y2471D01*
X1869Y2547D02*
X1807D01*
Y2447D01*
X1869D01*
X1807Y2499D02*
X1845D01*
X4543Y13379D02*
X4532Y13391D01*
X4515Y13397D01*
X4492D01*
X4475Y13391D01*
X4463Y13379D01*
Y13368D01*
X4469Y13357D01*
X4475Y13351D01*
X4486Y13345D01*
X4520Y13334D01*
X4532Y13328D01*
X4538Y13322D01*
X4543Y13311D01*
Y13294D01*
X4532Y13282D01*
X4515Y13277D01*
X4492D01*
X4475Y13282D01*
X4463Y13294D01*
X4576Y13357D02*
X4610Y13277D01*
X4644Y13357D02*
X4610Y13277D01*
X4599Y13254D01*
X4587Y13242D01*
X4576Y13237D01*
X4570D01*
X4664Y13357D02*
Y13277D01*
Y13334D02*
X4682Y13351D01*
X4693Y13357D01*
X4710D01*
X4722Y13351D01*
X4727Y13334D01*
Y13277D01*
Y13334D02*
X4744Y13351D01*
X4756Y13357D01*
X4773D01*
X4784Y13351D01*
X4790Y13334D01*
Y13277D01*
X4828Y13397D02*
Y13277D01*
Y13339D02*
X4839Y13351D01*
X4851Y13357D01*
X4868D01*
X4879Y13351D01*
X4891Y13339D01*
X4896Y13322D01*
Y13311D01*
X4891Y13294D01*
X4879Y13282D01*
X4868Y13277D01*
X4851D01*
X4839Y13282D01*
X4828Y13294D01*
X4951Y13357D02*
X4939Y13351D01*
X4928Y13339D01*
X4922Y13322D01*
Y13311D01*
X4928Y13294D01*
X4939Y13282D01*
X4951Y13277D01*
X4968D01*
X4979Y13282D01*
X4991Y13294D01*
X4996Y13311D01*
Y13322D01*
X4991Y13339D01*
X4979Y13351D01*
X4968Y13357D01*
X4951D01*
X5023Y13397D02*
Y13277D01*
X5191Y13397D02*
Y13277D01*
X5271Y13397D02*
Y13277D01*
X5191Y13339D02*
X5271D01*
X5315Y13397D02*
X5321Y13391D01*
X5327Y13397D01*
X5321Y13402D01*
X5315Y13397D01*
X5321Y13357D02*
Y13277D01*
X5365Y13397D02*
Y13299D01*
X5371Y13282D01*
X5382Y13277D01*
X5393D01*
X5348Y13357D02*
X5388D01*
X5590Y13368D02*
X5585Y13379D01*
X5573Y13391D01*
X5562Y13397D01*
X5539D01*
X5528Y13391D01*
X5516Y13379D01*
X5511Y13368D01*
X5505Y13351D01*
Y13322D01*
X5511Y13305D01*
X5516Y13294D01*
X5528Y13282D01*
X5539Y13277D01*
X5562D01*
X5573Y13282D01*
X5585Y13294D01*
X5590Y13305D01*
X5653Y13357D02*
X5641Y13351D01*
X5630Y13339D01*
X5624Y13322D01*
Y13311D01*
X5630Y13294D01*
X5641Y13282D01*
X5653Y13277D01*
X5670D01*
X5681Y13282D01*
X5693Y13294D01*
X5698Y13311D01*
Y13322D01*
X5693Y13339D01*
X5681Y13351D01*
X5670Y13357D01*
X5653D01*
X5725D02*
Y13299D01*
X5730Y13282D01*
X5742Y13277D01*
X5759D01*
X5770Y13282D01*
X5788Y13299D01*
Y13357D02*
Y13277D01*
X5819Y13357D02*
Y13277D01*
Y13334D02*
X5836Y13351D01*
X5848Y13357D01*
X5865D01*
X5876Y13351D01*
X5882Y13334D01*
Y13277D01*
X5930Y13397D02*
Y13299D01*
X5936Y13282D01*
X5948Y13277D01*
X5959D01*
X5913Y13357D02*
X5953D01*
X6127Y13397D02*
Y13277D01*
Y13397D02*
X6201D01*
X6127Y13339D02*
X6173D01*
X6226Y13397D02*
X6232Y13391D01*
X6238Y13397D01*
X6232Y13402D01*
X6226Y13397D01*
X6232Y13357D02*
Y13277D01*
X6259Y13357D02*
Y13277D01*
Y13334D02*
X6276Y13351D01*
X6288Y13357D01*
X6305D01*
X6316Y13351D01*
X6322Y13334D01*
Y13277D01*
X6365Y13397D02*
X6370Y13391D01*
X6376Y13397D01*
X6370Y13402D01*
X6365Y13397D01*
X6370Y13357D02*
Y13277D01*
X6460Y13339D02*
X6454Y13351D01*
X6437Y13357D01*
X6420D01*
X6403Y13351D01*
X6397Y13339D01*
X6403Y13328D01*
X6414Y13322D01*
X6443Y13317D01*
X6454Y13311D01*
X6460Y13299D01*
Y13294D01*
X6454Y13282D01*
X6437Y13277D01*
X6420D01*
X6403Y13282D01*
X6397Y13294D01*
X6485Y13397D02*
Y13277D01*
Y13334D02*
X6502Y13351D01*
X6514Y13357D01*
X6531D01*
X6542Y13351D01*
X6548Y13334D01*
Y13277D01*
X6579Y13322D02*
X6648D01*
Y13334D01*
X6642Y13345D01*
X6637Y13351D01*
X6625Y13357D01*
X6608D01*
X6597Y13351D01*
X6585Y13339D01*
X6579Y13322D01*
Y13311D01*
X6585Y13294D01*
X6597Y13282D01*
X6608Y13277D01*
X6625D01*
X6637Y13282D01*
X6648Y13294D01*
X6742Y13397D02*
Y13277D01*
Y13339D02*
X6731Y13351D01*
X6719Y13357D01*
X6702D01*
X6691Y13351D01*
X6679Y13339D01*
X6674Y13322D01*
Y13311D01*
X6679Y13294D01*
X6691Y13282D01*
X6702Y13277D01*
X6719D01*
X6731Y13282D01*
X6742Y13294D01*
X6869Y13397D02*
Y13277D01*
X6949Y13397D02*
Y13277D01*
X6869Y13339D02*
X6949D01*
X7010Y13357D02*
X6999Y13351D01*
X6987Y13339D01*
X6982Y13322D01*
Y13311D01*
X6987Y13294D01*
X6999Y13282D01*
X7010Y13277D01*
X7027D01*
X7039Y13282D01*
X7050Y13294D01*
X7056Y13311D01*
Y13322D01*
X7050Y13339D01*
X7039Y13351D01*
X7027Y13357D01*
X7010D01*
X7082Y13397D02*
Y13277D01*
X7107Y13322D02*
X7176D01*
Y13334D01*
X7170Y13345D01*
X7164Y13351D01*
X7153Y13357D01*
X7136D01*
X7124Y13351D01*
X7113Y13339D01*
X7107Y13322D01*
Y13311D01*
X7113Y13294D01*
X7124Y13282D01*
X7136Y13277D01*
X7153D01*
X7164Y13282D01*
X7176Y13294D01*
X7376Y13379D02*
X7364Y13391D01*
X7347Y13397D01*
X7324D01*
X7307Y13391D01*
X7296Y13379D01*
Y13368D01*
X7302Y13357D01*
X7307Y13351D01*
X7319Y13345D01*
X7353Y13334D01*
X7364Y13328D01*
X7370Y13322D01*
X7376Y13311D01*
Y13294D01*
X7364Y13282D01*
X7347Y13277D01*
X7324D01*
X7307Y13282D01*
X7296Y13294D01*
X7414Y13397D02*
X7420Y13391D01*
X7426Y13397D01*
X7420Y13402D01*
X7414Y13397D01*
X7420Y13357D02*
Y13277D01*
X7510Y13357D02*
X7447Y13277D01*
Y13357D02*
X7510D01*
X7447Y13277D02*
X7510D01*
X7535Y13322D02*
X7603D01*
Y13334D01*
X7598Y13345D01*
X7592Y13351D01*
X7580Y13357D01*
X7563D01*
X7552Y13351D01*
X7540Y13339D01*
X7535Y13322D01*
Y13311D01*
X7540Y13294D01*
X7552Y13282D01*
X7563Y13277D01*
X7580D01*
X7592Y13282D01*
X7603Y13294D01*
X8013Y13334D02*
X8065D01*
X8082Y13339D01*
X8087Y13345D01*
X8093Y13357D01*
Y13374D01*
X8087Y13385D01*
X8082Y13391D01*
X8065Y13397D01*
X8013D01*
Y13277D01*
X8120Y13397D02*
Y13277D01*
X8214Y13357D02*
Y13277D01*
Y13339D02*
X8202Y13351D01*
X8191Y13357D01*
X8174D01*
X8162Y13351D01*
X8151Y13339D01*
X8145Y13322D01*
Y13311D01*
X8151Y13294D01*
X8162Y13282D01*
X8174Y13277D01*
X8191D01*
X8202Y13282D01*
X8214Y13294D01*
X8263Y13397D02*
Y13299D01*
X8268Y13282D01*
X8280Y13277D01*
X8291D01*
X8246Y13357D02*
X8286D01*
X8308Y13322D02*
X8377D01*
Y13334D01*
X8371Y13345D01*
X8366Y13351D01*
X8354Y13357D01*
X8337D01*
X8326Y13351D01*
X8314Y13339D01*
X8308Y13322D01*
Y13311D01*
X8314Y13294D01*
X8326Y13282D01*
X8337Y13277D01*
X8354D01*
X8366Y13282D01*
X8377Y13294D01*
X8471Y13397D02*
Y13277D01*
Y13339D02*
X8460Y13351D01*
X8448Y13357D01*
X8431D01*
X8420Y13351D01*
X8408Y13339D01*
X8403Y13322D01*
Y13311D01*
X8408Y13294D01*
X8420Y13282D01*
X8431Y13277D01*
X8448D01*
X8460Y13282D01*
X8471Y13294D01*
X8639Y13397D02*
Y13277D01*
X8719Y13397D02*
Y13277D01*
X8639Y13339D02*
X8719D01*
X8781Y13357D02*
X8770Y13351D01*
X8758Y13339D01*
X8752Y13322D01*
Y13311D01*
X8758Y13294D01*
X8770Y13282D01*
X8781Y13277D01*
X8798D01*
X8810Y13282D01*
X8821Y13294D01*
X8827Y13311D01*
Y13322D01*
X8821Y13339D01*
X8810Y13351D01*
X8798Y13357D01*
X8781D01*
X8853Y13397D02*
Y13277D01*
X8878Y13322D02*
X8947D01*
Y13334D01*
X8941Y13345D01*
X8935Y13351D01*
X8924Y13357D01*
X8907D01*
X8895Y13351D01*
X8884Y13339D01*
X8878Y13322D01*
Y13311D01*
X8884Y13294D01*
X8895Y13282D01*
X8907Y13277D01*
X8924D01*
X8935Y13282D01*
X8947Y13294D01*
X9107Y13397D02*
Y13277D01*
X9067Y13397D02*
X9147D01*
X9167Y13357D02*
X9201Y13277D01*
X9235Y13357D02*
X9201Y13277D01*
X9189Y13254D01*
X9178Y13242D01*
X9167Y13237D01*
X9161D01*
X9255Y13357D02*
Y13237D01*
Y13339D02*
X9267Y13351D01*
X9278Y13357D01*
X9295D01*
X9307Y13351D01*
X9318Y13339D01*
X9324Y13322D01*
Y13311D01*
X9318Y13294D01*
X9307Y13282D01*
X9295Y13277D01*
X9278D01*
X9267Y13282D01*
X9255Y13294D01*
X9349Y13322D02*
X9418D01*
Y13334D01*
X9412Y13345D01*
X9407Y13351D01*
X9395Y13357D01*
X9378D01*
X9367Y13351D01*
X9355Y13339D01*
X9349Y13322D01*
Y13311D01*
X9355Y13294D01*
X9367Y13282D01*
X9378Y13277D01*
X9395D01*
X9407Y13282D01*
X9418Y13294D01*
X4327Y13457D02*
X9586D01*
X4327Y13187D02*
X9586D01*
X4327Y13457D02*
Y9987D01*
X9586Y13457D02*
Y9987D01*
X5123Y13457D02*
Y9987D01*
X6059Y13457D02*
Y9987D01*
X7945Y13457D02*
Y9987D01*
X8571Y13457D02*
Y9987D01*
X4327Y10187D02*
X9586D01*
X4327Y9987D02*
X9586D01*
D22*
X21746Y2197D02*
X21741Y2194D01*
X21735Y2188D01*
X21732Y2182D01*
X21729Y2174D01*
Y2160D01*
X21732Y2151D01*
X21735Y2145D01*
X21741Y2140D01*
X21746Y2137D01*
X21758D01*
X21763Y2140D01*
X21769Y2145D01*
X21772Y2151D01*
X21775Y2160D01*
Y2174D01*
X21772Y2182D01*
X21769Y2188D01*
X21763Y2194D01*
X21758Y2197D01*
X21746D01*
X21789D02*
Y2137D01*
Y2197D02*
X21826D01*
X21789Y2168D02*
X21812D01*
D23*
X4543Y12087D02*
X4542Y12097D01*
X4538Y12106D01*
X4532Y12114D01*
X4525Y12120D01*
X4516Y12125D01*
X4506Y12127D01*
X4496Y12126D01*
X4486Y12123D01*
X4478Y12117D01*
X4471Y12110D01*
X4466Y12101D01*
X4464Y12092D01*
Y12082D01*
X4466Y12072D01*
X4471Y12063D01*
X4478Y12056D01*
X4486Y12050D01*
X4496Y12047D01*
X4506Y12047D01*
X4516Y12049D01*
X4525Y12053D01*
X4532Y12059D01*
X4538Y12067D01*
X4542Y12077D01*
X4543Y12087D01*
Y11687D02*
X4542Y11697D01*
X4538Y11706D01*
X4532Y11714D01*
X4525Y11720D01*
X4516Y11725D01*
X4506Y11727D01*
X4496Y11726D01*
X4486Y11723D01*
X4478Y11717D01*
X4471Y11710D01*
X4466Y11701D01*
X4464Y11692D01*
Y11682D01*
X4466Y11672D01*
X4471Y11663D01*
X4478Y11656D01*
X4486Y11650D01*
X4496Y11647D01*
X4506Y11647D01*
X4516Y11649D01*
X4525Y11653D01*
X4532Y11659D01*
X4538Y11667D01*
X4542Y11677D01*
X4543Y11687D01*
D24*
X4527Y12087D02*
X4525Y12096D01*
X4519Y12104D01*
X4511Y12109D01*
X4501Y12110D01*
X4491Y12107D01*
X4484Y12101D01*
X4480Y12092D01*
Y12082D01*
X4484Y12073D01*
X4491Y12066D01*
X4501Y12063D01*
X4511Y12064D01*
X4519Y12069D01*
X4525Y12077D01*
X4527Y12087D01*
M02*
