%FSLAX23Y23*%
%MOIN*%
G70*
G01*
G75*
G04 Layer_Physical_Order=5*
G04 Layer_Color=32768*
%ADD10C,0.005*%
%ADD11R,0.050X0.050*%
%ADD12R,0.020X0.709*%
%ADD13R,0.085X0.016*%
%ADD14O,0.098X0.028*%
%ADD15R,0.050X0.050*%
%ADD16R,0.035X0.037*%
%ADD17R,0.035X0.037*%
%ADD18R,0.100X0.100*%
%ADD19R,0.048X0.078*%
%ADD20O,0.087X0.024*%
%ADD21C,0.010*%
%ADD22C,0.025*%
%ADD23C,0.012*%
%ADD24C,0.008*%
%ADD25C,0.012*%
%ADD26C,0.012*%
%ADD27C,0.250*%
%ADD28C,0.059*%
%ADD29R,0.059X0.059*%
%ADD30C,0.050*%
%ADD31C,0.080*%
%ADD32C,0.067*%
%ADD33C,0.067*%
%ADD34C,0.187*%
%ADD35R,0.067X0.067*%
%ADD36C,0.055*%
%ADD37C,0.047*%
%ADD38R,0.059X0.059*%
%ADD39C,0.059*%
%ADD40R,0.087X0.087*%
%ADD41C,0.087*%
%ADD42R,0.059X0.059*%
%ADD43O,0.079X0.039*%
%ADD44O,0.079X0.039*%
%ADD45C,0.045*%
%ADD46C,0.024*%
%ADD47C,0.010*%
%ADD48C,0.050*%
%ADD49C,0.040*%
%ADD50C,0.145*%
%ADD51C,0.055*%
G04:AMPARAMS|DCode=52|XSize=85mil|YSize=85mil|CornerRadius=0mil|HoleSize=0mil|Usage=FLASHONLY|Rotation=0.000|XOffset=0mil|YOffset=0mil|HoleType=Round|Shape=Relief|Width=10mil|Gap=10mil|Entries=4|*
%AMTHD52*
7,0,0,0.085,0.065,0.010,45*
%
%ADD52THD52*%
%ADD53C,0.072*%
%ADD54C,0.063*%
%ADD55C,0.063*%
%ADD56C,0.148*%
%ADD57C,0.053*%
%ADD58C,0.048*%
%ADD59C,0.055*%
G04:AMPARAMS|DCode=60|XSize=95.433mil|YSize=95.433mil|CornerRadius=0mil|HoleSize=0mil|Usage=FLASHONLY|Rotation=0.000|XOffset=0mil|YOffset=0mil|HoleType=Round|Shape=Relief|Width=10mil|Gap=10mil|Entries=4|*
%AMTHD60*
7,0,0,0.095,0.075,0.010,45*
%
%ADD60THD60*%
%ADD61C,0.067*%
G04:AMPARAMS|DCode=62|XSize=95.433mil|YSize=95.433mil|CornerRadius=0mil|HoleSize=0mil|Usage=FLASHONLY|Rotation=0.000|XOffset=0mil|YOffset=0mil|HoleType=Round|Shape=Relief|Width=10mil|Gap=10mil|Entries=4|*
%AMTHD62*
7,0,0,0.095,0.075,0.010,45*
%
%ADD62THD62*%
G04:AMPARAMS|DCode=63|XSize=112mil|YSize=112mil|CornerRadius=0mil|HoleSize=0mil|Usage=FLASHONLY|Rotation=0.000|XOffset=0mil|YOffset=0mil|HoleType=Round|Shape=Relief|Width=10mil|Gap=10mil|Entries=4|*
%AMTHD63*
7,0,0,0.112,0.092,0.010,45*
%
%ADD63THD63*%
%ADD64C,0.030*%
G04:AMPARAMS|DCode=65|XSize=70mil|YSize=70mil|CornerRadius=0mil|HoleSize=0mil|Usage=FLASHONLY|Rotation=0.000|XOffset=0mil|YOffset=0mil|HoleType=Round|Shape=Relief|Width=10mil|Gap=10mil|Entries=4|*
%AMTHD65*
7,0,0,0.070,0.050,0.010,45*
%
%ADD65THD65*%
D24*
X-890Y220D02*
X-390D01*
X-640Y-30D02*
Y470D01*
X-690Y220D02*
Y270D01*
X-640D01*
X-590Y170D02*
Y220D01*
X-640Y170D02*
X-590D01*
X-635Y215D02*
X-595D01*
Y175D02*
Y215D01*
X-635Y175D02*
X-595D01*
X-635D02*
Y215D01*
X-630Y210D02*
X-600D01*
Y180D02*
Y210D01*
X-630Y180D02*
X-600D01*
X-630D02*
Y205D01*
X-625D02*
X-605D01*
Y185D02*
Y205D01*
X-625Y185D02*
X-605D01*
X-625D02*
Y200D01*
X-620D02*
X-610D01*
Y190D02*
Y200D01*
X-620Y190D02*
X-610D01*
X-620D02*
Y200D01*
Y195D02*
X-610D01*
X-685Y265D02*
X-645D01*
Y225D02*
Y265D01*
X-685Y225D02*
X-645D01*
X-685D02*
Y265D01*
X-680Y260D02*
X-650D01*
Y230D02*
Y260D01*
X-680Y230D02*
X-650D01*
X-680D02*
Y255D01*
X-675D02*
X-655D01*
Y235D02*
Y255D01*
X-675Y235D02*
X-655D01*
X-675D02*
Y250D01*
X-670D02*
X-660D01*
Y240D02*
Y250D01*
X-670Y240D02*
X-660D01*
X-670D02*
Y250D01*
Y245D02*
X-660D01*
X-632Y8269D02*
X-132D01*
X-382Y8019D02*
Y8519D01*
X-432Y8269D02*
Y8319D01*
X-382D01*
X-332Y8219D02*
Y8269D01*
X-382Y8219D02*
X-332D01*
X-377Y8264D02*
X-337D01*
Y8224D02*
Y8264D01*
X-377Y8224D02*
X-337D01*
X-377D02*
Y8264D01*
X-372Y8259D02*
X-342D01*
Y8229D02*
Y8259D01*
X-372Y8229D02*
X-342D01*
X-372D02*
Y8254D01*
X-367D02*
X-347D01*
Y8234D02*
Y8254D01*
X-367Y8234D02*
X-347D01*
X-367D02*
Y8249D01*
X-362D02*
X-352D01*
Y8239D02*
Y8249D01*
X-362Y8239D02*
X-352D01*
X-362D02*
Y8249D01*
Y8244D02*
X-352D01*
X-427Y8314D02*
X-387D01*
Y8274D02*
Y8314D01*
X-427Y8274D02*
X-387D01*
X-427D02*
Y8314D01*
X-422Y8309D02*
X-392D01*
Y8279D02*
Y8309D01*
X-422Y8279D02*
X-392D01*
X-422D02*
Y8304D01*
X-417D02*
X-397D01*
Y8284D02*
Y8304D01*
X-417Y8284D02*
X-397D01*
X-417D02*
Y8299D01*
X-412D02*
X-402D01*
Y8289D02*
Y8299D01*
X-412Y8289D02*
X-402D01*
X-412D02*
Y8299D01*
Y8294D02*
X-402D01*
X16609Y8510D02*
X17109D01*
X16859Y8260D02*
Y8760D01*
X16809Y8510D02*
Y8560D01*
X16859D01*
X16909Y8460D02*
Y8510D01*
X16859Y8460D02*
X16909D01*
X16864Y8505D02*
X16904D01*
Y8465D02*
Y8505D01*
X16864Y8465D02*
X16904D01*
X16864D02*
Y8505D01*
X16869Y8500D02*
X16899D01*
Y8470D02*
Y8500D01*
X16869Y8470D02*
X16899D01*
X16869D02*
Y8495D01*
X16874D02*
X16894D01*
Y8475D02*
Y8495D01*
X16874Y8475D02*
X16894D01*
X16874D02*
Y8490D01*
X16879D02*
X16889D01*
Y8480D02*
Y8490D01*
X16879Y8480D02*
X16889D01*
X16879D02*
Y8490D01*
Y8485D02*
X16889D01*
X16814Y8555D02*
X16854D01*
Y8515D02*
Y8555D01*
X16814Y8515D02*
X16854D01*
X16814D02*
Y8555D01*
X16819Y8550D02*
X16849D01*
Y8520D02*
Y8550D01*
X16819Y8520D02*
X16849D01*
X16819D02*
Y8545D01*
X16824D02*
X16844D01*
Y8525D02*
Y8545D01*
X16824Y8525D02*
X16844D01*
X16824D02*
Y8540D01*
X16829D02*
X16839D01*
Y8530D02*
Y8540D01*
X16829Y8530D02*
X16839D01*
X16829D02*
Y8540D01*
Y8535D02*
X16839D01*
D25*
X5049Y-248D02*
X5042Y-240D01*
X5030Y-236D01*
X5015D01*
X5004Y-240D01*
X4996Y-248D01*
Y-255D01*
X5000Y-263D01*
X5004Y-267D01*
X5011Y-271D01*
X5034Y-278D01*
X5042Y-282D01*
X5046Y-286D01*
X5049Y-294D01*
Y-305D01*
X5042Y-313D01*
X5030Y-316D01*
X5015D01*
X5004Y-313D01*
X4996Y-305D01*
X5067Y-236D02*
Y-316D01*
X5084Y-236D02*
Y-316D01*
Y-236D02*
X5137Y-316D01*
Y-236D02*
Y-316D01*
X5159Y-236D02*
Y-316D01*
X5229Y-248D02*
X5222Y-240D01*
X5210Y-236D01*
X5195D01*
X5184Y-240D01*
X5176Y-248D01*
Y-255D01*
X5180Y-263D01*
X5184Y-267D01*
X5191Y-271D01*
X5214Y-278D01*
X5222Y-282D01*
X5226Y-286D01*
X5229Y-294D01*
Y-305D01*
X5222Y-313D01*
X5210Y-316D01*
X5195D01*
X5184Y-313D01*
X5176Y-305D01*
X5274Y-236D02*
Y-316D01*
X5247Y-236D02*
X5301D01*
X5310D02*
Y-316D01*
Y-236D02*
X5344D01*
X5356Y-240D01*
X5360Y-244D01*
X5364Y-252D01*
Y-259D01*
X5360Y-267D01*
X5356Y-271D01*
X5344Y-275D01*
X5310D01*
X5337D02*
X5364Y-316D01*
X5404Y-236D02*
X5397Y-240D01*
X5389Y-248D01*
X5385Y-255D01*
X5381Y-267D01*
Y-286D01*
X5385Y-297D01*
X5389Y-305D01*
X5397Y-313D01*
X5404Y-316D01*
X5420D01*
X5427Y-313D01*
X5435Y-305D01*
X5439Y-297D01*
X5442Y-286D01*
Y-267D01*
X5439Y-255D01*
X5435Y-248D01*
X5427Y-240D01*
X5420Y-236D01*
X5404D01*
X5551D02*
Y-316D01*
X5524Y-236D02*
X5577D01*
X5636D02*
X5587D01*
Y-316D01*
X5636D01*
X5587Y-275D02*
X5617D01*
X5703Y-248D02*
X5695Y-240D01*
X5684Y-236D01*
X5669D01*
X5657Y-240D01*
X5650Y-248D01*
Y-255D01*
X5653Y-263D01*
X5657Y-267D01*
X5665Y-271D01*
X5688Y-278D01*
X5695Y-282D01*
X5699Y-286D01*
X5703Y-294D01*
Y-305D01*
X5695Y-313D01*
X5684Y-316D01*
X5669D01*
X5657Y-313D01*
X5650Y-305D01*
X5747Y-236D02*
Y-316D01*
X5721Y-236D02*
X5774D01*
X5784D02*
Y-316D01*
Y-236D02*
X5818D01*
X5829Y-240D01*
X5833Y-244D01*
X5837Y-252D01*
Y-259D01*
X5833Y-267D01*
X5829Y-271D01*
X5818Y-275D01*
X5784D02*
X5818D01*
X5829Y-278D01*
X5833Y-282D01*
X5837Y-290D01*
Y-301D01*
X5833Y-309D01*
X5829Y-313D01*
X5818Y-316D01*
X5784D01*
X5904Y-236D02*
X5855D01*
Y-316D01*
X5904D01*
X5855Y-275D02*
X5885D01*
X5918Y-236D02*
Y-316D01*
Y-236D02*
X5944D01*
X5956Y-240D01*
X5963Y-248D01*
X5967Y-255D01*
X5971Y-267D01*
Y-286D01*
X5967Y-297D01*
X5963Y-305D01*
X5956Y-313D01*
X5944Y-316D01*
X5918D01*
X6052Y-236D02*
Y-316D01*
Y-236D02*
X6086D01*
X6097Y-240D01*
X6101Y-244D01*
X6105Y-252D01*
Y-259D01*
X6101Y-267D01*
X6097Y-271D01*
X6086Y-275D01*
X6052D01*
X6078D02*
X6105Y-316D01*
X6123Y-286D02*
X6169D01*
Y-278D01*
X6165Y-271D01*
X6161Y-267D01*
X6153Y-263D01*
X6142D01*
X6134Y-267D01*
X6127Y-275D01*
X6123Y-286D01*
Y-294D01*
X6127Y-305D01*
X6134Y-313D01*
X6142Y-316D01*
X6153D01*
X6161Y-313D01*
X6169Y-305D01*
X6186Y-263D02*
X6209Y-316D01*
X6232Y-263D02*
X6209Y-316D01*
X6248Y-309D02*
X6244Y-313D01*
X6248Y-316D01*
X6252Y-313D01*
X6248Y-309D01*
X6393Y-316D02*
X6363Y-236D01*
X6332Y-316D01*
X6344Y-290D02*
X6382D01*
D26*
X5015Y-1746D02*
Y-1792D01*
X4996Y-1758D02*
X5034Y-1781D01*
Y-1758D02*
X4996Y-1781D01*
X5054Y-1819D02*
X5050Y-1823D01*
X5054Y-1826D01*
X5058Y-1823D01*
X5054Y-1819D01*
X5133Y-1765D02*
X5129Y-1758D01*
X5121Y-1750D01*
X5114Y-1746D01*
X5098D01*
X5091Y-1750D01*
X5083Y-1758D01*
X5079Y-1765D01*
X5076Y-1777D01*
Y-1796D01*
X5079Y-1807D01*
X5083Y-1815D01*
X5091Y-1823D01*
X5098Y-1826D01*
X5114D01*
X5121Y-1823D01*
X5129Y-1815D01*
X5133Y-1807D01*
Y-1796D01*
X5114D02*
X5133D01*
X5151Y-1788D02*
X5185D01*
X5197Y-1785D01*
X5201Y-1781D01*
X5204Y-1773D01*
Y-1762D01*
X5201Y-1754D01*
X5197Y-1750D01*
X5185Y-1746D01*
X5151D01*
Y-1826D01*
X5222Y-1762D02*
X5230Y-1758D01*
X5241Y-1746D01*
Y-1826D01*
X5344Y-1792D02*
X5412D01*
X5499Y-1746D02*
Y-1826D01*
X5516Y-1746D02*
Y-1826D01*
Y-1746D02*
X5569Y-1826D01*
Y-1746D02*
Y-1826D01*
X5618Y-1746D02*
Y-1826D01*
X5591Y-1746D02*
X5644D01*
X5703D02*
X5654D01*
Y-1826D01*
X5703D01*
X5654Y-1785D02*
X5684D01*
X5717Y-1746D02*
Y-1826D01*
Y-1746D02*
X5751D01*
X5762Y-1750D01*
X5766Y-1754D01*
X5770Y-1762D01*
Y-1769D01*
X5766Y-1777D01*
X5762Y-1781D01*
X5751Y-1785D01*
X5717D01*
X5743D02*
X5770Y-1826D01*
X5788Y-1746D02*
Y-1826D01*
Y-1746D02*
X5841Y-1826D01*
Y-1746D02*
Y-1826D01*
X5924D02*
X5894Y-1746D01*
X5863Y-1826D01*
X5875Y-1800D02*
X5913D01*
X5943Y-1746D02*
Y-1826D01*
X5989D01*
X6060Y-1788D02*
X6094D01*
X6106Y-1785D01*
X6110Y-1781D01*
X6113Y-1773D01*
Y-1762D01*
X6110Y-1754D01*
X6106Y-1750D01*
X6094Y-1746D01*
X6060D01*
Y-1826D01*
X6131Y-1746D02*
Y-1826D01*
X6177D01*
X6247D02*
X6216Y-1746D01*
X6186Y-1826D01*
X6197Y-1800D02*
X6235D01*
X6265Y-1746D02*
Y-1826D01*
Y-1746D02*
X6319Y-1826D01*
Y-1746D02*
Y-1826D01*
X6390Y-1746D02*
X6341D01*
Y-1826D01*
X6390D01*
X6341Y-1785D02*
X6371D01*
X6467Y-1746D02*
Y-1826D01*
X6512D01*
X6582D02*
X6551Y-1746D01*
X6521Y-1826D01*
X6532Y-1800D02*
X6571D01*
X6601Y-1746D02*
X6631Y-1785D01*
Y-1826D01*
X6662Y-1746D02*
X6631Y-1785D01*
X6721Y-1746D02*
X6672D01*
Y-1826D01*
X6721D01*
X6672Y-1785D02*
X6702D01*
X6735Y-1746D02*
Y-1826D01*
Y-1746D02*
X6769D01*
X6780Y-1750D01*
X6784Y-1754D01*
X6788Y-1762D01*
Y-1769D01*
X6784Y-1777D01*
X6780Y-1781D01*
X6769Y-1785D01*
X6735D01*
X6761D02*
X6788Y-1826D01*
X6869Y-1762D02*
X6876Y-1758D01*
X6888Y-1746D01*
Y-1826D01*
X7047Y-1765D02*
X7044Y-1758D01*
X7036Y-1750D01*
X7028Y-1746D01*
X7013D01*
X7005Y-1750D01*
X6998Y-1758D01*
X6994Y-1765D01*
X6990Y-1777D01*
Y-1796D01*
X6994Y-1807D01*
X6998Y-1815D01*
X7005Y-1823D01*
X7013Y-1826D01*
X7028D01*
X7036Y-1823D01*
X7044Y-1815D01*
X7047Y-1807D01*
Y-1796D01*
X7028D02*
X7047D01*
X7115Y-1746D02*
X7066D01*
Y-1826D01*
X7115D01*
X7066Y-1785D02*
X7096D01*
X7128Y-1746D02*
Y-1826D01*
Y-1746D02*
X7163D01*
X7174Y-1750D01*
X7178Y-1754D01*
X7182Y-1762D01*
Y-1769D01*
X7178Y-1777D01*
X7174Y-1781D01*
X7163Y-1785D01*
X7128D01*
X7155D02*
X7182Y-1826D01*
X7200Y-1746D02*
Y-1826D01*
Y-1746D02*
X7234D01*
X7245Y-1750D01*
X7249Y-1754D01*
X7253Y-1762D01*
Y-1769D01*
X7249Y-1777D01*
X7245Y-1781D01*
X7234Y-1785D01*
X7200D02*
X7234D01*
X7245Y-1788D01*
X7249Y-1792D01*
X7253Y-1800D01*
Y-1811D01*
X7249Y-1819D01*
X7245Y-1823D01*
X7234Y-1826D01*
X7200D01*
X7320Y-1746D02*
X7271D01*
Y-1826D01*
X7320D01*
X7271Y-1785D02*
X7301D01*
X7334Y-1746D02*
Y-1826D01*
Y-1746D02*
X7368D01*
X7379Y-1750D01*
X7383Y-1754D01*
X7387Y-1762D01*
Y-1769D01*
X7383Y-1777D01*
X7379Y-1781D01*
X7368Y-1785D01*
X7334D01*
X7360D02*
X7387Y-1826D01*
X7468Y-1746D02*
Y-1826D01*
Y-1746D02*
X7495D01*
X7506Y-1750D01*
X7514Y-1758D01*
X7517Y-1765D01*
X7521Y-1777D01*
Y-1796D01*
X7517Y-1807D01*
X7514Y-1815D01*
X7506Y-1823D01*
X7495Y-1826D01*
X7468D01*
X7600D02*
X7570Y-1746D01*
X7539Y-1826D01*
X7550Y-1800D02*
X7589D01*
X7645Y-1746D02*
Y-1826D01*
X7619Y-1746D02*
X7672D01*
X7742Y-1826D02*
X7712Y-1746D01*
X7682Y-1826D01*
X7693Y-1800D02*
X7731D01*
X4996Y-393D02*
Y-473D01*
X5042D01*
X5111D02*
X5081Y-393D01*
X5050Y-473D01*
X5062Y-446D02*
X5100D01*
X5183Y-404D02*
X5176Y-397D01*
X5164Y-393D01*
X5149D01*
X5138Y-397D01*
X5130Y-404D01*
Y-412D01*
X5134Y-419D01*
X5138Y-423D01*
X5145Y-427D01*
X5168Y-435D01*
X5176Y-438D01*
X5180Y-442D01*
X5183Y-450D01*
Y-461D01*
X5176Y-469D01*
X5164Y-473D01*
X5149D01*
X5138Y-469D01*
X5130Y-461D01*
X5321Y-412D02*
X5317Y-404D01*
X5310Y-397D01*
X5302Y-393D01*
X5287D01*
X5279Y-397D01*
X5272Y-404D01*
X5268Y-412D01*
X5264Y-423D01*
Y-442D01*
X5268Y-454D01*
X5272Y-461D01*
X5279Y-469D01*
X5287Y-473D01*
X5302D01*
X5310Y-469D01*
X5317Y-461D01*
X5321Y-454D01*
X5344Y-393D02*
Y-450D01*
X5348Y-461D01*
X5355Y-469D01*
X5367Y-473D01*
X5374D01*
X5386Y-469D01*
X5393Y-461D01*
X5397Y-450D01*
Y-393D01*
X5419D02*
Y-473D01*
Y-393D02*
X5450Y-473D01*
X5480Y-393D02*
X5450Y-473D01*
X5480Y-393D02*
Y-473D01*
X5503Y-393D02*
Y-473D01*
Y-393D02*
X5537D01*
X5549Y-397D01*
X5552Y-400D01*
X5556Y-408D01*
Y-416D01*
X5552Y-423D01*
X5549Y-427D01*
X5537Y-431D01*
X5503D02*
X5537D01*
X5549Y-435D01*
X5552Y-438D01*
X5556Y-446D01*
Y-458D01*
X5552Y-465D01*
X5549Y-469D01*
X5537Y-473D01*
X5503D01*
X5574Y-393D02*
Y-473D01*
Y-393D02*
X5608D01*
X5620Y-397D01*
X5624Y-400D01*
X5627Y-408D01*
Y-416D01*
X5624Y-423D01*
X5620Y-427D01*
X5608Y-431D01*
X5574D01*
X5601D02*
X5627Y-473D01*
X5695Y-393D02*
X5645D01*
Y-473D01*
X5695D01*
X5645Y-431D02*
X5676D01*
X5762Y-404D02*
X5754Y-397D01*
X5743Y-393D01*
X5727D01*
X5716Y-397D01*
X5708Y-404D01*
Y-412D01*
X5712Y-419D01*
X5716Y-423D01*
X5723Y-427D01*
X5746Y-435D01*
X5754Y-438D01*
X5758Y-442D01*
X5762Y-450D01*
Y-461D01*
X5754Y-469D01*
X5743Y-473D01*
X5727D01*
X5716Y-469D01*
X5708Y-461D01*
X5865Y-393D02*
X5858Y-397D01*
X5850Y-404D01*
X5846Y-412D01*
X5842Y-423D01*
Y-442D01*
X5846Y-454D01*
X5850Y-461D01*
X5858Y-469D01*
X5865Y-473D01*
X5880D01*
X5888Y-469D01*
X5896Y-461D01*
X5899Y-454D01*
X5903Y-442D01*
Y-423D01*
X5899Y-412D01*
X5896Y-404D01*
X5888Y-397D01*
X5880Y-393D01*
X5865D01*
X5922D02*
Y-473D01*
Y-393D02*
X5956D01*
X5968Y-397D01*
X5971Y-400D01*
X5975Y-408D01*
Y-416D01*
X5971Y-423D01*
X5968Y-427D01*
X5956Y-431D01*
X5922D02*
X5956D01*
X5968Y-435D01*
X5971Y-438D01*
X5975Y-446D01*
Y-458D01*
X5971Y-465D01*
X5968Y-469D01*
X5956Y-473D01*
X5922D01*
X6046Y-404D02*
X6039Y-397D01*
X6027Y-393D01*
X6012D01*
X6001Y-397D01*
X5993Y-404D01*
Y-412D01*
X5997Y-419D01*
X6001Y-423D01*
X6008Y-427D01*
X6031Y-435D01*
X6039Y-438D01*
X6043Y-442D01*
X6046Y-450D01*
Y-461D01*
X6039Y-469D01*
X6027Y-473D01*
X6012D01*
X6001Y-469D01*
X5993Y-461D01*
X6114Y-393D02*
X6064D01*
Y-473D01*
X6114D01*
X6064Y-431D02*
X6095D01*
X6127Y-393D02*
Y-473D01*
Y-393D02*
X6161D01*
X6173Y-397D01*
X6177Y-400D01*
X6181Y-408D01*
Y-416D01*
X6177Y-423D01*
X6173Y-427D01*
X6161Y-431D01*
X6127D01*
X6154D02*
X6181Y-473D01*
X6198Y-393D02*
X6229Y-473D01*
X6259Y-393D02*
X6229Y-473D01*
X6331D02*
X6300Y-393D01*
X6270Y-473D01*
X6281Y-446D02*
X6319D01*
X6376Y-393D02*
Y-473D01*
X6349Y-393D02*
X6403D01*
X6435D02*
X6427Y-397D01*
X6420Y-404D01*
X6416Y-412D01*
X6412Y-423D01*
Y-442D01*
X6416Y-454D01*
X6420Y-461D01*
X6427Y-469D01*
X6435Y-473D01*
X6450D01*
X6458Y-469D01*
X6465Y-461D01*
X6469Y-454D01*
X6473Y-442D01*
Y-423D01*
X6469Y-412D01*
X6465Y-404D01*
X6458Y-397D01*
X6450Y-393D01*
X6435D01*
X6492D02*
Y-473D01*
Y-393D02*
X6526D01*
X6537Y-397D01*
X6541Y-400D01*
X6545Y-408D01*
Y-416D01*
X6541Y-423D01*
X6537Y-427D01*
X6526Y-431D01*
X6492D01*
X6518D02*
X6545Y-473D01*
X6563Y-393D02*
X6593Y-431D01*
Y-473D01*
X6624Y-393D02*
X6593Y-431D01*
X7002Y-393D02*
X6964Y-473D01*
X6948Y-393D02*
X7002D01*
X7020Y-484D02*
X7073Y-393D01*
X7078Y-408D02*
X7086Y-404D01*
X7097Y-393D01*
Y-473D01*
X7137Y-484D02*
X7190Y-393D01*
X7199Y-412D02*
Y-408D01*
X7203Y-400D01*
X7207Y-397D01*
X7215Y-393D01*
X7230D01*
X7237Y-397D01*
X7241Y-400D01*
X7245Y-408D01*
Y-416D01*
X7241Y-423D01*
X7234Y-435D01*
X7196Y-473D01*
X7249D01*
X7290Y-393D02*
X7278Y-397D01*
X7271Y-408D01*
X7267Y-427D01*
Y-438D01*
X7271Y-458D01*
X7278Y-469D01*
X7290Y-473D01*
X7297D01*
X7309Y-469D01*
X7316Y-458D01*
X7320Y-438D01*
Y-427D01*
X7316Y-408D01*
X7309Y-397D01*
X7297Y-393D01*
X7290D01*
X7361D02*
X7349Y-397D01*
X7342Y-408D01*
X7338Y-427D01*
Y-438D01*
X7342Y-458D01*
X7349Y-469D01*
X7361Y-473D01*
X7368D01*
X7380Y-469D01*
X7387Y-458D01*
X7391Y-438D01*
Y-427D01*
X7387Y-408D01*
X7380Y-397D01*
X7368Y-393D01*
X7361D01*
X7459Y-419D02*
X7455Y-431D01*
X7447Y-438D01*
X7436Y-442D01*
X7432D01*
X7421Y-438D01*
X7413Y-431D01*
X7409Y-419D01*
Y-416D01*
X7413Y-404D01*
X7421Y-397D01*
X7432Y-393D01*
X7436D01*
X7447Y-397D01*
X7455Y-404D01*
X7459Y-419D01*
Y-438D01*
X7455Y-458D01*
X7447Y-469D01*
X7436Y-473D01*
X7428D01*
X7417Y-469D01*
X7413Y-461D01*
D45*
X11178Y6329D02*
D03*
Y6250D02*
D03*
X11278Y6249D02*
D03*
Y6329D02*
D03*
Y3439D02*
D03*
X11178Y3519D02*
D03*
X11278D02*
D03*
X4678Y6249D02*
D03*
X4778D02*
D03*
X4678Y6329D02*
D03*
Y3439D02*
D03*
Y3519D02*
D03*
X4778Y3519D02*
D03*
Y3439D02*
D03*
X9878Y6329D02*
D03*
Y6250D02*
D03*
X9978Y6249D02*
D03*
Y6329D02*
D03*
Y3439D02*
D03*
X9878Y3519D02*
D03*
X9978D02*
D03*
X8578Y6329D02*
D03*
Y6250D02*
D03*
X8678Y6249D02*
D03*
Y6329D02*
D03*
Y3439D02*
D03*
X8578Y3519D02*
D03*
X8678D02*
D03*
X7278Y6329D02*
D03*
Y6250D02*
D03*
X7378Y6249D02*
D03*
Y6329D02*
D03*
Y3439D02*
D03*
X7278Y3519D02*
D03*
X7378D02*
D03*
X3478Y3439D02*
D03*
Y3519D02*
D03*
X3378Y3519D02*
D03*
Y3439D02*
D03*
Y6329D02*
D03*
X3478Y6249D02*
D03*
X3378D02*
D03*
X2178Y3439D02*
D03*
Y3519D02*
D03*
X2078Y3519D02*
D03*
Y3439D02*
D03*
Y6329D02*
D03*
X2178Y6249D02*
D03*
X2078D02*
D03*
X878Y3439D02*
D03*
Y3519D02*
D03*
X778Y3519D02*
D03*
Y3439D02*
D03*
Y6329D02*
D03*
X878Y6249D02*
D03*
X778D02*
D03*
X6078Y3439D02*
D03*
X5978D02*
D03*
X12878D02*
D03*
Y3519D02*
D03*
X12778Y3519D02*
D03*
Y3439D02*
D03*
Y6329D02*
D03*
X12878Y6249D02*
D03*
X12778D02*
D03*
X4280Y7700D02*
D03*
Y7900D02*
D03*
X4180Y7800D02*
D03*
X2375Y7741D02*
D03*
X2575D02*
D03*
X2475Y7841D02*
D03*
D49*
X0Y0D02*
X17000D01*
Y8000D01*
X0D02*
X17000D01*
X0Y0D02*
Y8000D01*
D50*
X14900Y7600D02*
D03*
X12600Y7400D02*
D03*
X7600D02*
D03*
X1100Y6600D02*
D03*
X4000Y4200D02*
D03*
X9300Y4800D02*
D03*
X10500Y600D02*
D03*
X16400D02*
D03*
X6200D02*
D03*
X600D02*
D03*
D51*
X4730Y1490D02*
D03*
Y1590D02*
D03*
Y1690D02*
D03*
Y1790D02*
D03*
Y1890D02*
D03*
Y1990D02*
D03*
Y2090D02*
D03*
Y2190D02*
D03*
X4430Y1490D02*
D03*
Y1590D02*
D03*
Y1690D02*
D03*
Y1790D02*
D03*
Y1890D02*
D03*
Y1990D02*
D03*
Y2090D02*
D03*
Y2190D02*
D03*
X3265Y7411D02*
D03*
Y7511D02*
D03*
Y7611D02*
D03*
Y7711D02*
D03*
X2965Y7411D02*
D03*
Y7511D02*
D03*
Y7611D02*
D03*
Y7711D02*
D03*
X1950Y6960D02*
D03*
Y7060D02*
D03*
Y7160D02*
D03*
Y7260D02*
D03*
Y7360D02*
D03*
Y7460D02*
D03*
Y7560D02*
D03*
X1650Y7060D02*
D03*
Y7160D02*
D03*
Y7260D02*
D03*
Y7360D02*
D03*
Y7460D02*
D03*
Y7560D02*
D03*
X1350Y6960D02*
D03*
Y7060D02*
D03*
Y7160D02*
D03*
Y7260D02*
D03*
Y7360D02*
D03*
Y7460D02*
D03*
Y7560D02*
D03*
X1050Y7060D02*
D03*
Y7160D02*
D03*
Y7260D02*
D03*
Y7560D02*
D03*
X396Y3462D02*
D03*
X1696D02*
D03*
X2996D02*
D03*
X396Y3762D02*
D03*
X1696D02*
D03*
X2996D02*
D03*
X396Y4062D02*
D03*
X1696D02*
D03*
X2996D02*
D03*
X396Y4362D02*
D03*
X1696D02*
D03*
X2996D02*
D03*
D52*
X11178Y3439D02*
D03*
X4778Y6329D02*
D03*
X9878Y3439D02*
D03*
X8578D02*
D03*
X7278D02*
D03*
X3478Y6329D02*
D03*
X2178D02*
D03*
X878D02*
D03*
X6078Y3519D02*
D03*
X5978Y3519D02*
D03*
Y6329D02*
D03*
X6078D02*
D03*
Y6249D02*
D03*
X5978D02*
D03*
X12878Y6329D02*
D03*
D53*
X5400Y1900D02*
D03*
Y2200D02*
D03*
X16029Y4200D02*
D03*
X15774D02*
D03*
X15520D02*
D03*
X15260D02*
D03*
X15009D02*
D03*
X14754D02*
D03*
X14500D02*
D03*
X14580Y3600D02*
D03*
X15094D02*
D03*
X15860D02*
D03*
X16114D02*
D03*
X16199Y3000D02*
D03*
X15940D02*
D03*
X14414D02*
D03*
X14680D02*
D03*
X14924D02*
D03*
X15420D02*
D03*
X5400Y1600D02*
D03*
Y1300D02*
D03*
X9400Y2350D02*
D03*
Y2650D02*
D03*
X9250Y2500D02*
D03*
Y2800D02*
D03*
X10042Y343D02*
D03*
X9460Y2136D02*
D03*
X10042Y543D02*
D03*
X9460Y1936D02*
D03*
X10042Y743D02*
D03*
X9460Y1736D02*
D03*
X10042Y943D02*
D03*
X9460Y1536D02*
D03*
X10042Y1143D02*
D03*
X9460Y1336D02*
D03*
X10042Y1343D02*
D03*
X9460Y1136D02*
D03*
X10042Y1543D02*
D03*
X9460Y936D02*
D03*
X10042Y1743D02*
D03*
X9460Y736D02*
D03*
X10042Y1943D02*
D03*
X9460Y536D02*
D03*
X10042Y2143D02*
D03*
X8100Y2350D02*
D03*
Y2650D02*
D03*
X7950Y2500D02*
D03*
Y2800D02*
D03*
X8742Y343D02*
D03*
X8160Y2136D02*
D03*
X8742Y543D02*
D03*
X8160Y1936D02*
D03*
X8742Y743D02*
D03*
X8160Y1736D02*
D03*
X8742Y943D02*
D03*
X8160Y1536D02*
D03*
X8742Y1143D02*
D03*
X8160Y1336D02*
D03*
X8742Y1343D02*
D03*
X8160Y1136D02*
D03*
X8742Y1543D02*
D03*
X8160Y936D02*
D03*
X8742Y1743D02*
D03*
X8160Y736D02*
D03*
X8742Y1943D02*
D03*
X8160Y536D02*
D03*
X8742Y2143D02*
D03*
X6800Y2350D02*
D03*
Y2650D02*
D03*
X6650Y2500D02*
D03*
Y2800D02*
D03*
X7442Y343D02*
D03*
X6860Y2136D02*
D03*
X7442Y543D02*
D03*
X6860Y1936D02*
D03*
X7442Y743D02*
D03*
X6860Y1736D02*
D03*
X7442Y943D02*
D03*
X6860Y1536D02*
D03*
X7442Y1143D02*
D03*
X6860Y1336D02*
D03*
X7442Y1343D02*
D03*
X6860Y1136D02*
D03*
X7442Y1543D02*
D03*
X6860Y936D02*
D03*
X7442Y1743D02*
D03*
X6860Y736D02*
D03*
X7442Y1943D02*
D03*
X6860Y536D02*
D03*
X7442Y2143D02*
D03*
X3078Y2049D02*
D03*
X3278Y1849D02*
D03*
X3078Y1649D02*
D03*
X3278Y1449D02*
D03*
X1778Y2049D02*
D03*
X1978Y1849D02*
D03*
X1778Y1649D02*
D03*
X1978Y1449D02*
D03*
X478Y2049D02*
D03*
X678Y1849D02*
D03*
X478Y1649D02*
D03*
X678Y1449D02*
D03*
X200Y7200D02*
D03*
Y7000D02*
D03*
Y6800D02*
D03*
Y6600D02*
D03*
Y6420D02*
D03*
X5660Y360D02*
D03*
X1600Y600D02*
D03*
X220Y5420D02*
D03*
X7820Y7700D02*
D03*
X200Y6200D02*
D03*
X13000Y7600D02*
D03*
X13200D02*
D03*
X13800D02*
D03*
X4860Y7800D02*
D03*
X3420D02*
D03*
X1400D02*
D03*
X1700D02*
D03*
X2020D02*
D03*
X15689Y3000D02*
D03*
X15349Y3600D02*
D03*
X16320Y4200D02*
D03*
X15179Y3000D02*
D03*
X15600Y3600D02*
D03*
X14840D02*
D03*
D54*
X16720Y6648D02*
D03*
Y6539D02*
D03*
Y6865D02*
D03*
Y7300D02*
D03*
Y7191D02*
D03*
Y7083D02*
D03*
Y6974D02*
D03*
Y6756D02*
D03*
Y6430D02*
D03*
Y6322D02*
D03*
Y6213D02*
D03*
Y6104D02*
D03*
Y5996D02*
D03*
Y5887D02*
D03*
Y5778D02*
D03*
Y5669D02*
D03*
Y5560D02*
D03*
Y5451D02*
D03*
Y5342D02*
D03*
D55*
X16832Y6156D02*
D03*
Y7137D02*
D03*
Y7028D02*
D03*
Y6919D02*
D03*
Y6810D02*
D03*
Y6701D02*
D03*
Y6592D02*
D03*
Y6483D02*
D03*
Y6374D02*
D03*
Y6265D02*
D03*
Y6047D02*
D03*
Y5938D02*
D03*
Y5829D02*
D03*
Y5720D02*
D03*
Y5611D02*
D03*
Y5502D02*
D03*
Y7246D02*
D03*
Y5393D02*
D03*
D56*
X16776Y5068D02*
D03*
Y7574D02*
D03*
D57*
X3900Y7760D02*
D03*
X3950Y7710D02*
D03*
Y7810D02*
D03*
X3850D02*
D03*
Y7710D02*
D03*
X5317Y7814D02*
D03*
X5367Y7764D02*
D03*
Y7864D02*
D03*
X5267D02*
D03*
Y7764D02*
D03*
D58*
X4220Y7370D02*
D03*
Y7470D02*
D03*
X3065Y7841D02*
D03*
X3165D02*
D03*
Y7281D02*
D03*
X3065D02*
D03*
X2695Y7411D02*
D03*
Y7511D02*
D03*
D59*
X3560Y7800D02*
D03*
Y7700D02*
D03*
Y7600D02*
D03*
X5477Y7534D02*
D03*
Y7814D02*
D03*
X5617D02*
D03*
Y7534D02*
D03*
X200Y7800D02*
D03*
X300D02*
D03*
X400D02*
D03*
X500D02*
D03*
X600D02*
D03*
X700D02*
D03*
X1200D02*
D03*
X900D02*
D03*
X120Y5940D02*
D03*
X356Y3412D02*
D03*
Y3512D02*
D03*
X1656D02*
D03*
Y3412D02*
D03*
X2956D02*
D03*
Y3512D02*
D03*
X356Y3712D02*
D03*
Y3812D02*
D03*
X1656D02*
D03*
Y3712D02*
D03*
X2956D02*
D03*
Y3812D02*
D03*
X356Y4012D02*
D03*
Y4112D02*
D03*
X1656D02*
D03*
Y4012D02*
D03*
X2956D02*
D03*
Y4112D02*
D03*
X356Y4312D02*
D03*
Y4412D02*
D03*
X1656D02*
D03*
Y4312D02*
D03*
X2956D02*
D03*
Y4412D02*
D03*
X13200Y7800D02*
D03*
X13300D02*
D03*
X13400D02*
D03*
X13500D02*
D03*
D60*
X1650Y6960D02*
D03*
X1050D02*
D03*
Y7360D02*
D03*
Y7460D02*
D03*
D61*
X6700Y7305D02*
D03*
Y7155D02*
D03*
Y7005D02*
D03*
Y6855D02*
D03*
Y6705D02*
D03*
Y6555D02*
D03*
Y6405D02*
D03*
Y6255D02*
D03*
Y6105D02*
D03*
Y5955D02*
D03*
Y5805D02*
D03*
Y5655D02*
D03*
X12078Y2704D02*
D03*
Y2854D02*
D03*
Y3004D02*
D03*
Y3154D02*
D03*
Y3304D02*
D03*
Y3454D02*
D03*
Y3604D02*
D03*
Y3754D02*
D03*
Y3904D02*
D03*
Y4054D02*
D03*
Y4204D02*
D03*
Y4354D02*
D03*
X13578Y3504D02*
D03*
Y3654D02*
D03*
Y3804D02*
D03*
Y3954D02*
D03*
Y4104D02*
D03*
Y4254D02*
D03*
Y4404D02*
D03*
Y4554D02*
D03*
Y4704D02*
D03*
Y4854D02*
D03*
Y5004D02*
D03*
Y5154D02*
D03*
X12078Y4804D02*
D03*
Y4954D02*
D03*
Y5104D02*
D03*
Y5254D02*
D03*
Y5404D02*
D03*
Y5554D02*
D03*
Y5704D02*
D03*
Y5854D02*
D03*
Y6004D02*
D03*
Y6154D02*
D03*
Y6304D02*
D03*
Y6454D02*
D03*
X13578Y5604D02*
D03*
Y5754D02*
D03*
Y5904D02*
D03*
Y6054D02*
D03*
Y6204D02*
D03*
Y6354D02*
D03*
Y6504D02*
D03*
Y6654D02*
D03*
Y6804D02*
D03*
Y6954D02*
D03*
Y7104D02*
D03*
Y7254D02*
D03*
D62*
X1100Y7800D02*
D03*
X1000D02*
D03*
X220Y5940D02*
D03*
D63*
X200Y4800D02*
D03*
D64*
X4194Y2167D02*
D03*
X4965Y3259D02*
D03*
X5020Y3289D02*
D03*
X5084Y3319D02*
D03*
X5158Y3349D02*
D03*
X400Y7094D02*
D03*
X307Y7130D02*
D03*
X3070Y6802D02*
D03*
X400Y6600D02*
D03*
X1131Y3620D02*
D03*
X1129Y4640D02*
D03*
X373Y4638D02*
D03*
X463Y3530D02*
D03*
X477Y6804D02*
D03*
X609Y3147D02*
D03*
X8044Y6289D02*
D03*
X8043Y3622D02*
D03*
X4981Y3625D02*
D03*
X5810Y3755D02*
D03*
Y3805D02*
D03*
X5795Y3780D02*
D03*
Y3830D02*
D03*
X5204Y5162D02*
D03*
X5180Y5146D02*
D03*
X5105Y5223D02*
D03*
X5150Y5196D02*
D03*
X5075Y5246D02*
D03*
X3683Y3723D02*
D03*
X1838Y3884D02*
D03*
X3476Y3921D02*
D03*
X4446Y3936D02*
D03*
X7769Y3774D02*
D03*
X9161Y6051D02*
D03*
X10489Y6053D02*
D03*
X7514Y5918D02*
D03*
X12759Y3819D02*
D03*
X877Y3520D02*
D03*
X4759Y3147D02*
D03*
X3476D02*
D03*
X2176D02*
D03*
X6948D02*
D03*
X12851Y2695D02*
D03*
X877Y3147D02*
D03*
X7278Y6612D02*
D03*
X9878Y6609D02*
D03*
X8578D02*
D03*
X11189Y6614D02*
D03*
X6950Y6612D02*
D03*
X585Y5950D02*
D03*
X605Y5930D02*
D03*
X607Y6999D02*
D03*
X609Y7410D02*
D03*
X7918Y3218D02*
D03*
X7923Y6523D02*
D03*
X12780Y3083D02*
D03*
X14013Y6576D02*
D03*
X12934Y3239D02*
D03*
X849Y6407D02*
D03*
X4892Y6363D02*
D03*
X5185Y3439D02*
D03*
X12567Y3502D02*
D03*
X1657Y6131D02*
D03*
X1286Y5120D02*
D03*
X1789Y7562D02*
D03*
X5816Y7904D02*
D03*
X12992Y253D02*
D03*
X11642Y269D02*
D03*
X11732Y4253D02*
D03*
X12588Y4256D02*
D03*
X11702Y4262D02*
D03*
X12614Y4286D02*
D03*
X11672Y4289D02*
D03*
X12576Y4306D02*
D03*
X5830Y5559D02*
D03*
X5465Y5557D02*
D03*
X5467Y4083D02*
D03*
X4950Y4305D02*
D03*
X4965Y4335D02*
D03*
X12597Y4331D02*
D03*
X5992Y5810D02*
D03*
X6000Y5866D02*
D03*
X5961Y5887D02*
D03*
X5627Y7305D02*
D03*
X5688Y7155D02*
D03*
X5717Y7006D02*
D03*
X5657Y6852D02*
D03*
X5615Y5987D02*
D03*
X5798D02*
D03*
X5662Y6011D02*
D03*
X5831Y6009D02*
D03*
X5624Y5690D02*
D03*
X5829Y5688D02*
D03*
X5574Y5722D02*
D03*
X5835D02*
D03*
X6481Y6407D02*
D03*
X6479Y5814D02*
D03*
X6447Y6557D02*
D03*
X6443Y5893D02*
D03*
X6625Y5901D02*
D03*
X6214Y5893D02*
D03*
X6232Y5837D02*
D03*
X6233Y5805D02*
D03*
X6318Y7755D02*
D03*
X6214Y7733D02*
D03*
X6466Y7666D02*
D03*
X6216Y7663D02*
D03*
X6623Y7704D02*
D03*
X6186Y7695D02*
D03*
X11672Y321D02*
D03*
X12991Y307D02*
D03*
X11492Y394D02*
D03*
X12991Y392D02*
D03*
X11732Y642D02*
D03*
X12991Y647D02*
D03*
X11552Y732D02*
D03*
X12991D02*
D03*
X11702Y816D02*
D03*
X12991Y817D02*
D03*
X11462Y1840D02*
D03*
X11343Y902D02*
D03*
X12991D02*
D03*
X11582Y987D02*
D03*
X12991D02*
D03*
X11432Y1235D02*
D03*
X12991Y1242D02*
D03*
X11402Y1325D02*
D03*
X12991Y1327D02*
D03*
X11372Y1578D02*
D03*
X12991Y1582D02*
D03*
Y1837D02*
D03*
X13026Y3757D02*
D03*
X12618Y3811D02*
D03*
X12617Y3770D02*
D03*
X6308Y6170D02*
D03*
X6800Y6082D02*
D03*
X6822Y6108D02*
D03*
X6848Y6150D02*
D03*
X6875Y6127D02*
D03*
X6742Y4132D02*
D03*
X5792D02*
D03*
X7799Y3931D02*
D03*
X9076Y3974D02*
D03*
X9138Y3978D02*
D03*
X10471Y3906D02*
D03*
X7828Y3949D02*
D03*
X10429Y3881D02*
D03*
X6248Y4029D02*
D03*
X6218Y4006D02*
D03*
X6254Y3906D02*
D03*
X6228Y3881D02*
D03*
X5803D02*
D03*
X5834Y3906D02*
D03*
X5807Y3933D02*
D03*
X5835Y3957D02*
D03*
X7549Y6043D02*
D03*
X7519Y6040D02*
D03*
X8869Y6046D02*
D03*
X8836Y6045D02*
D03*
X10170Y6038D02*
D03*
X10131Y6035D02*
D03*
X6333Y5331D02*
D03*
X6239Y5273D02*
D03*
X11498Y5364D02*
D03*
X10189Y5353D02*
D03*
X8884Y5332D02*
D03*
X7586Y5354D02*
D03*
X5797Y5292D02*
D03*
X5762Y5318D02*
D03*
X6520Y4132D02*
D03*
X6519Y5948D02*
D03*
X6551Y4158D02*
D03*
Y5924D02*
D03*
X6588Y4186D02*
D03*
X6589Y5871D02*
D03*
X6627Y4207D02*
D03*
X6629Y5837D02*
D03*
X6764Y4256D02*
D03*
X6772Y5812D02*
D03*
X6782Y4286D02*
D03*
X6803Y5783D02*
D03*
X6249Y4132D02*
D03*
X6224Y4158D02*
D03*
X5827Y4157D02*
D03*
X5808Y4205D02*
D03*
X5829Y4256D02*
D03*
X5810Y4282D02*
D03*
X6265Y6011D02*
D03*
X6285Y6034D02*
D03*
X10131Y5713D02*
D03*
X11423D02*
D03*
X5765Y5839D02*
D03*
X5786Y5814D02*
D03*
X5804Y5783D02*
D03*
X5835Y5762D02*
D03*
X11423Y5640D02*
D03*
X11449Y5737D02*
D03*
X11424Y5762D02*
D03*
X10131Y5640D02*
D03*
X10157Y5737D02*
D03*
X10132Y5762D02*
D03*
X8831Y5640D02*
D03*
Y5711D02*
D03*
X8857Y5737D02*
D03*
X8832Y5762D02*
D03*
X7531Y5640D02*
D03*
Y5711D02*
D03*
X7557Y5737D02*
D03*
X7532Y5762D02*
D03*
X11029Y5937D02*
D03*
X9731D02*
D03*
X11005Y5812D02*
D03*
Y5863D02*
D03*
X11030Y5887D02*
D03*
X11005Y5962D02*
D03*
X11030Y5987D02*
D03*
X11005Y6010D02*
D03*
X9705Y5812D02*
D03*
X9730Y5837D02*
D03*
X9705Y5863D02*
D03*
X9730Y5887D02*
D03*
X9705Y5962D02*
D03*
X9730Y5987D02*
D03*
X9705Y6010D02*
D03*
X11518Y6205D02*
D03*
X11487Y6177D02*
D03*
X11519Y6157D02*
D03*
X11488Y6133D02*
D03*
X11521Y6115D02*
D03*
X11490Y6089D02*
D03*
X10318Y6205D02*
D03*
X10287Y6177D02*
D03*
X10319Y6157D02*
D03*
X10288Y6133D02*
D03*
X10290Y6089D02*
D03*
X9018Y6205D02*
D03*
X8987Y6177D02*
D03*
X9019Y6157D02*
D03*
X8988Y6133D02*
D03*
X9021Y6115D02*
D03*
X8990Y6089D02*
D03*
X7688Y6239D02*
D03*
X7660Y6212D02*
D03*
X7685Y6192D02*
D03*
X7660Y6168D02*
D03*
X7685Y6149D02*
D03*
X7659Y6123D02*
D03*
X8405Y5812D02*
D03*
X8430Y5837D02*
D03*
X8405Y5863D02*
D03*
X8430Y5887D02*
D03*
Y5937D02*
D03*
X8405Y5962D02*
D03*
X8430Y5987D02*
D03*
X8405Y6010D02*
D03*
X7105Y5812D02*
D03*
X7130Y5837D02*
D03*
X7105Y5863D02*
D03*
X7130Y5887D02*
D03*
Y5937D02*
D03*
X7105Y5962D02*
D03*
X7130Y5987D02*
D03*
X7105Y6010D02*
D03*
X2323Y5129D02*
D03*
X2325Y5170D02*
D03*
X3635Y5190D02*
D03*
X615Y5150D02*
D03*
X1875Y5120D02*
D03*
X3190Y5115D02*
D03*
X4520Y5125D02*
D03*
X4935Y5150D02*
D03*
X3625Y5145D02*
D03*
X1035Y5140D02*
D03*
Y5170D02*
D03*
X4930Y5120D02*
D03*
X4965Y5170D02*
D03*
X4950Y4270D02*
D03*
X5840Y4305D02*
D03*
X6235D02*
D03*
Y4335D02*
D03*
X105Y3655D02*
D03*
X75D02*
D03*
X1345Y3625D02*
D03*
X1320Y3645D02*
D03*
X2710Y3866D02*
D03*
X2745Y3840D02*
D03*
X4345Y3725D02*
D03*
X4370Y3700D02*
D03*
X6270Y3830D02*
D03*
X6250Y3805D02*
D03*
X6270Y3780D02*
D03*
X6250Y3755D02*
D03*
X4480Y5911D02*
D03*
Y5950D02*
D03*
X4505Y5930D02*
D03*
X3180Y5911D02*
D03*
Y5950D02*
D03*
X3205Y5930D02*
D03*
X1880Y5911D02*
D03*
X1910Y5930D02*
D03*
X1880Y5950D02*
D03*
X580Y5910D02*
D03*
X6415Y5915D02*
D03*
X6390Y5930D02*
D03*
X6365Y5950D02*
D03*
X5295Y5073D02*
D03*
X5255Y5096D02*
D03*
X5035Y5273D02*
D03*
X2563Y4460D02*
D03*
X2540Y4485D02*
D03*
X2519Y4510D02*
D03*
X2495Y4535D02*
D03*
X2472Y4580D02*
D03*
X2445Y4615D02*
D03*
X2420Y4640D02*
D03*
X2394Y4660D02*
D03*
X6245Y4795D02*
D03*
X6225Y4775D02*
D03*
X6245Y4745D02*
D03*
X6230Y4720D02*
D03*
X6255Y4670D02*
D03*
X6230Y4645D02*
D03*
X6250Y4620D02*
D03*
X6235Y4595D02*
D03*
X6244Y5046D02*
D03*
X6230Y5020D02*
D03*
X6250Y4995D02*
D03*
X6235Y4970D02*
D03*
X6255Y4920D02*
D03*
X6240Y4895D02*
D03*
X6255Y4870D02*
D03*
X6236Y4846D02*
D03*
X3875Y4931D02*
D03*
X3850Y4955D02*
D03*
X3830Y4981D02*
D03*
X3810Y5006D02*
D03*
X3780Y5054D02*
D03*
X3752Y5082D02*
D03*
X3726Y5104D02*
D03*
X3705Y5128D02*
D03*
X5784Y5044D02*
D03*
X5814Y5020D02*
D03*
X5790Y4998D02*
D03*
X5817Y4970D02*
D03*
X5792Y4922D02*
D03*
X5823Y4897D02*
D03*
X5797Y4871D02*
D03*
X5824Y4847D02*
D03*
X1252Y4683D02*
D03*
X1227Y4707D02*
D03*
X1197Y4732D02*
D03*
X1169Y4758D02*
D03*
X1129Y4808D02*
D03*
X1108Y4832D02*
D03*
X1088Y4857D02*
D03*
X1064Y4881D02*
D03*
X5827Y4597D02*
D03*
X5802Y4621D02*
D03*
X5825Y4646D02*
D03*
X5803Y4672D02*
D03*
X5825Y4722D02*
D03*
X5802Y4746D02*
D03*
X5824Y4771D02*
D03*
X5801Y4795D02*
D03*
X627Y4283D02*
D03*
X1931D02*
D03*
X3216Y4284D02*
D03*
X4481Y4283D02*
D03*
X11785Y3817D02*
D03*
X11759Y3851D02*
D03*
X10647Y3804D02*
D03*
X10582Y4006D02*
D03*
D03*
X11284Y5985D02*
D03*
X11030Y5837D02*
D03*
X10672Y4030D02*
D03*
X11262Y6008D02*
D03*
X12991Y1922D02*
D03*
X10762D02*
D03*
X12991Y1752D02*
D03*
X10696Y1754D02*
D03*
X12991Y1667D02*
D03*
X10884Y1666D02*
D03*
X12991Y1497D02*
D03*
X10824Y1500D02*
D03*
X12991Y1412D02*
D03*
X10729Y1410D02*
D03*
X12991Y1157D02*
D03*
X10948D02*
D03*
X12991Y1072D02*
D03*
X10914Y1070D02*
D03*
X12991Y562D02*
D03*
X10794Y560D02*
D03*
X12991Y477D02*
D03*
X10854Y476D02*
D03*
X12991Y2092D02*
D03*
X11522Y2091D02*
D03*
X12991Y2007D02*
D03*
X11612Y2005D02*
D03*
X1838Y7521D02*
D03*
X6334Y6198D02*
D03*
X6861Y7107D02*
D03*
X10321Y6115D02*
D03*
X6789Y7212D02*
D03*
X4188Y7195D02*
D03*
X2269Y7486D02*
D03*
X3357Y7611D02*
D03*
X3760Y7345D02*
D03*
X3757Y7446D02*
D03*
X3756Y7395D02*
D03*
X4112Y7445D02*
D03*
X4109Y7345D02*
D03*
X4540Y7917D02*
D03*
X4483Y7484D02*
D03*
X4599Y7654D02*
D03*
X4717Y7693D02*
D03*
X4680Y7647D02*
D03*
X4495Y7687D02*
D03*
X4368Y7512D02*
D03*
X2904Y6548D02*
D03*
X4004Y6623D02*
D03*
X6615Y470D02*
D03*
X7213Y267D02*
D03*
X7916Y457D02*
D03*
X8518Y272D02*
D03*
X9214Y479D02*
D03*
X9817Y292D02*
D03*
X4507Y4334D02*
D03*
X3207Y4351D02*
D03*
X1946Y4417D02*
D03*
X629Y4426D02*
D03*
X5651Y4245D02*
D03*
X4396Y4366D02*
D03*
X6476Y4389D02*
D03*
X6437Y4409D02*
D03*
D03*
X2903Y4365D02*
D03*
Y5768D02*
D03*
X1910Y4439D02*
D03*
X5678Y4469D02*
D03*
X5716Y4468D02*
D03*
X583Y4552D02*
D03*
X3182Y4564D02*
D03*
X5602Y4218D02*
D03*
X5601Y5763D02*
D03*
X12992Y2183D02*
D03*
X12991Y2247D02*
D03*
X12995Y2310D02*
D03*
X12987Y2366D02*
D03*
X16328Y7595D02*
D03*
Y7505D02*
D03*
Y7415D02*
D03*
X5761Y4286D02*
D03*
X5514D02*
D03*
X630Y4921D02*
D03*
X4502Y4944D02*
D03*
X3222Y4921D02*
D03*
X1927D02*
D03*
X5576Y4935D02*
D03*
X5577Y4054D02*
D03*
X5815D02*
D03*
X300Y7325D02*
D03*
X461Y7329D02*
D03*
X581Y7325D02*
D03*
X14005Y7668D02*
D03*
X4486Y6131D02*
D03*
X700Y7198D02*
D03*
D65*
X892Y5588D02*
D03*
X4784Y5586D02*
D03*
X3491D02*
D03*
X2174Y5587D02*
D03*
X4775Y3635D02*
D03*
X12885Y3731D02*
D03*
Y3856D02*
D03*
Y3956D02*
D03*
Y4081D02*
D03*
Y4156D02*
D03*
Y4281D02*
D03*
X12880Y4356D02*
D03*
Y4697D02*
D03*
Y4572D02*
D03*
X12885Y4822D02*
D03*
Y4947D02*
D03*
Y5072D02*
D03*
X12880Y5197D02*
D03*
X12885Y5412D02*
D03*
X12880Y5537D02*
D03*
Y5660D02*
D03*
X12885Y5787D02*
D03*
Y5912D02*
D03*
X11285Y4081D02*
D03*
Y4281D02*
D03*
X11280Y4356D02*
D03*
Y4697D02*
D03*
Y4572D02*
D03*
X11285Y4822D02*
D03*
Y4947D02*
D03*
Y5072D02*
D03*
X11280Y5197D02*
D03*
X11285Y5412D02*
D03*
X11280Y5537D02*
D03*
Y5660D02*
D03*
X11285Y5787D02*
D03*
Y5912D02*
D03*
X11280Y6037D02*
D03*
X9985Y3731D02*
D03*
Y3856D02*
D03*
Y3956D02*
D03*
Y4081D02*
D03*
Y4156D02*
D03*
Y4281D02*
D03*
X9980Y4356D02*
D03*
Y4697D02*
D03*
Y4572D02*
D03*
X9985Y4822D02*
D03*
Y4947D02*
D03*
Y5072D02*
D03*
X9980Y5197D02*
D03*
X9985Y5412D02*
D03*
X9980Y5537D02*
D03*
Y5660D02*
D03*
X9985Y5787D02*
D03*
Y5912D02*
D03*
X9980Y6037D02*
D03*
X8685Y3731D02*
D03*
Y3856D02*
D03*
Y3956D02*
D03*
Y4081D02*
D03*
Y4156D02*
D03*
Y4281D02*
D03*
X8680Y4356D02*
D03*
Y4697D02*
D03*
Y4572D02*
D03*
X8685Y4822D02*
D03*
Y4947D02*
D03*
Y5072D02*
D03*
X8680Y5197D02*
D03*
X8685Y5412D02*
D03*
X8680Y5537D02*
D03*
Y5660D02*
D03*
X8685Y5787D02*
D03*
Y5912D02*
D03*
X8680Y6037D02*
D03*
X7385Y3731D02*
D03*
Y3856D02*
D03*
Y3956D02*
D03*
Y4081D02*
D03*
Y4156D02*
D03*
Y4281D02*
D03*
X7380Y4356D02*
D03*
Y4697D02*
D03*
Y4572D02*
D03*
X7385Y4822D02*
D03*
Y4947D02*
D03*
Y5072D02*
D03*
X7380Y5197D02*
D03*
X7385Y5412D02*
D03*
X7380Y5537D02*
D03*
Y5660D02*
D03*
X7385Y5787D02*
D03*
Y5912D02*
D03*
X7380Y6037D02*
D03*
X6070Y6037D02*
D03*
X6075Y5890D02*
D03*
X6070Y5787D02*
D03*
X6075Y5662D02*
D03*
X6060Y5537D02*
D03*
X6065Y5462D02*
D03*
Y5412D02*
D03*
X6080Y5196D02*
D03*
X6000Y5090D02*
D03*
X5975Y4946D02*
D03*
X5985Y4821D02*
D03*
X5965Y4715D02*
D03*
X5990Y4571D02*
D03*
X6075Y4356D02*
D03*
Y4281D02*
D03*
Y4231D02*
D03*
Y4181D02*
D03*
Y4106D02*
D03*
Y4056D02*
D03*
Y3981D02*
D03*
Y3856D02*
D03*
Y3745D02*
D03*
X875Y3731D02*
D03*
Y3856D02*
D03*
Y3981D02*
D03*
Y4106D02*
D03*
X870Y4231D02*
D03*
X875Y4356D02*
D03*
Y4571D02*
D03*
Y4696D02*
D03*
Y4821D02*
D03*
X870Y4946D02*
D03*
X875Y5071D02*
D03*
Y5121D02*
D03*
X870Y5196D02*
D03*
X875Y5412D02*
D03*
Y5537D02*
D03*
Y5662D02*
D03*
Y5787D02*
D03*
X870Y5890D02*
D03*
X875Y6037D02*
D03*
X2175D02*
D03*
Y5890D02*
D03*
Y5787D02*
D03*
Y5662D02*
D03*
X2170Y5537D02*
D03*
X2175Y5412D02*
D03*
Y5196D02*
D03*
X2170Y5121D02*
D03*
Y5071D02*
D03*
X2175Y4946D02*
D03*
Y4785D02*
D03*
X2170Y4660D02*
D03*
X2175Y4571D02*
D03*
Y4356D02*
D03*
Y4231D02*
D03*
Y4106D02*
D03*
Y3981D02*
D03*
Y3856D02*
D03*
Y3731D02*
D03*
X3475D02*
D03*
Y3856D02*
D03*
Y3981D02*
D03*
Y4106D02*
D03*
Y4231D02*
D03*
Y4356D02*
D03*
Y4565D02*
D03*
Y4785D02*
D03*
Y4946D02*
D03*
Y5071D02*
D03*
Y5121D02*
D03*
Y5196D02*
D03*
Y5412D02*
D03*
Y5537D02*
D03*
Y5662D02*
D03*
Y5787D02*
D03*
Y5890D02*
D03*
Y6037D02*
D03*
X4775Y3856D02*
D03*
Y3981D02*
D03*
Y4106D02*
D03*
Y4231D02*
D03*
Y4345D02*
D03*
Y4470D02*
D03*
Y4696D02*
D03*
X4770Y4821D02*
D03*
X4775Y4946D02*
D03*
Y5071D02*
D03*
Y5121D02*
D03*
Y5196D02*
D03*
Y5412D02*
D03*
Y5537D02*
D03*
Y5662D02*
D03*
Y5787D02*
D03*
Y5890D02*
D03*
Y6037D02*
D03*
X12880Y6037D02*
D03*
X11285Y3856D02*
D03*
Y3731D02*
D03*
Y3956D02*
D03*
Y4156D02*
D03*
X917Y7383D02*
D03*
M02*
