M48
;Layer_Color=9474304
;FILE_FORMAT=2:3
INCH,LZ
;TYPE=PLATED
T1F00S00C0.010
T2F00S00C0.015
T3F00S00C0.028
T4F00S00C0.035
T5F00S00C0.038
T6F00S00C0.039
T7F00S00C0.040
T8F00S00C0.052
T9F00S00C0.059
T10F00S00C0.073
T11F00S00C0.078
T12F00S00C0.166
%
T01
X0067Y0053
X0078
X06369Y01315
X07188
X07185Y0128
X07195Y0139
X07497Y00934
X07771Y00616
X07777Y00494
X07917Y00445
X07973Y00537
X08015Y00598
X07913Y00597
X07887Y00624
X08117
X08163Y00444
X08316Y00492
X08233Y0029
X07793Y0014
X06422Y02033
X06243Y02176
X0625Y02378
Y02446
X06353Y02483
X06342Y02856
X06219Y02804
X07022Y02691
X06156Y02693
X06114Y0241
X06164Y03043
X05111Y02478
X0563Y0171
X03332Y02858
X02354Y02766
X0192Y02823
X00943Y03194
X0089Y032
X00857Y03513
X0303Y03511
X04944Y0351
X06138Y03346
X06212Y03309
X06418Y03733
X07211Y03716
T02
X04665Y02022
X04894Y02171
X05064Y02118
X05103Y02018
X05249Y02169
X05028Y02339
X046Y02343
X0432Y02345
X0433Y02167
X0448Y02083
X04556Y02026
X03899Y02169
X03714Y02118
X03753Y02018
X03544Y02171
X03678Y02339
X0325Y02343
X03206Y02026
X03315Y02022
X0313Y02083
X0298Y02167
X02569Y02169
X02384Y02118
X02423Y02018
X02214Y02171
X02348Y02339
X0192Y02343
X01876Y02026
X01985Y02022
X018Y02083
X0165Y02167
T03
X0134Y004
X00895Y0085
X008Y0118
Y0128
Y0138
Y0148
X007Y0143
Y0133
X00605
X007Y0123
Y0153
X00611Y01538
X01Y0148
Y0138
Y0128
Y0118
X011Y0123
Y0133
Y0143
Y0153
X0122Y0143
X0133Y0133
X0214Y01335
X01865Y0087
X0249Y00815
X03195Y0087
X0382Y00815
X04545Y0087
X0347Y01335
X0482
X0517Y00815
X0683Y0126
X074Y01165
X076Y0157
X07622Y01869
X07589Y02091
X07406Y02133
X074Y02035
X07334Y01965
X07285Y01835
X0721Y02035
X06211Y01967
X06212Y02242
X06066Y02176
X0606Y02564
X0563Y0233
X0539Y01785
X0475Y0198
X034
X0335Y02445
X038
X0295Y0233
X0242Y0261
X02005Y02445
X0207Y0198
X0216
X0156Y02215
X0133Y0233
X01273Y02525
X0119Y02445
X01015Y0221
X00855Y0261
X008Y0158
X01
X01075Y0165
X0051Y0185
X01919Y03309
X0222Y03346
X04243Y03195
X05455Y03624
X06975Y03193
T04
X0124Y0093
X0134
X0192Y0364
X0202
X0212
X0222
X0363
X0373
X0383
X0393
T05
X0532Y02819
Y03101
X05179Y0296
X05461
X04111
X0397Y03101
Y02819
X03829Y0296
X03291
X0315Y03101
Y02819
X03009Y0296
X02581
X0244Y03101
Y02819
X02299Y0296
X01701
X0156Y03101
Y02819
X01419Y0296
T06
X0548Y0197
Y0207
Y0217
T07
X07941Y01869
Y01969
Y02069
X08041
X08141
X08241
Y01969
X08141
X08041
Y01869
X08141
X08241
T08
X07941Y01344
Y01444
X08041
X08141
X08241
Y01344
X08141
X08041
Y01594
Y01694
X08141
X08241
Y01594
X08141
X07941
Y01694
Y02244
X08041
X08141
X08241
Y02344
X08141
X08041
X07941
Y02494
X08041
X08141
X08241
Y02594
X08141
X08041
X07941
T09
X08033Y03425
X08233
T10
X0532Y0296
X0397
X0315
X0244
X0156
T11
X01715Y00865
X02015
X02215
X03045
X03345
X03545
X04395
X04695
X04895
X04795Y01665
X05195
X04395
X03845
X03445
X03045
X02515
X02115
X01715
T12
X05827Y00315
X0752
Y03622
M30
