%FSLAX25Y25*%
%MOIN*%
G70*
G01*
G75*
G04 Layer_Physical_Order=4*
G04 Layer_Color=16737945*
%ADD10C,0.01000*%
%ADD11R,0.05906X0.11811*%
%ADD12R,0.00984X0.03543*%
%ADD13R,0.06299X0.07087*%
%ADD14C,0.03000*%
%ADD15C,0.00800*%
%ADD16C,0.00500*%
%ADD17C,0.01201*%
%ADD18C,0.01200*%
%ADD19C,0.01201*%
%ADD20C,0.07000*%
%ADD21C,0.06500*%
%ADD22C,0.03937*%
%ADD23C,0.03543*%
%ADD24C,0.05512*%
%ADD25C,0.07087*%
%ADD26C,0.02400*%
%ADD27C,0.00700*%
%ADD28C,0.01500*%
G36*
X102362Y-55117D02*
X102361Y-55118D01*
X0D01*
Y0D01*
X0Y0D01*
X102362D01*
Y-55117D01*
D02*
G37*
G36*
X56082Y-572666D02*
X60959Y-573190D01*
X65786Y-574061D01*
X70538Y-575274D01*
X75192Y-576823D01*
X79724Y-578700D01*
X84109Y-580896D01*
X88328Y-583398D01*
X92357Y-586196D01*
X96176Y-589274D01*
X99766Y-592616D01*
X103108Y-596206D01*
X106186Y-600025D01*
X108983Y-604054D01*
X111486Y-608272D01*
X113681Y-612658D01*
X115558Y-617189D01*
X117107Y-621843D01*
X118320Y-626596D01*
X119191Y-631423D01*
X119715Y-636300D01*
X119890Y-641201D01*
X119715Y-646103D01*
X119191Y-650980D01*
X118320Y-655807D01*
X117107Y-660559D01*
X115558Y-665213D01*
X113681Y-669744D01*
X111486Y-674130D01*
X108983Y-678349D01*
X106186Y-682378D01*
X103108Y-686197D01*
X99766Y-689787D01*
X96176Y-693129D01*
X92357Y-696207D01*
X88328Y-699004D01*
X84109Y-701507D01*
X79724Y-703702D01*
X75192Y-705579D01*
X70538Y-707128D01*
X65786Y-708341D01*
X60959Y-709212D01*
X56082Y-709736D01*
X51180Y-709911D01*
X46279Y-709736D01*
X41402Y-709212D01*
X36575Y-708341D01*
X31822Y-707128D01*
X27168Y-705579D01*
X22637Y-703702D01*
X18251Y-701507D01*
X14033Y-699004D01*
X10004Y-696207D01*
X6185Y-693129D01*
X2595Y-689787D01*
X-747Y-686197D01*
X-3825Y-682378D01*
X-6622Y-678349D01*
X-9125Y-674130D01*
X-11321Y-669744D01*
X-13198Y-665213D01*
X-14747Y-660559D01*
X-15960Y-655807D01*
X-16831Y-650980D01*
X-17355Y-646103D01*
X-17530Y-641201D01*
X-17355Y-636300D01*
X-16831Y-631423D01*
X-15960Y-626596D01*
X-14747Y-621843D01*
X-13198Y-617189D01*
X-11321Y-612658D01*
X-9125Y-608272D01*
X-6622Y-604054D01*
X-3825Y-600025D01*
X-747Y-596206D01*
X2595Y-592616D01*
X6185Y-589274D01*
X10004Y-586196D01*
X14033Y-583398D01*
X18251Y-580896D01*
X22637Y-578700D01*
X27168Y-576823D01*
X31822Y-575274D01*
X36575Y-574061D01*
X41402Y-573190D01*
X46279Y-572666D01*
X51180Y-572491D01*
X56082Y-572666D01*
D02*
G37*
%LPC*%
G36*
X23555Y-633935D02*
X22541Y-633945D01*
X21565Y-634217D01*
X20692Y-634733D01*
X19982Y-635457D01*
X19484Y-636340D01*
X19232Y-637322D01*
X19242Y-638335D01*
X19514Y-639312D01*
X20030Y-640184D01*
X20754Y-640894D01*
X21637Y-641392D01*
X22618Y-641644D01*
X23632Y-641634D01*
X24609Y-641362D01*
X25481Y-640846D01*
X26191Y-640123D01*
X26689Y-639240D01*
X26941Y-638258D01*
X26931Y-637244D01*
X26659Y-636268D01*
X26143Y-635395D01*
X25420Y-634685D01*
X24536Y-634187D01*
X23555Y-633935D01*
D02*
G37*
G36*
X78806Y-633937D02*
X77824Y-634189D01*
X76942Y-634687D01*
X76218Y-635397D01*
X75702Y-636269D01*
X75429Y-637246D01*
X75419Y-638260D01*
X75672Y-639241D01*
X76170Y-640124D01*
X76879Y-640848D01*
X77752Y-641364D01*
X78728Y-641636D01*
X79742Y-641646D01*
X80724Y-641394D01*
X81607Y-640896D01*
X82331Y-640187D01*
X82847Y-639314D01*
X83119Y-638337D01*
X83129Y-637324D01*
X82877Y-636342D01*
X82379Y-635459D01*
X81669Y-634735D01*
X80796Y-634219D01*
X79820Y-633947D01*
X78806Y-633937D01*
D02*
G37*
G36*
X50680Y-637384D02*
X50175Y-637450D01*
X49239Y-637838D01*
X48434Y-638455D01*
X47817Y-639260D01*
X47429Y-640196D01*
X47363Y-640701D01*
X50680D01*
Y-637384D01*
D02*
G37*
G36*
X39532Y-632551D02*
X37464Y-635145D01*
X37900Y-635408D01*
X38874Y-635689D01*
X39887Y-635708D01*
X40872Y-635464D01*
X41759Y-634973D01*
X42126Y-634620D01*
X39532Y-632551D01*
D02*
G37*
G36*
X63343Y-627991D02*
X62330Y-628010D01*
X61356Y-628290D01*
X60487Y-628813D01*
X59784Y-629543D01*
X59294Y-630431D01*
X59050Y-631415D01*
X59069Y-632428D01*
X59349Y-633402D01*
X59872Y-634271D01*
X60602Y-634974D01*
X61489Y-635464D01*
X62473Y-635708D01*
X63487Y-635689D01*
X64461Y-635409D01*
X65329Y-634886D01*
X66033Y-634156D01*
X66523Y-633268D01*
X66767Y-632285D01*
X66748Y-631271D01*
X66468Y-630297D01*
X65945Y-629429D01*
X65215Y-628725D01*
X64327Y-628235D01*
X63343Y-627991D01*
D02*
G37*
G36*
X51680Y-637384D02*
Y-640701D01*
X54998D01*
X54931Y-640196D01*
X54543Y-639260D01*
X53926Y-638455D01*
X53122Y-637838D01*
X52185Y-637450D01*
X51680Y-637384D01*
D02*
G37*
G36*
X50680Y-641701D02*
X47363D01*
X47429Y-642206D01*
X47817Y-643143D01*
X48434Y-643947D01*
X49239Y-644564D01*
X50175Y-644952D01*
X50680Y-645019D01*
Y-641701D01*
D02*
G37*
G36*
X92980Y-637318D02*
X91975Y-637450D01*
X91039Y-637838D01*
X90234Y-638455D01*
X89617Y-639260D01*
X89229Y-640196D01*
X89097Y-641201D01*
X89229Y-642206D01*
X89617Y-643143D01*
X90234Y-643947D01*
X91039Y-644564D01*
X91975Y-644952D01*
X92980Y-645084D01*
X93985Y-644952D01*
X94922Y-644564D01*
X95726Y-643947D01*
X96343Y-643143D01*
X96731Y-642206D01*
X96863Y-641201D01*
X96731Y-640196D01*
X96343Y-639260D01*
X95726Y-638455D01*
X94922Y-637838D01*
X93985Y-637450D01*
X92980Y-637318D01*
D02*
G37*
G36*
X9380D02*
X8375Y-637450D01*
X7439Y-637838D01*
X6634Y-638455D01*
X6017Y-639260D01*
X5629Y-640196D01*
X5497Y-641201D01*
X5629Y-642206D01*
X6017Y-643143D01*
X6634Y-643947D01*
X7439Y-644564D01*
X8375Y-644952D01*
X9380Y-645084D01*
X10385Y-644952D01*
X11322Y-644564D01*
X12126Y-643947D01*
X12743Y-643143D01*
X13131Y-642206D01*
X13263Y-641201D01*
X13131Y-640196D01*
X12743Y-639260D01*
X12126Y-638455D01*
X11322Y-637838D01*
X10385Y-637450D01*
X9380Y-637318D01*
D02*
G37*
G36*
X36702Y-640658D02*
X36194Y-640706D01*
X36932Y-643940D01*
X40167Y-643202D01*
X39989Y-642724D01*
X39403Y-641898D01*
X38622Y-641251D01*
X37701Y-640828D01*
X36702Y-640658D01*
D02*
G37*
G36*
X35219Y-640928D02*
X34742Y-641106D01*
X33915Y-641692D01*
X33268Y-642473D01*
X32846Y-643394D01*
X32676Y-644393D01*
X32723Y-644901D01*
X35958Y-644163D01*
X35219Y-640928D01*
D02*
G37*
G36*
X54998Y-641701D02*
X51680D01*
Y-645019D01*
X52185Y-644952D01*
X53122Y-644564D01*
X53926Y-643947D01*
X54543Y-643143D01*
X54931Y-642206D01*
X54998Y-641701D01*
D02*
G37*
G36*
X36156Y-629860D02*
X35894Y-630296D01*
X35613Y-631270D01*
X35594Y-632283D01*
X35838Y-633267D01*
X36328Y-634155D01*
X36682Y-634522D01*
X38750Y-631928D01*
X36156Y-629860D01*
D02*
G37*
G36*
X84591Y-612770D02*
X83606Y-613006D01*
X82715Y-613490D01*
X81979Y-614188D01*
X81450Y-615052D01*
X81162Y-616024D01*
X81135Y-617038D01*
X81372Y-618023D01*
X81856Y-618914D01*
X82553Y-619650D01*
X83418Y-620179D01*
X84390Y-620467D01*
X85403Y-620494D01*
X86389Y-620257D01*
X87280Y-619773D01*
X88015Y-619076D01*
X88545Y-618211D01*
X88833Y-617239D01*
X88859Y-616226D01*
X88622Y-615240D01*
X88139Y-614349D01*
X87441Y-613614D01*
X86577Y-613084D01*
X85605Y-612796D01*
X84591Y-612770D01*
D02*
G37*
G36*
X17769D02*
X16756Y-612796D01*
X15784Y-613084D01*
X14920Y-613614D01*
X14222Y-614349D01*
X13738Y-615240D01*
X13501Y-616226D01*
X13528Y-617239D01*
X13816Y-618211D01*
X14346Y-619076D01*
X15081Y-619773D01*
X15972Y-620257D01*
X16958Y-620494D01*
X17971Y-620467D01*
X18943Y-620179D01*
X19807Y-619650D01*
X20505Y-618914D01*
X20989Y-618023D01*
X21225Y-617038D01*
X21199Y-616024D01*
X20911Y-615052D01*
X20381Y-614188D01*
X19646Y-613490D01*
X18755Y-613006D01*
X17769Y-612770D01*
D02*
G37*
G36*
X28203Y-621254D02*
X27190Y-621305D01*
X26225Y-621617D01*
X25374Y-622167D01*
X24694Y-622919D01*
X24232Y-623821D01*
X24019Y-624812D01*
X24070Y-625825D01*
X24382Y-626790D01*
X24932Y-627641D01*
X25684Y-628321D01*
X26586Y-628783D01*
X27577Y-628995D01*
X28590Y-628944D01*
X29555Y-628633D01*
X30406Y-628083D01*
X31086Y-627331D01*
X31548Y-626428D01*
X31761Y-625437D01*
X31710Y-624425D01*
X31398Y-623460D01*
X30848Y-622609D01*
X30096Y-621929D01*
X29194Y-621467D01*
X28203Y-621254D01*
D02*
G37*
G36*
X51180Y-609018D02*
X50175Y-609150D01*
X49239Y-609538D01*
X48434Y-610155D01*
X47817Y-610960D01*
X47429Y-611896D01*
X47297Y-612901D01*
X47429Y-613906D01*
X47817Y-614843D01*
X48434Y-615647D01*
X49239Y-616264D01*
X50175Y-616652D01*
X51180Y-616784D01*
X52185Y-616652D01*
X53122Y-616264D01*
X53926Y-615647D01*
X54543Y-614843D01*
X54931Y-613906D01*
X55063Y-612901D01*
X54931Y-611896D01*
X54543Y-610960D01*
X53926Y-610155D01*
X53122Y-609538D01*
X52185Y-609150D01*
X51180Y-609018D01*
D02*
G37*
G36*
X38185Y-612263D02*
X37176Y-612355D01*
X36224Y-612704D01*
X35396Y-613289D01*
X34747Y-614067D01*
X34321Y-614988D01*
X34149Y-615986D01*
X34240Y-616996D01*
X34590Y-617947D01*
X35175Y-618776D01*
X35953Y-619425D01*
X36873Y-619850D01*
X37872Y-620023D01*
X38882Y-619931D01*
X39833Y-619581D01*
X40662Y-618997D01*
X41311Y-618218D01*
X41736Y-617298D01*
X41909Y-616299D01*
X41817Y-615290D01*
X41467Y-614338D01*
X40883Y-613510D01*
X40104Y-612861D01*
X39184Y-612435D01*
X38185Y-612263D01*
D02*
G37*
G36*
X64178Y-612263D02*
X63179Y-612436D01*
X62258Y-612861D01*
X61480Y-613510D01*
X60895Y-614339D01*
X60545Y-615290D01*
X60453Y-616300D01*
X60626Y-617299D01*
X61051Y-618219D01*
X61700Y-618998D01*
X62529Y-619582D01*
X63480Y-619932D01*
X64490Y-620024D01*
X65489Y-619851D01*
X66409Y-619426D01*
X67188Y-618777D01*
X67772Y-617948D01*
X68122Y-616997D01*
X68214Y-615987D01*
X68041Y-614989D01*
X67616Y-614068D01*
X66967Y-613290D01*
X66138Y-612705D01*
X65187Y-612355D01*
X64178Y-612263D01*
D02*
G37*
G36*
X90731Y-624406D02*
X89734Y-624591D01*
X88819Y-625028D01*
X88049Y-625686D01*
X87474Y-626521D01*
X87136Y-627477D01*
X87056Y-628487D01*
X87241Y-629484D01*
X87678Y-630399D01*
X88336Y-631170D01*
X89171Y-631744D01*
X90127Y-632083D01*
X91138Y-632162D01*
X92134Y-631977D01*
X93049Y-631541D01*
X93820Y-630883D01*
X94394Y-630047D01*
X94733Y-629092D01*
X94812Y-628081D01*
X94628Y-627084D01*
X94191Y-626169D01*
X93533Y-625398D01*
X92697Y-624824D01*
X91742Y-624486D01*
X90731Y-624406D01*
D02*
G37*
G36*
X11629D02*
X10619Y-624486D01*
X9663Y-624824D01*
X8828Y-625398D01*
X8169Y-626169D01*
X7733Y-627084D01*
X7548Y-628081D01*
X7628Y-629092D01*
X7966Y-630047D01*
X8540Y-630883D01*
X9311Y-631541D01*
X10226Y-631977D01*
X11223Y-632162D01*
X12234Y-632083D01*
X13189Y-631744D01*
X14025Y-631170D01*
X14683Y-630399D01*
X15119Y-629484D01*
X15304Y-628487D01*
X15225Y-627477D01*
X14886Y-626521D01*
X14312Y-625686D01*
X13541Y-625028D01*
X12626Y-624591D01*
X11629Y-624406D01*
D02*
G37*
G36*
X42224Y-629176D02*
X40156Y-631770D01*
X42749Y-633838D01*
X43012Y-633402D01*
X43293Y-632428D01*
X43312Y-631414D01*
X43068Y-630430D01*
X42577Y-629543D01*
X42224Y-629176D01*
D02*
G37*
G36*
X74159Y-621256D02*
X73168Y-621468D01*
X72266Y-621930D01*
X71514Y-622610D01*
X70963Y-623461D01*
X70652Y-624426D01*
X70601Y-625439D01*
X70814Y-626430D01*
X71276Y-627332D01*
X71955Y-628084D01*
X72807Y-628635D01*
X73771Y-628946D01*
X74784Y-628997D01*
X75775Y-628784D01*
X76677Y-628322D01*
X77429Y-627643D01*
X77980Y-626791D01*
X78291Y-625827D01*
X78342Y-624814D01*
X78130Y-623823D01*
X77668Y-622921D01*
X76988Y-622169D01*
X76136Y-621618D01*
X75172Y-621307D01*
X74159Y-621256D01*
D02*
G37*
G36*
X51180Y-622318D02*
X50175Y-622450D01*
X49239Y-622838D01*
X48434Y-623455D01*
X47817Y-624260D01*
X47429Y-625196D01*
X47297Y-626201D01*
X47429Y-627206D01*
X47817Y-628143D01*
X48434Y-628947D01*
X49239Y-629564D01*
X50175Y-629952D01*
X51180Y-630084D01*
X52185Y-629952D01*
X53122Y-629564D01*
X53926Y-628947D01*
X54543Y-628143D01*
X54931Y-627206D01*
X55063Y-626201D01*
X54931Y-625196D01*
X54543Y-624260D01*
X53926Y-623455D01*
X53122Y-622838D01*
X52185Y-622450D01*
X51180Y-622318D01*
D02*
G37*
G36*
X39018Y-627990D02*
X38034Y-628234D01*
X37147Y-628724D01*
X36780Y-629078D01*
X39374Y-631146D01*
X41442Y-628552D01*
X41006Y-628290D01*
X40032Y-628009D01*
X39018Y-627990D01*
D02*
G37*
G36*
X70180Y-658509D02*
X69169Y-658580D01*
X68211Y-658911D01*
X67371Y-659478D01*
X66706Y-660244D01*
X66263Y-661155D01*
X66070Y-662150D01*
X66141Y-663161D01*
X66472Y-664120D01*
X67039Y-664960D01*
X67804Y-665624D01*
X68716Y-666068D01*
X69711Y-666261D01*
X70722Y-666190D01*
X71681Y-665859D01*
X72521Y-665292D01*
X73185Y-664526D01*
X73629Y-663615D01*
X73822Y-662619D01*
X73751Y-661608D01*
X73420Y-660650D01*
X72852Y-659810D01*
X72087Y-659145D01*
X71176Y-658702D01*
X70180Y-658509D01*
D02*
G37*
G36*
X85403Y-661909D02*
X84390Y-661935D01*
X83418Y-662223D01*
X82553Y-662753D01*
X81856Y-663488D01*
X81372Y-664379D01*
X81135Y-665365D01*
X81162Y-666378D01*
X81450Y-667350D01*
X81979Y-668214D01*
X82715Y-668912D01*
X83606Y-669396D01*
X84591Y-669632D01*
X85605Y-669606D01*
X86577Y-669318D01*
X87441Y-668788D01*
X88139Y-668053D01*
X88622Y-667162D01*
X88859Y-666177D01*
X88833Y-665163D01*
X88545Y-664191D01*
X88015Y-663327D01*
X87280Y-662629D01*
X86389Y-662145D01*
X85403Y-661909D01*
D02*
G37*
G36*
X16958D02*
X15972Y-662145D01*
X15081Y-662629D01*
X14346Y-663327D01*
X13816Y-664191D01*
X13528Y-665163D01*
X13501Y-666177D01*
X13738Y-667162D01*
X14222Y-668053D01*
X14920Y-668788D01*
X15784Y-669318D01*
X16756Y-669606D01*
X17769Y-669632D01*
X18755Y-669396D01*
X19646Y-668912D01*
X20381Y-668214D01*
X20911Y-667350D01*
X21199Y-666378D01*
X21225Y-665365D01*
X20989Y-664379D01*
X20505Y-663488D01*
X19807Y-662753D01*
X18943Y-662223D01*
X17971Y-661935D01*
X16958Y-661909D01*
D02*
G37*
G36*
X44905Y-655383D02*
X43466Y-658372D01*
X43949Y-658531D01*
X44962Y-658588D01*
X45954Y-658381D01*
X46859Y-657924D01*
X47615Y-657249D01*
X47894Y-656822D01*
X44905Y-655383D01*
D02*
G37*
G36*
X57454Y-655383D02*
X54466Y-656823D01*
X54744Y-657249D01*
X55500Y-657924D01*
X56405Y-658381D01*
X57398Y-658588D01*
X58410Y-658532D01*
X58894Y-658372D01*
X57454Y-655383D01*
D02*
G37*
G36*
X32179Y-658507D02*
X31184Y-658700D01*
X30272Y-659144D01*
X29507Y-659808D01*
X28939Y-660648D01*
X28609Y-661607D01*
X28537Y-662618D01*
X28730Y-663613D01*
X29174Y-664525D01*
X29838Y-665290D01*
X30678Y-665858D01*
X31637Y-666188D01*
X32648Y-666260D01*
X33643Y-666067D01*
X34554Y-665623D01*
X35320Y-664959D01*
X35887Y-664119D01*
X36218Y-663161D01*
X36290Y-662149D01*
X36097Y-661154D01*
X35653Y-660243D01*
X34988Y-659477D01*
X34148Y-658910D01*
X33190Y-658579D01*
X32179Y-658507D01*
D02*
G37*
G36*
X44329Y-664796D02*
X43327Y-664949D01*
X42398Y-665355D01*
X41606Y-665988D01*
X41006Y-666805D01*
X40637Y-667749D01*
X40524Y-668757D01*
X40677Y-669759D01*
X41084Y-670687D01*
X41717Y-671479D01*
X42533Y-672080D01*
X43477Y-672449D01*
X44485Y-672561D01*
X45487Y-672408D01*
X46416Y-672002D01*
X47207Y-671369D01*
X47808Y-670552D01*
X48177Y-669608D01*
X48289Y-668601D01*
X48137Y-667598D01*
X47730Y-666670D01*
X47097Y-665878D01*
X46280Y-665277D01*
X45336Y-664908D01*
X44329Y-664796D01*
D02*
G37*
G36*
X63894Y-677077D02*
X62897Y-677262D01*
X61982Y-677699D01*
X61211Y-678357D01*
X60637Y-679192D01*
X60299Y-680148D01*
X60219Y-681159D01*
X60404Y-682155D01*
X60840Y-683070D01*
X61499Y-683841D01*
X62334Y-684415D01*
X63290Y-684754D01*
X64300Y-684833D01*
X65297Y-684649D01*
X66212Y-684212D01*
X66983Y-683554D01*
X67557Y-682718D01*
X67896Y-681763D01*
X67975Y-680752D01*
X67790Y-679755D01*
X67354Y-678840D01*
X66696Y-678070D01*
X65860Y-677495D01*
X64905Y-677157D01*
X63894Y-677077D01*
D02*
G37*
G36*
X38467D02*
X37456Y-677157D01*
X36500Y-677495D01*
X35665Y-678070D01*
X35007Y-678840D01*
X34570Y-679755D01*
X34385Y-680752D01*
X34465Y-681763D01*
X34803Y-682718D01*
X35378Y-683554D01*
X36149Y-684212D01*
X37063Y-684649D01*
X38060Y-684833D01*
X39071Y-684754D01*
X40026Y-684415D01*
X40862Y-683841D01*
X41520Y-683070D01*
X41957Y-682155D01*
X42141Y-681159D01*
X42062Y-680148D01*
X41723Y-679192D01*
X41149Y-678357D01*
X40378Y-677699D01*
X39463Y-677262D01*
X38467Y-677077D01*
D02*
G37*
G36*
X51180Y-679118D02*
X50175Y-679250D01*
X49239Y-679638D01*
X48434Y-680255D01*
X47817Y-681060D01*
X47429Y-681996D01*
X47297Y-683001D01*
X47429Y-684006D01*
X47817Y-684943D01*
X48434Y-685747D01*
X49239Y-686364D01*
X50175Y-686752D01*
X51180Y-686884D01*
X52185Y-686752D01*
X53122Y-686364D01*
X53926Y-685747D01*
X54543Y-684943D01*
X54931Y-684006D01*
X55063Y-683001D01*
X54931Y-681996D01*
X54543Y-681060D01*
X53926Y-680255D01*
X53122Y-679638D01*
X52185Y-679250D01*
X51180Y-679118D01*
D02*
G37*
G36*
X58030Y-664797D02*
X57023Y-664909D01*
X56078Y-665278D01*
X55262Y-665878D01*
X54629Y-666670D01*
X54222Y-667599D01*
X54069Y-668601D01*
X54181Y-669608D01*
X54550Y-670553D01*
X55151Y-671369D01*
X55943Y-672002D01*
X56871Y-672409D01*
X57873Y-672562D01*
X58881Y-672450D01*
X59825Y-672081D01*
X60642Y-671480D01*
X61275Y-670688D01*
X61682Y-669760D01*
X61834Y-668757D01*
X61722Y-667750D01*
X61353Y-666806D01*
X60752Y-665989D01*
X59961Y-665356D01*
X59032Y-664949D01*
X58030Y-664797D01*
D02*
G37*
G36*
X75344Y-671156D02*
X74358Y-671393D01*
X73467Y-671877D01*
X72732Y-672574D01*
X72202Y-673439D01*
X71914Y-674411D01*
X71888Y-675424D01*
X72124Y-676410D01*
X72608Y-677301D01*
X73306Y-678036D01*
X74170Y-678566D01*
X75142Y-678854D01*
X76156Y-678880D01*
X77141Y-678644D01*
X78032Y-678160D01*
X78767Y-677462D01*
X79297Y-676598D01*
X79585Y-675626D01*
X79611Y-674612D01*
X79375Y-673627D01*
X78891Y-672736D01*
X78193Y-672000D01*
X77329Y-671471D01*
X76357Y-671183D01*
X75344Y-671156D01*
D02*
G37*
G36*
X27017D02*
X26003Y-671183D01*
X25031Y-671471D01*
X24167Y-672000D01*
X23469Y-672736D01*
X22986Y-673627D01*
X22749Y-674612D01*
X22775Y-675626D01*
X23063Y-676598D01*
X23593Y-677462D01*
X24328Y-678160D01*
X25219Y-678644D01*
X26205Y-678880D01*
X27218Y-678854D01*
X28190Y-678566D01*
X29055Y-678036D01*
X29752Y-677301D01*
X30236Y-676410D01*
X30473Y-675424D01*
X30446Y-674411D01*
X30158Y-673439D01*
X29629Y-672574D01*
X28893Y-671877D01*
X28002Y-671393D01*
X27017Y-671156D01*
D02*
G37*
G36*
X44381Y-650843D02*
X43389Y-651050D01*
X42484Y-651507D01*
X41728Y-652182D01*
X41449Y-652609D01*
X44438Y-654048D01*
X45878Y-651059D01*
X45394Y-650900D01*
X44381Y-650843D01*
D02*
G37*
G36*
X57978Y-650844D02*
X56966Y-650901D01*
X56482Y-651060D01*
X57922Y-654049D01*
X60910Y-652609D01*
X60632Y-652183D01*
X59876Y-651508D01*
X58971Y-651051D01*
X57978Y-650844D01*
D02*
G37*
G36*
X24329Y-647372D02*
X23342Y-647605D01*
X22449Y-648085D01*
X21711Y-648780D01*
X21178Y-649642D01*
X20886Y-650613D01*
X20855Y-651626D01*
X21088Y-652613D01*
X21568Y-653506D01*
X22263Y-654244D01*
X23125Y-654777D01*
X24096Y-655069D01*
X25109Y-655100D01*
X26096Y-654867D01*
X26989Y-654387D01*
X27727Y-653692D01*
X28260Y-652830D01*
X28552Y-651859D01*
X28583Y-650846D01*
X28350Y-649859D01*
X27870Y-648966D01*
X27175Y-648228D01*
X26313Y-647695D01*
X25342Y-647403D01*
X24329Y-647372D01*
D02*
G37*
G36*
X40389Y-644177D02*
X37155Y-644915D01*
X37893Y-648149D01*
X38371Y-647972D01*
X39197Y-647386D01*
X39844Y-646605D01*
X40267Y-645683D01*
X40437Y-644684D01*
X40389Y-644177D01*
D02*
G37*
G36*
X36180Y-645138D02*
X32946Y-645876D01*
X33123Y-646353D01*
X33709Y-647180D01*
X34490Y-647827D01*
X35412Y-648249D01*
X36411Y-648419D01*
X36918Y-648372D01*
X36180Y-645138D01*
D02*
G37*
G36*
X65659Y-640659D02*
X64660Y-640829D01*
X63738Y-641252D01*
X62958Y-641898D01*
X62371Y-642725D01*
X62018Y-643676D01*
X61923Y-644685D01*
X62093Y-645684D01*
X62516Y-646606D01*
X63163Y-647386D01*
X63989Y-647973D01*
X64940Y-648326D01*
X65949Y-648420D01*
X66948Y-648251D01*
X67870Y-647828D01*
X68651Y-647181D01*
X69237Y-646354D01*
X69590Y-645404D01*
X69684Y-644395D01*
X69515Y-643395D01*
X69092Y-642474D01*
X68445Y-641693D01*
X67619Y-641107D01*
X66668Y-640754D01*
X65659Y-640659D01*
D02*
G37*
G36*
X78031Y-647374D02*
X77018Y-647405D01*
X76047Y-647697D01*
X75185Y-648230D01*
X74490Y-648968D01*
X74010Y-649861D01*
X73777Y-650847D01*
X73808Y-651861D01*
X74100Y-652831D01*
X74633Y-653694D01*
X75371Y-654389D01*
X76264Y-654869D01*
X77250Y-655101D01*
X78263Y-655071D01*
X79234Y-654779D01*
X80097Y-654246D01*
X80791Y-653508D01*
X81272Y-652615D01*
X81504Y-651628D01*
X81474Y-650615D01*
X81182Y-649644D01*
X80649Y-648782D01*
X79911Y-648087D01*
X79018Y-647607D01*
X78031Y-647374D01*
D02*
G37*
G36*
X61344Y-653510D02*
X58355Y-654950D01*
X59795Y-657938D01*
X60221Y-657659D01*
X60896Y-656904D01*
X61353Y-655999D01*
X61560Y-655006D01*
X61503Y-653994D01*
X61344Y-653510D01*
D02*
G37*
G36*
X91138Y-650240D02*
X90127Y-650320D01*
X89171Y-650658D01*
X88336Y-651232D01*
X87678Y-652003D01*
X87241Y-652918D01*
X87056Y-653915D01*
X87136Y-654926D01*
X87474Y-655881D01*
X88049Y-656717D01*
X88819Y-657375D01*
X89734Y-657811D01*
X90731Y-657996D01*
X91742Y-657917D01*
X92697Y-657578D01*
X93533Y-657004D01*
X94191Y-656233D01*
X94628Y-655318D01*
X94812Y-654321D01*
X94733Y-653311D01*
X94394Y-652355D01*
X93820Y-651520D01*
X93049Y-650862D01*
X92134Y-650425D01*
X91138Y-650240D01*
D02*
G37*
G36*
X11223D02*
X10226Y-650425D01*
X9311Y-650862D01*
X8540Y-651520D01*
X7966Y-652355D01*
X7628Y-653311D01*
X7548Y-654321D01*
X7733Y-655318D01*
X8169Y-656233D01*
X8828Y-657004D01*
X9663Y-657578D01*
X10619Y-657917D01*
X11629Y-657996D01*
X12626Y-657811D01*
X13541Y-657375D01*
X14312Y-656717D01*
X14886Y-655881D01*
X15225Y-654926D01*
X15304Y-653915D01*
X15119Y-652918D01*
X14683Y-652003D01*
X14025Y-651232D01*
X13189Y-650658D01*
X12234Y-650320D01*
X11223Y-650240D01*
D02*
G37*
G36*
X46779Y-651493D02*
X45339Y-654482D01*
X48328Y-655922D01*
X48487Y-655438D01*
X48544Y-654425D01*
X48337Y-653433D01*
X47880Y-652528D01*
X47205Y-651772D01*
X46779Y-651493D01*
D02*
G37*
G36*
X55581Y-651494D02*
X55155Y-651772D01*
X54480Y-652528D01*
X54023Y-653433D01*
X53816Y-654426D01*
X53873Y-655438D01*
X54032Y-655922D01*
X57021Y-654482D01*
X55581Y-651494D01*
D02*
G37*
G36*
X41015Y-653510D02*
X40856Y-653994D01*
X40799Y-655006D01*
X41006Y-655998D01*
X41463Y-656903D01*
X42138Y-657659D01*
X42565Y-657938D01*
X44004Y-654949D01*
X41015Y-653510D01*
D02*
G37*
G36*
X26205Y-603522D02*
X25219Y-603759D01*
X24328Y-604243D01*
X23593Y-604940D01*
X23063Y-605805D01*
X22775Y-606777D01*
X22749Y-607790D01*
X22986Y-608776D01*
X23469Y-609667D01*
X24167Y-610402D01*
X25031Y-610932D01*
X26003Y-611220D01*
X27017Y-611246D01*
X28002Y-611010D01*
X28893Y-610526D01*
X29629Y-609828D01*
X30158Y-608964D01*
X30446Y-607992D01*
X30473Y-606978D01*
X30236Y-605993D01*
X29752Y-605102D01*
X29055Y-604366D01*
X28190Y-603837D01*
X27218Y-603549D01*
X26205Y-603522D01*
D02*
G37*
G36*
X26574Y-18992D02*
X25872Y-19132D01*
X25276Y-19530D01*
X24878Y-20125D01*
X24738Y-20827D01*
X24878Y-21530D01*
X25276Y-22125D01*
X25872Y-22523D01*
X26574Y-22662D01*
X27276Y-22523D01*
X27872Y-22125D01*
X28269Y-21530D01*
X28409Y-20827D01*
X28269Y-20125D01*
X27872Y-19530D01*
X27276Y-19132D01*
X26574Y-18992D01*
D02*
G37*
G36*
X47243Y-19779D02*
X46541Y-19919D01*
X45946Y-20317D01*
X45548Y-20912D01*
X45408Y-21615D01*
X45548Y-22317D01*
X45946Y-22912D01*
X46541Y-23310D01*
X47243Y-23450D01*
X47945Y-23310D01*
X48541Y-22912D01*
X48939Y-22317D01*
X49079Y-21615D01*
X48939Y-20912D01*
X48541Y-20317D01*
X47945Y-19919D01*
X47243Y-19779D01*
D02*
G37*
G36*
X37401D02*
X36698Y-19919D01*
X36103Y-20317D01*
X35705Y-20912D01*
X35566Y-21615D01*
X35705Y-22317D01*
X36103Y-22912D01*
X36698Y-23310D01*
X37401Y-23450D01*
X38103Y-23310D01*
X38699Y-22912D01*
X39096Y-22317D01*
X39236Y-21615D01*
X39096Y-20912D01*
X38699Y-20317D01*
X38103Y-19919D01*
X37401Y-19779D01*
D02*
G37*
G36*
X20535Y-18244D02*
X19299D01*
X19340Y-18447D01*
X19737Y-19042D01*
X20333Y-19440D01*
X20535Y-19480D01*
Y-18244D01*
D02*
G37*
G36*
X81692Y-18992D02*
X80990Y-19132D01*
X80394Y-19530D01*
X79996Y-20125D01*
X79974Y-20240D01*
X79474D01*
X79451Y-20125D01*
X79053Y-19530D01*
X78457Y-19132D01*
X77755Y-18992D01*
X77053Y-19132D01*
X76457Y-19530D01*
X76059Y-20125D01*
X76037Y-20240D01*
X75537D01*
X75514Y-20125D01*
X75116Y-19530D01*
X74520Y-19132D01*
X73818Y-18992D01*
X73116Y-19132D01*
X72520Y-19530D01*
X72122Y-20125D01*
X72100Y-20240D01*
X71600D01*
X71577Y-20125D01*
X71179Y-19530D01*
X70583Y-19132D01*
X69881Y-18992D01*
X69179Y-19132D01*
X68583Y-19530D01*
X68185Y-20125D01*
X68163Y-20240D01*
X67663D01*
X67640Y-20125D01*
X67242Y-19530D01*
X66646Y-19132D01*
X65944Y-18992D01*
X65242Y-19132D01*
X64646Y-19530D01*
X64248Y-20125D01*
X64226Y-20240D01*
X63726D01*
X63703Y-20125D01*
X63305Y-19530D01*
X62709Y-19132D01*
X62007Y-18992D01*
X61305Y-19132D01*
X60709Y-19530D01*
X60311Y-20125D01*
X60289Y-20240D01*
X59789D01*
X59766Y-20125D01*
X59368Y-19530D01*
X58772Y-19132D01*
X58070Y-18992D01*
X57368Y-19132D01*
X56772Y-19530D01*
X56374Y-20125D01*
X56352Y-20240D01*
X55852D01*
X55829Y-20125D01*
X55431Y-19530D01*
X54835Y-19132D01*
X54133Y-18992D01*
X53431Y-19132D01*
X52835Y-19530D01*
X52437Y-20125D01*
X52298Y-20827D01*
X52437Y-21530D01*
X52835Y-22125D01*
X53431Y-22523D01*
X54133Y-22662D01*
X54835Y-22523D01*
X55431Y-22125D01*
X55829Y-21530D01*
X55852Y-21414D01*
X56352D01*
X56374Y-21530D01*
X56772Y-22125D01*
X57368Y-22523D01*
X58070Y-22662D01*
X58772Y-22523D01*
X59368Y-22125D01*
X59766Y-21530D01*
X59789Y-21414D01*
X60289D01*
X60311Y-21530D01*
X60709Y-22125D01*
X61305Y-22523D01*
X62007Y-22662D01*
X62709Y-22523D01*
X63305Y-22125D01*
X63703Y-21530D01*
X63726Y-21414D01*
X64226D01*
X64248Y-21530D01*
X64646Y-22125D01*
X65242Y-22523D01*
X65944Y-22662D01*
X66646Y-22523D01*
X67242Y-22125D01*
X67640Y-21530D01*
X67663Y-21414D01*
X68163D01*
X68185Y-21530D01*
X68583Y-22125D01*
X69179Y-22523D01*
X69881Y-22662D01*
X70583Y-22523D01*
X71179Y-22125D01*
X71577Y-21530D01*
X71600Y-21414D01*
X72100D01*
X72122Y-21530D01*
X72520Y-22125D01*
X73116Y-22523D01*
X73818Y-22662D01*
X74520Y-22523D01*
X75116Y-22125D01*
X75514Y-21530D01*
X75537Y-21414D01*
X76037D01*
X76059Y-21530D01*
X76457Y-22125D01*
X77053Y-22523D01*
X77755Y-22662D01*
X78457Y-22523D01*
X79053Y-22125D01*
X79451Y-21530D01*
X79474Y-21414D01*
X79974D01*
X79996Y-21530D01*
X80394Y-22125D01*
X80990Y-22523D01*
X81692Y-22662D01*
X82394Y-22523D01*
X82990Y-22125D01*
X83388Y-21530D01*
X83527Y-20827D01*
X83388Y-20125D01*
X82990Y-19530D01*
X82394Y-19132D01*
X81692Y-18992D01*
D02*
G37*
G36*
X42322D02*
X41620Y-19132D01*
X41024Y-19530D01*
X40626Y-20125D01*
X40487Y-20827D01*
X40626Y-21530D01*
X41024Y-22125D01*
X41620Y-22523D01*
X42322Y-22662D01*
X43024Y-22523D01*
X43620Y-22125D01*
X44018Y-21530D01*
X44157Y-20827D01*
X44018Y-20125D01*
X43620Y-19530D01*
X43024Y-19132D01*
X42322Y-18992D01*
D02*
G37*
G36*
X29231Y-22338D02*
X28529Y-22478D01*
X27934Y-22876D01*
X27536Y-23471D01*
X27396Y-24174D01*
X27536Y-24876D01*
X27934Y-25471D01*
X28529Y-25869D01*
X29231Y-26009D01*
X29934Y-25869D01*
X30529Y-25471D01*
X30927Y-24876D01*
X31067Y-24174D01*
X30927Y-23471D01*
X30529Y-22876D01*
X29934Y-22478D01*
X29231Y-22338D01*
D02*
G37*
G36*
X20168Y-26473D02*
X19966Y-26513D01*
X19371Y-26911D01*
X18973Y-27507D01*
X18933Y-27709D01*
X20168D01*
Y-26473D01*
D02*
G37*
G36*
X58539Y-26572D02*
Y-27808D01*
X59775D01*
X59734Y-27605D01*
X59337Y-27010D01*
X58741Y-26612D01*
X58539Y-26572D01*
D02*
G37*
G36*
X57539D02*
X57336Y-26612D01*
X56741Y-27010D01*
X56343Y-27605D01*
X56303Y-27808D01*
X57539D01*
Y-26572D01*
D02*
G37*
G36*
X15747Y-21401D02*
X14822Y-21585D01*
X14037Y-22109D01*
X13513Y-22893D01*
X13329Y-23819D01*
X13513Y-24744D01*
X14037Y-25529D01*
X14822Y-26053D01*
X15747Y-26237D01*
X16673Y-26053D01*
X17457Y-25529D01*
X17981Y-24744D01*
X18165Y-23819D01*
X17981Y-22893D01*
X17457Y-22109D01*
X16673Y-21585D01*
X15747Y-21401D01*
D02*
G37*
G36*
X86613Y-21228D02*
X85943Y-21316D01*
X85318Y-21575D01*
X84781Y-21987D01*
X84370Y-22524D01*
X84111Y-23148D01*
X84022Y-23819D01*
X84111Y-24489D01*
X84370Y-25114D01*
X84781Y-25651D01*
X85318Y-26062D01*
X85943Y-26321D01*
X86613Y-26410D01*
X87284Y-26321D01*
X87909Y-26062D01*
X88445Y-25651D01*
X88857Y-25114D01*
X89116Y-24489D01*
X89204Y-23819D01*
X89116Y-23148D01*
X88857Y-22524D01*
X88445Y-21987D01*
X87909Y-21575D01*
X87284Y-21316D01*
X86613Y-21228D01*
D02*
G37*
G36*
X21168Y-26473D02*
Y-27709D01*
X22404D01*
X22364Y-27507D01*
X21966Y-26911D01*
X21371Y-26513D01*
X21168Y-26473D01*
D02*
G37*
G36*
X29492Y-7390D02*
X28256D01*
Y-8625D01*
X28458Y-8585D01*
X29054Y-8187D01*
X29451Y-7592D01*
X29492Y-7390D01*
D02*
G37*
G36*
X27256D02*
X26020D01*
X26060Y-7592D01*
X26458Y-8187D01*
X27053Y-8585D01*
X27256Y-8625D01*
Y-7390D01*
D02*
G37*
G36*
X66610Y-7772D02*
Y-9008D01*
X67846D01*
X67806Y-8806D01*
X67408Y-8211D01*
X66812Y-7813D01*
X66610Y-7772D01*
D02*
G37*
G36*
X28256Y-5154D02*
Y-6390D01*
X29492D01*
X29451Y-6187D01*
X29054Y-5592D01*
X28458Y-5194D01*
X28256Y-5154D01*
D02*
G37*
G36*
X27256D02*
X27053Y-5194D01*
X26458Y-5592D01*
X26060Y-6187D01*
X26020Y-6390D01*
X27256D01*
Y-5154D01*
D02*
G37*
G36*
X22637Y-4759D02*
X21935Y-4899D01*
X21339Y-5297D01*
X20942Y-5892D01*
X20802Y-6594D01*
X20942Y-7297D01*
X21339Y-7892D01*
X21935Y-8290D01*
X22637Y-8430D01*
X23339Y-8290D01*
X23935Y-7892D01*
X24333Y-7297D01*
X24472Y-6594D01*
X24333Y-5892D01*
X23935Y-5297D01*
X23339Y-4899D01*
X22637Y-4759D01*
D02*
G37*
G36*
X65610Y-7772D02*
X65408Y-7813D01*
X64812Y-8211D01*
X64415Y-8806D01*
X64374Y-9008D01*
X65610D01*
Y-7772D01*
D02*
G37*
G36*
X21535Y-16008D02*
Y-17244D01*
X22771D01*
X22731Y-17042D01*
X22333Y-16446D01*
X21737Y-16049D01*
X21535Y-16008D01*
D02*
G37*
G36*
X20535D02*
X20333Y-16049D01*
X19737Y-16446D01*
X19340Y-17042D01*
X19299Y-17244D01*
X20535D01*
Y-16008D01*
D02*
G37*
G36*
X22771Y-18244D02*
X21535D01*
Y-19480D01*
X21737Y-19440D01*
X22333Y-19042D01*
X22731Y-18447D01*
X22771Y-18244D01*
D02*
G37*
G36*
X67846Y-10008D02*
X66610D01*
Y-11244D01*
X66812Y-11204D01*
X67408Y-10806D01*
X67806Y-10210D01*
X67846Y-10008D01*
D02*
G37*
G36*
X65610D02*
X64374D01*
X64415Y-10210D01*
X64812Y-10806D01*
X65408Y-11204D01*
X65610Y-11244D01*
Y-10008D01*
D02*
G37*
G36*
X14507Y-12633D02*
X13804Y-12773D01*
X13209Y-13171D01*
X12811Y-13766D01*
X12671Y-14468D01*
X12811Y-15171D01*
X13209Y-15766D01*
X13804Y-16164D01*
X14507Y-16304D01*
X15209Y-16164D01*
X15804Y-15766D01*
X16202Y-15171D01*
X16342Y-14468D01*
X16202Y-13766D01*
X15804Y-13171D01*
X15209Y-12773D01*
X14507Y-12633D01*
D02*
G37*
G36*
X30609Y-40547D02*
X29907Y-40687D01*
X29312Y-41085D01*
X28914Y-41680D01*
X28774Y-42382D01*
X28914Y-43085D01*
X29312Y-43680D01*
X29907Y-44078D01*
X30609Y-44218D01*
X31312Y-44078D01*
X31907Y-43680D01*
X32305Y-43085D01*
X32445Y-42382D01*
X32305Y-41680D01*
X31907Y-41085D01*
X31312Y-40687D01*
X30609Y-40547D01*
D02*
G37*
G36*
X73818Y-42220D02*
X73116Y-42360D01*
X72520Y-42758D01*
X72122Y-43353D01*
X71983Y-44056D01*
X72122Y-44758D01*
X72520Y-45353D01*
X73116Y-45751D01*
X73818Y-45891D01*
X74520Y-45751D01*
X75116Y-45353D01*
X75514Y-44758D01*
X75653Y-44056D01*
X75514Y-43353D01*
X75116Y-42758D01*
X74520Y-42360D01*
X73818Y-42220D01*
D02*
G37*
G36*
X50590Y-43598D02*
X49887Y-43738D01*
X49292Y-44136D01*
X48894Y-44731D01*
X48755Y-45433D01*
X48894Y-46136D01*
X49292Y-46731D01*
X49887Y-47129D01*
X50590Y-47269D01*
X51292Y-47129D01*
X51888Y-46731D01*
X52285Y-46136D01*
X52425Y-45433D01*
X52285Y-44731D01*
X51888Y-44136D01*
X51292Y-43738D01*
X50590Y-43598D01*
D02*
G37*
G36*
X77657Y-39268D02*
X76954Y-39407D01*
X76359Y-39805D01*
X75961Y-40400D01*
X75821Y-41103D01*
X75961Y-41805D01*
X76359Y-42401D01*
X76954Y-42798D01*
X77657Y-42938D01*
X78359Y-42798D01*
X78954Y-42401D01*
X79352Y-41805D01*
X79492Y-41103D01*
X79352Y-40400D01*
X78954Y-39805D01*
X78359Y-39407D01*
X77657Y-39268D01*
D02*
G37*
G36*
X65944D02*
X65242Y-39407D01*
X64646Y-39805D01*
X64248Y-40400D01*
X64109Y-41103D01*
X64248Y-41805D01*
X64646Y-42401D01*
X65242Y-42798D01*
X65944Y-42938D01*
X66646Y-42798D01*
X67242Y-42401D01*
X67640Y-41805D01*
X67779Y-41103D01*
X67640Y-40400D01*
X67242Y-39805D01*
X66646Y-39407D01*
X65944Y-39268D01*
D02*
G37*
G36*
X58070Y-40055D02*
X57368Y-40195D01*
X56772Y-40593D01*
X56374Y-41188D01*
X56235Y-41890D01*
X56374Y-42592D01*
X56772Y-43188D01*
X57368Y-43586D01*
X58070Y-43725D01*
X58772Y-43586D01*
X59368Y-43188D01*
X59766Y-42592D01*
X59905Y-41890D01*
X59766Y-41188D01*
X59368Y-40593D01*
X58772Y-40195D01*
X58070Y-40055D01*
D02*
G37*
G36*
X33759Y-43697D02*
X33057Y-43836D01*
X32461Y-44234D01*
X32063Y-44830D01*
X31924Y-45532D01*
X32063Y-46234D01*
X32461Y-46830D01*
X33057Y-47228D01*
X33759Y-47367D01*
X34461Y-47228D01*
X35057Y-46830D01*
X35455Y-46234D01*
X35594Y-45532D01*
X35455Y-44830D01*
X35057Y-44234D01*
X34461Y-43836D01*
X33759Y-43697D01*
D02*
G37*
G36*
X64300Y-597569D02*
X63290Y-597649D01*
X62334Y-597987D01*
X61499Y-598561D01*
X60840Y-599332D01*
X60404Y-600247D01*
X60219Y-601244D01*
X60299Y-602254D01*
X60637Y-603210D01*
X61211Y-604045D01*
X61982Y-604704D01*
X62897Y-605140D01*
X63894Y-605325D01*
X64905Y-605245D01*
X65860Y-604907D01*
X66696Y-604333D01*
X67354Y-603562D01*
X67790Y-602647D01*
X67975Y-601650D01*
X67896Y-600640D01*
X67557Y-599684D01*
X66983Y-598849D01*
X66212Y-598190D01*
X65297Y-597754D01*
X64300Y-597569D01*
D02*
G37*
G36*
X38060D02*
X37063Y-597754D01*
X36149Y-598190D01*
X35378Y-598849D01*
X34803Y-599684D01*
X34465Y-600640D01*
X34385Y-601650D01*
X34570Y-602647D01*
X35007Y-603562D01*
X35665Y-604333D01*
X36500Y-604907D01*
X37456Y-605245D01*
X38467Y-605325D01*
X39463Y-605140D01*
X40378Y-604704D01*
X41149Y-604045D01*
X41723Y-603210D01*
X42062Y-602254D01*
X42141Y-601244D01*
X41957Y-600247D01*
X41520Y-599332D01*
X40862Y-598561D01*
X40026Y-597987D01*
X39071Y-597649D01*
X38060Y-597569D01*
D02*
G37*
G36*
X76156Y-603522D02*
X75142Y-603549D01*
X74170Y-603837D01*
X73306Y-604366D01*
X72608Y-605102D01*
X72124Y-605993D01*
X71888Y-606978D01*
X71914Y-607992D01*
X72202Y-608964D01*
X72732Y-609828D01*
X73467Y-610526D01*
X74358Y-611010D01*
X75344Y-611246D01*
X76357Y-611220D01*
X77329Y-610932D01*
X78193Y-610402D01*
X78891Y-609667D01*
X79375Y-608776D01*
X79611Y-607790D01*
X79585Y-606777D01*
X79297Y-605805D01*
X78767Y-604940D01*
X78032Y-604243D01*
X77141Y-603759D01*
X76156Y-603522D01*
D02*
G37*
G36*
X43668Y-44821D02*
X42966Y-44960D01*
X42370Y-45358D01*
X41973Y-45954D01*
X41833Y-46656D01*
X41973Y-47358D01*
X42370Y-47954D01*
X42966Y-48351D01*
X43668Y-48491D01*
X44370Y-48351D01*
X44966Y-47954D01*
X45364Y-47358D01*
X45503Y-46656D01*
X45364Y-45954D01*
X44966Y-45358D01*
X44370Y-44960D01*
X43668Y-44821D01*
D02*
G37*
G36*
X34646Y-48362D02*
X33943Y-48501D01*
X33348Y-48899D01*
X32950Y-49494D01*
X32810Y-50197D01*
X32950Y-50899D01*
X33348Y-51494D01*
X33943Y-51892D01*
X34646Y-52032D01*
X35348Y-51892D01*
X35943Y-51494D01*
X36341Y-50899D01*
X36481Y-50197D01*
X36341Y-49494D01*
X35943Y-48899D01*
X35348Y-48501D01*
X34646Y-48362D01*
D02*
G37*
G36*
X51180Y-595518D02*
X50175Y-595650D01*
X49239Y-596038D01*
X48434Y-596655D01*
X47817Y-597460D01*
X47429Y-598396D01*
X47297Y-599401D01*
X47429Y-600406D01*
X47817Y-601343D01*
X48434Y-602147D01*
X49239Y-602764D01*
X50175Y-603152D01*
X51180Y-603284D01*
X52185Y-603152D01*
X53122Y-602764D01*
X53926Y-602147D01*
X54543Y-601343D01*
X54931Y-600406D01*
X55063Y-599401D01*
X54931Y-598396D01*
X54543Y-597460D01*
X53926Y-596655D01*
X53122Y-596038D01*
X52185Y-595650D01*
X51180Y-595518D01*
D02*
G37*
G36*
X59775Y-28808D02*
X58539D01*
Y-30043D01*
X58741Y-30003D01*
X59337Y-29605D01*
X59734Y-29010D01*
X59775Y-28808D01*
D02*
G37*
G36*
X57539D02*
X56303D01*
X56343Y-29010D01*
X56741Y-29605D01*
X57336Y-30003D01*
X57539Y-30043D01*
Y-28808D01*
D02*
G37*
G36*
X88052Y-31334D02*
X87349Y-31474D01*
X86754Y-31872D01*
X86356Y-32467D01*
X86216Y-33169D01*
X86356Y-33871D01*
X86754Y-34467D01*
X87349Y-34865D01*
X88052Y-35004D01*
X88754Y-34865D01*
X89349Y-34467D01*
X89747Y-33871D01*
X89887Y-33169D01*
X89747Y-32467D01*
X89349Y-31872D01*
X88754Y-31474D01*
X88052Y-31334D01*
D02*
G37*
G36*
X33759Y-26177D02*
X33057Y-26317D01*
X32461Y-26715D01*
X32063Y-27310D01*
X31924Y-28012D01*
X32063Y-28714D01*
X32461Y-29310D01*
X33057Y-29708D01*
X33759Y-29847D01*
X34461Y-29708D01*
X35057Y-29310D01*
X35455Y-28714D01*
X35594Y-28012D01*
X35455Y-27310D01*
X35057Y-26715D01*
X34461Y-26317D01*
X33759Y-26177D01*
D02*
G37*
G36*
X22404Y-28709D02*
X21168D01*
Y-29945D01*
X21371Y-29905D01*
X21966Y-29507D01*
X22364Y-28911D01*
X22404Y-28709D01*
D02*
G37*
G36*
X20168D02*
X18933D01*
X18973Y-28911D01*
X19371Y-29507D01*
X19966Y-29905D01*
X20168Y-29945D01*
Y-28709D01*
D02*
G37*
G36*
X15157Y-31394D02*
X14454Y-31533D01*
X13859Y-31931D01*
X13461Y-32526D01*
X13321Y-33229D01*
X13461Y-33931D01*
X13859Y-34527D01*
X14454Y-34924D01*
X15157Y-35064D01*
X15859Y-34924D01*
X16454Y-34527D01*
X16852Y-33931D01*
X16992Y-33229D01*
X16852Y-32526D01*
X16454Y-31931D01*
X15859Y-31533D01*
X15157Y-31394D01*
D02*
G37*
G36*
X42322Y-37102D02*
X41620Y-37242D01*
X41024Y-37640D01*
X40626Y-38235D01*
X40487Y-38937D01*
X40626Y-39640D01*
X41024Y-40235D01*
X41620Y-40633D01*
X42322Y-40773D01*
X43024Y-40633D01*
X43620Y-40235D01*
X44018Y-39640D01*
X44157Y-38937D01*
X44018Y-38235D01*
X43620Y-37640D01*
X43024Y-37242D01*
X42322Y-37102D01*
D02*
G37*
G36*
X34056Y-37435D02*
X33354Y-37575D01*
X32758Y-37973D01*
X32360Y-38568D01*
X32221Y-39271D01*
X32360Y-39973D01*
X32758Y-40568D01*
X33354Y-40966D01*
X34056Y-41106D01*
X34758Y-40966D01*
X35354Y-40568D01*
X35752Y-39973D01*
X35891Y-39271D01*
X35752Y-38568D01*
X35354Y-37973D01*
X34758Y-37575D01*
X34056Y-37435D01*
D02*
G37*
G36*
X24605Y-37988D02*
X23903Y-38128D01*
X23308Y-38526D01*
X22910Y-39121D01*
X22770Y-39823D01*
X22910Y-40525D01*
X23308Y-41121D01*
X23903Y-41519D01*
X24605Y-41658D01*
X25308Y-41519D01*
X25903Y-41121D01*
X26301Y-40525D01*
X26441Y-39823D01*
X26301Y-39121D01*
X25903Y-38526D01*
X25308Y-38128D01*
X24605Y-37988D01*
D02*
G37*
G36*
X62007Y-36905D02*
X61305Y-37045D01*
X60709Y-37443D01*
X60311Y-38038D01*
X60172Y-38741D01*
X60311Y-39443D01*
X60709Y-40038D01*
X61305Y-40436D01*
X62007Y-40576D01*
X62709Y-40436D01*
X63305Y-40038D01*
X63703Y-39443D01*
X63842Y-38741D01*
X63703Y-38038D01*
X63305Y-37443D01*
X62709Y-37045D01*
X62007Y-36905D01*
D02*
G37*
G36*
X69881Y-37004D02*
X69179Y-37143D01*
X68583Y-37541D01*
X68185Y-38137D01*
X68046Y-38839D01*
X68185Y-39541D01*
X68583Y-40137D01*
X69179Y-40535D01*
X69881Y-40674D01*
X70583Y-40535D01*
X71179Y-40137D01*
X71577Y-39541D01*
X71716Y-38839D01*
X71577Y-38137D01*
X71179Y-37541D01*
X70583Y-37143D01*
X69881Y-37004D01*
D02*
G37*
G36*
X54133D02*
X53431Y-37143D01*
X52835Y-37541D01*
X52437Y-38137D01*
X52298Y-38839D01*
X52437Y-39541D01*
X52835Y-40137D01*
X53431Y-40535D01*
X54133Y-40674D01*
X54835Y-40535D01*
X55431Y-40137D01*
X55829Y-39541D01*
X55968Y-38839D01*
X55829Y-38137D01*
X55431Y-37541D01*
X54835Y-37143D01*
X54133Y-37004D01*
D02*
G37*
%LPD*%
D10*
X18868Y-28209D02*
X20668D01*
Y-30009D02*
Y-28209D01*
Y-26409D01*
Y-28209D02*
X22468D01*
X19235Y-17744D02*
X21035D01*
Y-19544D02*
Y-17744D01*
Y-15944D01*
Y-17744D02*
X22835D01*
X25956Y-6890D02*
X27756D01*
Y-8690D02*
Y-6890D01*
Y-5090D01*
Y-6890D02*
X29556D01*
X56239Y-28308D02*
X58039D01*
Y-26508D01*
Y-30108D02*
Y-28308D01*
X59839D01*
X64310Y-9508D02*
X66110D01*
Y-11308D02*
Y-9508D01*
Y-7708D01*
Y-9508D02*
X67910D01*
X18868Y-28209D02*
X20668D01*
Y-30009D02*
Y-28209D01*
X22468D01*
X20668D02*
Y-26409D01*
X21035Y-17744D02*
X22835D01*
X19235D02*
X21035D01*
Y-19544D02*
Y-17744D01*
Y-15944D01*
X27756Y-8690D02*
Y-6890D01*
X25956D02*
X27756D01*
X29556D01*
X27756D02*
Y-5090D01*
X56239Y-28308D02*
X58039D01*
Y-26508D01*
Y-30108D02*
Y-28308D01*
X59839D01*
X66110Y-11308D02*
Y-9508D01*
X64310D02*
X66110D01*
X67910D01*
X66110D02*
Y-7708D01*
D15*
X-302264Y-881004D02*
X-252264D01*
X-277264Y-906004D02*
Y-856004D01*
X-282264Y-876004D02*
X-282264Y-881004D01*
X-282264Y-876004D02*
X-277264Y-876004D01*
X-272264Y-881004D02*
X-272264Y-886004D01*
X-277264Y-886004D02*
X-272264Y-886004D01*
X-276764Y-881504D02*
X-272764D01*
Y-885504D02*
Y-881504D01*
X-276764Y-885504D02*
X-272764D01*
X-276764D02*
Y-881504D01*
X-276264Y-882004D02*
X-273264D01*
Y-885004D02*
Y-882004D01*
X-276264Y-885004D02*
X-273264D01*
X-276264D02*
Y-882504D01*
X-275764D02*
X-273764D01*
X-273764Y-884504D01*
X-275764Y-884504D02*
X-273764Y-884504D01*
X-275764Y-884504D02*
Y-883004D01*
X-275264Y-883004D02*
X-274264Y-883004D01*
Y-884004D02*
Y-883004D01*
X-275264Y-884004D02*
X-274264D01*
X-275264D02*
X-275264Y-883004D01*
Y-883504D02*
X-274264D01*
X-281764Y-876504D02*
X-277764D01*
Y-880504D02*
Y-876504D01*
X-281764Y-880504D02*
X-277764D01*
X-281764D02*
Y-876504D01*
X-281264Y-877004D02*
X-278264D01*
Y-880004D02*
Y-877004D01*
X-281264Y-880004D02*
X-278264D01*
X-281264D02*
Y-877504D01*
X-280764D02*
X-278764Y-877504D01*
Y-879504D02*
Y-877504D01*
X-280764Y-879504D02*
X-278764D01*
X-280764D02*
Y-878004D01*
X-280264D02*
X-279264D01*
X-279264Y-879004D02*
X-279264Y-878004D01*
X-280264Y-879004D02*
X-279264Y-879004D01*
X-280264Y-879004D02*
Y-878004D01*
Y-878504D02*
X-279264D01*
X-312205Y47264D02*
X-262205D01*
X-287205Y22264D02*
Y72264D01*
X-292205Y52264D02*
X-292205Y47264D01*
X-292205Y52264D02*
X-287205Y52264D01*
X-282205Y47264D02*
X-282205Y42264D01*
X-287205Y42264D02*
X-282205Y42264D01*
X-286705Y46764D02*
X-282705D01*
Y42764D02*
Y46764D01*
X-286705Y42764D02*
X-282705D01*
X-286705D02*
Y46764D01*
X-286205Y46264D02*
X-283205D01*
Y43264D02*
Y46264D01*
X-286205Y43264D02*
X-283205D01*
X-286205D02*
Y45764D01*
X-285705D02*
X-283705D01*
X-283705Y43764D01*
X-285705Y43764D02*
X-283705Y43764D01*
X-285705Y43764D02*
Y45264D01*
X-285205Y45264D02*
X-284205Y45264D01*
Y44264D02*
Y45264D01*
X-285205Y44264D02*
X-284205D01*
X-285205D02*
X-285205Y45264D01*
Y44764D02*
X-284205D01*
X-291705Y51764D02*
X-287705D01*
Y47764D02*
Y51764D01*
X-291705Y47764D02*
X-287705D01*
X-291705D02*
Y51764D01*
X-291205Y51264D02*
X-288205D01*
Y48264D02*
Y51264D01*
X-291205Y48264D02*
X-288205D01*
X-291205D02*
Y50764D01*
X-290705D02*
X-288705Y50764D01*
Y48764D02*
Y50764D01*
X-290705Y48764D02*
X-288705D01*
X-290705D02*
Y50264D01*
X-290205D02*
X-289205D01*
X-289205Y49264D02*
X-289205Y50264D01*
X-290205Y49264D02*
X-289205Y49264D01*
X-290205Y49264D02*
Y50264D01*
Y49764D02*
X-289205D01*
X559941Y-871142D02*
X609941D01*
X584941Y-896142D02*
Y-846142D01*
X579941Y-866142D02*
X579941Y-871142D01*
X579941Y-866142D02*
X584941Y-866142D01*
X589941Y-871142D02*
X589941Y-876142D01*
X584941Y-876142D02*
X589941Y-876142D01*
X585441Y-871642D02*
X589441D01*
Y-875642D02*
Y-871642D01*
X585441Y-875642D02*
X589441D01*
X585441D02*
Y-871642D01*
X585941Y-872142D02*
X588941D01*
Y-875142D02*
Y-872142D01*
X585941Y-875142D02*
X588941D01*
X585941D02*
Y-872642D01*
X586441D02*
X588441D01*
X588441Y-874642D01*
X586441Y-874642D02*
X588441Y-874642D01*
X586441Y-874642D02*
Y-873142D01*
X586941Y-873142D02*
X587941Y-873142D01*
Y-874142D02*
Y-873142D01*
X586941Y-874142D02*
X587941D01*
X586941D02*
X586941Y-873142D01*
Y-873642D02*
X587941D01*
X580441Y-866642D02*
X584441D01*
Y-870642D02*
Y-866642D01*
X580441Y-870642D02*
X584441D01*
X580441D02*
Y-866642D01*
X580941Y-867142D02*
X583941D01*
Y-870142D02*
Y-867142D01*
X580941Y-870142D02*
X583941D01*
X580941D02*
Y-867642D01*
X581441D02*
X583441Y-867642D01*
Y-869642D02*
Y-867642D01*
X581441Y-869642D02*
X583441D01*
X581441D02*
Y-868142D01*
X581941D02*
X582941D01*
X582941Y-869142D02*
X582941Y-868142D01*
X581941Y-869142D02*
X582941Y-869142D01*
X581941Y-869142D02*
Y-868142D01*
Y-868642D02*
X582941D01*
D17*
X-47013Y-818872D02*
Y-823442D01*
X-48917Y-820014D02*
X-45109Y-822300D01*
Y-820014D02*
X-48917Y-822300D01*
X-43090Y-826108D02*
X-43471Y-826489D01*
X-43090Y-826870D01*
X-42709Y-826489D01*
X-43090Y-826108D01*
X-35244Y-820776D02*
X-35625Y-820014D01*
X-36387Y-819253D01*
X-37148Y-818872D01*
X-38672D01*
X-39434Y-819253D01*
X-40195Y-820014D01*
X-40576Y-820776D01*
X-40957Y-821919D01*
Y-823823D01*
X-40576Y-824966D01*
X-40195Y-825727D01*
X-39434Y-826489D01*
X-38672Y-826870D01*
X-37148D01*
X-36387Y-826489D01*
X-35625Y-825727D01*
X-35244Y-824966D01*
Y-823823D01*
X-37148D02*
X-35244D01*
X-32654Y-818872D02*
X-28465D01*
X-30750Y-821919D01*
X-29607D01*
X-28845Y-822300D01*
X-28465Y-822680D01*
X-28084Y-823823D01*
Y-824585D01*
X-28465Y-825727D01*
X-29226Y-826489D01*
X-30369Y-826870D01*
X-31512D01*
X-32654Y-826489D01*
X-33035Y-826108D01*
X-33416Y-825347D01*
X-20009Y-823442D02*
X-13154D01*
X-4508Y-818872D02*
Y-826870D01*
Y-818872D02*
X-1461Y-826870D01*
X1586Y-818872D02*
X-1461Y-826870D01*
X1586Y-818872D02*
Y-826870D01*
X3871Y-818872D02*
Y-826870D01*
X5547Y-818872D02*
Y-826870D01*
Y-818872D02*
X8213D01*
X9356Y-819253D01*
X10118Y-820014D01*
X10498Y-820776D01*
X10879Y-821919D01*
Y-823823D01*
X10498Y-824966D01*
X10118Y-825727D01*
X9356Y-826489D01*
X8213Y-826870D01*
X5547D01*
X18954Y-818872D02*
Y-826870D01*
X23524D01*
X30494D02*
X27447Y-818872D01*
X24400Y-826870D01*
X25543Y-824204D02*
X29352D01*
X32361Y-818872D02*
X35408Y-822680D01*
Y-826870D01*
X38454Y-818872D02*
X35408Y-822680D01*
X44434Y-818872D02*
X39483D01*
Y-826870D01*
X44434D01*
X39483Y-822680D02*
X42530D01*
X45767Y-818872D02*
Y-826870D01*
Y-818872D02*
X49195D01*
X50338Y-819253D01*
X50718Y-819633D01*
X51099Y-820395D01*
Y-821157D01*
X50718Y-821919D01*
X50338Y-822300D01*
X49195Y-822680D01*
X45767D01*
X48433D02*
X51099Y-826870D01*
X59935Y-818872D02*
X64125D01*
X61840Y-821919D01*
X62982D01*
X63744Y-822300D01*
X64125Y-822680D01*
X64506Y-823823D01*
Y-824585D01*
X64125Y-825727D01*
X63363Y-826489D01*
X62221Y-826870D01*
X61078D01*
X59935Y-826489D01*
X59555Y-826108D01*
X59174Y-825347D01*
X78294Y-820776D02*
X77913Y-820014D01*
X77151Y-819253D01*
X76389Y-818872D01*
X74866D01*
X74104Y-819253D01*
X73342Y-820014D01*
X72961Y-820776D01*
X72580Y-821919D01*
Y-823823D01*
X72961Y-824966D01*
X73342Y-825727D01*
X74104Y-826489D01*
X74866Y-826870D01*
X76389D01*
X77151Y-826489D01*
X77913Y-825727D01*
X78294Y-824966D01*
Y-823823D01*
X76389D02*
X78294D01*
X85073Y-818872D02*
X80122D01*
Y-826870D01*
X85073D01*
X80122Y-822680D02*
X83169D01*
X86406Y-818872D02*
Y-826870D01*
Y-818872D02*
X89834D01*
X90977Y-819253D01*
X91357Y-819633D01*
X91738Y-820395D01*
Y-821157D01*
X91357Y-821919D01*
X90977Y-822300D01*
X89834Y-822680D01*
X86406D01*
X89072D02*
X91738Y-826870D01*
X93528Y-818872D02*
Y-826870D01*
Y-818872D02*
X96956D01*
X98099Y-819253D01*
X98480Y-819633D01*
X98861Y-820395D01*
Y-821157D01*
X98480Y-821919D01*
X98099Y-822300D01*
X96956Y-822680D01*
X93528D02*
X96956D01*
X98099Y-823061D01*
X98480Y-823442D01*
X98861Y-824204D01*
Y-825347D01*
X98480Y-826108D01*
X98099Y-826489D01*
X96956Y-826870D01*
X93528D01*
X105602Y-818872D02*
X100651D01*
Y-826870D01*
X105602D01*
X100651Y-822680D02*
X103698D01*
X106935Y-818872D02*
Y-826870D01*
Y-818872D02*
X110363D01*
X111505Y-819253D01*
X111886Y-819633D01*
X112267Y-820395D01*
Y-821157D01*
X111886Y-821919D01*
X111505Y-822300D01*
X110363Y-822680D01*
X106935D01*
X109601D02*
X112267Y-826870D01*
X120342Y-818872D02*
Y-826870D01*
Y-818872D02*
X123008D01*
X124150Y-819253D01*
X124912Y-820014D01*
X125293Y-820776D01*
X125674Y-821919D01*
Y-823823D01*
X125293Y-824966D01*
X124912Y-825727D01*
X124150Y-826489D01*
X123008Y-826870D01*
X120342D01*
X133558D02*
X130511Y-818872D01*
X127464Y-826870D01*
X128606Y-824204D02*
X132415D01*
X138090Y-818872D02*
Y-826870D01*
X135424Y-818872D02*
X140756D01*
X147802Y-826870D02*
X144755Y-818872D01*
X141709Y-826870D01*
X142851Y-824204D02*
X146660D01*
D18*
X-46609Y-751128D02*
X-47371Y-750366D01*
X-48513Y-749985D01*
X-50037D01*
X-51179Y-750366D01*
X-51941Y-751128D01*
Y-751890D01*
X-51560Y-752651D01*
X-51179Y-753032D01*
X-50418Y-753413D01*
X-48132Y-754175D01*
X-47371Y-754556D01*
X-46990Y-754937D01*
X-46609Y-755698D01*
Y-756841D01*
X-47371Y-757603D01*
X-48513Y-757983D01*
X-50037D01*
X-51179Y-757603D01*
X-51941Y-756841D01*
X-44819Y-749985D02*
Y-757983D01*
X-43143Y-749985D02*
Y-757983D01*
Y-749985D02*
X-37811Y-757983D01*
Y-749985D02*
Y-757983D01*
X-35602Y-749985D02*
Y-757983D01*
X-28594Y-751128D02*
X-29355Y-750366D01*
X-30498Y-749985D01*
X-32021D01*
X-33164Y-750366D01*
X-33926Y-751128D01*
Y-751890D01*
X-33545Y-752651D01*
X-33164Y-753032D01*
X-32402Y-753413D01*
X-30117Y-754175D01*
X-29355Y-754556D01*
X-28975Y-754937D01*
X-28594Y-755698D01*
Y-756841D01*
X-29355Y-757603D01*
X-30498Y-757983D01*
X-32021D01*
X-33164Y-757603D01*
X-33926Y-756841D01*
X-24137Y-749985D02*
Y-757983D01*
X-26804Y-749985D02*
X-21471D01*
X-20519D02*
Y-757983D01*
Y-749985D02*
X-17091D01*
X-15949Y-750366D01*
X-15568Y-750747D01*
X-15187Y-751509D01*
Y-752270D01*
X-15568Y-753032D01*
X-15949Y-753413D01*
X-17091Y-753794D01*
X-20519D01*
X-17853D02*
X-15187Y-757983D01*
X-11112Y-749985D02*
X-11873Y-750366D01*
X-12635Y-751128D01*
X-13016Y-751890D01*
X-13397Y-753032D01*
Y-754937D01*
X-13016Y-756079D01*
X-12635Y-756841D01*
X-11873Y-757603D01*
X-11112Y-757983D01*
X-9588D01*
X-8826Y-757603D01*
X-8065Y-756841D01*
X-7684Y-756079D01*
X-7303Y-754937D01*
Y-753032D01*
X-7684Y-751890D01*
X-8065Y-751128D01*
X-8826Y-750366D01*
X-9588Y-749985D01*
X-11112D01*
X848D02*
Y-757983D01*
Y-749985D02*
X5799D01*
X848Y-753794D02*
X3895D01*
X6713Y-749985D02*
Y-757983D01*
X11283D01*
X17111Y-749985D02*
X12160D01*
Y-757983D01*
X17111D01*
X12160Y-753794D02*
X15206D01*
X18444Y-749985D02*
X23776Y-757983D01*
Y-749985D02*
X18444Y-757983D01*
X37564Y-751890D02*
X37183Y-751128D01*
X36421Y-750366D01*
X35659Y-749985D01*
X34136D01*
X33374Y-750366D01*
X32612Y-751128D01*
X32231Y-751890D01*
X31850Y-753032D01*
Y-754937D01*
X32231Y-756079D01*
X32612Y-756841D01*
X33374Y-757603D01*
X34136Y-757983D01*
X35659D01*
X36421Y-757603D01*
X37183Y-756841D01*
X37564Y-756079D01*
X39811Y-749985D02*
Y-757983D01*
X41487Y-749985D02*
Y-757983D01*
Y-749985D02*
X44914D01*
X46057Y-750366D01*
X46438Y-750747D01*
X46819Y-751509D01*
Y-752270D01*
X46438Y-753032D01*
X46057Y-753413D01*
X44914Y-753794D01*
X41487D01*
X44153D02*
X46819Y-757983D01*
X54322Y-751890D02*
X53941Y-751128D01*
X53179Y-750366D01*
X52418Y-749985D01*
X50894D01*
X50132Y-750366D01*
X49371Y-751128D01*
X48990Y-751890D01*
X48609Y-753032D01*
Y-754937D01*
X48990Y-756079D01*
X49371Y-756841D01*
X50132Y-757603D01*
X50894Y-757983D01*
X52418D01*
X53179Y-757603D01*
X53941Y-756841D01*
X54322Y-756079D01*
X56569Y-749985D02*
Y-755698D01*
X56950Y-756841D01*
X57712Y-757603D01*
X58854Y-757983D01*
X59616D01*
X60759Y-757603D01*
X61520Y-756841D01*
X61901Y-755698D01*
Y-749985D01*
X64110D02*
Y-757983D01*
X68452Y-749985D02*
Y-757983D01*
X65786Y-749985D02*
X71118D01*
X78355D02*
Y-757983D01*
Y-749985D02*
X81783D01*
X82925Y-750366D01*
X83306Y-750747D01*
X83687Y-751509D01*
Y-752270D01*
X83306Y-753032D01*
X82925Y-753413D01*
X81783Y-753794D01*
X78355D01*
X81021D02*
X83687Y-757983D01*
X85477Y-754937D02*
X90048D01*
Y-754175D01*
X89667Y-753413D01*
X89286Y-753032D01*
X88524Y-752651D01*
X87382D01*
X86620Y-753032D01*
X85858Y-753794D01*
X85477Y-754937D01*
Y-755698D01*
X85858Y-756841D01*
X86620Y-757603D01*
X87382Y-757983D01*
X88524D01*
X89286Y-757603D01*
X90048Y-756841D01*
X91761Y-752651D02*
X94047Y-757983D01*
X96332Y-752651D02*
X94047Y-757983D01*
X98008Y-757222D02*
X97627Y-757603D01*
X98008Y-757983D01*
X98389Y-757603D01*
X98008Y-757222D01*
X112519Y-757983D02*
X109472Y-749985D01*
X106425Y-757983D01*
X107568Y-755317D02*
X111376D01*
D19*
X-51940Y-765620D02*
Y-773618D01*
X-47370D01*
X-40400D02*
X-43447Y-765620D01*
X-46494Y-773618D01*
X-45351Y-770952D02*
X-41542D01*
X-33201Y-766762D02*
X-33963Y-766001D01*
X-35106Y-765620D01*
X-36629D01*
X-37772Y-766001D01*
X-38534Y-766762D01*
Y-767524D01*
X-38153Y-768286D01*
X-37772Y-768667D01*
X-37010Y-769048D01*
X-34725Y-769809D01*
X-33963Y-770190D01*
X-33582Y-770571D01*
X-33201Y-771333D01*
Y-772475D01*
X-33963Y-773237D01*
X-35106Y-773618D01*
X-36629D01*
X-37772Y-773237D01*
X-38534Y-772475D01*
X-19414Y-767524D02*
X-19795Y-766762D01*
X-20557Y-766001D01*
X-21318Y-765620D01*
X-22842D01*
X-23603Y-766001D01*
X-24365Y-766762D01*
X-24746Y-767524D01*
X-25127Y-768667D01*
Y-770571D01*
X-24746Y-771714D01*
X-24365Y-772475D01*
X-23603Y-773237D01*
X-22842Y-773618D01*
X-21318D01*
X-20557Y-773237D01*
X-19795Y-772475D01*
X-19414Y-771714D01*
X-17167Y-765620D02*
Y-771333D01*
X-16786Y-772475D01*
X-16024Y-773237D01*
X-14882Y-773618D01*
X-14120D01*
X-12977Y-773237D01*
X-12215Y-772475D01*
X-11834Y-771333D01*
Y-765620D01*
X-9625D02*
Y-773618D01*
Y-765620D02*
X-6578Y-773618D01*
X-3531Y-765620D02*
X-6578Y-773618D01*
X-3531Y-765620D02*
Y-773618D01*
X-1246Y-765620D02*
Y-773618D01*
Y-765620D02*
X2182D01*
X3324Y-766001D01*
X3705Y-766382D01*
X4086Y-767143D01*
Y-767905D01*
X3705Y-768667D01*
X3324Y-769048D01*
X2182Y-769429D01*
X-1246D02*
X2182D01*
X3324Y-769809D01*
X3705Y-770190D01*
X4086Y-770952D01*
Y-772095D01*
X3705Y-772856D01*
X3324Y-773237D01*
X2182Y-773618D01*
X-1246D01*
X5876Y-765620D02*
Y-773618D01*
Y-765620D02*
X9304D01*
X10446Y-766001D01*
X10827Y-766382D01*
X11208Y-767143D01*
Y-767905D01*
X10827Y-768667D01*
X10446Y-769048D01*
X9304Y-769429D01*
X5876D01*
X8542D02*
X11208Y-773618D01*
X17950Y-765620D02*
X12998D01*
Y-773618D01*
X17950D01*
X12998Y-769429D02*
X16045D01*
X24615Y-766762D02*
X23853Y-766001D01*
X22711Y-765620D01*
X21187D01*
X20044Y-766001D01*
X19283Y-766762D01*
Y-767524D01*
X19663Y-768286D01*
X20044Y-768667D01*
X20806Y-769048D01*
X23091Y-769809D01*
X23853Y-770190D01*
X24234Y-770571D01*
X24615Y-771333D01*
Y-772475D01*
X23853Y-773237D01*
X22711Y-773618D01*
X21187D01*
X20044Y-773237D01*
X19283Y-772475D01*
X34975Y-765620D02*
X34213Y-766001D01*
X33451Y-766762D01*
X33070Y-767524D01*
X32689Y-768667D01*
Y-770571D01*
X33070Y-771714D01*
X33451Y-772475D01*
X34213Y-773237D01*
X34975Y-773618D01*
X36498D01*
X37260Y-773237D01*
X38021Y-772475D01*
X38402Y-771714D01*
X38783Y-770571D01*
Y-768667D01*
X38402Y-767524D01*
X38021Y-766762D01*
X37260Y-766001D01*
X36498Y-765620D01*
X34975D01*
X40650D02*
Y-773618D01*
Y-765620D02*
X44077D01*
X45220Y-766001D01*
X45601Y-766382D01*
X45982Y-767143D01*
Y-767905D01*
X45601Y-768667D01*
X45220Y-769048D01*
X44077Y-769429D01*
X40650D02*
X44077D01*
X45220Y-769809D01*
X45601Y-770190D01*
X45982Y-770952D01*
Y-772095D01*
X45601Y-772856D01*
X45220Y-773237D01*
X44077Y-773618D01*
X40650D01*
X53104Y-766762D02*
X52342Y-766001D01*
X51200Y-765620D01*
X49676D01*
X48533Y-766001D01*
X47772Y-766762D01*
Y-767524D01*
X48153Y-768286D01*
X48533Y-768667D01*
X49295Y-769048D01*
X51581Y-769809D01*
X52342Y-770190D01*
X52723Y-770571D01*
X53104Y-771333D01*
Y-772475D01*
X52342Y-773237D01*
X51200Y-773618D01*
X49676D01*
X48533Y-773237D01*
X47772Y-772475D01*
X59845Y-765620D02*
X54894D01*
Y-773618D01*
X59845D01*
X54894Y-769429D02*
X57941D01*
X61178Y-765620D02*
Y-773618D01*
Y-765620D02*
X64606D01*
X65749Y-766001D01*
X66130Y-766382D01*
X66511Y-767143D01*
Y-767905D01*
X66130Y-768667D01*
X65749Y-769048D01*
X64606Y-769429D01*
X61178D01*
X63845D02*
X66511Y-773618D01*
X68301Y-765620D02*
X71348Y-773618D01*
X74395Y-765620D02*
X71348Y-773618D01*
X81517D02*
X78470Y-765620D01*
X75423Y-773618D01*
X76566Y-770952D02*
X80374D01*
X86049Y-765620D02*
Y-773618D01*
X83383Y-765620D02*
X88715D01*
X91953D02*
X91191Y-766001D01*
X90429Y-766762D01*
X90048Y-767524D01*
X89667Y-768667D01*
Y-770571D01*
X90048Y-771714D01*
X90429Y-772475D01*
X91191Y-773237D01*
X91953Y-773618D01*
X93476D01*
X94238Y-773237D01*
X95000Y-772475D01*
X95381Y-771714D01*
X95762Y-770571D01*
Y-768667D01*
X95381Y-767524D01*
X95000Y-766762D01*
X94238Y-766001D01*
X93476Y-765620D01*
X91953D01*
X97628D02*
Y-773618D01*
Y-765620D02*
X101056D01*
X102198Y-766001D01*
X102579Y-766382D01*
X102960Y-767143D01*
Y-767905D01*
X102579Y-768667D01*
X102198Y-769048D01*
X101056Y-769429D01*
X97628D01*
X100294D02*
X102960Y-773618D01*
X104750Y-765620D02*
X107797Y-769429D01*
Y-773618D01*
X110844Y-765620D02*
X107797Y-769429D01*
X143294Y-767143D02*
X144056Y-766762D01*
X145199Y-765620D01*
Y-773618D01*
X151445Y-765620D02*
X150302Y-766001D01*
X149540Y-767143D01*
X149160Y-769048D01*
Y-770190D01*
X149540Y-772095D01*
X150302Y-773237D01*
X151445Y-773618D01*
X152207D01*
X153349Y-773237D01*
X154111Y-772095D01*
X154492Y-770190D01*
Y-769048D01*
X154111Y-767143D01*
X153349Y-766001D01*
X152207Y-765620D01*
X151445D01*
X156282Y-774761D02*
X161614Y-765620D01*
X162147Y-767143D02*
X162909Y-766762D01*
X164052Y-765620D01*
Y-773618D01*
X169917Y-765620D02*
X168774Y-766001D01*
X168394Y-766762D01*
Y-767524D01*
X168774Y-768286D01*
X169536Y-768667D01*
X171060Y-769048D01*
X172202Y-769429D01*
X172964Y-770190D01*
X173345Y-770952D01*
Y-772095D01*
X172964Y-772856D01*
X172583Y-773237D01*
X171440Y-773618D01*
X169917D01*
X168774Y-773237D01*
X168394Y-772856D01*
X168013Y-772095D01*
Y-770952D01*
X168394Y-770190D01*
X169155Y-769429D01*
X170298Y-769048D01*
X171821Y-768667D01*
X172583Y-768286D01*
X172964Y-767524D01*
Y-766762D01*
X172583Y-766001D01*
X171440Y-765620D01*
X169917D01*
X175135Y-774761D02*
X180467Y-765620D01*
X181000Y-767143D02*
X181762Y-766762D01*
X182905Y-765620D01*
Y-773618D01*
X189151Y-765620D02*
X188008Y-766001D01*
X187247Y-767143D01*
X186866Y-769048D01*
Y-770190D01*
X187247Y-772095D01*
X188008Y-773237D01*
X189151Y-773618D01*
X189913D01*
X191055Y-773237D01*
X191817Y-772095D01*
X192198Y-770190D01*
Y-769048D01*
X191817Y-767143D01*
X191055Y-766001D01*
X189913Y-765620D01*
X189151D01*
D21*
X57688Y-654716D02*
D03*
X44672Y-654716D02*
D03*
X36556Y-644539D02*
D03*
X39453Y-631849D02*
D03*
X51180Y-641201D02*
D03*
D26*
X21035Y-17744D02*
D03*
X27756Y-6890D02*
D03*
X66110Y-9508D02*
D03*
X20668Y-28209D02*
D03*
X58039Y-28308D02*
D03*
D28*
X23218Y-28209D02*
G03*
X23218Y-28209I-2550J0D01*
G01*
X27155Y-39823D02*
G03*
X27155Y-39823I-2550J0D01*
G01*
X31306Y-44835D02*
G03*
X33288Y-48038I2453J-697D01*
G01*
D02*
G03*
X37196Y-50197I1357J-2159D01*
G01*
X31626Y-40044D02*
G03*
X31306Y-44835I-1017J-2339D01*
G01*
X36606Y-39271D02*
G03*
X31626Y-40044I-2550J0D01*
G01*
X18869Y-23819D02*
G03*
X18869Y-23819I-3122J0D01*
G01*
D02*
G03*
X18869Y-23819I-3122J0D01*
G01*
X23585Y-17744D02*
G03*
X23585Y-17744I-2550J0D01*
G01*
X26813Y-23366D02*
G03*
X31781Y-24174I2419J-808D01*
G01*
X29124Y-20827D02*
G03*
X26813Y-23366I-2550J0D01*
G01*
X31781Y-24174D02*
G03*
X28993Y-21635I-2550J0D01*
G01*
X36309Y-28012D02*
G03*
X36309Y-28012I-2550J0D01*
G01*
X28993Y-21635D02*
G03*
X29124Y-20827I-2419J808D01*
G01*
X30306Y-6890D02*
G03*
X30306Y-6890I-2550J0D01*
G01*
X25187Y-6594D02*
G03*
X25187Y-6594I-2550J0D01*
G01*
X36842Y-597072D02*
G03*
X34310Y-599095I1421J-4375D01*
G01*
X35116Y-47691D02*
G03*
X36309Y-45532I-1357J2159D01*
G01*
X37196Y-50197D02*
G03*
X35116Y-47691I-2550J0D01*
G01*
X42217Y-599095D02*
G03*
X36842Y-597072I-3953J-2352D01*
G01*
X46218Y-46656D02*
G03*
X46218Y-46656I-2550J0D01*
G01*
X33062Y-43079D02*
G03*
X33159Y-42382I-2453J697D01*
G01*
D02*
G03*
X33039Y-41609I-2550J0D01*
G01*
D02*
G03*
X36606Y-39271I1017J2339D01*
G01*
X36309Y-45532D02*
G03*
X33062Y-43079I-2550J0D01*
G01*
X53140Y-45433D02*
G03*
X53140Y-45433I-2550J0D01*
G01*
X39776Y-20686D02*
G03*
X39947Y-21755I-2375J-928D01*
G01*
X44697D02*
G03*
X49793Y-21615I2546J141D01*
G01*
X55770Y-599095D02*
G03*
X46590Y-599095I-4590J-306D01*
G01*
X68050D02*
G03*
X65519Y-597072I-3953J-2352D01*
G01*
D02*
G03*
X60144Y-599095I-1421J-4375D01*
G01*
X60589Y-28308D02*
G03*
X60589Y-28308I-2550J0D01*
G01*
X83528Y-22597D02*
G03*
X89932Y-23819I3085J-1222D01*
G01*
X83528Y-22597D02*
G03*
X89932Y-23819I3085J-1222D01*
G01*
X39947Y-21755D02*
G03*
X44697Y-21755I2375J928D01*
G01*
X44868Y-20686D02*
G03*
X39776Y-20686I-2546J-141D01*
G01*
X49793Y-21615D02*
G03*
X44868Y-20686I-2550J0D01*
G01*
X56102Y-22448D02*
G03*
X60039Y-22448I1969J1621D01*
G01*
D02*
G03*
X63976Y-22448I1969J1621D01*
G01*
X60039Y-19206D02*
G03*
X56102Y-19206I-1969J-1621D01*
G01*
D02*
G03*
X56102Y-22448I-1969J-1621D01*
G01*
X63976Y-19206D02*
G03*
X60039Y-19206I-1969J-1621D01*
G01*
X67913D02*
G03*
X63976Y-19206I-1969J-1621D01*
G01*
X71850Y-22448D02*
G03*
X75787Y-22448I1969J1621D01*
G01*
X63976D02*
G03*
X67913Y-22448I1969J1621D01*
G01*
D02*
G03*
X71850Y-22448I1969J1621D01*
G01*
X75787D02*
G03*
X79724Y-22448I1969J1621D01*
G01*
D02*
G03*
X83528Y-22597I1969J1621D01*
G01*
X84108Y-21642D02*
G03*
X84242Y-20827I-2416J815D01*
G01*
X75787Y-19206D02*
G03*
X71850Y-19206I-1969J-1621D01*
G01*
X68660Y-9508D02*
G03*
X68660Y-9508I-2550J0D01*
G01*
X71850Y-19206D02*
G03*
X67913Y-19206I-1969J-1621D01*
G01*
X89932Y-23819D02*
G03*
X84108Y-21642I-3319J0D01*
G01*
X89932Y-23819D02*
G03*
X84108Y-21642I-3319J0D01*
G01*
X79724Y-19206D02*
G03*
X75787Y-19206I-1969J-1621D01*
G01*
X84242Y-20827D02*
G03*
X79724Y-19206I-2550J0D01*
G01*
X27155Y-39823D02*
G03*
X27155Y-39823I-2550J0D01*
G01*
X31626Y-40044D02*
G03*
X31306Y-44835I-1017J-2339D01*
G01*
X31306Y-44835D02*
G03*
X33288Y-48038I2453J-697D01*
G01*
X33062Y-43079D02*
G03*
X33159Y-42382I-2453J697D01*
G01*
D02*
G03*
X33039Y-41609I-2550J0D01*
G01*
X17707Y-33229D02*
G03*
X17707Y-33229I-2550J0D01*
G01*
X23218Y-28209D02*
G03*
X23218Y-28209I-2550J0D01*
G01*
X36842Y-597072D02*
G03*
X33920Y-599934I1421J-4375D01*
G01*
X35116Y-47691D02*
G03*
X36309Y-45532I-1357J2159D01*
G01*
X33288Y-48038D02*
G03*
X37196Y-50197I1357J-2159D01*
G01*
X55780Y-599401D02*
G03*
X46611Y-599934I-4600J0D01*
G01*
X37196Y-50197D02*
G03*
X35116Y-47691I-2550J0D01*
G01*
X42607Y-599934D02*
G03*
X36842Y-597072I-4344J-1513D01*
G01*
X36309Y-45532D02*
G03*
X33062Y-43079I-2550J0D01*
G01*
X36309Y-28012D02*
G03*
X36309Y-28012I-2550J0D01*
G01*
X33039Y-41609D02*
G03*
X36606Y-39271I1017J2339D01*
G01*
D02*
G03*
X31626Y-40044I-2550J0D01*
G01*
X46218Y-46656D02*
G03*
X46218Y-46656I-2550J0D01*
G01*
X53140Y-45433D02*
G03*
X53140Y-45433I-2550J0D01*
G01*
X44872Y-38937D02*
G03*
X44872Y-38937I-2550J0D01*
G01*
X18869Y-23819D02*
G03*
X18869Y-23819I-3122J0D01*
G01*
D02*
G03*
X18869Y-23819I-3122J0D01*
G01*
X23585Y-17744D02*
G03*
X23585Y-17744I-2550J0D01*
G01*
X17057Y-14468D02*
G03*
X17057Y-14468I-2550J0D01*
G01*
X25187Y-6594D02*
G03*
X25187Y-6594I-2550J0D01*
G01*
X31781Y-24174D02*
G03*
X28993Y-21635I-2550J0D01*
G01*
X26813Y-23366D02*
G03*
X31781Y-24174I2419J-808D01*
G01*
X28993Y-21635D02*
G03*
X29124Y-20827I-2419J808D01*
G01*
D02*
G03*
X26813Y-23366I-2550J0D01*
G01*
X39776Y-20686D02*
G03*
X39947Y-21755I-2375J-928D01*
G01*
X39947D02*
G03*
X44697Y-21755I2375J928D01*
G01*
X44697D02*
G03*
X49793Y-21615I2546J141D01*
G01*
D02*
G03*
X44868Y-20686I-2550J0D01*
G01*
X30306Y-6890D02*
G03*
X30306Y-6890I-2550J0D01*
G01*
X44868Y-20686D02*
G03*
X39776Y-20686I-2546J-141D01*
G01*
X55749Y-599934D02*
G03*
X55780Y-599401I-4569J532D01*
G01*
X55766Y-40798D02*
G03*
X60620Y-41890I2304J-1093D01*
G01*
X65519Y-597072D02*
G03*
X59753Y-599934I-1421J-4375D01*
G01*
X60620Y-41890D02*
G03*
X60278Y-40615I-2550J0D01*
G01*
X68441Y-599934D02*
G03*
X65519Y-597072I-4344J-1513D01*
G01*
X56683Y-38839D02*
G03*
X55766Y-40798I-2550J0D01*
G01*
X56437Y-39932D02*
G03*
X56683Y-38839I-2304J1093D01*
G01*
X59799Y-40016D02*
G03*
X56437Y-39932I-1729J-1875D01*
G01*
X60278Y-40615D02*
G03*
X63404Y-40874I1729J1875D01*
G01*
X64557Y-38741D02*
G03*
X59799Y-40016I-2550J0D01*
G01*
X67334Y-38965D02*
G03*
X64547Y-38970I-1390J-2138D01*
G01*
X63404Y-40874D02*
G03*
X68494Y-41103I2540J-229D01*
G01*
X68491Y-40977D02*
G03*
X72431Y-38839I1390J2138D01*
G01*
X75250Y-41946D02*
G03*
X76368Y-44056I-1432J-2110D01*
G01*
D02*
G03*
X76225Y-43213I-2550J0D01*
G01*
D02*
G03*
X80207Y-41103I1432J2110D01*
G01*
D02*
G03*
X75250Y-41946I-2550J0D01*
G01*
X72431Y-38839D02*
G03*
X67334Y-38965I-2550J0D01*
G01*
X90602Y-33169D02*
G03*
X90602Y-33169I-2550J0D01*
G01*
X60589Y-28308D02*
G03*
X60589Y-28308I-2550J0D01*
G01*
X56102Y-22448D02*
G03*
X60039Y-22448I1969J1621D01*
G01*
X63976D02*
G03*
X67913Y-22448I1969J1621D01*
G01*
X60039D02*
G03*
X63976Y-22448I1969J1621D01*
G01*
X56102Y-19206D02*
G03*
X56102Y-22448I-1969J-1621D01*
G01*
X60039Y-19206D02*
G03*
X56102Y-19206I-1969J-1621D01*
G01*
X63976D02*
G03*
X60039Y-19206I-1969J-1621D01*
G01*
X67913D02*
G03*
X63976Y-19206I-1969J-1621D01*
G01*
X75787Y-22448D02*
G03*
X79724Y-22448I1969J1621D01*
G01*
D02*
G03*
X83528Y-22597I1969J1621D01*
G01*
X67913Y-22448D02*
G03*
X71850Y-22448I1969J1621D01*
G01*
D02*
G03*
X75787Y-22448I1969J1621D01*
G01*
X83528Y-22597D02*
G03*
X89932Y-23819I3085J-1222D01*
G01*
X84108Y-21642D02*
G03*
X84242Y-20827I-2416J815D01*
G01*
X83528Y-22597D02*
G03*
X89932Y-23819I3085J-1222D01*
G01*
D02*
G03*
X84108Y-21642I-3319J0D01*
G01*
X71850Y-19206D02*
G03*
X67913Y-19206I-1969J-1621D01*
G01*
X75787D02*
G03*
X71850Y-19206I-1969J-1621D01*
G01*
X68660Y-9508D02*
G03*
X68660Y-9508I-2550J0D01*
G01*
X89932Y-23819D02*
G03*
X84108Y-21642I-3319J0D01*
G01*
X79724Y-19206D02*
G03*
X75787Y-19206I-1969J-1621D01*
G01*
X84242Y-20827D02*
G03*
X79724Y-19206I-2550J0D01*
G01*
X-0Y-407152D02*
X102614D01*
X-0Y-48884D02*
X32459D01*
X-0Y-379593D02*
X102614D01*
X-0Y-599095D02*
X34310D01*
X-0Y-544947D02*
X102614D01*
X-0Y-434711D02*
X102614D01*
X-0Y-462270D02*
X102614D01*
X-0Y-599095D02*
Y-2928D01*
Y-324475D02*
X102614D01*
X-0Y-269357D02*
X102614D01*
X-0Y-296916D02*
X102614D01*
X-0Y-517388D02*
X102614D01*
X-0Y-572506D02*
X102614D01*
X-0Y-352034D02*
X102614D01*
X-0Y-489829D02*
X102614D01*
X-0Y-131561D02*
X102614D01*
X-0Y-76443D02*
X102614D01*
X-0Y-104002D02*
X102614D01*
X-0Y-214239D02*
X102614D01*
X-0Y-241798D02*
X102614D01*
X-0Y-159120D02*
X102614D01*
X-0Y-186679D02*
X102614D01*
X-0Y-21325D02*
X13869D01*
X-252Y-2494D02*
X-0Y-2928D01*
X-252Y-2494D02*
X-0Y-2928D01*
X17625Y-21325D02*
X24073D01*
X29075D02*
X34867D01*
X-0Y-2928D02*
X102614D01*
X42217Y-599095D02*
X46590D01*
X36832Y-48884D02*
X42428D01*
X55770Y-599095D02*
X60144D01*
X44908Y-48884D02*
X102614D01*
X68050Y-599095D02*
X102614D01*
Y-2928D01*
X49777Y-21325D02*
X51632D01*
X88803D02*
X102614D01*
X12639Y-599934D02*
Y-33635D01*
X25238Y-599934D02*
Y-42294D01*
X31537Y-599934D02*
Y-46783D01*
Y-40007D02*
Y-39666D01*
X-252Y-599934D02*
Y-3584D01*
X41Y-599934D02*
Y-3584D01*
X6340Y-599934D02*
Y-3584D01*
X18938Y-599934D02*
Y-30082D01*
X31537Y-38875D02*
Y-29263D01*
X12639Y-32822D02*
Y-24111D01*
X25238Y-37353D02*
Y-22999D01*
X-252Y-599934D02*
X33920D01*
X44135D02*
Y-49163D01*
X42607Y-599934D02*
X46611D01*
X37836Y-596867D02*
Y-24127D01*
X44135Y-44149D02*
Y-40730D01*
Y-37145D02*
Y-22620D01*
X18938Y-26336D02*
Y-19196D01*
X12639Y-23527D02*
Y-16205D01*
Y-12732D02*
Y-3584D01*
X18938Y-16293D02*
Y-3584D01*
X25238Y-18655D02*
Y-7291D01*
Y-6488D02*
Y-3584D01*
X31537Y-26761D02*
Y-25263D01*
X-252Y-3584D02*
X102362D01*
X31537Y-23084D02*
Y-3584D01*
X44135Y-19034D02*
Y-3584D01*
X37836Y-19102D02*
Y-3584D01*
X55749Y-599934D02*
X59753D01*
X50434Y-594862D02*
Y-47979D01*
X56734Y-599934D02*
Y-44062D01*
X63033Y-596972D02*
Y-41075D01*
X50434Y-42888D02*
Y-3584D01*
X56734Y-39718D02*
Y-30498D01*
X63033Y-36406D02*
Y-23162D01*
X69332Y-599934D02*
Y-41329D01*
X68441Y-599934D02*
X102111D01*
X75631D02*
Y-45849D01*
X102111Y-599934D02*
X102362Y-598425D01*
X81931Y-599934D02*
Y-23366D01*
X69332Y-36349D02*
Y-23317D01*
X75631Y-39553D02*
Y-22620D01*
X88230Y-599934D02*
Y-35713D01*
X94529Y-599934D02*
Y-3584D01*
X102362Y-598425D02*
Y-3584D01*
X100828Y-599934D02*
Y-3584D01*
X56734Y-26117D02*
Y-22999D01*
Y-18655D02*
Y-3584D01*
X63033Y-18493D02*
Y-3584D01*
X88230Y-30625D02*
Y-26717D01*
X75631Y-19034D02*
Y-3584D01*
X69332Y-18337D02*
Y-3584D01*
X88230Y-20921D02*
Y-3584D01*
X81931Y-18288D02*
Y-3584D01*
M02*
