%FSLAX25Y25*%
%MOIN*%
G70*
G01*
G75*
G04 Layer_Physical_Order=6*
G04 Layer_Color=16711680*
%ADD10C,0.01000*%
%ADD11R,0.05906X0.11811*%
%ADD12R,0.00984X0.03543*%
%ADD13R,0.06299X0.07087*%
%ADD14C,0.03000*%
%ADD15C,0.00800*%
%ADD16C,0.00500*%
%ADD17C,0.01201*%
%ADD18C,0.01200*%
%ADD19C,0.01201*%
%ADD20C,0.07000*%
%ADD21C,0.06500*%
%ADD22C,0.03937*%
%ADD23C,0.03543*%
%ADD24C,0.05512*%
%ADD25C,0.07087*%
%ADD26C,0.02400*%
%ADD27C,0.00700*%
%ADD28C,0.01500*%
%ADD29C,0.00787*%
D10*
X406987Y-215020D02*
Y-207146D01*
X442420D01*
Y-215020D02*
Y-207146D01*
X406987Y-215020D02*
X442420D01*
X422735Y-211083D02*
X424704D01*
Y-209115D01*
Y-213052D02*
Y-209115D01*
Y-213052D02*
Y-211083D01*
X426672D01*
D15*
X-302264Y-881004D02*
X-252264D01*
X-277264Y-906004D02*
Y-856004D01*
X-282264Y-876004D02*
X-282264Y-881004D01*
X-282264Y-876004D02*
X-277264Y-876004D01*
X-272264Y-881004D02*
X-272264Y-886004D01*
X-277264Y-886004D02*
X-272264Y-886004D01*
X-276764Y-881504D02*
X-272764D01*
Y-885504D02*
Y-881504D01*
X-276764Y-885504D02*
X-272764D01*
X-276764D02*
Y-881504D01*
X-276264Y-882004D02*
X-273264D01*
Y-885004D02*
Y-882004D01*
X-276264Y-885004D02*
X-273264D01*
X-276264D02*
Y-882504D01*
X-275764D02*
X-273764D01*
X-273764Y-884504D01*
X-275764Y-884504D02*
X-273764Y-884504D01*
X-275764Y-884504D02*
Y-883004D01*
X-275264Y-883004D02*
X-274264Y-883004D01*
Y-884004D02*
Y-883004D01*
X-275264Y-884004D02*
X-274264D01*
X-275264D02*
X-275264Y-883004D01*
Y-883504D02*
X-274264D01*
X-281764Y-876504D02*
X-277764D01*
Y-880504D02*
Y-876504D01*
X-281764Y-880504D02*
X-277764D01*
X-281764D02*
Y-876504D01*
X-281264Y-877004D02*
X-278264D01*
Y-880004D02*
Y-877004D01*
X-281264Y-880004D02*
X-278264D01*
X-281264D02*
Y-877504D01*
X-280764D02*
X-278764Y-877504D01*
Y-879504D02*
Y-877504D01*
X-280764Y-879504D02*
X-278764D01*
X-280764D02*
Y-878004D01*
X-280264D02*
X-279264D01*
X-279264Y-879004D02*
X-279264Y-878004D01*
X-280264Y-879004D02*
X-279264Y-879004D01*
X-280264Y-879004D02*
Y-878004D01*
Y-878504D02*
X-279264D01*
X-312205Y47264D02*
X-262205D01*
X-287205Y22264D02*
Y72264D01*
X-292205Y52264D02*
X-292205Y47264D01*
X-292205Y52264D02*
X-287205Y52264D01*
X-282205Y47264D02*
X-282205Y42264D01*
X-287205Y42264D02*
X-282205Y42264D01*
X-286705Y46764D02*
X-282705D01*
Y42764D02*
Y46764D01*
X-286705Y42764D02*
X-282705D01*
X-286705D02*
Y46764D01*
X-286205Y46264D02*
X-283205D01*
Y43264D02*
Y46264D01*
X-286205Y43264D02*
X-283205D01*
X-286205D02*
Y45764D01*
X-285705D02*
X-283705D01*
X-283705Y43764D01*
X-285705Y43764D02*
X-283705Y43764D01*
X-285705Y43764D02*
Y45264D01*
X-285205Y45264D02*
X-284205Y45264D01*
Y44264D02*
Y45264D01*
X-285205Y44264D02*
X-284205D01*
X-285205D02*
X-285205Y45264D01*
Y44764D02*
X-284205D01*
X-291705Y51764D02*
X-287705D01*
Y47764D02*
Y51764D01*
X-291705Y47764D02*
X-287705D01*
X-291705D02*
Y51764D01*
X-291205Y51264D02*
X-288205D01*
Y48264D02*
Y51264D01*
X-291205Y48264D02*
X-288205D01*
X-291205D02*
Y50764D01*
X-290705D02*
X-288705Y50764D01*
Y48764D02*
Y50764D01*
X-290705Y48764D02*
X-288705D01*
X-290705D02*
Y50264D01*
X-290205D02*
X-289205D01*
X-289205Y49264D02*
X-289205Y50264D01*
X-290205Y49264D02*
X-289205Y49264D01*
X-290205Y49264D02*
Y50264D01*
Y49764D02*
X-289205D01*
X559941Y-871142D02*
X609941D01*
X584941Y-896142D02*
Y-846142D01*
X579941Y-866142D02*
X579941Y-871142D01*
X579941Y-866142D02*
X584941Y-866142D01*
X589941Y-871142D02*
X589941Y-876142D01*
X584941Y-876142D02*
X589941Y-876142D01*
X585441Y-871642D02*
X589441D01*
Y-875642D02*
Y-871642D01*
X585441Y-875642D02*
X589441D01*
X585441D02*
Y-871642D01*
X585941Y-872142D02*
X588941D01*
Y-875142D02*
Y-872142D01*
X585941Y-875142D02*
X588941D01*
X585941D02*
Y-872642D01*
X586441D02*
X588441D01*
X588441Y-874642D01*
X586441Y-874642D02*
X588441Y-874642D01*
X586441Y-874642D02*
Y-873142D01*
X586941Y-873142D02*
X587941Y-873142D01*
Y-874142D02*
Y-873142D01*
X586941Y-874142D02*
X587941D01*
X586941D02*
X586941Y-873142D01*
Y-873642D02*
X587941D01*
X580441Y-866642D02*
X584441D01*
Y-870642D02*
Y-866642D01*
X580441Y-870642D02*
X584441D01*
X580441D02*
Y-866642D01*
X580941Y-867142D02*
X583941D01*
Y-870142D02*
Y-867142D01*
X580941Y-870142D02*
X583941D01*
X580941D02*
Y-867642D01*
X581441D02*
X583441Y-867642D01*
Y-869642D02*
Y-867642D01*
X581441Y-869642D02*
X583441D01*
X581441D02*
Y-868142D01*
X581941D02*
X582941D01*
X582941Y-869142D02*
X582941Y-868142D01*
X581941Y-869142D02*
X582941Y-869142D01*
X581941Y-869142D02*
Y-868142D01*
Y-868642D02*
X582941D01*
D17*
X-50261Y-816805D02*
Y-821375D01*
X-52165Y-817947D02*
X-48357Y-820233D01*
Y-817947D02*
X-52165Y-820233D01*
X-46338Y-824041D02*
X-46719Y-824422D01*
X-46338Y-824803D01*
X-45957Y-824422D01*
X-46338Y-824041D01*
X-38492Y-818709D02*
X-38873Y-817947D01*
X-39635Y-817186D01*
X-40396Y-816805D01*
X-41920D01*
X-42682Y-817186D01*
X-43443Y-817947D01*
X-43824Y-818709D01*
X-44205Y-819852D01*
Y-821756D01*
X-43824Y-822899D01*
X-43443Y-823660D01*
X-42682Y-824422D01*
X-41920Y-824803D01*
X-40396D01*
X-39635Y-824422D01*
X-38873Y-823660D01*
X-38492Y-822899D01*
Y-821756D01*
X-40396D02*
X-38492D01*
X-36664Y-816805D02*
Y-824803D01*
Y-816805D02*
X-33236D01*
X-32094Y-817186D01*
X-31713Y-817567D01*
X-31332Y-818328D01*
Y-819090D01*
X-31713Y-819852D01*
X-32094Y-820233D01*
X-33236Y-820614D01*
X-36664D02*
X-33236D01*
X-32094Y-820994D01*
X-31713Y-821375D01*
X-31332Y-822137D01*
Y-823280D01*
X-31713Y-824041D01*
X-32094Y-824422D01*
X-33236Y-824803D01*
X-36664D01*
X-29542Y-816805D02*
Y-824803D01*
X-24971D01*
X-17811Y-821375D02*
X-10955D01*
X-2309Y-816805D02*
Y-824803D01*
Y-816805D02*
X1118D01*
X2261Y-817186D01*
X2642Y-817567D01*
X3023Y-818328D01*
Y-819090D01*
X2642Y-819852D01*
X2261Y-820233D01*
X1118Y-820614D01*
X-2309D02*
X1118D01*
X2261Y-820994D01*
X2642Y-821375D01*
X3023Y-822137D01*
Y-823280D01*
X2642Y-824041D01*
X2261Y-824422D01*
X1118Y-824803D01*
X-2309D01*
X7098Y-816805D02*
X6336Y-817186D01*
X5575Y-817947D01*
X5194Y-818709D01*
X4813Y-819852D01*
Y-821756D01*
X5194Y-822899D01*
X5575Y-823660D01*
X6336Y-824422D01*
X7098Y-824803D01*
X8622D01*
X9383Y-824422D01*
X10145Y-823660D01*
X10526Y-822899D01*
X10907Y-821756D01*
Y-819852D01*
X10526Y-818709D01*
X10145Y-817947D01*
X9383Y-817186D01*
X8622Y-816805D01*
X7098D01*
X15439D02*
Y-824803D01*
X12773Y-816805D02*
X18105D01*
X21724D02*
Y-824803D01*
X19058Y-816805D02*
X24390D01*
X27627D02*
X26865Y-817186D01*
X26104Y-817947D01*
X25723Y-818709D01*
X25342Y-819852D01*
Y-821756D01*
X25723Y-822899D01*
X26104Y-823660D01*
X26865Y-824422D01*
X27627Y-824803D01*
X29151D01*
X29912Y-824422D01*
X30674Y-823660D01*
X31055Y-822899D01*
X31436Y-821756D01*
Y-819852D01*
X31055Y-818709D01*
X30674Y-817947D01*
X29912Y-817186D01*
X29151Y-816805D01*
X27627D01*
X33302D02*
Y-824803D01*
Y-816805D02*
X36349Y-824803D01*
X39396Y-816805D02*
X36349Y-824803D01*
X39396Y-816805D02*
Y-824803D01*
X47966Y-816805D02*
Y-824803D01*
X52536D01*
X59506D02*
X56459Y-816805D01*
X53412Y-824803D01*
X54555Y-822137D02*
X58363D01*
X61372Y-816805D02*
X64419Y-820614D01*
Y-824803D01*
X67466Y-816805D02*
X64419Y-820614D01*
X73446Y-816805D02*
X68494D01*
Y-824803D01*
X73446D01*
X68494Y-820614D02*
X71542D01*
X74779Y-816805D02*
Y-824803D01*
Y-816805D02*
X78207D01*
X79349Y-817186D01*
X79730Y-817567D01*
X80111Y-818328D01*
Y-819090D01*
X79730Y-819852D01*
X79349Y-820233D01*
X78207Y-820614D01*
X74779D01*
X77445D02*
X80111Y-824803D01*
X93899Y-818709D02*
X93518Y-817947D01*
X92756Y-817186D01*
X91994Y-816805D01*
X90471D01*
X89709Y-817186D01*
X88947Y-817947D01*
X88566Y-818709D01*
X88186Y-819852D01*
Y-821756D01*
X88566Y-822899D01*
X88947Y-823660D01*
X89709Y-824422D01*
X90471Y-824803D01*
X91994D01*
X92756Y-824422D01*
X93518Y-823660D01*
X93899Y-822899D01*
Y-821756D01*
X91994D02*
X93899D01*
X100678Y-816805D02*
X95727D01*
Y-824803D01*
X100678D01*
X95727Y-820614D02*
X98774D01*
X102011Y-816805D02*
Y-824803D01*
Y-816805D02*
X105439D01*
X106582Y-817186D01*
X106963Y-817567D01*
X107343Y-818328D01*
Y-819090D01*
X106963Y-819852D01*
X106582Y-820233D01*
X105439Y-820614D01*
X102011D01*
X104677D02*
X107343Y-824803D01*
X109133Y-816805D02*
Y-824803D01*
Y-816805D02*
X112561D01*
X113704Y-817186D01*
X114085Y-817567D01*
X114466Y-818328D01*
Y-819090D01*
X114085Y-819852D01*
X113704Y-820233D01*
X112561Y-820614D01*
X109133D02*
X112561D01*
X113704Y-820994D01*
X114085Y-821375D01*
X114466Y-822137D01*
Y-823280D01*
X114085Y-824041D01*
X113704Y-824422D01*
X112561Y-824803D01*
X109133D01*
X121207Y-816805D02*
X116256D01*
Y-824803D01*
X121207D01*
X116256Y-820614D02*
X119303D01*
X122540Y-816805D02*
Y-824803D01*
Y-816805D02*
X125968D01*
X127111Y-817186D01*
X127491Y-817567D01*
X127872Y-818328D01*
Y-819090D01*
X127491Y-819852D01*
X127111Y-820233D01*
X125968Y-820614D01*
X122540D01*
X125206D02*
X127872Y-824803D01*
X135947Y-816805D02*
Y-824803D01*
Y-816805D02*
X138613D01*
X139755Y-817186D01*
X140517Y-817947D01*
X140898Y-818709D01*
X141279Y-819852D01*
Y-821756D01*
X140898Y-822899D01*
X140517Y-823660D01*
X139755Y-824422D01*
X138613Y-824803D01*
X135947D01*
X149163D02*
X146116Y-816805D01*
X143069Y-824803D01*
X144212Y-822137D02*
X148020D01*
X153695Y-816805D02*
Y-824803D01*
X151029Y-816805D02*
X156361D01*
X163408Y-824803D02*
X160361Y-816805D01*
X157314Y-824803D01*
X158456Y-822137D02*
X162265D01*
D18*
X-46609Y-751128D02*
X-47371Y-750366D01*
X-48513Y-749985D01*
X-50037D01*
X-51179Y-750366D01*
X-51941Y-751128D01*
Y-751890D01*
X-51560Y-752651D01*
X-51179Y-753032D01*
X-50418Y-753413D01*
X-48132Y-754175D01*
X-47371Y-754556D01*
X-46990Y-754937D01*
X-46609Y-755698D01*
Y-756841D01*
X-47371Y-757603D01*
X-48513Y-757983D01*
X-50037D01*
X-51179Y-757603D01*
X-51941Y-756841D01*
X-44819Y-749985D02*
Y-757983D01*
X-43143Y-749985D02*
Y-757983D01*
Y-749985D02*
X-37811Y-757983D01*
Y-749985D02*
Y-757983D01*
X-35602Y-749985D02*
Y-757983D01*
X-28594Y-751128D02*
X-29355Y-750366D01*
X-30498Y-749985D01*
X-32021D01*
X-33164Y-750366D01*
X-33926Y-751128D01*
Y-751890D01*
X-33545Y-752651D01*
X-33164Y-753032D01*
X-32402Y-753413D01*
X-30117Y-754175D01*
X-29355Y-754556D01*
X-28975Y-754937D01*
X-28594Y-755698D01*
Y-756841D01*
X-29355Y-757603D01*
X-30498Y-757983D01*
X-32021D01*
X-33164Y-757603D01*
X-33926Y-756841D01*
X-24137Y-749985D02*
Y-757983D01*
X-26804Y-749985D02*
X-21471D01*
X-20519D02*
Y-757983D01*
Y-749985D02*
X-17091D01*
X-15949Y-750366D01*
X-15568Y-750747D01*
X-15187Y-751509D01*
Y-752270D01*
X-15568Y-753032D01*
X-15949Y-753413D01*
X-17091Y-753794D01*
X-20519D01*
X-17853D02*
X-15187Y-757983D01*
X-11112Y-749985D02*
X-11873Y-750366D01*
X-12635Y-751128D01*
X-13016Y-751890D01*
X-13397Y-753032D01*
Y-754937D01*
X-13016Y-756079D01*
X-12635Y-756841D01*
X-11873Y-757603D01*
X-11112Y-757983D01*
X-9588D01*
X-8826Y-757603D01*
X-8065Y-756841D01*
X-7684Y-756079D01*
X-7303Y-754937D01*
Y-753032D01*
X-7684Y-751890D01*
X-8065Y-751128D01*
X-8826Y-750366D01*
X-9588Y-749985D01*
X-11112D01*
X848D02*
Y-757983D01*
Y-749985D02*
X5799D01*
X848Y-753794D02*
X3895D01*
X6713Y-749985D02*
Y-757983D01*
X11283D01*
X17111Y-749985D02*
X12160D01*
Y-757983D01*
X17111D01*
X12160Y-753794D02*
X15206D01*
X18444Y-749985D02*
X23776Y-757983D01*
Y-749985D02*
X18444Y-757983D01*
X37564Y-751890D02*
X37183Y-751128D01*
X36421Y-750366D01*
X35659Y-749985D01*
X34136D01*
X33374Y-750366D01*
X32612Y-751128D01*
X32231Y-751890D01*
X31850Y-753032D01*
Y-754937D01*
X32231Y-756079D01*
X32612Y-756841D01*
X33374Y-757603D01*
X34136Y-757983D01*
X35659D01*
X36421Y-757603D01*
X37183Y-756841D01*
X37564Y-756079D01*
X39811Y-749985D02*
Y-757983D01*
X41487Y-749985D02*
Y-757983D01*
Y-749985D02*
X44914D01*
X46057Y-750366D01*
X46438Y-750747D01*
X46819Y-751509D01*
Y-752270D01*
X46438Y-753032D01*
X46057Y-753413D01*
X44914Y-753794D01*
X41487D01*
X44153D02*
X46819Y-757983D01*
X54322Y-751890D02*
X53941Y-751128D01*
X53179Y-750366D01*
X52418Y-749985D01*
X50894D01*
X50132Y-750366D01*
X49371Y-751128D01*
X48990Y-751890D01*
X48609Y-753032D01*
Y-754937D01*
X48990Y-756079D01*
X49371Y-756841D01*
X50132Y-757603D01*
X50894Y-757983D01*
X52418D01*
X53179Y-757603D01*
X53941Y-756841D01*
X54322Y-756079D01*
X56569Y-749985D02*
Y-755698D01*
X56950Y-756841D01*
X57712Y-757603D01*
X58854Y-757983D01*
X59616D01*
X60759Y-757603D01*
X61520Y-756841D01*
X61901Y-755698D01*
Y-749985D01*
X64110D02*
Y-757983D01*
X68452Y-749985D02*
Y-757983D01*
X65786Y-749985D02*
X71118D01*
X78355D02*
Y-757983D01*
Y-749985D02*
X81783D01*
X82925Y-750366D01*
X83306Y-750747D01*
X83687Y-751509D01*
Y-752270D01*
X83306Y-753032D01*
X82925Y-753413D01*
X81783Y-753794D01*
X78355D01*
X81021D02*
X83687Y-757983D01*
X85477Y-754937D02*
X90048D01*
Y-754175D01*
X89667Y-753413D01*
X89286Y-753032D01*
X88524Y-752651D01*
X87382D01*
X86620Y-753032D01*
X85858Y-753794D01*
X85477Y-754937D01*
Y-755698D01*
X85858Y-756841D01*
X86620Y-757603D01*
X87382Y-757983D01*
X88524D01*
X89286Y-757603D01*
X90048Y-756841D01*
X91761Y-752651D02*
X94047Y-757983D01*
X96332Y-752651D02*
X94047Y-757983D01*
X98008Y-757222D02*
X97627Y-757603D01*
X98008Y-757983D01*
X98389Y-757603D01*
X98008Y-757222D01*
X112519Y-757983D02*
X109472Y-749985D01*
X106425Y-757983D01*
X107568Y-755317D02*
X111376D01*
D19*
X-51940Y-765620D02*
Y-773618D01*
X-47370D01*
X-40400D02*
X-43447Y-765620D01*
X-46494Y-773618D01*
X-45351Y-770952D02*
X-41542D01*
X-33201Y-766762D02*
X-33963Y-766001D01*
X-35106Y-765620D01*
X-36629D01*
X-37772Y-766001D01*
X-38534Y-766762D01*
Y-767524D01*
X-38153Y-768286D01*
X-37772Y-768667D01*
X-37010Y-769048D01*
X-34725Y-769809D01*
X-33963Y-770190D01*
X-33582Y-770571D01*
X-33201Y-771333D01*
Y-772475D01*
X-33963Y-773237D01*
X-35106Y-773618D01*
X-36629D01*
X-37772Y-773237D01*
X-38534Y-772475D01*
X-19414Y-767524D02*
X-19795Y-766762D01*
X-20557Y-766001D01*
X-21318Y-765620D01*
X-22842D01*
X-23603Y-766001D01*
X-24365Y-766762D01*
X-24746Y-767524D01*
X-25127Y-768667D01*
Y-770571D01*
X-24746Y-771714D01*
X-24365Y-772475D01*
X-23603Y-773237D01*
X-22842Y-773618D01*
X-21318D01*
X-20557Y-773237D01*
X-19795Y-772475D01*
X-19414Y-771714D01*
X-17167Y-765620D02*
Y-771333D01*
X-16786Y-772475D01*
X-16024Y-773237D01*
X-14882Y-773618D01*
X-14120D01*
X-12977Y-773237D01*
X-12215Y-772475D01*
X-11834Y-771333D01*
Y-765620D01*
X-9625D02*
Y-773618D01*
Y-765620D02*
X-6578Y-773618D01*
X-3531Y-765620D02*
X-6578Y-773618D01*
X-3531Y-765620D02*
Y-773618D01*
X-1246Y-765620D02*
Y-773618D01*
Y-765620D02*
X2182D01*
X3324Y-766001D01*
X3705Y-766382D01*
X4086Y-767143D01*
Y-767905D01*
X3705Y-768667D01*
X3324Y-769048D01*
X2182Y-769429D01*
X-1246D02*
X2182D01*
X3324Y-769809D01*
X3705Y-770190D01*
X4086Y-770952D01*
Y-772095D01*
X3705Y-772856D01*
X3324Y-773237D01*
X2182Y-773618D01*
X-1246D01*
X5876Y-765620D02*
Y-773618D01*
Y-765620D02*
X9304D01*
X10446Y-766001D01*
X10827Y-766382D01*
X11208Y-767143D01*
Y-767905D01*
X10827Y-768667D01*
X10446Y-769048D01*
X9304Y-769429D01*
X5876D01*
X8542D02*
X11208Y-773618D01*
X17950Y-765620D02*
X12998D01*
Y-773618D01*
X17950D01*
X12998Y-769429D02*
X16045D01*
X24615Y-766762D02*
X23853Y-766001D01*
X22711Y-765620D01*
X21187D01*
X20044Y-766001D01*
X19283Y-766762D01*
Y-767524D01*
X19663Y-768286D01*
X20044Y-768667D01*
X20806Y-769048D01*
X23091Y-769809D01*
X23853Y-770190D01*
X24234Y-770571D01*
X24615Y-771333D01*
Y-772475D01*
X23853Y-773237D01*
X22711Y-773618D01*
X21187D01*
X20044Y-773237D01*
X19283Y-772475D01*
X34975Y-765620D02*
X34213Y-766001D01*
X33451Y-766762D01*
X33070Y-767524D01*
X32689Y-768667D01*
Y-770571D01*
X33070Y-771714D01*
X33451Y-772475D01*
X34213Y-773237D01*
X34975Y-773618D01*
X36498D01*
X37260Y-773237D01*
X38021Y-772475D01*
X38402Y-771714D01*
X38783Y-770571D01*
Y-768667D01*
X38402Y-767524D01*
X38021Y-766762D01*
X37260Y-766001D01*
X36498Y-765620D01*
X34975D01*
X40650D02*
Y-773618D01*
Y-765620D02*
X44077D01*
X45220Y-766001D01*
X45601Y-766382D01*
X45982Y-767143D01*
Y-767905D01*
X45601Y-768667D01*
X45220Y-769048D01*
X44077Y-769429D01*
X40650D02*
X44077D01*
X45220Y-769809D01*
X45601Y-770190D01*
X45982Y-770952D01*
Y-772095D01*
X45601Y-772856D01*
X45220Y-773237D01*
X44077Y-773618D01*
X40650D01*
X53104Y-766762D02*
X52342Y-766001D01*
X51200Y-765620D01*
X49676D01*
X48533Y-766001D01*
X47772Y-766762D01*
Y-767524D01*
X48153Y-768286D01*
X48533Y-768667D01*
X49295Y-769048D01*
X51581Y-769809D01*
X52342Y-770190D01*
X52723Y-770571D01*
X53104Y-771333D01*
Y-772475D01*
X52342Y-773237D01*
X51200Y-773618D01*
X49676D01*
X48533Y-773237D01*
X47772Y-772475D01*
X59845Y-765620D02*
X54894D01*
Y-773618D01*
X59845D01*
X54894Y-769429D02*
X57941D01*
X61178Y-765620D02*
Y-773618D01*
Y-765620D02*
X64606D01*
X65749Y-766001D01*
X66130Y-766382D01*
X66511Y-767143D01*
Y-767905D01*
X66130Y-768667D01*
X65749Y-769048D01*
X64606Y-769429D01*
X61178D01*
X63845D02*
X66511Y-773618D01*
X68301Y-765620D02*
X71348Y-773618D01*
X74395Y-765620D02*
X71348Y-773618D01*
X81517D02*
X78470Y-765620D01*
X75423Y-773618D01*
X76566Y-770952D02*
X80374D01*
X86049Y-765620D02*
Y-773618D01*
X83383Y-765620D02*
X88715D01*
X91953D02*
X91191Y-766001D01*
X90429Y-766762D01*
X90048Y-767524D01*
X89667Y-768667D01*
Y-770571D01*
X90048Y-771714D01*
X90429Y-772475D01*
X91191Y-773237D01*
X91953Y-773618D01*
X93476D01*
X94238Y-773237D01*
X95000Y-772475D01*
X95381Y-771714D01*
X95762Y-770571D01*
Y-768667D01*
X95381Y-767524D01*
X95000Y-766762D01*
X94238Y-766001D01*
X93476Y-765620D01*
X91953D01*
X97628D02*
Y-773618D01*
Y-765620D02*
X101056D01*
X102198Y-766001D01*
X102579Y-766382D01*
X102960Y-767143D01*
Y-767905D01*
X102579Y-768667D01*
X102198Y-769048D01*
X101056Y-769429D01*
X97628D01*
X100294D02*
X102960Y-773618D01*
X104750Y-765620D02*
X107797Y-769429D01*
Y-773618D01*
X110844Y-765620D02*
X107797Y-769429D01*
X143294Y-767143D02*
X144056Y-766762D01*
X145199Y-765620D01*
Y-773618D01*
X151445Y-765620D02*
X150302Y-766001D01*
X149540Y-767143D01*
X149160Y-769048D01*
Y-770190D01*
X149540Y-772095D01*
X150302Y-773237D01*
X151445Y-773618D01*
X152207D01*
X153349Y-773237D01*
X154111Y-772095D01*
X154492Y-770190D01*
Y-769048D01*
X154111Y-767143D01*
X153349Y-766001D01*
X152207Y-765620D01*
X151445D01*
X156282Y-774761D02*
X161614Y-765620D01*
X162147Y-767143D02*
X162909Y-766762D01*
X164052Y-765620D01*
Y-773618D01*
X169917Y-765620D02*
X168774Y-766001D01*
X168394Y-766762D01*
Y-767524D01*
X168774Y-768286D01*
X169536Y-768667D01*
X171060Y-769048D01*
X172202Y-769429D01*
X172964Y-770190D01*
X173345Y-770952D01*
Y-772095D01*
X172964Y-772856D01*
X172583Y-773237D01*
X171440Y-773618D01*
X169917D01*
X168774Y-773237D01*
X168394Y-772856D01*
X168013Y-772095D01*
Y-770952D01*
X168394Y-770190D01*
X169155Y-769429D01*
X170298Y-769048D01*
X171821Y-768667D01*
X172583Y-768286D01*
X172964Y-767524D01*
Y-766762D01*
X172583Y-766001D01*
X171440Y-765620D01*
X169917D01*
X175135Y-774761D02*
X180467Y-765620D01*
X181000Y-767143D02*
X181762Y-766762D01*
X182905Y-765620D01*
Y-773618D01*
X189151Y-765620D02*
X188008Y-766001D01*
X187247Y-767143D01*
X186866Y-769048D01*
Y-770190D01*
X187247Y-772095D01*
X188008Y-773237D01*
X189151Y-773618D01*
X189913D01*
X191055Y-773237D01*
X191817Y-772095D01*
X192198Y-770190D01*
Y-769048D01*
X191817Y-767143D01*
X191055Y-766001D01*
X189913Y-765620D01*
X189151D01*
D20*
X401082Y-211083D02*
D03*
D21*
X64097Y-601447D02*
D03*
X75750Y-607384D02*
D03*
X84997Y-616632D02*
D03*
X90934Y-628284D02*
D03*
X92980Y-641201D02*
D03*
X90934Y-654118D02*
D03*
X84997Y-665771D02*
D03*
X75750Y-675018D02*
D03*
X64097Y-680955D02*
D03*
X51180Y-683001D02*
D03*
X38263Y-680955D02*
D03*
X26611Y-675018D02*
D03*
X17363Y-665771D02*
D03*
X11426Y-654118D02*
D03*
X9380Y-641201D02*
D03*
X11426Y-628284D02*
D03*
X17363Y-616632D02*
D03*
X26611Y-607384D02*
D03*
X38263Y-601447D02*
D03*
X51180Y-599401D02*
D03*
X64334Y-616144D02*
D03*
X74472Y-625126D02*
D03*
X79274Y-637792D02*
D03*
X77641Y-651238D02*
D03*
X69946Y-662385D02*
D03*
X57952Y-668679D02*
D03*
X44407Y-668679D02*
D03*
X32413Y-662384D02*
D03*
X24719Y-651236D02*
D03*
X23087Y-637790D02*
D03*
X27890Y-625125D02*
D03*
X38029Y-616143D02*
D03*
X51180Y-612901D02*
D03*
X62908Y-631850D02*
D03*
X65804Y-644540D02*
D03*
X57688Y-654716D02*
D03*
X44672Y-654716D02*
D03*
X36556Y-644539D02*
D03*
X39453Y-631849D02*
D03*
X51180Y-626201D02*
D03*
Y-641201D02*
D03*
D22*
X86613Y-23819D02*
D03*
D23*
X15747D02*
D03*
D24*
X439271Y-194941D02*
D03*
X389271D02*
D03*
Y-227225D02*
D03*
X439271D02*
D03*
D25*
X453641Y-191398D02*
D03*
Y-230768D02*
D03*
X374901Y-230670D02*
D03*
Y-191300D02*
D03*
D26*
X50590Y-45433D02*
D03*
X42322Y-38937D02*
D03*
X394582Y-207709D02*
D03*
X15157Y-33229D02*
D03*
X77657Y-41103D02*
D03*
X24605Y-39823D02*
D03*
X47243Y-21615D02*
D03*
X37401D02*
D03*
X69881Y-38839D02*
D03*
X30609Y-42382D02*
D03*
X62007Y-20827D02*
D03*
Y-38741D02*
D03*
X33759Y-45532D02*
D03*
X73818Y-44056D02*
D03*
X33759Y-28012D02*
D03*
X58070Y-41890D02*
D03*
X42322Y-20827D02*
D03*
X54133Y-38839D02*
D03*
X77755Y-20827D02*
D03*
X81692D02*
D03*
X26574D02*
D03*
X65944D02*
D03*
X73818D02*
D03*
X29231Y-24174D02*
D03*
X69881Y-20827D02*
D03*
X58070D02*
D03*
X54133D02*
D03*
X65944Y-41103D02*
D03*
X394094Y-219252D02*
D03*
X22637Y-6594D02*
D03*
X34056Y-39271D02*
D03*
X43668Y-46656D02*
D03*
X88052Y-33169D02*
D03*
X14507Y-14468D02*
D03*
X21035Y-17744D02*
D03*
X27756Y-6890D02*
D03*
X66110Y-9508D02*
D03*
X20668Y-28209D02*
D03*
X58039Y-28308D02*
D03*
D29*
X399271Y-189941D02*
X429271D01*
Y-199941D02*
Y-189941D01*
X399271Y-199941D02*
X429271D01*
X399271D02*
Y-189941D01*
X429271Y-194941D02*
X435271D01*
X393271D02*
X399271D01*
Y-232225D02*
X429271D01*
X399271D02*
Y-222225D01*
X429271D01*
Y-232225D02*
Y-222225D01*
X393271Y-227225D02*
X399271D01*
X429271D02*
X435271D01*
M02*
