%FSLAX25Y25*%
%MOIN*%
G70*
G01*
G75*
G04 Layer_Physical_Order=5*
G04 Layer_Color=36540*
%ADD10C,0.01000*%
%ADD11R,0.05906X0.11811*%
%ADD12R,0.00984X0.03543*%
%ADD13R,0.06299X0.07087*%
%ADD14C,0.03000*%
%ADD15C,0.00800*%
%ADD16C,0.00500*%
%ADD17C,0.01201*%
%ADD18C,0.01200*%
%ADD19C,0.01201*%
%ADD20C,0.07000*%
%ADD21C,0.06500*%
%ADD22C,0.03937*%
%ADD23C,0.03543*%
%ADD24C,0.05512*%
%ADD25C,0.07087*%
%ADD26C,0.02400*%
%ADD27C,0.00700*%
%ADD28C,0.01500*%
D10*
X97441Y-33760D02*
G03*
X95921Y-33130I-1520J-1520D01*
G01*
X98851Y-37165D02*
G03*
X97441Y-33760I-4815J0D01*
G01*
X55609Y-578209D02*
Y-44881D01*
X31495Y-20767D02*
X55609Y-44881D01*
X31495Y-20767D02*
Y-15453D01*
X88090Y-33130D02*
X95921D01*
X98851Y-635330D02*
Y-37165D01*
X64634Y-200403D02*
Y-41103D01*
Y-588317D02*
Y-200403D01*
X4822Y-621680D02*
X11426Y-628284D01*
X4822Y-621680D02*
Y-36674D01*
X8267Y-33229D02*
X15157D01*
X92980Y-641201D02*
X98851Y-635330D01*
X75750Y-607384D02*
Y-586218D01*
X77657Y-584311D01*
X27066Y-588839D02*
X27067Y-44783D01*
X14468Y-14430D02*
X14507Y-14468D01*
X38287Y-588544D02*
Y-38248D01*
X32086Y-594745D02*
X38287Y-588544D01*
X32086Y-610200D02*
Y-594745D01*
Y-610200D02*
X38029Y-616143D01*
X44291Y-589528D02*
X55609Y-578209D01*
X44291Y-606011D02*
X51180Y-612901D01*
X58168Y-609979D02*
X64334Y-616144D01*
X58168Y-609979D02*
Y-594745D01*
X64596Y-588317D01*
X44291Y-606011D02*
Y-589528D01*
X14468Y-14430D02*
X38287Y-38248D01*
X77657Y-584311D02*
Y-41103D01*
X4822Y-36674D02*
X8267Y-33229D01*
X22637Y-6594D02*
X31495Y-15453D01*
X88052Y-33169D02*
X88090Y-33130D01*
X27067Y-44783D02*
Y-42285D01*
X24605Y-39823D02*
X27067Y-42285D01*
X26611Y-607384D02*
Y-589294D01*
X27066Y-588839D01*
D15*
X-302264Y-881004D02*
X-252264D01*
X-277264Y-906004D02*
Y-856004D01*
X-282264Y-876004D02*
X-282264Y-881004D01*
X-282264Y-876004D02*
X-277264Y-876004D01*
X-272264Y-881004D02*
X-272264Y-886004D01*
X-277264Y-886004D02*
X-272264Y-886004D01*
X-276764Y-881504D02*
X-272764D01*
Y-885504D02*
Y-881504D01*
X-276764Y-885504D02*
X-272764D01*
X-276764D02*
Y-881504D01*
X-276264Y-882004D02*
X-273264D01*
Y-885004D02*
Y-882004D01*
X-276264Y-885004D02*
X-273264D01*
X-276264D02*
Y-882504D01*
X-275764D02*
X-273764D01*
X-273764Y-884504D01*
X-275764Y-884504D02*
X-273764Y-884504D01*
X-275764Y-884504D02*
Y-883004D01*
X-275264Y-883004D02*
X-274264Y-883004D01*
Y-884004D02*
Y-883004D01*
X-275264Y-884004D02*
X-274264D01*
X-275264D02*
X-275264Y-883004D01*
Y-883504D02*
X-274264D01*
X-281764Y-876504D02*
X-277764D01*
Y-880504D02*
Y-876504D01*
X-281764Y-880504D02*
X-277764D01*
X-281764D02*
Y-876504D01*
X-281264Y-877004D02*
X-278264D01*
Y-880004D02*
Y-877004D01*
X-281264Y-880004D02*
X-278264D01*
X-281264D02*
Y-877504D01*
X-280764D02*
X-278764Y-877504D01*
Y-879504D02*
Y-877504D01*
X-280764Y-879504D02*
X-278764D01*
X-280764D02*
Y-878004D01*
X-280264D02*
X-279264D01*
X-279264Y-879004D02*
X-279264Y-878004D01*
X-280264Y-879004D02*
X-279264Y-879004D01*
X-280264Y-879004D02*
Y-878004D01*
Y-878504D02*
X-279264D01*
X-312205Y47264D02*
X-262205D01*
X-287205Y22264D02*
Y72264D01*
X-292205Y52264D02*
X-292205Y47264D01*
X-292205Y52264D02*
X-287205Y52264D01*
X-282205Y47264D02*
X-282205Y42264D01*
X-287205Y42264D02*
X-282205Y42264D01*
X-286705Y46764D02*
X-282705D01*
Y42764D02*
Y46764D01*
X-286705Y42764D02*
X-282705D01*
X-286705D02*
Y46764D01*
X-286205Y46264D02*
X-283205D01*
Y43264D02*
Y46264D01*
X-286205Y43264D02*
X-283205D01*
X-286205D02*
Y45764D01*
X-285705D02*
X-283705D01*
X-283705Y43764D01*
X-285705Y43764D02*
X-283705Y43764D01*
X-285705Y43764D02*
Y45264D01*
X-285205Y45264D02*
X-284205Y45264D01*
Y44264D02*
Y45264D01*
X-285205Y44264D02*
X-284205D01*
X-285205D02*
X-285205Y45264D01*
Y44764D02*
X-284205D01*
X-291705Y51764D02*
X-287705D01*
Y47764D02*
Y51764D01*
X-291705Y47764D02*
X-287705D01*
X-291705D02*
Y51764D01*
X-291205Y51264D02*
X-288205D01*
Y48264D02*
Y51264D01*
X-291205Y48264D02*
X-288205D01*
X-291205D02*
Y50764D01*
X-290705D02*
X-288705Y50764D01*
Y48764D02*
Y50764D01*
X-290705Y48764D02*
X-288705D01*
X-290705D02*
Y50264D01*
X-290205D02*
X-289205D01*
X-289205Y49264D02*
X-289205Y50264D01*
X-290205Y49264D02*
X-289205Y49264D01*
X-290205Y49264D02*
Y50264D01*
Y49764D02*
X-289205D01*
X559941Y-871142D02*
X609941D01*
X584941Y-896142D02*
Y-846142D01*
X579941Y-866142D02*
X579941Y-871142D01*
X579941Y-866142D02*
X584941Y-866142D01*
X589941Y-871142D02*
X589941Y-876142D01*
X584941Y-876142D02*
X589941Y-876142D01*
X585441Y-871642D02*
X589441D01*
Y-875642D02*
Y-871642D01*
X585441Y-875642D02*
X589441D01*
X585441D02*
Y-871642D01*
X585941Y-872142D02*
X588941D01*
Y-875142D02*
Y-872142D01*
X585941Y-875142D02*
X588941D01*
X585941D02*
Y-872642D01*
X586441D02*
X588441D01*
X588441Y-874642D01*
X586441Y-874642D02*
X588441Y-874642D01*
X586441Y-874642D02*
Y-873142D01*
X586941Y-873142D02*
X587941Y-873142D01*
Y-874142D02*
Y-873142D01*
X586941Y-874142D02*
X587941D01*
X586941D02*
X586941Y-873142D01*
Y-873642D02*
X587941D01*
X580441Y-866642D02*
X584441D01*
Y-870642D02*
Y-866642D01*
X580441Y-870642D02*
X584441D01*
X580441D02*
Y-866642D01*
X580941Y-867142D02*
X583941D01*
Y-870142D02*
Y-867142D01*
X580941Y-870142D02*
X583941D01*
X580941D02*
Y-867642D01*
X581441D02*
X583441Y-867642D01*
Y-869642D02*
Y-867642D01*
X581441Y-869642D02*
X583441D01*
X581441D02*
Y-868142D01*
X581941D02*
X582941D01*
X582941Y-869142D02*
X582941Y-868142D01*
X581941Y-869142D02*
X582941Y-869142D01*
X581941Y-869142D02*
Y-868142D01*
Y-868642D02*
X582941D01*
D17*
X-48214Y-818399D02*
Y-822970D01*
X-50118Y-819542D02*
X-46309Y-821827D01*
Y-819542D02*
X-50118Y-821827D01*
X-44291Y-825636D02*
X-44672Y-826017D01*
X-44291Y-826398D01*
X-43910Y-826017D01*
X-44291Y-825636D01*
X-36445Y-820304D02*
X-36826Y-819542D01*
X-37587Y-818780D01*
X-38349Y-818399D01*
X-39873D01*
X-40634Y-818780D01*
X-41396Y-819542D01*
X-41777Y-820304D01*
X-42158Y-821446D01*
Y-823351D01*
X-41777Y-824493D01*
X-41396Y-825255D01*
X-40634Y-826017D01*
X-39873Y-826398D01*
X-38349D01*
X-37587Y-826017D01*
X-36826Y-825255D01*
X-36445Y-824493D01*
Y-823351D01*
X-38349D02*
X-36445D01*
X-30808Y-818399D02*
X-34617Y-823732D01*
X-28904D01*
X-30808Y-818399D02*
Y-826398D01*
X-21210Y-822970D02*
X-14354D01*
X-5709Y-818399D02*
Y-826398D01*
Y-818399D02*
X-2662Y-826398D01*
X385Y-818399D02*
X-2662Y-826398D01*
X385Y-818399D02*
Y-826398D01*
X2671Y-818399D02*
Y-826398D01*
X4346Y-818399D02*
Y-826398D01*
Y-818399D02*
X7012D01*
X8155Y-818780D01*
X8917Y-819542D01*
X9298Y-820304D01*
X9679Y-821446D01*
Y-823351D01*
X9298Y-824493D01*
X8917Y-825255D01*
X8155Y-826017D01*
X7012Y-826398D01*
X4346D01*
X17753Y-818399D02*
Y-826398D01*
X22323D01*
X29294D02*
X26247Y-818399D01*
X23200Y-826398D01*
X24342Y-823732D02*
X28151D01*
X31160Y-818399D02*
X34207Y-822208D01*
Y-826398D01*
X37254Y-818399D02*
X34207Y-822208D01*
X43233Y-818399D02*
X38282D01*
Y-826398D01*
X43233D01*
X38282Y-822208D02*
X41329D01*
X44566Y-818399D02*
Y-826398D01*
Y-818399D02*
X47994D01*
X49137Y-818780D01*
X49518Y-819161D01*
X49899Y-819923D01*
Y-820685D01*
X49518Y-821446D01*
X49137Y-821827D01*
X47994Y-822208D01*
X44566D01*
X47232D02*
X49899Y-826398D01*
X61782Y-818399D02*
X57973Y-823732D01*
X63686D01*
X61782Y-818399D02*
Y-826398D01*
X77093Y-820304D02*
X76712Y-819542D01*
X75950Y-818780D01*
X75188Y-818399D01*
X73665D01*
X72903Y-818780D01*
X72141Y-819542D01*
X71760Y-820304D01*
X71380Y-821446D01*
Y-823351D01*
X71760Y-824493D01*
X72141Y-825255D01*
X72903Y-826017D01*
X73665Y-826398D01*
X75188D01*
X75950Y-826017D01*
X76712Y-825255D01*
X77093Y-824493D01*
Y-823351D01*
X75188D02*
X77093D01*
X83872Y-818399D02*
X78921D01*
Y-826398D01*
X83872D01*
X78921Y-822208D02*
X81968D01*
X85205Y-818399D02*
Y-826398D01*
Y-818399D02*
X88633D01*
X89776Y-818780D01*
X90157Y-819161D01*
X90538Y-819923D01*
Y-820685D01*
X90157Y-821446D01*
X89776Y-821827D01*
X88633Y-822208D01*
X85205D01*
X87871D02*
X90538Y-826398D01*
X92328Y-818399D02*
Y-826398D01*
Y-818399D02*
X95755D01*
X96898Y-818780D01*
X97279Y-819161D01*
X97660Y-819923D01*
Y-820685D01*
X97279Y-821446D01*
X96898Y-821827D01*
X95755Y-822208D01*
X92328D02*
X95755D01*
X96898Y-822589D01*
X97279Y-822970D01*
X97660Y-823732D01*
Y-824874D01*
X97279Y-825636D01*
X96898Y-826017D01*
X95755Y-826398D01*
X92328D01*
X104401Y-818399D02*
X99450D01*
Y-826398D01*
X104401D01*
X99450Y-822208D02*
X102497D01*
X105734Y-818399D02*
Y-826398D01*
Y-818399D02*
X109162D01*
X110305Y-818780D01*
X110686Y-819161D01*
X111066Y-819923D01*
Y-820685D01*
X110686Y-821446D01*
X110305Y-821827D01*
X109162Y-822208D01*
X105734D01*
X108400D02*
X111066Y-826398D01*
X119141Y-818399D02*
Y-826398D01*
Y-818399D02*
X121807D01*
X122950Y-818780D01*
X123711Y-819542D01*
X124092Y-820304D01*
X124473Y-821446D01*
Y-823351D01*
X124092Y-824493D01*
X123711Y-825255D01*
X122950Y-826017D01*
X121807Y-826398D01*
X119141D01*
X132357D02*
X129310Y-818399D01*
X126263Y-826398D01*
X127406Y-823732D02*
X131214D01*
X136889Y-818399D02*
Y-826398D01*
X134223Y-818399D02*
X139556D01*
X146602Y-826398D02*
X143555Y-818399D01*
X140508Y-826398D01*
X141650Y-823732D02*
X145459D01*
D18*
X-46609Y-751128D02*
X-47371Y-750366D01*
X-48513Y-749985D01*
X-50037D01*
X-51179Y-750366D01*
X-51941Y-751128D01*
Y-751890D01*
X-51560Y-752651D01*
X-51179Y-753032D01*
X-50418Y-753413D01*
X-48132Y-754175D01*
X-47371Y-754556D01*
X-46990Y-754937D01*
X-46609Y-755698D01*
Y-756841D01*
X-47371Y-757603D01*
X-48513Y-757983D01*
X-50037D01*
X-51179Y-757603D01*
X-51941Y-756841D01*
X-44819Y-749985D02*
Y-757983D01*
X-43143Y-749985D02*
Y-757983D01*
Y-749985D02*
X-37811Y-757983D01*
Y-749985D02*
Y-757983D01*
X-35602Y-749985D02*
Y-757983D01*
X-28594Y-751128D02*
X-29355Y-750366D01*
X-30498Y-749985D01*
X-32021D01*
X-33164Y-750366D01*
X-33926Y-751128D01*
Y-751890D01*
X-33545Y-752651D01*
X-33164Y-753032D01*
X-32402Y-753413D01*
X-30117Y-754175D01*
X-29355Y-754556D01*
X-28975Y-754937D01*
X-28594Y-755698D01*
Y-756841D01*
X-29355Y-757603D01*
X-30498Y-757983D01*
X-32021D01*
X-33164Y-757603D01*
X-33926Y-756841D01*
X-24137Y-749985D02*
Y-757983D01*
X-26804Y-749985D02*
X-21471D01*
X-20519D02*
Y-757983D01*
Y-749985D02*
X-17091D01*
X-15949Y-750366D01*
X-15568Y-750747D01*
X-15187Y-751509D01*
Y-752270D01*
X-15568Y-753032D01*
X-15949Y-753413D01*
X-17091Y-753794D01*
X-20519D01*
X-17853D02*
X-15187Y-757983D01*
X-11112Y-749985D02*
X-11873Y-750366D01*
X-12635Y-751128D01*
X-13016Y-751890D01*
X-13397Y-753032D01*
Y-754937D01*
X-13016Y-756079D01*
X-12635Y-756841D01*
X-11873Y-757603D01*
X-11112Y-757983D01*
X-9588D01*
X-8826Y-757603D01*
X-8065Y-756841D01*
X-7684Y-756079D01*
X-7303Y-754937D01*
Y-753032D01*
X-7684Y-751890D01*
X-8065Y-751128D01*
X-8826Y-750366D01*
X-9588Y-749985D01*
X-11112D01*
X848D02*
Y-757983D01*
Y-749985D02*
X5799D01*
X848Y-753794D02*
X3895D01*
X6713Y-749985D02*
Y-757983D01*
X11283D01*
X17111Y-749985D02*
X12160D01*
Y-757983D01*
X17111D01*
X12160Y-753794D02*
X15206D01*
X18444Y-749985D02*
X23776Y-757983D01*
Y-749985D02*
X18444Y-757983D01*
X37564Y-751890D02*
X37183Y-751128D01*
X36421Y-750366D01*
X35659Y-749985D01*
X34136D01*
X33374Y-750366D01*
X32612Y-751128D01*
X32231Y-751890D01*
X31850Y-753032D01*
Y-754937D01*
X32231Y-756079D01*
X32612Y-756841D01*
X33374Y-757603D01*
X34136Y-757983D01*
X35659D01*
X36421Y-757603D01*
X37183Y-756841D01*
X37564Y-756079D01*
X39811Y-749985D02*
Y-757983D01*
X41487Y-749985D02*
Y-757983D01*
Y-749985D02*
X44914D01*
X46057Y-750366D01*
X46438Y-750747D01*
X46819Y-751509D01*
Y-752270D01*
X46438Y-753032D01*
X46057Y-753413D01*
X44914Y-753794D01*
X41487D01*
X44153D02*
X46819Y-757983D01*
X54322Y-751890D02*
X53941Y-751128D01*
X53179Y-750366D01*
X52418Y-749985D01*
X50894D01*
X50132Y-750366D01*
X49371Y-751128D01*
X48990Y-751890D01*
X48609Y-753032D01*
Y-754937D01*
X48990Y-756079D01*
X49371Y-756841D01*
X50132Y-757603D01*
X50894Y-757983D01*
X52418D01*
X53179Y-757603D01*
X53941Y-756841D01*
X54322Y-756079D01*
X56569Y-749985D02*
Y-755698D01*
X56950Y-756841D01*
X57712Y-757603D01*
X58854Y-757983D01*
X59616D01*
X60759Y-757603D01*
X61520Y-756841D01*
X61901Y-755698D01*
Y-749985D01*
X64110D02*
Y-757983D01*
X68452Y-749985D02*
Y-757983D01*
X65786Y-749985D02*
X71118D01*
X78355D02*
Y-757983D01*
Y-749985D02*
X81783D01*
X82925Y-750366D01*
X83306Y-750747D01*
X83687Y-751509D01*
Y-752270D01*
X83306Y-753032D01*
X82925Y-753413D01*
X81783Y-753794D01*
X78355D01*
X81021D02*
X83687Y-757983D01*
X85477Y-754937D02*
X90048D01*
Y-754175D01*
X89667Y-753413D01*
X89286Y-753032D01*
X88524Y-752651D01*
X87382D01*
X86620Y-753032D01*
X85858Y-753794D01*
X85477Y-754937D01*
Y-755698D01*
X85858Y-756841D01*
X86620Y-757603D01*
X87382Y-757983D01*
X88524D01*
X89286Y-757603D01*
X90048Y-756841D01*
X91761Y-752651D02*
X94047Y-757983D01*
X96332Y-752651D02*
X94047Y-757983D01*
X98008Y-757222D02*
X97627Y-757603D01*
X98008Y-757983D01*
X98389Y-757603D01*
X98008Y-757222D01*
X112519Y-757983D02*
X109472Y-749985D01*
X106425Y-757983D01*
X107568Y-755317D02*
X111376D01*
D19*
X-51940Y-765620D02*
Y-773618D01*
X-47370D01*
X-40400D02*
X-43447Y-765620D01*
X-46494Y-773618D01*
X-45351Y-770952D02*
X-41542D01*
X-33201Y-766762D02*
X-33963Y-766001D01*
X-35106Y-765620D01*
X-36629D01*
X-37772Y-766001D01*
X-38534Y-766762D01*
Y-767524D01*
X-38153Y-768286D01*
X-37772Y-768667D01*
X-37010Y-769048D01*
X-34725Y-769809D01*
X-33963Y-770190D01*
X-33582Y-770571D01*
X-33201Y-771333D01*
Y-772475D01*
X-33963Y-773237D01*
X-35106Y-773618D01*
X-36629D01*
X-37772Y-773237D01*
X-38534Y-772475D01*
X-19414Y-767524D02*
X-19795Y-766762D01*
X-20557Y-766001D01*
X-21318Y-765620D01*
X-22842D01*
X-23603Y-766001D01*
X-24365Y-766762D01*
X-24746Y-767524D01*
X-25127Y-768667D01*
Y-770571D01*
X-24746Y-771714D01*
X-24365Y-772475D01*
X-23603Y-773237D01*
X-22842Y-773618D01*
X-21318D01*
X-20557Y-773237D01*
X-19795Y-772475D01*
X-19414Y-771714D01*
X-17167Y-765620D02*
Y-771333D01*
X-16786Y-772475D01*
X-16024Y-773237D01*
X-14882Y-773618D01*
X-14120D01*
X-12977Y-773237D01*
X-12215Y-772475D01*
X-11834Y-771333D01*
Y-765620D01*
X-9625D02*
Y-773618D01*
Y-765620D02*
X-6578Y-773618D01*
X-3531Y-765620D02*
X-6578Y-773618D01*
X-3531Y-765620D02*
Y-773618D01*
X-1246Y-765620D02*
Y-773618D01*
Y-765620D02*
X2182D01*
X3324Y-766001D01*
X3705Y-766382D01*
X4086Y-767143D01*
Y-767905D01*
X3705Y-768667D01*
X3324Y-769048D01*
X2182Y-769429D01*
X-1246D02*
X2182D01*
X3324Y-769809D01*
X3705Y-770190D01*
X4086Y-770952D01*
Y-772095D01*
X3705Y-772856D01*
X3324Y-773237D01*
X2182Y-773618D01*
X-1246D01*
X5876Y-765620D02*
Y-773618D01*
Y-765620D02*
X9304D01*
X10446Y-766001D01*
X10827Y-766382D01*
X11208Y-767143D01*
Y-767905D01*
X10827Y-768667D01*
X10446Y-769048D01*
X9304Y-769429D01*
X5876D01*
X8542D02*
X11208Y-773618D01*
X17950Y-765620D02*
X12998D01*
Y-773618D01*
X17950D01*
X12998Y-769429D02*
X16045D01*
X24615Y-766762D02*
X23853Y-766001D01*
X22711Y-765620D01*
X21187D01*
X20044Y-766001D01*
X19283Y-766762D01*
Y-767524D01*
X19663Y-768286D01*
X20044Y-768667D01*
X20806Y-769048D01*
X23091Y-769809D01*
X23853Y-770190D01*
X24234Y-770571D01*
X24615Y-771333D01*
Y-772475D01*
X23853Y-773237D01*
X22711Y-773618D01*
X21187D01*
X20044Y-773237D01*
X19283Y-772475D01*
X34975Y-765620D02*
X34213Y-766001D01*
X33451Y-766762D01*
X33070Y-767524D01*
X32689Y-768667D01*
Y-770571D01*
X33070Y-771714D01*
X33451Y-772475D01*
X34213Y-773237D01*
X34975Y-773618D01*
X36498D01*
X37260Y-773237D01*
X38021Y-772475D01*
X38402Y-771714D01*
X38783Y-770571D01*
Y-768667D01*
X38402Y-767524D01*
X38021Y-766762D01*
X37260Y-766001D01*
X36498Y-765620D01*
X34975D01*
X40650D02*
Y-773618D01*
Y-765620D02*
X44077D01*
X45220Y-766001D01*
X45601Y-766382D01*
X45982Y-767143D01*
Y-767905D01*
X45601Y-768667D01*
X45220Y-769048D01*
X44077Y-769429D01*
X40650D02*
X44077D01*
X45220Y-769809D01*
X45601Y-770190D01*
X45982Y-770952D01*
Y-772095D01*
X45601Y-772856D01*
X45220Y-773237D01*
X44077Y-773618D01*
X40650D01*
X53104Y-766762D02*
X52342Y-766001D01*
X51200Y-765620D01*
X49676D01*
X48533Y-766001D01*
X47772Y-766762D01*
Y-767524D01*
X48153Y-768286D01*
X48533Y-768667D01*
X49295Y-769048D01*
X51581Y-769809D01*
X52342Y-770190D01*
X52723Y-770571D01*
X53104Y-771333D01*
Y-772475D01*
X52342Y-773237D01*
X51200Y-773618D01*
X49676D01*
X48533Y-773237D01*
X47772Y-772475D01*
X59845Y-765620D02*
X54894D01*
Y-773618D01*
X59845D01*
X54894Y-769429D02*
X57941D01*
X61178Y-765620D02*
Y-773618D01*
Y-765620D02*
X64606D01*
X65749Y-766001D01*
X66130Y-766382D01*
X66511Y-767143D01*
Y-767905D01*
X66130Y-768667D01*
X65749Y-769048D01*
X64606Y-769429D01*
X61178D01*
X63845D02*
X66511Y-773618D01*
X68301Y-765620D02*
X71348Y-773618D01*
X74395Y-765620D02*
X71348Y-773618D01*
X81517D02*
X78470Y-765620D01*
X75423Y-773618D01*
X76566Y-770952D02*
X80374D01*
X86049Y-765620D02*
Y-773618D01*
X83383Y-765620D02*
X88715D01*
X91953D02*
X91191Y-766001D01*
X90429Y-766762D01*
X90048Y-767524D01*
X89667Y-768667D01*
Y-770571D01*
X90048Y-771714D01*
X90429Y-772475D01*
X91191Y-773237D01*
X91953Y-773618D01*
X93476D01*
X94238Y-773237D01*
X95000Y-772475D01*
X95381Y-771714D01*
X95762Y-770571D01*
Y-768667D01*
X95381Y-767524D01*
X95000Y-766762D01*
X94238Y-766001D01*
X93476Y-765620D01*
X91953D01*
X97628D02*
Y-773618D01*
Y-765620D02*
X101056D01*
X102198Y-766001D01*
X102579Y-766382D01*
X102960Y-767143D01*
Y-767905D01*
X102579Y-768667D01*
X102198Y-769048D01*
X101056Y-769429D01*
X97628D01*
X100294D02*
X102960Y-773618D01*
X104750Y-765620D02*
X107797Y-769429D01*
Y-773618D01*
X110844Y-765620D02*
X107797Y-769429D01*
X143294Y-767143D02*
X144056Y-766762D01*
X145199Y-765620D01*
Y-773618D01*
X151445Y-765620D02*
X150302Y-766001D01*
X149540Y-767143D01*
X149160Y-769048D01*
Y-770190D01*
X149540Y-772095D01*
X150302Y-773237D01*
X151445Y-773618D01*
X152207D01*
X153349Y-773237D01*
X154111Y-772095D01*
X154492Y-770190D01*
Y-769048D01*
X154111Y-767143D01*
X153349Y-766001D01*
X152207Y-765620D01*
X151445D01*
X156282Y-774761D02*
X161614Y-765620D01*
X162147Y-767143D02*
X162909Y-766762D01*
X164052Y-765620D01*
Y-773618D01*
X169917Y-765620D02*
X168774Y-766001D01*
X168394Y-766762D01*
Y-767524D01*
X168774Y-768286D01*
X169536Y-768667D01*
X171060Y-769048D01*
X172202Y-769429D01*
X172964Y-770190D01*
X173345Y-770952D01*
Y-772095D01*
X172964Y-772856D01*
X172583Y-773237D01*
X171440Y-773618D01*
X169917D01*
X168774Y-773237D01*
X168394Y-772856D01*
X168013Y-772095D01*
Y-770952D01*
X168394Y-770190D01*
X169155Y-769429D01*
X170298Y-769048D01*
X171821Y-768667D01*
X172583Y-768286D01*
X172964Y-767524D01*
Y-766762D01*
X172583Y-766001D01*
X171440Y-765620D01*
X169917D01*
X175135Y-774761D02*
X180467Y-765620D01*
X181000Y-767143D02*
X181762Y-766762D01*
X182905Y-765620D01*
Y-773618D01*
X189151Y-765620D02*
X188008Y-766001D01*
X187247Y-767143D01*
X186866Y-769048D01*
Y-770190D01*
X187247Y-772095D01*
X188008Y-773237D01*
X189151Y-773618D01*
X189913D01*
X191055Y-773237D01*
X191817Y-772095D01*
X192198Y-770190D01*
Y-769048D01*
X191817Y-767143D01*
X191055Y-766001D01*
X189913Y-765620D01*
X189151D01*
D21*
X75750Y-607384D02*
D03*
X92980Y-641201D02*
D03*
X11426Y-628284D02*
D03*
X26611Y-607384D02*
D03*
X64334Y-616144D02*
D03*
X38029Y-616143D02*
D03*
X51180Y-612901D02*
D03*
D26*
X15157Y-33229D02*
D03*
X77657Y-41103D02*
D03*
X24605Y-39823D02*
D03*
X65944Y-41103D02*
D03*
X22637Y-6594D02*
D03*
X88052Y-33169D02*
D03*
X14507Y-14468D02*
D03*
M02*
