%FSLAX23Y23*%
%MOIN*%
G70*
G01*
G75*
G04 Layer_Color=8388736*
%ADD10R,0.050X0.050*%
%ADD11R,0.045X0.017*%
%ADD12R,0.050X0.050*%
%ADD13R,0.048X0.078*%
%ADD14R,0.078X0.048*%
%ADD15R,0.100X0.100*%
%ADD16R,0.272X0.268*%
%ADD17R,0.075X0.037*%
%ADD18R,0.037X0.035*%
%ADD19R,0.037X0.035*%
%ADD20R,0.036X0.036*%
%ADD21R,0.070X0.135*%
%ADD22R,0.135X0.070*%
%ADD23O,0.098X0.028*%
%ADD24R,0.065X0.012*%
%ADD25R,0.030X0.100*%
%ADD26R,0.014X0.060*%
%ADD27R,0.031X0.060*%
%ADD28R,0.100X0.100*%
%ADD29C,0.005*%
%ADD30C,0.025*%
%ADD31C,0.008*%
%ADD32C,0.010*%
%ADD33C,0.050*%
%ADD34C,0.006*%
%ADD35C,0.012*%
%ADD36C,0.012*%
%ADD37C,0.012*%
%ADD38C,0.100*%
%ADD39C,0.065*%
%ADD40C,0.116*%
%ADD41C,0.063*%
%ADD42C,0.059*%
%ADD43R,0.059X0.059*%
%ADD44C,0.157*%
%ADD45C,0.079*%
%ADD46R,0.059X0.059*%
%ADD47C,0.059*%
%ADD48C,0.020*%
%ADD49C,0.060*%
%ADD50R,0.060X0.060*%
%ADD51C,0.070*%
%ADD52C,0.039*%
%ADD53C,0.220*%
%ADD54C,0.050*%
%ADD55C,0.236*%
%ADD56C,0.030*%
%ADD57C,0.040*%
%ADD58C,0.103*%
%ADD59C,0.080*%
%ADD60C,0.168*%
%ADD61C,0.075*%
%ADD62C,0.131*%
%ADD63C,0.076*%
%ADD64C,0.075*%
G04:AMPARAMS|DCode=65|XSize=95.433mil|YSize=95.433mil|CornerRadius=0mil|HoleSize=0mil|Usage=FLASHONLY|Rotation=0.000|XOffset=0mil|YOffset=0mil|HoleType=Round|Shape=Relief|Width=10mil|Gap=10mil|Entries=4|*
%AMTHD65*
7,0,0,0.095,0.075,0.010,45*
%
%ADD65THD65*%
G04:AMPARAMS|DCode=66|XSize=90mil|YSize=90mil|CornerRadius=0mil|HoleSize=0mil|Usage=FLASHONLY|Rotation=0.000|XOffset=0mil|YOffset=0mil|HoleType=Round|Shape=Relief|Width=10mil|Gap=10mil|Entries=4|*
%AMTHD66*
7,0,0,0.090,0.070,0.010,45*
%
%ADD66THD66*%
%ADD67C,0.080*%
%ADD68C,0.206*%
G04:AMPARAMS|DCode=69|XSize=85mil|YSize=85mil|CornerRadius=0mil|HoleSize=0mil|Usage=FLASHONLY|Rotation=0.000|XOffset=0mil|YOffset=0mil|HoleType=Round|Shape=Relief|Width=10mil|Gap=10mil|Entries=4|*
%AMTHD69*
7,0,0,0.085,0.065,0.010,45*
%
%ADD69THD69*%
%ADD70C,0.158*%
G04:AMPARAMS|DCode=71|XSize=70mil|YSize=70mil|CornerRadius=0mil|HoleSize=0mil|Usage=FLASHONLY|Rotation=0.000|XOffset=0mil|YOffset=0mil|HoleType=Round|Shape=Relief|Width=10mil|Gap=10mil|Entries=4|*
%AMTHD71*
7,0,0,0.070,0.050,0.010,45*
%
%ADD71THD71*%
%ADD72C,0.068*%
%ADD73C,0.055*%
G04:AMPARAMS|DCode=74|XSize=75mil|YSize=75mil|CornerRadius=0mil|HoleSize=0mil|Usage=FLASHONLY|Rotation=0.000|XOffset=0mil|YOffset=0mil|HoleType=Round|Shape=Relief|Width=10mil|Gap=10mil|Entries=4|*
%AMTHD74*
7,0,0,0.075,0.055,0.010,45*
%
%ADD74THD74*%
G04:AMPARAMS|DCode=75|XSize=123mil|YSize=123mil|CornerRadius=0mil|HoleSize=0mil|Usage=FLASHONLY|Rotation=0.000|XOffset=0mil|YOffset=0mil|HoleType=Round|Shape=Relief|Width=10mil|Gap=10mil|Entries=4|*
%AMTHD75*
7,0,0,0.123,0.103,0.010,45*
%
%ADD75THD75*%
G04:AMPARAMS|DCode=76|XSize=100mil|YSize=100mil|CornerRadius=0mil|HoleSize=0mil|Usage=FLASHONLY|Rotation=0.000|XOffset=0mil|YOffset=0mil|HoleType=Round|Shape=Relief|Width=10mil|Gap=10mil|Entries=4|*
%AMTHD76*
7,0,0,0.100,0.080,0.010,45*
%
%ADD76THD76*%
G04:AMPARAMS|DCode=77|XSize=150.551mil|YSize=150.551mil|CornerRadius=0mil|HoleSize=0mil|Usage=FLASHONLY|Rotation=0.000|XOffset=0mil|YOffset=0mil|HoleType=Round|Shape=Relief|Width=10mil|Gap=10mil|Entries=4|*
%AMTHD77*
7,0,0,0.151,0.131,0.010,45*
%
%ADD77THD77*%
G04:AMPARAMS|DCode=78|XSize=96.221mil|YSize=96.221mil|CornerRadius=0mil|HoleSize=0mil|Usage=FLASHONLY|Rotation=0.000|XOffset=0mil|YOffset=0mil|HoleType=Round|Shape=Relief|Width=10mil|Gap=10mil|Entries=4|*
%AMTHD78*
7,0,0,0.096,0.076,0.010,45*
%
%ADD78THD78*%
G04:AMPARAMS|DCode=79|XSize=88mil|YSize=88mil|CornerRadius=0mil|HoleSize=0mil|Usage=FLASHONLY|Rotation=0.000|XOffset=0mil|YOffset=0mil|HoleType=Round|Shape=Relief|Width=10mil|Gap=10mil|Entries=4|*
%AMTHD79*
7,0,0,0.088,0.068,0.010,45*
%
%ADD79THD79*%
%ADD80R,0.100X0.025*%
%ADD81R,0.012X0.057*%
%ADD82R,0.185X0.025*%
%ADD83R,0.035X0.053*%
%ADD84R,0.053X0.053*%
%ADD85R,0.709X0.020*%
%ADD86R,0.016X0.085*%
%ADD87C,0.010*%
%ADD88C,0.010*%
%ADD89C,0.008*%
%ADD90C,0.007*%
%ADD91R,0.170X0.118*%
%ADD92R,0.058X0.058*%
%ADD93R,0.053X0.025*%
%ADD94R,0.058X0.058*%
%ADD95R,0.056X0.086*%
%ADD96R,0.086X0.056*%
%ADD97R,0.108X0.108*%
%ADD98R,0.280X0.276*%
%ADD99R,0.083X0.045*%
%ADD100R,0.045X0.043*%
%ADD101R,0.045X0.043*%
%ADD102R,0.044X0.044*%
%ADD103R,0.078X0.143*%
%ADD104R,0.143X0.078*%
%ADD105O,0.106X0.036*%
%ADD106R,0.073X0.020*%
%ADD107R,0.038X0.108*%
%ADD108R,0.022X0.068*%
%ADD109R,0.039X0.068*%
%ADD110R,0.108X0.108*%
%ADD111C,0.108*%
%ADD112C,0.073*%
%ADD113C,0.124*%
%ADD114C,0.071*%
%ADD115C,0.067*%
%ADD116R,0.067X0.067*%
%ADD117C,0.165*%
%ADD118C,0.087*%
%ADD119R,0.067X0.067*%
%ADD120C,0.067*%
%ADD121C,0.028*%
%ADD122R,0.068X0.068*%
%ADD123C,0.078*%
%ADD124C,0.047*%
%ADD125C,0.228*%
%ADD126C,0.244*%
%ADD127C,0.058*%
%ADD128C,0.038*%
D31*
X58873Y37990D02*
Y38490D01*
X58623Y38240D02*
X59123D01*
X58823Y38190D02*
X58873D01*
X58823D02*
Y38240D01*
X58873Y38290D02*
X58923D01*
Y38240D02*
Y38290D01*
X58878Y38245D02*
Y38285D01*
X58918D01*
Y38245D02*
Y38285D01*
X58878Y38245D02*
X58918D01*
X58883Y38250D02*
Y38280D01*
X58913D01*
Y38250D02*
Y38280D01*
X58888Y38250D02*
X58913D01*
X58888Y38255D02*
Y38275D01*
X58908D01*
Y38255D02*
Y38275D01*
X58893Y38255D02*
X58908D01*
X58893Y38260D02*
Y38270D01*
X58903D01*
Y38260D02*
Y38270D01*
X58893Y38260D02*
X58903D01*
X58898D02*
Y38270D01*
X58828Y38195D02*
Y38235D01*
X58868D01*
Y38195D02*
Y38235D01*
X58828Y38195D02*
X58868D01*
X58833Y38200D02*
Y38230D01*
X58863D01*
Y38200D02*
Y38230D01*
X58838Y38200D02*
X58863D01*
X58838Y38205D02*
Y38225D01*
X58858D01*
Y38205D02*
Y38225D01*
X58843Y38205D02*
X58858D01*
X58843Y38210D02*
Y38220D01*
X58853D01*
Y38210D02*
Y38220D01*
X58843Y38210D02*
X58853D01*
X58848D02*
Y38220D01*
X51765Y38056D02*
Y38556D01*
X51515Y38306D02*
X52015D01*
X51715Y38256D02*
X51765D01*
X51715D02*
Y38306D01*
X51765Y38356D02*
X51815D01*
Y38306D02*
Y38356D01*
X51770Y38311D02*
Y38351D01*
X51810D01*
Y38311D02*
Y38351D01*
X51770Y38311D02*
X51810D01*
X51775Y38316D02*
Y38346D01*
X51805D01*
Y38316D02*
Y38346D01*
X51780Y38316D02*
X51805D01*
X51780Y38321D02*
Y38341D01*
X51800D01*
Y38321D02*
Y38341D01*
X51785Y38321D02*
X51800D01*
X51785Y38326D02*
Y38336D01*
X51795D01*
Y38326D02*
Y38336D01*
X51785Y38326D02*
X51795D01*
X51790D02*
Y38336D01*
X51720Y38261D02*
Y38301D01*
X51760D01*
Y38261D02*
Y38301D01*
X51720Y38261D02*
X51760D01*
X51725Y38266D02*
Y38296D01*
X51755D01*
Y38266D02*
Y38296D01*
X51730Y38266D02*
X51755D01*
X51730Y38271D02*
Y38291D01*
X51750D01*
Y38271D02*
Y38291D01*
X51735Y38271D02*
X51750D01*
X51735Y38276D02*
Y38286D01*
X51745D01*
Y38276D02*
Y38286D01*
X51735Y38276D02*
X51745D01*
X51740D02*
Y38286D01*
X52077Y31688D02*
Y32188D01*
X51827Y31938D02*
X52327D01*
X52027Y31888D02*
X52077D01*
X52027D02*
Y31938D01*
X52077Y31988D02*
X52127D01*
Y31938D02*
Y31988D01*
X52082Y31943D02*
Y31983D01*
X52122D01*
Y31943D02*
Y31983D01*
X52082Y31943D02*
X52122D01*
X52087Y31948D02*
Y31978D01*
X52117D01*
Y31948D02*
Y31978D01*
X52092Y31948D02*
X52117D01*
X52092Y31953D02*
Y31973D01*
X52112D01*
Y31953D02*
Y31973D01*
X52097Y31953D02*
X52112D01*
X52097Y31958D02*
Y31968D01*
X52107D01*
Y31958D02*
Y31968D01*
X52097Y31958D02*
X52107D01*
X52102D02*
Y31968D01*
X52032Y31893D02*
Y31933D01*
X52072D01*
Y31893D02*
Y31933D01*
X52032Y31893D02*
X52072D01*
X52037Y31898D02*
Y31928D01*
X52067D01*
Y31898D02*
Y31928D01*
X52042Y31898D02*
X52067D01*
X52042Y31903D02*
Y31923D01*
X52062D01*
Y31903D02*
Y31923D01*
X52047Y31903D02*
X52062D01*
X52047Y31908D02*
Y31918D01*
X52057D01*
Y31908D02*
Y31918D01*
X52047Y31908D02*
X52057D01*
X52052D02*
Y31918D01*
D35*
X54826Y32275D02*
Y32230D01*
X54807Y32264D02*
X54845Y32241D01*
Y32264D02*
X54807Y32241D01*
X54865Y32203D02*
X54861Y32199D01*
X54865Y32196D01*
X54869Y32199D01*
X54865Y32203D01*
X54944Y32256D02*
X54940Y32264D01*
X54932Y32272D01*
X54925Y32275D01*
X54909D01*
X54902Y32272D01*
X54894Y32264D01*
X54890Y32256D01*
X54887Y32245D01*
Y32226D01*
X54890Y32215D01*
X54894Y32207D01*
X54902Y32199D01*
X54909Y32196D01*
X54925D01*
X54932Y32199D01*
X54940Y32207D01*
X54944Y32215D01*
Y32226D01*
X54925D02*
X54944D01*
X54989Y32275D02*
Y32196D01*
X54962Y32275D02*
X55015D01*
X55078Y32264D02*
X55071Y32272D01*
X55059Y32275D01*
X55044D01*
X55032Y32272D01*
X55025Y32264D01*
Y32256D01*
X55029Y32249D01*
X55032Y32245D01*
X55040Y32241D01*
X55063Y32234D01*
X55071Y32230D01*
X55074Y32226D01*
X55078Y32218D01*
Y32207D01*
X55071Y32199D01*
X55059Y32196D01*
X55044D01*
X55032Y32199D01*
X55025Y32207D01*
X55159Y32230D02*
X55227D01*
X55341Y32275D02*
Y32196D01*
X55314Y32275D02*
X55367D01*
X55400D02*
X55392Y32272D01*
X55384Y32264D01*
X55381Y32256D01*
X55377Y32245D01*
Y32226D01*
X55381Y32215D01*
X55384Y32207D01*
X55392Y32199D01*
X55400Y32196D01*
X55415D01*
X55422Y32199D01*
X55430Y32207D01*
X55434Y32215D01*
X55438Y32226D01*
Y32245D01*
X55434Y32256D01*
X55430Y32264D01*
X55422Y32272D01*
X55415Y32275D01*
X55400D01*
X55456Y32234D02*
X55491D01*
X55502Y32237D01*
X55506Y32241D01*
X55510Y32249D01*
Y32260D01*
X55506Y32268D01*
X55502Y32272D01*
X55491Y32275D01*
X55456D01*
Y32196D01*
X55644Y32264D02*
X55636Y32272D01*
X55625Y32275D01*
X55609D01*
X55598Y32272D01*
X55590Y32264D01*
Y32256D01*
X55594Y32249D01*
X55598Y32245D01*
X55606Y32241D01*
X55629Y32234D01*
X55636Y32230D01*
X55640Y32226D01*
X55644Y32218D01*
Y32207D01*
X55636Y32199D01*
X55625Y32196D01*
X55609D01*
X55598Y32199D01*
X55590Y32207D01*
X55685Y32275D02*
X55677Y32272D01*
X55669Y32264D01*
X55665Y32256D01*
X55662Y32245D01*
Y32226D01*
X55665Y32215D01*
X55669Y32207D01*
X55677Y32199D01*
X55685Y32196D01*
X55700D01*
X55707Y32199D01*
X55715Y32207D01*
X55719Y32215D01*
X55723Y32226D01*
Y32245D01*
X55719Y32256D01*
X55715Y32264D01*
X55707Y32272D01*
X55700Y32275D01*
X55685D01*
X55741D02*
Y32196D01*
X55787D01*
X55796Y32275D02*
Y32196D01*
Y32275D02*
X55822D01*
X55834Y32272D01*
X55841Y32264D01*
X55845Y32256D01*
X55849Y32245D01*
Y32226D01*
X55845Y32215D01*
X55841Y32207D01*
X55834Y32199D01*
X55822Y32196D01*
X55796D01*
X55916Y32275D02*
X55867D01*
Y32196D01*
X55916D01*
X55867Y32237D02*
X55897D01*
X55930Y32275D02*
Y32196D01*
Y32275D02*
X55964D01*
X55976Y32272D01*
X55979Y32268D01*
X55983Y32260D01*
Y32253D01*
X55979Y32245D01*
X55976Y32241D01*
X55964Y32237D01*
X55930D01*
X55956D02*
X55983Y32196D01*
X56064Y32275D02*
Y32196D01*
Y32275D02*
X56094Y32196D01*
X56125Y32275D02*
X56094Y32196D01*
X56125Y32275D02*
Y32196D01*
X56209D02*
X56178Y32275D01*
X56148Y32196D01*
X56159Y32222D02*
X56197D01*
X56281Y32264D02*
X56273Y32272D01*
X56262Y32275D01*
X56246D01*
X56235Y32272D01*
X56227Y32264D01*
Y32256D01*
X56231Y32249D01*
X56235Y32245D01*
X56243Y32241D01*
X56265Y32234D01*
X56273Y32230D01*
X56277Y32226D01*
X56281Y32218D01*
Y32207D01*
X56273Y32199D01*
X56262Y32196D01*
X56246D01*
X56235Y32199D01*
X56227Y32207D01*
X56298Y32275D02*
Y32196D01*
X56352Y32275D02*
X56298Y32222D01*
X56318Y32241D02*
X56352Y32196D01*
X56490Y32256D02*
X56486Y32264D01*
X56478Y32272D01*
X56471Y32275D01*
X56455D01*
X56448Y32272D01*
X56440Y32264D01*
X56436Y32256D01*
X56433Y32245D01*
Y32226D01*
X56436Y32215D01*
X56440Y32207D01*
X56448Y32199D01*
X56455Y32196D01*
X56471D01*
X56478Y32199D01*
X56486Y32207D01*
X56490Y32215D01*
Y32226D01*
X56471D02*
X56490D01*
X56557Y32275D02*
X56508D01*
Y32196D01*
X56557D01*
X56508Y32237D02*
X56538D01*
X56571Y32275D02*
Y32196D01*
Y32275D02*
X56605D01*
X56617Y32272D01*
X56620Y32268D01*
X56624Y32260D01*
Y32253D01*
X56620Y32245D01*
X56617Y32241D01*
X56605Y32237D01*
X56571D01*
X56597D02*
X56624Y32196D01*
X56642Y32275D02*
Y32196D01*
Y32275D02*
X56676D01*
X56688Y32272D01*
X56692Y32268D01*
X56695Y32260D01*
Y32253D01*
X56692Y32245D01*
X56688Y32241D01*
X56676Y32237D01*
X56642D02*
X56676D01*
X56688Y32234D01*
X56692Y32230D01*
X56695Y32222D01*
Y32211D01*
X56692Y32203D01*
X56688Y32199D01*
X56676Y32196D01*
X56642D01*
X56763Y32275D02*
X56713D01*
Y32196D01*
X56763D01*
X56713Y32237D02*
X56744D01*
X56776Y32275D02*
Y32196D01*
Y32275D02*
X56810D01*
X56822Y32272D01*
X56826Y32268D01*
X56829Y32260D01*
Y32253D01*
X56826Y32245D01*
X56822Y32241D01*
X56810Y32237D01*
X56776D01*
X56803D02*
X56829Y32196D01*
X56910Y32275D02*
Y32196D01*
Y32275D02*
X56937D01*
X56948Y32272D01*
X56956Y32264D01*
X56960Y32256D01*
X56963Y32245D01*
Y32226D01*
X56960Y32215D01*
X56956Y32207D01*
X56948Y32199D01*
X56937Y32196D01*
X56910D01*
X57042D02*
X57012Y32275D01*
X56981Y32196D01*
X56993Y32222D02*
X57031D01*
X57088Y32275D02*
Y32196D01*
X57061Y32275D02*
X57114D01*
X57185Y32196D02*
X57154Y32275D01*
X57124Y32196D01*
X57135Y32222D02*
X57173D01*
D36*
X54828Y32556D02*
Y32476D01*
X54874D01*
X54943D02*
X54913Y32556D01*
X54882Y32476D01*
X54894Y32503D02*
X54932D01*
X55015Y32545D02*
X55008Y32552D01*
X54996Y32556D01*
X54981D01*
X54970Y32552D01*
X54962Y32545D01*
Y32537D01*
X54966Y32529D01*
X54970Y32526D01*
X54977Y32522D01*
X55000Y32514D01*
X55008Y32510D01*
X55012Y32507D01*
X55015Y32499D01*
Y32487D01*
X55008Y32480D01*
X54996Y32476D01*
X54981D01*
X54970Y32480D01*
X54962Y32487D01*
X55153Y32537D02*
X55149Y32545D01*
X55142Y32552D01*
X55134Y32556D01*
X55119D01*
X55111Y32552D01*
X55104Y32545D01*
X55100Y32537D01*
X55096Y32526D01*
Y32507D01*
X55100Y32495D01*
X55104Y32487D01*
X55111Y32480D01*
X55119Y32476D01*
X55134D01*
X55142Y32480D01*
X55149Y32487D01*
X55153Y32495D01*
X55176Y32556D02*
Y32499D01*
X55180Y32487D01*
X55187Y32480D01*
X55199Y32476D01*
X55206D01*
X55218Y32480D01*
X55225Y32487D01*
X55229Y32499D01*
Y32556D01*
X55251D02*
Y32476D01*
Y32556D02*
X55282Y32476D01*
X55312Y32556D02*
X55282Y32476D01*
X55312Y32556D02*
Y32476D01*
X55335Y32556D02*
Y32476D01*
Y32556D02*
X55369D01*
X55381Y32552D01*
X55384Y32548D01*
X55388Y32541D01*
Y32533D01*
X55384Y32526D01*
X55381Y32522D01*
X55369Y32518D01*
X55335D02*
X55369D01*
X55381Y32514D01*
X55384Y32510D01*
X55388Y32503D01*
Y32491D01*
X55384Y32484D01*
X55381Y32480D01*
X55369Y32476D01*
X55335D01*
X55406Y32556D02*
Y32476D01*
Y32556D02*
X55440D01*
X55452Y32552D01*
X55456Y32548D01*
X55460Y32541D01*
Y32533D01*
X55456Y32526D01*
X55452Y32522D01*
X55440Y32518D01*
X55406D01*
X55433D02*
X55460Y32476D01*
X55527Y32556D02*
X55477D01*
Y32476D01*
X55527D01*
X55477Y32518D02*
X55508D01*
X55594Y32545D02*
X55586Y32552D01*
X55575Y32556D01*
X55559D01*
X55548Y32552D01*
X55540Y32545D01*
Y32537D01*
X55544Y32529D01*
X55548Y32526D01*
X55555Y32522D01*
X55578Y32514D01*
X55586Y32510D01*
X55590Y32507D01*
X55594Y32499D01*
Y32487D01*
X55586Y32480D01*
X55575Y32476D01*
X55559D01*
X55548Y32480D01*
X55540Y32487D01*
X55697Y32556D02*
X55690Y32552D01*
X55682Y32545D01*
X55678Y32537D01*
X55674Y32526D01*
Y32507D01*
X55678Y32495D01*
X55682Y32487D01*
X55690Y32480D01*
X55697Y32476D01*
X55712D01*
X55720Y32480D01*
X55728Y32487D01*
X55731Y32495D01*
X55735Y32507D01*
Y32526D01*
X55731Y32537D01*
X55728Y32545D01*
X55720Y32552D01*
X55712Y32556D01*
X55697D01*
X55754D02*
Y32476D01*
Y32556D02*
X55788D01*
X55800Y32552D01*
X55803Y32548D01*
X55807Y32541D01*
Y32533D01*
X55803Y32526D01*
X55800Y32522D01*
X55788Y32518D01*
X55754D02*
X55788D01*
X55800Y32514D01*
X55803Y32510D01*
X55807Y32503D01*
Y32491D01*
X55803Y32484D01*
X55800Y32480D01*
X55788Y32476D01*
X55754D01*
X55878Y32545D02*
X55871Y32552D01*
X55859Y32556D01*
X55844D01*
X55833Y32552D01*
X55825Y32545D01*
Y32537D01*
X55829Y32529D01*
X55833Y32526D01*
X55840Y32522D01*
X55863Y32514D01*
X55871Y32510D01*
X55875Y32507D01*
X55878Y32499D01*
Y32487D01*
X55871Y32480D01*
X55859Y32476D01*
X55844D01*
X55833Y32480D01*
X55825Y32487D01*
X55946Y32556D02*
X55896D01*
Y32476D01*
X55946D01*
X55896Y32518D02*
X55927D01*
X55959Y32556D02*
Y32476D01*
Y32556D02*
X55993D01*
X56005Y32552D01*
X56009Y32548D01*
X56013Y32541D01*
Y32533D01*
X56009Y32526D01*
X56005Y32522D01*
X55993Y32518D01*
X55959D01*
X55986D02*
X56013Y32476D01*
X56030Y32556D02*
X56061Y32476D01*
X56091Y32556D02*
X56061Y32476D01*
X56163D02*
X56132Y32556D01*
X56102Y32476D01*
X56113Y32503D02*
X56151D01*
X56208Y32556D02*
Y32476D01*
X56181Y32556D02*
X56235D01*
X56267D02*
X56259Y32552D01*
X56252Y32545D01*
X56248Y32537D01*
X56244Y32526D01*
Y32507D01*
X56248Y32495D01*
X56252Y32487D01*
X56259Y32480D01*
X56267Y32476D01*
X56282D01*
X56290Y32480D01*
X56297Y32487D01*
X56301Y32495D01*
X56305Y32507D01*
Y32526D01*
X56301Y32537D01*
X56297Y32545D01*
X56290Y32552D01*
X56282Y32556D01*
X56267D01*
X56324D02*
Y32476D01*
Y32556D02*
X56358D01*
X56369Y32552D01*
X56373Y32548D01*
X56377Y32541D01*
Y32533D01*
X56373Y32526D01*
X56369Y32522D01*
X56358Y32518D01*
X56324D01*
X56350D02*
X56377Y32476D01*
X56395Y32556D02*
X56425Y32518D01*
Y32476D01*
X56456Y32556D02*
X56425Y32518D01*
X56780Y32541D02*
X56788Y32545D01*
X56799Y32556D01*
Y32476D01*
X56862Y32556D02*
X56850Y32552D01*
X56843Y32541D01*
X56839Y32522D01*
Y32510D01*
X56843Y32491D01*
X56850Y32480D01*
X56862Y32476D01*
X56869D01*
X56881Y32480D01*
X56889Y32491D01*
X56892Y32510D01*
Y32522D01*
X56889Y32541D01*
X56881Y32552D01*
X56869Y32556D01*
X56862D01*
X56910Y32465D02*
X56964Y32556D01*
X56969Y32541D02*
X56977Y32545D01*
X56988Y32556D01*
Y32476D01*
X57081Y32556D02*
X57043Y32476D01*
X57028Y32556D02*
X57081D01*
X57099Y32465D02*
X57152Y32556D01*
X57161Y32537D02*
Y32541D01*
X57165Y32548D01*
X57169Y32552D01*
X57176Y32556D01*
X57192D01*
X57199Y32552D01*
X57203Y32548D01*
X57207Y32541D01*
Y32533D01*
X57203Y32526D01*
X57196Y32514D01*
X57157Y32476D01*
X57211D01*
X57252Y32556D02*
X57240Y32552D01*
X57232Y32541D01*
X57229Y32522D01*
Y32510D01*
X57232Y32491D01*
X57240Y32480D01*
X57252Y32476D01*
X57259D01*
X57271Y32480D01*
X57278Y32491D01*
X57282Y32510D01*
Y32522D01*
X57278Y32541D01*
X57271Y32552D01*
X57259Y32556D01*
X57252D01*
X57300Y32541D02*
X57307Y32545D01*
X57319Y32556D01*
Y32476D01*
X57362Y32537D02*
Y32541D01*
X57366Y32548D01*
X57370Y32552D01*
X57378Y32556D01*
X57393D01*
X57400Y32552D01*
X57404Y32548D01*
X57408Y32541D01*
Y32533D01*
X57404Y32526D01*
X57397Y32514D01*
X57359Y32476D01*
X57412D01*
D37*
X54828Y32691D02*
X54836Y32695D01*
X54847Y32706D01*
Y32626D01*
X54940Y32706D02*
X54902Y32626D01*
X54887Y32706D02*
X54940D01*
X55004D02*
X54966D01*
X54962Y32672D01*
X54966Y32676D01*
X54977Y32679D01*
X54988D01*
X55000Y32676D01*
X55007Y32668D01*
X55011Y32657D01*
Y32649D01*
X55007Y32638D01*
X55000Y32630D01*
X54988Y32626D01*
X54977D01*
X54966Y32630D01*
X54962Y32634D01*
X54958Y32641D01*
X55029Y32660D02*
X55098D01*
X55144Y32706D02*
X55133Y32702D01*
X55125Y32691D01*
X55121Y32672D01*
Y32660D01*
X55125Y32641D01*
X55133Y32630D01*
X55144Y32626D01*
X55152D01*
X55163Y32630D01*
X55171Y32641D01*
X55175Y32660D01*
Y32672D01*
X55171Y32691D01*
X55163Y32702D01*
X55152Y32706D01*
X55144D01*
X55215D02*
X55204Y32702D01*
X55196Y32691D01*
X55193Y32672D01*
Y32660D01*
X55196Y32641D01*
X55204Y32630D01*
X55215Y32626D01*
X55223D01*
X55234Y32630D01*
X55242Y32641D01*
X55246Y32660D01*
Y32672D01*
X55242Y32691D01*
X55234Y32702D01*
X55223Y32706D01*
X55215D01*
X55287D02*
X55275Y32702D01*
X55268Y32691D01*
X55264Y32672D01*
Y32660D01*
X55268Y32641D01*
X55275Y32630D01*
X55287Y32626D01*
X55294D01*
X55306Y32630D01*
X55313Y32641D01*
X55317Y32660D01*
Y32672D01*
X55313Y32691D01*
X55306Y32702D01*
X55294Y32706D01*
X55287D01*
X55381D02*
X55343D01*
X55339Y32672D01*
X55343Y32676D01*
X55354Y32679D01*
X55365D01*
X55377Y32676D01*
X55384Y32668D01*
X55388Y32657D01*
Y32649D01*
X55384Y32638D01*
X55377Y32630D01*
X55365Y32626D01*
X55354D01*
X55343Y32630D01*
X55339Y32634D01*
X55335Y32641D01*
X55414Y32706D02*
X55456D01*
X55433Y32676D01*
X55444D01*
X55452Y32672D01*
X55456Y32668D01*
X55460Y32657D01*
Y32649D01*
X55456Y32638D01*
X55448Y32630D01*
X55437Y32626D01*
X55425D01*
X55414Y32630D01*
X55410Y32634D01*
X55406Y32641D01*
X55603Y32706D02*
Y32626D01*
Y32706D02*
X55637D01*
X55649Y32702D01*
X55653Y32698D01*
X55656Y32691D01*
Y32683D01*
X55653Y32676D01*
X55649Y32672D01*
X55637Y32668D01*
X55603D01*
X55630D02*
X55656Y32626D01*
X55724Y32706D02*
X55674D01*
Y32626D01*
X55724D01*
X55674Y32668D02*
X55705D01*
X55737Y32706D02*
X55768Y32626D01*
X55798Y32706D02*
X55768Y32626D01*
X55871Y32691D02*
X55879Y32695D01*
X55890Y32706D01*
Y32626D01*
X55938Y32630D02*
X55934Y32626D01*
X55930Y32630D01*
X55934Y32634D01*
X55938Y32630D01*
Y32622D01*
X55934Y32615D01*
X55930Y32611D01*
X56071Y32695D02*
X56064Y32702D01*
X56052Y32706D01*
X56037D01*
X56025Y32702D01*
X56018Y32695D01*
Y32687D01*
X56022Y32679D01*
X56025Y32676D01*
X56033Y32672D01*
X56056Y32664D01*
X56064Y32660D01*
X56067Y32657D01*
X56071Y32649D01*
Y32638D01*
X56064Y32630D01*
X56052Y32626D01*
X56037D01*
X56025Y32630D01*
X56018Y32638D01*
X56089Y32706D02*
Y32626D01*
X56106Y32706D02*
Y32626D01*
Y32706D02*
X56159Y32626D01*
Y32706D02*
Y32626D01*
X56181Y32706D02*
Y32626D01*
X56251Y32695D02*
X56244Y32702D01*
X56232Y32706D01*
X56217D01*
X56206Y32702D01*
X56198Y32695D01*
Y32687D01*
X56202Y32679D01*
X56206Y32676D01*
X56213Y32672D01*
X56236Y32664D01*
X56244Y32660D01*
X56248Y32657D01*
X56251Y32649D01*
Y32638D01*
X56244Y32630D01*
X56232Y32626D01*
X56217D01*
X56206Y32630D01*
X56198Y32638D01*
X56296Y32706D02*
Y32626D01*
X56269Y32706D02*
X56323D01*
X56332D02*
Y32626D01*
Y32706D02*
X56366D01*
X56378Y32702D01*
X56382Y32698D01*
X56385Y32691D01*
Y32683D01*
X56382Y32676D01*
X56378Y32672D01*
X56366Y32668D01*
X56332D01*
X56359D02*
X56385Y32626D01*
X56426Y32706D02*
X56419Y32702D01*
X56411Y32695D01*
X56407Y32687D01*
X56403Y32676D01*
Y32657D01*
X56407Y32645D01*
X56411Y32638D01*
X56419Y32630D01*
X56426Y32626D01*
X56441D01*
X56449Y32630D01*
X56457Y32638D01*
X56460Y32645D01*
X56464Y32657D01*
Y32676D01*
X56460Y32687D01*
X56457Y32695D01*
X56449Y32702D01*
X56441Y32706D01*
X56426D01*
X56572D02*
Y32626D01*
X56546Y32706D02*
X56599D01*
X56658D02*
X56609D01*
Y32626D01*
X56658D01*
X56609Y32668D02*
X56639D01*
X56671Y32706D02*
Y32626D01*
Y32706D02*
X56702Y32626D01*
X56732Y32706D02*
X56702Y32626D01*
X56732Y32706D02*
Y32626D01*
X56755Y32664D02*
X56790D01*
X56801Y32668D01*
X56805Y32672D01*
X56809Y32679D01*
Y32691D01*
X56805Y32698D01*
X56801Y32702D01*
X56790Y32706D01*
X56755D01*
Y32626D01*
X56826Y32615D02*
X56880Y32706D01*
X56912D02*
Y32626D01*
X56885Y32706D02*
X56938D01*
X56997D02*
X56948D01*
Y32626D01*
X56997D01*
X56948Y32668D02*
X56978D01*
X57015Y32634D02*
X57011Y32630D01*
X57015Y32626D01*
X57018Y32630D01*
X57015Y32634D01*
X57085Y32706D02*
X57036D01*
Y32626D01*
X57085D01*
X57036Y32668D02*
X57066D01*
X57099Y32706D02*
Y32626D01*
Y32706D02*
X57129Y32626D01*
X57160Y32706D02*
X57129Y32626D01*
X57160Y32706D02*
Y32626D01*
X57232Y32706D02*
X57183D01*
Y32626D01*
X57232D01*
X57183Y32668D02*
X57213D01*
X57272Y32706D02*
Y32626D01*
X57245Y32706D02*
X57299D01*
X57308D02*
Y32626D01*
Y32706D02*
X57343D01*
X57354Y32702D01*
X57358Y32698D01*
X57362Y32691D01*
Y32683D01*
X57358Y32676D01*
X57354Y32672D01*
X57343Y32668D01*
X57308D01*
X57335D02*
X57362Y32626D01*
X57379Y32706D02*
X57410Y32668D01*
Y32626D01*
X57440Y32706D02*
X57410Y32668D01*
X57514Y32706D02*
Y32626D01*
Y32706D02*
X57548D01*
X57559Y32702D01*
X57563Y32698D01*
X57567Y32691D01*
Y32683D01*
X57563Y32676D01*
X57559Y32672D01*
X57548Y32668D01*
X57514D02*
X57548D01*
X57559Y32664D01*
X57563Y32660D01*
X57567Y32653D01*
Y32641D01*
X57563Y32634D01*
X57559Y32630D01*
X57548Y32626D01*
X57514D01*
X57608Y32706D02*
X57600Y32702D01*
X57592Y32695D01*
X57589Y32687D01*
X57585Y32676D01*
Y32657D01*
X57589Y32645D01*
X57592Y32638D01*
X57600Y32630D01*
X57608Y32626D01*
X57623D01*
X57630Y32630D01*
X57638Y32638D01*
X57642Y32645D01*
X57646Y32657D01*
Y32676D01*
X57642Y32687D01*
X57638Y32695D01*
X57630Y32702D01*
X57623Y32706D01*
X57608D01*
X57725Y32626D02*
X57695Y32706D01*
X57664Y32626D01*
X57676Y32653D02*
X57714D01*
X57744Y32706D02*
Y32626D01*
Y32706D02*
X57778D01*
X57790Y32702D01*
X57793Y32698D01*
X57797Y32691D01*
Y32683D01*
X57793Y32676D01*
X57790Y32672D01*
X57778Y32668D01*
X57744D01*
X57771D02*
X57797Y32626D01*
X57815Y32706D02*
Y32626D01*
Y32706D02*
X57842D01*
X57853Y32702D01*
X57861Y32695D01*
X57865Y32687D01*
X57869Y32676D01*
Y32657D01*
X57865Y32645D01*
X57861Y32638D01*
X57853Y32630D01*
X57842Y32626D01*
X57815D01*
D54*
X57066Y34055D02*
D03*
X56986D02*
D03*
X56986Y33955D02*
D03*
X57066D02*
D03*
X54176D02*
D03*
Y34055D02*
D03*
X54256D02*
D03*
Y33955D02*
D03*
D72*
X54043Y34685D02*
D03*
X56557D02*
D03*
D92*
X55718Y37193D02*
D03*
Y37283D02*
D03*
X55815Y37187D02*
D03*
Y37277D02*
D03*
X55507Y37191D02*
D03*
Y37281D02*
D03*
X55594Y37191D02*
D03*
Y37281D02*
D03*
X54801Y37108D02*
D03*
Y37198D02*
D03*
X55128Y37109D02*
D03*
Y37199D02*
D03*
X53564Y34979D02*
D03*
Y34889D02*
D03*
X56078Y34979D02*
D03*
Y34889D02*
D03*
X54691Y36274D02*
D03*
Y36184D02*
D03*
X54572Y36272D02*
D03*
Y36182D02*
D03*
X54929Y37106D02*
D03*
Y37196D02*
D03*
X54866Y37197D02*
D03*
Y37107D02*
D03*
X54998Y37108D02*
D03*
Y37198D02*
D03*
X55064Y37199D02*
D03*
Y37109D02*
D03*
X54272Y35103D02*
D03*
Y35013D02*
D03*
X56786Y35103D02*
D03*
Y35013D02*
D03*
D93*
X55959Y37032D02*
D03*
Y37063D02*
D03*
Y37095D02*
D03*
Y37126D02*
D03*
X55882D02*
D03*
Y37095D02*
D03*
Y37063D02*
D03*
Y37032D02*
D03*
D94*
X57993Y35203D02*
D03*
X57903D02*
D03*
X56312Y36874D02*
D03*
X56222D02*
D03*
X56011Y36696D02*
D03*
X55921D02*
D03*
X53752Y35389D02*
D03*
X53842D02*
D03*
X56266Y35385D02*
D03*
X56356D02*
D03*
X53990Y34932D02*
D03*
X54080D02*
D03*
X56504D02*
D03*
X56594D02*
D03*
X53494Y35034D02*
D03*
X53404D02*
D03*
X56008D02*
D03*
X55918D02*
D03*
X53494Y34841D02*
D03*
X53404D02*
D03*
X56008D02*
D03*
X55918D02*
D03*
X53990Y34802D02*
D03*
X54080D02*
D03*
X56504D02*
D03*
X56594D02*
D03*
X55727Y36920D02*
D03*
X55817D02*
D03*
X55816Y36854D02*
D03*
X55726D02*
D03*
X56223Y36798D02*
D03*
X56313D02*
D03*
X53990Y34867D02*
D03*
X54080D02*
D03*
X56504D02*
D03*
X56594D02*
D03*
X53494Y34971D02*
D03*
X53404D02*
D03*
X56008D02*
D03*
X55918D02*
D03*
X53750Y35259D02*
D03*
X53840D02*
D03*
X56264Y35256D02*
D03*
X56354D02*
D03*
X53841Y35325D02*
D03*
X53751D02*
D03*
X56355Y35322D02*
D03*
X56265D02*
D03*
X53494Y34905D02*
D03*
X53404D02*
D03*
X56008D02*
D03*
X55918D02*
D03*
X53839Y35193D02*
D03*
X53749D02*
D03*
X56354Y35191D02*
D03*
X56264D02*
D03*
X57904Y35115D02*
D03*
X57994D02*
D03*
D95*
X56908Y34287D02*
D03*
Y34177D02*
D03*
X57068Y34172D02*
D03*
Y34282D02*
D03*
X57213Y34282D02*
D03*
Y34172D02*
D03*
D96*
X54153Y34352D02*
D03*
X54263D02*
D03*
D97*
X54278Y34192D02*
D03*
X54048D02*
D03*
D98*
X54502Y35259D02*
D03*
X57016D02*
D03*
D99*
X54272Y35170D02*
D03*
Y35349D02*
D03*
X56786Y35170D02*
D03*
Y35349D02*
D03*
D100*
X54348Y35090D02*
D03*
X54440Y35053D02*
D03*
X56862Y35090D02*
D03*
X56954Y35053D02*
D03*
D101*
X54348Y35015D02*
D03*
X56862D02*
D03*
D102*
X56148Y34387D02*
D03*
X56062Y34350D02*
D03*
X56148Y34313D02*
D03*
X56319Y34388D02*
D03*
X56233Y34351D02*
D03*
X56319Y34314D02*
D03*
D103*
X54705Y37196D02*
D03*
X55223Y37200D02*
D03*
X54166Y35073D02*
D03*
X56680D02*
D03*
X53640Y37372D02*
D03*
X58256Y34115D02*
D03*
X53298Y35628D02*
D03*
X58106Y37144D02*
D03*
X57162Y34570D02*
D03*
X57369Y34025D02*
D03*
X53727Y34306D02*
D03*
X57271Y35070D02*
D03*
X57372Y34694D02*
D03*
X54506Y34352D02*
D03*
X56123Y37215D02*
D03*
X56383D02*
D03*
X56638D02*
D03*
X57038Y37029D02*
D03*
X55750Y36123D02*
D03*
X56452Y36085D02*
D03*
D104*
X53797Y35109D02*
D03*
X56311D02*
D03*
X57320Y36493D02*
D03*
X57328Y36675D02*
D03*
X55403Y36536D02*
D03*
X55434Y36296D02*
D03*
X54213Y34739D02*
D03*
X56727D02*
D03*
X53427Y34748D02*
D03*
X55941D02*
D03*
X53427Y34645D02*
D03*
X55941D02*
D03*
X54208Y34615D02*
D03*
X56722D02*
D03*
D105*
X55921Y36905D02*
D03*
Y36855D02*
D03*
Y36805D02*
D03*
Y36755D02*
D03*
X56113Y36905D02*
D03*
Y36855D02*
D03*
Y36805D02*
D03*
Y36755D02*
D03*
X53943Y35341D02*
D03*
Y35291D02*
D03*
Y35241D02*
D03*
Y35191D02*
D03*
X54135Y35341D02*
D03*
Y35291D02*
D03*
Y35241D02*
D03*
Y35191D02*
D03*
X56457Y35341D02*
D03*
Y35291D02*
D03*
Y35241D02*
D03*
Y35191D02*
D03*
X56649Y35341D02*
D03*
Y35291D02*
D03*
Y35241D02*
D03*
Y35191D02*
D03*
D106*
X53882Y34667D02*
D03*
Y34693D02*
D03*
Y34719D02*
D03*
Y34744D02*
D03*
Y34770D02*
D03*
Y34795D02*
D03*
Y34821D02*
D03*
X53664Y34667D02*
D03*
Y34693D02*
D03*
Y34719D02*
D03*
Y34744D02*
D03*
Y34770D02*
D03*
Y34795D02*
D03*
Y34821D02*
D03*
Y34844D02*
D03*
X53882D02*
D03*
X53664Y34872D02*
D03*
X53882D02*
D03*
X53664Y34898D02*
D03*
X53882D02*
D03*
X56396Y34667D02*
D03*
Y34693D02*
D03*
Y34719D02*
D03*
Y34744D02*
D03*
Y34770D02*
D03*
Y34795D02*
D03*
Y34821D02*
D03*
X56178Y34667D02*
D03*
Y34693D02*
D03*
Y34719D02*
D03*
Y34744D02*
D03*
Y34770D02*
D03*
Y34795D02*
D03*
Y34821D02*
D03*
Y34844D02*
D03*
X56396D02*
D03*
X56178Y34872D02*
D03*
X56396D02*
D03*
X56178Y34898D02*
D03*
X56396D02*
D03*
D107*
X57065Y33671D02*
D03*
X56986D02*
D03*
X54255Y33671D02*
D03*
X54176D02*
D03*
D108*
X54468Y33680D02*
D03*
X54493D02*
D03*
X54518D02*
D03*
X54543D02*
D03*
X54568D02*
D03*
X54593D02*
D03*
X54618D02*
D03*
X54643D02*
D03*
X54668D02*
D03*
X54693D02*
D03*
X54718D02*
D03*
X54743D02*
D03*
X54768D02*
D03*
X54793D02*
D03*
X54818D02*
D03*
X54843D02*
D03*
X54868D02*
D03*
X54893D02*
D03*
X54918D02*
D03*
X54943D02*
D03*
X54968D02*
D03*
X54993D02*
D03*
X55018D02*
D03*
X55043D02*
D03*
X55068D02*
D03*
X55093D02*
D03*
X55308D02*
D03*
X55333D02*
D03*
X55358D02*
D03*
X55383D02*
D03*
X55408D02*
D03*
X55433D02*
D03*
X55458D02*
D03*
X55483D02*
D03*
X55508D02*
D03*
X55533D02*
D03*
X55558D02*
D03*
X55583D02*
D03*
X55608D02*
D03*
X55633D02*
D03*
X55658D02*
D03*
X55683D02*
D03*
X55708D02*
D03*
X55733D02*
D03*
X55758D02*
D03*
X55783D02*
D03*
X55808D02*
D03*
X55833D02*
D03*
X55858D02*
D03*
X55883D02*
D03*
X55908D02*
D03*
X55933D02*
D03*
X56148Y33681D02*
D03*
X56173D02*
D03*
X56198D02*
D03*
X56223D02*
D03*
X56248D02*
D03*
X56273D02*
D03*
X56298D02*
D03*
X56323D02*
D03*
X56348D02*
D03*
X56373D02*
D03*
X56398D02*
D03*
X56423D02*
D03*
X56448D02*
D03*
X56473D02*
D03*
X56498D02*
D03*
X56523D02*
D03*
X56548D02*
D03*
X56573D02*
D03*
X56598D02*
D03*
X56623D02*
D03*
X56648D02*
D03*
X56673D02*
D03*
X56698D02*
D03*
X56723D02*
D03*
X56748D02*
D03*
X56773D02*
D03*
D109*
X54430Y33653D02*
D03*
X55170D02*
D03*
X55270D02*
D03*
X56010D02*
D03*
X56850D02*
D03*
X56110D02*
D03*
D110*
X58100Y35922D02*
D03*
Y35692D02*
D03*
X57901Y35920D02*
D03*
Y35690D02*
D03*
D111*
X53117Y36766D02*
D03*
Y37386D02*
D03*
X58249Y35530D02*
D03*
X57729D02*
D03*
D112*
X52864Y36827D02*
D03*
X52804Y36927D02*
D03*
X52864Y37225D02*
D03*
X52804Y37325D02*
D03*
D113*
X52997Y36851D02*
D03*
Y37301D02*
D03*
D114*
X53247Y37151D02*
D03*
D115*
Y37051D02*
D03*
X53347Y37101D02*
D03*
Y37001D02*
D03*
X53247Y36951D02*
D03*
X53347Y37201D02*
D03*
Y36901D02*
D03*
D116*
X53247Y37251D02*
D03*
D117*
X53105Y36077D02*
D03*
Y36552D02*
D03*
D118*
X53212Y36265D02*
D03*
Y36364D02*
D03*
X53310D02*
D03*
Y36265D02*
D03*
D119*
X57001Y36498D02*
D03*
X52904Y35581D02*
D03*
D120*
X57001Y36598D02*
D03*
X52904Y35681D02*
D03*
D121*
X54581Y35338D02*
D03*
Y35279D02*
D03*
Y35220D02*
D03*
Y35161D02*
D03*
X54522Y35181D02*
D03*
Y35240D02*
D03*
Y35299D02*
D03*
Y35358D02*
D03*
X54463Y35338D02*
D03*
Y35279D02*
D03*
Y35220D02*
D03*
Y35161D02*
D03*
X54404Y35181D02*
D03*
Y35240D02*
D03*
Y35299D02*
D03*
Y35358D02*
D03*
X57095Y35338D02*
D03*
Y35279D02*
D03*
Y35220D02*
D03*
Y35161D02*
D03*
X57036Y35181D02*
D03*
Y35240D02*
D03*
Y35299D02*
D03*
Y35358D02*
D03*
X56977Y35338D02*
D03*
Y35279D02*
D03*
Y35220D02*
D03*
Y35161D02*
D03*
X56918Y35181D02*
D03*
Y35240D02*
D03*
Y35299D02*
D03*
Y35358D02*
D03*
X56975Y37023D02*
D03*
X56641Y37110D02*
D03*
X56387Y37107D02*
D03*
X55718Y37151D02*
D03*
X55722Y37063D02*
D03*
X55719Y37150D02*
D03*
X55594Y37094D02*
D03*
X55593Y37147D02*
D03*
X55507Y37151D02*
D03*
X55441Y37278D02*
D03*
X55881Y37282D02*
D03*
X55521Y36958D02*
D03*
Y37032D02*
D03*
X55481Y36872D02*
D03*
Y37064D02*
D03*
X55443Y37001D02*
D03*
X55440Y37095D02*
D03*
X55411Y36982D02*
D03*
Y37126D02*
D03*
X57405Y34484D02*
D03*
D122*
X54043Y34535D02*
D03*
X56557D02*
D03*
D123*
X57889Y35439D02*
D03*
X57989D02*
D03*
X58089D02*
D03*
D124*
X55221Y36814D02*
D03*
X53706D02*
D03*
X55221Y36024D02*
D03*
X53706D02*
D03*
D125*
X57031Y37329D02*
D03*
Y35636D02*
D03*
X53724D02*
D03*
D126*
X57579Y33611D02*
D03*
X58367D02*
D03*
D127*
X58092Y35115D02*
D03*
X57908Y36068D02*
D03*
X55068Y34551D02*
D03*
X56943Y34475D02*
D03*
X56945Y34878D02*
D03*
X54817Y34849D02*
D03*
D128*
X57299Y36849D02*
D03*
X57192Y36753D02*
D03*
X55182Y34807D02*
D03*
X57035Y34820D02*
D03*
X54048Y34077D02*
D03*
X54053Y34352D02*
D03*
X57213Y34377D02*
D03*
X57068D02*
D03*
X56908D02*
D03*
M02*
