%FSLAX23Y23*%
%MOIN*%
G70*
G01*
G75*
G04 Layer_Physical_Order=8*
G04 Layer_Color=16440176*
%ADD10O,0.061X0.010*%
%ADD11O,0.010X0.061*%
%ADD12R,0.035X0.037*%
%ADD13R,0.035X0.037*%
%ADD14R,0.085X0.043*%
%ADD15R,0.085X0.043*%
%ADD16R,0.085X0.138*%
%ADD17R,0.135X0.070*%
%ADD18R,0.036X0.036*%
%ADD19R,0.028X0.036*%
%ADD20R,0.036X0.036*%
%ADD21R,0.100X0.100*%
%ADD22R,0.048X0.078*%
%ADD23R,0.060X0.086*%
%ADD24O,0.024X0.087*%
%ADD25R,0.045X0.017*%
%ADD26R,0.030X0.100*%
%ADD27R,0.014X0.060*%
%ADD28R,0.031X0.060*%
%ADD29O,0.008X0.033*%
%ADD30O,0.033X0.008*%
%ADD31R,0.228X0.228*%
%ADD32O,0.098X0.028*%
%ADD33R,0.050X0.050*%
%ADD34R,0.050X0.050*%
%ADD35R,0.037X0.035*%
%ADD36R,0.037X0.035*%
%ADD37R,0.070X0.135*%
%ADD38R,0.138X0.085*%
%ADD39R,0.043X0.085*%
%ADD40R,0.043X0.085*%
%ADD41C,0.040*%
%ADD42C,0.005*%
%ADD43C,0.010*%
%ADD44C,0.020*%
%ADD45C,0.007*%
%ADD46C,0.012*%
%ADD47R,1.181X0.787*%
%ADD48C,0.008*%
%ADD49C,0.012*%
%ADD50C,0.012*%
%ADD51C,0.020*%
%ADD52C,0.026*%
%ADD53C,0.059*%
%ADD54R,0.059X0.059*%
%ADD55C,0.050*%
%ADD56C,0.236*%
%ADD57C,0.024*%
%ADD58C,0.040*%
%ADD59C,0.030*%
%ADD60C,0.033*%
%ADD61C,0.055*%
G04:AMPARAMS|DCode=62|XSize=70mil|YSize=70mil|CornerRadius=0mil|HoleSize=0mil|Usage=FLASHONLY|Rotation=0.000|XOffset=0mil|YOffset=0mil|HoleType=Round|Shape=Relief|Width=10mil|Gap=10mil|Entries=4|*
%AMTHD62*
7,0,0,0.070,0.050,0.010,45*
%
%ADD62THD62*%
G04:AMPARAMS|DCode=63|XSize=95.433mil|YSize=95.433mil|CornerRadius=0mil|HoleSize=0mil|Usage=FLASHONLY|Rotation=0.000|XOffset=0mil|YOffset=0mil|HoleType=Round|Shape=Relief|Width=10mil|Gap=10mil|Entries=4|*
%AMTHD63*
7,0,0,0.095,0.075,0.010,45*
%
%ADD63THD63*%
%ADD64C,0.045*%
D42*
X26193Y16909D02*
X26459D01*
X26146Y16862D02*
X26193Y16909D01*
X25013Y16440D02*
X25042Y16469D01*
X25013Y16408D02*
Y16440D01*
Y16408D02*
X25035Y16386D01*
X25719Y16396D02*
X25793Y16322D01*
X26161D01*
X25035Y16386D02*
X25692D01*
X25702Y16396D01*
X25719D01*
X26161Y16322D02*
X26173Y16335D01*
X26315D01*
X21751Y16405D02*
Y16547D01*
X21618Y16680D02*
X21751Y16547D01*
X23501Y19335D02*
X23692D01*
X23812Y19456D01*
X26323D02*
X26345Y19478D01*
X23812Y19456D02*
X26323D01*
X23698Y19584D02*
X23715D01*
X23747Y19615D01*
X26743D01*
X26818Y19521D02*
Y19540D01*
X26743Y19615D02*
X26818Y19540D01*
X23408Y16886D02*
X23468D01*
X23477Y16877D02*
X23620D01*
X23468Y16886D02*
X23477Y16877D01*
X25500Y16869D02*
Y16872D01*
X23620Y16877D02*
X23624Y16882D01*
X25487D02*
X25500Y16869D01*
X23624Y16882D02*
X25487D01*
X25500Y16869D02*
X25500Y16869D01*
X23659Y19607D02*
X23711D01*
X23728Y19624D01*
X26781D01*
X26839Y19487D02*
Y19566D01*
X26781Y19624D02*
X26839Y19566D01*
X22714Y19335D02*
X22760D01*
X25382Y16406D02*
X25388D01*
X24496D02*
X24502D01*
X23610D02*
X23616D01*
X22724D02*
X22730D01*
X25382Y16976D02*
X25388D01*
X24496D02*
X24502D01*
X23610Y16976D02*
X23616D01*
X22724Y16976D02*
X22730D01*
X21838D02*
X21844D01*
X25382Y17567D02*
X25388D01*
X24496D02*
X24502D01*
X23610D02*
X23616D01*
X22724D02*
X22730D01*
X21838D02*
X21844D01*
X22191Y16895D02*
X22207D01*
X21380D02*
X22191D01*
X26235Y18143D02*
X26240Y18148D01*
X26824D01*
X26215Y18171D02*
X26858D01*
X26887Y17615D02*
X26917D01*
X27084Y17782D01*
X26915Y17583D02*
X27115D01*
X27121Y17589D01*
X26900Y17540D02*
X26902Y17542D01*
X26910Y17550D01*
X27145D01*
X26930Y17524D02*
X26932Y17526D01*
X27169D01*
X26637Y17540D02*
X26900D01*
X26579Y17598D02*
X26637Y17540D01*
X26030Y17598D02*
X26579D01*
X26121Y17578D02*
X26161D01*
X26923Y17517D02*
X26930Y17524D01*
X26161Y17578D02*
X26223Y17517D01*
X26923D01*
X26356Y18555D02*
X26362Y18562D01*
X26022Y18555D02*
X26356D01*
X26018Y18559D02*
X26022Y18555D01*
X22724Y17436D02*
X25775D01*
X25905Y18734D02*
X25906D01*
X25787D02*
X25905D01*
X24496Y16314D02*
X25770D01*
X23608Y16338D02*
X25750D01*
X21892Y16358D02*
X25729D01*
X25730Y16359D01*
X25708Y16377D02*
X25709Y16378D01*
X25807Y16980D02*
X25812Y16975D01*
X25382Y16980D02*
X25807D01*
X24497Y16927D02*
X25839D01*
X25860Y16896D02*
X25861Y16895D01*
X23612Y16896D02*
X25860D01*
X25863Y16853D02*
X25880Y16870D01*
X22725Y16853D02*
X25863D01*
X21839Y16833D02*
X25897D01*
X25547Y18641D02*
X25844D01*
X22328Y18774D02*
X25768D01*
X22481Y18764D02*
X25771D01*
X24661Y18727D02*
X25768D01*
X24521Y18737D02*
X25771D01*
X23560Y18746D02*
X25775D01*
X23425Y18755D02*
X25928D01*
X25792Y18797D02*
X25974D01*
X25768Y18774D02*
X25792Y18797D01*
X25771Y18764D02*
X25783Y18776D01*
X25950D01*
X25803Y18692D02*
X25865D01*
X25768Y18727D02*
X25803Y18692D01*
X25771Y18737D02*
X25795Y18713D01*
X25886D01*
X25775Y18746D02*
X25787Y18734D01*
X25777Y18570D02*
X25818Y18528D01*
X25673Y18570D02*
X25777D01*
X25864Y19335D02*
X26194D01*
X25731Y19392D02*
X26293D01*
X25707Y19417D02*
X25731Y19392D01*
X25226Y19417D02*
X25707D01*
X25145Y19335D02*
X25226Y19417D01*
X25076Y19335D02*
X25145D01*
X24289D02*
X24751D01*
X25822Y19431D02*
X25852Y19401D01*
X25087Y19431D02*
X25822D01*
X25867Y19401D02*
X25876Y19411D01*
X25852Y19401D02*
X25867D01*
X24751Y19335D02*
X24854Y19438D01*
X25080D01*
X25087Y19431D01*
X25616Y18991D02*
X25692D01*
X25610Y18997D02*
X25616Y18991D01*
X24860Y18848D02*
X25594D01*
X24858Y18850D02*
X24860Y18848D01*
X24682Y18892D02*
X25607D01*
X24667Y18878D02*
X24682Y18892D01*
X24336Y18984D02*
X24667D01*
X24263Y18991D02*
X24288Y19016D01*
X24303D02*
X24336Y18984D01*
X24042Y18991D02*
X24263D01*
X24035Y18997D02*
X24042Y18991D01*
X24288Y19016D02*
X24303D01*
X23343Y18943D02*
X24857D01*
X24938Y19024D01*
X25609D01*
X22467Y18991D02*
X22543D01*
X22460Y18997D02*
X22467Y18991D01*
X23347Y19492D02*
X25883D01*
X23343Y19496D02*
X23347Y19492D01*
X25883D02*
X25884Y19493D01*
X22921Y19496D02*
X23343D01*
X22760Y19335D02*
X22921Y19496D01*
X22239Y19528D02*
X22241Y19531D01*
X21797Y19033D02*
X25606D01*
X21755Y18991D02*
X21797Y19033D01*
X21679Y18991D02*
X21755D01*
X21673Y18997D02*
X21679Y18991D01*
X25897Y19515D02*
X26260D01*
X25094Y19531D02*
X25107Y19517D01*
X22241Y19531D02*
X25094D01*
X25881Y19531D02*
X25897Y19515D01*
X25107Y19517D02*
X25289D01*
X25303Y19531D01*
X25881D01*
X22047Y19335D02*
X22239Y19528D01*
X21927Y19335D02*
X22047D01*
X25329Y19570D02*
X26092D01*
X25295Y19536D02*
X25329Y19570D01*
X25273Y19536D02*
X25295D01*
X25256Y19562D02*
X25273Y19579D01*
X25234Y19562D02*
X25256D01*
X24448Y19585D02*
X24467D01*
X22911Y19604D02*
X22948D01*
X22872Y19625D02*
X22912D01*
X22123Y19636D02*
X22166D01*
X21836Y17400D02*
X25791D01*
X25096Y15900D02*
X25600D01*
X25026Y15870D02*
X25030Y15873D01*
X23612Y17472D02*
X25750D01*
X24496Y17504D02*
X25727D01*
X22759Y16377D02*
X25708D01*
X22469Y18753D02*
X22481Y18764D01*
X23402Y18733D02*
X23425Y18755D01*
X22207Y16895D02*
Y16898D01*
X23079D01*
X23079Y16899D02*
X23095Y16914D01*
X23956D01*
X23987Y16945D02*
X24846D01*
X24861Y16961D01*
X25089Y16951D02*
X25505D01*
X25733Y16961D02*
X25736Y16958D01*
X21842Y19314D02*
X21858Y19330D01*
X21430Y19314D02*
X21842D01*
X21428Y19313D02*
X21430Y19314D01*
X21549Y16945D02*
X22431D01*
X22435Y16949D01*
Y16951D01*
X23319D02*
X23321Y16949D01*
X23676D01*
X23729Y17002D02*
X24207D01*
X25093D01*
X23676Y16949D02*
X23729Y17002D01*
X22435Y16951D02*
X23319D01*
X22647Y18041D02*
X25145D01*
X25256Y17930D01*
X22535Y18065D02*
X25492D01*
X25493Y18066D01*
X25494D01*
X23573Y16809D02*
X25215D01*
X23566Y16814D02*
Y16815D01*
X23566Y16816D01*
X23529Y18716D02*
X23560Y18746D01*
X24477Y18724D02*
X24521Y18737D01*
X24593Y18712D02*
X24661Y18727D01*
X25167Y18704D02*
X25682D01*
X25152Y18689D02*
X25167Y18704D01*
X24427Y18719D02*
X24470Y18675D01*
X25139D01*
X25152Y18689D01*
X24083Y18719D02*
X24427D01*
X24065Y18701D02*
X24083Y18719D01*
X25731Y18685D02*
X25754Y18708D01*
X25339Y18685D02*
X25731D01*
X25338Y18685D02*
X25339Y18685D01*
X25320Y18666D02*
X25338Y18685D01*
X24467Y18666D02*
X25320D01*
X24423Y18710D02*
X24467Y18666D01*
X24287Y18710D02*
X24423D01*
X24269Y18692D02*
X24287Y18710D01*
X24269Y18691D02*
Y18692D01*
Y18691D02*
X24271Y18689D01*
X26860Y19521D02*
Y19574D01*
X26902Y19521D02*
Y19592D01*
X26881Y19487D02*
Y19583D01*
X26797Y19487D02*
Y19548D01*
X26923Y19487D02*
Y19600D01*
X24486Y19573D02*
X24503D01*
X26260Y19515D02*
X26285Y19540D01*
X25884Y19493D02*
X26300D01*
X26315Y19508D01*
X25876Y19411D02*
X26337D01*
X26373Y19447D01*
X25607Y18892D02*
X25634Y18919D01*
X23247Y18997D02*
X23344Y18901D01*
X25032D01*
X25074Y18943D01*
X22083Y19651D02*
X22093Y19660D01*
X26864D01*
X26923Y19600D01*
X22166Y19636D02*
X22182Y19651D01*
X26843D01*
X26902Y19592D01*
X22912Y19625D02*
X22930Y19642D01*
X26822D01*
X26881Y19583D01*
X22948Y19604D02*
X22978Y19633D01*
X26802D01*
X26860Y19574D01*
X24467Y19585D02*
X24489Y19606D01*
X26739D01*
X26797Y19548D01*
X24503Y19573D02*
X24528Y19597D01*
X26700D01*
X26776Y19521D01*
X25273Y19579D02*
X26127D01*
X25609Y19024D02*
X25613Y19028D01*
X25692D01*
X22543Y18991D02*
X22576Y19024D01*
X23263D01*
X23343Y18943D01*
X26151Y19049D02*
Y19055D01*
X25606Y19033D02*
X25610Y19038D01*
X25692Y19028D02*
X25693Y19028D01*
X25692Y18991D02*
X25721Y19019D01*
X25610Y19038D02*
X26140D01*
X26151Y19049D01*
X25693Y19028D02*
X26181D01*
X25721Y19019D02*
X26163D01*
X26173Y19010D01*
X26562D02*
X26562Y19010D01*
X26173Y19010D02*
X26562D01*
X26293Y19392D02*
X26337Y19349D01*
X26194Y19335D02*
X26275Y19254D01*
X26204Y18943D02*
X26209Y18949D01*
X25074Y18943D02*
X26204D01*
X25634Y18919D02*
X26243D01*
X25594Y18848D02*
X25638Y18893D01*
X26539D01*
X26092Y19570D02*
X26102Y19560D01*
X22726Y16410D02*
X22759Y16377D01*
X21844Y16406D02*
X21892Y16358D01*
X21838Y16406D02*
X21844D01*
X25075Y15919D02*
X25159D01*
X25177Y15937D01*
X25671D01*
X25026Y15870D02*
X25075Y15919D01*
X25697Y15733D02*
Y15734D01*
X26428Y16295D02*
X26429Y16293D01*
X21826Y16295D02*
X26428D01*
X26329Y16205D02*
X26686D01*
X21456Y16275D02*
X22434D01*
X23655Y16224D02*
X23670D01*
X23612Y16206D02*
X23636D01*
X23655Y16224D01*
X23670D02*
X23688Y16206D01*
X23655Y16187D02*
X23670D01*
X23587Y16176D02*
X23599Y16187D01*
X23620D01*
X23627Y16194D01*
X23648D01*
X23655Y16187D01*
X23637Y16176D02*
X23640Y16178D01*
X23674D01*
X23662Y16206D02*
X23676D01*
X23685Y16197D01*
X23674Y16178D02*
X23674Y16179D01*
X23670Y16187D02*
X23670Y16188D01*
X23674Y16179D02*
X25948D01*
X23685Y16197D02*
X25930D01*
X26413Y16249D02*
X26693D01*
X26701Y16257D01*
X25702Y15817D02*
Y15906D01*
X25671Y15937D02*
X25702Y15906D01*
X25653Y15777D02*
X25697Y15733D01*
X25653Y15777D02*
Y15847D01*
X25600Y15900D02*
X25653Y15847D01*
X26815Y16409D02*
X26972D01*
X27085Y16523D01*
X27140D01*
X26545Y16557D02*
X26564Y16577D01*
X26975Y16598D02*
X27085D01*
X27086Y16597D01*
X26564Y16577D02*
X27130D01*
X27045Y16557D02*
X27045Y16558D01*
X26563Y16972D02*
X26727D01*
X26750Y16996D01*
X26430Y18841D02*
X26462Y18872D01*
X26839D01*
X26486Y18850D02*
X26816D01*
X26471Y18835D02*
X26486Y18850D01*
X26803Y18825D02*
X26807Y18829D01*
X26625Y18825D02*
X26803D01*
X26276Y18124D02*
X26641D01*
X21717Y17933D02*
X24366D01*
X23956Y16914D02*
X23987Y16945D01*
X25079Y16961D02*
X25089Y16951D01*
X24861Y16961D02*
X25079D01*
X25505Y16951D02*
X25515Y16961D01*
X25733D01*
X24434Y18737D02*
X24467Y18704D01*
X24881Y18693D02*
X24896Y18708D01*
X24586Y18693D02*
X24881D01*
X24467Y18704D02*
X24575D01*
X24586Y18693D01*
X23612Y18737D02*
X24434D01*
X23573Y18697D02*
X23612Y18737D01*
X23522Y18697D02*
X23573D01*
X23521Y18698D02*
X23522Y18697D01*
X23007Y18698D02*
X23521D01*
X21939D02*
X23007D01*
X21937Y18696D02*
X21939Y18698D01*
X24988Y18684D02*
X25008Y18705D01*
X24431Y18728D02*
X24474Y18684D01*
X23616Y18728D02*
X24431D01*
X23576Y18688D02*
X23616Y18728D01*
X23207Y18688D02*
X23576D01*
X24474Y18684D02*
X24988D01*
X23193Y18675D02*
X23207Y18688D01*
X23193Y18674D02*
Y18675D01*
X23190Y18672D02*
X23193Y18675D01*
X22117Y18672D02*
X23190D01*
X25215Y16809D02*
X25256Y16768D01*
X23566Y16816D02*
X23573Y16809D01*
X26342Y19259D02*
X26343Y19258D01*
X26750Y16996D02*
X26998D01*
X26998Y16997D01*
X26029Y16168D02*
X26763D01*
X26804Y16208D01*
X25948Y16179D02*
X25980Y16147D01*
X26321Y16275D02*
X26329Y16282D01*
X22434Y16275D02*
X22435Y16275D01*
X22450D01*
X22450Y16275D01*
X26321D01*
X26101Y16249D02*
X26413D01*
X26701Y16257D02*
X27182D01*
X23688Y16206D02*
X25887D01*
X25914Y16233D01*
X26146Y16474D02*
X26553D01*
X26564Y16463D01*
X25946Y16213D02*
Y16222D01*
X25930Y16197D02*
X25946Y16213D01*
X26457Y16720D02*
X26465Y16712D01*
X26167Y16683D02*
X26205Y16720D01*
X26457D01*
X26465Y16712D02*
X26988D01*
X25986Y16188D02*
X26003Y16205D01*
X23670Y16188D02*
X25986D01*
X26051Y16655D02*
X26091Y16615D01*
X25950Y16655D02*
X26051D01*
D43*
X23996Y18165D02*
X24826D01*
X23122Y16155D02*
X23997D01*
X23106Y18165D02*
X23756D01*
X25295Y16405D02*
Y16548D01*
Y16403D02*
Y16405D01*
X25301D01*
X25051D02*
X25295D01*
X25162Y16681D02*
X25295Y16548D01*
X23198Y16063D02*
X24411D01*
X24278Y16678D02*
X24409Y16547D01*
Y16405D02*
Y16547D01*
X23523Y16405D02*
Y16557D01*
X23397Y16683D02*
X23523Y16557D01*
X23390Y16683D02*
X23397D01*
X22503Y16676D02*
X22504Y16677D01*
X22503Y16653D02*
Y16676D01*
X22495Y16546D02*
Y16645D01*
Y16546D02*
X22637Y16405D01*
X22495Y16645D02*
X22503Y16653D01*
X21461Y16980D02*
X21751D01*
X23241D02*
X23526D01*
X24141D02*
X24411D01*
X24981D02*
X25296D01*
X24911Y17570D02*
X25296D01*
X23246Y16026D02*
X24906D01*
X24066Y17575D02*
X24411D01*
X23148Y16127D02*
X24066D01*
X23390Y17840D02*
X23391D01*
X23523Y17708D01*
Y17566D02*
Y17708D01*
X22505Y17847D02*
X22637Y17715D01*
Y17566D02*
Y17715D01*
X21406Y17570D02*
X21751D01*
Y17715D01*
Y17566D02*
Y17570D01*
X21620Y17846D02*
X21751Y17715D01*
X23272Y15986D02*
X24979D01*
X24409Y16403D02*
Y16405D01*
X23523Y16403D02*
Y16405D01*
X22637Y16403D02*
Y16405D01*
X25295Y16973D02*
Y16975D01*
X24409Y16973D02*
Y16975D01*
X23523Y16973D02*
Y16975D01*
X22637Y16973D02*
Y16975D01*
X21751Y16973D02*
Y16975D01*
X25295Y17564D02*
Y17566D01*
X24409Y17564D02*
Y17566D01*
X23523Y17564D02*
Y17566D01*
X22637Y17564D02*
Y17566D01*
X21751Y17564D02*
Y17566D01*
Y16403D02*
X21809Y16345D01*
X21751Y16403D02*
Y16405D01*
X22176Y16345D02*
X22186Y16335D01*
X21809Y16345D02*
X22176D01*
X22076Y16244D02*
X22087Y16255D01*
X21418Y16244D02*
X22076D01*
X21406Y16256D02*
X21418Y16244D01*
X22762Y15993D02*
X22773Y16005D01*
X22111Y15993D02*
X22762D01*
X22087Y15970D02*
X22111Y15993D01*
X22186Y16070D02*
X22821D01*
X23171Y17570D02*
X23521D01*
X22346Y16985D02*
X22636D01*
X22281Y17565D02*
X22636D01*
X21351Y18170D02*
X21606D01*
X23173Y16094D02*
X24140D01*
X22284Y16129D02*
X22896D01*
X23022Y16247D02*
X23024Y16249D01*
X23146Y16126D02*
X23148Y16128D01*
X23168Y16247D02*
X23170Y16249D01*
X23022Y16247D02*
X23168D01*
X23048Y16217D02*
X23240D01*
X23047Y16216D02*
X23048Y16217D01*
X23074Y16185D02*
X23526D01*
X23072Y16183D02*
X23074Y16185D01*
X23296Y15944D02*
X23300Y15948D01*
X23296Y15944D02*
X25041D01*
X22346Y16160D02*
X22921D01*
X22636Y16192D02*
X22946D01*
X21738Y19018D02*
X21747Y19009D01*
X21380Y19018D02*
X21738D01*
X21351Y16212D02*
X22054D01*
X21469Y16317D02*
X22126D01*
X22056Y15938D02*
X22059Y15941D01*
X22120D01*
X22141Y15962D01*
X22748D01*
X22166Y16036D02*
X22179Y16049D01*
X22742D02*
X22754Y16037D01*
X22798D01*
X22179Y16049D02*
X22742D01*
X22832Y16099D02*
X22872D01*
X22831Y16098D02*
X22832Y16099D01*
X22641Y18125D02*
X22681Y18165D01*
X22226Y18125D02*
X22641D01*
X22229Y16098D02*
X22831D01*
D44*
X25471Y18615D02*
X26079D01*
X24566Y19228D02*
X24920D01*
X24460D02*
X24566D01*
X23781D02*
X24132D01*
X23672D02*
X23781D01*
X22974Y19231D02*
X23047D01*
X22560D02*
X22974D01*
X22203Y19228D02*
X22557D01*
X22097D02*
X22203D01*
X21479Y19229D02*
X21480Y19228D01*
X21770D01*
X21772Y19231D02*
X22095D01*
X21770Y19228D02*
X21772Y19231D01*
X22095D02*
X22097Y19228D01*
X22557D02*
X22560Y19231D01*
X23047D02*
X23093Y19185D01*
X23315D01*
X23360Y19231D01*
X23670D01*
X23672Y19228D01*
X24132D02*
X24134Y19230D01*
X24457D01*
X24460Y19228D01*
X24922Y19230D02*
X25245D01*
X24920Y19228D02*
X24922Y19230D01*
X25245D02*
X25251Y19225D01*
X25881D02*
X26002Y19104D01*
X26011D01*
X26012Y19105D02*
X26508D01*
X26011Y19104D02*
X26012Y19105D01*
X26508D02*
X26536Y19133D01*
X26527Y18455D02*
X26527Y18455D01*
X26163Y18455D02*
X26527D01*
X26079Y18615D02*
Y18616D01*
X25456Y18630D02*
X25471Y18615D01*
X25091Y18630D02*
X25456D01*
X25251Y19225D02*
X25332D01*
X25881D01*
D45*
X27141Y17369D02*
X27160Y17350D01*
X26785Y17369D02*
X27141D01*
D46*
X22707Y14080D02*
Y14035D01*
X22688Y14069D02*
X22726Y14046D01*
Y14069D02*
X22688Y14046D01*
X22747Y14008D02*
X22743Y14004D01*
X22747Y14000D01*
X22750Y14004D01*
X22747Y14008D01*
X22825Y14061D02*
X22821Y14069D01*
X22814Y14077D01*
X22806Y14080D01*
X22791D01*
X22783Y14077D01*
X22775Y14069D01*
X22772Y14061D01*
X22768Y14050D01*
Y14031D01*
X22772Y14020D01*
X22775Y14012D01*
X22783Y14004D01*
X22791Y14000D01*
X22806D01*
X22814Y14004D01*
X22821Y14012D01*
X22825Y14020D01*
Y14031D01*
X22806D02*
X22825D01*
X22847Y14061D02*
Y14065D01*
X22851Y14073D01*
X22855Y14077D01*
X22862Y14080D01*
X22878D01*
X22885Y14077D01*
X22889Y14073D01*
X22893Y14065D01*
Y14058D01*
X22889Y14050D01*
X22881Y14039D01*
X22843Y14000D01*
X22897D01*
X22977Y14035D02*
X23046D01*
X23132Y14080D02*
Y14000D01*
Y14080D02*
X23163Y14000D01*
X23193Y14080D02*
X23163Y14000D01*
X23193Y14080D02*
Y14000D01*
X23216Y14080D02*
Y14000D01*
X23233Y14080D02*
Y14000D01*
Y14080D02*
X23260D01*
X23271Y14077D01*
X23279Y14069D01*
X23282Y14061D01*
X23286Y14050D01*
Y14031D01*
X23282Y14020D01*
X23279Y14012D01*
X23271Y14004D01*
X23260Y14000D01*
X23233D01*
X23367Y14080D02*
Y14000D01*
X23413D01*
X23482D02*
X23452Y14080D01*
X23421Y14000D01*
X23433Y14027D02*
X23471D01*
X23501Y14080D02*
X23532Y14042D01*
Y14000D01*
X23562Y14080D02*
X23532Y14042D01*
X23622Y14080D02*
X23572D01*
Y14000D01*
X23622D01*
X23572Y14042D02*
X23603D01*
X23635Y14080D02*
Y14000D01*
Y14080D02*
X23669D01*
X23681Y14077D01*
X23685Y14073D01*
X23688Y14065D01*
Y14058D01*
X23685Y14050D01*
X23681Y14046D01*
X23669Y14042D01*
X23635D01*
X23662D02*
X23688Y14000D01*
X23773Y14061D02*
Y14065D01*
X23777Y14073D01*
X23781Y14077D01*
X23788Y14080D01*
X23803D01*
X23811Y14077D01*
X23815Y14073D01*
X23819Y14065D01*
Y14058D01*
X23815Y14050D01*
X23807Y14039D01*
X23769Y14000D01*
X23823D01*
X23960Y14061D02*
X23957Y14069D01*
X23949Y14077D01*
X23941Y14080D01*
X23926D01*
X23918Y14077D01*
X23911Y14069D01*
X23907Y14061D01*
X23903Y14050D01*
Y14031D01*
X23907Y14020D01*
X23911Y14012D01*
X23918Y14004D01*
X23926Y14000D01*
X23941D01*
X23949Y14004D01*
X23957Y14012D01*
X23960Y14020D01*
Y14031D01*
X23941D02*
X23960D01*
X24028Y14080D02*
X23979D01*
Y14000D01*
X24028D01*
X23979Y14042D02*
X24009D01*
X24042Y14080D02*
Y14000D01*
Y14080D02*
X24076D01*
X24087Y14077D01*
X24091Y14073D01*
X24095Y14065D01*
Y14058D01*
X24091Y14050D01*
X24087Y14046D01*
X24076Y14042D01*
X24042D01*
X24068D02*
X24095Y14000D01*
X24113Y14080D02*
Y14000D01*
Y14080D02*
X24147D01*
X24158Y14077D01*
X24162Y14073D01*
X24166Y14065D01*
Y14058D01*
X24162Y14050D01*
X24158Y14046D01*
X24147Y14042D01*
X24113D02*
X24147D01*
X24158Y14039D01*
X24162Y14035D01*
X24166Y14027D01*
Y14016D01*
X24162Y14008D01*
X24158Y14004D01*
X24147Y14000D01*
X24113D01*
X24233Y14080D02*
X24184D01*
Y14000D01*
X24233D01*
X24184Y14042D02*
X24214D01*
X24247Y14080D02*
Y14000D01*
Y14080D02*
X24281D01*
X24292Y14077D01*
X24296Y14073D01*
X24300Y14065D01*
Y14058D01*
X24296Y14050D01*
X24292Y14046D01*
X24281Y14042D01*
X24247D01*
X24273D02*
X24300Y14000D01*
X24381Y14080D02*
Y14000D01*
Y14080D02*
X24408D01*
X24419Y14077D01*
X24427Y14069D01*
X24430Y14061D01*
X24434Y14050D01*
Y14031D01*
X24430Y14020D01*
X24427Y14012D01*
X24419Y14004D01*
X24408Y14000D01*
X24381D01*
X24513D02*
X24483Y14080D01*
X24452Y14000D01*
X24464Y14027D02*
X24502D01*
X24558Y14080D02*
Y14000D01*
X24532Y14080D02*
X24585D01*
X24655Y14000D02*
X24625Y14080D01*
X24595Y14000D01*
X24606Y14027D02*
X24644D01*
D48*
X20861Y13840D02*
X21361D01*
X21111Y13590D02*
Y14090D01*
X21061Y13840D02*
Y13890D01*
X21111D01*
X21161Y13790D02*
Y13840D01*
X21111Y13790D02*
X21161D01*
X21116Y13835D02*
X21156D01*
Y13795D02*
Y13835D01*
X21116Y13795D02*
X21156D01*
X21116D02*
Y13835D01*
X21121Y13830D02*
X21151D01*
Y13800D02*
Y13830D01*
X21121Y13800D02*
X21151D01*
X21121D02*
Y13825D01*
X21126D02*
X21146D01*
Y13805D02*
Y13825D01*
X21126Y13805D02*
X21146D01*
X21126D02*
Y13820D01*
X21131D02*
X21141D01*
Y13810D02*
Y13820D01*
X21131Y13810D02*
X21141D01*
X21131D02*
Y13820D01*
Y13815D02*
X21141D01*
X21066Y13885D02*
X21106D01*
Y13845D02*
Y13885D01*
X21066Y13845D02*
X21106D01*
X21066D02*
Y13885D01*
X21071Y13880D02*
X21101D01*
Y13850D02*
Y13880D01*
X21071Y13850D02*
X21101D01*
X21071D02*
Y13875D01*
X21076D02*
X21096D01*
Y13855D02*
Y13875D01*
X21076Y13855D02*
X21096D01*
X21076D02*
Y13870D01*
X21081D02*
X21091D01*
Y13860D02*
Y13870D01*
X21081Y13860D02*
X21091D01*
X21081D02*
Y13870D01*
Y13865D02*
X21091D01*
X20796Y20800D02*
X21296D01*
X21046Y20550D02*
Y21050D01*
X20996Y20800D02*
Y20850D01*
X21046D01*
X21096Y20750D02*
Y20800D01*
X21046Y20750D02*
X21096D01*
X21051Y20795D02*
X21091D01*
Y20755D02*
Y20795D01*
X21051Y20755D02*
X21091D01*
X21051D02*
Y20795D01*
X21056Y20790D02*
X21086D01*
Y20760D02*
Y20790D01*
X21056Y20760D02*
X21086D01*
X21056D02*
Y20785D01*
X21061D02*
X21081D01*
Y20765D02*
Y20785D01*
X21061Y20765D02*
X21081D01*
X21061D02*
Y20780D01*
X21066D02*
X21076D01*
Y20770D02*
Y20780D01*
X21066Y20770D02*
X21076D01*
X21066D02*
Y20780D01*
Y20775D02*
X21076D01*
X21001Y20845D02*
X21041D01*
Y20805D02*
Y20845D01*
X21001Y20805D02*
X21041D01*
X21001D02*
Y20845D01*
X21006Y20840D02*
X21036D01*
Y20810D02*
Y20840D01*
X21006Y20810D02*
X21036D01*
X21006D02*
Y20835D01*
X21011D02*
X21031D01*
Y20815D02*
Y20835D01*
X21011Y20815D02*
X21031D01*
X21011D02*
Y20830D01*
X21016D02*
X21026D01*
Y20820D02*
Y20830D01*
X21016Y20820D02*
X21026D01*
X21016D02*
Y20830D01*
Y20825D02*
X21026D01*
X27911Y20625D02*
X28411D01*
X28161Y20375D02*
Y20875D01*
X28111Y20625D02*
Y20675D01*
X28161D01*
X28211Y20575D02*
Y20625D01*
X28161Y20575D02*
X28211D01*
X28166Y20620D02*
X28206D01*
Y20580D02*
Y20620D01*
X28166Y20580D02*
X28206D01*
X28166D02*
Y20620D01*
X28171Y20615D02*
X28201D01*
Y20585D02*
Y20615D01*
X28171Y20585D02*
X28201D01*
X28171D02*
Y20610D01*
X28176D02*
X28196D01*
Y20590D02*
Y20610D01*
X28176Y20590D02*
X28196D01*
X28176D02*
Y20605D01*
X28181D02*
X28191D01*
Y20595D02*
Y20605D01*
X28181Y20595D02*
X28191D01*
X28181D02*
Y20605D01*
Y20600D02*
X28191D01*
X28116Y20670D02*
X28156D01*
Y20630D02*
Y20670D01*
X28116Y20630D02*
X28156D01*
X28116D02*
Y20670D01*
X28121Y20665D02*
X28151D01*
Y20635D02*
Y20665D01*
X28121Y20635D02*
X28151D01*
X28121D02*
Y20660D01*
X28126D02*
X28146D01*
Y20640D02*
Y20660D01*
X28126Y20640D02*
X28146D01*
X28126D02*
Y20655D01*
X28131D02*
X28141D01*
Y20645D02*
Y20655D01*
X28131Y20645D02*
X28141D01*
X28131D02*
Y20655D01*
Y20650D02*
X28141D01*
D49*
X22960Y14428D02*
Y14348D01*
X23006D01*
X23076D02*
X23045Y14428D01*
X23015Y14348D01*
X23026Y14375D02*
X23064D01*
X23148Y14417D02*
X23140Y14424D01*
X23129Y14428D01*
X23113D01*
X23102Y14424D01*
X23094Y14417D01*
Y14409D01*
X23098Y14401D01*
X23102Y14398D01*
X23110Y14394D01*
X23132Y14386D01*
X23140Y14382D01*
X23144Y14379D01*
X23148Y14371D01*
Y14360D01*
X23140Y14352D01*
X23129Y14348D01*
X23113D01*
X23102Y14352D01*
X23094Y14360D01*
X23286Y14409D02*
X23282Y14417D01*
X23274Y14424D01*
X23267Y14428D01*
X23251D01*
X23244Y14424D01*
X23236Y14417D01*
X23232Y14409D01*
X23228Y14398D01*
Y14379D01*
X23232Y14367D01*
X23236Y14360D01*
X23244Y14352D01*
X23251Y14348D01*
X23267D01*
X23274Y14352D01*
X23282Y14360D01*
X23286Y14367D01*
X23308Y14428D02*
Y14371D01*
X23312Y14360D01*
X23319Y14352D01*
X23331Y14348D01*
X23339D01*
X23350Y14352D01*
X23358Y14360D01*
X23361Y14371D01*
Y14428D01*
X23383D02*
Y14348D01*
Y14428D02*
X23414Y14348D01*
X23444Y14428D02*
X23414Y14348D01*
X23444Y14428D02*
Y14348D01*
X23467Y14428D02*
Y14348D01*
Y14428D02*
X23502D01*
X23513Y14424D01*
X23517Y14420D01*
X23521Y14413D01*
Y14405D01*
X23517Y14398D01*
X23513Y14394D01*
X23502Y14390D01*
X23467D02*
X23502D01*
X23513Y14386D01*
X23517Y14382D01*
X23521Y14375D01*
Y14363D01*
X23517Y14356D01*
X23513Y14352D01*
X23502Y14348D01*
X23467D01*
X23538Y14428D02*
Y14348D01*
Y14428D02*
X23573D01*
X23584Y14424D01*
X23588Y14420D01*
X23592Y14413D01*
Y14405D01*
X23588Y14398D01*
X23584Y14394D01*
X23573Y14390D01*
X23538D01*
X23565D02*
X23592Y14348D01*
X23659Y14428D02*
X23610D01*
Y14348D01*
X23659D01*
X23610Y14390D02*
X23640D01*
X23726Y14417D02*
X23718Y14424D01*
X23707Y14428D01*
X23692D01*
X23680Y14424D01*
X23673Y14417D01*
Y14409D01*
X23676Y14401D01*
X23680Y14398D01*
X23688Y14394D01*
X23711Y14386D01*
X23718Y14382D01*
X23722Y14379D01*
X23726Y14371D01*
Y14360D01*
X23718Y14352D01*
X23707Y14348D01*
X23692D01*
X23680Y14352D01*
X23673Y14360D01*
X23829Y14428D02*
X23822Y14424D01*
X23814Y14417D01*
X23810Y14409D01*
X23807Y14398D01*
Y14379D01*
X23810Y14367D01*
X23814Y14360D01*
X23822Y14352D01*
X23829Y14348D01*
X23845D01*
X23852Y14352D01*
X23860Y14360D01*
X23864Y14367D01*
X23868Y14379D01*
Y14398D01*
X23864Y14409D01*
X23860Y14417D01*
X23852Y14424D01*
X23845Y14428D01*
X23829D01*
X23886D02*
Y14348D01*
Y14428D02*
X23920D01*
X23932Y14424D01*
X23936Y14420D01*
X23940Y14413D01*
Y14405D01*
X23936Y14398D01*
X23932Y14394D01*
X23920Y14390D01*
X23886D02*
X23920D01*
X23932Y14386D01*
X23936Y14382D01*
X23940Y14375D01*
Y14363D01*
X23936Y14356D01*
X23932Y14352D01*
X23920Y14348D01*
X23886D01*
X24011Y14417D02*
X24003Y14424D01*
X23992Y14428D01*
X23976D01*
X23965Y14424D01*
X23957Y14417D01*
Y14409D01*
X23961Y14401D01*
X23965Y14398D01*
X23973Y14394D01*
X23996Y14386D01*
X24003Y14382D01*
X24007Y14379D01*
X24011Y14371D01*
Y14360D01*
X24003Y14352D01*
X23992Y14348D01*
X23976D01*
X23965Y14352D01*
X23957Y14360D01*
X24078Y14428D02*
X24029D01*
Y14348D01*
X24078D01*
X24029Y14390D02*
X24059D01*
X24091Y14428D02*
Y14348D01*
Y14428D02*
X24126D01*
X24137Y14424D01*
X24141Y14420D01*
X24145Y14413D01*
Y14405D01*
X24141Y14398D01*
X24137Y14394D01*
X24126Y14390D01*
X24091D01*
X24118D02*
X24145Y14348D01*
X24163Y14428D02*
X24193Y14348D01*
X24224Y14428D02*
X24193Y14348D01*
X24295D02*
X24264Y14428D01*
X24234Y14348D01*
X24245Y14375D02*
X24283D01*
X24340Y14428D02*
Y14348D01*
X24314Y14428D02*
X24367D01*
X24399D02*
X24392Y14424D01*
X24384Y14417D01*
X24380Y14409D01*
X24376Y14398D01*
Y14379D01*
X24380Y14367D01*
X24384Y14360D01*
X24392Y14352D01*
X24399Y14348D01*
X24414D01*
X24422Y14352D01*
X24430Y14360D01*
X24434Y14367D01*
X24437Y14379D01*
Y14398D01*
X24434Y14409D01*
X24430Y14417D01*
X24422Y14424D01*
X24414Y14428D01*
X24399D01*
X24456D02*
Y14348D01*
Y14428D02*
X24490D01*
X24502Y14424D01*
X24505Y14420D01*
X24509Y14413D01*
Y14405D01*
X24505Y14398D01*
X24502Y14394D01*
X24490Y14390D01*
X24456D01*
X24483D02*
X24509Y14348D01*
X24527Y14428D02*
X24558Y14390D01*
Y14348D01*
X24588Y14428D02*
X24558Y14390D01*
X24913Y14413D02*
X24920Y14417D01*
X24932Y14428D01*
Y14348D01*
X24971Y14337D02*
X25025Y14428D01*
X25034Y14409D02*
Y14413D01*
X25038Y14420D01*
X25041Y14424D01*
X25049Y14428D01*
X25064D01*
X25072Y14424D01*
X25076Y14420D01*
X25079Y14413D01*
Y14405D01*
X25076Y14398D01*
X25068Y14386D01*
X25030Y14348D01*
X25083D01*
X25101Y14337D02*
X25154Y14428D01*
X25164Y14409D02*
Y14413D01*
X25167Y14420D01*
X25171Y14424D01*
X25179Y14428D01*
X25194D01*
X25202Y14424D01*
X25206Y14420D01*
X25209Y14413D01*
Y14405D01*
X25206Y14398D01*
X25198Y14386D01*
X25160Y14348D01*
X25213D01*
X25254Y14428D02*
X25242Y14424D01*
X25235Y14413D01*
X25231Y14394D01*
Y14382D01*
X25235Y14363D01*
X25242Y14352D01*
X25254Y14348D01*
X25262D01*
X25273Y14352D01*
X25281Y14363D01*
X25284Y14382D01*
Y14394D01*
X25281Y14413D01*
X25273Y14424D01*
X25262Y14428D01*
X25254D01*
X25302Y14413D02*
X25310Y14417D01*
X25321Y14428D01*
Y14348D01*
X25369Y14428D02*
X25410D01*
X25388Y14398D01*
X25399D01*
X25407Y14394D01*
X25410Y14390D01*
X25414Y14379D01*
Y14371D01*
X25410Y14360D01*
X25403Y14352D01*
X25391Y14348D01*
X25380D01*
X25369Y14352D01*
X25365Y14356D01*
X25361Y14363D01*
D50*
X22960Y14563D02*
X22968Y14567D01*
X22979Y14578D01*
Y14498D01*
X23072Y14578D02*
X23034Y14498D01*
X23019Y14578D02*
X23072D01*
X23136D02*
X23098D01*
X23094Y14544D01*
X23098Y14548D01*
X23109Y14551D01*
X23121D01*
X23132Y14548D01*
X23140Y14540D01*
X23143Y14529D01*
Y14521D01*
X23140Y14510D01*
X23132Y14502D01*
X23121Y14498D01*
X23109D01*
X23098Y14502D01*
X23094Y14506D01*
X23090Y14513D01*
X23161Y14532D02*
X23230D01*
X23276Y14578D02*
X23265Y14574D01*
X23257Y14563D01*
X23254Y14544D01*
Y14532D01*
X23257Y14513D01*
X23265Y14502D01*
X23276Y14498D01*
X23284D01*
X23295Y14502D01*
X23303Y14513D01*
X23307Y14532D01*
Y14544D01*
X23303Y14563D01*
X23295Y14574D01*
X23284Y14578D01*
X23276D01*
X23348D02*
X23336Y14574D01*
X23329Y14563D01*
X23325Y14544D01*
Y14532D01*
X23329Y14513D01*
X23336Y14502D01*
X23348Y14498D01*
X23355D01*
X23367Y14502D01*
X23374Y14513D01*
X23378Y14532D01*
Y14544D01*
X23374Y14563D01*
X23367Y14574D01*
X23355Y14578D01*
X23348D01*
X23419D02*
X23407Y14574D01*
X23400Y14563D01*
X23396Y14544D01*
Y14532D01*
X23400Y14513D01*
X23407Y14502D01*
X23419Y14498D01*
X23426D01*
X23438Y14502D01*
X23446Y14513D01*
X23449Y14532D01*
Y14544D01*
X23446Y14563D01*
X23438Y14574D01*
X23426Y14578D01*
X23419D01*
X23490D02*
X23479Y14574D01*
X23471Y14563D01*
X23467Y14544D01*
Y14532D01*
X23471Y14513D01*
X23479Y14502D01*
X23490Y14498D01*
X23498D01*
X23509Y14502D01*
X23517Y14513D01*
X23521Y14532D01*
Y14544D01*
X23517Y14563D01*
X23509Y14574D01*
X23498Y14578D01*
X23490D01*
X23542Y14559D02*
Y14563D01*
X23546Y14570D01*
X23550Y14574D01*
X23558Y14578D01*
X23573D01*
X23580Y14574D01*
X23584Y14570D01*
X23588Y14563D01*
Y14555D01*
X23584Y14548D01*
X23577Y14536D01*
X23538Y14498D01*
X23592D01*
X23673Y14551D02*
Y14498D01*
Y14529D02*
X23676Y14540D01*
X23684Y14548D01*
X23692Y14551D01*
X23703D01*
X23710Y14529D02*
X23756D01*
Y14536D01*
X23752Y14544D01*
X23748Y14548D01*
X23741Y14551D01*
X23729D01*
X23722Y14548D01*
X23714Y14540D01*
X23710Y14529D01*
Y14521D01*
X23714Y14510D01*
X23722Y14502D01*
X23729Y14498D01*
X23741D01*
X23748Y14502D01*
X23756Y14510D01*
X23773Y14551D02*
X23796Y14498D01*
X23819Y14551D02*
X23796Y14498D01*
X23870Y14578D02*
X23832Y14525D01*
X23889D01*
X23870Y14578D02*
Y14498D01*
X23911Y14502D02*
X23907Y14498D01*
X23903Y14502D01*
X23907Y14506D01*
X23911Y14502D01*
Y14494D01*
X23907Y14487D01*
X23903Y14483D01*
X24048Y14559D02*
X24044Y14567D01*
X24037Y14574D01*
X24029Y14578D01*
X24014D01*
X24006Y14574D01*
X23999Y14567D01*
X23995Y14559D01*
X23991Y14548D01*
Y14529D01*
X23995Y14517D01*
X23999Y14510D01*
X24006Y14502D01*
X24014Y14498D01*
X24029D01*
X24037Y14502D01*
X24044Y14510D01*
X24048Y14517D01*
X24071Y14578D02*
Y14498D01*
X24116D01*
X24148Y14578D02*
X24140Y14574D01*
X24133Y14567D01*
X24129Y14559D01*
X24125Y14548D01*
Y14529D01*
X24129Y14517D01*
X24133Y14510D01*
X24140Y14502D01*
X24148Y14498D01*
X24163D01*
X24171Y14502D01*
X24178Y14510D01*
X24182Y14517D01*
X24186Y14529D01*
Y14548D01*
X24182Y14559D01*
X24178Y14567D01*
X24171Y14574D01*
X24163Y14578D01*
X24148D01*
X24262Y14559D02*
X24258Y14567D01*
X24250Y14574D01*
X24243Y14578D01*
X24227D01*
X24220Y14574D01*
X24212Y14567D01*
X24208Y14559D01*
X24205Y14548D01*
Y14529D01*
X24208Y14517D01*
X24212Y14510D01*
X24220Y14502D01*
X24227Y14498D01*
X24243D01*
X24250Y14502D01*
X24258Y14510D01*
X24262Y14517D01*
X24284Y14578D02*
Y14498D01*
X24338Y14578D02*
X24284Y14525D01*
X24303Y14544D02*
X24338Y14498D01*
X24418Y14578D02*
Y14498D01*
Y14578D02*
X24453D01*
X24464Y14574D01*
X24468Y14570D01*
X24472Y14563D01*
Y14555D01*
X24468Y14548D01*
X24464Y14544D01*
X24453Y14540D01*
X24418D02*
X24453D01*
X24464Y14536D01*
X24468Y14532D01*
X24472Y14525D01*
Y14513D01*
X24468Y14506D01*
X24464Y14502D01*
X24453Y14498D01*
X24418D01*
X24512Y14578D02*
X24505Y14574D01*
X24497Y14567D01*
X24493Y14559D01*
X24489Y14548D01*
Y14529D01*
X24493Y14517D01*
X24497Y14510D01*
X24505Y14502D01*
X24512Y14498D01*
X24528D01*
X24535Y14502D01*
X24543Y14510D01*
X24547Y14517D01*
X24550Y14529D01*
Y14548D01*
X24547Y14559D01*
X24543Y14567D01*
X24535Y14574D01*
X24528Y14578D01*
X24512D01*
X24630Y14498D02*
X24600Y14578D01*
X24569Y14498D01*
X24581Y14525D02*
X24619D01*
X24649Y14578D02*
Y14498D01*
Y14578D02*
X24683D01*
X24694Y14574D01*
X24698Y14570D01*
X24702Y14563D01*
Y14555D01*
X24698Y14548D01*
X24694Y14544D01*
X24683Y14540D01*
X24649D01*
X24675D02*
X24702Y14498D01*
X24720Y14578D02*
Y14498D01*
Y14578D02*
X24747D01*
X24758Y14574D01*
X24766Y14567D01*
X24769Y14559D01*
X24773Y14548D01*
Y14529D01*
X24769Y14517D01*
X24766Y14510D01*
X24758Y14502D01*
X24747Y14498D01*
X24720D01*
D54*
X27084Y17782D02*
D03*
D57*
X26146Y16862D02*
D03*
X26459Y16909D02*
D03*
X25042Y16469D02*
D03*
X26315Y16335D02*
D03*
X25162Y16681D02*
D03*
X24278Y16678D02*
D03*
X23390Y16683D02*
D03*
X22504Y16677D02*
D03*
X21618Y16680D02*
D03*
X24066Y16127D02*
D03*
Y17575D02*
D03*
X24906Y16026D02*
D03*
X24911Y17570D02*
D03*
X23390Y17840D02*
D03*
X22505Y17847D02*
D03*
X21620Y17846D02*
D03*
X27160Y17350D02*
D03*
X26785Y17369D02*
D03*
X24566Y19228D02*
D03*
X23781D02*
D03*
X22974Y19231D02*
D03*
X23501Y19335D02*
D03*
X26345Y19478D02*
D03*
X23698Y19584D02*
D03*
X26818Y19521D02*
D03*
X23408Y16886D02*
D03*
X25500Y16872D02*
D03*
X23659Y19607D02*
D03*
X26839Y19487D02*
D03*
X22203Y19228D02*
D03*
X22714Y19335D02*
D03*
X21479Y19229D02*
D03*
X25295Y16405D02*
D03*
X25382Y16406D02*
D03*
X25256Y16768D02*
D03*
X24409Y16405D02*
D03*
X24496Y16406D02*
D03*
X23523Y16405D02*
D03*
X23610Y16406D02*
D03*
X22637Y16405D02*
D03*
X22724Y16406D02*
D03*
X25295Y16975D02*
D03*
X25382Y16976D02*
D03*
X24409Y16975D02*
D03*
X24496Y16976D02*
D03*
X23523Y16975D02*
D03*
X23610Y16976D02*
D03*
X22637Y16975D02*
D03*
X22724Y16976D02*
D03*
X21751Y16975D02*
D03*
X21838Y16976D02*
D03*
X25295Y17566D02*
D03*
X25382Y17567D02*
D03*
X25256Y17930D02*
D03*
X24409Y17566D02*
D03*
X24496Y17567D02*
D03*
X24370Y17930D02*
D03*
X23523Y17566D02*
D03*
X23610Y17567D02*
D03*
X23484Y17930D02*
D03*
X22637Y17566D02*
D03*
X22724Y17567D02*
D03*
X22598Y17930D02*
D03*
X21751Y17566D02*
D03*
X21838Y17567D02*
D03*
X21712Y17930D02*
D03*
X26011Y19104D02*
D03*
X26163Y18455D02*
D03*
X26079Y18615D02*
D03*
X25091Y18630D02*
D03*
X26235Y18143D02*
D03*
X26824Y18148D02*
D03*
X26215Y18171D02*
D03*
X26858D02*
D03*
X27121Y17589D02*
D03*
X27145Y17550D02*
D03*
X27169Y17526D02*
D03*
X26915Y17583D02*
D03*
X26887Y17615D02*
D03*
X26902Y17542D02*
D03*
X26930Y17524D02*
D03*
X26121Y17578D02*
D03*
X26030Y17598D02*
D03*
X26018Y18559D02*
D03*
X25770Y16314D02*
D03*
X25750Y16338D02*
D03*
X25730Y16359D02*
D03*
X25709Y16378D02*
D03*
X25812Y16975D02*
D03*
X25839Y16927D02*
D03*
X25861Y16895D02*
D03*
X25880Y16870D02*
D03*
X25897Y16833D02*
D03*
X25791Y17400D02*
D03*
X25772Y17437D02*
D03*
X25750Y17472D02*
D03*
X25728Y17504D02*
D03*
X25974Y18797D02*
D03*
X25950Y18776D02*
D03*
X25928Y18755D02*
D03*
X25905Y18734D02*
D03*
X25886Y18713D02*
D03*
X25865Y18692D02*
D03*
X25844Y18641D02*
D03*
X25818Y18528D02*
D03*
X24858Y18850D02*
D03*
X24667Y18878D02*
D03*
Y18984D02*
D03*
X25273Y19536D02*
D03*
X25234Y19562D02*
D03*
X24486Y19573D02*
D03*
X24448Y19585D02*
D03*
X22911Y19604D02*
D03*
X22872Y19625D02*
D03*
X22123Y19636D02*
D03*
X22083Y19651D02*
D03*
X26536Y19133D02*
D03*
X26527Y18455D02*
D03*
X26988Y16712D02*
D03*
X26815Y16409D02*
D03*
X26429Y16293D02*
D03*
X26804Y16208D02*
D03*
X24979Y15986D02*
D03*
X25096Y15900D02*
D03*
X25026Y15870D02*
D03*
X25051Y15948D02*
D03*
X22346Y16160D02*
D03*
X22284Y16129D02*
D03*
X25051Y16405D02*
D03*
X24981Y16980D02*
D03*
X24141D02*
D03*
X23996Y18165D02*
D03*
X23241Y16980D02*
D03*
X23171Y17570D02*
D03*
X23106Y18165D02*
D03*
X22346Y16985D02*
D03*
X22281Y17565D02*
D03*
X21751Y16405D02*
D03*
X21461Y16980D02*
D03*
X21406Y17570D02*
D03*
X21351Y18170D02*
D03*
X21606D02*
D03*
X23247Y18997D02*
D03*
X21858Y19330D02*
D03*
X21747Y19009D02*
D03*
X21927Y19335D02*
D03*
X21673Y18997D02*
D03*
X22460D02*
D03*
X24289Y19335D02*
D03*
X24035Y18997D02*
D03*
X25076Y19335D02*
D03*
X25864D02*
D03*
X25610Y18997D02*
D03*
X22636Y16192D02*
D03*
X24411Y16063D02*
D03*
X24140Y16094D02*
D03*
X23997Y16155D02*
D03*
X22896Y16129D02*
D03*
X23022Y16247D02*
D03*
X23047Y16216D02*
D03*
X23072Y16183D02*
D03*
X23146Y16126D02*
D03*
X23173Y16094D02*
D03*
X23198Y16062D02*
D03*
X23246Y16024D02*
D03*
X23272Y15986D02*
D03*
X23170Y16249D02*
D03*
X23240Y16217D02*
D03*
X23526Y16185D02*
D03*
X23296Y15944D02*
D03*
X22748Y15962D02*
D03*
X22773Y16005D02*
D03*
X22821Y16070D02*
D03*
X22798Y16037D02*
D03*
X22921Y16160D02*
D03*
X22946Y16192D02*
D03*
X21836Y17400D02*
D03*
X22724Y17436D02*
D03*
X23612Y17472D02*
D03*
X24496Y17504D02*
D03*
X21839Y16833D02*
D03*
X22725Y16853D02*
D03*
X23612Y16896D02*
D03*
X24497Y16927D02*
D03*
X21838Y16406D02*
D03*
X23608Y16338D02*
D03*
X24496Y16314D02*
D03*
X22328Y18774D02*
D03*
X22469Y18753D02*
D03*
X23402Y18733D02*
D03*
X23529Y18716D02*
D03*
X24477Y18724D02*
D03*
X24593Y18712D02*
D03*
X25547Y18641D02*
D03*
X21379Y19020D02*
D03*
X21380Y16895D02*
D03*
X24861Y16961D02*
D03*
X23079Y16899D02*
D03*
X22191Y16895D02*
D03*
X25736Y16958D02*
D03*
X21428Y19313D02*
D03*
X21549Y16945D02*
D03*
X22435Y16949D02*
D03*
X23321D02*
D03*
X22647Y18041D02*
D03*
X22535Y18065D02*
D03*
X25494Y18066D02*
D03*
X23965Y16924D02*
D03*
X23566Y16814D02*
D03*
X25682Y18704D02*
D03*
X25152Y18689D02*
D03*
X24065Y18701D02*
D03*
X25754Y18708D02*
D03*
X25338Y18685D02*
D03*
X24269Y18691D02*
D03*
X26776Y19521D02*
D03*
X26860D02*
D03*
X26902D02*
D03*
X26797Y19487D02*
D03*
X26881D02*
D03*
X26923D02*
D03*
X26315Y19508D02*
D03*
X26373Y19447D02*
D03*
X26285Y19540D02*
D03*
X26181Y19028D02*
D03*
X26151Y19055D02*
D03*
X26243Y18919D02*
D03*
X26209Y18949D02*
D03*
X26127Y19579D02*
D03*
X26337Y19349D02*
D03*
X26275Y19254D02*
D03*
X26562Y19010D02*
D03*
X26539Y18893D02*
D03*
X26102Y19560D02*
D03*
X26362Y18562D02*
D03*
X26563Y16972D02*
D03*
X26545Y16557D02*
D03*
X25702Y15817D02*
D03*
X25697Y15733D02*
D03*
X23122Y16154D02*
D03*
X21826Y16295D02*
D03*
X26686Y16205D02*
D03*
X21456Y16275D02*
D03*
X22186Y16070D02*
D03*
Y16335D02*
D03*
X22166Y16036D02*
D03*
X22126Y16317D02*
D03*
X22087Y15970D02*
D03*
Y16255D02*
D03*
X21406Y16256D02*
D03*
X22056Y15938D02*
D03*
X22054Y16212D02*
D03*
X21351D02*
D03*
X23662Y16206D02*
D03*
X23637Y16176D02*
D03*
X23612Y16206D02*
D03*
X23587Y16176D02*
D03*
X27182Y16257D02*
D03*
X27140Y16523D02*
D03*
X26975Y16598D02*
D03*
X27086Y16597D02*
D03*
X27130Y16577D02*
D03*
X27045Y16558D02*
D03*
X26998Y16996D02*
D03*
X26839Y18872D02*
D03*
X26430Y18841D02*
D03*
X26816Y18850D02*
D03*
X26471Y18835D02*
D03*
X26802Y18824D02*
D03*
X26625Y18825D02*
D03*
X26641Y18124D02*
D03*
X26276D02*
D03*
X21469Y16317D02*
D03*
X25093Y17002D02*
D03*
X24896Y18708D02*
D03*
X23007Y18698D02*
D03*
X21937Y18696D02*
D03*
X22872Y16099D02*
D03*
X22229Y16098D02*
D03*
X22226Y18125D02*
D03*
X25008Y18705D02*
D03*
X23193Y18674D02*
D03*
X22117Y18672D02*
D03*
X22679Y18170D02*
D03*
X23752D02*
D03*
X25676Y18571D02*
D03*
X24825Y18170D02*
D03*
X24207Y17002D02*
D03*
X26343Y19258D02*
D03*
X25332Y19225D02*
D03*
X26029Y16168D02*
D03*
X25980Y16147D02*
D03*
X26329Y16205D02*
D03*
X26328Y16276D02*
D03*
X26101Y16249D02*
D03*
X25914Y16233D02*
D03*
X26146Y16474D02*
D03*
X26564Y16463D02*
D03*
X25950Y16655D02*
D03*
X25946Y16222D02*
D03*
X26167Y16683D02*
D03*
X26003Y16205D02*
D03*
X26091Y16615D02*
D03*
M02*
