G04*
G04 #@! TF.GenerationSoftware,Altium Limited,Altium Designer,18.0.7 (293)*
G04*
G04 Layer_Color=65535*
%FSLAX25Y25*%
%MOIN*%
G70*
G01*
G75*
%ADD10C,0.00600*%
%ADD11C,0.01000*%
%ADD12C,0.00598*%
%ADD13C,0.00000*%
%ADD14C,0.00787*%
D10*
X50098Y58415D02*
G03*
X50098Y59695I0J640D01*
G01*
X52215Y53494D02*
X68012D01*
X50098Y55610D02*
X52215Y53494D01*
X50098Y55610D02*
Y58415D01*
Y59695D02*
Y64617D01*
X68012D01*
Y53494D02*
Y64617D01*
X90364Y86476D02*
Y84343D01*
X91430Y83277D01*
X92496Y84343D01*
Y86476D01*
X95695Y85943D02*
X95162Y86476D01*
X94096D01*
X93563Y85943D01*
Y83810D01*
X94096Y83277D01*
X95162D01*
X95695Y83810D01*
X98894Y85943D02*
X98361Y86476D01*
X97295D01*
X96762Y85943D01*
Y83810D01*
X97295Y83277D01*
X98361D01*
X98894Y83810D01*
X17923Y29547D02*
Y31679D01*
X18989Y32746D01*
X20055Y31679D01*
Y29547D01*
Y31146D01*
X17923D01*
X23254Y32212D02*
X22721Y32746D01*
X21655D01*
X21122Y32212D01*
Y31679D01*
X21655Y31146D01*
X22721D01*
X23254Y30613D01*
Y30080D01*
X22721Y29547D01*
X21655D01*
X21122Y30080D01*
X26453Y32746D02*
X24321D01*
Y31146D01*
X25387Y31679D01*
X25920D01*
X26453Y31146D01*
Y30080D01*
X25920Y29547D01*
X24854D01*
X24321Y30080D01*
X27520Y32212D02*
X28053Y32746D01*
X29119D01*
X29652Y32212D01*
Y30080D01*
X29119Y29547D01*
X28053D01*
X27520Y30080D01*
Y32212D01*
X32318Y29547D02*
Y32746D01*
X30719Y31146D01*
X32851D01*
X33918Y32746D02*
X36050D01*
Y32212D01*
X33918Y30080D01*
Y29547D01*
X37117D02*
Y32746D01*
X38716D01*
X39249Y32212D01*
Y31146D01*
X38716Y30613D01*
X37117D01*
X17923Y27467D02*
Y24268D01*
X19522D01*
X20055Y24801D01*
Y25334D01*
X19522Y25867D01*
X17923D01*
X19522D01*
X20055Y26401D01*
Y26934D01*
X19522Y27467D01*
X17923D01*
X21122Y26401D02*
Y24268D01*
Y25334D01*
X21655Y25867D01*
X22188Y26401D01*
X22721D01*
X25920Y24268D02*
X24854D01*
X24321Y24801D01*
Y25867D01*
X24854Y26401D01*
X25920D01*
X26453Y25867D01*
Y25334D01*
X24321D01*
X28053Y26401D02*
X29119D01*
X29652Y25867D01*
Y24268D01*
X28053D01*
X27520Y24801D01*
X28053Y25334D01*
X29652D01*
X30719Y24268D02*
Y27467D01*
Y25334D02*
X32318Y26401D01*
X30719Y25334D02*
X32318Y24268D01*
X34451D02*
X35517D01*
X36050Y24801D01*
Y25867D01*
X35517Y26401D01*
X34451D01*
X33918Y25867D01*
Y24801D01*
X34451Y24268D01*
X37117Y26401D02*
Y24801D01*
X37650Y24268D01*
X39249D01*
Y26401D01*
X40849Y26934D02*
Y26401D01*
X40316D01*
X41382D01*
X40849D01*
Y24801D01*
X41382Y24268D01*
X20055Y21655D02*
X19522Y22188D01*
X18456D01*
X17923Y21655D01*
Y21122D01*
X18456Y20589D01*
X19522D01*
X20055Y20055D01*
Y19522D01*
X19522Y18989D01*
X18456D01*
X17923Y19522D01*
X22721Y18989D02*
X21655D01*
X21122Y19522D01*
Y20589D01*
X21655Y21122D01*
X22721D01*
X23254Y20589D01*
Y20055D01*
X21122D01*
X24321Y17923D02*
Y21122D01*
X25920D01*
X26453Y20589D01*
Y19522D01*
X25920Y18989D01*
X24321D01*
X28053Y21655D02*
Y21122D01*
X27520D01*
X28586D01*
X28053D01*
Y19522D01*
X28586Y18989D01*
X33384D02*
X34451D01*
X33918D01*
Y22188D01*
X33384Y21655D01*
X36050Y19522D02*
X36584Y18989D01*
X37650D01*
X38183Y19522D01*
Y21655D01*
X37650Y22188D01*
X36584D01*
X36050Y21655D01*
Y21122D01*
X36584Y20589D01*
X38183D01*
X43801Y57000D02*
X46467D01*
X47000Y57533D01*
Y58600D01*
X46467Y59133D01*
X43801D01*
X47000Y60199D02*
Y61265D01*
Y60732D01*
X43801D01*
X44334Y60199D01*
X47533Y62865D02*
Y64997D01*
X47000Y66064D02*
X44867D01*
X43801Y67130D01*
X44867Y68196D01*
X47000D01*
X45401D01*
Y66064D01*
X79921Y58661D02*
Y61860D01*
X81521D01*
X82054Y61327D01*
Y60261D01*
X81521Y59728D01*
X79921D01*
X80988D02*
X82054Y58661D01*
X84720D02*
Y61860D01*
X83120Y60261D01*
X85253D01*
X86319Y58128D02*
X88452D01*
X89518Y58661D02*
Y60794D01*
X90584Y61860D01*
X91651Y60794D01*
Y58661D01*
Y60261D01*
X89518D01*
X33000Y73000D02*
Y76199D01*
X34600D01*
X35133Y75666D01*
Y74599D01*
X34600Y74066D01*
X33000D01*
X34066D02*
X35133Y73000D01*
X36199Y75666D02*
X36732Y76199D01*
X37799D01*
X38332Y75666D01*
Y75133D01*
X37799Y74599D01*
X37265D01*
X37799D01*
X38332Y74066D01*
Y73533D01*
X37799Y73000D01*
X36732D01*
X36199Y73533D01*
X39398Y72467D02*
X41531D01*
X42597Y73000D02*
Y75133D01*
X43663Y76199D01*
X44730Y75133D01*
Y73000D01*
Y74599D01*
X42597D01*
X71334Y80133D02*
X70801Y79599D01*
Y78533D01*
X71334Y78000D01*
X73467D01*
X74000Y78533D01*
Y79599D01*
X73467Y80133D01*
X74000Y83332D02*
Y81199D01*
X71867Y83332D01*
X71334D01*
X70801Y82798D01*
Y81732D01*
X71334Y81199D01*
X74533Y84398D02*
Y86531D01*
X74000Y87597D02*
X71867D01*
X70801Y88663D01*
X71867Y89729D01*
X74000D01*
X72400D01*
Y87597D01*
X48334Y86133D02*
X47801Y85599D01*
Y84533D01*
X48334Y84000D01*
X50467D01*
X51000Y84533D01*
Y85599D01*
X50467Y86133D01*
X51000Y87199D02*
Y88265D01*
Y87732D01*
X47801D01*
X48334Y87199D01*
X51533Y89865D02*
Y91997D01*
X51000Y93064D02*
X48867D01*
X47801Y94130D01*
X48867Y95196D01*
X51000D01*
X49400D01*
Y93064D01*
D11*
X48819Y53150D02*
G03*
X48819Y53150I-394J0D01*
G01*
X20938Y81575D02*
G03*
X20938Y81575I-139J0D01*
G01*
D12*
X38189Y93701D02*
X45669D01*
X57874Y90945D02*
Y96850D01*
X62205D01*
X90945Y35827D02*
Y38976D01*
X75590Y35827D02*
X90945D01*
X75590Y44882D02*
X78347D01*
X75590Y32677D02*
Y77953D01*
X79921D01*
X52904Y53494D02*
X52953D01*
X51550Y29684D02*
X51017Y30217D01*
X49951D01*
X49417Y29684D01*
Y29151D01*
X49951Y28618D01*
X51017D01*
X51550Y28085D01*
Y27552D01*
X51017Y27018D01*
X49951D01*
X49417Y27552D01*
X53149Y27018D02*
X54216D01*
X54749Y27552D01*
Y28618D01*
X54216Y29151D01*
X53149D01*
X52616Y28618D01*
Y27552D01*
X53149Y27018D01*
X55815D02*
X56882D01*
X56348D01*
Y30217D01*
X55815D01*
X60614D02*
Y27018D01*
X59014D01*
X58481Y27552D01*
Y28618D01*
X59014Y29151D01*
X60614D01*
X63279Y27018D02*
X62213D01*
X61680Y27552D01*
Y28618D01*
X62213Y29151D01*
X63279D01*
X63813Y28618D01*
Y28085D01*
X61680D01*
X64879Y29151D02*
Y27018D01*
Y28085D01*
X65412Y28618D01*
X65945Y29151D01*
X66479D01*
X71277Y29684D02*
X71810Y30217D01*
X72876D01*
X73410Y29684D01*
Y29151D01*
X72876Y28618D01*
X72343D01*
X72876D01*
X73410Y28085D01*
Y27552D01*
X72876Y27018D01*
X71810D01*
X71277Y27552D01*
X74476Y29151D02*
X76609Y27018D01*
X75542Y28085D01*
X76609Y29151D01*
X74476Y27018D01*
X80874D02*
X81940D01*
X81407D01*
Y30217D01*
X80874Y29684D01*
X83540D02*
X84073Y30217D01*
X85139D01*
X85672Y29684D01*
Y27552D01*
X85139Y27018D01*
X84073D01*
X83540Y27552D01*
Y29684D01*
X86739Y27018D02*
Y30217D01*
Y28085D02*
X88338Y29151D01*
X86739Y28085D02*
X88338Y27018D01*
X93137D02*
X94203D01*
X93670D01*
Y29151D01*
X93137D01*
X96336Y27018D02*
Y29684D01*
Y28618D01*
X95802D01*
X96869D01*
X96336D01*
Y29684D01*
X96869Y30217D01*
X49417Y21744D02*
Y23876D01*
X51017D01*
X51550Y23343D01*
Y21744D01*
X53149D02*
X54216D01*
X54749Y22277D01*
Y23343D01*
X54216Y23876D01*
X53149D01*
X52616Y23343D01*
Y22277D01*
X53149Y21744D01*
X56348Y24409D02*
Y23876D01*
X55815D01*
X56882D01*
X56348D01*
Y22277D01*
X56882Y21744D01*
X61680Y23876D02*
Y22277D01*
X62213Y21744D01*
X63813D01*
Y23876D01*
X64879Y21744D02*
X66479D01*
X67012Y22277D01*
X66479Y22810D01*
X65412D01*
X64879Y23343D01*
X65412Y23876D01*
X67012D01*
X68078Y21744D02*
X69144D01*
X68611D01*
Y23876D01*
X68078D01*
X70744Y21744D02*
Y23876D01*
X72343D01*
X72876Y23343D01*
Y21744D01*
X75009Y20677D02*
X75542D01*
X76075Y21210D01*
Y23876D01*
X74476D01*
X73943Y23343D01*
Y22277D01*
X74476Y21744D01*
X76075D01*
X82473Y24409D02*
X81940Y24942D01*
X80874D01*
X80341Y24409D01*
Y23876D01*
X80874Y23343D01*
X81940D01*
X82473Y22810D01*
Y22277D01*
X81940Y21744D01*
X80874D01*
X80341Y22277D01*
X83540Y21744D02*
Y24942D01*
X85139D01*
X85672Y24409D01*
Y23343D01*
X85139Y22810D01*
X83540D01*
X86739Y24942D02*
X87805D01*
X87272D01*
Y21744D01*
X86739D01*
X87805D01*
X66511Y100271D02*
X65977Y100805D01*
X64911D01*
X64378Y100271D01*
Y99738D01*
X64911Y99205D01*
X65977D01*
X66511Y98672D01*
Y98139D01*
X65977Y97606D01*
X64911D01*
X64378Y98139D01*
X67577Y100805D02*
Y97606D01*
Y99205D01*
X68110Y99738D01*
X69176D01*
X69710Y99205D01*
Y97606D01*
X71309D02*
X72375D01*
X72909Y98139D01*
Y99205D01*
X72375Y99738D01*
X71309D01*
X70776Y99205D01*
Y98139D01*
X71309Y97606D01*
X73975Y99738D02*
Y97606D01*
Y98672D01*
X74508Y99205D01*
X75041Y99738D01*
X75574D01*
X77707Y100271D02*
Y99738D01*
X77174D01*
X78240D01*
X77707D01*
Y98139D01*
X78240Y97606D01*
X83039D02*
X84105D01*
X83572D01*
Y99738D01*
X83039D01*
X86238Y97606D02*
Y100271D01*
Y99205D01*
X85704D01*
X86771D01*
X86238D01*
Y100271D01*
X86771Y100805D01*
X64378Y95530D02*
Y93397D01*
X65444Y92331D01*
X66511Y93397D01*
Y95530D01*
X69710Y94463D02*
X68110D01*
X67577Y93930D01*
Y92864D01*
X68110Y92331D01*
X69710D01*
X72909Y94463D02*
X71309D01*
X70776Y93930D01*
Y92864D01*
X71309Y92331D01*
X72909D01*
X73975Y93397D02*
X76108D01*
X73975Y94463D02*
X76108D01*
X77174Y94997D02*
X77707Y95530D01*
X78773D01*
X79307Y94997D01*
Y94463D01*
X78773Y93930D01*
X78240D01*
X78773D01*
X79307Y93397D01*
Y92864D01*
X78773Y92331D01*
X77707D01*
X77174Y92864D01*
X80373Y95530D02*
Y93397D01*
X81439Y92331D01*
X82505Y93397D01*
Y95530D01*
X83572Y94997D02*
X84105Y95530D01*
X85171D01*
X85704Y94997D01*
Y94463D01*
X85171Y93930D01*
X84638D01*
X85171D01*
X85704Y93397D01*
Y92864D01*
X85171Y92331D01*
X84105D01*
X83572Y92864D01*
X17921Y98672D02*
Y101871D01*
X19521D01*
X20054Y101338D01*
Y100271D01*
X19521Y99738D01*
X17921D01*
X21653Y98672D02*
X22720D01*
X23253Y99205D01*
Y100271D01*
X22720Y100805D01*
X21653D01*
X21120Y100271D01*
Y99205D01*
X21653Y98672D01*
X24319Y97606D02*
Y100805D01*
X25919D01*
X26452Y100271D01*
Y99205D01*
X25919Y98672D01*
X24319D01*
X27518Y100805D02*
Y99205D01*
X28051Y98672D01*
X29651D01*
Y100805D01*
X30717Y98672D02*
X31783D01*
X31250D01*
Y101871D01*
X30717D01*
X33916Y100805D02*
X34982D01*
X35516Y100271D01*
Y98672D01*
X33916D01*
X33383Y99205D01*
X33916Y99738D01*
X35516D01*
X37115Y101338D02*
Y100805D01*
X36582D01*
X37648D01*
X37115D01*
Y99205D01*
X37648Y98672D01*
X40847D02*
X39781D01*
X39248Y99205D01*
Y100271D01*
X39781Y100805D01*
X40847D01*
X41380Y100271D01*
Y99738D01*
X39248D01*
X45646Y98672D02*
X46712D01*
X46179D01*
Y100805D01*
X45646D01*
X48845Y98672D02*
Y101338D01*
Y100271D01*
X48311D01*
X49378D01*
X48845D01*
Y101338D01*
X49378Y101871D01*
X17921Y95530D02*
Y93397D01*
X18988Y92331D01*
X20054Y93397D01*
Y95530D01*
X23253Y94463D02*
X21653D01*
X21120Y93930D01*
Y92864D01*
X21653Y92331D01*
X23253D01*
X26452Y94463D02*
X24852D01*
X24319Y93930D01*
Y92864D01*
X24852Y92331D01*
X26452D01*
X27518Y93397D02*
X29651D01*
X27518Y94463D02*
X29651D01*
X32850Y95530D02*
X30717D01*
Y93930D01*
X31783Y94463D01*
X32317D01*
X32850Y93930D01*
Y92864D01*
X32317Y92331D01*
X31250D01*
X30717Y92864D01*
X33916Y95530D02*
Y93397D01*
X34982Y92331D01*
X36049Y93397D01*
Y95530D01*
X104495Y96367D02*
X103962Y96900D01*
X102895D01*
X102362Y96367D01*
Y95833D01*
X102895Y95300D01*
X103962D01*
X104495Y94767D01*
Y94234D01*
X103962Y93701D01*
X102895D01*
X102362Y94234D01*
X105561Y93701D02*
Y96900D01*
X107161D01*
X107694Y96367D01*
Y95300D01*
X107161Y94767D01*
X105561D01*
X108760Y96900D02*
X109827D01*
X109293D01*
Y93701D01*
X108760D01*
X109827D01*
X104102Y25501D02*
X103568Y26034D01*
X102502D01*
X101969Y25501D01*
Y23368D01*
X102502Y22835D01*
X103568D01*
X104102Y23368D01*
Y24434D01*
X103035D01*
X105168Y22835D02*
Y26034D01*
X107301Y22835D01*
Y26034D01*
X108368D02*
Y22835D01*
X109968D01*
X110501Y23368D01*
Y25501D01*
X109968Y26034D01*
X108368D01*
X96621Y45974D02*
X96088Y46507D01*
X95021D01*
X94488Y45974D01*
Y43840D01*
X95021Y43307D01*
X96088D01*
X96621Y43840D01*
X99821Y45974D02*
X99288Y46507D01*
X98221D01*
X97688Y45974D01*
Y45440D01*
X98221Y44907D01*
X99288D01*
X99821Y44374D01*
Y43840D01*
X99288Y43307D01*
X98221D01*
X97688Y43840D01*
X93865Y56210D02*
X93332Y56743D01*
X92266D01*
X91732Y56210D01*
Y54077D01*
X92266Y53543D01*
X93332D01*
X93865Y54077D01*
X94932Y56743D02*
Y53543D01*
X97065D01*
X98132Y56743D02*
Y53543D01*
Y54610D01*
X100265Y56743D01*
X98665Y55143D01*
X100265Y53543D01*
X87795Y63779D02*
Y66979D01*
X88862Y65913D01*
X89928Y66979D01*
Y63779D01*
X90995Y66979D02*
X92062D01*
X91528D01*
Y63779D01*
X90995D01*
X92062D01*
X95795Y66446D02*
X95261Y66979D01*
X94195D01*
X93661Y66446D01*
Y65913D01*
X94195Y65379D01*
X95261D01*
X95795Y64846D01*
Y64313D01*
X95261Y63779D01*
X94195D01*
X93661Y64313D01*
X98461Y66979D02*
X97395D01*
X96861Y66446D01*
Y64313D01*
X97395Y63779D01*
X98461D01*
X98994Y64313D01*
Y66446D01*
X98461Y66979D01*
X88583Y73622D02*
Y76822D01*
X89649Y75755D01*
X90716Y76822D01*
Y73622D01*
X93382Y76822D02*
X92316D01*
X91782Y76288D01*
Y74155D01*
X92316Y73622D01*
X93382D01*
X93916Y74155D01*
Y76288D01*
X93382Y76822D01*
X97115Y76288D02*
X96582Y76822D01*
X95516D01*
X94982Y76288D01*
Y75755D01*
X95516Y75222D01*
X96582D01*
X97115Y74689D01*
Y74155D01*
X96582Y73622D01*
X95516D01*
X94982Y74155D01*
X98182Y76822D02*
X99249D01*
X98715D01*
Y73622D01*
X98182D01*
X99249D01*
X17717Y76822D02*
Y74689D01*
X18783Y73622D01*
X19850Y74689D01*
Y76822D01*
X23050Y76288D02*
X22516Y76822D01*
X21450D01*
X20916Y76288D01*
Y74155D01*
X21450Y73622D01*
X22516D01*
X23050Y74155D01*
X26249Y76288D02*
X25716Y76822D01*
X24649D01*
X24116Y76288D01*
Y74155D01*
X24649Y73622D01*
X25716D01*
X26249Y74155D01*
X18110Y67323D02*
Y69456D01*
X19177Y70523D01*
X20243Y69456D01*
Y67323D01*
Y68923D01*
X18110D01*
Y60286D02*
Y57087D01*
X19710D01*
X20243Y57620D01*
Y58153D01*
X19710Y58687D01*
X18110D01*
X19710D01*
X20243Y59220D01*
Y59753D01*
X19710Y60286D01*
X18110D01*
Y50444D02*
X19177D01*
X18643D01*
Y47244D01*
X18110D01*
X19177D01*
X20637Y39674D02*
X20104Y40208D01*
X19037D01*
X18504Y39674D01*
Y37541D01*
X19037Y37008D01*
X20104D01*
X20637Y37541D01*
Y38608D01*
X19570D01*
X21704Y37008D02*
Y40208D01*
X23837Y37008D01*
Y40208D01*
X24904D02*
Y37008D01*
X26503D01*
X27037Y37541D01*
Y39674D01*
X26503Y40208D01*
X24904D01*
X6299Y26772D02*
Y28905D01*
X7366Y29971D01*
X8432Y28905D01*
Y26772D01*
Y28372D01*
X6299D01*
X9499Y29971D02*
Y26772D01*
X11099D01*
X11632Y27305D01*
Y27838D01*
X11099Y28372D01*
X9499D01*
X11099D01*
X11632Y28905D01*
Y29438D01*
X11099Y29971D01*
X9499D01*
X12699D02*
X13765D01*
X13232D01*
Y26772D01*
X12699D01*
X13765D01*
X23000Y84000D02*
Y87200D01*
X24600D01*
X25133Y86667D01*
Y85600D01*
X24600Y85067D01*
X23000D01*
X26200Y87200D02*
Y84000D01*
X27266Y85067D01*
X28333Y84000D01*
Y87200D01*
X29399Y84000D02*
Y87200D01*
X30999D01*
X31533Y86667D01*
Y85600D01*
X30999Y85067D01*
X29399D01*
X30466D02*
X31533Y84000D01*
D13*
X48819Y99606D02*
X50787D01*
D14*
X85165Y56378D02*
X86740D01*
X85165Y53622D02*
X86740D01*
X85378Y77213D02*
Y78787D01*
X82622Y77213D02*
Y78787D01*
X63118Y81378D02*
X64693D01*
X63118Y78622D02*
X64693D01*
X51260Y78622D02*
X52835D01*
X51260Y81378D02*
X52835D01*
X38213D02*
X39787D01*
X38213Y78622D02*
X39787D01*
X89622Y44213D02*
Y45787D01*
X92378Y44213D02*
Y45787D01*
X82378Y44213D02*
Y45787D01*
X79622Y44213D02*
Y45787D01*
X101299Y30118D02*
Y90118D01*
X111299Y30118D02*
Y90118D01*
X101299D02*
X111299D01*
X101299Y30118D02*
X111299D01*
X4843Y83898D02*
X14842D01*
Y33898D02*
Y83898D01*
X4843Y33898D02*
Y83898D01*
Y33898D02*
X14842D01*
X26213Y81378D02*
X27787D01*
X26213Y78622D02*
X27787D01*
X57213Y88378D02*
X58787D01*
X57213Y85622D02*
X58787D01*
M02*
