M48
;Layer_Color=9474304
;FILE_FORMAT=2:5
INCH,LZ
;TYPE=PLATED
T1F00S00C0.01200
T2F00S00C0.03543
T3F00S00C0.11811
%
T01
X0031496Y0035433
Y0051181
X0029528Y0074803
X0043307Y0088583
X0066929Y0086614
X0070866Y0074803
X0084646Y0086614
T02
X0032992Y0011811
X0042992
X0052992
X0062992
X0072992
X0082992
X0106299Y0035118
Y0045118
Y0055118
Y0065118
Y0075118
Y0085118
X0079213Y0108268
X0069213
X0059213
X0049213
X0039213
X0009843Y0078898
Y0068898
Y0058898
Y0048898
Y0038898
T03
X0011811Y0011811
Y0106299
X0106299
Y0011811
M30
