G04*
G04 #@! TF.GenerationSoftware,Altium Limited,Altium Designer,18.0.7 (293)*
G04*
G04 Layer_Color=16711935*
%FSLAX25Y25*%
%MOIN*%
G70*
G01*
G75*
%ADD38C,0.00394*%
D38*
X61240Y28811D02*
Y35504D01*
X64980Y28811D02*
Y35504D01*
X61240D02*
X64980D01*
X61240Y28811D02*
X64980D01*
X82606Y56870D02*
X89299D01*
X82606Y53130D02*
X89299D01*
X82606D02*
Y56870D01*
X89299Y53130D02*
Y56870D01*
X36240Y69410D02*
X39980D01*
X36240Y62717D02*
X39980D01*
X36240D02*
Y69410D01*
X39980Y62717D02*
Y69410D01*
X36240Y50858D02*
X39980D01*
X36240Y57551D02*
X39980D01*
Y50858D02*
Y57551D01*
X36240Y50858D02*
Y57551D01*
X39980Y87764D02*
Y94457D01*
X36240Y87764D02*
Y94457D01*
Y87764D02*
X39980D01*
X36240Y94457D02*
X39980D01*
X69764Y35240D02*
Y38980D01*
X76457Y35240D02*
Y38980D01*
X69764Y35240D02*
X76457D01*
X69764Y38980D02*
X76457D01*
X29240Y56764D02*
X32980D01*
X29240Y63457D02*
X32980D01*
Y56764D02*
Y63457D01*
X29240Y56764D02*
Y63457D01*
X36240Y75764D02*
X39980D01*
X36240Y82457D02*
X39980D01*
Y75764D02*
Y82457D01*
X36240Y75764D02*
Y82457D01*
X76457Y25240D02*
Y28980D01*
X69764Y25240D02*
Y28980D01*
X76457D01*
X69764Y25240D02*
X76457D01*
X36764Y32240D02*
Y35980D01*
X43457Y32240D02*
Y35980D01*
X36764Y32240D02*
X43457D01*
X36764Y35980D02*
X43457D01*
X82130Y81346D02*
X85870D01*
X82130Y74654D02*
X85870D01*
Y81346D01*
X82130Y74654D02*
Y81346D01*
X60559Y81870D02*
X67252D01*
X60559Y78130D02*
X67252D01*
X60559D02*
Y81870D01*
X67252Y78130D02*
Y81870D01*
X48701Y78130D02*
X55394D01*
X48701Y81870D02*
X55394D01*
Y78130D02*
Y81870D01*
X48701Y78130D02*
Y81870D01*
X35653Y81870D02*
X42346D01*
X35653Y78130D02*
X42346D01*
X35653D02*
Y81870D01*
X42346Y78130D02*
Y81870D01*
X89130Y41654D02*
X92870D01*
X89130Y48346D02*
X92870D01*
X89130Y41654D02*
Y48346D01*
X92870Y41654D02*
Y48346D01*
X79130Y48346D02*
X82870D01*
X79130Y41653D02*
X82870D01*
Y48346D01*
X79130Y41653D02*
Y48346D01*
X23654Y78130D02*
Y81870D01*
X30347Y78130D02*
Y81870D01*
X23654D02*
X30347D01*
X23654Y78130D02*
X30347D01*
X54654Y88870D02*
X61347D01*
X54654Y85130D02*
X61347D01*
X54654D02*
Y88870D01*
X61347Y85130D02*
Y88870D01*
M02*
