%FSLAX23Y23*%
%MOIN*%
G70*
G01*
G75*
G04 Layer_Color=8421504*
%ADD10C,0.005*%
%ADD11R,0.050X0.050*%
%ADD12O,0.098X0.028*%
%ADD13R,0.036X0.036*%
%ADD14R,0.030X0.100*%
%ADD15R,0.014X0.060*%
%ADD16R,0.031X0.060*%
%ADD17R,0.048X0.078*%
%ADD18R,0.050X0.050*%
%ADD19O,0.033X0.008*%
%ADD20O,0.008X0.033*%
%ADD21R,0.228X0.228*%
%ADD22R,0.016X0.061*%
%ADD23R,0.074X0.062*%
%ADD24R,0.134X0.075*%
%ADD25O,0.028X0.098*%
%ADD26R,0.024X0.087*%
%ADD27R,0.061X0.016*%
%ADD28R,0.062X0.074*%
%ADD29O,0.012X0.083*%
%ADD30O,0.083X0.012*%
%ADD31R,0.014X0.049*%
%ADD32R,0.036X0.028*%
%ADD33O,0.061X0.010*%
%ADD34O,0.010X0.061*%
%ADD35R,0.045X0.017*%
%ADD36R,0.100X0.100*%
%ADD37C,0.040*%
%ADD38C,0.025*%
%ADD39C,0.010*%
%ADD40C,0.012*%
%ADD41R,1.181X0.787*%
%ADD42C,0.008*%
%ADD43C,0.012*%
%ADD44C,0.012*%
%ADD45C,0.050*%
%ADD46C,0.026*%
%ADD47P,0.057X4X247.5*%
%ADD48C,0.080*%
%ADD49C,0.020*%
%ADD50R,0.060X0.060*%
%ADD51C,0.060*%
%ADD52R,0.060X0.060*%
%ADD53C,0.059*%
%ADD54R,0.059X0.059*%
%ADD55R,0.059X0.059*%
%ADD56C,0.236*%
%ADD57C,0.024*%
%ADD58C,0.040*%
%ADD59C,0.100*%
%ADD60C,0.045*%
%ADD61C,0.033*%
%ADD62C,0.072*%
%ADD63C,0.030*%
%ADD64C,0.055*%
G04:AMPARAMS|DCode=65|XSize=95.433mil|YSize=95.433mil|CornerRadius=0mil|HoleSize=0mil|Usage=FLASHONLY|Rotation=0.000|XOffset=0mil|YOffset=0mil|HoleType=Round|Shape=Relief|Width=10mil|Gap=10mil|Entries=4|*
%AMTHD65*
7,0,0,0.095,0.075,0.010,45*
%
%ADD65THD65*%
G04:AMPARAMS|DCode=66|XSize=112mil|YSize=112mil|CornerRadius=0mil|HoleSize=0mil|Usage=FLASHONLY|Rotation=0.000|XOffset=0mil|YOffset=0mil|HoleType=Round|Shape=Relief|Width=10mil|Gap=10mil|Entries=4|*
%AMTHD66*
7,0,0,0.112,0.092,0.010,45*
%
%ADD66THD66*%
%ADD67C,0.138*%
G04:AMPARAMS|DCode=68|XSize=70mil|YSize=70mil|CornerRadius=0mil|HoleSize=0mil|Usage=FLASHONLY|Rotation=0.000|XOffset=0mil|YOffset=0mil|HoleType=Round|Shape=Relief|Width=10mil|Gap=10mil|Entries=4|*
%AMTHD68*
7,0,0,0.070,0.050,0.010,45*
%
%ADD68THD68*%
%ADD69C,0.030*%
G04:AMPARAMS|DCode=70|XSize=85mil|YSize=85mil|CornerRadius=0mil|HoleSize=0mil|Usage=FLASHONLY|Rotation=0.000|XOffset=0mil|YOffset=0mil|HoleType=Round|Shape=Relief|Width=10mil|Gap=10mil|Entries=4|*
%AMTHD70*
7,0,0,0.085,0.065,0.010,45*
%
%ADD70THD70*%
%ADD71R,0.078X0.048*%
%ADD72R,0.060X0.086*%
%ADD73R,0.086X0.060*%
%ADD74R,0.075X0.063*%
%ADD75R,0.044X0.096*%
%ADD76R,1.181X0.787*%
%ADD77C,0.010*%
%ADD78C,0.010*%
%ADD79C,0.008*%
%ADD80C,0.024*%
%ADD81C,0.004*%
%ADD82C,0.006*%
%ADD83C,0.007*%
%ADD84R,0.240X0.165*%
%ADD85R,0.074X0.062*%
%ADD86R,0.062X0.074*%
D11*
X11980Y11992D02*
D03*
Y12082D02*
D03*
Y12233D02*
D03*
Y12143D02*
D03*
X16420Y11817D02*
D03*
Y11907D02*
D03*
X16110Y11709D02*
D03*
Y11799D02*
D03*
X16353Y11815D02*
D03*
Y11905D02*
D03*
X16450Y11309D02*
D03*
Y11219D02*
D03*
X16520Y11309D02*
D03*
Y11219D02*
D03*
X16040Y11709D02*
D03*
Y11799D02*
D03*
X15960Y12259D02*
D03*
Y12169D02*
D03*
X16433Y10801D02*
D03*
Y10711D02*
D03*
X16083Y10701D02*
D03*
Y10791D02*
D03*
X15919Y11712D02*
D03*
Y11802D02*
D03*
X15860Y12169D02*
D03*
Y12259D02*
D03*
X15849Y11802D02*
D03*
Y11712D02*
D03*
X16223Y10731D02*
D03*
Y10821D02*
D03*
X16153Y10731D02*
D03*
Y10821D02*
D03*
X16500Y10679D02*
D03*
Y10769D02*
D03*
X16363Y10711D02*
D03*
Y10801D02*
D03*
X16383Y11291D02*
D03*
Y11201D02*
D03*
X15389Y11817D02*
D03*
Y11907D02*
D03*
X15079Y11709D02*
D03*
Y11799D02*
D03*
X15322Y11815D02*
D03*
Y11905D02*
D03*
X15419Y11309D02*
D03*
Y11219D02*
D03*
X15489Y11309D02*
D03*
Y11219D02*
D03*
X15009Y11709D02*
D03*
Y11799D02*
D03*
X14929Y12259D02*
D03*
Y12169D02*
D03*
X15402Y10801D02*
D03*
Y10711D02*
D03*
X15052Y10701D02*
D03*
Y10791D02*
D03*
X14888Y11712D02*
D03*
Y11802D02*
D03*
X14829Y12169D02*
D03*
Y12259D02*
D03*
X14818Y11802D02*
D03*
Y11712D02*
D03*
X15192Y10731D02*
D03*
Y10821D02*
D03*
X15122Y10731D02*
D03*
Y10821D02*
D03*
X15469Y10679D02*
D03*
Y10769D02*
D03*
X15332Y10711D02*
D03*
Y10801D02*
D03*
X15352Y11291D02*
D03*
Y11201D02*
D03*
X14337Y11817D02*
D03*
Y11907D02*
D03*
X14027Y11709D02*
D03*
Y11799D02*
D03*
X14271Y11815D02*
D03*
Y11905D02*
D03*
X14367Y11309D02*
D03*
Y11219D02*
D03*
X14437Y11309D02*
D03*
Y11219D02*
D03*
X13957Y11709D02*
D03*
Y11799D02*
D03*
X13877Y12259D02*
D03*
Y12169D02*
D03*
X14350Y10801D02*
D03*
Y10711D02*
D03*
X14000Y10701D02*
D03*
Y10791D02*
D03*
X13836Y11712D02*
D03*
Y11802D02*
D03*
X13777Y12169D02*
D03*
Y12259D02*
D03*
X13766Y11802D02*
D03*
Y11712D02*
D03*
X14140Y10731D02*
D03*
Y10821D02*
D03*
X14070Y10731D02*
D03*
Y10821D02*
D03*
X14417Y10679D02*
D03*
Y10769D02*
D03*
X14280Y10711D02*
D03*
Y10801D02*
D03*
X14300Y11291D02*
D03*
Y11201D02*
D03*
X13290Y11817D02*
D03*
Y11907D02*
D03*
X12980Y11709D02*
D03*
Y11799D02*
D03*
X13224Y11815D02*
D03*
Y11905D02*
D03*
X13320Y11309D02*
D03*
Y11219D02*
D03*
X13390Y11309D02*
D03*
Y11219D02*
D03*
X12910Y11709D02*
D03*
Y11799D02*
D03*
X12830Y12259D02*
D03*
Y12169D02*
D03*
X13303Y10801D02*
D03*
Y10711D02*
D03*
X12953Y10701D02*
D03*
Y10791D02*
D03*
X12789Y11712D02*
D03*
Y11802D02*
D03*
X12730Y12169D02*
D03*
Y12259D02*
D03*
X12719Y11802D02*
D03*
Y11712D02*
D03*
X13093Y10731D02*
D03*
Y10821D02*
D03*
X13023Y10731D02*
D03*
Y10821D02*
D03*
X13370Y10679D02*
D03*
Y10769D02*
D03*
X13233Y10711D02*
D03*
Y10801D02*
D03*
X13253Y11291D02*
D03*
Y11201D02*
D03*
X12464Y11999D02*
D03*
Y12089D02*
D03*
X15605Y13733D02*
D03*
Y13823D02*
D03*
X16097Y13733D02*
D03*
Y13823D02*
D03*
X16343D02*
D03*
Y13733D02*
D03*
X14975Y13901D02*
D03*
Y13811D02*
D03*
X15389Y13823D02*
D03*
Y13733D02*
D03*
X15841Y13823D02*
D03*
Y13733D02*
D03*
D12*
X12129Y12189D02*
D03*
Y12139D02*
D03*
Y12089D02*
D03*
Y12039D02*
D03*
X12322Y12189D02*
D03*
Y12139D02*
D03*
Y12089D02*
D03*
Y12039D02*
D03*
D13*
X16294Y10294D02*
D03*
X16208Y10331D02*
D03*
X16294Y10368D02*
D03*
X16124Y10294D02*
D03*
X16038Y10331D02*
D03*
X16124Y10368D02*
D03*
X11207Y13414D02*
D03*
Y13488D02*
D03*
D14*
X15642Y10245D02*
D03*
X15563D02*
D03*
X12832Y10244D02*
D03*
X12753D02*
D03*
D15*
X13045Y10253D02*
D03*
X13070D02*
D03*
X13095D02*
D03*
X13120D02*
D03*
X13145D02*
D03*
X13170D02*
D03*
X13195D02*
D03*
X13220D02*
D03*
X13245D02*
D03*
X13270D02*
D03*
X13295D02*
D03*
X13320D02*
D03*
X13345D02*
D03*
X13370D02*
D03*
X13395D02*
D03*
X13420D02*
D03*
X13445D02*
D03*
X13470D02*
D03*
X13495D02*
D03*
X13520D02*
D03*
X13545D02*
D03*
X13570D02*
D03*
X13595D02*
D03*
X13620D02*
D03*
X13645D02*
D03*
X13670D02*
D03*
X13885D02*
D03*
X13910D02*
D03*
X13935D02*
D03*
X13960D02*
D03*
X13985D02*
D03*
X14010D02*
D03*
X14035D02*
D03*
X14060D02*
D03*
X14085D02*
D03*
X14110D02*
D03*
X14135D02*
D03*
X14160D02*
D03*
X14185D02*
D03*
X14210D02*
D03*
X14235D02*
D03*
X14260D02*
D03*
X14285D02*
D03*
X14310D02*
D03*
X14335D02*
D03*
X14360D02*
D03*
X14385D02*
D03*
X14410D02*
D03*
X14435D02*
D03*
X14460D02*
D03*
X14485D02*
D03*
X14510D02*
D03*
X14725Y10254D02*
D03*
X14750D02*
D03*
X14775D02*
D03*
X14800D02*
D03*
X14825D02*
D03*
X14850D02*
D03*
X14875D02*
D03*
X14900D02*
D03*
X14925D02*
D03*
X14950D02*
D03*
X14975D02*
D03*
X15000D02*
D03*
X15025D02*
D03*
X15050D02*
D03*
X15075D02*
D03*
X15100D02*
D03*
X15125D02*
D03*
X15150D02*
D03*
X15175D02*
D03*
X15200D02*
D03*
X15225D02*
D03*
X15250D02*
D03*
X15275D02*
D03*
X15300D02*
D03*
X15325D02*
D03*
X15350D02*
D03*
D16*
X13007Y10226D02*
D03*
X13747D02*
D03*
X13847D02*
D03*
X14587D02*
D03*
X15427D02*
D03*
X14687D02*
D03*
D17*
X15628Y10666D02*
D03*
Y10776D02*
D03*
X12277Y10099D02*
D03*
Y10209D02*
D03*
X15773Y10663D02*
D03*
Y10773D02*
D03*
D18*
X11099Y13321D02*
D03*
X11189D02*
D03*
X12553Y11699D02*
D03*
X12463D02*
D03*
X16515Y11414D02*
D03*
X16425D02*
D03*
X16135Y10554D02*
D03*
X16225D02*
D03*
X16113Y12724D02*
D03*
X16203D02*
D03*
X16254Y12843D02*
D03*
X16344D02*
D03*
X16483Y12714D02*
D03*
X16393D02*
D03*
X15484Y11414D02*
D03*
X15394D02*
D03*
X15104Y10554D02*
D03*
X15194D02*
D03*
X15082Y12724D02*
D03*
X15172D02*
D03*
X15223Y12843D02*
D03*
X15313D02*
D03*
X15452Y12714D02*
D03*
X15362D02*
D03*
X14432Y11414D02*
D03*
X14342D02*
D03*
X14052Y10554D02*
D03*
X14142D02*
D03*
X14030Y12724D02*
D03*
X14120D02*
D03*
X14171Y12843D02*
D03*
X14261D02*
D03*
X14400Y12714D02*
D03*
X14310D02*
D03*
X13385Y11414D02*
D03*
X13295D02*
D03*
X13005Y10554D02*
D03*
X13095D02*
D03*
X12983Y12724D02*
D03*
X13073D02*
D03*
X13124Y12843D02*
D03*
X13214D02*
D03*
X13353Y12714D02*
D03*
X13263D02*
D03*
D19*
X11805Y11644D02*
D03*
Y11624D02*
D03*
Y11605D02*
D03*
Y11585D02*
D03*
Y11565D02*
D03*
Y11546D02*
D03*
Y11526D02*
D03*
Y11506D02*
D03*
Y11487D02*
D03*
Y11467D02*
D03*
Y11447D02*
D03*
Y11428D02*
D03*
X12086D02*
D03*
Y11447D02*
D03*
Y11467D02*
D03*
Y11487D02*
D03*
Y11506D02*
D03*
Y11526D02*
D03*
Y11546D02*
D03*
Y11565D02*
D03*
Y11585D02*
D03*
Y11605D02*
D03*
Y11624D02*
D03*
Y11644D02*
D03*
D20*
X11837Y11395D02*
D03*
X11857D02*
D03*
X11877D02*
D03*
X11896D02*
D03*
X11916D02*
D03*
X11936D02*
D03*
X11955D02*
D03*
X11975D02*
D03*
X11995D02*
D03*
X12015D02*
D03*
X12034D02*
D03*
X12054D02*
D03*
Y11677D02*
D03*
X12034D02*
D03*
X12015D02*
D03*
X11995D02*
D03*
X11975D02*
D03*
X11955D02*
D03*
X11936D02*
D03*
X11916D02*
D03*
X11896D02*
D03*
X11877D02*
D03*
X11857D02*
D03*
X11837D02*
D03*
D21*
X11946Y11536D02*
D03*
D22*
X16259Y11795D02*
D03*
X16233D02*
D03*
X16207D02*
D03*
X16182D02*
D03*
X16259Y11632D02*
D03*
X16233D02*
D03*
X16207D02*
D03*
X16182D02*
D03*
X15959Y11515D02*
D03*
X15933D02*
D03*
X15907D02*
D03*
X15882D02*
D03*
X15959Y11352D02*
D03*
X15933D02*
D03*
X15907D02*
D03*
X15882D02*
D03*
X15227Y11795D02*
D03*
X15201D02*
D03*
X15176D02*
D03*
X15150D02*
D03*
X15227Y11632D02*
D03*
X15201D02*
D03*
X15176D02*
D03*
X15150D02*
D03*
X14927Y11515D02*
D03*
X14901D02*
D03*
X14876D02*
D03*
X14850D02*
D03*
X14927Y11352D02*
D03*
X14901D02*
D03*
X14876D02*
D03*
X14850D02*
D03*
X14176Y11795D02*
D03*
X14150D02*
D03*
X14125D02*
D03*
X14099D02*
D03*
X14176Y11632D02*
D03*
X14150D02*
D03*
X14125D02*
D03*
X14099D02*
D03*
X13876Y11515D02*
D03*
X13850D02*
D03*
X13825D02*
D03*
X13799D02*
D03*
X13876Y11352D02*
D03*
X13850D02*
D03*
X13825D02*
D03*
X13799D02*
D03*
X13129Y11795D02*
D03*
X13103D02*
D03*
X13077D02*
D03*
X13052D02*
D03*
X13129Y11632D02*
D03*
X13103D02*
D03*
X13077D02*
D03*
X13052D02*
D03*
X12829Y11515D02*
D03*
X12803D02*
D03*
X12777D02*
D03*
X12752D02*
D03*
X12829Y11352D02*
D03*
X12803D02*
D03*
X12777D02*
D03*
X12752D02*
D03*
D23*
X16220Y11714D02*
D03*
X15920Y11434D02*
D03*
X15189Y11714D02*
D03*
X14889Y11434D02*
D03*
X14137Y11714D02*
D03*
X13837Y11434D02*
D03*
X13090Y11714D02*
D03*
X12790Y11434D02*
D03*
D24*
X16410Y11995D02*
D03*
Y12148D02*
D03*
X15379Y11995D02*
D03*
Y12148D02*
D03*
X14327Y11995D02*
D03*
Y12148D02*
D03*
X13280Y11995D02*
D03*
Y12148D02*
D03*
D25*
X16355Y11507D02*
D03*
X16405D02*
D03*
X16455D02*
D03*
X16505D02*
D03*
X16355Y11700D02*
D03*
X16405D02*
D03*
X16455D02*
D03*
X16505D02*
D03*
X15810Y11894D02*
D03*
X15860D02*
D03*
X15910D02*
D03*
X15960D02*
D03*
X15810Y12087D02*
D03*
X15860D02*
D03*
X15910D02*
D03*
X15960D02*
D03*
X16338Y10909D02*
D03*
X16388D02*
D03*
X16438D02*
D03*
X16488D02*
D03*
X16338Y11102D02*
D03*
X16388D02*
D03*
X16438D02*
D03*
X16488D02*
D03*
X16296Y12303D02*
D03*
X16346D02*
D03*
X16396D02*
D03*
X16446D02*
D03*
X16296Y12496D02*
D03*
X16346D02*
D03*
X16396D02*
D03*
X16446D02*
D03*
X15324Y11507D02*
D03*
X15374D02*
D03*
X15424D02*
D03*
X15474D02*
D03*
X15324Y11700D02*
D03*
X15374D02*
D03*
X15424D02*
D03*
X15474D02*
D03*
X14779Y11894D02*
D03*
X14829D02*
D03*
X14879D02*
D03*
X14929D02*
D03*
X14779Y12087D02*
D03*
X14829D02*
D03*
X14879D02*
D03*
X14929D02*
D03*
X15307Y10909D02*
D03*
X15357D02*
D03*
X15407D02*
D03*
X15457D02*
D03*
X15307Y11102D02*
D03*
X15357D02*
D03*
X15407D02*
D03*
X15457D02*
D03*
X15265Y12303D02*
D03*
X15315D02*
D03*
X15365D02*
D03*
X15415D02*
D03*
X15265Y12496D02*
D03*
X15315D02*
D03*
X15365D02*
D03*
X15415D02*
D03*
X14272Y11507D02*
D03*
X14322D02*
D03*
X14372D02*
D03*
X14422D02*
D03*
X14272Y11700D02*
D03*
X14322D02*
D03*
X14372D02*
D03*
X14422D02*
D03*
X13727Y11894D02*
D03*
X13777D02*
D03*
X13827D02*
D03*
X13877D02*
D03*
X13727Y12087D02*
D03*
X13777D02*
D03*
X13827D02*
D03*
X13877D02*
D03*
X14255Y10909D02*
D03*
X14305D02*
D03*
X14355D02*
D03*
X14405D02*
D03*
X14255Y11102D02*
D03*
X14305D02*
D03*
X14355D02*
D03*
X14405D02*
D03*
X14213Y12303D02*
D03*
X14263D02*
D03*
X14313D02*
D03*
X14363D02*
D03*
X14213Y12496D02*
D03*
X14263D02*
D03*
X14313D02*
D03*
X14363D02*
D03*
X13225Y11507D02*
D03*
X13275D02*
D03*
X13325D02*
D03*
X13375D02*
D03*
X13225Y11700D02*
D03*
X13275D02*
D03*
X13325D02*
D03*
X13375D02*
D03*
X12680Y11894D02*
D03*
X12730D02*
D03*
X12780D02*
D03*
X12830D02*
D03*
X12680Y12087D02*
D03*
X12730D02*
D03*
X12780D02*
D03*
X12830D02*
D03*
X13166Y12303D02*
D03*
X13216D02*
D03*
X13266D02*
D03*
X13316D02*
D03*
X13166Y12496D02*
D03*
X13216D02*
D03*
X13266D02*
D03*
X13316D02*
D03*
X13358Y11102D02*
D03*
X13308D02*
D03*
X13258D02*
D03*
X13208D02*
D03*
X13358Y10909D02*
D03*
X13308D02*
D03*
X13258D02*
D03*
X13208D02*
D03*
D26*
X16258Y11108D02*
D03*
X16208D02*
D03*
X16158D02*
D03*
X16108D02*
D03*
X16058D02*
D03*
X16008D02*
D03*
X15958D02*
D03*
X15908D02*
D03*
X16258Y10903D02*
D03*
X16208D02*
D03*
X16158D02*
D03*
X16108D02*
D03*
X16058D02*
D03*
X16008D02*
D03*
X15958D02*
D03*
X15908D02*
D03*
X15227Y11108D02*
D03*
X15177D02*
D03*
X15127D02*
D03*
X15077D02*
D03*
X15027D02*
D03*
X14977D02*
D03*
X14927D02*
D03*
X14877D02*
D03*
X15227Y10903D02*
D03*
X15177D02*
D03*
X15127D02*
D03*
X15077D02*
D03*
X15027D02*
D03*
X14977D02*
D03*
X14927D02*
D03*
X14877D02*
D03*
X14175Y11108D02*
D03*
X14125D02*
D03*
X14075D02*
D03*
X14025D02*
D03*
X13975D02*
D03*
X13925D02*
D03*
X13875D02*
D03*
X13825D02*
D03*
X14175Y10903D02*
D03*
X14125D02*
D03*
X14075D02*
D03*
X14025D02*
D03*
X13975D02*
D03*
X13925D02*
D03*
X13875D02*
D03*
X13825D02*
D03*
X13128Y11108D02*
D03*
X13078D02*
D03*
X13028D02*
D03*
X12978D02*
D03*
X12928D02*
D03*
X12878D02*
D03*
X12828D02*
D03*
X12778D02*
D03*
X13128Y10903D02*
D03*
X13078D02*
D03*
X13028D02*
D03*
X12978D02*
D03*
X12928D02*
D03*
X12878D02*
D03*
X12828D02*
D03*
X12778D02*
D03*
D27*
X16121Y11284D02*
D03*
Y11258D02*
D03*
Y11233D02*
D03*
Y11207D02*
D03*
X16285Y11284D02*
D03*
Y11258D02*
D03*
Y11233D02*
D03*
Y11207D02*
D03*
X15090Y11284D02*
D03*
Y11258D02*
D03*
Y11233D02*
D03*
Y11207D02*
D03*
X15253Y11284D02*
D03*
Y11258D02*
D03*
Y11233D02*
D03*
Y11207D02*
D03*
X14039Y11284D02*
D03*
Y11258D02*
D03*
Y11233D02*
D03*
Y11207D02*
D03*
X14202Y11284D02*
D03*
Y11258D02*
D03*
Y11233D02*
D03*
Y11207D02*
D03*
X12992Y11284D02*
D03*
Y11258D02*
D03*
Y11233D02*
D03*
Y11207D02*
D03*
X13155Y11284D02*
D03*
Y11258D02*
D03*
Y11233D02*
D03*
Y11207D02*
D03*
D28*
X16203Y11246D02*
D03*
X15172D02*
D03*
X14120D02*
D03*
X13073D02*
D03*
D29*
X16195Y12956D02*
D03*
X16215D02*
D03*
X16234D02*
D03*
X16254D02*
D03*
X16274D02*
D03*
X16293D02*
D03*
X16313D02*
D03*
X16333D02*
D03*
X16352D02*
D03*
X16372D02*
D03*
X16392D02*
D03*
X16411D02*
D03*
Y13279D02*
D03*
X16392D02*
D03*
X16372D02*
D03*
X16352D02*
D03*
X16333D02*
D03*
X16313D02*
D03*
X16293D02*
D03*
X16274D02*
D03*
X16254D02*
D03*
X16234D02*
D03*
X16215D02*
D03*
X16195D02*
D03*
X15163Y12956D02*
D03*
X15183D02*
D03*
X15203D02*
D03*
X15222D02*
D03*
X15242D02*
D03*
X15262D02*
D03*
X15282D02*
D03*
X15301D02*
D03*
X15321D02*
D03*
X15341D02*
D03*
X15360D02*
D03*
X15380D02*
D03*
Y13279D02*
D03*
X15360D02*
D03*
X15341D02*
D03*
X15321D02*
D03*
X15301D02*
D03*
X15282D02*
D03*
X15262D02*
D03*
X15242D02*
D03*
X15222D02*
D03*
X15203D02*
D03*
X15183D02*
D03*
X15163D02*
D03*
X13065Y12956D02*
D03*
X13085D02*
D03*
X13104D02*
D03*
X13124D02*
D03*
X13144D02*
D03*
X13163D02*
D03*
X13183D02*
D03*
X13203D02*
D03*
X13222D02*
D03*
X13242D02*
D03*
X13262D02*
D03*
X13282D02*
D03*
Y13279D02*
D03*
X13262D02*
D03*
X13242D02*
D03*
X13222D02*
D03*
X13203D02*
D03*
X13183D02*
D03*
X13163D02*
D03*
X13144D02*
D03*
X13124D02*
D03*
X13104D02*
D03*
X13085D02*
D03*
X13065D02*
D03*
X14112D02*
D03*
X14132D02*
D03*
X14152D02*
D03*
X14171D02*
D03*
X14191D02*
D03*
X14211D02*
D03*
X14230D02*
D03*
X14250D02*
D03*
X14270D02*
D03*
X14289D02*
D03*
X14309D02*
D03*
X14329D02*
D03*
Y12956D02*
D03*
X14309D02*
D03*
X14289D02*
D03*
X14270D02*
D03*
X14250D02*
D03*
X14230D02*
D03*
X14211D02*
D03*
X14191D02*
D03*
X14171D02*
D03*
X14152D02*
D03*
X14132D02*
D03*
X14112D02*
D03*
D30*
X16465Y13009D02*
D03*
Y13029D02*
D03*
Y13049D02*
D03*
Y13068D02*
D03*
Y13088D02*
D03*
Y13108D02*
D03*
Y13127D02*
D03*
Y13147D02*
D03*
Y13167D02*
D03*
Y13187D02*
D03*
Y13206D02*
D03*
Y13226D02*
D03*
X16142D02*
D03*
Y13206D02*
D03*
Y13187D02*
D03*
Y13167D02*
D03*
Y13147D02*
D03*
Y13127D02*
D03*
Y13108D02*
D03*
Y13088D02*
D03*
Y13068D02*
D03*
Y13049D02*
D03*
Y13029D02*
D03*
Y13009D02*
D03*
X15433D02*
D03*
Y13029D02*
D03*
Y13049D02*
D03*
Y13068D02*
D03*
Y13088D02*
D03*
Y13108D02*
D03*
Y13127D02*
D03*
Y13147D02*
D03*
Y13167D02*
D03*
Y13187D02*
D03*
Y13206D02*
D03*
Y13226D02*
D03*
X15110D02*
D03*
Y13206D02*
D03*
Y13187D02*
D03*
Y13167D02*
D03*
Y13147D02*
D03*
Y13127D02*
D03*
Y13108D02*
D03*
Y13088D02*
D03*
Y13068D02*
D03*
Y13049D02*
D03*
Y13029D02*
D03*
Y13009D02*
D03*
X13335D02*
D03*
Y13029D02*
D03*
Y13049D02*
D03*
Y13068D02*
D03*
Y13088D02*
D03*
Y13108D02*
D03*
Y13127D02*
D03*
Y13147D02*
D03*
Y13167D02*
D03*
Y13187D02*
D03*
Y13206D02*
D03*
Y13226D02*
D03*
X13012D02*
D03*
Y13206D02*
D03*
Y13187D02*
D03*
Y13167D02*
D03*
Y13147D02*
D03*
Y13127D02*
D03*
Y13108D02*
D03*
Y13088D02*
D03*
Y13068D02*
D03*
Y13049D02*
D03*
Y13029D02*
D03*
Y13009D02*
D03*
X14059D02*
D03*
Y13029D02*
D03*
Y13049D02*
D03*
Y13068D02*
D03*
Y13088D02*
D03*
Y13108D02*
D03*
Y13127D02*
D03*
Y13147D02*
D03*
Y13167D02*
D03*
Y13187D02*
D03*
Y13206D02*
D03*
Y13226D02*
D03*
X14382D02*
D03*
Y13206D02*
D03*
Y13187D02*
D03*
Y13167D02*
D03*
Y13147D02*
D03*
Y13127D02*
D03*
Y13108D02*
D03*
Y13088D02*
D03*
Y13068D02*
D03*
Y13049D02*
D03*
Y13029D02*
D03*
Y13009D02*
D03*
D31*
X16324Y12754D02*
D03*
X16298D02*
D03*
X16273D02*
D03*
X16324Y12693D02*
D03*
X16298D02*
D03*
X16273D02*
D03*
X15292Y12754D02*
D03*
X15267D02*
D03*
X15241D02*
D03*
X15292Y12693D02*
D03*
X15267D02*
D03*
X15241D02*
D03*
X14241Y12754D02*
D03*
X14215D02*
D03*
X14190D02*
D03*
X14241Y12693D02*
D03*
X14215D02*
D03*
X14190D02*
D03*
X13194Y12754D02*
D03*
X13168D02*
D03*
X13143D02*
D03*
X13194Y12693D02*
D03*
X13168D02*
D03*
X13143D02*
D03*
D32*
X11121Y13451D02*
D03*
Y13414D02*
D03*
Y13488D02*
D03*
D33*
X11338Y13285D02*
D03*
Y13266D02*
D03*
Y13246D02*
D03*
Y13226D02*
D03*
Y13207D02*
D03*
Y13187D02*
D03*
Y13167D02*
D03*
Y13148D02*
D03*
Y13128D02*
D03*
Y13108D02*
D03*
Y13089D02*
D03*
Y13069D02*
D03*
Y13049D02*
D03*
Y13029D02*
D03*
Y13010D02*
D03*
Y12990D02*
D03*
Y12970D02*
D03*
Y12951D02*
D03*
Y12931D02*
D03*
Y12911D02*
D03*
Y12892D02*
D03*
Y12872D02*
D03*
Y12852D02*
D03*
Y12833D02*
D03*
Y12813D02*
D03*
Y12793D02*
D03*
Y12774D02*
D03*
Y12754D02*
D03*
Y12734D02*
D03*
Y12715D02*
D03*
Y12695D02*
D03*
Y12675D02*
D03*
Y12655D02*
D03*
Y12636D02*
D03*
Y12616D02*
D03*
Y12596D02*
D03*
X12167D02*
D03*
Y12616D02*
D03*
Y12636D02*
D03*
Y12655D02*
D03*
Y12675D02*
D03*
Y12695D02*
D03*
Y12715D02*
D03*
Y12734D02*
D03*
Y12754D02*
D03*
Y12774D02*
D03*
Y12793D02*
D03*
Y12813D02*
D03*
Y12833D02*
D03*
Y12852D02*
D03*
Y12872D02*
D03*
Y12892D02*
D03*
Y12911D02*
D03*
Y12931D02*
D03*
Y12951D02*
D03*
Y12970D02*
D03*
Y12990D02*
D03*
Y13010D02*
D03*
Y13029D02*
D03*
Y13049D02*
D03*
Y13069D02*
D03*
Y13089D02*
D03*
Y13108D02*
D03*
Y13128D02*
D03*
Y13148D02*
D03*
Y13167D02*
D03*
Y13187D02*
D03*
Y13207D02*
D03*
Y13226D02*
D03*
Y13246D02*
D03*
Y13266D02*
D03*
Y13285D02*
D03*
D34*
X11408Y12527D02*
D03*
X11428D02*
D03*
X11448D02*
D03*
X11467D02*
D03*
X11487D02*
D03*
X11507D02*
D03*
X11526D02*
D03*
X11546D02*
D03*
X11566D02*
D03*
X11585D02*
D03*
X11605D02*
D03*
X11625D02*
D03*
X11644D02*
D03*
X11664D02*
D03*
X11684D02*
D03*
X11704D02*
D03*
X11723D02*
D03*
X11743D02*
D03*
X11763D02*
D03*
X11782D02*
D03*
X11802D02*
D03*
X11822D02*
D03*
X11841D02*
D03*
X11861D02*
D03*
X11881D02*
D03*
X11900D02*
D03*
X11920D02*
D03*
X11940D02*
D03*
X11959D02*
D03*
X11979D02*
D03*
X11999D02*
D03*
X12018D02*
D03*
X12038D02*
D03*
X12058D02*
D03*
X12078D02*
D03*
X12097D02*
D03*
Y13355D02*
D03*
X12078D02*
D03*
X12058D02*
D03*
X12038D02*
D03*
X12018D02*
D03*
X11999D02*
D03*
X11979D02*
D03*
X11959D02*
D03*
X11940D02*
D03*
X11920D02*
D03*
X11900D02*
D03*
X11881D02*
D03*
X11861D02*
D03*
X11841D02*
D03*
X11822D02*
D03*
X11802D02*
D03*
X11782D02*
D03*
X11763D02*
D03*
X11743D02*
D03*
X11723D02*
D03*
X11704D02*
D03*
X11684D02*
D03*
X11664D02*
D03*
X11644D02*
D03*
X11625D02*
D03*
X11605D02*
D03*
X11585D02*
D03*
X11566D02*
D03*
X11546D02*
D03*
X11526D02*
D03*
X11507D02*
D03*
X11487D02*
D03*
X11467D02*
D03*
X11448D02*
D03*
X11428D02*
D03*
X11408D02*
D03*
D35*
X11382Y11791D02*
D03*
Y11760D02*
D03*
Y11728D02*
D03*
Y11697D02*
D03*
X11305D02*
D03*
Y11728D02*
D03*
Y11760D02*
D03*
Y11791D02*
D03*
D36*
X13607Y10835D02*
D03*
Y10605D02*
D03*
D37*
X11047Y10736D02*
D03*
X11230Y13957D02*
D03*
X16492Y10318D02*
D03*
X12124Y11319D02*
D03*
X11724Y11785D02*
D03*
X12222Y12457D02*
D03*
X11291Y12495D02*
D03*
X11385Y13567D02*
D03*
X13473Y12960D02*
D03*
X12852Y12955D02*
D03*
X13449Y13360D02*
D03*
X14496D02*
D03*
X13899Y12955D02*
D03*
X14520Y12960D02*
D03*
X15548Y13360D02*
D03*
X14951Y12955D02*
D03*
X15572Y12960D02*
D03*
X16579Y13360D02*
D03*
X15982Y12955D02*
D03*
X16603Y12960D02*
D03*
D42*
X9847Y14333D02*
X10347D01*
X10097Y14083D02*
Y14583D01*
X10147Y14283D02*
Y14333D01*
X10097Y14283D02*
X10147D01*
X10047Y14333D02*
Y14383D01*
X10097D01*
X10052Y14338D02*
X10092D01*
X10052D02*
Y14378D01*
X10092D01*
Y14338D02*
Y14378D01*
X10057Y14343D02*
X10087D01*
X10057D02*
Y14373D01*
X10087D01*
Y14348D02*
Y14373D01*
X10062Y14348D02*
X10082D01*
X10062D02*
Y14368D01*
X10082D01*
Y14353D02*
Y14368D01*
X10067Y14353D02*
X10077D01*
X10067D02*
Y14363D01*
X10077D01*
Y14353D02*
Y14363D01*
X10067Y14358D02*
X10077D01*
X10102Y14288D02*
X10142D01*
X10102D02*
Y14328D01*
X10142D01*
Y14288D02*
Y14328D01*
X10107Y14293D02*
X10137D01*
X10107D02*
Y14323D01*
X10137D01*
Y14298D02*
Y14323D01*
X10112Y14298D02*
X10132D01*
X10112D02*
Y14318D01*
X10132D01*
Y14303D02*
Y14318D01*
X10117Y14303D02*
X10127D01*
X10117D02*
Y14313D01*
X10127D01*
Y14303D02*
Y14313D01*
X10117Y14308D02*
X10127D01*
X9885Y9227D02*
X10385D01*
X10135Y8977D02*
Y9477D01*
X10185Y9177D02*
Y9227D01*
X10135Y9177D02*
X10185D01*
X10085Y9227D02*
Y9277D01*
X10135D01*
X10090Y9232D02*
X10130D01*
X10090D02*
Y9272D01*
X10130D01*
Y9232D02*
Y9272D01*
X10095Y9237D02*
X10125D01*
X10095D02*
Y9267D01*
X10125D01*
Y9242D02*
Y9267D01*
X10100Y9242D02*
X10120D01*
X10100D02*
Y9262D01*
X10120D01*
Y9247D02*
Y9262D01*
X10105Y9247D02*
X10115D01*
X10105D02*
Y9257D01*
X10115D01*
Y9247D02*
Y9257D01*
X10105Y9252D02*
X10115D01*
X10140Y9182D02*
X10180D01*
X10140D02*
Y9222D01*
X10180D01*
Y9182D02*
Y9222D01*
X10145Y9187D02*
X10175D01*
X10145D02*
Y9217D01*
X10175D01*
Y9192D02*
Y9217D01*
X10150Y9192D02*
X10170D01*
X10150D02*
Y9212D01*
X10170D01*
Y9197D02*
Y9212D01*
X10155Y9197D02*
X10165D01*
X10155D02*
Y9207D01*
X10165D01*
Y9197D02*
Y9207D01*
X10155Y9202D02*
X10165D01*
X17097Y14446D02*
X17597D01*
X17347Y14196D02*
Y14696D01*
X17397Y14396D02*
Y14446D01*
X17347Y14396D02*
X17397D01*
X17297Y14446D02*
Y14496D01*
X17347D01*
X17302Y14451D02*
X17342D01*
X17302D02*
Y14491D01*
X17342D01*
Y14451D02*
Y14491D01*
X17307Y14456D02*
X17337D01*
X17307D02*
Y14486D01*
X17337D01*
Y14461D02*
Y14486D01*
X17312Y14461D02*
X17332D01*
X17312D02*
Y14481D01*
X17332D01*
Y14466D02*
Y14481D01*
X17317Y14466D02*
X17327D01*
X17317D02*
Y14476D01*
X17327D01*
Y14466D02*
Y14476D01*
X17317Y14471D02*
X17327D01*
X17352Y14401D02*
X17392D01*
X17352D02*
Y14441D01*
X17392D01*
Y14401D02*
Y14441D01*
X17357Y14406D02*
X17387D01*
X17357D02*
Y14436D01*
X17387D01*
Y14411D02*
Y14436D01*
X17362Y14411D02*
X17382D01*
X17362D02*
Y14431D01*
X17382D01*
Y14416D02*
Y14431D01*
X17367Y14416D02*
X17377D01*
X17367D02*
Y14426D01*
X17377D01*
Y14416D02*
Y14426D01*
X17367Y14421D02*
X17377D01*
D43*
X12223Y8569D02*
Y8489D01*
X12269D01*
X12339D02*
X12308Y8569D01*
X12278Y8489D01*
X12289Y8516D02*
X12327D01*
X12411Y8557D02*
X12403Y8565D01*
X12392Y8569D01*
X12376D01*
X12365Y8565D01*
X12357Y8557D01*
Y8550D01*
X12361Y8542D01*
X12365Y8538D01*
X12372Y8535D01*
X12395Y8527D01*
X12403Y8523D01*
X12407Y8519D01*
X12411Y8512D01*
Y8500D01*
X12403Y8493D01*
X12392Y8489D01*
X12376D01*
X12365Y8493D01*
X12357Y8500D01*
X12548Y8550D02*
X12545Y8557D01*
X12537Y8565D01*
X12529Y8569D01*
X12514D01*
X12507Y8565D01*
X12499Y8557D01*
X12495Y8550D01*
X12491Y8538D01*
Y8519D01*
X12495Y8508D01*
X12499Y8500D01*
X12507Y8493D01*
X12514Y8489D01*
X12529D01*
X12537Y8493D01*
X12545Y8500D01*
X12548Y8508D01*
X12571Y8569D02*
Y8512D01*
X12575Y8500D01*
X12582Y8493D01*
X12594Y8489D01*
X12601D01*
X12613Y8493D01*
X12620Y8500D01*
X12624Y8512D01*
Y8569D01*
X12646D02*
Y8489D01*
Y8569D02*
X12677Y8489D01*
X12707Y8569D02*
X12677Y8489D01*
X12707Y8569D02*
Y8489D01*
X12730Y8569D02*
Y8489D01*
Y8569D02*
X12764D01*
X12776Y8565D01*
X12780Y8561D01*
X12783Y8554D01*
Y8546D01*
X12780Y8538D01*
X12776Y8535D01*
X12764Y8531D01*
X12730D02*
X12764D01*
X12776Y8527D01*
X12780Y8523D01*
X12783Y8516D01*
Y8504D01*
X12780Y8496D01*
X12776Y8493D01*
X12764Y8489D01*
X12730D01*
X12801Y8569D02*
Y8489D01*
Y8569D02*
X12836D01*
X12847Y8565D01*
X12851Y8561D01*
X12855Y8554D01*
Y8546D01*
X12851Y8538D01*
X12847Y8535D01*
X12836Y8531D01*
X12801D01*
X12828D02*
X12855Y8489D01*
X12922Y8569D02*
X12873D01*
Y8489D01*
X12922D01*
X12873Y8531D02*
X12903D01*
X12989Y8557D02*
X12981Y8565D01*
X12970Y8569D01*
X12954D01*
X12943Y8565D01*
X12935Y8557D01*
Y8550D01*
X12939Y8542D01*
X12943Y8538D01*
X12951Y8535D01*
X12973Y8527D01*
X12981Y8523D01*
X12985Y8519D01*
X12989Y8512D01*
Y8500D01*
X12981Y8493D01*
X12970Y8489D01*
X12954D01*
X12943Y8493D01*
X12935Y8500D01*
X13092Y8569D02*
X13085Y8565D01*
X13077Y8557D01*
X13073Y8550D01*
X13069Y8538D01*
Y8519D01*
X13073Y8508D01*
X13077Y8500D01*
X13085Y8493D01*
X13092Y8489D01*
X13108D01*
X13115Y8493D01*
X13123Y8500D01*
X13127Y8508D01*
X13130Y8519D01*
Y8538D01*
X13127Y8550D01*
X13123Y8557D01*
X13115Y8565D01*
X13108Y8569D01*
X13092D01*
X13149D02*
Y8489D01*
Y8569D02*
X13183D01*
X13195Y8565D01*
X13199Y8561D01*
X13202Y8554D01*
Y8546D01*
X13199Y8538D01*
X13195Y8535D01*
X13183Y8531D01*
X13149D02*
X13183D01*
X13195Y8527D01*
X13199Y8523D01*
X13202Y8516D01*
Y8504D01*
X13199Y8496D01*
X13195Y8493D01*
X13183Y8489D01*
X13149D01*
X13274Y8557D02*
X13266Y8565D01*
X13255Y8569D01*
X13239D01*
X13228Y8565D01*
X13220Y8557D01*
Y8550D01*
X13224Y8542D01*
X13228Y8538D01*
X13236Y8535D01*
X13258Y8527D01*
X13266Y8523D01*
X13270Y8519D01*
X13274Y8512D01*
Y8500D01*
X13266Y8493D01*
X13255Y8489D01*
X13239D01*
X13228Y8493D01*
X13220Y8500D01*
X13341Y8569D02*
X13292D01*
Y8489D01*
X13341D01*
X13292Y8531D02*
X13322D01*
X13354Y8569D02*
Y8489D01*
Y8569D02*
X13389D01*
X13400Y8565D01*
X13404Y8561D01*
X13408Y8554D01*
Y8546D01*
X13404Y8538D01*
X13400Y8535D01*
X13389Y8531D01*
X13354D01*
X13381D02*
X13408Y8489D01*
X13426Y8569D02*
X13456Y8489D01*
X13487Y8569D02*
X13456Y8489D01*
X13558D02*
X13527Y8569D01*
X13497Y8489D01*
X13508Y8516D02*
X13546D01*
X13603Y8569D02*
Y8489D01*
X13576Y8569D02*
X13630D01*
X13662D02*
X13654Y8565D01*
X13647Y8557D01*
X13643Y8550D01*
X13639Y8538D01*
Y8519D01*
X13643Y8508D01*
X13647Y8500D01*
X13654Y8493D01*
X13662Y8489D01*
X13677D01*
X13685Y8493D01*
X13693Y8500D01*
X13696Y8508D01*
X13700Y8519D01*
Y8538D01*
X13696Y8550D01*
X13693Y8557D01*
X13685Y8565D01*
X13677Y8569D01*
X13662D01*
X13719D02*
Y8489D01*
Y8569D02*
X13753D01*
X13765Y8565D01*
X13768Y8561D01*
X13772Y8554D01*
Y8546D01*
X13768Y8538D01*
X13765Y8535D01*
X13753Y8531D01*
X13719D01*
X13746D02*
X13772Y8489D01*
X13790Y8569D02*
X13821Y8531D01*
Y8489D01*
X13851Y8569D02*
X13821Y8531D01*
X14221Y8557D02*
X14217Y8565D01*
X14206Y8569D01*
X14198D01*
X14187Y8565D01*
X14179Y8554D01*
X14176Y8535D01*
Y8516D01*
X14179Y8500D01*
X14187Y8493D01*
X14198Y8489D01*
X14202D01*
X14214Y8493D01*
X14221Y8500D01*
X14225Y8512D01*
Y8516D01*
X14221Y8527D01*
X14214Y8535D01*
X14202Y8538D01*
X14198D01*
X14187Y8535D01*
X14179Y8527D01*
X14176Y8516D01*
X14243Y8477D02*
X14296Y8569D01*
X14305Y8550D02*
Y8554D01*
X14309Y8561D01*
X14313Y8565D01*
X14320Y8569D01*
X14335D01*
X14343Y8565D01*
X14347Y8561D01*
X14351Y8554D01*
Y8546D01*
X14347Y8538D01*
X14339Y8527D01*
X14301Y8489D01*
X14355D01*
X14372Y8477D02*
X14426Y8569D01*
X14435Y8550D02*
Y8554D01*
X14439Y8561D01*
X14443Y8565D01*
X14450Y8569D01*
X14465D01*
X14473Y8565D01*
X14477Y8561D01*
X14481Y8554D01*
Y8546D01*
X14477Y8538D01*
X14469Y8527D01*
X14431Y8489D01*
X14484D01*
X14525Y8569D02*
X14514Y8565D01*
X14506Y8554D01*
X14502Y8535D01*
Y8523D01*
X14506Y8504D01*
X14514Y8493D01*
X14525Y8489D01*
X14533D01*
X14544Y8493D01*
X14552Y8504D01*
X14556Y8523D01*
Y8535D01*
X14552Y8554D01*
X14544Y8565D01*
X14533Y8569D01*
X14525D01*
X14596D02*
X14585Y8565D01*
X14577Y8554D01*
X14574Y8535D01*
Y8523D01*
X14577Y8504D01*
X14585Y8493D01*
X14596Y8489D01*
X14604D01*
X14615Y8493D01*
X14623Y8504D01*
X14627Y8523D01*
Y8535D01*
X14623Y8554D01*
X14615Y8565D01*
X14604Y8569D01*
X14596D01*
X14694Y8542D02*
X14690Y8531D01*
X14683Y8523D01*
X14671Y8519D01*
X14668D01*
X14656Y8523D01*
X14649Y8531D01*
X14645Y8542D01*
Y8546D01*
X14649Y8557D01*
X14656Y8565D01*
X14668Y8569D01*
X14671D01*
X14683Y8565D01*
X14690Y8557D01*
X14694Y8542D01*
Y8523D01*
X14690Y8504D01*
X14683Y8493D01*
X14671Y8489D01*
X14664D01*
X14652Y8493D01*
X14649Y8500D01*
D44*
X11970Y5972D02*
Y5926D01*
X11951Y5961D02*
X11989Y5938D01*
Y5961D02*
X11951Y5938D01*
X12009Y5900D02*
X12006Y5896D01*
X12009Y5892D01*
X12013Y5896D01*
X12009Y5900D01*
X12088Y5953D02*
X12084Y5961D01*
X12076Y5968D01*
X12069Y5972D01*
X12054D01*
X12046Y5968D01*
X12038Y5961D01*
X12035Y5953D01*
X12031Y5942D01*
Y5923D01*
X12035Y5911D01*
X12038Y5904D01*
X12046Y5896D01*
X12054Y5892D01*
X12069D01*
X12076Y5896D01*
X12084Y5904D01*
X12088Y5911D01*
Y5923D01*
X12069D02*
X12088D01*
X12133Y5972D02*
Y5892D01*
X12106Y5972D02*
X12159D01*
X12169Y5930D02*
X12203D01*
X12215Y5934D01*
X12219Y5938D01*
X12222Y5946D01*
Y5957D01*
X12219Y5965D01*
X12215Y5968D01*
X12203Y5972D01*
X12169D01*
Y5892D01*
X12303Y5926D02*
X12372D01*
X12485Y5972D02*
Y5892D01*
X12458Y5972D02*
X12511D01*
X12544D02*
X12536Y5968D01*
X12529Y5961D01*
X12525Y5953D01*
X12521Y5942D01*
Y5923D01*
X12525Y5911D01*
X12529Y5904D01*
X12536Y5896D01*
X12544Y5892D01*
X12559D01*
X12567Y5896D01*
X12574Y5904D01*
X12578Y5911D01*
X12582Y5923D01*
Y5942D01*
X12578Y5953D01*
X12574Y5961D01*
X12567Y5968D01*
X12559Y5972D01*
X12544D01*
X12601Y5930D02*
X12635D01*
X12646Y5934D01*
X12650Y5938D01*
X12654Y5946D01*
Y5957D01*
X12650Y5965D01*
X12646Y5968D01*
X12635Y5972D01*
X12601D01*
Y5892D01*
X12672Y5926D02*
X12740D01*
X12817Y5961D02*
X12810Y5968D01*
X12798Y5972D01*
X12783D01*
X12772Y5968D01*
X12764Y5961D01*
Y5953D01*
X12768Y5946D01*
X12772Y5942D01*
X12779Y5938D01*
X12802Y5930D01*
X12810Y5926D01*
X12813Y5923D01*
X12817Y5915D01*
Y5904D01*
X12810Y5896D01*
X12798Y5892D01*
X12783D01*
X12772Y5896D01*
X12764Y5904D01*
X12835Y5972D02*
Y5892D01*
X12852Y5972D02*
Y5892D01*
Y5972D02*
X12879D01*
X12890Y5968D01*
X12898Y5961D01*
X12901Y5953D01*
X12905Y5942D01*
Y5923D01*
X12901Y5911D01*
X12898Y5904D01*
X12890Y5896D01*
X12879Y5892D01*
X12852D01*
X12973Y5972D02*
X12923D01*
Y5892D01*
X12973D01*
X12923Y5934D02*
X12954D01*
X13102Y5961D02*
X13095Y5968D01*
X13083Y5972D01*
X13068D01*
X13056Y5968D01*
X13049Y5961D01*
Y5953D01*
X13053Y5946D01*
X13056Y5942D01*
X13064Y5938D01*
X13087Y5930D01*
X13095Y5926D01*
X13098Y5923D01*
X13102Y5915D01*
Y5904D01*
X13095Y5896D01*
X13083Y5892D01*
X13068D01*
X13056Y5896D01*
X13049Y5904D01*
X13143Y5972D02*
X13135Y5968D01*
X13128Y5961D01*
X13124Y5953D01*
X13120Y5942D01*
Y5923D01*
X13124Y5911D01*
X13128Y5904D01*
X13135Y5896D01*
X13143Y5892D01*
X13158D01*
X13166Y5896D01*
X13173Y5904D01*
X13177Y5911D01*
X13181Y5923D01*
Y5942D01*
X13177Y5953D01*
X13173Y5961D01*
X13166Y5968D01*
X13158Y5972D01*
X13143D01*
X13200D02*
Y5892D01*
X13245D01*
X13254Y5972D02*
Y5892D01*
Y5972D02*
X13281D01*
X13292Y5968D01*
X13300Y5961D01*
X13304Y5953D01*
X13307Y5942D01*
Y5923D01*
X13304Y5911D01*
X13300Y5904D01*
X13292Y5896D01*
X13281Y5892D01*
X13254D01*
X13375Y5972D02*
X13325D01*
Y5892D01*
X13375D01*
X13325Y5934D02*
X13356D01*
X13388Y5972D02*
Y5892D01*
Y5972D02*
X13422D01*
X13434Y5968D01*
X13438Y5965D01*
X13441Y5957D01*
Y5949D01*
X13438Y5942D01*
X13434Y5938D01*
X13422Y5934D01*
X13388D01*
X13415D02*
X13441Y5892D01*
X13522Y5930D02*
X13557D01*
X13568Y5934D01*
X13572Y5938D01*
X13576Y5946D01*
Y5957D01*
X13572Y5965D01*
X13568Y5968D01*
X13557Y5972D01*
X13522D01*
Y5892D01*
X13654D02*
X13624Y5972D01*
X13593Y5892D01*
X13605Y5919D02*
X13643D01*
X13726Y5961D02*
X13719Y5968D01*
X13707Y5972D01*
X13692D01*
X13681Y5968D01*
X13673Y5961D01*
Y5953D01*
X13677Y5946D01*
X13681Y5942D01*
X13688Y5938D01*
X13711Y5930D01*
X13719Y5926D01*
X13723Y5923D01*
X13726Y5915D01*
Y5904D01*
X13719Y5896D01*
X13707Y5892D01*
X13692D01*
X13681Y5896D01*
X13673Y5904D01*
X13771Y5972D02*
Y5892D01*
X13744Y5972D02*
X13798D01*
X13857D02*
X13807D01*
Y5892D01*
X13857D01*
X13807Y5934D02*
X13838D01*
X13933Y5972D02*
Y5892D01*
Y5972D02*
X13963Y5892D01*
X13994Y5972D02*
X13963Y5892D01*
X13994Y5972D02*
Y5892D01*
X14078D02*
X14047Y5972D01*
X14017Y5892D01*
X14028Y5919D02*
X14066D01*
X14150Y5961D02*
X14142Y5968D01*
X14130Y5972D01*
X14115D01*
X14104Y5968D01*
X14096Y5961D01*
Y5953D01*
X14100Y5946D01*
X14104Y5942D01*
X14111Y5938D01*
X14134Y5930D01*
X14142Y5926D01*
X14146Y5923D01*
X14150Y5915D01*
Y5904D01*
X14142Y5896D01*
X14130Y5892D01*
X14115D01*
X14104Y5896D01*
X14096Y5904D01*
X14167Y5972D02*
Y5892D01*
X14221Y5972D02*
X14167Y5919D01*
X14186Y5938D02*
X14221Y5892D01*
X12284Y8639D02*
X12254Y8719D01*
X12223Y8639D01*
X12235Y8666D02*
X12273D01*
X12356Y8707D02*
X12348Y8715D01*
X12337Y8719D01*
X12322D01*
X12310Y8715D01*
X12303Y8707D01*
Y8700D01*
X12307Y8692D01*
X12310Y8688D01*
X12318Y8685D01*
X12341Y8677D01*
X12348Y8673D01*
X12352Y8669D01*
X12356Y8662D01*
Y8650D01*
X12348Y8643D01*
X12337Y8639D01*
X12322D01*
X12310Y8643D01*
X12303Y8650D01*
X12374Y8677D02*
X12408D01*
X12420Y8681D01*
X12424Y8685D01*
X12427Y8692D01*
Y8704D01*
X12424Y8711D01*
X12420Y8715D01*
X12408Y8719D01*
X12374D01*
Y8639D01*
X12508Y8719D02*
Y8639D01*
Y8719D02*
X12542D01*
X12554Y8715D01*
X12558Y8711D01*
X12561Y8704D01*
Y8696D01*
X12558Y8688D01*
X12554Y8685D01*
X12542Y8681D01*
X12508D02*
X12542D01*
X12554Y8677D01*
X12558Y8673D01*
X12561Y8666D01*
Y8654D01*
X12558Y8646D01*
X12554Y8643D01*
X12542Y8639D01*
X12508D01*
X12602Y8719D02*
X12595Y8715D01*
X12587Y8707D01*
X12583Y8700D01*
X12579Y8688D01*
Y8669D01*
X12583Y8658D01*
X12587Y8650D01*
X12595Y8643D01*
X12602Y8639D01*
X12617D01*
X12625Y8643D01*
X12633Y8650D01*
X12636Y8658D01*
X12640Y8669D01*
Y8688D01*
X12636Y8700D01*
X12633Y8707D01*
X12625Y8715D01*
X12617Y8719D01*
X12602D01*
X12720Y8639D02*
X12689Y8719D01*
X12659Y8639D01*
X12670Y8666D02*
X12708D01*
X12738Y8719D02*
Y8639D01*
Y8719D02*
X12773D01*
X12784Y8715D01*
X12788Y8711D01*
X12792Y8704D01*
Y8696D01*
X12788Y8688D01*
X12784Y8685D01*
X12773Y8681D01*
X12738D01*
X12765D02*
X12792Y8639D01*
X12810Y8719D02*
Y8639D01*
Y8719D02*
X12836D01*
X12848Y8715D01*
X12855Y8707D01*
X12859Y8700D01*
X12863Y8688D01*
Y8669D01*
X12859Y8658D01*
X12855Y8650D01*
X12848Y8643D01*
X12836Y8639D01*
X12810D01*
X12944Y8719D02*
Y8639D01*
Y8719D02*
X12978D01*
X12989Y8715D01*
X12993Y8711D01*
X12997Y8704D01*
Y8696D01*
X12993Y8688D01*
X12989Y8685D01*
X12978Y8681D01*
X12944D01*
X12970D02*
X12997Y8639D01*
X13015Y8669D02*
X13061D01*
Y8677D01*
X13057Y8685D01*
X13053Y8688D01*
X13045Y8692D01*
X13034D01*
X13026Y8688D01*
X13019Y8681D01*
X13015Y8669D01*
Y8662D01*
X13019Y8650D01*
X13026Y8643D01*
X13034Y8639D01*
X13045D01*
X13053Y8643D01*
X13061Y8650D01*
X13078Y8692D02*
X13101Y8639D01*
X13124Y8692D02*
X13101Y8639D01*
X13140Y8646D02*
X13137Y8643D01*
X13140Y8639D01*
X13144Y8643D01*
X13140Y8646D01*
X13285Y8639D02*
X13255Y8719D01*
X13224Y8639D01*
X13236Y8666D02*
X13274D01*
D85*
X16220Y11713D02*
D03*
X15920Y11433D02*
D03*
X15188Y11713D02*
D03*
X14888Y11433D02*
D03*
X14137Y11713D02*
D03*
X13837Y11433D02*
D03*
X13090Y11713D02*
D03*
X12790Y11433D02*
D03*
D86*
X16203Y11245D02*
D03*
X15172Y11245D02*
D03*
X14121Y11245D02*
D03*
X13073Y11245D02*
D03*
M02*
