%FSLAX23Y23*%
%MOIN*%
G70*
G01*
G75*
G04 Layer_Color=65535*
%ADD10C,0.005*%
%ADD11R,0.050X0.050*%
%ADD12O,0.098X0.028*%
%ADD13R,0.036X0.036*%
%ADD14R,0.030X0.100*%
%ADD15R,0.014X0.060*%
%ADD16R,0.031X0.060*%
%ADD17R,0.048X0.078*%
%ADD18R,0.050X0.050*%
%ADD19O,0.033X0.008*%
%ADD20O,0.008X0.033*%
%ADD21R,0.228X0.228*%
%ADD22R,0.016X0.061*%
%ADD23R,0.074X0.062*%
%ADD24R,0.134X0.075*%
%ADD25O,0.028X0.098*%
%ADD26R,0.024X0.087*%
%ADD27R,0.061X0.016*%
%ADD28R,0.062X0.074*%
%ADD29O,0.012X0.083*%
%ADD30O,0.083X0.012*%
%ADD31R,0.014X0.049*%
%ADD32R,0.036X0.028*%
%ADD33O,0.061X0.010*%
%ADD34O,0.010X0.061*%
%ADD35R,0.045X0.017*%
%ADD36R,0.100X0.100*%
%ADD37C,0.040*%
%ADD38C,0.025*%
%ADD39C,0.010*%
%ADD40C,0.012*%
%ADD41R,1.181X0.787*%
%ADD42C,0.008*%
%ADD43C,0.012*%
%ADD44C,0.012*%
%ADD45C,0.050*%
%ADD46C,0.026*%
%ADD47P,0.057X4X247.5*%
%ADD48C,0.080*%
%ADD49C,0.020*%
%ADD50R,0.060X0.060*%
%ADD51C,0.060*%
%ADD52R,0.060X0.060*%
%ADD53C,0.059*%
%ADD54R,0.059X0.059*%
%ADD55R,0.059X0.059*%
%ADD56C,0.236*%
%ADD57C,0.024*%
%ADD58C,0.040*%
%ADD59C,0.100*%
%ADD60C,0.045*%
%ADD61C,0.033*%
%ADD62C,0.072*%
%ADD63C,0.030*%
%ADD64C,0.055*%
G04:AMPARAMS|DCode=65|XSize=95.433mil|YSize=95.433mil|CornerRadius=0mil|HoleSize=0mil|Usage=FLASHONLY|Rotation=0.000|XOffset=0mil|YOffset=0mil|HoleType=Round|Shape=Relief|Width=10mil|Gap=10mil|Entries=4|*
%AMTHD65*
7,0,0,0.095,0.075,0.010,45*
%
%ADD65THD65*%
G04:AMPARAMS|DCode=66|XSize=112mil|YSize=112mil|CornerRadius=0mil|HoleSize=0mil|Usage=FLASHONLY|Rotation=0.000|XOffset=0mil|YOffset=0mil|HoleType=Round|Shape=Relief|Width=10mil|Gap=10mil|Entries=4|*
%AMTHD66*
7,0,0,0.112,0.092,0.010,45*
%
%ADD66THD66*%
%ADD67C,0.138*%
G04:AMPARAMS|DCode=68|XSize=70mil|YSize=70mil|CornerRadius=0mil|HoleSize=0mil|Usage=FLASHONLY|Rotation=0.000|XOffset=0mil|YOffset=0mil|HoleType=Round|Shape=Relief|Width=10mil|Gap=10mil|Entries=4|*
%AMTHD68*
7,0,0,0.070,0.050,0.010,45*
%
%ADD68THD68*%
%ADD69C,0.030*%
G04:AMPARAMS|DCode=70|XSize=85mil|YSize=85mil|CornerRadius=0mil|HoleSize=0mil|Usage=FLASHONLY|Rotation=0.000|XOffset=0mil|YOffset=0mil|HoleType=Round|Shape=Relief|Width=10mil|Gap=10mil|Entries=4|*
%AMTHD70*
7,0,0,0.085,0.065,0.010,45*
%
%ADD70THD70*%
%ADD71R,0.078X0.048*%
%ADD72R,0.060X0.086*%
%ADD73R,0.086X0.060*%
%ADD74R,0.075X0.063*%
%ADD75R,0.044X0.096*%
%ADD76R,1.181X0.787*%
%ADD77C,0.010*%
%ADD78C,0.010*%
%ADD79C,0.008*%
%ADD80C,0.024*%
%ADD81C,0.004*%
%ADD82C,0.006*%
%ADD83C,0.007*%
%ADD84R,0.240X0.165*%
D10*
X11965Y11900D02*
X11960Y11895D01*
Y11885D01*
X11965Y11880D01*
X11985D01*
X11990Y11885D01*
Y11895D01*
X11985Y11900D01*
X11960Y11930D02*
X11965Y11920D01*
X11975Y11910D01*
X11985D01*
X11990Y11915D01*
Y11925D01*
X11985Y11930D01*
X11980D01*
X11975Y11925D01*
Y11910D01*
X11990Y11940D02*
Y11950D01*
Y11945D01*
X11960D01*
X11965Y11940D01*
X11968Y12300D02*
X11963Y12295D01*
Y12285D01*
X11968Y12280D01*
X11988D01*
X11993Y12285D01*
Y12295D01*
X11988Y12300D01*
X11963Y12330D02*
X11968Y12320D01*
X11978Y12310D01*
X11988D01*
X11993Y12315D01*
Y12325D01*
X11988Y12330D01*
X11983D01*
X11978Y12325D01*
Y12310D01*
X11968Y12340D02*
X11963Y12345D01*
Y12355D01*
X11968Y12360D01*
X11988D01*
X11993Y12355D01*
Y12345D01*
X11988Y12340D01*
X11968D01*
X15955Y10274D02*
Y10249D01*
X15960Y10244D01*
X15970D01*
X15975Y10249D01*
Y10274D01*
X15985Y10244D02*
X15995D01*
X15990D01*
Y10274D01*
X15985Y10269D01*
X16030Y10274D02*
X16010D01*
Y10259D01*
X16020Y10264D01*
X16025D01*
X16030Y10259D01*
Y10249D01*
X16025Y10244D01*
X16015D01*
X16010Y10249D01*
X16190Y10393D02*
Y10413D01*
X16185Y10418D01*
X16175D01*
X16170Y10413D01*
Y10393D01*
X16175Y10388D01*
X16185D01*
X16180Y10398D02*
X16190Y10388D01*
X16185D02*
X16190Y10393D01*
X16200Y10388D02*
X16210D01*
X16205D01*
Y10418D01*
X16200Y10413D01*
X15619Y10887D02*
X15614Y10892D01*
X15604D01*
X15599Y10887D01*
Y10867D01*
X15604Y10862D01*
X15614D01*
X15619Y10867D01*
X15649Y10892D02*
X15629D01*
Y10877D01*
X15639Y10882D01*
X15644D01*
X15649Y10877D01*
Y10867D01*
X15644Y10862D01*
X15634D01*
X15629Y10867D01*
X15659Y10892D02*
X15679D01*
Y10887D01*
X15659Y10867D01*
Y10862D01*
X12159Y10265D02*
X12154Y10270D01*
X12144D01*
X12139Y10265D01*
Y10245D01*
X12144Y10240D01*
X12154D01*
X12159Y10245D01*
X12189Y10270D02*
X12169D01*
Y10255D01*
X12179Y10260D01*
X12184D01*
X12189Y10255D01*
Y10245D01*
X12184Y10240D01*
X12174D01*
X12169Y10245D01*
X12219Y10270D02*
X12199D01*
Y10255D01*
X12209Y10260D01*
X12214D01*
X12219Y10255D01*
Y10245D01*
X12214Y10240D01*
X12204D01*
X12199Y10245D01*
X11828Y11750D02*
Y11725D01*
X11833Y11720D01*
X11843D01*
X11848Y11725D01*
Y11750D01*
X11858Y11725D02*
X11863Y11720D01*
X11873D01*
X11878Y11725D01*
Y11745D01*
X11873Y11750D01*
X11863D01*
X11858Y11745D01*
Y11740D01*
X11863Y11735D01*
X11878D01*
X10981Y13303D02*
Y13333D01*
X10996D01*
X11001Y13328D01*
Y13318D01*
X10996Y13313D01*
X10981D01*
X10991D02*
X11001Y13303D01*
X11031D02*
X11011D01*
X11031Y13323D01*
Y13328D01*
X11026Y13333D01*
X11016D01*
X11011Y13328D01*
X11041Y13303D02*
X11051D01*
X11046D01*
Y13333D01*
X11041Y13328D01*
X12481Y11659D02*
X12476Y11664D01*
X12466D01*
X12461Y11659D01*
Y11639D01*
X12466Y11634D01*
X12476D01*
X12481Y11639D01*
X12511Y11664D02*
X12491D01*
Y11649D01*
X12501Y11654D01*
X12506D01*
X12511Y11649D01*
Y11639D01*
X12506Y11634D01*
X12496D01*
X12491Y11639D01*
X12541Y11664D02*
X12531Y11659D01*
X12521Y11649D01*
Y11639D01*
X12526Y11634D01*
X12536D01*
X12541Y11639D01*
Y11644D01*
X12536Y11649D01*
X12521D01*
X11304Y13510D02*
Y13485D01*
X11309Y13480D01*
X11319D01*
X11324Y13485D01*
Y13510D01*
X11334Y13480D02*
X11344D01*
X11339D01*
Y13510D01*
X11334Y13505D01*
X11374Y13480D02*
Y13510D01*
X11359Y13495D01*
X11379D01*
X16537Y10953D02*
X16562D01*
X16567Y10958D01*
Y10968D01*
X16562Y10973D01*
X16537D01*
X16567Y10983D02*
Y10993D01*
Y10988D01*
X16537D01*
X16542Y10983D01*
Y11008D02*
X16537Y11013D01*
Y11023D01*
X16542Y11028D01*
X16547D01*
X16552Y11023D01*
Y11018D01*
Y11023D01*
X16557Y11028D01*
X16562D01*
X16567Y11023D01*
Y11013D01*
X16562Y11008D01*
X16537Y11038D02*
X16567D01*
Y11053D01*
X16562Y11058D01*
X16542D01*
X16537Y11053D01*
Y11038D01*
X15506Y10953D02*
X15531D01*
X15536Y10958D01*
Y10968D01*
X15531Y10973D01*
X15506D01*
X15536Y10983D02*
Y10993D01*
Y10988D01*
X15506D01*
X15511Y10983D01*
Y11008D02*
X15506Y11013D01*
Y11023D01*
X15511Y11028D01*
X15516D01*
X15521Y11023D01*
Y11018D01*
Y11023D01*
X15526Y11028D01*
X15531D01*
X15536Y11023D01*
Y11013D01*
X15531Y11008D01*
X15511Y11058D02*
X15506Y11053D01*
Y11043D01*
X15511Y11038D01*
X15531D01*
X15536Y11043D01*
Y11053D01*
X15531Y11058D01*
X14455Y10953D02*
X14480D01*
X14485Y10958D01*
Y10968D01*
X14480Y10973D01*
X14455D01*
X14485Y10983D02*
Y10993D01*
Y10988D01*
X14455D01*
X14460Y10983D01*
Y11008D02*
X14455Y11013D01*
Y11023D01*
X14460Y11028D01*
X14465D01*
X14470Y11023D01*
Y11018D01*
Y11023D01*
X14475Y11028D01*
X14480D01*
X14485Y11023D01*
Y11013D01*
X14480Y11008D01*
X14455Y11038D02*
X14485D01*
Y11053D01*
X14480Y11058D01*
X14475D01*
X14470Y11053D01*
Y11038D01*
Y11053D01*
X14465Y11058D01*
X14460D01*
X14455Y11053D01*
Y11038D01*
X13408Y10953D02*
X13433D01*
X13438Y10958D01*
Y10968D01*
X13433Y10973D01*
X13408D01*
X13438Y10983D02*
Y10993D01*
Y10988D01*
X13408D01*
X13413Y10983D01*
Y11008D02*
X13408Y11013D01*
Y11023D01*
X13413Y11028D01*
X13418D01*
X13423Y11023D01*
Y11018D01*
Y11023D01*
X13428Y11028D01*
X13433D01*
X13438Y11023D01*
Y11013D01*
X13433Y11008D01*
X13438Y11038D02*
X13418D01*
X13408Y11048D01*
X13418Y11058D01*
X13438D01*
X13423D01*
Y11038D01*
X16355Y12788D02*
Y12763D01*
X16360Y12758D01*
X16370D01*
X16375Y12763D01*
Y12788D01*
X16385Y12758D02*
X16395D01*
X16390D01*
Y12788D01*
X16385Y12783D01*
X16430Y12758D02*
X16410D01*
X16430Y12778D01*
Y12783D01*
X16425Y12788D01*
X16415D01*
X16410Y12783D01*
X16440Y12788D02*
Y12758D01*
X16455D01*
X16460Y12763D01*
Y12783D01*
X16455Y12788D01*
X16440D01*
X15324D02*
Y12763D01*
X15329Y12758D01*
X15339D01*
X15344Y12763D01*
Y12788D01*
X15354Y12758D02*
X15364D01*
X15359D01*
Y12788D01*
X15354Y12783D01*
X15399Y12758D02*
X15379D01*
X15399Y12778D01*
Y12783D01*
X15394Y12788D01*
X15384D01*
X15379Y12783D01*
X15429D02*
X15424Y12788D01*
X15414D01*
X15409Y12783D01*
Y12763D01*
X15414Y12758D01*
X15424D01*
X15429Y12763D01*
X14273Y12788D02*
Y12763D01*
X14278Y12758D01*
X14288D01*
X14293Y12763D01*
Y12788D01*
X14303Y12758D02*
X14313D01*
X14308D01*
Y12788D01*
X14303Y12783D01*
X14348Y12758D02*
X14328D01*
X14348Y12778D01*
Y12783D01*
X14343Y12788D01*
X14333D01*
X14328Y12783D01*
X14358Y12788D02*
Y12758D01*
X14373D01*
X14378Y12763D01*
Y12768D01*
X14373Y12773D01*
X14358D01*
X14373D01*
X14378Y12778D01*
Y12783D01*
X14373Y12788D01*
X14358D01*
X13226D02*
Y12763D01*
X13231Y12758D01*
X13240D01*
X13245Y12763D01*
Y12788D01*
X13255Y12758D02*
X13265D01*
X13260D01*
Y12788D01*
X13255Y12783D01*
X13300Y12758D02*
X13280D01*
X13300Y12778D01*
Y12783D01*
X13295Y12788D01*
X13285D01*
X13280Y12783D01*
X13310Y12758D02*
Y12778D01*
X13320Y12788D01*
X13330Y12778D01*
Y12758D01*
Y12773D01*
X13310D01*
X15735Y11940D02*
X15760D01*
X15765Y11945D01*
Y11955D01*
X15760Y11960D01*
X15735D01*
X15765Y11970D02*
Y11980D01*
Y11975D01*
X15735D01*
X15740Y11970D01*
X15765Y11995D02*
Y12005D01*
Y12000D01*
X15735D01*
X15740Y11995D01*
X15735Y12020D02*
X15765D01*
Y12035D01*
X15760Y12040D01*
X15740D01*
X15735Y12035D01*
Y12020D01*
X14704Y11940D02*
X14729D01*
X14734Y11945D01*
Y11955D01*
X14729Y11960D01*
X14704D01*
X14734Y11970D02*
Y11980D01*
Y11975D01*
X14704D01*
X14709Y11970D01*
X14734Y11995D02*
Y12005D01*
Y12000D01*
X14704D01*
X14709Y11995D01*
Y12040D02*
X14704Y12035D01*
Y12025D01*
X14709Y12020D01*
X14729D01*
X14734Y12025D01*
Y12035D01*
X14729Y12040D01*
X13653Y11940D02*
X13678D01*
X13683Y11945D01*
Y11955D01*
X13678Y11960D01*
X13653D01*
X13683Y11970D02*
Y11980D01*
Y11975D01*
X13653D01*
X13658Y11970D01*
X13683Y11995D02*
Y12005D01*
Y12000D01*
X13653D01*
X13658Y11995D01*
X13653Y12020D02*
X13683D01*
Y12035D01*
X13678Y12040D01*
X13673D01*
X13668Y12035D01*
Y12020D01*
Y12035D01*
X13663Y12040D01*
X13658D01*
X13653Y12035D01*
Y12020D01*
X12606Y11940D02*
X12631D01*
X12636Y11945D01*
Y11955D01*
X12631Y11960D01*
X12606D01*
X12636Y11970D02*
Y11980D01*
Y11975D01*
X12606D01*
X12611Y11970D01*
X12636Y11995D02*
Y12005D01*
Y12000D01*
X12606D01*
X12611Y11995D01*
X12636Y12020D02*
X12616D01*
X12606Y12030D01*
X12616Y12040D01*
X12636D01*
X12621D01*
Y12020D01*
X11107Y13565D02*
Y13540D01*
X11112Y13535D01*
X11122D01*
X11127Y13540D01*
Y13565D01*
X11137Y13535D02*
X11147D01*
X11142D01*
Y13565D01*
X11137Y13560D01*
X11162D02*
X11167Y13565D01*
X11177D01*
X11182Y13560D01*
Y13540D01*
X11177Y13535D01*
X11167D01*
X11162Y13540D01*
Y13560D01*
X12202Y12285D02*
Y12260D01*
X12207Y12255D01*
X12217D01*
X12222Y12260D01*
Y12285D01*
X12232Y12280D02*
X12237Y12285D01*
X12247D01*
X12252Y12280D01*
Y12275D01*
X12247Y12270D01*
X12252Y12265D01*
Y12260D01*
X12247Y12255D01*
X12237D01*
X12232Y12260D01*
Y12265D01*
X12237Y12270D01*
X12232Y12275D01*
Y12280D01*
X12237Y12270D02*
X12247D01*
X16496Y12427D02*
Y12402D01*
X16501Y12397D01*
X16511D01*
X16516Y12402D01*
Y12427D01*
X16526D02*
X16546D01*
Y12422D01*
X16526Y12402D01*
Y12397D01*
X16556Y12427D02*
Y12397D01*
X16571D01*
X16576Y12402D01*
Y12422D01*
X16571Y12427D01*
X16556D01*
X15465D02*
Y12402D01*
X15470Y12397D01*
X15480D01*
X15485Y12402D01*
Y12427D01*
X15495D02*
X15515D01*
Y12422D01*
X15495Y12402D01*
Y12397D01*
X15545Y12422D02*
X15540Y12427D01*
X15530D01*
X15525Y12422D01*
Y12402D01*
X15530Y12397D01*
X15540D01*
X15545Y12402D01*
X14414Y12427D02*
Y12402D01*
X14419Y12397D01*
X14429D01*
X14434Y12402D01*
Y12427D01*
X14444D02*
X14464D01*
Y12422D01*
X14444Y12402D01*
Y12397D01*
X14474Y12427D02*
Y12397D01*
X14489D01*
X14494Y12402D01*
Y12407D01*
X14489Y12412D01*
X14474D01*
X14489D01*
X14494Y12417D01*
Y12422D01*
X14489Y12427D01*
X14474D01*
X13367D02*
Y12402D01*
X13372Y12397D01*
X13381D01*
X13386Y12402D01*
Y12427D01*
X13396D02*
X13416D01*
Y12422D01*
X13396Y12402D01*
Y12397D01*
X13426D02*
Y12417D01*
X13436Y12427D01*
X13446Y12417D01*
Y12397D01*
Y12412D01*
X13426D01*
X16042Y12981D02*
Y12956D01*
X16047Y12951D01*
X16057D01*
X16062Y12956D01*
Y12981D01*
X16092D02*
X16082Y12976D01*
X16072Y12966D01*
Y12956D01*
X16077Y12951D01*
X16087D01*
X16092Y12956D01*
Y12961D01*
X16087Y12966D01*
X16072D01*
X16102Y12981D02*
Y12951D01*
X16117D01*
X16122Y12956D01*
Y12976D01*
X16117Y12981D01*
X16102D01*
X15011D02*
Y12956D01*
X15016Y12951D01*
X15026D01*
X15031Y12956D01*
Y12981D01*
X15061D02*
X15051Y12976D01*
X15041Y12966D01*
Y12956D01*
X15046Y12951D01*
X15056D01*
X15061Y12956D01*
Y12961D01*
X15056Y12966D01*
X15041D01*
X15091Y12976D02*
X15086Y12981D01*
X15076D01*
X15071Y12976D01*
Y12956D01*
X15076Y12951D01*
X15086D01*
X15091Y12956D01*
X12913Y12981D02*
Y12956D01*
X12918Y12951D01*
X12927D01*
X12932Y12956D01*
Y12981D01*
X12962D02*
X12952Y12976D01*
X12942Y12966D01*
Y12956D01*
X12947Y12951D01*
X12957D01*
X12962Y12956D01*
Y12961D01*
X12957Y12966D01*
X12942D01*
X12972Y12951D02*
Y12971D01*
X12982Y12981D01*
X12992Y12971D01*
Y12951D01*
Y12966D01*
X12972D01*
X16168Y11358D02*
Y11333D01*
X16173Y11328D01*
X16183D01*
X16188Y11333D01*
Y11358D01*
X16218D02*
X16198D01*
Y11343D01*
X16208Y11348D01*
X16213D01*
X16218Y11343D01*
Y11333D01*
X16213Y11328D01*
X16203D01*
X16198Y11333D01*
X16228Y11358D02*
Y11328D01*
X16243D01*
X16248Y11333D01*
Y11353D01*
X16243Y11358D01*
X16228D01*
X15137D02*
Y11333D01*
X15142Y11328D01*
X15152D01*
X15157Y11333D01*
Y11358D01*
X15187D02*
X15167D01*
Y11343D01*
X15177Y11348D01*
X15182D01*
X15187Y11343D01*
Y11333D01*
X15182Y11328D01*
X15172D01*
X15167Y11333D01*
X15217Y11353D02*
X15212Y11358D01*
X15202D01*
X15197Y11353D01*
Y11333D01*
X15202Y11328D01*
X15212D01*
X15217Y11333D01*
X14086Y11358D02*
Y11333D01*
X14091Y11328D01*
X14101D01*
X14106Y11333D01*
Y11358D01*
X14136D02*
X14116D01*
Y11343D01*
X14126Y11348D01*
X14131D01*
X14136Y11343D01*
Y11333D01*
X14131Y11328D01*
X14121D01*
X14116Y11333D01*
X14146Y11358D02*
Y11328D01*
X14161D01*
X14166Y11333D01*
Y11338D01*
X14161Y11343D01*
X14146D01*
X14161D01*
X14166Y11348D01*
Y11353D01*
X14161Y11358D01*
X14146D01*
X13039D02*
Y11333D01*
X13044Y11328D01*
X13053D01*
X13058Y11333D01*
Y11358D01*
X13088D02*
X13068D01*
Y11343D01*
X13078Y11348D01*
X13083D01*
X13088Y11343D01*
Y11333D01*
X13083Y11328D01*
X13073D01*
X13068Y11333D01*
X13098Y11328D02*
Y11348D01*
X13108Y11358D01*
X13118Y11348D01*
Y11328D01*
Y11343D01*
X13098D01*
X16002Y11448D02*
Y11423D01*
X16007Y11418D01*
X16017D01*
X16022Y11423D01*
Y11448D01*
X16047Y11418D02*
Y11448D01*
X16032Y11433D01*
X16052D01*
X16062Y11448D02*
Y11418D01*
X16077D01*
X16082Y11423D01*
Y11443D01*
X16077Y11448D01*
X16062D01*
X14971D02*
Y11423D01*
X14976Y11418D01*
X14986D01*
X14991Y11423D01*
Y11448D01*
X15016Y11418D02*
Y11448D01*
X15001Y11433D01*
X15021D01*
X15051Y11443D02*
X15046Y11448D01*
X15036D01*
X15031Y11443D01*
Y11423D01*
X15036Y11418D01*
X15046D01*
X15051Y11423D01*
X13920Y11448D02*
Y11423D01*
X13925Y11418D01*
X13935D01*
X13940Y11423D01*
Y11448D01*
X13965Y11418D02*
Y11448D01*
X13950Y11433D01*
X13970D01*
X13980Y11448D02*
Y11418D01*
X13995D01*
X14000Y11423D01*
Y11428D01*
X13995Y11433D01*
X13980D01*
X13995D01*
X14000Y11438D01*
Y11443D01*
X13995Y11448D01*
X13980D01*
X12873D02*
Y11423D01*
X12878Y11418D01*
X12887D01*
X12892Y11423D01*
Y11448D01*
X12917Y11418D02*
Y11448D01*
X12902Y11433D01*
X12922D01*
X12932Y11418D02*
Y11438D01*
X12942Y11448D01*
X12952Y11438D01*
Y11418D01*
Y11433D01*
X12932D01*
X15829Y10969D02*
X15854D01*
X15859Y10974D01*
Y10984D01*
X15854Y10989D01*
X15829D01*
X15834Y10999D02*
X15829Y11004D01*
Y11014D01*
X15834Y11019D01*
X15839D01*
X15844Y11014D01*
Y11009D01*
Y11014D01*
X15849Y11019D01*
X15854D01*
X15859Y11014D01*
Y11004D01*
X15854Y10999D01*
X15829Y11029D02*
X15859D01*
Y11044D01*
X15854Y11049D01*
X15834D01*
X15829Y11044D01*
Y11029D01*
X14798Y10969D02*
X14823D01*
X14828Y10974D01*
Y10984D01*
X14823Y10989D01*
X14798D01*
X14803Y10999D02*
X14798Y11004D01*
Y11014D01*
X14803Y11019D01*
X14808D01*
X14813Y11014D01*
Y11009D01*
Y11014D01*
X14818Y11019D01*
X14823D01*
X14828Y11014D01*
Y11004D01*
X14823Y10999D01*
X14803Y11049D02*
X14798Y11044D01*
Y11034D01*
X14803Y11029D01*
X14823D01*
X14828Y11034D01*
Y11044D01*
X14823Y11049D01*
X13747Y10969D02*
X13772D01*
X13777Y10974D01*
Y10984D01*
X13772Y10989D01*
X13747D01*
X13752Y10999D02*
X13747Y11004D01*
Y11014D01*
X13752Y11019D01*
X13757D01*
X13762Y11014D01*
Y11009D01*
Y11014D01*
X13767Y11019D01*
X13772D01*
X13777Y11014D01*
Y11004D01*
X13772Y10999D01*
X13747Y11029D02*
X13777D01*
Y11044D01*
X13772Y11049D01*
X13767D01*
X13762Y11044D01*
Y11029D01*
Y11044D01*
X13757Y11049D01*
X13752D01*
X13747Y11044D01*
Y11029D01*
X12700Y10969D02*
X12725D01*
X12730Y10974D01*
Y10984D01*
X12725Y10989D01*
X12700D01*
X12705Y10999D02*
X12700Y11004D01*
Y11014D01*
X12705Y11019D01*
X12710D01*
X12715Y11014D01*
Y11009D01*
Y11014D01*
X12720Y11019D01*
X12725D01*
X12730Y11014D01*
Y11004D01*
X12725Y10999D01*
X12730Y11029D02*
X12710D01*
X12700Y11039D01*
X12710Y11049D01*
X12730D01*
X12715D01*
Y11029D01*
X16552Y11568D02*
X16577D01*
X16582Y11573D01*
Y11583D01*
X16577Y11588D01*
X16552D01*
X16582Y11618D02*
Y11598D01*
X16562Y11618D01*
X16557D01*
X16552Y11613D01*
Y11603D01*
X16557Y11598D01*
X16552Y11628D02*
X16582D01*
Y11643D01*
X16577Y11648D01*
X16557D01*
X16552Y11643D01*
Y11628D01*
X15521Y11568D02*
X15546D01*
X15551Y11573D01*
Y11583D01*
X15546Y11588D01*
X15521D01*
X15551Y11618D02*
Y11598D01*
X15531Y11618D01*
X15526D01*
X15521Y11613D01*
Y11603D01*
X15526Y11598D01*
Y11648D02*
X15521Y11643D01*
Y11633D01*
X15526Y11628D01*
X15546D01*
X15551Y11633D01*
Y11643D01*
X15546Y11648D01*
X14470Y11568D02*
X14495D01*
X14500Y11573D01*
Y11583D01*
X14495Y11588D01*
X14470D01*
X14500Y11618D02*
Y11598D01*
X14480Y11618D01*
X14475D01*
X14470Y11613D01*
Y11603D01*
X14475Y11598D01*
X14470Y11628D02*
X14500D01*
Y11643D01*
X14495Y11648D01*
X14490D01*
X14485Y11643D01*
Y11628D01*
Y11643D01*
X14480Y11648D01*
X14475D01*
X14470Y11643D01*
Y11628D01*
X13423Y11568D02*
X13448D01*
X13453Y11573D01*
Y11583D01*
X13448Y11588D01*
X13423D01*
X13453Y11618D02*
Y11598D01*
X13433Y11618D01*
X13428D01*
X13423Y11613D01*
Y11603D01*
X13428Y11598D01*
X13453Y11628D02*
X13433D01*
X13423Y11638D01*
X13433Y11648D01*
X13453D01*
X13438D01*
Y11628D01*
X16187Y11582D02*
Y11557D01*
X16192Y11552D01*
X16202D01*
X16207Y11557D01*
Y11582D01*
X16217Y11552D02*
X16227D01*
X16222D01*
Y11582D01*
X16217Y11577D01*
X16242Y11582D02*
Y11552D01*
X16257D01*
X16262Y11557D01*
Y11577D01*
X16257Y11582D01*
X16242D01*
X15156D02*
Y11557D01*
X15161Y11552D01*
X15171D01*
X15176Y11557D01*
Y11582D01*
X15186Y11552D02*
X15196D01*
X15191D01*
Y11582D01*
X15186Y11577D01*
X15231D02*
X15226Y11582D01*
X15216D01*
X15211Y11577D01*
Y11557D01*
X15216Y11552D01*
X15226D01*
X15231Y11557D01*
X14105Y11582D02*
Y11557D01*
X14110Y11552D01*
X14120D01*
X14125Y11557D01*
Y11582D01*
X14135Y11552D02*
X14145D01*
X14140D01*
Y11582D01*
X14135Y11577D01*
X14160Y11582D02*
Y11552D01*
X14175D01*
X14180Y11557D01*
Y11562D01*
X14175Y11567D01*
X14160D01*
X14175D01*
X14180Y11572D01*
Y11577D01*
X14175Y11582D01*
X14160D01*
X13058D02*
Y11557D01*
X13063Y11552D01*
X13072D01*
X13077Y11557D01*
Y11582D01*
X13087Y11552D02*
X13097D01*
X13092D01*
Y11582D01*
X13087Y11577D01*
X13112Y11552D02*
Y11572D01*
X13122Y11582D01*
X13132Y11572D01*
Y11552D01*
Y11567D01*
X13112D01*
X15560Y14046D02*
X15580D01*
X15570D01*
Y14016D01*
X15590D02*
Y14046D01*
X15605D01*
X15610Y14041D01*
Y14031D01*
X15605Y14026D01*
X15590D01*
X15620Y14041D02*
X15625Y14046D01*
X15635D01*
X15640Y14041D01*
Y14036D01*
X15635Y14031D01*
X15630D01*
X15635D01*
X15640Y14026D01*
Y14021D01*
X15635Y14016D01*
X15625D01*
X15620Y14021D01*
X15650Y14016D02*
X15660D01*
X15655D01*
Y14046D01*
X15650Y14041D01*
X16048Y14054D02*
X16068D01*
X16058D01*
Y14024D01*
X16078D02*
Y14054D01*
X16093D01*
X16098Y14049D01*
Y14039D01*
X16093Y14034D01*
X16078D01*
X16108Y14049D02*
X16113Y14054D01*
X16123D01*
X16128Y14049D01*
Y14044D01*
X16123Y14039D01*
X16118D01*
X16123D01*
X16128Y14034D01*
Y14029D01*
X16123Y14024D01*
X16113D01*
X16108Y14029D01*
X16138Y14049D02*
X16143Y14054D01*
X16153D01*
X16158Y14049D01*
Y14029D01*
X16153Y14024D01*
X16143D01*
X16138Y14029D01*
Y14049D01*
X16300Y14046D02*
X16320D01*
X16310D01*
Y14016D01*
X16330D02*
Y14046D01*
X16345D01*
X16350Y14041D01*
Y14031D01*
X16345Y14026D01*
X16330D01*
X16380Y14016D02*
X16360D01*
X16380Y14036D01*
Y14041D01*
X16375Y14046D01*
X16365D01*
X16360Y14041D01*
X16390Y14021D02*
X16395Y14016D01*
X16405D01*
X16410Y14021D01*
Y14041D01*
X16405Y14046D01*
X16395D01*
X16390Y14041D01*
Y14036D01*
X16395Y14031D01*
X16410D01*
X15036Y14038D02*
X15056D01*
X15046D01*
Y14008D01*
X15066D02*
Y14038D01*
X15081D01*
X15086Y14033D01*
Y14023D01*
X15081Y14018D01*
X15066D01*
X15116Y14008D02*
X15096D01*
X15116Y14028D01*
Y14033D01*
X15111Y14038D01*
X15101D01*
X15096Y14033D01*
X15126D02*
X15131Y14038D01*
X15141D01*
X15146Y14033D01*
Y14028D01*
X15141Y14023D01*
X15146Y14018D01*
Y14013D01*
X15141Y14008D01*
X15131D01*
X15126Y14013D01*
Y14018D01*
X15131Y14023D01*
X15126Y14028D01*
Y14033D01*
X15131Y14023D02*
X15141D01*
X15800Y14050D02*
X15820D01*
X15810D01*
Y14020D01*
X15830D02*
Y14050D01*
X15845D01*
X15850Y14045D01*
Y14035D01*
X15845Y14030D01*
X15830D01*
X15880Y14020D02*
X15860D01*
X15880Y14040D01*
Y14045D01*
X15875Y14050D01*
X15865D01*
X15860Y14045D01*
X15890Y14050D02*
X15910D01*
Y14045D01*
X15890Y14025D01*
Y14020D01*
X15720Y13144D02*
X15740D01*
X15730D01*
Y13114D01*
X15750D02*
Y13144D01*
X15765D01*
X15770Y13139D01*
Y13129D01*
X15765Y13124D01*
X15750D01*
X15800Y13114D02*
X15780D01*
X15800Y13134D01*
Y13139D01*
X15795Y13144D01*
X15785D01*
X15780Y13139D01*
X15830Y13144D02*
X15820Y13139D01*
X15810Y13129D01*
Y13119D01*
X15815Y13114D01*
X15825D01*
X15830Y13119D01*
Y13124D01*
X15825Y13129D01*
X15810D01*
X15304Y14046D02*
X15324D01*
X15314D01*
Y14016D01*
X15334D02*
Y14046D01*
X15349D01*
X15354Y14041D01*
Y14031D01*
X15349Y14026D01*
X15334D01*
X15384Y14016D02*
X15364D01*
X15384Y14036D01*
Y14041D01*
X15379Y14046D01*
X15369D01*
X15364Y14041D01*
X15414Y14046D02*
X15394D01*
Y14031D01*
X15404Y14036D01*
X15409D01*
X15414Y14031D01*
Y14021D01*
X15409Y14016D01*
X15399D01*
X15394Y14021D01*
X15720Y13444D02*
X15740D01*
X15730D01*
Y13414D01*
X15750D02*
Y13444D01*
X15765D01*
X15770Y13439D01*
Y13429D01*
X15765Y13424D01*
X15750D01*
X15800Y13414D02*
X15780D01*
X15800Y13434D01*
Y13439D01*
X15795Y13444D01*
X15785D01*
X15780Y13439D01*
X15825Y13414D02*
Y13444D01*
X15810Y13429D01*
X15830D01*
X15720Y12894D02*
X15740D01*
X15730D01*
Y12864D01*
X15750D02*
Y12894D01*
X15765D01*
X15770Y12889D01*
Y12879D01*
X15765Y12874D01*
X15750D01*
X15800Y12864D02*
X15780D01*
X15800Y12884D01*
Y12889D01*
X15795Y12894D01*
X15785D01*
X15780Y12889D01*
X15810D02*
X15815Y12894D01*
X15825D01*
X15830Y12889D01*
Y12884D01*
X15825Y12879D01*
X15820D01*
X15825D01*
X15830Y12874D01*
Y12869D01*
X15825Y12864D01*
X15815D01*
X15810Y12869D01*
X13544Y11148D02*
X13564D01*
X13554D01*
Y11118D01*
X13574D02*
Y11148D01*
X13589D01*
X13594Y11143D01*
Y11133D01*
X13589Y11128D01*
X13574D01*
X13624Y11118D02*
X13604D01*
X13624Y11138D01*
Y11143D01*
X13619Y11148D01*
X13609D01*
X13604Y11143D01*
X13654Y11118D02*
X13634D01*
X13654Y11138D01*
Y11143D01*
X13649Y11148D01*
X13639D01*
X13634Y11143D01*
X12402Y10774D02*
X12422D01*
X12412D01*
Y10744D01*
X12432D02*
Y10774D01*
X12447D01*
X12452Y10769D01*
Y10759D01*
X12447Y10754D01*
X12432D01*
X12482Y10744D02*
X12462D01*
X12482Y10764D01*
Y10769D01*
X12477Y10774D01*
X12467D01*
X12462Y10769D01*
X12492Y10744D02*
X12502D01*
X12497D01*
Y10774D01*
X12492Y10769D01*
X12398Y11034D02*
X12418D01*
X12408D01*
Y11004D01*
X12428D02*
Y11034D01*
X12443D01*
X12448Y11029D01*
Y11019D01*
X12443Y11014D01*
X12428D01*
X12478Y11004D02*
X12458D01*
X12478Y11024D01*
Y11029D01*
X12473Y11034D01*
X12463D01*
X12458Y11029D01*
X12488D02*
X12493Y11034D01*
X12503D01*
X12508Y11029D01*
Y11009D01*
X12503Y11004D01*
X12493D01*
X12488Y11009D01*
Y11029D01*
X15702Y12683D02*
X15722D01*
X15712D01*
Y12654D01*
X15732D02*
Y12683D01*
X15747D01*
X15752Y12678D01*
Y12668D01*
X15747Y12664D01*
X15732D01*
X15762Y12654D02*
X15772D01*
X15767D01*
Y12683D01*
X15762Y12678D01*
X15787Y12659D02*
X15792Y12654D01*
X15802D01*
X15807Y12659D01*
Y12678D01*
X15802Y12683D01*
X15792D01*
X15787Y12678D01*
Y12673D01*
X15792Y12668D01*
X15807D01*
X10970Y14044D02*
X10990D01*
X10980D01*
Y14014D01*
X11000D02*
Y14044D01*
X11015D01*
X11020Y14039D01*
Y14029D01*
X11015Y14024D01*
X11000D01*
X11030Y14014D02*
X11040D01*
X11035D01*
Y14044D01*
X11030Y14039D01*
X11055D02*
X11060Y14044D01*
X11070D01*
X11075Y14039D01*
Y14034D01*
X11070Y14029D01*
X11075Y14024D01*
Y14019D01*
X11070Y14014D01*
X11060D01*
X11055Y14019D01*
Y14024D01*
X11060Y14029D01*
X11055Y14034D01*
Y14039D01*
X11060Y14029D02*
X11070D01*
X13599Y12845D02*
X13619D01*
X13609D01*
Y12815D01*
X13629D02*
Y12845D01*
X13644D01*
X13649Y12840D01*
Y12830D01*
X13644Y12825D01*
X13629D01*
X13659Y12815D02*
X13669D01*
X13664D01*
Y12845D01*
X13659Y12840D01*
X13684Y12845D02*
X13704D01*
Y12840D01*
X13684Y12820D01*
Y12815D01*
X16540Y14042D02*
X16560D01*
X16550D01*
Y14012D01*
X16570D02*
Y14042D01*
X16585D01*
X16590Y14037D01*
Y14027D01*
X16585Y14022D01*
X16570D01*
X16600Y14012D02*
X16610D01*
X16605D01*
Y14042D01*
X16600Y14037D01*
X16645Y14042D02*
X16635Y14037D01*
X16625Y14027D01*
Y14017D01*
X16630Y14012D01*
X16640D01*
X16645Y14017D01*
Y14022D01*
X16640Y14027D01*
X16625D01*
X14552Y13845D02*
X14572D01*
X14562D01*
Y13815D01*
X14582D02*
Y13845D01*
X14597D01*
X14602Y13840D01*
Y13830D01*
X14597Y13825D01*
X14582D01*
X14612Y13815D02*
X14622D01*
X14617D01*
Y13845D01*
X14612Y13840D01*
X14657Y13845D02*
X14637D01*
Y13830D01*
X14647Y13835D01*
X14652D01*
X14657Y13830D01*
Y13820D01*
X14652Y13815D01*
X14642D01*
X14637Y13820D01*
X14620Y11894D02*
X14640D01*
X14630D01*
Y11864D01*
X14650D02*
Y11894D01*
X14665D01*
X14670Y11889D01*
Y11879D01*
X14665Y11874D01*
X14650D01*
X14680Y11864D02*
X14690D01*
X14685D01*
Y11894D01*
X14680Y11889D01*
X14720Y11864D02*
Y11894D01*
X14705Y11879D01*
X14725D01*
X11620Y10844D02*
X11640D01*
X11630D01*
Y10814D01*
X11650D02*
Y10844D01*
X11665D01*
X11670Y10839D01*
Y10829D01*
X11665Y10824D01*
X11650D01*
X11680Y10814D02*
X11690D01*
X11685D01*
Y10844D01*
X11680Y10839D01*
X11705D02*
X11710Y10844D01*
X11720D01*
X11725Y10839D01*
Y10834D01*
X11720Y10829D01*
X11715D01*
X11720D01*
X11725Y10824D01*
Y10819D01*
X11720Y10814D01*
X11710D01*
X11705Y10819D01*
X11620Y11044D02*
X11640D01*
X11630D01*
Y11014D01*
X11650D02*
Y11044D01*
X11665D01*
X11670Y11039D01*
Y11029D01*
X11665Y11024D01*
X11650D01*
X11680Y11014D02*
X11690D01*
X11685D01*
Y11044D01*
X11680Y11039D01*
X11725Y11014D02*
X11705D01*
X11725Y11034D01*
Y11039D01*
X11720Y11044D01*
X11710D01*
X11705Y11039D01*
X11620Y11244D02*
X11640D01*
X11630D01*
Y11214D01*
X11650D02*
Y11244D01*
X11665D01*
X11670Y11239D01*
Y11229D01*
X11665Y11224D01*
X11650D01*
X11680Y11214D02*
X11690D01*
X11685D01*
Y11244D01*
X11680Y11239D01*
X11705Y11214D02*
X11715D01*
X11710D01*
Y11244D01*
X11705Y11239D01*
X15977Y13337D02*
X15997D01*
X15987D01*
Y13307D01*
X16007D02*
Y13337D01*
X16022D01*
X16027Y13332D01*
Y13322D01*
X16022Y13317D01*
X16007D01*
X16037Y13307D02*
X16047D01*
X16042D01*
Y13337D01*
X16037Y13332D01*
X16062D02*
X16067Y13337D01*
X16077D01*
X16082Y13332D01*
Y13312D01*
X16077Y13307D01*
X16067D01*
X16062Y13312D01*
Y13332D01*
X16092Y13337D02*
Y13307D01*
X16107D01*
X16112Y13312D01*
Y13332D01*
X16107Y13337D01*
X16092D01*
X14930Y13329D02*
X14950D01*
X14940D01*
Y13299D01*
X14960D02*
Y13329D01*
X14975D01*
X14980Y13324D01*
Y13314D01*
X14975Y13309D01*
X14960D01*
X14990Y13299D02*
X15000D01*
X14995D01*
Y13329D01*
X14990Y13324D01*
X15015D02*
X15020Y13329D01*
X15030D01*
X15035Y13324D01*
Y13304D01*
X15030Y13299D01*
X15020D01*
X15015Y13304D01*
Y13324D01*
X15065D02*
X15060Y13329D01*
X15050D01*
X15045Y13324D01*
Y13304D01*
X15050Y13299D01*
X15060D01*
X15065Y13304D01*
X13883Y13337D02*
X13903D01*
X13893D01*
Y13307D01*
X13913D02*
Y13337D01*
X13928D01*
X13933Y13332D01*
Y13322D01*
X13928Y13317D01*
X13913D01*
X13943Y13307D02*
X13953D01*
X13948D01*
Y13337D01*
X13943Y13332D01*
X13968D02*
X13973Y13337D01*
X13983D01*
X13988Y13332D01*
Y13312D01*
X13983Y13307D01*
X13973D01*
X13968Y13312D01*
Y13332D01*
X13998Y13337D02*
Y13307D01*
X14013D01*
X14018Y13312D01*
Y13317D01*
X14013Y13322D01*
X13998D01*
X14013D01*
X14018Y13327D01*
Y13332D01*
X14013Y13337D01*
X13998D01*
X12831Y13333D02*
X12851D01*
X12841D01*
Y13303D01*
X12861D02*
Y13333D01*
X12876D01*
X12881Y13328D01*
Y13318D01*
X12876Y13313D01*
X12861D01*
X12891Y13303D02*
X12901D01*
X12896D01*
Y13333D01*
X12891Y13328D01*
X12916D02*
X12921Y13333D01*
X12931D01*
X12936Y13328D01*
Y13308D01*
X12931Y13303D01*
X12921D01*
X12916Y13308D01*
Y13328D01*
X12946Y13303D02*
Y13323D01*
X12956Y13333D01*
X12966Y13323D01*
Y13303D01*
Y13318D01*
X12946D01*
X16525Y12006D02*
X16545D01*
X16535D01*
Y11976D01*
X16555D02*
Y12006D01*
X16570D01*
X16575Y12001D01*
Y11991D01*
X16570Y11986D01*
X16555D01*
X16585Y11981D02*
X16590Y11976D01*
X16600D01*
X16605Y11981D01*
Y12001D01*
X16600Y12006D01*
X16590D01*
X16585Y12001D01*
Y11996D01*
X16590Y11991D01*
X16605D01*
X16615Y12006D02*
Y11976D01*
X16630D01*
X16635Y11981D01*
Y12001D01*
X16630Y12006D01*
X16615D01*
X15494D02*
X15514D01*
X15504D01*
Y11976D01*
X15524D02*
Y12006D01*
X15539D01*
X15544Y12001D01*
Y11991D01*
X15539Y11986D01*
X15524D01*
X15554Y11981D02*
X15559Y11976D01*
X15569D01*
X15574Y11981D01*
Y12001D01*
X15569Y12006D01*
X15559D01*
X15554Y12001D01*
Y11996D01*
X15559Y11991D01*
X15574D01*
X15604Y12001D02*
X15599Y12006D01*
X15589D01*
X15584Y12001D01*
Y11981D01*
X15589Y11976D01*
X15599D01*
X15604Y11981D01*
X14443Y12006D02*
X14463D01*
X14453D01*
Y11976D01*
X14473D02*
Y12006D01*
X14488D01*
X14493Y12001D01*
Y11991D01*
X14488Y11986D01*
X14473D01*
X14503Y11981D02*
X14508Y11976D01*
X14518D01*
X14523Y11981D01*
Y12001D01*
X14518Y12006D01*
X14508D01*
X14503Y12001D01*
Y11996D01*
X14508Y11991D01*
X14523D01*
X14533Y12006D02*
Y11976D01*
X14548D01*
X14553Y11981D01*
Y11986D01*
X14548Y11991D01*
X14533D01*
X14548D01*
X14553Y11996D01*
Y12001D01*
X14548Y12006D01*
X14533D01*
X13396D02*
X13415D01*
X13406D01*
Y11976D01*
X13425D02*
Y12006D01*
X13440D01*
X13445Y12001D01*
Y11991D01*
X13440Y11986D01*
X13425D01*
X13455Y11981D02*
X13460Y11976D01*
X13470D01*
X13475Y11981D01*
Y12001D01*
X13470Y12006D01*
X13460D01*
X13455Y12001D01*
Y11996D01*
X13460Y11991D01*
X13475D01*
X13485Y11976D02*
Y11996D01*
X13495Y12006D01*
X13505Y11996D01*
Y11976D01*
Y11991D01*
X13485D01*
X12520Y12694D02*
X12540D01*
X12530D01*
Y12664D01*
X12550D02*
Y12694D01*
X12565D01*
X12570Y12689D01*
Y12679D01*
X12565Y12674D01*
X12550D01*
X12580Y12689D02*
X12585Y12694D01*
X12595D01*
X12600Y12689D01*
Y12684D01*
X12595Y12679D01*
X12600Y12674D01*
Y12669D01*
X12595Y12664D01*
X12585D01*
X12580Y12669D01*
Y12674D01*
X12585Y12679D01*
X12580Y12684D01*
Y12689D01*
X12585Y12679D02*
X12595D01*
X16484Y12915D02*
X16504D01*
X16494D01*
Y12885D01*
X16514D02*
Y12915D01*
X16529D01*
X16534Y12910D01*
Y12900D01*
X16529Y12895D01*
X16514D01*
X16544Y12915D02*
X16564D01*
Y12910D01*
X16544Y12890D01*
Y12885D01*
X16574Y12915D02*
Y12885D01*
X16589D01*
X16594Y12890D01*
Y12910D01*
X16589Y12915D01*
X16574D01*
X15453D02*
X15473D01*
X15463D01*
Y12885D01*
X15483D02*
Y12915D01*
X15498D01*
X15503Y12910D01*
Y12900D01*
X15498Y12895D01*
X15483D01*
X15513Y12915D02*
X15533D01*
Y12910D01*
X15513Y12890D01*
Y12885D01*
X15563Y12910D02*
X15558Y12915D01*
X15548D01*
X15543Y12910D01*
Y12890D01*
X15548Y12885D01*
X15558D01*
X15563Y12890D01*
X14402Y12915D02*
X14422D01*
X14412D01*
Y12885D01*
X14432D02*
Y12915D01*
X14447D01*
X14452Y12910D01*
Y12900D01*
X14447Y12895D01*
X14432D01*
X14462Y12915D02*
X14482D01*
Y12910D01*
X14462Y12890D01*
Y12885D01*
X14492Y12915D02*
Y12885D01*
X14507D01*
X14512Y12890D01*
Y12895D01*
X14507Y12900D01*
X14492D01*
X14507D01*
X14512Y12905D01*
Y12910D01*
X14507Y12915D01*
X14492D01*
X13355D02*
X13374D01*
X13365D01*
Y12885D01*
X13384D02*
Y12915D01*
X13399D01*
X13404Y12910D01*
Y12900D01*
X13399Y12895D01*
X13384D01*
X13414Y12915D02*
X13434D01*
Y12910D01*
X13414Y12890D01*
Y12885D01*
X13444D02*
Y12905D01*
X13454Y12915D01*
X13464Y12905D01*
Y12885D01*
Y12900D01*
X13444D01*
X15881Y12839D02*
X15901D01*
X15891D01*
Y12809D01*
X15911D02*
Y12839D01*
X15926D01*
X15931Y12834D01*
Y12824D01*
X15926Y12819D01*
X15911D01*
X15961Y12839D02*
X15951Y12834D01*
X15941Y12824D01*
Y12814D01*
X15946Y12809D01*
X15956D01*
X15961Y12814D01*
Y12819D01*
X15956Y12824D01*
X15941D01*
X15971Y12839D02*
Y12809D01*
X15986D01*
X15991Y12814D01*
Y12834D01*
X15986Y12839D01*
X15971D01*
X14850D02*
X14870D01*
X14860D01*
Y12809D01*
X14880D02*
Y12839D01*
X14895D01*
X14900Y12834D01*
Y12824D01*
X14895Y12819D01*
X14880D01*
X14930Y12839D02*
X14920Y12834D01*
X14910Y12824D01*
Y12814D01*
X14915Y12809D01*
X14925D01*
X14930Y12814D01*
Y12819D01*
X14925Y12824D01*
X14910D01*
X14960Y12834D02*
X14955Y12839D01*
X14945D01*
X14940Y12834D01*
Y12814D01*
X14945Y12809D01*
X14955D01*
X14960Y12814D01*
X13799Y12839D02*
X13819D01*
X13809D01*
Y12809D01*
X13829D02*
Y12839D01*
X13844D01*
X13849Y12834D01*
Y12824D01*
X13844Y12819D01*
X13829D01*
X13879Y12839D02*
X13869Y12834D01*
X13859Y12824D01*
Y12814D01*
X13864Y12809D01*
X13874D01*
X13879Y12814D01*
Y12819D01*
X13874Y12824D01*
X13859D01*
X13889Y12839D02*
Y12809D01*
X13904D01*
X13909Y12814D01*
Y12819D01*
X13904Y12824D01*
X13889D01*
X13904D01*
X13909Y12829D01*
Y12834D01*
X13904Y12839D01*
X13889D01*
X12752D02*
X12771D01*
X12762D01*
Y12809D01*
X12781D02*
Y12839D01*
X12796D01*
X12801Y12834D01*
Y12824D01*
X12796Y12819D01*
X12781D01*
X12831Y12839D02*
X12821Y12834D01*
X12811Y12824D01*
Y12814D01*
X12816Y12809D01*
X12826D01*
X12831Y12814D01*
Y12819D01*
X12826Y12824D01*
X12811D01*
X12841Y12809D02*
Y12829D01*
X12851Y12839D01*
X12861Y12829D01*
Y12809D01*
Y12824D01*
X12841D01*
X16293Y10665D02*
Y10685D01*
Y10675D01*
X16323D01*
Y10695D02*
X16293D01*
Y10710D01*
X16298Y10715D01*
X16308D01*
X16313Y10710D01*
Y10695D01*
X16293Y10745D02*
Y10725D01*
X16308D01*
X16303Y10735D01*
Y10740D01*
X16308Y10745D01*
X16318D01*
X16323Y10740D01*
Y10730D01*
X16318Y10725D01*
X16293Y10755D02*
X16323D01*
Y10770D01*
X16318Y10775D01*
X16298D01*
X16293Y10770D01*
Y10755D01*
X15262Y10665D02*
Y10685D01*
Y10675D01*
X15292D01*
Y10695D02*
X15262D01*
Y10710D01*
X15267Y10715D01*
X15277D01*
X15282Y10710D01*
Y10695D01*
X15262Y10745D02*
Y10725D01*
X15277D01*
X15272Y10735D01*
Y10740D01*
X15277Y10745D01*
X15287D01*
X15292Y10740D01*
Y10730D01*
X15287Y10725D01*
X15267Y10775D02*
X15262Y10770D01*
Y10760D01*
X15267Y10755D01*
X15287D01*
X15292Y10760D01*
Y10770D01*
X15287Y10775D01*
X14211Y10665D02*
Y10685D01*
Y10675D01*
X14241D01*
Y10695D02*
X14211D01*
Y10710D01*
X14216Y10715D01*
X14226D01*
X14231Y10710D01*
Y10695D01*
X14211Y10745D02*
Y10725D01*
X14226D01*
X14221Y10735D01*
Y10740D01*
X14226Y10745D01*
X14236D01*
X14241Y10740D01*
Y10730D01*
X14236Y10725D01*
X14211Y10755D02*
X14241D01*
Y10770D01*
X14236Y10775D01*
X14231D01*
X14226Y10770D01*
Y10755D01*
Y10770D01*
X14221Y10775D01*
X14216D01*
X14211Y10770D01*
Y10755D01*
X13164Y10665D02*
Y10685D01*
Y10675D01*
X13194D01*
Y10695D02*
X13164D01*
Y10710D01*
X13169Y10715D01*
X13179D01*
X13184Y10710D01*
Y10695D01*
X13164Y10745D02*
Y10725D01*
X13179D01*
X13174Y10735D01*
Y10740D01*
X13179Y10745D01*
X13189D01*
X13194Y10740D01*
Y10730D01*
X13189Y10725D01*
X13194Y10755D02*
X13174D01*
X13164Y10765D01*
X13174Y10775D01*
X13194D01*
X13179D01*
Y10755D01*
X15732Y11366D02*
X15752D01*
X15742D01*
Y11336D01*
X15762D02*
Y11366D01*
X15777D01*
X15782Y11361D01*
Y11351D01*
X15777Y11346D01*
X15762D01*
X15807Y11336D02*
Y11366D01*
X15792Y11351D01*
X15812D01*
X15822Y11366D02*
Y11336D01*
X15837D01*
X15842Y11341D01*
Y11361D01*
X15837Y11366D01*
X15822D01*
X14701D02*
X14721D01*
X14711D01*
Y11336D01*
X14731D02*
Y11366D01*
X14746D01*
X14751Y11361D01*
Y11351D01*
X14746Y11346D01*
X14731D01*
X14776Y11336D02*
Y11366D01*
X14761Y11351D01*
X14781D01*
X14811Y11361D02*
X14806Y11366D01*
X14796D01*
X14791Y11361D01*
Y11341D01*
X14796Y11336D01*
X14806D01*
X14811Y11341D01*
X13650Y11366D02*
X13670D01*
X13660D01*
Y11336D01*
X13680D02*
Y11366D01*
X13695D01*
X13700Y11361D01*
Y11351D01*
X13695Y11346D01*
X13680D01*
X13725Y11336D02*
Y11366D01*
X13710Y11351D01*
X13730D01*
X13740Y11366D02*
Y11336D01*
X13755D01*
X13760Y11341D01*
Y11346D01*
X13755Y11351D01*
X13740D01*
X13755D01*
X13760Y11356D01*
Y11361D01*
X13755Y11366D01*
X13740D01*
X12583Y11384D02*
X12603D01*
X12593D01*
Y11354D01*
X12613D02*
Y11384D01*
X12628D01*
X12633Y11379D01*
Y11369D01*
X12628Y11364D01*
X12613D01*
X12658Y11354D02*
Y11384D01*
X12643Y11369D01*
X12663D01*
X12673Y11354D02*
Y11374D01*
X12683Y11384D01*
X12693Y11374D01*
Y11354D01*
Y11369D01*
X12673D01*
X16220Y11474D02*
X16240D01*
X16230D01*
Y11444D01*
X16250D02*
Y11474D01*
X16265D01*
X16270Y11469D01*
Y11459D01*
X16265Y11454D01*
X16250D01*
X16280Y11469D02*
X16285Y11474D01*
X16295D01*
X16300Y11469D01*
Y11464D01*
X16295Y11459D01*
X16290D01*
X16295D01*
X16300Y11454D01*
Y11449D01*
X16295Y11444D01*
X16285D01*
X16280Y11449D01*
X16310Y11474D02*
Y11444D01*
X16325D01*
X16330Y11449D01*
Y11469D01*
X16325Y11474D01*
X16310D01*
X15189D02*
X15209D01*
X15199D01*
Y11444D01*
X15219D02*
Y11474D01*
X15234D01*
X15239Y11469D01*
Y11459D01*
X15234Y11454D01*
X15219D01*
X15249Y11469D02*
X15254Y11474D01*
X15264D01*
X15269Y11469D01*
Y11464D01*
X15264Y11459D01*
X15259D01*
X15264D01*
X15269Y11454D01*
Y11449D01*
X15264Y11444D01*
X15254D01*
X15249Y11449D01*
X15299Y11469D02*
X15294Y11474D01*
X15284D01*
X15279Y11469D01*
Y11449D01*
X15284Y11444D01*
X15294D01*
X15299Y11449D01*
X14138Y11474D02*
X14158D01*
X14148D01*
Y11444D01*
X14168D02*
Y11474D01*
X14183D01*
X14188Y11469D01*
Y11459D01*
X14183Y11454D01*
X14168D01*
X14198Y11469D02*
X14203Y11474D01*
X14213D01*
X14218Y11469D01*
Y11464D01*
X14213Y11459D01*
X14208D01*
X14213D01*
X14218Y11454D01*
Y11449D01*
X14213Y11444D01*
X14203D01*
X14198Y11449D01*
X14228Y11474D02*
Y11444D01*
X14243D01*
X14248Y11449D01*
Y11454D01*
X14243Y11459D01*
X14228D01*
X14243D01*
X14248Y11464D01*
Y11469D01*
X14243Y11474D01*
X14228D01*
X13091D02*
X13110D01*
X13101D01*
Y11444D01*
X13120D02*
Y11474D01*
X13135D01*
X13140Y11469D01*
Y11459D01*
X13135Y11454D01*
X13120D01*
X13150Y11469D02*
X13155Y11474D01*
X13165D01*
X13170Y11469D01*
Y11464D01*
X13165Y11459D01*
X13160D01*
X13165D01*
X13170Y11454D01*
Y11449D01*
X13165Y11444D01*
X13155D01*
X13150Y11449D01*
X13180Y11444D02*
Y11464D01*
X13190Y11474D01*
X13200Y11464D01*
Y11444D01*
Y11459D01*
X13180D01*
X16551Y10687D02*
Y10707D01*
Y10697D01*
X16581D01*
Y10717D02*
X16551D01*
Y10732D01*
X16556Y10737D01*
X16566D01*
X16571Y10732D01*
Y10717D01*
X16581Y10767D02*
Y10747D01*
X16561Y10767D01*
X16556D01*
X16551Y10762D01*
Y10752D01*
X16556Y10747D01*
X16551Y10777D02*
X16581D01*
Y10792D01*
X16576Y10797D01*
X16556D01*
X16551Y10792D01*
Y10777D01*
X15520Y10687D02*
Y10707D01*
Y10697D01*
X15550D01*
Y10717D02*
X15520D01*
Y10732D01*
X15525Y10737D01*
X15535D01*
X15540Y10732D01*
Y10717D01*
X15550Y10767D02*
Y10747D01*
X15530Y10767D01*
X15525D01*
X15520Y10762D01*
Y10752D01*
X15525Y10747D01*
Y10797D02*
X15520Y10792D01*
Y10782D01*
X15525Y10777D01*
X15545D01*
X15550Y10782D01*
Y10792D01*
X15545Y10797D01*
X14469Y10687D02*
Y10707D01*
Y10697D01*
X14499D01*
Y10717D02*
X14469D01*
Y10732D01*
X14474Y10737D01*
X14484D01*
X14489Y10732D01*
Y10717D01*
X14499Y10767D02*
Y10747D01*
X14479Y10767D01*
X14474D01*
X14469Y10762D01*
Y10752D01*
X14474Y10747D01*
X14469Y10777D02*
X14499D01*
Y10792D01*
X14494Y10797D01*
X14489D01*
X14484Y10792D01*
Y10777D01*
Y10792D01*
X14479Y10797D01*
X14474D01*
X14469Y10792D01*
Y10777D01*
X13422Y10687D02*
Y10707D01*
Y10697D01*
X13452D01*
Y10717D02*
X13422D01*
Y10732D01*
X13427Y10737D01*
X13437D01*
X13442Y10732D01*
Y10717D01*
X13452Y10767D02*
Y10747D01*
X13432Y10767D01*
X13427D01*
X13422Y10762D01*
Y10752D01*
X13427Y10747D01*
X13452Y10777D02*
X13432D01*
X13422Y10787D01*
X13432Y10797D01*
X13452D01*
X13437D01*
Y10777D01*
X16508Y11798D02*
X16528D01*
X16518D01*
Y11768D01*
X16538D02*
Y11798D01*
X16553D01*
X16558Y11793D01*
Y11783D01*
X16553Y11778D01*
X16538D01*
X16568Y11768D02*
X16578D01*
X16573D01*
Y11798D01*
X16568Y11793D01*
X16593Y11798D02*
Y11768D01*
X16608D01*
X16613Y11773D01*
Y11793D01*
X16608Y11798D01*
X16593D01*
X15477D02*
X15497D01*
X15487D01*
Y11768D01*
X15507D02*
Y11798D01*
X15522D01*
X15527Y11793D01*
Y11783D01*
X15522Y11778D01*
X15507D01*
X15537Y11768D02*
X15547D01*
X15542D01*
Y11798D01*
X15537Y11793D01*
X15582D02*
X15577Y11798D01*
X15567D01*
X15562Y11793D01*
Y11773D01*
X15567Y11768D01*
X15577D01*
X15582Y11773D01*
X14426Y11798D02*
X14446D01*
X14436D01*
Y11768D01*
X14456D02*
Y11798D01*
X14471D01*
X14476Y11793D01*
Y11783D01*
X14471Y11778D01*
X14456D01*
X14486Y11768D02*
X14496D01*
X14491D01*
Y11798D01*
X14486Y11793D01*
X14511Y11798D02*
Y11768D01*
X14526D01*
X14531Y11773D01*
Y11778D01*
X14526Y11783D01*
X14511D01*
X14526D01*
X14531Y11788D01*
Y11793D01*
X14526Y11798D01*
X14511D01*
X13379D02*
X13398D01*
X13389D01*
Y11768D01*
X13408D02*
Y11798D01*
X13423D01*
X13428Y11793D01*
Y11783D01*
X13423Y11778D01*
X13408D01*
X13438Y11768D02*
X13448D01*
X13443D01*
Y11798D01*
X13438Y11793D01*
X13463Y11768D02*
Y11788D01*
X13473Y11798D01*
X13483Y11788D01*
Y11768D01*
Y11783D01*
X13463D01*
X16384Y10530D02*
X16354D01*
Y10545D01*
X16359Y10550D01*
X16369D01*
X16374Y10545D01*
Y10530D01*
Y10540D02*
X16384Y10550D01*
Y10580D02*
Y10560D01*
X16364Y10580D01*
X16359D01*
X16354Y10575D01*
Y10565D01*
X16359Y10560D01*
Y10590D02*
X16354Y10595D01*
Y10605D01*
X16359Y10610D01*
X16379D01*
X16384Y10605D01*
Y10595D01*
X16379Y10590D01*
X16359D01*
X16354Y10620D02*
X16384D01*
Y10635D01*
X16379Y10640D01*
X16359D01*
X16354Y10635D01*
Y10620D01*
X15353Y10530D02*
X15323D01*
Y10545D01*
X15328Y10550D01*
X15338D01*
X15343Y10545D01*
Y10530D01*
Y10540D02*
X15353Y10550D01*
Y10580D02*
Y10560D01*
X15333Y10580D01*
X15328D01*
X15323Y10575D01*
Y10565D01*
X15328Y10560D01*
Y10590D02*
X15323Y10595D01*
Y10605D01*
X15328Y10610D01*
X15348D01*
X15353Y10605D01*
Y10595D01*
X15348Y10590D01*
X15328D01*
Y10640D02*
X15323Y10635D01*
Y10625D01*
X15328Y10620D01*
X15348D01*
X15353Y10625D01*
Y10635D01*
X15348Y10640D01*
X14302Y10530D02*
X14272D01*
Y10545D01*
X14277Y10550D01*
X14287D01*
X14292Y10545D01*
Y10530D01*
Y10540D02*
X14302Y10550D01*
Y10580D02*
Y10560D01*
X14282Y10580D01*
X14277D01*
X14272Y10575D01*
Y10565D01*
X14277Y10560D01*
Y10590D02*
X14272Y10595D01*
Y10605D01*
X14277Y10610D01*
X14297D01*
X14302Y10605D01*
Y10595D01*
X14297Y10590D01*
X14277D01*
X14272Y10620D02*
X14302D01*
Y10635D01*
X14297Y10640D01*
X14292D01*
X14287Y10635D01*
Y10620D01*
Y10635D01*
X14282Y10640D01*
X14277D01*
X14272Y10635D01*
Y10620D01*
X13255Y10530D02*
X13225D01*
Y10545D01*
X13230Y10550D01*
X13240D01*
X13245Y10545D01*
Y10530D01*
Y10540D02*
X13255Y10550D01*
Y10580D02*
Y10560D01*
X13235Y10580D01*
X13230D01*
X13225Y10575D01*
Y10565D01*
X13230Y10560D01*
Y10590D02*
X13225Y10595D01*
Y10605D01*
X13230Y10610D01*
X13250D01*
X13255Y10605D01*
Y10595D01*
X13250Y10590D01*
X13230D01*
X13255Y10620D02*
X13235D01*
X13225Y10630D01*
X13235Y10640D01*
X13255D01*
X13240D01*
Y10620D01*
X16524Y12699D02*
Y12729D01*
X16539D01*
X16544Y12724D01*
Y12714D01*
X16539Y12709D01*
X16524D01*
X16534D02*
X16544Y12699D01*
X16554D02*
X16564D01*
X16559D01*
Y12729D01*
X16554Y12724D01*
X16579Y12704D02*
X16584Y12699D01*
X16594D01*
X16599Y12704D01*
Y12724D01*
X16594Y12729D01*
X16584D01*
X16579Y12724D01*
Y12719D01*
X16584Y12714D01*
X16599D01*
X16609Y12729D02*
Y12699D01*
X16624D01*
X16629Y12704D01*
Y12724D01*
X16624Y12729D01*
X16609D01*
X15493Y12699D02*
Y12729D01*
X15508D01*
X15513Y12724D01*
Y12714D01*
X15508Y12709D01*
X15493D01*
X15503D02*
X15513Y12699D01*
X15523D02*
X15533D01*
X15528D01*
Y12729D01*
X15523Y12724D01*
X15548Y12704D02*
X15553Y12699D01*
X15563D01*
X15568Y12704D01*
Y12724D01*
X15563Y12729D01*
X15553D01*
X15548Y12724D01*
Y12719D01*
X15553Y12714D01*
X15568D01*
X15598Y12724D02*
X15593Y12729D01*
X15583D01*
X15578Y12724D01*
Y12704D01*
X15583Y12699D01*
X15593D01*
X15598Y12704D01*
X14442Y12699D02*
Y12729D01*
X14457D01*
X14462Y12724D01*
Y12714D01*
X14457Y12709D01*
X14442D01*
X14452D02*
X14462Y12699D01*
X14472D02*
X14482D01*
X14477D01*
Y12729D01*
X14472Y12724D01*
X14497Y12704D02*
X14502Y12699D01*
X14512D01*
X14517Y12704D01*
Y12724D01*
X14512Y12729D01*
X14502D01*
X14497Y12724D01*
Y12719D01*
X14502Y12714D01*
X14517D01*
X14527Y12729D02*
Y12699D01*
X14542D01*
X14547Y12704D01*
Y12709D01*
X14542Y12714D01*
X14527D01*
X14542D01*
X14547Y12719D01*
Y12724D01*
X14542Y12729D01*
X14527D01*
X13395Y12699D02*
Y12729D01*
X13409D01*
X13414Y12724D01*
Y12714D01*
X13409Y12709D01*
X13395D01*
X13405D02*
X13414Y12699D01*
X13424D02*
X13434D01*
X13429D01*
Y12729D01*
X13424Y12724D01*
X13449Y12704D02*
X13454Y12699D01*
X13464D01*
X13469Y12704D01*
Y12724D01*
X13464Y12729D01*
X13454D01*
X13449Y12724D01*
Y12719D01*
X13454Y12714D01*
X13469D01*
X13479Y12699D02*
Y12719D01*
X13489Y12729D01*
X13499Y12719D01*
Y12699D01*
Y12714D01*
X13479D01*
X16066Y12760D02*
Y12790D01*
X16081D01*
X16086Y12785D01*
Y12775D01*
X16081Y12770D01*
X16066D01*
X16076D02*
X16086Y12760D01*
X16096D02*
X16106D01*
X16101D01*
Y12790D01*
X16096Y12785D01*
X16121D02*
X16126Y12790D01*
X16136D01*
X16141Y12785D01*
Y12780D01*
X16136Y12775D01*
X16141Y12770D01*
Y12765D01*
X16136Y12760D01*
X16126D01*
X16121Y12765D01*
Y12770D01*
X16126Y12775D01*
X16121Y12780D01*
Y12785D01*
X16126Y12775D02*
X16136D01*
X16151Y12790D02*
Y12760D01*
X16166D01*
X16171Y12765D01*
Y12785D01*
X16166Y12790D01*
X16151D01*
X15035Y12760D02*
Y12790D01*
X15050D01*
X15055Y12785D01*
Y12775D01*
X15050Y12770D01*
X15035D01*
X15045D02*
X15055Y12760D01*
X15065D02*
X15075D01*
X15070D01*
Y12790D01*
X15065Y12785D01*
X15090D02*
X15095Y12790D01*
X15105D01*
X15110Y12785D01*
Y12780D01*
X15105Y12775D01*
X15110Y12770D01*
Y12765D01*
X15105Y12760D01*
X15095D01*
X15090Y12765D01*
Y12770D01*
X15095Y12775D01*
X15090Y12780D01*
Y12785D01*
X15095Y12775D02*
X15105D01*
X15140Y12785D02*
X15135Y12790D01*
X15125D01*
X15120Y12785D01*
Y12765D01*
X15125Y12760D01*
X15135D01*
X15140Y12765D01*
X13984Y12760D02*
Y12790D01*
X13999D01*
X14004Y12785D01*
Y12775D01*
X13999Y12770D01*
X13984D01*
X13994D02*
X14004Y12760D01*
X14014D02*
X14024D01*
X14019D01*
Y12790D01*
X14014Y12785D01*
X14039D02*
X14044Y12790D01*
X14054D01*
X14059Y12785D01*
Y12780D01*
X14054Y12775D01*
X14059Y12770D01*
Y12765D01*
X14054Y12760D01*
X14044D01*
X14039Y12765D01*
Y12770D01*
X14044Y12775D01*
X14039Y12780D01*
Y12785D01*
X14044Y12775D02*
X14054D01*
X14069Y12790D02*
Y12760D01*
X14084D01*
X14089Y12765D01*
Y12770D01*
X14084Y12775D01*
X14069D01*
X14084D01*
X14089Y12780D01*
Y12785D01*
X14084Y12790D01*
X14069D01*
X12937Y12760D02*
Y12790D01*
X12951D01*
X12956Y12785D01*
Y12775D01*
X12951Y12770D01*
X12937D01*
X12947D02*
X12956Y12760D01*
X12966D02*
X12976D01*
X12971D01*
Y12790D01*
X12966Y12785D01*
X12991D02*
X12996Y12790D01*
X13006D01*
X13011Y12785D01*
Y12780D01*
X13006Y12775D01*
X13011Y12770D01*
Y12765D01*
X13006Y12760D01*
X12996D01*
X12991Y12765D01*
Y12770D01*
X12996Y12775D01*
X12991Y12780D01*
Y12785D01*
X12996Y12775D02*
X13006D01*
X13021Y12760D02*
Y12780D01*
X13031Y12790D01*
X13041Y12780D01*
Y12760D01*
Y12775D01*
X13021D01*
X16523Y11146D02*
Y11176D01*
X16538D01*
X16543Y11171D01*
Y11161D01*
X16538Y11156D01*
X16523D01*
X16533D02*
X16543Y11146D01*
X16553D02*
X16563D01*
X16558D01*
Y11176D01*
X16553Y11171D01*
X16578Y11176D02*
X16598D01*
Y11171D01*
X16578Y11151D01*
Y11146D01*
X16608Y11176D02*
Y11146D01*
X16623D01*
X16628Y11151D01*
Y11171D01*
X16623Y11176D01*
X16608D01*
X15491Y11146D02*
Y11176D01*
X15506D01*
X15511Y11171D01*
Y11161D01*
X15506Y11156D01*
X15491D01*
X15501D02*
X15511Y11146D01*
X15521D02*
X15531D01*
X15526D01*
Y11176D01*
X15521Y11171D01*
X15546Y11176D02*
X15566D01*
Y11171D01*
X15546Y11151D01*
Y11146D01*
X15596Y11171D02*
X15591Y11176D01*
X15581D01*
X15576Y11171D01*
Y11151D01*
X15581Y11146D01*
X15591D01*
X15596Y11151D01*
X14440Y11146D02*
Y11176D01*
X14455D01*
X14460Y11171D01*
Y11161D01*
X14455Y11156D01*
X14440D01*
X14450D02*
X14460Y11146D01*
X14470D02*
X14480D01*
X14475D01*
Y11176D01*
X14470Y11171D01*
X14495Y11176D02*
X14515D01*
Y11171D01*
X14495Y11151D01*
Y11146D01*
X14525Y11176D02*
Y11146D01*
X14540D01*
X14545Y11151D01*
Y11156D01*
X14540Y11161D01*
X14525D01*
X14540D01*
X14545Y11166D01*
Y11171D01*
X14540Y11176D01*
X14525D01*
X13393Y11146D02*
Y11176D01*
X13408D01*
X13413Y11171D01*
Y11161D01*
X13408Y11156D01*
X13393D01*
X13403D02*
X13413Y11146D01*
X13423D02*
X13433D01*
X13428D01*
Y11176D01*
X13423Y11171D01*
X13448Y11176D02*
X13468D01*
Y11171D01*
X13448Y11151D01*
Y11146D01*
X13478D02*
Y11166D01*
X13488Y11176D01*
X13498Y11166D01*
Y11146D01*
Y11161D01*
X13478D01*
X15807Y11697D02*
X15777D01*
Y11712D01*
X15782Y11717D01*
X15792D01*
X15797Y11712D01*
Y11697D01*
Y11707D02*
X15807Y11717D01*
Y11727D02*
Y11737D01*
Y11732D01*
X15777D01*
X15782Y11727D01*
X15777Y11772D02*
X15782Y11762D01*
X15792Y11752D01*
X15802D01*
X15807Y11757D01*
Y11767D01*
X15802Y11772D01*
X15797D01*
X15792Y11767D01*
Y11752D01*
X15777Y11782D02*
X15807D01*
Y11797D01*
X15802Y11802D01*
X15782D01*
X15777Y11797D01*
Y11782D01*
X14776Y11697D02*
X14746D01*
Y11712D01*
X14751Y11717D01*
X14761D01*
X14766Y11712D01*
Y11697D01*
Y11707D02*
X14776Y11717D01*
Y11727D02*
Y11737D01*
Y11732D01*
X14746D01*
X14751Y11727D01*
X14746Y11772D02*
X14751Y11762D01*
X14761Y11752D01*
X14771D01*
X14776Y11757D01*
Y11767D01*
X14771Y11772D01*
X14766D01*
X14761Y11767D01*
Y11752D01*
X14751Y11802D02*
X14746Y11797D01*
Y11787D01*
X14751Y11782D01*
X14771D01*
X14776Y11787D01*
Y11797D01*
X14771Y11802D01*
X13725Y11697D02*
X13695D01*
Y11712D01*
X13700Y11717D01*
X13710D01*
X13715Y11712D01*
Y11697D01*
Y11707D02*
X13725Y11717D01*
Y11727D02*
Y11737D01*
Y11732D01*
X13695D01*
X13700Y11727D01*
X13695Y11772D02*
X13700Y11762D01*
X13710Y11752D01*
X13720D01*
X13725Y11757D01*
Y11767D01*
X13720Y11772D01*
X13715D01*
X13710Y11767D01*
Y11752D01*
X13695Y11782D02*
X13725D01*
Y11797D01*
X13720Y11802D01*
X13715D01*
X13710Y11797D01*
Y11782D01*
Y11797D01*
X13705Y11802D01*
X13700D01*
X13695Y11797D01*
Y11782D01*
X12678Y11697D02*
X12648D01*
Y11712D01*
X12653Y11717D01*
X12663D01*
X12668Y11712D01*
Y11697D01*
Y11707D02*
X12678Y11717D01*
Y11727D02*
Y11737D01*
Y11732D01*
X12648D01*
X12653Y11727D01*
X12648Y11772D02*
X12653Y11762D01*
X12663Y11752D01*
X12673D01*
X12678Y11757D01*
Y11767D01*
X12673Y11772D01*
X12668D01*
X12663Y11767D01*
Y11752D01*
X12678Y11782D02*
X12658D01*
X12648Y11792D01*
X12658Y11802D01*
X12678D01*
X12663D01*
Y11782D01*
X15813Y12160D02*
X15783D01*
Y12175D01*
X15788Y12180D01*
X15798D01*
X15803Y12175D01*
Y12160D01*
Y12170D02*
X15813Y12180D01*
Y12190D02*
Y12200D01*
Y12195D01*
X15783D01*
X15788Y12190D01*
X15783Y12235D02*
Y12215D01*
X15798D01*
X15793Y12225D01*
Y12230D01*
X15798Y12235D01*
X15808D01*
X15813Y12230D01*
Y12220D01*
X15808Y12215D01*
X15783Y12245D02*
X15813D01*
Y12260D01*
X15808Y12265D01*
X15788D01*
X15783Y12260D01*
Y12245D01*
X14782Y12160D02*
X14752D01*
Y12175D01*
X14757Y12180D01*
X14767D01*
X14772Y12175D01*
Y12160D01*
Y12170D02*
X14782Y12180D01*
Y12190D02*
Y12200D01*
Y12195D01*
X14752D01*
X14757Y12190D01*
X14752Y12235D02*
Y12215D01*
X14767D01*
X14762Y12225D01*
Y12230D01*
X14767Y12235D01*
X14777D01*
X14782Y12230D01*
Y12220D01*
X14777Y12215D01*
X14757Y12265D02*
X14752Y12260D01*
Y12250D01*
X14757Y12245D01*
X14777D01*
X14782Y12250D01*
Y12260D01*
X14777Y12265D01*
X13731Y12160D02*
X13701D01*
Y12175D01*
X13706Y12180D01*
X13716D01*
X13721Y12175D01*
Y12160D01*
Y12170D02*
X13731Y12180D01*
Y12190D02*
Y12200D01*
Y12195D01*
X13701D01*
X13706Y12190D01*
X13701Y12235D02*
Y12215D01*
X13716D01*
X13711Y12225D01*
Y12230D01*
X13716Y12235D01*
X13726D01*
X13731Y12230D01*
Y12220D01*
X13726Y12215D01*
X13701Y12245D02*
X13731D01*
Y12260D01*
X13726Y12265D01*
X13721D01*
X13716Y12260D01*
Y12245D01*
Y12260D01*
X13711Y12265D01*
X13706D01*
X13701Y12260D01*
Y12245D01*
X12684Y12160D02*
X12654D01*
Y12175D01*
X12659Y12180D01*
X12669D01*
X12674Y12175D01*
Y12160D01*
Y12170D02*
X12684Y12180D01*
Y12190D02*
Y12200D01*
Y12195D01*
X12654D01*
X12659Y12190D01*
X12654Y12235D02*
Y12215D01*
X12669D01*
X12664Y12225D01*
Y12230D01*
X12669Y12235D01*
X12679D01*
X12684Y12230D01*
Y12220D01*
X12679Y12215D01*
X12684Y12245D02*
X12664D01*
X12654Y12255D01*
X12664Y12265D01*
X12684D01*
X12669D01*
Y12245D01*
X16448Y10531D02*
X16418D01*
Y10546D01*
X16423Y10551D01*
X16433D01*
X16438Y10546D01*
Y10531D01*
Y10541D02*
X16448Y10551D01*
Y10561D02*
Y10571D01*
Y10566D01*
X16418D01*
X16423Y10561D01*
X16448Y10601D02*
X16418D01*
X16433Y10586D01*
Y10606D01*
X16418Y10616D02*
X16448D01*
Y10631D01*
X16443Y10636D01*
X16423D01*
X16418Y10631D01*
Y10616D01*
X15417Y10531D02*
X15387D01*
Y10546D01*
X15392Y10551D01*
X15402D01*
X15407Y10546D01*
Y10531D01*
Y10541D02*
X15417Y10551D01*
Y10561D02*
Y10571D01*
Y10566D01*
X15387D01*
X15392Y10561D01*
X15417Y10601D02*
X15387D01*
X15402Y10586D01*
Y10606D01*
X15392Y10636D02*
X15387Y10631D01*
Y10621D01*
X15392Y10616D01*
X15412D01*
X15417Y10621D01*
Y10631D01*
X15412Y10636D01*
X14366Y10531D02*
X14336D01*
Y10546D01*
X14341Y10551D01*
X14351D01*
X14356Y10546D01*
Y10531D01*
Y10541D02*
X14366Y10551D01*
Y10561D02*
Y10571D01*
Y10566D01*
X14336D01*
X14341Y10561D01*
X14366Y10601D02*
X14336D01*
X14351Y10586D01*
Y10606D01*
X14336Y10616D02*
X14366D01*
Y10631D01*
X14361Y10636D01*
X14356D01*
X14351Y10631D01*
Y10616D01*
Y10631D01*
X14346Y10636D01*
X14341D01*
X14336Y10631D01*
Y10616D01*
X13296Y10536D02*
X13266D01*
Y10551D01*
X13271Y10556D01*
X13281D01*
X13286Y10551D01*
Y10536D01*
Y10546D02*
X13296Y10556D01*
Y10566D02*
Y10576D01*
Y10571D01*
X13266D01*
X13271Y10566D01*
X13296Y10606D02*
X13266D01*
X13281Y10591D01*
Y10611D01*
X13296Y10621D02*
X13276D01*
X13266Y10631D01*
X13276Y10641D01*
X13296D01*
X13281D01*
Y10621D01*
X16094Y10519D02*
X16064D01*
Y10534D01*
X16069Y10539D01*
X16079D01*
X16084Y10534D01*
Y10519D01*
Y10529D02*
X16094Y10539D01*
Y10549D02*
Y10559D01*
Y10554D01*
X16064D01*
X16069Y10549D01*
Y10574D02*
X16064Y10579D01*
Y10589D01*
X16069Y10594D01*
X16074D01*
X16079Y10589D01*
Y10584D01*
Y10589D01*
X16084Y10594D01*
X16089D01*
X16094Y10589D01*
Y10579D01*
X16089Y10574D01*
X16064Y10604D02*
X16094D01*
Y10619D01*
X16089Y10624D01*
X16069D01*
X16064Y10619D01*
Y10604D01*
X15063Y10519D02*
X15033D01*
Y10534D01*
X15038Y10539D01*
X15048D01*
X15053Y10534D01*
Y10519D01*
Y10529D02*
X15063Y10539D01*
Y10549D02*
Y10559D01*
Y10554D01*
X15033D01*
X15038Y10549D01*
Y10574D02*
X15033Y10579D01*
Y10589D01*
X15038Y10594D01*
X15043D01*
X15048Y10589D01*
Y10584D01*
Y10589D01*
X15053Y10594D01*
X15058D01*
X15063Y10589D01*
Y10579D01*
X15058Y10574D01*
X15038Y10624D02*
X15033Y10619D01*
Y10609D01*
X15038Y10604D01*
X15058D01*
X15063Y10609D01*
Y10619D01*
X15058Y10624D01*
X14012Y10519D02*
X13982D01*
Y10534D01*
X13987Y10539D01*
X13997D01*
X14002Y10534D01*
Y10519D01*
Y10529D02*
X14012Y10539D01*
Y10549D02*
Y10559D01*
Y10554D01*
X13982D01*
X13987Y10549D01*
Y10574D02*
X13982Y10579D01*
Y10589D01*
X13987Y10594D01*
X13992D01*
X13997Y10589D01*
Y10584D01*
Y10589D01*
X14002Y10594D01*
X14007D01*
X14012Y10589D01*
Y10579D01*
X14007Y10574D01*
X13982Y10604D02*
X14012D01*
Y10619D01*
X14007Y10624D01*
X14002D01*
X13997Y10619D01*
Y10604D01*
Y10619D01*
X13992Y10624D01*
X13987D01*
X13982Y10619D01*
Y10604D01*
X12965Y10519D02*
X12935D01*
Y10534D01*
X12940Y10539D01*
X12950D01*
X12955Y10534D01*
Y10519D01*
Y10529D02*
X12965Y10539D01*
Y10549D02*
Y10559D01*
Y10554D01*
X12935D01*
X12940Y10549D01*
Y10574D02*
X12935Y10579D01*
Y10589D01*
X12940Y10594D01*
X12945D01*
X12950Y10589D01*
Y10584D01*
Y10589D01*
X12955Y10594D01*
X12960D01*
X12965Y10589D01*
Y10579D01*
X12960Y10574D01*
X12965Y10604D02*
X12945D01*
X12935Y10614D01*
X12945Y10624D01*
X12965D01*
X12950D01*
Y10604D01*
X16029Y12127D02*
X15999D01*
Y12142D01*
X16004Y12147D01*
X16014D01*
X16019Y12142D01*
Y12127D01*
Y12137D02*
X16029Y12147D01*
Y12157D02*
Y12167D01*
Y12162D01*
X15999D01*
X16004Y12157D01*
X16029Y12202D02*
Y12182D01*
X16009Y12202D01*
X16004D01*
X15999Y12197D01*
Y12187D01*
X16004Y12182D01*
X15999Y12212D02*
X16029D01*
Y12227D01*
X16024Y12232D01*
X16004D01*
X15999Y12227D01*
Y12212D01*
X14998Y12127D02*
X14968D01*
Y12142D01*
X14973Y12147D01*
X14983D01*
X14988Y12142D01*
Y12127D01*
Y12137D02*
X14998Y12147D01*
Y12157D02*
Y12167D01*
Y12162D01*
X14968D01*
X14973Y12157D01*
X14998Y12202D02*
Y12182D01*
X14978Y12202D01*
X14973D01*
X14968Y12197D01*
Y12187D01*
X14973Y12182D01*
Y12232D02*
X14968Y12227D01*
Y12217D01*
X14973Y12212D01*
X14993D01*
X14998Y12217D01*
Y12227D01*
X14993Y12232D01*
X13947Y12127D02*
X13917D01*
Y12142D01*
X13922Y12147D01*
X13932D01*
X13937Y12142D01*
Y12127D01*
Y12137D02*
X13947Y12147D01*
Y12157D02*
Y12167D01*
Y12162D01*
X13917D01*
X13922Y12157D01*
X13947Y12202D02*
Y12182D01*
X13927Y12202D01*
X13922D01*
X13917Y12197D01*
Y12187D01*
X13922Y12182D01*
X13917Y12212D02*
X13947D01*
Y12227D01*
X13942Y12232D01*
X13937D01*
X13932Y12227D01*
Y12212D01*
Y12227D01*
X13927Y12232D01*
X13922D01*
X13917Y12227D01*
Y12212D01*
X12900Y12127D02*
X12870D01*
Y12142D01*
X12875Y12147D01*
X12885D01*
X12890Y12142D01*
Y12127D01*
Y12137D02*
X12900Y12147D01*
Y12157D02*
Y12167D01*
Y12162D01*
X12870D01*
X12875Y12157D01*
X12900Y12202D02*
Y12182D01*
X12880Y12202D01*
X12875D01*
X12870Y12197D01*
Y12187D01*
X12875Y12182D01*
X12900Y12212D02*
X12880D01*
X12870Y12222D01*
X12880Y12232D01*
X12900D01*
X12885D01*
Y12212D01*
X16107Y10484D02*
Y10514D01*
X16122D01*
X16127Y10509D01*
Y10499D01*
X16122Y10494D01*
X16107D01*
X16117D02*
X16127Y10484D01*
X16137D02*
X16147D01*
X16142D01*
Y10514D01*
X16137Y10509D01*
X16162Y10484D02*
X16172D01*
X16167D01*
Y10514D01*
X16162Y10509D01*
X16187Y10514D02*
Y10484D01*
X16202D01*
X16207Y10489D01*
Y10509D01*
X16202Y10514D01*
X16187D01*
X15101Y10487D02*
Y10517D01*
X15116D01*
X15121Y10512D01*
Y10502D01*
X15116Y10497D01*
X15101D01*
X15111D02*
X15121Y10487D01*
X15131D02*
X15141D01*
X15136D01*
Y10517D01*
X15131Y10512D01*
X15156Y10487D02*
X15166D01*
X15161D01*
Y10517D01*
X15156Y10512D01*
X15201D02*
X15196Y10517D01*
X15186D01*
X15181Y10512D01*
Y10492D01*
X15186Y10487D01*
X15196D01*
X15201Y10492D01*
X14009Y10480D02*
Y10510D01*
X14024D01*
X14029Y10505D01*
Y10495D01*
X14024Y10490D01*
X14009D01*
X14019D02*
X14029Y10480D01*
X14039D02*
X14049D01*
X14044D01*
Y10510D01*
X14039Y10505D01*
X14064Y10480D02*
X14074D01*
X14069D01*
Y10510D01*
X14064Y10505D01*
X14089Y10510D02*
Y10480D01*
X14104D01*
X14109Y10485D01*
Y10490D01*
X14104Y10495D01*
X14089D01*
X14104D01*
X14109Y10500D01*
Y10505D01*
X14104Y10510D01*
X14089D01*
X13002Y10487D02*
Y10517D01*
X13017D01*
X13022Y10512D01*
Y10502D01*
X13017Y10497D01*
X13002D01*
X13012D02*
X13022Y10487D01*
X13032D02*
X13042D01*
X13037D01*
Y10517D01*
X13032Y10512D01*
X13057Y10487D02*
X13067D01*
X13062D01*
Y10517D01*
X13057Y10512D01*
X13082Y10487D02*
Y10507D01*
X13092Y10517D01*
X13102Y10507D01*
Y10487D01*
Y10502D01*
X13082D01*
X16238Y10594D02*
X16208D01*
Y10609D01*
X16213Y10614D01*
X16223D01*
X16228Y10609D01*
Y10594D01*
Y10604D02*
X16238Y10614D01*
Y10624D02*
Y10634D01*
Y10629D01*
X16208D01*
X16213Y10624D01*
Y10649D02*
X16208Y10654D01*
Y10664D01*
X16213Y10669D01*
X16233D01*
X16238Y10664D01*
Y10654D01*
X16233Y10649D01*
X16213D01*
X16208Y10679D02*
X16238D01*
Y10694D01*
X16233Y10699D01*
X16213D01*
X16208Y10694D01*
Y10679D01*
X15207Y10594D02*
X15177D01*
Y10609D01*
X15182Y10614D01*
X15192D01*
X15197Y10609D01*
Y10594D01*
Y10604D02*
X15207Y10614D01*
Y10624D02*
Y10634D01*
Y10629D01*
X15177D01*
X15182Y10624D01*
Y10649D02*
X15177Y10654D01*
Y10664D01*
X15182Y10669D01*
X15202D01*
X15207Y10664D01*
Y10654D01*
X15202Y10649D01*
X15182D01*
Y10699D02*
X15177Y10694D01*
Y10684D01*
X15182Y10679D01*
X15202D01*
X15207Y10684D01*
Y10694D01*
X15202Y10699D01*
X14156Y10594D02*
X14126D01*
Y10609D01*
X14131Y10614D01*
X14141D01*
X14146Y10609D01*
Y10594D01*
Y10604D02*
X14156Y10614D01*
Y10624D02*
Y10634D01*
Y10629D01*
X14126D01*
X14131Y10624D01*
Y10649D02*
X14126Y10654D01*
Y10664D01*
X14131Y10669D01*
X14151D01*
X14156Y10664D01*
Y10654D01*
X14151Y10649D01*
X14131D01*
X14126Y10679D02*
X14156D01*
Y10694D01*
X14151Y10699D01*
X14146D01*
X14141Y10694D01*
Y10679D01*
Y10694D01*
X14136Y10699D01*
X14131D01*
X14126Y10694D01*
Y10679D01*
X13109Y10594D02*
X13079D01*
Y10609D01*
X13084Y10614D01*
X13094D01*
X13099Y10609D01*
Y10594D01*
Y10604D02*
X13109Y10614D01*
Y10624D02*
Y10634D01*
Y10629D01*
X13079D01*
X13084Y10624D01*
Y10649D02*
X13079Y10654D01*
Y10664D01*
X13084Y10669D01*
X13104D01*
X13109Y10664D01*
Y10654D01*
X13104Y10649D01*
X13084D01*
X13109Y10679D02*
X13089D01*
X13079Y10689D01*
X13089Y10699D01*
X13109D01*
X13094D01*
Y10679D01*
X16549Y11402D02*
Y11432D01*
X16564D01*
X16569Y11427D01*
Y11417D01*
X16564Y11412D01*
X16549D01*
X16559D02*
X16569Y11402D01*
X16579Y11407D02*
X16584Y11402D01*
X16594D01*
X16599Y11407D01*
Y11427D01*
X16594Y11432D01*
X16584D01*
X16579Y11427D01*
Y11422D01*
X16584Y11417D01*
X16599D01*
X16609Y11432D02*
Y11402D01*
X16624D01*
X16629Y11407D01*
Y11427D01*
X16624Y11432D01*
X16609D01*
X15518Y11402D02*
Y11432D01*
X15533D01*
X15538Y11427D01*
Y11417D01*
X15533Y11412D01*
X15518D01*
X15528D02*
X15538Y11402D01*
X15548Y11407D02*
X15553Y11402D01*
X15563D01*
X15568Y11407D01*
Y11427D01*
X15563Y11432D01*
X15553D01*
X15548Y11427D01*
Y11422D01*
X15553Y11417D01*
X15568D01*
X15598Y11427D02*
X15593Y11432D01*
X15583D01*
X15578Y11427D01*
Y11407D01*
X15583Y11402D01*
X15593D01*
X15598Y11407D01*
X14467Y11402D02*
Y11432D01*
X14482D01*
X14487Y11427D01*
Y11417D01*
X14482Y11412D01*
X14467D01*
X14477D02*
X14487Y11402D01*
X14497Y11407D02*
X14502Y11402D01*
X14512D01*
X14517Y11407D01*
Y11427D01*
X14512Y11432D01*
X14502D01*
X14497Y11427D01*
Y11422D01*
X14502Y11417D01*
X14517D01*
X14527Y11432D02*
Y11402D01*
X14542D01*
X14547Y11407D01*
Y11412D01*
X14542Y11417D01*
X14527D01*
X14542D01*
X14547Y11422D01*
Y11427D01*
X14542Y11432D01*
X14527D01*
X13420Y11402D02*
Y11432D01*
X13434D01*
X13439Y11427D01*
Y11417D01*
X13434Y11412D01*
X13420D01*
X13430D02*
X13439Y11402D01*
X13449Y11407D02*
X13454Y11402D01*
X13464D01*
X13469Y11407D01*
Y11427D01*
X13464Y11432D01*
X13454D01*
X13449Y11427D01*
Y11422D01*
X13454Y11417D01*
X13469D01*
X13479Y11402D02*
Y11422D01*
X13489Y11432D01*
X13499Y11422D01*
Y11402D01*
Y11417D01*
X13479D01*
X15845Y12689D02*
Y12719D01*
X15860D01*
X15865Y12714D01*
Y12704D01*
X15860Y12699D01*
X15845D01*
X15855D02*
X15865Y12689D01*
X15875Y12714D02*
X15880Y12719D01*
X15890D01*
X15895Y12714D01*
Y12709D01*
X15890Y12704D01*
X15895Y12699D01*
Y12694D01*
X15890Y12689D01*
X15880D01*
X15875Y12694D01*
Y12699D01*
X15880Y12704D01*
X15875Y12709D01*
Y12714D01*
X15880Y12704D02*
X15890D01*
X15905Y12719D02*
Y12689D01*
X15920D01*
X15925Y12694D01*
Y12714D01*
X15920Y12719D01*
X15905D01*
X14814Y12689D02*
Y12719D01*
X14829D01*
X14834Y12714D01*
Y12704D01*
X14829Y12699D01*
X14814D01*
X14824D02*
X14834Y12689D01*
X14844Y12714D02*
X14849Y12719D01*
X14859D01*
X14864Y12714D01*
Y12709D01*
X14859Y12704D01*
X14864Y12699D01*
Y12694D01*
X14859Y12689D01*
X14849D01*
X14844Y12694D01*
Y12699D01*
X14849Y12704D01*
X14844Y12709D01*
Y12714D01*
X14849Y12704D02*
X14859D01*
X14894Y12714D02*
X14889Y12719D01*
X14879D01*
X14874Y12714D01*
Y12694D01*
X14879Y12689D01*
X14889D01*
X14894Y12694D01*
X13763Y12689D02*
Y12719D01*
X13778D01*
X13783Y12714D01*
Y12704D01*
X13778Y12699D01*
X13763D01*
X13773D02*
X13783Y12689D01*
X13793Y12714D02*
X13798Y12719D01*
X13808D01*
X13813Y12714D01*
Y12709D01*
X13808Y12704D01*
X13813Y12699D01*
Y12694D01*
X13808Y12689D01*
X13798D01*
X13793Y12694D01*
Y12699D01*
X13798Y12704D01*
X13793Y12709D01*
Y12714D01*
X13798Y12704D02*
X13808D01*
X13823Y12719D02*
Y12689D01*
X13838D01*
X13843Y12694D01*
Y12699D01*
X13838Y12704D01*
X13823D01*
X13838D01*
X13843Y12709D01*
Y12714D01*
X13838Y12719D01*
X13823D01*
X12716Y12689D02*
Y12719D01*
X12730D01*
X12735Y12714D01*
Y12704D01*
X12730Y12699D01*
X12716D01*
X12726D02*
X12735Y12689D01*
X12745Y12714D02*
X12750Y12719D01*
X12760D01*
X12765Y12714D01*
Y12709D01*
X12760Y12704D01*
X12765Y12699D01*
Y12694D01*
X12760Y12689D01*
X12750D01*
X12745Y12694D01*
Y12699D01*
X12750Y12704D01*
X12745Y12709D01*
Y12714D01*
X12750Y12704D02*
X12760D01*
X12775Y12689D02*
Y12709D01*
X12785Y12719D01*
X12795Y12709D01*
Y12689D01*
Y12704D01*
X12775D01*
X16590Y11222D02*
X16560D01*
Y11237D01*
X16565Y11242D01*
X16575D01*
X16580Y11237D01*
Y11222D01*
Y11232D02*
X16590Y11242D01*
X16560Y11252D02*
Y11272D01*
X16565D01*
X16585Y11252D01*
X16590D01*
X16560Y11282D02*
X16590D01*
Y11297D01*
X16585Y11302D01*
X16565D01*
X16560Y11297D01*
Y11282D01*
X15559Y11222D02*
X15529D01*
Y11237D01*
X15534Y11242D01*
X15544D01*
X15549Y11237D01*
Y11222D01*
Y11232D02*
X15559Y11242D01*
X15529Y11252D02*
Y11272D01*
X15534D01*
X15554Y11252D01*
X15559D01*
X15534Y11302D02*
X15529Y11297D01*
Y11287D01*
X15534Y11282D01*
X15554D01*
X15559Y11287D01*
Y11297D01*
X15554Y11302D01*
X14508Y11222D02*
X14478D01*
Y11237D01*
X14483Y11242D01*
X14493D01*
X14498Y11237D01*
Y11222D01*
Y11232D02*
X14508Y11242D01*
X14478Y11252D02*
Y11272D01*
X14483D01*
X14503Y11252D01*
X14508D01*
X14478Y11282D02*
X14508D01*
Y11297D01*
X14503Y11302D01*
X14498D01*
X14493Y11297D01*
Y11282D01*
Y11297D01*
X14488Y11302D01*
X14483D01*
X14478Y11297D01*
Y11282D01*
X13461Y11222D02*
X13431D01*
Y11237D01*
X13436Y11242D01*
X13446D01*
X13451Y11237D01*
Y11222D01*
Y11232D02*
X13461Y11242D01*
X13431Y11252D02*
Y11272D01*
X13436D01*
X13456Y11252D01*
X13461D01*
Y11282D02*
X13441D01*
X13431Y11292D01*
X13441Y11302D01*
X13461D01*
X13446D01*
Y11282D01*
X16545Y11344D02*
Y11374D01*
X16560D01*
X16565Y11369D01*
Y11359D01*
X16560Y11354D01*
X16545D01*
X16555D02*
X16565Y11344D01*
X16595Y11374D02*
X16585Y11369D01*
X16575Y11359D01*
Y11349D01*
X16580Y11344D01*
X16590D01*
X16595Y11349D01*
Y11354D01*
X16590Y11359D01*
X16575D01*
X16605Y11374D02*
Y11344D01*
X16620D01*
X16625Y11349D01*
Y11369D01*
X16620Y11374D01*
X16605D01*
X15514Y11344D02*
Y11374D01*
X15529D01*
X15534Y11369D01*
Y11359D01*
X15529Y11354D01*
X15514D01*
X15524D02*
X15534Y11344D01*
X15564Y11374D02*
X15554Y11369D01*
X15544Y11359D01*
Y11349D01*
X15549Y11344D01*
X15559D01*
X15564Y11349D01*
Y11354D01*
X15559Y11359D01*
X15544D01*
X15594Y11369D02*
X15589Y11374D01*
X15579D01*
X15574Y11369D01*
Y11349D01*
X15579Y11344D01*
X15589D01*
X15594Y11349D01*
X14463Y11344D02*
Y11374D01*
X14478D01*
X14483Y11369D01*
Y11359D01*
X14478Y11354D01*
X14463D01*
X14473D02*
X14483Y11344D01*
X14513Y11374D02*
X14503Y11369D01*
X14493Y11359D01*
Y11349D01*
X14498Y11344D01*
X14508D01*
X14513Y11349D01*
Y11354D01*
X14508Y11359D01*
X14493D01*
X14523Y11374D02*
Y11344D01*
X14538D01*
X14543Y11349D01*
Y11354D01*
X14538Y11359D01*
X14523D01*
X14538D01*
X14543Y11364D01*
Y11369D01*
X14538Y11374D01*
X14523D01*
X13416Y11344D02*
Y11374D01*
X13430D01*
X13435Y11369D01*
Y11359D01*
X13430Y11354D01*
X13416D01*
X13426D02*
X13435Y11344D01*
X13465Y11374D02*
X13455Y11369D01*
X13445Y11359D01*
Y11349D01*
X13450Y11344D01*
X13460D01*
X13465Y11349D01*
Y11354D01*
X13460Y11359D01*
X13445D01*
X13475Y11344D02*
Y11364D01*
X13485Y11374D01*
X13495Y11364D01*
Y11344D01*
Y11359D01*
X13475D01*
X16021Y11508D02*
Y11538D01*
X16036D01*
X16041Y11533D01*
Y11523D01*
X16036Y11518D01*
X16021D01*
X16031D02*
X16041Y11508D01*
X16071Y11538D02*
X16051D01*
Y11523D01*
X16061Y11528D01*
X16066D01*
X16071Y11523D01*
Y11513D01*
X16066Y11508D01*
X16056D01*
X16051Y11513D01*
X16081Y11538D02*
Y11508D01*
X16096D01*
X16101Y11513D01*
Y11533D01*
X16096Y11538D01*
X16081D01*
X14990Y11508D02*
Y11538D01*
X15005D01*
X15010Y11533D01*
Y11523D01*
X15005Y11518D01*
X14990D01*
X15000D02*
X15010Y11508D01*
X15040Y11538D02*
X15020D01*
Y11523D01*
X15030Y11528D01*
X15035D01*
X15040Y11523D01*
Y11513D01*
X15035Y11508D01*
X15025D01*
X15020Y11513D01*
X15070Y11533D02*
X15065Y11538D01*
X15055D01*
X15050Y11533D01*
Y11513D01*
X15055Y11508D01*
X15065D01*
X15070Y11513D01*
X13939Y11508D02*
Y11538D01*
X13954D01*
X13959Y11533D01*
Y11523D01*
X13954Y11518D01*
X13939D01*
X13949D02*
X13959Y11508D01*
X13989Y11538D02*
X13969D01*
Y11523D01*
X13979Y11528D01*
X13984D01*
X13989Y11523D01*
Y11513D01*
X13984Y11508D01*
X13974D01*
X13969Y11513D01*
X13999Y11538D02*
Y11508D01*
X14014D01*
X14019Y11513D01*
Y11518D01*
X14014Y11523D01*
X13999D01*
X14014D01*
X14019Y11528D01*
Y11533D01*
X14014Y11538D01*
X13999D01*
X12892Y11508D02*
Y11538D01*
X12906D01*
X12911Y11533D01*
Y11523D01*
X12906Y11518D01*
X12892D01*
X12902D02*
X12911Y11508D01*
X12941Y11538D02*
X12921D01*
Y11523D01*
X12931Y11528D01*
X12936D01*
X12941Y11523D01*
Y11513D01*
X12936Y11508D01*
X12926D01*
X12921Y11513D01*
X12951Y11508D02*
Y11528D01*
X12961Y11538D01*
X12971Y11528D01*
Y11508D01*
Y11523D01*
X12951D01*
X16103Y11831D02*
X16073D01*
Y11846D01*
X16078Y11851D01*
X16088D01*
X16093Y11846D01*
Y11831D01*
Y11841D02*
X16103Y11851D01*
Y11876D02*
X16073D01*
X16088Y11861D01*
Y11881D01*
X16073Y11891D02*
X16103D01*
Y11906D01*
X16098Y11911D01*
X16078D01*
X16073Y11906D01*
Y11891D01*
X15072Y11831D02*
X15042D01*
Y11846D01*
X15047Y11851D01*
X15057D01*
X15062Y11846D01*
Y11831D01*
Y11841D02*
X15072Y11851D01*
Y11876D02*
X15042D01*
X15057Y11861D01*
Y11881D01*
X15047Y11911D02*
X15042Y11906D01*
Y11896D01*
X15047Y11891D01*
X15067D01*
X15072Y11896D01*
Y11906D01*
X15067Y11911D01*
X14020Y11831D02*
X13990D01*
Y11846D01*
X13995Y11851D01*
X14005D01*
X14010Y11846D01*
Y11831D01*
Y11841D02*
X14020Y11851D01*
Y11876D02*
X13990D01*
X14005Y11861D01*
Y11881D01*
X13990Y11891D02*
X14020D01*
Y11906D01*
X14015Y11911D01*
X14010D01*
X14005Y11906D01*
Y11891D01*
Y11906D01*
X14000Y11911D01*
X13995D01*
X13990Y11906D01*
Y11891D01*
X12973Y11831D02*
X12943D01*
Y11846D01*
X12948Y11851D01*
X12958D01*
X12963Y11846D01*
Y11831D01*
Y11841D02*
X12973Y11851D01*
Y11876D02*
X12943D01*
X12958Y11861D01*
Y11881D01*
X12973Y11891D02*
X12953D01*
X12943Y11901D01*
X12953Y11911D01*
X12973D01*
X12958D01*
Y11891D01*
X16340Y11699D02*
X16310D01*
Y11714D01*
X16315Y11719D01*
X16325D01*
X16330Y11714D01*
Y11699D01*
Y11709D02*
X16340Y11719D01*
X16315Y11729D02*
X16310Y11734D01*
Y11744D01*
X16315Y11749D01*
X16320D01*
X16325Y11744D01*
Y11739D01*
Y11744D01*
X16330Y11749D01*
X16335D01*
X16340Y11744D01*
Y11734D01*
X16335Y11729D01*
X16310Y11759D02*
X16340D01*
Y11774D01*
X16335Y11779D01*
X16315D01*
X16310Y11774D01*
Y11759D01*
X15308Y11699D02*
X15278D01*
Y11714D01*
X15283Y11719D01*
X15293D01*
X15298Y11714D01*
Y11699D01*
Y11709D02*
X15308Y11719D01*
X15283Y11729D02*
X15278Y11734D01*
Y11744D01*
X15283Y11749D01*
X15288D01*
X15293Y11744D01*
Y11739D01*
Y11744D01*
X15298Y11749D01*
X15303D01*
X15308Y11744D01*
Y11734D01*
X15303Y11729D01*
X15283Y11779D02*
X15278Y11774D01*
Y11764D01*
X15283Y11759D01*
X15303D01*
X15308Y11764D01*
Y11774D01*
X15303Y11779D01*
X14257Y11699D02*
X14227D01*
Y11714D01*
X14232Y11719D01*
X14242D01*
X14247Y11714D01*
Y11699D01*
Y11709D02*
X14257Y11719D01*
X14232Y11729D02*
X14227Y11734D01*
Y11744D01*
X14232Y11749D01*
X14237D01*
X14242Y11744D01*
Y11739D01*
Y11744D01*
X14247Y11749D01*
X14252D01*
X14257Y11744D01*
Y11734D01*
X14252Y11729D01*
X14227Y11759D02*
X14257D01*
Y11774D01*
X14252Y11779D01*
X14247D01*
X14242Y11774D01*
Y11759D01*
Y11774D01*
X14237Y11779D01*
X14232D01*
X14227Y11774D01*
Y11759D01*
X13210Y11699D02*
X13180D01*
Y11714D01*
X13185Y11719D01*
X13195D01*
X13200Y11714D01*
Y11699D01*
Y11709D02*
X13210Y11719D01*
X13185Y11729D02*
X13180Y11734D01*
Y11744D01*
X13185Y11749D01*
X13190D01*
X13195Y11744D01*
Y11739D01*
Y11744D01*
X13200Y11749D01*
X13205D01*
X13210Y11744D01*
Y11734D01*
X13205Y11729D01*
X13210Y11759D02*
X13190D01*
X13180Y11769D01*
X13190Y11779D01*
X13210D01*
X13195D01*
Y11759D01*
X15935Y10489D02*
Y10519D01*
X15950D01*
X15955Y10514D01*
Y10504D01*
X15950Y10499D01*
X15935D01*
X15945D02*
X15955Y10489D01*
X15985D02*
X15965D01*
X15985Y10509D01*
Y10514D01*
X15980Y10519D01*
X15970D01*
X15965Y10514D01*
X15995Y10519D02*
Y10489D01*
X16010D01*
X16015Y10494D01*
Y10514D01*
X16010Y10519D01*
X15995D01*
X14904Y10489D02*
Y10519D01*
X14919D01*
X14924Y10514D01*
Y10504D01*
X14919Y10499D01*
X14904D01*
X14914D02*
X14924Y10489D01*
X14954D02*
X14934D01*
X14954Y10509D01*
Y10514D01*
X14949Y10519D01*
X14939D01*
X14934Y10514D01*
X14984D02*
X14979Y10519D01*
X14969D01*
X14964Y10514D01*
Y10494D01*
X14969Y10489D01*
X14979D01*
X14984Y10494D01*
X13852Y10489D02*
Y10519D01*
X13867D01*
X13872Y10514D01*
Y10504D01*
X13867Y10499D01*
X13852D01*
X13862D02*
X13872Y10489D01*
X13902D02*
X13882D01*
X13902Y10509D01*
Y10514D01*
X13897Y10519D01*
X13887D01*
X13882Y10514D01*
X13912Y10519D02*
Y10489D01*
X13927D01*
X13932Y10494D01*
Y10499D01*
X13927Y10504D01*
X13912D01*
X13927D01*
X13932Y10509D01*
Y10514D01*
X13927Y10519D01*
X13912D01*
X12805Y10489D02*
Y10519D01*
X12820D01*
X12825Y10514D01*
Y10504D01*
X12820Y10499D01*
X12805D01*
X12815D02*
X12825Y10489D01*
X12855D02*
X12835D01*
X12855Y10509D01*
Y10514D01*
X12850Y10519D01*
X12840D01*
X12835Y10514D01*
X12865Y10489D02*
Y10509D01*
X12875Y10519D01*
X12885Y10509D01*
Y10489D01*
Y10504D01*
X12865D01*
X15798Y11144D02*
Y11174D01*
X15813D01*
X15818Y11169D01*
Y11159D01*
X15813Y11154D01*
X15798D01*
X15808D02*
X15818Y11144D01*
X15828D02*
X15838D01*
X15833D01*
Y11174D01*
X15828Y11169D01*
X15853Y11174D02*
Y11144D01*
X15868D01*
X15873Y11149D01*
Y11169D01*
X15868Y11174D01*
X15853D01*
X14767Y11144D02*
Y11174D01*
X14782D01*
X14787Y11169D01*
Y11159D01*
X14782Y11154D01*
X14767D01*
X14777D02*
X14787Y11144D01*
X14797D02*
X14807D01*
X14802D01*
Y11174D01*
X14797Y11169D01*
X14842D02*
X14837Y11174D01*
X14827D01*
X14822Y11169D01*
Y11149D01*
X14827Y11144D01*
X14837D01*
X14842Y11149D01*
X13716Y11144D02*
Y11174D01*
X13731D01*
X13736Y11169D01*
Y11159D01*
X13731Y11154D01*
X13716D01*
X13726D02*
X13736Y11144D01*
X13746D02*
X13756D01*
X13751D01*
Y11174D01*
X13746Y11169D01*
X13771Y11174D02*
Y11144D01*
X13786D01*
X13791Y11149D01*
Y11154D01*
X13786Y11159D01*
X13771D01*
X13786D01*
X13791Y11164D01*
Y11169D01*
X13786Y11174D01*
X13771D01*
X12669Y11144D02*
Y11174D01*
X12683D01*
X12688Y11169D01*
Y11159D01*
X12683Y11154D01*
X12669D01*
X12679D02*
X12688Y11144D01*
X12698D02*
X12708D01*
X12703D01*
Y11174D01*
X12698Y11169D01*
X12723Y11144D02*
Y11164D01*
X12733Y11174D01*
X12743Y11164D01*
Y11144D01*
Y11159D01*
X12723D01*
X16103Y12159D02*
Y12178D01*
X16098Y12183D01*
X16088D01*
X16083Y12178D01*
Y12159D01*
X16088Y12154D01*
X16098D01*
X16093Y12164D02*
X16103Y12154D01*
X16098D02*
X16103Y12159D01*
X16113Y12154D02*
X16123D01*
X16118D01*
Y12183D01*
X16113Y12178D01*
X16138D02*
X16143Y12183D01*
X16153D01*
X16158Y12178D01*
Y12159D01*
X16153Y12154D01*
X16143D01*
X16138Y12159D01*
Y12178D01*
X16168Y12183D02*
Y12154D01*
X16183D01*
X16188Y12159D01*
Y12178D01*
X16183Y12183D01*
X16168D01*
X15072Y12159D02*
Y12178D01*
X15067Y12183D01*
X15057D01*
X15052Y12178D01*
Y12159D01*
X15057Y12154D01*
X15067D01*
X15062Y12164D02*
X15072Y12154D01*
X15067D02*
X15072Y12159D01*
X15082Y12154D02*
X15092D01*
X15087D01*
Y12183D01*
X15082Y12178D01*
X15107D02*
X15112Y12183D01*
X15122D01*
X15127Y12178D01*
Y12159D01*
X15122Y12154D01*
X15112D01*
X15107Y12159D01*
Y12178D01*
X15157D02*
X15152Y12183D01*
X15142D01*
X15137Y12178D01*
Y12159D01*
X15142Y12154D01*
X15152D01*
X15157Y12159D01*
X14021D02*
Y12178D01*
X14016Y12183D01*
X14006D01*
X14001Y12178D01*
Y12159D01*
X14006Y12154D01*
X14016D01*
X14011Y12164D02*
X14021Y12154D01*
X14016D02*
X14021Y12159D01*
X14031Y12154D02*
X14041D01*
X14036D01*
Y12183D01*
X14031Y12178D01*
X14056D02*
X14061Y12183D01*
X14071D01*
X14076Y12178D01*
Y12159D01*
X14071Y12154D01*
X14061D01*
X14056Y12159D01*
Y12178D01*
X14086Y12183D02*
Y12154D01*
X14101D01*
X14106Y12159D01*
Y12164D01*
X14101Y12168D01*
X14086D01*
X14101D01*
X14106Y12173D01*
Y12178D01*
X14101Y12183D01*
X14086D01*
X12973Y12159D02*
Y12178D01*
X12968Y12183D01*
X12959D01*
X12954Y12178D01*
Y12159D01*
X12959Y12154D01*
X12968D01*
X12964Y12164D02*
X12973Y12154D01*
X12968D02*
X12973Y12159D01*
X12983Y12154D02*
X12993D01*
X12988D01*
Y12183D01*
X12983Y12178D01*
X13008D02*
X13013Y12183D01*
X13023D01*
X13028Y12178D01*
Y12159D01*
X13023Y12154D01*
X13013D01*
X13008Y12159D01*
Y12178D01*
X13038Y12154D02*
Y12173D01*
X13048Y12183D01*
X13058Y12173D01*
Y12154D01*
Y12168D01*
X13038D01*
X12339Y11736D02*
Y11766D01*
X12354D01*
X12359Y11761D01*
Y11751D01*
X12354Y11746D01*
X12339D01*
X12389Y11736D02*
X12369D01*
X12389Y11756D01*
Y11761D01*
X12384Y11766D01*
X12374D01*
X12369Y11761D01*
X11139Y12213D02*
Y12243D01*
X11154D01*
X11159Y12238D01*
Y12228D01*
X11154Y12223D01*
X11139D01*
X11169Y12213D02*
X11179D01*
X11174D01*
Y12243D01*
X11169Y12238D01*
X13513Y10942D02*
X13508Y10947D01*
X13498D01*
X13493Y10942D01*
Y10922D01*
X13498Y10917D01*
X13508D01*
X13513Y10922D01*
X13543Y10947D02*
X13523D01*
Y10932D01*
X13533Y10937D01*
X13538D01*
X13543Y10932D01*
Y10922D01*
X13538Y10917D01*
X13528D01*
X13523Y10922D01*
X13553D02*
X13558Y10917D01*
X13568D01*
X13573Y10922D01*
Y10942D01*
X13568Y10947D01*
X13558D01*
X13553Y10942D01*
Y10937D01*
X13558Y10932D01*
X13573D01*
X15765Y10879D02*
X15760Y10884D01*
X15750D01*
X15745Y10879D01*
Y10859D01*
X15750Y10854D01*
X15760D01*
X15765Y10859D01*
X15795Y10884D02*
X15775D01*
Y10869D01*
X15785Y10874D01*
X15790D01*
X15795Y10869D01*
Y10859D01*
X15790Y10854D01*
X15780D01*
X15775Y10859D01*
X15820Y10854D02*
Y10884D01*
X15805Y10869D01*
X15825D01*
X16125Y12885D02*
X16120Y12890D01*
X16110D01*
X16105Y12885D01*
Y12865D01*
X16110Y12860D01*
X16120D01*
X16125Y12865D01*
X16150Y12860D02*
Y12890D01*
X16135Y12875D01*
X16155D01*
X16165Y12865D02*
X16170Y12860D01*
X16180D01*
X16185Y12865D01*
Y12885D01*
X16180Y12890D01*
X16170D01*
X16165Y12885D01*
Y12880D01*
X16170Y12875D01*
X16185D01*
X16195Y12890D02*
Y12860D01*
X16210D01*
X16215Y12865D01*
Y12885D01*
X16210Y12890D01*
X16195D01*
X15094Y12885D02*
X15089Y12890D01*
X15079D01*
X15074Y12885D01*
Y12865D01*
X15079Y12860D01*
X15089D01*
X15094Y12865D01*
X15119Y12860D02*
Y12890D01*
X15104Y12875D01*
X15124D01*
X15134Y12865D02*
X15139Y12860D01*
X15149D01*
X15154Y12865D01*
Y12885D01*
X15149Y12890D01*
X15139D01*
X15134Y12885D01*
Y12880D01*
X15139Y12875D01*
X15154D01*
X15184Y12885D02*
X15179Y12890D01*
X15169D01*
X15164Y12885D01*
Y12865D01*
X15169Y12860D01*
X15179D01*
X15184Y12865D01*
X14043Y12885D02*
X14038Y12890D01*
X14028D01*
X14023Y12885D01*
Y12865D01*
X14028Y12860D01*
X14038D01*
X14043Y12865D01*
X14068Y12860D02*
Y12890D01*
X14053Y12875D01*
X14073D01*
X14083Y12865D02*
X14088Y12860D01*
X14098D01*
X14103Y12865D01*
Y12885D01*
X14098Y12890D01*
X14088D01*
X14083Y12885D01*
Y12880D01*
X14088Y12875D01*
X14103D01*
X14113Y12890D02*
Y12860D01*
X14128D01*
X14133Y12865D01*
Y12870D01*
X14128Y12875D01*
X14113D01*
X14128D01*
X14133Y12880D01*
Y12885D01*
X14128Y12890D01*
X14113D01*
X12995Y12885D02*
X12990Y12890D01*
X12981D01*
X12976Y12885D01*
Y12865D01*
X12981Y12860D01*
X12990D01*
X12995Y12865D01*
X13020Y12860D02*
Y12890D01*
X13005Y12875D01*
X13025D01*
X13035Y12865D02*
X13040Y12860D01*
X13050D01*
X13055Y12865D01*
Y12885D01*
X13050Y12890D01*
X13040D01*
X13035Y12885D01*
Y12880D01*
X13040Y12875D01*
X13055D01*
X13065Y12860D02*
Y12880D01*
X13075Y12890D01*
X13085Y12880D01*
Y12860D01*
Y12875D01*
X13065D01*
X15970Y11748D02*
X15965Y11743D01*
Y11733D01*
X15970Y11728D01*
X15990D01*
X15995Y11733D01*
Y11743D01*
X15990Y11748D01*
X15995Y11773D02*
X15965D01*
X15980Y11758D01*
Y11778D01*
X15965Y11808D02*
X15970Y11798D01*
X15980Y11788D01*
X15990D01*
X15995Y11793D01*
Y11803D01*
X15990Y11808D01*
X15985D01*
X15980Y11803D01*
Y11788D01*
X15965Y11818D02*
X15995D01*
Y11833D01*
X15990Y11838D01*
X15970D01*
X15965Y11833D01*
Y11818D01*
X14939Y11748D02*
X14934Y11743D01*
Y11733D01*
X14939Y11728D01*
X14959D01*
X14964Y11733D01*
Y11743D01*
X14959Y11748D01*
X14964Y11773D02*
X14934D01*
X14949Y11758D01*
Y11778D01*
X14934Y11808D02*
X14939Y11798D01*
X14949Y11788D01*
X14959D01*
X14964Y11793D01*
Y11803D01*
X14959Y11808D01*
X14954D01*
X14949Y11803D01*
Y11788D01*
X14939Y11838D02*
X14934Y11833D01*
Y11823D01*
X14939Y11818D01*
X14959D01*
X14964Y11823D01*
Y11833D01*
X14959Y11838D01*
X13888Y11748D02*
X13883Y11743D01*
Y11733D01*
X13888Y11728D01*
X13908D01*
X13913Y11733D01*
Y11743D01*
X13908Y11748D01*
X13913Y11773D02*
X13883D01*
X13898Y11758D01*
Y11778D01*
X13883Y11808D02*
X13888Y11798D01*
X13898Y11788D01*
X13908D01*
X13913Y11793D01*
Y11803D01*
X13908Y11808D01*
X13903D01*
X13898Y11803D01*
Y11788D01*
X13883Y11818D02*
X13913D01*
Y11833D01*
X13908Y11838D01*
X13903D01*
X13898Y11833D01*
Y11818D01*
Y11833D01*
X13893Y11838D01*
X13888D01*
X13883Y11833D01*
Y11818D01*
X12841Y11748D02*
X12836Y11743D01*
Y11733D01*
X12841Y11728D01*
X12861D01*
X12866Y11733D01*
Y11743D01*
X12861Y11748D01*
X12866Y11773D02*
X12836D01*
X12851Y11758D01*
Y11778D01*
X12836Y11808D02*
X12841Y11798D01*
X12851Y11788D01*
X12861D01*
X12866Y11793D01*
Y11803D01*
X12861Y11808D01*
X12856D01*
X12851Y11803D01*
Y11788D01*
X12866Y11818D02*
X12846D01*
X12836Y11828D01*
X12846Y11838D01*
X12866D01*
X12851D01*
Y11818D01*
X16526Y10556D02*
X16521Y10551D01*
Y10541D01*
X16526Y10536D01*
X16546D01*
X16551Y10541D01*
Y10551D01*
X16546Y10556D01*
X16551Y10566D02*
Y10576D01*
Y10571D01*
X16521D01*
X16526Y10566D01*
X16521Y10591D02*
Y10611D01*
X16526D01*
X16546Y10591D01*
X16551D01*
X16521Y10621D02*
X16551D01*
Y10636D01*
X16546Y10641D01*
X16526D01*
X16521Y10636D01*
Y10621D01*
X15501Y10556D02*
X15496Y10551D01*
Y10541D01*
X15501Y10536D01*
X15521D01*
X15526Y10541D01*
Y10551D01*
X15521Y10556D01*
X15526Y10566D02*
Y10576D01*
Y10571D01*
X15496D01*
X15501Y10566D01*
X15496Y10591D02*
Y10611D01*
X15501D01*
X15521Y10591D01*
X15526D01*
X15501Y10641D02*
X15496Y10636D01*
Y10626D01*
X15501Y10621D01*
X15521D01*
X15526Y10626D01*
Y10636D01*
X15521Y10641D01*
X14436Y10555D02*
X14431Y10550D01*
Y10540D01*
X14436Y10535D01*
X14456D01*
X14461Y10540D01*
Y10550D01*
X14456Y10555D01*
X14461Y10565D02*
Y10575D01*
Y10570D01*
X14431D01*
X14436Y10565D01*
X14431Y10590D02*
Y10610D01*
X14436D01*
X14456Y10590D01*
X14461D01*
X14431Y10620D02*
X14461D01*
Y10635D01*
X14456Y10640D01*
X14451D01*
X14446Y10635D01*
Y10620D01*
Y10635D01*
X14441Y10640D01*
X14436D01*
X14431Y10635D01*
Y10620D01*
X13391Y10556D02*
X13386Y10551D01*
Y10541D01*
X13391Y10536D01*
X13411D01*
X13416Y10541D01*
Y10551D01*
X13411Y10556D01*
X13416Y10566D02*
Y10576D01*
Y10571D01*
X13386D01*
X13391Y10566D01*
X13386Y10591D02*
Y10611D01*
X13391D01*
X13411Y10591D01*
X13416D01*
Y10621D02*
X13396D01*
X13386Y10631D01*
X13396Y10641D01*
X13416D01*
X13401D01*
Y10621D01*
X16162Y10613D02*
X16157Y10608D01*
Y10598D01*
X16162Y10593D01*
X16182D01*
X16187Y10598D01*
Y10608D01*
X16182Y10613D01*
X16187Y10623D02*
Y10633D01*
Y10628D01*
X16157D01*
X16162Y10623D01*
X16187Y10668D02*
Y10648D01*
X16167Y10668D01*
X16162D01*
X16157Y10663D01*
Y10653D01*
X16162Y10648D01*
X16157Y10678D02*
X16187D01*
Y10693D01*
X16182Y10698D01*
X16162D01*
X16157Y10693D01*
Y10678D01*
X15131Y10613D02*
X15126Y10608D01*
Y10598D01*
X15131Y10593D01*
X15151D01*
X15156Y10598D01*
Y10608D01*
X15151Y10613D01*
X15156Y10623D02*
Y10633D01*
Y10628D01*
X15126D01*
X15131Y10623D01*
X15156Y10668D02*
Y10648D01*
X15136Y10668D01*
X15131D01*
X15126Y10663D01*
Y10653D01*
X15131Y10648D01*
Y10698D02*
X15126Y10693D01*
Y10683D01*
X15131Y10678D01*
X15151D01*
X15156Y10683D01*
Y10693D01*
X15151Y10698D01*
X14080Y10613D02*
X14075Y10608D01*
Y10598D01*
X14080Y10593D01*
X14100D01*
X14105Y10598D01*
Y10608D01*
X14100Y10613D01*
X14105Y10623D02*
Y10633D01*
Y10628D01*
X14075D01*
X14080Y10623D01*
X14105Y10668D02*
Y10648D01*
X14085Y10668D01*
X14080D01*
X14075Y10663D01*
Y10653D01*
X14080Y10648D01*
X14075Y10678D02*
X14105D01*
Y10693D01*
X14100Y10698D01*
X14095D01*
X14090Y10693D01*
Y10678D01*
Y10693D01*
X14085Y10698D01*
X14080D01*
X14075Y10693D01*
Y10678D01*
X13033Y10613D02*
X13028Y10608D01*
Y10598D01*
X13033Y10593D01*
X13053D01*
X13058Y10598D01*
Y10608D01*
X13053Y10613D01*
X13058Y10623D02*
Y10633D01*
Y10628D01*
X13028D01*
X13033Y10623D01*
X13058Y10668D02*
Y10648D01*
X13038Y10668D01*
X13033D01*
X13028Y10663D01*
Y10653D01*
X13033Y10648D01*
X13058Y10678D02*
X13038D01*
X13028Y10688D01*
X13038Y10698D01*
X13058D01*
X13043D01*
Y10678D01*
X16031Y11863D02*
X16026Y11858D01*
Y11848D01*
X16031Y11843D01*
X16051D01*
X16056Y11848D01*
Y11858D01*
X16051Y11863D01*
X16031Y11873D02*
X16026Y11878D01*
Y11888D01*
X16031Y11893D01*
X16036D01*
X16041Y11888D01*
X16046Y11893D01*
X16051D01*
X16056Y11888D01*
Y11878D01*
X16051Y11873D01*
X16046D01*
X16041Y11878D01*
X16036Y11873D01*
X16031D01*
X16041Y11878D02*
Y11888D01*
X16026Y11903D02*
X16056D01*
Y11918D01*
X16051Y11923D01*
X16031D01*
X16026Y11918D01*
Y11903D01*
X15000Y11863D02*
X14995Y11858D01*
Y11848D01*
X15000Y11843D01*
X15020D01*
X15025Y11848D01*
Y11858D01*
X15020Y11863D01*
X15000Y11873D02*
X14995Y11878D01*
Y11888D01*
X15000Y11893D01*
X15005D01*
X15010Y11888D01*
X15015Y11893D01*
X15020D01*
X15025Y11888D01*
Y11878D01*
X15020Y11873D01*
X15015D01*
X15010Y11878D01*
X15005Y11873D01*
X15000D01*
X15010Y11878D02*
Y11888D01*
X15000Y11923D02*
X14995Y11918D01*
Y11908D01*
X15000Y11903D01*
X15020D01*
X15025Y11908D01*
Y11918D01*
X15020Y11923D01*
X13949Y11863D02*
X13944Y11858D01*
Y11848D01*
X13949Y11843D01*
X13969D01*
X13974Y11848D01*
Y11858D01*
X13969Y11863D01*
X13949Y11873D02*
X13944Y11878D01*
Y11888D01*
X13949Y11893D01*
X13954D01*
X13959Y11888D01*
X13964Y11893D01*
X13969D01*
X13974Y11888D01*
Y11878D01*
X13969Y11873D01*
X13964D01*
X13959Y11878D01*
X13954Y11873D01*
X13949D01*
X13959Y11878D02*
Y11888D01*
X13944Y11903D02*
X13974D01*
Y11918D01*
X13969Y11923D01*
X13964D01*
X13959Y11918D01*
Y11903D01*
Y11918D01*
X13954Y11923D01*
X13949D01*
X13944Y11918D01*
Y11903D01*
X12902Y11863D02*
X12897Y11858D01*
Y11848D01*
X12902Y11843D01*
X12922D01*
X12927Y11848D01*
Y11858D01*
X12922Y11863D01*
X12902Y11873D02*
X12897Y11878D01*
Y11888D01*
X12902Y11893D01*
X12907D01*
X12912Y11888D01*
X12917Y11893D01*
X12922D01*
X12927Y11888D01*
Y11878D01*
X12922Y11873D01*
X12917D01*
X12912Y11878D01*
X12907Y11873D01*
X12902D01*
X12912Y11878D02*
Y11888D01*
X12927Y11903D02*
X12907D01*
X12897Y11913D01*
X12907Y11923D01*
X12927D01*
X12912D01*
Y11903D01*
X12456Y12153D02*
X12451Y12148D01*
Y12138D01*
X12456Y12133D01*
X12476D01*
X12481Y12138D01*
Y12148D01*
X12476Y12153D01*
X12451Y12163D02*
Y12183D01*
X12456D01*
X12476Y12163D01*
X12481D01*
X16454Y12227D02*
X16449Y12232D01*
X16439D01*
X16434Y12227D01*
Y12207D01*
X16439Y12202D01*
X16449D01*
X16454Y12207D01*
X16484Y12232D02*
X16474Y12227D01*
X16464Y12217D01*
Y12207D01*
X16469Y12202D01*
X16479D01*
X16484Y12207D01*
Y12212D01*
X16479Y12217D01*
X16464D01*
X16494Y12232D02*
Y12202D01*
X16509D01*
X16514Y12207D01*
Y12227D01*
X16509Y12232D01*
X16494D01*
X15423Y12227D02*
X15418Y12232D01*
X15408D01*
X15403Y12227D01*
Y12207D01*
X15408Y12202D01*
X15418D01*
X15423Y12207D01*
X15453Y12232D02*
X15443Y12227D01*
X15433Y12217D01*
Y12207D01*
X15438Y12202D01*
X15448D01*
X15453Y12207D01*
Y12212D01*
X15448Y12217D01*
X15433D01*
X15483Y12227D02*
X15478Y12232D01*
X15468D01*
X15463Y12227D01*
Y12207D01*
X15468Y12202D01*
X15478D01*
X15483Y12207D01*
X14372Y12227D02*
X14367Y12232D01*
X14357D01*
X14352Y12227D01*
Y12207D01*
X14357Y12202D01*
X14367D01*
X14372Y12207D01*
X14402Y12232D02*
X14392Y12227D01*
X14382Y12217D01*
Y12207D01*
X14387Y12202D01*
X14397D01*
X14402Y12207D01*
Y12212D01*
X14397Y12217D01*
X14382D01*
X14412Y12232D02*
Y12202D01*
X14427D01*
X14432Y12207D01*
Y12212D01*
X14427Y12217D01*
X14412D01*
X14427D01*
X14432Y12222D01*
Y12227D01*
X14427Y12232D01*
X14412D01*
X13324Y12227D02*
X13319Y12232D01*
X13310D01*
X13305Y12227D01*
Y12207D01*
X13310Y12202D01*
X13319D01*
X13324Y12207D01*
X13354Y12232D02*
X13344Y12227D01*
X13334Y12217D01*
Y12207D01*
X13339Y12202D01*
X13349D01*
X13354Y12207D01*
Y12212D01*
X13349Y12217D01*
X13334D01*
X13364Y12202D02*
Y12222D01*
X13374Y12232D01*
X13384Y12222D01*
Y12202D01*
Y12217D01*
X13364D01*
X16488Y11928D02*
X16483Y11933D01*
X16473D01*
X16468Y11928D01*
Y11908D01*
X16473Y11903D01*
X16483D01*
X16488Y11908D01*
X16498Y11903D02*
X16508D01*
X16503D01*
Y11933D01*
X16498Y11928D01*
X16523Y11933D02*
Y11903D01*
X16538D01*
X16543Y11908D01*
Y11928D01*
X16538Y11933D01*
X16523D01*
X15457Y11928D02*
X15452Y11933D01*
X15442D01*
X15437Y11928D01*
Y11908D01*
X15442Y11903D01*
X15452D01*
X15457Y11908D01*
X15467Y11903D02*
X15477D01*
X15472D01*
Y11933D01*
X15467Y11928D01*
X15512D02*
X15507Y11933D01*
X15497D01*
X15492Y11928D01*
Y11908D01*
X15497Y11903D01*
X15507D01*
X15512Y11908D01*
X14406Y11928D02*
X14401Y11933D01*
X14391D01*
X14386Y11928D01*
Y11908D01*
X14391Y11903D01*
X14401D01*
X14406Y11908D01*
X14416Y11903D02*
X14426D01*
X14421D01*
Y11933D01*
X14416Y11928D01*
X14441Y11933D02*
Y11903D01*
X14456D01*
X14461Y11908D01*
Y11913D01*
X14456Y11918D01*
X14441D01*
X14456D01*
X14461Y11923D01*
Y11928D01*
X14456Y11933D01*
X14441D01*
X13358Y11928D02*
X13353Y11933D01*
X13344D01*
X13339Y11928D01*
Y11908D01*
X13344Y11903D01*
X13353D01*
X13358Y11908D01*
X13368Y11903D02*
X13378D01*
X13373D01*
Y11933D01*
X13368Y11928D01*
X13393Y11903D02*
Y11923D01*
X13403Y11933D01*
X13413Y11923D01*
Y11903D01*
Y11918D01*
X13393D01*
X13960Y12981D02*
Y12956D01*
X13965Y12951D01*
X13975D01*
X13980Y12956D01*
Y12981D01*
X14010D02*
X14000Y12976D01*
X13990Y12966D01*
Y12956D01*
X13995Y12951D01*
X14005D01*
X14010Y12956D01*
Y12961D01*
X14005Y12966D01*
X13990D01*
X14020Y12981D02*
Y12951D01*
X14035D01*
X14040Y12956D01*
Y12961D01*
X14035Y12966D01*
X14020D01*
X14035D01*
X14040Y12971D01*
Y12976D01*
X14035Y12981D01*
X14020D01*
X11316Y11850D02*
Y11880D01*
X11331D01*
X11336Y11875D01*
Y11865D01*
X11331Y11860D01*
X11316D01*
X11326D02*
X11336Y11850D01*
X11346D02*
Y11880D01*
X11366Y11850D01*
Y11880D01*
X11376Y11850D02*
X11386D01*
X11381D01*
Y11880D01*
X11376Y11875D01*
X15640Y13768D02*
X15670D01*
Y13783D01*
X15665Y13788D01*
X15645D01*
X15640Y13783D01*
Y13768D01*
X15670Y13798D02*
Y13808D01*
Y13803D01*
X15640D01*
X15645Y13798D01*
X16136Y13768D02*
X16166D01*
Y13783D01*
X16161Y13788D01*
X16141D01*
X16136Y13783D01*
Y13768D01*
X16166Y13818D02*
Y13798D01*
X16146Y13818D01*
X16141D01*
X16136Y13813D01*
Y13803D01*
X16141Y13798D01*
X14883Y13904D02*
Y13874D01*
X14898D01*
X14903Y13879D01*
Y13899D01*
X14898Y13904D01*
X14883D01*
X14913Y13899D02*
X14918Y13904D01*
X14928D01*
X14933Y13899D01*
Y13894D01*
X14928Y13889D01*
X14923D01*
X14928D01*
X14933Y13884D01*
Y13879D01*
X14928Y13874D01*
X14918D01*
X14913Y13879D01*
X15296Y13849D02*
Y13819D01*
X15311D01*
X15316Y13824D01*
Y13844D01*
X15311Y13849D01*
X15296D01*
X15341Y13819D02*
Y13849D01*
X15326Y13834D01*
X15346D01*
X15774Y13760D02*
X15804D01*
Y13775D01*
X15799Y13780D01*
X15779D01*
X15774Y13775D01*
Y13760D01*
Y13810D02*
Y13790D01*
X15789D01*
X15784Y13800D01*
Y13805D01*
X15789Y13810D01*
X15799D01*
X15804Y13805D01*
Y13795D01*
X15799Y13790D01*
X16274Y13760D02*
X16304D01*
Y13775D01*
X16299Y13780D01*
X16279D01*
X16274Y13775D01*
Y13760D01*
Y13810D02*
X16279Y13800D01*
X16289Y13790D01*
X16299D01*
X16304Y13795D01*
Y13805D01*
X16299Y13810D01*
X16294D01*
X16289Y13805D01*
Y13790D01*
X11477Y11159D02*
X11472Y11164D01*
X11462D01*
X11457Y11159D01*
Y11154D01*
X11462Y11149D01*
X11472D01*
X11477Y11144D01*
Y11139D01*
X11472Y11134D01*
X11462D01*
X11457Y11139D01*
X11507Y11159D02*
X11502Y11164D01*
X11492D01*
X11487Y11159D01*
Y11139D01*
X11492Y11134D01*
X11502D01*
X11507Y11139D01*
X11517Y11164D02*
Y11134D01*
X11537D01*
X11547Y11164D02*
Y11134D01*
Y11144D01*
X11567Y11164D01*
X11552Y11149D01*
X11567Y11134D01*
X11485Y10950D02*
X11480Y10955D01*
X11470D01*
X11465Y10950D01*
Y10945D01*
X11470Y10940D01*
X11480D01*
X11485Y10935D01*
Y10930D01*
X11480Y10925D01*
X11470D01*
X11465Y10930D01*
X11495Y10955D02*
X11505D01*
X11500D01*
Y10925D01*
X11495D01*
X11505D01*
X11520D02*
Y10955D01*
X11530Y10945D01*
X11540Y10955D01*
Y10925D01*
X11565Y10955D02*
X11555D01*
X11550Y10950D01*
Y10930D01*
X11555Y10925D01*
X11565D01*
X11570Y10930D01*
Y10950D01*
X11565Y10955D01*
X11481Y10749D02*
X11476Y10754D01*
X11466D01*
X11461Y10749D01*
Y10744D01*
X11466Y10739D01*
X11476D01*
X11481Y10734D01*
Y10729D01*
X11476Y10724D01*
X11466D01*
X11461Y10729D01*
X11506Y10754D02*
X11496D01*
X11491Y10749D01*
Y10729D01*
X11496Y10724D01*
X11506D01*
X11511Y10729D01*
Y10749D01*
X11506Y10754D01*
X11521Y10724D02*
Y10754D01*
X11531Y10744D01*
X11541Y10754D01*
Y10724D01*
X11551Y10754D02*
X11561D01*
X11556D01*
Y10724D01*
X11551D01*
X11561D01*
X12233Y10898D02*
X12253Y10918D01*
X12283Y10923D02*
X12278Y10928D01*
X12268D01*
X12263Y10923D01*
Y10903D01*
X12268Y10898D01*
X12278D01*
X12283Y10903D01*
Y10913D01*
X12273D01*
X12293Y10898D02*
Y10918D01*
X12303Y10928D01*
X12313Y10918D01*
Y10898D01*
Y10913D01*
X12293D01*
X12323Y10928D02*
X12333D01*
X12328D01*
Y10898D01*
X12323D01*
X12333D01*
X12348D02*
Y10928D01*
X12368Y10898D01*
Y10928D01*
X12423Y10898D02*
Y10928D01*
X12408Y10913D01*
X12428D01*
X12438Y10928D02*
X12458Y10898D01*
Y10928D02*
X12438Y10898D01*
X12257Y11150D02*
X12277Y11170D01*
X12287Y11150D02*
Y11180D01*
X12302D01*
X12307Y11175D01*
Y11165D01*
X12302Y11160D01*
X12287D01*
X12297D02*
X12307Y11150D01*
X12337Y11175D02*
X12332Y11180D01*
X12322D01*
X12317Y11175D01*
Y11170D01*
X12322Y11165D01*
X12332D01*
X12337Y11160D01*
Y11155D01*
X12332Y11150D01*
X12322D01*
X12317Y11155D01*
X12347Y11180D02*
X12367D01*
X12357D01*
Y11150D01*
X12407Y11180D02*
Y11150D01*
X12422D01*
X12427Y11155D01*
Y11160D01*
X12422Y11165D01*
X12407D01*
X12422D01*
X12427Y11170D01*
Y11175D01*
X12422Y11180D01*
X12407D01*
X12437D02*
Y11150D01*
X12457D01*
X12467Y11180D02*
Y11150D01*
Y11160D01*
X12487Y11180D01*
X12472Y11165D01*
X12487Y11150D01*
X12536Y11862D02*
Y11882D01*
X12546Y11892D01*
X12556Y11882D01*
Y11862D01*
Y11877D01*
X12536D01*
X12586Y11887D02*
X12581Y11892D01*
X12571D01*
X12566Y11887D01*
Y11867D01*
X12571Y11862D01*
X12581D01*
X12586Y11867D01*
Y11877D01*
X12576D01*
X12596Y11862D02*
Y11892D01*
X12616Y11862D01*
Y11892D01*
X12626D02*
Y11862D01*
X12641D01*
X12646Y11867D01*
Y11887D01*
X12641Y11892D01*
X12626D01*
X12391D02*
Y11862D01*
X12406D01*
X12411Y11867D01*
Y11887D01*
X12406Y11892D01*
X12391D01*
X12440Y11887D02*
X12435Y11892D01*
X12426D01*
X12421Y11887D01*
Y11867D01*
X12426Y11862D01*
X12435D01*
X12440Y11867D01*
Y11877D01*
X12430D01*
X12450Y11862D02*
Y11892D01*
X12470Y11862D01*
Y11892D01*
X12480D02*
Y11862D01*
X12495D01*
X12500Y11867D01*
Y11887D01*
X12495Y11892D01*
X12480D01*
X10954Y13861D02*
Y13831D01*
X10968D01*
X10973Y13836D01*
Y13856D01*
X10968Y13861D01*
X10954D01*
X11003Y13856D02*
X10998Y13861D01*
X10988D01*
X10983Y13856D01*
Y13836D01*
X10988Y13831D01*
X10998D01*
X11003Y13836D01*
Y13846D01*
X10993D01*
X11013Y13831D02*
Y13861D01*
X11033Y13831D01*
Y13861D01*
X11043D02*
Y13831D01*
X11058D01*
X11063Y13836D01*
Y13856D01*
X11058Y13861D01*
X11043D01*
X16312Y14101D02*
Y14081D01*
X16322Y14071D01*
X16332Y14081D01*
Y14101D01*
X16362Y14096D02*
X16357Y14101D01*
X16347D01*
X16342Y14096D01*
Y14076D01*
X16347Y14071D01*
X16357D01*
X16362Y14076D01*
X16392Y14096D02*
X16387Y14101D01*
X16377D01*
X16372Y14096D01*
Y14076D01*
X16377Y14071D01*
X16387D01*
X16392Y14076D01*
X16024Y14086D02*
X16044D01*
X16074Y14101D02*
X16054D01*
Y14086D01*
X16064Y14091D01*
X16069D01*
X16074Y14086D01*
Y14076D01*
X16069Y14071D01*
X16059D01*
X16054Y14076D01*
X16084Y14071D02*
Y14091D01*
X16094Y14101D01*
X16104Y14091D01*
Y14071D01*
Y14086D01*
X16084D01*
X16114Y14071D02*
Y14101D01*
X16134Y14071D01*
Y14101D01*
X16144Y14071D02*
Y14091D01*
X16154Y14101D01*
X16164Y14091D01*
Y14071D01*
Y14086D01*
X16144D01*
X15788Y14090D02*
X15808D01*
X15798Y14100D02*
Y14080D01*
X15838Y14105D02*
X15818D01*
Y14090D01*
X15828Y14095D01*
X15833D01*
X15838Y14090D01*
Y14080D01*
X15833Y14075D01*
X15823D01*
X15818Y14080D01*
X15848Y14075D02*
Y14095D01*
X15858Y14105D01*
X15868Y14095D01*
Y14075D01*
Y14090D01*
X15848D01*
X15878Y14075D02*
Y14105D01*
X15898Y14075D01*
Y14105D01*
X15908Y14075D02*
Y14095D01*
X15918Y14105D01*
X15928Y14095D01*
Y14075D01*
Y14090D01*
X15908D01*
X15548Y14086D02*
X15568D01*
X15578Y14071D02*
X15588D01*
X15583D01*
Y14101D01*
X15578Y14096D01*
X15623Y14071D02*
X15603D01*
X15623Y14091D01*
Y14096D01*
X15618Y14101D01*
X15608D01*
X15603Y14096D01*
X15633Y14101D02*
Y14081D01*
X15643Y14071D01*
X15653Y14081D01*
Y14101D01*
X15300Y14086D02*
X15320D01*
X15310Y14096D02*
Y14076D01*
X15330Y14071D02*
X15340D01*
X15335D01*
Y14101D01*
X15330Y14096D01*
X15375Y14071D02*
X15355D01*
X15375Y14091D01*
Y14096D01*
X15370Y14101D01*
X15360D01*
X15355Y14096D01*
X15385Y14101D02*
Y14081D01*
X15395Y14071D01*
X15405Y14081D01*
Y14101D01*
X15036Y14078D02*
X15056D01*
X15046Y14088D02*
Y14068D01*
X15086Y14063D02*
X15066D01*
X15086Y14083D01*
Y14088D01*
X15081Y14093D01*
X15071D01*
X15066Y14088D01*
X15096D02*
X15101Y14093D01*
X15111D01*
X15116Y14088D01*
Y14083D01*
X15111Y14078D01*
X15116Y14073D01*
Y14068D01*
X15111Y14063D01*
X15101D01*
X15096Y14068D01*
Y14073D01*
X15101Y14078D01*
X15096Y14083D01*
Y14088D01*
X15101Y14078D02*
X15111D01*
X15126Y14093D02*
Y14073D01*
X15136Y14063D01*
X15146Y14073D01*
Y14093D01*
X14556Y14000D02*
Y14020D01*
X14566Y14030D01*
X14576Y14020D01*
Y14000D01*
Y14015D01*
X14556D01*
X14606Y14025D02*
X14601Y14030D01*
X14591D01*
X14586Y14025D01*
Y14005D01*
X14591Y14000D01*
X14601D01*
X14606Y14005D01*
Y14015D01*
X14596D01*
X14616Y14000D02*
Y14030D01*
X14636Y14000D01*
Y14030D01*
X14646D02*
Y14000D01*
X14661D01*
X14666Y14005D01*
Y14025D01*
X14661Y14030D01*
X14646D01*
X13587Y12976D02*
Y12996D01*
X13597Y13006D01*
X13607Y12996D01*
Y12976D01*
Y12991D01*
X13587D01*
X13637Y13001D02*
X13632Y13006D01*
X13622D01*
X13617Y13001D01*
Y12981D01*
X13622Y12976D01*
X13632D01*
X13637Y12981D01*
Y12991D01*
X13627D01*
X13647Y12976D02*
Y13006D01*
X13667Y12976D01*
Y13006D01*
X13677D02*
Y12976D01*
X13692D01*
X13697Y12981D01*
Y13001D01*
X13692Y13006D01*
X13677D01*
X14591Y11693D02*
Y11713D01*
X14601Y11723D01*
X14611Y11713D01*
Y11693D01*
Y11708D01*
X14591D01*
X14641Y11718D02*
X14636Y11723D01*
X14626D01*
X14621Y11718D01*
Y11698D01*
X14626Y11693D01*
X14636D01*
X14641Y11698D01*
Y11708D01*
X14631D01*
X14651Y11693D02*
Y11723D01*
X14671Y11693D01*
Y11723D01*
X14681D02*
Y11693D01*
X14696D01*
X14701Y11698D01*
Y11718D01*
X14696Y11723D01*
X14681D01*
X16524Y13827D02*
Y13847D01*
X16534Y13857D01*
X16544Y13847D01*
Y13827D01*
Y13842D01*
X16524D01*
X16574Y13852D02*
X16569Y13857D01*
X16559D01*
X16554Y13852D01*
Y13832D01*
X16559Y13827D01*
X16569D01*
X16574Y13832D01*
Y13842D01*
X16564D01*
X16584Y13827D02*
Y13857D01*
X16604Y13827D01*
Y13857D01*
X16614D02*
Y13827D01*
X16629D01*
X16634Y13832D01*
Y13852D01*
X16629Y13857D01*
X16614D01*
X15366Y10371D02*
Y10381D01*
Y10376D01*
X15336D01*
X15341Y10371D01*
X13056Y10356D02*
Y10366D01*
Y10361D01*
X13026D01*
X13031Y10356D01*
X13026Y10401D02*
Y10381D01*
X13041D01*
X13036Y10391D01*
Y10396D01*
X13041Y10401D01*
X13051D01*
X13056Y10396D01*
Y10386D01*
X13051Y10381D01*
X13026Y10431D02*
Y10411D01*
X13041D01*
X13036Y10421D01*
Y10426D01*
X13041Y10431D01*
X13051D01*
X13056Y10426D01*
Y10416D01*
X13051Y10411D01*
X15651Y10326D02*
X15621D01*
Y10341D01*
X15626Y10346D01*
X15636D01*
X15641Y10341D01*
Y10326D01*
X15626Y10376D02*
X15621Y10371D01*
Y10361D01*
X15626Y10356D01*
X15646D01*
X15651Y10361D01*
Y10371D01*
X15646Y10376D01*
X15626Y10386D02*
X15621Y10391D01*
Y10401D01*
X15626Y10406D01*
X15646D01*
X15651Y10401D01*
Y10391D01*
X15646Y10386D01*
X15626D01*
X15651Y10416D02*
Y10426D01*
Y10421D01*
X15621D01*
X15626Y10416D01*
X12771Y10321D02*
X12741D01*
Y10336D01*
X12746Y10341D01*
X12756D01*
X12761Y10336D01*
Y10321D01*
X12746Y10371D02*
X12741Y10366D01*
Y10356D01*
X12746Y10351D01*
X12766D01*
X12771Y10356D01*
Y10366D01*
X12766Y10371D01*
X12746Y10381D02*
X12741Y10386D01*
Y10396D01*
X12746Y10401D01*
X12766D01*
X12771Y10396D01*
Y10386D01*
X12766Y10381D01*
X12746D01*
X12741Y10411D02*
Y10431D01*
X12746D01*
X12766Y10411D01*
X12771D01*
X13167Y12037D02*
X13154D01*
X13161D01*
Y11997D01*
X13167Y12003D01*
X14214Y12037D02*
X14201D01*
X14208D01*
Y11997D01*
X14214Y12003D01*
X15266Y12037D02*
X15252D01*
X15259D01*
Y11997D01*
X15266Y12003D01*
X16297Y12037D02*
X16284D01*
X16290D01*
Y11997D01*
X16297Y12003D01*
X13509Y11038D02*
Y11008D01*
X13524D01*
X13529Y11013D01*
Y11033D01*
X13524Y11038D01*
X13509D01*
X13559Y11033D02*
X13554Y11038D01*
X13544D01*
X13539Y11033D01*
Y11013D01*
X13544Y11008D01*
X13554D01*
X13559Y11013D01*
X13599Y11038D02*
Y11008D01*
Y11023D01*
X13619D01*
Y11038D01*
Y11008D01*
X13644Y11038D02*
X13634D01*
X13629Y11033D01*
Y11013D01*
X13634Y11008D01*
X13644D01*
X13649Y11013D01*
Y11033D01*
X13644Y11038D01*
X13659D02*
Y11008D01*
X13679D01*
X13689Y11038D02*
Y11008D01*
X13704D01*
X13709Y11013D01*
Y11033D01*
X13704Y11038D01*
X13689D01*
X15654Y12953D02*
X15674Y12973D01*
X15704Y12978D02*
X15699Y12983D01*
X15689D01*
X15684Y12978D01*
Y12958D01*
X15689Y12953D01*
X15699D01*
X15704Y12958D01*
X15729Y12983D02*
X15719D01*
X15714Y12978D01*
Y12958D01*
X15719Y12953D01*
X15729D01*
X15734Y12958D01*
Y12978D01*
X15729Y12983D01*
X15744Y12953D02*
Y12983D01*
X15764Y12953D01*
Y12983D01*
X15774D02*
Y12963D01*
X15784Y12953D01*
X15794Y12963D01*
Y12983D01*
X15824Y12978D02*
X15819Y12983D01*
X15809D01*
X15804Y12978D01*
Y12973D01*
X15809Y12968D01*
X15819D01*
X15824Y12963D01*
Y12958D01*
X15819Y12953D01*
X15809D01*
X15804Y12958D01*
X15834Y12983D02*
X15854D01*
X15844D01*
Y12953D01*
D39*
X15397Y10186D02*
Y10339D01*
X15728Y10186D02*
Y10402D01*
X15846Y10087D02*
Y10402D01*
X15425Y9812D02*
Y10087D01*
X15476Y9812D02*
Y10087D01*
X15712Y9812D02*
Y10087D01*
X15425D02*
X15476D01*
X15728Y10402D02*
X15846D01*
X15712Y10087D02*
X15846D01*
X14153Y10339D02*
X15397D01*
Y10186D02*
X15728D01*
X15476Y9812D02*
X15712D01*
X14153D02*
X15425D01*
X12972D02*
X14244D01*
X12685D02*
X12921D01*
X12669Y10186D02*
X13000D01*
Y10339D02*
X14244D01*
X12551Y10087D02*
X12685D01*
X12551Y10402D02*
X12669D01*
X12921Y10087D02*
X12972D01*
X12685Y9812D02*
Y10087D01*
X12921Y9812D02*
Y10087D01*
X12972Y9812D02*
Y10087D01*
X12551D02*
Y10402D01*
X12669Y10186D02*
Y10402D01*
X13000Y10186D02*
Y10339D01*
X13248Y10186D02*
X15216D01*
X15773Y11196D02*
Y11296D01*
Y11196D02*
X16073D01*
Y11296D01*
X15773D02*
X16073D01*
X15923Y10536D02*
X16023D01*
Y10836D01*
X15923D02*
X16023D01*
X15923Y10536D02*
Y10836D01*
X15790Y11564D02*
Y11664D01*
Y11564D02*
X16090D01*
Y11664D01*
X15790D02*
X16090D01*
X15840Y12364D02*
Y12664D01*
Y12364D02*
X16040D01*
Y12664D01*
X15840D02*
X16040D01*
X16140D01*
Y12364D02*
Y12664D01*
X16040Y12364D02*
X16140D01*
X14742Y11196D02*
Y11296D01*
Y11196D02*
X15042D01*
Y11296D01*
X14742D02*
X15042D01*
X14892Y10536D02*
X14992D01*
Y10836D01*
X14892D02*
X14992D01*
X14892Y10536D02*
Y10836D01*
X14759Y11564D02*
Y11664D01*
Y11564D02*
X15059D01*
Y11664D01*
X14759D02*
X15059D01*
X14809Y12364D02*
Y12664D01*
Y12364D02*
X15009D01*
Y12664D01*
X14809D02*
X15009D01*
X15109D01*
Y12364D02*
Y12664D01*
X15009Y12364D02*
X15109D01*
X13690Y11196D02*
Y11296D01*
Y11196D02*
X13990D01*
Y11296D01*
X13690D02*
X13990D01*
X13840Y10536D02*
X13940D01*
Y10836D01*
X13840D02*
X13940D01*
X13840Y10536D02*
Y10836D01*
X13707Y11564D02*
Y11664D01*
Y11564D02*
X14007D01*
Y11664D01*
X13707D02*
X14007D01*
X13757Y12364D02*
Y12664D01*
Y12364D02*
X13957D01*
Y12664D01*
X13757D02*
X13957D01*
X14057D01*
Y12364D02*
Y12664D01*
X13957Y12364D02*
X14057D01*
X12643Y11196D02*
Y11296D01*
Y11196D02*
X12943D01*
Y11296D01*
X12643D02*
X12943D01*
X12793Y10536D02*
X12893D01*
Y10836D01*
X12793D02*
X12893D01*
X12793Y10536D02*
Y10836D01*
X12660Y11564D02*
Y11664D01*
Y11564D02*
X12960D01*
Y11664D01*
X12660D02*
X12960D01*
X12710Y12364D02*
Y12664D01*
Y12364D02*
X12910D01*
Y12664D01*
X12710D02*
X12910D01*
X13010D01*
Y12364D02*
Y12664D01*
X12910Y12364D02*
X13010D01*
X11225Y12189D02*
Y12229D01*
X11245Y12249D01*
X11265Y12229D01*
Y12189D01*
Y12219D01*
X11225D01*
X11325Y12239D02*
X11315Y12249D01*
X11295D01*
X11285Y12239D01*
Y12229D01*
X11295Y12219D01*
X11315D01*
X11325Y12209D01*
Y12199D01*
X11315Y12189D01*
X11295D01*
X11285Y12199D01*
X11345Y12189D02*
Y12249D01*
X11375D01*
X11385Y12239D01*
Y12219D01*
X11375Y12209D01*
X11345D01*
X11465Y12249D02*
Y12189D01*
X11495D01*
X11505Y12199D01*
Y12209D01*
X11495Y12219D01*
X11465D01*
X11495D01*
X11505Y12229D01*
Y12239D01*
X11495Y12249D01*
X11465D01*
X11555D02*
X11535D01*
X11525Y12239D01*
Y12199D01*
X11535Y12189D01*
X11555D01*
X11565Y12199D01*
Y12239D01*
X11555Y12249D01*
X11585Y12189D02*
Y12229D01*
X11605Y12249D01*
X11625Y12229D01*
Y12189D01*
Y12219D01*
X11585D01*
X11645Y12189D02*
Y12249D01*
X11675D01*
X11685Y12239D01*
Y12219D01*
X11675Y12209D01*
X11645D01*
X11665D02*
X11685Y12189D01*
X11705Y12249D02*
Y12189D01*
X11735D01*
X11745Y12199D01*
Y12239D01*
X11735Y12249D01*
X11705D01*
X11261Y12086D02*
X11251Y12096D01*
X11231D01*
X11221Y12086D01*
Y12076D01*
X11231Y12066D01*
X11251D01*
X11261Y12056D01*
Y12046D01*
X11251Y12036D01*
X11231D01*
X11221Y12046D01*
X11321Y12086D02*
X11311Y12096D01*
X11291D01*
X11281Y12086D01*
Y12046D01*
X11291Y12036D01*
X11311D01*
X11321Y12046D01*
X11341Y12096D02*
Y12036D01*
Y12066D01*
X11381D01*
Y12096D01*
Y12036D01*
X11461D02*
Y12096D01*
X11491D01*
X11501Y12086D01*
Y12066D01*
X11491Y12056D01*
X11461D01*
X11481D02*
X11501Y12036D01*
X11551D02*
X11531D01*
X11521Y12046D01*
Y12066D01*
X11531Y12076D01*
X11551D01*
X11561Y12066D01*
Y12056D01*
X11521D01*
X11581Y12076D02*
X11601Y12036D01*
X11621Y12076D01*
D40*
X11970Y6162D02*
Y6116D01*
X11951Y6151D02*
X11989Y6128D01*
Y6151D02*
X11951Y6128D01*
X12009Y6090D02*
X12006Y6086D01*
X12009Y6082D01*
X12013Y6086D01*
X12009Y6090D01*
X12088Y6143D02*
X12084Y6151D01*
X12076Y6158D01*
X12069Y6162D01*
X12054D01*
X12046Y6158D01*
X12038Y6151D01*
X12035Y6143D01*
X12031Y6132D01*
Y6113D01*
X12035Y6101D01*
X12038Y6094D01*
X12046Y6086D01*
X12054Y6082D01*
X12069D01*
X12076Y6086D01*
X12084Y6094D01*
X12088Y6101D01*
Y6113D01*
X12069D02*
X12088D01*
X12133Y6162D02*
Y6082D01*
X12106Y6162D02*
X12159D01*
X12192D02*
X12184Y6158D01*
X12177Y6151D01*
X12173Y6143D01*
X12169Y6132D01*
Y6113D01*
X12173Y6101D01*
X12177Y6094D01*
X12184Y6086D01*
X12192Y6082D01*
X12207D01*
X12215Y6086D01*
X12222Y6094D01*
X12226Y6101D01*
X12230Y6113D01*
Y6132D01*
X12226Y6143D01*
X12222Y6151D01*
X12215Y6158D01*
X12207Y6162D01*
X12192D01*
X12311Y6116D02*
X12380D01*
X12493Y6162D02*
Y6082D01*
X12466Y6162D02*
X12520D01*
X12552D02*
X12545Y6158D01*
X12537Y6151D01*
X12533Y6143D01*
X12529Y6132D01*
Y6113D01*
X12533Y6101D01*
X12537Y6094D01*
X12545Y6086D01*
X12552Y6082D01*
X12567D01*
X12575Y6086D01*
X12583Y6094D01*
X12586Y6101D01*
X12590Y6113D01*
Y6132D01*
X12586Y6143D01*
X12583Y6151D01*
X12575Y6158D01*
X12567Y6162D01*
X12552D01*
X12609Y6120D02*
X12643D01*
X12655Y6124D01*
X12658Y6128D01*
X12662Y6135D01*
Y6147D01*
X12658Y6155D01*
X12655Y6158D01*
X12643Y6162D01*
X12609D01*
Y6082D01*
X12766Y6162D02*
X12758Y6158D01*
X12751Y6151D01*
X12747Y6143D01*
X12743Y6132D01*
Y6113D01*
X12747Y6101D01*
X12751Y6094D01*
X12758Y6086D01*
X12766Y6082D01*
X12781D01*
X12789Y6086D01*
X12796Y6094D01*
X12800Y6101D01*
X12804Y6113D01*
Y6132D01*
X12800Y6143D01*
X12796Y6151D01*
X12789Y6158D01*
X12781Y6162D01*
X12766D01*
X12823D02*
X12853Y6082D01*
X12884Y6162D02*
X12853Y6082D01*
X12943Y6162D02*
X12894D01*
Y6082D01*
X12943D01*
X12894Y6124D02*
X12924D01*
X12957Y6162D02*
Y6082D01*
Y6162D02*
X12991D01*
X13002Y6158D01*
X13006Y6155D01*
X13010Y6147D01*
Y6139D01*
X13006Y6132D01*
X13002Y6128D01*
X12991Y6124D01*
X12957D01*
X12983D02*
X13010Y6082D01*
X13028Y6162D02*
Y6082D01*
X13074D01*
X13143D02*
X13113Y6162D01*
X13082Y6082D01*
X13094Y6109D02*
X13132D01*
X13162Y6162D02*
X13192Y6124D01*
Y6082D01*
X13223Y6162D02*
X13192Y6124D01*
X13353Y6143D02*
X13349Y6151D01*
X13342Y6158D01*
X13334Y6162D01*
X13319D01*
X13311Y6158D01*
X13304Y6151D01*
X13300Y6143D01*
X13296Y6132D01*
Y6113D01*
X13300Y6101D01*
X13304Y6094D01*
X13311Y6086D01*
X13319Y6082D01*
X13334D01*
X13342Y6086D01*
X13349Y6094D01*
X13353Y6101D01*
Y6113D01*
X13334D02*
X13353D01*
X13421Y6162D02*
X13371D01*
Y6082D01*
X13421D01*
X13371Y6124D02*
X13402D01*
X13434Y6162D02*
Y6082D01*
Y6162D02*
X13469D01*
X13480Y6158D01*
X13484Y6155D01*
X13488Y6147D01*
Y6139D01*
X13484Y6132D01*
X13480Y6128D01*
X13469Y6124D01*
X13434D01*
X13461D02*
X13488Y6082D01*
X13505Y6162D02*
Y6082D01*
Y6162D02*
X13540D01*
X13551Y6158D01*
X13555Y6155D01*
X13559Y6147D01*
Y6139D01*
X13555Y6132D01*
X13551Y6128D01*
X13540Y6124D01*
X13505D02*
X13540D01*
X13551Y6120D01*
X13555Y6116D01*
X13559Y6109D01*
Y6097D01*
X13555Y6090D01*
X13551Y6086D01*
X13540Y6082D01*
X13505D01*
X13626Y6162D02*
X13577D01*
Y6082D01*
X13626D01*
X13577Y6124D02*
X13607D01*
X13640Y6162D02*
Y6082D01*
Y6162D02*
X13674D01*
X13685Y6158D01*
X13689Y6155D01*
X13693Y6147D01*
Y6139D01*
X13689Y6132D01*
X13685Y6128D01*
X13674Y6124D01*
X13640D01*
X13666D02*
X13693Y6082D01*
X13774Y6162D02*
Y6082D01*
Y6162D02*
X13800D01*
X13812Y6158D01*
X13819Y6151D01*
X13823Y6143D01*
X13827Y6132D01*
Y6113D01*
X13823Y6101D01*
X13819Y6094D01*
X13812Y6086D01*
X13800Y6082D01*
X13774D01*
X13906D02*
X13875Y6162D01*
X13845Y6082D01*
X13856Y6109D02*
X13894D01*
X13951Y6162D02*
Y6082D01*
X13924Y6162D02*
X13978D01*
X14048Y6082D02*
X14018Y6162D01*
X13987Y6082D01*
X13999Y6109D02*
X14037D01*
D42*
X15666Y10815D02*
X15662Y10825D01*
X15652Y10829D01*
X15604D02*
X15594Y10825D01*
X15590Y10815D01*
Y10627D02*
X15594Y10617D01*
X15604Y10613D01*
X15652D02*
X15662Y10617D01*
X15666Y10627D01*
X12315Y10248D02*
X12311Y10258D01*
X12301Y10262D01*
X12253D02*
X12243Y10258D01*
X12239Y10248D01*
Y10060D02*
X12243Y10050D01*
X12253Y10046D01*
X12301D02*
X12311Y10050D01*
X12315Y10060D01*
X11091Y13488D02*
X11085Y13494D01*
X11079Y13488D01*
X11085Y13482D01*
X11091Y13488D01*
X13543Y10555D02*
X13547Y10545D01*
X13557Y10541D01*
X13657D02*
X13667Y10545D01*
X13671Y10555D01*
Y10885D02*
X13667Y10895D01*
X13657Y10899D01*
X13557D02*
X13547Y10895D01*
X13543Y10885D01*
X15749Y10826D02*
X15739Y10822D01*
X15735Y10812D01*
X15811D02*
X15807Y10822D01*
X15797Y10826D01*
Y10610D02*
X15807Y10614D01*
X15811Y10624D01*
X15735D02*
X15739Y10614D01*
X15749Y10610D01*
X15604Y10613D02*
X15652D01*
X15604Y10829D02*
X15652D01*
X15666Y10627D02*
Y10815D01*
X15590Y10627D02*
Y10815D01*
X12253Y10046D02*
X12301D01*
X12253Y10262D02*
X12301D01*
X12315Y10060D02*
Y10248D01*
X12239Y10060D02*
Y10248D01*
X11081Y13488D02*
X11089D01*
X11085Y13484D02*
Y13492D01*
X13671Y10555D02*
Y10885D01*
X13543Y10555D02*
Y10885D01*
X13557Y10541D02*
X13657D01*
X13557Y10899D02*
X13657D01*
X15811Y10624D02*
Y10812D01*
X15735Y10624D02*
Y10812D01*
X15749Y10610D02*
X15797D01*
X15749Y10826D02*
X15797D01*
X11139Y11378D02*
Y11428D01*
X11164D01*
X11172Y11420D01*
Y11403D01*
X11164Y11395D01*
X11139D01*
X11189Y11420D02*
X11197Y11428D01*
X11214D01*
X11222Y11420D01*
Y11411D01*
X11214Y11403D01*
X11205D01*
X11214D01*
X11222Y11395D01*
Y11386D01*
X11214Y11378D01*
X11197D01*
X11189Y11386D01*
X11031Y11331D02*
Y11315D01*
Y11323D01*
X11081D01*
X11073Y11331D01*
Y11290D02*
X11081Y11281D01*
Y11265D01*
X11073Y11256D01*
X11039D01*
X11031Y11265D01*
Y11281D01*
X11039Y11290D01*
X11073D01*
X10939Y11331D02*
X10931Y11323D01*
Y11306D01*
X10939Y11298D01*
X10973D01*
X10981Y11306D01*
Y11323D01*
X10973Y11331D01*
X10964D01*
X10956Y11323D01*
Y11298D01*
X10931Y11871D02*
Y11855D01*
Y11863D01*
X10981D01*
X10973Y11871D01*
X11031Y11858D02*
Y11891D01*
X11064Y11858D01*
X11073D01*
X11081Y11866D01*
Y11883D01*
X11073Y11891D01*
X11031Y12098D02*
Y12131D01*
X11064Y12098D01*
X11073D01*
X11081Y12106D01*
Y12123D01*
X11073Y12131D01*
Y12081D02*
X11081Y12073D01*
Y12056D01*
X11073Y12048D01*
X11039D01*
X11031Y12056D01*
Y12073D01*
X11039Y12081D01*
X11073D01*
X10931Y12131D02*
Y12115D01*
Y12123D01*
X10981D01*
X10973Y12131D01*
X10939Y12090D02*
X10931Y12081D01*
Y12065D01*
X10939Y12056D01*
X10973D01*
X10981Y12065D01*
Y12081D01*
X10973Y12090D01*
X10964D01*
X10956Y12081D01*
Y12056D01*
X10931Y13191D02*
Y13175D01*
Y13183D01*
X10981D01*
X10973Y13191D01*
X11031Y13158D02*
Y13191D01*
X11064Y13158D01*
X11073D01*
X11081Y13166D01*
Y13183D01*
X11073Y13191D01*
X10959Y11216D02*
X10943D01*
X10951D01*
Y11175D01*
X10943Y11166D01*
X10934D01*
X10926Y11175D01*
X10976Y11216D02*
X11009D01*
X10993D01*
Y11166D01*
X11026D02*
Y11200D01*
X11043Y11216D01*
X11059Y11200D01*
Y11166D01*
Y11191D01*
X11026D01*
X11109Y11208D02*
X11101Y11216D01*
X11084D01*
X11076Y11208D01*
Y11175D01*
X11084Y11166D01*
X11101D01*
X11109Y11175D01*
Y11191D01*
X11093D01*
X9847Y14333D02*
X10347D01*
X10097Y14083D02*
Y14583D01*
X10147Y14283D02*
Y14333D01*
X10097Y14283D02*
X10147D01*
X10047Y14333D02*
Y14383D01*
X10097D01*
X10052Y14338D02*
X10092D01*
X10052D02*
Y14378D01*
X10092D01*
Y14338D02*
Y14378D01*
X10057Y14343D02*
X10087D01*
X10057D02*
Y14373D01*
X10087D01*
Y14348D02*
Y14373D01*
X10062Y14348D02*
X10082D01*
X10062D02*
Y14368D01*
X10082D01*
Y14353D02*
Y14368D01*
X10067Y14353D02*
X10077D01*
X10067D02*
Y14363D01*
X10077D01*
Y14353D02*
Y14363D01*
X10067Y14358D02*
X10077D01*
X10102Y14288D02*
X10142D01*
X10102D02*
Y14328D01*
X10142D01*
Y14288D02*
Y14328D01*
X10107Y14293D02*
X10137D01*
X10107D02*
Y14323D01*
X10137D01*
Y14298D02*
Y14323D01*
X10112Y14298D02*
X10132D01*
X10112D02*
Y14318D01*
X10132D01*
Y14303D02*
Y14318D01*
X10117Y14303D02*
X10127D01*
X10117D02*
Y14313D01*
X10127D01*
Y14303D02*
Y14313D01*
X10117Y14308D02*
X10127D01*
X9885Y9227D02*
X10385D01*
X10135Y8977D02*
Y9477D01*
X10185Y9177D02*
Y9227D01*
X10135Y9177D02*
X10185D01*
X10085Y9227D02*
Y9277D01*
X10135D01*
X10090Y9232D02*
X10130D01*
X10090D02*
Y9272D01*
X10130D01*
Y9232D02*
Y9272D01*
X10095Y9237D02*
X10125D01*
X10095D02*
Y9267D01*
X10125D01*
Y9242D02*
Y9267D01*
X10100Y9242D02*
X10120D01*
X10100D02*
Y9262D01*
X10120D01*
Y9247D02*
Y9262D01*
X10105Y9247D02*
X10115D01*
X10105D02*
Y9257D01*
X10115D01*
Y9247D02*
Y9257D01*
X10105Y9252D02*
X10115D01*
X10140Y9182D02*
X10180D01*
X10140D02*
Y9222D01*
X10180D01*
Y9182D02*
Y9222D01*
X10145Y9187D02*
X10175D01*
X10145D02*
Y9217D01*
X10175D01*
Y9192D02*
Y9217D01*
X10150Y9192D02*
X10170D01*
X10150D02*
Y9212D01*
X10170D01*
Y9197D02*
Y9212D01*
X10155Y9197D02*
X10165D01*
X10155D02*
Y9207D01*
X10165D01*
Y9197D02*
Y9207D01*
X10155Y9202D02*
X10165D01*
X17097Y14446D02*
X17597D01*
X17347Y14196D02*
Y14696D01*
X17397Y14396D02*
Y14446D01*
X17347Y14396D02*
X17397D01*
X17297Y14446D02*
Y14496D01*
X17347D01*
X17302Y14451D02*
X17342D01*
X17302D02*
Y14491D01*
X17342D01*
Y14451D02*
Y14491D01*
X17307Y14456D02*
X17337D01*
X17307D02*
Y14486D01*
X17337D01*
Y14461D02*
Y14486D01*
X17312Y14461D02*
X17332D01*
X17312D02*
Y14481D01*
X17332D01*
Y14466D02*
Y14481D01*
X17317Y14466D02*
X17327D01*
X17317D02*
Y14476D01*
X17327D01*
Y14466D02*
Y14476D01*
X17317Y14471D02*
X17327D01*
X17352Y14401D02*
X17392D01*
X17352D02*
Y14441D01*
X17392D01*
Y14401D02*
Y14441D01*
X17357Y14406D02*
X17387D01*
X17357D02*
Y14436D01*
X17387D01*
Y14411D02*
Y14436D01*
X17362Y14411D02*
X17382D01*
X17362D02*
Y14431D01*
X17382D01*
Y14416D02*
Y14431D01*
X17367Y14416D02*
X17377D01*
X17367D02*
Y14426D01*
X17377D01*
Y14416D02*
Y14426D01*
X17367Y14421D02*
X17377D01*
D43*
X12223Y8569D02*
Y8489D01*
X12269D01*
X12339D02*
X12308Y8569D01*
X12278Y8489D01*
X12289Y8516D02*
X12327D01*
X12411Y8557D02*
X12403Y8565D01*
X12392Y8569D01*
X12376D01*
X12365Y8565D01*
X12357Y8557D01*
Y8550D01*
X12361Y8542D01*
X12365Y8538D01*
X12372Y8535D01*
X12395Y8527D01*
X12403Y8523D01*
X12407Y8519D01*
X12411Y8512D01*
Y8500D01*
X12403Y8493D01*
X12392Y8489D01*
X12376D01*
X12365Y8493D01*
X12357Y8500D01*
X12548Y8550D02*
X12545Y8557D01*
X12537Y8565D01*
X12529Y8569D01*
X12514D01*
X12507Y8565D01*
X12499Y8557D01*
X12495Y8550D01*
X12491Y8538D01*
Y8519D01*
X12495Y8508D01*
X12499Y8500D01*
X12507Y8493D01*
X12514Y8489D01*
X12529D01*
X12537Y8493D01*
X12545Y8500D01*
X12548Y8508D01*
X12571Y8569D02*
Y8512D01*
X12575Y8500D01*
X12582Y8493D01*
X12594Y8489D01*
X12601D01*
X12613Y8493D01*
X12620Y8500D01*
X12624Y8512D01*
Y8569D01*
X12646D02*
Y8489D01*
Y8569D02*
X12677Y8489D01*
X12707Y8569D02*
X12677Y8489D01*
X12707Y8569D02*
Y8489D01*
X12730Y8569D02*
Y8489D01*
Y8569D02*
X12764D01*
X12776Y8565D01*
X12780Y8561D01*
X12783Y8554D01*
Y8546D01*
X12780Y8538D01*
X12776Y8535D01*
X12764Y8531D01*
X12730D02*
X12764D01*
X12776Y8527D01*
X12780Y8523D01*
X12783Y8516D01*
Y8504D01*
X12780Y8496D01*
X12776Y8493D01*
X12764Y8489D01*
X12730D01*
X12801Y8569D02*
Y8489D01*
Y8569D02*
X12836D01*
X12847Y8565D01*
X12851Y8561D01*
X12855Y8554D01*
Y8546D01*
X12851Y8538D01*
X12847Y8535D01*
X12836Y8531D01*
X12801D01*
X12828D02*
X12855Y8489D01*
X12922Y8569D02*
X12873D01*
Y8489D01*
X12922D01*
X12873Y8531D02*
X12903D01*
X12989Y8557D02*
X12981Y8565D01*
X12970Y8569D01*
X12954D01*
X12943Y8565D01*
X12935Y8557D01*
Y8550D01*
X12939Y8542D01*
X12943Y8538D01*
X12951Y8535D01*
X12973Y8527D01*
X12981Y8523D01*
X12985Y8519D01*
X12989Y8512D01*
Y8500D01*
X12981Y8493D01*
X12970Y8489D01*
X12954D01*
X12943Y8493D01*
X12935Y8500D01*
X13092Y8569D02*
X13085Y8565D01*
X13077Y8557D01*
X13073Y8550D01*
X13069Y8538D01*
Y8519D01*
X13073Y8508D01*
X13077Y8500D01*
X13085Y8493D01*
X13092Y8489D01*
X13108D01*
X13115Y8493D01*
X13123Y8500D01*
X13127Y8508D01*
X13130Y8519D01*
Y8538D01*
X13127Y8550D01*
X13123Y8557D01*
X13115Y8565D01*
X13108Y8569D01*
X13092D01*
X13149D02*
Y8489D01*
Y8569D02*
X13183D01*
X13195Y8565D01*
X13199Y8561D01*
X13202Y8554D01*
Y8546D01*
X13199Y8538D01*
X13195Y8535D01*
X13183Y8531D01*
X13149D02*
X13183D01*
X13195Y8527D01*
X13199Y8523D01*
X13202Y8516D01*
Y8504D01*
X13199Y8496D01*
X13195Y8493D01*
X13183Y8489D01*
X13149D01*
X13274Y8557D02*
X13266Y8565D01*
X13255Y8569D01*
X13239D01*
X13228Y8565D01*
X13220Y8557D01*
Y8550D01*
X13224Y8542D01*
X13228Y8538D01*
X13236Y8535D01*
X13258Y8527D01*
X13266Y8523D01*
X13270Y8519D01*
X13274Y8512D01*
Y8500D01*
X13266Y8493D01*
X13255Y8489D01*
X13239D01*
X13228Y8493D01*
X13220Y8500D01*
X13341Y8569D02*
X13292D01*
Y8489D01*
X13341D01*
X13292Y8531D02*
X13322D01*
X13354Y8569D02*
Y8489D01*
Y8569D02*
X13389D01*
X13400Y8565D01*
X13404Y8561D01*
X13408Y8554D01*
Y8546D01*
X13404Y8538D01*
X13400Y8535D01*
X13389Y8531D01*
X13354D01*
X13381D02*
X13408Y8489D01*
X13426Y8569D02*
X13456Y8489D01*
X13487Y8569D02*
X13456Y8489D01*
X13558D02*
X13527Y8569D01*
X13497Y8489D01*
X13508Y8516D02*
X13546D01*
X13603Y8569D02*
Y8489D01*
X13576Y8569D02*
X13630D01*
X13662D02*
X13654Y8565D01*
X13647Y8557D01*
X13643Y8550D01*
X13639Y8538D01*
Y8519D01*
X13643Y8508D01*
X13647Y8500D01*
X13654Y8493D01*
X13662Y8489D01*
X13677D01*
X13685Y8493D01*
X13693Y8500D01*
X13696Y8508D01*
X13700Y8519D01*
Y8538D01*
X13696Y8550D01*
X13693Y8557D01*
X13685Y8565D01*
X13677Y8569D01*
X13662D01*
X13719D02*
Y8489D01*
Y8569D02*
X13753D01*
X13765Y8565D01*
X13768Y8561D01*
X13772Y8554D01*
Y8546D01*
X13768Y8538D01*
X13765Y8535D01*
X13753Y8531D01*
X13719D01*
X13746D02*
X13772Y8489D01*
X13790Y8569D02*
X13821Y8531D01*
Y8489D01*
X13851Y8569D02*
X13821Y8531D01*
X14221Y8557D02*
X14217Y8565D01*
X14206Y8569D01*
X14198D01*
X14187Y8565D01*
X14179Y8554D01*
X14176Y8535D01*
Y8516D01*
X14179Y8500D01*
X14187Y8493D01*
X14198Y8489D01*
X14202D01*
X14214Y8493D01*
X14221Y8500D01*
X14225Y8512D01*
Y8516D01*
X14221Y8527D01*
X14214Y8535D01*
X14202Y8538D01*
X14198D01*
X14187Y8535D01*
X14179Y8527D01*
X14176Y8516D01*
X14243Y8477D02*
X14296Y8569D01*
X14305Y8550D02*
Y8554D01*
X14309Y8561D01*
X14313Y8565D01*
X14320Y8569D01*
X14335D01*
X14343Y8565D01*
X14347Y8561D01*
X14351Y8554D01*
Y8546D01*
X14347Y8538D01*
X14339Y8527D01*
X14301Y8489D01*
X14355D01*
X14372Y8477D02*
X14426Y8569D01*
X14435Y8550D02*
Y8554D01*
X14439Y8561D01*
X14443Y8565D01*
X14450Y8569D01*
X14465D01*
X14473Y8565D01*
X14477Y8561D01*
X14481Y8554D01*
Y8546D01*
X14477Y8538D01*
X14469Y8527D01*
X14431Y8489D01*
X14484D01*
X14525Y8569D02*
X14514Y8565D01*
X14506Y8554D01*
X14502Y8535D01*
Y8523D01*
X14506Y8504D01*
X14514Y8493D01*
X14525Y8489D01*
X14533D01*
X14544Y8493D01*
X14552Y8504D01*
X14556Y8523D01*
Y8535D01*
X14552Y8554D01*
X14544Y8565D01*
X14533Y8569D01*
X14525D01*
X14596D02*
X14585Y8565D01*
X14577Y8554D01*
X14574Y8535D01*
Y8523D01*
X14577Y8504D01*
X14585Y8493D01*
X14596Y8489D01*
X14604D01*
X14615Y8493D01*
X14623Y8504D01*
X14627Y8523D01*
Y8535D01*
X14623Y8554D01*
X14615Y8565D01*
X14604Y8569D01*
X14596D01*
X14694Y8542D02*
X14690Y8531D01*
X14683Y8523D01*
X14671Y8519D01*
X14668D01*
X14656Y8523D01*
X14649Y8531D01*
X14645Y8542D01*
Y8546D01*
X14649Y8557D01*
X14656Y8565D01*
X14668Y8569D01*
X14671D01*
X14683Y8565D01*
X14690Y8557D01*
X14694Y8542D01*
Y8523D01*
X14690Y8504D01*
X14683Y8493D01*
X14671Y8489D01*
X14664D01*
X14652Y8493D01*
X14649Y8500D01*
D44*
X12284Y8639D02*
X12254Y8719D01*
X12223Y8639D01*
X12235Y8666D02*
X12273D01*
X12356Y8707D02*
X12348Y8715D01*
X12337Y8719D01*
X12322D01*
X12310Y8715D01*
X12303Y8707D01*
Y8700D01*
X12307Y8692D01*
X12310Y8688D01*
X12318Y8685D01*
X12341Y8677D01*
X12348Y8673D01*
X12352Y8669D01*
X12356Y8662D01*
Y8650D01*
X12348Y8643D01*
X12337Y8639D01*
X12322D01*
X12310Y8643D01*
X12303Y8650D01*
X12374Y8677D02*
X12408D01*
X12420Y8681D01*
X12424Y8685D01*
X12427Y8692D01*
Y8704D01*
X12424Y8711D01*
X12420Y8715D01*
X12408Y8719D01*
X12374D01*
Y8639D01*
X12508Y8719D02*
Y8639D01*
Y8719D02*
X12542D01*
X12554Y8715D01*
X12558Y8711D01*
X12561Y8704D01*
Y8696D01*
X12558Y8688D01*
X12554Y8685D01*
X12542Y8681D01*
X12508D02*
X12542D01*
X12554Y8677D01*
X12558Y8673D01*
X12561Y8666D01*
Y8654D01*
X12558Y8646D01*
X12554Y8643D01*
X12542Y8639D01*
X12508D01*
X12602Y8719D02*
X12595Y8715D01*
X12587Y8707D01*
X12583Y8700D01*
X12579Y8688D01*
Y8669D01*
X12583Y8658D01*
X12587Y8650D01*
X12595Y8643D01*
X12602Y8639D01*
X12617D01*
X12625Y8643D01*
X12633Y8650D01*
X12636Y8658D01*
X12640Y8669D01*
Y8688D01*
X12636Y8700D01*
X12633Y8707D01*
X12625Y8715D01*
X12617Y8719D01*
X12602D01*
X12720Y8639D02*
X12689Y8719D01*
X12659Y8639D01*
X12670Y8666D02*
X12708D01*
X12738Y8719D02*
Y8639D01*
Y8719D02*
X12773D01*
X12784Y8715D01*
X12788Y8711D01*
X12792Y8704D01*
Y8696D01*
X12788Y8688D01*
X12784Y8685D01*
X12773Y8681D01*
X12738D01*
X12765D02*
X12792Y8639D01*
X12810Y8719D02*
Y8639D01*
Y8719D02*
X12836D01*
X12848Y8715D01*
X12855Y8707D01*
X12859Y8700D01*
X12863Y8688D01*
Y8669D01*
X12859Y8658D01*
X12855Y8650D01*
X12848Y8643D01*
X12836Y8639D01*
X12810D01*
X12944Y8719D02*
Y8639D01*
Y8719D02*
X12978D01*
X12989Y8715D01*
X12993Y8711D01*
X12997Y8704D01*
Y8696D01*
X12993Y8688D01*
X12989Y8685D01*
X12978Y8681D01*
X12944D01*
X12970D02*
X12997Y8639D01*
X13015Y8669D02*
X13061D01*
Y8677D01*
X13057Y8685D01*
X13053Y8688D01*
X13045Y8692D01*
X13034D01*
X13026Y8688D01*
X13019Y8681D01*
X13015Y8669D01*
Y8662D01*
X13019Y8650D01*
X13026Y8643D01*
X13034Y8639D01*
X13045D01*
X13053Y8643D01*
X13061Y8650D01*
X13078Y8692D02*
X13101Y8639D01*
X13124Y8692D02*
X13101Y8639D01*
X13140Y8646D02*
X13137Y8643D01*
X13140Y8639D01*
X13144Y8643D01*
X13140Y8646D01*
X13285Y8639D02*
X13255Y8719D01*
X13224Y8639D01*
X13236Y8666D02*
X13274D01*
D77*
X11982Y12037D02*
D03*
Y12188D02*
D03*
X11146Y13321D02*
D03*
X12510Y11699D02*
D03*
X16422Y11862D02*
D03*
X16112Y11754D02*
D03*
X16355Y11860D02*
D03*
X16452Y11264D02*
D03*
X16522D02*
D03*
X16472Y11414D02*
D03*
X16042Y11754D02*
D03*
X15962Y12214D02*
D03*
X16435Y10756D02*
D03*
X16085Y10746D02*
D03*
X15921Y11757D02*
D03*
X15862Y12214D02*
D03*
X15851Y11757D02*
D03*
X16225Y10776D02*
D03*
X16155D02*
D03*
X16502Y10724D02*
D03*
X16182Y10554D02*
D03*
X16365Y10756D02*
D03*
X16385Y11246D02*
D03*
X16160Y12724D02*
D03*
X16301Y12843D02*
D03*
X16440Y12714D02*
D03*
X15390Y11862D02*
D03*
X15080Y11754D02*
D03*
X15323Y11860D02*
D03*
X15420Y11264D02*
D03*
X15490D02*
D03*
X15440Y11414D02*
D03*
X15010Y11754D02*
D03*
X14930Y12214D02*
D03*
X15403Y10756D02*
D03*
X15053Y10746D02*
D03*
X14889Y11757D02*
D03*
X14830Y12214D02*
D03*
X14819Y11757D02*
D03*
X15193Y10776D02*
D03*
X15123D02*
D03*
X15470Y10724D02*
D03*
X15150Y10554D02*
D03*
X15333Y10756D02*
D03*
X15353Y11246D02*
D03*
X15128Y12724D02*
D03*
X15269Y12843D02*
D03*
X15408Y12714D02*
D03*
X14339Y11862D02*
D03*
X14029Y11754D02*
D03*
X14272Y11860D02*
D03*
X14369Y11264D02*
D03*
X14439D02*
D03*
X14389Y11414D02*
D03*
X13959Y11754D02*
D03*
X13879Y12214D02*
D03*
X14352Y10756D02*
D03*
X14002Y10746D02*
D03*
X13838Y11757D02*
D03*
X13779Y12214D02*
D03*
X13768Y11757D02*
D03*
X14142Y10776D02*
D03*
X14072D02*
D03*
X14419Y10724D02*
D03*
X14099Y10554D02*
D03*
X14282Y10756D02*
D03*
X14302Y11246D02*
D03*
X14077Y12724D02*
D03*
X14218Y12843D02*
D03*
X14357Y12714D02*
D03*
X13292Y11862D02*
D03*
X12982Y11754D02*
D03*
X13225Y11860D02*
D03*
X13322Y11264D02*
D03*
X13392D02*
D03*
X13342Y11414D02*
D03*
X12912Y11754D02*
D03*
X12832Y12214D02*
D03*
X13305Y10756D02*
D03*
X12955Y10746D02*
D03*
X12791Y11757D02*
D03*
X12732Y12214D02*
D03*
X12721Y11757D02*
D03*
X13095Y10776D02*
D03*
X13025D02*
D03*
X13372Y10724D02*
D03*
X13052Y10554D02*
D03*
X13235Y10756D02*
D03*
X13255Y11246D02*
D03*
X13030Y12724D02*
D03*
X13171Y12843D02*
D03*
X13310Y12714D02*
D03*
X12466Y12044D02*
D03*
D78*
X12134Y12225D02*
X12126Y12229D01*
Y12220D01*
X12134Y12225D01*
X11771Y11644D02*
X11764Y11648D01*
Y11640D01*
X11771Y11644D01*
X16293Y11795D02*
X16286Y11800D01*
Y11791D01*
X16293Y11795D01*
X16546Y11700D02*
X16538Y11704D01*
Y11696D01*
X16546Y11700D01*
X16297Y11108D02*
X16289Y11112D01*
Y11104D01*
X16297Y11108D01*
X16001Y12087D02*
X15993Y12091D01*
Y12083D01*
X16001Y12087D01*
X15993Y11515D02*
X15986Y11520D01*
Y11511D01*
X15993Y11515D01*
X16126Y11314D02*
X16119Y11318D01*
Y11309D01*
X16126Y11314D01*
X16529Y11102D02*
X16521Y11106D01*
Y11098D01*
X16529Y11102D01*
X16172Y12956D02*
X16165Y12960D01*
Y12952D01*
X16172Y12956D01*
X16487Y12496D02*
X16479Y12500D01*
Y12492D01*
X16487Y12496D01*
X15261Y11795D02*
X15254Y11800D01*
Y11791D01*
X15261Y11795D01*
X15514Y11700D02*
X15507Y11704D01*
Y11696D01*
X15514Y11700D01*
X15265Y11108D02*
X15258Y11112D01*
Y11104D01*
X15265Y11108D01*
X14969Y12087D02*
X14962Y12091D01*
Y12083D01*
X14969Y12087D01*
X14961Y11515D02*
X14954Y11520D01*
Y11511D01*
X14961Y11515D01*
X15095Y11314D02*
X15088Y11318D01*
Y11309D01*
X15095Y11314D01*
X15497Y11102D02*
X15490Y11106D01*
Y11098D01*
X15497Y11102D01*
X15141Y12956D02*
X15133Y12960D01*
Y12952D01*
X15141Y12956D01*
X15455Y12496D02*
X15448Y12500D01*
Y12492D01*
X15455Y12496D01*
X14210Y11795D02*
X14203Y11800D01*
Y11791D01*
X14210Y11795D01*
X14463Y11700D02*
X14455Y11704D01*
Y11696D01*
X14463Y11700D01*
X14214Y11108D02*
X14206Y11112D01*
Y11104D01*
X14214Y11108D01*
X13918Y12087D02*
X13910Y12091D01*
Y12083D01*
X13918Y12087D01*
X13910Y11515D02*
X13903Y11520D01*
Y11511D01*
X13910Y11515D01*
X14044Y11314D02*
X14036Y11318D01*
Y11309D01*
X14044Y11314D01*
X14446Y11102D02*
X14438Y11106D01*
Y11098D01*
X14446Y11102D01*
X14404Y12496D02*
X14396Y12500D01*
Y12492D01*
X14404Y12496D01*
X13163Y11795D02*
X13156Y11800D01*
Y11791D01*
X13163Y11795D01*
X13416Y11700D02*
X13408Y11704D01*
Y11696D01*
X13416Y11700D01*
X13167Y11108D02*
X13159Y11112D01*
Y11104D01*
X13167Y11108D01*
X12871Y12087D02*
X12863Y12091D01*
Y12083D01*
X12871Y12087D01*
X12863Y11515D02*
X12856Y11520D01*
Y11511D01*
X12863Y11515D01*
X12996Y11314D02*
X12989Y11318D01*
Y11309D01*
X12996Y11314D01*
X13042Y12956D02*
X13035Y12960D01*
Y12952D01*
X13042Y12956D01*
X13357Y12496D02*
X13349Y12500D01*
Y12492D01*
X13357Y12496D01*
X11343Y13312D02*
X11336Y13316D01*
Y13308D01*
X11343Y13312D01*
X13399Y11102D02*
X13391Y11106D01*
Y11098D01*
X13399Y11102D01*
X14090Y12956D02*
X14082Y12960D01*
Y12952D01*
X14090Y12956D01*
D79*
X13123Y11954D02*
X13128Y11963D01*
X13132Y11972D01*
X13136Y11981D01*
X13138Y11991D01*
X13140Y12000D01*
X13140Y12010D01*
X13140Y12020D01*
X13139Y12030D01*
X13137Y12040D01*
X13134Y12049D01*
X13131Y12059D01*
X13126Y12068D01*
X13121Y12076D01*
X13115Y12084D01*
X13109Y12091D01*
X13101Y12098D01*
X13093Y12104D01*
X13085Y12109D01*
X13076Y12114D01*
X13067Y12118D01*
X13057Y12120D01*
X13048Y12122D01*
X13038Y12124D01*
X13028Y12124D01*
X13018Y12123D01*
X13008Y12122D01*
X12999Y12119D01*
X12989Y12116D01*
X12980Y12112D01*
X12972Y12107D01*
X12963Y12101D01*
X12956Y12095D01*
X12949Y12088D01*
X12943Y12080D01*
X12937Y12072D01*
X12932Y12064D01*
X12928Y12055D01*
X12925Y12045D01*
X12922Y12036D01*
X12921Y12026D01*
X12920Y12016D01*
X12920Y12006D01*
X12921Y11996D01*
X12923Y11986D01*
X12926Y11977D01*
X12930Y11968D01*
X12935Y11959D01*
X12940Y11950D01*
X12946Y11943D01*
X12953Y11935D01*
X12960Y11929D01*
X12968Y11923D01*
X12976Y11917D01*
X12985Y11913D01*
X12994Y11909D01*
X13004Y11907D01*
X13014Y11905D01*
X13024Y11904D01*
X13033Y11903D01*
X13043Y11904D01*
X13053Y11906D01*
X13063Y11908D01*
X13072Y11912D01*
X13081Y11916D01*
X13090Y11921D01*
X14170Y11954D02*
X14175Y11963D01*
X14179Y11972D01*
X14183Y11981D01*
X14185Y11991D01*
X14187Y12000D01*
X14188Y12010D01*
X14188Y12020D01*
X14186Y12030D01*
X14185Y12040D01*
X14182Y12049D01*
X14178Y12059D01*
X14174Y12068D01*
X14168Y12076D01*
X14162Y12084D01*
X14156Y12091D01*
X14148Y12098D01*
X14141Y12104D01*
X14132Y12109D01*
X14123Y12114D01*
X14114Y12118D01*
X14105Y12120D01*
X14095Y12122D01*
X14085Y12124D01*
X14075Y12124D01*
X14065Y12123D01*
X14056Y12122D01*
X14046Y12119D01*
X14037Y12116D01*
X14028Y12112D01*
X14019Y12107D01*
X14011Y12101D01*
X14003Y12095D01*
X13996Y12088D01*
X13990Y12080D01*
X13984Y12072D01*
X13979Y12064D01*
X13975Y12055D01*
X13972Y12045D01*
X13969Y12036D01*
X13968Y12026D01*
X13967Y12016D01*
X13968Y12006D01*
X13969Y11996D01*
X13971Y11986D01*
X13974Y11977D01*
X13977Y11968D01*
X13982Y11959D01*
X13987Y11950D01*
X13993Y11943D01*
X14000Y11935D01*
X14007Y11929D01*
X14015Y11923D01*
X14024Y11917D01*
X14032Y11913D01*
X14042Y11909D01*
X14051Y11907D01*
X14061Y11905D01*
X14071Y11904D01*
X14081Y11903D01*
X14091Y11904D01*
X14100Y11906D01*
X14110Y11908D01*
X14119Y11912D01*
X14128Y11916D01*
X14137Y11921D01*
X15222Y11954D02*
X15226Y11963D01*
X15231Y11972D01*
X15234Y11981D01*
X15236Y11991D01*
X15238Y12000D01*
X15239Y12010D01*
X15239Y12020D01*
X15238Y12030D01*
X15236Y12040D01*
X15233Y12049D01*
X15229Y12059D01*
X15225Y12068D01*
X15220Y12076D01*
X15214Y12084D01*
X15207Y12091D01*
X15200Y12098D01*
X15192Y12104D01*
X15183Y12109D01*
X15175Y12114D01*
X15165Y12118D01*
X15156Y12120D01*
X15146Y12122D01*
X15136Y12124D01*
X15126Y12124D01*
X15117Y12123D01*
X15107Y12122D01*
X15097Y12119D01*
X15088Y12116D01*
X15079Y12112D01*
X15070Y12107D01*
X15062Y12101D01*
X15054Y12095D01*
X15047Y12088D01*
X15041Y12080D01*
X15035Y12072D01*
X15030Y12064D01*
X15026Y12055D01*
X15023Y12045D01*
X15021Y12036D01*
X15019Y12026D01*
X15018Y12016D01*
X15019Y12006D01*
X15020Y11996D01*
X15022Y11986D01*
X15025Y11977D01*
X15028Y11968D01*
X15033Y11959D01*
X15038Y11950D01*
X15044Y11943D01*
X15051Y11935D01*
X15058Y11929D01*
X15066Y11923D01*
X15075Y11917D01*
X15084Y11913D01*
X15093Y11909D01*
X15102Y11907D01*
X15112Y11905D01*
X15122Y11904D01*
X15132Y11903D01*
X15142Y11904D01*
X15152Y11906D01*
X15161Y11908D01*
X15171Y11912D01*
X15180Y11916D01*
X15188Y11921D01*
X16253Y11954D02*
X16258Y11963D01*
X16262Y11972D01*
X16265Y11981D01*
X16268Y11991D01*
X16270Y12000D01*
X16270Y12010D01*
X16270Y12020D01*
X16269Y12030D01*
X16267Y12040D01*
X16264Y12049D01*
X16261Y12059D01*
X16256Y12068D01*
X16251Y12076D01*
X16245Y12084D01*
X16238Y12091D01*
X16231Y12098D01*
X16223Y12104D01*
X16215Y12109D01*
X16206Y12114D01*
X16197Y12118D01*
X16187Y12120D01*
X16178Y12122D01*
X16168Y12124D01*
X16158Y12124D01*
X16148Y12123D01*
X16138Y12122D01*
X16129Y12119D01*
X16119Y12116D01*
X16110Y12112D01*
X16102Y12107D01*
X16093Y12101D01*
X16086Y12095D01*
X16079Y12088D01*
X16072Y12080D01*
X16067Y12072D01*
X16062Y12064D01*
X16058Y12055D01*
X16055Y12045D01*
X16052Y12036D01*
X16051Y12026D01*
X16050Y12016D01*
X16050Y12006D01*
X16051Y11996D01*
X16053Y11986D01*
X16056Y11977D01*
X16060Y11968D01*
X16064Y11959D01*
X16070Y11950D01*
X16076Y11943D01*
X16083Y11935D01*
X16090Y11929D01*
X16098Y11923D01*
X16106Y11917D01*
X16115Y11913D01*
X16124Y11909D01*
X16134Y11907D01*
X16144Y11905D01*
X16153Y11904D01*
X16163Y11903D01*
X16173Y11904D01*
X16183Y11906D01*
X16193Y11908D01*
X16202Y11912D01*
X16211Y11916D01*
X16220Y11921D01*
X16281Y11725D02*
X16273Y11722D01*
X16269Y11714D01*
X16273Y11705D01*
X16281Y11702D01*
X16280Y11020D02*
X16272Y11017D01*
X16266Y11010D01*
Y11001D01*
X16272Y10994D01*
X16280Y10991D01*
X15981Y11445D02*
X15973Y11442D01*
X15969Y11434D01*
X15973Y11425D01*
X15981Y11422D01*
X16191Y11307D02*
X16195Y11298D01*
X16203Y11295D01*
X16212Y11298D01*
X16215Y11307D01*
X15250Y11725D02*
X15241Y11722D01*
X15238Y11714D01*
X15241Y11705D01*
X15250Y11702D01*
X15249Y11020D02*
X15240Y11017D01*
X15235Y11010D01*
Y11001D01*
X15240Y10994D01*
X15249Y10991D01*
X14950Y11445D02*
X14941Y11442D01*
X14938Y11434D01*
X14941Y11425D01*
X14950Y11422D01*
X15160Y11307D02*
X15163Y11298D01*
X15172Y11295D01*
X15180Y11298D01*
X15183Y11307D01*
X14199Y11725D02*
X14190Y11722D01*
X14187Y11714D01*
X14190Y11705D01*
X14199Y11702D01*
X14197Y11020D02*
X14189Y11017D01*
X14184Y11010D01*
Y11001D01*
X14189Y10994D01*
X14197Y10991D01*
X13899Y11445D02*
X13890Y11442D01*
X13887Y11434D01*
X13890Y11425D01*
X13899Y11422D01*
X14109Y11307D02*
X14112Y11298D01*
X14120Y11295D01*
X14129Y11298D01*
X14132Y11307D01*
X13151Y11725D02*
X13143Y11722D01*
X13139Y11714D01*
X13143Y11705D01*
X13151Y11702D01*
X13150Y11020D02*
X13142Y11017D01*
X13136Y11010D01*
Y11001D01*
X13142Y10994D01*
X13150Y10991D01*
X12851Y11445D02*
X12843Y11442D01*
X12839Y11434D01*
X12843Y11425D01*
X12851Y11422D01*
X13061Y11307D02*
X13065Y11298D01*
X13073Y11295D01*
X13082Y11298D01*
X13085Y11307D01*
X12194Y12016D02*
Y12213D01*
X12257Y12016D02*
Y12213D01*
X12194D02*
X12257D01*
X12194Y12016D02*
X12257D01*
X12076Y11678D02*
X12087D01*
Y11666D02*
Y11678D01*
X12076Y11394D02*
X12087D01*
Y11406D01*
X11804Y11394D02*
X11816D01*
X11804D02*
Y11406D01*
Y11678D02*
X11816D01*
X11804Y11666D02*
Y11678D01*
X13123Y11954D02*
X13159Y11918D01*
X13126Y11885D02*
X13159Y11918D01*
X13090Y11921D02*
X13126Y11885D01*
X14137Y11921D02*
X14173Y11885D01*
X14207Y11918D01*
X14170Y11954D02*
X14207Y11918D01*
X15222Y11954D02*
X15258Y11918D01*
X15224Y11885D02*
X15258Y11918D01*
X15188Y11921D02*
X15224Y11885D01*
X16220Y11921D02*
X16256Y11885D01*
X16289Y11918D01*
X16253Y11954D02*
X16289Y11918D01*
X16281Y11725D02*
Y11749D01*
Y11678D02*
Y11702D01*
X16159Y11678D02*
Y11749D01*
X16281D01*
X16159Y11678D02*
X16281D01*
X16347Y12092D02*
X16473D01*
X16347Y12099D02*
X16473D01*
X16347Y12044D02*
Y12099D01*
X16473Y12044D02*
Y12099D01*
X16332Y11572D02*
Y11635D01*
X16529Y11572D02*
Y11635D01*
X16332Y11572D02*
X16529D01*
X16332Y11635D02*
X16529D01*
X16280Y11020D02*
Y11049D01*
Y10962D02*
Y10991D01*
X15886Y10962D02*
Y11049D01*
X16280D01*
X15886Y10962D02*
X16280D01*
X15787Y11959D02*
Y12022D01*
X15984Y11959D02*
Y12022D01*
X15787Y11959D02*
X15984D01*
X15787Y12022D02*
X15984D01*
X15981Y11445D02*
Y11469D01*
Y11398D02*
Y11422D01*
X15859Y11398D02*
Y11469D01*
X15981D01*
X15859Y11398D02*
X15981D01*
X16168Y11307D02*
X16191D01*
X16215D02*
X16239D01*
X16168Y11185D02*
X16239D01*
X16168D02*
Y11307D01*
X16239Y11185D02*
Y11307D01*
X16315Y10974D02*
Y11037D01*
X16512Y10974D02*
Y11037D01*
X16315Y10974D02*
X16512D01*
X16315Y11037D02*
X16512D01*
X16199Y13013D02*
X16407D01*
X16199Y13222D02*
X16407D01*
X16199Y13013D02*
Y13222D01*
X16407Y13013D02*
Y13222D01*
X16341Y12696D02*
X16343D01*
X16341Y12751D02*
X16343D01*
X16253Y12696D02*
X16255D01*
X16253Y12751D02*
X16255D01*
X16343Y12696D02*
Y12751D01*
X16253Y12696D02*
Y12751D01*
X16273Y12368D02*
Y12431D01*
X16470Y12368D02*
Y12431D01*
X16273Y12368D02*
X16470D01*
X16273Y12431D02*
X16470D01*
X15250Y11725D02*
Y11749D01*
Y11678D02*
Y11702D01*
X15128Y11678D02*
Y11749D01*
X15250D01*
X15128Y11678D02*
X15250D01*
X15316Y12092D02*
X15442D01*
X15316Y12099D02*
X15442D01*
X15316Y12044D02*
Y12099D01*
X15442Y12044D02*
Y12099D01*
X15300Y11572D02*
Y11635D01*
X15497Y11572D02*
Y11635D01*
X15300Y11572D02*
X15497D01*
X15300Y11635D02*
X15497D01*
X15249Y11020D02*
Y11049D01*
Y10962D02*
Y10991D01*
X14855Y10962D02*
Y11049D01*
X15249D01*
X14855Y10962D02*
X15249D01*
X14755Y11959D02*
Y12022D01*
X14952Y11959D02*
Y12022D01*
X14755Y11959D02*
X14952D01*
X14755Y12022D02*
X14952D01*
X14950Y11445D02*
Y11469D01*
Y11398D02*
Y11422D01*
X14828Y11398D02*
Y11469D01*
X14950D01*
X14828Y11398D02*
X14950D01*
X15136Y11307D02*
X15160D01*
X15183D02*
X15207D01*
X15136Y11185D02*
X15207D01*
X15136D02*
Y11307D01*
X15207Y11185D02*
Y11307D01*
X15283Y10974D02*
Y11037D01*
X15480Y10974D02*
Y11037D01*
X15283Y10974D02*
X15480D01*
X15283Y11037D02*
X15480D01*
X15167Y13013D02*
X15376D01*
X15167Y13222D02*
X15376D01*
X15167Y13013D02*
Y13222D01*
X15376Y13013D02*
Y13222D01*
X15310Y12696D02*
X15312D01*
X15310Y12751D02*
X15312D01*
X15221Y12696D02*
X15223D01*
X15221Y12751D02*
X15223D01*
X15312Y12696D02*
Y12751D01*
X15221Y12696D02*
Y12751D01*
X15241Y12368D02*
Y12431D01*
X15438Y12368D02*
Y12431D01*
X15241Y12368D02*
X15438D01*
X15241Y12431D02*
X15438D01*
X14199Y11725D02*
Y11749D01*
Y11678D02*
Y11702D01*
X14076Y11678D02*
Y11749D01*
X14199D01*
X14076Y11678D02*
X14199D01*
X14264Y12092D02*
X14390D01*
X14264Y12099D02*
X14390D01*
X14264Y12044D02*
Y12099D01*
X14390Y12044D02*
Y12099D01*
X14249Y11572D02*
Y11635D01*
X14446Y11572D02*
Y11635D01*
X14249Y11572D02*
X14446D01*
X14249Y11635D02*
X14446D01*
X14197Y11020D02*
Y11049D01*
Y10962D02*
Y10991D01*
X13804Y10962D02*
Y11049D01*
X14197D01*
X13804Y10962D02*
X14197D01*
X13704Y11959D02*
Y12022D01*
X13901Y11959D02*
Y12022D01*
X13704Y11959D02*
X13901D01*
X13704Y12022D02*
X13901D01*
X13899Y11445D02*
Y11469D01*
Y11398D02*
Y11422D01*
X13776Y11398D02*
Y11469D01*
X13899D01*
X13776Y11398D02*
X13899D01*
X14085Y11307D02*
X14109D01*
X14132D02*
X14156D01*
X14085Y11185D02*
X14156D01*
X14085D02*
Y11307D01*
X14156Y11185D02*
Y11307D01*
X14232Y10974D02*
Y11037D01*
X14429Y10974D02*
Y11037D01*
X14232Y10974D02*
X14429D01*
X14232Y11037D02*
X14429D01*
X14259Y12696D02*
X14261D01*
X14259Y12751D02*
X14261D01*
X14170Y12696D02*
X14172D01*
X14170Y12751D02*
X14172D01*
X14261Y12696D02*
Y12751D01*
X14170Y12696D02*
Y12751D01*
X14190Y12368D02*
Y12431D01*
X14387Y12368D02*
Y12431D01*
X14190Y12368D02*
X14387D01*
X14190Y12431D02*
X14387D01*
X13151Y11725D02*
Y11749D01*
Y11678D02*
Y11702D01*
X13029Y11678D02*
Y11749D01*
X13151D01*
X13029Y11678D02*
X13151D01*
X13217Y12092D02*
X13343D01*
X13217Y12099D02*
X13343D01*
X13217Y12044D02*
Y12099D01*
X13343Y12044D02*
Y12099D01*
X13202Y11572D02*
Y11635D01*
X13399Y11572D02*
Y11635D01*
X13202Y11572D02*
X13399D01*
X13202Y11635D02*
X13399D01*
X13150Y11020D02*
Y11049D01*
Y10962D02*
Y10991D01*
X12756Y10962D02*
Y11049D01*
X13150D01*
X12756Y10962D02*
X13150D01*
X12657Y11959D02*
Y12022D01*
X12854Y11959D02*
Y12022D01*
X12657Y11959D02*
X12854D01*
X12657Y12022D02*
X12854D01*
X12851Y11445D02*
Y11469D01*
Y11398D02*
Y11422D01*
X12729Y11398D02*
Y11469D01*
X12851D01*
X12729Y11398D02*
X12851D01*
X13038Y11307D02*
X13061D01*
X13085D02*
X13109D01*
X13038Y11185D02*
X13109D01*
X13038D02*
Y11307D01*
X13109Y11185D02*
Y11307D01*
X13069Y13013D02*
X13278D01*
X13069Y13222D02*
X13278D01*
X13069Y13013D02*
Y13222D01*
X13278Y13013D02*
Y13222D01*
X13212Y12696D02*
X13214D01*
X13212Y12751D02*
X13214D01*
X13123Y12696D02*
X13125D01*
X13123Y12751D02*
X13125D01*
X13214Y12696D02*
Y12751D01*
X13123Y12696D02*
Y12751D01*
X13143Y12368D02*
Y12431D01*
X13340Y12368D02*
Y12431D01*
X13143Y12368D02*
X13340D01*
X13143Y12431D02*
X13340D01*
X11385Y12573D02*
Y13309D01*
X12121Y12573D02*
Y13309D01*
X11385D02*
X12121D01*
X11385Y12573D02*
X12121D01*
X10901Y11341D02*
Y11841D01*
X11101Y11341D02*
Y11841D01*
X10901D02*
X11101D01*
X10901Y11341D02*
X11101D01*
X10901Y12141D02*
X11101D01*
X10901Y13066D02*
Y13141D01*
X11101D01*
Y13066D02*
Y13141D01*
Y12141D02*
Y13066D01*
X10901Y12141D02*
Y13066D01*
X12414Y11750D02*
Y11850D01*
X12614D01*
Y11750D02*
Y11850D01*
X12414Y11750D02*
X12614D01*
X13185Y11037D02*
X13382D01*
X13185Y10974D02*
X13382D01*
Y11037D01*
X13185Y10974D02*
Y11037D01*
X14325Y13013D02*
Y13222D01*
X14116Y13013D02*
Y13222D01*
X14325D01*
X14116Y13013D02*
X14325D01*
X11278Y11815D02*
X11281D01*
X11313D02*
X11372D01*
X11313Y11673D02*
X11372D01*
D80*
X16250Y13053D02*
X16246Y13062D01*
X16236Y13064D01*
X16228Y13058D01*
Y13048D01*
X16236Y13041D01*
X16246Y13043D01*
X16250Y13053D01*
X15219D02*
X15214Y13062D01*
X15204Y13064D01*
X15196Y13058D01*
Y13048D01*
X15204Y13041D01*
X15214Y13043D01*
X15219Y13053D01*
X13120D02*
X13116Y13062D01*
X13106Y13064D01*
X13098Y13058D01*
Y13048D01*
X13106Y13041D01*
X13116Y13043D01*
X13120Y13053D01*
X11436Y13270D02*
X11431Y13279D01*
X11421Y13281D01*
X11413Y13275D01*
Y13265D01*
X11421Y13258D01*
X11431Y13260D01*
X11436Y13270D01*
X14167Y13053D02*
X14163Y13062D01*
X14153Y13064D01*
X14145Y13058D01*
Y13048D01*
X14153Y13041D01*
X14163Y13043D01*
X14167Y13053D01*
D81*
X16255Y12680D02*
D03*
X15223D02*
D03*
X14172D02*
D03*
X13125D02*
D03*
D82*
X16276Y10320D02*
Y10342D01*
X16226Y10274D02*
Y10305D01*
Y10357D02*
Y10388D01*
Y10274D02*
X16269D01*
X16226Y10388D02*
X16269D01*
X16106Y10320D02*
Y10342D01*
X16056Y10274D02*
Y10305D01*
Y10357D02*
Y10388D01*
Y10274D02*
X16099D01*
X16056Y10388D02*
X16099D01*
X11189Y13440D02*
Y13462D01*
X11144Y13394D02*
X11182D01*
X11144Y13508D02*
X11182D01*
X15550Y13808D02*
Y13838D01*
Y13718D02*
Y13748D01*
X15535Y13733D02*
X15565D01*
X16042Y13808D02*
Y13838D01*
Y13718D02*
Y13748D01*
X16027Y13733D02*
X16057D01*
X16398Y13718D02*
Y13748D01*
Y13808D02*
Y13838D01*
X16383Y13823D02*
X16413D01*
X15030Y13796D02*
Y13826D01*
Y13886D02*
Y13916D01*
X15015Y13901D02*
X15045D01*
X15444Y13718D02*
Y13748D01*
Y13808D02*
Y13838D01*
X15429Y13823D02*
X15459D01*
X15896Y13718D02*
Y13748D01*
Y13808D02*
Y13838D01*
X15881Y13823D02*
X15911D01*
D83*
X15663Y10840D02*
X15693D01*
X15678Y10825D02*
Y10855D01*
X12312Y10273D02*
X12342D01*
X12327Y10258D02*
Y10288D01*
X13497Y10540D02*
X13527D01*
X13512Y10525D02*
Y10555D01*
X15723Y10584D02*
Y10614D01*
X15708Y10599D02*
X15738D01*
D84*
X11783Y12067D02*
D03*
M02*
