M48
;Layer_Color=9474304
;FILE_FORMAT=4:3
METRIC,LZ
;TYPE=PLATED
T1F00S00C0.350
T3F00S00C0.900
;TYPE=NON_PLATED
T4F00S00C1.200
%
T01
X0097155Y0006096
X006858Y0006223
X0069342Y0004953
X0063627Y0009017
X005969Y0016129
X0065405Y0021082
X0071247Y002286
X007874Y0022733
X0077678Y0021671
X0077724Y0020193
X0076454Y002032
X0081407Y0020955
X0052705Y0011049
X0052832Y0009017
Y0007112
Y000508
X0013739Y0031877
X0017145Y0032766
Y0030861
X0016891Y0028702
X0021463Y0035433
X002413
X0025146Y0037338
Y0039243
X0024638Y0040132
X0024892Y0041275
X0025781Y0041656
X0028711Y0039793
Y0038693
X0029811
Y0039793
X0030861Y0042926
X0032258
X0033655Y0043307
Y0042037
Y0040894
Y0036703
X0035179Y0036576
X0035433Y0037973
X0035052Y0035052
X0035306Y0033909
X0033655Y0032131
X0032131Y0036449
X0038989Y0037465
X004318Y0037719
X0045021Y0037021
X0051181Y0038608
X0053467Y0038862
X005207Y0041275
X0052705Y004445
X0042799Y004572
X0037465Y0044577
X0037338Y0042037
X0028321Y0043942
X0030861Y0048133
X0023241Y0048006
X002032Y0044704
X0017399Y0046101
Y0056134
X0037084Y0058293
X0049403Y0052705
X0053213Y0033401
X005334Y0031369
X0041656Y0031877
X0056642Y0032258
X005842
X0058928Y0029337
X0060325Y0028067
X0064135Y0027051
X0066675
X0069088Y0032258
X0070358Y0031877
X0067056Y0035179
X0065913
X0064897Y0034925
X0065659Y0036703
X00635
X0061214Y0037592
X0060325Y0036449
X0054483Y0038227
X0054229Y0042037
Y0043561
X0059817Y0046609
X005969Y0049276
X0064897Y0047498
X0065659Y0042545
X0063881
X0068326Y0037973
X0075946Y0040386
Y0045466
X0073406Y0043815
Y0055372
X0086233Y0038608
Y0031394
X0053975Y002794
T03
X0095377Y0009906
Y0012446
Y0014986
Y0017526
X009525Y0025146
X009271
X009017
X008763
X008509
X008255
X008001
X007747
X007493
X007239
X006985
X0092837Y0017526
Y0014986
Y0012446
Y0009906
X0007921Y0039403
Y0044403
Y0049403
Y0054403
X0002921
Y0049403
Y0044403
Y0039403
X0048895Y003937
Y004191
Y004445
Y004699
Y003683
Y003429
Y003175
Y002921
X0051388Y0055626
Y0060626
X0046388
Y0055626
X0041388
Y0060626
X0056388
Y0055626
X0055626Y00508
X0058166
X0060706
X0063246
X0065786
X0068326
X0070866
X0073406
T04
X0000822Y0024718
X0003322
X0008322Y0029718
X0003322Y0034718
X0000822
M30
