G04 Layer_Color=16711935*
%FSLAX43Y43*%
%MOMM*%
G71*
G01*
G75*
%ADD55C,0.100*%
%ADD93C,0.050*%
%ADD94C,0.076*%
D55*
X31411Y40893D02*
G03*
X31411Y40893I-500J0D01*
G01*
X68735Y42835D02*
G03*
X68735Y42835I-500J0D01*
G01*
X26711Y36693D02*
Y41793D01*
X31811Y36693D02*
Y41793D01*
X26711Y36693D02*
X31811D01*
X26711Y41793D02*
X31811D01*
X59135Y33735D02*
Y43735D01*
X69135Y33735D02*
Y43735D01*
X59135Y33735D02*
X69135D01*
X59135Y43735D02*
X69135D01*
D93*
X82711Y48898D02*
G03*
X82711Y46098I0J-1400D01*
G01*
Y49398D02*
G03*
X82711Y45598I0J-1900D01*
G01*
X89111Y46098D02*
G03*
X89111Y48898I0J1400D01*
G01*
Y45598D02*
G03*
X89111Y49398I0J1900D01*
G01*
Y45148D02*
G03*
X89111Y49848I0J2350D01*
G01*
X82711D02*
G03*
X82711Y45148I0J-2350D01*
G01*
X91461Y45083D02*
G03*
X91711Y45333I0J250D01*
G01*
X80111D02*
G03*
X80361Y45083I250J0D01*
G01*
Y49913D02*
G03*
X80111Y49663I0J-250D01*
G01*
X91711D02*
G03*
X91461Y49913I-250J0D01*
G01*
X71336Y48203D02*
X72936D01*
X71336Y46793D02*
X72936D01*
Y46773D02*
Y48223D01*
X73236Y46773D02*
Y48223D01*
X72936D02*
X73236D01*
X72936Y46773D02*
X73236D01*
X71036Y48223D02*
X71336D01*
X71036Y46773D02*
X71336D01*
Y48223D01*
X71036Y46773D02*
Y48223D01*
X35017Y29678D02*
X35517D01*
Y31028D01*
X35017Y29678D02*
Y31028D01*
X35517D01*
X33317Y29678D02*
X33817D01*
Y31028D01*
X33317D02*
X33817D01*
X33317Y29678D02*
Y31028D01*
X33817Y31027D02*
X35017D01*
X33817D02*
X35017Y31027D01*
X33817Y29679D02*
X35017Y29679D01*
X33817Y29679D02*
X35017Y29679D01*
X37046Y29648D02*
X38646D01*
X37046Y31058D02*
X38646D01*
X37046Y29628D02*
Y31078D01*
X36746Y29628D02*
Y31078D01*
Y29628D02*
X37046D01*
X36746Y31078D02*
X37046D01*
X38646Y29628D02*
X38946D01*
X38646Y31078D02*
X38946D01*
X38646Y29628D02*
Y31078D01*
X38946Y29628D02*
Y31078D01*
X28461Y33204D02*
X30061D01*
X28461Y34614D02*
X30061D01*
Y33184D02*
Y34634D01*
X30361Y33184D02*
Y34634D01*
X30061Y33184D02*
X30361D01*
X30061Y34634D02*
X30361D01*
X28161Y33184D02*
X28461D01*
X28161Y34634D02*
X28461D01*
Y33184D02*
Y34634D01*
X28161Y33184D02*
Y34634D01*
X28461Y31172D02*
X30061D01*
X28461Y32582D02*
X30061D01*
Y31152D02*
Y32602D01*
X30361Y31152D02*
Y32602D01*
X30061Y31152D02*
X30361D01*
X30061Y32602D02*
X30361D01*
X28161Y31152D02*
X28461D01*
X28161Y32602D02*
X28461D01*
Y31152D02*
Y32602D01*
X28161Y31152D02*
Y32602D01*
X25032Y34614D02*
X26632D01*
X25032Y33204D02*
X26632D01*
X25032Y33184D02*
Y34634D01*
X24732Y33184D02*
Y34634D01*
X25032D01*
X24732Y33184D02*
X25032D01*
X26632Y34634D02*
X26932D01*
X26632Y33184D02*
X26932D01*
X26632D02*
Y34634D01*
X26932Y33184D02*
Y34634D01*
X25021Y32582D02*
X26621D01*
X25021Y31172D02*
X26621D01*
X25021Y31152D02*
Y32602D01*
X24721Y31152D02*
Y32602D01*
X25021D01*
X24721Y31152D02*
X25021D01*
X26621Y32602D02*
X26921D01*
X26621Y31152D02*
X26921D01*
X26621D02*
Y32602D01*
X26921Y31152D02*
Y32602D01*
X21563Y31172D02*
X23163D01*
X21563Y32582D02*
X23163D01*
Y31152D02*
Y32602D01*
X23463Y31152D02*
Y32602D01*
X23163Y31152D02*
X23463D01*
X23163Y32602D02*
X23463D01*
X21263Y31152D02*
X21563D01*
X21263Y32602D02*
X21563D01*
Y31152D02*
Y32602D01*
X21263Y31152D02*
Y32602D01*
X21563Y33255D02*
X23163D01*
X21563Y34665D02*
X23163D01*
Y33235D02*
Y34685D01*
X23463Y33235D02*
Y34685D01*
X23163Y33235D02*
X23463D01*
X23163Y34685D02*
X23463D01*
X21263Y33235D02*
X21563D01*
X21263Y34685D02*
X21563D01*
Y33235D02*
Y34685D01*
X21263Y33235D02*
Y34685D01*
X56331Y41988D02*
Y43588D01*
X54921Y41988D02*
Y43588D01*
X54901Y41988D02*
X56351D01*
X54901Y41688D02*
X56351D01*
Y41988D01*
X54901Y41688D02*
Y41988D01*
X56351Y43588D02*
Y43888D01*
X54901Y43588D02*
Y43888D01*
Y43588D02*
X56351D01*
X54901Y43888D02*
X56351D01*
X56731Y34360D02*
X58331D01*
X56731Y32950D02*
X58331D01*
Y32930D02*
Y34380D01*
X58631Y32930D02*
Y34380D01*
X58331D02*
X58631D01*
X58331Y32930D02*
X58631D01*
X56431Y34380D02*
X56731D01*
X56431Y32930D02*
X56731D01*
Y34380D01*
X56431Y32930D02*
Y34380D01*
X43015Y52508D02*
X44615D01*
X43015Y53918D02*
X44615D01*
X43015Y52488D02*
Y53938D01*
X42715Y52488D02*
Y53938D01*
Y52488D02*
X43015D01*
X42715Y53938D02*
X43015D01*
X44615Y52488D02*
X44915D01*
X44615Y53938D02*
X44915D01*
X44615Y52488D02*
Y53938D01*
X44915Y52488D02*
Y53938D01*
X43015Y57334D02*
X44615D01*
X43015Y58744D02*
X44615D01*
X43015Y57314D02*
Y58764D01*
X42715Y57314D02*
Y58764D01*
Y57314D02*
X43015D01*
X42715Y58764D02*
X43015D01*
X44615Y57314D02*
X44915D01*
X44615Y58764D02*
X44915D01*
X44615Y57314D02*
Y58764D01*
X44915Y57314D02*
Y58764D01*
X31001Y50489D02*
X32601D01*
X31001Y49079D02*
X32601D01*
X31001Y49059D02*
Y50509D01*
X30701Y49059D02*
Y50509D01*
X31001D01*
X30701Y49059D02*
X31001D01*
X32601Y50509D02*
X32901D01*
X32601Y49059D02*
X32901D01*
X32601D02*
Y50509D01*
X32901Y49059D02*
Y50509D01*
X37141Y38940D02*
Y40540D01*
X38551Y38940D02*
Y40540D01*
X37121Y38940D02*
X38571D01*
X37121Y38640D02*
X38571D01*
X37121D02*
Y38940D01*
X38571Y38640D02*
Y38940D01*
X37121Y40540D02*
Y40840D01*
X38571Y40540D02*
Y40840D01*
X37121Y40540D02*
X38571D01*
X37121Y40840D02*
X38571D01*
X37395Y34125D02*
Y35725D01*
X38805Y34125D02*
Y35725D01*
X37375Y34125D02*
X38825D01*
X37375Y33825D02*
X38825D01*
X37375D02*
Y34125D01*
X38825Y33825D02*
Y34125D01*
X37375Y35725D02*
Y36025D01*
X38825Y35725D02*
Y36025D01*
X37375Y35725D02*
X38825D01*
X37375Y36025D02*
X38825D01*
X26672Y49079D02*
X28272D01*
X26672Y50489D02*
X28272D01*
Y49059D02*
Y50509D01*
X28572Y49059D02*
Y50509D01*
X28272Y49059D02*
X28572D01*
X28272Y50509D02*
X28572D01*
X26372Y49059D02*
X26672D01*
X26372Y50509D02*
X26672D01*
Y49059D02*
Y50509D01*
X26372Y49059D02*
Y50509D01*
X31839Y33204D02*
X33439D01*
X31839Y34614D02*
X33439D01*
Y33184D02*
Y34634D01*
X33739Y33184D02*
Y34634D01*
X33439Y33184D02*
X33739D01*
X33439Y34634D02*
X33739D01*
X31539Y33184D02*
X31839D01*
X31539Y34634D02*
X31839D01*
Y33184D02*
Y34634D01*
X31539Y33184D02*
Y34634D01*
X36730Y45807D02*
X37230D01*
X36730D02*
Y47157D01*
X37230Y45807D02*
Y47157D01*
X36730D02*
X37230D01*
X38430Y45807D02*
X38930D01*
X38430D02*
Y47157D01*
X38930D01*
Y45807D02*
Y47157D01*
X37230Y47156D02*
X38430D01*
X37230Y47156D02*
X38430Y47156D01*
X37230Y45808D02*
X38430Y45808D01*
X37230Y45808D02*
X38430Y45808D01*
X13743Y37298D02*
X14243D01*
X13743D02*
Y38648D01*
X14243Y37298D02*
Y38648D01*
X13743D02*
X14243D01*
X15443Y37298D02*
X15943D01*
X15443D02*
Y38648D01*
X15943D01*
Y37298D02*
Y38648D01*
X14243Y38647D02*
X15443D01*
X14243Y38647D02*
X15443Y38647D01*
X14243Y37299D02*
X15443Y37299D01*
X14243Y37299D02*
X15443Y37299D01*
X15475Y40934D02*
X15975D01*
Y39584D02*
Y40934D01*
X15475Y39584D02*
Y40934D01*
Y39584D02*
X15975D01*
X13775Y40934D02*
X14275D01*
Y39584D02*
Y40934D01*
X13775Y39584D02*
X14275D01*
X13775D02*
Y40934D01*
X14275Y39585D02*
X15475D01*
X14275D02*
X15475Y39585D01*
X14275Y40933D02*
X15475Y40933D01*
X14275Y40933D02*
X15475Y40933D01*
X13775Y41870D02*
X14275D01*
X13775D02*
Y43220D01*
X14275Y41870D02*
Y43220D01*
X13775D02*
X14275D01*
X15475Y41870D02*
X15975D01*
X15475D02*
Y43220D01*
X15975D01*
Y41870D02*
Y43220D01*
X14275Y43219D02*
X15475D01*
X14275Y43219D02*
X15475Y43219D01*
X14275Y41871D02*
X15475Y41871D01*
X14275Y41871D02*
X15475Y41871D01*
X17823Y41870D02*
X18323D01*
X17823D02*
Y43220D01*
X18323Y41870D02*
Y43220D01*
X17823D02*
X18323D01*
X19523Y41870D02*
X20023D01*
X19523D02*
Y43220D01*
X20023D01*
Y41870D02*
Y43220D01*
X18323Y43219D02*
X19523D01*
X18323Y43219D02*
X19523Y43219D01*
X18323Y41871D02*
X19523Y41871D01*
X18323Y41871D02*
X19523Y41871D01*
X17232Y39716D02*
Y40216D01*
X18582D01*
X17232Y39716D02*
X18582D01*
Y40216D01*
X17232Y38016D02*
Y38516D01*
X18582D01*
Y38016D02*
Y38516D01*
X17232Y38016D02*
X18582D01*
X18581Y38516D02*
Y39716D01*
X18581D02*
X18581Y38516D01*
X17233Y39716D02*
X17233Y38516D01*
X17233Y39716D02*
X17233Y38516D01*
X19107Y38327D02*
Y39927D01*
X20517Y38327D02*
Y39927D01*
X19087Y38327D02*
X20537D01*
X19087Y38027D02*
X20537D01*
X19087D02*
Y38327D01*
X20537Y38027D02*
Y38327D01*
X19087Y39927D02*
Y40227D01*
X20537Y39927D02*
Y40227D01*
X19087Y39927D02*
X20537D01*
X19087Y40227D02*
X20537D01*
X16423Y24554D02*
Y25054D01*
X15073Y24554D02*
X16423D01*
X15073Y25054D02*
X16423D01*
X15073Y24554D02*
Y25054D01*
X16423Y26254D02*
Y26754D01*
X15073Y26254D02*
X16423D01*
X15073D02*
Y26754D01*
X16423D01*
X15074Y25054D02*
Y26254D01*
X15074Y25054D01*
X16422Y26254D02*
X16422Y25054D01*
X16422Y26254D02*
X16422Y25054D01*
X13828Y29407D02*
X15428D01*
X13828Y27997D02*
X15428D01*
X13828Y27977D02*
Y29427D01*
X13528Y27977D02*
Y29427D01*
X13828D01*
X13528Y27977D02*
X13828D01*
X15428Y29427D02*
X15728D01*
X15428Y27977D02*
X15728D01*
X15428D02*
Y29427D01*
X15728Y27977D02*
Y29427D01*
X14518Y24538D02*
Y25038D01*
X13168Y24538D02*
X14518D01*
X13168Y25038D02*
X14518D01*
X13168Y24538D02*
Y25038D01*
X14518Y26238D02*
Y26738D01*
X13168Y26238D02*
X14518D01*
X13168D02*
Y26738D01*
X14518D01*
X13169Y25038D02*
Y26238D01*
X13169Y25038D01*
X14517Y26238D02*
X14517Y25038D01*
X14517Y26238D02*
X14517Y25038D01*
X14518Y32682D02*
Y33182D01*
X13168Y32682D02*
X14518D01*
X13168Y33182D02*
X14518D01*
X13168Y32682D02*
Y33182D01*
X14518Y34382D02*
Y34882D01*
X13168Y34382D02*
X14518D01*
X13168D02*
Y34882D01*
X14518D01*
X13169Y33182D02*
Y34382D01*
X13169Y33182D01*
X14517Y34382D02*
X14517Y33182D01*
X14517Y34382D02*
X14517Y33182D01*
X15073Y34382D02*
Y34882D01*
X16423D01*
X15073Y34382D02*
X16423D01*
Y34882D01*
X15073Y32682D02*
Y33182D01*
X16423D01*
Y32682D02*
Y33182D01*
X15073Y32682D02*
X16423D01*
X16422Y33182D02*
Y34382D01*
X16422D02*
X16422Y33182D01*
X15074Y34382D02*
X15074Y33182D01*
X15074Y34382D02*
X15074Y33182D01*
X14048Y56839D02*
X15648D01*
X14048Y55429D02*
X15648D01*
X14048Y55409D02*
Y56859D01*
X13748Y55409D02*
Y56859D01*
X14048D01*
X13748Y55409D02*
X14048D01*
X15648Y56859D02*
X15948D01*
X15648Y55409D02*
X15948D01*
X15648D02*
Y56859D01*
X15948Y55409D02*
Y56859D01*
X15459Y54650D02*
X15959D01*
Y53300D02*
Y54650D01*
X15459Y53300D02*
Y54650D01*
Y53300D02*
X15959D01*
X13759Y54650D02*
X14259D01*
Y53300D02*
Y54650D01*
X13759Y53300D02*
X14259D01*
X13759D02*
Y54650D01*
X14259Y53301D02*
X15459D01*
X14259D02*
X15459Y53301D01*
X14259Y54649D02*
X15459Y54649D01*
X14259Y54649D02*
X15459Y54649D01*
X18728Y50887D02*
X19228D01*
X18728D02*
Y52237D01*
X19228Y50887D02*
Y52237D01*
X18728D02*
X19228D01*
X20428Y50887D02*
X20928D01*
X20428D02*
Y52237D01*
X20928D01*
Y50887D02*
Y52237D01*
X19228Y52236D02*
X20428D01*
X19228Y52236D02*
X20428Y52236D01*
X19228Y50888D02*
X20428Y50888D01*
X19228Y50888D02*
X20428Y50888D01*
X19001Y54299D02*
X20601D01*
X19001Y52889D02*
X20601D01*
X19001Y52869D02*
Y54319D01*
X18701Y52869D02*
Y54319D01*
X19001D01*
X18701Y52869D02*
X19001D01*
X20601Y54319D02*
X20901D01*
X20601Y52869D02*
X20901D01*
X20601D02*
Y54319D01*
X20901Y52869D02*
Y54319D01*
X19023Y46666D02*
X20623D01*
X19023Y48076D02*
X20623D01*
Y46646D02*
Y48096D01*
X20923Y46646D02*
Y48096D01*
X20623Y46646D02*
X20923D01*
X20623Y48096D02*
X20923D01*
X18723Y46646D02*
X19023D01*
X18723Y48096D02*
X19023D01*
Y46646D02*
Y48096D01*
X18723Y46646D02*
Y48096D01*
X18712Y48728D02*
X19212D01*
X18712D02*
Y50078D01*
X19212Y48728D02*
Y50078D01*
X18712D02*
X19212D01*
X20412Y48728D02*
X20912D01*
X20412D02*
Y50078D01*
X20912D01*
Y48728D02*
Y50078D01*
X19212Y50077D02*
X20412D01*
X19212Y50077D02*
X20412Y50077D01*
X19212Y48729D02*
X20412Y48729D01*
X19212Y48729D02*
X20412Y48729D01*
X61049Y22422D02*
X62649D01*
X61049Y21012D02*
X62649D01*
X61049Y20992D02*
Y22442D01*
X60749Y20992D02*
Y22442D01*
X61049D01*
X60749Y20992D02*
X61049D01*
X62649Y22442D02*
X62949D01*
X62649Y20992D02*
X62949D01*
X62649D02*
Y22442D01*
X62949Y20992D02*
Y22442D01*
X73827Y40032D02*
Y40532D01*
X72477Y40032D02*
X73827D01*
X72477Y40532D02*
X73827D01*
X72477Y40032D02*
Y40532D01*
X73827Y41732D02*
Y42232D01*
X72477Y41732D02*
X73827D01*
X72477D02*
Y42232D01*
X73827D01*
X72478Y40532D02*
Y41732D01*
X72478Y40532D01*
X73826Y41732D02*
X73826Y40532D01*
X73826Y41732D02*
X73826Y40532D01*
X57131Y29885D02*
X57631D01*
Y28535D02*
Y29885D01*
X57131Y28535D02*
Y29885D01*
Y28535D02*
X57631D01*
X55431Y29885D02*
X55931D01*
Y28535D02*
Y29885D01*
X55431Y28535D02*
X55931D01*
X55431D02*
Y29885D01*
X55931Y28536D02*
X57131D01*
X55931D02*
X57131Y28536D01*
X55931Y29884D02*
X57131Y29884D01*
X55931Y29884D02*
X57131Y29884D01*
X74498Y32044D02*
X74998D01*
Y30694D02*
Y32044D01*
X74498Y30694D02*
Y32044D01*
Y30694D02*
X74998D01*
X72798Y32044D02*
X73298D01*
Y30694D02*
Y32044D01*
X72798Y30694D02*
X73298D01*
X72798D02*
Y32044D01*
X73298Y30695D02*
X74498D01*
X73298D02*
X74498Y30695D01*
X73298Y32043D02*
X74498Y32043D01*
X73298Y32043D02*
X74498Y32043D01*
X91878Y40221D02*
Y41821D01*
X93288Y40221D02*
Y41821D01*
X91858Y40221D02*
X93308D01*
X91858Y39921D02*
X93308D01*
X91858D02*
Y40221D01*
X93308Y39921D02*
Y40221D01*
X91858Y41821D02*
Y42121D01*
X93308Y41821D02*
Y42121D01*
X91858Y41821D02*
X93308D01*
X91858Y42121D02*
X93308D01*
X74530Y34330D02*
X75030D01*
Y32980D02*
Y34330D01*
X74530Y32980D02*
Y34330D01*
Y32980D02*
X75030D01*
X72830Y34330D02*
X73330D01*
Y32980D02*
Y34330D01*
X72830Y32980D02*
X73330D01*
X72830D02*
Y34330D01*
X73330Y32981D02*
X74530D01*
X73330D02*
X74530Y32981D01*
X73330Y34329D02*
X74530Y34329D01*
X73330Y34329D02*
X74530Y34329D01*
X91878Y32728D02*
Y34328D01*
X93288Y32728D02*
Y34328D01*
X91858Y32728D02*
X93308D01*
X91858Y32428D02*
X93308D01*
X91858D02*
Y32728D01*
X93308Y32428D02*
Y32728D01*
X91858Y34328D02*
Y34628D01*
X93308Y34328D02*
Y34628D01*
X91858Y34328D02*
X93308D01*
X91858Y34628D02*
X93308D01*
X74530Y36616D02*
X75030D01*
Y35266D02*
Y36616D01*
X74530Y35266D02*
Y36616D01*
Y35266D02*
X75030D01*
X72830Y36616D02*
X73330D01*
Y35266D02*
Y36616D01*
X72830Y35266D02*
X73330D01*
X72830D02*
Y36616D01*
X73330Y35267D02*
X74530D01*
X73330D02*
X74530Y35267D01*
X73330Y36615D02*
X74530Y36615D01*
X73330Y36615D02*
X74530Y36615D01*
X81750Y50603D02*
X83350D01*
X81750Y52013D02*
X83350D01*
Y50583D02*
Y52033D01*
X83650Y50583D02*
Y52033D01*
X83350Y50583D02*
X83650D01*
X83350Y52033D02*
X83650D01*
X81450Y50583D02*
X81750D01*
X81450Y52033D02*
X81750D01*
Y50583D02*
Y52033D01*
X81450Y50583D02*
Y52033D01*
X82711Y49398D02*
X89111D01*
X82711Y48898D02*
X89111D01*
X82711Y46098D02*
X89111D01*
X82711Y45598D02*
X89111D01*
X82711Y49848D02*
X89111D01*
X82711Y45148D02*
X89111D01*
X80361Y45083D02*
X91461D01*
X80111Y45333D02*
Y49663D01*
X80361Y49913D02*
X91461D01*
X91711Y45333D02*
Y49663D01*
X92311Y47048D02*
Y47948D01*
X91711Y47048D02*
X92311D01*
X91711Y47948D02*
X92311D01*
X79511Y47048D02*
Y47948D01*
X80111D01*
X79511Y47048D02*
X80111D01*
X88481Y52013D02*
X90081D01*
X88481Y50603D02*
X90081D01*
X88481Y50583D02*
Y52033D01*
X88181Y50583D02*
Y52033D01*
X88481D01*
X88181Y50583D02*
X88481D01*
X90081Y52033D02*
X90381D01*
X90081Y50583D02*
X90381D01*
X90081D02*
Y52033D01*
X90381Y50583D02*
Y52033D01*
X52286Y29915D02*
X53886D01*
X52286Y28505D02*
X53886D01*
X52286Y28485D02*
Y29935D01*
X51986Y28485D02*
Y29935D01*
X52286D01*
X51986Y28485D02*
X52286D01*
X53886Y29935D02*
X54186D01*
X53886Y28485D02*
X54186D01*
X53886D02*
Y29935D01*
X54186Y28485D02*
Y29935D01*
X46044Y40983D02*
Y42583D01*
X44634Y40983D02*
Y42583D01*
X44614D02*
X46064D01*
X44614Y42883D02*
X46064D01*
Y42583D02*
Y42883D01*
X44614Y42583D02*
Y42883D01*
X46064Y40683D02*
Y40983D01*
X44614Y40683D02*
Y40983D01*
X46064D01*
X44614Y40683D02*
X46064D01*
X44647Y34125D02*
Y35725D01*
X43237Y34125D02*
Y35725D01*
X43217D02*
X44667D01*
X43217Y36025D02*
X44667D01*
Y35725D02*
Y36025D01*
X43217Y35725D02*
Y36025D01*
X44667Y33825D02*
Y34125D01*
X43217Y33825D02*
Y34125D01*
X44667D01*
X43217Y33825D02*
X44667D01*
X61925Y63032D02*
X62425D01*
Y61682D02*
Y63032D01*
X61925Y61682D02*
Y63032D01*
Y61682D02*
X62425D01*
X60225Y63032D02*
X60725D01*
Y61682D02*
Y63032D01*
X60225Y61682D02*
X60725D01*
X60225D02*
Y63032D01*
X60725Y61683D02*
X61925D01*
X60725D02*
X61925Y61683D01*
X60725Y63031D02*
X61925Y63031D01*
X60725Y63031D02*
X61925Y63031D01*
X60141Y24346D02*
Y25946D01*
X58731Y24346D02*
Y25946D01*
X58711D02*
X60161D01*
X58711Y26246D02*
X60161D01*
Y25946D02*
Y26246D01*
X58711Y25946D02*
Y26246D01*
X60161Y24046D02*
Y24346D01*
X58711Y24046D02*
Y24346D01*
X60161D01*
X58711Y24046D02*
X60161D01*
X35492Y61682D02*
X35992D01*
X35492D02*
Y63032D01*
X35992Y61682D02*
Y63032D01*
X35492D02*
X35992D01*
X37192Y61682D02*
X37692D01*
X37192D02*
Y63032D01*
X37692D01*
Y61682D02*
Y63032D01*
X35992Y63031D02*
X37192D01*
X35992Y63031D02*
X37192Y63031D01*
X35992Y61683D02*
X37192Y61683D01*
X35992Y61683D02*
X37192Y61683D01*
X13839Y30029D02*
X15439D01*
X13839Y31439D02*
X15439D01*
Y30009D02*
Y31459D01*
X15739Y30009D02*
Y31459D01*
X15439Y30009D02*
X15739D01*
X15439Y31459D02*
X15739D01*
X13539Y30009D02*
X13839D01*
X13539Y31459D02*
X13839D01*
Y30009D02*
Y31459D01*
X13539Y30009D02*
Y31459D01*
X30061Y43745D02*
X31661D01*
X30061Y45155D02*
X31661D01*
X30061Y43725D02*
Y45175D01*
X29761Y43725D02*
Y45175D01*
Y43725D02*
X30061D01*
X29761Y45175D02*
X30061D01*
X31661Y43725D02*
X31961D01*
X31661Y45175D02*
X31961D01*
X31661Y43725D02*
Y45175D01*
X31961Y43725D02*
Y45175D01*
X30061Y45777D02*
X31661D01*
X30061Y47187D02*
X31661D01*
X30061Y45757D02*
Y47207D01*
X29761Y45757D02*
Y47207D01*
Y45757D02*
X30061D01*
X29761Y47207D02*
X30061D01*
X31661Y45757D02*
X31961D01*
X31661Y47207D02*
X31961D01*
X31661Y45757D02*
Y47207D01*
X31961Y45757D02*
Y47207D01*
X23692Y43015D02*
Y44615D01*
X22282Y43015D02*
Y44615D01*
X22262Y43015D02*
X23712D01*
X22262Y42715D02*
X23712D01*
Y43015D01*
X22262Y42715D02*
Y43015D01*
X23712Y44615D02*
Y44915D01*
X22262Y44615D02*
Y44915D01*
Y44615D02*
X23712D01*
X22262Y44915D02*
X23712D01*
X25724Y43015D02*
Y44615D01*
X24314Y43015D02*
Y44615D01*
X24294Y43015D02*
X25744D01*
X24294Y42715D02*
X25744D01*
Y43015D01*
X24294Y42715D02*
Y43015D01*
X25744Y44615D02*
Y44915D01*
X24294Y44615D02*
Y44915D01*
Y44615D02*
X25744D01*
X24294Y44915D02*
X25744D01*
D94*
X70231Y19558D02*
Y22606D01*
X66929D02*
X70231D01*
X66929Y19558D02*
Y22606D01*
Y19558D02*
X70231D01*
X76098Y34392D02*
X79477D01*
Y32918D02*
Y34392D01*
X76098Y32918D02*
X79477D01*
X76098D02*
Y34392D01*
X13335Y44577D02*
X16637D01*
X13335D02*
Y47625D01*
X16637D01*
Y44577D02*
Y47625D01*
X77470Y39497D02*
Y42799D01*
X74422Y39497D02*
X77470D01*
X74422D02*
Y42799D01*
X77470D01*
X54864Y24765D02*
X58166D01*
Y21717D02*
Y24765D01*
X54864Y21717D02*
X58166D01*
X54864D02*
Y24765D01*
X77470Y43053D02*
Y46355D01*
X74422Y43053D02*
X77470D01*
X74422D02*
Y46355D01*
X77470D01*
X54864Y25019D02*
X58166D01*
X54864D02*
Y28067D01*
X58166D01*
Y25019D02*
Y28067D01*
X76098Y32106D02*
X79477D01*
Y30632D02*
Y32106D01*
X76098Y30632D02*
X79477D01*
X76098D02*
Y32106D01*
Y36678D02*
X79477D01*
Y35204D02*
Y36678D01*
X76098Y35204D02*
X79477D01*
X76098D02*
Y36678D01*
X60096Y59461D02*
X63475D01*
X60096D02*
Y60935D01*
X63475D01*
Y59461D02*
Y60935D01*
X34442D02*
X37821D01*
Y59461D02*
Y60935D01*
X34442Y59461D02*
X37821D01*
X34442D02*
Y60935D01*
M02*
