G04 Layer_Color=128*
%FSLAX43Y43*%
%MOMM*%
G71*
G01*
G75*
%ADD98C,0.051*%
D98*
X92387Y17526D02*
X93287D01*
X92837Y17076D02*
Y17976D01*
X94927Y17526D02*
X95827D01*
X95377Y17076D02*
Y17976D01*
X92387Y14986D02*
X93287D01*
X92837Y14536D02*
Y15436D01*
X94927Y14986D02*
X95827D01*
X95377Y14536D02*
Y15436D01*
X92387Y12446D02*
X93287D01*
X92837Y11996D02*
Y12896D01*
X94927Y12446D02*
X95827D01*
X95377Y11996D02*
Y12896D01*
X92387Y9906D02*
X93287D01*
X92837Y9456D02*
Y10356D01*
X94927Y9906D02*
X95827D01*
X95377Y9456D02*
Y10356D01*
X55938Y60626D02*
X56838D01*
X56388Y60176D02*
Y61076D01*
X55938Y55626D02*
X56838D01*
X56388Y55176D02*
Y56076D01*
X50938Y55626D02*
X51838D01*
X51388Y55176D02*
Y56076D01*
X50938Y60626D02*
X51838D01*
X51388Y60176D02*
Y61076D01*
X45938Y60626D02*
X46838D01*
X46388Y60176D02*
Y61076D01*
X45938Y55626D02*
X46838D01*
X46388Y55176D02*
Y56076D01*
X40938Y60626D02*
X41838D01*
X41388Y60176D02*
Y61076D01*
X40938Y55626D02*
X41838D01*
X41388Y55176D02*
Y56076D01*
X72956Y50800D02*
X73856D01*
X73406Y50350D02*
Y51250D01*
X70416Y50800D02*
X71316D01*
X70866Y50350D02*
Y51250D01*
X67876Y50800D02*
X68776D01*
X68326Y50350D02*
Y51250D01*
X65336Y50800D02*
X66236D01*
X65786Y50350D02*
Y51250D01*
X62796Y50800D02*
X63696D01*
X63246Y50350D02*
Y51250D01*
X60256Y50800D02*
X61156D01*
X60706Y50350D02*
Y51250D01*
X57716Y50800D02*
X58616D01*
X58166Y50350D02*
Y51250D01*
X55176Y50800D02*
X56076D01*
X55626Y50350D02*
Y51250D01*
X74480Y25146D02*
X75380D01*
X74930Y24696D02*
Y25596D01*
X71940Y25146D02*
X72840D01*
X72390Y24696D02*
Y25596D01*
X69400Y25146D02*
X70300D01*
X69850Y24696D02*
Y25596D01*
X48445Y29210D02*
X49345D01*
X48895Y28760D02*
Y29660D01*
X94800Y25146D02*
X95700D01*
X95250Y24696D02*
Y25596D01*
X92260Y25146D02*
X93160D01*
X92710Y24696D02*
Y25596D01*
X89720Y25146D02*
X90620D01*
X90170Y24696D02*
Y25596D01*
X87180Y25146D02*
X88080D01*
X87630Y24696D02*
Y25596D01*
X84640Y25146D02*
X85540D01*
X85090Y24696D02*
Y25596D01*
X82100Y25146D02*
X83000D01*
X82550Y24696D02*
Y25596D01*
X79560Y25146D02*
X80460D01*
X80010Y24696D02*
Y25596D01*
X77020Y25146D02*
X77920D01*
X77470Y24696D02*
Y25596D01*
X48445Y46990D02*
X49345D01*
X48895Y46540D02*
Y47440D01*
X48445Y41910D02*
X49345D01*
X48895Y41460D02*
Y42360D01*
X48445Y39370D02*
X49345D01*
X48895Y38920D02*
Y39820D01*
X48445Y44450D02*
X49345D01*
X48895Y44000D02*
Y44900D01*
X48445Y36830D02*
X49345D01*
X48895Y36380D02*
Y37280D01*
X48445Y31750D02*
X49345D01*
X48895Y31300D02*
Y32200D01*
X48445Y34290D02*
X49345D01*
X48895Y33840D02*
Y34740D01*
X2471Y54403D02*
X3371D01*
X2921Y53953D02*
Y54853D01*
X7471Y54403D02*
X8371D01*
X7921Y53953D02*
Y54853D01*
X7471Y49403D02*
X8371D01*
X7921Y48953D02*
Y49853D01*
X2471Y49403D02*
X3371D01*
X2921Y48953D02*
Y49853D01*
X2471Y44403D02*
X3371D01*
X2921Y43953D02*
Y44853D01*
X7471Y44403D02*
X8371D01*
X7921Y43953D02*
Y44853D01*
X2471Y39403D02*
X3371D01*
X2921Y38953D02*
Y39853D01*
X7471Y39403D02*
X8371D01*
X7921Y38953D02*
Y39853D01*
X8022Y34718D02*
X8622D01*
X8322Y34418D02*
Y35018D01*
X8022Y32218D02*
X8622D01*
X8322Y31918D02*
Y32518D01*
X8022Y27218D02*
X8622D01*
X8322Y26918D02*
Y27518D01*
X8022Y24718D02*
X8622D01*
X8322Y24418D02*
Y25018D01*
X3022Y29718D02*
X3622D01*
X3322Y29418D02*
Y30018D01*
X7722Y29718D02*
X8922D01*
X8322Y29118D02*
Y30318D01*
X2722Y24718D02*
X3922D01*
X3322Y24118D02*
Y25318D01*
X222Y24718D02*
X1422D01*
X822Y24118D02*
Y25318D01*
X2722Y34718D02*
X3922D01*
X3322Y34118D02*
Y35318D01*
X222Y34718D02*
X1422D01*
X822Y34118D02*
Y35318D01*
X28536Y38693D02*
X28886D01*
X28711Y38518D02*
Y38868D01*
X28536Y39793D02*
X28886D01*
X28711Y39618D02*
Y39968D01*
X29636Y38693D02*
X29986D01*
X29811Y38518D02*
Y38868D01*
X29636Y39793D02*
X29986D01*
X29811Y39618D02*
Y39968D01*
X64722Y34925D02*
X65072D01*
X64897Y34750D02*
Y35100D01*
X61039Y37592D02*
X61389D01*
X61214Y37417D02*
Y37767D01*
X60150Y36449D02*
X60500D01*
X60325Y36274D02*
Y36624D01*
X54308Y38227D02*
X54658D01*
X54483Y38052D02*
Y38402D01*
X53292Y38862D02*
X53642D01*
X53467Y38687D02*
Y39037D01*
X53038Y33401D02*
X53388D01*
X53213Y33226D02*
Y33576D01*
X53165Y31369D02*
X53515D01*
X53340Y31194D02*
Y31544D01*
X56467Y32258D02*
X56817D01*
X56642Y32083D02*
Y32433D01*
X58245Y32258D02*
X58595D01*
X58420Y32083D02*
Y32433D01*
X52530Y44450D02*
X52880D01*
X52705Y44275D02*
Y44625D01*
X54054Y43561D02*
X54404D01*
X54229Y43386D02*
Y43736D01*
X54054Y42037D02*
X54404D01*
X54229Y41862D02*
Y42212D01*
X51895Y41275D02*
X52245D01*
X52070Y41100D02*
Y41450D01*
X51006Y38608D02*
X51356D01*
X51181Y38433D02*
Y38783D01*
X59515Y49276D02*
X59865D01*
X59690Y49101D02*
Y49451D01*
X75771Y45466D02*
X76121D01*
X75946Y45291D02*
Y45641D01*
X64722Y47498D02*
X65072D01*
X64897Y47323D02*
Y47673D01*
X41481Y31877D02*
X41831D01*
X41656Y31702D02*
Y32052D01*
X44847Y37021D02*
X45196D01*
X45021Y36846D02*
Y37195D01*
X42624Y45720D02*
X42974D01*
X42799Y45545D02*
Y45895D01*
X43005Y37719D02*
X43355D01*
X43180Y37544D02*
Y37894D01*
X36909Y58293D02*
X37259D01*
X37084Y58118D02*
Y58468D01*
X38814Y37465D02*
X39164D01*
X38989Y37290D02*
Y37640D01*
X35258Y37973D02*
X35608D01*
X35433Y37798D02*
Y38148D01*
X33480Y32131D02*
X33830D01*
X33655Y31956D02*
Y32306D01*
X37290Y44577D02*
X37640D01*
X37465Y44402D02*
Y44752D01*
X31956Y36449D02*
X32306D01*
X32131Y36274D02*
Y36624D01*
X37163Y42037D02*
X37513D01*
X37338Y41862D02*
Y42212D01*
X33480Y43307D02*
X33830D01*
X33655Y43132D02*
Y43482D01*
X33480Y42037D02*
X33830D01*
X33655Y41862D02*
Y42212D01*
X33480Y40894D02*
X33830D01*
X33655Y40719D02*
Y41069D01*
X35004Y36576D02*
X35354D01*
X35179Y36401D02*
Y36751D01*
X34877Y35052D02*
X35227D01*
X35052Y34877D02*
Y35227D01*
X33480Y36703D02*
X33830D01*
X33655Y36528D02*
Y36878D01*
X35131Y33909D02*
X35481D01*
X35306Y33734D02*
Y34084D01*
X16970Y30861D02*
X17320D01*
X17145Y30686D02*
Y31036D01*
X13564Y31877D02*
X13914D01*
X13739Y31702D02*
Y32052D01*
X17224Y56134D02*
X17574D01*
X17399Y55959D02*
Y56309D01*
X17224Y46101D02*
X17574D01*
X17399Y45926D02*
Y46276D01*
X23066Y48006D02*
X23416D01*
X23241Y47831D02*
Y48181D01*
X28146Y43942D02*
X28496D01*
X28321Y43767D02*
Y44117D01*
X30686Y48133D02*
X31036D01*
X30861Y47958D02*
Y48308D01*
X32083Y42926D02*
X32433D01*
X32258Y42751D02*
Y43101D01*
X30686Y42926D02*
X31036D01*
X30861Y42751D02*
Y43101D01*
X20145Y44704D02*
X20495D01*
X20320Y44529D02*
Y44879D01*
X21288Y35433D02*
X21638D01*
X21463Y35258D02*
Y35608D01*
X23955Y35433D02*
X24305D01*
X24130Y35258D02*
Y35608D01*
X24971Y37338D02*
X25321D01*
X25146Y37163D02*
Y37513D01*
X24717Y41275D02*
X25067D01*
X24892Y41100D02*
Y41450D01*
X24971Y39243D02*
X25321D01*
X25146Y39068D02*
Y39418D01*
X24463Y40132D02*
X24813D01*
X24638Y39957D02*
Y40307D01*
X25606Y41656D02*
X25956D01*
X25781Y41481D02*
Y41831D01*
X16716Y28702D02*
X17066D01*
X16891Y28527D02*
Y28877D01*
X16970Y32766D02*
X17320D01*
X17145Y32591D02*
Y32941D01*
X65738Y35179D02*
X66088D01*
X65913Y35004D02*
Y35354D01*
X66881Y35179D02*
X67231D01*
X67056Y35004D02*
Y35354D01*
X68913Y32258D02*
X69263D01*
X69088Y32083D02*
Y32433D01*
X70183Y31877D02*
X70533D01*
X70358Y31702D02*
Y32052D01*
X68151Y37973D02*
X68501D01*
X68326Y37798D02*
Y38148D01*
X65484Y42545D02*
X65834D01*
X65659Y42370D02*
Y42720D01*
X63706Y42545D02*
X64056D01*
X63881Y42370D02*
Y42720D01*
X60150Y28067D02*
X60500D01*
X60325Y27892D02*
Y28242D01*
X63960Y27051D02*
X64310D01*
X64135Y26876D02*
Y27226D01*
X66500Y27051D02*
X66850D01*
X66675Y26876D02*
Y27226D01*
X65484Y36703D02*
X65834D01*
X65659Y36528D02*
Y36878D01*
X63325Y36703D02*
X63675D01*
X63500Y36528D02*
Y36878D01*
X86058Y31394D02*
X86408D01*
X86233Y31219D02*
Y31569D01*
X86058Y38608D02*
X86408D01*
X86233Y38433D02*
Y38783D01*
X75771Y40386D02*
X76121D01*
X75946Y40211D02*
Y40561D01*
X73231Y43815D02*
X73581D01*
X73406Y43640D02*
Y43990D01*
X53800Y27940D02*
X54150D01*
X53975Y27765D02*
Y28115D01*
X63452Y9017D02*
X63802D01*
X63627Y8842D02*
Y9192D01*
X69167Y4953D02*
X69517D01*
X69342Y4778D02*
Y5128D01*
X68405Y6223D02*
X68755D01*
X68580Y6048D02*
Y6398D01*
X78565Y22733D02*
X78915D01*
X78740Y22558D02*
Y22908D01*
X77503Y21671D02*
X77853D01*
X77678Y21496D02*
Y21846D01*
X76279Y20320D02*
X76629D01*
X76454Y20145D02*
Y20495D01*
X81232Y20955D02*
X81582D01*
X81407Y20780D02*
Y21130D01*
X52530Y11049D02*
X52880D01*
X52705Y10874D02*
Y11224D01*
X52657Y9017D02*
X53007D01*
X52832Y8842D02*
Y9192D01*
X52657Y7112D02*
X53007D01*
X52832Y6937D02*
Y7287D01*
X52657Y5080D02*
X53007D01*
X52832Y4905D02*
Y5255D01*
X71072Y22860D02*
X71422D01*
X71247Y22685D02*
Y23035D01*
X77549Y20193D02*
X77899D01*
X77724Y20018D02*
Y20368D01*
X58753Y29337D02*
X59103D01*
X58928Y29162D02*
Y29512D01*
X59515Y16129D02*
X59865D01*
X59690Y15954D02*
Y16304D01*
X65230Y21082D02*
X65580D01*
X65405Y20907D02*
Y21257D01*
X49228Y52705D02*
X49578D01*
X49403Y52530D02*
Y52880D01*
X59642Y46609D02*
X59992D01*
X59817Y46434D02*
Y46784D01*
X73231Y55372D02*
X73581D01*
X73406Y55197D02*
Y55547D01*
X96980Y6096D02*
X97330D01*
X97155Y5921D02*
Y6271D01*
M02*
