G04 Layer_Color=16711935*
%FSLAX43Y43*%
%MOMM*%
G71*
G01*
G75*
G04:AMPARAMS|DCode=63|XSize=1.603mm|YSize=1.203mm|CornerRadius=0.227mm|HoleSize=0mm|Usage=FLASHONLY|Rotation=270.000|XOffset=0mm|YOffset=0mm|HoleType=Round|Shape=RoundedRectangle|*
%AMROUNDEDRECTD63*
21,1,1.603,0.750,0,0,270.0*
21,1,1.150,1.203,0,0,270.0*
1,1,0.453,-0.375,-0.575*
1,1,0.453,-0.375,0.575*
1,1,0.453,0.375,0.575*
1,1,0.453,0.375,-0.575*
%
%ADD63ROUNDEDRECTD63*%
G04:AMPARAMS|DCode=71|XSize=1.603mm|YSize=1.203mm|CornerRadius=0.227mm|HoleSize=0mm|Usage=FLASHONLY|Rotation=180.000|XOffset=0mm|YOffset=0mm|HoleType=Round|Shape=RoundedRectangle|*
%AMROUNDEDRECTD71*
21,1,1.603,0.750,0,0,180.0*
21,1,1.150,1.203,0,0,180.0*
1,1,0.453,-0.575,0.375*
1,1,0.453,0.575,0.375*
1,1,0.453,0.575,-0.375*
1,1,0.453,-0.575,-0.375*
%
%ADD71ROUNDEDRECTD71*%
G04:AMPARAMS|DCode=73|XSize=1.503mm|YSize=1.003mm|CornerRadius=0.202mm|HoleSize=0mm|Usage=FLASHONLY|Rotation=270.000|XOffset=0mm|YOffset=0mm|HoleType=Round|Shape=RoundedRectangle|*
%AMROUNDEDRECTD73*
21,1,1.503,0.600,0,0,270.0*
21,1,1.100,1.003,0,0,270.0*
1,1,0.403,-0.300,-0.550*
1,1,0.403,-0.300,0.550*
1,1,0.403,0.300,0.550*
1,1,0.403,0.300,-0.550*
%
%ADD73ROUNDEDRECTD73*%
%ADD76R,1.703X1.703*%
%ADD83C,1.703*%
%ADD84R,1.703X1.703*%
%ADD85O,2.403X1.403*%
%ADD86O,1.403X2.403*%
%ADD87C,1.203*%
%ADD88C,0.853*%
%ADD89R,2.303X0.653*%
%ADD90O,2.303X0.653*%
%ADD91O,1.653X0.553*%
%ADD92R,1.653X0.553*%
D63*
X73036Y47498D02*
D03*
X71236D02*
D03*
X36946Y30353D02*
D03*
X38746D02*
D03*
X58431Y33655D02*
D03*
X56631D02*
D03*
X42915Y53213D02*
D03*
X44715D02*
D03*
X42915Y58039D02*
D03*
X44715D02*
D03*
X29961Y44450D02*
D03*
X31761D02*
D03*
X29961Y46482D02*
D03*
X31761D02*
D03*
D71*
X55626Y41888D02*
D03*
Y43688D02*
D03*
X22987Y42915D02*
D03*
Y44715D02*
D03*
X25019Y42915D02*
D03*
Y44715D02*
D03*
D73*
X35417Y30353D02*
D03*
X33417D02*
D03*
D76*
X55626Y50800D02*
D03*
X69850Y25146D02*
D03*
X82550D02*
D03*
X77470D02*
D03*
X2921Y54403D02*
D03*
X7921D02*
D03*
Y49403D02*
D03*
X2921D02*
D03*
Y44403D02*
D03*
X7921D02*
D03*
X2921Y39403D02*
D03*
X7921D02*
D03*
D83*
X92837Y17526D02*
D03*
X95377D02*
D03*
X92837Y14986D02*
D03*
X95377D02*
D03*
X92837Y12446D02*
D03*
X95377D02*
D03*
X92837Y9906D02*
D03*
X73406Y50800D02*
D03*
X70866D02*
D03*
X68326D02*
D03*
X65786D02*
D03*
X63246D02*
D03*
X60706D02*
D03*
X58166D02*
D03*
X74930Y25146D02*
D03*
X72390D02*
D03*
X95250D02*
D03*
X92710D02*
D03*
X90170D02*
D03*
X87630D02*
D03*
X85090D02*
D03*
X80010D02*
D03*
D84*
X95377Y9906D02*
D03*
X56388Y60626D02*
D03*
Y55626D02*
D03*
X51388D02*
D03*
Y60626D02*
D03*
X46388D02*
D03*
Y55626D02*
D03*
X41388Y60626D02*
D03*
Y55626D02*
D03*
X48895Y29210D02*
D03*
Y46990D02*
D03*
Y41910D02*
D03*
Y39370D02*
D03*
Y44450D02*
D03*
Y36830D02*
D03*
Y31750D02*
D03*
Y34290D02*
D03*
D85*
X8322Y34718D02*
D03*
Y32218D02*
D03*
Y27218D02*
D03*
Y24718D02*
D03*
D86*
X3322Y29718D02*
D03*
D87*
X8322D02*
D03*
X3322Y24718D02*
D03*
X822D02*
D03*
X3322Y34718D02*
D03*
X822D02*
D03*
D88*
X28711Y38693D02*
D03*
Y39793D02*
D03*
X29811Y38693D02*
D03*
Y39793D02*
D03*
X64897Y34925D02*
D03*
X61214Y37592D02*
D03*
X60325Y36449D02*
D03*
X54483Y38227D02*
D03*
X53467Y38862D02*
D03*
X53213Y33401D02*
D03*
X53340Y31369D02*
D03*
X56642Y32258D02*
D03*
X58420D02*
D03*
X52705Y44450D02*
D03*
X54229Y43561D02*
D03*
Y42037D02*
D03*
X52070Y41275D02*
D03*
X51181Y38608D02*
D03*
X59690Y49276D02*
D03*
X75946Y45466D02*
D03*
X64897Y47498D02*
D03*
X41656Y31877D02*
D03*
X45021Y37021D02*
D03*
X42799Y45720D02*
D03*
X43180Y37719D02*
D03*
X37084Y58293D02*
D03*
X38989Y37465D02*
D03*
X35433Y37973D02*
D03*
X33655Y32131D02*
D03*
X37465Y44577D02*
D03*
X32131Y36449D02*
D03*
X37338Y42037D02*
D03*
X33655Y43307D02*
D03*
Y42037D02*
D03*
Y40894D02*
D03*
X35179Y36576D02*
D03*
X35052Y35052D02*
D03*
X33655Y36703D02*
D03*
X35306Y33909D02*
D03*
X17145Y30861D02*
D03*
X13739Y31877D02*
D03*
X17399Y56134D02*
D03*
Y46101D02*
D03*
X23241Y48006D02*
D03*
X28321Y43942D02*
D03*
X30861Y48133D02*
D03*
X32258Y42926D02*
D03*
X30861D02*
D03*
X20320Y44704D02*
D03*
X21463Y35433D02*
D03*
X24130D02*
D03*
X25146Y37338D02*
D03*
X24892Y41275D02*
D03*
X25146Y39243D02*
D03*
X24638Y40132D02*
D03*
X25781Y41656D02*
D03*
X16891Y28702D02*
D03*
X17145Y32766D02*
D03*
X65913Y35179D02*
D03*
X67056D02*
D03*
X69088Y32258D02*
D03*
X70358Y31877D02*
D03*
X68326Y37973D02*
D03*
X65659Y42545D02*
D03*
X63881D02*
D03*
X60325Y28067D02*
D03*
X64135Y27051D02*
D03*
X66675D02*
D03*
X65659Y36703D02*
D03*
X63500D02*
D03*
X86233Y31394D02*
D03*
Y38608D02*
D03*
X75946Y40386D02*
D03*
X73406Y43815D02*
D03*
X53975Y27940D02*
D03*
X63627Y9017D02*
D03*
X69342Y4953D02*
D03*
X68580Y6223D02*
D03*
X78740Y22733D02*
D03*
X77678Y21671D02*
D03*
X76454Y20320D02*
D03*
X81407Y20955D02*
D03*
X52705Y11049D02*
D03*
X52832Y9017D02*
D03*
Y7112D02*
D03*
Y5080D02*
D03*
X71247Y22860D02*
D03*
X77724Y20193D02*
D03*
X58928Y29337D02*
D03*
X59690Y16129D02*
D03*
X65405Y21082D02*
D03*
X49403Y52705D02*
D03*
X59817Y46609D02*
D03*
X73406Y55372D02*
D03*
X97155Y6096D02*
D03*
D89*
X35449Y38787D02*
D03*
D90*
Y39437D02*
D03*
Y40087D02*
D03*
Y40737D02*
D03*
Y41387D02*
D03*
Y42037D02*
D03*
Y42687D02*
D03*
Y43337D02*
D03*
Y43987D02*
D03*
Y44637D02*
D03*
X42799Y38787D02*
D03*
Y39437D02*
D03*
Y40087D02*
D03*
Y40737D02*
D03*
Y41387D02*
D03*
Y42037D02*
D03*
Y42687D02*
D03*
Y43337D02*
D03*
Y43987D02*
D03*
Y44637D02*
D03*
D91*
X41656Y37084D02*
D03*
Y36449D02*
D03*
Y35814D02*
D03*
Y35179D02*
D03*
Y34544D02*
D03*
Y33909D02*
D03*
Y33274D02*
D03*
Y32639D02*
D03*
X36656Y37084D02*
D03*
Y36449D02*
D03*
Y35814D02*
D03*
Y35179D02*
D03*
Y34544D02*
D03*
Y33909D02*
D03*
Y33274D02*
D03*
D92*
Y32639D02*
D03*
M02*
