%FSLAX23Y23*%
%MOIN*%
G70*
G01*
G75*
G04 Layer_Color=16711935*
%ADD10R,0.037X0.035*%
%ADD11R,0.037X0.035*%
%ADD12R,0.050X0.050*%
%ADD13R,0.075X0.063*%
%ADD14R,0.070X0.135*%
%ADD15R,0.094X0.130*%
%ADD16O,0.028X0.018*%
%ADD17R,0.067X0.067*%
%ADD18R,0.079X0.209*%
%ADD19R,0.067X0.014*%
%ADD20R,0.050X0.015*%
%ADD21R,0.039X0.059*%
%ADD22R,0.035X0.053*%
%ADD23R,0.053X0.053*%
%ADD24O,0.087X0.024*%
%ADD25R,0.050X0.050*%
%ADD26R,0.135X0.070*%
%ADD27R,0.030X0.125*%
%ADD28R,0.078X0.048*%
%ADD29R,0.067X0.040*%
%ADD30R,0.065X0.012*%
%ADD31R,0.065X0.024*%
%ADD32R,0.063X0.106*%
%ADD33R,0.150X0.110*%
%ADD34R,0.125X0.170*%
%ADD35R,0.110X0.030*%
%ADD36O,0.083X0.012*%
%ADD37O,0.012X0.083*%
%ADD38R,0.138X0.085*%
%ADD39R,0.043X0.085*%
%ADD40R,0.043X0.085*%
%ADD41R,0.047X0.055*%
%ADD42O,0.012X0.071*%
%ADD43O,0.071X0.012*%
%ADD44R,0.075X0.059*%
%ADD45R,0.017X0.017*%
%ADD46R,0.134X0.134*%
%ADD47O,0.010X0.035*%
%ADD48O,0.035X0.010*%
%ADD49C,0.010*%
%ADD50C,0.075*%
%ADD51C,0.020*%
%ADD52C,0.040*%
%ADD53C,0.007*%
%ADD54C,0.005*%
%ADD55C,0.012*%
%ADD56C,0.008*%
%ADD57C,0.012*%
%ADD58C,0.012*%
%ADD59C,0.059*%
%ADD60C,0.080*%
%ADD61R,0.080X0.080*%
%ADD62C,0.060*%
%ADD63C,0.020*%
%ADD64R,0.059X0.059*%
%ADD65C,0.157*%
%ADD66C,0.079*%
%ADD67C,0.087*%
%ADD68R,0.087X0.087*%
%ADD69C,0.250*%
%ADD70R,0.062X0.062*%
%ADD71C,0.062*%
%ADD72C,0.030*%
%ADD73C,0.024*%
%ADD74C,0.028*%
%ADD75C,0.050*%
%ADD76C,0.051*%
G04:AMPARAMS|DCode=77|XSize=100mil|YSize=100mil|CornerRadius=0mil|HoleSize=0mil|Usage=FLASHONLY|Rotation=0.000|XOffset=0mil|YOffset=0mil|HoleType=Round|Shape=Relief|Width=10mil|Gap=10mil|Entries=4|*
%AMTHD77*
7,0,0,0.100,0.080,0.010,45*
%
%ADD77THD77*%
%ADD78C,0.044*%
%ADD79C,0.059*%
%ADD80C,0.030*%
%ADD81C,0.055*%
%ADD82C,0.111*%
%ADD83C,0.056*%
%ADD84C,0.147*%
%ADD85C,0.067*%
%ADD86C,0.140*%
%ADD87C,0.055*%
%ADD88C,0.036*%
%ADD89C,0.071*%
%ADD90C,0.130*%
%ADD91C,0.103*%
%ADD92C,0.033*%
G04:AMPARAMS|DCode=93|XSize=70mil|YSize=70mil|CornerRadius=0mil|HoleSize=0mil|Usage=FLASHONLY|Rotation=0.000|XOffset=0mil|YOffset=0mil|HoleType=Round|Shape=Relief|Width=10mil|Gap=10mil|Entries=4|*
%AMTHD93*
7,0,0,0.070,0.050,0.010,45*
%
%ADD93THD93*%
%ADD94C,0.045*%
G04:AMPARAMS|DCode=95|XSize=90mil|YSize=90mil|CornerRadius=0mil|HoleSize=0mil|Usage=FLASHONLY|Rotation=0.000|XOffset=0mil|YOffset=0mil|HoleType=Round|Shape=Relief|Width=10mil|Gap=10mil|Entries=4|*
%AMTHD95*
7,0,0,0.090,0.070,0.010,45*
%
%ADD95THD95*%
G04:AMPARAMS|DCode=96|XSize=95.433mil|YSize=95.433mil|CornerRadius=0mil|HoleSize=0mil|Usage=FLASHONLY|Rotation=0.000|XOffset=0mil|YOffset=0mil|HoleType=Round|Shape=Relief|Width=10mil|Gap=10mil|Entries=4|*
%AMTHD96*
7,0,0,0.095,0.075,0.010,45*
%
%ADD96THD96*%
G04:AMPARAMS|DCode=97|XSize=150.551mil|YSize=150.551mil|CornerRadius=0mil|HoleSize=0mil|Usage=FLASHONLY|Rotation=0.000|XOffset=0mil|YOffset=0mil|HoleType=Round|Shape=Relief|Width=10mil|Gap=10mil|Entries=4|*
%AMTHD97*
7,0,0,0.151,0.131,0.010,45*
%
%ADD97THD97*%
G04:AMPARAMS|DCode=98|XSize=96.221mil|YSize=96.221mil|CornerRadius=0mil|HoleSize=0mil|Usage=FLASHONLY|Rotation=0.000|XOffset=0mil|YOffset=0mil|HoleType=Round|Shape=Relief|Width=10mil|Gap=10mil|Entries=4|*
%AMTHD98*
7,0,0,0.096,0.076,0.010,45*
%
%ADD98THD98*%
G04:AMPARAMS|DCode=99|XSize=107.244mil|YSize=107.244mil|CornerRadius=0mil|HoleSize=0mil|Usage=FLASHONLY|Rotation=0.000|XOffset=0mil|YOffset=0mil|HoleType=Round|Shape=Relief|Width=10mil|Gap=10mil|Entries=4|*
%AMTHD99*
7,0,0,0.107,0.087,0.010,45*
%
%ADD99THD99*%
G04:AMPARAMS|DCode=100|XSize=180mil|YSize=180mil|CornerRadius=0mil|HoleSize=0mil|Usage=FLASHONLY|Rotation=0.000|XOffset=0mil|YOffset=0mil|HoleType=Round|Shape=Relief|Width=10mil|Gap=10mil|Entries=4|*
%AMTHD100*
7,0,0,0.180,0.160,0.010,45*
%
%ADD100THD100*%
G04:AMPARAMS|DCode=101|XSize=95mil|YSize=95mil|CornerRadius=0mil|HoleSize=0mil|Usage=FLASHONLY|Rotation=0.000|XOffset=0mil|YOffset=0mil|HoleType=Round|Shape=Relief|Width=10mil|Gap=10mil|Entries=4|*
%AMTHD101*
7,0,0,0.095,0.075,0.010,45*
%
%ADD101THD101*%
G04:AMPARAMS|DCode=102|XSize=75.748mil|YSize=75.748mil|CornerRadius=0mil|HoleSize=0mil|Usage=FLASHONLY|Rotation=0.000|XOffset=0mil|YOffset=0mil|HoleType=Round|Shape=Relief|Width=10mil|Gap=10mil|Entries=4|*
%AMTHD102*
7,0,0,0.076,0.056,0.010,45*
%
%ADD102THD102*%
G04:AMPARAMS|DCode=103|XSize=111.181mil|YSize=111.181mil|CornerRadius=0mil|HoleSize=0mil|Usage=FLASHONLY|Rotation=0.000|XOffset=0mil|YOffset=0mil|HoleType=Round|Shape=Relief|Width=10mil|Gap=10mil|Entries=4|*
%AMTHD103*
7,0,0,0.111,0.091,0.010,45*
%
%ADD103THD103*%
G04:AMPARAMS|DCode=104|XSize=73mil|YSize=73mil|CornerRadius=0mil|HoleSize=0mil|Usage=FLASHONLY|Rotation=0.000|XOffset=0mil|YOffset=0mil|HoleType=Round|Shape=Relief|Width=10mil|Gap=10mil|Entries=4|*
%AMTHD104*
7,0,0,0.073,0.053,0.010,45*
%
%ADD104THD104*%
G04:AMPARAMS|DCode=105|XSize=85mil|YSize=85mil|CornerRadius=0mil|HoleSize=0mil|Usage=FLASHONLY|Rotation=0.000|XOffset=0mil|YOffset=0mil|HoleType=Round|Shape=Relief|Width=10mil|Gap=10mil|Entries=4|*
%AMTHD105*
7,0,0,0.085,0.065,0.010,45*
%
%ADD105THD105*%
%ADD106O,0.091X0.028*%
%ADD107R,0.048X0.078*%
%ADD108R,0.200X0.040*%
%ADD109R,0.200X0.150*%
%ADD110R,0.106X0.150*%
%ADD111R,0.098X0.268*%
%ADD112R,0.035X0.037*%
%ADD113R,0.035X0.037*%
%ADD114C,0.010*%
%ADD115C,0.010*%
%ADD116C,0.020*%
%ADD117C,0.008*%
%ADD118C,0.024*%
%ADD119C,0.012*%
%ADD120C,0.012*%
%ADD121C,0.007*%
%ADD122R,0.280X0.130*%
%ADD123R,0.041X0.039*%
%ADD124R,0.041X0.039*%
%ADD125R,0.054X0.054*%
%ADD126R,0.079X0.067*%
%ADD127R,0.074X0.139*%
%ADD128R,0.098X0.134*%
%ADD129O,0.032X0.022*%
%ADD130R,0.071X0.071*%
%ADD131R,0.083X0.213*%
%ADD132R,0.071X0.018*%
%ADD133R,0.054X0.019*%
%ADD134R,0.043X0.063*%
%ADD135R,0.039X0.057*%
%ADD136R,0.057X0.057*%
%ADD137O,0.091X0.028*%
%ADD138R,0.054X0.054*%
%ADD139R,0.139X0.074*%
%ADD140R,0.034X0.129*%
%ADD141R,0.082X0.052*%
%ADD142R,0.071X0.044*%
%ADD143R,0.069X0.016*%
%ADD144R,0.069X0.028*%
%ADD145R,0.067X0.110*%
%ADD146R,0.154X0.114*%
%ADD147R,0.129X0.174*%
%ADD148R,0.114X0.034*%
%ADD149O,0.087X0.016*%
%ADD150O,0.016X0.087*%
%ADD151R,0.142X0.089*%
%ADD152R,0.047X0.089*%
%ADD153R,0.047X0.089*%
%ADD154R,0.051X0.059*%
%ADD155O,0.016X0.075*%
%ADD156O,0.075X0.016*%
%ADD157R,0.079X0.063*%
%ADD158R,0.021X0.021*%
%ADD159R,0.138X0.138*%
%ADD160O,0.014X0.039*%
%ADD161O,0.039X0.014*%
%ADD162C,0.063*%
%ADD163C,0.084*%
%ADD164R,0.084X0.084*%
%ADD165C,0.004*%
%ADD166C,0.064*%
%ADD167R,0.063X0.063*%
%ADD168C,0.161*%
%ADD169C,0.083*%
%ADD170R,0.004X0.004*%
%ADD171C,0.091*%
%ADD172R,0.091X0.091*%
%ADD173C,0.254*%
%ADD174R,0.066X0.066*%
%ADD175C,0.066*%
%ADD176C,0.034*%
%ADD177C,0.032*%
%ADD178C,0.054*%
%ADD179O,0.095X0.032*%
%ADD180R,0.052X0.082*%
%ADD181R,0.204X0.044*%
%ADD182R,0.204X0.154*%
%ADD183R,0.110X0.154*%
%ADD184R,0.102X0.272*%
%ADD185R,0.039X0.041*%
%ADD186R,0.039X0.041*%
D55*
X20279Y9600D02*
Y9555D01*
X20260Y9589D02*
X20298Y9566D01*
Y9589D02*
X20260Y9566D01*
X20318Y9528D02*
X20315Y9524D01*
X20318Y9520D01*
X20322Y9524D01*
X20318Y9528D01*
X20397Y9581D02*
X20393Y9589D01*
X20385Y9597D01*
X20378Y9600D01*
X20363D01*
X20355Y9597D01*
X20347Y9589D01*
X20344Y9581D01*
X20340Y9570D01*
Y9551D01*
X20344Y9540D01*
X20347Y9532D01*
X20355Y9524D01*
X20363Y9520D01*
X20378D01*
X20385Y9524D01*
X20393Y9532D01*
X20397Y9540D01*
Y9551D01*
X20378D02*
X20397D01*
X20415Y9600D02*
Y9520D01*
Y9600D02*
X20449D01*
X20461Y9597D01*
X20465Y9593D01*
X20468Y9585D01*
Y9578D01*
X20465Y9570D01*
X20461Y9566D01*
X20449Y9562D01*
X20415D02*
X20449D01*
X20461Y9559D01*
X20465Y9555D01*
X20468Y9547D01*
Y9536D01*
X20465Y9528D01*
X20461Y9524D01*
X20449Y9520D01*
X20415D01*
X20540Y9589D02*
X20532Y9597D01*
X20521Y9600D01*
X20505D01*
X20494Y9597D01*
X20486Y9589D01*
Y9581D01*
X20490Y9574D01*
X20494Y9570D01*
X20502Y9566D01*
X20524Y9559D01*
X20532Y9555D01*
X20536Y9551D01*
X20540Y9543D01*
Y9532D01*
X20532Y9524D01*
X20521Y9520D01*
X20505D01*
X20494Y9524D01*
X20486Y9532D01*
X20620Y9555D02*
X20689D01*
X20775Y9600D02*
Y9520D01*
Y9600D02*
X20810D01*
X20821Y9597D01*
X20825Y9593D01*
X20829Y9585D01*
Y9578D01*
X20825Y9570D01*
X20821Y9566D01*
X20810Y9562D01*
X20775D02*
X20810D01*
X20821Y9559D01*
X20825Y9555D01*
X20829Y9547D01*
Y9536D01*
X20825Y9528D01*
X20821Y9524D01*
X20810Y9520D01*
X20775D01*
X20869Y9600D02*
X20862Y9597D01*
X20854Y9589D01*
X20850Y9581D01*
X20847Y9570D01*
Y9551D01*
X20850Y9540D01*
X20854Y9532D01*
X20862Y9524D01*
X20869Y9520D01*
X20885D01*
X20892Y9524D01*
X20900Y9532D01*
X20904Y9540D01*
X20908Y9551D01*
Y9570D01*
X20904Y9581D01*
X20900Y9589D01*
X20892Y9597D01*
X20885Y9600D01*
X20869D01*
X20953D02*
Y9520D01*
X20926Y9600D02*
X20980D01*
X21016D02*
Y9520D01*
X20989Y9600D02*
X21042D01*
X21075D02*
X21067Y9597D01*
X21060Y9589D01*
X21056Y9581D01*
X21052Y9570D01*
Y9551D01*
X21056Y9540D01*
X21060Y9532D01*
X21067Y9524D01*
X21075Y9520D01*
X21090D01*
X21098Y9524D01*
X21105Y9532D01*
X21109Y9540D01*
X21113Y9551D01*
Y9570D01*
X21109Y9581D01*
X21105Y9589D01*
X21098Y9597D01*
X21090Y9600D01*
X21075D01*
X21132D02*
Y9520D01*
Y9600D02*
X21162Y9520D01*
X21192Y9600D02*
X21162Y9520D01*
X21192Y9600D02*
Y9520D01*
X21331Y9589D02*
X21324Y9597D01*
X21312Y9600D01*
X21297D01*
X21286Y9597D01*
X21278Y9589D01*
Y9581D01*
X21282Y9574D01*
X21286Y9570D01*
X21293Y9566D01*
X21316Y9559D01*
X21324Y9555D01*
X21328Y9551D01*
X21331Y9543D01*
Y9532D01*
X21324Y9524D01*
X21312Y9520D01*
X21297D01*
X21286Y9524D01*
X21278Y9532D01*
X21372Y9600D02*
X21365Y9597D01*
X21357Y9589D01*
X21353Y9581D01*
X21349Y9570D01*
Y9551D01*
X21353Y9540D01*
X21357Y9532D01*
X21365Y9524D01*
X21372Y9520D01*
X21387D01*
X21395Y9524D01*
X21403Y9532D01*
X21407Y9540D01*
X21410Y9551D01*
Y9570D01*
X21407Y9581D01*
X21403Y9589D01*
X21395Y9597D01*
X21387Y9600D01*
X21372D01*
X21429D02*
Y9520D01*
X21475D01*
X21483Y9600D02*
Y9520D01*
Y9600D02*
X21510D01*
X21522Y9597D01*
X21529Y9589D01*
X21533Y9581D01*
X21537Y9570D01*
Y9551D01*
X21533Y9540D01*
X21529Y9532D01*
X21522Y9524D01*
X21510Y9520D01*
X21483D01*
X21604Y9600D02*
X21555D01*
Y9520D01*
X21604D01*
X21555Y9562D02*
X21585D01*
X21618Y9600D02*
Y9520D01*
Y9600D02*
X21652D01*
X21663Y9597D01*
X21667Y9593D01*
X21671Y9585D01*
Y9578D01*
X21667Y9570D01*
X21663Y9566D01*
X21652Y9562D01*
X21618D01*
X21644D02*
X21671Y9520D01*
X21752Y9600D02*
Y9520D01*
Y9600D02*
X21782Y9520D01*
X21813Y9600D02*
X21782Y9520D01*
X21813Y9600D02*
Y9520D01*
X21896D02*
X21866Y9600D01*
X21835Y9520D01*
X21847Y9547D02*
X21885D01*
X21968Y9589D02*
X21961Y9597D01*
X21949Y9600D01*
X21934D01*
X21923Y9597D01*
X21915Y9589D01*
Y9581D01*
X21919Y9574D01*
X21923Y9570D01*
X21930Y9566D01*
X21953Y9559D01*
X21961Y9555D01*
X21964Y9551D01*
X21968Y9543D01*
Y9532D01*
X21961Y9524D01*
X21949Y9520D01*
X21934D01*
X21923Y9524D01*
X21915Y9532D01*
X21986Y9600D02*
Y9520D01*
X22040Y9600D02*
X21986Y9547D01*
X22005Y9566D02*
X22040Y9520D01*
X22177Y9581D02*
X22174Y9589D01*
X22166Y9597D01*
X22158Y9600D01*
X22143D01*
X22136Y9597D01*
X22128Y9589D01*
X22124Y9581D01*
X22120Y9570D01*
Y9551D01*
X22124Y9540D01*
X22128Y9532D01*
X22136Y9524D01*
X22143Y9520D01*
X22158D01*
X22166Y9524D01*
X22174Y9532D01*
X22177Y9540D01*
Y9551D01*
X22158D02*
X22177D01*
X22245Y9600D02*
X22196D01*
Y9520D01*
X22245D01*
X22196Y9562D02*
X22226D01*
X22259Y9600D02*
Y9520D01*
Y9600D02*
X22293D01*
X22304Y9597D01*
X22308Y9593D01*
X22312Y9585D01*
Y9578D01*
X22308Y9570D01*
X22304Y9566D01*
X22293Y9562D01*
X22259D01*
X22285D02*
X22312Y9520D01*
X22330Y9600D02*
Y9520D01*
Y9600D02*
X22364D01*
X22375Y9597D01*
X22379Y9593D01*
X22383Y9585D01*
Y9578D01*
X22379Y9570D01*
X22375Y9566D01*
X22364Y9562D01*
X22330D02*
X22364D01*
X22375Y9559D01*
X22379Y9555D01*
X22383Y9547D01*
Y9536D01*
X22379Y9528D01*
X22375Y9524D01*
X22364Y9520D01*
X22330D01*
X22450Y9600D02*
X22401D01*
Y9520D01*
X22450D01*
X22401Y9562D02*
X22431D01*
X22464Y9600D02*
Y9520D01*
Y9600D02*
X22498D01*
X22510Y9597D01*
X22513Y9593D01*
X22517Y9585D01*
Y9578D01*
X22513Y9570D01*
X22510Y9566D01*
X22498Y9562D01*
X22464D01*
X22490D02*
X22517Y9520D01*
X22598Y9600D02*
Y9520D01*
Y9600D02*
X22625D01*
X22636Y9597D01*
X22644Y9589D01*
X22647Y9581D01*
X22651Y9570D01*
Y9551D01*
X22647Y9540D01*
X22644Y9532D01*
X22636Y9524D01*
X22625Y9520D01*
X22598D01*
X22730D02*
X22700Y9600D01*
X22669Y9520D01*
X22681Y9547D02*
X22719D01*
X22775Y9600D02*
Y9520D01*
X22749Y9600D02*
X22802D01*
X22872Y9520D02*
X22842Y9600D01*
X22812Y9520D01*
X22823Y9547D02*
X22861D01*
D56*
X24726Y15436D02*
X25226D01*
X24976Y15186D02*
Y15686D01*
X24926Y15486D02*
X24926Y15436D01*
X24926Y15486D02*
X24976Y15486D01*
X25026Y15436D02*
X25026Y15386D01*
X24976Y15386D02*
X25026Y15386D01*
X24981Y15431D02*
X25021D01*
Y15391D02*
Y15431D01*
X24981Y15391D02*
X25021D01*
X24981D02*
Y15431D01*
X24986Y15426D02*
X25016D01*
Y15396D02*
Y15426D01*
X24986Y15396D02*
X25016D01*
X24986D02*
Y15421D01*
X24991D02*
X25011D01*
X25011Y15401D01*
X24991Y15401D02*
X25011Y15401D01*
X24991Y15401D02*
Y15416D01*
X24996Y15416D02*
X25006Y15416D01*
Y15406D02*
Y15416D01*
X24996Y15406D02*
X25006D01*
X24996D02*
X24996Y15416D01*
Y15411D02*
X25006D01*
X24931Y15481D02*
X24971D01*
Y15441D02*
Y15481D01*
X24931Y15441D02*
X24971D01*
X24931D02*
Y15481D01*
X24936Y15476D02*
X24966D01*
Y15446D02*
Y15476D01*
X24936Y15446D02*
X24966D01*
X24936D02*
Y15471D01*
X24941D02*
X24961Y15471D01*
Y15451D02*
Y15471D01*
X24941Y15451D02*
X24961D01*
X24941D02*
Y15466D01*
X24946D02*
X24956D01*
X24956Y15456D02*
X24956Y15466D01*
X24946Y15456D02*
X24956Y15456D01*
X24946Y15456D02*
Y15466D01*
Y15461D02*
X24956D01*
X18250Y15444D02*
X18750D01*
X18500Y15194D02*
Y15694D01*
X18450Y15494D02*
X18450Y15444D01*
X18450Y15494D02*
X18500Y15494D01*
X18550Y15444D02*
X18550Y15394D01*
X18500Y15394D02*
X18550Y15394D01*
X18505Y15439D02*
X18545D01*
Y15399D02*
Y15439D01*
X18505Y15399D02*
X18545D01*
X18505D02*
Y15439D01*
X18510Y15434D02*
X18540D01*
Y15404D02*
Y15434D01*
X18510Y15404D02*
X18540D01*
X18510D02*
Y15429D01*
X18515D02*
X18535D01*
X18535Y15409D01*
X18515Y15409D02*
X18535Y15409D01*
X18515Y15409D02*
Y15424D01*
X18520Y15424D02*
X18530Y15424D01*
Y15414D02*
Y15424D01*
X18520Y15414D02*
X18530D01*
X18520D02*
X18520Y15424D01*
Y15419D02*
X18530D01*
X18455Y15489D02*
X18495D01*
Y15449D02*
Y15489D01*
X18455Y15449D02*
X18495D01*
X18455D02*
Y15489D01*
X18460Y15484D02*
X18490D01*
Y15454D02*
Y15484D01*
X18460Y15454D02*
X18490D01*
X18460D02*
Y15479D01*
X18465D02*
X18485Y15479D01*
Y15459D02*
Y15479D01*
X18465Y15459D02*
X18485D01*
X18465D02*
Y15474D01*
X18470D02*
X18480D01*
X18480Y15464D02*
X18480Y15474D01*
X18470Y15464D02*
X18480Y15464D01*
X18470Y15464D02*
Y15474D01*
Y15469D02*
X18480D01*
X18407Y9927D02*
X18907D01*
X18657Y9677D02*
Y10177D01*
X18607Y9977D02*
X18607Y9927D01*
X18607Y9977D02*
X18657Y9977D01*
X18707Y9927D02*
X18707Y9877D01*
X18657Y9877D02*
X18707Y9877D01*
X18662Y9922D02*
X18702D01*
Y9882D02*
Y9922D01*
X18662Y9882D02*
X18702D01*
X18662D02*
Y9922D01*
X18667Y9917D02*
X18697D01*
Y9887D02*
Y9917D01*
X18667Y9887D02*
X18697D01*
X18667D02*
Y9912D01*
X18672D02*
X18692D01*
X18692Y9892D01*
X18672Y9892D02*
X18692Y9892D01*
X18672Y9892D02*
Y9907D01*
X18677Y9907D02*
X18687Y9907D01*
Y9897D02*
Y9907D01*
X18677Y9897D02*
X18687D01*
X18677D02*
X18677Y9907D01*
Y9902D02*
X18687D01*
X18612Y9972D02*
X18652D01*
Y9932D02*
Y9972D01*
X18612Y9932D02*
X18652D01*
X18612D02*
Y9972D01*
X18617Y9967D02*
X18647D01*
Y9937D02*
Y9967D01*
X18617Y9937D02*
X18647D01*
X18617D02*
Y9962D01*
X18622D02*
X18642Y9962D01*
Y9942D02*
Y9962D01*
X18622Y9942D02*
X18642D01*
X18622D02*
Y9957D01*
X18627D02*
X18637D01*
X18637Y9947D02*
X18637Y9957D01*
X18627Y9947D02*
X18637Y9947D01*
X18627Y9947D02*
Y9957D01*
Y9952D02*
X18637D01*
D57*
X20532Y9948D02*
Y9868D01*
X20578D01*
X20648D02*
X20617Y9948D01*
X20587Y9868D01*
X20598Y9895D02*
X20636D01*
X20720Y9937D02*
X20712Y9944D01*
X20700Y9948D01*
X20685D01*
X20674Y9944D01*
X20666Y9937D01*
Y9929D01*
X20670Y9921D01*
X20674Y9918D01*
X20681Y9914D01*
X20704Y9906D01*
X20712Y9902D01*
X20716Y9899D01*
X20720Y9891D01*
Y9879D01*
X20712Y9872D01*
X20700Y9868D01*
X20685D01*
X20674Y9872D01*
X20666Y9879D01*
X20857Y9929D02*
X20854Y9937D01*
X20846Y9944D01*
X20838Y9948D01*
X20823D01*
X20816Y9944D01*
X20808Y9937D01*
X20804Y9929D01*
X20800Y9918D01*
Y9899D01*
X20804Y9887D01*
X20808Y9879D01*
X20816Y9872D01*
X20823Y9868D01*
X20838D01*
X20846Y9872D01*
X20854Y9879D01*
X20857Y9887D01*
X20880Y9948D02*
Y9891D01*
X20884Y9879D01*
X20891Y9872D01*
X20903Y9868D01*
X20910D01*
X20922Y9872D01*
X20929Y9879D01*
X20933Y9891D01*
Y9948D01*
X20955D02*
Y9868D01*
Y9948D02*
X20986Y9868D01*
X21016Y9948D02*
X20986Y9868D01*
X21016Y9948D02*
Y9868D01*
X21039Y9948D02*
Y9868D01*
Y9948D02*
X21073D01*
X21085Y9944D01*
X21089Y9940D01*
X21092Y9933D01*
Y9925D01*
X21089Y9918D01*
X21085Y9914D01*
X21073Y9910D01*
X21039D02*
X21073D01*
X21085Y9906D01*
X21089Y9902D01*
X21092Y9895D01*
Y9883D01*
X21089Y9876D01*
X21085Y9872D01*
X21073Y9868D01*
X21039D01*
X21110Y9948D02*
Y9868D01*
Y9948D02*
X21145D01*
X21156Y9944D01*
X21160Y9940D01*
X21164Y9933D01*
Y9925D01*
X21160Y9918D01*
X21156Y9914D01*
X21145Y9910D01*
X21110D01*
X21137D02*
X21164Y9868D01*
X21231Y9948D02*
X21182D01*
Y9868D01*
X21231D01*
X21182Y9910D02*
X21212D01*
X21298Y9937D02*
X21290Y9944D01*
X21279Y9948D01*
X21263D01*
X21252Y9944D01*
X21244Y9937D01*
Y9929D01*
X21248Y9921D01*
X21252Y9918D01*
X21260Y9914D01*
X21282Y9906D01*
X21290Y9902D01*
X21294Y9899D01*
X21298Y9891D01*
Y9879D01*
X21290Y9872D01*
X21279Y9868D01*
X21263D01*
X21252Y9872D01*
X21244Y9879D01*
X21401Y9948D02*
X21394Y9944D01*
X21386Y9937D01*
X21382Y9929D01*
X21378Y9918D01*
Y9899D01*
X21382Y9887D01*
X21386Y9879D01*
X21394Y9872D01*
X21401Y9868D01*
X21417D01*
X21424Y9872D01*
X21432Y9879D01*
X21436Y9887D01*
X21439Y9899D01*
Y9918D01*
X21436Y9929D01*
X21432Y9937D01*
X21424Y9944D01*
X21417Y9948D01*
X21401D01*
X21458D02*
Y9868D01*
Y9948D02*
X21492D01*
X21504Y9944D01*
X21508Y9940D01*
X21511Y9933D01*
Y9925D01*
X21508Y9918D01*
X21504Y9914D01*
X21492Y9910D01*
X21458D02*
X21492D01*
X21504Y9906D01*
X21508Y9902D01*
X21511Y9895D01*
Y9883D01*
X21508Y9876D01*
X21504Y9872D01*
X21492Y9868D01*
X21458D01*
X21583Y9937D02*
X21575Y9944D01*
X21564Y9948D01*
X21548D01*
X21537Y9944D01*
X21529Y9937D01*
Y9929D01*
X21533Y9921D01*
X21537Y9918D01*
X21544Y9914D01*
X21567Y9906D01*
X21575Y9902D01*
X21579Y9899D01*
X21583Y9891D01*
Y9879D01*
X21575Y9872D01*
X21564Y9868D01*
X21548D01*
X21537Y9872D01*
X21529Y9879D01*
X21650Y9948D02*
X21600D01*
Y9868D01*
X21650D01*
X21600Y9910D02*
X21631D01*
X21663Y9948D02*
Y9868D01*
Y9948D02*
X21698D01*
X21709Y9944D01*
X21713Y9940D01*
X21717Y9933D01*
Y9925D01*
X21713Y9918D01*
X21709Y9914D01*
X21698Y9910D01*
X21663D01*
X21690D02*
X21717Y9868D01*
X21735Y9948D02*
X21765Y9868D01*
X21795Y9948D02*
X21765Y9868D01*
X21867D02*
X21836Y9948D01*
X21806Y9868D01*
X21817Y9895D02*
X21855D01*
X21912Y9948D02*
Y9868D01*
X21885Y9948D02*
X21939D01*
X21971D02*
X21963Y9944D01*
X21956Y9937D01*
X21952Y9929D01*
X21948Y9918D01*
Y9899D01*
X21952Y9887D01*
X21956Y9879D01*
X21963Y9872D01*
X21971Y9868D01*
X21986D01*
X21994Y9872D01*
X22002Y9879D01*
X22005Y9887D01*
X22009Y9899D01*
Y9918D01*
X22005Y9929D01*
X22002Y9937D01*
X21994Y9944D01*
X21986Y9948D01*
X21971D01*
X22028D02*
Y9868D01*
Y9948D02*
X22062D01*
X22074Y9944D01*
X22077Y9940D01*
X22081Y9933D01*
Y9925D01*
X22077Y9918D01*
X22074Y9914D01*
X22062Y9910D01*
X22028D01*
X22054D02*
X22081Y9868D01*
X22099Y9948D02*
X22130Y9910D01*
Y9868D01*
X22160Y9948D02*
X22130Y9910D01*
X22530Y9937D02*
X22526Y9944D01*
X22515Y9948D01*
X22507D01*
X22496Y9944D01*
X22488Y9933D01*
X22484Y9914D01*
Y9895D01*
X22488Y9879D01*
X22496Y9872D01*
X22507Y9868D01*
X22511D01*
X22523Y9872D01*
X22530Y9879D01*
X22534Y9891D01*
Y9895D01*
X22530Y9906D01*
X22523Y9914D01*
X22511Y9918D01*
X22507D01*
X22496Y9914D01*
X22488Y9906D01*
X22484Y9895D01*
X22552Y9857D02*
X22605Y9948D01*
X22610Y9933D02*
X22618Y9937D01*
X22629Y9948D01*
Y9868D01*
X22707Y9948D02*
X22669Y9895D01*
X22726D01*
X22707Y9948D02*
Y9868D01*
X22740Y9857D02*
X22793Y9948D01*
X22803Y9929D02*
Y9933D01*
X22806Y9940D01*
X22810Y9944D01*
X22818Y9948D01*
X22833D01*
X22841Y9944D01*
X22844Y9940D01*
X22848Y9933D01*
Y9925D01*
X22844Y9918D01*
X22837Y9906D01*
X22799Y9868D01*
X22852D01*
X22893Y9948D02*
X22881Y9944D01*
X22874Y9933D01*
X22870Y9914D01*
Y9902D01*
X22874Y9883D01*
X22881Y9872D01*
X22893Y9868D01*
X22900D01*
X22912Y9872D01*
X22919Y9883D01*
X22923Y9902D01*
Y9914D01*
X22919Y9933D01*
X22912Y9944D01*
X22900Y9948D01*
X22893D01*
X22941Y9933D02*
X22949Y9937D01*
X22960Y9948D01*
Y9868D01*
X23023Y9948D02*
X23011Y9944D01*
X23004Y9933D01*
X23000Y9914D01*
Y9902D01*
X23004Y9883D01*
X23011Y9872D01*
X23023Y9868D01*
X23030D01*
X23042Y9872D01*
X23049Y9883D01*
X23053Y9902D01*
Y9914D01*
X23049Y9933D01*
X23042Y9944D01*
X23030Y9948D01*
X23023D01*
D58*
X20532Y10083D02*
X20540Y10087D01*
X20551Y10098D01*
Y10018D01*
X20644Y10098D02*
X20606Y10018D01*
X20591Y10098D02*
X20644D01*
X20708D02*
X20670D01*
X20666Y10064D01*
X20670Y10068D01*
X20681Y10071D01*
X20692D01*
X20704Y10068D01*
X20712Y10060D01*
X20715Y10049D01*
Y10041D01*
X20712Y10029D01*
X20704Y10022D01*
X20692Y10018D01*
X20681D01*
X20670Y10022D01*
X20666Y10026D01*
X20662Y10033D01*
X20733Y10052D02*
X20802D01*
X20848Y10098D02*
X20837Y10094D01*
X20829Y10083D01*
X20825Y10064D01*
Y10052D01*
X20829Y10033D01*
X20837Y10022D01*
X20848Y10018D01*
X20856D01*
X20867Y10022D01*
X20875Y10033D01*
X20879Y10052D01*
Y10064D01*
X20875Y10083D01*
X20867Y10094D01*
X20856Y10098D01*
X20848D01*
X20919D02*
X20908Y10094D01*
X20900Y10083D01*
X20897Y10064D01*
Y10052D01*
X20900Y10033D01*
X20908Y10022D01*
X20919Y10018D01*
X20927D01*
X20939Y10022D01*
X20946Y10033D01*
X20950Y10052D01*
Y10064D01*
X20946Y10083D01*
X20939Y10094D01*
X20927Y10098D01*
X20919D01*
X20991D02*
X20979Y10094D01*
X20972Y10083D01*
X20968Y10064D01*
Y10052D01*
X20972Y10033D01*
X20979Y10022D01*
X20991Y10018D01*
X20998D01*
X21010Y10022D01*
X21017Y10033D01*
X21021Y10052D01*
Y10064D01*
X21017Y10083D01*
X21010Y10094D01*
X20998Y10098D01*
X20991D01*
X21062D02*
X21050Y10094D01*
X21043Y10083D01*
X21039Y10064D01*
Y10052D01*
X21043Y10033D01*
X21050Y10022D01*
X21062Y10018D01*
X21070D01*
X21081Y10022D01*
X21089Y10033D01*
X21092Y10052D01*
Y10064D01*
X21089Y10083D01*
X21081Y10094D01*
X21070Y10098D01*
X21062D01*
X21156Y10087D02*
X21152Y10094D01*
X21141Y10098D01*
X21133D01*
X21122Y10094D01*
X21114Y10083D01*
X21110Y10064D01*
Y10045D01*
X21114Y10029D01*
X21122Y10022D01*
X21133Y10018D01*
X21137D01*
X21148Y10022D01*
X21156Y10029D01*
X21160Y10041D01*
Y10045D01*
X21156Y10056D01*
X21148Y10064D01*
X21137Y10068D01*
X21133D01*
X21122Y10064D01*
X21114Y10056D01*
X21110Y10045D01*
X21185Y10022D02*
X21181Y10018D01*
X21177Y10022D01*
X21181Y10026D01*
X21185Y10022D01*
Y10014D01*
X21181Y10007D01*
X21177Y10003D01*
X21265Y10098D02*
Y10018D01*
X21311D01*
X21381D02*
X21350Y10098D01*
X21320Y10018D01*
X21331Y10045D02*
X21369D01*
X21399Y10098D02*
Y10018D01*
Y10098D02*
X21430Y10018D01*
X21460Y10098D02*
X21430Y10018D01*
X21460Y10098D02*
Y10018D01*
X21483Y10098D02*
Y10018D01*
Y10098D02*
X21517D01*
X21529Y10094D01*
X21533Y10090D01*
X21536Y10083D01*
Y10075D01*
X21533Y10068D01*
X21529Y10064D01*
X21517Y10060D01*
X21483D02*
X21517D01*
X21529Y10056D01*
X21533Y10052D01*
X21536Y10045D01*
Y10033D01*
X21533Y10026D01*
X21529Y10022D01*
X21517Y10018D01*
X21483D01*
X21604Y10098D02*
X21554D01*
Y10018D01*
X21604D01*
X21554Y10060D02*
X21585D01*
X21617Y10098D02*
Y10018D01*
Y10098D02*
X21652D01*
X21663Y10094D01*
X21667Y10090D01*
X21671Y10083D01*
Y10075D01*
X21667Y10068D01*
X21663Y10064D01*
X21652Y10060D01*
X21617D01*
X21644D02*
X21671Y10018D01*
X21715Y10098D02*
Y10018D01*
X21688Y10098D02*
X21742D01*
X21871Y10079D02*
X21867Y10087D01*
X21860Y10094D01*
X21852Y10098D01*
X21837D01*
X21829Y10094D01*
X21822Y10087D01*
X21818Y10079D01*
X21814Y10068D01*
Y10049D01*
X21818Y10037D01*
X21822Y10029D01*
X21829Y10022D01*
X21837Y10018D01*
X21852D01*
X21860Y10022D01*
X21867Y10029D01*
X21871Y10037D01*
X21917Y10098D02*
X21909Y10094D01*
X21901Y10087D01*
X21898Y10079D01*
X21894Y10068D01*
Y10049D01*
X21898Y10037D01*
X21901Y10029D01*
X21909Y10022D01*
X21917Y10018D01*
X21932D01*
X21939Y10022D01*
X21947Y10029D01*
X21951Y10037D01*
X21955Y10049D01*
Y10068D01*
X21951Y10079D01*
X21947Y10087D01*
X21939Y10094D01*
X21932Y10098D01*
X21917D01*
X21973D02*
Y10018D01*
Y10098D02*
X22027Y10018D01*
Y10098D02*
Y10018D01*
X22075Y10098D02*
Y10018D01*
X22049Y10098D02*
X22102D01*
X22112D02*
Y10018D01*
Y10098D02*
X22146D01*
X22157Y10094D01*
X22161Y10090D01*
X22165Y10083D01*
Y10075D01*
X22161Y10068D01*
X22157Y10064D01*
X22146Y10060D01*
X22112D01*
X22138D02*
X22165Y10018D01*
X22206Y10098D02*
X22198Y10094D01*
X22190Y10087D01*
X22187Y10079D01*
X22183Y10068D01*
Y10049D01*
X22187Y10037D01*
X22190Y10029D01*
X22198Y10022D01*
X22206Y10018D01*
X22221D01*
X22229Y10022D01*
X22236Y10029D01*
X22240Y10037D01*
X22244Y10049D01*
Y10068D01*
X22240Y10079D01*
X22236Y10087D01*
X22229Y10094D01*
X22221Y10098D01*
X22206D01*
X22262D02*
Y10018D01*
X22308D01*
X22317Y10098D02*
Y10018D01*
X22363D01*
X22421Y10098D02*
X22371D01*
Y10018D01*
X22421D01*
X22371Y10060D02*
X22402D01*
X22434Y10098D02*
Y10018D01*
Y10098D02*
X22468D01*
X22480Y10094D01*
X22484Y10090D01*
X22488Y10083D01*
Y10075D01*
X22484Y10068D01*
X22480Y10064D01*
X22468Y10060D01*
X22434D01*
X22461D02*
X22488Y10018D01*
X22513Y10022D02*
X22509Y10018D01*
X22505Y10022D01*
X22509Y10026D01*
X22513Y10022D01*
Y10014D01*
X22509Y10007D01*
X22505Y10003D01*
X22616Y10098D02*
X22605Y10094D01*
X22597Y10083D01*
X22593Y10064D01*
Y10052D01*
X22597Y10033D01*
X22605Y10022D01*
X22616Y10018D01*
X22624D01*
X22635Y10022D01*
X22643Y10033D01*
X22647Y10052D01*
Y10064D01*
X22643Y10083D01*
X22635Y10094D01*
X22624Y10098D01*
X22616D01*
X22668Y10026D02*
X22665Y10022D01*
X22668Y10018D01*
X22672Y10022D01*
X22668Y10026D01*
X22728Y10098D02*
X22690Y10045D01*
X22747D01*
X22728Y10098D02*
Y10018D01*
X22761Y10071D02*
Y10018D01*
Y10056D02*
X22772Y10068D01*
X22780Y10071D01*
X22791D01*
X22799Y10068D01*
X22803Y10056D01*
Y10018D01*
Y10056D02*
X22814Y10068D01*
X22822Y10071D01*
X22833D01*
X22841Y10068D01*
X22845Y10056D01*
Y10018D01*
X22996Y10098D02*
Y10018D01*
Y10098D02*
X23030D01*
X23041Y10094D01*
X23045Y10090D01*
X23049Y10083D01*
Y10075D01*
X23045Y10068D01*
X23041Y10064D01*
X23030Y10060D01*
X22996D01*
X23022D02*
X23049Y10018D01*
X23067Y10049D02*
X23113D01*
Y10056D01*
X23109Y10064D01*
X23105Y10068D01*
X23097Y10071D01*
X23086D01*
X23078Y10068D01*
X23071Y10060D01*
X23067Y10049D01*
Y10041D01*
X23071Y10029D01*
X23078Y10022D01*
X23086Y10018D01*
X23097D01*
X23105Y10022D01*
X23113Y10029D01*
X23130Y10071D02*
X23153Y10018D01*
X23175Y10071D02*
X23153Y10018D01*
X23192Y10026D02*
X23188Y10022D01*
X23192Y10018D01*
X23196Y10022D01*
X23192Y10026D01*
X23284Y10098D02*
X23326D01*
X23303Y10068D01*
X23314D01*
X23322Y10064D01*
X23326Y10060D01*
X23330Y10049D01*
Y10041D01*
X23326Y10029D01*
X23318Y10022D01*
X23307Y10018D01*
X23295D01*
X23284Y10022D01*
X23280Y10026D01*
X23276Y10033D01*
D73*
X21425Y14490D02*
D03*
X21386D02*
D03*
X21346D02*
D03*
Y14451D02*
D03*
X21386D02*
D03*
X21425D02*
D03*
D74*
X20195Y14586D02*
D03*
X20963Y14493D02*
D03*
X21115Y14617D02*
D03*
X21314Y14910D02*
D03*
X21663Y14585D02*
D03*
X21668Y14701D02*
D03*
X21432Y14861D02*
D03*
X21609Y14973D02*
D03*
X21807Y14758D02*
D03*
X21097Y14496D02*
D03*
X21443Y14669D02*
D03*
X20959Y14996D02*
D03*
X20997Y14696D02*
D03*
X21088Y14757D02*
D03*
X20763Y14695D02*
D03*
X20876Y14168D02*
D03*
X20906Y14591D02*
D03*
X20734Y14860D02*
D03*
X20368Y14702D02*
D03*
X20502Y14765D02*
D03*
X20254Y14603D02*
D03*
X20211Y14702D02*
D03*
X20207Y14812D02*
D03*
X20278Y14969D02*
D03*
X20120Y14851D02*
D03*
X19876Y14725D02*
D03*
X22761Y13021D02*
D03*
X23514Y11953D02*
D03*
X23554Y12109D02*
D03*
X20044Y14411D02*
D03*
X20912Y13897D02*
D03*
X22577Y13186D02*
D03*
X20526Y14528D02*
D03*
X20841Y14034D02*
D03*
X20840Y13902D02*
D03*
X20597Y14326D02*
D03*
X20162Y14306D02*
D03*
X20586Y13923D02*
D03*
X20332Y13870D02*
D03*
X20295Y14339D02*
D03*
X20351Y14143D02*
D03*
X20196Y14152D02*
D03*
X20202Y14397D02*
D03*
X20351Y13947D02*
D03*
X20531Y14321D02*
D03*
X20513Y13844D02*
D03*
X20114Y14206D02*
D03*
X20073Y14437D02*
D03*
X20344Y14430D02*
D03*
X20294Y14248D02*
D03*
X20194Y14348D02*
D03*
X20034Y14308D02*
D03*
X20204Y14258D02*
D03*
X20407Y14338D02*
D03*
X20434Y14378D02*
D03*
X20275Y14034D02*
D03*
X21958Y13111D02*
D03*
X20229D02*
D03*
X22032Y11925D02*
D03*
X21765Y11896D02*
D03*
X21847Y12954D02*
D03*
X21925Y12785D02*
D03*
X21755Y12958D02*
D03*
X21790Y12632D02*
D03*
X21665Y12723D02*
D03*
X21566Y13484D02*
D03*
X21614Y12753D02*
D03*
X21611Y12793D02*
D03*
X21728Y13073D02*
D03*
X21727Y13123D02*
D03*
X21670Y13120D02*
D03*
X21244D02*
D03*
X21663Y13073D02*
D03*
X21418D02*
D03*
X20535Y13112D02*
D03*
X21457Y12994D02*
D03*
X20563Y13073D02*
D03*
X21478Y13025D02*
D03*
X21868Y12497D02*
D03*
X21889Y12448D02*
D03*
X21841Y12785D02*
D03*
X21908Y12863D02*
D03*
X21645D02*
D03*
X21872Y13828D02*
D03*
X21208Y13897D02*
D03*
X21245Y13895D02*
D03*
X20458Y11733D02*
D03*
X20431Y11888D02*
D03*
X20086Y11693D02*
D03*
X20472Y11800D02*
D03*
X20369D02*
D03*
X20346Y11633D02*
D03*
X20287Y13168D02*
D03*
X20209Y11582D02*
D03*
X19964Y11533D02*
D03*
X20491Y11583D02*
D03*
X20542Y11458D02*
D03*
X20210Y11483D02*
D03*
X22685Y13236D02*
D03*
X19593Y13498D02*
D03*
X20084Y11819D02*
D03*
X22115Y11833D02*
D03*
X19997Y11926D02*
D03*
X22092Y11855D02*
D03*
X21266Y12449D02*
D03*
Y11936D02*
D03*
X20126Y12030D02*
D03*
X21879Y11877D02*
D03*
X22114Y11879D02*
D03*
X22268Y11904D02*
D03*
X22103Y11743D02*
D03*
X22139Y11925D02*
D03*
X23389Y13042D02*
D03*
X23338Y11973D02*
D03*
X20506Y12000D02*
D03*
X21696Y11899D02*
D03*
X21697Y12016D02*
D03*
X22143Y12021D02*
D03*
X22410Y13169D02*
D03*
X22320Y12069D02*
D03*
X21054Y12017D02*
D03*
X22121Y12074D02*
D03*
X22297Y12115D02*
D03*
X23633Y12139D02*
D03*
X22073Y12097D02*
D03*
X21404Y12040D02*
D03*
X21403Y12199D02*
D03*
X21548Y12052D02*
D03*
X22133Y12121D02*
D03*
X21715Y12374D02*
D03*
Y12107D02*
D03*
X22263Y12164D02*
D03*
X21681Y12558D02*
D03*
X21682Y12209D02*
D03*
X21119Y12080D02*
D03*
X22078Y12140D02*
D03*
X21331Y12289D02*
D03*
X21330Y12175D02*
D03*
X21364Y12369D02*
D03*
X21363Y12219D02*
D03*
X22273Y12257D02*
D03*
X21392Y12407D02*
D03*
Y12259D02*
D03*
X22146Y12270D02*
D03*
X22082Y13680D02*
D03*
X22117Y12399D02*
D03*
X23039Y11943D02*
D03*
Y12229D02*
D03*
X23220Y12092D02*
D03*
Y12254D02*
D03*
X22764Y12235D02*
D03*
X23150Y11991D02*
D03*
X23148Y12212D02*
D03*
X22793Y12211D02*
D03*
X23006Y12047D02*
D03*
X22775Y12185D02*
D03*
X22547Y13540D02*
D03*
Y12022D02*
D03*
X23178Y11844D02*
D03*
X23179Y12188D02*
D03*
X22884Y12235D02*
D03*
X22888Y12093D02*
D03*
X23093Y12319D02*
D03*
Y12022D02*
D03*
X21841Y12422D02*
D03*
X20977Y12696D02*
D03*
X20930Y12628D02*
D03*
X20672Y12665D02*
D03*
X20848Y12538D02*
D03*
X20719Y12533D02*
D03*
X20675Y12506D02*
D03*
X20751Y12460D02*
D03*
X20665Y12370D02*
D03*
X20879Y12365D02*
D03*
X20825Y12226D02*
D03*
X21058Y12355D02*
D03*
X21149Y12232D02*
D03*
X21004Y12485D02*
D03*
X21136Y12524D02*
D03*
X20924Y12839D02*
D03*
X20936Y13349D02*
D03*
X21872Y13212D02*
D03*
X21864Y13311D02*
D03*
X22627Y12116D02*
D03*
X22592Y11979D02*
D03*
X22442Y12071D02*
D03*
X22356Y11984D02*
D03*
X22369Y12405D02*
D03*
X22348Y12164D02*
D03*
X22296Y12305D02*
D03*
X22039Y12164D02*
D03*
X22106Y12165D02*
D03*
X22145Y12305D02*
D03*
X21237Y14099D02*
D03*
X22448Y13357D02*
D03*
X22309Y13275D02*
D03*
X22580Y13135D02*
D03*
X22268Y13227D02*
D03*
X22359Y13053D02*
D03*
X22457Y12989D02*
D03*
X20578Y13193D02*
D03*
X20581Y13348D02*
D03*
X20583Y13524D02*
D03*
X20578Y13683D02*
D03*
X20880Y13913D02*
D03*
X21372Y13908D02*
D03*
X21558Y13683D02*
D03*
X21547Y13445D02*
D03*
X21551Y13388D02*
D03*
X21549Y13230D02*
D03*
X21565Y12928D02*
D03*
X21114Y13070D02*
D03*
X20940Y13066D02*
D03*
X20764D02*
D03*
X20898Y13508D02*
D03*
X20909Y13633D02*
D03*
X20727Y13732D02*
D03*
X21199Y13586D02*
D03*
X21307Y13613D02*
D03*
X21231Y13469D02*
D03*
X21226Y13326D02*
D03*
X21232Y13207D02*
D03*
X21157Y13240D02*
D03*
X20978Y13263D02*
D03*
X20891Y13160D02*
D03*
X20814Y13272D02*
D03*
X20803Y13063D02*
D03*
X20710Y13171D02*
D03*
X20713Y13507D02*
D03*
X20714Y13666D02*
D03*
X20860Y13771D02*
D03*
X21194Y13769D02*
D03*
X21354Y13754D02*
D03*
X21411Y13702D02*
D03*
X21419Y13467D02*
D03*
X21422Y13329D02*
D03*
X21413Y13207D02*
D03*
X21158Y13062D02*
D03*
X20978Y13082D02*
D03*
X21296Y14162D02*
D03*
X20991Y14192D02*
D03*
X21571Y14412D02*
D03*
X21521Y14217D02*
D03*
X21356Y14357D02*
D03*
X20841Y14227D02*
D03*
X23470Y14936D02*
D03*
X23620Y14791D02*
D03*
X23565Y14496D02*
D03*
X23490Y14101D02*
D03*
X23360Y14171D02*
D03*
X23340Y14281D02*
D03*
X23120Y14596D02*
D03*
X22505Y14301D02*
D03*
X23170Y14846D02*
D03*
X23225Y14606D02*
D03*
X23140Y14091D02*
D03*
X22855Y14101D02*
D03*
X22925Y14791D02*
D03*
X22565D02*
D03*
X22256Y14636D02*
D03*
X22420Y14159D02*
D03*
X22365Y14450D02*
D03*
X22502Y14624D02*
D03*
X22260Y14895D02*
D03*
X22150Y14201D02*
D03*
X21930Y14331D02*
D03*
X21920Y14221D02*
D03*
X22100Y14711D02*
D03*
X20600Y11831D02*
D03*
X20213Y11682D02*
D03*
X20777Y11515D02*
D03*
X20763Y11681D02*
D03*
X23734Y13578D02*
D03*
X21696Y12160D02*
D03*
X21702Y12464D02*
D03*
X21298Y12139D02*
D03*
Y12331D02*
D03*
X21770Y12108D02*
D03*
X21769Y12301D02*
D03*
X21687Y12107D02*
D03*
X21798Y11998D02*
D03*
X21026Y11967D02*
D03*
X22017Y12107D02*
D03*
X22016Y12476D02*
D03*
X21420Y12472D02*
D03*
X21833Y11996D02*
D03*
X21832Y12369D02*
D03*
X22009Y11998D02*
D03*
X23430Y13054D02*
D03*
X21865Y11952D02*
D03*
X21819Y11640D02*
D03*
X21852Y11903D02*
D03*
Y11542D02*
D03*
X20900Y11810D02*
D03*
X20902Y12429D02*
D03*
X20859Y11734D02*
D03*
Y12065D02*
D03*
X21897Y12305D02*
D03*
X21844Y14057D02*
D03*
X22017Y13466D02*
D03*
X22359D02*
D03*
X22278Y12603D02*
D03*
X23774Y11533D02*
D03*
X23270Y11540D02*
D03*
X23509Y12038D02*
D03*
X23299Y11743D02*
D03*
X23169Y12918D02*
D03*
X23499Y12713D02*
D03*
X23507Y12781D02*
D03*
X23309Y12798D02*
D03*
X23174Y12828D02*
D03*
X23149Y12873D02*
D03*
X23244Y12543D02*
D03*
X23129Y12833D02*
D03*
X23224Y12658D02*
D03*
X21644Y11488D02*
D03*
X20374Y11538D02*
D03*
X22714Y11618D02*
D03*
X20019Y12508D02*
D03*
X20034Y12013D02*
D03*
X20399Y12198D02*
D03*
X20389Y13158D02*
D03*
X20474Y12993D02*
D03*
X20444Y13373D02*
D03*
X20389Y13418D02*
D03*
X20464Y13663D02*
D03*
X20074Y13698D02*
D03*
X20109Y13798D02*
D03*
X20179Y13748D02*
D03*
X20119Y13903D02*
D03*
X19754Y14048D02*
D03*
X20269Y13798D02*
D03*
X21004Y13753D02*
D03*
X20949Y14443D02*
D03*
X21644Y14043D02*
D03*
X23174Y12503D02*
D03*
X21254Y12683D02*
D03*
X20764Y12818D02*
D03*
X21139Y12403D02*
D03*
X21004Y12228D02*
D03*
X20919Y12238D02*
D03*
X20664Y12118D02*
D03*
X23099Y13313D02*
D03*
X22682Y13286D02*
D03*
X22574Y13083D02*
D03*
X22409Y13378D02*
D03*
X22074Y12749D02*
D03*
X22344Y13818D02*
D03*
X21929Y13828D02*
D03*
X21939Y13913D02*
D03*
X21859Y13913D02*
D03*
X21789Y14013D02*
D03*
X23769Y14853D02*
D03*
X21200Y12733D02*
D03*
X21199Y12893D02*
D03*
X23005Y12835D02*
D03*
X23170Y13444D02*
D03*
X21120Y12824D02*
D03*
X23051Y12815D02*
D03*
X23226Y13583D02*
D03*
X20958Y12241D02*
D03*
X21090Y12826D02*
D03*
X20963D02*
D03*
X20663Y12877D02*
D03*
X20785Y12711D02*
D03*
X20632Y12737D02*
D03*
X20767Y14413D02*
D03*
X20625Y12825D02*
D03*
X20572Y13742D02*
D03*
X22252Y12890D02*
D03*
Y13036D02*
D03*
X20343Y12842D02*
D03*
X20605Y12204D02*
D03*
Y11726D02*
D03*
X20765Y12118D02*
D03*
X20816Y11817D02*
D03*
X21599Y12966D02*
D03*
X19872D02*
D03*
X24065Y13095D02*
D03*
X23924Y13188D02*
D03*
X21902Y13255D02*
D03*
X19973Y13215D02*
D03*
X22307Y13229D02*
D03*
X22866Y13790D02*
D03*
X22740Y13112D02*
D03*
X22573Y13380D02*
D03*
X22200Y13342D02*
D03*
X20740Y13583D02*
D03*
X22491Y13508D02*
D03*
X22653Y13527D02*
D03*
Y14938D02*
D03*
X22866Y14974D02*
D03*
X21436Y14079D02*
D03*
X21411Y14360D02*
D03*
X21575Y14306D02*
D03*
X20904Y14356D02*
D03*
X21124Y14465D02*
D03*
X19547Y12995D02*
D03*
X19861Y14110D02*
D03*
X20245D02*
D03*
X20244Y13572D02*
D03*
X22867Y14474D02*
D03*
X22828Y12554D02*
D03*
X22488Y12495D02*
D03*
X21799Y12555D02*
D03*
X21789Y13746D02*
D03*
X22829D02*
D03*
X21872Y13739D02*
D03*
X21595Y13746D02*
D03*
X20178Y14085D02*
D03*
X21914Y14017D02*
D03*
X22066Y13811D02*
D03*
X21944Y13999D02*
D03*
X21047Y11548D02*
D03*
X22776Y12046D02*
D03*
X22812Y12021D02*
D03*
X21021Y12626D02*
D03*
X20847Y12627D02*
D03*
X22272Y12201D02*
D03*
X22294Y12228D02*
D03*
X20070Y11783D02*
D03*
X22007Y14012D02*
D03*
D125*
X21280Y14012D02*
D03*
X21190D02*
D03*
X21279Y13943D02*
D03*
X21189D02*
D03*
X21004Y12527D02*
D03*
X21094D02*
D03*
X20931Y12674D02*
D03*
X21021D02*
D03*
X21283Y13467D02*
D03*
X21373D02*
D03*
X21283Y13327D02*
D03*
X21373D02*
D03*
X21283Y13207D02*
D03*
X21373D02*
D03*
X20893Y13107D02*
D03*
X20803D02*
D03*
X20843Y13507D02*
D03*
X20753D02*
D03*
X21211Y14312D02*
D03*
X21121D02*
D03*
X23669Y12977D02*
D03*
X23579D02*
D03*
X23669Y12916D02*
D03*
X23579D02*
D03*
D135*
X22007Y12802D02*
D03*
Y12889D02*
D03*
X22082D02*
D03*
D136*
X22074Y12802D02*
D03*
D138*
X20144Y14353D02*
D03*
Y14263D02*
D03*
X20294Y14383D02*
D03*
Y14293D02*
D03*
X21245Y12830D02*
D03*
Y12740D02*
D03*
X21119Y14017D02*
D03*
Y13927D02*
D03*
X20831Y12364D02*
D03*
Y12274D02*
D03*
X20718Y12575D02*
D03*
Y12665D02*
D03*
X21102Y12355D02*
D03*
Y12265D02*
D03*
X20708Y12460D02*
D03*
Y12370D02*
D03*
X20846Y12584D02*
D03*
Y12674D02*
D03*
X21158Y13192D02*
D03*
Y13102D02*
D03*
X20768Y13272D02*
D03*
Y13182D02*
D03*
X20978Y13212D02*
D03*
Y13122D02*
D03*
X21358Y13612D02*
D03*
Y13702D02*
D03*
X21198Y13632D02*
D03*
Y13722D02*
D03*
X20858Y13632D02*
D03*
Y13722D02*
D03*
X20778Y13732D02*
D03*
Y13642D02*
D03*
X20178Y14040D02*
D03*
Y13950D02*
D03*
X20177Y13801D02*
D03*
Y13891D02*
D03*
X22007Y13907D02*
D03*
Y13817D02*
D03*
X21930Y13872D02*
D03*
Y13962D02*
D03*
X21865Y13870D02*
D03*
Y13960D02*
D03*
X20374Y14383D02*
D03*
Y14293D02*
D03*
X20064Y14263D02*
D03*
Y14353D02*
D03*
X21789Y13907D02*
D03*
Y13817D02*
D03*
X23250Y12917D02*
D03*
Y12827D02*
D03*
X22347Y12215D02*
D03*
Y12305D02*
D03*
X22412Y12215D02*
D03*
Y12305D02*
D03*
X22592Y12024D02*
D03*
Y12114D02*
D03*
X22106Y12215D02*
D03*
Y12305D02*
D03*
X22039Y12216D02*
D03*
Y12306D02*
D03*
X23458Y12043D02*
D03*
Y11953D02*
D03*
X22407Y12495D02*
D03*
Y12405D02*
D03*
X21799Y12508D02*
D03*
Y12418D02*
D03*
X22401Y12072D02*
D03*
Y11982D02*
D03*
D141*
X21051Y14192D02*
D03*
X21161D02*
D03*
D144*
X22632Y13436D02*
D03*
Y13386D02*
D03*
Y13336D02*
D03*
Y13286D02*
D03*
Y13236D02*
D03*
Y13186D02*
D03*
Y13136D02*
D03*
Y13086D02*
D03*
X22359Y13436D02*
D03*
Y13386D02*
D03*
Y13336D02*
D03*
Y13286D02*
D03*
Y13236D02*
D03*
Y13186D02*
D03*
Y13136D02*
D03*
Y13086D02*
D03*
D151*
X21386Y14474D02*
D03*
D152*
X21295Y14230D02*
D03*
X21476D02*
D03*
D153*
X21386D02*
D03*
D162*
X20317Y14713D02*
D03*
Y14910D02*
D03*
X21620D02*
D03*
Y14713D02*
D03*
X20952Y14716D02*
D03*
Y14913D02*
D03*
X21602Y11700D02*
D03*
X21502D02*
D03*
X21602Y11800D02*
D03*
X21502D02*
D03*
X21602Y11900D02*
D03*
X21502D02*
D03*
X21602Y12000D02*
D03*
X21502D02*
D03*
X21602Y12100D02*
D03*
X21502D02*
D03*
X21602Y12200D02*
D03*
X21502D02*
D03*
X21602Y12300D02*
D03*
X21502D02*
D03*
X21602Y12400D02*
D03*
X21502D02*
D03*
X21602Y12500D02*
D03*
X21502D02*
D03*
X21602Y12600D02*
D03*
X20228Y12144D02*
D03*
X20328Y12244D02*
D03*
X20228D02*
D03*
X20328Y12344D02*
D03*
X20228D02*
D03*
X20328Y12444D02*
D03*
X20228D02*
D03*
X20328Y12544D02*
D03*
X20228D02*
D03*
X20328Y12644D02*
D03*
X20228D02*
D03*
X20328Y12744D02*
D03*
X20228D02*
D03*
D163*
X20657Y14498D02*
D03*
Y14298D02*
D03*
Y13998D02*
D03*
X20457Y14198D02*
D03*
Y14298D02*
D03*
Y14098D02*
D03*
Y13998D02*
D03*
X20657Y14098D02*
D03*
Y14198D02*
D03*
D164*
X20457Y14498D02*
D03*
D165*
X22147Y11738D02*
D03*
Y12612D02*
D03*
X22895Y11738D02*
D03*
Y12612D02*
D03*
D166*
X23518Y13676D02*
D03*
X23671Y13626D02*
D03*
X23518Y13576D02*
D03*
X23671Y13526D02*
D03*
X23518Y13476D02*
D03*
X23671Y13426D02*
D03*
X23518Y13376D02*
D03*
D167*
X21502Y12600D02*
D03*
X20328Y12144D02*
D03*
D168*
X23907Y13005D02*
D03*
Y12531D02*
D03*
D169*
X23801Y12818D02*
D03*
Y12719D02*
D03*
X23702D02*
D03*
Y12818D02*
D03*
X19612Y13674D02*
D03*
Y13083D02*
D03*
X19770D02*
D03*
Y13674D02*
D03*
X19612Y12283D02*
D03*
Y12874D02*
D03*
X19770D02*
D03*
Y12283D02*
D03*
X19612Y12067D02*
D03*
Y11477D02*
D03*
X19770D02*
D03*
Y12067D02*
D03*
D170*
X23892Y12143D02*
D03*
Y11693D02*
D03*
D171*
X24102Y13243D02*
D03*
Y13393D02*
D03*
Y13543D02*
D03*
Y13693D02*
D03*
Y13843D02*
D03*
Y13993D02*
D03*
Y14143D02*
D03*
Y14293D02*
D03*
Y14443D02*
D03*
Y14593D02*
D03*
Y14743D02*
D03*
X19612Y13378D02*
D03*
X19770D02*
D03*
X19839Y13448D02*
D03*
X19700D02*
D03*
Y13309D02*
D03*
X19839D02*
D03*
X19612Y12578D02*
D03*
X19770D02*
D03*
X19839Y12509D02*
D03*
X19700D02*
D03*
Y12648D02*
D03*
X19839D02*
D03*
X19612Y11772D02*
D03*
X19770D02*
D03*
X19839Y11842D02*
D03*
X19700D02*
D03*
Y11703D02*
D03*
X19839D02*
D03*
D172*
X24102Y14893D02*
D03*
D173*
X19864Y13908D02*
D03*
Y14888D02*
D03*
D174*
X19964Y14231D02*
D03*
D175*
X19764D02*
D03*
X19864Y14186D02*
D03*
X19764Y14321D02*
D03*
X19864Y14276D02*
D03*
X19964Y14321D02*
D03*
X19764Y14411D02*
D03*
X19864Y14366D02*
D03*
X19964Y14411D02*
D03*
X19764Y14501D02*
D03*
X19864Y14456D02*
D03*
X19964Y14501D02*
D03*
X19764Y14591D02*
D03*
X19864Y14546D02*
D03*
X19964Y14591D02*
D03*
D176*
X23363Y12945D02*
D03*
X23407D02*
D03*
X23450D02*
D03*
X23407Y12897D02*
D03*
X23364D02*
D03*
X23450D02*
D03*
Y12854D02*
D03*
X23407D02*
D03*
X23364D02*
D03*
D177*
X20203Y14757D02*
D03*
X20826Y14759D02*
D03*
X21506Y14757D02*
D03*
D178*
X22100Y14641D02*
D03*
X22170Y14271D02*
D03*
D179*
X21545Y12855D02*
D03*
Y12805D02*
D03*
Y12755D02*
D03*
Y12705D02*
D03*
X21345Y12855D02*
D03*
Y12805D02*
D03*
Y12755D02*
D03*
Y12705D02*
D03*
X21794Y13172D02*
D03*
Y13122D02*
D03*
Y13072D02*
D03*
Y13022D02*
D03*
X21594Y13172D02*
D03*
Y13122D02*
D03*
Y13072D02*
D03*
Y13022D02*
D03*
D180*
X21108Y13572D02*
D03*
Y13682D02*
D03*
D181*
X22590Y14554D02*
D03*
Y14454D02*
D03*
Y14354D02*
D03*
D182*
X23715Y14229D02*
D03*
Y14679D02*
D03*
D183*
X22258Y14181D02*
D03*
X22002D02*
D03*
Y14741D02*
D03*
X22258D02*
D03*
D184*
X23008Y13311D02*
D03*
Y13791D02*
D03*
D185*
X20597Y14372D02*
D03*
X20559Y14471D02*
D03*
X20595Y13886D02*
D03*
X20557Y13985D02*
D03*
D186*
X20522Y14372D02*
D03*
X20520Y13886D02*
D03*
M02*
