%FSLAX23Y23*%
%MOIN*%
G70*
G01*
G75*
G04 Layer_Physical_Order=6*
G04 Layer_Color=16711680*
%ADD10R,0.070X0.135*%
%ADD11R,0.067X0.014*%
%ADD12R,0.050X0.015*%
%ADD13R,0.039X0.059*%
%ADD14R,0.050X0.050*%
%ADD15R,0.035X0.053*%
%ADD16R,0.053X0.053*%
%ADD17R,0.050X0.050*%
%ADD18O,0.087X0.024*%
%ADD19R,0.135X0.070*%
%ADD20R,0.030X0.125*%
%ADD21R,0.078X0.048*%
%ADD22R,0.067X0.040*%
%ADD23R,0.037X0.035*%
%ADD24R,0.037X0.035*%
%ADD25R,0.065X0.012*%
%ADD26R,0.065X0.024*%
%ADD27R,0.075X0.063*%
%ADD28R,0.063X0.106*%
%ADD29R,0.150X0.110*%
%ADD30O,0.028X0.018*%
%ADD31R,0.067X0.067*%
%ADD32R,0.125X0.170*%
%ADD33R,0.110X0.030*%
%ADD34O,0.083X0.012*%
%ADD35O,0.012X0.083*%
%ADD36R,0.138X0.085*%
%ADD37R,0.043X0.085*%
%ADD38R,0.043X0.085*%
%ADD39R,0.047X0.055*%
%ADD40O,0.012X0.071*%
%ADD41O,0.071X0.012*%
%ADD42R,0.075X0.059*%
%ADD43R,0.017X0.017*%
%ADD44R,0.134X0.134*%
%ADD45O,0.010X0.035*%
%ADD46O,0.035X0.010*%
%ADD47C,0.010*%
%ADD48C,0.040*%
%ADD49C,0.075*%
%ADD50C,0.005*%
%ADD51C,0.020*%
%ADD52C,0.012*%
%ADD53C,0.008*%
%ADD54C,0.012*%
%ADD55C,0.012*%
%ADD56C,0.080*%
%ADD57R,0.080X0.080*%
%ADD58C,0.067*%
%ADD59C,0.060*%
%ADD60C,0.020*%
%ADD61C,0.059*%
%ADD62R,0.059X0.059*%
%ADD63C,0.157*%
%ADD64C,0.079*%
%ADD65C,0.087*%
%ADD66R,0.087X0.087*%
%ADD67C,0.250*%
%ADD68R,0.062X0.062*%
%ADD69C,0.062*%
%ADD70C,0.030*%
%ADD71C,0.024*%
%ADD72C,0.028*%
G04:AMPARAMS|DCode=73|XSize=100mil|YSize=100mil|CornerRadius=0mil|HoleSize=0mil|Usage=FLASHONLY|Rotation=0.000|XOffset=0mil|YOffset=0mil|HoleType=Round|Shape=Relief|Width=10mil|Gap=10mil|Entries=4|*
%AMTHD73*
7,0,0,0.100,0.080,0.010,45*
%
%ADD73THD73*%
%ADD74C,0.044*%
%ADD75C,0.059*%
%ADD76C,0.050*%
%ADD77C,0.030*%
%ADD78C,0.055*%
%ADD79C,0.111*%
%ADD80C,0.056*%
%ADD81C,0.147*%
%ADD82C,0.067*%
%ADD83C,0.140*%
%ADD84C,0.055*%
%ADD85C,0.036*%
%ADD86C,0.071*%
%ADD87C,0.130*%
%ADD88C,0.103*%
G04:AMPARAMS|DCode=89|XSize=70mil|YSize=70mil|CornerRadius=0mil|HoleSize=0mil|Usage=FLASHONLY|Rotation=0.000|XOffset=0mil|YOffset=0mil|HoleType=Round|Shape=Relief|Width=10mil|Gap=10mil|Entries=4|*
%AMTHD89*
7,0,0,0.070,0.050,0.010,45*
%
%ADD89THD89*%
%ADD90C,0.033*%
G04:AMPARAMS|DCode=91|XSize=90mil|YSize=90mil|CornerRadius=0mil|HoleSize=0mil|Usage=FLASHONLY|Rotation=0.000|XOffset=0mil|YOffset=0mil|HoleType=Round|Shape=Relief|Width=10mil|Gap=10mil|Entries=4|*
%AMTHD91*
7,0,0,0.090,0.070,0.010,45*
%
%ADD91THD91*%
G04:AMPARAMS|DCode=92|XSize=95.433mil|YSize=95.433mil|CornerRadius=0mil|HoleSize=0mil|Usage=FLASHONLY|Rotation=0.000|XOffset=0mil|YOffset=0mil|HoleType=Round|Shape=Relief|Width=10mil|Gap=10mil|Entries=4|*
%AMTHD92*
7,0,0,0.095,0.075,0.010,45*
%
%ADD92THD92*%
G04:AMPARAMS|DCode=93|XSize=150.551mil|YSize=150.551mil|CornerRadius=0mil|HoleSize=0mil|Usage=FLASHONLY|Rotation=0.000|XOffset=0mil|YOffset=0mil|HoleType=Round|Shape=Relief|Width=10mil|Gap=10mil|Entries=4|*
%AMTHD93*
7,0,0,0.151,0.131,0.010,45*
%
%ADD93THD93*%
G04:AMPARAMS|DCode=94|XSize=96.221mil|YSize=96.221mil|CornerRadius=0mil|HoleSize=0mil|Usage=FLASHONLY|Rotation=0.000|XOffset=0mil|YOffset=0mil|HoleType=Round|Shape=Relief|Width=10mil|Gap=10mil|Entries=4|*
%AMTHD94*
7,0,0,0.096,0.076,0.010,45*
%
%ADD94THD94*%
G04:AMPARAMS|DCode=95|XSize=107.244mil|YSize=107.244mil|CornerRadius=0mil|HoleSize=0mil|Usage=FLASHONLY|Rotation=0.000|XOffset=0mil|YOffset=0mil|HoleType=Round|Shape=Relief|Width=10mil|Gap=10mil|Entries=4|*
%AMTHD95*
7,0,0,0.107,0.087,0.010,45*
%
%ADD95THD95*%
G04:AMPARAMS|DCode=96|XSize=180mil|YSize=180mil|CornerRadius=0mil|HoleSize=0mil|Usage=FLASHONLY|Rotation=0.000|XOffset=0mil|YOffset=0mil|HoleType=Round|Shape=Relief|Width=10mil|Gap=10mil|Entries=4|*
%AMTHD96*
7,0,0,0.180,0.160,0.010,45*
%
%ADD96THD96*%
G04:AMPARAMS|DCode=97|XSize=95mil|YSize=95mil|CornerRadius=0mil|HoleSize=0mil|Usage=FLASHONLY|Rotation=0.000|XOffset=0mil|YOffset=0mil|HoleType=Round|Shape=Relief|Width=10mil|Gap=10mil|Entries=4|*
%AMTHD97*
7,0,0,0.095,0.075,0.010,45*
%
%ADD97THD97*%
G04:AMPARAMS|DCode=98|XSize=75.748mil|YSize=75.748mil|CornerRadius=0mil|HoleSize=0mil|Usage=FLASHONLY|Rotation=0.000|XOffset=0mil|YOffset=0mil|HoleType=Round|Shape=Relief|Width=10mil|Gap=10mil|Entries=4|*
%AMTHD98*
7,0,0,0.076,0.056,0.010,45*
%
%ADD98THD98*%
G04:AMPARAMS|DCode=99|XSize=111.181mil|YSize=111.181mil|CornerRadius=0mil|HoleSize=0mil|Usage=FLASHONLY|Rotation=0.000|XOffset=0mil|YOffset=0mil|HoleType=Round|Shape=Relief|Width=10mil|Gap=10mil|Entries=4|*
%AMTHD99*
7,0,0,0.111,0.091,0.010,45*
%
%ADD99THD99*%
G04:AMPARAMS|DCode=100|XSize=73mil|YSize=73mil|CornerRadius=0mil|HoleSize=0mil|Usage=FLASHONLY|Rotation=0.000|XOffset=0mil|YOffset=0mil|HoleType=Round|Shape=Relief|Width=10mil|Gap=10mil|Entries=4|*
%AMTHD100*
7,0,0,0.073,0.053,0.010,45*
%
%ADD100THD100*%
%ADD101O,0.091X0.028*%
%ADD102R,0.048X0.078*%
%ADD103R,0.200X0.040*%
%ADD104R,0.200X0.150*%
%ADD105R,0.106X0.150*%
%ADD106R,0.086X0.060*%
%ADD107R,0.130X0.094*%
%ADD108R,0.098X0.268*%
%ADD109R,0.035X0.037*%
%ADD110R,0.035X0.037*%
D14*
X20144Y14353D02*
D03*
Y14263D02*
D03*
X20294Y14383D02*
D03*
Y14293D02*
D03*
X21245Y12830D02*
D03*
Y12740D02*
D03*
X21119Y14017D02*
D03*
Y13927D02*
D03*
X20831Y12364D02*
D03*
Y12274D02*
D03*
X20718Y12575D02*
D03*
Y12665D02*
D03*
X21102Y12355D02*
D03*
Y12265D02*
D03*
X20708Y12460D02*
D03*
Y12370D02*
D03*
X20846Y12584D02*
D03*
Y12674D02*
D03*
X20347Y14812D02*
D03*
Y14902D02*
D03*
X21158Y13192D02*
D03*
Y13102D02*
D03*
X20768Y13272D02*
D03*
Y13182D02*
D03*
X20978Y13212D02*
D03*
Y13122D02*
D03*
X21358Y13612D02*
D03*
Y13702D02*
D03*
X21198Y13632D02*
D03*
Y13722D02*
D03*
X20858Y13632D02*
D03*
Y13722D02*
D03*
X20778Y13732D02*
D03*
Y13642D02*
D03*
X20867Y14864D02*
D03*
Y14774D02*
D03*
X21388Y14889D02*
D03*
Y14799D02*
D03*
X20178Y14040D02*
D03*
Y13950D02*
D03*
X20177Y13801D02*
D03*
Y13891D02*
D03*
X22007Y13907D02*
D03*
Y13817D02*
D03*
X21930Y13872D02*
D03*
Y13962D02*
D03*
X21865Y13870D02*
D03*
Y13960D02*
D03*
X20374Y14383D02*
D03*
Y14293D02*
D03*
X20064Y14263D02*
D03*
Y14353D02*
D03*
X21789Y13907D02*
D03*
Y13817D02*
D03*
X23250Y12917D02*
D03*
Y12827D02*
D03*
X22347Y12215D02*
D03*
Y12305D02*
D03*
X22412Y12215D02*
D03*
Y12305D02*
D03*
X22592Y12024D02*
D03*
Y12114D02*
D03*
X22106Y12215D02*
D03*
Y12305D02*
D03*
X22039Y12216D02*
D03*
Y12306D02*
D03*
X23458Y12043D02*
D03*
Y11953D02*
D03*
X22407Y12495D02*
D03*
Y12405D02*
D03*
X21799Y12508D02*
D03*
Y12418D02*
D03*
X22401Y12072D02*
D03*
Y11982D02*
D03*
D15*
X22007Y12802D02*
D03*
Y12889D02*
D03*
X22082D02*
D03*
D16*
X22074Y12802D02*
D03*
D17*
X21280Y14012D02*
D03*
X21190D02*
D03*
X21279Y13943D02*
D03*
X21189D02*
D03*
X21004Y12527D02*
D03*
X21094D02*
D03*
X20931Y12674D02*
D03*
X21021D02*
D03*
X21283Y13467D02*
D03*
X21373D02*
D03*
X21283Y13327D02*
D03*
X21373D02*
D03*
X21283Y13207D02*
D03*
X21373D02*
D03*
X20893Y13107D02*
D03*
X20803D02*
D03*
X20843Y13507D02*
D03*
X20753D02*
D03*
X21211Y14312D02*
D03*
X21121D02*
D03*
X21463Y14962D02*
D03*
X21553D02*
D03*
X20430Y14947D02*
D03*
X20520D02*
D03*
X20942Y14951D02*
D03*
X21032D02*
D03*
X23669Y12977D02*
D03*
X23579D02*
D03*
X23669Y12916D02*
D03*
X23579D02*
D03*
D21*
X21051Y14192D02*
D03*
X21161D02*
D03*
D26*
X22632Y13436D02*
D03*
Y13386D02*
D03*
Y13336D02*
D03*
Y13286D02*
D03*
Y13236D02*
D03*
Y13186D02*
D03*
Y13136D02*
D03*
Y13086D02*
D03*
X22359Y13436D02*
D03*
Y13386D02*
D03*
Y13336D02*
D03*
Y13286D02*
D03*
Y13236D02*
D03*
Y13186D02*
D03*
Y13136D02*
D03*
Y13086D02*
D03*
D36*
X21386Y14474D02*
D03*
D37*
X21295Y14230D02*
D03*
X21476D02*
D03*
D38*
X21386D02*
D03*
D47*
X23868Y12685D02*
Y12890D01*
X23671Y13086D02*
X23868Y12890D01*
X23575Y12818D02*
Y12973D01*
Y12818D02*
X23702D01*
X23773Y12612D02*
X23794D01*
X23633Y12471D02*
X23773Y12612D01*
X23794D02*
X23868Y12685D01*
X23458Y11953D02*
X23514D01*
X19593Y13498D02*
Y13506D01*
X19681Y13594D01*
X19587Y14086D02*
Y14234D01*
Y14086D02*
X19681Y13992D01*
X22577Y13186D02*
X22632D01*
X20526Y14431D02*
Y14528D01*
X20495Y14400D02*
X20526Y14431D01*
X20495Y14350D02*
Y14400D01*
Y14350D02*
X20506Y14339D01*
Y14247D02*
Y14339D01*
X20457Y14198D02*
X20506Y14247D01*
X20522Y14331D02*
X20531Y14321D01*
X20522Y14331D02*
Y14372D01*
X20382Y14530D02*
X20421Y14569D01*
X20382Y14481D02*
Y14530D01*
Y14481D02*
X20413Y14449D01*
X20426D01*
X20457Y14418D01*
Y14298D02*
Y14418D01*
X20513Y13845D02*
X20513Y13844D01*
X20513Y13845D02*
Y13886D01*
X20564Y13998D02*
X20657D01*
X20550Y13985D02*
X20564Y13998D01*
X20587Y14498D02*
X20657D01*
X20559Y14471D02*
X20587Y14498D01*
X20294Y14248D02*
Y14293D01*
X20144Y14353D02*
X20189D01*
X20215Y14600D02*
X20234Y14581D01*
Y14158D02*
Y14581D01*
Y14158D02*
X20275Y14117D01*
X20374Y14305D02*
X20407Y14338D01*
X20374Y14293D02*
Y14305D01*
Y14383D02*
X20429D01*
X20294D02*
X20374D01*
X20429D02*
X20434Y14378D01*
X20215Y14600D02*
Y14617D01*
X20214Y14618D02*
X20215Y14617D01*
X20214Y14618D02*
Y14643D01*
X20275Y14080D02*
Y14117D01*
Y14704D02*
Y14912D01*
X20214Y14643D02*
X20275Y14704D01*
X21611Y12755D02*
X21614Y12753D01*
X21545Y12755D02*
X21611D01*
X21599Y12805D02*
X21611Y12793D01*
X21545Y12805D02*
X21599D01*
X21728Y13073D02*
X21728Y13072D01*
X21794D01*
X21727Y13123D02*
X21728Y13122D01*
X21794D01*
X21872Y13739D02*
Y13828D01*
X21185Y14017D02*
X21190Y14012D01*
X21119Y14017D02*
X21185D01*
X21119Y13927D02*
X21173D01*
X21189Y13943D01*
Y13916D02*
Y13943D01*
Y13916D02*
X21208Y13897D01*
X21279Y13943D02*
Y14011D01*
Y13929D02*
Y13943D01*
Y14011D02*
X21280Y14012D01*
X21245Y13895D02*
X21279Y13929D01*
X20431Y11760D02*
X20458Y11733D01*
X20431Y11760D02*
Y11888D01*
X23633Y12139D02*
Y12471D01*
X23671Y13086D02*
Y13426D01*
X22082Y13680D02*
X22082Y13680D01*
X22082Y12889D02*
Y13680D01*
Y12889D02*
X22117Y12853D01*
Y12399D02*
Y12853D01*
X20930Y12628D02*
X20931Y12629D01*
Y12674D01*
X20672Y12665D02*
X20718D01*
X20846Y12540D02*
X20848Y12538D01*
X20846Y12540D02*
Y12584D01*
X20718Y12534D02*
X20719Y12533D01*
X20718Y12534D02*
Y12575D01*
X20708Y12460D02*
X20751D01*
X20665Y12370D02*
X20708D01*
X20878Y12364D02*
X20879Y12365D01*
X20831Y12364D02*
X20878D01*
X20825Y12226D02*
Y12268D01*
X21058Y12355D02*
X21102D01*
Y12265D02*
X21132Y12235D01*
X21146D01*
X21149Y12232D01*
X21004Y12485D02*
Y12527D01*
X21097Y12524D02*
X21136D01*
X20859Y12912D02*
Y13158D01*
X20924Y12839D02*
Y12847D01*
X20859Y12912D02*
X20924Y12847D01*
X20859Y13158D02*
X20936Y13235D01*
Y13349D01*
X22625Y12114D02*
X22627Y12116D01*
X22592Y11979D02*
Y12024D01*
X22441Y12072D02*
X22442Y12071D01*
X22401Y12072D02*
X22441D01*
X22356Y11984D02*
X22399D01*
X22369Y12405D02*
X22407D01*
X22347Y12215D02*
X22412D01*
X22347Y12165D02*
X22348Y12164D01*
X22347Y12165D02*
Y12215D01*
Y12305D02*
X22412D01*
X22296D02*
X22347D01*
X22040D02*
X22106D01*
X22039Y12164D02*
Y12216D01*
X22106Y12165D02*
Y12215D01*
X20437Y14934D02*
X20473Y14898D01*
X20437Y14934D02*
Y14947D01*
X20350Y14899D02*
X20431D01*
X20347Y14812D02*
Y14826D01*
X20377Y14856D01*
X20355Y14659D02*
X20358Y14656D01*
X20461D01*
Y14749D02*
X20484Y14726D01*
X20524D02*
X20558Y14692D01*
X20461Y14749D02*
Y14786D01*
X20484Y14726D02*
X20524D01*
X20558Y14692D02*
X20633D01*
Y14727D02*
X20678Y14772D01*
X20633Y14692D02*
Y14727D01*
X22309Y13275D02*
X22320Y13286D01*
X22359D01*
X22580Y13135D02*
X22581Y13136D01*
X22632D01*
X22268Y13227D02*
X22309Y13186D01*
X22359D01*
Y13054D02*
X22359Y13053D01*
X22359Y13054D02*
Y13086D01*
X20897Y13507D02*
X20898Y13508D01*
X20843Y13507D02*
X20897D01*
X20908Y13632D02*
X20909Y13633D01*
X20858Y13632D02*
X20908D01*
X20727Y13732D02*
X20778D01*
X21152Y13587D02*
X21198D01*
X21137Y13572D02*
X21152Y13587D01*
X21108Y13572D02*
X21137D01*
X21198Y13587D02*
X21199Y13586D01*
X21198Y13587D02*
Y13632D01*
X21307Y13613D02*
X21308Y13612D01*
X21358D01*
X21231Y13469D02*
X21233Y13467D01*
X21283D01*
X21226Y13326D02*
X21227Y13327D01*
X21283D01*
X21232Y13207D02*
X21283D01*
X21157Y13240D02*
X21158Y13239D01*
Y13192D02*
Y13239D01*
X20978Y13212D02*
Y13263D01*
X20891Y13160D02*
X20893Y13158D01*
Y13107D02*
Y13158D01*
X20768Y13272D02*
X20814D01*
X21311Y14312D02*
X21356Y14357D01*
X21211Y14312D02*
X21311D01*
X21201Y14322D02*
X21211Y14312D01*
X21295Y14163D02*
X21296Y14162D01*
X21295Y14163D02*
Y14230D01*
X20991Y14192D02*
X21051D01*
X21386Y14474D02*
X21513D01*
X21571Y14412D02*
Y14417D01*
X21513Y14474D02*
X21571Y14417D01*
X21386Y14474D02*
X21401D01*
X21161Y14192D02*
X21271D01*
X21295Y14217D01*
Y14230D01*
X21489Y14217D02*
X21521D01*
X21023Y14891D02*
Y14950D01*
X20900Y14951D02*
X20950D01*
X20900Y14950D02*
Y14951D01*
X20867Y14864D02*
Y14908D01*
X21154Y14933D02*
Y14942D01*
Y14933D02*
X21180Y14907D01*
Y14869D02*
Y14907D01*
X20894Y14690D02*
X20972Y14768D01*
X20633Y14880D02*
Y14966D01*
Y14880D02*
X20635Y14878D01*
X20512Y14947D02*
X20560Y14899D01*
X20811Y14830D02*
X20867Y14774D01*
X20811Y14830D02*
Y14909D01*
X21081Y14669D02*
X21154D01*
X21051Y14638D02*
X21081Y14669D01*
X20978Y14638D02*
X21051D01*
X21154Y14669D02*
Y14671D01*
X21227Y14744D01*
X21685Y14964D02*
X21716Y14933D01*
Y14896D02*
Y14933D01*
X21685Y14691D02*
X21735Y14741D01*
Y14783D01*
X21614Y14691D02*
X21685D01*
X21576Y14652D02*
X21614Y14691D01*
X21508Y14652D02*
X21576D01*
X21501Y14782D02*
X21508D01*
X21419Y14700D02*
X21501Y14782D01*
X21336Y14851D02*
Y14933D01*
Y14851D02*
X21388Y14799D01*
X21546Y14962D02*
X21591Y14916D01*
X21546Y14962D02*
Y14962D01*
X21398D02*
X21471D01*
X21397Y14963D02*
X21398Y14962D01*
X20177Y13750D02*
Y13801D01*
Y13750D02*
X20179Y13748D01*
X20142Y13950D02*
X20178D01*
X20119Y13927D02*
X20142Y13950D01*
X20119Y13903D02*
Y13927D01*
X23008Y13311D02*
X23097D01*
X23099Y13313D01*
X22632Y13286D02*
X22682D01*
X22577Y13086D02*
X22632D01*
X22574Y13083D02*
X22577Y13086D01*
X22359Y13386D02*
X22401D01*
X22409Y13378D01*
X22074Y12749D02*
Y12802D01*
X21865Y13870D02*
X21928D01*
Y13829D02*
Y13870D01*
Y13829D02*
X21929Y13828D01*
X21969Y13869D02*
X22007Y13907D01*
X21928Y13870D02*
X21930Y13869D01*
X21969D01*
X22573Y13380D02*
X22617Y13336D01*
X22632D01*
X22653Y13527D02*
Y14285D01*
X22699Y14331D01*
Y14583D01*
X22653Y14629D02*
X22699Y14583D01*
X22653Y14629D02*
Y14938D01*
X22632Y13436D02*
X22703D01*
X22785Y13518D01*
Y14893D01*
X22866Y14974D01*
X21121Y14312D02*
Y14351D01*
X20044Y14411D02*
Y14659D01*
X20042Y14409D02*
X20044Y14411D01*
X19924Y14687D02*
X19927Y14690D01*
X19924Y14361D02*
Y14687D01*
Y14361D02*
X19964Y14321D01*
X21317Y14933D02*
X21336D01*
X21233Y14810D02*
X21252Y14791D01*
X21233Y14849D02*
X21317Y14933D01*
X21233Y14810D02*
Y14849D01*
X21252Y14571D02*
Y14791D01*
X19824Y14708D02*
X19830Y14714D01*
X19824Y14496D02*
Y14708D01*
Y14496D02*
X19864Y14456D01*
Y14546D02*
Y14670D01*
X19977Y14783D01*
X19978D01*
X19547Y14284D02*
X19764Y14501D01*
X19547Y12995D02*
Y14284D01*
X19587Y14234D02*
X19764Y14411D01*
X19681Y13594D02*
Y13992D01*
X19864Y14113D02*
Y14186D01*
X19861Y14110D02*
X19864Y14113D01*
X20245Y13573D02*
Y14110D01*
X20244Y13572D02*
X20245Y13573D01*
X20178Y14040D02*
Y14085D01*
X22013Y13811D02*
X22066D01*
X22007Y13817D02*
X22013Y13811D01*
X21865Y13960D02*
X21928D01*
X21930Y13962D01*
Y13985D01*
X21944Y13999D01*
X21789Y13907D02*
Y14013D01*
X21388Y14889D02*
X21465D01*
X21479Y14903D01*
X21021Y12626D02*
Y12674D01*
X20846Y12628D02*
Y12674D01*
Y12628D02*
X20847Y12627D01*
X21121Y14351D02*
Y14462D01*
X21124Y14465D01*
D48*
X22158Y14641D02*
X22258Y14741D01*
X22100Y14641D02*
X22158D01*
X22170Y14271D02*
X22180Y14261D01*
Y14231D02*
Y14261D01*
X21738Y14304D02*
Y14361D01*
Y13414D02*
Y14304D01*
X22258Y14741D02*
Y14893D01*
X22180Y14231D02*
X22230Y14181D01*
X22867Y13791D02*
X23008D01*
X22866Y13790D02*
X22867Y13791D01*
D50*
X23208Y11588D02*
X23207Y11598D01*
X23203Y11607D01*
X23197Y11615D01*
X23189Y11621D01*
X23179Y11624D01*
X23170Y11625D01*
X23160Y11623D01*
X23151Y11618D01*
X23144Y11611D01*
X23139Y11603D01*
X23136Y11593D01*
Y11584D01*
X23139Y11574D01*
X23144Y11566D01*
X23151Y11559D01*
X23160Y11554D01*
X23170Y11552D01*
X23179Y11553D01*
X23189Y11556D01*
X23197Y11562D01*
X23203Y11570D01*
X23207Y11579D01*
X23208Y11588D01*
X23162Y11572D02*
X23172Y11569D01*
X23182Y11572D01*
X23189Y11580D01*
X23191Y11590D01*
X23188Y11599D01*
X23180Y11606D01*
X23170Y11608D01*
X23160Y11603D01*
X23924Y14265D02*
X24102Y14443D01*
X23924Y13188D02*
Y14265D01*
X24006Y13154D02*
X24065Y13095D01*
X24006Y13154D02*
Y14197D01*
X24102Y14293D01*
X23338Y11991D02*
X23399Y12052D01*
Y12820D01*
X23338Y11973D02*
Y11991D01*
X23509Y12155D02*
X23554Y12109D01*
X23469Y12155D02*
X23509D01*
X23429Y12194D02*
X23469Y12155D01*
X23429Y12194D02*
Y13054D01*
X20005Y13767D02*
Y14551D01*
X19973Y13736D02*
X20005Y13767D01*
X19973Y13215D02*
Y13736D01*
X19996Y13771D02*
Y14040D01*
X19929Y13704D02*
X19996Y13771D01*
X19929Y13302D02*
Y13704D01*
X19872Y13245D02*
X19929Y13302D01*
X20840Y14033D02*
X20841Y14034D01*
X20840Y13902D02*
Y14033D01*
X20597Y14372D02*
X20597Y14372D01*
Y14326D02*
Y14372D01*
X20588Y13886D02*
Y13922D01*
X20586Y13923D02*
X20588Y13922D01*
X20332Y13870D02*
Y14318D01*
X20311Y14339D02*
X20332Y14318D01*
X20295Y14339D02*
X20311D01*
X20196Y14152D02*
X20223Y14179D01*
Y14346D01*
X20202Y14367D02*
X20223Y14346D01*
X20202Y14367D02*
Y14397D01*
X20351Y13947D02*
Y14143D01*
X20034Y14308D02*
Y14323D01*
X20064Y14353D01*
X20199Y14263D02*
X20204Y14258D01*
X20144Y14263D02*
X20199D01*
X20254Y14531D02*
X20309Y14586D01*
X20254Y14178D02*
Y14531D01*
Y14178D02*
X20294Y14138D01*
X20064Y14263D02*
X20144D01*
X20294Y13347D02*
Y14138D01*
X20309Y14586D02*
Y14700D01*
Y12876D02*
Y13332D01*
X20294Y13347D02*
X20309Y13332D01*
X20228Y13110D02*
X20229Y13111D01*
X20228Y12744D02*
Y13110D01*
X21764Y11895D02*
Y12077D01*
Y11895D02*
X21765Y11896D01*
X21751Y12090D02*
Y12566D01*
X21809Y12624D01*
X21751Y12090D02*
X21764Y12077D01*
X21809Y12624D02*
Y12821D01*
X21847Y12860D01*
Y12954D01*
X21927Y12783D02*
Y12932D01*
X21755Y12958D02*
X21790Y12923D01*
Y12632D02*
Y12923D01*
X21663Y12725D02*
X21665Y12723D01*
X21663Y12725D02*
Y13073D01*
X21566Y13484D02*
X21585D01*
X21670Y13398D01*
Y13120D02*
Y13398D01*
X21594Y13122D02*
X21596Y13120D01*
X21670D01*
X21244D02*
X21245Y13119D01*
Y12830D02*
Y13119D01*
Y12830D02*
X21267D01*
X21292Y12805D01*
X21345D01*
Y12755D02*
X21398D01*
X21297D02*
X21345D01*
X21260D02*
X21297D01*
X21282Y12740D02*
X21297Y12755D01*
X21594Y13072D02*
X21594Y13073D01*
X21663D01*
X21418Y12775D02*
Y13073D01*
X21398Y12755D02*
X21418Y12775D01*
X21245Y12740D02*
X21260Y12755D01*
X21245Y12740D02*
X21282D01*
X21457Y12994D02*
X21494Y12956D01*
Y12865D02*
Y12956D01*
X21494Y12864D02*
X21494Y12865D01*
X21494Y12747D02*
Y12864D01*
Y12747D02*
X21494Y12747D01*
Y12705D02*
Y12747D01*
Y12705D02*
X21545D01*
X21478Y13025D02*
X21545Y12958D01*
Y12855D02*
Y12958D01*
X21869Y12498D02*
Y13014D01*
X21868Y12497D02*
X21869Y12498D01*
X21860Y13022D02*
X21869Y13014D01*
X21794Y13022D02*
X21860D01*
X21887Y12449D02*
X21889Y12448D01*
X21887Y12449D02*
Y13151D01*
X21841Y12785D02*
X21841Y12785D01*
Y12532D02*
Y12785D01*
X21644Y12862D02*
X21645Y12863D01*
X21644Y12442D02*
Y12862D01*
X21866Y13172D02*
X21887Y13151D01*
X21794Y13172D02*
X21866D01*
X21908Y12863D02*
Y13203D01*
X21880Y13231D02*
X21908Y13203D01*
X21683Y13424D02*
X21876Y13231D01*
X21880D01*
X21927Y12932D02*
X21970Y12889D01*
X22007D01*
X21880Y13720D02*
X21927Y13673D01*
Y12932D02*
Y13673D01*
X21834Y13841D02*
X21861Y13814D01*
X21834Y13841D02*
Y13992D01*
X21861Y13753D02*
Y13814D01*
X21854Y13746D02*
X21861Y13753D01*
X21854Y13731D02*
Y13746D01*
Y13731D02*
X21864Y13720D01*
X21880D01*
X21841Y12423D02*
Y12532D01*
X21683Y13424D02*
Y13604D01*
X21644Y13643D02*
Y14043D01*
Y13643D02*
X21683Y13604D01*
X20374Y11538D02*
X20375Y11539D01*
Y11717D01*
X20369Y11723D02*
X20375Y11717D01*
X20369Y11723D02*
Y11800D01*
X20287Y11919D02*
X20346Y11860D01*
Y11633D02*
Y11860D01*
X20287Y11919D02*
Y13168D01*
X19964Y11533D02*
Y11633D01*
X23226Y13249D02*
Y13583D01*
X23051Y13074D02*
X23226Y13249D01*
X23051Y12815D02*
Y13074D01*
X20084Y12400D02*
X20228Y12544D01*
X20084Y11819D02*
Y12400D01*
X19997Y12413D02*
X20228Y12644D01*
X19997Y11926D02*
Y12413D01*
X21266Y11936D02*
Y12449D01*
X20126Y12342D02*
X20228Y12444D01*
X20126Y12030D02*
Y12342D01*
X22103Y11743D02*
X22139Y11779D01*
Y11925D01*
X23389Y13042D02*
X23399Y13032D01*
Y12967D02*
Y13032D01*
X21697Y11900D02*
Y12016D01*
X22387Y13236D02*
X22410Y13213D01*
X22359Y13236D02*
X22387D01*
X22410Y13169D02*
Y13213D01*
X22398Y13157D02*
X22410Y13169D01*
X22337Y13118D02*
X22394D01*
X22278Y13059D02*
X22337Y13118D01*
X22398Y13122D02*
Y13157D01*
X22394Y13118D02*
X22398Y13122D01*
X22278Y12298D02*
X22316Y12260D01*
Y12074D02*
Y12260D01*
Y12074D02*
X22320Y12069D01*
X21403Y12041D02*
X21404Y12040D01*
X21403Y12041D02*
Y12199D01*
X21502Y12200D02*
X21548Y12154D01*
Y12052D02*
Y12154D01*
X21715Y12107D02*
Y12374D01*
X21681Y12558D02*
X21682Y12557D01*
Y12209D02*
Y12557D01*
X21330Y12288D02*
X21331Y12289D01*
X21330Y12175D02*
Y12288D01*
X21363Y12368D02*
X21364Y12369D01*
X21363Y12219D02*
Y12368D01*
X21392Y12259D02*
Y12407D01*
X23039Y11943D02*
Y12229D01*
X23220Y12092D02*
Y12254D01*
X23148Y11993D02*
X23150Y11991D01*
X23148Y11993D02*
Y12212D01*
X22547Y12022D02*
Y13540D01*
X23178Y11844D02*
X23179Y11845D01*
Y12188D01*
X23093Y12022D02*
Y12319D01*
X21837Y12418D02*
X21841Y12422D01*
X22106Y12305D02*
X22145D01*
X21108Y13682D02*
X21141D01*
X21146Y13687D01*
Y13706D01*
X20803Y13063D02*
Y13107D01*
X20721Y13182D02*
X20768D01*
X20710Y13171D02*
X20721Y13182D01*
X20713Y13507D02*
X20753D01*
X20738Y13642D02*
X20778D01*
X20714Y13666D02*
X20738Y13642D01*
X20860Y13724D02*
Y13771D01*
X21146Y13706D02*
X21166Y13726D01*
X21194D01*
Y13769D01*
X21354Y13754D02*
X21358Y13750D01*
Y13702D02*
Y13750D01*
Y13702D02*
X21411D01*
X21373Y13467D02*
X21419D01*
X21375Y13329D02*
X21422D01*
X21373Y13207D02*
X21413D01*
X21158Y13062D02*
Y13102D01*
X20978Y13082D02*
Y13122D01*
X21696Y12160D02*
X21701Y12165D01*
Y12222D01*
X21696Y12226D02*
X21701Y12222D01*
X21696Y12226D02*
Y12458D01*
X21702Y12464D01*
X21298Y12139D02*
Y12331D01*
X21770Y12108D02*
Y12300D01*
X21769Y12301D02*
X21770Y12300D01*
X21602Y12192D02*
X21687Y12107D01*
X21602Y12192D02*
Y12200D01*
X22017Y12107D02*
Y12179D01*
X22008Y12189D02*
X22017Y12179D01*
X22008Y12189D02*
Y12338D01*
X22017Y12347D01*
Y12475D01*
X22016Y12476D02*
X22017Y12475D01*
X21833Y11996D02*
Y12368D01*
X21832Y12369D02*
X21833Y12368D01*
X21819Y11906D02*
X21865Y11952D01*
X21819Y11640D02*
Y11906D01*
X21852Y11542D02*
Y11903D01*
X20900Y11810D02*
Y12427D01*
X20902Y12429D01*
X20859Y11734D02*
Y12065D01*
X21799Y12418D02*
X21837D01*
X21841Y12423D02*
X21841Y12422D01*
X21834Y13992D02*
X21844Y14003D01*
Y14057D01*
X21844Y14057D02*
X21844Y14057D01*
X22016Y12476D02*
Y12758D01*
X22031Y12773D01*
Y12922D01*
X22016Y12937D02*
X22031Y12922D01*
X22016Y12937D02*
Y13465D01*
X22017Y13466D01*
X22359Y13437D02*
Y13466D01*
X22359Y13436D02*
X22359Y13437D01*
X22278Y12298D02*
Y12603D01*
Y13059D01*
X23458Y12043D02*
X23463Y12038D01*
X23509D01*
X23174Y12828D02*
X23249D01*
X23149Y12818D02*
Y12873D01*
Y12818D02*
X23244Y12723D01*
Y12543D02*
Y12723D01*
X23129Y12753D02*
Y12833D01*
Y12753D02*
X23224Y12658D01*
X22714Y11618D02*
Y13358D01*
X22686Y13386D02*
X22714Y13358D01*
X22632Y13386D02*
X22686D01*
X19964Y12453D02*
X20019Y12508D01*
X19964Y11633D02*
Y12453D01*
X20109Y13798D02*
Y13823D01*
X20177Y13891D01*
X19754Y14048D02*
Y14221D01*
X19764Y14231D01*
X20949Y13808D02*
X21004Y13753D01*
X20949Y13808D02*
Y14443D01*
X20506Y12000D02*
Y13738D01*
X20504D02*
X20506D01*
X20504D02*
X20724Y13958D01*
Y14122D01*
X20663Y14183D02*
X20724Y14122D01*
X21602Y12400D02*
X21644Y12442D01*
X21200Y12733D02*
Y12892D01*
X21199Y12893D02*
X21200Y12892D01*
X23005Y12835D02*
Y13060D01*
X23170Y13225D01*
Y13444D01*
X21078Y13531D02*
X21090Y13518D01*
X21078Y13531D02*
Y14147D01*
X21096Y14166D01*
X21089Y14285D02*
X21096Y14278D01*
X21089Y14285D02*
Y14344D01*
X21096Y14351D01*
Y14592D01*
X21095Y14592D02*
X21096Y14592D01*
X21090Y12826D02*
Y13518D01*
X21096Y14166D02*
Y14278D01*
X20663Y12877D02*
Y13885D01*
X20733Y13955D01*
Y14179D01*
X20710Y14203D02*
X20733Y14179D01*
X20710Y14203D02*
Y14568D01*
X20763Y14621D01*
X20632Y12737D02*
Y12792D01*
X20691Y12851D01*
Y13900D01*
X20742Y13951D01*
Y14388D01*
X20767Y14413D01*
X20625Y12825D02*
Y13689D01*
X20572Y13742D02*
X20625Y13689D01*
X22252Y13077D02*
X22311Y13136D01*
X22359D01*
X22252Y12890D02*
Y13036D01*
Y13077D01*
X20309Y12876D02*
X20343Y12842D01*
X20605Y11853D02*
Y12204D01*
Y11853D02*
X20619Y11839D01*
Y11813D02*
Y11839D01*
X20605Y11799D02*
X20619Y11813D01*
X20605Y11726D02*
Y11799D01*
X20765Y11870D02*
Y12118D01*
Y11870D02*
X20816Y11819D01*
Y11817D02*
Y11819D01*
X19872Y12966D02*
Y13245D01*
X19902Y14134D02*
X19996Y14040D01*
X19902Y14134D02*
Y14238D01*
X19864Y14276D02*
X19902Y14238D01*
X22632Y13236D02*
X22685D01*
X19964Y14591D02*
X20005Y14551D01*
X22200Y13342D02*
X22353D01*
X22359Y13336D01*
X21414Y14102D02*
X21436Y14079D01*
X21414Y14102D02*
Y14278D01*
X21411Y14281D02*
X21414Y14278D01*
X21411Y14281D02*
Y14360D01*
X22775Y12047D02*
Y12185D01*
Y12047D02*
X22776Y12046D01*
X23715Y14229D02*
Y14679D01*
X23386Y12954D02*
X23399Y12967D01*
X23386Y12833D02*
Y12954D01*
Y12833D02*
X23399Y12820D01*
X23429Y13054D02*
X23430Y13054D01*
X23072Y11566D02*
X23105D01*
X23072Y11600D01*
Y11608D01*
X23080Y11616D01*
X23097D01*
X23105Y11608D01*
X23055D02*
X23047Y11616D01*
X23030D01*
X23022Y11608D01*
Y11575D01*
X23030Y11566D01*
X23047D01*
X23055Y11575D01*
Y11608D01*
X23005Y11566D02*
X22988D01*
X22997D01*
Y11616D01*
X23005Y11608D01*
X22963D02*
X22955Y11616D01*
X22938D01*
X22930Y11608D01*
Y11575D01*
X22938Y11566D01*
X22955D01*
X22963Y11575D01*
Y11608D01*
X23241Y11514D02*
Y11464D01*
X23208D01*
X23183Y11498D02*
X23166D01*
X23158Y11489D01*
Y11464D01*
X23183D01*
X23191Y11473D01*
X23183Y11481D01*
X23158D01*
X23141Y11464D02*
X23116D01*
X23108Y11473D01*
X23116Y11481D01*
X23133D01*
X23141Y11489D01*
X23133Y11498D01*
X23108D01*
X23008Y11506D02*
X23016Y11514D01*
X23033D01*
X23041Y11506D01*
Y11473D01*
X23033Y11464D01*
X23016D01*
X23008Y11473D01*
X22991Y11498D02*
Y11473D01*
X22983Y11464D01*
X22958D01*
Y11498D01*
X22941Y11464D02*
Y11498D01*
X22933D01*
X22925Y11489D01*
Y11464D01*
Y11489D01*
X22916Y11498D01*
X22908Y11489D01*
Y11464D01*
X22891Y11514D02*
Y11464D01*
X22866D01*
X22858Y11473D01*
Y11481D01*
Y11489D01*
X22866Y11498D01*
X22891D01*
X22841D02*
Y11464D01*
Y11481D01*
X22833Y11489D01*
X22825Y11498D01*
X22816D01*
X22766Y11464D02*
X22783D01*
X22791Y11473D01*
Y11489D01*
X22783Y11498D01*
X22766D01*
X22758Y11489D01*
Y11481D01*
X22791D01*
X22741Y11464D02*
X22716D01*
X22708Y11473D01*
X22716Y11481D01*
X22733D01*
X22741Y11489D01*
X22733Y11498D01*
X22708D01*
X22616Y11514D02*
X22633D01*
X22641Y11506D01*
Y11473D01*
X22633Y11464D01*
X22616D01*
X22608Y11473D01*
Y11506D01*
X22616Y11514D01*
X22591D02*
Y11464D01*
X22566D01*
X22558Y11473D01*
Y11481D01*
Y11489D01*
X22566Y11498D01*
X22591D01*
X22541Y11464D02*
X22516D01*
X22508Y11473D01*
X22516Y11481D01*
X22533D01*
X22541Y11489D01*
X22533Y11498D01*
X22508D01*
X22466Y11464D02*
X22483D01*
X22491Y11473D01*
Y11489D01*
X22483Y11498D01*
X22466D01*
X22458Y11489D01*
Y11481D01*
X22491D01*
X22441Y11498D02*
Y11464D01*
Y11481D01*
X22433Y11489D01*
X22425Y11498D01*
X22416D01*
X22391D02*
X22375Y11464D01*
X22358Y11498D01*
X22333D02*
X22316D01*
X22308Y11489D01*
Y11464D01*
X22333D01*
X22341Y11473D01*
X22333Y11481D01*
X22308D01*
X22283Y11506D02*
Y11498D01*
X22291D01*
X22275D01*
X22283D01*
Y11473D01*
X22275Y11464D01*
X22241D02*
X22225D01*
X22216Y11473D01*
Y11489D01*
X22225Y11498D01*
X22241D01*
X22250Y11489D01*
Y11473D01*
X22241Y11464D01*
X22200Y11498D02*
Y11464D01*
Y11481D01*
X22191Y11489D01*
X22183Y11498D01*
X22175D01*
X22150D02*
Y11473D01*
X22141Y11464D01*
X22116D01*
Y11456D01*
X22125Y11448D01*
X22133D01*
X22116Y11464D02*
Y11498D01*
X22091Y11456D02*
X22083Y11464D01*
Y11473D01*
X22091D01*
Y11464D01*
X22083D01*
X22091Y11456D01*
X22100Y11448D01*
X22000Y11514D02*
X21983D01*
X21992D01*
Y11464D01*
X22000D01*
X21983D01*
X21958D02*
Y11514D01*
X21925Y11464D01*
Y11514D01*
X21875Y11506D02*
X21883Y11514D01*
X21900D01*
X21908Y11506D01*
Y11473D01*
X21900Y11464D01*
X21883D01*
X21875Y11473D01*
X23257Y11426D02*
Y11376D01*
X23224D01*
X23207D02*
Y11410D01*
X23190Y11426D01*
X23174Y11410D01*
Y11376D01*
Y11401D01*
X23207D01*
X23157Y11376D02*
Y11426D01*
X23140Y11410D01*
X23124Y11426D01*
Y11376D01*
X23107Y11426D02*
Y11376D01*
X23082D01*
X23074Y11385D01*
Y11393D01*
X23082Y11401D01*
X23107D01*
X23082D01*
X23074Y11410D01*
Y11418D01*
X23082Y11426D01*
X23107D01*
X23024D02*
X23057D01*
Y11376D01*
X23024D01*
X23057Y11401D02*
X23041D01*
X23007Y11376D02*
Y11426D01*
X22982D01*
X22974Y11418D01*
Y11401D01*
X22982Y11393D01*
X23007D01*
X22991D02*
X22974Y11376D01*
X22957Y11426D02*
X22924D01*
X22941D01*
Y11376D01*
X22824Y11418D02*
X22832Y11426D01*
X22849D01*
X22857Y11418D01*
Y11385D01*
X22849Y11376D01*
X22832D01*
X22824Y11385D01*
X22782Y11426D02*
X22799D01*
X22807Y11418D01*
Y11385D01*
X22799Y11376D01*
X22782D01*
X22774Y11385D01*
Y11418D01*
X22782Y11426D01*
X22757Y11376D02*
Y11426D01*
X22724Y11376D01*
Y11426D01*
X22707D02*
X22674D01*
X22691D01*
Y11376D01*
X22657D02*
Y11426D01*
X22632D01*
X22624Y11418D01*
Y11401D01*
X22632Y11393D01*
X22657D01*
X22641D02*
X22624Y11376D01*
X22582Y11426D02*
X22599D01*
X22607Y11418D01*
Y11385D01*
X22599Y11376D01*
X22582D01*
X22574Y11385D01*
Y11418D01*
X22582Y11426D01*
X22557D02*
Y11376D01*
X22524D01*
X22507Y11426D02*
Y11376D01*
X22474D01*
X22424Y11426D02*
X22457D01*
Y11376D01*
X22424D01*
X22457Y11401D02*
X22441D01*
X22407Y11376D02*
Y11426D01*
X22382D01*
X22374Y11418D01*
Y11401D01*
X22382Y11393D01*
X22407D01*
X22391D02*
X22374Y11376D01*
X22349Y11368D02*
X22341Y11376D01*
Y11385D01*
X22349D01*
Y11376D01*
X22341D01*
X22349Y11368D01*
X22357Y11360D01*
X22232Y11426D02*
X22249D01*
X22257Y11418D01*
Y11385D01*
X22249Y11376D01*
X22232D01*
X22224Y11385D01*
Y11418D01*
X22232Y11426D01*
X22207Y11376D02*
Y11385D01*
X22199D01*
Y11376D01*
X22207D01*
X22141D02*
Y11426D01*
X22166Y11401D01*
X22132D01*
X22116Y11376D02*
Y11410D01*
X22107D01*
X22099Y11401D01*
Y11376D01*
Y11401D01*
X22091Y11410D01*
X22082Y11401D01*
Y11376D01*
X21966D02*
Y11426D01*
X21941D01*
X21933Y11418D01*
Y11401D01*
X21941Y11393D01*
X21966D01*
X21949D02*
X21933Y11376D01*
X21883Y11426D02*
X21916D01*
Y11376D01*
X21883D01*
X21916Y11401D02*
X21899D01*
X21866Y11426D02*
Y11393D01*
X21849Y11376D01*
X21833Y11393D01*
Y11426D01*
X21816Y11376D02*
Y11385D01*
X21808D01*
Y11376D01*
X21816D01*
X21724Y11426D02*
Y11376D01*
X21699D01*
X21691Y11385D01*
Y11393D01*
X21699Y11401D01*
X21724D01*
X21699D01*
X21691Y11410D01*
Y11418D01*
X21699Y11426D01*
X21724D01*
D51*
X23702Y12916D02*
X23801Y12818D01*
X23669Y12916D02*
X23702D01*
X22505Y14301D02*
Y14351D01*
X22365Y14450D02*
X22366Y14451D01*
X22505D01*
X22502Y14555D02*
X22505Y14551D01*
X22502Y14555D02*
Y14624D01*
X22258Y14893D02*
X22260Y14895D01*
X22238Y14721D02*
X22258Y14741D01*
X22230Y14181D02*
X22258D01*
X21920Y14221D02*
X21960Y14181D01*
X22002D01*
X22070Y14741D02*
X22100Y14711D01*
X22002Y14741D02*
X22070D01*
X23669Y12916D02*
Y12977D01*
X23170Y12917D02*
X23250D01*
X23169Y12918D02*
X23170Y12917D01*
X22829Y14436D02*
X22867Y14474D01*
X22829Y13306D02*
X22832Y13303D01*
Y12558D02*
Y13303D01*
X22828Y12554D02*
X22832Y12558D01*
X22407Y12495D02*
X22488D01*
X21799Y12508D02*
Y12555D01*
X21789Y13747D02*
Y13817D01*
Y13747D02*
X21789Y13746D01*
X21595D02*
X21601Y13752D01*
X21595Y14426D02*
Y14600D01*
X21601Y13752D02*
Y14420D01*
X21595Y14426D02*
X21601Y14420D01*
X21595Y14600D02*
X21597Y14602D01*
X22829Y13306D02*
Y13746D01*
Y14436D01*
D52*
X20279Y9600D02*
Y9555D01*
X20260Y9589D02*
X20298Y9566D01*
Y9589D02*
X20260Y9566D01*
X20318Y9528D02*
X20315Y9524D01*
X20318Y9520D01*
X20322Y9524D01*
X20318Y9528D01*
X20397Y9581D02*
X20393Y9589D01*
X20385Y9597D01*
X20378Y9600D01*
X20363D01*
X20355Y9597D01*
X20347Y9589D01*
X20344Y9581D01*
X20340Y9570D01*
Y9551D01*
X20344Y9540D01*
X20347Y9532D01*
X20355Y9524D01*
X20363Y9520D01*
X20378D01*
X20385Y9524D01*
X20393Y9532D01*
X20397Y9540D01*
Y9551D01*
X20378D02*
X20397D01*
X20415Y9600D02*
Y9520D01*
Y9600D02*
X20449D01*
X20461Y9597D01*
X20465Y9593D01*
X20468Y9585D01*
Y9578D01*
X20465Y9570D01*
X20461Y9566D01*
X20449Y9562D01*
X20415D02*
X20449D01*
X20461Y9559D01*
X20465Y9555D01*
X20468Y9547D01*
Y9536D01*
X20465Y9528D01*
X20461Y9524D01*
X20449Y9520D01*
X20415D01*
X20486Y9600D02*
Y9520D01*
X20532D01*
X20604Y9555D02*
X20672D01*
X20759Y9600D02*
Y9520D01*
Y9600D02*
X20793D01*
X20804Y9597D01*
X20808Y9593D01*
X20812Y9585D01*
Y9578D01*
X20808Y9570D01*
X20804Y9566D01*
X20793Y9562D01*
X20759D02*
X20793D01*
X20804Y9559D01*
X20808Y9555D01*
X20812Y9547D01*
Y9536D01*
X20808Y9528D01*
X20804Y9524D01*
X20793Y9520D01*
X20759D01*
X20853Y9600D02*
X20845Y9597D01*
X20838Y9589D01*
X20834Y9581D01*
X20830Y9570D01*
Y9551D01*
X20834Y9540D01*
X20838Y9532D01*
X20845Y9524D01*
X20853Y9520D01*
X20868D01*
X20876Y9524D01*
X20883Y9532D01*
X20887Y9540D01*
X20891Y9551D01*
Y9570D01*
X20887Y9581D01*
X20883Y9589D01*
X20876Y9597D01*
X20868Y9600D01*
X20853D01*
X20936D02*
Y9520D01*
X20909Y9600D02*
X20963D01*
X20999D02*
Y9520D01*
X20972Y9600D02*
X21026D01*
X21058D02*
X21050Y9597D01*
X21043Y9589D01*
X21039Y9581D01*
X21035Y9570D01*
Y9551D01*
X21039Y9540D01*
X21043Y9532D01*
X21050Y9524D01*
X21058Y9520D01*
X21073D01*
X21081Y9524D01*
X21088Y9532D01*
X21092Y9540D01*
X21096Y9551D01*
Y9570D01*
X21092Y9581D01*
X21088Y9589D01*
X21081Y9597D01*
X21073Y9600D01*
X21058D01*
X21115D02*
Y9520D01*
Y9600D02*
X21145Y9520D01*
X21176Y9600D02*
X21145Y9520D01*
X21176Y9600D02*
Y9520D01*
X21261Y9600D02*
Y9520D01*
X21307D01*
X21377D02*
X21346Y9600D01*
X21316Y9520D01*
X21327Y9547D02*
X21365D01*
X21395Y9600D02*
X21426Y9562D01*
Y9520D01*
X21456Y9600D02*
X21426Y9562D01*
X21516Y9600D02*
X21467D01*
Y9520D01*
X21516D01*
X21467Y9562D02*
X21497D01*
X21530Y9600D02*
Y9520D01*
Y9600D02*
X21564D01*
X21575Y9597D01*
X21579Y9593D01*
X21583Y9585D01*
Y9578D01*
X21579Y9570D01*
X21575Y9566D01*
X21564Y9562D01*
X21530D01*
X21556D02*
X21583Y9520D01*
X21721Y9581D02*
X21717Y9589D01*
X21709Y9597D01*
X21702Y9600D01*
X21686D01*
X21679Y9597D01*
X21671Y9589D01*
X21667Y9581D01*
X21664Y9570D01*
Y9551D01*
X21667Y9540D01*
X21671Y9532D01*
X21679Y9524D01*
X21686Y9520D01*
X21702D01*
X21709Y9524D01*
X21717Y9532D01*
X21721Y9540D01*
Y9551D01*
X21702D02*
X21721D01*
X21789Y9600D02*
X21739D01*
Y9520D01*
X21789D01*
X21739Y9562D02*
X21769D01*
X21802Y9600D02*
Y9520D01*
Y9600D02*
X21836D01*
X21848Y9597D01*
X21851Y9593D01*
X21855Y9585D01*
Y9578D01*
X21851Y9570D01*
X21848Y9566D01*
X21836Y9562D01*
X21802D01*
X21829D02*
X21855Y9520D01*
X21873Y9600D02*
Y9520D01*
Y9600D02*
X21907D01*
X21919Y9597D01*
X21923Y9593D01*
X21926Y9585D01*
Y9578D01*
X21923Y9570D01*
X21919Y9566D01*
X21907Y9562D01*
X21873D02*
X21907D01*
X21919Y9559D01*
X21923Y9555D01*
X21926Y9547D01*
Y9536D01*
X21923Y9528D01*
X21919Y9524D01*
X21907Y9520D01*
X21873D01*
X21994Y9600D02*
X21944D01*
Y9520D01*
X21994D01*
X21944Y9562D02*
X21975D01*
X22007Y9600D02*
Y9520D01*
Y9600D02*
X22041D01*
X22053Y9597D01*
X22057Y9593D01*
X22060Y9585D01*
Y9578D01*
X22057Y9570D01*
X22053Y9566D01*
X22041Y9562D01*
X22007D01*
X22034D02*
X22060Y9520D01*
X22141Y9600D02*
Y9520D01*
Y9600D02*
X22168D01*
X22179Y9597D01*
X22187Y9589D01*
X22191Y9581D01*
X22195Y9570D01*
Y9551D01*
X22191Y9540D01*
X22187Y9532D01*
X22179Y9524D01*
X22168Y9520D01*
X22141D01*
X22273D02*
X22243Y9600D01*
X22212Y9520D01*
X22224Y9547D02*
X22262D01*
X22319Y9600D02*
Y9520D01*
X22292Y9600D02*
X22345D01*
X22416Y9520D02*
X22385Y9600D01*
X22355Y9520D01*
X22366Y9547D02*
X22404D01*
D53*
X24726Y15436D02*
X25226D01*
X24976Y15186D02*
Y15686D01*
X24926Y15486D02*
X24926Y15436D01*
X24926Y15486D02*
X24976Y15486D01*
X25026Y15436D02*
X25026Y15386D01*
X24976Y15386D02*
X25026Y15386D01*
X24981Y15431D02*
X25021D01*
Y15391D02*
Y15431D01*
X24981Y15391D02*
X25021D01*
X24981D02*
Y15431D01*
X24986Y15426D02*
X25016D01*
Y15396D02*
Y15426D01*
X24986Y15396D02*
X25016D01*
X24986D02*
Y15421D01*
X24991D02*
X25011D01*
X25011Y15401D01*
X24991Y15401D02*
X25011Y15401D01*
X24991Y15401D02*
Y15416D01*
X24996Y15416D02*
X25006Y15416D01*
Y15406D02*
Y15416D01*
X24996Y15406D02*
X25006D01*
X24996D02*
X24996Y15416D01*
Y15411D02*
X25006D01*
X24931Y15481D02*
X24971D01*
Y15441D02*
Y15481D01*
X24931Y15441D02*
X24971D01*
X24931D02*
Y15481D01*
X24936Y15476D02*
X24966D01*
Y15446D02*
Y15476D01*
X24936Y15446D02*
X24966D01*
X24936D02*
Y15471D01*
X24941D02*
X24961Y15471D01*
Y15451D02*
Y15471D01*
X24941Y15451D02*
X24961D01*
X24941D02*
Y15466D01*
X24946D02*
X24956D01*
X24956Y15456D02*
X24956Y15466D01*
X24946Y15456D02*
X24956Y15456D01*
X24946Y15456D02*
Y15466D01*
Y15461D02*
X24956D01*
X18250Y15444D02*
X18750D01*
X18500Y15194D02*
Y15694D01*
X18450Y15494D02*
X18450Y15444D01*
X18450Y15494D02*
X18500Y15494D01*
X18550Y15444D02*
X18550Y15394D01*
X18500Y15394D02*
X18550Y15394D01*
X18505Y15439D02*
X18545D01*
Y15399D02*
Y15439D01*
X18505Y15399D02*
X18545D01*
X18505D02*
Y15439D01*
X18510Y15434D02*
X18540D01*
Y15404D02*
Y15434D01*
X18510Y15404D02*
X18540D01*
X18510D02*
Y15429D01*
X18515D02*
X18535D01*
X18535Y15409D01*
X18515Y15409D02*
X18535Y15409D01*
X18515Y15409D02*
Y15424D01*
X18520Y15424D02*
X18530Y15424D01*
Y15414D02*
Y15424D01*
X18520Y15414D02*
X18530D01*
X18520D02*
X18520Y15424D01*
Y15419D02*
X18530D01*
X18455Y15489D02*
X18495D01*
Y15449D02*
Y15489D01*
X18455Y15449D02*
X18495D01*
X18455D02*
Y15489D01*
X18460Y15484D02*
X18490D01*
Y15454D02*
Y15484D01*
X18460Y15454D02*
X18490D01*
X18460D02*
Y15479D01*
X18465D02*
X18485Y15479D01*
Y15459D02*
Y15479D01*
X18465Y15459D02*
X18485D01*
X18465D02*
Y15474D01*
X18470D02*
X18480D01*
X18480Y15464D02*
X18480Y15474D01*
X18470Y15464D02*
X18480Y15464D01*
X18470Y15464D02*
Y15474D01*
Y15469D02*
X18480D01*
X18407Y9927D02*
X18907D01*
X18657Y9677D02*
Y10177D01*
X18607Y9977D02*
X18607Y9927D01*
X18607Y9977D02*
X18657Y9977D01*
X18707Y9927D02*
X18707Y9877D01*
X18657Y9877D02*
X18707Y9877D01*
X18662Y9922D02*
X18702D01*
Y9882D02*
Y9922D01*
X18662Y9882D02*
X18702D01*
X18662D02*
Y9922D01*
X18667Y9917D02*
X18697D01*
Y9887D02*
Y9917D01*
X18667Y9887D02*
X18697D01*
X18667D02*
Y9912D01*
X18672D02*
X18692D01*
X18692Y9892D01*
X18672Y9892D02*
X18692Y9892D01*
X18672Y9892D02*
Y9907D01*
X18677Y9907D02*
X18687Y9907D01*
Y9897D02*
Y9907D01*
X18677Y9897D02*
X18687D01*
X18677D02*
X18677Y9907D01*
Y9902D02*
X18687D01*
X18612Y9972D02*
X18652D01*
Y9932D02*
Y9972D01*
X18612Y9932D02*
X18652D01*
X18612D02*
Y9972D01*
X18617Y9967D02*
X18647D01*
Y9937D02*
Y9967D01*
X18617Y9937D02*
X18647D01*
X18617D02*
Y9962D01*
X18622D02*
X18642Y9962D01*
Y9942D02*
Y9962D01*
X18622Y9942D02*
X18642D01*
X18622D02*
Y9957D01*
X18627D02*
X18637D01*
X18637Y9947D02*
X18637Y9957D01*
X18627Y9947D02*
X18637Y9947D01*
X18627Y9947D02*
Y9957D01*
Y9952D02*
X18637D01*
D54*
X20532Y9948D02*
Y9868D01*
X20578D01*
X20648D02*
X20617Y9948D01*
X20587Y9868D01*
X20598Y9895D02*
X20636D01*
X20720Y9937D02*
X20712Y9944D01*
X20700Y9948D01*
X20685D01*
X20674Y9944D01*
X20666Y9937D01*
Y9929D01*
X20670Y9921D01*
X20674Y9918D01*
X20681Y9914D01*
X20704Y9906D01*
X20712Y9902D01*
X20716Y9899D01*
X20720Y9891D01*
Y9879D01*
X20712Y9872D01*
X20700Y9868D01*
X20685D01*
X20674Y9872D01*
X20666Y9879D01*
X20857Y9929D02*
X20854Y9937D01*
X20846Y9944D01*
X20838Y9948D01*
X20823D01*
X20816Y9944D01*
X20808Y9937D01*
X20804Y9929D01*
X20800Y9918D01*
Y9899D01*
X20804Y9887D01*
X20808Y9879D01*
X20816Y9872D01*
X20823Y9868D01*
X20838D01*
X20846Y9872D01*
X20854Y9879D01*
X20857Y9887D01*
X20880Y9948D02*
Y9891D01*
X20884Y9879D01*
X20891Y9872D01*
X20903Y9868D01*
X20910D01*
X20922Y9872D01*
X20929Y9879D01*
X20933Y9891D01*
Y9948D01*
X20955D02*
Y9868D01*
Y9948D02*
X20986Y9868D01*
X21016Y9948D02*
X20986Y9868D01*
X21016Y9948D02*
Y9868D01*
X21039Y9948D02*
Y9868D01*
Y9948D02*
X21073D01*
X21085Y9944D01*
X21089Y9940D01*
X21092Y9933D01*
Y9925D01*
X21089Y9918D01*
X21085Y9914D01*
X21073Y9910D01*
X21039D02*
X21073D01*
X21085Y9906D01*
X21089Y9902D01*
X21092Y9895D01*
Y9883D01*
X21089Y9876D01*
X21085Y9872D01*
X21073Y9868D01*
X21039D01*
X21110Y9948D02*
Y9868D01*
Y9948D02*
X21145D01*
X21156Y9944D01*
X21160Y9940D01*
X21164Y9933D01*
Y9925D01*
X21160Y9918D01*
X21156Y9914D01*
X21145Y9910D01*
X21110D01*
X21137D02*
X21164Y9868D01*
X21231Y9948D02*
X21182D01*
Y9868D01*
X21231D01*
X21182Y9910D02*
X21212D01*
X21298Y9937D02*
X21290Y9944D01*
X21279Y9948D01*
X21263D01*
X21252Y9944D01*
X21244Y9937D01*
Y9929D01*
X21248Y9921D01*
X21252Y9918D01*
X21260Y9914D01*
X21282Y9906D01*
X21290Y9902D01*
X21294Y9899D01*
X21298Y9891D01*
Y9879D01*
X21290Y9872D01*
X21279Y9868D01*
X21263D01*
X21252Y9872D01*
X21244Y9879D01*
X21401Y9948D02*
X21394Y9944D01*
X21386Y9937D01*
X21382Y9929D01*
X21378Y9918D01*
Y9899D01*
X21382Y9887D01*
X21386Y9879D01*
X21394Y9872D01*
X21401Y9868D01*
X21417D01*
X21424Y9872D01*
X21432Y9879D01*
X21436Y9887D01*
X21439Y9899D01*
Y9918D01*
X21436Y9929D01*
X21432Y9937D01*
X21424Y9944D01*
X21417Y9948D01*
X21401D01*
X21458D02*
Y9868D01*
Y9948D02*
X21492D01*
X21504Y9944D01*
X21508Y9940D01*
X21511Y9933D01*
Y9925D01*
X21508Y9918D01*
X21504Y9914D01*
X21492Y9910D01*
X21458D02*
X21492D01*
X21504Y9906D01*
X21508Y9902D01*
X21511Y9895D01*
Y9883D01*
X21508Y9876D01*
X21504Y9872D01*
X21492Y9868D01*
X21458D01*
X21583Y9937D02*
X21575Y9944D01*
X21564Y9948D01*
X21548D01*
X21537Y9944D01*
X21529Y9937D01*
Y9929D01*
X21533Y9921D01*
X21537Y9918D01*
X21544Y9914D01*
X21567Y9906D01*
X21575Y9902D01*
X21579Y9899D01*
X21583Y9891D01*
Y9879D01*
X21575Y9872D01*
X21564Y9868D01*
X21548D01*
X21537Y9872D01*
X21529Y9879D01*
X21650Y9948D02*
X21600D01*
Y9868D01*
X21650D01*
X21600Y9910D02*
X21631D01*
X21663Y9948D02*
Y9868D01*
Y9948D02*
X21698D01*
X21709Y9944D01*
X21713Y9940D01*
X21717Y9933D01*
Y9925D01*
X21713Y9918D01*
X21709Y9914D01*
X21698Y9910D01*
X21663D01*
X21690D02*
X21717Y9868D01*
X21735Y9948D02*
X21765Y9868D01*
X21795Y9948D02*
X21765Y9868D01*
X21867D02*
X21836Y9948D01*
X21806Y9868D01*
X21817Y9895D02*
X21855D01*
X21912Y9948D02*
Y9868D01*
X21885Y9948D02*
X21939D01*
X21971D02*
X21963Y9944D01*
X21956Y9937D01*
X21952Y9929D01*
X21948Y9918D01*
Y9899D01*
X21952Y9887D01*
X21956Y9879D01*
X21963Y9872D01*
X21971Y9868D01*
X21986D01*
X21994Y9872D01*
X22002Y9879D01*
X22005Y9887D01*
X22009Y9899D01*
Y9918D01*
X22005Y9929D01*
X22002Y9937D01*
X21994Y9944D01*
X21986Y9948D01*
X21971D01*
X22028D02*
Y9868D01*
Y9948D02*
X22062D01*
X22074Y9944D01*
X22077Y9940D01*
X22081Y9933D01*
Y9925D01*
X22077Y9918D01*
X22074Y9914D01*
X22062Y9910D01*
X22028D01*
X22054D02*
X22081Y9868D01*
X22099Y9948D02*
X22130Y9910D01*
Y9868D01*
X22160Y9948D02*
X22130Y9910D01*
X22484Y9933D02*
X22492Y9937D01*
X22504Y9948D01*
Y9868D01*
X22543Y9857D02*
X22596Y9948D01*
X22606Y9929D02*
Y9933D01*
X22609Y9940D01*
X22613Y9944D01*
X22621Y9948D01*
X22636D01*
X22644Y9944D01*
X22647Y9940D01*
X22651Y9933D01*
Y9925D01*
X22647Y9918D01*
X22640Y9906D01*
X22602Y9868D01*
X22655D01*
X22719Y9937D02*
X22715Y9944D01*
X22703Y9948D01*
X22696D01*
X22684Y9944D01*
X22677Y9933D01*
X22673Y9914D01*
Y9895D01*
X22677Y9879D01*
X22684Y9872D01*
X22696Y9868D01*
X22700D01*
X22711Y9872D01*
X22719Y9879D01*
X22723Y9891D01*
Y9895D01*
X22719Y9906D01*
X22711Y9914D01*
X22700Y9918D01*
X22696D01*
X22684Y9914D01*
X22677Y9906D01*
X22673Y9895D01*
X22740Y9857D02*
X22793Y9948D01*
X22803Y9929D02*
Y9933D01*
X22806Y9940D01*
X22810Y9944D01*
X22818Y9948D01*
X22833D01*
X22841Y9944D01*
X22844Y9940D01*
X22848Y9933D01*
Y9925D01*
X22844Y9918D01*
X22837Y9906D01*
X22799Y9868D01*
X22852D01*
X22893Y9948D02*
X22881Y9944D01*
X22874Y9933D01*
X22870Y9914D01*
Y9902D01*
X22874Y9883D01*
X22881Y9872D01*
X22893Y9868D01*
X22900D01*
X22912Y9872D01*
X22919Y9883D01*
X22923Y9902D01*
Y9914D01*
X22919Y9933D01*
X22912Y9944D01*
X22900Y9948D01*
X22893D01*
X22941Y9933D02*
X22949Y9937D01*
X22960Y9948D01*
Y9868D01*
X23023Y9948D02*
X23011Y9944D01*
X23004Y9933D01*
X23000Y9914D01*
Y9902D01*
X23004Y9883D01*
X23011Y9872D01*
X23023Y9868D01*
X23030D01*
X23042Y9872D01*
X23049Y9883D01*
X23053Y9902D01*
Y9914D01*
X23049Y9933D01*
X23042Y9944D01*
X23030Y9948D01*
X23023D01*
D55*
X20532Y10098D02*
Y10018D01*
X20578D01*
X20648D02*
X20617Y10098D01*
X20587Y10018D01*
X20598Y10045D02*
X20636D01*
X20666Y10098D02*
Y10018D01*
Y10098D02*
X20697Y10018D01*
X20727Y10098D02*
X20697Y10018D01*
X20727Y10098D02*
Y10018D01*
X20750Y10098D02*
Y10018D01*
Y10098D02*
X20784D01*
X20796Y10094D01*
X20800Y10090D01*
X20803Y10083D01*
Y10075D01*
X20800Y10068D01*
X20796Y10064D01*
X20784Y10060D01*
X20750D02*
X20784D01*
X20796Y10056D01*
X20800Y10052D01*
X20803Y10045D01*
Y10033D01*
X20800Y10026D01*
X20796Y10022D01*
X20784Y10018D01*
X20750D01*
X20871Y10098D02*
X20821D01*
Y10018D01*
X20871D01*
X20821Y10060D02*
X20852D01*
X20884Y10098D02*
Y10018D01*
Y10098D02*
X20918D01*
X20930Y10094D01*
X20934Y10090D01*
X20937Y10083D01*
Y10075D01*
X20934Y10068D01*
X20930Y10064D01*
X20918Y10060D01*
X20884D01*
X20911D02*
X20937Y10018D01*
X20982Y10098D02*
Y10018D01*
X20955Y10098D02*
X21009D01*
X21138Y10079D02*
X21134Y10087D01*
X21127Y10094D01*
X21119Y10098D01*
X21104D01*
X21096Y10094D01*
X21089Y10087D01*
X21085Y10079D01*
X21081Y10068D01*
Y10049D01*
X21085Y10037D01*
X21089Y10029D01*
X21096Y10022D01*
X21104Y10018D01*
X21119D01*
X21127Y10022D01*
X21134Y10029D01*
X21138Y10037D01*
X21183Y10098D02*
X21176Y10094D01*
X21168Y10087D01*
X21164Y10079D01*
X21161Y10068D01*
Y10049D01*
X21164Y10037D01*
X21168Y10029D01*
X21176Y10022D01*
X21183Y10018D01*
X21199D01*
X21206Y10022D01*
X21214Y10029D01*
X21218Y10037D01*
X21222Y10049D01*
Y10068D01*
X21218Y10079D01*
X21214Y10087D01*
X21206Y10094D01*
X21199Y10098D01*
X21183D01*
X21240D02*
Y10018D01*
Y10098D02*
X21293Y10018D01*
Y10098D02*
Y10018D01*
X21342Y10098D02*
Y10018D01*
X21316Y10098D02*
X21369D01*
X21378D02*
Y10018D01*
Y10098D02*
X21413D01*
X21424Y10094D01*
X21428Y10090D01*
X21432Y10083D01*
Y10075D01*
X21428Y10068D01*
X21424Y10064D01*
X21413Y10060D01*
X21378D01*
X21405D02*
X21432Y10018D01*
X21473Y10098D02*
X21465Y10094D01*
X21457Y10087D01*
X21453Y10079D01*
X21450Y10068D01*
Y10049D01*
X21453Y10037D01*
X21457Y10029D01*
X21465Y10022D01*
X21473Y10018D01*
X21488D01*
X21495Y10022D01*
X21503Y10029D01*
X21507Y10037D01*
X21511Y10049D01*
Y10068D01*
X21507Y10079D01*
X21503Y10087D01*
X21495Y10094D01*
X21488Y10098D01*
X21473D01*
X21529D02*
Y10018D01*
X21575D01*
X21584Y10098D02*
Y10018D01*
X21629D01*
X21688Y10098D02*
X21638D01*
Y10018D01*
X21688D01*
X21638Y10060D02*
X21669D01*
X21701Y10098D02*
Y10018D01*
Y10098D02*
X21735D01*
X21747Y10094D01*
X21751Y10090D01*
X21754Y10083D01*
Y10075D01*
X21751Y10068D01*
X21747Y10064D01*
X21735Y10060D01*
X21701D01*
X21728D02*
X21754Y10018D01*
X21780Y10022D02*
X21776Y10018D01*
X21772Y10022D01*
X21776Y10026D01*
X21780Y10022D01*
Y10014D01*
X21776Y10007D01*
X21772Y10003D01*
X21883Y10098D02*
X21872Y10094D01*
X21864Y10083D01*
X21860Y10064D01*
Y10052D01*
X21864Y10033D01*
X21872Y10022D01*
X21883Y10018D01*
X21891D01*
X21902Y10022D01*
X21910Y10033D01*
X21914Y10052D01*
Y10064D01*
X21910Y10083D01*
X21902Y10094D01*
X21891Y10098D01*
X21883D01*
X21935Y10026D02*
X21931Y10022D01*
X21935Y10018D01*
X21939Y10022D01*
X21935Y10026D01*
X21995Y10098D02*
X21957Y10045D01*
X22014D01*
X21995Y10098D02*
Y10018D01*
X22028Y10071D02*
Y10018D01*
Y10056D02*
X22039Y10068D01*
X22047Y10071D01*
X22058D01*
X22066Y10068D01*
X22070Y10056D01*
Y10018D01*
Y10056D02*
X22081Y10068D01*
X22089Y10071D01*
X22100D01*
X22108Y10068D01*
X22112Y10056D01*
Y10018D01*
X22262Y10098D02*
Y10018D01*
Y10098D02*
X22297D01*
X22308Y10094D01*
X22312Y10090D01*
X22316Y10083D01*
Y10075D01*
X22312Y10068D01*
X22308Y10064D01*
X22297Y10060D01*
X22262D01*
X22289D02*
X22316Y10018D01*
X22334Y10049D02*
X22379D01*
Y10056D01*
X22376Y10064D01*
X22372Y10068D01*
X22364Y10071D01*
X22353D01*
X22345Y10068D01*
X22337Y10060D01*
X22334Y10049D01*
Y10041D01*
X22337Y10029D01*
X22345Y10022D01*
X22353Y10018D01*
X22364D01*
X22372Y10022D01*
X22379Y10029D01*
X22396Y10071D02*
X22419Y10018D01*
X22442Y10071D02*
X22419Y10018D01*
X22459Y10026D02*
X22455Y10022D01*
X22459Y10018D01*
X22463Y10022D01*
X22459Y10026D01*
X22543Y10098D02*
Y10018D01*
Y10098D02*
X22577D01*
X22589Y10094D01*
X22593Y10090D01*
X22596Y10083D01*
Y10075D01*
X22593Y10068D01*
X22589Y10064D01*
X22577Y10060D01*
X22543D02*
X22577D01*
X22589Y10056D01*
X22593Y10052D01*
X22596Y10045D01*
Y10033D01*
X22593Y10026D01*
X22589Y10022D01*
X22577Y10018D01*
X22543D01*
D56*
X20657Y14498D02*
D03*
Y14298D02*
D03*
Y13998D02*
D03*
X20457Y14198D02*
D03*
Y14298D02*
D03*
Y14098D02*
D03*
Y13998D02*
D03*
X20657Y14098D02*
D03*
Y14198D02*
D03*
D57*
X20457Y14498D02*
D03*
D58*
X22969Y13093D02*
D03*
X23169D02*
D03*
D59*
X23518Y13676D02*
D03*
X23671Y13626D02*
D03*
X23518Y13576D02*
D03*
X23671Y13526D02*
D03*
X23518Y13476D02*
D03*
X23671Y13426D02*
D03*
X23518Y13376D02*
D03*
D60*
X21425Y14490D02*
D03*
X21386D02*
D03*
X21346D02*
D03*
Y14451D02*
D03*
X21386D02*
D03*
X21425D02*
D03*
D61*
X21602Y11700D02*
D03*
X21502D02*
D03*
X21602Y11800D02*
D03*
X21502D02*
D03*
X21602Y11900D02*
D03*
X21502D02*
D03*
X21602Y12000D02*
D03*
X21502D02*
D03*
X21602Y12100D02*
D03*
X21502D02*
D03*
X21602Y12200D02*
D03*
X21502D02*
D03*
X21602Y12300D02*
D03*
X21502D02*
D03*
X21602Y12400D02*
D03*
X21502D02*
D03*
X21602Y12500D02*
D03*
X21502D02*
D03*
X21602Y12600D02*
D03*
X20228Y12144D02*
D03*
X20328Y12244D02*
D03*
X20228D02*
D03*
X20328Y12344D02*
D03*
X20228D02*
D03*
X20328Y12444D02*
D03*
X20228D02*
D03*
X20328Y12544D02*
D03*
X20228D02*
D03*
X20328Y12644D02*
D03*
X20228D02*
D03*
X20328Y12744D02*
D03*
X20228D02*
D03*
D62*
X21502Y12600D02*
D03*
X20328Y12144D02*
D03*
D63*
X23907Y13005D02*
D03*
Y12531D02*
D03*
D64*
X23801Y12818D02*
D03*
Y12719D02*
D03*
X23702D02*
D03*
Y12818D02*
D03*
X19612Y13674D02*
D03*
Y13083D02*
D03*
X19770D02*
D03*
Y13674D02*
D03*
X19612Y12283D02*
D03*
Y12874D02*
D03*
X19770D02*
D03*
Y12283D02*
D03*
X19612Y12067D02*
D03*
Y11477D02*
D03*
X19770D02*
D03*
Y12067D02*
D03*
D65*
X24102Y13243D02*
D03*
Y13393D02*
D03*
Y13543D02*
D03*
Y13693D02*
D03*
Y13843D02*
D03*
Y13993D02*
D03*
Y14143D02*
D03*
Y14293D02*
D03*
Y14443D02*
D03*
Y14593D02*
D03*
Y14743D02*
D03*
X19612Y13378D02*
D03*
X19770D02*
D03*
X19839Y13448D02*
D03*
X19700D02*
D03*
Y13309D02*
D03*
X19839D02*
D03*
X19612Y12578D02*
D03*
X19770D02*
D03*
X19839Y12509D02*
D03*
X19700D02*
D03*
Y12648D02*
D03*
X19839D02*
D03*
X19612Y11772D02*
D03*
X19770D02*
D03*
X19839Y11842D02*
D03*
X19700D02*
D03*
Y11703D02*
D03*
X19839D02*
D03*
D66*
X24102Y14893D02*
D03*
D67*
X19864Y13908D02*
D03*
Y14888D02*
D03*
D68*
X19964Y14231D02*
D03*
D69*
X19764D02*
D03*
X19864Y14186D02*
D03*
X19764Y14321D02*
D03*
X19864Y14276D02*
D03*
X19964Y14321D02*
D03*
X19764Y14411D02*
D03*
X19864Y14366D02*
D03*
X19964Y14411D02*
D03*
X19764Y14501D02*
D03*
X19864Y14456D02*
D03*
X19964Y14501D02*
D03*
X19764Y14591D02*
D03*
X19864Y14546D02*
D03*
X19964Y14591D02*
D03*
D70*
X23363Y12945D02*
D03*
X23407D02*
D03*
X23450D02*
D03*
X23407Y12897D02*
D03*
X23364D02*
D03*
X23450D02*
D03*
Y12854D02*
D03*
X23407D02*
D03*
X23364D02*
D03*
D71*
X23514Y11953D02*
D03*
X23554Y12109D02*
D03*
X20044Y14411D02*
D03*
X20912Y13897D02*
D03*
X22577Y13186D02*
D03*
X20526Y14528D02*
D03*
X20841Y14034D02*
D03*
X20840Y13902D02*
D03*
X20597Y14326D02*
D03*
X20162Y14306D02*
D03*
X20586Y13923D02*
D03*
X20332Y13870D02*
D03*
X20295Y14339D02*
D03*
X20351Y14143D02*
D03*
X20196Y14152D02*
D03*
X20202Y14397D02*
D03*
X20351Y13947D02*
D03*
X20531Y14321D02*
D03*
X20513Y13844D02*
D03*
X20114Y14206D02*
D03*
X20073Y14437D02*
D03*
X20344Y14430D02*
D03*
X20294Y14248D02*
D03*
X20194Y14348D02*
D03*
X20034Y14308D02*
D03*
X20204Y14258D02*
D03*
X20407Y14338D02*
D03*
X20434Y14378D02*
D03*
X20154Y14858D02*
D03*
X20275Y14034D02*
D03*
X21958Y13111D02*
D03*
X20229D02*
D03*
X22032Y11925D02*
D03*
X21765Y11896D02*
D03*
X21847Y12954D02*
D03*
X21925Y12785D02*
D03*
X21755Y12958D02*
D03*
X21790Y12632D02*
D03*
X21665Y12723D02*
D03*
X21566Y13484D02*
D03*
X21614Y12753D02*
D03*
X21611Y12793D02*
D03*
X21728Y13073D02*
D03*
X21727Y13123D02*
D03*
X21670Y13120D02*
D03*
X21244D02*
D03*
X21663Y13073D02*
D03*
X21418D02*
D03*
X20535Y13112D02*
D03*
X21457Y12994D02*
D03*
X20563Y13073D02*
D03*
X21478Y13025D02*
D03*
X21868Y12497D02*
D03*
X21889Y12448D02*
D03*
X21841Y12785D02*
D03*
X21908Y12863D02*
D03*
X21645D02*
D03*
X21872Y13828D02*
D03*
X21208Y13897D02*
D03*
X21245Y13895D02*
D03*
X20458Y11733D02*
D03*
X20431Y11888D02*
D03*
X20086Y11693D02*
D03*
X20472Y11800D02*
D03*
X20369D02*
D03*
X20346Y11633D02*
D03*
X20287Y13168D02*
D03*
X20209Y11582D02*
D03*
X19964Y11533D02*
D03*
X20491Y11583D02*
D03*
X20542Y11458D02*
D03*
X20210Y11483D02*
D03*
X21738Y14304D02*
D03*
Y14361D02*
D03*
Y13414D02*
D03*
X22685Y13236D02*
D03*
X19593Y13498D02*
D03*
X20084Y11819D02*
D03*
X22115Y11833D02*
D03*
X19997Y11926D02*
D03*
X22092Y11855D02*
D03*
X21266Y12449D02*
D03*
Y11936D02*
D03*
X20126Y12030D02*
D03*
X21879Y11877D02*
D03*
X22114Y11879D02*
D03*
X22268Y11904D02*
D03*
X22103Y11743D02*
D03*
X22139Y11925D02*
D03*
X23389Y13042D02*
D03*
X23338Y11973D02*
D03*
X20506Y12000D02*
D03*
X21696Y11899D02*
D03*
X21697Y12016D02*
D03*
X22143Y12021D02*
D03*
X22410Y13169D02*
D03*
X22320Y12069D02*
D03*
X21054Y12017D02*
D03*
X22121Y12074D02*
D03*
X22297Y12115D02*
D03*
X23633Y12139D02*
D03*
X22073Y12097D02*
D03*
X21404Y12040D02*
D03*
X21403Y12199D02*
D03*
X21548Y12052D02*
D03*
X22133Y12121D02*
D03*
X21715Y12374D02*
D03*
Y12107D02*
D03*
X22263Y12164D02*
D03*
X21681Y12558D02*
D03*
X21682Y12209D02*
D03*
X21119Y12080D02*
D03*
X22078Y12140D02*
D03*
X21331Y12289D02*
D03*
X21330Y12175D02*
D03*
X21364Y12369D02*
D03*
X21363Y12219D02*
D03*
X22273Y12257D02*
D03*
X21392Y12407D02*
D03*
Y12259D02*
D03*
X22146Y12270D02*
D03*
X22082Y13680D02*
D03*
X22117Y12399D02*
D03*
X23039Y11943D02*
D03*
Y12229D02*
D03*
X23220Y12092D02*
D03*
Y12254D02*
D03*
X22764Y12235D02*
D03*
X23150Y11991D02*
D03*
X23148Y12212D02*
D03*
X22793Y12211D02*
D03*
X23006Y12047D02*
D03*
X22775Y12185D02*
D03*
X22547Y13540D02*
D03*
Y12022D02*
D03*
X23178Y11844D02*
D03*
X23179Y12188D02*
D03*
X22884Y12235D02*
D03*
X22888Y12093D02*
D03*
X23093Y12319D02*
D03*
Y12022D02*
D03*
X21841Y12422D02*
D03*
X20977Y12696D02*
D03*
X20930Y12628D02*
D03*
X20672Y12665D02*
D03*
X20848Y12538D02*
D03*
X20719Y12533D02*
D03*
X20675Y12506D02*
D03*
X20751Y12460D02*
D03*
X20665Y12370D02*
D03*
X20879Y12365D02*
D03*
X20825Y12226D02*
D03*
X21058Y12355D02*
D03*
X21149Y12232D02*
D03*
X21004Y12485D02*
D03*
X21136Y12524D02*
D03*
X20924Y12839D02*
D03*
X20936Y13349D02*
D03*
X21872Y13212D02*
D03*
X21864Y13311D02*
D03*
X22627Y12116D02*
D03*
X22592Y11979D02*
D03*
X22442Y12071D02*
D03*
X22356Y11984D02*
D03*
X22369Y12405D02*
D03*
X22348Y12164D02*
D03*
X22296Y12305D02*
D03*
X22039Y12164D02*
D03*
X22106Y12165D02*
D03*
X22145Y12305D02*
D03*
X21237Y14099D02*
D03*
X20199Y14845D02*
D03*
X20201Y14756D02*
D03*
X20753Y14889D02*
D03*
Y14711D02*
D03*
X21254Y14831D02*
D03*
X21299Y14686D02*
D03*
X20473Y14898D02*
D03*
X20431Y14899D02*
D03*
X20377Y14856D02*
D03*
X20623Y14787D02*
D03*
X20355Y14659D02*
D03*
X20678Y14772D02*
D03*
X22448Y13357D02*
D03*
X22309Y13275D02*
D03*
X22580Y13135D02*
D03*
X22268Y13227D02*
D03*
X22359Y13053D02*
D03*
X22457Y12989D02*
D03*
X20578Y13193D02*
D03*
X20581Y13348D02*
D03*
X20583Y13524D02*
D03*
X20578Y13683D02*
D03*
X20880Y13913D02*
D03*
X21372Y13908D02*
D03*
X21558Y13683D02*
D03*
X21547Y13445D02*
D03*
X21551Y13388D02*
D03*
X21549Y13230D02*
D03*
X21565Y12928D02*
D03*
X21114Y13070D02*
D03*
X20940Y13066D02*
D03*
X20764D02*
D03*
X20898Y13508D02*
D03*
X20909Y13633D02*
D03*
X20727Y13732D02*
D03*
X21199Y13586D02*
D03*
X21307Y13613D02*
D03*
X21231Y13469D02*
D03*
X21226Y13326D02*
D03*
X21232Y13207D02*
D03*
X21157Y13240D02*
D03*
X20978Y13263D02*
D03*
X20891Y13160D02*
D03*
X20814Y13272D02*
D03*
X20803Y13063D02*
D03*
X20710Y13171D02*
D03*
X20713Y13507D02*
D03*
X20714Y13666D02*
D03*
X20860Y13771D02*
D03*
X21194Y13769D02*
D03*
X21354Y13754D02*
D03*
X21411Y13702D02*
D03*
X21419Y13467D02*
D03*
X21422Y13329D02*
D03*
X21413Y13207D02*
D03*
X21158Y13062D02*
D03*
X20978Y13082D02*
D03*
X21296Y14162D02*
D03*
X20991Y14192D02*
D03*
X21571Y14412D02*
D03*
X21521Y14217D02*
D03*
X21356Y14357D02*
D03*
X20841Y14227D02*
D03*
X23470Y14936D02*
D03*
X23620Y14791D02*
D03*
X23565Y14496D02*
D03*
X23490Y14101D02*
D03*
X23360Y14171D02*
D03*
X23340Y14281D02*
D03*
X23120Y14596D02*
D03*
X22505Y14301D02*
D03*
X23170Y14846D02*
D03*
X23225Y14606D02*
D03*
X23140Y14091D02*
D03*
X22855Y14101D02*
D03*
X22925Y14791D02*
D03*
X22565D02*
D03*
X22256Y14636D02*
D03*
X22420Y14159D02*
D03*
X22365Y14450D02*
D03*
X22502Y14624D02*
D03*
X22260Y14895D02*
D03*
X22100Y14641D02*
D03*
X22170Y14271D02*
D03*
X22150Y14201D02*
D03*
X21930Y14331D02*
D03*
X21920Y14221D02*
D03*
X22100Y14711D02*
D03*
X20600Y11831D02*
D03*
X20213Y11682D02*
D03*
X20777Y11515D02*
D03*
X20763Y11681D02*
D03*
X21023Y14891D02*
D03*
X20900Y14950D02*
D03*
X21180Y14869D02*
D03*
X21044Y14749D02*
D03*
X20894Y14690D02*
D03*
X20635Y14878D02*
D03*
X20560Y14899D02*
D03*
X20939Y14888D02*
D03*
X20867Y14908D02*
D03*
X21227Y14744D02*
D03*
X21716Y14896D02*
D03*
X21735Y14783D02*
D03*
X21419Y14700D02*
D03*
X21479Y14903D02*
D03*
X21336Y14933D02*
D03*
X21632Y14757D02*
D03*
X21591Y14916D02*
D03*
X21397Y14963D02*
D03*
X20194Y14608D02*
D03*
X23734Y13578D02*
D03*
X21696Y12160D02*
D03*
X21702Y12464D02*
D03*
X21298Y12139D02*
D03*
Y12331D02*
D03*
X21770Y12108D02*
D03*
X21769Y12301D02*
D03*
X21687Y12107D02*
D03*
X21798Y11998D02*
D03*
X21026Y11967D02*
D03*
X22017Y12107D02*
D03*
X22016Y12476D02*
D03*
X21420Y12472D02*
D03*
X21833Y11996D02*
D03*
X21832Y12369D02*
D03*
X22009Y11998D02*
D03*
X23430Y13054D02*
D03*
X21865Y11952D02*
D03*
X21819Y11640D02*
D03*
X21852Y11903D02*
D03*
Y11542D02*
D03*
X20900Y11810D02*
D03*
X20902Y12429D02*
D03*
X20859Y11734D02*
D03*
Y12065D02*
D03*
X21897Y12305D02*
D03*
X21844Y14057D02*
D03*
X22017Y13466D02*
D03*
X22359D02*
D03*
X22278Y12603D02*
D03*
X23774Y11533D02*
D03*
X23270Y11540D02*
D03*
X23509Y12038D02*
D03*
X23299Y11743D02*
D03*
X23169Y12918D02*
D03*
X23499Y12713D02*
D03*
X23507Y12781D02*
D03*
X23309Y12798D02*
D03*
X23174Y12828D02*
D03*
X23149Y12873D02*
D03*
X23244Y12543D02*
D03*
X23129Y12833D02*
D03*
X23224Y12658D02*
D03*
X21644Y11488D02*
D03*
X20374Y11538D02*
D03*
X22714Y11618D02*
D03*
X20019Y12508D02*
D03*
X20034Y12013D02*
D03*
X20399Y12198D02*
D03*
X20389Y13158D02*
D03*
X20474Y12993D02*
D03*
X20444Y13373D02*
D03*
X20389Y13418D02*
D03*
X20464Y13663D02*
D03*
X20074Y13698D02*
D03*
X20109Y13798D02*
D03*
X20179Y13748D02*
D03*
X20119Y13903D02*
D03*
X19754Y14048D02*
D03*
X20269Y13798D02*
D03*
X21004Y13753D02*
D03*
X20949Y14443D02*
D03*
X21644Y14043D02*
D03*
X23174Y12503D02*
D03*
X21254Y12683D02*
D03*
X20764Y12818D02*
D03*
X21139Y12403D02*
D03*
X21004Y12228D02*
D03*
X20919Y12238D02*
D03*
X20664Y12118D02*
D03*
X23099Y13313D02*
D03*
X22682Y13286D02*
D03*
X22574Y13083D02*
D03*
X22409Y13378D02*
D03*
X22074Y12749D02*
D03*
X22344Y13818D02*
D03*
X21929Y13828D02*
D03*
X21939Y13913D02*
D03*
X21859Y13913D02*
D03*
X21789Y14013D02*
D03*
X23769Y14853D02*
D03*
X21200Y12733D02*
D03*
X21199Y12893D02*
D03*
X23005Y12835D02*
D03*
X23170Y13444D02*
D03*
X21120Y12824D02*
D03*
X23051Y12815D02*
D03*
X23226Y13583D02*
D03*
X20958Y12241D02*
D03*
X21090Y12826D02*
D03*
X21095Y14592D02*
D03*
X20963Y12826D02*
D03*
X20663Y12877D02*
D03*
X20763Y14621D02*
D03*
X20785Y12711D02*
D03*
X20632Y12737D02*
D03*
X20767Y14413D02*
D03*
X20625Y12825D02*
D03*
X20572Y13742D02*
D03*
X22252Y12890D02*
D03*
Y13036D02*
D03*
X20343Y12842D02*
D03*
X20309Y14700D02*
D03*
X20605Y12204D02*
D03*
Y11726D02*
D03*
X20765Y12118D02*
D03*
X20816Y11817D02*
D03*
X21599Y12966D02*
D03*
X19872D02*
D03*
X24065Y13095D02*
D03*
X23924Y13188D02*
D03*
X21902Y13255D02*
D03*
X19973Y13215D02*
D03*
X22307Y13229D02*
D03*
X22866Y13790D02*
D03*
X22740Y13112D02*
D03*
X22573Y13380D02*
D03*
X22200Y13342D02*
D03*
X20740Y13583D02*
D03*
X22491Y13508D02*
D03*
X22653Y13527D02*
D03*
Y14938D02*
D03*
X22866Y14974D02*
D03*
X21436Y14079D02*
D03*
X21411Y14360D02*
D03*
X21575Y14306D02*
D03*
X20904Y14356D02*
D03*
X21124Y14465D02*
D03*
X20044Y14659D02*
D03*
X20811Y14909D02*
D03*
X20275Y14912D02*
D03*
Y14080D02*
D03*
X19927Y14690D02*
D03*
X21252Y14571D02*
D03*
X20421Y14569D02*
D03*
X19830Y14714D02*
D03*
X19978Y14783D02*
D03*
X19547Y12995D02*
D03*
X19861Y14110D02*
D03*
X20245D02*
D03*
X20244Y13572D02*
D03*
X22867Y14474D02*
D03*
X22828Y12554D02*
D03*
X22488Y12495D02*
D03*
X21799Y12555D02*
D03*
X21789Y13746D02*
D03*
X22829D02*
D03*
X21872Y13739D02*
D03*
X21595Y13746D02*
D03*
X21597Y14602D02*
D03*
X20178Y14085D02*
D03*
X21914Y14017D02*
D03*
X22066Y13811D02*
D03*
X21944Y13999D02*
D03*
X21047Y11548D02*
D03*
X22776Y12046D02*
D03*
X22812Y12021D02*
D03*
X21021Y12626D02*
D03*
X20847Y12627D02*
D03*
X22272Y12201D02*
D03*
X22294Y12228D02*
D03*
X20070Y11783D02*
D03*
X22007Y14012D02*
D03*
D72*
X20469Y14841D02*
D03*
X20982Y14824D02*
D03*
X21510Y14842D02*
D03*
D101*
X21545Y12855D02*
D03*
Y12805D02*
D03*
Y12755D02*
D03*
Y12705D02*
D03*
X21345Y12855D02*
D03*
Y12805D02*
D03*
Y12755D02*
D03*
Y12705D02*
D03*
X21794Y13172D02*
D03*
Y13122D02*
D03*
Y13072D02*
D03*
Y13022D02*
D03*
X21594Y13172D02*
D03*
Y13122D02*
D03*
Y13072D02*
D03*
Y13022D02*
D03*
D102*
X21108Y13572D02*
D03*
Y13682D02*
D03*
D103*
X22590Y14554D02*
D03*
Y14454D02*
D03*
Y14354D02*
D03*
D104*
X23715Y14229D02*
D03*
Y14679D02*
D03*
D105*
X22258Y14181D02*
D03*
X22002D02*
D03*
Y14741D02*
D03*
X22258D02*
D03*
D106*
X20461Y14786D02*
D03*
Y14656D02*
D03*
X20978Y14638D02*
D03*
Y14768D02*
D03*
X21508Y14652D02*
D03*
Y14782D02*
D03*
D107*
X20639Y14692D02*
D03*
Y14965D02*
D03*
X21685Y14964D02*
D03*
Y14691D02*
D03*
X21154Y14942D02*
D03*
Y14669D02*
D03*
D108*
X23008Y13311D02*
D03*
Y13791D02*
D03*
D109*
X20597Y14372D02*
D03*
X20559Y14471D02*
D03*
X20588Y13886D02*
D03*
X20550Y13985D02*
D03*
D110*
X20522Y14372D02*
D03*
X20513Y13886D02*
D03*
M02*
