%FSLAX23Y23*%
%MOIN*%
G70*
G01*
G75*
G04 Layer_Physical_Order=6*
G04 Layer_Color=16711680*
%ADD10R,0.050X0.050*%
%ADD11R,0.035X0.053*%
%ADD12R,0.053X0.053*%
%ADD13R,0.050X0.050*%
%ADD14R,0.070X0.135*%
%ADD15O,0.087X0.024*%
%ADD16R,0.135X0.070*%
%ADD17R,0.030X0.125*%
%ADD18R,0.078X0.048*%
%ADD19R,0.067X0.040*%
%ADD20R,0.037X0.035*%
%ADD21R,0.037X0.035*%
%ADD22R,0.065X0.012*%
%ADD23R,0.065X0.024*%
%ADD24R,0.075X0.063*%
%ADD25R,0.063X0.106*%
%ADD26R,0.150X0.110*%
%ADD27O,0.028X0.018*%
%ADD28R,0.067X0.067*%
%ADD29R,0.125X0.170*%
%ADD30R,0.110X0.030*%
%ADD31R,0.067X0.014*%
%ADD32O,0.083X0.012*%
%ADD33O,0.012X0.083*%
%ADD34R,0.138X0.085*%
%ADD35R,0.043X0.085*%
%ADD36R,0.043X0.085*%
%ADD37R,0.047X0.055*%
%ADD38O,0.012X0.071*%
%ADD39O,0.071X0.012*%
%ADD40R,0.075X0.059*%
%ADD41R,0.017X0.017*%
%ADD42R,0.134X0.134*%
%ADD43O,0.010X0.035*%
%ADD44O,0.035X0.010*%
%ADD45C,0.005*%
%ADD46C,0.010*%
%ADD47C,0.040*%
%ADD48C,0.020*%
%ADD49C,0.012*%
%ADD50C,0.008*%
%ADD51C,0.012*%
%ADD52C,0.012*%
%ADD53C,0.120*%
%ADD54C,0.060*%
%ADD55C,0.079*%
%ADD56C,0.087*%
%ADD57C,0.020*%
%ADD58C,0.059*%
%ADD59R,0.059X0.059*%
%ADD60C,0.080*%
%ADD61R,0.080X0.080*%
%ADD62C,0.157*%
%ADD63C,0.047*%
%ADD64R,0.087X0.087*%
%ADD65C,0.250*%
%ADD66R,0.062X0.062*%
%ADD67C,0.062*%
%ADD68C,0.030*%
%ADD69C,0.024*%
%ADD70C,0.028*%
%ADD71C,0.090*%
%ADD72C,0.050*%
%ADD73C,0.130*%
%ADD74C,0.103*%
%ADD75C,0.071*%
%ADD76C,0.030*%
%ADD77C,0.055*%
G04:AMPARAMS|DCode=78|XSize=100mil|YSize=100mil|CornerRadius=0mil|HoleSize=0mil|Usage=FLASHONLY|Rotation=0.000|XOffset=0mil|YOffset=0mil|HoleType=Round|Shape=Relief|Width=10mil|Gap=10mil|Entries=4|*
%AMTHD78*
7,0,0,0.100,0.080,0.010,45*
%
%ADD78THD78*%
%ADD79C,0.111*%
%ADD80C,0.056*%
%ADD81C,0.147*%
%ADD82C,0.044*%
%ADD83C,0.059*%
%ADD84C,0.048*%
%ADD85C,0.067*%
%ADD86C,0.140*%
%ADD87C,0.055*%
%ADD88C,0.036*%
G04:AMPARAMS|DCode=89|XSize=70mil|YSize=70mil|CornerRadius=0mil|HoleSize=0mil|Usage=FLASHONLY|Rotation=0.000|XOffset=0mil|YOffset=0mil|HoleType=Round|Shape=Relief|Width=10mil|Gap=10mil|Entries=4|*
%AMTHD89*
7,0,0,0.070,0.050,0.010,45*
%
%ADD89THD89*%
%ADD90C,0.033*%
G04:AMPARAMS|DCode=91|XSize=90mil|YSize=90mil|CornerRadius=0mil|HoleSize=0mil|Usage=FLASHONLY|Rotation=0.000|XOffset=0mil|YOffset=0mil|HoleType=Round|Shape=Relief|Width=10mil|Gap=10mil|Entries=4|*
%AMTHD91*
7,0,0,0.090,0.070,0.010,45*
%
%ADD91THD91*%
G04:AMPARAMS|DCode=92|XSize=111.181mil|YSize=111.181mil|CornerRadius=0mil|HoleSize=0mil|Usage=FLASHONLY|Rotation=0.000|XOffset=0mil|YOffset=0mil|HoleType=Round|Shape=Relief|Width=10mil|Gap=10mil|Entries=4|*
%AMTHD92*
7,0,0,0.111,0.091,0.010,45*
%
%ADD92THD92*%
G04:AMPARAMS|DCode=93|XSize=95.433mil|YSize=95.433mil|CornerRadius=0mil|HoleSize=0mil|Usage=FLASHONLY|Rotation=0.000|XOffset=0mil|YOffset=0mil|HoleType=Round|Shape=Relief|Width=10mil|Gap=10mil|Entries=4|*
%AMTHD93*
7,0,0,0.095,0.075,0.010,45*
%
%ADD93THD93*%
G04:AMPARAMS|DCode=94|XSize=150.551mil|YSize=150.551mil|CornerRadius=0mil|HoleSize=0mil|Usage=FLASHONLY|Rotation=0.000|XOffset=0mil|YOffset=0mil|HoleType=Round|Shape=Relief|Width=10mil|Gap=10mil|Entries=4|*
%AMTHD94*
7,0,0,0.151,0.131,0.010,45*
%
%ADD94THD94*%
G04:AMPARAMS|DCode=95|XSize=96.221mil|YSize=96.221mil|CornerRadius=0mil|HoleSize=0mil|Usage=FLASHONLY|Rotation=0.000|XOffset=0mil|YOffset=0mil|HoleType=Round|Shape=Relief|Width=10mil|Gap=10mil|Entries=4|*
%AMTHD95*
7,0,0,0.096,0.076,0.010,45*
%
%ADD95THD95*%
G04:AMPARAMS|DCode=96|XSize=107.244mil|YSize=107.244mil|CornerRadius=0mil|HoleSize=0mil|Usage=FLASHONLY|Rotation=0.000|XOffset=0mil|YOffset=0mil|HoleType=Round|Shape=Relief|Width=10mil|Gap=10mil|Entries=4|*
%AMTHD96*
7,0,0,0.107,0.087,0.010,45*
%
%ADD96THD96*%
G04:AMPARAMS|DCode=97|XSize=180mil|YSize=180mil|CornerRadius=0mil|HoleSize=0mil|Usage=FLASHONLY|Rotation=0.000|XOffset=0mil|YOffset=0mil|HoleType=Round|Shape=Relief|Width=10mil|Gap=10mil|Entries=4|*
%AMTHD97*
7,0,0,0.180,0.160,0.010,45*
%
%ADD97THD97*%
G04:AMPARAMS|DCode=98|XSize=95mil|YSize=95mil|CornerRadius=0mil|HoleSize=0mil|Usage=FLASHONLY|Rotation=0.000|XOffset=0mil|YOffset=0mil|HoleType=Round|Shape=Relief|Width=10mil|Gap=10mil|Entries=4|*
%AMTHD98*
7,0,0,0.095,0.075,0.010,45*
%
%ADD98THD98*%
G04:AMPARAMS|DCode=99|XSize=75.748mil|YSize=75.748mil|CornerRadius=0mil|HoleSize=0mil|Usage=FLASHONLY|Rotation=0.000|XOffset=0mil|YOffset=0mil|HoleType=Round|Shape=Relief|Width=10mil|Gap=10mil|Entries=4|*
%AMTHD99*
7,0,0,0.076,0.056,0.010,45*
%
%ADD99THD99*%
G04:AMPARAMS|DCode=100|XSize=73mil|YSize=73mil|CornerRadius=0mil|HoleSize=0mil|Usage=FLASHONLY|Rotation=0.000|XOffset=0mil|YOffset=0mil|HoleType=Round|Shape=Relief|Width=10mil|Gap=10mil|Entries=4|*
%AMTHD100*
7,0,0,0.073,0.053,0.010,45*
%
%ADD100THD100*%
%ADD101R,0.048X0.078*%
%ADD102R,0.200X0.040*%
%ADD103R,0.200X0.150*%
%ADD104R,0.106X0.150*%
%ADD105R,0.086X0.060*%
%ADD106R,0.130X0.094*%
%ADD107R,0.098X0.268*%
%ADD108R,0.035X0.037*%
%ADD109R,0.035X0.037*%
D10*
X19852Y10757D02*
D03*
Y10667D02*
D03*
X19739Y10968D02*
D03*
Y11058D02*
D03*
X20123Y10748D02*
D03*
Y10658D02*
D03*
X19729Y10853D02*
D03*
Y10763D02*
D03*
X19867Y10977D02*
D03*
Y11067D02*
D03*
X19368Y13205D02*
D03*
Y13295D02*
D03*
X20179Y11585D02*
D03*
Y11495D02*
D03*
X19789Y11665D02*
D03*
Y11575D02*
D03*
X19999Y11605D02*
D03*
Y11515D02*
D03*
X20379Y12005D02*
D03*
Y12095D02*
D03*
X20219Y12025D02*
D03*
Y12115D02*
D03*
X19879Y12025D02*
D03*
Y12115D02*
D03*
X19799Y12125D02*
D03*
Y12035D02*
D03*
X19888Y13257D02*
D03*
Y13167D02*
D03*
X20409Y13282D02*
D03*
Y13192D02*
D03*
X19199Y12433D02*
D03*
Y12343D02*
D03*
X19198Y12194D02*
D03*
Y12284D02*
D03*
X21028Y12300D02*
D03*
Y12210D02*
D03*
X20951Y12265D02*
D03*
Y12355D02*
D03*
X20886Y12263D02*
D03*
Y12353D02*
D03*
X19609Y12782D02*
D03*
Y12872D02*
D03*
X19611Y12464D02*
D03*
Y12374D02*
D03*
X20810Y12300D02*
D03*
Y12210D02*
D03*
X22271Y11310D02*
D03*
Y11220D02*
D03*
X21368Y10608D02*
D03*
Y10698D02*
D03*
X21433Y10608D02*
D03*
Y10698D02*
D03*
X21613Y10417D02*
D03*
Y10507D02*
D03*
X21127Y10608D02*
D03*
Y10698D02*
D03*
X21060Y10609D02*
D03*
Y10699D02*
D03*
X22479Y10436D02*
D03*
Y10346D02*
D03*
X21428Y10888D02*
D03*
Y10798D02*
D03*
X20820Y10901D02*
D03*
Y10811D02*
D03*
X21422Y10465D02*
D03*
Y10375D02*
D03*
D11*
X21028Y11195D02*
D03*
Y11281D02*
D03*
X21102D02*
D03*
D12*
X21095Y11195D02*
D03*
D13*
X20025Y10920D02*
D03*
X20115D02*
D03*
X19952Y11067D02*
D03*
X20042D02*
D03*
X20304Y11860D02*
D03*
X20394D02*
D03*
X20304Y11720D02*
D03*
X20394D02*
D03*
X20304Y11600D02*
D03*
X20394D02*
D03*
X19914Y11500D02*
D03*
X19824D02*
D03*
X19864Y11900D02*
D03*
X19774D02*
D03*
X20231Y12705D02*
D03*
X20141D02*
D03*
X20484Y13355D02*
D03*
X20574D02*
D03*
X19451Y13340D02*
D03*
X19541D02*
D03*
X19963Y13344D02*
D03*
X20053D02*
D03*
X22690Y11370D02*
D03*
X22600D02*
D03*
X22690Y11309D02*
D03*
X22600D02*
D03*
D18*
X20071Y12585D02*
D03*
X20181D02*
D03*
D23*
X21653Y11829D02*
D03*
Y11779D02*
D03*
Y11729D02*
D03*
Y11679D02*
D03*
Y11629D02*
D03*
Y11579D02*
D03*
Y11529D02*
D03*
Y11479D02*
D03*
X21380Y11829D02*
D03*
Y11779D02*
D03*
Y11729D02*
D03*
Y11679D02*
D03*
Y11629D02*
D03*
Y11579D02*
D03*
Y11529D02*
D03*
Y11479D02*
D03*
D34*
X20406Y12867D02*
D03*
D35*
X20316Y12623D02*
D03*
X20497D02*
D03*
D36*
X20406D02*
D03*
D45*
X22229Y9981D02*
X22228Y9991D01*
X22224Y10000D01*
X22218Y10007D01*
X22210Y10013D01*
X22200Y10016D01*
X22191Y10017D01*
X22181Y10015D01*
X22172Y10011D01*
X22165Y10004D01*
X22160Y9995D01*
X22157Y9986D01*
Y9976D01*
X22160Y9967D01*
X22165Y9958D01*
X22172Y9951D01*
X22181Y9947D01*
X22191Y9945D01*
X22200Y9946D01*
X22210Y9949D01*
X22218Y9955D01*
X22224Y9962D01*
X22228Y9971D01*
X22229Y9981D01*
X22183Y9965D02*
X22193Y9962D01*
X22203Y9965D01*
X22210Y9972D01*
X22212Y9982D01*
X22209Y9992D01*
X22201Y9999D01*
X22191Y10000D01*
X22181Y9996D01*
X19308Y10401D02*
Y11561D01*
X19105Y10793D02*
X19249Y10937D01*
X19105Y10212D02*
Y10793D01*
X19018Y10806D02*
X19249Y11037D01*
X19018Y10319D02*
Y10806D01*
X20287Y10329D02*
Y10842D01*
X19147Y10735D02*
X19249Y10837D01*
X19147Y10423D02*
Y10735D01*
X21124Y10136D02*
X21160Y10172D01*
Y10318D01*
X22410Y11435D02*
X22420Y11425D01*
Y11359D02*
Y11425D01*
Y10378D02*
Y11212D01*
X20718Y10293D02*
Y10409D01*
X21408Y11629D02*
X21431Y11606D01*
X21380Y11629D02*
X21408D01*
X21431Y11562D02*
Y11606D01*
X21419Y11550D02*
X21431Y11562D01*
X21358Y11511D02*
X21415D01*
X21299Y11451D02*
X21358Y11511D01*
X21419Y11514D02*
Y11550D01*
X21415Y11511D02*
X21419Y11514D01*
X21299Y10690D02*
X21337Y10652D01*
Y10467D02*
Y10652D01*
Y10467D02*
X21341Y10462D01*
X20424Y10434D02*
X20425Y10433D01*
X20424Y10434D02*
Y10592D01*
X20523Y10593D02*
X20569Y10547D01*
Y10445D02*
Y10547D01*
X20736Y10500D02*
Y10767D01*
X20702Y10951D02*
X20703Y10950D01*
Y10602D02*
Y10950D01*
X20351Y10681D02*
X20352Y10682D01*
X20351Y10568D02*
Y10681D01*
X20384Y10761D02*
X20385Y10762D01*
X20384Y10612D02*
Y10761D01*
X20413Y10652D02*
Y10800D01*
X22060Y10336D02*
Y10622D01*
X22241Y10485D02*
Y10647D01*
X22169Y10386D02*
X22171Y10384D01*
X22169Y10386D02*
Y10605D01*
X21568Y10415D02*
Y11933D01*
X22199Y10237D02*
X22200Y10238D01*
Y10581D01*
X22114Y10415D02*
Y10712D01*
X20858Y10811D02*
X20862Y10815D01*
X21127Y10698D02*
X21166D01*
X20129Y12075D02*
X20162D01*
X20167Y12080D01*
Y12099D01*
X19824Y11456D02*
Y11500D01*
X19742Y11575D02*
X19789D01*
X19731Y11564D02*
X19742Y11575D01*
X19734Y11900D02*
X19774D01*
X19759Y12035D02*
X19799D01*
X19735Y12059D02*
X19759Y12035D01*
X19881Y12117D02*
Y12164D01*
X20167Y12099D02*
X20187Y12119D01*
X20215D01*
Y12162D01*
X20375Y12147D02*
X20379Y12143D01*
Y12095D02*
Y12143D01*
Y12095D02*
X20432D01*
X20394Y11860D02*
X20440D01*
X20396Y11722D02*
X20443D01*
X20394Y11600D02*
X20434D01*
X20179Y11455D02*
Y11495D01*
X19999Y11475D02*
Y11515D01*
X20917Y10886D02*
Y11262D01*
X20914Y11265D02*
X20917Y11262D01*
X19568Y11326D02*
X19620Y11274D01*
X19568Y11326D02*
Y11505D01*
X20880Y10840D02*
Y11244D01*
X20717Y10553D02*
X20722Y10557D01*
Y10614D01*
X20717Y10619D02*
X20722Y10614D01*
X20717Y10619D02*
Y10851D01*
X20723Y10857D01*
X20319Y10532D02*
Y10724D01*
X20791Y10501D02*
Y10693D01*
X20790Y10694D02*
X20791Y10693D01*
X20623Y10585D02*
X20708Y10500D01*
X20623Y10585D02*
Y10593D01*
X21038Y10500D02*
Y10572D01*
X21028Y10581D02*
X21038Y10572D01*
X21028Y10581D02*
Y10731D01*
X21038Y10740D01*
Y10868D01*
X21037Y10869D02*
X21038Y10868D01*
X20854Y10389D02*
Y10761D01*
X20853Y10762D02*
X20854Y10761D01*
X20840Y10299D02*
X20886Y10345D01*
X20840Y10033D02*
Y10299D01*
X20873Y9935D02*
Y10296D01*
X19493Y10290D02*
X19503Y10279D01*
X19493Y10290D02*
Y10323D01*
X19482Y10333D02*
X19493Y10323D01*
X19461Y10333D02*
X19482D01*
X19457Y10338D02*
X19461Y10333D01*
X19457Y10338D02*
Y11038D01*
X19921Y10203D02*
Y10820D01*
X19923Y10822D01*
X19880Y10127D02*
Y10458D01*
X20820Y10811D02*
X20858D01*
X20861Y10816D02*
X20862Y10815D01*
X20861Y10816D02*
Y11252D01*
X20862Y11253D01*
Y11280D01*
X20865Y11283D01*
X21026D01*
X20865D02*
Y12224D01*
X20854Y12235D02*
X20865Y12224D01*
X20854Y12235D02*
Y12384D01*
X20865Y12395D01*
Y12450D01*
X20865Y12450D02*
X20865Y12450D01*
X21037Y10869D02*
Y11151D01*
X21052Y11165D01*
Y11314D01*
X21037Y11329D02*
X21052Y11314D01*
X21037Y11329D02*
Y11858D01*
X21038Y11859D01*
X21380Y11829D02*
Y11859D01*
X21380Y11829D02*
X21380Y11829D01*
X21299Y10690D02*
Y10996D01*
Y11451D01*
X22479Y10436D02*
X22484Y10431D01*
X22530D01*
X22195Y11221D02*
X22270D01*
X22170Y11211D02*
Y11266D01*
Y11211D02*
X22265Y11116D01*
Y10936D02*
Y11116D01*
X22150Y11146D02*
Y11226D01*
Y11146D02*
X22245Y11051D01*
X21735Y10231D02*
Y11751D01*
X21707Y11779D02*
X21735Y11751D01*
X21653Y11779D02*
X21707D01*
X21735Y10011D02*
Y10231D01*
X21665Y10151D02*
X21692Y10178D01*
Y11553D01*
X21689Y11556D02*
X21692Y11553D01*
X21665Y11556D02*
X21689D01*
X21653Y11568D02*
X21665Y11556D01*
X21653Y11568D02*
Y11579D01*
X18985Y10846D02*
X19040Y10901D01*
X18985Y10026D02*
Y10846D01*
X19130Y12191D02*
Y12216D01*
X19198Y12284D01*
X18775Y12441D02*
Y12613D01*
X18785Y12623D01*
X19970Y12201D02*
X20025Y12146D01*
X19970Y12201D02*
Y12836D01*
X19611Y12374D02*
X19682D01*
X19527Y10393D02*
Y12131D01*
X19525D02*
X19527D01*
X19525D02*
X19745Y12351D01*
Y12515D01*
X19684Y12576D02*
X19745Y12515D01*
X19497Y12464D02*
X19611D01*
X19528Y12323D02*
Y12372D01*
Y12323D02*
X19530Y12321D01*
X20665Y10835D02*
Y12436D01*
X20623Y10793D02*
X20665Y10835D01*
X20221Y11126D02*
Y11285D01*
X20220Y11286D02*
X20221Y11285D01*
X22026Y11228D02*
Y11453D01*
X22191Y11618D01*
Y11837D01*
X22072Y11208D02*
Y11427D01*
X22247Y11602D01*
Y11976D01*
X20098Y11923D02*
X20111Y11911D01*
X20098Y11923D02*
Y12540D01*
X20117Y12558D01*
X20110Y12677D02*
X20117Y12670D01*
X20110Y12677D02*
Y12736D01*
X20117Y12743D01*
Y12984D01*
X20116Y12985D02*
X20117Y12984D01*
X20111Y11219D02*
Y11911D01*
X20117Y12558D02*
Y12670D01*
X19684Y11270D02*
Y12277D01*
X19754Y12347D01*
Y12572D01*
X19730Y12595D02*
X19754Y12572D01*
X19730Y12595D02*
Y12960D01*
X19784Y13014D01*
X19653Y11130D02*
Y11185D01*
X19712Y11244D01*
Y12293D01*
X19763Y12344D01*
Y12781D01*
X19788Y12806D01*
X19476Y12878D02*
Y12931D01*
X19476Y12877D02*
X19476Y12878D01*
X19646Y11218D02*
Y12082D01*
X19593Y12135D02*
X19646Y12082D01*
X21273Y11470D02*
X21332Y11529D01*
X21380D01*
X21273Y11283D02*
Y11429D01*
Y11470D01*
X19330Y11269D02*
X19364Y11235D01*
X19330Y11269D02*
Y13093D01*
X19626Y10245D02*
Y10597D01*
Y10245D02*
X19639Y10232D01*
Y10205D02*
Y10232D01*
X19626Y10192D02*
X19639Y10205D01*
X19626Y10119D02*
Y10192D01*
X19786Y10263D02*
Y10510D01*
Y10263D02*
X19837Y10212D01*
Y10210D02*
Y10212D01*
X18893Y11359D02*
Y11638D01*
X18879Y11652D02*
X18893Y11638D01*
X19017Y12247D02*
Y12432D01*
X18923Y12526D02*
X19017Y12432D01*
X18879Y11652D02*
Y12109D01*
X19017Y12247D01*
X18923Y12526D02*
Y12631D01*
X18885Y12668D02*
X18923Y12631D01*
X23086Y11488D02*
Y12605D01*
X23005Y12686D02*
X23086Y12605D01*
X21653Y11629D02*
X21706D01*
X23115Y11581D02*
Y12726D01*
X23005Y12836D02*
X23115Y12726D01*
X18994Y11608D02*
Y12211D01*
X19025Y12243D01*
Y12943D01*
X18985Y12984D02*
X19025Y12943D01*
X21221Y11735D02*
X21374D01*
X21380Y11729D01*
X20435Y12494D02*
X20457Y12472D01*
X20435Y12494D02*
Y12671D01*
X20432Y12673D02*
X20435Y12671D01*
X20432Y12673D02*
Y12753D01*
X21796Y10440D02*
Y10578D01*
Y10440D02*
X21797Y10439D01*
X22736Y12622D02*
Y13072D01*
X22407Y11346D02*
X22420Y11359D01*
X22407Y11225D02*
Y11346D01*
Y11225D02*
X22420Y11212D01*
X22450Y11446D02*
X22451Y11447D01*
X22450Y10508D02*
Y11446D01*
X22449Y10507D02*
X22450Y10508D01*
X22451Y10509D01*
X22093Y9959D02*
X22126D01*
X22093Y9992D01*
Y10001D01*
X22101Y10009D01*
X22118D01*
X22126Y10001D01*
X22076D02*
X22068Y10009D01*
X22051D01*
X22043Y10001D01*
Y9967D01*
X22051Y9959D01*
X22068D01*
X22076Y9967D01*
Y10001D01*
X22026D02*
X22018Y10009D01*
X22001D01*
X21993Y10001D01*
Y9967D01*
X22001Y9959D01*
X22018D01*
X22026Y9967D01*
Y10001D01*
X21976Y9967D02*
X21968Y9959D01*
X21951D01*
X21943Y9967D01*
Y10001D01*
X21951Y10009D01*
X21968D01*
X21976Y10001D01*
Y9992D01*
X21968Y9984D01*
X21943D01*
X22262Y9907D02*
Y9857D01*
X22229D01*
X22204Y9890D02*
X22187D01*
X22179Y9882D01*
Y9857D01*
X22204D01*
X22212Y9865D01*
X22204Y9874D01*
X22179D01*
X22162Y9857D02*
X22137D01*
X22129Y9865D01*
X22137Y9874D01*
X22154D01*
X22162Y9882D01*
X22154Y9890D01*
X22129D01*
X22029Y9899D02*
X22037Y9907D01*
X22054D01*
X22062Y9899D01*
Y9865D01*
X22054Y9857D01*
X22037D01*
X22029Y9865D01*
X22012Y9890D02*
Y9865D01*
X22004Y9857D01*
X21979D01*
Y9890D01*
X21962Y9857D02*
Y9890D01*
X21954D01*
X21945Y9882D01*
Y9857D01*
Y9882D01*
X21937Y9890D01*
X21929Y9882D01*
Y9857D01*
X21912Y9907D02*
Y9857D01*
X21887D01*
X21879Y9865D01*
Y9874D01*
Y9882D01*
X21887Y9890D01*
X21912D01*
X21862D02*
Y9857D01*
Y9874D01*
X21854Y9882D01*
X21845Y9890D01*
X21837D01*
X21787Y9857D02*
X21804D01*
X21812Y9865D01*
Y9882D01*
X21804Y9890D01*
X21787D01*
X21779Y9882D01*
Y9874D01*
X21812D01*
X21762Y9857D02*
X21737D01*
X21729Y9865D01*
X21737Y9874D01*
X21754D01*
X21762Y9882D01*
X21754Y9890D01*
X21729D01*
X21637Y9907D02*
X21654D01*
X21662Y9899D01*
Y9865D01*
X21654Y9857D01*
X21637D01*
X21629Y9865D01*
Y9899D01*
X21637Y9907D01*
X21612D02*
Y9857D01*
X21587D01*
X21579Y9865D01*
Y9874D01*
Y9882D01*
X21587Y9890D01*
X21612D01*
X21562Y9857D02*
X21537D01*
X21529Y9865D01*
X21537Y9874D01*
X21554D01*
X21562Y9882D01*
X21554Y9890D01*
X21529D01*
X21487Y9857D02*
X21504D01*
X21512Y9865D01*
Y9882D01*
X21504Y9890D01*
X21487D01*
X21479Y9882D01*
Y9874D01*
X21512D01*
X21462Y9890D02*
Y9857D01*
Y9874D01*
X21454Y9882D01*
X21446Y9890D01*
X21437D01*
X21412D02*
X21396Y9857D01*
X21379Y9890D01*
X21354D02*
X21337D01*
X21329Y9882D01*
Y9857D01*
X21354D01*
X21362Y9865D01*
X21354Y9874D01*
X21329D01*
X21304Y9899D02*
Y9890D01*
X21312D01*
X21296D01*
X21304D01*
Y9865D01*
X21296Y9857D01*
X21262D02*
X21246D01*
X21237Y9865D01*
Y9882D01*
X21246Y9890D01*
X21262D01*
X21271Y9882D01*
Y9865D01*
X21262Y9857D01*
X21221Y9890D02*
Y9857D01*
Y9874D01*
X21212Y9882D01*
X21204Y9890D01*
X21196D01*
X21171D02*
Y9865D01*
X21162Y9857D01*
X21137D01*
Y9849D01*
X21146Y9840D01*
X21154D01*
X21137Y9857D02*
Y9890D01*
X21112Y9849D02*
X21104Y9857D01*
Y9865D01*
X21112D01*
Y9857D01*
X21104D01*
X21112Y9849D01*
X21121Y9840D01*
X21021Y9907D02*
X21004D01*
X21012D01*
Y9857D01*
X21021D01*
X21004D01*
X20979D02*
Y9907D01*
X20946Y9857D01*
Y9907D01*
X20896Y9899D02*
X20904Y9907D01*
X20921D01*
X20929Y9899D01*
Y9865D01*
X20921Y9857D01*
X20904D01*
X20896Y9865D01*
X22278Y9819D02*
Y9769D01*
X22245D01*
X22228D02*
Y9802D01*
X22211Y9819D01*
X22195Y9802D01*
Y9769D01*
Y9794D01*
X22228D01*
X22178Y9769D02*
Y9819D01*
X22161Y9802D01*
X22145Y9819D01*
Y9769D01*
X22128Y9819D02*
Y9769D01*
X22103D01*
X22095Y9777D01*
Y9786D01*
X22103Y9794D01*
X22128D01*
X22103D01*
X22095Y9802D01*
Y9811D01*
X22103Y9819D01*
X22128D01*
X22045D02*
X22078D01*
Y9769D01*
X22045D01*
X22078Y9794D02*
X22061D01*
X22028Y9769D02*
Y9819D01*
X22003D01*
X21995Y9811D01*
Y9794D01*
X22003Y9786D01*
X22028D01*
X22011D02*
X21995Y9769D01*
X21978Y9819D02*
X21945D01*
X21961D01*
Y9769D01*
X21845Y9811D02*
X21853Y9819D01*
X21870D01*
X21878Y9811D01*
Y9777D01*
X21870Y9769D01*
X21853D01*
X21845Y9777D01*
X21803Y9819D02*
X21820D01*
X21828Y9811D01*
Y9777D01*
X21820Y9769D01*
X21803D01*
X21795Y9777D01*
Y9811D01*
X21803Y9819D01*
X21778Y9769D02*
Y9819D01*
X21745Y9769D01*
Y9819D01*
X21728D02*
X21695D01*
X21712D01*
Y9769D01*
X21678D02*
Y9819D01*
X21653D01*
X21645Y9811D01*
Y9794D01*
X21653Y9786D01*
X21678D01*
X21662D02*
X21645Y9769D01*
X21603Y9819D02*
X21620D01*
X21628Y9811D01*
Y9777D01*
X21620Y9769D01*
X21603D01*
X21595Y9777D01*
Y9811D01*
X21603Y9819D01*
X21578D02*
Y9769D01*
X21545D01*
X21528Y9819D02*
Y9769D01*
X21495D01*
X21445Y9819D02*
X21478D01*
Y9769D01*
X21445D01*
X21478Y9794D02*
X21462D01*
X21428Y9769D02*
Y9819D01*
X21403D01*
X21395Y9811D01*
Y9794D01*
X21403Y9786D01*
X21428D01*
X21412D02*
X21395Y9769D01*
X21370Y9761D02*
X21362Y9769D01*
Y9777D01*
X21370D01*
Y9769D01*
X21362D01*
X21370Y9761D01*
X21378Y9752D01*
X21253Y9819D02*
X21270D01*
X21278Y9811D01*
Y9777D01*
X21270Y9769D01*
X21253D01*
X21245Y9777D01*
Y9811D01*
X21253Y9819D01*
X21228Y9769D02*
Y9777D01*
X21220D01*
Y9769D01*
X21228D01*
X21162D02*
Y9819D01*
X21187Y9794D01*
X21153D01*
X21137Y9769D02*
Y9802D01*
X21128D01*
X21120Y9794D01*
Y9769D01*
Y9794D01*
X21112Y9802D01*
X21103Y9794D01*
Y9769D01*
X20987D02*
Y9819D01*
X20962D01*
X20953Y9811D01*
Y9794D01*
X20962Y9786D01*
X20987D01*
X20970D02*
X20953Y9769D01*
X20903Y9819D02*
X20937D01*
Y9769D01*
X20903D01*
X20937Y9794D02*
X20920D01*
X20887Y9819D02*
Y9786D01*
X20870Y9769D01*
X20853Y9786D01*
Y9819D01*
X20837Y9769D02*
Y9777D01*
X20828D01*
Y9769D01*
X20837D01*
X20745D02*
Y9802D01*
X20729Y9819D01*
X20712Y9802D01*
Y9769D01*
Y9794D01*
X20745D01*
D46*
X19319Y10390D02*
X19365Y10344D01*
X19308Y10401D02*
X19319Y10390D01*
X22889Y11136D02*
Y11434D01*
X22654Y10532D02*
Y10864D01*
X22713Y10923D01*
Y10960D01*
X22889Y11136D01*
X22692Y11631D02*
X22889Y11434D01*
X22692Y11631D02*
Y11819D01*
X21102Y12072D02*
X21103Y12073D01*
X21102Y11281D02*
Y12072D01*
Y11281D02*
X21138Y11246D01*
Y10792D02*
Y11246D01*
X19951Y11021D02*
X19952Y11022D01*
Y11067D01*
X19693Y11058D02*
X19739D01*
X19867Y10933D02*
X19869Y10931D01*
X19867Y10933D02*
Y10977D01*
X19739Y10927D02*
X19740Y10926D01*
X19739Y10927D02*
Y10968D01*
X19729Y10853D02*
X19772D01*
X19686Y10763D02*
X19729D01*
X19899Y10757D02*
X19900Y10758D01*
X19852Y10757D02*
X19899D01*
X19846Y10619D02*
Y10661D01*
X20079Y10748D02*
X20123D01*
Y10658D02*
X20153Y10628D01*
X20167D01*
X20170Y10625D01*
X20025Y10878D02*
Y10920D01*
X20118Y10917D02*
X20157D01*
X19880Y11305D02*
Y11551D01*
X19945Y11232D02*
Y11240D01*
X19880Y11305D02*
X19945Y11240D01*
X19880Y11551D02*
X19957Y11628D01*
Y11742D01*
X21646Y10507D02*
X21648Y10509D01*
X21613Y10372D02*
Y10417D01*
X21462Y10465D02*
X21463Y10464D01*
X21422Y10465D02*
X21462D01*
X21377Y10377D02*
X21420D01*
X21390Y10798D02*
X21428D01*
X21368Y10608D02*
X21433D01*
X21368Y10558D02*
X21369Y10557D01*
X21368Y10558D02*
Y10608D01*
Y10698D02*
X21433D01*
X21317D02*
X21368D01*
X21061D02*
X21127D01*
X21060Y10557D02*
Y10609D01*
X21127Y10558D02*
Y10608D01*
X19458Y13326D02*
X19494Y13291D01*
X19458Y13326D02*
Y13340D01*
X19371Y13292D02*
X19452D01*
X19368Y13205D02*
Y13219D01*
X19398Y13249D01*
X19376Y13052D02*
X19379Y13049D01*
X19482D01*
Y13142D02*
X19505Y13119D01*
X19545D02*
X19579Y13085D01*
X19482Y13142D02*
Y13179D01*
X19505Y13119D02*
X19545D01*
X19579Y13085D02*
X19654D01*
Y13120D02*
X19699Y13165D01*
X19654Y13085D02*
Y13120D01*
X21330Y11668D02*
X21341Y11679D01*
X21380D01*
X21601Y11528D02*
X21602Y11529D01*
X21653D01*
X21289Y11620D02*
X21330Y11579D01*
X21380D01*
Y11446D02*
X21380Y11446D01*
X21380Y11446D02*
Y11479D01*
X19918Y11900D02*
X19919Y11901D01*
X19864Y11900D02*
X19918D01*
X19929Y12025D02*
X19930Y12026D01*
X19879Y12025D02*
X19929D01*
X19748Y12125D02*
X19799D01*
X20173Y11980D02*
X20219D01*
X20158Y11965D02*
X20173Y11980D01*
X20129Y11965D02*
X20158D01*
X20219Y11980D02*
X20220Y11979D01*
X20219Y11980D02*
Y12025D01*
X20328Y12006D02*
X20329Y12005D01*
X20379D01*
X20252Y11862D02*
X20254Y11860D01*
X20304D01*
X20247Y11719D02*
X20248Y11720D01*
X20304D01*
X20253Y11600D02*
X20304D01*
X20178Y11633D02*
X20179Y11632D01*
Y11585D02*
Y11632D01*
X19999Y11605D02*
Y11656D01*
X19912Y11553D02*
X19914Y11551D01*
Y11500D02*
Y11551D01*
X19789Y11665D02*
X19835D01*
X20331Y12705D02*
X20376Y12750D01*
X20231Y12705D02*
X20331D01*
X20221Y12715D02*
X20231Y12705D01*
X20316Y12556D02*
X20316Y12555D01*
X20316Y12556D02*
Y12623D01*
X20011Y12585D02*
X20071D01*
X20406Y12867D02*
X20534D01*
X20591Y12805D02*
Y12810D01*
X20534Y12867D02*
X20591Y12810D01*
X20406Y12867D02*
X20422D01*
X20181Y12585D02*
X20291D01*
X20316Y12609D01*
Y12623D01*
X20510Y12610D02*
X20541D01*
X19474Y10123D02*
X19475Y10124D01*
X19474Y10123D02*
Y10315D01*
X19365Y10188D02*
Y10344D01*
X20044Y13284D02*
Y13343D01*
X19921Y13344D02*
X19971D01*
X19921Y13343D02*
Y13344D01*
X19888Y13257D02*
Y13301D01*
X20175Y13326D02*
Y13335D01*
Y13326D02*
X20201Y13300D01*
Y13262D02*
Y13300D01*
X19915Y13083D02*
X19993Y13161D01*
X19654Y13273D02*
Y13359D01*
Y13273D02*
X19656Y13271D01*
X19533Y13339D02*
X19581Y13292D01*
X19832Y13223D02*
X19888Y13167D01*
X19832Y13223D02*
Y13302D01*
X20102Y13061D02*
X20175D01*
X20072Y13031D02*
X20102Y13061D01*
X19999Y13031D02*
X20072D01*
X20175Y13061D02*
Y13064D01*
X20248Y13137D01*
X20706Y13357D02*
X20737Y13326D01*
Y13289D02*
Y13326D01*
X20706Y13083D02*
X20756Y13133D01*
Y13176D01*
X20635Y13083D02*
X20706D01*
X20597Y13045D02*
X20635Y13083D01*
X20529Y13045D02*
X20597D01*
X20522Y13175D02*
X20529D01*
X20440Y13093D02*
X20522Y13175D01*
X20357Y13244D02*
Y13326D01*
Y13244D02*
X20409Y13192D01*
X20566Y13355D02*
X20612Y13309D01*
X20566Y13355D02*
Y13355D01*
X20419D02*
X20492D01*
X20418Y13356D02*
X20419Y13355D01*
X22479Y10296D02*
Y10346D01*
X22477Y10294D02*
X22479Y10296D01*
X22596Y11210D02*
Y11366D01*
X19198Y12143D02*
Y12194D01*
Y12143D02*
X19200Y12141D01*
X19163Y12343D02*
X19199D01*
X19140Y12320D02*
X19163Y12343D01*
X19140Y12296D02*
Y12320D01*
X19454Y12327D02*
Y12372D01*
Y12327D02*
X19455Y12326D01*
X22029Y11704D02*
X22118D01*
X22120Y11706D01*
X21653Y11679D02*
X21703D01*
X21598Y11479D02*
X21653D01*
X21595Y11476D02*
X21598Y11479D01*
X21380Y11779D02*
X21422D01*
X21430Y11771D01*
X21095Y11141D02*
Y11195D01*
X20886Y12263D02*
X20949D01*
Y12222D02*
Y12263D01*
Y12222D02*
X20950Y12221D01*
X20990Y12262D02*
X21028Y12300D01*
X20949Y12263D02*
X20950Y12262D01*
X20990D01*
X21594Y11773D02*
X21638Y11729D01*
X21653D01*
X21674Y11920D02*
Y12677D01*
X21720Y12723D01*
Y12976D01*
X21674Y13022D02*
X21720Y12976D01*
X21674Y13022D02*
Y13331D01*
X21653Y11829D02*
X21724D01*
X21806Y11911D01*
Y13286D01*
X21887Y13367D01*
X20141Y12705D02*
Y12743D01*
X19065Y12804D02*
Y13052D01*
X19063Y12802D02*
X19065Y12804D01*
X19296Y12473D02*
Y13305D01*
X18945Y13080D02*
X18948Y13083D01*
X18945Y12753D02*
Y13080D01*
Y12753D02*
X18985Y12713D01*
X20338Y13326D02*
X20357D01*
X20254Y13203D02*
X20273Y13184D01*
X20254Y13242D02*
X20338Y13326D01*
X20254Y13203D02*
Y13242D01*
X20273Y12964D02*
Y13184D01*
X19442Y12734D02*
Y12962D01*
X19384Y12676D02*
X19442Y12734D01*
X18845Y13101D02*
X18851Y13107D01*
X18845Y12889D02*
Y13101D01*
Y12889D02*
X18885Y12849D01*
Y12939D02*
Y13063D01*
X18998Y13176D01*
X18999D01*
X19550Y12839D02*
Y12877D01*
X19550Y12839D02*
X19550Y12839D01*
X18568Y12677D02*
X18785Y12894D01*
X18568Y11388D02*
Y12677D01*
X18608Y12034D02*
X18614Y12028D01*
X18608Y12627D02*
X18785Y12803D01*
X18608Y12034D02*
Y12627D01*
X18614Y11630D02*
Y12028D01*
X18885Y12506D02*
Y12578D01*
X18882Y12503D02*
X18885Y12506D01*
X19266Y11966D02*
Y12503D01*
X19265Y11965D02*
X19266Y11966D01*
X20893Y12131D02*
Y12221D01*
X19199Y12433D02*
Y12478D01*
X21034Y12204D02*
X21087D01*
X21028Y12210D02*
X21034Y12204D01*
X19609Y12872D02*
X19680D01*
X19684Y12876D01*
X19513Y12779D02*
X19606D01*
X19609Y12782D01*
X20886Y12353D02*
X20949D01*
X20951Y12355D01*
Y12378D01*
X20965Y12392D01*
X20810Y12300D02*
Y12406D01*
X20409Y13282D02*
X20486D01*
X20500Y13296D01*
X20042Y11019D02*
Y11067D01*
X19867Y11021D02*
Y11067D01*
Y11021D02*
X19868Y11020D01*
X20141Y12743D02*
Y12854D01*
X20145Y12858D01*
D47*
X21888Y12184D02*
X22029D01*
X21887Y12183D02*
X21888Y12184D01*
X20759Y11807D02*
Y12902D01*
X20811Y12954D01*
D48*
X21526Y12694D02*
Y12744D01*
X21386Y12843D02*
X21387Y12844D01*
X21526D01*
X21522Y12948D02*
X21526Y12944D01*
X21522Y12948D02*
Y13017D01*
X21279Y13286D02*
X21281Y13288D01*
X21279Y13134D02*
Y13286D01*
X21259Y13114D02*
X21279Y13134D01*
X21201Y13114D02*
X21259D01*
X21121Y13034D02*
X21201Y13114D01*
X21251Y12574D02*
X21279D01*
X21201Y12624D02*
X21251Y12574D01*
X21201Y12624D02*
Y12654D01*
X21191Y12664D02*
X21201Y12654D01*
X20941Y12614D02*
X20981Y12574D01*
X21023D01*
X21091Y13134D02*
X21121Y13104D01*
X21023Y13134D02*
X21091D01*
X22690Y11214D02*
X22694Y11210D01*
X22690Y11214D02*
Y11309D01*
Y11370D01*
X22191Y11310D02*
X22271D01*
X22190Y11311D02*
X22191Y11310D01*
X21850Y12829D02*
X21888Y12867D01*
X21850Y11699D02*
X21853Y11696D01*
Y10951D02*
Y11696D01*
X21849Y10947D02*
X21853Y10951D01*
X21428Y10888D02*
X21509D01*
X20820Y10901D02*
Y10948D01*
X20810Y12139D02*
Y12210D01*
Y12139D02*
X20810Y12139D01*
X20616D02*
X20622Y12145D01*
X20616Y12819D02*
Y12993D01*
X20622Y12145D02*
Y12813D01*
X20616Y12819D02*
X20622Y12813D01*
X20616Y12993D02*
X20618Y12995D01*
X21850Y11699D02*
Y12139D01*
Y12829D01*
D49*
X19300Y7993D02*
Y7947D01*
X19281Y7982D02*
X19319Y7959D01*
Y7982D02*
X19281Y7959D01*
X19339Y7921D02*
X19335Y7917D01*
X19339Y7913D01*
X19343Y7917D01*
X19339Y7921D01*
X19418Y7974D02*
X19414Y7982D01*
X19406Y7989D01*
X19399Y7993D01*
X19383D01*
X19376Y7989D01*
X19368Y7982D01*
X19364Y7974D01*
X19361Y7963D01*
Y7943D01*
X19364Y7932D01*
X19368Y7924D01*
X19376Y7917D01*
X19383Y7913D01*
X19399D01*
X19406Y7917D01*
X19414Y7924D01*
X19418Y7932D01*
Y7943D01*
X19399D02*
X19418D01*
X19436Y7993D02*
Y7913D01*
Y7993D02*
X19470D01*
X19482Y7989D01*
X19486Y7985D01*
X19489Y7978D01*
Y7970D01*
X19486Y7963D01*
X19482Y7959D01*
X19470Y7955D01*
X19436D02*
X19470D01*
X19482Y7951D01*
X19486Y7947D01*
X19489Y7940D01*
Y7928D01*
X19486Y7921D01*
X19482Y7917D01*
X19470Y7913D01*
X19436D01*
X19507Y7993D02*
Y7913D01*
X19553D01*
X19625Y7947D02*
X19693D01*
X19780Y7993D02*
Y7913D01*
Y7993D02*
X19814D01*
X19825Y7989D01*
X19829Y7985D01*
X19833Y7978D01*
Y7970D01*
X19829Y7963D01*
X19825Y7959D01*
X19814Y7955D01*
X19780D02*
X19814D01*
X19825Y7951D01*
X19829Y7947D01*
X19833Y7940D01*
Y7928D01*
X19829Y7921D01*
X19825Y7917D01*
X19814Y7913D01*
X19780D01*
X19874Y7993D02*
X19866Y7989D01*
X19858Y7982D01*
X19855Y7974D01*
X19851Y7963D01*
Y7943D01*
X19855Y7932D01*
X19858Y7924D01*
X19866Y7917D01*
X19874Y7913D01*
X19889D01*
X19896Y7917D01*
X19904Y7924D01*
X19908Y7932D01*
X19912Y7943D01*
Y7963D01*
X19908Y7974D01*
X19904Y7982D01*
X19896Y7989D01*
X19889Y7993D01*
X19874D01*
X19957D02*
Y7913D01*
X19930Y7993D02*
X19984D01*
X20020D02*
Y7913D01*
X19993Y7993D02*
X20047D01*
X20079D02*
X20071Y7989D01*
X20064Y7982D01*
X20060Y7974D01*
X20056Y7963D01*
Y7943D01*
X20060Y7932D01*
X20064Y7924D01*
X20071Y7917D01*
X20079Y7913D01*
X20094D01*
X20102Y7917D01*
X20109Y7924D01*
X20113Y7932D01*
X20117Y7943D01*
Y7963D01*
X20113Y7974D01*
X20109Y7982D01*
X20102Y7989D01*
X20094Y7993D01*
X20079D01*
X20136D02*
Y7913D01*
Y7993D02*
X20166Y7913D01*
X20197Y7993D02*
X20166Y7913D01*
X20197Y7993D02*
Y7913D01*
X20282Y7993D02*
Y7913D01*
X20328D01*
X20398D02*
X20367Y7993D01*
X20337Y7913D01*
X20348Y7940D02*
X20386D01*
X20416Y7993D02*
X20447Y7955D01*
Y7913D01*
X20477Y7993D02*
X20447Y7955D01*
X20537Y7993D02*
X20488D01*
Y7913D01*
X20537D01*
X20488Y7955D02*
X20518D01*
X20550Y7993D02*
Y7913D01*
Y7993D02*
X20585D01*
X20596Y7989D01*
X20600Y7985D01*
X20604Y7978D01*
Y7970D01*
X20600Y7963D01*
X20596Y7959D01*
X20585Y7955D01*
X20550D01*
X20577D02*
X20604Y7913D01*
X20742Y7974D02*
X20738Y7982D01*
X20730Y7989D01*
X20723Y7993D01*
X20707D01*
X20700Y7989D01*
X20692Y7982D01*
X20688Y7974D01*
X20685Y7963D01*
Y7943D01*
X20688Y7932D01*
X20692Y7924D01*
X20700Y7917D01*
X20707Y7913D01*
X20723D01*
X20730Y7917D01*
X20738Y7924D01*
X20742Y7932D01*
Y7943D01*
X20723D02*
X20742D01*
X20809Y7993D02*
X20760D01*
Y7913D01*
X20809D01*
X20760Y7955D02*
X20790D01*
X20823Y7993D02*
Y7913D01*
Y7993D02*
X20857D01*
X20868Y7989D01*
X20872Y7985D01*
X20876Y7978D01*
Y7970D01*
X20872Y7963D01*
X20868Y7959D01*
X20857Y7955D01*
X20823D01*
X20849D02*
X20876Y7913D01*
X20894Y7993D02*
Y7913D01*
Y7993D02*
X20928D01*
X20940Y7989D01*
X20944Y7985D01*
X20947Y7978D01*
Y7970D01*
X20944Y7963D01*
X20940Y7959D01*
X20928Y7955D01*
X20894D02*
X20928D01*
X20940Y7951D01*
X20944Y7947D01*
X20947Y7940D01*
Y7928D01*
X20944Y7921D01*
X20940Y7917D01*
X20928Y7913D01*
X20894D01*
X21015Y7993D02*
X20965D01*
Y7913D01*
X21015D01*
X20965Y7955D02*
X20996D01*
X21028Y7993D02*
Y7913D01*
Y7993D02*
X21062D01*
X21074Y7989D01*
X21078Y7985D01*
X21081Y7978D01*
Y7970D01*
X21078Y7963D01*
X21074Y7959D01*
X21062Y7955D01*
X21028D01*
X21055D02*
X21081Y7913D01*
X21162Y7993D02*
Y7913D01*
Y7993D02*
X21189D01*
X21200Y7989D01*
X21208Y7982D01*
X21212Y7974D01*
X21215Y7963D01*
Y7943D01*
X21212Y7932D01*
X21208Y7924D01*
X21200Y7917D01*
X21189Y7913D01*
X21162D01*
X21294D02*
X21264Y7993D01*
X21233Y7913D01*
X21245Y7940D02*
X21283D01*
X21340Y7993D02*
Y7913D01*
X21313Y7993D02*
X21366D01*
X21437Y7913D02*
X21406Y7993D01*
X21376Y7913D01*
X21387Y7940D02*
X21425D01*
D50*
X17886Y13902D02*
Y13912D01*
X17881Y13902D02*
X17891D01*
Y13912D01*
X17881D02*
X17891D01*
X17881Y13902D02*
Y13912D01*
Y13897D02*
X17896D01*
Y13917D01*
X17876D02*
X17896D01*
X17876Y13897D02*
Y13917D01*
Y13892D02*
X17901D01*
Y13922D01*
X17871D02*
X17901D01*
X17871Y13892D02*
Y13922D01*
X17866Y13887D02*
X17906D01*
Y13927D01*
X17866D02*
X17906D01*
X17866Y13887D02*
Y13927D01*
X17936Y13952D02*
Y13962D01*
X17931Y13952D02*
X17941D01*
Y13962D01*
X17931D02*
X17941D01*
X17931Y13952D02*
Y13962D01*
Y13947D02*
X17946D01*
Y13967D01*
X17926D02*
X17946D01*
X17926Y13947D02*
Y13967D01*
Y13942D02*
X17951D01*
Y13972D01*
X17921D02*
X17951D01*
X17921Y13942D02*
Y13972D01*
X17916Y13937D02*
X17956D01*
Y13977D01*
X17916D02*
X17956D01*
X17916Y13937D02*
Y13977D01*
X17961Y13932D02*
Y13982D01*
X17911D02*
X17961D01*
X17861Y13882D02*
Y13932D01*
Y13882D02*
X17911D01*
X17661Y13932D02*
X18161D01*
X17911Y13682D02*
Y14182D01*
X23773Y13910D02*
Y13920D01*
X23768Y13910D02*
X23778D01*
Y13920D01*
X23768D02*
X23778D01*
X23768Y13910D02*
Y13920D01*
Y13905D02*
X23783D01*
Y13925D01*
X23763D02*
X23783D01*
X23763Y13905D02*
Y13925D01*
Y13900D02*
X23788D01*
Y13930D01*
X23758D02*
X23788D01*
X23758Y13900D02*
Y13930D01*
X23753Y13895D02*
X23793D01*
Y13935D01*
X23753D02*
X23793D01*
X23753Y13895D02*
Y13935D01*
X23823Y13960D02*
Y13970D01*
X23818Y13960D02*
X23828D01*
Y13970D01*
X23818D02*
X23828D01*
X23818Y13960D02*
Y13970D01*
Y13955D02*
X23833D01*
Y13975D01*
X23813D02*
X23833D01*
X23813Y13955D02*
Y13975D01*
Y13950D02*
X23838D01*
Y13980D01*
X23808D02*
X23838D01*
X23808Y13950D02*
Y13980D01*
X23803Y13945D02*
X23843D01*
Y13985D01*
X23803D02*
X23843D01*
X23803Y13945D02*
Y13985D01*
X23848Y13940D02*
Y13990D01*
X23798D02*
X23848D01*
X23748Y13890D02*
Y13940D01*
Y13890D02*
X23798D01*
X23548Y13940D02*
X24048D01*
X23798Y13690D02*
Y14190D01*
X23773Y9047D02*
Y9057D01*
X23768Y9047D02*
X23778D01*
Y9057D01*
X23768D02*
X23778D01*
X23768Y9047D02*
Y9057D01*
Y9042D02*
X23783D01*
Y9062D01*
X23763D02*
X23783D01*
X23763Y9042D02*
Y9062D01*
Y9037D02*
X23788D01*
Y9067D01*
X23758D02*
X23788D01*
X23758Y9037D02*
Y9067D01*
X23753Y9032D02*
X23793D01*
Y9072D01*
X23753D02*
X23793D01*
X23753Y9032D02*
Y9072D01*
X23823Y9097D02*
Y9107D01*
X23818Y9097D02*
X23828D01*
Y9107D01*
X23818D02*
X23828D01*
X23818Y9097D02*
Y9107D01*
Y9092D02*
X23833D01*
Y9112D01*
X23813D02*
X23833D01*
X23813Y9092D02*
Y9112D01*
Y9087D02*
X23838D01*
Y9117D01*
X23808D02*
X23838D01*
X23808Y9087D02*
Y9117D01*
X23803Y9082D02*
X23843D01*
Y9122D01*
X23803D02*
X23843D01*
X23803Y9082D02*
Y9122D01*
X23848Y9077D02*
Y9127D01*
X23798D02*
X23848D01*
X23748Y9027D02*
Y9077D01*
Y9027D02*
X23798D01*
X23548Y9077D02*
X24048D01*
X23798Y8827D02*
Y9327D01*
D51*
X19553Y8341D02*
Y8261D01*
X19599D01*
X19668D02*
X19638Y8341D01*
X19607Y8261D01*
X19619Y8287D02*
X19657D01*
X19740Y8329D02*
X19733Y8337D01*
X19721Y8341D01*
X19706D01*
X19695Y8337D01*
X19687Y8329D01*
Y8322D01*
X19691Y8314D01*
X19695Y8310D01*
X19702Y8306D01*
X19725Y8299D01*
X19733Y8295D01*
X19737Y8291D01*
X19740Y8283D01*
Y8272D01*
X19733Y8264D01*
X19721Y8261D01*
X19706D01*
X19695Y8264D01*
X19687Y8272D01*
X19878Y8322D02*
X19874Y8329D01*
X19867Y8337D01*
X19859Y8341D01*
X19844D01*
X19836Y8337D01*
X19829Y8329D01*
X19825Y8322D01*
X19821Y8310D01*
Y8291D01*
X19825Y8280D01*
X19829Y8272D01*
X19836Y8264D01*
X19844Y8261D01*
X19859D01*
X19867Y8264D01*
X19874Y8272D01*
X19878Y8280D01*
X19901Y8341D02*
Y8283D01*
X19905Y8272D01*
X19912Y8264D01*
X19924Y8261D01*
X19931D01*
X19943Y8264D01*
X19950Y8272D01*
X19954Y8283D01*
Y8341D01*
X19976D02*
Y8261D01*
Y8341D02*
X20007Y8261D01*
X20037Y8341D02*
X20007Y8261D01*
X20037Y8341D02*
Y8261D01*
X20060Y8341D02*
Y8261D01*
Y8341D02*
X20094D01*
X20106Y8337D01*
X20109Y8333D01*
X20113Y8325D01*
Y8318D01*
X20109Y8310D01*
X20106Y8306D01*
X20094Y8302D01*
X20060D02*
X20094D01*
X20106Y8299D01*
X20109Y8295D01*
X20113Y8287D01*
Y8276D01*
X20109Y8268D01*
X20106Y8264D01*
X20094Y8261D01*
X20060D01*
X20131Y8341D02*
Y8261D01*
Y8341D02*
X20165D01*
X20177Y8337D01*
X20181Y8333D01*
X20185Y8325D01*
Y8318D01*
X20181Y8310D01*
X20177Y8306D01*
X20165Y8302D01*
X20131D01*
X20158D02*
X20185Y8261D01*
X20252Y8341D02*
X20202D01*
Y8261D01*
X20252D01*
X20202Y8302D02*
X20233D01*
X20319Y8329D02*
X20311Y8337D01*
X20300Y8341D01*
X20284D01*
X20273Y8337D01*
X20265Y8329D01*
Y8322D01*
X20269Y8314D01*
X20273Y8310D01*
X20280Y8306D01*
X20303Y8299D01*
X20311Y8295D01*
X20315Y8291D01*
X20319Y8283D01*
Y8272D01*
X20311Y8264D01*
X20300Y8261D01*
X20284D01*
X20273Y8264D01*
X20265Y8272D01*
X20422Y8341D02*
X20415Y8337D01*
X20407Y8329D01*
X20403Y8322D01*
X20399Y8310D01*
Y8291D01*
X20403Y8280D01*
X20407Y8272D01*
X20415Y8264D01*
X20422Y8261D01*
X20437D01*
X20445Y8264D01*
X20453Y8272D01*
X20456Y8280D01*
X20460Y8291D01*
Y8310D01*
X20456Y8322D01*
X20453Y8329D01*
X20445Y8337D01*
X20437Y8341D01*
X20422D01*
X20479D02*
Y8261D01*
Y8341D02*
X20513D01*
X20525Y8337D01*
X20528Y8333D01*
X20532Y8325D01*
Y8318D01*
X20528Y8310D01*
X20525Y8306D01*
X20513Y8302D01*
X20479D02*
X20513D01*
X20525Y8299D01*
X20528Y8295D01*
X20532Y8287D01*
Y8276D01*
X20528Y8268D01*
X20525Y8264D01*
X20513Y8261D01*
X20479D01*
X20603Y8329D02*
X20596Y8337D01*
X20584Y8341D01*
X20569D01*
X20558Y8337D01*
X20550Y8329D01*
Y8322D01*
X20554Y8314D01*
X20558Y8310D01*
X20565Y8306D01*
X20588Y8299D01*
X20596Y8295D01*
X20600Y8291D01*
X20603Y8283D01*
Y8272D01*
X20596Y8264D01*
X20584Y8261D01*
X20569D01*
X20558Y8264D01*
X20550Y8272D01*
X20671Y8341D02*
X20621D01*
Y8261D01*
X20671D01*
X20621Y8302D02*
X20652D01*
X20684Y8341D02*
Y8261D01*
Y8341D02*
X20718D01*
X20730Y8337D01*
X20734Y8333D01*
X20738Y8325D01*
Y8318D01*
X20734Y8310D01*
X20730Y8306D01*
X20718Y8302D01*
X20684D01*
X20711D02*
X20738Y8261D01*
X20755Y8341D02*
X20786Y8261D01*
X20816Y8341D02*
X20786Y8261D01*
X20888D02*
X20857Y8341D01*
X20827Y8261D01*
X20838Y8287D02*
X20876D01*
X20933Y8341D02*
Y8261D01*
X20906Y8341D02*
X20960D01*
X20992D02*
X20984Y8337D01*
X20977Y8329D01*
X20973Y8322D01*
X20969Y8310D01*
Y8291D01*
X20973Y8280D01*
X20977Y8272D01*
X20984Y8264D01*
X20992Y8261D01*
X21007D01*
X21015Y8264D01*
X21022Y8272D01*
X21026Y8280D01*
X21030Y8291D01*
Y8310D01*
X21026Y8322D01*
X21022Y8329D01*
X21015Y8337D01*
X21007Y8341D01*
X20992D01*
X21049D02*
Y8261D01*
Y8341D02*
X21083D01*
X21094Y8337D01*
X21098Y8333D01*
X21102Y8325D01*
Y8318D01*
X21098Y8310D01*
X21094Y8306D01*
X21083Y8302D01*
X21049D01*
X21075D02*
X21102Y8261D01*
X21120Y8341D02*
X21150Y8302D01*
Y8261D01*
X21181Y8341D02*
X21150Y8302D01*
X21505Y8325D02*
X21513Y8329D01*
X21524Y8341D01*
Y8261D01*
X21587Y8341D02*
X21575Y8337D01*
X21568Y8325D01*
X21564Y8306D01*
Y8295D01*
X21568Y8276D01*
X21575Y8264D01*
X21587Y8261D01*
X21594D01*
X21606Y8264D01*
X21614Y8276D01*
X21617Y8295D01*
Y8306D01*
X21614Y8325D01*
X21606Y8337D01*
X21594Y8341D01*
X21587D01*
X21635Y8249D02*
X21689Y8341D01*
X21698Y8322D02*
Y8325D01*
X21702Y8333D01*
X21705Y8337D01*
X21713Y8341D01*
X21728D01*
X21736Y8337D01*
X21740Y8333D01*
X21743Y8325D01*
Y8318D01*
X21740Y8310D01*
X21732Y8299D01*
X21694Y8261D01*
X21747D01*
X21769Y8322D02*
Y8325D01*
X21773Y8333D01*
X21777Y8337D01*
X21784Y8341D01*
X21799D01*
X21807Y8337D01*
X21811Y8333D01*
X21815Y8325D01*
Y8318D01*
X21811Y8310D01*
X21803Y8299D01*
X21765Y8261D01*
X21818D01*
X21836Y8249D02*
X21890Y8341D01*
X21899Y8322D02*
Y8325D01*
X21903Y8333D01*
X21906Y8337D01*
X21914Y8341D01*
X21929D01*
X21937Y8337D01*
X21941Y8333D01*
X21945Y8325D01*
Y8318D01*
X21941Y8310D01*
X21933Y8299D01*
X21895Y8261D01*
X21948D01*
X21989Y8341D02*
X21978Y8337D01*
X21970Y8325D01*
X21966Y8306D01*
Y8295D01*
X21970Y8276D01*
X21978Y8264D01*
X21989Y8261D01*
X21997D01*
X22008Y8264D01*
X22016Y8276D01*
X22020Y8295D01*
Y8306D01*
X22016Y8325D01*
X22008Y8337D01*
X21997Y8341D01*
X21989D01*
X22060D02*
X22049Y8337D01*
X22041Y8325D01*
X22037Y8306D01*
Y8295D01*
X22041Y8276D01*
X22049Y8264D01*
X22060Y8261D01*
X22068D01*
X22079Y8264D01*
X22087Y8276D01*
X22091Y8295D01*
Y8306D01*
X22087Y8325D01*
X22079Y8337D01*
X22068Y8341D01*
X22060D01*
X22158Y8314D02*
X22154Y8302D01*
X22147Y8295D01*
X22135Y8291D01*
X22132D01*
X22120Y8295D01*
X22112Y8302D01*
X22109Y8314D01*
Y8318D01*
X22112Y8329D01*
X22120Y8337D01*
X22132Y8341D01*
X22135D01*
X22147Y8337D01*
X22154Y8329D01*
X22158Y8314D01*
Y8295D01*
X22154Y8276D01*
X22147Y8264D01*
X22135Y8261D01*
X22128D01*
X22116Y8264D01*
X22112Y8272D01*
D52*
X19553Y8491D02*
Y8411D01*
X19599D01*
X19668D02*
X19638Y8491D01*
X19607Y8411D01*
X19619Y8437D02*
X19657D01*
X19687Y8491D02*
Y8411D01*
Y8491D02*
X19718Y8411D01*
X19748Y8491D02*
X19718Y8411D01*
X19748Y8491D02*
Y8411D01*
X19771Y8491D02*
Y8411D01*
Y8491D02*
X19805D01*
X19817Y8487D01*
X19820Y8483D01*
X19824Y8475D01*
Y8468D01*
X19820Y8460D01*
X19817Y8456D01*
X19805Y8452D01*
X19771D02*
X19805D01*
X19817Y8449D01*
X19820Y8445D01*
X19824Y8437D01*
Y8426D01*
X19820Y8418D01*
X19817Y8414D01*
X19805Y8411D01*
X19771D01*
X19892Y8491D02*
X19842D01*
Y8411D01*
X19892D01*
X19842Y8452D02*
X19873D01*
X19905Y8491D02*
Y8411D01*
Y8491D02*
X19939D01*
X19951Y8487D01*
X19954Y8483D01*
X19958Y8475D01*
Y8468D01*
X19954Y8460D01*
X19951Y8456D01*
X19939Y8452D01*
X19905D01*
X19932D02*
X19958Y8411D01*
X20003Y8491D02*
Y8411D01*
X19976Y8491D02*
X20030D01*
X20159Y8472D02*
X20155Y8479D01*
X20148Y8487D01*
X20140Y8491D01*
X20125D01*
X20117Y8487D01*
X20109Y8479D01*
X20106Y8472D01*
X20102Y8460D01*
Y8441D01*
X20106Y8430D01*
X20109Y8422D01*
X20117Y8414D01*
X20125Y8411D01*
X20140D01*
X20148Y8414D01*
X20155Y8422D01*
X20159Y8430D01*
X20204Y8491D02*
X20197Y8487D01*
X20189Y8479D01*
X20185Y8472D01*
X20181Y8460D01*
Y8441D01*
X20185Y8430D01*
X20189Y8422D01*
X20197Y8414D01*
X20204Y8411D01*
X20220D01*
X20227Y8414D01*
X20235Y8422D01*
X20239Y8430D01*
X20242Y8441D01*
Y8460D01*
X20239Y8472D01*
X20235Y8479D01*
X20227Y8487D01*
X20220Y8491D01*
X20204D01*
X20261D02*
Y8411D01*
Y8491D02*
X20314Y8411D01*
Y8491D02*
Y8411D01*
X20363Y8491D02*
Y8411D01*
X20336Y8491D02*
X20390D01*
X20399D02*
Y8411D01*
Y8491D02*
X20434D01*
X20445Y8487D01*
X20449Y8483D01*
X20453Y8475D01*
Y8468D01*
X20449Y8460D01*
X20445Y8456D01*
X20434Y8452D01*
X20399D01*
X20426D02*
X20453Y8411D01*
X20493Y8491D02*
X20486Y8487D01*
X20478Y8479D01*
X20474Y8472D01*
X20471Y8460D01*
Y8441D01*
X20474Y8430D01*
X20478Y8422D01*
X20486Y8414D01*
X20493Y8411D01*
X20509D01*
X20516Y8414D01*
X20524Y8422D01*
X20528Y8430D01*
X20531Y8441D01*
Y8460D01*
X20528Y8472D01*
X20524Y8479D01*
X20516Y8487D01*
X20509Y8491D01*
X20493D01*
X20550D02*
Y8411D01*
X20596D01*
X20605Y8491D02*
Y8411D01*
X20650D01*
X20709Y8491D02*
X20659D01*
Y8411D01*
X20709D01*
X20659Y8452D02*
X20690D01*
X20722Y8491D02*
Y8411D01*
Y8491D02*
X20756D01*
X20768Y8487D01*
X20771Y8483D01*
X20775Y8475D01*
Y8468D01*
X20771Y8460D01*
X20768Y8456D01*
X20756Y8452D01*
X20722D01*
X20749D02*
X20775Y8411D01*
X20801Y8414D02*
X20797Y8411D01*
X20793Y8414D01*
X20797Y8418D01*
X20801Y8414D01*
Y8407D01*
X20797Y8399D01*
X20793Y8395D01*
X20904Y8491D02*
X20893Y8487D01*
X20885Y8475D01*
X20881Y8456D01*
Y8445D01*
X20885Y8426D01*
X20893Y8414D01*
X20904Y8411D01*
X20912D01*
X20923Y8414D01*
X20931Y8426D01*
X20934Y8445D01*
Y8456D01*
X20931Y8475D01*
X20923Y8487D01*
X20912Y8491D01*
X20904D01*
X20956Y8418D02*
X20952Y8414D01*
X20956Y8411D01*
X20960Y8414D01*
X20956Y8418D01*
X21016Y8491D02*
X20977Y8437D01*
X21035D01*
X21016Y8491D02*
Y8411D01*
X21049Y8464D02*
Y8411D01*
Y8449D02*
X21060Y8460D01*
X21068Y8464D01*
X21079D01*
X21087Y8460D01*
X21091Y8449D01*
Y8411D01*
Y8449D02*
X21102Y8460D01*
X21110Y8464D01*
X21121D01*
X21129Y8460D01*
X21133Y8449D01*
Y8411D01*
X21283Y8491D02*
Y8411D01*
Y8491D02*
X21318D01*
X21329Y8487D01*
X21333Y8483D01*
X21337Y8475D01*
Y8468D01*
X21333Y8460D01*
X21329Y8456D01*
X21318Y8452D01*
X21283D01*
X21310D02*
X21337Y8411D01*
X21355Y8441D02*
X21400D01*
Y8449D01*
X21396Y8456D01*
X21393Y8460D01*
X21385Y8464D01*
X21374D01*
X21366Y8460D01*
X21358Y8452D01*
X21355Y8441D01*
Y8433D01*
X21358Y8422D01*
X21366Y8414D01*
X21374Y8411D01*
X21385D01*
X21393Y8414D01*
X21400Y8422D01*
X21417Y8464D02*
X21440Y8411D01*
X21463Y8464D02*
X21440Y8411D01*
X21480Y8418D02*
X21476Y8414D01*
X21480Y8411D01*
X21484Y8414D01*
X21480Y8418D01*
X21625Y8411D02*
X21594Y8491D01*
X21564Y8411D01*
X21575Y8437D02*
X21614D01*
D53*
X22352Y12323D02*
D03*
Y11513D02*
D03*
D54*
X22539Y12069D02*
D03*
X22692Y12019D02*
D03*
X22539Y11969D02*
D03*
X22692Y11919D02*
D03*
X22539Y11869D02*
D03*
X22692Y11819D02*
D03*
X22539Y11769D02*
D03*
D55*
X18672Y12066D02*
D03*
Y11476D02*
D03*
X18830D02*
D03*
Y12066D02*
D03*
X18672Y10460D02*
D03*
Y9869D02*
D03*
X18830D02*
D03*
Y10460D02*
D03*
X22694Y11210D02*
D03*
Y11112D02*
D03*
X22596D02*
D03*
Y11210D02*
D03*
X18830Y10676D02*
D03*
Y11266D02*
D03*
X18672D02*
D03*
Y10676D02*
D03*
D56*
Y11771D02*
D03*
X18928Y11869D02*
D03*
X18732D02*
D03*
Y11673D02*
D03*
X18928D02*
D03*
X18672Y10165D02*
D03*
X18928Y10263D02*
D03*
X18732D02*
D03*
Y10066D02*
D03*
X18928D02*
D03*
X23005Y11636D02*
D03*
Y11786D02*
D03*
Y11936D02*
D03*
Y12086D02*
D03*
Y12236D02*
D03*
Y12386D02*
D03*
Y12536D02*
D03*
Y12686D02*
D03*
Y12836D02*
D03*
Y12986D02*
D03*
Y13136D02*
D03*
X18928Y11069D02*
D03*
X18732D02*
D03*
Y10873D02*
D03*
X18928D02*
D03*
X18672Y10971D02*
D03*
D57*
X20446Y12883D02*
D03*
X20406D02*
D03*
X20367D02*
D03*
Y12843D02*
D03*
X20406D02*
D03*
X20446D02*
D03*
D58*
X20623Y10093D02*
D03*
X20523D02*
D03*
X20623Y10193D02*
D03*
X20523D02*
D03*
X20623Y10293D02*
D03*
X20523D02*
D03*
X20623Y10393D02*
D03*
X20523D02*
D03*
X20623Y10493D02*
D03*
X20523D02*
D03*
X20623Y10593D02*
D03*
X20523D02*
D03*
X20623Y10693D02*
D03*
X20523D02*
D03*
X20623Y10793D02*
D03*
X20523D02*
D03*
X20623Y10893D02*
D03*
X20523D02*
D03*
X20623Y10993D02*
D03*
X19249Y10537D02*
D03*
X19349Y10637D02*
D03*
X19249D02*
D03*
X19349Y10737D02*
D03*
X19249D02*
D03*
X19349Y10837D02*
D03*
X19249D02*
D03*
X19349Y10937D02*
D03*
X19249D02*
D03*
X19349Y11037D02*
D03*
X19249D02*
D03*
X19349Y11137D02*
D03*
X19249D02*
D03*
D59*
X20523Y10993D02*
D03*
X19349Y10537D02*
D03*
D60*
X19684Y12876D02*
D03*
Y12676D02*
D03*
Y12376D02*
D03*
X19384Y12576D02*
D03*
Y12676D02*
D03*
Y12476D02*
D03*
Y12376D02*
D03*
X19684Y12476D02*
D03*
Y12576D02*
D03*
D61*
X19384Y12876D02*
D03*
D62*
X22801Y11398D02*
D03*
Y10924D02*
D03*
D63*
X20811Y12754D02*
D03*
Y12954D02*
D03*
D64*
X23005Y13286D02*
D03*
D65*
X18885Y12301D02*
D03*
Y13281D02*
D03*
D66*
X18985Y12623D02*
D03*
D67*
X18785D02*
D03*
X18885Y12578D02*
D03*
X18785Y12713D02*
D03*
X18885Y12668D02*
D03*
X18985Y12713D02*
D03*
X18785Y12803D02*
D03*
X18885Y12758D02*
D03*
X18985Y12803D02*
D03*
X18785Y12894D02*
D03*
X18885Y12849D02*
D03*
X18985Y12894D02*
D03*
X18785Y12984D02*
D03*
X18885Y12939D02*
D03*
X18985Y12984D02*
D03*
D68*
X22384Y11337D02*
D03*
X22428D02*
D03*
X22471D02*
D03*
X22428Y11290D02*
D03*
X22385D02*
D03*
X22471D02*
D03*
Y11247D02*
D03*
X22428D02*
D03*
X22385D02*
D03*
D69*
X19308Y11561D02*
D03*
X19105Y10212D02*
D03*
X21136Y10226D02*
D03*
X19018Y10319D02*
D03*
X21113Y10248D02*
D03*
X20287Y10842D02*
D03*
Y10329D02*
D03*
X19147Y10423D02*
D03*
X20900Y10270D02*
D03*
X21135Y10272D02*
D03*
X21289Y10297D02*
D03*
X21124Y10136D02*
D03*
X21160Y10318D02*
D03*
X22410Y11435D02*
D03*
X22420Y10378D02*
D03*
X19527Y10393D02*
D03*
X20717Y10292D02*
D03*
X20718Y10409D02*
D03*
X21164Y10414D02*
D03*
X21431Y11562D02*
D03*
X21341Y10462D02*
D03*
X20075Y10410D02*
D03*
X21142Y10467D02*
D03*
X21318Y10508D02*
D03*
X22654Y10532D02*
D03*
X21094Y10490D02*
D03*
X20425Y10433D02*
D03*
X20424Y10592D02*
D03*
X20569Y10445D02*
D03*
X21154Y10514D02*
D03*
X20736Y10767D02*
D03*
Y10500D02*
D03*
X21284Y10557D02*
D03*
X20702Y10951D02*
D03*
X20703Y10602D02*
D03*
X20140Y10473D02*
D03*
X21099Y10533D02*
D03*
X20352Y10682D02*
D03*
X20351Y10568D02*
D03*
X20385Y10762D02*
D03*
X20384Y10612D02*
D03*
X21294Y10650D02*
D03*
X20413Y10800D02*
D03*
Y10652D02*
D03*
X21167Y10663D02*
D03*
X21103Y12073D02*
D03*
X21138Y10792D02*
D03*
X22060Y10336D02*
D03*
Y10622D02*
D03*
X22241Y10485D02*
D03*
Y10647D02*
D03*
X21785Y10628D02*
D03*
X22171Y10384D02*
D03*
X22169Y10605D02*
D03*
X21813Y10603D02*
D03*
X22027Y10440D02*
D03*
X21796Y10578D02*
D03*
X21568Y11933D02*
D03*
Y10415D02*
D03*
X22199Y10237D02*
D03*
X22200Y10581D02*
D03*
X21905Y10627D02*
D03*
X21909Y10485D02*
D03*
X22114Y10712D02*
D03*
Y10415D02*
D03*
X20862Y10815D02*
D03*
X19998Y11089D02*
D03*
X19951Y11021D02*
D03*
X19693Y11058D02*
D03*
X19869Y10931D02*
D03*
X19740Y10926D02*
D03*
X19696Y10899D02*
D03*
X19772Y10853D02*
D03*
X19686Y10763D02*
D03*
X19900Y10758D02*
D03*
X19846Y10619D02*
D03*
X20079Y10748D02*
D03*
X20170Y10625D02*
D03*
X20025Y10878D02*
D03*
X20157Y10917D02*
D03*
X19945Y11232D02*
D03*
X19957Y11742D02*
D03*
X20893Y11605D02*
D03*
X20885Y11704D02*
D03*
X21648Y10509D02*
D03*
X21613Y10372D02*
D03*
X21463Y10464D02*
D03*
X21377Y10377D02*
D03*
X21390Y10798D02*
D03*
X21369Y10557D02*
D03*
X21317Y10698D02*
D03*
X21060Y10557D02*
D03*
X21127Y10558D02*
D03*
X21166Y10698D02*
D03*
X20258Y12492D02*
D03*
X19220Y13238D02*
D03*
X19222Y13149D02*
D03*
X19774Y13282D02*
D03*
Y13104D02*
D03*
X20275Y13224D02*
D03*
X20320Y13079D02*
D03*
X19494Y13291D02*
D03*
X19452Y13292D02*
D03*
X19398Y13249D02*
D03*
X19644Y13180D02*
D03*
X19376Y13052D02*
D03*
X19699Y13165D02*
D03*
X21468Y11750D02*
D03*
X21330Y11668D02*
D03*
X21601Y11528D02*
D03*
X21289Y11620D02*
D03*
X21380Y11446D02*
D03*
X21478Y11382D02*
D03*
X19599Y11586D02*
D03*
X19602Y11741D02*
D03*
X19604Y11917D02*
D03*
X19599Y12076D02*
D03*
X19901Y12306D02*
D03*
X20393Y12301D02*
D03*
X20579Y12076D02*
D03*
X20568Y11838D02*
D03*
X20572Y11781D02*
D03*
X20570Y11623D02*
D03*
X20586Y11321D02*
D03*
X20135Y11463D02*
D03*
X19961Y11459D02*
D03*
X19785D02*
D03*
X19919Y11901D02*
D03*
X19930Y12026D02*
D03*
X19748Y12125D02*
D03*
X20220Y11979D02*
D03*
X20328Y12006D02*
D03*
X20252Y11862D02*
D03*
X20247Y11719D02*
D03*
X20253Y11600D02*
D03*
X20178Y11633D02*
D03*
X19999Y11656D02*
D03*
X19912Y11553D02*
D03*
X19835Y11665D02*
D03*
X19824Y11456D02*
D03*
X19731Y11564D02*
D03*
X19734Y11900D02*
D03*
X19735Y12059D02*
D03*
X19881Y12164D02*
D03*
X20215Y12162D02*
D03*
X20375Y12147D02*
D03*
X20432Y12095D02*
D03*
X20440Y11860D02*
D03*
X20443Y11722D02*
D03*
X20434Y11600D02*
D03*
X20179Y11455D02*
D03*
X19999Y11475D02*
D03*
X20316Y12555D02*
D03*
X20011Y12585D02*
D03*
X20591Y12805D02*
D03*
X20541Y12610D02*
D03*
X20376Y12750D02*
D03*
X19861Y12620D02*
D03*
X22491Y13329D02*
D03*
X22641Y13184D02*
D03*
X22586Y12889D02*
D03*
X22511Y12494D02*
D03*
X22381Y12564D02*
D03*
X22361Y12674D02*
D03*
X22141Y12989D02*
D03*
X21526Y12694D02*
D03*
X22191Y13239D02*
D03*
X22246Y12999D02*
D03*
X22161Y12484D02*
D03*
X21876Y12494D02*
D03*
X21946Y13184D02*
D03*
X21586D02*
D03*
X21277Y13029D02*
D03*
X21441Y12552D02*
D03*
X21386Y12843D02*
D03*
X21522Y13017D02*
D03*
X21281Y13288D02*
D03*
X21121Y13034D02*
D03*
X21191Y12664D02*
D03*
X21171Y12594D02*
D03*
X20951Y12724D02*
D03*
X20941Y12614D02*
D03*
X21121Y13104D02*
D03*
X19624Y9927D02*
D03*
X19621Y10224D02*
D03*
X19234Y10075D02*
D03*
X19235Y10177D02*
D03*
X19474Y10315D02*
D03*
X19475Y10124D02*
D03*
X19204Y10022D02*
D03*
X19365Y10188D02*
D03*
X19798Y9908D02*
D03*
X19784Y10074D02*
D03*
X20044Y13284D02*
D03*
X19921Y13343D02*
D03*
X20201Y13262D02*
D03*
X20065Y13142D02*
D03*
X19915Y13083D02*
D03*
X19656Y13271D02*
D03*
X19581Y13292D02*
D03*
X19960Y13281D02*
D03*
X19888Y13301D02*
D03*
X20248Y13137D02*
D03*
X20737Y13289D02*
D03*
X20756Y13176D02*
D03*
X20440Y13093D02*
D03*
X20500Y13296D02*
D03*
X20357Y13326D02*
D03*
X20653Y13150D02*
D03*
X20612Y13309D02*
D03*
X20418Y13356D02*
D03*
X19215Y13001D02*
D03*
X22755Y11971D02*
D03*
X20917Y10886D02*
D03*
X20914Y11265D02*
D03*
X20880Y10840D02*
D03*
Y11244D02*
D03*
X19620Y11274D02*
D03*
X19568Y11505D02*
D03*
X20717Y10553D02*
D03*
X20723Y10857D02*
D03*
X20319Y10532D02*
D03*
Y10724D02*
D03*
X20791Y10501D02*
D03*
X20790Y10694D02*
D03*
X20708Y10500D02*
D03*
X20819Y10391D02*
D03*
X20047Y10360D02*
D03*
X21038Y10500D02*
D03*
X21037Y10869D02*
D03*
X20441Y10865D02*
D03*
X20854Y10389D02*
D03*
X20853Y10762D02*
D03*
X21030Y10391D02*
D03*
X22449Y10507D02*
D03*
X22451Y11447D02*
D03*
X20886Y10345D02*
D03*
X20840Y10033D02*
D03*
X20873Y10296D02*
D03*
Y9935D02*
D03*
X19503Y10279D02*
D03*
X19457Y11038D02*
D03*
X19921Y10203D02*
D03*
X19923Y10822D02*
D03*
X19880Y10127D02*
D03*
Y10458D02*
D03*
X20918Y10698D02*
D03*
X20865Y12450D02*
D03*
X21038Y11859D02*
D03*
X21380D02*
D03*
X21299Y10996D02*
D03*
X22898Y9926D02*
D03*
X22291Y9933D02*
D03*
X22477Y10294D02*
D03*
X22530Y10431D02*
D03*
X22413Y10135D02*
D03*
X22325Y10962D02*
D03*
X22190Y11311D02*
D03*
X22520Y11106D02*
D03*
X22528Y11174D02*
D03*
X22330Y11191D02*
D03*
X22195Y11221D02*
D03*
X22170Y11266D02*
D03*
X22265Y10936D02*
D03*
X22150Y11226D02*
D03*
X22245Y11051D02*
D03*
X20665Y9881D02*
D03*
X19395Y9931D02*
D03*
X21735Y10011D02*
D03*
X19350Y10126D02*
D03*
X21665Y10151D02*
D03*
X19040Y10901D02*
D03*
X18985Y10026D02*
D03*
X19055Y10406D02*
D03*
X19420Y10591D02*
D03*
X20130Y11056D02*
D03*
X19410Y11551D02*
D03*
X19495Y11386D02*
D03*
X19465Y11766D02*
D03*
X19410Y11811D02*
D03*
X19485Y12056D02*
D03*
X19095Y12091D02*
D03*
X19130Y12191D02*
D03*
X19200Y12141D02*
D03*
X19140Y12296D02*
D03*
X18775Y12441D02*
D03*
X19290Y12191D02*
D03*
X20025Y12146D02*
D03*
X19970Y12836D02*
D03*
X19455Y12326D02*
D03*
X19530Y12321D02*
D03*
X20665Y12436D02*
D03*
X22195Y10896D02*
D03*
X20275Y11076D02*
D03*
X19785Y11211D02*
D03*
X20160Y10796D02*
D03*
X20025Y10621D02*
D03*
X19940Y10631D02*
D03*
X19685Y10511D02*
D03*
X22120Y11706D02*
D03*
X21703Y11679D02*
D03*
X21595Y11476D02*
D03*
X21430Y11771D02*
D03*
X21095Y11141D02*
D03*
X21365Y12211D02*
D03*
X20950Y12221D02*
D03*
X21030Y12406D02*
D03*
X20960Y12306D02*
D03*
X20880Y12306D02*
D03*
X20810Y12406D02*
D03*
X19150Y13246D02*
D03*
X22790D02*
D03*
X20221Y11126D02*
D03*
X20220Y11286D02*
D03*
X22026Y11228D02*
D03*
X22191Y11837D02*
D03*
X20141Y11217D02*
D03*
X22072Y11208D02*
D03*
X22247Y11976D02*
D03*
X19979Y10634D02*
D03*
X20111Y11219D02*
D03*
X20116Y12985D02*
D03*
X19984Y11219D02*
D03*
X19684Y11270D02*
D03*
X19784Y13014D02*
D03*
X19806Y11104D02*
D03*
X19653Y11130D02*
D03*
X19788Y12806D02*
D03*
X19476Y12931D02*
D03*
X19646Y11218D02*
D03*
X19593Y12135D02*
D03*
X21273Y11283D02*
D03*
Y11429D02*
D03*
X19364Y11235D02*
D03*
X19330Y13093D02*
D03*
X19626Y10597D02*
D03*
Y10119D02*
D03*
X19786Y10510D02*
D03*
X19837Y10210D02*
D03*
X20620Y11359D02*
D03*
X18893D02*
D03*
X23086Y11488D02*
D03*
X21706Y11629D02*
D03*
X23115Y11581D02*
D03*
X20923Y11648D02*
D03*
X18994Y11608D02*
D03*
X21328Y11622D02*
D03*
X21887Y12183D02*
D03*
X21761Y11505D02*
D03*
X21594Y11773D02*
D03*
X21221Y11735D02*
D03*
X19761Y11976D02*
D03*
X21512Y11901D02*
D03*
X21674Y11920D02*
D03*
Y13331D02*
D03*
X21887Y13367D02*
D03*
X20457Y12472D02*
D03*
X20432Y12753D02*
D03*
X20596Y12699D02*
D03*
X19925Y12749D02*
D03*
X20145Y12858D02*
D03*
X21827Y11685D02*
D03*
X20759Y11807D02*
D03*
X19065Y13052D02*
D03*
X19063Y12802D02*
D03*
X19832Y13302D02*
D03*
X19296Y13305D02*
D03*
Y12473D02*
D03*
X18948Y13083D02*
D03*
X20273Y12964D02*
D03*
X19442Y12962D02*
D03*
X18851Y13107D02*
D03*
X18999Y13176D02*
D03*
X19550Y12839D02*
D03*
X18568Y11388D02*
D03*
X18614Y11630D02*
D03*
X18882Y12503D02*
D03*
X19266D02*
D03*
X19265Y11965D02*
D03*
X21888Y12867D02*
D03*
X21849Y10947D02*
D03*
X21509Y10888D02*
D03*
X20820Y10948D02*
D03*
X20810Y12139D02*
D03*
X21850D02*
D03*
X20893Y12221D02*
D03*
Y12131D02*
D03*
X20616Y12139D02*
D03*
X20618Y12995D02*
D03*
X19199Y12478D02*
D03*
X19583Y12523D02*
D03*
X20935Y12410D02*
D03*
X21087Y12204D02*
D03*
X20965Y12392D02*
D03*
X20068Y9941D02*
D03*
X21797Y10439D02*
D03*
X21833Y10414D02*
D03*
X20042Y11019D02*
D03*
X19868Y11020D02*
D03*
X21293Y10594D02*
D03*
X21315Y10621D02*
D03*
D70*
X19490Y13234D02*
D03*
X20003Y13217D02*
D03*
X20531Y13235D02*
D03*
D101*
X20129Y11965D02*
D03*
Y12075D02*
D03*
D102*
X21611Y12947D02*
D03*
Y12847D02*
D03*
Y12747D02*
D03*
D103*
X22736Y12622D02*
D03*
Y13072D02*
D03*
D104*
X21279Y12574D02*
D03*
X21023D02*
D03*
Y13134D02*
D03*
X21279D02*
D03*
D105*
X19482Y13179D02*
D03*
Y13049D02*
D03*
X19999Y13031D02*
D03*
Y13161D02*
D03*
X20529Y13045D02*
D03*
Y13175D02*
D03*
D106*
X19660Y13084D02*
D03*
Y13358D02*
D03*
X20706Y13357D02*
D03*
Y13083D02*
D03*
X20175Y13335D02*
D03*
Y13061D02*
D03*
D107*
X22029Y11704D02*
D03*
Y12184D02*
D03*
D108*
X19476Y12877D02*
D03*
X19513Y12779D02*
D03*
X19528Y12372D02*
D03*
X19491Y12470D02*
D03*
D109*
X19550Y12877D02*
D03*
X19454Y12372D02*
D03*
M02*
