%FSLAX23Y23*%
%MOIN*%
G70*
G01*
G75*
%ADD10C,0.040*%
%ADD11R,0.030X0.030*%
%ADD12R,0.037X0.035*%
%ADD13R,0.037X0.035*%
%ADD14R,0.075X0.020*%
%ADD15R,0.020X0.075*%
%ADD16R,0.330X0.370*%
%ADD17R,0.040X0.160*%
%ADD18R,0.090X0.012*%
%ADD19R,0.012X0.090*%
%ADD20R,0.031X0.060*%
%ADD21R,0.014X0.060*%
%ADD22R,0.030X0.100*%
%ADD23O,0.080X0.024*%
%ADD24O,0.024X0.080*%
%ADD25R,0.070X0.078*%
%ADD26R,0.063X0.063*%
%ADD27R,0.035X0.037*%
%ADD28R,0.035X0.037*%
%ADD29R,0.015X0.100*%
%ADD30O,0.015X0.100*%
%ADD31R,0.098X0.051*%
%ADD32R,0.100X0.052*%
%ADD33R,0.128X0.128*%
%ADD34R,0.020X0.012*%
%ADD35R,0.012X0.020*%
%ADD36R,0.085X0.071*%
%ADD37R,0.071X0.085*%
%ADD38R,0.030X0.030*%
%ADD39R,0.125X0.060*%
%ADD40R,0.030X0.037*%
%ADD41R,0.060X0.050*%
%ADD42R,0.037X0.030*%
%ADD43R,0.050X0.060*%
%ADD44R,0.100X0.095*%
%ADD45R,0.060X0.060*%
%ADD46R,0.060X0.125*%
%ADD47R,0.028X0.017*%
%ADD48R,0.095X0.100*%
%ADD49R,0.063X0.063*%
%ADD50R,0.060X0.060*%
%ADD51O,0.071X0.012*%
%ADD52O,0.012X0.071*%
%ADD53R,0.100X0.280*%
%ADD54R,0.045X0.014*%
%ADD55R,0.057X0.022*%
%ADD56R,0.057X0.022*%
%ADD57R,0.022X0.057*%
%ADD58R,0.022X0.057*%
%ADD59C,0.019*%
%ADD60R,1.170X0.780*%
%ADD61C,0.006*%
%ADD62C,0.008*%
%ADD63C,0.020*%
%ADD64C,0.010*%
%ADD65C,0.015*%
%ADD66C,0.050*%
%ADD67C,0.062*%
%ADD68R,0.062X0.062*%
%ADD69C,0.128*%
%ADD70C,0.236*%
%ADD71C,0.025*%
%ADD72C,0.020*%
%ADD73C,0.040*%
G04:AMPARAMS|DCode=74|XSize=85mil|YSize=85mil|CornerRadius=0mil|HoleSize=0mil|Usage=FLASHONLY|Rotation=0.000|XOffset=0mil|YOffset=0mil|HoleType=Round|Shape=Relief|Width=10mil|Gap=10mil|Entries=4|*
%AMTHD74*
7,0,0,0.085,0.065,0.010,45*
%
%ADD74THD74*%
%ADD75C,0.082*%
%ADD76C,0.132*%
G04:AMPARAMS|DCode=77|XSize=102mil|YSize=102mil|CornerRadius=0mil|HoleSize=0mil|Usage=FLASHONLY|Rotation=0.000|XOffset=0mil|YOffset=0mil|HoleType=Round|Shape=Relief|Width=10mil|Gap=10mil|Entries=4|*
%AMTHD77*
7,0,0,0.102,0.082,0.010,45*
%
%ADD77THD77*%
%ADD78C,0.065*%
G04:AMPARAMS|DCode=79|XSize=178mil|YSize=178mil|CornerRadius=0mil|HoleSize=0mil|Usage=FLASHONLY|Rotation=0.000|XOffset=0mil|YOffset=0mil|HoleType=Round|Shape=Relief|Width=10mil|Gap=10mil|Entries=4|*
%AMTHD79*
7,0,0,0.178,0.158,0.010,45*
%
%ADD79THD79*%
G04:AMPARAMS|DCode=80|XSize=96mil|YSize=96mil|CornerRadius=0mil|HoleSize=0mil|Usage=FLASHONLY|Rotation=0.000|XOffset=0mil|YOffset=0mil|HoleType=Round|Shape=Relief|Width=10mil|Gap=10mil|Entries=4|*
%AMTHD80*
7,0,0,0.096,0.076,0.010,45*
%
%ADD80THD80*%
%ADD81C,0.035*%
%ADD82C,0.030*%
%ADD83C,0.158*%
%ADD84C,0.076*%
%ADD85R,0.016X0.085*%
%ADD86R,0.707X0.020*%
%ADD87C,0.009*%
%ADD88C,0.010*%
%ADD89C,0.012*%
%ADD90C,0.024*%
%ADD91C,0.004*%
%ADD92C,0.008*%
%ADD93C,0.005*%
%ADD94R,0.350X0.200*%
G36*
X2591Y2015D02*
Y2054D01*
X2630D01*
X2591Y2015D01*
D02*
G37*
D61*
X4562Y947D02*
X4956D01*
X4562D02*
Y1092D01*
Y1368D02*
Y1513D01*
X4956D01*
Y1372D02*
Y1513D01*
Y947D02*
Y1092D01*
X3710Y1280D02*
X3910D01*
X3919Y1069D02*
Y1269D01*
X3712Y1061D02*
X3912D01*
X3701Y1070D02*
Y1270D01*
X4770Y615D02*
Y915D01*
X5070D01*
Y615D02*
Y915D01*
X4770Y615D02*
X5070D01*
D62*
X5270Y1005D02*
X5305D01*
X5270Y1055D02*
X5305D01*
X5200D02*
X5240D01*
X5200Y1005D02*
X5240D01*
X5305D02*
Y1055D01*
X5200Y1005D02*
Y1055D01*
X5866Y3701D02*
Y4331D01*
X5512D02*
X5866D01*
Y3681D02*
Y3701D01*
X5276Y3681D02*
X5866D01*
X5276Y3681D02*
Y4331D01*
X5551D01*
X2410Y1465D02*
X2445D01*
X2410Y1515D02*
X2445D01*
X2340D02*
X2380D01*
X2340Y1465D02*
X2380D01*
X2445D02*
Y1515D01*
X2340Y1465D02*
Y1515D01*
X2400Y2005D02*
X2435D01*
X2400Y2055D02*
X2435D01*
X2330D02*
X2370D01*
X2330Y2005D02*
X2370D01*
X2435D02*
Y2055D01*
X2330Y2005D02*
Y2055D01*
X2400Y2150D02*
X2435D01*
X2400Y2200D02*
X2435D01*
X2330D02*
X2370D01*
X2330Y2150D02*
X2370D01*
X2435D02*
Y2200D01*
X2330Y2150D02*
Y2200D01*
X2620Y1210D02*
Y1245D01*
X2570Y1210D02*
Y1245D01*
Y1140D02*
Y1180D01*
X2620Y1140D02*
Y1180D01*
X2570Y1245D02*
X2620D01*
X2570Y1140D02*
X2620D01*
X2765Y1210D02*
Y1245D01*
X2715Y1210D02*
Y1245D01*
Y1140D02*
Y1180D01*
X2765Y1140D02*
Y1180D01*
X2715Y1245D02*
X2765D01*
X2715Y1140D02*
X2765D01*
X2830Y1210D02*
Y1245D01*
X2780Y1210D02*
Y1245D01*
Y1140D02*
Y1180D01*
X2830Y1140D02*
Y1180D01*
X2780Y1245D02*
X2830D01*
X2780Y1140D02*
X2830D01*
X3055Y1210D02*
Y1245D01*
X3005Y1210D02*
Y1245D01*
Y1140D02*
Y1180D01*
X3055Y1140D02*
Y1180D01*
X3005Y1245D02*
X3055D01*
X3005Y1140D02*
X3055D01*
X3120Y1210D02*
Y1245D01*
X3070Y1210D02*
Y1245D01*
Y1140D02*
Y1180D01*
X3120Y1140D02*
Y1180D01*
X3070Y1245D02*
X3120D01*
X3070Y1140D02*
X3120D01*
X3305Y1210D02*
Y1245D01*
X3255Y1210D02*
Y1245D01*
Y1140D02*
Y1180D01*
X3305Y1140D02*
Y1180D01*
X3255Y1245D02*
X3305D01*
X3255Y1140D02*
X3305D01*
X3440Y1810D02*
X3475D01*
X3440Y1860D02*
X3475D01*
X3370D02*
X3410D01*
X3370Y1810D02*
X3410D01*
X3475D02*
Y1860D01*
X3370Y1810D02*
Y1860D01*
X3440Y1635D02*
X3475D01*
X3440Y1685D02*
X3475D01*
X3370D02*
X3410D01*
X3370Y1635D02*
X3410D01*
X3475D02*
Y1685D01*
X3370Y1635D02*
Y1685D01*
X2340Y1580D02*
X2375D01*
X2340Y1530D02*
X2375D01*
X2405D02*
X2445D01*
X2405Y1580D02*
X2445D01*
X2340Y1530D02*
Y1580D01*
X2445Y1530D02*
Y1580D01*
X2340Y1915D02*
X2375D01*
X2340Y1865D02*
X2375D01*
X2405D02*
X2445D01*
X2405Y1915D02*
X2445D01*
X2340Y1865D02*
Y1915D01*
X2445Y1865D02*
Y1915D01*
X3235Y1210D02*
Y1245D01*
X3185Y1210D02*
Y1245D01*
Y1140D02*
Y1180D01*
X3235Y1140D02*
Y1180D01*
X3185Y1245D02*
X3235D01*
X3185Y1140D02*
X3235D01*
X3370Y1790D02*
X3405D01*
X3370Y1740D02*
X3405D01*
X3435D02*
X3475D01*
X3435Y1790D02*
X3475D01*
X3370Y1740D02*
Y1790D01*
X3475Y1740D02*
Y1790D01*
X3370Y1925D02*
X3405D01*
X3370Y1875D02*
X3405D01*
X3435D02*
X3475D01*
X3435Y1925D02*
X3475D01*
X3370Y1875D02*
Y1925D01*
X3475Y1875D02*
Y1925D01*
X3370Y1990D02*
X3405D01*
X3370Y1940D02*
X3405D01*
X3435D02*
X3475D01*
X3435Y1990D02*
X3475D01*
X3370Y1940D02*
Y1990D01*
X3475Y1940D02*
Y1990D01*
X2275Y1965D02*
X2310D01*
X2275Y2015D02*
X2310D01*
X2205D02*
X2245D01*
X2205Y1965D02*
X2245D01*
X2310D02*
Y2015D01*
X2205Y1965D02*
Y2015D01*
X2400Y2070D02*
X2435D01*
X2400Y2120D02*
X2435D01*
X2330D02*
X2370D01*
X2330Y2070D02*
X2370D01*
X2435D02*
Y2120D01*
X2330Y2070D02*
Y2120D01*
X3370Y2065D02*
X3405D01*
X3370Y2015D02*
X3405D01*
X3435D02*
X3475D01*
X3435Y2065D02*
X3475D01*
X3370Y2015D02*
Y2065D01*
X3475Y2015D02*
Y2065D01*
X3035Y2190D02*
Y2225D01*
X3085Y2190D02*
Y2225D01*
Y2255D02*
Y2295D01*
X3035Y2255D02*
Y2295D01*
Y2190D02*
X3085D01*
X3035Y2295D02*
X3085D01*
X830Y2610D02*
X865D01*
X830Y2660D02*
X865D01*
X760D02*
X800D01*
X760Y2610D02*
X800D01*
X865D02*
Y2660D01*
X760Y2610D02*
Y2660D01*
X3100Y2190D02*
Y2225D01*
X3150Y2190D02*
Y2225D01*
Y2255D02*
Y2295D01*
X3100Y2255D02*
Y2295D01*
Y2190D02*
X3150D01*
X3100Y2295D02*
X3150D01*
X2890Y2190D02*
Y2225D01*
X2940Y2190D02*
Y2225D01*
Y2255D02*
Y2295D01*
X2890Y2255D02*
Y2295D01*
Y2190D02*
X2940D01*
X2890Y2295D02*
X2940D01*
X2695Y2190D02*
Y2225D01*
X2745Y2190D02*
Y2225D01*
Y2255D02*
Y2295D01*
X2695Y2255D02*
Y2295D01*
Y2190D02*
X2745D01*
X2695Y2295D02*
X2745D01*
X2600Y2190D02*
Y2225D01*
X2650Y2190D02*
Y2225D01*
Y2255D02*
Y2295D01*
X2600Y2255D02*
Y2295D01*
Y2190D02*
X2650D01*
X2600Y2295D02*
X2650D01*
X1200Y2475D02*
X1235D01*
X1200Y2525D02*
X1235D01*
X1130D02*
X1170D01*
X1130Y2475D02*
X1170D01*
X1235D02*
Y2525D01*
X1130Y2475D02*
Y2525D01*
X2825Y2190D02*
Y2225D01*
X2875Y2190D02*
Y2225D01*
Y2255D02*
Y2295D01*
X2825Y2255D02*
Y2295D01*
Y2190D02*
X2875D01*
X2825Y2295D02*
X2875D01*
X2920Y1140D02*
Y1175D01*
X2970Y1140D02*
Y1175D01*
Y1205D02*
Y1245D01*
X2920Y1205D02*
Y1245D01*
Y1140D02*
X2970D01*
X2920Y1245D02*
X2970D01*
X2855Y1140D02*
Y1175D01*
X2905Y1140D02*
Y1175D01*
Y1205D02*
Y1245D01*
X2855Y1205D02*
Y1245D01*
Y1140D02*
X2905D01*
X2855Y1245D02*
X2905D01*
X3955Y1690D02*
Y1725D01*
X3905Y1690D02*
Y1725D01*
Y1620D02*
Y1660D01*
X3955Y1620D02*
Y1660D01*
X3905Y1725D02*
X3955D01*
X3905Y1620D02*
X3955D01*
X1575Y1735D02*
Y1770D01*
X1625Y1735D02*
Y1770D01*
Y1800D02*
Y1840D01*
X1575Y1800D02*
Y1840D01*
Y1735D02*
X1625D01*
X1575Y1840D02*
X1625D01*
X1130Y1745D02*
Y1780D01*
X1180Y1745D02*
Y1780D01*
Y1810D02*
Y1850D01*
X1130Y1810D02*
Y1850D01*
Y1745D02*
X1180D01*
X1130Y1850D02*
X1180D01*
X1625Y1930D02*
Y1965D01*
X1575Y1930D02*
Y1965D01*
Y1860D02*
Y1900D01*
X1625Y1860D02*
Y1900D01*
X1575Y1965D02*
X1625D01*
X1575Y1860D02*
X1625D01*
X4065Y1690D02*
Y1725D01*
X4015Y1690D02*
Y1725D01*
Y1620D02*
Y1660D01*
X4065Y1620D02*
Y1660D01*
X4015Y1725D02*
X4065D01*
X4015Y1620D02*
X4065D01*
X5425Y2025D02*
Y2060D01*
X5475Y2025D02*
Y2060D01*
Y2090D02*
Y2130D01*
X5425Y2090D02*
Y2130D01*
Y2025D02*
X5475D01*
X5425Y2130D02*
X5475D01*
X2970Y2190D02*
Y2225D01*
X3020Y2190D02*
Y2225D01*
Y2255D02*
Y2295D01*
X2970Y2255D02*
Y2295D01*
Y2190D02*
X3020D01*
X2970Y2295D02*
X3020D01*
X2410Y1795D02*
X2445D01*
X2410Y1845D02*
X2445D01*
X2340D02*
X2380D01*
X2340Y1795D02*
X2380D01*
X2445D02*
Y1845D01*
X2340Y1795D02*
Y1845D01*
X2410Y1600D02*
X2445D01*
X2410Y1650D02*
X2445D01*
X2340D02*
X2380D01*
X2340Y1600D02*
X2380D01*
X2445D02*
Y1650D01*
X2340Y1600D02*
Y1650D01*
X1975Y1285D02*
Y1320D01*
X2025Y1285D02*
Y1320D01*
Y1350D02*
Y1390D01*
X1975Y1350D02*
Y1390D01*
Y1285D02*
X2025D01*
X1975Y1390D02*
X2025D01*
X3770Y2325D02*
X3805D01*
X3770Y2375D02*
X3805D01*
X3700D02*
X3740D01*
X3700Y2325D02*
X3740D01*
X3805D02*
Y2375D01*
X3700Y2325D02*
Y2375D01*
X4220Y2335D02*
Y2370D01*
X4270Y2335D02*
Y2370D01*
Y2400D02*
Y2440D01*
X4220Y2400D02*
Y2440D01*
Y2335D02*
X4270D01*
X4220Y2440D02*
X4270D01*
X5390Y2565D02*
Y2600D01*
X5440Y2565D02*
Y2600D01*
Y2630D02*
Y2670D01*
X5390Y2630D02*
Y2670D01*
Y2565D02*
X5440D01*
X5390Y2670D02*
X5440D01*
X1520Y1310D02*
Y1345D01*
X1570Y1310D02*
Y1345D01*
Y1375D02*
Y1415D01*
X1520Y1375D02*
Y1415D01*
Y1310D02*
X1570D01*
X1520Y1415D02*
X1570D01*
X205Y2275D02*
Y2310D01*
X255Y2275D02*
Y2310D01*
Y2340D02*
Y2380D01*
X205Y2340D02*
Y2380D01*
Y2275D02*
X255D01*
X205Y2380D02*
X255D01*
X1130Y1870D02*
Y1905D01*
X1180Y1870D02*
Y1905D01*
Y1935D02*
Y1975D01*
X1130Y1935D02*
Y1975D01*
Y1870D02*
X1180D01*
X1130Y1975D02*
X1180D01*
X4960Y520D02*
X4995D01*
X4960Y570D02*
X4995D01*
X4890D02*
X4930D01*
X4890Y520D02*
X4930D01*
X4995D02*
Y570D01*
X4890Y520D02*
Y570D01*
X3875Y890D02*
Y925D01*
X3925Y890D02*
Y925D01*
Y955D02*
Y995D01*
X3875Y955D02*
Y995D01*
Y890D02*
X3925D01*
X3875Y995D02*
X3925D01*
X3587Y1366D02*
X3622D01*
X3587Y1316D02*
X3622D01*
X3652D02*
X3692D01*
X3652Y1366D02*
X3692D01*
X3587Y1316D02*
Y1366D01*
X3692Y1316D02*
Y1366D01*
X875Y1850D02*
Y1885D01*
X825Y1850D02*
Y1885D01*
Y1780D02*
Y1820D01*
X875Y1780D02*
Y1820D01*
X825Y1885D02*
X875D01*
X825Y1780D02*
X875D01*
X430Y1855D02*
Y1890D01*
X380Y1855D02*
Y1890D01*
Y1785D02*
Y1825D01*
X430Y1785D02*
Y1825D01*
X380Y1890D02*
X430D01*
X380Y1785D02*
X430D01*
X3565Y1145D02*
Y1180D01*
X3615Y1145D02*
Y1180D01*
Y1210D02*
Y1250D01*
X3565Y1210D02*
Y1250D01*
Y1145D02*
X3615D01*
X3565Y1250D02*
X3615D01*
X5040Y1175D02*
Y1210D01*
X5090Y1175D02*
Y1210D01*
Y1240D02*
Y1280D01*
X5040Y1240D02*
Y1280D01*
Y1175D02*
X5090D01*
X5040Y1280D02*
X5090D01*
X5040Y1040D02*
Y1075D01*
X5090Y1040D02*
Y1075D01*
Y1105D02*
Y1145D01*
X5040Y1105D02*
Y1145D01*
Y1040D02*
X5090D01*
X5040Y1145D02*
X5090D01*
X5290Y530D02*
X5325D01*
X5290Y580D02*
X5325D01*
X5220D02*
X5260D01*
X5220Y530D02*
X5260D01*
X5325D02*
Y580D01*
X5220Y530D02*
Y580D01*
X5265Y745D02*
Y780D01*
X5315Y745D02*
Y780D01*
Y810D02*
Y850D01*
X5265Y810D02*
Y850D01*
Y745D02*
X5315D01*
X5265Y850D02*
X5315D01*
X5195Y745D02*
Y780D01*
X5245Y745D02*
Y780D01*
Y810D02*
Y850D01*
X5195Y810D02*
Y850D01*
Y745D02*
X5245D01*
X5195Y850D02*
X5245D01*
X5090Y1395D02*
Y1430D01*
X5040Y1395D02*
Y1430D01*
Y1325D02*
Y1365D01*
X5090Y1325D02*
Y1365D01*
X5040Y1430D02*
X5090D01*
X5040Y1325D02*
X5090D01*
X5360Y1260D02*
X5395D01*
X5360Y1210D02*
X5395D01*
X5425D02*
X5465D01*
X5425Y1260D02*
X5465D01*
X5360Y1210D02*
Y1260D01*
X5465Y1210D02*
Y1260D01*
X4230Y1145D02*
X4265D01*
X4230Y1095D02*
X4265D01*
X4295D02*
X4335D01*
X4295Y1145D02*
X4335D01*
X4230Y1095D02*
Y1145D01*
X4335Y1095D02*
Y1145D01*
X4385Y1095D02*
Y1130D01*
X4435Y1095D02*
Y1130D01*
Y1160D02*
Y1200D01*
X4385Y1160D02*
Y1200D01*
Y1095D02*
X4435D01*
X4385Y1200D02*
X4435D01*
X5400Y1070D02*
X5435D01*
X5400Y1120D02*
X5435D01*
X5330D02*
X5370D01*
X5330Y1070D02*
X5370D01*
X5435D02*
Y1120D01*
X5330Y1070D02*
Y1120D01*
X5270Y1070D02*
X5305D01*
X5270Y1120D02*
X5305D01*
X5200D02*
X5240D01*
X5200Y1070D02*
X5240D01*
X5305D02*
Y1120D01*
X5200Y1070D02*
Y1120D01*
X4400Y1460D02*
X4435D01*
X4400Y1510D02*
X4435D01*
X4330D02*
X4370D01*
X4330Y1460D02*
X4370D01*
X4435D02*
Y1510D01*
X4330Y1460D02*
Y1510D01*
X4195Y1510D02*
X4230D01*
X4195Y1460D02*
X4230D01*
X4260D02*
X4300D01*
X4260Y1510D02*
X4300D01*
X4195Y1460D02*
Y1510D01*
X4300Y1460D02*
Y1510D01*
X5050Y2990D02*
Y3025D01*
X5000Y2990D02*
Y3025D01*
Y2920D02*
Y2960D01*
X5050Y2920D02*
Y2960D01*
X5000Y3025D02*
X5050D01*
X5000Y2920D02*
X5050D01*
X4180Y1660D02*
Y1695D01*
X4130Y1660D02*
Y1695D01*
Y1590D02*
Y1630D01*
X4180Y1590D02*
Y1630D01*
X4130Y1695D02*
X4180D01*
X4130Y1590D02*
X4180D01*
X4250Y1660D02*
Y1695D01*
X4200Y1660D02*
Y1695D01*
Y1590D02*
Y1630D01*
X4250Y1590D02*
Y1630D01*
X4200Y1695D02*
X4250D01*
X4200Y1590D02*
X4250D01*
X5360Y1450D02*
Y1485D01*
X5410Y1450D02*
Y1485D01*
Y1515D02*
Y1555D01*
X5360Y1515D02*
Y1555D01*
Y1450D02*
X5410D01*
X5360Y1555D02*
X5410D01*
X1205Y3040D02*
X1240D01*
X1205Y2990D02*
X1240D01*
X1270D02*
X1310D01*
X1270Y3040D02*
X1310D01*
X1205Y2990D02*
Y3040D01*
X1310Y2990D02*
Y3040D01*
X2400Y3035D02*
X2435D01*
X2400Y3085D02*
X2435D01*
X2330D02*
X2370D01*
X2330Y3035D02*
X2370D01*
X2435D02*
Y3085D01*
X2330Y3035D02*
Y3085D01*
X5130Y1520D02*
Y1555D01*
X5080Y1520D02*
Y1555D01*
Y1450D02*
Y1490D01*
X5130Y1450D02*
Y1490D01*
X5080Y1555D02*
X5130D01*
X5080Y1450D02*
X5130D01*
X4270Y2160D02*
Y2195D01*
X4220Y2160D02*
Y2195D01*
Y2090D02*
Y2130D01*
X4270Y2090D02*
Y2130D01*
X4220Y2195D02*
X4270D01*
X4220Y2090D02*
X4270D01*
Y2040D02*
Y2075D01*
X4220Y2040D02*
Y2075D01*
Y1970D02*
Y2010D01*
X4270Y1970D02*
Y2010D01*
X4220Y2075D02*
X4270D01*
X4220Y1970D02*
X4270D01*
X5280Y2635D02*
Y2670D01*
X5230Y2635D02*
Y2670D01*
Y2565D02*
Y2605D01*
X5280Y2565D02*
Y2605D01*
X5230Y2670D02*
X5280D01*
X5230Y2565D02*
X5280D01*
X4950Y3335D02*
X4985D01*
X4950Y3385D02*
X4985D01*
X4880D02*
X4920D01*
X4880Y3335D02*
X4920D01*
X4985D02*
Y3385D01*
X4880Y3335D02*
Y3385D01*
X5010Y4200D02*
X5045D01*
X5010Y4150D02*
X5045D01*
X5075D02*
X5115D01*
X5075Y4200D02*
X5115D01*
X5010Y4150D02*
Y4200D01*
X5115Y4150D02*
Y4200D01*
X4675Y3870D02*
X4710D01*
X4675Y3820D02*
X4710D01*
X4740D02*
X4780D01*
X4740Y3870D02*
X4780D01*
X4675Y3820D02*
Y3870D01*
X4780Y3820D02*
Y3870D01*
X4220Y2210D02*
Y2245D01*
X4270Y2210D02*
Y2245D01*
Y2275D02*
Y2315D01*
X4220Y2275D02*
Y2315D01*
Y2210D02*
X4270D01*
X4220Y2315D02*
X4270D01*
X5325Y2480D02*
Y2515D01*
X5275Y2480D02*
Y2515D01*
Y2410D02*
Y2450D01*
X5325Y2410D02*
Y2450D01*
X5275Y2515D02*
X5325D01*
X5275Y2410D02*
X5325D01*
X3905Y1470D02*
Y1505D01*
X3955Y1470D02*
Y1505D01*
Y1535D02*
Y1575D01*
X3905Y1535D02*
Y1575D01*
Y1470D02*
X3955D01*
X3905Y1575D02*
X3955D01*
X5205Y2410D02*
Y2445D01*
X5255Y2410D02*
Y2445D01*
Y2475D02*
Y2515D01*
X5205Y2475D02*
Y2515D01*
Y2410D02*
X5255D01*
X5205Y2515D02*
X5255D01*
X4045Y1535D02*
Y1570D01*
X3995Y1535D02*
Y1570D01*
Y1465D02*
Y1505D01*
X4045Y1465D02*
Y1505D01*
X3995Y1570D02*
X4045D01*
X3995Y1465D02*
X4045D01*
X4867Y3170D02*
X4988D01*
X4867D02*
Y3310D01*
X4987D01*
X4988Y3170D02*
Y3309D01*
X4987Y3310D02*
X4988Y3309D01*
X1205Y2960D02*
X1240D01*
X1205Y2910D02*
X1240D01*
X1270D02*
X1310D01*
X1270Y2960D02*
X1310D01*
X1205Y2910D02*
Y2960D01*
X1310Y2910D02*
Y2960D01*
X1205Y2890D02*
X1240D01*
X1205Y2840D02*
X1240D01*
X1270D02*
X1310D01*
X1270Y2890D02*
X1310D01*
X1205Y2840D02*
Y2890D01*
X1310Y2840D02*
Y2890D01*
X1995Y2325D02*
X2030D01*
X1995Y2375D02*
X2030D01*
X1925D02*
X1965D01*
X1925Y2325D02*
X1965D01*
X2030D02*
Y2375D01*
X1925Y2325D02*
Y2375D01*
X2405Y2835D02*
X2440D01*
X2405Y2885D02*
X2440D01*
X2335D02*
X2375D01*
X2335Y2835D02*
X2375D01*
X2440D02*
Y2885D01*
X2335Y2835D02*
Y2885D01*
X1795Y3295D02*
X1830D01*
X1795Y3245D02*
X1830D01*
X1860D02*
X1900D01*
X1860Y3295D02*
X1900D01*
X1795Y3245D02*
Y3295D01*
X1900Y3245D02*
Y3295D01*
X2335Y2950D02*
X2370D01*
X2335Y2900D02*
X2370D01*
X2400D02*
X2440D01*
X2400Y2950D02*
X2440D01*
X2335Y2900D02*
Y2950D01*
X2440Y2900D02*
Y2950D01*
X2335Y3015D02*
X2370D01*
X2335Y2965D02*
X2370D01*
X2400D02*
X2440D01*
X2400Y3015D02*
X2440D01*
X2335Y2965D02*
Y3015D01*
X2440Y2965D02*
Y3015D01*
X2975Y2375D02*
X3010D01*
X2975Y2325D02*
X3010D01*
X3040D02*
X3080D01*
X3040Y2375D02*
X3080D01*
X2975Y2325D02*
Y2375D01*
X3080Y2325D02*
Y2375D01*
X3375Y2810D02*
Y2845D01*
X3425Y2810D02*
Y2845D01*
Y2875D02*
Y2915D01*
X3375Y2875D02*
Y2915D01*
Y2810D02*
X3425D01*
X3375Y2915D02*
X3425D01*
X2865Y3330D02*
X2900D01*
X2865Y3280D02*
X2900D01*
X2930D02*
X2970D01*
X2930Y3330D02*
X2970D01*
X2865Y3280D02*
Y3330D01*
X2970Y3280D02*
Y3330D01*
X3600Y3500D02*
X3635D01*
X3600Y3450D02*
X3635D01*
X3665D02*
X3705D01*
X3665Y3500D02*
X3705D01*
X3600Y3450D02*
Y3500D01*
X3705Y3450D02*
Y3500D01*
X4680Y2690D02*
Y2725D01*
X4630Y2690D02*
Y2725D01*
Y2620D02*
Y2660D01*
X4680Y2620D02*
Y2660D01*
X4630Y2725D02*
X4680D01*
X4630Y2620D02*
X4680D01*
X3670Y3515D02*
X3705D01*
X3670Y3565D02*
X3705D01*
X3600D02*
X3640D01*
X3600Y3515D02*
X3640D01*
X3705D02*
Y3565D01*
X3600Y3515D02*
Y3565D01*
X4670Y1750D02*
X4705D01*
X4670Y1700D02*
X4705D01*
X4735D02*
X4775D01*
X4735Y1750D02*
X4775D01*
X4670Y1700D02*
Y1750D01*
X4775Y1700D02*
Y1750D01*
X4705Y2620D02*
Y2655D01*
X4755Y2620D02*
Y2655D01*
Y2685D02*
Y2725D01*
X4705Y2685D02*
Y2725D01*
Y2620D02*
X4755D01*
X4705Y2725D02*
X4755D01*
X4750Y3310D02*
X4785D01*
X4750Y3360D02*
X4785D01*
X4680D02*
X4720D01*
X4680Y3310D02*
X4720D01*
X4785D02*
Y3360D01*
X4680Y3310D02*
Y3360D01*
X3615Y3240D02*
X3650D01*
X3615Y3190D02*
X3650D01*
X3680D02*
X3720D01*
X3680Y3240D02*
X3720D01*
X3615Y3190D02*
Y3240D01*
X3720Y3190D02*
Y3240D01*
X1265Y3940D02*
X1300D01*
X1265Y3990D02*
X1300D01*
X1195D02*
X1235D01*
X1195Y3940D02*
X1235D01*
X1300D02*
Y3990D01*
X1195Y3940D02*
Y3990D01*
X2340Y4030D02*
X2375D01*
X2340Y3980D02*
X2375D01*
X2405D02*
X2445D01*
X2405Y4030D02*
X2445D01*
X2340Y3980D02*
Y4030D01*
X2445Y3980D02*
Y4030D01*
X3680Y3125D02*
X3715D01*
X3680Y3175D02*
X3715D01*
X3610D02*
X3650D01*
X3610Y3125D02*
X3650D01*
X3715D02*
Y3175D01*
X3610Y3125D02*
Y3175D01*
X4745Y3895D02*
X4780D01*
X4745Y3945D02*
X4780D01*
X4675D02*
X4715D01*
X4675Y3895D02*
X4715D01*
X4780D02*
Y3945D01*
X4675Y3895D02*
Y3945D01*
X5325Y2360D02*
Y2395D01*
X5275Y2360D02*
Y2395D01*
Y2290D02*
Y2330D01*
X5325Y2290D02*
Y2330D01*
X5275Y2395D02*
X5325D01*
X5275Y2290D02*
X5325D01*
X3610Y3110D02*
X3645D01*
X3610Y3060D02*
X3645D01*
X3675D02*
X3715D01*
X3675Y3110D02*
X3715D01*
X3610Y3060D02*
Y3110D01*
X3715Y3060D02*
Y3110D01*
X5205Y2290D02*
Y2325D01*
X5255Y2290D02*
Y2325D01*
Y2355D02*
Y2395D01*
X5205Y2355D02*
Y2395D01*
Y2290D02*
X5255D01*
X5205Y2395D02*
X5255D01*
X4675Y3560D02*
X4710D01*
X4675Y3510D02*
X4710D01*
X4740D02*
X4780D01*
X4740Y3560D02*
X4780D01*
X4675Y3510D02*
Y3560D01*
X4780Y3510D02*
Y3560D01*
X5365Y1695D02*
X5400D01*
X5365Y1645D02*
X5400D01*
X5430D02*
X5470D01*
X5430Y1695D02*
X5470D01*
X5365Y1645D02*
Y1695D01*
X5470Y1645D02*
Y1695D01*
X4680Y3230D02*
X4715D01*
X4680Y3180D02*
X4715D01*
X4745D02*
X4785D01*
X4745Y3230D02*
X4785D01*
X4680Y3180D02*
Y3230D01*
X4785Y3180D02*
Y3230D01*
X4915Y3035D02*
Y3070D01*
X4965Y3035D02*
Y3070D01*
Y3100D02*
Y3140D01*
X4915Y3100D02*
Y3140D01*
Y3035D02*
X4965D01*
X4915Y3140D02*
X4965D01*
X4965Y2925D02*
Y2960D01*
X4915Y2925D02*
Y2960D01*
Y2855D02*
Y2895D01*
X4965Y2855D02*
Y2895D01*
X4915Y2960D02*
X4965D01*
X4915Y2855D02*
X4965D01*
X5175Y2080D02*
X5210D01*
X5175Y2030D02*
X5210D01*
X5240D02*
X5280D01*
X5240Y2080D02*
X5280D01*
X5175Y2030D02*
Y2080D01*
X5280Y2030D02*
Y2080D01*
X5345Y2290D02*
Y2325D01*
X5395Y2290D02*
Y2325D01*
Y2355D02*
Y2395D01*
X5345Y2355D02*
Y2395D01*
Y2290D02*
X5395D01*
X5345Y2395D02*
X5395D01*
X5302Y3235D02*
X5423D01*
X5302D02*
Y3375D01*
X5422D01*
X5423Y3235D02*
Y3374D01*
X5422Y3375D02*
X5423Y3374D01*
X1195Y3920D02*
X1230D01*
X1195Y3870D02*
X1230D01*
X1260D02*
X1300D01*
X1260Y3920D02*
X1300D01*
X1195Y3870D02*
Y3920D01*
X1300Y3870D02*
Y3920D01*
X1195Y3855D02*
X1230D01*
X1195Y3805D02*
X1230D01*
X1260D02*
X1300D01*
X1260Y3855D02*
X1300D01*
X1195Y3805D02*
Y3855D01*
X1300Y3805D02*
Y3855D01*
X2045Y3290D02*
X2080D01*
X2045Y3340D02*
X2080D01*
X1975D02*
X2015D01*
X1975Y3290D02*
X2015D01*
X2080D02*
Y3340D01*
X1975Y3290D02*
Y3340D01*
X2410Y3770D02*
X2445D01*
X2410Y3820D02*
X2445D01*
X2340D02*
X2380D01*
X2340Y3770D02*
X2380D01*
X2445D02*
Y3820D01*
X2340Y3770D02*
Y3820D01*
X1790Y4225D02*
X1825D01*
X1790Y4175D02*
X1825D01*
X1855D02*
X1895D01*
X1855Y4225D02*
X1895D01*
X1790Y4175D02*
Y4225D01*
X1895Y4175D02*
Y4225D01*
X2340Y3890D02*
X2375D01*
X2340Y3840D02*
X2375D01*
X2405D02*
X2445D01*
X2405Y3890D02*
X2445D01*
X2340Y3840D02*
Y3890D01*
X2445Y3840D02*
Y3890D01*
X2340Y3960D02*
X2375D01*
X2340Y3910D02*
X2375D01*
X2405D02*
X2445D01*
X2405Y3960D02*
X2445D01*
X2340Y3910D02*
Y3960D01*
X2445Y3910D02*
Y3960D01*
X2895Y4225D02*
X2930D01*
X2895Y4175D02*
X2930D01*
X2960D02*
X3000D01*
X2960Y4225D02*
X3000D01*
X2895Y4175D02*
Y4225D01*
X3000Y4175D02*
Y4225D01*
X3485Y3850D02*
X3520D01*
X3485Y3900D02*
X3520D01*
X3415D02*
X3455D01*
X3415Y3850D02*
X3455D01*
X3520D02*
Y3900D01*
X3415Y3850D02*
Y3900D01*
X3020Y3330D02*
X3055D01*
X3020Y3280D02*
X3055D01*
X3085D02*
X3125D01*
X3085Y3330D02*
X3125D01*
X3020Y3280D02*
Y3330D01*
X3125Y3280D02*
Y3330D01*
X3985Y4125D02*
X4020D01*
X3985Y4175D02*
X4020D01*
X3915D02*
X3955D01*
X3915Y4125D02*
X3955D01*
X4020D02*
Y4175D01*
X3915Y4125D02*
Y4175D01*
X3600Y3900D02*
X3635D01*
X3600Y3850D02*
X3635D01*
X3665D02*
X3705D01*
X3665Y3900D02*
X3705D01*
X3600Y3850D02*
Y3900D01*
X3705Y3850D02*
Y3900D01*
X3600Y3660D02*
X3635D01*
X3600Y3610D02*
X3635D01*
X3665D02*
X3705D01*
X3665Y3660D02*
X3705D01*
X3600Y3610D02*
Y3660D01*
X3705Y3610D02*
Y3660D01*
X3615Y3330D02*
X3650D01*
X3615Y3280D02*
X3650D01*
X3680D02*
X3720D01*
X3680Y3330D02*
X3720D01*
X3615Y3280D02*
Y3330D01*
X3720Y3280D02*
Y3330D01*
X3975Y2915D02*
Y2950D01*
X4025Y2915D02*
Y2950D01*
Y2980D02*
Y3020D01*
X3975Y2980D02*
Y3020D01*
Y2915D02*
X4025D01*
X3975Y3020D02*
X4025D01*
X4750Y3245D02*
X4785D01*
X4750Y3295D02*
X4785D01*
X4680D02*
X4720D01*
X4680Y3245D02*
X4720D01*
X4785D02*
Y3295D01*
X4680Y3245D02*
Y3295D01*
X4745Y3690D02*
X4780D01*
X4745Y3740D02*
X4780D01*
X4675D02*
X4715D01*
X4675Y3690D02*
X4715D01*
X4780D02*
Y3740D01*
X4675Y3690D02*
Y3740D01*
X4400Y4125D02*
X4435D01*
X4400Y4175D02*
X4435D01*
X4330D02*
X4370D01*
X4330Y4125D02*
X4370D01*
X4435D02*
Y4175D01*
X4330Y4125D02*
Y4175D01*
X4175Y4175D02*
X4210D01*
X4175Y4125D02*
X4210D01*
X4240D02*
X4280D01*
X4240Y4175D02*
X4280D01*
X4175Y4125D02*
Y4175D01*
X4280Y4125D02*
Y4175D01*
X5357Y1865D02*
X5478D01*
Y1725D02*
Y1865D01*
X5358Y1725D02*
X5478D01*
X5357Y1726D02*
Y1865D01*
Y1726D02*
X5358Y1725D01*
X4705Y4105D02*
Y4195D01*
Y4105D02*
X4795D01*
Y4195D01*
X4705D02*
X4795D01*
X1205Y2335D02*
Y2425D01*
Y2335D02*
X1295D01*
Y2425D01*
X1205D02*
X1295D01*
X3675Y2600D02*
Y2690D01*
Y2600D02*
X3765D01*
Y2690D01*
X3675D02*
X3765D01*
X2317Y1945D02*
X2318Y1944D01*
Y1805D02*
Y1944D01*
X2197Y1945D02*
X2317D01*
X2197Y1805D02*
Y1945D01*
Y1805D02*
X2318D01*
X2317Y1780D02*
X2318Y1779D01*
Y1640D02*
Y1779D01*
X2197Y1780D02*
X2317D01*
X2197Y1640D02*
Y1780D01*
Y1640D02*
X2318D01*
X5680Y3587D02*
Y3620D01*
X5713Y3587D01*
X5722D01*
X5730Y3595D01*
Y3612D01*
X5722Y3620D01*
X5580D02*
Y3603D01*
Y3612D01*
X5630D01*
X5622Y3620D01*
X5680Y2820D02*
Y2803D01*
Y2812D01*
X5730D01*
X5722Y2820D01*
X5680Y2753D02*
X5730D01*
X5705Y2778D01*
Y2745D01*
X5580Y2820D02*
Y2803D01*
Y2812D01*
X5630D01*
X5622Y2820D01*
Y2778D02*
X5630Y2770D01*
Y2753D01*
X5622Y2745D01*
X5613D01*
X5605Y2753D01*
Y2762D01*
Y2753D01*
X5597Y2745D01*
X5588D01*
X5580Y2753D01*
Y2770D01*
X5588Y2778D01*
D64*
X1836Y1820D02*
G03*
X1786Y1820I-25J0D01*
G01*
X4045Y1755D02*
G03*
X3995Y1755I-25J0D01*
G01*
X780Y3135D02*
G03*
X780Y3185I0J25D01*
G01*
X485Y2275D02*
G03*
X435Y2275I-25J0D01*
G01*
X1400Y1820D02*
G03*
X1350Y1820I-25J0D01*
G01*
X4030Y2275D02*
G03*
X3980Y2275I-25J0D01*
G01*
X965Y2375D02*
G03*
X915Y2375I-25J0D01*
G01*
X4575Y2979D02*
G03*
X4575Y3035I0J28D01*
G01*
X1480Y1465D02*
G03*
X1480Y1415I0J-25D01*
G01*
X1930Y1465D02*
G03*
X1930Y1415I0J-25D01*
G01*
X275Y3135D02*
G03*
X275Y3185I0J25D01*
G01*
X5080Y2870D02*
G03*
X5080Y2920I0J25D01*
G01*
X5520Y630D02*
G03*
X5520Y680I-25J25D01*
G01*
X5030Y3225D02*
G03*
X5030Y3275I0J25D01*
G01*
X5325Y1815D02*
G03*
X5325Y1765I0J-25D01*
G01*
X5170Y700D02*
G03*
X5170Y700I-5J0D01*
G01*
X5190Y1275D02*
G03*
X5190Y1275I-5J0D01*
G01*
X1100Y1090D02*
Y1450D01*
Y1080D02*
Y1090D01*
X1080Y1060D02*
X1100Y1080D01*
X760Y1060D02*
X1080D01*
X740Y1080D02*
X760Y1060D01*
X740Y1080D02*
Y1450D01*
X3940Y3220D02*
X4390D01*
X3940D02*
Y3930D01*
X4430D01*
Y3260D02*
Y3930D01*
X4390Y3220D02*
X4430Y3260D01*
X2003Y394D02*
X3971D01*
X1755D02*
Y548D01*
X1424Y394D02*
Y611D01*
X1306Y296D02*
Y611D01*
X1727Y20D02*
Y296D01*
X1676Y20D02*
Y296D01*
X1440Y20D02*
Y296D01*
X1676D02*
X1727D01*
X1306Y611D02*
X1424D01*
X1306Y296D02*
X1440D01*
X1755Y548D02*
X2999D01*
X1424Y394D02*
X1755D01*
X1440Y20D02*
X1676D01*
X1727D02*
X2999D01*
X2908D02*
X4180D01*
X4231D02*
X4467D01*
X4152Y394D02*
X4483D01*
X2908Y548D02*
X4152D01*
X4467Y296D02*
X4601D01*
X4483Y611D02*
X4601D01*
X4180Y296D02*
X4231D01*
X4467Y20D02*
Y296D01*
X4231Y20D02*
Y296D01*
X4180Y20D02*
Y296D01*
X4601D02*
Y611D01*
X4483Y394D02*
Y611D01*
X4152Y394D02*
Y548D01*
X1761Y1820D02*
Y2170D01*
X1861Y1820D02*
Y2170D01*
X1836Y1820D02*
X1861D01*
X1761D02*
X1786D01*
X1761Y2170D02*
X1861D01*
X3970Y1755D02*
Y2105D01*
X4070Y1755D02*
Y2105D01*
X4045Y1755D02*
X4070D01*
X3970D02*
X3995D01*
X3970Y2105D02*
X4070D01*
X780Y3210D02*
X1130D01*
X780Y3110D02*
X1130D01*
X780D02*
Y3135D01*
Y3185D02*
Y3210D01*
X1130Y3110D02*
Y3210D01*
X410Y2275D02*
Y2625D01*
X510Y2275D02*
Y2625D01*
X485Y2275D02*
X510D01*
X410D02*
X435D01*
X410Y2625D02*
X510D01*
X1325Y1820D02*
Y2170D01*
X1425Y1820D02*
Y2170D01*
X1400Y1820D02*
X1425D01*
X1325D02*
X1350D01*
X1325Y2170D02*
X1425D01*
X240Y1080D02*
Y1450D01*
Y1080D02*
X260Y1060D01*
X580D01*
X600Y1080D01*
Y1090D01*
Y1450D01*
X4030Y2275D02*
X4055D01*
X3955D02*
X3980D01*
X3955D02*
Y2475D01*
X4055D01*
Y2275D02*
Y2475D01*
X965Y2375D02*
X990D01*
X890D02*
X915D01*
X890D02*
Y2575D01*
X990D01*
Y2375D02*
Y2575D01*
X5750Y1250D02*
X5800D01*
Y1450D01*
X5750D02*
X5800D01*
X5550Y1150D02*
X5750D01*
X5550Y1550D02*
X5750D01*
Y1150D02*
Y1550D01*
X5550Y1150D02*
Y1550D01*
X4575Y2865D02*
Y2975D01*
Y3035D02*
Y3145D01*
X4895Y2865D02*
Y3145D01*
X4575D02*
X4895D01*
X4575Y2865D02*
X4895D01*
X1480Y1465D02*
Y1490D01*
Y1390D02*
Y1415D01*
X1280Y1390D02*
X1480D01*
X1280D02*
Y1490D01*
X1480D01*
X1930Y1465D02*
Y1490D01*
Y1390D02*
Y1415D01*
X1730Y1390D02*
X1930D01*
X1730D02*
Y1490D01*
X1930D01*
X275Y3210D02*
X625D01*
X275Y3110D02*
X625D01*
X275D02*
Y3135D01*
Y3185D02*
Y3210D01*
X625Y3110D02*
Y3210D01*
X5430Y2845D02*
Y2945D01*
X5080Y2920D02*
Y2945D01*
Y2845D02*
Y2870D01*
Y2845D02*
X5430D01*
X5080Y2945D02*
X5430D01*
X5520Y590D02*
X5699D01*
Y725D01*
X5520D02*
X5699D01*
X5520Y680D02*
Y725D01*
Y590D02*
Y630D01*
X5030Y3200D02*
Y3225D01*
Y3275D02*
Y3300D01*
X5230D01*
Y3200D02*
Y3300D01*
X5030Y3200D02*
X5230D01*
X5325Y1815D02*
Y1840D01*
Y1740D02*
Y1765D01*
X5125Y1740D02*
X5325D01*
X5125D02*
Y1840D01*
X5325D01*
X4890Y180D02*
Y310D01*
Y180D02*
X5010D01*
Y310D01*
Y370D02*
Y390D01*
X4890Y370D02*
Y480D01*
X4910Y500D01*
X4990D01*
X5010Y480D01*
Y390D02*
Y480D01*
X5030Y180D02*
Y310D01*
Y180D02*
X5150D01*
Y310D01*
Y370D02*
Y390D01*
X5030Y370D02*
Y480D01*
X5050Y500D01*
X5130D01*
X5150Y480D01*
Y390D02*
Y480D01*
X1225Y3080D02*
Y3170D01*
Y3080D02*
X1245Y3060D01*
X1325D01*
X1345Y3080D01*
Y3190D01*
X1225Y3170D02*
Y3190D01*
Y3250D02*
Y3380D01*
X1345D01*
Y3250D02*
Y3380D01*
X2425Y3170D02*
X2515D01*
X2535Y3190D01*
Y3270D01*
X2515Y3290D02*
X2535Y3270D01*
X2405Y3290D02*
X2515D01*
X2405Y3170D02*
X2425D01*
X2215D02*
X2345D01*
X2215D02*
Y3290D01*
X2345D01*
X4970Y3645D02*
Y3775D01*
X4850D02*
X4970D01*
X4850Y3645D02*
Y3775D01*
Y3565D02*
Y3585D01*
X4970Y3475D02*
Y3585D01*
X4950Y3455D02*
X4970Y3475D01*
X4870Y3455D02*
X4950D01*
X4850Y3475D02*
X4870Y3455D01*
X4850Y3475D02*
Y3565D01*
X1145Y3885D02*
Y3975D01*
X1125Y3995D02*
X1145Y3975D01*
X1045Y3995D02*
X1125D01*
X1025Y3975D02*
X1045Y3995D01*
X1025Y3865D02*
Y3975D01*
X1145Y3865D02*
Y3885D01*
Y3675D02*
Y3805D01*
X1025Y3675D02*
X1145D01*
X1025D02*
Y3805D01*
X2420Y4100D02*
X2510D01*
X2530Y4120D01*
Y4200D01*
X2510Y4220D02*
X2530Y4200D01*
X2400Y4220D02*
X2510D01*
X2400Y4100D02*
X2420D01*
X2210D02*
X2340D01*
X2210D02*
Y4220D01*
X2340D01*
X3430Y4060D02*
X3560D01*
X3430Y3940D02*
Y4060D01*
Y3940D02*
X3560D01*
X3620D02*
X3640D01*
X3620Y4060D02*
X3730D01*
X3750Y4040D01*
Y3960D02*
Y4040D01*
X3730Y3940D02*
X3750Y3960D01*
X3640Y3940D02*
X3730D01*
X1732Y591D02*
X1752D01*
X1742D01*
Y651D01*
X1732Y641D01*
X1822Y651D02*
X1782D01*
Y621D01*
X1802Y631D01*
X1812D01*
X1822Y621D01*
Y601D01*
X1812Y591D01*
X1792D01*
X1782Y601D01*
X1882Y651D02*
X1842D01*
Y621D01*
X1862Y631D01*
X1872D01*
X1882Y621D01*
Y601D01*
X1872Y591D01*
X1852D01*
X1842Y601D01*
X4153Y609D02*
Y629D01*
Y619D01*
X4093D01*
X4103Y609D01*
X1480Y492D02*
G03*
X1420Y492I-30J0D01*
G01*
X5905Y0D02*
Y4330D01*
X0D02*
X5905D01*
X1420Y394D02*
Y492D01*
X1480Y395D02*
Y492D01*
Y394D02*
X4117D01*
X4725D01*
X1180D02*
X1420D01*
X4725Y0D02*
X5905D01*
X4725D02*
Y394D01*
X0Y0D02*
Y4330D01*
Y0D02*
X1180D01*
Y394D01*
D87*
X105Y3830D02*
Y3910D01*
X145D01*
X158Y3897D01*
Y3870D01*
X145Y3857D01*
X105D01*
X132D02*
X158Y3830D01*
X238Y3910D02*
X185D01*
Y3830D01*
X238D01*
X185Y3870D02*
X212D01*
X265Y3910D02*
Y3857D01*
X292Y3830D01*
X318Y3857D01*
Y3910D01*
X533Y4207D02*
X520Y4220D01*
X493D01*
X480Y4207D01*
Y4153D01*
X493Y4140D01*
X520D01*
X533Y4153D01*
X613Y4207D02*
X600Y4220D01*
X573D01*
X560Y4207D01*
Y4193D01*
X573Y4180D01*
X600D01*
X613Y4167D01*
Y4153D01*
X600Y4140D01*
X573D01*
X560Y4153D01*
X640Y4220D02*
Y4153D01*
X653Y4140D01*
X680D01*
X693Y4153D01*
Y4220D01*
X800D02*
Y4140D01*
X840D01*
X853Y4153D01*
Y4167D01*
X840Y4180D01*
X800D01*
X840D01*
X853Y4193D01*
Y4207D01*
X840Y4220D01*
X800D01*
X893Y4140D02*
X920D01*
X933Y4153D01*
Y4180D01*
X920Y4193D01*
X893D01*
X880Y4180D01*
Y4153D01*
X893Y4140D01*
X973Y4193D02*
X1000D01*
X1013Y4180D01*
Y4140D01*
X973D01*
X960Y4153D01*
X973Y4167D01*
X1013D01*
X1040Y4193D02*
Y4140D01*
Y4167D01*
X1053Y4180D01*
X1066Y4193D01*
X1080D01*
X1173Y4220D02*
Y4140D01*
X1133D01*
X1120Y4153D01*
Y4180D01*
X1133Y4193D01*
X1173D01*
D88*
X5525Y450D02*
G03*
X5525Y450I-5J0D01*
G01*
X3719Y1264D02*
G03*
X3719Y1264I-5J0D01*
G01*
X4972Y2465D02*
G03*
X4972Y2465I-5J0D01*
G01*
X2570Y2015D02*
G03*
X2570Y2015I-5J0D01*
G01*
D89*
X4926Y1065D02*
G03*
X4926Y1065I-6J0D01*
G01*
X1470Y4065D02*
X1515Y4110D01*
X1470Y3420D02*
Y3500D01*
X2160Y3420D02*
Y3500D01*
Y4030D02*
Y4110D01*
X1470Y4030D02*
Y4065D01*
Y3420D02*
X1550D01*
X2090D02*
X2160D01*
X2090Y4110D02*
X2160D01*
X1515D02*
X1550D01*
X1480Y3115D02*
X1525Y3160D01*
X1480Y2470D02*
Y2550D01*
X2170Y2470D02*
Y2550D01*
Y3080D02*
Y3160D01*
X1480Y3080D02*
Y3115D01*
Y2470D02*
X1560D01*
X2100D02*
X2170D01*
X2100Y3160D02*
X2170D01*
X1525D02*
X1560D01*
X2580Y3115D02*
X2625Y3160D01*
X2580Y2470D02*
Y2550D01*
X3270Y2470D02*
Y2550D01*
Y3080D02*
Y3160D01*
X2580Y3080D02*
Y3115D01*
Y2470D02*
X2660D01*
X3200D02*
X3270D01*
X3200Y3160D02*
X3270D01*
X2625D02*
X2660D01*
X2050Y2215D02*
X2150D01*
X2050Y1415D02*
Y2215D01*
Y1415D02*
X2150D01*
Y2215D01*
X2580Y4065D02*
X2625Y4110D01*
X2580Y3420D02*
Y3500D01*
X3270Y3420D02*
Y3500D01*
Y4030D02*
Y4110D01*
X2580Y4030D02*
Y4065D01*
Y3420D02*
X2660D01*
X3200D02*
X3270D01*
X3200Y4110D02*
X3270D01*
X2625D02*
X2660D01*
X5550Y2600D02*
X5650D01*
Y2700D01*
X5750Y2200D02*
Y2700D01*
X5550Y2200D02*
X5750D01*
X5550D02*
Y2700D01*
X5750D01*
X5550Y2050D02*
X5650D01*
Y2150D01*
X5750Y1650D02*
Y2150D01*
X5550Y1650D02*
X5750D01*
X5550D02*
Y2150D01*
X5750D01*
X3820Y1470D02*
Y2270D01*
X3720Y1470D02*
X3820D01*
X3720D02*
Y2270D01*
X3820D01*
X3175Y2286D02*
X3205Y2305D01*
X3175Y2195D02*
X3205Y2175D01*
Y2305D02*
X3250D01*
X3205Y2175D02*
X3250D01*
X3385Y2305D02*
X3465D01*
X3385Y2175D02*
X3465D01*
Y2305D01*
X3175Y2195D02*
Y2285D01*
X2611Y1120D02*
X2630Y1090D01*
X2500D02*
X2520Y1120D01*
X2630Y1045D02*
Y1090D01*
X2500Y1045D02*
Y1090D01*
X2630Y830D02*
Y910D01*
X2500Y830D02*
Y910D01*
Y830D02*
X2630D01*
X2520Y1120D02*
X2610D01*
X3441Y1245D02*
X3460Y1215D01*
X3330D02*
X3350Y1245D01*
X3460Y1170D02*
Y1215D01*
X3330Y1170D02*
Y1215D01*
X3460Y955D02*
Y1035D01*
X3330Y955D02*
Y1035D01*
Y955D02*
X3460D01*
X3350Y1245D02*
X3440D01*
X2426Y1440D02*
X2445Y1410D01*
X2315D02*
X2335Y1440D01*
X2445Y1365D02*
Y1410D01*
X2315Y1365D02*
Y1410D01*
X2445Y1150D02*
Y1230D01*
X2315Y1150D02*
Y1230D01*
Y1150D02*
X2445D01*
X2335Y1440D02*
X2425D01*
X3500Y1760D02*
X3519Y1730D01*
X3610D02*
X3630Y1760D01*
X3500D02*
Y1805D01*
X3630Y1760D02*
Y1805D01*
X3500Y1940D02*
Y2020D01*
X3630Y1940D02*
Y2020D01*
X3500D02*
X3630D01*
X3520Y1730D02*
X3610D01*
X3670Y1625D02*
Y1700D01*
X3500Y1625D02*
Y1700D01*
Y1415D02*
Y1490D01*
X3670Y1415D02*
Y1490D01*
X3500Y1700D02*
X3670D01*
X3500Y1415D02*
X3670D01*
X1140Y2695D02*
Y2785D01*
X950Y2695D02*
Y2785D01*
X1065D02*
X1140D01*
X1065Y2695D02*
X1140D01*
X950D02*
X1025D01*
X950Y2785D02*
X1025D01*
X715Y2690D02*
Y2780D01*
X905Y2690D02*
Y2780D01*
X715Y2690D02*
X790D01*
X715Y2780D02*
X790D01*
X830D02*
X905D01*
X830Y2690D02*
X905D01*
X740Y2225D02*
Y2315D01*
X930Y2225D02*
Y2315D01*
X740Y2225D02*
X815D01*
X740Y2315D02*
X815D01*
X855D02*
X930D01*
X855Y2225D02*
X930D01*
X990Y2235D02*
Y2325D01*
X1180Y2235D02*
Y2325D01*
X990Y2235D02*
X1065D01*
X990Y2325D02*
X1065D01*
X1105D02*
X1180D01*
X1105Y2235D02*
X1180D01*
X2050Y1155D02*
Y1245D01*
X1860Y1155D02*
Y1245D01*
X1975D02*
X2050D01*
X1975Y1155D02*
X2050D01*
X1860D02*
X1935D01*
X1860Y1245D02*
X1935D01*
X1755Y1645D02*
Y1735D01*
X1945Y1645D02*
Y1735D01*
X1755Y1645D02*
X1830D01*
X1755Y1735D02*
X1830D01*
X1870D02*
X1945D01*
X1870Y1645D02*
X1945D01*
X1840Y1155D02*
Y1245D01*
X1650Y1155D02*
Y1245D01*
X1765D02*
X1840D01*
X1765Y1155D02*
X1840D01*
X1650D02*
X1725D01*
X1650Y1245D02*
X1725D01*
X1760Y1045D02*
Y1135D01*
X1950Y1045D02*
Y1135D01*
X1760Y1045D02*
X1835D01*
X1760Y1135D02*
X1835D01*
X1875D02*
X1950D01*
X1875Y1045D02*
X1950D01*
X465Y3360D02*
X555D01*
X465Y3550D02*
X555D01*
Y3360D02*
Y3435D01*
X465Y3360D02*
Y3435D01*
Y3475D02*
Y3550D01*
X555Y3475D02*
Y3550D01*
X1585Y1155D02*
Y1245D01*
X1395Y1155D02*
Y1245D01*
X1510D02*
X1585D01*
X1510Y1155D02*
X1585D01*
X1395D02*
X1470D01*
X1395Y1245D02*
X1470D01*
X1460Y1645D02*
Y1735D01*
X1270Y1645D02*
Y1735D01*
X1385D02*
X1460D01*
X1385Y1645D02*
X1460D01*
X1270D02*
X1345D01*
X1270Y1735D02*
X1345D01*
X350Y3360D02*
X440D01*
X350Y3550D02*
X440D01*
Y3360D02*
Y3435D01*
X350Y3360D02*
Y3435D01*
Y3475D02*
Y3550D01*
X440Y3475D02*
Y3550D01*
X580Y3360D02*
X670D01*
X580Y3550D02*
X670D01*
Y3360D02*
Y3435D01*
X580Y3360D02*
Y3435D01*
Y3475D02*
Y3550D01*
X670Y3475D02*
Y3550D01*
X1380Y1155D02*
Y1245D01*
X1190Y1155D02*
Y1245D01*
X1305D02*
X1380D01*
X1305Y1155D02*
X1380D01*
X1190D02*
X1265D01*
X1190Y1245D02*
X1265D01*
X1290Y1045D02*
Y1135D01*
X1480Y1045D02*
Y1135D01*
X1290Y1045D02*
X1365D01*
X1290Y1135D02*
X1365D01*
X1405D02*
X1480D01*
X1405Y1045D02*
X1480D01*
X535Y2955D02*
X625D01*
X535Y2765D02*
X625D01*
X535Y2880D02*
Y2955D01*
X625Y2880D02*
Y2955D01*
Y2765D02*
Y2840D01*
X535Y2765D02*
Y2840D01*
X420Y2955D02*
X510D01*
X420Y2765D02*
X510D01*
X420Y2880D02*
Y2955D01*
X510Y2880D02*
Y2955D01*
Y2765D02*
Y2840D01*
X420Y2765D02*
Y2840D01*
X305Y2955D02*
X395D01*
X305Y2765D02*
X395D01*
X305Y2880D02*
Y2955D01*
X395Y2880D02*
Y2955D01*
Y2765D02*
Y2840D01*
X305Y2765D02*
Y2840D01*
X4076Y1445D02*
X4095Y1415D01*
X3965D02*
X3985Y1445D01*
X4095Y1370D02*
Y1415D01*
X3965Y1370D02*
Y1415D01*
X4095Y1155D02*
Y1235D01*
X3965Y1155D02*
Y1235D01*
Y1155D02*
X4095D01*
X3985Y1445D02*
X4075D01*
X665Y1780D02*
X684Y1750D01*
X775D02*
X795Y1780D01*
X665D02*
Y1825D01*
X795Y1780D02*
Y1825D01*
X665Y1960D02*
Y2040D01*
X795Y1960D02*
Y2040D01*
X665D02*
X795D01*
X685Y1750D02*
X775D01*
X925Y1780D02*
X944Y1750D01*
X1035D02*
X1055Y1780D01*
X925D02*
Y1825D01*
X1055Y1780D02*
Y1825D01*
X925Y1960D02*
Y2040D01*
X1055Y1960D02*
Y2040D01*
X925D02*
X1055D01*
X945Y1750D02*
X1035D01*
X215Y1770D02*
X234Y1740D01*
X325D02*
X345Y1770D01*
X215D02*
Y1815D01*
X345Y1770D02*
Y1815D01*
X215Y1950D02*
Y2030D01*
X345Y1950D02*
Y2030D01*
X215D02*
X345D01*
X235Y1740D02*
X325D01*
X485Y1780D02*
X504Y1750D01*
X595D02*
X615Y1780D01*
X485D02*
Y1825D01*
X615Y1780D02*
Y1825D01*
X485Y1960D02*
Y2040D01*
X615Y1960D02*
Y2040D01*
X485D02*
X615D01*
X505Y1750D02*
X595D01*
X5175Y205D02*
Y280D01*
X5345Y205D02*
Y280D01*
Y415D02*
Y490D01*
X5175Y415D02*
Y490D01*
Y205D02*
X5345D01*
X5175Y490D02*
X5345D01*
X4125Y1265D02*
X4200D01*
X4125Y1165D02*
X4200D01*
X4285D02*
X4360D01*
X4285Y1265D02*
X4360D01*
X4125Y1165D02*
Y1265D01*
X4360Y1165D02*
Y1265D01*
X5485Y1065D02*
X5560D01*
X5485Y895D02*
X5560D01*
X5695D02*
X5770D01*
X5695Y1065D02*
X5770D01*
X5485Y895D02*
Y1065D01*
X5770Y895D02*
Y1065D01*
X4415Y920D02*
X4445Y939D01*
X4415Y1050D02*
X4445Y1030D01*
X4370Y920D02*
X4415D01*
X4370Y1050D02*
X4415D01*
X4155Y920D02*
X4235D01*
X4155Y1050D02*
X4235D01*
X4155Y920D02*
Y1050D01*
X4445Y940D02*
Y1030D01*
X5660Y220D02*
X5750D01*
X5660Y410D02*
X5750D01*
Y220D02*
Y295D01*
X5660Y220D02*
Y295D01*
Y335D02*
Y410D01*
X5750Y335D02*
Y410D01*
X5370Y430D02*
X5460D01*
X5370Y620D02*
X5460D01*
Y430D02*
Y505D01*
X5370Y430D02*
Y505D01*
Y545D02*
Y620D01*
X5460Y545D02*
Y620D01*
X4400Y1295D02*
X4430Y1314D01*
X4400Y1425D02*
X4430Y1405D01*
X4355Y1295D02*
X4400D01*
X4355Y1425D02*
X4400D01*
X4140Y1295D02*
X4220D01*
X4140Y1425D02*
X4220D01*
X4140Y1295D02*
Y1425D01*
X4430Y1315D02*
Y1405D01*
X5370Y640D02*
X5460D01*
X5370Y830D02*
X5460D01*
Y640D02*
Y715D01*
X5370Y640D02*
Y715D01*
Y755D02*
Y830D01*
X5460Y755D02*
Y830D01*
X5445Y220D02*
X5535D01*
X5445Y410D02*
X5535D01*
Y220D02*
Y295D01*
X5445Y220D02*
Y295D01*
Y335D02*
Y410D01*
X5535Y335D02*
Y410D01*
X5550Y220D02*
X5640D01*
X5550Y410D02*
X5640D01*
Y220D02*
Y295D01*
X5550Y220D02*
Y295D01*
Y335D02*
Y410D01*
X5640Y335D02*
Y410D01*
X5050Y4020D02*
X5125D01*
X5050Y4120D02*
X5125D01*
X4890D02*
X4965D01*
X4890Y4020D02*
X4965D01*
X5125D02*
Y4120D01*
X4890Y4020D02*
Y4120D01*
X4550Y2585D02*
X4580Y2604D01*
X4550Y2715D02*
X4580Y2695D01*
X4505Y2585D02*
X4550D01*
X4505Y2715D02*
X4550D01*
X4290Y2585D02*
X4370D01*
X4290Y2715D02*
X4370D01*
X4290Y2585D02*
Y2715D01*
X4580Y2605D02*
Y2695D01*
X4530Y1565D02*
Y1655D01*
X4720Y1565D02*
Y1655D01*
X4530Y1565D02*
X4605D01*
X4530Y1655D02*
X4605D01*
X4645D02*
X4720D01*
X4645Y1565D02*
X4720D01*
X3485Y3595D02*
X3575D01*
X3485Y3785D02*
X3575D01*
Y3595D02*
Y3670D01*
X3485Y3595D02*
Y3670D01*
Y3710D02*
Y3785D01*
X3575Y3710D02*
Y3785D01*
X4175Y2630D02*
X4265D01*
X4175Y2820D02*
X4265D01*
Y2630D02*
Y2705D01*
X4175Y2630D02*
Y2705D01*
Y2745D02*
Y2820D01*
X4265Y2745D02*
Y2820D01*
X4750Y1651D02*
X4780Y1670D01*
X4750Y1560D02*
X4780Y1540D01*
Y1670D02*
X4825D01*
X4780Y1540D02*
X4825D01*
X4960Y1670D02*
X5040D01*
X4960Y1540D02*
X5040D01*
Y1670D01*
X4750Y1560D02*
Y1650D01*
X4785Y2686D02*
X4815Y2705D01*
X4785Y2595D02*
X4815Y2575D01*
Y2705D02*
X4860D01*
X4815Y2575D02*
X4860D01*
X4995Y2705D02*
X5075D01*
X4995Y2575D02*
X5075D01*
Y2705D01*
X4785Y2595D02*
Y2685D01*
X3585Y3035D02*
Y3110D01*
X3485Y3035D02*
Y3110D01*
Y2875D02*
Y2950D01*
X3585Y2875D02*
Y2950D01*
X3485Y3110D02*
X3585D01*
X3485Y2875D02*
X3585D01*
X5190Y3690D02*
Y3765D01*
X5020Y3690D02*
Y3765D01*
Y3480D02*
Y3555D01*
X5190Y3480D02*
Y3555D01*
X5020Y3765D02*
X5190D01*
X5020Y3480D02*
X5190D01*
D90*
X4922Y2374D02*
G03*
X4922Y2374I-12J0D01*
G01*
D91*
X5332Y2226D02*
G03*
X5332Y2226I-2J0D01*
G01*
X3467Y3179D02*
G03*
X3467Y3179I-2J0D01*
G01*
X4277Y1579D02*
G03*
X4277Y1579I-2J0D01*
G01*
X1525Y540D02*
X1486D01*
Y560D01*
X1492Y566D01*
X1505D01*
X1512Y560D01*
Y540D01*
X1492Y606D02*
X1486Y599D01*
Y586D01*
X1492Y579D01*
X1518D01*
X1525Y586D01*
Y599D01*
X1518Y606D01*
X1492Y619D02*
X1486Y625D01*
Y638D01*
X1492Y645D01*
X1518D01*
X1525Y638D01*
Y625D01*
X1518Y619D01*
X1492D01*
X1486Y658D02*
Y684D01*
X1492D01*
X1518Y658D01*
X1525D01*
X4429Y531D02*
X4390D01*
Y551D01*
X4396Y558D01*
X4409D01*
X4416Y551D01*
Y531D01*
X4396Y597D02*
X4390Y591D01*
Y577D01*
X4396Y571D01*
X4423D01*
X4429Y577D01*
Y591D01*
X4423Y597D01*
X4396Y610D02*
X4390Y617D01*
Y630D01*
X4396Y636D01*
X4423D01*
X4429Y630D01*
Y617D01*
X4423Y610D01*
X4396D01*
X4429Y650D02*
Y663D01*
Y656D01*
X4390D01*
X4396Y650D01*
D92*
X5299Y1449D02*
Y1467D01*
Y1533D02*
Y1551D01*
X5235D02*
X5299D01*
X5235Y1449D02*
X5299D01*
X4994Y3846D02*
X5058D01*
X4994Y3949D02*
X5058D01*
Y3931D02*
Y3949D01*
Y3846D02*
Y3864D01*
X5550Y2850D02*
X5750D01*
X5550Y3550D02*
X5750D01*
Y2850D02*
Y3550D01*
X5550Y2850D02*
Y3550D01*
X3452Y3540D02*
X3484Y3571D01*
X3452Y3349D02*
Y3540D01*
X3578Y3349D02*
Y3571D01*
X3484D02*
X3578D01*
X3452Y3349D02*
X3578D01*
X3726Y2938D02*
X3744D01*
X3641D02*
X3659D01*
X3641Y2879D02*
Y2938D01*
X3744Y2879D02*
Y2938D01*
X2304Y2114D02*
Y2170D01*
X2201Y2114D02*
Y2170D01*
X2219D01*
X2286D02*
X2304D01*
X2399Y1671D02*
X2455D01*
X2399Y1774D02*
X2455D01*
Y1756D02*
Y1774D01*
Y1671D02*
Y1689D01*
X4531Y2737D02*
Y2863D01*
X4309Y2769D02*
Y2863D01*
X4531D01*
X4340Y2737D02*
X4531D01*
X4309Y2769D02*
X4340Y2737D01*
X4458Y1922D02*
Y2414D01*
X4950Y1922D02*
Y2414D01*
X4458Y1922D02*
X4950D01*
X4458Y2414D02*
X4950D01*
X5217Y715D02*
X5273D01*
X5217Y625D02*
X5273D01*
Y713D02*
Y715D01*
X5217Y713D02*
Y715D01*
X5273Y625D02*
Y627D01*
X5217Y625D02*
Y627D01*
X5210Y1139D02*
Y1141D01*
X5280Y1139D02*
Y1141D01*
X5210Y1259D02*
Y1261D01*
X5280Y1259D02*
Y1261D01*
X5210D02*
X5280D01*
X5210Y1139D02*
X5280D01*
X5209Y2210D02*
X5211D01*
X5209Y2140D02*
X5211D01*
X5329Y2210D02*
X5331D01*
X5329Y2140D02*
X5331D01*
Y2210D01*
X5209Y2140D02*
Y2210D01*
X3584Y3195D02*
X3586D01*
X3584Y3265D02*
X3586D01*
X3464Y3195D02*
X3466D01*
X3464Y3265D02*
X3466D01*
X3464Y3195D02*
Y3265D01*
X3586Y3195D02*
Y3265D01*
X2591Y1385D02*
X3260D01*
X2591Y2054D02*
X3260D01*
Y1385D02*
Y2054D01*
X2591Y1385D02*
Y2054D01*
Y2015D02*
X2630Y2054D01*
X4394Y1595D02*
X4396D01*
X4394Y1665D02*
X4396D01*
X4274Y1595D02*
X4276D01*
X4274Y1665D02*
X4276D01*
X4274Y1595D02*
Y1665D01*
X4396Y1595D02*
Y1665D01*
D93*
X5330Y970D02*
Y1010D01*
X5350D01*
X5357Y1003D01*
Y990D01*
X5350Y983D01*
X5330D01*
X5343D02*
X5357Y970D01*
X5397Y1010D02*
X5370D01*
Y990D01*
X5383Y997D01*
X5390D01*
X5397Y990D01*
Y977D01*
X5390Y970D01*
X5377D01*
X5370Y977D01*
X5410D02*
X5417Y970D01*
X5430D01*
X5437Y977D01*
Y1003D01*
X5430Y1010D01*
X5417D01*
X5410Y1003D01*
Y997D01*
X5417Y990D01*
X5437D01*
X5185Y1625D02*
Y1592D01*
X5192Y1585D01*
X5205D01*
X5212Y1592D01*
Y1625D01*
X5252Y1585D02*
X5225D01*
X5252Y1612D01*
Y1618D01*
X5245Y1625D01*
X5232D01*
X5225Y1618D01*
X5265D02*
X5272Y1625D01*
X5285D01*
X5292Y1618D01*
Y1592D01*
X5285Y1585D01*
X5272D01*
X5265Y1592D01*
Y1618D01*
X5085Y3980D02*
Y3947D01*
X5092Y3940D01*
X5105D01*
X5112Y3947D01*
Y3980D01*
X5125D02*
X5152D01*
Y3973D01*
X5125Y3947D01*
Y3940D01*
X5202Y4250D02*
X5188D01*
X5195D01*
Y4217D01*
X5188Y4210D01*
X5182D01*
X5175Y4217D01*
X5235Y4210D02*
Y4250D01*
X5215Y4230D01*
X5242D01*
X1415Y4230D02*
Y4197D01*
X1422Y4190D01*
X1435D01*
X1442Y4197D01*
Y4230D01*
X1455Y4190D02*
X1468D01*
X1462D01*
Y4230D01*
X1455Y4223D01*
X1515Y4230D02*
X1488D01*
Y4210D01*
X1502Y4217D01*
X1508D01*
X1515Y4210D01*
Y4197D01*
X1508Y4190D01*
X1495D01*
X1488Y4197D01*
X1395Y3215D02*
Y3182D01*
X1402Y3175D01*
X1415D01*
X1422Y3182D01*
Y3215D01*
X1435Y3175D02*
X1448D01*
X1442D01*
Y3215D01*
X1435Y3208D01*
X1495Y3215D02*
X1482Y3208D01*
X1468Y3195D01*
Y3182D01*
X1475Y3175D01*
X1488D01*
X1495Y3182D01*
Y3188D01*
X1488Y3195D01*
X1468D01*
X3295Y3235D02*
Y3202D01*
X3302Y3195D01*
X3315D01*
X3322Y3202D01*
Y3235D01*
X3335Y3195D02*
X3348D01*
X3342D01*
Y3235D01*
X3335Y3228D01*
X3368Y3202D02*
X3375Y3195D01*
X3388D01*
X3395Y3202D01*
Y3228D01*
X3388Y3235D01*
X3375D01*
X3368Y3228D01*
Y3222D01*
X3375Y3215D01*
X3395D01*
X2092Y2285D02*
X2078D01*
X2085D01*
Y2252D01*
X2078Y2245D01*
X2072D01*
X2065Y2252D01*
X2105Y2245D02*
Y2285D01*
X2125D01*
X2132Y2278D01*
Y2265D01*
X2125Y2258D01*
X2105D01*
X2172Y2245D02*
X2145D01*
X2172Y2272D01*
Y2278D01*
X2165Y2285D01*
X2152D01*
X2145Y2278D01*
X895Y1015D02*
Y982D01*
X902Y975D01*
X915D01*
X922Y982D01*
Y1015D01*
X962Y975D02*
X935D01*
X962Y1002D01*
Y1008D01*
X955Y1015D01*
X942D01*
X935Y1008D01*
X975Y1015D02*
X1002D01*
Y1008D01*
X975Y982D01*
Y975D01*
X3235Y4225D02*
Y4192D01*
X3242Y4185D01*
X3255D01*
X3262Y4192D01*
Y4225D01*
X3275Y4185D02*
X3288D01*
X3282D01*
Y4225D01*
X3275Y4218D01*
X3308D02*
X3315Y4225D01*
X3328D01*
X3335Y4218D01*
Y4212D01*
X3328Y4205D01*
X3335Y4198D01*
Y4192D01*
X3328Y4185D01*
X3315D01*
X3308Y4192D01*
Y4198D01*
X3315Y4205D01*
X3308Y4212D01*
Y4218D01*
X3315Y4205D02*
X3328D01*
X3800Y4075D02*
Y4042D01*
X3807Y4035D01*
X3820D01*
X3827Y4042D01*
Y4075D01*
X3840Y4035D02*
X3853D01*
X3847D01*
Y4075D01*
X3840Y4068D01*
X3873Y4035D02*
X3887D01*
X3880D01*
Y4075D01*
X3873Y4068D01*
X4537Y700D02*
X4523D01*
X4530D01*
Y667D01*
X4523Y660D01*
X4517D01*
X4510Y667D01*
X4550Y660D02*
X4563D01*
X4557D01*
Y700D01*
X4550Y693D01*
X2515Y2265D02*
Y2232D01*
X2522Y2225D01*
X2535D01*
X2542Y2232D01*
Y2265D01*
X2555Y2232D02*
X2562Y2225D01*
X2575D01*
X2582Y2232D01*
Y2258D01*
X2575Y2265D01*
X2562D01*
X2555Y2258D01*
Y2252D01*
X2562Y2245D01*
X2582D01*
X3655Y955D02*
Y922D01*
X3662Y915D01*
X3675D01*
X3682Y922D01*
Y955D01*
X3695Y915D02*
X3708D01*
X3702D01*
Y955D01*
X3695Y948D01*
X3728D02*
X3735Y955D01*
X3748D01*
X3755Y948D01*
Y942D01*
X3748Y935D01*
X3742D01*
X3748D01*
X3755Y928D01*
Y922D01*
X3748Y915D01*
X3735D01*
X3728Y922D01*
X1760Y2235D02*
Y2202D01*
X1767Y2195D01*
X1780D01*
X1787Y2202D01*
Y2235D01*
X1827Y2195D02*
X1800D01*
X1827Y2222D01*
Y2228D01*
X1820Y2235D01*
X1807D01*
X1800Y2228D01*
X1867Y2195D02*
X1840D01*
X1867Y2222D01*
Y2228D01*
X1860Y2235D01*
X1847D01*
X1840Y2228D01*
X3960Y2175D02*
Y2142D01*
X3967Y2135D01*
X3980D01*
X3987Y2142D01*
Y2175D01*
X4000Y2135D02*
X4013D01*
X4007D01*
Y2175D01*
X4000Y2168D01*
X4033D02*
X4040Y2175D01*
X4053D01*
X4060Y2168D01*
Y2142D01*
X4053Y2135D01*
X4040D01*
X4033Y2142D01*
Y2168D01*
X870Y3445D02*
Y3412D01*
X877Y3405D01*
X890D01*
X897Y3412D01*
Y3445D01*
X937Y3405D02*
X910D01*
X937Y3432D01*
Y3438D01*
X930Y3445D01*
X917D01*
X910Y3438D01*
X970Y3405D02*
Y3445D01*
X950Y3425D01*
X977D01*
X145Y2610D02*
Y2577D01*
X152Y2570D01*
X165D01*
X172Y2577D01*
Y2610D01*
X185Y2570D02*
X198D01*
X192D01*
Y2610D01*
X185Y2603D01*
X218Y2610D02*
X245D01*
Y2603D01*
X218Y2577D01*
Y2570D01*
X1335Y2250D02*
Y2217D01*
X1342Y2210D01*
X1355D01*
X1362Y2217D01*
Y2250D01*
X1395Y2210D02*
Y2250D01*
X1375Y2230D01*
X1402D01*
X1435Y2210D02*
Y2250D01*
X1415Y2230D01*
X1442D01*
X347Y1009D02*
Y976D01*
X354Y969D01*
X367D01*
X374Y976D01*
Y1009D01*
X414Y969D02*
X387D01*
X414Y996D01*
Y1002D01*
X407Y1009D01*
X394D01*
X387Y1002D01*
X454Y1009D02*
X440Y1002D01*
X427Y989D01*
Y976D01*
X434Y969D01*
X447D01*
X454Y976D01*
Y982D01*
X447Y989D01*
X427D01*
X3985Y2550D02*
Y2517D01*
X3992Y2510D01*
X4005D01*
X4012Y2517D01*
Y2550D01*
X4025Y2510D02*
X4038D01*
X4032D01*
Y2550D01*
X4025Y2543D01*
X5225Y2000D02*
Y1967D01*
X5232Y1960D01*
X5245D01*
X5252Y1967D01*
Y2000D01*
X5292Y1960D02*
X5265D01*
X5292Y1987D01*
Y1993D01*
X5285Y2000D01*
X5272D01*
X5265Y1993D01*
X5305D02*
X5312Y2000D01*
X5325D01*
X5332Y1993D01*
Y1987D01*
X5325Y1980D01*
X5332Y1973D01*
Y1967D01*
X5325Y1960D01*
X5312D01*
X5305Y1967D01*
Y1973D01*
X5312Y1980D01*
X5305Y1987D01*
Y1993D01*
X5312Y1980D02*
X5325D01*
X1055Y2640D02*
Y2607D01*
X1062Y2600D01*
X1075D01*
X1082Y2607D01*
Y2640D01*
X1095Y2633D02*
X1102Y2640D01*
X1115D01*
X1122Y2633D01*
Y2627D01*
X1115Y2620D01*
X1108D01*
X1115D01*
X1122Y2613D01*
Y2607D01*
X1115Y2600D01*
X1102D01*
X1095Y2607D01*
X1162Y2600D02*
X1135D01*
X1162Y2627D01*
Y2633D01*
X1155Y2640D01*
X1142D01*
X1135Y2633D01*
X5807Y2645D02*
X5793D01*
X5800D01*
Y2612D01*
X5793Y2605D01*
X5787D01*
X5780Y2612D01*
X5847Y2645D02*
X5820D01*
Y2625D01*
X5833Y2632D01*
X5840D01*
X5847Y2625D01*
Y2612D01*
X5840Y2605D01*
X5827D01*
X5820Y2612D01*
X5817Y2155D02*
X5803D01*
X5810D01*
Y2122D01*
X5803Y2115D01*
X5797D01*
X5790Y2122D01*
X5830Y2148D02*
X5837Y2155D01*
X5850D01*
X5857Y2148D01*
Y2142D01*
X5850Y2135D01*
X5843D01*
X5850D01*
X5857Y2128D01*
Y2122D01*
X5850Y2115D01*
X5837D01*
X5830Y2122D01*
X5822Y1545D02*
X5808D01*
X5815D01*
Y1512D01*
X5808Y1505D01*
X5802D01*
X5795Y1512D01*
X5835Y1538D02*
X5842Y1545D01*
X5855D01*
X5862Y1538D01*
Y1532D01*
X5855Y1525D01*
X5862Y1518D01*
Y1512D01*
X5855Y1505D01*
X5842D01*
X5835Y1512D01*
Y1518D01*
X5842Y1525D01*
X5835Y1532D01*
Y1538D01*
X5842Y1525D02*
X5855D01*
X5822Y3540D02*
X5808D01*
X5815D01*
Y3507D01*
X5808Y3500D01*
X5802D01*
X5795Y3507D01*
X5862Y3540D02*
X5848Y3533D01*
X5835Y3520D01*
Y3507D01*
X5842Y3500D01*
X5855D01*
X5862Y3507D01*
Y3513D01*
X5855Y3520D01*
X5835D01*
X4480Y3030D02*
Y2997D01*
X4487Y2990D01*
X4500D01*
X4507Y2997D01*
Y3030D01*
X4547Y2990D02*
X4520D01*
X4547Y3017D01*
Y3023D01*
X4540Y3030D01*
X4527D01*
X4520Y3023D01*
X1150Y1565D02*
Y1532D01*
X1157Y1525D01*
X1170D01*
X1177Y1532D01*
Y1565D01*
X1190Y1558D02*
X1197Y1565D01*
X1210D01*
X1217Y1558D01*
Y1552D01*
X1210Y1545D01*
X1203D01*
X1210D01*
X1217Y1538D01*
Y1532D01*
X1210Y1525D01*
X1197D01*
X1190Y1532D01*
X1230Y1558D02*
X1237Y1565D01*
X1250D01*
X1257Y1558D01*
Y1552D01*
X1250Y1545D01*
X1243D01*
X1250D01*
X1257Y1538D01*
Y1532D01*
X1250Y1525D01*
X1237D01*
X1230Y1532D01*
X5240Y3185D02*
Y3152D01*
X5247Y3145D01*
X5260D01*
X5267Y3152D01*
Y3185D01*
X5280Y3145D02*
X5293D01*
X5287D01*
Y3185D01*
X5280Y3178D01*
X5340Y3145D02*
X5313D01*
X5340Y3172D01*
Y3178D01*
X5333Y3185D01*
X5320D01*
X5313Y3178D01*
X5370Y2225D02*
Y2192D01*
X5377Y2185D01*
X5390D01*
X5397Y2192D01*
Y2225D01*
X5437Y2185D02*
X5410D01*
X5437Y2212D01*
Y2218D01*
X5430Y2225D01*
X5417D01*
X5410Y2218D01*
X5450Y2185D02*
X5463D01*
X5457D01*
Y2225D01*
X5450Y2218D01*
X3365Y3375D02*
Y3342D01*
X3372Y3335D01*
X3385D01*
X3392Y3342D01*
Y3375D01*
X3432D02*
X3418Y3368D01*
X3405Y3355D01*
Y3342D01*
X3412Y3335D01*
X3425D01*
X3432Y3342D01*
Y3348D01*
X3425Y3355D01*
X3405D01*
X5225Y1330D02*
Y1297D01*
X5232Y1290D01*
X5245D01*
X5252Y1297D01*
Y1330D01*
X5265Y1323D02*
X5272Y1330D01*
X5285D01*
X5292Y1323D01*
Y1317D01*
X5285Y1310D01*
X5292Y1303D01*
Y1297D01*
X5285Y1290D01*
X5272D01*
X5265Y1297D01*
Y1303D01*
X5272Y1310D01*
X5265Y1317D01*
Y1323D01*
X5272Y1310D02*
X5285D01*
X5090Y685D02*
Y652D01*
X5097Y645D01*
X5110D01*
X5117Y652D01*
Y685D01*
X5150Y645D02*
Y685D01*
X5130Y665D01*
X5157D01*
X4365Y1775D02*
Y1742D01*
X4372Y1735D01*
X4385D01*
X4392Y1742D01*
Y1775D01*
X4405Y1768D02*
X4412Y1775D01*
X4425D01*
X4432Y1768D01*
Y1762D01*
X4425Y1755D01*
X4418D01*
X4425D01*
X4432Y1748D01*
Y1742D01*
X4425Y1735D01*
X4412D01*
X4405Y1742D01*
X1610Y1560D02*
Y1527D01*
X1617Y1520D01*
X1630D01*
X1637Y1527D01*
Y1560D01*
X1650Y1553D02*
X1657Y1560D01*
X1670D01*
X1677Y1553D01*
Y1547D01*
X1670Y1540D01*
X1663D01*
X1670D01*
X1677Y1533D01*
Y1527D01*
X1670Y1520D01*
X1657D01*
X1650Y1527D01*
X1690Y1553D02*
X1697Y1560D01*
X1710D01*
X1717Y1553D01*
Y1527D01*
X1710Y1520D01*
X1697D01*
X1690Y1527D01*
Y1553D01*
X130Y3180D02*
Y3147D01*
X137Y3140D01*
X150D01*
X157Y3147D01*
Y3180D01*
X197Y3140D02*
X170D01*
X197Y3167D01*
Y3173D01*
X190Y3180D01*
X177D01*
X170Y3173D01*
X237Y3180D02*
X210D01*
Y3160D01*
X223Y3167D01*
X230D01*
X237Y3160D01*
Y3147D01*
X230Y3140D01*
X217D01*
X210Y3147D01*
X3867Y2255D02*
X3853D01*
X3860D01*
Y2222D01*
X3853Y2215D01*
X3847D01*
X3840Y2222D01*
X3880Y2215D02*
Y2255D01*
X3900D01*
X3907Y2248D01*
Y2235D01*
X3900Y2228D01*
X3880D01*
X3920Y2215D02*
X3933D01*
X3927D01*
Y2255D01*
X3920Y2248D01*
X5425Y3015D02*
Y2982D01*
X5432Y2975D01*
X5445D01*
X5452Y2982D01*
Y3015D01*
X5492Y2975D02*
X5465D01*
X5492Y3002D01*
Y3008D01*
X5485Y3015D01*
X5472D01*
X5465Y3008D01*
X5505D02*
X5512Y3015D01*
X5525D01*
X5532Y3008D01*
Y3002D01*
X5525Y2995D01*
X5518D01*
X5525D01*
X5532Y2988D01*
Y2982D01*
X5525Y2975D01*
X5512D01*
X5505Y2982D01*
X3390Y3465D02*
X3430D01*
Y3485D01*
X3423Y3492D01*
X3397D01*
X3390Y3485D01*
Y3465D01*
X3430Y3532D02*
Y3505D01*
X3403Y3532D01*
X3397D01*
X3390Y3525D01*
Y3512D01*
X3397Y3505D01*
X3785Y2860D02*
Y2820D01*
X3805D01*
X3812Y2827D01*
Y2853D01*
X3805Y2860D01*
X3785D01*
X3825Y2820D02*
X3838D01*
X3832D01*
Y2860D01*
X3825Y2853D01*
X5725Y675D02*
Y642D01*
X5732Y635D01*
X5745D01*
X5752Y642D01*
Y675D01*
X5792D02*
X5765D01*
Y655D01*
X5778Y662D01*
X5785D01*
X5792Y655D01*
Y642D01*
X5785Y635D01*
X5772D01*
X5765Y642D01*
X4600Y920D02*
Y887D01*
X4607Y880D01*
X4620D01*
X4627Y887D01*
Y920D01*
X4640Y880D02*
X4653D01*
X4647D01*
Y920D01*
X4640Y913D01*
X4693Y880D02*
Y920D01*
X4673Y900D01*
X4700D01*
X4192Y883D02*
X4185Y890D01*
X4172D01*
X4165Y883D01*
Y857D01*
X4172Y850D01*
X4185D01*
X4192Y857D01*
X4205Y850D02*
X4218D01*
X4212D01*
Y890D01*
X4205Y883D01*
X3532Y2812D02*
X3525Y2805D01*
Y2792D01*
X3532Y2785D01*
X3558D01*
X3565Y2792D01*
Y2805D01*
X3558Y2812D01*
X3565Y2852D02*
Y2825D01*
X3538Y2852D01*
X3532D01*
X3525Y2845D01*
Y2832D01*
X3532Y2825D01*
X4477Y1453D02*
X4470Y1460D01*
X4457D01*
X4450Y1453D01*
Y1427D01*
X4457Y1420D01*
X4470D01*
X4477Y1427D01*
X4490Y1453D02*
X4497Y1460D01*
X4510D01*
X4517Y1453D01*
Y1447D01*
X4510Y1440D01*
X4503D01*
X4510D01*
X4517Y1433D01*
Y1427D01*
X4510Y1420D01*
X4497D01*
X4490Y1427D01*
X5402Y882D02*
X5395Y875D01*
Y862D01*
X5402Y855D01*
X5428D01*
X5435Y862D01*
Y875D01*
X5428Y882D01*
X5435Y915D02*
X5395D01*
X5415Y895D01*
Y922D01*
X5052Y4248D02*
X5045Y4255D01*
X5032D01*
X5025Y4248D01*
Y4222D01*
X5032Y4215D01*
X5045D01*
X5052Y4222D01*
X5092Y4255D02*
X5065D01*
Y4235D01*
X5078Y4242D01*
X5085D01*
X5092Y4235D01*
Y4222D01*
X5085Y4215D01*
X5072D01*
X5065Y4222D01*
X5457Y142D02*
X5450Y135D01*
Y122D01*
X5457Y115D01*
X5483D01*
X5490Y122D01*
Y135D01*
X5483Y142D01*
X5450Y182D02*
X5457Y168D01*
X5470Y155D01*
X5483D01*
X5490Y162D01*
Y175D01*
X5483Y182D01*
X5477D01*
X5470Y175D01*
Y155D01*
X5137Y603D02*
X5130Y610D01*
X5117D01*
X5110Y603D01*
Y577D01*
X5117Y570D01*
X5130D01*
X5137Y577D01*
X5150Y610D02*
X5177D01*
Y603D01*
X5150Y577D01*
Y570D01*
X4147Y1498D02*
X4140Y1505D01*
X4127D01*
X4120Y1498D01*
Y1472D01*
X4127Y1465D01*
X4140D01*
X4147Y1472D01*
X4160Y1498D02*
X4167Y1505D01*
X4180D01*
X4187Y1498D01*
Y1492D01*
X4180Y1485D01*
X4187Y1478D01*
Y1472D01*
X4180Y1465D01*
X4167D01*
X4160Y1472D01*
Y1478D01*
X4167Y1485D01*
X4160Y1492D01*
Y1498D01*
X4167Y1485D02*
X4180D01*
X4764Y3635D02*
X4758Y3641D01*
X4746D01*
X4740Y3635D01*
Y3611D01*
X4746Y3605D01*
X4758D01*
X4764Y3611D01*
X4776D02*
X4782Y3605D01*
X4794D01*
X4800Y3611D01*
Y3635D01*
X4794Y3641D01*
X4782D01*
X4776Y3635D01*
Y3629D01*
X4782Y3623D01*
X4800D01*
X5467Y2582D02*
X5460Y2575D01*
Y2562D01*
X5467Y2555D01*
X5493D01*
X5500Y2562D01*
Y2575D01*
X5493Y2582D01*
X5500Y2595D02*
Y2608D01*
Y2602D01*
X5460D01*
X5467Y2595D01*
Y2628D02*
X5460Y2635D01*
Y2648D01*
X5467Y2655D01*
X5493D01*
X5500Y2648D01*
Y2635D01*
X5493Y2628D01*
X5467D01*
X3727Y2433D02*
X3720Y2440D01*
X3707D01*
X3700Y2433D01*
Y2407D01*
X3707Y2400D01*
X3720D01*
X3727Y2407D01*
X3740Y2400D02*
X3753D01*
X3747D01*
Y2440D01*
X3740Y2433D01*
X3773Y2400D02*
X3787D01*
X3780D01*
Y2440D01*
X3773Y2433D01*
X5497Y2057D02*
X5490Y2050D01*
Y2037D01*
X5497Y2030D01*
X5523D01*
X5530Y2037D01*
Y2050D01*
X5523Y2057D01*
X5530Y2070D02*
Y2083D01*
Y2077D01*
X5490D01*
X5497Y2070D01*
X5530Y2130D02*
Y2103D01*
X5503Y2130D01*
X5497D01*
X5490Y2123D01*
Y2110D01*
X5497Y2103D01*
X4887Y3823D02*
X4880Y3830D01*
X4867D01*
X4860Y3823D01*
Y3797D01*
X4867Y3790D01*
X4880D01*
X4887Y3797D01*
X4900Y3790D02*
X4913D01*
X4907D01*
Y3830D01*
X4900Y3823D01*
X4933D02*
X4940Y3830D01*
X4953D01*
X4960Y3823D01*
Y3817D01*
X4953Y3810D01*
X4947D01*
X4953D01*
X4960Y3803D01*
Y3797D01*
X4953Y3790D01*
X4940D01*
X4933Y3797D01*
X2187Y1313D02*
X2180Y1320D01*
X2167D01*
X2160Y1313D01*
Y1287D01*
X2167Y1280D01*
X2180D01*
X2187Y1287D01*
X2200Y1280D02*
X2213D01*
X2207D01*
Y1320D01*
X2200Y1313D01*
X2253Y1280D02*
Y1320D01*
X2233Y1300D01*
X2260D01*
X3952Y4263D02*
X3945Y4270D01*
X3932D01*
X3925Y4263D01*
Y4237D01*
X3932Y4230D01*
X3945D01*
X3952Y4237D01*
X3965Y4230D02*
X3978D01*
X3972D01*
Y4270D01*
X3965Y4263D01*
X4025Y4270D02*
X3998D01*
Y4250D01*
X4012Y4257D01*
X4018D01*
X4025Y4250D01*
Y4237D01*
X4018Y4230D01*
X4005D01*
X3998Y4237D01*
X5782Y352D02*
X5775Y345D01*
Y332D01*
X5782Y325D01*
X5808D01*
X5815Y332D01*
Y345D01*
X5808Y352D01*
X5815Y365D02*
Y378D01*
Y372D01*
X5775D01*
X5782Y365D01*
X5775Y425D02*
X5782Y412D01*
X5795Y398D01*
X5808D01*
X5815Y405D01*
Y418D01*
X5808Y425D01*
X5802D01*
X5795Y418D01*
Y398D01*
X5557Y132D02*
X5550Y125D01*
Y112D01*
X5557Y105D01*
X5583D01*
X5590Y112D01*
Y125D01*
X5583Y132D01*
X5590Y145D02*
Y158D01*
Y152D01*
X5550D01*
X5557Y145D01*
X5550Y178D02*
Y205D01*
X5557D01*
X5583Y178D01*
X5590D01*
X3627Y3828D02*
X3620Y3835D01*
X3607D01*
X3600Y3828D01*
Y3802D01*
X3607Y3795D01*
X3620D01*
X3627Y3802D01*
X3640Y3795D02*
X3653D01*
X3647D01*
Y3835D01*
X3640Y3828D01*
X3673D02*
X3680Y3835D01*
X3693D01*
X3700Y3828D01*
Y3822D01*
X3693Y3815D01*
X3700Y3808D01*
Y3802D01*
X3693Y3795D01*
X3680D01*
X3673Y3802D01*
Y3808D01*
X3680Y3815D01*
X3673Y3822D01*
Y3828D01*
X3680Y3815D02*
X3693D01*
X5362Y332D02*
X5355Y325D01*
Y312D01*
X5362Y305D01*
X5388D01*
X5395Y312D01*
Y325D01*
X5388Y332D01*
X5395Y345D02*
Y358D01*
Y352D01*
X5355D01*
X5362Y345D01*
X5388Y378D02*
X5395Y385D01*
Y398D01*
X5388Y405D01*
X5362D01*
X5355Y398D01*
Y385D01*
X5362Y378D01*
X5368D01*
X5375Y385D01*
Y405D01*
X3627Y3773D02*
X3620Y3780D01*
X3607D01*
X3600Y3773D01*
Y3747D01*
X3607Y3740D01*
X3620D01*
X3627Y3747D01*
X3667Y3740D02*
X3640D01*
X3667Y3767D01*
Y3773D01*
X3660Y3780D01*
X3647D01*
X3640Y3773D01*
X3680D02*
X3687Y3780D01*
X3700D01*
X3707Y3773D01*
Y3747D01*
X3700Y3740D01*
X3687D01*
X3680Y3747D01*
Y3773D01*
X2192Y1188D02*
X2185Y1195D01*
X2172D01*
X2165Y1188D01*
Y1162D01*
X2172Y1155D01*
X2185D01*
X2192Y1162D01*
X2232Y1155D02*
X2205D01*
X2232Y1182D01*
Y1188D01*
X2225Y1195D01*
X2212D01*
X2205Y1188D01*
X2245Y1155D02*
X2258D01*
X2252D01*
Y1195D01*
X2245Y1188D01*
X3637Y3373D02*
X3630Y3380D01*
X3617D01*
X3610Y3373D01*
Y3347D01*
X3617Y3340D01*
X3630D01*
X3637Y3347D01*
X3677Y3340D02*
X3650D01*
X3677Y3367D01*
Y3373D01*
X3670Y3380D01*
X3657D01*
X3650Y3373D01*
X3717Y3340D02*
X3690D01*
X3717Y3367D01*
Y3373D01*
X3710Y3380D01*
X3697D01*
X3690Y3373D01*
X3847Y1532D02*
X3840Y1525D01*
Y1512D01*
X3847Y1505D01*
X3873D01*
X3880Y1512D01*
Y1525D01*
X3873Y1532D01*
X3880Y1572D02*
Y1545D01*
X3853Y1572D01*
X3847D01*
X3840Y1565D01*
Y1552D01*
X3847Y1545D01*
Y1585D02*
X3840Y1592D01*
Y1605D01*
X3847Y1612D01*
X3853D01*
X3860Y1605D01*
Y1598D01*
Y1605D01*
X3867Y1612D01*
X3873D01*
X3880Y1605D01*
Y1592D01*
X3873Y1585D01*
X5382Y1348D02*
X5375Y1355D01*
X5362D01*
X5355Y1348D01*
Y1322D01*
X5362Y1315D01*
X5375D01*
X5382Y1322D01*
X5422Y1315D02*
X5395D01*
X5422Y1342D01*
Y1348D01*
X5415Y1355D01*
X5402D01*
X5395Y1348D01*
X5455Y1315D02*
Y1355D01*
X5435Y1335D01*
X5462D01*
X3987Y2762D02*
X3980Y2755D01*
Y2742D01*
X3987Y2735D01*
X4013D01*
X4020Y2742D01*
Y2755D01*
X4013Y2762D01*
X4020Y2802D02*
Y2775D01*
X3993Y2802D01*
X3987D01*
X3980Y2795D01*
Y2782D01*
X3987Y2775D01*
X3980Y2842D02*
Y2815D01*
X4000D01*
X3993Y2828D01*
Y2835D01*
X4000Y2842D01*
X4013D01*
X4020Y2835D01*
Y2822D01*
X4013Y2815D01*
X4692Y3438D02*
X4685Y3445D01*
X4672D01*
X4665Y3438D01*
Y3412D01*
X4672Y3405D01*
X4685D01*
X4692Y3412D01*
X4732Y3405D02*
X4705D01*
X4732Y3432D01*
Y3438D01*
X4725Y3445D01*
X4712D01*
X4705Y3438D01*
X4772Y3445D02*
X4758Y3438D01*
X4745Y3425D01*
Y3412D01*
X4752Y3405D01*
X4765D01*
X4772Y3412D01*
Y3418D01*
X4765Y3425D01*
X4745D01*
X4707Y3793D02*
X4700Y3800D01*
X4687D01*
X4680Y3793D01*
Y3767D01*
X4687Y3760D01*
X4700D01*
X4707Y3767D01*
X4747Y3760D02*
X4720D01*
X4747Y3787D01*
Y3793D01*
X4740Y3800D01*
X4727D01*
X4720Y3793D01*
X4760Y3800D02*
X4787D01*
Y3793D01*
X4760Y3767D01*
Y3760D01*
X4372Y4258D02*
X4365Y4265D01*
X4352D01*
X4345Y4258D01*
Y4232D01*
X4352Y4225D01*
X4365D01*
X4372Y4232D01*
X4412Y4225D02*
X4385D01*
X4412Y4252D01*
Y4258D01*
X4405Y4265D01*
X4392D01*
X4385Y4258D01*
X4425D02*
X4432Y4265D01*
X4445D01*
X4452Y4258D01*
Y4252D01*
X4445Y4245D01*
X4452Y4238D01*
Y4232D01*
X4445Y4225D01*
X4432D01*
X4425Y4232D01*
Y4238D01*
X4432Y4245D01*
X4425Y4252D01*
Y4258D01*
X4432Y4245D02*
X4445D01*
X4072Y1057D02*
X4065Y1050D01*
Y1037D01*
X4072Y1030D01*
X4098D01*
X4105Y1037D01*
Y1050D01*
X4098Y1057D01*
X4105Y1097D02*
Y1070D01*
X4078Y1097D01*
X4072D01*
X4065Y1090D01*
Y1077D01*
X4072Y1070D01*
X4098Y1110D02*
X4105Y1117D01*
Y1130D01*
X4098Y1137D01*
X4072D01*
X4065Y1130D01*
Y1117D01*
X4072Y1110D01*
X4078D01*
X4085Y1117D01*
Y1137D01*
X4182Y4263D02*
X4175Y4270D01*
X4162D01*
X4155Y4263D01*
Y4237D01*
X4162Y4230D01*
X4175D01*
X4182Y4237D01*
X4195Y4263D02*
X4202Y4270D01*
X4215D01*
X4222Y4263D01*
Y4257D01*
X4215Y4250D01*
X4208D01*
X4215D01*
X4222Y4243D01*
Y4237D01*
X4215Y4230D01*
X4202D01*
X4195Y4237D01*
X4235Y4263D02*
X4242Y4270D01*
X4255D01*
X4262Y4263D01*
Y4237D01*
X4255Y4230D01*
X4242D01*
X4235Y4237D01*
Y4263D01*
X4192Y718D02*
X4185Y725D01*
X4172D01*
X4165Y718D01*
Y692D01*
X4172Y685D01*
X4185D01*
X4192Y692D01*
X4205Y718D02*
X4212Y725D01*
X4225D01*
X4232Y718D01*
Y712D01*
X4225Y705D01*
X4218D01*
X4225D01*
X4232Y698D01*
Y692D01*
X4225Y685D01*
X4212D01*
X4205Y692D01*
X4245Y685D02*
X4258D01*
X4252D01*
Y725D01*
X4245Y718D01*
X3557Y4128D02*
X3550Y4135D01*
X3537D01*
X3530Y4128D01*
Y4102D01*
X3537Y4095D01*
X3550D01*
X3557Y4102D01*
X3570Y4128D02*
X3577Y4135D01*
X3590D01*
X3597Y4128D01*
Y4122D01*
X3590Y4115D01*
X3583D01*
X3590D01*
X3597Y4108D01*
Y4102D01*
X3590Y4095D01*
X3577D01*
X3570Y4102D01*
X3637Y4095D02*
X3610D01*
X3637Y4122D01*
Y4128D01*
X3630Y4135D01*
X3617D01*
X3610Y4128D01*
X3803Y908D02*
X3796Y901D01*
Y888D01*
X3803Y881D01*
X3829D01*
X3836Y888D01*
Y901D01*
X3829Y908D01*
X3803Y921D02*
X3796Y928D01*
Y941D01*
X3803Y948D01*
X3809D01*
X3816Y941D01*
Y934D01*
Y941D01*
X3823Y948D01*
X3829D01*
X3836Y941D01*
Y928D01*
X3829Y921D01*
X3803Y961D02*
X3796Y968D01*
Y981D01*
X3803Y988D01*
X3809D01*
X3816Y981D01*
Y974D01*
Y981D01*
X3823Y988D01*
X3829D01*
X3836Y981D01*
Y968D01*
X3829Y961D01*
X5107Y1187D02*
X5100Y1180D01*
Y1167D01*
X5107Y1160D01*
X5133D01*
X5140Y1167D01*
Y1180D01*
X5133Y1187D01*
X5107Y1200D02*
X5100Y1207D01*
Y1220D01*
X5107Y1227D01*
X5113D01*
X5120Y1220D01*
Y1213D01*
Y1220D01*
X5127Y1227D01*
X5133D01*
X5140Y1220D01*
Y1207D01*
X5133Y1200D01*
X5140Y1260D02*
X5100D01*
X5120Y1240D01*
Y1267D01*
X4192Y773D02*
X4185Y780D01*
X4172D01*
X4165Y773D01*
Y747D01*
X4172Y740D01*
X4185D01*
X4192Y747D01*
X4205Y773D02*
X4212Y780D01*
X4225D01*
X4232Y773D01*
Y767D01*
X4225Y760D01*
X4218D01*
X4225D01*
X4232Y753D01*
Y747D01*
X4225Y740D01*
X4212D01*
X4205Y747D01*
X4272Y780D02*
X4245D01*
Y760D01*
X4258Y767D01*
X4265D01*
X4272Y760D01*
Y747D01*
X4265Y740D01*
X4252D01*
X4245Y747D01*
X3722Y1413D02*
X3715Y1420D01*
X3702D01*
X3695Y1413D01*
Y1387D01*
X3702Y1380D01*
X3715D01*
X3722Y1387D01*
X3735Y1413D02*
X3742Y1420D01*
X3755D01*
X3762Y1413D01*
Y1407D01*
X3755Y1400D01*
X3748D01*
X3755D01*
X3762Y1393D01*
Y1387D01*
X3755Y1380D01*
X3742D01*
X3735Y1387D01*
X3802Y1420D02*
X3788Y1413D01*
X3775Y1400D01*
Y1387D01*
X3782Y1380D01*
X3795D01*
X3802Y1387D01*
Y1393D01*
X3795Y1400D01*
X3775D01*
X5092Y947D02*
X5085Y940D01*
Y927D01*
X5092Y920D01*
X5118D01*
X5125Y927D01*
Y940D01*
X5118Y947D01*
X5092Y960D02*
X5085Y967D01*
Y980D01*
X5092Y987D01*
X5098D01*
X5105Y980D01*
Y973D01*
Y980D01*
X5112Y987D01*
X5118D01*
X5125Y980D01*
Y967D01*
X5118Y960D01*
X5085Y1000D02*
Y1027D01*
X5092D01*
X5118Y1000D01*
X5125D01*
X4462Y1072D02*
X4455Y1065D01*
Y1052D01*
X4462Y1045D01*
X4488D01*
X4495Y1052D01*
Y1065D01*
X4488Y1072D01*
X4462Y1085D02*
X4455Y1092D01*
Y1105D01*
X4462Y1112D01*
X4468D01*
X4475Y1105D01*
Y1098D01*
Y1105D01*
X4482Y1112D01*
X4488D01*
X4495Y1105D01*
Y1092D01*
X4488Y1085D01*
X4462Y1125D02*
X4455Y1132D01*
Y1145D01*
X4462Y1152D01*
X4468D01*
X4475Y1145D01*
X4482Y1152D01*
X4488D01*
X4495Y1145D01*
Y1132D01*
X4488Y1125D01*
X4482D01*
X4475Y1132D01*
X4468Y1125D01*
X4462D01*
X4475Y1132D02*
Y1145D01*
X4962Y3438D02*
X4955Y3445D01*
X4942D01*
X4935Y3438D01*
Y3412D01*
X4942Y3405D01*
X4955D01*
X4962Y3412D01*
X4975Y3438D02*
X4982Y3445D01*
X4995D01*
X5002Y3438D01*
Y3432D01*
X4995Y3425D01*
X4988D01*
X4995D01*
X5002Y3418D01*
Y3412D01*
X4995Y3405D01*
X4982D01*
X4975Y3412D01*
X5015D02*
X5022Y3405D01*
X5035D01*
X5042Y3412D01*
Y3438D01*
X5035Y3445D01*
X5022D01*
X5015Y3438D01*
Y3432D01*
X5022Y3425D01*
X5042D01*
X952Y3897D02*
X945Y3890D01*
Y3877D01*
X952Y3870D01*
X978D01*
X985Y3877D01*
Y3890D01*
X978Y3897D01*
X985Y3930D02*
X945D01*
X965Y3910D01*
Y3937D01*
X952Y3950D02*
X945Y3957D01*
Y3970D01*
X952Y3977D01*
X978D01*
X985Y3970D01*
Y3957D01*
X978Y3950D01*
X952D01*
X1252Y3478D02*
X1245Y3485D01*
X1232D01*
X1225Y3478D01*
Y3452D01*
X1232Y3445D01*
X1245D01*
X1252Y3452D01*
X1285Y3445D02*
Y3485D01*
X1265Y3465D01*
X1292D01*
X1305Y3445D02*
X1318D01*
X1312D01*
Y3485D01*
X1305Y3478D01*
X1222Y3653D02*
X1215Y3660D01*
X1202D01*
X1195Y3653D01*
Y3627D01*
X1202Y3620D01*
X1215D01*
X1222Y3627D01*
X1255Y3620D02*
Y3660D01*
X1235Y3640D01*
X1262D01*
X1302Y3620D02*
X1275D01*
X1302Y3647D01*
Y3653D01*
X1295Y3660D01*
X1282D01*
X1275Y3653D01*
X1312Y2758D02*
X1305Y2765D01*
X1292D01*
X1285Y2758D01*
Y2732D01*
X1292Y2725D01*
X1305D01*
X1312Y2732D01*
X1345Y2725D02*
Y2765D01*
X1325Y2745D01*
X1352D01*
X1365Y2758D02*
X1372Y2765D01*
X1385D01*
X1392Y2758D01*
Y2752D01*
X1385Y2745D01*
X1378D01*
X1385D01*
X1392Y2738D01*
Y2732D01*
X1385Y2725D01*
X1372D01*
X1365Y2732D01*
X1222Y3593D02*
X1215Y3600D01*
X1202D01*
X1195Y3593D01*
Y3567D01*
X1202Y3560D01*
X1215D01*
X1222Y3567D01*
X1255Y3560D02*
Y3600D01*
X1235Y3580D01*
X1262D01*
X1295Y3560D02*
Y3600D01*
X1275Y3580D01*
X1302D01*
X1312Y2703D02*
X1305Y2710D01*
X1292D01*
X1285Y2703D01*
Y2677D01*
X1292Y2670D01*
X1305D01*
X1312Y2677D01*
X1345Y2670D02*
Y2710D01*
X1325Y2690D01*
X1352D01*
X1392Y2710D02*
X1365D01*
Y2690D01*
X1378Y2697D01*
X1385D01*
X1392Y2690D01*
Y2677D01*
X1385Y2670D01*
X1372D01*
X1365Y2677D01*
X2237Y2278D02*
X2230Y2285D01*
X2217D01*
X2210Y2278D01*
Y2252D01*
X2217Y2245D01*
X2230D01*
X2237Y2252D01*
X2270Y2245D02*
Y2285D01*
X2250Y2265D01*
X2277D01*
X2317Y2285D02*
X2303Y2278D01*
X2290Y2265D01*
Y2252D01*
X2297Y2245D01*
X2310D01*
X2317Y2252D01*
Y2258D01*
X2310Y2265D01*
X2290D01*
X2127Y3303D02*
X2120Y3310D01*
X2107D01*
X2100Y3303D01*
Y3277D01*
X2107Y3270D01*
X2120D01*
X2127Y3277D01*
X2160Y3270D02*
Y3310D01*
X2140Y3290D01*
X2167D01*
X2180Y3310D02*
X2207D01*
Y3303D01*
X2180Y3277D01*
Y3270D01*
X1822Y2368D02*
X1815Y2375D01*
X1802D01*
X1795Y2368D01*
Y2342D01*
X1802Y2335D01*
X1815D01*
X1822Y2342D01*
X1855Y2335D02*
Y2375D01*
X1835Y2355D01*
X1862D01*
X1875Y2368D02*
X1882Y2375D01*
X1895D01*
X1902Y2368D01*
Y2362D01*
X1895Y2355D01*
X1902Y2348D01*
Y2342D01*
X1895Y2335D01*
X1882D01*
X1875Y2342D01*
Y2348D01*
X1882Y2355D01*
X1875Y2362D01*
Y2368D01*
X1882Y2355D02*
X1895D01*
X147Y2227D02*
X140Y2220D01*
Y2207D01*
X147Y2200D01*
X173D01*
X180Y2207D01*
Y2220D01*
X173Y2227D01*
X180Y2260D02*
X140D01*
X160Y2240D01*
Y2267D01*
X173Y2280D02*
X180Y2287D01*
Y2300D01*
X173Y2307D01*
X147D01*
X140Y2300D01*
Y2287D01*
X147Y2280D01*
X153D01*
X160Y2287D01*
Y2307D01*
X2362Y3588D02*
X2355Y3595D01*
X2342D01*
X2335Y3588D01*
Y3562D01*
X2342Y3555D01*
X2355D01*
X2362Y3562D01*
X2402Y3595D02*
X2375D01*
Y3575D01*
X2388Y3582D01*
X2395D01*
X2402Y3575D01*
Y3562D01*
X2395Y3555D01*
X2382D01*
X2375Y3562D01*
X2415Y3588D02*
X2422Y3595D01*
X2435D01*
X2442Y3588D01*
Y3562D01*
X2435Y3555D01*
X2422D01*
X2415Y3562D01*
Y3588D01*
X2362Y2708D02*
X2355Y2715D01*
X2342D01*
X2335Y2708D01*
Y2682D01*
X2342Y2675D01*
X2355D01*
X2362Y2682D01*
X2402Y2715D02*
X2375D01*
Y2695D01*
X2388Y2702D01*
X2395D01*
X2402Y2695D01*
Y2682D01*
X2395Y2675D01*
X2382D01*
X2375Y2682D01*
X2415Y2675D02*
X2428D01*
X2422D01*
Y2715D01*
X2415Y2708D01*
X1937Y4238D02*
X1930Y4245D01*
X1917D01*
X1910Y4238D01*
Y4212D01*
X1917Y4205D01*
X1930D01*
X1937Y4212D01*
X1977Y4245D02*
X1950D01*
Y4225D01*
X1963Y4232D01*
X1970D01*
X1977Y4225D01*
Y4212D01*
X1970Y4205D01*
X1957D01*
X1950Y4212D01*
X2017Y4205D02*
X1990D01*
X2017Y4232D01*
Y4238D01*
X2010Y4245D01*
X1997D01*
X1990Y4238D01*
X1622Y3268D02*
X1615Y3275D01*
X1602D01*
X1595Y3268D01*
Y3242D01*
X1602Y3235D01*
X1615D01*
X1622Y3242D01*
X1662Y3275D02*
X1635D01*
Y3255D01*
X1648Y3262D01*
X1655D01*
X1662Y3255D01*
Y3242D01*
X1655Y3235D01*
X1642D01*
X1635Y3242D01*
X1675Y3268D02*
X1682Y3275D01*
X1695D01*
X1702Y3268D01*
Y3262D01*
X1695Y3255D01*
X1688D01*
X1695D01*
X1702Y3248D01*
Y3242D01*
X1695Y3235D01*
X1682D01*
X1675Y3242D01*
X2372Y2328D02*
X2365Y2335D01*
X2352D01*
X2345Y2328D01*
Y2302D01*
X2352Y2295D01*
X2365D01*
X2372Y2302D01*
X2412Y2335D02*
X2385D01*
Y2315D01*
X2398Y2322D01*
X2405D01*
X2412Y2315D01*
Y2302D01*
X2405Y2295D01*
X2392D01*
X2385Y2302D01*
X2445Y2295D02*
Y2335D01*
X2425Y2315D01*
X2452D01*
X2302Y4273D02*
X2295Y4280D01*
X2282D01*
X2275Y4273D01*
Y4247D01*
X2282Y4240D01*
X2295D01*
X2302Y4247D01*
X2342Y4280D02*
X2315D01*
Y4260D01*
X2328Y4267D01*
X2335D01*
X2342Y4260D01*
Y4247D01*
X2335Y4240D01*
X2322D01*
X2315Y4247D01*
X2382Y4280D02*
X2355D01*
Y4260D01*
X2368Y4267D01*
X2375D01*
X2382Y4260D01*
Y4247D01*
X2375Y4240D01*
X2362D01*
X2355Y4247D01*
X2402Y3338D02*
X2395Y3345D01*
X2382D01*
X2375Y3338D01*
Y3312D01*
X2382Y3305D01*
X2395D01*
X2402Y3312D01*
X2442Y3345D02*
X2415D01*
Y3325D01*
X2428Y3332D01*
X2435D01*
X2442Y3325D01*
Y3312D01*
X2435Y3305D01*
X2422D01*
X2415Y3312D01*
X2482Y3345D02*
X2468Y3338D01*
X2455Y3325D01*
Y3312D01*
X2462Y3305D01*
X2475D01*
X2482Y3312D01*
Y3318D01*
X2475Y3325D01*
X2455D01*
X2362Y3643D02*
X2355Y3650D01*
X2342D01*
X2335Y3643D01*
Y3617D01*
X2342Y3610D01*
X2355D01*
X2362Y3617D01*
X2402Y3650D02*
X2375D01*
Y3630D01*
X2388Y3637D01*
X2395D01*
X2402Y3630D01*
Y3617D01*
X2395Y3610D01*
X2382D01*
X2375Y3617D01*
X2415Y3650D02*
X2442D01*
Y3643D01*
X2415Y3617D01*
Y3610D01*
X2362Y2763D02*
X2355Y2770D01*
X2342D01*
X2335Y2763D01*
Y2737D01*
X2342Y2730D01*
X2355D01*
X2362Y2737D01*
X2402Y2770D02*
X2375D01*
Y2750D01*
X2388Y2757D01*
X2395D01*
X2402Y2750D01*
Y2737D01*
X2395Y2730D01*
X2382D01*
X2375Y2737D01*
X2415Y2763D02*
X2422Y2770D01*
X2435D01*
X2442Y2763D01*
Y2757D01*
X2435Y2750D01*
X2442Y2743D01*
Y2737D01*
X2435Y2730D01*
X2422D01*
X2415Y2737D01*
Y2743D01*
X2422Y2750D01*
X2415Y2757D01*
Y2763D01*
X2422Y2750D02*
X2435D01*
X2362Y3698D02*
X2355Y3705D01*
X2342D01*
X2335Y3698D01*
Y3672D01*
X2342Y3665D01*
X2355D01*
X2362Y3672D01*
X2402Y3705D02*
X2375D01*
Y3685D01*
X2388Y3692D01*
X2395D01*
X2402Y3685D01*
Y3672D01*
X2395Y3665D01*
X2382D01*
X2375Y3672D01*
X2415D02*
X2422Y3665D01*
X2435D01*
X2442Y3672D01*
Y3698D01*
X2435Y3705D01*
X2422D01*
X2415Y3698D01*
Y3692D01*
X2422Y3685D01*
X2442D01*
X2357Y2813D02*
X2350Y2820D01*
X2337D01*
X2330Y2813D01*
Y2787D01*
X2337Y2780D01*
X2350D01*
X2357Y2787D01*
X2397Y2820D02*
X2383Y2813D01*
X2370Y2800D01*
Y2787D01*
X2377Y2780D01*
X2390D01*
X2397Y2787D01*
Y2793D01*
X2390Y2800D01*
X2370D01*
X2410Y2813D02*
X2417Y2820D01*
X2430D01*
X2437Y2813D01*
Y2787D01*
X2430Y2780D01*
X2417D01*
X2410Y2787D01*
Y2813D01*
X2923Y4288D02*
X2916Y4294D01*
X2903D01*
X2897Y4288D01*
Y4261D01*
X2903Y4254D01*
X2916D01*
X2923Y4261D01*
X2963Y4294D02*
X2950Y4288D01*
X2936Y4274D01*
Y4261D01*
X2943Y4254D01*
X2956D01*
X2963Y4261D01*
Y4268D01*
X2956Y4274D01*
X2936D01*
X2976Y4254D02*
X2990D01*
X2983D01*
Y4294D01*
X2976Y4288D01*
X2877Y2393D02*
X2870Y2400D01*
X2857D01*
X2850Y2393D01*
Y2367D01*
X2857Y2360D01*
X2870D01*
X2877Y2367D01*
X2917Y2400D02*
X2903Y2393D01*
X2890Y2380D01*
Y2367D01*
X2897Y2360D01*
X2910D01*
X2917Y2367D01*
Y2373D01*
X2910Y2380D01*
X2890D01*
X2957Y2360D02*
X2930D01*
X2957Y2387D01*
Y2393D01*
X2950Y2400D01*
X2937D01*
X2930Y2393D01*
X1167Y1642D02*
X1160Y1635D01*
Y1622D01*
X1167Y1615D01*
X1193D01*
X1200Y1622D01*
Y1635D01*
X1193Y1642D01*
X1160Y1682D02*
X1167Y1668D01*
X1180Y1655D01*
X1193D01*
X1200Y1662D01*
Y1675D01*
X1193Y1682D01*
X1187D01*
X1180Y1675D01*
Y1655D01*
X1167Y1695D02*
X1160Y1702D01*
Y1715D01*
X1167Y1722D01*
X1173D01*
X1180Y1715D01*
Y1708D01*
Y1715D01*
X1187Y1722D01*
X1193D01*
X1200Y1715D01*
Y1702D01*
X1193Y1695D01*
X3407Y3828D02*
X3400Y3835D01*
X3387D01*
X3380Y3828D01*
Y3802D01*
X3387Y3795D01*
X3400D01*
X3407Y3802D01*
X3447Y3835D02*
X3433Y3828D01*
X3420Y3815D01*
Y3802D01*
X3427Y3795D01*
X3440D01*
X3447Y3802D01*
Y3808D01*
X3440Y3815D01*
X3420D01*
X3480Y3795D02*
Y3835D01*
X3460Y3815D01*
X3487D01*
X3447Y2782D02*
X3440Y2775D01*
Y2762D01*
X3447Y2755D01*
X3473D01*
X3480Y2762D01*
Y2775D01*
X3473Y2782D01*
X3440Y2822D02*
X3447Y2808D01*
X3460Y2795D01*
X3473D01*
X3480Y2802D01*
Y2815D01*
X3473Y2822D01*
X3467D01*
X3460Y2815D01*
Y2795D01*
X3440Y2862D02*
Y2835D01*
X3460D01*
X3453Y2848D01*
Y2855D01*
X3460Y2862D01*
X3473D01*
X3480Y2855D01*
Y2842D01*
X3473Y2835D01*
X3167Y3328D02*
X3160Y3335D01*
X3147D01*
X3140Y3328D01*
Y3302D01*
X3147Y3295D01*
X3160D01*
X3167Y3302D01*
X3207Y3335D02*
X3193Y3328D01*
X3180Y3315D01*
Y3302D01*
X3187Y3295D01*
X3200D01*
X3207Y3302D01*
Y3308D01*
X3200Y3315D01*
X3180D01*
X3247Y3335D02*
X3233Y3328D01*
X3220Y3315D01*
Y3302D01*
X3227Y3295D01*
X3240D01*
X3247Y3302D01*
Y3308D01*
X3240Y3315D01*
X3220D01*
X2767Y3331D02*
X2760Y3338D01*
X2747D01*
X2740Y3331D01*
Y3305D01*
X2747Y3298D01*
X2760D01*
X2767Y3305D01*
X2807Y3338D02*
X2793Y3331D01*
X2780Y3318D01*
Y3305D01*
X2787Y3298D01*
X2800D01*
X2807Y3305D01*
Y3311D01*
X2800Y3318D01*
X2780D01*
X2820Y3338D02*
X2847D01*
Y3331D01*
X2820Y3305D01*
Y3298D01*
X5042Y2772D02*
X5035Y2765D01*
Y2752D01*
X5042Y2745D01*
X5068D01*
X5075Y2752D01*
Y2765D01*
X5068Y2772D01*
X5035Y2812D02*
X5042Y2798D01*
X5055Y2785D01*
X5068D01*
X5075Y2792D01*
Y2805D01*
X5068Y2812D01*
X5062D01*
X5055Y2805D01*
Y2785D01*
X5042Y2825D02*
X5035Y2832D01*
Y2845D01*
X5042Y2852D01*
X5048D01*
X5055Y2845D01*
X5062Y2852D01*
X5068D01*
X5075Y2845D01*
Y2832D01*
X5068Y2825D01*
X5062D01*
X5055Y2832D01*
X5048Y2825D01*
X5042D01*
X5055Y2832D02*
Y2845D01*
X4857Y2753D02*
X4850Y2760D01*
X4837D01*
X4830Y2753D01*
Y2727D01*
X4837Y2720D01*
X4850D01*
X4857Y2727D01*
X4897Y2760D02*
X4883Y2753D01*
X4870Y2740D01*
Y2727D01*
X4877Y2720D01*
X4890D01*
X4897Y2727D01*
Y2733D01*
X4890Y2740D01*
X4870D01*
X4910Y2727D02*
X4917Y2720D01*
X4930D01*
X4937Y2727D01*
Y2753D01*
X4930Y2760D01*
X4917D01*
X4910Y2753D01*
Y2747D01*
X4917Y2740D01*
X4937D01*
X4362Y2908D02*
X4355Y2915D01*
X4342D01*
X4335Y2908D01*
Y2882D01*
X4342Y2875D01*
X4355D01*
X4362Y2882D01*
X4375Y2915D02*
X4402D01*
Y2908D01*
X4375Y2882D01*
Y2875D01*
X4415Y2908D02*
X4422Y2915D01*
X4435D01*
X4442Y2908D01*
Y2882D01*
X4435Y2875D01*
X4422D01*
X4415Y2882D01*
Y2908D01*
X1142Y2057D02*
X1135Y2050D01*
Y2037D01*
X1142Y2030D01*
X1168D01*
X1175Y2037D01*
Y2050D01*
X1168Y2057D01*
X1135Y2070D02*
Y2097D01*
X1142D01*
X1168Y2070D01*
X1175D01*
Y2110D02*
Y2123D01*
Y2117D01*
X1135D01*
X1142Y2110D01*
X4777Y2772D02*
X4770Y2765D01*
Y2752D01*
X4777Y2745D01*
X4803D01*
X4810Y2752D01*
Y2765D01*
X4803Y2772D01*
X4770Y2785D02*
Y2812D01*
X4777D01*
X4803Y2785D01*
X4810D01*
Y2852D02*
Y2825D01*
X4783Y2852D01*
X4777D01*
X4770Y2845D01*
Y2832D01*
X4777Y2825D01*
X4682Y2772D02*
X4675Y2765D01*
Y2752D01*
X4682Y2745D01*
X4708D01*
X4715Y2752D01*
Y2765D01*
X4708Y2772D01*
X4675Y2785D02*
Y2812D01*
X4682D01*
X4708Y2785D01*
X4715D01*
X4682Y2825D02*
X4675Y2832D01*
Y2845D01*
X4682Y2852D01*
X4688D01*
X4695Y2845D01*
Y2838D01*
Y2845D01*
X4702Y2852D01*
X4708D01*
X4715Y2845D01*
Y2832D01*
X4708Y2825D01*
X5412Y2317D02*
X5405Y2310D01*
Y2297D01*
X5412Y2290D01*
X5438D01*
X5445Y2297D01*
Y2310D01*
X5438Y2317D01*
X5405Y2330D02*
Y2357D01*
X5412D01*
X5438Y2330D01*
X5445D01*
Y2390D02*
X5405D01*
X5425Y2370D01*
Y2397D01*
X1592Y2052D02*
X1585Y2045D01*
Y2032D01*
X1592Y2025D01*
X1618D01*
X1625Y2032D01*
Y2045D01*
X1618Y2052D01*
X1585Y2065D02*
Y2092D01*
X1592D01*
X1618Y2065D01*
X1625D01*
X1585Y2132D02*
Y2105D01*
X1605D01*
X1598Y2118D01*
Y2125D01*
X1605Y2132D01*
X1618D01*
X1625Y2125D01*
Y2112D01*
X1618Y2105D01*
X1532Y1742D02*
X1525Y1735D01*
Y1722D01*
X1532Y1715D01*
X1558D01*
X1565Y1722D01*
Y1735D01*
X1558Y1742D01*
X1525Y1755D02*
Y1782D01*
X1532D01*
X1558Y1755D01*
X1565D01*
X1525Y1822D02*
X1532Y1808D01*
X1545Y1795D01*
X1558D01*
X1565Y1802D01*
Y1815D01*
X1558Y1822D01*
X1552D01*
X1545Y1815D01*
Y1795D01*
X477Y2092D02*
X470Y2085D01*
Y2072D01*
X477Y2065D01*
X503D01*
X510Y2072D01*
Y2085D01*
X503Y2092D01*
X470Y2105D02*
Y2132D01*
X477D01*
X503Y2105D01*
X510D01*
X470Y2145D02*
Y2172D01*
X477D01*
X503Y2145D01*
X510D01*
X1082Y1947D02*
X1075Y1940D01*
Y1927D01*
X1082Y1920D01*
X1108D01*
X1115Y1927D01*
Y1940D01*
X1108Y1947D01*
X1075Y1960D02*
Y1987D01*
X1082D01*
X1108Y1960D01*
X1115D01*
X1082Y2000D02*
X1075Y2007D01*
Y2020D01*
X1082Y2027D01*
X1088D01*
X1095Y2020D01*
X1102Y2027D01*
X1108D01*
X1115Y2020D01*
Y2007D01*
X1108Y2000D01*
X1102D01*
X1095Y2007D01*
X1088Y2000D01*
X1082D01*
X1095Y2007D02*
Y2020D01*
X4109Y2245D02*
X4103Y2251D01*
X4091D01*
X4085Y2245D01*
Y2221D01*
X4091Y2215D01*
X4103D01*
X4109Y2221D01*
X4121Y2251D02*
X4145D01*
Y2245D01*
X4121Y2221D01*
Y2215D01*
X4157Y2221D02*
X4163Y2215D01*
X4175D01*
X4181Y2221D01*
Y2245D01*
X4175Y2251D01*
X4163D01*
X4157Y2245D01*
Y2239D01*
X4163Y2233D01*
X4181D01*
X5322Y2078D02*
X5315Y2085D01*
X5302D01*
X5295Y2078D01*
Y2052D01*
X5302Y2045D01*
X5315D01*
X5322Y2052D01*
X5335Y2078D02*
X5342Y2085D01*
X5355D01*
X5362Y2078D01*
Y2072D01*
X5355Y2065D01*
X5362Y2058D01*
Y2052D01*
X5355Y2045D01*
X5342D01*
X5335Y2052D01*
Y2058D01*
X5342Y2065D01*
X5335Y2072D01*
Y2078D01*
X5342Y2065D02*
X5355D01*
X5375Y2078D02*
X5382Y2085D01*
X5395D01*
X5402Y2078D01*
Y2052D01*
X5395Y2045D01*
X5382D01*
X5375Y2052D01*
Y2078D01*
X3272Y2342D02*
X3265Y2335D01*
Y2322D01*
X3272Y2315D01*
X3298D01*
X3305Y2322D01*
Y2335D01*
X3298Y2342D01*
X3272Y2355D02*
X3265Y2362D01*
Y2375D01*
X3272Y2382D01*
X3278D01*
X3285Y2375D01*
X3292Y2382D01*
X3298D01*
X3305Y2375D01*
Y2362D01*
X3298Y2355D01*
X3292D01*
X3285Y2362D01*
X3278Y2355D01*
X3272D01*
X3285Y2362D02*
Y2375D01*
X3305Y2395D02*
Y2408D01*
Y2402D01*
X3265D01*
X3272Y2395D01*
X3167Y2342D02*
X3160Y2335D01*
Y2322D01*
X3167Y2315D01*
X3193D01*
X3200Y2322D01*
Y2335D01*
X3193Y2342D01*
X3167Y2355D02*
X3160Y2362D01*
Y2375D01*
X3167Y2382D01*
X3173D01*
X3180Y2375D01*
X3187Y2382D01*
X3193D01*
X3200Y2375D01*
Y2362D01*
X3193Y2355D01*
X3187D01*
X3180Y2362D01*
X3173Y2355D01*
X3167D01*
X3180Y2362D02*
Y2375D01*
X3200Y2422D02*
Y2395D01*
X3173Y2422D01*
X3167D01*
X3160Y2415D01*
Y2402D01*
X3167Y2395D01*
X3217Y2342D02*
X3210Y2335D01*
Y2322D01*
X3217Y2315D01*
X3243D01*
X3250Y2322D01*
Y2335D01*
X3243Y2342D01*
X3217Y2355D02*
X3210Y2362D01*
Y2375D01*
X3217Y2382D01*
X3223D01*
X3230Y2375D01*
X3237Y2382D01*
X3243D01*
X3250Y2375D01*
Y2362D01*
X3243Y2355D01*
X3237D01*
X3230Y2362D01*
X3223Y2355D01*
X3217D01*
X3230Y2362D02*
Y2375D01*
X3217Y2395D02*
X3210Y2402D01*
Y2415D01*
X3217Y2422D01*
X3223D01*
X3230Y2415D01*
Y2408D01*
Y2415D01*
X3237Y2422D01*
X3243D01*
X3250Y2415D01*
Y2402D01*
X3243Y2395D01*
X3327Y2367D02*
X3320Y2360D01*
Y2347D01*
X3327Y2340D01*
X3353D01*
X3360Y2347D01*
Y2360D01*
X3353Y2367D01*
X3327Y2380D02*
X3320Y2387D01*
Y2400D01*
X3327Y2407D01*
X3333D01*
X3340Y2400D01*
X3347Y2407D01*
X3353D01*
X3360Y2400D01*
Y2387D01*
X3353Y2380D01*
X3347D01*
X3340Y2387D01*
X3333Y2380D01*
X3327D01*
X3340Y2387D02*
Y2400D01*
X3360Y2440D02*
X3320D01*
X3340Y2420D01*
Y2447D01*
X3482Y2367D02*
X3475Y2360D01*
Y2347D01*
X3482Y2340D01*
X3508D01*
X3515Y2347D01*
Y2360D01*
X3508Y2367D01*
X3482Y2380D02*
X3475Y2387D01*
Y2400D01*
X3482Y2407D01*
X3488D01*
X3495Y2400D01*
X3502Y2407D01*
X3508D01*
X3515Y2400D01*
Y2387D01*
X3508Y2380D01*
X3502D01*
X3495Y2387D01*
X3488Y2380D01*
X3482D01*
X3495Y2387D02*
Y2400D01*
X3475Y2447D02*
Y2420D01*
X3495D01*
X3488Y2433D01*
Y2440D01*
X3495Y2447D01*
X3508D01*
X3515Y2440D01*
Y2427D01*
X3508Y2420D01*
X3432Y2367D02*
X3425Y2360D01*
Y2347D01*
X3432Y2340D01*
X3458D01*
X3465Y2347D01*
Y2360D01*
X3458Y2367D01*
X3432Y2380D02*
X3425Y2387D01*
Y2400D01*
X3432Y2407D01*
X3438D01*
X3445Y2400D01*
X3452Y2407D01*
X3458D01*
X3465Y2400D01*
Y2387D01*
X3458Y2380D01*
X3452D01*
X3445Y2387D01*
X3438Y2380D01*
X3432D01*
X3445Y2387D02*
Y2400D01*
X3425Y2447D02*
X3432Y2433D01*
X3445Y2420D01*
X3458D01*
X3465Y2427D01*
Y2440D01*
X3458Y2447D01*
X3452D01*
X3445Y2440D01*
Y2420D01*
X3437Y2158D02*
X3430Y2165D01*
X3417D01*
X3410Y2158D01*
Y2132D01*
X3417Y2125D01*
X3430D01*
X3437Y2132D01*
X3450Y2158D02*
X3457Y2165D01*
X3470D01*
X3477Y2158D01*
Y2152D01*
X3470Y2145D01*
X3477Y2138D01*
Y2132D01*
X3470Y2125D01*
X3457D01*
X3450Y2132D01*
Y2138D01*
X3457Y2145D01*
X3450Y2152D01*
Y2158D01*
X3457Y2145D02*
X3470D01*
X3490Y2165D02*
X3517D01*
Y2158D01*
X3490Y2132D01*
Y2125D01*
X3432Y2108D02*
X3425Y2115D01*
X3412D01*
X3405Y2108D01*
Y2082D01*
X3412Y2075D01*
X3425D01*
X3432Y2082D01*
X3445Y2108D02*
X3452Y2115D01*
X3465D01*
X3472Y2108D01*
Y2102D01*
X3465Y2095D01*
X3472Y2088D01*
Y2082D01*
X3465Y2075D01*
X3452D01*
X3445Y2082D01*
Y2088D01*
X3452Y2095D01*
X3445Y2102D01*
Y2108D01*
X3452Y2095D02*
X3465D01*
X3485Y2108D02*
X3492Y2115D01*
X3505D01*
X3512Y2108D01*
Y2102D01*
X3505Y2095D01*
X3512Y2088D01*
Y2082D01*
X3505Y2075D01*
X3492D01*
X3485Y2082D01*
Y2088D01*
X3492Y2095D01*
X3485Y2102D01*
Y2108D01*
X3492Y2095D02*
X3505D01*
X3482Y1358D02*
X3475Y1365D01*
X3462D01*
X3455Y1358D01*
Y1332D01*
X3462Y1325D01*
X3475D01*
X3482Y1332D01*
X3495Y1358D02*
X3502Y1365D01*
X3515D01*
X3522Y1358D01*
Y1352D01*
X3515Y1345D01*
X3522Y1338D01*
Y1332D01*
X3515Y1325D01*
X3502D01*
X3495Y1332D01*
Y1338D01*
X3502Y1345D01*
X3495Y1352D01*
Y1358D01*
X3502Y1345D02*
X3515D01*
X3535Y1332D02*
X3542Y1325D01*
X3555D01*
X3562Y1332D01*
Y1358D01*
X3555Y1365D01*
X3542D01*
X3535Y1358D01*
Y1352D01*
X3542Y1345D01*
X3562D01*
X3502Y1103D02*
X3495Y1110D01*
X3482D01*
X3475Y1103D01*
Y1077D01*
X3482Y1070D01*
X3495D01*
X3502Y1077D01*
X3515D02*
X3522Y1070D01*
X3535D01*
X3542Y1077D01*
Y1103D01*
X3535Y1110D01*
X3522D01*
X3515Y1103D01*
Y1097D01*
X3522Y1090D01*
X3542D01*
X3555Y1103D02*
X3562Y1110D01*
X3575D01*
X3582Y1103D01*
Y1077D01*
X3575Y1070D01*
X3562D01*
X3555Y1077D01*
Y1103D01*
X3185Y1027D02*
X3178Y1020D01*
Y1007D01*
X3185Y1000D01*
X3211D01*
X3218Y1007D01*
Y1020D01*
X3211Y1027D01*
Y1040D02*
X3218Y1047D01*
Y1060D01*
X3211Y1067D01*
X3185D01*
X3178Y1060D01*
Y1047D01*
X3185Y1040D01*
X3191D01*
X3198Y1047D01*
Y1067D01*
X3218Y1080D02*
Y1093D01*
Y1087D01*
X3178D01*
X3185Y1080D01*
X3242Y1022D02*
X3235Y1015D01*
Y1002D01*
X3242Y995D01*
X3268D01*
X3275Y1002D01*
Y1015D01*
X3268Y1022D01*
Y1035D02*
X3275Y1042D01*
Y1055D01*
X3268Y1062D01*
X3242D01*
X3235Y1055D01*
Y1042D01*
X3242Y1035D01*
X3248D01*
X3255Y1042D01*
Y1062D01*
X3275Y1102D02*
Y1075D01*
X3248Y1102D01*
X3242D01*
X3235Y1095D01*
Y1082D01*
X3242Y1075D01*
X3087Y1037D02*
X3080Y1030D01*
Y1017D01*
X3087Y1010D01*
X3113D01*
X3120Y1017D01*
Y1030D01*
X3113Y1037D01*
Y1050D02*
X3120Y1057D01*
Y1070D01*
X3113Y1077D01*
X3087D01*
X3080Y1070D01*
Y1057D01*
X3087Y1050D01*
X3093D01*
X3100Y1057D01*
Y1077D01*
X3087Y1090D02*
X3080Y1097D01*
Y1110D01*
X3087Y1117D01*
X3093D01*
X3100Y1110D01*
Y1103D01*
Y1110D01*
X3107Y1117D01*
X3113D01*
X3120Y1110D01*
Y1097D01*
X3113Y1090D01*
X3027Y1032D02*
X3020Y1025D01*
Y1012D01*
X3027Y1005D01*
X3053D01*
X3060Y1012D01*
Y1025D01*
X3053Y1032D01*
Y1045D02*
X3060Y1052D01*
Y1065D01*
X3053Y1072D01*
X3027D01*
X3020Y1065D01*
Y1052D01*
X3027Y1045D01*
X3033D01*
X3040Y1052D01*
Y1072D01*
X3060Y1105D02*
X3020D01*
X3040Y1085D01*
Y1112D01*
X2822Y1047D02*
X2815Y1040D01*
Y1027D01*
X2822Y1020D01*
X2848D01*
X2855Y1027D01*
Y1040D01*
X2848Y1047D01*
Y1060D02*
X2855Y1067D01*
Y1080D01*
X2848Y1087D01*
X2822D01*
X2815Y1080D01*
Y1067D01*
X2822Y1060D01*
X2828D01*
X2835Y1067D01*
Y1087D01*
X2815Y1127D02*
Y1100D01*
X2835D01*
X2828Y1113D01*
Y1120D01*
X2835Y1127D01*
X2848D01*
X2855Y1120D01*
Y1107D01*
X2848Y1100D01*
X2737Y1041D02*
X2730Y1035D01*
Y1021D01*
X2737Y1015D01*
X2763D01*
X2770Y1021D01*
Y1035D01*
X2763Y1041D01*
Y1055D02*
X2770Y1061D01*
Y1075D01*
X2763Y1081D01*
X2737D01*
X2730Y1075D01*
Y1061D01*
X2737Y1055D01*
X2743D01*
X2750Y1061D01*
Y1081D01*
X2730Y1121D02*
X2737Y1108D01*
X2750Y1095D01*
X2763D01*
X2770Y1101D01*
Y1115D01*
X2763Y1121D01*
X2757D01*
X2750Y1115D01*
Y1095D01*
X2639Y1159D02*
X2632Y1152D01*
Y1139D01*
X2639Y1132D01*
X2665D01*
X2672Y1139D01*
Y1152D01*
X2665Y1159D01*
Y1172D02*
X2672Y1179D01*
Y1192D01*
X2665Y1199D01*
X2639D01*
X2632Y1192D01*
Y1179D01*
X2639Y1172D01*
X2645D01*
X2652Y1179D01*
Y1199D01*
X2632Y1212D02*
Y1239D01*
X2639D01*
X2665Y1212D01*
X2672D01*
X2377Y2273D02*
X2370Y2280D01*
X2357D01*
X2350Y2273D01*
Y2247D01*
X2357Y2240D01*
X2370D01*
X2377Y2247D01*
X2390D02*
X2397Y2240D01*
X2410D01*
X2417Y2247D01*
Y2273D01*
X2410Y2280D01*
X2397D01*
X2390Y2273D01*
Y2267D01*
X2397Y2260D01*
X2417D01*
X2430Y2273D02*
X2437Y2280D01*
X2450D01*
X2457Y2273D01*
Y2267D01*
X2450Y2260D01*
X2457Y2253D01*
Y2247D01*
X2450Y2240D01*
X2437D01*
X2430Y2247D01*
Y2253D01*
X2437Y2260D01*
X2430Y2267D01*
Y2273D01*
X2437Y2260D02*
X2450D01*
X2222Y1073D02*
X2215Y1080D01*
X2202D01*
X2195Y1073D01*
Y1047D01*
X2202Y1040D01*
X2215D01*
X2222Y1047D01*
X2235D02*
X2242Y1040D01*
X2255D01*
X2262Y1047D01*
Y1073D01*
X2255Y1080D01*
X2242D01*
X2235Y1073D01*
Y1067D01*
X2242Y1060D01*
X2262D01*
X2275Y1047D02*
X2282Y1040D01*
X2295D01*
X2302Y1047D01*
Y1073D01*
X2295Y1080D01*
X2282D01*
X2275Y1073D01*
Y1067D01*
X2282Y1060D01*
X2302D01*
X4767Y558D02*
X4760Y565D01*
X4747D01*
X4740Y558D01*
Y532D01*
X4747Y525D01*
X4760D01*
X4767Y532D01*
X4780Y525D02*
X4793D01*
X4787D01*
Y565D01*
X4780Y558D01*
X4813D02*
X4820Y565D01*
X4833D01*
X4840Y558D01*
Y532D01*
X4833Y525D01*
X4820D01*
X4813Y532D01*
Y558D01*
X4853D02*
X4860Y565D01*
X4873D01*
X4880Y558D01*
Y532D01*
X4873Y525D01*
X4860D01*
X4853Y532D01*
Y558D01*
X152Y1967D02*
X145Y1960D01*
Y1947D01*
X152Y1940D01*
X178D01*
X185Y1947D01*
Y1960D01*
X178Y1967D01*
X185Y1980D02*
Y1993D01*
Y1987D01*
X145D01*
X152Y1980D01*
Y2013D02*
X145Y2020D01*
Y2033D01*
X152Y2040D01*
X178D01*
X185Y2033D01*
Y2020D01*
X178Y2013D01*
X152D01*
X185Y2053D02*
Y2067D01*
Y2060D01*
X145D01*
X152Y2053D01*
X662Y2092D02*
X655Y2085D01*
Y2072D01*
X662Y2065D01*
X688D01*
X695Y2072D01*
Y2085D01*
X688Y2092D01*
X695Y2105D02*
Y2118D01*
Y2112D01*
X655D01*
X662Y2105D01*
Y2138D02*
X655Y2145D01*
Y2158D01*
X662Y2165D01*
X688D01*
X695Y2158D01*
Y2145D01*
X688Y2138D01*
X662D01*
X695Y2205D02*
Y2178D01*
X668Y2205D01*
X662D01*
X655Y2198D01*
Y2185D01*
X662Y2178D01*
X2372Y2383D02*
X2365Y2390D01*
X2352D01*
X2345Y2383D01*
Y2357D01*
X2352Y2350D01*
X2365D01*
X2372Y2357D01*
X2385Y2350D02*
X2398D01*
X2392D01*
Y2390D01*
X2385Y2383D01*
X2418D02*
X2425Y2390D01*
X2438D01*
X2445Y2383D01*
Y2357D01*
X2438Y2350D01*
X2425D01*
X2418Y2357D01*
Y2383D01*
X2458D02*
X2465Y2390D01*
X2478D01*
X2485Y2383D01*
Y2377D01*
X2478Y2370D01*
X2472D01*
X2478D01*
X2485Y2363D01*
Y2357D01*
X2478Y2350D01*
X2465D01*
X2458Y2357D01*
X4887Y108D02*
X4880Y115D01*
X4867D01*
X4860Y108D01*
Y82D01*
X4867Y75D01*
X4880D01*
X4887Y82D01*
X4900Y75D02*
X4913D01*
X4907D01*
Y115D01*
X4900Y108D01*
X4933D02*
X4940Y115D01*
X4953D01*
X4960Y108D01*
Y82D01*
X4953Y75D01*
X4940D01*
X4933Y82D01*
Y108D01*
X4993Y75D02*
Y115D01*
X4973Y95D01*
X5000D01*
X387Y1937D02*
X380Y1930D01*
Y1917D01*
X387Y1910D01*
X413D01*
X420Y1917D01*
Y1930D01*
X413Y1937D01*
X420Y1950D02*
Y1963D01*
Y1957D01*
X380D01*
X387Y1950D01*
Y1983D02*
X380Y1990D01*
Y2003D01*
X387Y2010D01*
X413D01*
X420Y2003D01*
Y1990D01*
X413Y1983D01*
X387D01*
X380Y2050D02*
Y2023D01*
X400D01*
X393Y2037D01*
Y2043D01*
X400Y2050D01*
X413D01*
X420Y2043D01*
Y2030D01*
X413Y2023D01*
X847Y1927D02*
X840Y1920D01*
Y1907D01*
X847Y1900D01*
X873D01*
X880Y1907D01*
Y1920D01*
X873Y1927D01*
X880Y1940D02*
Y1953D01*
Y1947D01*
X840D01*
X847Y1940D01*
Y1973D02*
X840Y1980D01*
Y1993D01*
X847Y2000D01*
X873D01*
X880Y1993D01*
Y1980D01*
X873Y1973D01*
X847D01*
X840Y2040D02*
X847Y2027D01*
X860Y2013D01*
X873D01*
X880Y2020D01*
Y2033D01*
X873Y2040D01*
X867D01*
X860Y2033D01*
Y2013D01*
X5077Y108D02*
X5070Y115D01*
X5057D01*
X5050Y108D01*
Y82D01*
X5057Y75D01*
X5070D01*
X5077Y82D01*
X5090Y75D02*
X5103D01*
X5097D01*
Y115D01*
X5090Y108D01*
X5123D02*
X5130Y115D01*
X5143D01*
X5150Y108D01*
Y82D01*
X5143Y75D01*
X5130D01*
X5123Y82D01*
Y108D01*
X5163Y115D02*
X5190D01*
Y108D01*
X5163Y82D01*
Y75D01*
X5472Y1608D02*
X5465Y1615D01*
X5452D01*
X5445Y1608D01*
Y1582D01*
X5452Y1575D01*
X5465D01*
X5472Y1582D01*
X5485Y1575D02*
X5498D01*
X5492D01*
Y1615D01*
X5485Y1608D01*
X5518D02*
X5525Y1615D01*
X5538D01*
X5545Y1608D01*
Y1582D01*
X5538Y1575D01*
X5525D01*
X5518Y1582D01*
Y1608D01*
X5558D02*
X5565Y1615D01*
X5578D01*
X5585Y1608D01*
Y1602D01*
X5578Y1595D01*
X5585Y1588D01*
Y1582D01*
X5578Y1575D01*
X5565D01*
X5558Y1582D01*
Y1588D01*
X5565Y1595D01*
X5558Y1602D01*
Y1608D01*
X5565Y1595D02*
X5578D01*
X2517Y692D02*
X2510Y685D01*
Y672D01*
X2517Y665D01*
X2543D01*
X2550Y672D01*
Y685D01*
X2543Y692D01*
X2550Y705D02*
Y718D01*
Y712D01*
X2510D01*
X2517Y705D01*
Y738D02*
X2510Y745D01*
Y758D01*
X2517Y765D01*
X2543D01*
X2550Y758D01*
Y745D01*
X2543Y738D01*
X2517D01*
X2543Y778D02*
X2550Y785D01*
Y798D01*
X2543Y805D01*
X2517D01*
X2510Y798D01*
Y785D01*
X2517Y778D01*
X2523D01*
X2530Y785D01*
Y805D01*
X4424Y1585D02*
X4418Y1591D01*
X4406D01*
X4400Y1585D01*
Y1561D01*
X4406Y1555D01*
X4418D01*
X4424Y1561D01*
X4436Y1555D02*
X4448D01*
X4442D01*
Y1591D01*
X4436Y1585D01*
X4466Y1555D02*
X4478D01*
X4472D01*
Y1591D01*
X4466Y1585D01*
X4496D02*
X4502Y1591D01*
X4514D01*
X4520Y1585D01*
Y1561D01*
X4514Y1555D01*
X4502D01*
X4496Y1561D01*
Y1585D01*
X3397Y832D02*
X3390Y825D01*
Y812D01*
X3397Y805D01*
X3423D01*
X3430Y812D01*
Y825D01*
X3423Y832D01*
X3430Y845D02*
Y858D01*
Y852D01*
X3390D01*
X3397Y845D01*
X3430Y878D02*
Y892D01*
Y885D01*
X3390D01*
X3397Y878D01*
X3430Y912D02*
Y925D01*
Y918D01*
X3390D01*
X3397Y912D01*
X4972Y1712D02*
X4965Y1705D01*
Y1692D01*
X4972Y1685D01*
X4998D01*
X5005Y1692D01*
Y1705D01*
X4998Y1712D01*
X5005Y1725D02*
Y1738D01*
Y1732D01*
X4965D01*
X4972Y1725D01*
X5005Y1758D02*
Y1772D01*
Y1765D01*
X4965D01*
X4972Y1758D01*
X5005Y1818D02*
Y1792D01*
X4978Y1818D01*
X4972D01*
X4965Y1812D01*
Y1798D01*
X4972Y1792D01*
X4534Y1785D02*
X4528Y1791D01*
X4516D01*
X4510Y1785D01*
Y1761D01*
X4516Y1755D01*
X4528D01*
X4534Y1761D01*
X4546Y1755D02*
X4558D01*
X4552D01*
Y1791D01*
X4546Y1785D01*
X4576Y1755D02*
X4588D01*
X4582D01*
Y1791D01*
X4576Y1785D01*
X4606D02*
X4612Y1791D01*
X4624D01*
X4630Y1785D01*
Y1779D01*
X4624Y1773D01*
X4618D01*
X4624D01*
X4630Y1767D01*
Y1761D01*
X4624Y1755D01*
X4612D01*
X4606Y1761D01*
X2382Y1027D02*
X2375Y1020D01*
Y1007D01*
X2382Y1000D01*
X2408D01*
X2415Y1007D01*
Y1020D01*
X2408Y1027D01*
X2415Y1040D02*
Y1053D01*
Y1047D01*
X2375D01*
X2382Y1040D01*
X2415Y1100D02*
Y1073D01*
X2388Y1100D01*
X2382D01*
X2375Y1093D01*
Y1080D01*
X2382Y1073D01*
X2375Y1140D02*
X2382Y1127D01*
X2395Y1113D01*
X2408D01*
X2415Y1120D01*
Y1133D01*
X2408Y1140D01*
X2402D01*
X2395Y1133D01*
Y1113D01*
X3657Y1912D02*
X3650Y1905D01*
Y1892D01*
X3657Y1885D01*
X3683D01*
X3690Y1892D01*
Y1905D01*
X3683Y1912D01*
X3690Y1925D02*
Y1938D01*
Y1932D01*
X3650D01*
X3657Y1925D01*
X3690Y1985D02*
Y1958D01*
X3663Y1985D01*
X3657D01*
X3650Y1978D01*
Y1965D01*
X3657Y1958D01*
X3650Y1998D02*
Y2025D01*
X3657D01*
X3683Y1998D01*
X3690D01*
X3472Y1303D02*
X3465Y1310D01*
X3452D01*
X3445Y1303D01*
Y1277D01*
X3452Y1270D01*
X3465D01*
X3472Y1277D01*
X3485Y1270D02*
X3498D01*
X3492D01*
Y1310D01*
X3485Y1303D01*
X3545Y1270D02*
X3518D01*
X3545Y1297D01*
Y1303D01*
X3538Y1310D01*
X3525D01*
X3518Y1303D01*
X3558D02*
X3565Y1310D01*
X3578D01*
X3585Y1303D01*
Y1297D01*
X3578Y1290D01*
X3585Y1283D01*
Y1277D01*
X3578Y1270D01*
X3565D01*
X3558Y1277D01*
Y1283D01*
X3565Y1290D01*
X3558Y1297D01*
Y1303D01*
X3565Y1290D02*
X3578D01*
X3502Y1048D02*
X3495Y1055D01*
X3482D01*
X3475Y1048D01*
Y1022D01*
X3482Y1015D01*
X3495D01*
X3502Y1022D01*
X3515Y1015D02*
X3528D01*
X3522D01*
Y1055D01*
X3515Y1048D01*
X3548D02*
X3555Y1055D01*
X3568D01*
X3575Y1048D01*
Y1042D01*
X3568Y1035D01*
X3562D01*
X3568D01*
X3575Y1028D01*
Y1022D01*
X3568Y1015D01*
X3555D01*
X3548Y1022D01*
X3588Y1048D02*
X3595Y1055D01*
X3608D01*
X3615Y1048D01*
Y1022D01*
X3608Y1015D01*
X3595D01*
X3588Y1022D01*
Y1048D01*
X2192Y1128D02*
X2185Y1135D01*
X2172D01*
X2165Y1128D01*
Y1102D01*
X2172Y1095D01*
X2185D01*
X2192Y1102D01*
X2205Y1095D02*
X2218D01*
X2212D01*
Y1135D01*
X2205Y1128D01*
X2238D02*
X2245Y1135D01*
X2258D01*
X2265Y1128D01*
Y1122D01*
X2258Y1115D01*
X2252D01*
X2258D01*
X2265Y1108D01*
Y1102D01*
X2258Y1095D01*
X2245D01*
X2238Y1102D01*
X2305Y1095D02*
X2278D01*
X2305Y1122D01*
Y1128D01*
X2298Y1135D01*
X2285D01*
X2278Y1128D01*
X2187Y1368D02*
X2180Y1375D01*
X2167D01*
X2160Y1368D01*
Y1342D01*
X2167Y1335D01*
X2180D01*
X2187Y1342D01*
X2200Y1335D02*
X2213D01*
X2207D01*
Y1375D01*
X2200Y1368D01*
X2233D02*
X2240Y1375D01*
X2253D01*
X2260Y1368D01*
Y1362D01*
X2253Y1355D01*
X2247D01*
X2253D01*
X2260Y1348D01*
Y1342D01*
X2253Y1335D01*
X2240D01*
X2233Y1342D01*
X2293Y1335D02*
Y1375D01*
X2273Y1355D01*
X2300D01*
X3512Y2268D02*
X3505Y2275D01*
X3492D01*
X3485Y2268D01*
Y2242D01*
X3492Y2235D01*
X3505D01*
X3512Y2242D01*
X3525Y2235D02*
X3538D01*
X3532D01*
Y2275D01*
X3525Y2268D01*
X3558D02*
X3565Y2275D01*
X3578D01*
X3585Y2268D01*
Y2262D01*
X3578Y2255D01*
X3572D01*
X3578D01*
X3585Y2248D01*
Y2242D01*
X3578Y2235D01*
X3565D01*
X3558Y2242D01*
X3625Y2275D02*
X3612Y2268D01*
X3598Y2255D01*
Y2242D01*
X3605Y2235D01*
X3618D01*
X3625Y2242D01*
Y2248D01*
X3618Y2255D01*
X3598D01*
X1972Y1467D02*
X1965Y1460D01*
Y1447D01*
X1972Y1440D01*
X1998D01*
X2005Y1447D01*
Y1460D01*
X1998Y1467D01*
X2005Y1480D02*
Y1493D01*
Y1487D01*
X1965D01*
X1972Y1480D01*
Y1513D02*
X1965Y1520D01*
Y1533D01*
X1972Y1540D01*
X1978D01*
X1985Y1533D01*
Y1527D01*
Y1533D01*
X1992Y1540D01*
X1998D01*
X2005Y1533D01*
Y1520D01*
X1998Y1513D01*
X1965Y1553D02*
Y1580D01*
X1972D01*
X1998Y1553D01*
X2005D01*
X5432Y1417D02*
X5425Y1410D01*
Y1397D01*
X5432Y1390D01*
X5458D01*
X5465Y1397D01*
Y1410D01*
X5458Y1417D01*
X5465Y1430D02*
Y1443D01*
Y1437D01*
X5425D01*
X5432Y1430D01*
Y1463D02*
X5425Y1470D01*
Y1483D01*
X5432Y1490D01*
X5438D01*
X5445Y1483D01*
Y1477D01*
Y1483D01*
X5452Y1490D01*
X5458D01*
X5465Y1483D01*
Y1470D01*
X5458Y1463D01*
X5432Y1503D02*
X5425Y1510D01*
Y1523D01*
X5432Y1530D01*
X5438D01*
X5445Y1523D01*
X5452Y1530D01*
X5458D01*
X5465Y1523D01*
Y1510D01*
X5458Y1503D01*
X5452D01*
X5445Y1510D01*
X5438Y1503D01*
X5432D01*
X5445Y1510D02*
Y1523D01*
X1212Y2613D02*
X1205Y2620D01*
X1192D01*
X1185Y2613D01*
Y2587D01*
X1192Y2580D01*
X1205D01*
X1212Y2587D01*
X1225Y2580D02*
X1238D01*
X1232D01*
Y2620D01*
X1225Y2613D01*
X1278Y2580D02*
Y2620D01*
X1258Y2600D01*
X1285D01*
X1298Y2613D02*
X1305Y2620D01*
X1318D01*
X1325Y2613D01*
Y2587D01*
X1318Y2580D01*
X1305D01*
X1298Y2587D01*
Y2613D01*
X912Y2653D02*
X905Y2660D01*
X892D01*
X885Y2653D01*
Y2627D01*
X892Y2620D01*
X905D01*
X912Y2627D01*
X925Y2620D02*
X938D01*
X932D01*
Y2660D01*
X925Y2653D01*
X978Y2620D02*
Y2660D01*
X958Y2640D01*
X985D01*
X998Y2620D02*
X1012D01*
X1005D01*
Y2660D01*
X998Y2653D01*
X1607Y1357D02*
X1600Y1350D01*
Y1337D01*
X1607Y1330D01*
X1633D01*
X1640Y1337D01*
Y1350D01*
X1633Y1357D01*
X1640Y1370D02*
Y1383D01*
Y1377D01*
X1600D01*
X1607Y1370D01*
X1640Y1423D02*
X1600D01*
X1620Y1403D01*
Y1430D01*
X1640Y1470D02*
Y1443D01*
X1613Y1470D01*
X1607D01*
X1600Y1463D01*
Y1450D01*
X1607Y1443D01*
X2165Y1255D02*
Y1215D01*
X2185D01*
X2192Y1222D01*
Y1248D01*
X2185Y1255D01*
X2165D01*
X2205Y1248D02*
X2212Y1255D01*
X2225D01*
X2232Y1248D01*
Y1242D01*
X2225Y1235D01*
X2218D01*
X2225D01*
X2232Y1228D01*
Y1222D01*
X2225Y1215D01*
X2212D01*
X2205Y1222D01*
X2236Y2336D02*
Y2296D01*
X2256D01*
X2263Y2303D01*
Y2329D01*
X2256Y2336D01*
X2236D01*
X2296Y2296D02*
Y2336D01*
X2276Y2316D01*
X2303D01*
X4350Y2975D02*
Y2935D01*
X4370D01*
X4377Y2942D01*
Y2968D01*
X4370Y2975D01*
X4350D01*
X4417D02*
X4390D01*
Y2955D01*
X4403Y2962D01*
X4410D01*
X4417Y2955D01*
Y2942D01*
X4410Y2935D01*
X4397D01*
X4390Y2942D01*
X5255Y180D02*
Y140D01*
X5282D01*
X5295D02*
X5308D01*
X5302D01*
Y180D01*
X5295Y173D01*
X4895Y4180D02*
Y4140D01*
X4922D01*
X4962D02*
X4935D01*
X4962Y4167D01*
Y4173D01*
X4955Y4180D01*
X4942D01*
X4935Y4173D01*
X5225Y3545D02*
Y3505D01*
X5252D01*
X5265Y3538D02*
X5272Y3545D01*
X5285D01*
X5292Y3538D01*
Y3532D01*
X5285Y3525D01*
X5278D01*
X5285D01*
X5292Y3518D01*
Y3512D01*
X5285Y3505D01*
X5272D01*
X5265Y3512D01*
X5800Y1095D02*
Y1055D01*
X5827D01*
X5860D02*
Y1095D01*
X5840Y1075D01*
X5867D01*
X4170Y835D02*
Y795D01*
X4197D01*
X4237Y835D02*
X4210D01*
Y815D01*
X4223Y822D01*
X4230D01*
X4237Y815D01*
Y802D01*
X4230Y795D01*
X4217D01*
X4210Y802D01*
X3660Y1535D02*
X3700D01*
Y1562D01*
X3660Y1575D02*
Y1602D01*
X3667D01*
X3693Y1575D01*
X3700D01*
X3785Y2875D02*
Y2915D01*
X3805D01*
X3812Y2908D01*
Y2895D01*
X3805Y2888D01*
X3785D01*
X3798D02*
X3812Y2875D01*
X3825D02*
X3838D01*
X3832D01*
Y2915D01*
X3825Y2908D01*
X4260Y2450D02*
X4220D01*
Y2470D01*
X4227Y2477D01*
X4240D01*
X4247Y2470D01*
Y2450D01*
Y2463D02*
X4260Y2477D01*
Y2517D02*
Y2490D01*
X4233Y2517D01*
X4227D01*
X4220Y2510D01*
Y2497D01*
X4227Y2490D01*
X3785Y2925D02*
Y2965D01*
X3805D01*
X3812Y2958D01*
Y2945D01*
X3805Y2938D01*
X3785D01*
X3798D02*
X3812Y2925D01*
X3825Y2958D02*
X3832Y2965D01*
X3845D01*
X3852Y2958D01*
Y2952D01*
X3845Y2945D01*
X3838D01*
X3845D01*
X3852Y2938D01*
Y2932D01*
X3845Y2925D01*
X3832D01*
X3825Y2932D01*
X3460Y3595D02*
X3420D01*
Y3615D01*
X3427Y3622D01*
X3440D01*
X3447Y3615D01*
Y3595D01*
Y3608D02*
X3460Y3622D01*
Y3655D02*
X3420D01*
X3440Y3635D01*
Y3662D01*
X4960Y2770D02*
X4920D01*
Y2790D01*
X4927Y2797D01*
X4940D01*
X4947Y2790D01*
Y2770D01*
Y2783D02*
X4960Y2797D01*
X4920Y2837D02*
Y2810D01*
X4940D01*
X4933Y2823D01*
Y2830D01*
X4940Y2837D01*
X4953D01*
X4960Y2830D01*
Y2817D01*
X4953Y2810D01*
X5015Y3090D02*
X4975D01*
Y3110D01*
X4982Y3117D01*
X4995D01*
X5002Y3110D01*
Y3090D01*
Y3103D02*
X5015Y3117D01*
X4975Y3157D02*
X4982Y3143D01*
X4995Y3130D01*
X5008D01*
X5015Y3137D01*
Y3150D01*
X5008Y3157D01*
X5002D01*
X4995Y3150D01*
Y3130D01*
X3645Y3680D02*
Y3720D01*
X3665D01*
X3672Y3713D01*
Y3700D01*
X3665Y3693D01*
X3645D01*
X3658D02*
X3672Y3680D01*
X3685Y3720D02*
X3712D01*
Y3713D01*
X3685Y3687D01*
Y3680D01*
X3635Y3390D02*
Y3430D01*
X3655D01*
X3662Y3423D01*
Y3410D01*
X3655Y3403D01*
X3635D01*
X3648D02*
X3662Y3390D01*
X3675Y3423D02*
X3682Y3430D01*
X3695D01*
X3702Y3423D01*
Y3417D01*
X3695Y3410D01*
X3702Y3403D01*
Y3397D01*
X3695Y3390D01*
X3682D01*
X3675Y3397D01*
Y3403D01*
X3682Y3410D01*
X3675Y3417D01*
Y3423D01*
X3682Y3410D02*
X3695D01*
X4720Y4050D02*
Y4090D01*
X4740D01*
X4747Y4083D01*
Y4070D01*
X4740Y4063D01*
X4720D01*
X4733D02*
X4747Y4050D01*
X4760Y4057D02*
X4767Y4050D01*
X4780D01*
X4787Y4057D01*
Y4083D01*
X4780Y4090D01*
X4767D01*
X4760Y4083D01*
Y4077D01*
X4767Y4070D01*
X4787D01*
X3785Y2975D02*
Y3015D01*
X3805D01*
X3812Y3008D01*
Y2995D01*
X3805Y2988D01*
X3785D01*
X3798D02*
X3812Y2975D01*
X3825D02*
X3838D01*
X3832D01*
Y3015D01*
X3825Y3008D01*
X3858D02*
X3865Y3015D01*
X3878D01*
X3885Y3008D01*
Y2982D01*
X3878Y2975D01*
X3865D01*
X3858Y2982D01*
Y3008D01*
X4670Y3460D02*
Y3500D01*
X4690D01*
X4697Y3493D01*
Y3480D01*
X4690Y3473D01*
X4670D01*
X4683D02*
X4697Y3460D01*
X4710D02*
X4723D01*
X4717D01*
Y3500D01*
X4710Y3493D01*
X4743Y3460D02*
X4757D01*
X4750D01*
Y3500D01*
X4743Y3493D01*
X4235Y1710D02*
X4195D01*
Y1730D01*
X4202Y1737D01*
X4215D01*
X4222Y1730D01*
Y1710D01*
Y1723D02*
X4235Y1737D01*
Y1750D02*
Y1763D01*
Y1757D01*
X4195D01*
X4202Y1750D01*
X4235Y1810D02*
Y1783D01*
X4208Y1810D01*
X4202D01*
X4195Y1803D01*
Y1790D01*
X4202Y1783D01*
X5280Y860D02*
X5240D01*
Y880D01*
X5247Y887D01*
X5260D01*
X5267Y880D01*
Y860D01*
Y873D02*
X5280Y887D01*
Y900D02*
Y913D01*
Y907D01*
X5240D01*
X5247Y900D01*
Y933D02*
X5240Y940D01*
Y953D01*
X5247Y960D01*
X5253D01*
X5260Y953D01*
Y947D01*
Y953D01*
X5267Y960D01*
X5273D01*
X5280Y953D01*
Y940D01*
X5273Y933D01*
X5445Y1090D02*
Y1130D01*
X5465D01*
X5472Y1123D01*
Y1110D01*
X5465Y1103D01*
X5445D01*
X5458D02*
X5472Y1090D01*
X5485D02*
X5498D01*
X5492D01*
Y1130D01*
X5485Y1123D01*
X5538Y1090D02*
Y1130D01*
X5518Y1110D01*
X5545D01*
X5335Y860D02*
X5295D01*
Y880D01*
X5302Y887D01*
X5315D01*
X5322Y880D01*
Y860D01*
Y873D02*
X5335Y887D01*
Y900D02*
Y913D01*
Y907D01*
X5295D01*
X5302Y900D01*
X5295Y960D02*
Y933D01*
X5315D01*
X5308Y947D01*
Y953D01*
X5315Y960D01*
X5328D01*
X5335Y953D01*
Y940D01*
X5328Y933D01*
X4135Y1540D02*
Y1580D01*
X4155D01*
X4162Y1573D01*
Y1560D01*
X4155Y1553D01*
X4135D01*
X4148D02*
X4162Y1540D01*
X4175D02*
X4188D01*
X4182D01*
Y1580D01*
X4175Y1573D01*
X4235Y1580D02*
X4222Y1573D01*
X4208Y1560D01*
Y1547D01*
X4215Y1540D01*
X4228D01*
X4235Y1547D01*
Y1553D01*
X4228Y1560D01*
X4208D01*
X4720Y4000D02*
Y4040D01*
X4740D01*
X4747Y4033D01*
Y4020D01*
X4740Y4013D01*
X4720D01*
X4733D02*
X4747Y4000D01*
X4760D02*
X4773D01*
X4767D01*
Y4040D01*
X4760Y4033D01*
X4793Y4040D02*
X4820D01*
Y4033D01*
X4793Y4007D01*
Y4000D01*
X5330Y1020D02*
Y1060D01*
X5350D01*
X5357Y1053D01*
Y1040D01*
X5350Y1033D01*
X5330D01*
X5343D02*
X5357Y1020D01*
X5370D02*
X5383D01*
X5377D01*
Y1060D01*
X5370Y1053D01*
X5403D02*
X5410Y1060D01*
X5423D01*
X5430Y1053D01*
Y1047D01*
X5423Y1040D01*
X5430Y1033D01*
Y1027D01*
X5423Y1020D01*
X5410D01*
X5403Y1027D01*
Y1033D01*
X5410Y1040D01*
X5403Y1047D01*
Y1053D01*
X5410Y1040D02*
X5423D01*
X2915Y1005D02*
X2875D01*
Y1025D01*
X2882Y1032D01*
X2895D01*
X2902Y1025D01*
Y1005D01*
Y1018D02*
X2915Y1032D01*
Y1045D02*
Y1058D01*
Y1052D01*
X2875D01*
X2882Y1045D01*
X2908Y1078D02*
X2915Y1085D01*
Y1098D01*
X2908Y1105D01*
X2882D01*
X2875Y1098D01*
Y1085D01*
X2882Y1078D01*
X2888D01*
X2895Y1085D01*
Y1105D01*
X2990Y1005D02*
X2950D01*
Y1025D01*
X2957Y1032D01*
X2970D01*
X2977Y1025D01*
Y1005D01*
Y1018D02*
X2990Y1032D01*
Y1072D02*
Y1045D01*
X2963Y1072D01*
X2957D01*
X2950Y1065D01*
Y1052D01*
X2957Y1045D01*
Y1085D02*
X2950Y1092D01*
Y1105D01*
X2957Y1112D01*
X2983D01*
X2990Y1105D01*
Y1092D01*
X2983Y1085D01*
X2957D01*
X4115Y1630D02*
X4075D01*
Y1650D01*
X4082Y1657D01*
X4095D01*
X4102Y1650D01*
Y1630D01*
Y1643D02*
X4115Y1657D01*
Y1697D02*
Y1670D01*
X4088Y1697D01*
X4082D01*
X4075Y1690D01*
Y1677D01*
X4082Y1670D01*
X4115Y1710D02*
Y1723D01*
Y1717D01*
X4075D01*
X4082Y1710D01*
X4560Y3175D02*
Y3215D01*
X4580D01*
X4587Y3208D01*
Y3195D01*
X4580Y3188D01*
X4560D01*
X4573D02*
X4587Y3175D01*
X4627D02*
X4600D01*
X4627Y3202D01*
Y3208D01*
X4620Y3215D01*
X4607D01*
X4600Y3208D01*
X4667Y3175D02*
X4640D01*
X4667Y3202D01*
Y3208D01*
X4660Y3215D01*
X4647D01*
X4640Y3208D01*
X3670Y1035D02*
X3630D01*
Y1055D01*
X3637Y1062D01*
X3650D01*
X3657Y1055D01*
Y1035D01*
Y1048D02*
X3670Y1062D01*
Y1102D02*
Y1075D01*
X3643Y1102D01*
X3637D01*
X3630Y1095D01*
Y1082D01*
X3637Y1075D01*
Y1115D02*
X3630Y1122D01*
Y1135D01*
X3637Y1142D01*
X3643D01*
X3650Y1135D01*
Y1128D01*
Y1135D01*
X3657Y1142D01*
X3663D01*
X3670Y1135D01*
Y1122D01*
X3663Y1115D01*
X5170Y1325D02*
X5130D01*
Y1345D01*
X5137Y1352D01*
X5150D01*
X5157Y1345D01*
Y1325D01*
Y1338D02*
X5170Y1352D01*
Y1392D02*
Y1365D01*
X5143Y1392D01*
X5137D01*
X5130Y1385D01*
Y1372D01*
X5137Y1365D01*
X5170Y1425D02*
X5130D01*
X5150Y1405D01*
Y1432D01*
X1195Y3680D02*
Y3720D01*
X1215D01*
X1222Y3713D01*
Y3700D01*
X1215Y3693D01*
X1195D01*
X1208D02*
X1222Y3680D01*
X1262D02*
X1235D01*
X1262Y3707D01*
Y3713D01*
X1255Y3720D01*
X1242D01*
X1235Y3713D01*
X1302Y3720D02*
X1275D01*
Y3700D01*
X1288Y3707D01*
X1295D01*
X1302Y3700D01*
Y3687D01*
X1295Y3680D01*
X1282D01*
X1275Y3687D01*
X1285Y2775D02*
Y2815D01*
X1305D01*
X1312Y2808D01*
Y2795D01*
X1305Y2788D01*
X1285D01*
X1298D02*
X1312Y2775D01*
X1352D02*
X1325D01*
X1352Y2802D01*
Y2808D01*
X1345Y2815D01*
X1332D01*
X1325Y2808D01*
X1392Y2815D02*
X1378Y2808D01*
X1365Y2795D01*
Y2782D01*
X1372Y2775D01*
X1385D01*
X1392Y2782D01*
Y2788D01*
X1385Y2795D01*
X1365D01*
X2335Y4045D02*
Y4085D01*
X2355D01*
X2362Y4078D01*
Y4065D01*
X2355Y4058D01*
X2335D01*
X2348D02*
X2362Y4045D01*
X2402D02*
X2375D01*
X2402Y4072D01*
Y4078D01*
X2395Y4085D01*
X2382D01*
X2375Y4078D01*
X2415Y4085D02*
X2442D01*
Y4078D01*
X2415Y4052D01*
Y4045D01*
X2330Y3100D02*
Y3140D01*
X2350D01*
X2357Y3133D01*
Y3120D01*
X2350Y3113D01*
X2330D01*
X2343D02*
X2357Y3100D01*
X2397D02*
X2370D01*
X2397Y3127D01*
Y3133D01*
X2390Y3140D01*
X2377D01*
X2370Y3133D01*
X2410D02*
X2417Y3140D01*
X2430D01*
X2437Y3133D01*
Y3127D01*
X2430Y3120D01*
X2437Y3113D01*
Y3107D01*
X2430Y3100D01*
X2417D01*
X2410Y3107D01*
Y3113D01*
X2417Y3120D01*
X2410Y3127D01*
Y3133D01*
X2417Y3120D02*
X2430D01*
X4145Y2715D02*
X4105D01*
Y2735D01*
X4112Y2742D01*
X4125D01*
X4132Y2735D01*
Y2715D01*
Y2728D02*
X4145Y2742D01*
Y2782D02*
Y2755D01*
X4118Y2782D01*
X4112D01*
X4105Y2775D01*
Y2762D01*
X4112Y2755D01*
X4138Y2795D02*
X4145Y2802D01*
Y2815D01*
X4138Y2822D01*
X4112D01*
X4105Y2815D01*
Y2802D01*
X4112Y2795D01*
X4118D01*
X4125Y2802D01*
Y2822D01*
X5190Y2345D02*
X5150D01*
Y2365D01*
X5157Y2372D01*
X5170D01*
X5177Y2365D01*
Y2345D01*
Y2358D02*
X5190Y2372D01*
X5157Y2385D02*
X5150Y2392D01*
Y2405D01*
X5157Y2412D01*
X5163D01*
X5170Y2405D01*
Y2398D01*
Y2405D01*
X5177Y2412D01*
X5183D01*
X5190Y2405D01*
Y2392D01*
X5183Y2385D01*
X5157Y2425D02*
X5150Y2432D01*
Y2445D01*
X5157Y2452D01*
X5183D01*
X5190Y2445D01*
Y2432D01*
X5183Y2425D01*
X5157D01*
X5380Y2565D02*
X5340D01*
Y2585D01*
X5347Y2592D01*
X5360D01*
X5367Y2585D01*
Y2565D01*
Y2578D02*
X5380Y2592D01*
X5347Y2605D02*
X5340Y2612D01*
Y2625D01*
X5347Y2632D01*
X5353D01*
X5360Y2625D01*
Y2618D01*
Y2625D01*
X5367Y2632D01*
X5373D01*
X5380Y2625D01*
Y2612D01*
X5373Y2605D01*
X5380Y2645D02*
Y2658D01*
Y2652D01*
X5340D01*
X5347Y2645D01*
X5495Y2290D02*
X5455D01*
Y2310D01*
X5462Y2317D01*
X5475D01*
X5482Y2310D01*
Y2290D01*
Y2303D02*
X5495Y2317D01*
X5462Y2330D02*
X5455Y2337D01*
Y2350D01*
X5462Y2357D01*
X5468D01*
X5475Y2350D01*
Y2343D01*
Y2350D01*
X5482Y2357D01*
X5488D01*
X5495Y2350D01*
Y2337D01*
X5488Y2330D01*
X5495Y2397D02*
Y2370D01*
X5468Y2397D01*
X5462D01*
X5455Y2390D01*
Y2377D01*
X5462Y2370D01*
X270Y2810D02*
X230D01*
Y2830D01*
X237Y2837D01*
X250D01*
X257Y2830D01*
Y2810D01*
Y2823D02*
X270Y2837D01*
X237Y2850D02*
X230Y2857D01*
Y2870D01*
X237Y2877D01*
X243D01*
X250Y2870D01*
Y2863D01*
Y2870D01*
X257Y2877D01*
X263D01*
X270Y2870D01*
Y2857D01*
X263Y2850D01*
X237Y2890D02*
X230Y2897D01*
Y2910D01*
X237Y2917D01*
X243D01*
X250Y2910D01*
Y2903D01*
Y2910D01*
X257Y2917D01*
X263D01*
X270Y2910D01*
Y2897D01*
X263Y2890D01*
X415Y2645D02*
Y2685D01*
X435D01*
X442Y2678D01*
Y2665D01*
X435Y2658D01*
X415D01*
X428D02*
X442Y2645D01*
X455Y2678D02*
X462Y2685D01*
X475D01*
X482Y2678D01*
Y2672D01*
X475Y2665D01*
X468D01*
X475D01*
X482Y2658D01*
Y2652D01*
X475Y2645D01*
X462D01*
X455Y2652D01*
X515Y2645D02*
Y2685D01*
X495Y2665D01*
X522D01*
X685Y2805D02*
X645D01*
Y2825D01*
X652Y2832D01*
X665D01*
X672Y2825D01*
Y2805D01*
Y2818D02*
X685Y2832D01*
X652Y2845D02*
X645Y2852D01*
Y2865D01*
X652Y2872D01*
X658D01*
X665Y2865D01*
Y2858D01*
Y2865D01*
X672Y2872D01*
X678D01*
X685Y2865D01*
Y2852D01*
X678Y2845D01*
X645Y2912D02*
Y2885D01*
X665D01*
X658Y2898D01*
Y2905D01*
X665Y2912D01*
X678D01*
X685Y2905D01*
Y2892D01*
X678Y2885D01*
X655Y3600D02*
X615D01*
Y3620D01*
X622Y3627D01*
X635D01*
X642Y3620D01*
Y3600D01*
Y3613D02*
X655Y3627D01*
X622Y3640D02*
X615Y3647D01*
Y3660D01*
X622Y3667D01*
X628D01*
X635Y3660D01*
Y3653D01*
Y3660D01*
X642Y3667D01*
X648D01*
X655Y3660D01*
Y3647D01*
X648Y3640D01*
X615Y3707D02*
X622Y3693D01*
X635Y3680D01*
X648D01*
X655Y3687D01*
Y3700D01*
X648Y3707D01*
X642D01*
X635Y3700D01*
Y3680D01*
X535Y3600D02*
X495D01*
Y3620D01*
X502Y3627D01*
X515D01*
X522Y3620D01*
Y3600D01*
Y3613D02*
X535Y3627D01*
X502Y3640D02*
X495Y3647D01*
Y3660D01*
X502Y3667D01*
X508D01*
X515Y3660D01*
Y3653D01*
Y3660D01*
X522Y3667D01*
X528D01*
X535Y3660D01*
Y3647D01*
X528Y3640D01*
X495Y3680D02*
Y3707D01*
X502D01*
X528Y3680D01*
X535D01*
X410Y3600D02*
X370D01*
Y3620D01*
X377Y3627D01*
X390D01*
X397Y3620D01*
Y3600D01*
Y3613D02*
X410Y3627D01*
X377Y3640D02*
X370Y3647D01*
Y3660D01*
X377Y3667D01*
X383D01*
X390Y3660D01*
Y3653D01*
Y3660D01*
X397Y3667D01*
X403D01*
X410Y3660D01*
Y3647D01*
X403Y3640D01*
X377Y3680D02*
X370Y3687D01*
Y3700D01*
X377Y3707D01*
X383D01*
X390Y3700D01*
X397Y3707D01*
X403D01*
X410Y3700D01*
Y3687D01*
X403Y3680D01*
X397D01*
X390Y3687D01*
X383Y3680D01*
X377D01*
X390Y3687D02*
Y3700D01*
X5490Y2415D02*
X5450D01*
Y2435D01*
X5457Y2442D01*
X5470D01*
X5477Y2435D01*
Y2415D01*
Y2428D02*
X5490Y2442D01*
X5457Y2455D02*
X5450Y2462D01*
Y2475D01*
X5457Y2482D01*
X5463D01*
X5470Y2475D01*
Y2468D01*
Y2475D01*
X5477Y2482D01*
X5483D01*
X5490Y2475D01*
Y2462D01*
X5483Y2455D01*
Y2495D02*
X5490Y2502D01*
Y2515D01*
X5483Y2522D01*
X5457D01*
X5450Y2515D01*
Y2502D01*
X5457Y2495D01*
X5463D01*
X5470Y2502D01*
Y2522D01*
X5430Y2415D02*
X5390D01*
Y2435D01*
X5397Y2442D01*
X5410D01*
X5417Y2435D01*
Y2415D01*
Y2428D02*
X5430Y2442D01*
Y2475D02*
X5390D01*
X5410Y2455D01*
Y2482D01*
X5397Y2495D02*
X5390Y2502D01*
Y2515D01*
X5397Y2522D01*
X5423D01*
X5430Y2515D01*
Y2502D01*
X5423Y2495D01*
X5397D01*
X4115Y1475D02*
X4075D01*
Y1495D01*
X4082Y1502D01*
X4095D01*
X4102Y1495D01*
Y1475D01*
Y1488D02*
X4115Y1502D01*
Y1535D02*
X4075D01*
X4095Y1515D01*
Y1542D01*
X4115Y1555D02*
Y1568D01*
Y1562D01*
X4075D01*
X4082Y1555D01*
X3885Y1365D02*
X3845D01*
Y1385D01*
X3852Y1392D01*
X3865D01*
X3872Y1385D01*
Y1365D01*
Y1378D02*
X3885Y1392D01*
Y1425D02*
X3845D01*
X3865Y1405D01*
Y1432D01*
X3885Y1472D02*
Y1445D01*
X3858Y1472D01*
X3852D01*
X3845Y1465D01*
Y1452D01*
X3852Y1445D01*
X3415Y2340D02*
X3375D01*
Y2360D01*
X3382Y2367D01*
X3395D01*
X3402Y2360D01*
Y2340D01*
Y2353D02*
X3415Y2367D01*
Y2400D02*
X3375D01*
X3395Y2380D01*
Y2407D01*
X3382Y2420D02*
X3375Y2427D01*
Y2440D01*
X3382Y2447D01*
X3388D01*
X3395Y2440D01*
Y2433D01*
Y2440D01*
X3402Y2447D01*
X3408D01*
X3415Y2440D01*
Y2427D01*
X3408Y2420D01*
X1070Y2180D02*
Y2220D01*
X1090D01*
X1097Y2213D01*
Y2200D01*
X1090Y2193D01*
X1070D01*
X1083D02*
X1097Y2180D01*
X1130D02*
Y2220D01*
X1110Y2200D01*
X1137D01*
X1170Y2180D02*
Y2220D01*
X1150Y2200D01*
X1177D01*
X970Y2800D02*
Y2840D01*
X990D01*
X997Y2833D01*
Y2820D01*
X990Y2813D01*
X970D01*
X983D02*
X997Y2800D01*
X1030D02*
Y2840D01*
X1010Y2820D01*
X1037D01*
X1077Y2840D02*
X1050D01*
Y2820D01*
X1063Y2827D01*
X1070D01*
X1077Y2820D01*
Y2807D01*
X1070Y2800D01*
X1057D01*
X1050Y2807D01*
X780Y2800D02*
Y2840D01*
X800D01*
X807Y2833D01*
Y2820D01*
X800Y2813D01*
X780D01*
X793D02*
X807Y2800D01*
X840D02*
Y2840D01*
X820Y2820D01*
X847D01*
X887Y2840D02*
X873Y2833D01*
X860Y2820D01*
Y2807D01*
X867Y2800D01*
X880D01*
X887Y2807D01*
Y2813D01*
X880Y2820D01*
X860D01*
X785Y2135D02*
Y2175D01*
X805D01*
X812Y2168D01*
Y2155D01*
X805Y2148D01*
X785D01*
X798D02*
X812Y2135D01*
X845D02*
Y2175D01*
X825Y2155D01*
X851D01*
X865Y2175D02*
X891D01*
Y2168D01*
X865Y2142D01*
Y2135D01*
X1630Y1650D02*
Y1690D01*
X1650D01*
X1657Y1683D01*
Y1670D01*
X1650Y1663D01*
X1630D01*
X1643D02*
X1657Y1650D01*
X1690D02*
Y1690D01*
X1670Y1670D01*
X1697D01*
X1710Y1683D02*
X1717Y1690D01*
X1730D01*
X1737Y1683D01*
Y1677D01*
X1730Y1670D01*
X1737Y1663D01*
Y1657D01*
X1730Y1650D01*
X1717D01*
X1710Y1657D01*
Y1663D01*
X1717Y1670D01*
X1710Y1677D01*
Y1683D01*
X1717Y1670D02*
X1730D01*
X1480Y1650D02*
Y1690D01*
X1500D01*
X1507Y1683D01*
Y1670D01*
X1500Y1663D01*
X1480D01*
X1493D02*
X1507Y1650D01*
X1540D02*
Y1690D01*
X1520Y1670D01*
X1547D01*
X1560Y1657D02*
X1567Y1650D01*
X1580D01*
X1587Y1657D01*
Y1683D01*
X1580Y1690D01*
X1567D01*
X1560Y1683D01*
Y1677D01*
X1567Y1670D01*
X1587D01*
X1170Y1090D02*
Y1130D01*
X1190D01*
X1197Y1123D01*
Y1110D01*
X1190Y1103D01*
X1170D01*
X1183D02*
X1197Y1090D01*
X1237Y1130D02*
X1210D01*
Y1110D01*
X1223Y1117D01*
X1230D01*
X1237Y1110D01*
Y1097D01*
X1230Y1090D01*
X1217D01*
X1210Y1097D01*
X1250Y1123D02*
X1257Y1130D01*
X1270D01*
X1277Y1123D01*
Y1097D01*
X1270Y1090D01*
X1257D01*
X1250Y1097D01*
Y1123D01*
X1505Y1095D02*
Y1135D01*
X1525D01*
X1532Y1128D01*
Y1115D01*
X1525Y1108D01*
X1505D01*
X1518D02*
X1532Y1095D01*
X1572Y1135D02*
X1545D01*
Y1115D01*
X1558Y1122D01*
X1565D01*
X1572Y1115D01*
Y1102D01*
X1565Y1095D01*
X1552D01*
X1545Y1102D01*
X1585Y1095D02*
X1598D01*
X1592D01*
Y1135D01*
X1585Y1128D01*
X1470Y985D02*
Y1025D01*
X1490D01*
X1497Y1018D01*
Y1005D01*
X1490Y998D01*
X1470D01*
X1483D02*
X1497Y985D01*
X1537Y1025D02*
X1510D01*
Y1005D01*
X1523Y1012D01*
X1530D01*
X1537Y1005D01*
Y992D01*
X1530Y985D01*
X1517D01*
X1510Y992D01*
X1577Y985D02*
X1550D01*
X1577Y1012D01*
Y1018D01*
X1570Y1025D01*
X1557D01*
X1550Y1018D01*
X1635Y1095D02*
Y1135D01*
X1655D01*
X1662Y1128D01*
Y1115D01*
X1655Y1108D01*
X1635D01*
X1648D02*
X1662Y1095D01*
X1702Y1135D02*
X1675D01*
Y1115D01*
X1688Y1122D01*
X1695D01*
X1702Y1115D01*
Y1102D01*
X1695Y1095D01*
X1682D01*
X1675Y1102D01*
X1715Y1128D02*
X1722Y1135D01*
X1735D01*
X1742Y1128D01*
Y1122D01*
X1735Y1115D01*
X1728D01*
X1735D01*
X1742Y1108D01*
Y1102D01*
X1735Y1095D01*
X1722D01*
X1715Y1102D01*
X2015Y1100D02*
Y1140D01*
X2035D01*
X2042Y1133D01*
Y1120D01*
X2035Y1113D01*
X2015D01*
X2028D02*
X2042Y1100D01*
X2082Y1140D02*
X2055D01*
Y1120D01*
X2068Y1127D01*
X2075D01*
X2082Y1120D01*
Y1107D01*
X2075Y1100D01*
X2062D01*
X2055Y1107D01*
X2115Y1100D02*
Y1140D01*
X2095Y1120D01*
X2122D01*
X1725Y980D02*
Y1020D01*
X1745D01*
X1752Y1013D01*
Y1000D01*
X1745Y993D01*
X1725D01*
X1738D02*
X1752Y980D01*
X1792Y1020D02*
X1765D01*
Y1000D01*
X1778Y1007D01*
X1785D01*
X1792Y1000D01*
Y987D01*
X1785Y980D01*
X1772D01*
X1765Y987D01*
X1832Y1020D02*
X1805D01*
Y1000D01*
X1818Y1007D01*
X1825D01*
X1832Y1000D01*
Y987D01*
X1825Y980D01*
X1812D01*
X1805Y987D01*
X5120Y1570D02*
X5080D01*
Y1590D01*
X5087Y1597D01*
X5100D01*
X5107Y1590D01*
Y1570D01*
Y1583D02*
X5120Y1597D01*
X5080Y1637D02*
Y1610D01*
X5100D01*
X5093Y1623D01*
Y1630D01*
X5100Y1637D01*
X5113D01*
X5120Y1630D01*
Y1617D01*
X5113Y1610D01*
X5080Y1677D02*
X5087Y1663D01*
X5100Y1650D01*
X5113D01*
X5120Y1657D01*
Y1670D01*
X5113Y1677D01*
X5107D01*
X5100Y1670D01*
Y1650D01*
X4100Y2115D02*
Y2155D01*
X4120D01*
X4127Y2148D01*
Y2135D01*
X4120Y2128D01*
X4100D01*
X4113D02*
X4127Y2115D01*
X4167Y2155D02*
X4140D01*
Y2135D01*
X4153Y2142D01*
X4160D01*
X4167Y2135D01*
Y2122D01*
X4160Y2115D01*
X4147D01*
X4140Y2122D01*
X4180Y2155D02*
X4207D01*
Y2148D01*
X4180Y2122D01*
Y2115D01*
X4275Y1845D02*
X4235D01*
Y1865D01*
X4242Y1872D01*
X4255D01*
X4262Y1865D01*
Y1845D01*
Y1858D02*
X4275Y1872D01*
X4235Y1912D02*
Y1885D01*
X4255D01*
X4248Y1898D01*
Y1905D01*
X4255Y1912D01*
X4268D01*
X4275Y1905D01*
Y1892D01*
X4268Y1885D01*
X4242Y1925D02*
X4235Y1932D01*
Y1945D01*
X4242Y1952D01*
X4248D01*
X4255Y1945D01*
X4262Y1952D01*
X4268D01*
X4275Y1945D01*
Y1932D01*
X4268Y1925D01*
X4262D01*
X4255Y1932D01*
X4248Y1925D01*
X4242D01*
X4255Y1932D02*
Y1945D01*
X4850Y3305D02*
X4810D01*
Y3325D01*
X4817Y3332D01*
X4830D01*
X4837Y3325D01*
Y3305D01*
Y3318D02*
X4850Y3332D01*
Y3345D02*
X4810D01*
X4850Y3372D01*
X4810D01*
X4817Y3385D02*
X4810Y3392D01*
Y3405D01*
X4817Y3412D01*
X4823D01*
X4830Y3405D01*
Y3398D01*
Y3405D01*
X4837Y3412D01*
X4843D01*
X4850Y3405D01*
Y3392D01*
X4843Y3385D01*
X5255Y3410D02*
Y3450D01*
X5275D01*
X5282Y3443D01*
Y3430D01*
X5275Y3423D01*
X5255D01*
X5268D02*
X5282Y3410D01*
X5295D02*
Y3450D01*
X5322Y3410D01*
Y3450D01*
X5355Y3410D02*
Y3450D01*
X5335Y3430D01*
X5362D01*
X5420Y1885D02*
Y1925D01*
X5440D01*
X5447Y1918D01*
Y1905D01*
X5440Y1898D01*
X5420D01*
X5433D02*
X5447Y1885D01*
X5460D02*
Y1925D01*
X5487Y1885D01*
Y1925D01*
X5527D02*
X5500D01*
Y1905D01*
X5513Y1912D01*
X5520D01*
X5527Y1905D01*
Y1892D01*
X5520Y1885D01*
X5507D01*
X5500Y1892D01*
X5000Y2510D02*
Y2477D01*
X5007Y2470D01*
X5020D01*
X5027Y2477D01*
Y2510D01*
X5067Y2470D02*
X5040D01*
X5067Y2497D01*
Y2503D01*
X5060Y2510D01*
X5047D01*
X5040Y2503D01*
X5080Y2477D02*
X5087Y2470D01*
X5100D01*
X5107Y2477D01*
Y2503D01*
X5100Y2510D01*
X5087D01*
X5080Y2503D01*
Y2497D01*
X5087Y2490D01*
X5107D01*
X4680Y840D02*
Y800D01*
X4707D01*
X4747Y840D02*
X4733Y833D01*
X4720Y820D01*
Y807D01*
X4727Y800D01*
X4740D01*
X4747Y807D01*
Y813D01*
X4740Y820D01*
X4720D01*
X4695Y4265D02*
X4722D01*
X4708D01*
Y4225D01*
X4735D02*
Y4265D01*
X4755D01*
X4762Y4258D01*
Y4245D01*
X4755Y4238D01*
X4735D01*
X4775Y4225D02*
X4788D01*
X4782D01*
Y4265D01*
X4775Y4258D01*
X1215Y2310D02*
X1242D01*
X1228D01*
Y2270D01*
X1255D02*
Y2310D01*
X1275D01*
X1282Y2303D01*
Y2290D01*
X1275Y2283D01*
X1255D01*
X1322Y2270D02*
X1295D01*
X1322Y2297D01*
Y2303D01*
X1315Y2310D01*
X1302D01*
X1295Y2303D01*
X3540Y2660D02*
X3567D01*
X3553D01*
Y2620D01*
X3580D02*
Y2660D01*
X3600D01*
X3607Y2653D01*
Y2640D01*
X3600Y2633D01*
X3580D01*
X3620Y2653D02*
X3627Y2660D01*
X3640D01*
X3647Y2653D01*
Y2647D01*
X3640Y2640D01*
X3633D01*
X3640D01*
X3647Y2633D01*
Y2627D01*
X3640Y2620D01*
X3627D01*
X3620Y2627D01*
X2185Y1535D02*
Y1575D01*
X2205D01*
X2212Y1568D01*
Y1555D01*
X2205Y1548D01*
X2185D01*
X2198D02*
X2212Y1535D01*
X2225D02*
Y1575D01*
X2252Y1535D01*
Y1575D01*
X2265Y1535D02*
X2278D01*
X2272D01*
Y1575D01*
X2265Y1568D01*
X2185Y1480D02*
Y1520D01*
X2205D01*
X2212Y1513D01*
Y1500D01*
X2205Y1493D01*
X2185D01*
X2198D02*
X2212Y1480D01*
X2225D02*
Y1520D01*
X2252Y1480D01*
Y1520D01*
X2292Y1480D02*
X2265D01*
X2292Y1507D01*
Y1513D01*
X2285Y1520D01*
X2272D01*
X2265Y1513D01*
D94*
X575Y3900D02*
D03*
M02*
