%FSLAX23Y23*%
%MOIN*%
G70*
G01*
G75*
G04 Layer_Color=8421504*
%ADD10C,0.040*%
%ADD11R,0.037X0.035*%
%ADD12R,0.037X0.035*%
%ADD13R,0.075X0.020*%
%ADD14R,0.020X0.075*%
%ADD15R,0.330X0.370*%
%ADD16R,0.040X0.160*%
%ADD17R,0.090X0.012*%
%ADD18R,0.012X0.090*%
%ADD19R,0.031X0.060*%
%ADD20R,0.014X0.060*%
%ADD21R,0.030X0.100*%
%ADD22O,0.080X0.024*%
%ADD23O,0.024X0.080*%
%ADD24R,0.070X0.078*%
%ADD25R,0.063X0.063*%
%ADD26R,0.035X0.037*%
%ADD27R,0.035X0.037*%
%ADD28R,0.015X0.100*%
%ADD29O,0.015X0.100*%
%ADD30R,0.098X0.051*%
%ADD31R,0.100X0.052*%
%ADD32R,0.128X0.128*%
%ADD33R,0.020X0.012*%
%ADD34R,0.012X0.020*%
%ADD35R,0.030X0.030*%
%ADD36R,0.085X0.071*%
%ADD37R,0.071X0.085*%
%ADD38R,0.030X0.030*%
%ADD39R,0.125X0.060*%
%ADD40R,0.030X0.037*%
%ADD41R,0.060X0.050*%
%ADD42R,0.037X0.030*%
%ADD43R,0.050X0.060*%
%ADD44R,0.100X0.095*%
%ADD45R,0.060X0.060*%
%ADD46R,0.060X0.125*%
%ADD47R,0.028X0.017*%
%ADD48R,0.095X0.100*%
%ADD49R,0.063X0.063*%
%ADD50R,0.060X0.060*%
%ADD51O,0.071X0.012*%
%ADD52O,0.012X0.071*%
%ADD53R,0.100X0.280*%
%ADD54R,0.045X0.014*%
%ADD55R,0.057X0.022*%
%ADD56R,0.057X0.022*%
%ADD57R,0.022X0.057*%
%ADD58R,0.022X0.057*%
%ADD59C,0.019*%
%ADD60R,1.170X0.780*%
%ADD61C,0.020*%
%ADD62C,0.008*%
%ADD63C,0.006*%
%ADD64C,0.010*%
%ADD65C,0.015*%
%ADD66C,0.010*%
%ADD67C,0.050*%
%ADD68C,0.062*%
%ADD69R,0.062X0.062*%
%ADD70C,0.128*%
%ADD71C,0.236*%
%ADD72C,0.020*%
%ADD73C,0.025*%
%ADD74C,0.040*%
G04:AMPARAMS|DCode=75|XSize=85mil|YSize=85mil|CornerRadius=0mil|HoleSize=0mil|Usage=FLASHONLY|Rotation=0.000|XOffset=0mil|YOffset=0mil|HoleType=Round|Shape=Relief|Width=10mil|Gap=10mil|Entries=4|*
%AMTHD75*
7,0,0,0.085,0.065,0.010,45*
%
%ADD75THD75*%
%ADD76C,0.082*%
%ADD77C,0.132*%
G04:AMPARAMS|DCode=78|XSize=102mil|YSize=102mil|CornerRadius=0mil|HoleSize=0mil|Usage=FLASHONLY|Rotation=0.000|XOffset=0mil|YOffset=0mil|HoleType=Round|Shape=Relief|Width=10mil|Gap=10mil|Entries=4|*
%AMTHD78*
7,0,0,0.102,0.082,0.010,45*
%
%ADD78THD78*%
%ADD79C,0.065*%
G04:AMPARAMS|DCode=80|XSize=178mil|YSize=178mil|CornerRadius=0mil|HoleSize=0mil|Usage=FLASHONLY|Rotation=0.000|XOffset=0mil|YOffset=0mil|HoleType=Round|Shape=Relief|Width=10mil|Gap=10mil|Entries=4|*
%AMTHD80*
7,0,0,0.178,0.158,0.010,45*
%
%ADD80THD80*%
G04:AMPARAMS|DCode=81|XSize=96mil|YSize=96mil|CornerRadius=0mil|HoleSize=0mil|Usage=FLASHONLY|Rotation=0.000|XOffset=0mil|YOffset=0mil|HoleType=Round|Shape=Relief|Width=10mil|Gap=10mil|Entries=4|*
%AMTHD81*
7,0,0,0.096,0.076,0.010,45*
%
%ADD81THD81*%
%ADD82C,0.030*%
%ADD83C,0.035*%
%ADD84C,0.158*%
%ADD85C,0.076*%
%ADD86R,0.016X0.085*%
%ADD87R,0.707X0.020*%
%ADD88C,0.009*%
%ADD89C,0.010*%
%ADD90C,0.012*%
%ADD91C,0.024*%
%ADD92C,0.004*%
%ADD93C,0.008*%
%ADD94C,0.005*%
%ADD95R,0.350X0.200*%
D10*
X1400Y4100D02*
D03*
X3350D02*
D03*
X1400Y2500D02*
D03*
X3350D02*
D03*
X3800Y3100D02*
D03*
X4600Y4100D02*
D03*
X300Y900D02*
D03*
X5700Y140D02*
D03*
X300Y4100D02*
D03*
X2500Y1302D02*
D03*
X3320Y1316D02*
D03*
X2500Y2135D02*
D03*
X5055Y1800D02*
D03*
X4200Y2555D02*
D03*
D11*
X5201Y1537D02*
D03*
X5299Y1500D02*
D03*
X5058Y3898D02*
D03*
X4960Y3935D02*
D03*
D12*
X5201Y1463D02*
D03*
X4960Y3860D02*
D03*
D13*
X2148Y4000D02*
D03*
Y3969D02*
D03*
X1490Y3811D02*
D03*
Y3843D02*
D03*
X2148Y3906D02*
D03*
Y3874D02*
D03*
Y3811D02*
D03*
Y3780D02*
D03*
Y3748D02*
D03*
Y3685D02*
D03*
Y3654D02*
D03*
Y3622D02*
D03*
Y3591D02*
D03*
Y3559D02*
D03*
X1490Y3937D02*
D03*
X2148Y3528D02*
D03*
Y3717D02*
D03*
Y3937D02*
D03*
X1490Y3874D02*
D03*
Y3969D02*
D03*
Y3780D02*
D03*
Y3748D02*
D03*
Y3717D02*
D03*
Y3685D02*
D03*
Y3654D02*
D03*
Y3622D02*
D03*
Y3591D02*
D03*
Y3559D02*
D03*
Y3528D02*
D03*
Y4000D02*
D03*
Y3906D02*
D03*
X2148Y3843D02*
D03*
X2158Y3050D02*
D03*
Y3019D02*
D03*
X1500Y2861D02*
D03*
Y2893D02*
D03*
X2158Y2956D02*
D03*
Y2924D02*
D03*
Y2861D02*
D03*
Y2830D02*
D03*
Y2798D02*
D03*
Y2735D02*
D03*
Y2704D02*
D03*
Y2672D02*
D03*
Y2641D02*
D03*
Y2609D02*
D03*
X1500Y2987D02*
D03*
X2158Y2578D02*
D03*
Y2767D02*
D03*
Y2987D02*
D03*
X1500Y2924D02*
D03*
Y3019D02*
D03*
Y2830D02*
D03*
Y2798D02*
D03*
Y2767D02*
D03*
Y2735D02*
D03*
Y2704D02*
D03*
Y2672D02*
D03*
Y2641D02*
D03*
Y2609D02*
D03*
Y2578D02*
D03*
Y3050D02*
D03*
Y2956D02*
D03*
X2158Y2893D02*
D03*
X3258Y3050D02*
D03*
Y3019D02*
D03*
X2600Y2861D02*
D03*
Y2893D02*
D03*
X3258Y2956D02*
D03*
Y2924D02*
D03*
Y2861D02*
D03*
Y2830D02*
D03*
Y2798D02*
D03*
Y2735D02*
D03*
Y2704D02*
D03*
Y2672D02*
D03*
Y2641D02*
D03*
Y2609D02*
D03*
X2600Y2987D02*
D03*
X3258Y2578D02*
D03*
Y2767D02*
D03*
Y2987D02*
D03*
X2600Y2924D02*
D03*
Y3019D02*
D03*
Y2830D02*
D03*
Y2798D02*
D03*
Y2767D02*
D03*
Y2735D02*
D03*
Y2704D02*
D03*
Y2672D02*
D03*
Y2641D02*
D03*
Y2609D02*
D03*
Y2578D02*
D03*
Y3050D02*
D03*
Y2956D02*
D03*
X3258Y2893D02*
D03*
Y4000D02*
D03*
Y3969D02*
D03*
X2600Y3811D02*
D03*
Y3843D02*
D03*
X3258Y3906D02*
D03*
Y3874D02*
D03*
Y3811D02*
D03*
Y3780D02*
D03*
Y3748D02*
D03*
Y3685D02*
D03*
Y3654D02*
D03*
Y3622D02*
D03*
Y3591D02*
D03*
Y3559D02*
D03*
X2600Y3937D02*
D03*
X3258Y3528D02*
D03*
Y3717D02*
D03*
Y3937D02*
D03*
X2600Y3874D02*
D03*
Y3969D02*
D03*
Y3780D02*
D03*
Y3748D02*
D03*
Y3717D02*
D03*
Y3685D02*
D03*
Y3654D02*
D03*
Y3622D02*
D03*
Y3591D02*
D03*
Y3559D02*
D03*
Y3528D02*
D03*
Y4000D02*
D03*
Y3906D02*
D03*
X3258Y3843D02*
D03*
D14*
X1836Y4093D02*
D03*
X2057Y3436D02*
D03*
X2025D02*
D03*
X1962D02*
D03*
X1931D02*
D03*
X1868D02*
D03*
X1836D02*
D03*
X1647Y4093D02*
D03*
X1805Y3436D02*
D03*
X1899D02*
D03*
X2057Y4093D02*
D03*
X1742D02*
D03*
X1710D02*
D03*
X2025D02*
D03*
X1616D02*
D03*
X1679D02*
D03*
X1584Y3436D02*
D03*
X1616D02*
D03*
X1647D02*
D03*
X1679D02*
D03*
X1710D02*
D03*
X1742D02*
D03*
X1773D02*
D03*
X1899Y4093D02*
D03*
X1805D02*
D03*
X1931D02*
D03*
X1773D02*
D03*
X1962D02*
D03*
X1994D02*
D03*
X1584D02*
D03*
X1994Y3436D02*
D03*
X1868Y4093D02*
D03*
X1846Y3143D02*
D03*
X2067Y2486D02*
D03*
X2035D02*
D03*
X1972D02*
D03*
X1941D02*
D03*
X1878D02*
D03*
X1846D02*
D03*
X1657Y3143D02*
D03*
X1815Y2486D02*
D03*
X1909D02*
D03*
X2067Y3143D02*
D03*
X1752D02*
D03*
X1720D02*
D03*
X2035D02*
D03*
X1626D02*
D03*
X1689D02*
D03*
X1594Y2486D02*
D03*
X1626D02*
D03*
X1657D02*
D03*
X1689D02*
D03*
X1720D02*
D03*
X1752D02*
D03*
X1783D02*
D03*
X1909Y3143D02*
D03*
X1815D02*
D03*
X1941D02*
D03*
X1783D02*
D03*
X1972D02*
D03*
X2004D02*
D03*
X1594D02*
D03*
X2004Y2486D02*
D03*
X1878Y3143D02*
D03*
X2946D02*
D03*
X3167Y2486D02*
D03*
X3135D02*
D03*
X3072D02*
D03*
X3041D02*
D03*
X2978D02*
D03*
X2946D02*
D03*
X2757Y3143D02*
D03*
X2915Y2486D02*
D03*
X3009D02*
D03*
X3167Y3143D02*
D03*
X2852D02*
D03*
X2820D02*
D03*
X3135D02*
D03*
X2726D02*
D03*
X2789D02*
D03*
X2694Y2486D02*
D03*
X2726D02*
D03*
X2757D02*
D03*
X2789D02*
D03*
X2820D02*
D03*
X2852D02*
D03*
X2883D02*
D03*
X3009Y3143D02*
D03*
X2915D02*
D03*
X3041D02*
D03*
X2883D02*
D03*
X3072D02*
D03*
X3104D02*
D03*
X2694D02*
D03*
X3104Y2486D02*
D03*
X2978Y3143D02*
D03*
X2946Y4093D02*
D03*
X3167Y3436D02*
D03*
X3135D02*
D03*
X3072D02*
D03*
X3041D02*
D03*
X2978D02*
D03*
X2946D02*
D03*
X2757Y4093D02*
D03*
X2915Y3436D02*
D03*
X3009D02*
D03*
X3167Y4093D02*
D03*
X2852D02*
D03*
X2820D02*
D03*
X3135D02*
D03*
X2726D02*
D03*
X2789D02*
D03*
X2694Y3436D02*
D03*
X2726D02*
D03*
X2757D02*
D03*
X2789D02*
D03*
X2820D02*
D03*
X2852D02*
D03*
X2883D02*
D03*
X3009Y4093D02*
D03*
X2915D02*
D03*
X3041D02*
D03*
X2883D02*
D03*
X3072D02*
D03*
X3104D02*
D03*
X2694D02*
D03*
X3104Y3436D02*
D03*
X2978Y4093D02*
D03*
D15*
X920Y1260D02*
D03*
X420D02*
D03*
D16*
X849Y1600D02*
D03*
X782D02*
D03*
X916D02*
D03*
X1050D02*
D03*
X983D02*
D03*
X483D02*
D03*
X550D02*
D03*
X416D02*
D03*
X282D02*
D03*
X349D02*
D03*
D17*
X4495Y3220D02*
D03*
Y3279D02*
D03*
Y3318D02*
D03*
Y3338D02*
D03*
Y3358D02*
D03*
Y3377D02*
D03*
Y3417D02*
D03*
Y3476D02*
D03*
Y3496D02*
D03*
Y3515D02*
D03*
Y3771D02*
D03*
Y3791D02*
D03*
Y3811D02*
D03*
Y3870D02*
D03*
Y3948D02*
D03*
X3874Y3929D02*
D03*
Y3870D02*
D03*
Y3437D02*
D03*
Y3299D02*
D03*
Y3909D02*
D03*
Y3377D02*
D03*
Y3358D02*
D03*
Y3338D02*
D03*
Y3318D02*
D03*
X4495Y3614D02*
D03*
Y3633D02*
D03*
Y3653D02*
D03*
Y3673D02*
D03*
Y3692D02*
D03*
X3874Y3220D02*
D03*
X4495Y3437D02*
D03*
X3874Y3614D02*
D03*
Y3535D02*
D03*
Y3515D02*
D03*
Y3496D02*
D03*
Y3555D02*
D03*
Y3850D02*
D03*
Y3830D02*
D03*
X4495Y3456D02*
D03*
Y3594D02*
D03*
Y3732D02*
D03*
Y3259D02*
D03*
X3874Y3948D02*
D03*
Y3653D02*
D03*
Y3397D02*
D03*
X4495Y3751D02*
D03*
X3874Y3594D02*
D03*
X4495Y3397D02*
D03*
X3874Y3417D02*
D03*
X4495Y3889D02*
D03*
X3874Y3240D02*
D03*
Y3574D02*
D03*
Y3476D02*
D03*
Y3456D02*
D03*
X4495Y3830D02*
D03*
Y3850D02*
D03*
X3874Y3811D02*
D03*
Y3791D02*
D03*
Y3771D02*
D03*
Y3751D02*
D03*
Y3732D02*
D03*
Y3712D02*
D03*
Y3692D02*
D03*
Y3673D02*
D03*
X4495Y3909D02*
D03*
Y3929D02*
D03*
Y3299D02*
D03*
Y3555D02*
D03*
Y3574D02*
D03*
X3874Y3259D02*
D03*
X4495Y3535D02*
D03*
Y3240D02*
D03*
Y3712D02*
D03*
X3874Y3889D02*
D03*
Y3633D02*
D03*
Y3279D02*
D03*
D18*
X4372Y4004D02*
D03*
X4214Y3166D02*
D03*
X4234D02*
D03*
X4254D02*
D03*
X4273D02*
D03*
X4391D02*
D03*
X4411D02*
D03*
X4431D02*
D03*
X4332Y4004D02*
D03*
X4313D02*
D03*
X4293D02*
D03*
X4273D02*
D03*
X4136D02*
D03*
X4116D02*
D03*
X4096D02*
D03*
X4076D02*
D03*
X3939Y3166D02*
D03*
X3958D02*
D03*
X3978D02*
D03*
X4293D02*
D03*
X4313D02*
D03*
X4332D02*
D03*
X4352D02*
D03*
X4116D02*
D03*
X4037Y4004D02*
D03*
X4017D02*
D03*
X3998D02*
D03*
X3978D02*
D03*
X3958D02*
D03*
X4195Y3166D02*
D03*
X4372D02*
D03*
X4234Y4004D02*
D03*
X4057D02*
D03*
X4136Y3166D02*
D03*
X3998D02*
D03*
X4037D02*
D03*
X4096D02*
D03*
X4076D02*
D03*
X4431Y4004D02*
D03*
X4155Y3166D02*
D03*
X4411Y4004D02*
D03*
X4155D02*
D03*
X4195D02*
D03*
X4175D02*
D03*
X4214D02*
D03*
X4017Y3166D02*
D03*
X4352Y4004D02*
D03*
X4254D02*
D03*
X3939D02*
D03*
X4175Y3166D02*
D03*
X4391Y4004D02*
D03*
X4057Y3166D02*
D03*
D19*
X3442Y435D02*
D03*
X4182D02*
D03*
X3342D02*
D03*
X2602D02*
D03*
X2502D02*
D03*
X1762D02*
D03*
D20*
X4105Y463D02*
D03*
X4080D02*
D03*
X4055D02*
D03*
X4030D02*
D03*
X4005D02*
D03*
X3980D02*
D03*
X3955D02*
D03*
X3930D02*
D03*
X3905D02*
D03*
X3880D02*
D03*
X3855D02*
D03*
X3830D02*
D03*
X3805D02*
D03*
X3780D02*
D03*
X3755D02*
D03*
X3730D02*
D03*
X3705D02*
D03*
X3680D02*
D03*
X3655D02*
D03*
X3630D02*
D03*
X3605D02*
D03*
X3580D02*
D03*
X3555D02*
D03*
X3530D02*
D03*
X3505D02*
D03*
X3480D02*
D03*
X3265Y462D02*
D03*
X3240D02*
D03*
X3215D02*
D03*
X3190D02*
D03*
X3165D02*
D03*
X3140D02*
D03*
X3115D02*
D03*
X3090D02*
D03*
X3065D02*
D03*
X3040D02*
D03*
X3015D02*
D03*
X2990D02*
D03*
X2965D02*
D03*
X2940D02*
D03*
X2915D02*
D03*
X2890D02*
D03*
X2865D02*
D03*
X2840D02*
D03*
X2815D02*
D03*
X2790D02*
D03*
X2765D02*
D03*
X2740D02*
D03*
X2715D02*
D03*
X2690D02*
D03*
X2665D02*
D03*
X2640D02*
D03*
X2425D02*
D03*
X2400D02*
D03*
X2375D02*
D03*
X2350D02*
D03*
X2325D02*
D03*
X2300D02*
D03*
X2275D02*
D03*
X2250D02*
D03*
X2225D02*
D03*
X2200D02*
D03*
X2175D02*
D03*
X2150D02*
D03*
X2125D02*
D03*
X2100D02*
D03*
X2075D02*
D03*
X2050D02*
D03*
X2025D02*
D03*
X2000D02*
D03*
X1975D02*
D03*
X1950D02*
D03*
X1925D02*
D03*
X1900D02*
D03*
X1875D02*
D03*
X1850D02*
D03*
X1825D02*
D03*
X1800D02*
D03*
D21*
X1508Y453D02*
D03*
X1587D02*
D03*
X4318Y453D02*
D03*
X4397D02*
D03*
D22*
X1921Y1895D02*
D03*
Y2045D02*
D03*
X1701Y2145D02*
D03*
Y1995D02*
D03*
X1921Y1945D02*
D03*
Y1845D02*
D03*
X1701Y2045D02*
D03*
Y1895D02*
D03*
X1921Y1995D02*
D03*
Y2145D02*
D03*
X1701Y2095D02*
D03*
Y1945D02*
D03*
X1921Y2095D02*
D03*
X1701Y1845D02*
D03*
X4130Y1830D02*
D03*
Y1980D02*
D03*
X3910Y2080D02*
D03*
Y1930D02*
D03*
X4130Y1880D02*
D03*
Y1780D02*
D03*
X3910Y1980D02*
D03*
Y1830D02*
D03*
X4130Y1930D02*
D03*
Y2080D02*
D03*
X3910Y2030D02*
D03*
Y1880D02*
D03*
X4130Y2030D02*
D03*
X3910Y1780D02*
D03*
X570Y2350D02*
D03*
Y2500D02*
D03*
X350Y2600D02*
D03*
Y2450D02*
D03*
X570Y2400D02*
D03*
Y2300D02*
D03*
X350Y2500D02*
D03*
Y2350D02*
D03*
X570Y2450D02*
D03*
Y2600D02*
D03*
X350Y2550D02*
D03*
Y2400D02*
D03*
X570Y2550D02*
D03*
X350Y2300D02*
D03*
X1485Y1895D02*
D03*
Y2045D02*
D03*
X1265Y2145D02*
D03*
Y1995D02*
D03*
X1485Y1945D02*
D03*
Y1845D02*
D03*
X1265Y2045D02*
D03*
Y1895D02*
D03*
X1485Y1995D02*
D03*
Y2145D02*
D03*
X1265Y2095D02*
D03*
Y1945D02*
D03*
X1485Y2095D02*
D03*
X1265Y1845D02*
D03*
X4115Y2350D02*
D03*
Y2450D02*
D03*
X3895Y2400D02*
D03*
X4115D02*
D03*
Y2300D02*
D03*
X3895Y2350D02*
D03*
Y2450D02*
D03*
Y2300D02*
D03*
X1050Y2450D02*
D03*
Y2550D02*
D03*
X830Y2500D02*
D03*
X1050D02*
D03*
Y2400D02*
D03*
X830Y2450D02*
D03*
Y2400D02*
D03*
Y2550D02*
D03*
D23*
X855Y3050D02*
D03*
X1005D02*
D03*
X1105Y3270D02*
D03*
X955D02*
D03*
X905Y3050D02*
D03*
X805D02*
D03*
X1005Y3270D02*
D03*
X855D02*
D03*
X955Y3050D02*
D03*
X1105D02*
D03*
X1055Y3270D02*
D03*
X905D02*
D03*
X1055Y3050D02*
D03*
X805Y3270D02*
D03*
X1405Y1550D02*
D03*
X1305D02*
D03*
X1355Y1330D02*
D03*
Y1550D02*
D03*
X1455D02*
D03*
X1405Y1330D02*
D03*
X1305D02*
D03*
X1455D02*
D03*
X1855Y1550D02*
D03*
X1755D02*
D03*
X1805Y1330D02*
D03*
Y1550D02*
D03*
X1905D02*
D03*
X1855Y1330D02*
D03*
X1755D02*
D03*
X1905D02*
D03*
X350Y3050D02*
D03*
X500D02*
D03*
X600Y3270D02*
D03*
X450D02*
D03*
X400Y3050D02*
D03*
X300D02*
D03*
X500Y3270D02*
D03*
X350D02*
D03*
X450Y3050D02*
D03*
X600D02*
D03*
X550Y3270D02*
D03*
X400D02*
D03*
X550Y3050D02*
D03*
X300Y3270D02*
D03*
X5105Y3005D02*
D03*
X5355Y2785D02*
D03*
X5205Y3005D02*
D03*
X5355D02*
D03*
X5405Y2785D02*
D03*
X5255D02*
D03*
X5155Y3005D02*
D03*
X5305D02*
D03*
X5105Y2785D02*
D03*
X5205D02*
D03*
X5255Y3005D02*
D03*
X5405D02*
D03*
X5305Y2785D02*
D03*
X5155D02*
D03*
X5055Y3360D02*
D03*
X5205Y3140D02*
D03*
Y3360D02*
D03*
X5155Y3140D02*
D03*
X5055D02*
D03*
X5105Y3360D02*
D03*
X5155D02*
D03*
X5105Y3140D02*
D03*
X5300Y1680D02*
D03*
X5150Y1900D02*
D03*
Y1680D02*
D03*
X5200Y1900D02*
D03*
X5300D02*
D03*
X5250Y1680D02*
D03*
X5200D02*
D03*
X5250Y1900D02*
D03*
D24*
X4635Y3090D02*
D03*
Y2925D02*
D03*
X4835D02*
D03*
Y3090D02*
D03*
D25*
X3515Y3400D02*
D03*
Y3520D02*
D03*
D26*
X3655Y2845D02*
D03*
X3692Y2938D02*
D03*
D27*
X3730Y2845D02*
D03*
D28*
X5520Y530D02*
D03*
D29*
X5674Y785D02*
D03*
X5571D02*
D03*
X5546Y530D02*
D03*
X5597D02*
D03*
X5674D02*
D03*
X5571D02*
D03*
X5622D02*
D03*
X5648D02*
D03*
X5699Y785D02*
D03*
X5597D02*
D03*
X5648D02*
D03*
X5699Y530D02*
D03*
X5622Y785D02*
D03*
X5546D02*
D03*
X5520D02*
D03*
D30*
X4930Y1130D02*
D03*
D31*
Y1230D02*
D03*
Y1330D02*
D03*
X4587D02*
D03*
Y1230D02*
D03*
Y1130D02*
D03*
D32*
X3810Y1170D02*
D03*
D33*
X3717Y1239D02*
D03*
Y1219D02*
D03*
Y1200D02*
D03*
Y1180D02*
D03*
Y1160D02*
D03*
Y1140D02*
D03*
Y1121D02*
D03*
Y1101D02*
D03*
X3903Y1239D02*
D03*
Y1219D02*
D03*
Y1200D02*
D03*
Y1180D02*
D03*
Y1160D02*
D03*
Y1140D02*
D03*
Y1121D02*
D03*
Y1101D02*
D03*
D34*
X3741Y1077D02*
D03*
X3761D02*
D03*
X3780D02*
D03*
X3800D02*
D03*
X3820D02*
D03*
X3840D02*
D03*
X3859D02*
D03*
X3879D02*
D03*
X3741Y1263D02*
D03*
X3761D02*
D03*
X3780D02*
D03*
X3800D02*
D03*
X3820D02*
D03*
X3840D02*
D03*
X3859D02*
D03*
X3879D02*
D03*
D35*
X2420Y1490D02*
D03*
X2365D02*
D03*
X2410Y2030D02*
D03*
X2355D02*
D03*
X2410Y2175D02*
D03*
X2355D02*
D03*
X3450Y1835D02*
D03*
X3395D02*
D03*
X3450Y1660D02*
D03*
X3395D02*
D03*
X2365Y1555D02*
D03*
X2420D02*
D03*
X2365Y1890D02*
D03*
X2420D02*
D03*
X3395Y1765D02*
D03*
X3450D02*
D03*
X3395Y1900D02*
D03*
X3450D02*
D03*
X3395Y1965D02*
D03*
X3450D02*
D03*
X2285Y1990D02*
D03*
X2230D02*
D03*
X2410Y2095D02*
D03*
X2355D02*
D03*
X3395Y2040D02*
D03*
X3450D02*
D03*
X840Y2635D02*
D03*
X785D02*
D03*
X1210Y2500D02*
D03*
X1155D02*
D03*
X2420Y1820D02*
D03*
X2365D02*
D03*
X2420Y1625D02*
D03*
X2365D02*
D03*
X3780Y2350D02*
D03*
X3725D02*
D03*
X4970Y545D02*
D03*
X4915D02*
D03*
X3612Y1341D02*
D03*
X3667D02*
D03*
X5300Y555D02*
D03*
X5245D02*
D03*
X5385Y1235D02*
D03*
X5440D02*
D03*
X4255Y1120D02*
D03*
X4310D02*
D03*
X5410Y1095D02*
D03*
X5355D02*
D03*
X5280D02*
D03*
X5225D02*
D03*
X4410Y1485D02*
D03*
X4355D02*
D03*
X4220Y1485D02*
D03*
X4275D02*
D03*
X1230Y3015D02*
D03*
X1285D02*
D03*
X2410Y3060D02*
D03*
X2355D02*
D03*
X4960Y3360D02*
D03*
X4905D02*
D03*
X5035Y4175D02*
D03*
X5090D02*
D03*
X4700Y3845D02*
D03*
X4755D02*
D03*
X1230Y2935D02*
D03*
X1285D02*
D03*
X1230Y2865D02*
D03*
X1285D02*
D03*
X2005Y2350D02*
D03*
X1950D02*
D03*
X2415Y2860D02*
D03*
X2360D02*
D03*
X1820Y3270D02*
D03*
X1875D02*
D03*
X2360Y2925D02*
D03*
X2415D02*
D03*
X2360Y2990D02*
D03*
X2415D02*
D03*
X3000Y2350D02*
D03*
X3055D02*
D03*
X2890Y3305D02*
D03*
X2945D02*
D03*
X3625Y3475D02*
D03*
X3680D02*
D03*
Y3540D02*
D03*
X3625D02*
D03*
X4695Y1725D02*
D03*
X4750D02*
D03*
X4760Y3335D02*
D03*
X4705D02*
D03*
X3640Y3215D02*
D03*
X3695D02*
D03*
X1275Y3965D02*
D03*
X1220D02*
D03*
X2365Y4005D02*
D03*
X2420D02*
D03*
X3690Y3150D02*
D03*
X3635D02*
D03*
X4755Y3920D02*
D03*
X4700D02*
D03*
X3635Y3085D02*
D03*
X3690D02*
D03*
X4700Y3535D02*
D03*
X4755D02*
D03*
X5390Y1670D02*
D03*
X5445D02*
D03*
X4705Y3205D02*
D03*
X4760D02*
D03*
X5200Y2055D02*
D03*
X5255D02*
D03*
X1220Y3895D02*
D03*
X1275D02*
D03*
X1220Y3830D02*
D03*
X1275D02*
D03*
X2055Y3315D02*
D03*
X2000D02*
D03*
X2420Y3795D02*
D03*
X2365D02*
D03*
X1815Y4200D02*
D03*
X1870D02*
D03*
X2365Y3865D02*
D03*
X2420D02*
D03*
X2365Y3935D02*
D03*
X2420D02*
D03*
X2920Y4200D02*
D03*
X2975D02*
D03*
X3495Y3875D02*
D03*
X3440D02*
D03*
X3045Y3305D02*
D03*
X3100D02*
D03*
X3995Y4150D02*
D03*
X3940D02*
D03*
X3625Y3875D02*
D03*
X3680D02*
D03*
X3625Y3635D02*
D03*
X3680D02*
D03*
X3640Y3305D02*
D03*
X3695D02*
D03*
X4760Y3270D02*
D03*
X4705D02*
D03*
X4755Y3715D02*
D03*
X4700D02*
D03*
X4410Y4150D02*
D03*
X4355D02*
D03*
X4200Y4150D02*
D03*
X4255D02*
D03*
D36*
X3245Y2240D02*
D03*
X3383D02*
D03*
X4375Y985D02*
D03*
X4237D02*
D03*
X4360Y1360D02*
D03*
X4222D02*
D03*
X4510Y2650D02*
D03*
X4372D02*
D03*
X4820Y1605D02*
D03*
X4958D02*
D03*
X4855Y2640D02*
D03*
X4993D02*
D03*
D37*
X2565Y1050D02*
D03*
Y912D02*
D03*
X3395Y1175D02*
D03*
Y1037D02*
D03*
X2380Y1370D02*
D03*
Y1232D02*
D03*
X3565Y1800D02*
D03*
Y1938D02*
D03*
X4030Y1375D02*
D03*
Y1237D02*
D03*
X730Y1820D02*
D03*
Y1958D02*
D03*
X990Y1820D02*
D03*
Y1958D02*
D03*
X280Y1810D02*
D03*
Y1948D02*
D03*
X550Y1820D02*
D03*
Y1958D02*
D03*
D38*
X2595Y1220D02*
D03*
Y1165D02*
D03*
X2740Y1220D02*
D03*
Y1165D02*
D03*
X2805Y1220D02*
D03*
Y1165D02*
D03*
X3030Y1220D02*
D03*
Y1165D02*
D03*
X3095Y1220D02*
D03*
Y1165D02*
D03*
X3280Y1220D02*
D03*
Y1165D02*
D03*
X3210Y1220D02*
D03*
Y1165D02*
D03*
X3060Y2215D02*
D03*
Y2270D02*
D03*
X3125Y2215D02*
D03*
Y2270D02*
D03*
X2915Y2215D02*
D03*
Y2270D02*
D03*
X2720Y2215D02*
D03*
Y2270D02*
D03*
X2625Y2215D02*
D03*
Y2270D02*
D03*
X2850Y2215D02*
D03*
Y2270D02*
D03*
X2945Y1165D02*
D03*
Y1220D02*
D03*
X2880Y1165D02*
D03*
Y1220D02*
D03*
X3930Y1700D02*
D03*
Y1645D02*
D03*
X1600Y1760D02*
D03*
Y1815D02*
D03*
X1155Y1770D02*
D03*
Y1825D02*
D03*
X1600Y1940D02*
D03*
Y1885D02*
D03*
X4040Y1700D02*
D03*
Y1645D02*
D03*
X5450Y2050D02*
D03*
Y2105D02*
D03*
X2995Y2215D02*
D03*
Y2270D02*
D03*
X2000Y1310D02*
D03*
Y1365D02*
D03*
X4245Y2360D02*
D03*
Y2415D02*
D03*
X5415Y2590D02*
D03*
Y2645D02*
D03*
X1545Y1335D02*
D03*
Y1390D02*
D03*
X230Y2300D02*
D03*
Y2355D02*
D03*
X1155Y1895D02*
D03*
Y1950D02*
D03*
X3900Y915D02*
D03*
Y970D02*
D03*
X850Y1860D02*
D03*
Y1805D02*
D03*
X405Y1865D02*
D03*
Y1810D02*
D03*
X3590Y1170D02*
D03*
Y1225D02*
D03*
X5065Y1200D02*
D03*
Y1255D02*
D03*
Y1065D02*
D03*
Y1120D02*
D03*
X5290Y770D02*
D03*
Y825D02*
D03*
X5220Y770D02*
D03*
Y825D02*
D03*
X5065Y1405D02*
D03*
Y1350D02*
D03*
X4410Y1120D02*
D03*
Y1175D02*
D03*
X5025Y3000D02*
D03*
Y2945D02*
D03*
X4155Y1670D02*
D03*
Y1615D02*
D03*
X4225Y1670D02*
D03*
Y1615D02*
D03*
X5385Y1475D02*
D03*
Y1530D02*
D03*
X5105D02*
D03*
Y1475D02*
D03*
X4245Y2170D02*
D03*
Y2115D02*
D03*
Y2050D02*
D03*
Y1995D02*
D03*
X5255Y2645D02*
D03*
Y2590D02*
D03*
X4245Y2235D02*
D03*
Y2290D02*
D03*
X5300Y2490D02*
D03*
Y2435D02*
D03*
X3930Y1495D02*
D03*
Y1550D02*
D03*
X5230Y2435D02*
D03*
Y2490D02*
D03*
X4020Y1545D02*
D03*
Y1490D02*
D03*
X3400Y2835D02*
D03*
Y2890D02*
D03*
X4655Y2700D02*
D03*
Y2645D02*
D03*
X4730D02*
D03*
Y2700D02*
D03*
X5300Y2370D02*
D03*
Y2315D02*
D03*
X5230D02*
D03*
Y2370D02*
D03*
X4940Y3060D02*
D03*
Y3115D02*
D03*
X4940Y2935D02*
D03*
Y2880D02*
D03*
X5370Y2315D02*
D03*
Y2370D02*
D03*
X4000Y2940D02*
D03*
Y2995D02*
D03*
D39*
X3585Y1650D02*
D03*
Y1465D02*
D03*
X5260Y255D02*
D03*
Y440D02*
D03*
X5105Y3715D02*
D03*
Y3530D02*
D03*
D40*
X2252Y2159D02*
D03*
X2290Y2080D02*
D03*
X2215Y2080D02*
D03*
D41*
X1000Y2740D02*
D03*
X1090D02*
D03*
X855Y2735D02*
D03*
X765D02*
D03*
X880Y2270D02*
D03*
X790D02*
D03*
X1130Y2280D02*
D03*
X1040D02*
D03*
X1910Y1200D02*
D03*
X2000D02*
D03*
X1895Y1690D02*
D03*
X1805D02*
D03*
X1700Y1200D02*
D03*
X1790D02*
D03*
X1900Y1090D02*
D03*
X1810D02*
D03*
X1445Y1200D02*
D03*
X1535D02*
D03*
X1320Y1690D02*
D03*
X1410D02*
D03*
X1240Y1200D02*
D03*
X1330D02*
D03*
X1430Y1090D02*
D03*
X1340D02*
D03*
X4670Y1610D02*
D03*
X4580D02*
D03*
D42*
X2444Y1723D02*
D03*
X2365Y1685D02*
D03*
X2365Y1760D02*
D03*
D43*
X510Y3500D02*
D03*
Y3410D02*
D03*
X395Y3500D02*
D03*
Y3410D02*
D03*
X625Y3500D02*
D03*
Y3410D02*
D03*
X580Y2815D02*
D03*
Y2905D02*
D03*
X465Y2815D02*
D03*
Y2905D02*
D03*
X350Y2815D02*
D03*
Y2905D02*
D03*
X5705Y360D02*
D03*
Y270D02*
D03*
X5415Y570D02*
D03*
Y480D02*
D03*
Y780D02*
D03*
Y690D02*
D03*
X5490Y360D02*
D03*
Y270D02*
D03*
X5595Y360D02*
D03*
Y270D02*
D03*
X3530Y3735D02*
D03*
Y3645D02*
D03*
X4220Y2770D02*
D03*
Y2680D02*
D03*
D44*
X4950Y240D02*
D03*
Y430D02*
D03*
X5090Y240D02*
D03*
Y430D02*
D03*
X1285Y3130D02*
D03*
Y3320D02*
D03*
X4910Y3715D02*
D03*
Y3525D02*
D03*
X1085Y3925D02*
D03*
Y3735D02*
D03*
D45*
X4175Y1215D02*
D03*
X4310D02*
D03*
X5075Y4070D02*
D03*
X4940D02*
D03*
D46*
X5535Y980D02*
D03*
X5720D02*
D03*
D47*
X4892Y3190D02*
D03*
Y3221D02*
D03*
Y3253D02*
D03*
Y3284D02*
D03*
X4960D02*
D03*
Y3253D02*
D03*
Y3221D02*
D03*
Y3190D02*
D03*
X5327Y3255D02*
D03*
Y3286D02*
D03*
Y3318D02*
D03*
Y3349D02*
D03*
X5395D02*
D03*
Y3318D02*
D03*
Y3286D02*
D03*
Y3255D02*
D03*
X5453Y1845D02*
D03*
Y1814D02*
D03*
Y1782D02*
D03*
Y1751D02*
D03*
X5385D02*
D03*
Y1782D02*
D03*
Y1814D02*
D03*
Y1845D02*
D03*
X2290Y1825D02*
D03*
Y1856D02*
D03*
Y1888D02*
D03*
Y1919D02*
D03*
X2222D02*
D03*
Y1888D02*
D03*
Y1856D02*
D03*
Y1825D02*
D03*
X2290Y1660D02*
D03*
Y1691D02*
D03*
Y1723D02*
D03*
Y1754D02*
D03*
X2222D02*
D03*
Y1723D02*
D03*
Y1691D02*
D03*
Y1660D02*
D03*
D48*
X2465Y3230D02*
D03*
X2275D02*
D03*
X2460Y4160D02*
D03*
X2270D02*
D03*
X3490Y4000D02*
D03*
X3680D02*
D03*
D49*
X4360Y2800D02*
D03*
X4480D02*
D03*
D50*
X3535Y3060D02*
D03*
Y2925D02*
D03*
D51*
X5001Y2404D02*
D03*
Y2365D02*
D03*
Y2345D02*
D03*
Y2325D02*
D03*
Y2306D02*
D03*
Y2286D02*
D03*
Y2266D02*
D03*
Y2246D02*
D03*
Y2227D02*
D03*
Y2207D02*
D03*
Y2187D02*
D03*
Y2168D02*
D03*
Y2148D02*
D03*
Y2128D02*
D03*
Y2109D02*
D03*
Y2089D02*
D03*
Y2069D02*
D03*
Y2050D02*
D03*
Y2030D02*
D03*
Y2010D02*
D03*
Y1991D02*
D03*
Y1971D02*
D03*
Y1951D02*
D03*
Y1932D02*
D03*
X4407D02*
D03*
Y1951D02*
D03*
Y1971D02*
D03*
Y1991D02*
D03*
Y2010D02*
D03*
Y2030D02*
D03*
Y2050D02*
D03*
Y2069D02*
D03*
Y2089D02*
D03*
Y2109D02*
D03*
Y2128D02*
D03*
Y2148D02*
D03*
Y2168D02*
D03*
Y2187D02*
D03*
Y2207D02*
D03*
Y2227D02*
D03*
Y2246D02*
D03*
Y2266D02*
D03*
Y2286D02*
D03*
Y2306D02*
D03*
Y2325D02*
D03*
Y2345D02*
D03*
Y2365D02*
D03*
Y2384D02*
D03*
Y2404D02*
D03*
X5001Y2384D02*
D03*
D52*
X4940Y1871D02*
D03*
X4920D02*
D03*
X4901D02*
D03*
X4881D02*
D03*
X4861D02*
D03*
X4842D02*
D03*
X4822D02*
D03*
X4802D02*
D03*
X4783D02*
D03*
X4763D02*
D03*
X4743D02*
D03*
X4723D02*
D03*
X4704D02*
D03*
X4684D02*
D03*
X4664D02*
D03*
X4645D02*
D03*
X4625D02*
D03*
X4605D02*
D03*
X4586D02*
D03*
X4566D02*
D03*
X4546D02*
D03*
X4527D02*
D03*
X4507D02*
D03*
X4487D02*
D03*
X4468D02*
D03*
Y2465D02*
D03*
X4487D02*
D03*
X4507D02*
D03*
X4527D02*
D03*
X4546D02*
D03*
X4566D02*
D03*
X4586D02*
D03*
X4605D02*
D03*
X4625D02*
D03*
X4645D02*
D03*
X4664D02*
D03*
X4684D02*
D03*
X4704D02*
D03*
X4723D02*
D03*
X4743D02*
D03*
X4763D02*
D03*
X4783D02*
D03*
X4802D02*
D03*
X4822D02*
D03*
X4842D02*
D03*
X4861D02*
D03*
X4881D02*
D03*
X4901D02*
D03*
X4920D02*
D03*
X4940D02*
D03*
D53*
X5011Y765D02*
D03*
X4830D02*
D03*
D54*
X5211Y696D02*
D03*
Y670D02*
D03*
Y644D02*
D03*
X5279Y670D02*
D03*
Y644D02*
D03*
X5279Y696D02*
D03*
D55*
X5203Y1237D02*
D03*
D56*
X5203Y1200D02*
D03*
Y1163D02*
D03*
X5287D02*
D03*
Y1237D02*
D03*
D57*
X5307Y2217D02*
D03*
X3488Y3188D02*
D03*
X4298Y1588D02*
D03*
D58*
X5270Y2217D02*
D03*
X5233D02*
D03*
Y2133D02*
D03*
X5307D02*
D03*
X3525Y3188D02*
D03*
X3562D02*
D03*
Y3272D02*
D03*
X3488D02*
D03*
X4335Y1588D02*
D03*
X4372D02*
D03*
Y1672D02*
D03*
X4298D02*
D03*
D59*
X3221Y1424D02*
D03*
X3181D02*
D03*
X3142D02*
D03*
X3102D02*
D03*
X3063D02*
D03*
X3024D02*
D03*
X2984D02*
D03*
X2945D02*
D03*
X2906D02*
D03*
X2866D02*
D03*
X2827D02*
D03*
X2787D02*
D03*
X2748D02*
D03*
X2709D02*
D03*
X2669D02*
D03*
X2630D02*
D03*
X3221Y1464D02*
D03*
X3181D02*
D03*
X3142D02*
D03*
X3102D02*
D03*
X3063D02*
D03*
X3024D02*
D03*
X2984D02*
D03*
X2945D02*
D03*
X2906D02*
D03*
X2866D02*
D03*
X2827D02*
D03*
X2787D02*
D03*
X2748D02*
D03*
X2709D02*
D03*
X2669D02*
D03*
X2630D02*
D03*
X3221Y1503D02*
D03*
X3181D02*
D03*
X3142D02*
D03*
X3102D02*
D03*
X3063D02*
D03*
X3024D02*
D03*
X2984D02*
D03*
X2945D02*
D03*
X2906D02*
D03*
X2866D02*
D03*
X2827D02*
D03*
X2787D02*
D03*
X2748D02*
D03*
X2709D02*
D03*
X2669D02*
D03*
X2630D02*
D03*
X3221Y1543D02*
D03*
X3181D02*
D03*
X3142D02*
D03*
X3102D02*
D03*
X3063D02*
D03*
X3024D02*
D03*
X2984D02*
D03*
X2945D02*
D03*
X2906D02*
D03*
X2866D02*
D03*
X2827D02*
D03*
X2787D02*
D03*
X2748D02*
D03*
X2709D02*
D03*
X2669D02*
D03*
X2630D02*
D03*
X3221Y1582D02*
D03*
X3181D02*
D03*
X3142D02*
D03*
X3102D02*
D03*
X3063D02*
D03*
X3024D02*
D03*
X2984D02*
D03*
X2945D02*
D03*
X2906D02*
D03*
X2866D02*
D03*
X2827D02*
D03*
X2787D02*
D03*
X2748D02*
D03*
X2709D02*
D03*
X2669D02*
D03*
X2630D02*
D03*
X3221Y1621D02*
D03*
X3181D02*
D03*
X3142D02*
D03*
X3102D02*
D03*
X3063D02*
D03*
X3024D02*
D03*
X2984D02*
D03*
X2945D02*
D03*
X2906D02*
D03*
X2866D02*
D03*
X2827D02*
D03*
X2787D02*
D03*
X2748D02*
D03*
X2709D02*
D03*
X2669D02*
D03*
X2630D02*
D03*
X3221Y1661D02*
D03*
X3181D02*
D03*
X3142D02*
D03*
X3102D02*
D03*
X3063D02*
D03*
X3024D02*
D03*
X2984D02*
D03*
X2945D02*
D03*
X2906D02*
D03*
X2866D02*
D03*
X2827D02*
D03*
X2787D02*
D03*
X2748D02*
D03*
X2709D02*
D03*
X2669D02*
D03*
X2630D02*
D03*
X3221Y1700D02*
D03*
X3181D02*
D03*
X3142D02*
D03*
X3102D02*
D03*
X3063D02*
D03*
X3024D02*
D03*
X2984D02*
D03*
X2945D02*
D03*
X2906D02*
D03*
X2866D02*
D03*
X2827D02*
D03*
X2787D02*
D03*
X2748D02*
D03*
X2709D02*
D03*
X2669D02*
D03*
X2630D02*
D03*
X3221Y1739D02*
D03*
X3181D02*
D03*
X3142D02*
D03*
X3102D02*
D03*
X3063D02*
D03*
X3024D02*
D03*
X2984D02*
D03*
X2945D02*
D03*
X2906D02*
D03*
X2866D02*
D03*
X2827D02*
D03*
X2787D02*
D03*
X2748D02*
D03*
X2709D02*
D03*
X2669D02*
D03*
X2630D02*
D03*
X3221Y1779D02*
D03*
X3181D02*
D03*
X3142D02*
D03*
X3102D02*
D03*
X3063D02*
D03*
X3024D02*
D03*
X2984D02*
D03*
X2945D02*
D03*
X2906D02*
D03*
X2866D02*
D03*
X2827D02*
D03*
X2787D02*
D03*
X2748D02*
D03*
X2709D02*
D03*
X2669D02*
D03*
X2630D02*
D03*
X3221Y1818D02*
D03*
X3181D02*
D03*
X3142D02*
D03*
X3102D02*
D03*
X3063D02*
D03*
X3024D02*
D03*
X2984D02*
D03*
X2945D02*
D03*
X2906D02*
D03*
X2866D02*
D03*
X2827D02*
D03*
X2787D02*
D03*
X2748D02*
D03*
X2709D02*
D03*
X2669D02*
D03*
X2630D02*
D03*
X3221Y1858D02*
D03*
X3181D02*
D03*
X3142D02*
D03*
X3102D02*
D03*
X3063D02*
D03*
X3024D02*
D03*
X2984D02*
D03*
X2945D02*
D03*
X2906D02*
D03*
X2866D02*
D03*
X2827D02*
D03*
X2787D02*
D03*
X2748D02*
D03*
X2709D02*
D03*
X2669D02*
D03*
X2630D02*
D03*
X3221Y1897D02*
D03*
X3181D02*
D03*
X3142D02*
D03*
X3102D02*
D03*
X3063D02*
D03*
X3024D02*
D03*
X2984D02*
D03*
X2945D02*
D03*
X2906D02*
D03*
X2866D02*
D03*
X2827D02*
D03*
X2787D02*
D03*
X2748D02*
D03*
X2709D02*
D03*
X2669D02*
D03*
X2630D02*
D03*
X3221Y1936D02*
D03*
X3181D02*
D03*
X3142D02*
D03*
X3102D02*
D03*
X3063D02*
D03*
X3024D02*
D03*
X2984D02*
D03*
X2945D02*
D03*
X2906D02*
D03*
X2866D02*
D03*
X2827D02*
D03*
X2787D02*
D03*
X2748D02*
D03*
X2709D02*
D03*
X2669D02*
D03*
X2630D02*
D03*
X3221Y1976D02*
D03*
X3181D02*
D03*
X3142D02*
D03*
X3102D02*
D03*
X3063D02*
D03*
X3024D02*
D03*
X2984D02*
D03*
X2945D02*
D03*
X2906D02*
D03*
X2866D02*
D03*
X2827D02*
D03*
X2787D02*
D03*
X2748D02*
D03*
X2709D02*
D03*
X2669D02*
D03*
X2630D02*
D03*
X3221Y2015D02*
D03*
X3181D02*
D03*
X3142D02*
D03*
X3102D02*
D03*
X3063D02*
D03*
X3024D02*
D03*
X2984D02*
D03*
X2945D02*
D03*
X2906D02*
D03*
X2866D02*
D03*
X2827D02*
D03*
X2787D02*
D03*
X2748D02*
D03*
X2709D02*
D03*
X2669D02*
D03*
X2630D02*
D03*
D60*
X590Y390D02*
D03*
D64*
X1480Y492D02*
G03*
X1420Y492I-30J0D01*
G01*
X5905Y0D02*
Y4330D01*
X0D02*
X5905D01*
X1420Y394D02*
Y492D01*
X1480Y395D02*
Y492D01*
Y394D02*
X4117D01*
X4725D01*
X1180D02*
X1420D01*
X4725Y0D02*
X5905D01*
X4725D02*
Y394D01*
X0Y0D02*
Y4330D01*
Y0D02*
X1180D01*
Y394D01*
M02*
