%FSLAX23Y23*%
%MOIN*%
G70*
G01*
G75*
%ADD10C,0.040*%
%ADD11R,0.037X0.035*%
%ADD12R,0.037X0.035*%
%ADD13R,0.075X0.020*%
%ADD14R,0.020X0.075*%
%ADD15R,0.330X0.370*%
%ADD16R,0.040X0.160*%
%ADD17R,0.090X0.012*%
%ADD18R,0.012X0.090*%
%ADD19R,0.031X0.060*%
%ADD20R,0.014X0.060*%
%ADD21R,0.030X0.100*%
%ADD22O,0.080X0.024*%
%ADD23O,0.024X0.080*%
%ADD24R,0.070X0.078*%
%ADD25R,0.063X0.063*%
%ADD26R,0.035X0.037*%
%ADD27R,0.035X0.037*%
%ADD28R,0.015X0.100*%
%ADD29O,0.015X0.100*%
%ADD30R,0.098X0.051*%
%ADD31R,0.100X0.052*%
%ADD32R,0.128X0.128*%
%ADD33R,0.020X0.012*%
%ADD34R,0.012X0.020*%
%ADD35R,0.030X0.030*%
%ADD36R,0.085X0.071*%
%ADD37R,0.071X0.085*%
%ADD38R,0.030X0.030*%
%ADD39R,0.125X0.060*%
%ADD40R,0.030X0.037*%
%ADD41R,0.060X0.050*%
%ADD42R,0.037X0.030*%
%ADD43R,0.050X0.060*%
%ADD44R,0.100X0.095*%
%ADD45R,0.060X0.060*%
%ADD46R,0.060X0.125*%
%ADD47R,0.028X0.017*%
%ADD48R,0.095X0.100*%
%ADD49R,0.063X0.063*%
%ADD50R,0.060X0.060*%
%ADD51O,0.071X0.012*%
%ADD52O,0.012X0.071*%
%ADD53R,0.100X0.280*%
%ADD54R,0.045X0.014*%
%ADD55R,0.057X0.022*%
%ADD56R,0.057X0.022*%
%ADD57R,0.022X0.057*%
%ADD58R,0.022X0.057*%
%ADD59C,0.019*%
%ADD60R,1.170X0.780*%
%ADD61C,0.020*%
%ADD62C,0.008*%
%ADD63C,0.006*%
%ADD64C,0.010*%
%ADD65C,0.015*%
%ADD66C,0.010*%
%ADD67C,0.050*%
%ADD68C,0.062*%
%ADD69R,0.062X0.062*%
%ADD70C,0.128*%
%ADD71C,0.236*%
%ADD72C,0.020*%
%ADD73C,0.025*%
%ADD74C,0.040*%
G04:AMPARAMS|DCode=75|XSize=85mil|YSize=85mil|CornerRadius=0mil|HoleSize=0mil|Usage=FLASHONLY|Rotation=0.000|XOffset=0mil|YOffset=0mil|HoleType=Round|Shape=Relief|Width=10mil|Gap=10mil|Entries=4|*
%AMTHD75*
7,0,0,0.085,0.065,0.010,45*
%
%ADD75THD75*%
%ADD76C,0.082*%
%ADD77C,0.132*%
G04:AMPARAMS|DCode=78|XSize=102mil|YSize=102mil|CornerRadius=0mil|HoleSize=0mil|Usage=FLASHONLY|Rotation=0.000|XOffset=0mil|YOffset=0mil|HoleType=Round|Shape=Relief|Width=10mil|Gap=10mil|Entries=4|*
%AMTHD78*
7,0,0,0.102,0.082,0.010,45*
%
%ADD78THD78*%
%ADD79C,0.065*%
G04:AMPARAMS|DCode=80|XSize=178mil|YSize=178mil|CornerRadius=0mil|HoleSize=0mil|Usage=FLASHONLY|Rotation=0.000|XOffset=0mil|YOffset=0mil|HoleType=Round|Shape=Relief|Width=10mil|Gap=10mil|Entries=4|*
%AMTHD80*
7,0,0,0.178,0.158,0.010,45*
%
%ADD80THD80*%
G04:AMPARAMS|DCode=81|XSize=96mil|YSize=96mil|CornerRadius=0mil|HoleSize=0mil|Usage=FLASHONLY|Rotation=0.000|XOffset=0mil|YOffset=0mil|HoleType=Round|Shape=Relief|Width=10mil|Gap=10mil|Entries=4|*
%AMTHD81*
7,0,0,0.096,0.076,0.010,45*
%
%ADD81THD81*%
%ADD82C,0.030*%
%ADD83C,0.035*%
%ADD84C,0.158*%
%ADD85C,0.076*%
%ADD86R,0.016X0.085*%
%ADD87R,0.707X0.020*%
%ADD88C,0.009*%
%ADD89C,0.010*%
%ADD90C,0.012*%
%ADD91C,0.024*%
%ADD92C,0.004*%
%ADD93C,0.008*%
%ADD94C,0.005*%
%ADD95R,0.350X0.200*%
%ADD96R,0.090X0.740*%
%ADD97R,0.500X0.090*%
%ADD98R,0.505X0.090*%
%ADD99C,0.080*%
%ADD100C,0.120*%
%ADD101R,0.045X0.043*%
%ADD102R,0.045X0.043*%
%ADD103R,0.083X0.028*%
%ADD104R,0.028X0.083*%
%ADD105R,0.338X0.378*%
%ADD106R,0.048X0.168*%
%ADD107R,0.098X0.020*%
%ADD108R,0.020X0.098*%
%ADD109O,0.088X0.032*%
%ADD110O,0.032X0.088*%
%ADD111R,0.078X0.086*%
%ADD112R,0.071X0.071*%
%ADD113R,0.043X0.045*%
%ADD114R,0.043X0.045*%
%ADD115R,0.023X0.108*%
%ADD116O,0.023X0.108*%
%ADD117R,0.106X0.059*%
%ADD118R,0.108X0.060*%
%ADD119R,0.136X0.136*%
%ADD120R,0.028X0.020*%
%ADD121R,0.020X0.028*%
%ADD122R,0.038X0.038*%
%ADD123R,0.093X0.079*%
%ADD124R,0.079X0.093*%
%ADD125R,0.038X0.038*%
%ADD126R,0.133X0.068*%
%ADD127R,0.038X0.045*%
%ADD128R,0.068X0.058*%
%ADD129R,0.045X0.038*%
%ADD130R,0.058X0.068*%
%ADD131R,0.108X0.103*%
%ADD132R,0.068X0.068*%
%ADD133R,0.068X0.133*%
%ADD134R,0.036X0.025*%
%ADD135R,0.103X0.108*%
%ADD136R,0.071X0.071*%
%ADD137R,0.068X0.068*%
%ADD138O,0.079X0.020*%
%ADD139O,0.020X0.079*%
%ADD140R,0.108X0.288*%
%ADD141R,0.053X0.022*%
%ADD142R,0.065X0.030*%
%ADD143R,0.065X0.030*%
%ADD144R,0.030X0.065*%
%ADD145R,0.030X0.065*%
%ADD146C,0.027*%
%ADD147R,1.178X0.788*%
%ADD148C,0.058*%
%ADD149C,0.070*%
%ADD150R,0.070X0.070*%
%ADD151C,0.136*%
%ADD152C,0.244*%
%ADD153C,0.028*%
%ADD154C,0.033*%
%ADD155C,0.003*%
%ADD156C,0.007*%
D19*
X3402Y435D02*
D03*
X4142D02*
D03*
X3302D02*
D03*
X2562D02*
D03*
X2462D02*
D03*
X1722D02*
D03*
D20*
X1825Y462D02*
D03*
X1850D02*
D03*
X1875D02*
D03*
X1900D02*
D03*
X1925D02*
D03*
X1950D02*
D03*
X1975D02*
D03*
X2000D02*
D03*
X2025D02*
D03*
X2050D02*
D03*
X2075D02*
D03*
X2100D02*
D03*
X2125D02*
D03*
X2150D02*
D03*
X2175D02*
D03*
X2200D02*
D03*
X2225D02*
D03*
X2250D02*
D03*
X2275D02*
D03*
X2300D02*
D03*
X2325D02*
D03*
X2350D02*
D03*
X2375D02*
D03*
X2400D02*
D03*
X2640D02*
D03*
X2665D02*
D03*
X2690D02*
D03*
X2715D02*
D03*
X2740D02*
D03*
X2765D02*
D03*
X2790D02*
D03*
X2815D02*
D03*
X2840D02*
D03*
X2865D02*
D03*
X2890D02*
D03*
X2915D02*
D03*
X2940D02*
D03*
X2965D02*
D03*
X2990D02*
D03*
X3015D02*
D03*
X3040D02*
D03*
X3065D02*
D03*
X3090D02*
D03*
X3115D02*
D03*
X3140D02*
D03*
X3165D02*
D03*
X3190D02*
D03*
X3215D02*
D03*
X3240D02*
D03*
X3265D02*
D03*
X3480Y463D02*
D03*
X3505D02*
D03*
X3530D02*
D03*
X3555D02*
D03*
X3580D02*
D03*
X3605D02*
D03*
X3630D02*
D03*
X3655D02*
D03*
X3680D02*
D03*
X3705D02*
D03*
X3730D02*
D03*
X3755D02*
D03*
X3780D02*
D03*
X3805D02*
D03*
X3830D02*
D03*
X3855D02*
D03*
X3880D02*
D03*
X3905D02*
D03*
X3930D02*
D03*
X3955D02*
D03*
X3980D02*
D03*
X4005D02*
D03*
X4030D02*
D03*
X4055D02*
D03*
X4080D02*
D03*
X4105D02*
D03*
X1800Y462D02*
D03*
X2425D02*
D03*
D21*
X1508Y453D02*
D03*
X1587D02*
D03*
X4318Y453D02*
D03*
X4397D02*
D03*
D35*
X2875Y1675D02*
D03*
X2930D02*
D03*
X3050Y1720D02*
D03*
X2995D02*
D03*
X2918Y1805D02*
D03*
X2973D02*
D03*
X2840Y1740D02*
D03*
X2895D02*
D03*
X2685Y1555D02*
D03*
X2630D02*
D03*
X3200Y1500D02*
D03*
X3255D02*
D03*
X3070Y1640D02*
D03*
X3125D02*
D03*
X2690Y1740D02*
D03*
X2635D02*
D03*
X3160Y1759D02*
D03*
X3215D02*
D03*
X3095Y2010D02*
D03*
X3040D02*
D03*
X3200Y1435D02*
D03*
X3255D02*
D03*
D38*
X2845Y1810D02*
D03*
Y1865D02*
D03*
X3160Y1915D02*
D03*
Y1970D02*
D03*
X2650Y1905D02*
D03*
Y1960D02*
D03*
X2925Y1920D02*
D03*
Y1975D02*
D03*
X3040Y2130D02*
D03*
Y2075D02*
D03*
D45*
X4750Y4150D02*
D03*
X1250Y2380D02*
D03*
X3720Y2645D02*
D03*
D60*
X590Y390D02*
D03*
D64*
X1480Y492D02*
G03*
X1420Y492I-30J0D01*
G01*
X5905Y0D02*
Y4330D01*
X0D02*
X5905D01*
X1420Y394D02*
Y492D01*
X1480Y395D02*
Y492D01*
Y394D02*
X4117D01*
X4725D01*
X1180D02*
X1420D01*
X4725Y0D02*
X5905D01*
X4725D02*
Y394D01*
X0Y0D02*
Y4330D01*
Y0D02*
X1180D01*
Y394D01*
D67*
X118Y79D02*
D03*
X276D02*
D03*
X433D02*
D03*
X591D02*
D03*
X748D02*
D03*
X906D02*
D03*
X1063D02*
D03*
Y236D02*
D03*
X906D02*
D03*
X748D02*
D03*
X591D02*
D03*
X433D02*
D03*
X276D02*
D03*
X118D02*
D03*
X748Y394D02*
D03*
X591D02*
D03*
X433D02*
D03*
X1063Y551D02*
D03*
X906D02*
D03*
X748D02*
D03*
X591D02*
D03*
X433D02*
D03*
X276D02*
D03*
X118D02*
D03*
X1063Y709D02*
D03*
X906D02*
D03*
X748D02*
D03*
X591D02*
D03*
X433D02*
D03*
X276D02*
D03*
X118D02*
D03*
X1588Y737D02*
D03*
Y837D02*
D03*
X1508D02*
D03*
Y737D02*
D03*
X4398D02*
D03*
X4318D02*
D03*
X4318Y837D02*
D03*
X4398D02*
D03*
D68*
X5315Y3957D02*
D03*
X5394D02*
D03*
Y4055D02*
D03*
X2100Y2065D02*
D03*
Y1965D02*
D03*
Y1865D02*
D03*
Y1765D02*
D03*
Y1665D02*
D03*
Y1565D02*
D03*
X2100Y1465D02*
D03*
X5700Y2550D02*
D03*
X5600Y2450D02*
D03*
Y2550D02*
D03*
Y2250D02*
D03*
X5700Y2650D02*
D03*
X5600Y2350D02*
D03*
X5700D02*
D03*
Y2450D02*
D03*
Y2000D02*
D03*
X5600Y1900D02*
D03*
Y2000D02*
D03*
Y1700D02*
D03*
X5700Y2100D02*
D03*
Y1700D02*
D03*
X5600Y1800D02*
D03*
X5700D02*
D03*
Y1900D02*
D03*
X5650Y1450D02*
D03*
X5650Y1350D02*
D03*
X5700Y3500D02*
D03*
X5600Y3400D02*
D03*
X5700D02*
D03*
X5600Y3300D02*
D03*
X5700D02*
D03*
X5600Y3200D02*
D03*
X5700D02*
D03*
X5600Y3100D02*
D03*
X5700D02*
D03*
X5600Y3000D02*
D03*
X5700D02*
D03*
X5600Y2900D02*
D03*
X5700D02*
D03*
X3770Y1520D02*
D03*
X3770Y1620D02*
D03*
Y1720D02*
D03*
Y1820D02*
D03*
Y1920D02*
D03*
Y2020D02*
D03*
Y2120D02*
D03*
X5700Y2250D02*
D03*
D69*
X5315Y4055D02*
D03*
X2100Y2165D02*
D03*
X5600Y2650D02*
D03*
Y2100D02*
D03*
X5650Y1250D02*
D03*
X5600Y3500D02*
D03*
X3770Y2220D02*
D03*
D70*
X5500Y4243D02*
D03*
Y3769D02*
D03*
D71*
X197Y394D02*
D03*
X984D02*
D03*
D86*
X4106Y915D02*
D03*
Y660D02*
D03*
X4006Y915D02*
D03*
X4031D02*
D03*
X4056D02*
D03*
X4006Y660D02*
D03*
X4031D02*
D03*
X4056D02*
D03*
X3931Y915D02*
D03*
X3956D02*
D03*
X3981D02*
D03*
X3931Y660D02*
D03*
X3956D02*
D03*
X3981D02*
D03*
X3856Y915D02*
D03*
X3881D02*
D03*
X3856Y660D02*
D03*
X3881D02*
D03*
X3781Y915D02*
D03*
X3806D02*
D03*
X3781Y660D02*
D03*
X3806D02*
D03*
X3706Y915D02*
D03*
X3731D02*
D03*
X3706Y660D02*
D03*
X3731D02*
D03*
X3606Y915D02*
D03*
X3631D02*
D03*
X3656D02*
D03*
X3606Y660D02*
D03*
X3631D02*
D03*
X3656D02*
D03*
X3531Y915D02*
D03*
X3556D02*
D03*
X3581D02*
D03*
X3531Y660D02*
D03*
X3556D02*
D03*
X3581D02*
D03*
X3481Y915D02*
D03*
Y660D02*
D03*
X3215Y915D02*
D03*
X3240D02*
D03*
X3215Y660D02*
D03*
X3240D02*
D03*
X3140Y915D02*
D03*
X3165D02*
D03*
X3140Y660D02*
D03*
X3165D02*
D03*
X3065Y915D02*
D03*
X3090D02*
D03*
X3065Y660D02*
D03*
X3090D02*
D03*
X2965Y915D02*
D03*
X2990D02*
D03*
X3015D02*
D03*
X2965Y660D02*
D03*
X2990D02*
D03*
X3015D02*
D03*
X2890Y915D02*
D03*
X2915D02*
D03*
X2940D02*
D03*
X2890Y660D02*
D03*
X2915D02*
D03*
X2940D02*
D03*
X2815Y915D02*
D03*
X2840D02*
D03*
X2815Y660D02*
D03*
X2840D02*
D03*
X2740Y915D02*
D03*
X2765D02*
D03*
X2740Y660D02*
D03*
X2765D02*
D03*
X2665Y915D02*
D03*
X2690D02*
D03*
X2665Y660D02*
D03*
X2690D02*
D03*
X2425Y915D02*
D03*
Y660D02*
D03*
X2325Y915D02*
D03*
X2350D02*
D03*
X2375D02*
D03*
X2325Y660D02*
D03*
X2350D02*
D03*
X2375D02*
D03*
X2250Y915D02*
D03*
X2275D02*
D03*
X2300D02*
D03*
X2250Y660D02*
D03*
X2275D02*
D03*
X2300D02*
D03*
X2175Y915D02*
D03*
X2200D02*
D03*
X2175Y660D02*
D03*
X2200D02*
D03*
X2100Y915D02*
D03*
X2125D02*
D03*
X2100Y660D02*
D03*
X2125D02*
D03*
X2025Y915D02*
D03*
X2050D02*
D03*
X2025Y660D02*
D03*
X2050D02*
D03*
X1925Y915D02*
D03*
X1950D02*
D03*
X1975D02*
D03*
X1925Y660D02*
D03*
X1950D02*
D03*
X1975D02*
D03*
X1850Y915D02*
D03*
X1875D02*
D03*
X1900D02*
D03*
X1850Y660D02*
D03*
X1875D02*
D03*
X1900D02*
D03*
X1800Y915D02*
D03*
Y660D02*
D03*
X4081Y915D02*
D03*
Y660D02*
D03*
X3681Y915D02*
D03*
X3756D02*
D03*
X3831D02*
D03*
X3906D02*
D03*
X3681Y660D02*
D03*
X3756D02*
D03*
X3831D02*
D03*
X3906D02*
D03*
X3506Y915D02*
D03*
Y660D02*
D03*
X3040Y915D02*
D03*
X3115D02*
D03*
X3190D02*
D03*
X3265D02*
D03*
X3040Y660D02*
D03*
X3115D02*
D03*
X3190D02*
D03*
X3265D02*
D03*
X2715Y915D02*
D03*
X2790D02*
D03*
X2865D02*
D03*
X2715Y660D02*
D03*
X2790D02*
D03*
X2865D02*
D03*
X2400Y915D02*
D03*
X2640D02*
D03*
X2400Y660D02*
D03*
X2640D02*
D03*
X2075Y915D02*
D03*
X2150D02*
D03*
X2225D02*
D03*
X2075Y660D02*
D03*
X2150D02*
D03*
X2225D02*
D03*
X1825Y915D02*
D03*
X2000D02*
D03*
X1825Y660D02*
D03*
X2000D02*
D03*
D87*
X2113Y787D02*
D03*
X2953D02*
D03*
X3793D02*
D03*
M02*
