%FSLAX23Y23*%
%MOIN*%
G70*
G01*
G75*
G04 Layer_Color=65535*
%ADD10R,0.209X0.079*%
%ADD11R,0.050X0.050*%
%ADD12R,0.036X0.036*%
%ADD13R,0.059X0.039*%
%ADD14O,0.014X0.067*%
%ADD15O,0.024X0.079*%
%ADD16C,0.050*%
%ADD17C,0.010*%
%ADD18C,0.100*%
%ADD19C,0.025*%
%ADD20C,0.007*%
%ADD21C,0.012*%
%ADD22C,0.008*%
%ADD23C,0.012*%
%ADD24C,0.012*%
%ADD25C,0.020*%
%ADD26C,0.080*%
%ADD27R,0.059X0.059*%
%ADD28C,0.059*%
%ADD29C,0.065*%
%ADD30R,0.079X0.079*%
%ADD31C,0.079*%
%ADD32R,0.100X0.100*%
%ADD33C,0.100*%
%ADD34C,0.070*%
%ADD35R,0.100X0.100*%
%ADD36R,0.059X0.059*%
%ADD37R,0.079X0.079*%
%ADD38C,0.110*%
%ADD39R,0.110X0.110*%
%ADD40C,0.120*%
%ADD41R,0.120X0.120*%
%ADD42C,0.157*%
%ADD43C,0.024*%
%ADD44C,0.050*%
%ADD45C,0.020*%
%ADD46C,0.040*%
%ADD47C,0.005*%
%ADD48C,0.030*%
G04:AMPARAMS|DCode=49|XSize=112mil|YSize=112mil|CornerRadius=0mil|HoleSize=0mil|Usage=FLASHONLY|Rotation=0.000|XOffset=0mil|YOffset=0mil|HoleType=Round|Shape=Relief|Width=10mil|Gap=10mil|Entries=4|*
%AMTHD49*
7,0,0,0.112,0.092,0.010,45*
%
%ADD49THD49*%
%ADD50C,0.072*%
%ADD51C,0.055*%
G04:AMPARAMS|DCode=52|XSize=95.433mil|YSize=95.433mil|CornerRadius=0mil|HoleSize=0mil|Usage=FLASHONLY|Rotation=0.000|XOffset=0mil|YOffset=0mil|HoleType=Round|Shape=Relief|Width=10mil|Gap=10mil|Entries=4|*
%AMTHD52*
7,0,0,0.095,0.075,0.010,45*
%
%ADD52THD52*%
%ADD53C,0.170*%
%ADD54C,0.060*%
%ADD55C,0.067*%
G04:AMPARAMS|DCode=56|XSize=107.244mil|YSize=107.244mil|CornerRadius=0mil|HoleSize=0mil|Usage=FLASHONLY|Rotation=0.000|XOffset=0mil|YOffset=0mil|HoleType=Round|Shape=Relief|Width=10mil|Gap=10mil|Entries=4|*
%AMTHD56*
7,0,0,0.107,0.087,0.010,45*
%
%ADD56THD56*%
G04:AMPARAMS|DCode=57|XSize=120mil|YSize=120mil|CornerRadius=0mil|HoleSize=0mil|Usage=FLASHONLY|Rotation=0.000|XOffset=0mil|YOffset=0mil|HoleType=Round|Shape=Relief|Width=10mil|Gap=10mil|Entries=4|*
%AMTHD57*
7,0,0,0.120,0.100,0.010,45*
%
%ADD57THD57*%
G04:AMPARAMS|DCode=58|XSize=100mil|YSize=100mil|CornerRadius=0mil|HoleSize=0mil|Usage=FLASHONLY|Rotation=0.000|XOffset=0mil|YOffset=0mil|HoleType=Round|Shape=Relief|Width=10mil|Gap=10mil|Entries=4|*
%AMTHD58*
7,0,0,0.100,0.080,0.010,45*
%
%ADD58THD58*%
%ADD59C,0.059*%
%ADD60C,0.091*%
%ADD61C,0.090*%
%ADD62C,0.186*%
G04:AMPARAMS|DCode=63|XSize=88mil|YSize=88mil|CornerRadius=0mil|HoleSize=0mil|Usage=FLASHONLY|Rotation=0.000|XOffset=0mil|YOffset=0mil|HoleType=Round|Shape=Relief|Width=10mil|Gap=10mil|Entries=4|*
%AMTHD63*
7,0,0,0.088,0.068,0.010,45*
%
%ADD63THD63*%
%ADD64C,0.048*%
G04:AMPARAMS|DCode=65|XSize=70mil|YSize=70mil|CornerRadius=0mil|HoleSize=0mil|Usage=FLASHONLY|Rotation=0.000|XOffset=0mil|YOffset=0mil|HoleType=Round|Shape=Relief|Width=10mil|Gap=10mil|Entries=4|*
%AMTHD65*
7,0,0,0.070,0.050,0.010,45*
%
%ADD65THD65*%
%ADD66R,0.063X0.075*%
%ADD67R,0.079X0.209*%
%ADD68R,0.102X0.094*%
%ADD69R,0.268X0.272*%
%ADD70R,0.037X0.075*%
%ADD71R,0.150X0.106*%
%ADD72R,0.050X0.050*%
%ADD73R,0.036X0.032*%
%ADD74R,0.035X0.037*%
%ADD75R,0.035X0.037*%
%ADD76R,0.032X0.036*%
%ADD77R,0.272X0.268*%
%ADD78R,0.075X0.037*%
%ADD79O,0.028X0.098*%
%ADD80C,0.020*%
%ADD81C,0.010*%
%ADD82C,0.024*%
%ADD83C,0.010*%
%ADD84C,0.008*%
%ADD85C,0.030*%
%ADD86C,0.006*%
%ADD87C,0.007*%
%ADD88C,0.015*%
%ADD89R,0.043X0.008*%
%ADD90R,0.257X0.184*%
D17*
X23159Y19038D02*
X23159Y19048D01*
X23158Y19058D01*
X23157Y19068D01*
X23156Y19078D01*
X23154Y19087D01*
X23152Y19097D01*
X23149Y19107D01*
X23146Y19116D01*
X23143Y19126D01*
X23139Y19135D01*
X23135Y19144D01*
X23131Y19153D01*
X23126Y19162D01*
X23121Y19170D01*
X23115Y19178D01*
X23109Y19187D01*
X23103Y19194D01*
X23097Y19202D01*
X23090Y19209D01*
X23083Y19216D01*
X23075Y19223D01*
X23068Y19229D01*
X23060Y19236D01*
X23052Y19241D01*
X23043Y19247D01*
X23035Y19252D01*
X23026Y19257D01*
X23017Y19261D01*
X23008Y19265D01*
X22999Y19269D01*
X22989Y19272D01*
X22980Y19275D01*
X22970Y19277D01*
X22960Y19279D01*
X22950Y19281D01*
X22941Y19282D01*
X22931Y19283D01*
X22921Y19284D01*
X22911Y19284D01*
X22901Y19284D01*
X22891Y19283D01*
X22881Y19282D01*
X22871Y19280D01*
X22861Y19278D01*
X22851Y19276D01*
X22842Y19273D01*
X22832Y19270D01*
X22823Y19267D01*
X22814Y19263D01*
X22805Y19259D01*
X22796Y19254D01*
X22787Y19249D01*
X22779Y19244D01*
X22771Y19238D01*
X22763Y19233D01*
X22755Y19226D01*
X22747Y19220D01*
X22740Y19213D01*
X22733Y19206D01*
X22726Y19198D01*
X22720Y19191D01*
X22714Y19183D01*
X22708Y19174D01*
X22703Y19166D01*
X22698Y19157D01*
X22693Y19149D01*
X22689Y19140D01*
X22685Y19130D01*
X22682Y19121D01*
X22678Y19112D01*
X22676Y19102D01*
X22673Y19092D01*
X22671Y19083D01*
X22670Y19073D01*
X22668Y19063D01*
X22668Y19053D01*
X22667Y19043D01*
Y19033D01*
X22668Y19023D01*
X22668Y19013D01*
X22670Y19003D01*
X22671Y18993D01*
X22673Y18984D01*
X22676Y18974D01*
X22678Y18964D01*
X22682Y18955D01*
X22685Y18945D01*
X22689Y18936D01*
X22693Y18927D01*
X22698Y18919D01*
X22703Y18910D01*
X22708Y18901D01*
X22714Y18893D01*
X22720Y18885D01*
X22726Y18878D01*
X22733Y18870D01*
X22740Y18863D01*
X22747Y18856D01*
X22755Y18850D01*
X22763Y18843D01*
X22771Y18837D01*
X22779Y18832D01*
X22787Y18827D01*
X22796Y18822D01*
X22805Y18817D01*
X22814Y18813D01*
X22823Y18809D01*
X22832Y18805D01*
X22842Y18802D01*
X22851Y18800D01*
X22861Y18797D01*
X22871Y18796D01*
X22881Y18794D01*
X22891Y18793D01*
X22901Y18792D01*
X22911Y18792D01*
X22921Y18792D01*
X22931Y18792D01*
X22941Y18793D01*
X22950Y18795D01*
X22960Y18796D01*
X22970Y18799D01*
X22980Y18801D01*
X22989Y18804D01*
X22999Y18807D01*
X23008Y18811D01*
X23017Y18815D01*
X23026Y18819D01*
X23035Y18824D01*
X23043Y18829D01*
X23052Y18835D01*
X23060Y18840D01*
X23068Y18846D01*
X23075Y18853D01*
X23083Y18860D01*
X23090Y18867D01*
X23097Y18874D01*
X23103Y18881D01*
X23109Y18889D01*
X23115Y18897D01*
X23121Y18906D01*
X23126Y18914D01*
X23131Y18923D01*
X23135Y18932D01*
X23139Y18941D01*
X23143Y18950D01*
X23146Y18960D01*
X23149Y18969D01*
X23152Y18979D01*
X23154Y18988D01*
X23156Y18998D01*
X23157Y19008D01*
X23158Y19018D01*
X23159Y19028D01*
X23159Y19038D01*
X23956Y19051D02*
X23956Y19061D01*
X23955Y19071D01*
X23954Y19081D01*
X23953Y19091D01*
X23951Y19100D01*
X23949Y19110D01*
X23946Y19120D01*
X23943Y19129D01*
X23940Y19139D01*
X23936Y19148D01*
X23932Y19157D01*
X23927Y19166D01*
X23922Y19175D01*
X23917Y19183D01*
X23912Y19191D01*
X23906Y19200D01*
X23900Y19207D01*
X23893Y19215D01*
X23886Y19222D01*
X23879Y19229D01*
X23872Y19236D01*
X23864Y19242D01*
X23856Y19249D01*
X23848Y19254D01*
X23840Y19260D01*
X23831Y19265D01*
X23823Y19270D01*
X23814Y19274D01*
X23804Y19278D01*
X23795Y19282D01*
X23786Y19285D01*
X23776Y19288D01*
X23767Y19290D01*
X23757Y19292D01*
X23747Y19294D01*
X23737Y19295D01*
X23727Y19296D01*
X23717Y19297D01*
X23707Y19297D01*
X23697Y19297D01*
X23687Y19296D01*
X23677Y19295D01*
X23668Y19293D01*
X23658Y19291D01*
X23648Y19289D01*
X23638Y19286D01*
X23629Y19283D01*
X23620Y19280D01*
X23610Y19276D01*
X23601Y19272D01*
X23593Y19267D01*
X23584Y19262D01*
X23575Y19257D01*
X23567Y19251D01*
X23559Y19246D01*
X23551Y19239D01*
X23544Y19233D01*
X23537Y19226D01*
X23530Y19219D01*
X23523Y19211D01*
X23517Y19204D01*
X23511Y19196D01*
X23505Y19187D01*
X23500Y19179D01*
X23495Y19170D01*
X23490Y19162D01*
X23486Y19153D01*
X23482Y19143D01*
X23478Y19134D01*
X23475Y19125D01*
X23472Y19115D01*
X23470Y19105D01*
X23468Y19096D01*
X23466Y19086D01*
X23465Y19076D01*
X23464Y19066D01*
X23464Y19056D01*
Y19046D01*
X23464Y19036D01*
X23465Y19026D01*
X23466Y19016D01*
X23468Y19006D01*
X23470Y18997D01*
X23472Y18987D01*
X23475Y18977D01*
X23478Y18968D01*
X23482Y18958D01*
X23486Y18949D01*
X23490Y18940D01*
X23495Y18932D01*
X23500Y18923D01*
X23505Y18914D01*
X23511Y18906D01*
X23517Y18898D01*
X23523Y18891D01*
X23530Y18883D01*
X23537Y18876D01*
X23544Y18869D01*
X23551Y18863D01*
X23559Y18856D01*
X23567Y18850D01*
X23575Y18845D01*
X23584Y18840D01*
X23593Y18835D01*
X23601Y18830D01*
X23610Y18826D01*
X23620Y18822D01*
X23629Y18818D01*
X23638Y18815D01*
X23648Y18813D01*
X23658Y18810D01*
X23668Y18809D01*
X23677Y18807D01*
X23687Y18806D01*
X23697Y18805D01*
X23707Y18805D01*
X23717Y18805D01*
X23727Y18805D01*
X23737Y18806D01*
X23747Y18808D01*
X23757Y18809D01*
X23767Y18812D01*
X23776Y18814D01*
X23786Y18817D01*
X23795Y18820D01*
X23804Y18824D01*
X23814Y18828D01*
X23823Y18832D01*
X23831Y18837D01*
X23840Y18842D01*
X23848Y18848D01*
X23856Y18853D01*
X23864Y18859D01*
X23872Y18866D01*
X23879Y18873D01*
X23886Y18880D01*
X23893Y18887D01*
X23900Y18894D01*
X23906Y18902D01*
X23912Y18910D01*
X23917Y18919D01*
X23922Y18927D01*
X23927Y18936D01*
X23932Y18945D01*
X23936Y18954D01*
X23940Y18963D01*
X23943Y18973D01*
X23946Y18982D01*
X23949Y18992D01*
X23951Y19001D01*
X23953Y19011D01*
X23954Y19021D01*
X23955Y19031D01*
X23956Y19041D01*
X23956Y19051D01*
X24620Y19077D02*
X24619Y19087D01*
X24619Y19097D01*
X24618Y19107D01*
X24616Y19117D01*
X24615Y19126D01*
X24612Y19136D01*
X24610Y19146D01*
X24607Y19155D01*
X24603Y19165D01*
X24600Y19174D01*
X24596Y19183D01*
X24591Y19192D01*
X24586Y19201D01*
X24581Y19209D01*
X24576Y19217D01*
X24570Y19226D01*
X24563Y19233D01*
X24557Y19241D01*
X24550Y19248D01*
X24543Y19255D01*
X24536Y19262D01*
X24528Y19268D01*
X24520Y19275D01*
X24512Y19280D01*
X24504Y19286D01*
X24495Y19291D01*
X24486Y19296D01*
X24477Y19300D01*
X24468Y19304D01*
X24459Y19308D01*
X24450Y19311D01*
X24440Y19314D01*
X24430Y19316D01*
X24421Y19318D01*
X24411Y19320D01*
X24401Y19321D01*
X24391Y19322D01*
X24381Y19323D01*
X24371Y19323D01*
X24361Y19323D01*
X24351Y19322D01*
X24341Y19321D01*
X24331Y19319D01*
X24322Y19317D01*
X24312Y19315D01*
X24302Y19312D01*
X24293Y19309D01*
X24283Y19306D01*
X24274Y19302D01*
X24265Y19298D01*
X24256Y19293D01*
X24248Y19288D01*
X24239Y19283D01*
X24231Y19277D01*
X24223Y19272D01*
X24215Y19265D01*
X24208Y19259D01*
X24200Y19252D01*
X24194Y19245D01*
X24187Y19237D01*
X24181Y19230D01*
X24175Y19222D01*
X24169Y19213D01*
X24163Y19205D01*
X24158Y19196D01*
X24154Y19188D01*
X24149Y19179D01*
X24146Y19169D01*
X24142Y19160D01*
X24139Y19151D01*
X24136Y19141D01*
X24134Y19131D01*
X24132Y19122D01*
X24130Y19112D01*
X24129Y19102D01*
X24128Y19092D01*
X24128Y19082D01*
Y19072D01*
X24128Y19062D01*
X24129Y19052D01*
X24130Y19042D01*
X24132Y19032D01*
X24134Y19023D01*
X24136Y19013D01*
X24139Y19003D01*
X24142Y18994D01*
X24146Y18984D01*
X24149Y18975D01*
X24154Y18966D01*
X24158Y18958D01*
X24163Y18949D01*
X24169Y18940D01*
X24175Y18932D01*
X24181Y18924D01*
X24187Y18917D01*
X24194Y18909D01*
X24200Y18902D01*
X24208Y18895D01*
X24215Y18889D01*
X24223Y18882D01*
X24231Y18876D01*
X24239Y18871D01*
X24248Y18866D01*
X24256Y18861D01*
X24265Y18856D01*
X24274Y18852D01*
X24283Y18848D01*
X24293Y18844D01*
X24302Y18841D01*
X24312Y18839D01*
X24322Y18836D01*
X24331Y18835D01*
X24341Y18833D01*
X24351Y18832D01*
X24361Y18831D01*
X24371Y18831D01*
X24381Y18831D01*
X24391Y18831D01*
X24401Y18832D01*
X24411Y18834D01*
X24421Y18835D01*
X24430Y18838D01*
X24440Y18840D01*
X24450Y18843D01*
X24459Y18846D01*
X24468Y18850D01*
X24477Y18854D01*
X24486Y18858D01*
X24495Y18863D01*
X24504Y18868D01*
X24512Y18874D01*
X24520Y18879D01*
X24528Y18885D01*
X24536Y18892D01*
X24543Y18899D01*
X24550Y18906D01*
X24557Y18913D01*
X24563Y18920D01*
X24570Y18928D01*
X24576Y18936D01*
X24581Y18945D01*
X24586Y18953D01*
X24591Y18962D01*
X24596Y18971D01*
X24600Y18980D01*
X24603Y18989D01*
X24607Y18999D01*
X24610Y19008D01*
X24612Y19018D01*
X24615Y19027D01*
X24616Y19037D01*
X24618Y19047D01*
X24619Y19057D01*
X24619Y19067D01*
X24620Y19077D01*
X18421Y16364D02*
X18421Y16374D01*
X18421Y16384D01*
X18420Y16394D01*
X18419Y16404D01*
X18417Y16414D01*
X18415Y16424D01*
X18413Y16434D01*
X18411Y16444D01*
X18408Y16453D01*
X18405Y16463D01*
X18401Y16472D01*
X18398Y16481D01*
X18394Y16491D01*
X18389Y16500D01*
X18385Y16508D01*
X18380Y16517D01*
X18374Y16526D01*
X18369Y16534D01*
X18363Y16542D01*
X18357Y16550D01*
X18351Y16558D01*
X18344Y16565D01*
X18337Y16573D01*
X18330Y16580D01*
X18323Y16587D01*
X18315Y16593D01*
X18307Y16600D01*
X18299Y16606D01*
X18291Y16612D01*
X18283Y16617D01*
X18274Y16622D01*
X18266Y16627D01*
X18257Y16632D01*
X18248Y16636D01*
X18239Y16640D01*
X18229Y16644D01*
X18220Y16648D01*
X18210Y16651D01*
X18201Y16654D01*
X18191Y16656D01*
X18181Y16658D01*
X18171Y16660D01*
X18161Y16662D01*
X18151Y16663D01*
X18141Y16664D01*
X18131Y16664D01*
X18121Y16664D01*
X18111Y16664D01*
X18101Y16664D01*
X18091Y16663D01*
X18081Y16662D01*
X18072Y16660D01*
X18062Y16658D01*
X18052Y16656D01*
X18042Y16654D01*
X18033Y16651D01*
X18023Y16648D01*
X18014Y16644D01*
X18004Y16640D01*
X17995Y16636D01*
X17986Y16632D01*
X17977Y16627D01*
X17969Y16622D01*
X17960Y16617D01*
X17952Y16612D01*
X17944Y16606D01*
X17936Y16600D01*
X17928Y16593D01*
X17920Y16587D01*
X17913Y16580D01*
X17906Y16573D01*
X17899Y16565D01*
X17892Y16558D01*
X17886Y16550D01*
X17880Y16542D01*
X17874Y16534D01*
X17869Y16526D01*
X17863Y16517D01*
X17858Y16508D01*
X17854Y16500D01*
X17849Y16491D01*
X17845Y16481D01*
X17842Y16472D01*
X17838Y16463D01*
X17835Y16453D01*
X17832Y16444D01*
X17830Y16434D01*
X17827Y16424D01*
X17826Y16414D01*
X17824Y16404D01*
X17823Y16394D01*
X17822Y16384D01*
X17822Y16374D01*
X17821Y16364D01*
X17822Y16354D01*
X17822Y16344D01*
X17823Y16334D01*
X17824Y16324D01*
X17826Y16314D01*
X17827Y16304D01*
X17830Y16295D01*
X17832Y16285D01*
X17835Y16275D01*
X17838Y16266D01*
X17842Y16256D01*
X17845Y16247D01*
X17849Y16238D01*
X17854Y16229D01*
X17858Y16220D01*
X17863Y16211D01*
X17869Y16203D01*
X17874Y16194D01*
X17880Y16186D01*
X17886Y16178D01*
X17892Y16171D01*
X17899Y16163D01*
X17906Y16156D01*
X17913Y16149D01*
X17920Y16142D01*
X17928Y16135D01*
X17936Y16129D01*
X17944Y16123D01*
X17952Y16117D01*
X17960Y16111D01*
X17969Y16106D01*
X17977Y16101D01*
X17986Y16096D01*
X17995Y16092D01*
X18004Y16088D01*
X18014Y16084D01*
X18023Y16081D01*
X18033Y16078D01*
X18042Y16075D01*
X18052Y16072D01*
X18062Y16070D01*
X18072Y16068D01*
X18081Y16067D01*
X18091Y16066D01*
X18101Y16065D01*
X18111Y16064D01*
X18121Y16064D01*
X18131Y16064D01*
X18141Y16065D01*
X18151Y16066D01*
X18161Y16067D01*
X18171Y16068D01*
X18181Y16070D01*
X18191Y16072D01*
X18201Y16075D01*
X18210Y16078D01*
X18220Y16081D01*
X18229Y16084D01*
X18239Y16088D01*
X18248Y16092D01*
X18257Y16096D01*
X18266Y16101D01*
X18274Y16106D01*
X18283Y16111D01*
X18291Y16117D01*
X18299Y16123D01*
X18307Y16129D01*
X18315Y16135D01*
X18323Y16142D01*
X18330Y16149D01*
X18337Y16156D01*
X18344Y16163D01*
X18351Y16171D01*
X18357Y16178D01*
X18363Y16186D01*
X18369Y16194D01*
X18374Y16203D01*
X18380Y16211D01*
X18385Y16220D01*
X18389Y16229D01*
X18394Y16238D01*
X18398Y16247D01*
X18401Y16256D01*
X18405Y16266D01*
X18408Y16275D01*
X18411Y16285D01*
X18413Y16295D01*
X18415Y16304D01*
X18417Y16314D01*
X18419Y16324D01*
X18420Y16334D01*
X18421Y16344D01*
X18421Y16354D01*
X18421Y16364D01*
X20661Y18597D02*
X20661Y18607D01*
X20660Y18617D01*
X20659Y18627D01*
X20658Y18637D01*
X20656Y18647D01*
X20654Y18657D01*
X20651Y18666D01*
X20648Y18676D01*
X20645Y18685D01*
X20641Y18695D01*
X20637Y18704D01*
X20633Y18713D01*
X20628Y18721D01*
X20623Y18730D01*
X20617Y18738D01*
X20611Y18746D01*
X20605Y18754D01*
X20599Y18762D01*
X20592Y18769D01*
X20585Y18776D01*
X20577Y18783D01*
X20570Y18789D01*
X20562Y18795D01*
X20554Y18801D01*
X20545Y18806D01*
X20537Y18811D01*
X20528Y18816D01*
X20519Y18821D01*
X20510Y18825D01*
X20501Y18828D01*
X20491Y18832D01*
X20482Y18834D01*
X20472Y18837D01*
X20462Y18839D01*
X20452Y18841D01*
X20443Y18842D01*
X20433Y18843D01*
X20423Y18843D01*
X20413Y18844D01*
X20403Y18843D01*
X20393Y18843D01*
X20383Y18841D01*
X20373Y18840D01*
X20363Y18838D01*
X20353Y18836D01*
X20344Y18833D01*
X20334Y18830D01*
X20325Y18826D01*
X20316Y18823D01*
X20307Y18818D01*
X20298Y18814D01*
X20289Y18809D01*
X20281Y18804D01*
X20273Y18798D01*
X20265Y18792D01*
X20257Y18786D01*
X20249Y18779D01*
X20242Y18772D01*
X20235Y18765D01*
X20228Y18758D01*
X20222Y18750D01*
X20216Y18742D01*
X20210Y18734D01*
X20205Y18726D01*
X20200Y18717D01*
X20195Y18708D01*
X20191Y18699D01*
X20187Y18690D01*
X20184Y18681D01*
X20180Y18671D01*
X20178Y18662D01*
X20175Y18652D01*
X20173Y18642D01*
X20172Y18632D01*
X20170Y18622D01*
X20170Y18612D01*
X20169Y18602D01*
Y18593D01*
X20170Y18583D01*
X20170Y18573D01*
X20172Y18563D01*
X20173Y18553D01*
X20175Y18543D01*
X20178Y18533D01*
X20180Y18524D01*
X20184Y18514D01*
X20187Y18505D01*
X20191Y18496D01*
X20195Y18487D01*
X20200Y18478D01*
X20205Y18469D01*
X20210Y18461D01*
X20216Y18453D01*
X20222Y18445D01*
X20228Y18437D01*
X20235Y18430D01*
X20242Y18423D01*
X20249Y18416D01*
X20257Y18409D01*
X20265Y18403D01*
X20273Y18397D01*
X20281Y18391D01*
X20289Y18386D01*
X20298Y18381D01*
X20307Y18377D01*
X20316Y18372D01*
X20325Y18369D01*
X20334Y18365D01*
X20344Y18362D01*
X20353Y18359D01*
X20363Y18357D01*
X20373Y18355D01*
X20383Y18354D01*
X20393Y18352D01*
X20403Y18352D01*
X20413Y18351D01*
X20423Y18352D01*
X20433Y18352D01*
X20443Y18353D01*
X20452Y18354D01*
X20462Y18356D01*
X20472Y18358D01*
X20482Y18361D01*
X20491Y18363D01*
X20501Y18367D01*
X20510Y18370D01*
X20519Y18374D01*
X20528Y18379D01*
X20537Y18384D01*
X20545Y18389D01*
X20554Y18394D01*
X20562Y18400D01*
X20570Y18406D01*
X20577Y18412D01*
X20585Y18419D01*
X20592Y18426D01*
X20599Y18433D01*
X20605Y18441D01*
X20611Y18449D01*
X20617Y18457D01*
X20623Y18465D01*
X20628Y18474D01*
X20633Y18482D01*
X20637Y18491D01*
X20641Y18500D01*
X20645Y18510D01*
X20648Y18519D01*
X20651Y18529D01*
X20654Y18538D01*
X20656Y18548D01*
X20658Y18558D01*
X20659Y18568D01*
X20660Y18578D01*
X20661Y18588D01*
X20661Y18597D01*
X20631Y17917D02*
X20631Y17927D01*
X20630Y17937D01*
X20629Y17947D01*
X20628Y17957D01*
X20626Y17967D01*
X20624Y17977D01*
X20621Y17986D01*
X20618Y17996D01*
X20615Y18005D01*
X20611Y18014D01*
X20607Y18023D01*
X20603Y18032D01*
X20598Y18041D01*
X20593Y18050D01*
X20587Y18058D01*
X20581Y18066D01*
X20575Y18074D01*
X20569Y18081D01*
X20562Y18089D01*
X20555Y18096D01*
X20547Y18102D01*
X20540Y18109D01*
X20532Y18115D01*
X20524Y18121D01*
X20515Y18126D01*
X20507Y18131D01*
X20498Y18136D01*
X20489Y18140D01*
X20480Y18144D01*
X20471Y18148D01*
X20461Y18151D01*
X20452Y18154D01*
X20442Y18157D01*
X20432Y18159D01*
X20422Y18161D01*
X20413Y18162D01*
X20403Y18163D01*
X20393Y18163D01*
X20383Y18163D01*
X20373Y18163D01*
X20363Y18162D01*
X20353Y18161D01*
X20343Y18160D01*
X20333Y18158D01*
X20323Y18156D01*
X20314Y18153D01*
X20304Y18150D01*
X20295Y18146D01*
X20286Y18142D01*
X20277Y18138D01*
X20268Y18134D01*
X20259Y18129D01*
X20251Y18123D01*
X20243Y18118D01*
X20235Y18112D01*
X20227Y18106D01*
X20219Y18099D01*
X20212Y18092D01*
X20205Y18085D01*
X20198Y18078D01*
X20192Y18070D01*
X20186Y18062D01*
X20180Y18054D01*
X20175Y18045D01*
X20170Y18037D01*
X20165Y18028D01*
X20161Y18019D01*
X20157Y18010D01*
X20154Y18000D01*
X20150Y17991D01*
X20148Y17981D01*
X20145Y17972D01*
X20143Y17962D01*
X20142Y17952D01*
X20140Y17942D01*
X20140Y17932D01*
X20139Y17922D01*
Y17912D01*
X20140Y17902D01*
X20140Y17892D01*
X20142Y17883D01*
X20143Y17873D01*
X20145Y17863D01*
X20148Y17853D01*
X20150Y17844D01*
X20154Y17834D01*
X20157Y17825D01*
X20161Y17816D01*
X20165Y17807D01*
X20170Y17798D01*
X20175Y17789D01*
X20180Y17781D01*
X20186Y17773D01*
X20192Y17765D01*
X20198Y17757D01*
X20205Y17750D01*
X20212Y17742D01*
X20219Y17736D01*
X20227Y17729D01*
X20235Y17723D01*
X20243Y17717D01*
X20251Y17711D01*
X20259Y17706D01*
X20268Y17701D01*
X20277Y17696D01*
X20286Y17692D01*
X20295Y17688D01*
X20304Y17685D01*
X20314Y17682D01*
X20323Y17679D01*
X20333Y17677D01*
X20343Y17675D01*
X20353Y17673D01*
X20363Y17672D01*
X20373Y17672D01*
X20383Y17671D01*
X20393Y17671D01*
X20403Y17672D01*
X20413Y17673D01*
X20422Y17674D01*
X20432Y17676D01*
X20442Y17678D01*
X20452Y17680D01*
X20461Y17683D01*
X20471Y17687D01*
X20480Y17690D01*
X20489Y17694D01*
X20498Y17699D01*
X20507Y17703D01*
X20515Y17709D01*
X20524Y17714D01*
X20532Y17720D01*
X20540Y17726D01*
X20547Y17732D01*
X20555Y17739D01*
X20562Y17746D01*
X20569Y17753D01*
X20575Y17761D01*
X20581Y17769D01*
X20587Y17777D01*
X20593Y17785D01*
X20598Y17794D01*
X20603Y17802D01*
X20607Y17811D01*
X20611Y17820D01*
X20615Y17830D01*
X20618Y17839D01*
X20621Y17848D01*
X20624Y17858D01*
X20626Y17868D01*
X20628Y17878D01*
X20629Y17887D01*
X20630Y17897D01*
X20631Y17907D01*
X20631Y17917D01*
X18793Y18058D02*
X18792Y18068D01*
X18792Y18078D01*
X18791Y18088D01*
X18789Y18098D01*
X18787Y18108D01*
X18785Y18118D01*
X18783Y18127D01*
X18780Y18137D01*
X18776Y18146D01*
X18773Y18155D01*
X18768Y18164D01*
X18764Y18173D01*
X18759Y18182D01*
X18754Y18191D01*
X18748Y18199D01*
X18743Y18207D01*
X18736Y18215D01*
X18730Y18222D01*
X18723Y18230D01*
X18716Y18237D01*
X18709Y18243D01*
X18701Y18250D01*
X18693Y18256D01*
X18685Y18262D01*
X18677Y18267D01*
X18668Y18272D01*
X18659Y18277D01*
X18650Y18281D01*
X18641Y18285D01*
X18632Y18289D01*
X18622Y18292D01*
X18613Y18295D01*
X18603Y18298D01*
X18594Y18300D01*
X18584Y18302D01*
X18574Y18303D01*
X18564Y18304D01*
X18554Y18304D01*
X18544Y18304D01*
X18534Y18304D01*
X18524Y18303D01*
X18514Y18302D01*
X18504Y18301D01*
X18494Y18299D01*
X18485Y18297D01*
X18475Y18294D01*
X18466Y18291D01*
X18456Y18287D01*
X18447Y18283D01*
X18438Y18279D01*
X18429Y18275D01*
X18421Y18270D01*
X18412Y18264D01*
X18404Y18259D01*
X18396Y18253D01*
X18388Y18247D01*
X18381Y18240D01*
X18373Y18233D01*
X18366Y18226D01*
X18360Y18219D01*
X18353Y18211D01*
X18347Y18203D01*
X18342Y18195D01*
X18336Y18186D01*
X18331Y18178D01*
X18327Y18169D01*
X18322Y18160D01*
X18318Y18151D01*
X18315Y18141D01*
X18312Y18132D01*
X18309Y18122D01*
X18306Y18113D01*
X18304Y18103D01*
X18303Y18093D01*
X18302Y18083D01*
X18301Y18073D01*
X18300Y18063D01*
Y18053D01*
X18301Y18043D01*
X18302Y18033D01*
X18303Y18024D01*
X18304Y18014D01*
X18306Y18004D01*
X18309Y17994D01*
X18312Y17985D01*
X18315Y17975D01*
X18318Y17966D01*
X18322Y17957D01*
X18327Y17948D01*
X18331Y17939D01*
X18336Y17930D01*
X18342Y17922D01*
X18347Y17914D01*
X18353Y17906D01*
X18360Y17898D01*
X18366Y17891D01*
X18373Y17883D01*
X18381Y17877D01*
X18388Y17870D01*
X18396Y17864D01*
X18404Y17858D01*
X18412Y17852D01*
X18421Y17847D01*
X18429Y17842D01*
X18438Y17837D01*
X18447Y17833D01*
X18456Y17829D01*
X18466Y17826D01*
X18475Y17823D01*
X18485Y17820D01*
X18494Y17818D01*
X18504Y17816D01*
X18514Y17814D01*
X18524Y17813D01*
X18534Y17813D01*
X18544Y17812D01*
X18554Y17812D01*
X18564Y17813D01*
X18574Y17814D01*
X18584Y17815D01*
X18594Y17817D01*
X18603Y17819D01*
X18613Y17821D01*
X18622Y17824D01*
X18632Y17828D01*
X18641Y17831D01*
X18650Y17835D01*
X18659Y17840D01*
X18668Y17844D01*
X18677Y17850D01*
X18685Y17855D01*
X18693Y17861D01*
X18701Y17867D01*
X18709Y17873D01*
X18716Y17880D01*
X18723Y17887D01*
X18730Y17894D01*
X18736Y17902D01*
X18743Y17910D01*
X18748Y17918D01*
X18754Y17926D01*
X18759Y17935D01*
X18764Y17943D01*
X18768Y17952D01*
X18773Y17961D01*
X18776Y17971D01*
X18780Y17980D01*
X18783Y17989D01*
X18785Y17999D01*
X18787Y18009D01*
X18789Y18019D01*
X18791Y18028D01*
X18792Y18038D01*
X18792Y18048D01*
X18793Y18058D01*
X23223Y19038D02*
Y19077D01*
Y19038D02*
X23263D01*
X23223Y18999D02*
Y19038D01*
X23184D02*
X23223D01*
X24020Y19051D02*
Y19090D01*
Y19051D02*
X24059D01*
X24020Y19012D02*
Y19051D01*
X23980D02*
X24020D01*
X24684Y19077D02*
Y19116D01*
Y19077D02*
X24723D01*
X24684Y19038D02*
Y19077D01*
X24644D02*
X24684D01*
X23136Y18428D02*
X23136Y18270D01*
X22742Y18428D02*
X23136D01*
X22742Y18270D02*
X22742Y18428D01*
X22742Y18270D02*
X22742Y18300D01*
X23136D01*
X23892Y18437D02*
X23892Y18279D01*
X23498Y18437D02*
X23892D01*
X23498Y18279D02*
X23498Y18437D01*
X23498Y18279D02*
X23498Y18309D01*
X23892D01*
X24596Y18296D02*
Y18454D01*
X24202D02*
X24596D01*
X24202Y18296D02*
Y18454D01*
Y18296D02*
Y18326D01*
X24596D01*
X16846Y16214D02*
X16996D01*
X16846Y16514D02*
X16996D01*
X17021Y16014D02*
Y16714D01*
X16821D02*
X17021D01*
X17771Y16214D02*
Y16514D01*
Y16714D01*
Y16514D02*
X17821D01*
X17771Y16014D02*
Y16214D01*
X16821Y16664D02*
Y16714D01*
X17771D01*
X16821Y16014D02*
X17771D01*
X16821D02*
Y16664D01*
X17821Y16214D02*
Y16514D01*
X17771Y16214D02*
X17821D01*
X20376Y18907D02*
X20415D01*
Y18947D01*
Y18907D02*
X20455D01*
X20415Y18868D02*
Y18907D01*
X20346Y18227D02*
X20385D01*
Y18267D01*
Y18227D02*
X20425D01*
X20385Y18188D02*
Y18227D01*
X18546Y17748D02*
X18586D01*
X18546Y17709D02*
Y17748D01*
X18507D02*
X18546D01*
Y17788D01*
X20551Y19091D02*
X20583D01*
X19333D02*
X20551D01*
X19333Y19321D02*
X20583D01*
X19413Y19021D02*
X20583D01*
Y19201D01*
X19333Y19021D02*
X19413D01*
X19333D02*
Y19321D01*
X20583Y19201D02*
Y19321D01*
X20957Y18787D02*
X21115Y18787D01*
X20957Y18393D02*
Y18787D01*
Y18393D02*
X21115Y18393D01*
X21085Y18393D02*
X21115Y18393D01*
X21085Y18393D02*
Y18787D01*
X20960Y18100D02*
X21117Y18100D01*
X20960Y17706D02*
Y18100D01*
Y17706D02*
X21117Y17706D01*
X21087Y17706D02*
X21117Y17706D01*
X21087Y17706D02*
Y18100D01*
X19107Y18247D02*
X19265D01*
X19107Y17853D02*
Y18247D01*
Y17853D02*
X19265D01*
X19235D02*
X19265D01*
X19235D02*
Y18247D01*
X17021Y15630D02*
X17121D01*
X17021D02*
Y19567D01*
X17121D01*
Y15630D02*
Y19567D01*
D20*
X17785Y17226D02*
X17759D01*
Y17206D01*
X17772D01*
X17759D01*
Y17186D01*
X17799D02*
X17812D01*
X17805D01*
Y17226D01*
X17799Y17220D01*
X18243Y17222D02*
X18216D01*
Y17202D01*
X18229D01*
X18216D01*
Y17182D01*
X18256Y17216D02*
X18263Y17222D01*
X18276D01*
X18283Y17216D01*
Y17209D01*
X18276Y17202D01*
X18269D01*
X18276D01*
X18283Y17196D01*
Y17189D01*
X18276Y17182D01*
X18263D01*
X18256Y17189D01*
X25365Y19199D02*
X25392D01*
X25378D01*
Y19159D01*
X25405D02*
Y19199D01*
X25425D01*
X25432Y19193D01*
Y19179D01*
X25425Y19173D01*
X25405D01*
X25445Y19159D02*
X25458D01*
X25452D01*
Y19199D01*
X25445Y19193D01*
X25478D02*
X25485Y19199D01*
X25498D01*
X25505Y19193D01*
Y19186D01*
X25498Y19179D01*
X25492D01*
X25498D01*
X25505Y19173D01*
Y19166D01*
X25498Y19159D01*
X25485D01*
X25478Y19166D01*
X25119Y19360D02*
X25146D01*
X25132D01*
Y19320D01*
X25159D02*
Y19360D01*
X25179D01*
X25186Y19353D01*
Y19340D01*
X25179Y19333D01*
X25159D01*
X25199Y19353D02*
X25206Y19360D01*
X25219D01*
X25226Y19353D01*
Y19347D01*
X25219Y19340D01*
X25226Y19333D01*
Y19327D01*
X25219Y19320D01*
X25206D01*
X25199Y19327D01*
Y19333D01*
X25206Y19340D01*
X25199Y19347D01*
Y19353D01*
X25206Y19340D02*
X25219D01*
X24658Y17313D02*
Y17353D01*
X24678D01*
X24684Y17347D01*
Y17333D01*
X24678Y17327D01*
X24658D01*
X24724Y17313D02*
X24698D01*
X24724Y17340D01*
Y17347D01*
X24718Y17353D01*
X24704D01*
X24698Y17347D01*
X25021Y18663D02*
Y18703D01*
X25041D01*
X25047Y18696D01*
Y18683D01*
X25041Y18676D01*
X25021D01*
X25060Y18663D02*
X25074D01*
X25067D01*
Y18703D01*
X25060Y18696D01*
X25532Y17483D02*
X25545D01*
X25539D01*
Y17523D01*
X25532Y17517D01*
X25027Y17008D02*
X25040D01*
X25034D01*
Y17048D01*
X25027Y17042D01*
X25060D02*
X25067Y17048D01*
X25080D01*
X25087Y17042D01*
Y17035D01*
X25080Y17028D01*
X25074D01*
X25080D01*
X25087Y17022D01*
Y17015D01*
X25080Y17008D01*
X25067D01*
X25060Y17015D01*
X25027Y18153D02*
X25040D01*
X25034D01*
Y18193D01*
X25027Y18187D01*
X25087Y18193D02*
X25074Y18187D01*
X25060Y18173D01*
Y18160D01*
X25067Y18153D01*
X25080D01*
X25087Y18160D01*
Y18167D01*
X25080Y18173D01*
X25060D01*
X25077Y17478D02*
Y17518D01*
X25057Y17498D01*
X25084D01*
X25037Y17673D02*
X25050D01*
X25044D01*
Y17713D01*
X25037Y17707D01*
X25097Y17673D02*
X25070D01*
X25097Y17700D01*
Y17707D01*
X25090Y17713D01*
X25077D01*
X25070Y17707D01*
X25017Y17258D02*
X25030D01*
X25024D01*
Y17298D01*
X25017Y17292D01*
X25070Y17258D02*
Y17298D01*
X25050Y17278D01*
X25077D01*
X25032Y17903D02*
X25045D01*
X25039D01*
Y17943D01*
X25032Y17937D01*
X25092Y17943D02*
X25065D01*
Y17923D01*
X25079Y17930D01*
X25085D01*
X25092Y17923D01*
Y17910D01*
X25085Y17903D01*
X25072D01*
X25065Y17910D01*
X23010Y19340D02*
X23003Y19347D01*
X22990D01*
X22983Y19340D01*
Y19314D01*
X22990Y19307D01*
X23003D01*
X23010Y19314D01*
X23023Y19340D02*
X23030Y19347D01*
X23043D01*
X23050Y19340D01*
Y19334D01*
X23043Y19327D01*
X23036D01*
X23043D01*
X23050Y19320D01*
Y19314D01*
X23043Y19307D01*
X23030D01*
X23023Y19314D01*
X23792Y19351D02*
X23785Y19358D01*
X23772D01*
X23765Y19351D01*
Y19325D01*
X23772Y19318D01*
X23785D01*
X23792Y19325D01*
X23832Y19358D02*
X23818Y19351D01*
X23805Y19338D01*
Y19325D01*
X23812Y19318D01*
X23825D01*
X23832Y19325D01*
Y19331D01*
X23825Y19338D01*
X23805D01*
X24619Y19295D02*
X24612Y19302D01*
X24599D01*
X24592Y19295D01*
Y19269D01*
X24599Y19262D01*
X24612D01*
X24619Y19269D01*
X24632D02*
X24639Y19262D01*
X24652D01*
X24659Y19269D01*
Y19295D01*
X24652Y19302D01*
X24639D01*
X24632Y19295D01*
Y19289D01*
X24639Y19282D01*
X24659D01*
X24667Y16515D02*
Y16555D01*
X24687D01*
X24694Y16548D01*
Y16535D01*
X24687Y16528D01*
X24667D01*
X24734Y16555D02*
X24707D01*
Y16535D01*
X24720Y16542D01*
X24727D01*
X24734Y16535D01*
Y16522D01*
X24727Y16515D01*
X24714D01*
X24707Y16522D01*
X25592Y16258D02*
X25619D01*
X25605D01*
Y16218D01*
X25632D02*
Y16258D01*
X25652D01*
X25659Y16251D01*
Y16238D01*
X25652Y16231D01*
X25632D01*
X25672Y16218D02*
X25685D01*
X25679D01*
Y16258D01*
X25672Y16251D01*
X24643Y17556D02*
X24670D01*
X24656D01*
Y17516D01*
X24683D02*
Y17556D01*
X24703D01*
X24710Y17549D01*
Y17536D01*
X24703Y17529D01*
X24683D01*
X24723Y17523D02*
X24730Y17516D01*
X24743D01*
X24750Y17523D01*
Y17549D01*
X24743Y17556D01*
X24730D01*
X24723Y17549D01*
Y17543D01*
X24730Y17536D01*
X24750D01*
X24828Y18827D02*
X24855D01*
X24841D01*
Y18787D01*
X24868D02*
Y18827D01*
X24888D01*
X24895Y18820D01*
Y18807D01*
X24888Y18800D01*
X24868D01*
X24908Y18787D02*
X24921D01*
X24915D01*
Y18827D01*
X24908Y18820D01*
X24941Y18787D02*
X24955D01*
X24948D01*
Y18827D01*
X24941Y18820D01*
X24683Y15944D02*
X24710D01*
X24696D01*
Y15904D01*
X24723D02*
Y15944D01*
X24743D01*
X24750Y15937D01*
Y15924D01*
X24743Y15917D01*
X24723D01*
X24763Y15904D02*
X24776D01*
X24770D01*
Y15944D01*
X24763Y15937D01*
X24823Y15944D02*
X24796D01*
Y15924D01*
X24810Y15931D01*
X24816D01*
X24823Y15924D01*
Y15911D01*
X24816Y15904D01*
X24803D01*
X24796Y15911D01*
X23249Y18304D02*
X23282D01*
X23289Y18311D01*
Y18324D01*
X23282Y18331D01*
X23249D01*
X23289Y18364D02*
X23249D01*
X23269Y18344D01*
Y18371D01*
X24007Y18330D02*
X24040D01*
X24047Y18337D01*
Y18350D01*
X24040Y18357D01*
X24007D01*
Y18397D02*
Y18370D01*
X24027D01*
X24021Y18383D01*
Y18390D01*
X24027Y18397D01*
X24040D01*
X24047Y18390D01*
Y18377D01*
X24040Y18370D01*
X24717Y18315D02*
X24750D01*
X24757Y18322D01*
Y18335D01*
X24750Y18342D01*
X24717D01*
Y18382D02*
X24724Y18368D01*
X24737Y18355D01*
X24750D01*
X24757Y18362D01*
Y18375D01*
X24750Y18382D01*
X24744D01*
X24737Y18375D01*
Y18355D01*
X18201Y15854D02*
X18194Y15847D01*
Y15834D01*
X18201Y15827D01*
X18227D01*
X18234Y15834D01*
Y15847D01*
X18227Y15854D01*
X18234Y15894D02*
Y15867D01*
X18208Y15894D01*
X18201D01*
X18194Y15887D01*
Y15874D01*
X18201Y15867D01*
X18234Y15927D02*
X18194D01*
X18214Y15907D01*
Y15934D01*
X16787Y16019D02*
X16747D01*
Y16039D01*
X16754Y16045D01*
X16767D01*
X16774Y16039D01*
Y16019D01*
X16754Y16059D02*
X16747Y16065D01*
Y16079D01*
X16754Y16085D01*
X16760D01*
X16767Y16079D01*
Y16072D01*
Y16079D01*
X16774Y16085D01*
X16780D01*
X16787Y16079D01*
Y16065D01*
X16780Y16059D01*
X24971Y16469D02*
X24964Y16462D01*
Y16449D01*
X24971Y16442D01*
X24998D01*
X25004Y16449D01*
Y16462D01*
X24998Y16469D01*
X25004Y16482D02*
Y16495D01*
Y16489D01*
X24964D01*
X24971Y16482D01*
X24905Y15932D02*
X24898Y15925D01*
Y15912D01*
X24905Y15905D01*
X24932D01*
X24938Y15912D01*
Y15925D01*
X24932Y15932D01*
X24938Y15972D02*
Y15945D01*
X24912Y15972D01*
X24905D01*
X24898Y15965D01*
Y15952D01*
X24905Y15945D01*
X24719Y18039D02*
Y18065D01*
X24712Y18072D01*
X24699D01*
X24692Y18065D01*
Y18039D01*
X24699Y18032D01*
X24712D01*
X24706Y18045D02*
X24719Y18032D01*
X24712D02*
X24719Y18039D01*
X24732Y18032D02*
X24746D01*
X24739D01*
Y18072D01*
X24732Y18065D01*
X25369Y16157D02*
X25362Y16164D01*
X25349D01*
X25342Y16157D01*
Y16151D01*
X25349Y16144D01*
X25362D01*
X25369Y16137D01*
Y16131D01*
X25362Y16124D01*
X25349D01*
X25342Y16131D01*
X25382Y16124D02*
X25396D01*
X25389D01*
Y16164D01*
X25382Y16157D01*
X25199Y16358D02*
Y16325D01*
X25206Y16318D01*
X25219D01*
X25226Y16325D01*
Y16358D01*
X25239Y16318D02*
X25253D01*
X25246D01*
Y16358D01*
X25239Y16351D01*
X24688Y17669D02*
Y17636D01*
X24695Y17629D01*
X24708D01*
X24715Y17636D01*
Y17669D01*
X24728Y17662D02*
X24735Y17669D01*
X24748D01*
X24755Y17662D01*
Y17656D01*
X24748Y17649D01*
X24742D01*
X24748D01*
X24755Y17642D01*
Y17636D01*
X24748Y17629D01*
X24735D01*
X24728Y17636D01*
X25274Y15833D02*
Y15800D01*
X25281Y15793D01*
X25294D01*
X25301Y15800D01*
Y15833D01*
X25341Y15793D02*
X25314D01*
X25341Y15820D01*
Y15826D01*
X25334Y15833D01*
X25321D01*
X25314Y15826D01*
X20173Y18369D02*
X20166Y18376D01*
X20153D01*
X20146Y18369D01*
Y18343D01*
X20153Y18336D01*
X20166D01*
X20173Y18343D01*
X20186Y18336D02*
X20199D01*
X20193D01*
Y18376D01*
X20186Y18369D01*
X20219D02*
X20226Y18376D01*
X20239D01*
X20246Y18369D01*
Y18363D01*
X20239Y18356D01*
X20233D01*
X20239D01*
X20246Y18349D01*
Y18343D01*
X20239Y18336D01*
X20226D01*
X20219Y18343D01*
X20173Y17676D02*
X20166Y17683D01*
X20153D01*
X20146Y17676D01*
Y17650D01*
X20153Y17643D01*
X20166D01*
X20173Y17650D01*
X20186Y17643D02*
X20199D01*
X20193D01*
Y17683D01*
X20186Y17676D01*
X20219D02*
X20226Y17683D01*
X20239D01*
X20246Y17676D01*
Y17670D01*
X20239Y17663D01*
X20246Y17656D01*
Y17650D01*
X20239Y17643D01*
X20226D01*
X20219Y17650D01*
Y17656D01*
X20226Y17663D01*
X20219Y17670D01*
Y17676D01*
X20226Y17663D02*
X20239D01*
X18361Y18363D02*
X18354Y18370D01*
X18341D01*
X18334Y18363D01*
Y18337D01*
X18341Y18330D01*
X18354D01*
X18361Y18337D01*
X18401Y18330D02*
X18374D01*
X18401Y18357D01*
Y18363D01*
X18394Y18370D01*
X18381D01*
X18374Y18363D01*
X18414Y18330D02*
X18427D01*
X18421D01*
Y18370D01*
X18414Y18363D01*
X19209Y18887D02*
Y18847D01*
Y18860D01*
X19236Y18887D01*
X19216Y18867D01*
X19236Y18847D01*
X19249D02*
X19262D01*
X19256D01*
Y18887D01*
X19249Y18880D01*
X20493Y19377D02*
Y19417D01*
X20513D01*
X20520Y19410D01*
Y19397D01*
X20513Y19390D01*
X20493D01*
X20553Y19377D02*
Y19417D01*
X20533Y19397D01*
X20560D01*
X23255Y19169D02*
X23282D01*
X23268D01*
Y19129D01*
X23295D02*
Y19169D01*
X23315D01*
X23322Y19162D01*
Y19149D01*
X23315Y19142D01*
X23295D01*
X23362Y19129D02*
X23335D01*
X23362Y19156D01*
Y19162D01*
X23355Y19169D01*
X23342D01*
X23335Y19162D01*
X23966Y19175D02*
X23993D01*
X23979D01*
Y19135D01*
X24006D02*
Y19175D01*
X24026D01*
X24033Y19168D01*
Y19155D01*
X24026Y19148D01*
X24006D01*
X24046Y19168D02*
X24053Y19175D01*
X24066D01*
X24073Y19168D01*
Y19161D01*
X24066Y19155D01*
X24059D01*
X24066D01*
X24073Y19148D01*
Y19141D01*
X24066Y19135D01*
X24053D01*
X24046Y19141D01*
X24825Y19165D02*
X24852D01*
X24838D01*
Y19125D01*
X24865D02*
Y19165D01*
X24885D01*
X24892Y19158D01*
Y19145D01*
X24885Y19138D01*
X24865D01*
X24932Y19165D02*
X24905D01*
Y19145D01*
X24918Y19152D01*
X24925D01*
X24932Y19145D01*
Y19132D01*
X24925Y19125D01*
X24912D01*
X24905Y19132D01*
X20680Y19090D02*
X20707D01*
X20693D01*
Y19050D01*
X20720D02*
Y19090D01*
X20740D01*
X20747Y19083D01*
Y19070D01*
X20740Y19063D01*
X20720D01*
X20787Y19090D02*
X20773Y19083D01*
X20760Y19070D01*
Y19056D01*
X20767Y19050D01*
X20780D01*
X20787Y19056D01*
Y19063D01*
X20780Y19070D01*
X20760D01*
X20910Y19106D02*
X20937D01*
X20923D01*
Y19066D01*
X20950D02*
Y19106D01*
X20970D01*
X20977Y19099D01*
Y19086D01*
X20970Y19079D01*
X20950D01*
X20990Y19106D02*
X21017D01*
Y19099D01*
X20990Y19073D01*
Y19066D01*
X25170Y18853D02*
X25197D01*
X25183D01*
Y18813D01*
X25210D02*
Y18853D01*
X25230D01*
X25237Y18846D01*
Y18833D01*
X25230Y18826D01*
X25210D01*
X25250Y18813D02*
X25263D01*
X25257D01*
Y18853D01*
X25250Y18846D01*
X25283D02*
X25290Y18853D01*
X25303D01*
X25310Y18846D01*
Y18820D01*
X25303Y18813D01*
X25290D01*
X25283Y18820D01*
Y18846D01*
X17879Y15839D02*
X17906D01*
X17892D01*
Y15799D01*
X17919D02*
Y15839D01*
X17939D01*
X17946Y15832D01*
Y15819D01*
X17939Y15812D01*
X17919D01*
X17959Y15799D02*
X17972D01*
X17966D01*
Y15839D01*
X17959Y15832D01*
X18019Y15799D02*
X17992D01*
X18019Y15826D01*
Y15832D01*
X18012Y15839D01*
X17999D01*
X17992Y15832D01*
X18890Y18954D02*
X18917D01*
X18903D01*
Y18914D01*
X18930D02*
Y18954D01*
X18950D01*
X18957Y18947D01*
Y18934D01*
X18950Y18927D01*
X18930D01*
X18970Y18914D02*
X18983D01*
X18977D01*
Y18954D01*
X18970Y18947D01*
X19023Y18914D02*
Y18954D01*
X19003Y18934D01*
X19030D01*
X21012Y18952D02*
Y18919D01*
X21019Y18912D01*
X21032D01*
X21039Y18919D01*
Y18952D01*
X21052Y18945D02*
X21059Y18952D01*
X21072D01*
X21079Y18945D01*
Y18939D01*
X21072Y18932D01*
X21079Y18925D01*
Y18919D01*
X21072Y18912D01*
X21059D01*
X21052Y18919D01*
Y18925D01*
X21059Y18932D01*
X21052Y18939D01*
Y18945D01*
X21059Y18932D02*
X21072D01*
X21006Y18263D02*
Y18230D01*
X21013Y18223D01*
X21026D01*
X21033Y18230D01*
Y18263D01*
X21046Y18230D02*
X21053Y18223D01*
X21066D01*
X21073Y18230D01*
Y18257D01*
X21066Y18263D01*
X21053D01*
X21046Y18257D01*
Y18250D01*
X21053Y18243D01*
X21073D01*
X19155Y18418D02*
Y18385D01*
X19162Y18378D01*
X19175D01*
X19182Y18385D01*
Y18418D01*
X19195Y18378D02*
X19208D01*
X19202D01*
Y18418D01*
X19195Y18411D01*
X19228D02*
X19235Y18418D01*
X19248D01*
X19255Y18411D01*
Y18385D01*
X19248Y18378D01*
X19235D01*
X19228Y18385D01*
Y18411D01*
X25477Y15823D02*
Y15863D01*
X25497D01*
X25504Y15856D01*
Y15843D01*
X25497Y15836D01*
X25477D01*
X25544Y15856D02*
X25537Y15863D01*
X25524D01*
X25517Y15856D01*
Y15829D01*
X25524Y15823D01*
X25537D01*
X25544Y15829D01*
Y15843D01*
X25531D01*
X25557Y15823D02*
Y15863D01*
X25571Y15849D01*
X25584Y15863D01*
Y15823D01*
X17750Y19414D02*
X17777D01*
Y19408D01*
X17750Y19381D01*
Y19374D01*
X17790Y19408D02*
X17797Y19414D01*
X17810D01*
X17817Y19408D01*
Y19401D01*
X17810Y19394D01*
X17817Y19388D01*
Y19381D01*
X17810Y19374D01*
X17797D01*
X17790Y19381D01*
Y19388D01*
X17797Y19394D01*
X17790Y19401D01*
Y19408D01*
X17797Y19394D02*
X17810D01*
X17830Y19408D02*
X17837Y19414D01*
X17850D01*
X17857Y19408D01*
Y19381D01*
X17850Y19374D01*
X17837D01*
X17830Y19381D01*
Y19408D01*
X17870Y19394D02*
X17897D01*
X17910Y19408D02*
X17917Y19414D01*
X17930D01*
X17937Y19408D01*
Y19381D01*
X17930Y19374D01*
X17917D01*
X17910Y19381D01*
Y19408D01*
X17950D02*
X17957Y19414D01*
X17970D01*
X17977Y19408D01*
Y19381D01*
X17970Y19374D01*
X17957D01*
X17950Y19381D01*
Y19408D01*
X17990D02*
X17997Y19414D01*
X18010D01*
X18017Y19408D01*
Y19381D01*
X18010Y19374D01*
X17997D01*
X17990Y19381D01*
Y19408D01*
X18057Y19374D02*
X18030D01*
X18057Y19401D01*
Y19408D01*
X18050Y19414D01*
X18037D01*
X18030Y19408D01*
X18070D02*
X18077Y19414D01*
X18090D01*
X18097Y19408D01*
Y19401D01*
X18090Y19394D01*
X18097Y19388D01*
Y19381D01*
X18090Y19374D01*
X18077D01*
X18070Y19381D01*
Y19388D01*
X18077Y19394D01*
X18070Y19401D01*
Y19408D01*
X18077Y19394D02*
X18090D01*
X17796Y19312D02*
X17789Y19319D01*
X17776D01*
X17769Y19312D01*
Y19306D01*
X17776Y19299D01*
X17789D01*
X17796Y19292D01*
Y19286D01*
X17789Y19279D01*
X17776D01*
X17769Y19286D01*
X17836Y19312D02*
X17829Y19319D01*
X17816D01*
X17809Y19312D01*
Y19286D01*
X17816Y19279D01*
X17829D01*
X17836Y19286D01*
X17849Y19319D02*
Y19279D01*
Y19299D01*
X17876D01*
Y19319D01*
Y19279D01*
X17896Y19272D02*
X17902Y19279D01*
Y19286D01*
X17896D01*
Y19279D01*
X17902D01*
X17896Y19272D01*
X17889Y19266D01*
X17996Y19312D02*
X17989Y19319D01*
X17976D01*
X17969Y19312D01*
Y19306D01*
X17976Y19299D01*
X17989D01*
X17996Y19292D01*
Y19286D01*
X17989Y19279D01*
X17976D01*
X17969Y19286D01*
X18009Y19319D02*
X18022D01*
X18016D01*
Y19279D01*
X18009D01*
X18022D01*
X18042D02*
Y19319D01*
X18069Y19279D01*
Y19319D01*
X18082D02*
X18096D01*
X18089D01*
Y19279D01*
X18082D01*
X18096D01*
X18142Y19312D02*
X18136Y19319D01*
X18122D01*
X18116Y19312D01*
Y19306D01*
X18122Y19299D01*
X18136D01*
X18142Y19292D01*
Y19286D01*
X18136Y19279D01*
X18122D01*
X18116Y19286D01*
X18156Y19319D02*
X18182D01*
X18169D01*
Y19279D01*
X18196D02*
Y19319D01*
X18216D01*
X18222Y19312D01*
Y19299D01*
X18216Y19292D01*
X18196D01*
X18209D02*
X18222Y19279D01*
X18255Y19319D02*
X18242D01*
X18236Y19312D01*
Y19286D01*
X18242Y19279D01*
X18255D01*
X18262Y19286D01*
Y19312D01*
X18255Y19319D01*
X18315Y19279D02*
Y19319D01*
X18335D01*
X18342Y19312D01*
Y19299D01*
X18335Y19292D01*
X18315D01*
X18375Y19319D02*
X18362D01*
X18355Y19312D01*
Y19286D01*
X18362Y19279D01*
X18375D01*
X18382Y19286D01*
Y19312D01*
X18375Y19319D01*
X18395D02*
Y19279D01*
X18409Y19292D01*
X18422Y19279D01*
Y19319D01*
X18462D02*
X18435D01*
Y19279D01*
X18462D01*
X18435Y19299D02*
X18449D01*
X18475Y19279D02*
Y19319D01*
X18495D01*
X18502Y19312D01*
Y19299D01*
X18495Y19292D01*
X18475D01*
X18489D02*
X18502Y19279D01*
X18582Y19312D02*
X18575Y19319D01*
X18562D01*
X18555Y19312D01*
Y19306D01*
X18562Y19299D01*
X18575D01*
X18582Y19292D01*
Y19286D01*
X18575Y19279D01*
X18562D01*
X18555Y19286D01*
X18595Y19319D02*
Y19286D01*
X18602Y19279D01*
X18615D01*
X18622Y19286D01*
Y19319D01*
X18635Y19279D02*
Y19319D01*
X18655D01*
X18662Y19312D01*
Y19299D01*
X18655Y19292D01*
X18635D01*
X18675Y19279D02*
Y19319D01*
X18695D01*
X18702Y19312D01*
Y19299D01*
X18695Y19292D01*
X18675D01*
X18715Y19319D02*
Y19279D01*
X18742D01*
X18755Y19319D02*
Y19312D01*
X18769Y19299D01*
X18782Y19312D01*
Y19319D01*
X18769Y19299D02*
Y19279D01*
X18875D02*
Y19319D01*
X18895D01*
X18902Y19312D01*
Y19299D01*
X18895Y19292D01*
X18875D01*
X18889D02*
X18902Y19279D01*
X18942Y19319D02*
X18915D01*
Y19279D01*
X18942D01*
X18915Y19299D02*
X18929D01*
X18955Y19319D02*
Y19292D01*
X18969Y19279D01*
X18982Y19292D01*
Y19319D01*
X18995Y19306D02*
X19002D01*
Y19299D01*
X18995D01*
Y19306D01*
Y19286D02*
X19002D01*
Y19279D01*
X18995D01*
Y19286D01*
D21*
X19956Y14499D02*
Y14454D01*
X19937Y14488D02*
X19975Y14465D01*
Y14488D02*
X19937Y14465D01*
X19995Y14427D02*
X19991Y14423D01*
X19995Y14419D01*
X19999Y14423D01*
X19995Y14427D01*
X20074Y14480D02*
X20070Y14488D01*
X20062Y14496D01*
X20055Y14499D01*
X20039D01*
X20032Y14496D01*
X20024Y14488D01*
X20020Y14480D01*
X20017Y14469D01*
Y14450D01*
X20020Y14439D01*
X20024Y14431D01*
X20032Y14423D01*
X20039Y14419D01*
X20055D01*
X20062Y14423D01*
X20070Y14431D01*
X20074Y14439D01*
Y14450D01*
X20055D02*
X20074D01*
X20119Y14499D02*
Y14419D01*
X20092Y14499D02*
X20145D01*
X20178D02*
X20170Y14496D01*
X20162Y14488D01*
X20159Y14480D01*
X20155Y14469D01*
Y14450D01*
X20159Y14439D01*
X20162Y14431D01*
X20170Y14423D01*
X20178Y14419D01*
X20193D01*
X20201Y14423D01*
X20208Y14431D01*
X20212Y14439D01*
X20216Y14450D01*
Y14469D01*
X20212Y14480D01*
X20208Y14488D01*
X20201Y14496D01*
X20193Y14499D01*
X20178D01*
X20297Y14454D02*
X20366D01*
X20479Y14499D02*
Y14419D01*
X20452Y14499D02*
X20506D01*
X20538D02*
X20530Y14496D01*
X20523Y14488D01*
X20519Y14480D01*
X20515Y14469D01*
Y14450D01*
X20519Y14439D01*
X20523Y14431D01*
X20530Y14423D01*
X20538Y14419D01*
X20553D01*
X20561Y14423D01*
X20569Y14431D01*
X20572Y14439D01*
X20576Y14450D01*
Y14469D01*
X20572Y14480D01*
X20569Y14488D01*
X20561Y14496D01*
X20553Y14499D01*
X20538D01*
X20595Y14458D02*
X20629D01*
X20640Y14461D01*
X20644Y14465D01*
X20648Y14473D01*
Y14484D01*
X20644Y14492D01*
X20640Y14496D01*
X20629Y14499D01*
X20595D01*
Y14419D01*
X20752Y14499D02*
X20744Y14496D01*
X20736Y14488D01*
X20733Y14480D01*
X20729Y14469D01*
Y14450D01*
X20733Y14439D01*
X20736Y14431D01*
X20744Y14423D01*
X20752Y14419D01*
X20767D01*
X20775Y14423D01*
X20782Y14431D01*
X20786Y14439D01*
X20790Y14450D01*
Y14469D01*
X20786Y14480D01*
X20782Y14488D01*
X20775Y14496D01*
X20767Y14499D01*
X20752D01*
X20808D02*
X20839Y14419D01*
X20869Y14499D02*
X20839Y14419D01*
X20929Y14499D02*
X20880D01*
Y14419D01*
X20929D01*
X20880Y14461D02*
X20910D01*
X20943Y14499D02*
Y14419D01*
Y14499D02*
X20977D01*
X20988Y14496D01*
X20992Y14492D01*
X20996Y14484D01*
Y14477D01*
X20992Y14469D01*
X20988Y14465D01*
X20977Y14461D01*
X20943D01*
X20969D02*
X20996Y14419D01*
X21014Y14499D02*
Y14419D01*
X21059D01*
X21129D02*
X21099Y14499D01*
X21068Y14419D01*
X21080Y14446D02*
X21118D01*
X21148Y14499D02*
X21178Y14461D01*
Y14419D01*
X21209Y14499D02*
X21178Y14461D01*
X21339Y14480D02*
X21335Y14488D01*
X21328Y14496D01*
X21320Y14499D01*
X21305D01*
X21297Y14496D01*
X21289Y14488D01*
X21286Y14480D01*
X21282Y14469D01*
Y14450D01*
X21286Y14439D01*
X21289Y14431D01*
X21297Y14423D01*
X21305Y14419D01*
X21320D01*
X21328Y14423D01*
X21335Y14431D01*
X21339Y14439D01*
Y14450D01*
X21320D02*
X21339D01*
X21407Y14499D02*
X21357D01*
Y14419D01*
X21407D01*
X21357Y14461D02*
X21388D01*
X21420Y14499D02*
Y14419D01*
Y14499D02*
X21454D01*
X21466Y14496D01*
X21470Y14492D01*
X21473Y14484D01*
Y14477D01*
X21470Y14469D01*
X21466Y14465D01*
X21454Y14461D01*
X21420D01*
X21447D02*
X21473Y14419D01*
X21491Y14499D02*
Y14419D01*
Y14499D02*
X21526D01*
X21537Y14496D01*
X21541Y14492D01*
X21545Y14484D01*
Y14477D01*
X21541Y14469D01*
X21537Y14465D01*
X21526Y14461D01*
X21491D02*
X21526D01*
X21537Y14458D01*
X21541Y14454D01*
X21545Y14446D01*
Y14435D01*
X21541Y14427D01*
X21537Y14423D01*
X21526Y14419D01*
X21491D01*
X21612Y14499D02*
X21563D01*
Y14419D01*
X21612D01*
X21563Y14461D02*
X21593D01*
X21625Y14499D02*
Y14419D01*
Y14499D02*
X21660D01*
X21671Y14496D01*
X21675Y14492D01*
X21679Y14484D01*
Y14477D01*
X21675Y14469D01*
X21671Y14465D01*
X21660Y14461D01*
X21625D01*
X21652D02*
X21679Y14419D01*
X21759Y14499D02*
Y14419D01*
Y14499D02*
X21786D01*
X21798Y14496D01*
X21805Y14488D01*
X21809Y14480D01*
X21813Y14469D01*
Y14450D01*
X21809Y14439D01*
X21805Y14431D01*
X21798Y14423D01*
X21786Y14419D01*
X21759D01*
X21892D02*
X21861Y14499D01*
X21831Y14419D01*
X21842Y14446D02*
X21880D01*
X21937Y14499D02*
Y14419D01*
X21910Y14499D02*
X21964D01*
X22034Y14419D02*
X22004Y14499D01*
X21973Y14419D01*
X21985Y14446D02*
X22023D01*
D22*
X21611Y19393D02*
X21571D01*
Y19363D01*
X21591D01*
X21571D01*
Y19333D01*
X21671Y19383D02*
X21661Y19393D01*
X21641D01*
X21631Y19383D01*
Y19373D01*
X21641Y19363D01*
X21661D01*
X21671Y19353D01*
Y19343D01*
X21661Y19333D01*
X21641D01*
X21631Y19343D01*
X21691Y19333D02*
X21711D01*
X21701D01*
Y19393D01*
X21691Y19383D01*
X21781Y19333D02*
X21741D01*
X21781Y19373D01*
Y19383D01*
X21771Y19393D01*
X21751D01*
X21741Y19383D01*
X21801Y19363D02*
X21841D01*
X21901Y19393D02*
X21861D01*
Y19363D01*
X21881Y19373D01*
X21891D01*
X21901Y19363D01*
Y19343D01*
X21891Y19333D01*
X21871D01*
X21861Y19343D01*
X21921Y19383D02*
X21931Y19393D01*
X21951D01*
X21961Y19383D01*
Y19343D01*
X21951Y19333D01*
X21931D01*
X21921Y19343D01*
Y19383D01*
X21981D02*
X21991Y19393D01*
X22011D01*
X22021Y19383D01*
Y19343D01*
X22011Y19333D01*
X21991D01*
X21981Y19343D01*
Y19383D01*
X22181Y19333D02*
X22161Y19353D01*
Y19373D01*
X22181Y19393D01*
X22211Y19363D02*
X22251D01*
X22231Y19383D02*
Y19343D01*
X22271Y19333D02*
X22311Y19373D01*
X22331Y19363D02*
X22371D01*
X22431Y19393D02*
X22391D01*
Y19363D01*
X22411Y19373D01*
X22421D01*
X22431Y19363D01*
Y19343D01*
X22421Y19333D01*
X22401D01*
X22391Y19343D01*
X22451Y19393D02*
Y19353D01*
X22471Y19333D01*
X22491Y19353D01*
Y19393D01*
X22511Y19333D02*
X22531Y19353D01*
Y19373D01*
X22511Y19393D01*
X23188Y15857D02*
X23148D01*
Y15827D01*
X23168D01*
X23148D01*
Y15797D01*
X23248Y15847D02*
X23238Y15857D01*
X23218D01*
X23208Y15847D01*
Y15837D01*
X23218Y15827D01*
X23238D01*
X23248Y15817D01*
Y15807D01*
X23238Y15797D01*
X23218D01*
X23208Y15807D01*
X23308Y15797D02*
X23268D01*
X23308Y15837D01*
Y15847D01*
X23298Y15857D01*
X23278D01*
X23268Y15847D01*
X23328D02*
X23338Y15857D01*
X23358D01*
X23368Y15847D01*
Y15837D01*
X23358Y15827D01*
X23368Y15817D01*
Y15807D01*
X23358Y15797D01*
X23338D01*
X23328Y15807D01*
Y15817D01*
X23338Y15827D01*
X23328Y15837D01*
Y15847D01*
X23338Y15827D02*
X23358D01*
X23388D02*
X23428D01*
X23448Y15857D02*
X23488D01*
Y15847D01*
X23448Y15807D01*
Y15797D01*
X23508Y15847D02*
X23518Y15857D01*
X23538D01*
X23548Y15847D01*
Y15807D01*
X23538Y15797D01*
X23518D01*
X23508Y15807D01*
Y15847D01*
X23568D02*
X23578Y15857D01*
X23598D01*
X23608Y15847D01*
Y15807D01*
X23598Y15797D01*
X23578D01*
X23568Y15807D01*
Y15847D01*
X23768Y15797D02*
X23748Y15817D01*
Y15837D01*
X23768Y15857D01*
X23798Y15827D02*
X23838D01*
X23818Y15847D02*
Y15807D01*
X23858Y15797D02*
X23898Y15837D01*
X23918Y15827D02*
X23958D01*
X24038Y15797D02*
X24058D01*
X24048D01*
Y15857D01*
X24038Y15847D01*
X24128Y15797D02*
X24088D01*
X24128Y15837D01*
Y15847D01*
X24118Y15857D01*
X24098D01*
X24088Y15847D01*
X24148Y15857D02*
Y15817D01*
X24168Y15797D01*
X24188Y15817D01*
Y15857D01*
X24208Y15797D02*
X24228Y15817D01*
Y15837D01*
X24208Y15857D01*
X21137D02*
X21097D01*
Y15827D01*
X21117D01*
X21097D01*
Y15797D01*
X21197Y15847D02*
X21187Y15857D01*
X21167D01*
X21157Y15847D01*
Y15837D01*
X21167Y15827D01*
X21187D01*
X21197Y15817D01*
Y15807D01*
X21187Y15797D01*
X21167D01*
X21157Y15807D01*
X21257Y15797D02*
X21217D01*
X21257Y15837D01*
Y15847D01*
X21247Y15857D01*
X21227D01*
X21217Y15847D01*
X21277D02*
X21287Y15857D01*
X21307D01*
X21317Y15847D01*
Y15837D01*
X21307Y15827D01*
X21317Y15817D01*
Y15807D01*
X21307Y15797D01*
X21287D01*
X21277Y15807D01*
Y15817D01*
X21287Y15827D01*
X21277Y15837D01*
Y15847D01*
X21287Y15827D02*
X21307D01*
X21337D02*
X21377D01*
X21427Y15797D02*
Y15857D01*
X21397Y15827D01*
X21437D01*
X21497Y15797D02*
X21457D01*
X21497Y15837D01*
Y15847D01*
X21487Y15857D01*
X21467D01*
X21457Y15847D01*
X21517D02*
X21527Y15857D01*
X21547D01*
X21557Y15847D01*
Y15807D01*
X21547Y15797D01*
X21527D01*
X21517Y15807D01*
Y15847D01*
X21717Y15797D02*
X21697Y15817D01*
Y15837D01*
X21717Y15857D01*
X21747Y15827D02*
X21787D01*
X21767Y15847D02*
Y15807D01*
X21847Y15797D02*
X21807D01*
X21847Y15837D01*
Y15847D01*
X21837Y15857D01*
X21817D01*
X21807Y15847D01*
X21867D02*
X21877Y15857D01*
X21897D01*
X21907Y15847D01*
Y15837D01*
X21897Y15827D01*
X21907Y15817D01*
Y15807D01*
X21897Y15797D01*
X21877D01*
X21867Y15807D01*
Y15817D01*
X21877Y15827D01*
X21867Y15837D01*
Y15847D01*
X21877Y15827D02*
X21897D01*
X21927Y15857D02*
Y15817D01*
X21947Y15797D01*
X21967Y15817D01*
Y15857D01*
X21987Y15797D02*
X22007Y15817D01*
Y15837D01*
X21987Y15857D01*
X19230D02*
X19190D01*
Y15827D01*
X19210D01*
X19190D01*
Y15797D01*
X19290Y15847D02*
X19280Y15857D01*
X19260D01*
X19250Y15847D01*
Y15837D01*
X19260Y15827D01*
X19280D01*
X19290Y15817D01*
Y15807D01*
X19280Y15797D01*
X19260D01*
X19250Y15807D01*
X19310Y15797D02*
X19330D01*
X19320D01*
Y15857D01*
X19310Y15847D01*
X19360D02*
X19370Y15857D01*
X19390D01*
X19400Y15847D01*
Y15807D01*
X19390Y15797D01*
X19370D01*
X19360Y15807D01*
Y15847D01*
X19420Y15827D02*
X19460D01*
X19480Y15797D02*
X19500D01*
X19490D01*
Y15857D01*
X19480Y15847D01*
X19570Y15797D02*
X19530D01*
X19570Y15837D01*
Y15847D01*
X19560Y15857D01*
X19540D01*
X19530Y15847D01*
X19590D02*
X19600Y15857D01*
X19620D01*
X19630Y15847D01*
Y15807D01*
X19620Y15797D01*
X19600D01*
X19590Y15807D01*
Y15847D01*
X19650D02*
X19660Y15857D01*
X19680D01*
X19690Y15847D01*
Y15807D01*
X19680Y15797D01*
X19660D01*
X19650Y15807D01*
Y15847D01*
X19850Y15797D02*
X19830Y15817D01*
Y15837D01*
X19850Y15857D01*
X19880D02*
Y15817D01*
X19900Y15797D01*
X19920Y15817D01*
Y15857D01*
X19980Y15837D02*
X19950D01*
X19940Y15827D01*
Y15807D01*
X19950Y15797D01*
X19980D01*
X20040Y15837D02*
X20010D01*
X20000Y15827D01*
Y15807D01*
X20010Y15797D01*
X20040D01*
X20060D02*
X20080Y15817D01*
Y15837D01*
X20060Y15857D01*
X25762Y17348D02*
X25712D01*
Y17373D01*
X25720Y17382D01*
X25737D01*
X25745Y17373D01*
Y17348D01*
X25720Y17432D02*
X25712Y17423D01*
Y17407D01*
X25720Y17398D01*
X25754D01*
X25762Y17407D01*
Y17423D01*
X25754Y17432D01*
X25712Y17448D02*
X25762D01*
Y17473D01*
X25754Y17482D01*
X25745D01*
X25737Y17473D01*
Y17448D01*
Y17473D01*
X25729Y17482D01*
X25720D01*
X25712Y17473D01*
Y17448D01*
Y17582D02*
Y17548D01*
X25762D01*
Y17582D01*
X25737Y17548D02*
Y17565D01*
X25712Y17598D02*
X25762D01*
Y17623D01*
X25754Y17632D01*
X25720D01*
X25712Y17623D01*
Y17598D01*
X25720Y17682D02*
X25712Y17673D01*
Y17657D01*
X25720Y17648D01*
X25754D01*
X25762Y17657D01*
Y17673D01*
X25754Y17682D01*
X25737D01*
Y17665D01*
X25712Y17732D02*
Y17698D01*
X25762D01*
Y17732D01*
X25737Y17698D02*
Y17715D01*
X22752Y15861D02*
X22792D01*
X22772D01*
Y15801D01*
X22812Y15851D02*
X22822Y15861D01*
X22842D01*
X22852Y15851D01*
Y15841D01*
X22842Y15831D01*
X22832D01*
X22842D01*
X22852Y15821D01*
Y15811D01*
X22842Y15801D01*
X22822D01*
X22812Y15811D01*
X21223Y19385D02*
X21263D01*
X21243D01*
Y19325D01*
X21323D02*
X21283D01*
X21323Y19365D01*
Y19375D01*
X21313Y19385D01*
X21293D01*
X21283Y19375D01*
X20702Y15857D02*
X20742D01*
X20722D01*
Y15797D01*
X20792D02*
Y15857D01*
X20762Y15827D01*
X20802D01*
X18708Y15857D02*
X18748D01*
X18728D01*
Y15797D01*
X18768D02*
X18788D01*
X18778D01*
Y15857D01*
X18768Y15847D01*
X25895Y20535D02*
X26395D01*
X26145Y20285D02*
Y20785D01*
X26095Y20535D02*
Y20585D01*
X26145D01*
X26195Y20485D02*
Y20535D01*
X26145Y20485D02*
X26195D01*
X26150Y20530D02*
X26190D01*
Y20490D02*
Y20530D01*
X26150Y20490D02*
X26190D01*
X26150D02*
Y20530D01*
X26155Y20525D02*
X26185D01*
Y20495D02*
Y20525D01*
X26155Y20495D02*
X26185D01*
X26155D02*
Y20520D01*
X26160D02*
X26180D01*
Y20500D02*
Y20520D01*
X26160Y20500D02*
X26180D01*
X26160D02*
Y20515D01*
X26165D02*
X26175D01*
Y20505D02*
Y20515D01*
X26165Y20505D02*
X26175D01*
X26165D02*
Y20515D01*
Y20510D02*
X26175D01*
X26100Y20580D02*
X26140D01*
Y20540D02*
Y20580D01*
X26100Y20540D02*
X26140D01*
X26100D02*
Y20580D01*
X26105Y20575D02*
X26135D01*
Y20545D02*
Y20575D01*
X26105Y20545D02*
X26135D01*
X26105D02*
Y20570D01*
X26110D02*
X26130D01*
Y20550D02*
Y20570D01*
X26110Y20550D02*
X26130D01*
X26110D02*
Y20565D01*
X26115D02*
X26125D01*
Y20555D02*
Y20565D01*
X26115Y20555D02*
X26125D01*
X26115D02*
Y20565D01*
Y20560D02*
X26125D01*
X16105Y20535D02*
X16605D01*
X16355Y20285D02*
Y20785D01*
X16305Y20535D02*
Y20585D01*
X16355D01*
X16405Y20485D02*
Y20535D01*
X16355Y20485D02*
X16405D01*
X16360Y20530D02*
X16400D01*
Y20490D02*
Y20530D01*
X16360Y20490D02*
X16400D01*
X16360D02*
Y20530D01*
X16365Y20525D02*
X16395D01*
Y20495D02*
Y20525D01*
X16365Y20495D02*
X16395D01*
X16365D02*
Y20520D01*
X16370D02*
X16390D01*
Y20500D02*
Y20520D01*
X16370Y20500D02*
X16390D01*
X16370D02*
Y20515D01*
X16375D02*
X16385D01*
Y20505D02*
Y20515D01*
X16375Y20505D02*
X16385D01*
X16375D02*
Y20515D01*
Y20510D02*
X16385D01*
X16310Y20580D02*
X16350D01*
Y20540D02*
Y20580D01*
X16310Y20540D02*
X16350D01*
X16310D02*
Y20580D01*
X16315Y20575D02*
X16345D01*
Y20545D02*
Y20575D01*
X16315Y20545D02*
X16345D01*
X16315D02*
Y20570D01*
X16320D02*
X16340D01*
Y20550D02*
Y20570D01*
X16320Y20550D02*
X16340D01*
X16320D02*
Y20565D01*
X16325D02*
X16335D01*
Y20555D02*
Y20565D01*
X16325Y20555D02*
X16335D01*
X16325D02*
Y20565D01*
Y20560D02*
X16335D01*
X16582Y13805D02*
X17082D01*
X16832Y13555D02*
Y14055D01*
X16782Y13805D02*
Y13855D01*
X16832D01*
X16882Y13755D02*
Y13805D01*
X16832Y13755D02*
X16882D01*
X16837Y13800D02*
X16877D01*
Y13760D02*
Y13800D01*
X16837Y13760D02*
X16877D01*
X16837D02*
Y13800D01*
X16842Y13795D02*
X16872D01*
Y13765D02*
Y13795D01*
X16842Y13765D02*
X16872D01*
X16842D02*
Y13790D01*
X16847D02*
X16867D01*
Y13770D02*
Y13790D01*
X16847Y13770D02*
X16867D01*
X16847D02*
Y13785D01*
X16852D02*
X16862D01*
Y13775D02*
Y13785D01*
X16852Y13775D02*
X16862D01*
X16852D02*
Y13785D01*
Y13780D02*
X16862D01*
X16787Y13850D02*
X16827D01*
Y13810D02*
Y13850D01*
X16787Y13810D02*
X16827D01*
X16787D02*
Y13850D01*
X16792Y13845D02*
X16822D01*
Y13815D02*
Y13845D01*
X16792Y13815D02*
X16822D01*
X16792D02*
Y13840D01*
X16797D02*
X16817D01*
Y13820D02*
Y13840D01*
X16797Y13820D02*
X16817D01*
X16797D02*
Y13835D01*
X16802D02*
X16812D01*
Y13825D02*
Y13835D01*
X16802Y13825D02*
X16812D01*
X16802D02*
Y13835D01*
Y13830D02*
X16812D01*
D23*
X19958Y14780D02*
Y14700D01*
X20004D01*
X20073D02*
X20043Y14780D01*
X20013Y14700D01*
X20024Y14727D02*
X20062D01*
X20145Y14769D02*
X20138Y14776D01*
X20126Y14780D01*
X20111D01*
X20100Y14776D01*
X20092Y14769D01*
Y14761D01*
X20096Y14753D01*
X20100Y14750D01*
X20107Y14746D01*
X20130Y14738D01*
X20138Y14734D01*
X20142Y14731D01*
X20145Y14723D01*
Y14711D01*
X20138Y14704D01*
X20126Y14700D01*
X20111D01*
X20100Y14704D01*
X20092Y14711D01*
X20283Y14761D02*
X20280Y14769D01*
X20272Y14776D01*
X20264Y14780D01*
X20249D01*
X20241Y14776D01*
X20234Y14769D01*
X20230Y14761D01*
X20226Y14750D01*
Y14731D01*
X20230Y14719D01*
X20234Y14711D01*
X20241Y14704D01*
X20249Y14700D01*
X20264D01*
X20272Y14704D01*
X20280Y14711D01*
X20283Y14719D01*
X20306Y14780D02*
Y14723D01*
X20310Y14711D01*
X20317Y14704D01*
X20329Y14700D01*
X20336D01*
X20348Y14704D01*
X20355Y14711D01*
X20359Y14723D01*
Y14780D01*
X20381D02*
Y14700D01*
Y14780D02*
X20412Y14700D01*
X20442Y14780D02*
X20412Y14700D01*
X20442Y14780D02*
Y14700D01*
X20465Y14780D02*
Y14700D01*
Y14780D02*
X20499D01*
X20511Y14776D01*
X20515Y14772D01*
X20518Y14765D01*
Y14757D01*
X20515Y14750D01*
X20511Y14746D01*
X20499Y14742D01*
X20465D02*
X20499D01*
X20511Y14738D01*
X20515Y14734D01*
X20518Y14727D01*
Y14715D01*
X20515Y14708D01*
X20511Y14704D01*
X20499Y14700D01*
X20465D01*
X20536Y14780D02*
Y14700D01*
Y14780D02*
X20570D01*
X20582Y14776D01*
X20586Y14772D01*
X20590Y14765D01*
Y14757D01*
X20586Y14750D01*
X20582Y14746D01*
X20570Y14742D01*
X20536D01*
X20563D02*
X20590Y14700D01*
X20657Y14780D02*
X20607D01*
Y14700D01*
X20657D01*
X20607Y14742D02*
X20638D01*
X20724Y14769D02*
X20716Y14776D01*
X20705Y14780D01*
X20689D01*
X20678Y14776D01*
X20670Y14769D01*
Y14761D01*
X20674Y14753D01*
X20678Y14750D01*
X20686Y14746D01*
X20708Y14738D01*
X20716Y14734D01*
X20720Y14731D01*
X20724Y14723D01*
Y14711D01*
X20716Y14704D01*
X20705Y14700D01*
X20689D01*
X20678Y14704D01*
X20670Y14711D01*
X20827Y14780D02*
X20820Y14776D01*
X20812Y14769D01*
X20808Y14761D01*
X20804Y14750D01*
Y14731D01*
X20808Y14719D01*
X20812Y14711D01*
X20820Y14704D01*
X20827Y14700D01*
X20842D01*
X20850Y14704D01*
X20858Y14711D01*
X20861Y14719D01*
X20865Y14731D01*
Y14750D01*
X20861Y14761D01*
X20858Y14769D01*
X20850Y14776D01*
X20842Y14780D01*
X20827D01*
X20884D02*
Y14700D01*
Y14780D02*
X20918D01*
X20930Y14776D01*
X20933Y14772D01*
X20937Y14765D01*
Y14757D01*
X20933Y14750D01*
X20930Y14746D01*
X20918Y14742D01*
X20884D02*
X20918D01*
X20930Y14738D01*
X20933Y14734D01*
X20937Y14727D01*
Y14715D01*
X20933Y14708D01*
X20930Y14704D01*
X20918Y14700D01*
X20884D01*
X21008Y14769D02*
X21001Y14776D01*
X20989Y14780D01*
X20974D01*
X20963Y14776D01*
X20955Y14769D01*
Y14761D01*
X20959Y14753D01*
X20963Y14750D01*
X20970Y14746D01*
X20993Y14738D01*
X21001Y14734D01*
X21005Y14731D01*
X21008Y14723D01*
Y14711D01*
X21001Y14704D01*
X20989Y14700D01*
X20974D01*
X20963Y14704D01*
X20955Y14711D01*
X21076Y14780D02*
X21026D01*
Y14700D01*
X21076D01*
X21026Y14742D02*
X21057D01*
X21089Y14780D02*
Y14700D01*
Y14780D02*
X21124D01*
X21135Y14776D01*
X21139Y14772D01*
X21143Y14765D01*
Y14757D01*
X21139Y14750D01*
X21135Y14746D01*
X21124Y14742D01*
X21089D01*
X21116D02*
X21143Y14700D01*
X21160Y14780D02*
X21191Y14700D01*
X21221Y14780D02*
X21191Y14700D01*
X21293D02*
X21262Y14780D01*
X21232Y14700D01*
X21243Y14727D02*
X21281D01*
X21338Y14780D02*
Y14700D01*
X21311Y14780D02*
X21365D01*
X21397D02*
X21389Y14776D01*
X21382Y14769D01*
X21378Y14761D01*
X21374Y14750D01*
Y14731D01*
X21378Y14719D01*
X21382Y14711D01*
X21389Y14704D01*
X21397Y14700D01*
X21412D01*
X21420Y14704D01*
X21427Y14711D01*
X21431Y14719D01*
X21435Y14731D01*
Y14750D01*
X21431Y14761D01*
X21427Y14769D01*
X21420Y14776D01*
X21412Y14780D01*
X21397D01*
X21454D02*
Y14700D01*
Y14780D02*
X21488D01*
X21499Y14776D01*
X21503Y14772D01*
X21507Y14765D01*
Y14757D01*
X21503Y14750D01*
X21499Y14746D01*
X21488Y14742D01*
X21454D01*
X21480D02*
X21507Y14700D01*
X21525Y14780D02*
X21555Y14742D01*
Y14700D01*
X21586Y14780D02*
X21555Y14742D01*
X21785Y14765D02*
X21792Y14769D01*
X21804Y14780D01*
Y14700D01*
X21847Y14761D02*
Y14765D01*
X21851Y14772D01*
X21855Y14776D01*
X21862Y14780D01*
X21878D01*
X21885Y14776D01*
X21889Y14772D01*
X21893Y14765D01*
Y14757D01*
X21889Y14750D01*
X21881Y14738D01*
X21843Y14700D01*
X21897D01*
X21915Y14689D02*
X21968Y14780D01*
X21981D02*
X22023D01*
X22000Y14750D01*
X22011D01*
X22019Y14746D01*
X22023Y14742D01*
X22027Y14731D01*
Y14723D01*
X22023Y14711D01*
X22015Y14704D01*
X22004Y14700D01*
X21992D01*
X21981Y14704D01*
X21977Y14708D01*
X21973Y14715D01*
X22044Y14689D02*
X22098Y14780D01*
X22107Y14761D02*
Y14765D01*
X22111Y14772D01*
X22115Y14776D01*
X22122Y14780D01*
X22137D01*
X22145Y14776D01*
X22149Y14772D01*
X22153Y14765D01*
Y14757D01*
X22149Y14750D01*
X22141Y14738D01*
X22103Y14700D01*
X22156D01*
X22197Y14780D02*
X22186Y14776D01*
X22178Y14765D01*
X22174Y14746D01*
Y14734D01*
X22178Y14715D01*
X22186Y14704D01*
X22197Y14700D01*
X22205D01*
X22216Y14704D01*
X22224Y14715D01*
X22228Y14734D01*
Y14746D01*
X22224Y14765D01*
X22216Y14776D01*
X22205Y14780D01*
X22197D01*
X22246Y14765D02*
X22253Y14769D01*
X22265Y14780D01*
Y14700D01*
X22308Y14761D02*
Y14765D01*
X22312Y14772D01*
X22316Y14776D01*
X22323Y14780D01*
X22338D01*
X22346Y14776D01*
X22350Y14772D01*
X22354Y14765D01*
Y14757D01*
X22350Y14750D01*
X22342Y14738D01*
X22304Y14700D01*
X22358D01*
D24*
X19958Y14915D02*
X19966Y14919D01*
X19977Y14930D01*
Y14850D01*
X20070Y14930D02*
X20032Y14850D01*
X20017Y14930D02*
X20070D01*
X20134D02*
X20096D01*
X20092Y14896D01*
X20096Y14900D01*
X20107Y14903D01*
X20118D01*
X20130Y14900D01*
X20137Y14892D01*
X20141Y14881D01*
Y14873D01*
X20137Y14861D01*
X20130Y14854D01*
X20118Y14850D01*
X20107D01*
X20096Y14854D01*
X20092Y14858D01*
X20088Y14865D01*
X20159Y14884D02*
X20228D01*
X20274Y14930D02*
X20263Y14926D01*
X20255Y14915D01*
X20251Y14896D01*
Y14884D01*
X20255Y14865D01*
X20263Y14854D01*
X20274Y14850D01*
X20282D01*
X20293Y14854D01*
X20301Y14865D01*
X20305Y14884D01*
Y14896D01*
X20301Y14915D01*
X20293Y14926D01*
X20282Y14930D01*
X20274D01*
X20345D02*
X20334Y14926D01*
X20326Y14915D01*
X20323Y14896D01*
Y14884D01*
X20326Y14865D01*
X20334Y14854D01*
X20345Y14850D01*
X20353D01*
X20364Y14854D01*
X20372Y14865D01*
X20376Y14884D01*
Y14896D01*
X20372Y14915D01*
X20364Y14926D01*
X20353Y14930D01*
X20345D01*
X20417D02*
X20405Y14926D01*
X20398Y14915D01*
X20394Y14896D01*
Y14884D01*
X20398Y14865D01*
X20405Y14854D01*
X20417Y14850D01*
X20424D01*
X20436Y14854D01*
X20443Y14865D01*
X20447Y14884D01*
Y14896D01*
X20443Y14915D01*
X20436Y14926D01*
X20424Y14930D01*
X20417D01*
X20469Y14911D02*
Y14915D01*
X20473Y14922D01*
X20476Y14926D01*
X20484Y14930D01*
X20499D01*
X20507Y14926D01*
X20511Y14922D01*
X20515Y14915D01*
Y14907D01*
X20511Y14900D01*
X20503Y14888D01*
X20465Y14850D01*
X20518D01*
X20544Y14930D02*
X20586D01*
X20563Y14900D01*
X20574D01*
X20582Y14896D01*
X20586Y14892D01*
X20590Y14881D01*
Y14873D01*
X20586Y14861D01*
X20578Y14854D01*
X20567Y14850D01*
X20555D01*
X20544Y14854D01*
X20540Y14858D01*
X20536Y14865D01*
X20615Y14854D02*
X20611Y14850D01*
X20607Y14854D01*
X20611Y14858D01*
X20615Y14854D01*
Y14846D01*
X20611Y14839D01*
X20607Y14835D01*
X20695Y14930D02*
Y14850D01*
Y14930D02*
X20730D01*
X20741Y14926D01*
X20745Y14922D01*
X20749Y14915D01*
Y14907D01*
X20745Y14900D01*
X20741Y14896D01*
X20730Y14892D01*
X20695D01*
X20722D02*
X20749Y14850D01*
X20767Y14881D02*
X20812D01*
Y14888D01*
X20809Y14896D01*
X20805Y14900D01*
X20797Y14903D01*
X20786D01*
X20778Y14900D01*
X20770Y14892D01*
X20767Y14881D01*
Y14873D01*
X20770Y14861D01*
X20778Y14854D01*
X20786Y14850D01*
X20797D01*
X20805Y14854D01*
X20812Y14861D01*
X20829Y14903D02*
X20852Y14850D01*
X20875Y14903D02*
X20852Y14850D01*
X20892Y14911D02*
Y14915D01*
X20896Y14922D01*
X20900Y14926D01*
X20907Y14930D01*
X20922D01*
X20930Y14926D01*
X20934Y14922D01*
X20938Y14915D01*
Y14907D01*
X20934Y14900D01*
X20926Y14888D01*
X20888Y14850D01*
X20941D01*
X20967Y14854D02*
X20963Y14850D01*
X20959Y14854D01*
X20963Y14858D01*
X20967Y14854D01*
Y14846D01*
X20963Y14839D01*
X20959Y14835D01*
X21101Y14919D02*
X21093Y14926D01*
X21082Y14930D01*
X21066D01*
X21055Y14926D01*
X21047Y14919D01*
Y14911D01*
X21051Y14903D01*
X21055Y14900D01*
X21063Y14896D01*
X21085Y14888D01*
X21093Y14884D01*
X21097Y14881D01*
X21101Y14873D01*
Y14861D01*
X21093Y14854D01*
X21082Y14850D01*
X21066D01*
X21055Y14854D01*
X21047Y14861D01*
X21126Y14930D02*
X21130Y14926D01*
X21134Y14930D01*
X21130Y14934D01*
X21126Y14930D01*
X21130Y14903D02*
Y14850D01*
X21148Y14903D02*
Y14850D01*
Y14888D02*
X21159Y14900D01*
X21167Y14903D01*
X21178D01*
X21186Y14900D01*
X21190Y14888D01*
Y14850D01*
X21218Y14930D02*
X21222Y14926D01*
X21226Y14930D01*
X21222Y14934D01*
X21218Y14930D01*
X21222Y14903D02*
Y14850D01*
X21282Y14892D02*
X21278Y14900D01*
X21267Y14903D01*
X21255D01*
X21244Y14900D01*
X21240Y14892D01*
X21244Y14884D01*
X21251Y14881D01*
X21271Y14877D01*
X21278Y14873D01*
X21282Y14865D01*
Y14861D01*
X21278Y14854D01*
X21267Y14850D01*
X21255D01*
X21244Y14854D01*
X21240Y14861D01*
X21310Y14930D02*
Y14865D01*
X21314Y14854D01*
X21322Y14850D01*
X21329D01*
X21299Y14903D02*
X21325D01*
X21360D02*
X21352Y14900D01*
X21344Y14892D01*
X21341Y14881D01*
Y14873D01*
X21344Y14861D01*
X21352Y14854D01*
X21360Y14850D01*
X21371D01*
X21379Y14854D01*
X21386Y14861D01*
X21390Y14873D01*
Y14881D01*
X21386Y14892D01*
X21379Y14900D01*
X21371Y14903D01*
X21360D01*
X21408D02*
Y14850D01*
Y14881D02*
X21411Y14892D01*
X21419Y14900D01*
X21427Y14903D01*
X21438D01*
X21464D02*
X21457Y14900D01*
X21449Y14892D01*
X21445Y14881D01*
Y14873D01*
X21449Y14861D01*
X21457Y14854D01*
X21464Y14850D01*
X21476D01*
X21483Y14854D01*
X21491Y14861D01*
X21495Y14873D01*
Y14881D01*
X21491Y14892D01*
X21483Y14900D01*
X21476Y14903D01*
X21464D01*
X21575Y14888D02*
X21610D01*
X21621Y14892D01*
X21625Y14896D01*
X21629Y14903D01*
Y14915D01*
X21625Y14922D01*
X21621Y14926D01*
X21610Y14930D01*
X21575D01*
Y14850D01*
X21665Y14903D02*
X21658Y14900D01*
X21650Y14892D01*
X21646Y14881D01*
Y14873D01*
X21650Y14861D01*
X21658Y14854D01*
X21665Y14850D01*
X21677D01*
X21685Y14854D01*
X21692Y14861D01*
X21696Y14873D01*
Y14881D01*
X21692Y14892D01*
X21685Y14900D01*
X21677Y14903D01*
X21665D01*
X21713D02*
X21729Y14850D01*
X21744Y14903D02*
X21729Y14850D01*
X21744Y14903D02*
X21759Y14850D01*
X21774Y14903D02*
X21759Y14850D01*
X21793Y14881D02*
X21839D01*
Y14888D01*
X21835Y14896D01*
X21831Y14900D01*
X21824Y14903D01*
X21812D01*
X21805Y14900D01*
X21797Y14892D01*
X21793Y14881D01*
Y14873D01*
X21797Y14861D01*
X21805Y14854D01*
X21812Y14850D01*
X21824D01*
X21831Y14854D01*
X21839Y14861D01*
X21856Y14903D02*
Y14850D01*
Y14881D02*
X21860Y14892D01*
X21867Y14900D01*
X21875Y14903D01*
X21886D01*
X22010Y14919D02*
X22002Y14926D01*
X21991Y14930D01*
X21976D01*
X21964Y14926D01*
X21956Y14919D01*
Y14911D01*
X21960Y14903D01*
X21964Y14900D01*
X21972Y14896D01*
X21995Y14888D01*
X22002Y14884D01*
X22006Y14881D01*
X22010Y14873D01*
Y14861D01*
X22002Y14854D01*
X21991Y14850D01*
X21976D01*
X21964Y14854D01*
X21956Y14861D01*
X22028Y14903D02*
Y14865D01*
X22032Y14854D01*
X22039Y14850D01*
X22051D01*
X22058Y14854D01*
X22070Y14865D01*
Y14903D02*
Y14850D01*
X22091Y14903D02*
Y14823D01*
Y14892D02*
X22098Y14900D01*
X22106Y14903D01*
X22117D01*
X22125Y14900D01*
X22132Y14892D01*
X22136Y14881D01*
Y14873D01*
X22132Y14861D01*
X22125Y14854D01*
X22117Y14850D01*
X22106D01*
X22098Y14854D01*
X22091Y14861D01*
X22153Y14903D02*
Y14823D01*
Y14892D02*
X22161Y14900D01*
X22169Y14903D01*
X22180D01*
X22188Y14900D01*
X22195Y14892D01*
X22199Y14881D01*
Y14873D01*
X22195Y14861D01*
X22188Y14854D01*
X22180Y14850D01*
X22169D01*
X22161Y14854D01*
X22153Y14861D01*
X22216Y14930D02*
Y14850D01*
X22237Y14903D02*
X22260Y14850D01*
X22283Y14903D02*
X22260Y14850D01*
X22252Y14835D01*
X22244Y14827D01*
X22237Y14823D01*
X22233D01*
D45*
X25112Y16573D02*
Y16898D01*
Y18298D02*
Y18623D01*
Y16573D02*
X25662D01*
Y17598D01*
X25112Y18623D02*
X25662D01*
Y17598D02*
Y18623D01*
X22699Y18146D02*
X24579D01*
X22699Y15896D02*
Y18146D01*
Y15896D02*
X24579D01*
Y18146D01*
X22545Y18975D02*
Y19285D01*
Y17665D02*
Y17975D01*
X21235Y18975D02*
Y19285D01*
Y17665D02*
Y17975D01*
Y19285D02*
X22545D01*
X21235Y17665D02*
X22545D01*
X20674Y15895D02*
X22554D01*
X20674D02*
Y17455D01*
X22554D01*
Y15895D02*
Y17455D01*
X18675Y15895D02*
X20555D01*
X18675D02*
Y17455D01*
X20555D01*
Y15895D02*
Y17455D01*
D80*
X17883Y16959D02*
X17875D01*
X17883D01*
X18340Y16955D02*
X18333D01*
X18340D01*
D81*
X18138Y15875D02*
D03*
X24993Y16350D02*
D03*
X24983Y15960D02*
D03*
D82*
X25112Y16256D02*
X25107Y16266D01*
X25097Y16268D01*
X25089Y16261D01*
Y16251D01*
X25097Y16245D01*
X25107Y16247D01*
X25112Y16256D01*
D83*
X25059Y16168D02*
X25052Y16172D01*
Y16163D01*
X25059Y16168D01*
X25058Y15811D02*
X25051Y15816D01*
Y15807D01*
X25058Y15811D01*
X18001Y16766D02*
Y16833D01*
X17753Y16766D02*
X18001D01*
X17753D02*
Y16829D01*
X18001Y17085D02*
Y17152D01*
X17753D02*
X18001D01*
X17753Y17085D02*
Y17152D01*
X18459Y16762D02*
Y16829D01*
X18210Y16762D02*
X18459D01*
X18210D02*
Y16825D01*
X18459Y17081D02*
Y17148D01*
X18210D02*
X18459D01*
X18210Y17081D02*
Y17148D01*
D84*
X24651Y17280D02*
X24751D01*
Y17080D02*
Y17280D01*
X24651Y17080D02*
X24751D01*
X24651D02*
Y17280D01*
X24757Y16274D02*
Y16474D01*
X24657D02*
X24757D01*
X24657Y16274D02*
Y16474D01*
Y16274D02*
X24757D01*
X25182Y16217D02*
Y16343D01*
X25060Y16217D02*
Y16343D01*
X25182D01*
X25060Y16217D02*
X25182D01*
X25260Y15867D02*
Y15953D01*
X25063Y15867D02*
Y15953D01*
X25260D01*
X25063Y15867D02*
X25260D01*
D85*
X22939Y18270D02*
X23198D01*
X22679D02*
X22939D01*
X22679D02*
X22679Y18370D01*
X22679Y18785D02*
X22679Y18540D01*
X23198Y18270D02*
X23199Y18370D01*
Y18540D02*
X23199Y18785D01*
X23695Y18279D02*
X23954D01*
X23435D02*
X23695D01*
X23435D02*
X23435Y18379D01*
X23435Y18794D02*
X23435Y18549D01*
X23954Y18279D02*
X23955Y18379D01*
Y18549D02*
X23955Y18794D01*
X24399Y18296D02*
X24658D01*
X24139D02*
X24399D01*
X24139D02*
Y18396D01*
Y18566D02*
Y18811D01*
X24658Y18296D02*
X24659Y18396D01*
Y18566D02*
Y18811D01*
X21115Y18590D02*
Y18849D01*
Y18330D02*
Y18590D01*
X21015Y18330D02*
X21115Y18330D01*
X20600D02*
X20845Y18330D01*
X21015Y18850D02*
X21115Y18849D01*
X20600Y18850D02*
X20845Y18850D01*
X21117Y17903D02*
Y18162D01*
Y17643D02*
Y17903D01*
X21017Y17643D02*
X21117Y17643D01*
X20602D02*
X20847Y17643D01*
X21017Y18163D02*
X21117Y18162D01*
X20602Y18163D02*
X20847Y18163D01*
X19265Y18050D02*
Y18309D01*
Y17790D02*
Y18050D01*
X19165Y17790D02*
X19265D01*
X18750D02*
X18995D01*
X19165Y18310D02*
X19265Y18309D01*
X18750Y18310D02*
X18995D01*
D86*
X24696Y17997D02*
X24739D01*
X24696Y17883D02*
X24739D01*
X24696Y17966D02*
Y17997D01*
Y17883D02*
Y17914D01*
X24746Y17929D02*
Y17951D01*
X24696Y17817D02*
X24739D01*
X24696Y17703D02*
X24739D01*
X24696Y17786D02*
Y17817D01*
Y17703D02*
Y17734D01*
X24746Y17749D02*
Y17771D01*
X25361Y19342D02*
Y19369D01*
X25374Y19382D01*
X25388Y19369D01*
Y19342D01*
Y19362D01*
X25361D01*
X25428Y19375D02*
X25421Y19382D01*
X25408D01*
X25401Y19375D01*
Y19349D01*
X25408Y19342D01*
X25421D01*
X25428Y19349D01*
Y19362D01*
X25414D01*
X25441Y19342D02*
Y19382D01*
X25468Y19342D01*
Y19382D01*
X25481D02*
Y19342D01*
X25501D01*
X25508Y19349D01*
Y19375D01*
X25501Y19382D01*
X25481D01*
X17890Y15985D02*
Y16012D01*
X17903Y16025D01*
X17917Y16012D01*
Y15985D01*
Y16005D01*
X17890D01*
X17957Y16018D02*
X17950Y16025D01*
X17937D01*
X17930Y16018D01*
Y15992D01*
X17937Y15985D01*
X17950D01*
X17957Y15992D01*
Y16005D01*
X17943D01*
X17970Y15985D02*
Y16025D01*
X17997Y15985D01*
Y16025D01*
X18010D02*
Y15985D01*
X18030D01*
X18037Y15992D01*
Y16018D01*
X18030Y16025D01*
X18010D01*
X24683Y16072D02*
Y16099D01*
X24696Y16112D01*
X24710Y16099D01*
Y16072D01*
Y16092D01*
X24683D01*
X24750Y16105D02*
X24743Y16112D01*
X24730D01*
X24723Y16105D01*
Y16079D01*
X24730Y16072D01*
X24743D01*
X24750Y16079D01*
Y16092D01*
X24736D01*
X24763Y16072D02*
Y16112D01*
X24790Y16072D01*
Y16112D01*
X24803D02*
Y16072D01*
X24823D01*
X24830Y16079D01*
Y16105D01*
X24823Y16112D01*
X24803D01*
X25561Y16419D02*
X25588D01*
X25574Y16432D02*
Y16406D01*
X25628Y16399D02*
X25601D01*
X25628Y16426D01*
Y16432D01*
X25621Y16439D01*
X25608D01*
X25601Y16432D01*
X25661Y16399D02*
Y16439D01*
X25641Y16419D01*
X25668D01*
X25681Y16439D02*
Y16412D01*
X25694Y16399D01*
X25708Y16412D01*
Y16439D01*
X25211Y19036D02*
Y19009D01*
X25224Y18996D01*
X25238Y19009D01*
Y19036D01*
X25278Y19029D02*
X25271Y19036D01*
X25258D01*
X25251Y19029D01*
Y19003D01*
X25258Y18996D01*
X25271D01*
X25278Y19003D01*
X25318Y19029D02*
X25311Y19036D01*
X25298D01*
X25291Y19029D01*
Y19003D01*
X25298Y18996D01*
X25311D01*
X25318Y19003D01*
X18892Y19085D02*
Y19112D01*
X18905Y19125D01*
X18919Y19112D01*
Y19085D01*
Y19105D01*
X18892D01*
X18959Y19118D02*
X18952Y19125D01*
X18939D01*
X18932Y19118D01*
Y19092D01*
X18939Y19085D01*
X18952D01*
X18959Y19092D01*
Y19105D01*
X18945D01*
X18972Y19085D02*
Y19125D01*
X18999Y19085D01*
Y19125D01*
X19012D02*
Y19085D01*
X19032D01*
X19039Y19092D01*
Y19118D01*
X19032Y19125D01*
X19012D01*
X20672Y19263D02*
X20699D01*
X20739Y19283D02*
X20712D01*
Y19263D01*
X20725Y19270D01*
X20732D01*
X20739Y19263D01*
Y19250D01*
X20732Y19243D01*
X20719D01*
X20712Y19250D01*
X20752Y19283D02*
Y19256D01*
X20765Y19243D01*
X20779Y19256D01*
Y19283D01*
X20910Y19278D02*
X20937D01*
X20923Y19291D02*
Y19265D01*
X20977Y19258D02*
X20950D01*
X20977Y19285D01*
Y19291D01*
X20970Y19298D01*
X20957D01*
X20950Y19291D01*
X20990D02*
X20997Y19298D01*
X21010D01*
X21017Y19291D01*
Y19285D01*
X21010Y19278D01*
X21017Y19271D01*
Y19265D01*
X21010Y19258D01*
X20997D01*
X20990Y19265D01*
Y19271D01*
X20997Y19278D01*
X20990Y19285D01*
Y19291D01*
X20997Y19278D02*
X21010D01*
X21030Y19298D02*
Y19271D01*
X21043Y19258D01*
X21057Y19271D01*
Y19298D01*
X23258Y19318D02*
X23285D01*
X23271Y19331D02*
Y19305D01*
X23325Y19338D02*
X23298D01*
Y19318D01*
X23311Y19325D01*
X23318D01*
X23325Y19318D01*
Y19305D01*
X23318Y19298D01*
X23305D01*
X23298Y19305D01*
X23338Y19338D02*
Y19311D01*
X23351Y19298D01*
X23365Y19311D01*
Y19338D01*
X23897Y19316D02*
X23924D01*
X23910Y19329D02*
Y19303D01*
X23937Y19296D02*
X23950D01*
X23944D01*
Y19336D01*
X23937Y19329D01*
X23997Y19296D02*
X23970D01*
X23997Y19323D01*
Y19329D01*
X23990Y19336D01*
X23977D01*
X23970Y19329D01*
X24010Y19336D02*
Y19309D01*
X24024Y19296D01*
X24037Y19309D01*
Y19336D01*
X24808Y19317D02*
X24835D01*
X24848Y19297D02*
X24861D01*
X24855D01*
Y19337D01*
X24848Y19330D01*
X24908Y19297D02*
X24881D01*
X24908Y19324D01*
Y19330D01*
X24901Y19337D01*
X24888D01*
X24881Y19330D01*
X24921Y19337D02*
Y19310D01*
X24935Y19297D01*
X24948Y19310D01*
Y19337D01*
X24796Y16303D02*
X24769D01*
X24796Y16330D01*
Y16336D01*
X24789Y16343D01*
X24776D01*
X24769Y16336D01*
X24829Y16303D02*
Y16343D01*
X24809Y16323D01*
X24836D01*
X24849Y16303D02*
Y16343D01*
X24869D01*
X24876Y16336D01*
Y16323D01*
X24869Y16316D01*
X24849D01*
X24862D02*
X24876Y16303D01*
X24889Y16343D02*
X24916D01*
X24902D01*
Y16303D01*
X24929D02*
Y16343D01*
X24956Y16303D01*
Y16343D01*
X24810Y16437D02*
X24803Y16444D01*
X24790D01*
X24783Y16437D01*
Y16411D01*
X24790Y16404D01*
X24803D01*
X24810Y16411D01*
Y16424D01*
X24796D01*
X24823Y16404D02*
Y16444D01*
X24850Y16404D01*
Y16444D01*
X24863D02*
Y16404D01*
X24883D01*
X24890Y16411D01*
Y16437D01*
X24883Y16444D01*
X24863D01*
X24826Y17143D02*
X24819Y17150D01*
X24806D01*
X24799Y17143D01*
Y17117D01*
X24806Y17110D01*
X24819D01*
X24826Y17117D01*
Y17130D01*
X24812D01*
X24839Y17110D02*
Y17150D01*
X24866Y17110D01*
Y17150D01*
X24879D02*
Y17110D01*
X24899D01*
X24906Y17117D01*
Y17143D01*
X24899Y17150D01*
X24879D01*
X24805Y17214D02*
Y17241D01*
X24818Y17254D01*
X24832Y17241D01*
Y17214D01*
Y17234D01*
X24805D01*
D87*
X25422Y16017D02*
Y16096D01*
X25501D01*
Y15947D02*
Y16033D01*
X25422Y15884D02*
X25501D01*
X25422D02*
Y15962D01*
D88*
X19338Y17753D02*
X20105D01*
X19338D02*
Y18954D01*
X20105D01*
Y17753D02*
Y18954D01*
D89*
X19894Y15280D02*
D03*
D90*
X19173Y19302D02*
D03*
M02*
