%FSLAX23Y23*%
%MOIN*%
G70*
G01*
G75*
G04 Layer_Physical_Order=1*
G04 Layer_Color=255*
%ADD10R,0.209X0.079*%
%ADD11R,0.050X0.050*%
%ADD12R,0.036X0.036*%
%ADD13R,0.059X0.039*%
%ADD14O,0.014X0.067*%
%ADD15O,0.024X0.079*%
%ADD16C,0.050*%
%ADD17C,0.010*%
%ADD18C,0.100*%
%ADD19C,0.025*%
%ADD20C,0.007*%
%ADD21C,0.012*%
%ADD22C,0.008*%
%ADD23C,0.012*%
%ADD24C,0.012*%
%ADD25C,0.020*%
%ADD26C,0.080*%
%ADD27R,0.059X0.059*%
%ADD28C,0.059*%
%ADD29C,0.065*%
%ADD30R,0.079X0.079*%
%ADD31C,0.079*%
%ADD32R,0.100X0.100*%
%ADD33C,0.100*%
%ADD34C,0.070*%
%ADD35R,0.100X0.100*%
%ADD36R,0.059X0.059*%
%ADD37R,0.079X0.079*%
%ADD38C,0.110*%
%ADD39R,0.110X0.110*%
%ADD40C,0.120*%
%ADD41R,0.120X0.120*%
%ADD42C,0.157*%
%ADD43C,0.024*%
%ADD44C,0.050*%
D10*
X17879Y17089D02*
D03*
Y16829D02*
D03*
X18336Y17085D02*
D03*
Y16825D02*
D03*
D11*
X18136Y15830D02*
D03*
Y15920D02*
D03*
X24991Y16305D02*
D03*
Y16395D02*
D03*
X24981Y15915D02*
D03*
Y16005D02*
D03*
D12*
X24764Y17977D02*
D03*
X24678Y17940D02*
D03*
X24764Y17903D02*
D03*
Y17797D02*
D03*
X24678Y17760D02*
D03*
X24764Y17723D02*
D03*
D13*
X25538Y16059D02*
D03*
X25385Y15990D02*
D03*
X25538Y15921D02*
D03*
D14*
X25160Y16392D02*
D03*
X25134D02*
D03*
X25109D02*
D03*
X25083D02*
D03*
X25160Y16168D02*
D03*
X25134D02*
D03*
X25109D02*
D03*
X25083D02*
D03*
D15*
X25236Y16008D02*
D03*
X25186D02*
D03*
X25136D02*
D03*
X25086D02*
D03*
X25236Y15811D02*
D03*
X25186D02*
D03*
X25136D02*
D03*
X25086D02*
D03*
D16*
X19122Y16521D02*
X20007D01*
X19116Y16527D02*
X19122Y16521D01*
X19811Y17105D02*
X19820Y17096D01*
X24682Y16349D02*
X24707Y16324D01*
X24053Y16349D02*
X24682D01*
X23852Y16148D02*
X24053Y16349D01*
X20007Y16521D02*
X22839D01*
X19974D02*
X20007D01*
X19973Y16822D02*
X19974Y16821D01*
X19416Y16822D02*
X19973D01*
X21414Y15970D02*
X21814D01*
X19115D02*
X19223Y15862D01*
X19707D01*
X19815Y15970D01*
X19415D02*
X19556Y16111D01*
X19974D01*
X20115Y15970D01*
X18143Y16632D02*
X18336Y16825D01*
X18143Y16543D02*
Y16632D01*
Y16543D02*
X18221Y16464D01*
X19974Y16821D02*
X22839D01*
X22714Y17096D02*
X22839Y17221D01*
X19820Y17096D02*
X22714D01*
X19815Y17335D02*
Y17380D01*
X22536Y17218D02*
X22839Y17521D01*
X20277Y17218D02*
X22536D01*
X20115Y17380D02*
X20277Y17218D01*
X20051Y18550D02*
X20501Y19001D01*
X19921Y18550D02*
X20051D01*
X20062Y18991D02*
X20193Y19123D01*
X19883Y18991D02*
X20062D01*
X19741Y18850D02*
X19883Y18991D01*
X20501Y19197D02*
X20505Y19201D01*
X20501Y19001D02*
Y19197D01*
X20341Y19193D02*
X20349Y19201D01*
X20341Y19040D02*
Y19193D01*
X20193Y19123D02*
Y19201D01*
X20037Y19167D02*
Y19201D01*
X19741Y18790D02*
Y18850D01*
X19521Y18570D02*
X19741Y18790D01*
X19521Y18550D02*
Y18570D01*
X20151Y18850D02*
X20341Y19040D01*
X19921Y18850D02*
X20151D01*
D17*
X21192Y18527D02*
X22765D01*
X21094Y18430D02*
X21192Y18527D01*
X22765D02*
X22836Y18456D01*
X25119Y17794D02*
X25166D01*
X25262Y17698D01*
X25027Y17703D02*
X25119Y17794D01*
X24936Y17977D02*
X25119Y17794D01*
X24764Y17977D02*
X24936D01*
X24822Y17903D02*
X24871Y17854D01*
Y17527D02*
Y17854D01*
X24845Y17501D02*
X24871Y17527D01*
X24604Y17461D02*
X24694D01*
X24578Y17435D02*
X24604Y17461D01*
X23850Y17435D02*
X24578D01*
X24694Y17461D02*
X24696Y17463D01*
X23534Y17461D02*
X23824D01*
X23850Y17435D01*
X23096Y18021D02*
X24855D01*
X24881Y18047D01*
X24353Y16540D02*
X24418Y16605D01*
X24478D01*
X24540Y16543D01*
X24919D01*
X23952Y16573D02*
X24095D01*
X23654Y16182D02*
X23764Y16292D01*
X21059Y16281D02*
X21873D01*
X20924Y19101D02*
X21853D01*
X20854Y19171D02*
X20924Y19101D01*
X20730Y19171D02*
X20854D01*
X20991Y16116D02*
X22081D01*
X20993Y19167D02*
X21923D01*
X18528Y16179D02*
X18842D01*
X18477Y16236D02*
X18842D01*
X18221Y16264D02*
X18956D01*
X18472Y16289D02*
X18842D01*
X18554Y16321D02*
X18842D01*
X21018Y16182D02*
X23654D01*
X23965Y16540D02*
X24353D01*
X23640Y16215D02*
X23965Y16540D01*
X21032Y16215D02*
X23640D01*
X23627Y16248D02*
X23952Y16573D01*
X21045Y16248D02*
X23627D01*
X21022Y16318D02*
X21059Y16281D01*
X21001Y16318D02*
X21022D01*
X20986Y16332D02*
X21001Y16318D01*
X20350Y16332D02*
X20986D01*
X20994Y16299D02*
X21045Y16248D01*
X20372Y16299D02*
X20994D01*
X20980Y16266D02*
X21032Y16215D01*
X20385Y16266D02*
X20980D01*
X20966Y16233D02*
X21018Y16182D01*
X20399Y16233D02*
X20966D01*
X20939Y16167D02*
X20991Y16116D01*
X20234Y16332D02*
X20282Y16285D01*
X20324Y16252D02*
X20372Y16299D01*
X20220D02*
X20268Y16252D01*
X19020Y16299D02*
X20220D01*
X20331Y16313D02*
X20350Y16332D01*
X20331Y16305D02*
Y16313D01*
X20427Y16167D02*
X20939D01*
X20379Y16120D02*
X20427Y16167D01*
X20213Y16120D02*
X20379D01*
X20166Y16167D02*
X20213Y16120D01*
X18854Y16167D02*
X20166D01*
X20352Y16186D02*
X20399Y16233D01*
X20241Y16186D02*
X20352D01*
X20193Y16233D02*
X20241Y16186D01*
X20338Y16219D02*
X20385Y16266D01*
X20254Y16219D02*
X20338D01*
X20207Y16266D02*
X20254Y16219D01*
X19026Y16266D02*
X20207D01*
X20268Y16252D02*
X20324D01*
X20311Y16285D02*
X20331Y16305D01*
X20282Y16285D02*
X20311D01*
X18854Y16332D02*
X20234D01*
X18842Y16321D02*
X18854Y16332D01*
X19005Y16315D02*
X19020Y16299D01*
X18976Y16315D02*
X19005D01*
X18960Y16299D02*
X18976Y16315D01*
X18853Y16299D02*
X18960D01*
X18842Y16289D02*
X18853Y16299D01*
X18848Y16230D02*
X19011D01*
X18842Y16236D02*
X18848Y16230D01*
X19005Y16245D02*
X19026Y16266D01*
X18956Y16264D02*
X18976Y16245D01*
X19014Y16233D02*
X20193D01*
X19011Y16230D02*
X19014Y16233D01*
X18976Y16245D02*
X19005D01*
X18842Y16179D02*
X18854Y16167D01*
X24082Y19308D02*
X25134D01*
X25176Y19266D01*
X18427Y16078D02*
X18528Y16179D01*
X18208Y16078D02*
X18427D01*
X18021Y16264D02*
X18208Y16078D01*
X18407Y16166D02*
X18477Y16236D01*
X18305Y16166D02*
X18407D01*
X18255Y16216D02*
X18305Y16166D01*
X18192Y16216D02*
X18255D01*
X18128Y16280D02*
X18192Y16216D01*
X18128Y16280D02*
Y16458D01*
X18021Y16564D02*
X18128Y16458D01*
X18411Y16464D02*
X18554Y16321D01*
X18221Y16464D02*
X18411D01*
X18397Y16364D02*
X18472Y16289D01*
X18221Y16364D02*
X18397D01*
X23531Y17464D02*
X23534Y17461D01*
X24678Y17634D02*
X24680Y17632D01*
X24678Y17634D02*
Y17760D01*
X25186Y15809D02*
X25282D01*
X25051D02*
X25186D01*
Y15811D02*
Y15866D01*
Y15809D02*
Y15811D01*
X25160Y15892D02*
X25186Y15866D01*
X25160Y15892D02*
Y16167D01*
X25160Y16168D02*
X25160Y16167D01*
X25394Y15921D02*
X25538D01*
X25282Y15809D02*
X25394Y15921D01*
X24981Y15879D02*
X25051Y15809D01*
X24981Y15879D02*
Y15915D01*
X24918Y16232D02*
X24991Y16305D01*
X24918Y15938D02*
Y16232D01*
Y15938D02*
X24941Y15915D01*
X24981D01*
X24972Y16324D02*
X24991Y16305D01*
X24707Y16324D02*
X24972D01*
X23852Y16145D02*
Y16148D01*
X21110Y18019D02*
Y18126D01*
Y18019D02*
X21238Y17892D01*
X23533D01*
X24590D01*
X20847Y18430D02*
X21094D01*
X22836Y18456D02*
X22991D01*
X23256Y18558D02*
X23505D01*
X23577Y18486D01*
X23729D01*
X18154Y17813D02*
X18221Y17880D01*
X19451D01*
X19521Y17950D01*
X24764Y17903D02*
X24822D01*
X24808Y17723D02*
X24810Y17721D01*
X24764Y17723D02*
X24808D01*
X24678Y17883D02*
X24764Y17797D01*
X24678Y17883D02*
Y17940D01*
X24985Y16008D02*
X25086D01*
X24981Y16005D02*
X24985Y16008D01*
X25083Y16168D02*
Y16278D01*
X25109Y16303D01*
Y16392D01*
Y16168D02*
Y16254D01*
X25134Y16168D02*
Y16227D01*
X25236Y16008D02*
Y16228D01*
X25186Y16008D02*
Y16128D01*
X25216Y16158D01*
Y16189D01*
X25186Y16219D02*
X25216Y16189D01*
X25186Y16219D02*
Y16270D01*
X25134Y16322D02*
X25186Y16270D01*
X25134Y16322D02*
Y16392D01*
X25385Y15990D02*
Y16074D01*
X25384Y16074D02*
X25385Y16074D01*
X25138Y16010D02*
Y16075D01*
X25136Y16008D02*
X25138Y16010D01*
X25083Y16392D02*
Y16499D01*
X24991Y16395D02*
X24994Y16392D01*
X25086Y16008D02*
Y16063D01*
X25047Y16102D02*
X25086Y16063D01*
X24994Y16392D02*
X25047D01*
X25083D01*
X25538Y16059D02*
Y16121D01*
X25537Y16122D02*
X25538Y16121D01*
X25047Y16102D02*
Y16124D01*
Y16392D01*
X24998Y16124D02*
X25047D01*
X25027Y16555D02*
X25083Y16499D01*
X25027Y16555D02*
Y17703D01*
X25053Y17390D02*
X25162Y17498D01*
X25053Y16578D02*
Y17390D01*
Y16578D02*
X25109Y16523D01*
Y16392D02*
Y16523D01*
X25188Y17424D02*
X25262Y17498D01*
X25160Y16392D02*
Y16580D01*
X25258Y17394D02*
X25362Y17498D01*
X25135Y17424D02*
X25188D01*
X25075Y16664D02*
X25160Y16580D01*
X25075Y16664D02*
Y17364D01*
X25135Y17424D01*
X25143Y17394D02*
X25258D01*
X25098Y17349D02*
X25143Y17394D01*
X25098Y16693D02*
Y17349D01*
Y16693D02*
X25338Y16453D01*
D18*
X17857Y16691D02*
Y16807D01*
X18336Y17319D02*
X18340Y17323D01*
X18336Y17085D02*
Y17319D01*
X17857Y16691D02*
X17858D01*
X17857Y16807D02*
X17879Y16829D01*
X17877Y17250D02*
X17879Y17248D01*
Y17089D02*
Y17248D01*
D19*
X18021Y16164D02*
X18136Y16050D01*
Y15920D02*
Y16050D01*
X17945Y15906D02*
X18021Y15830D01*
X18136D01*
X23193Y16959D02*
X23215Y16981D01*
X18249Y16959D02*
X23193D01*
X17995Y16705D02*
X18249Y16959D01*
X17872Y16705D02*
X17995D01*
X17858Y16691D02*
X17872Y16705D01*
X20761Y18160D02*
Y18274D01*
Y18160D02*
X21019Y17903D01*
X22941Y18270D02*
X23039Y18369D01*
X22710Y18270D02*
X22941D01*
X22576Y18404D02*
X22710Y18270D01*
X22179Y18404D02*
X22576D01*
X20415Y18499D02*
X20809D01*
X20900Y18590D01*
X21016D01*
X21056Y18550D01*
X21375D01*
X21424Y18599D01*
X22104D01*
X20385Y17910D02*
Y18016D01*
Y17910D02*
X20543Y17752D01*
X20968D01*
X21019Y17803D01*
X21015Y16353D02*
X21018Y16350D01*
X21502D01*
X20237Y16379D02*
X20296Y16320D01*
X19242Y16379D02*
X20237D01*
X19156Y17960D02*
X19166Y17950D01*
X18546Y17960D02*
X19156D01*
D20*
X25338Y16254D02*
Y16453D01*
X23639Y19363D02*
X23644Y19359D01*
D21*
X19956Y14499D02*
Y14454D01*
X19937Y14488D02*
X19975Y14465D01*
Y14488D02*
X19937Y14465D01*
X19995Y14427D02*
X19991Y14423D01*
X19995Y14419D01*
X19999Y14423D01*
X19995Y14427D01*
X20074Y14480D02*
X20070Y14488D01*
X20062Y14496D01*
X20055Y14499D01*
X20039D01*
X20032Y14496D01*
X20024Y14488D01*
X20020Y14480D01*
X20017Y14469D01*
Y14450D01*
X20020Y14439D01*
X20024Y14431D01*
X20032Y14423D01*
X20039Y14419D01*
X20055D01*
X20062Y14423D01*
X20070Y14431D01*
X20074Y14439D01*
Y14450D01*
X20055D02*
X20074D01*
X20119Y14499D02*
Y14419D01*
X20092Y14499D02*
X20145D01*
X20155D02*
Y14419D01*
X20201D01*
X20272Y14454D02*
X20341D01*
X20454Y14499D02*
Y14419D01*
X20427Y14499D02*
X20481D01*
X20513D02*
X20505Y14496D01*
X20498Y14488D01*
X20494Y14480D01*
X20490Y14469D01*
Y14450D01*
X20494Y14439D01*
X20498Y14431D01*
X20505Y14423D01*
X20513Y14419D01*
X20528D01*
X20536Y14423D01*
X20543Y14431D01*
X20547Y14439D01*
X20551Y14450D01*
Y14469D01*
X20547Y14480D01*
X20543Y14488D01*
X20536Y14496D01*
X20528Y14499D01*
X20513D01*
X20570Y14458D02*
X20604D01*
X20615Y14461D01*
X20619Y14465D01*
X20623Y14473D01*
Y14484D01*
X20619Y14492D01*
X20615Y14496D01*
X20604Y14499D01*
X20570D01*
Y14419D01*
X20704Y14499D02*
Y14419D01*
X20749D01*
X20819D02*
X20789Y14499D01*
X20758Y14419D01*
X20770Y14446D02*
X20808D01*
X20838Y14499D02*
X20868Y14461D01*
Y14419D01*
X20899Y14499D02*
X20868Y14461D01*
X20959Y14499D02*
X20909D01*
Y14419D01*
X20959D01*
X20909Y14461D02*
X20939D01*
X20972Y14499D02*
Y14419D01*
Y14499D02*
X21006D01*
X21018Y14496D01*
X21021Y14492D01*
X21025Y14484D01*
Y14477D01*
X21021Y14469D01*
X21018Y14465D01*
X21006Y14461D01*
X20972D01*
X20999D02*
X21025Y14419D01*
X21163Y14480D02*
X21159Y14488D01*
X21152Y14496D01*
X21144Y14499D01*
X21129D01*
X21121Y14496D01*
X21114Y14488D01*
X21110Y14480D01*
X21106Y14469D01*
Y14450D01*
X21110Y14439D01*
X21114Y14431D01*
X21121Y14423D01*
X21129Y14419D01*
X21144D01*
X21152Y14423D01*
X21159Y14431D01*
X21163Y14439D01*
Y14450D01*
X21144D02*
X21163D01*
X21231Y14499D02*
X21181D01*
Y14419D01*
X21231D01*
X21181Y14461D02*
X21212D01*
X21244Y14499D02*
Y14419D01*
Y14499D02*
X21278D01*
X21290Y14496D01*
X21294Y14492D01*
X21297Y14484D01*
Y14477D01*
X21294Y14469D01*
X21290Y14465D01*
X21278Y14461D01*
X21244D01*
X21271D02*
X21297Y14419D01*
X21315Y14499D02*
Y14419D01*
Y14499D02*
X21350D01*
X21361Y14496D01*
X21365Y14492D01*
X21369Y14484D01*
Y14477D01*
X21365Y14469D01*
X21361Y14465D01*
X21350Y14461D01*
X21315D02*
X21350D01*
X21361Y14458D01*
X21365Y14454D01*
X21369Y14446D01*
Y14435D01*
X21365Y14427D01*
X21361Y14423D01*
X21350Y14419D01*
X21315D01*
X21436Y14499D02*
X21387D01*
Y14419D01*
X21436D01*
X21387Y14461D02*
X21417D01*
X21449Y14499D02*
Y14419D01*
Y14499D02*
X21484D01*
X21495Y14496D01*
X21499Y14492D01*
X21503Y14484D01*
Y14477D01*
X21499Y14469D01*
X21495Y14465D01*
X21484Y14461D01*
X21449D01*
X21476D02*
X21503Y14419D01*
X21584Y14499D02*
Y14419D01*
Y14499D02*
X21610D01*
X21622Y14496D01*
X21629Y14488D01*
X21633Y14480D01*
X21637Y14469D01*
Y14450D01*
X21633Y14439D01*
X21629Y14431D01*
X21622Y14423D01*
X21610Y14419D01*
X21584D01*
X21716D02*
X21685Y14499D01*
X21655Y14419D01*
X21666Y14446D02*
X21704D01*
X21761Y14499D02*
Y14419D01*
X21734Y14499D02*
X21788D01*
X21858Y14419D02*
X21828Y14499D01*
X21797Y14419D01*
X21809Y14446D02*
X21847D01*
D22*
X25895Y20535D02*
X26395D01*
X26145Y20285D02*
Y20785D01*
X26095Y20535D02*
Y20585D01*
X26145D01*
X26195Y20485D02*
Y20535D01*
X26145Y20485D02*
X26195D01*
X26150Y20530D02*
X26190D01*
Y20490D02*
Y20530D01*
X26150Y20490D02*
X26190D01*
X26150D02*
Y20530D01*
X26155Y20525D02*
X26185D01*
Y20495D02*
Y20525D01*
X26155Y20495D02*
X26185D01*
X26155D02*
Y20520D01*
X26160D02*
X26180D01*
Y20500D02*
Y20520D01*
X26160Y20500D02*
X26180D01*
X26160D02*
Y20515D01*
X26165D02*
X26175D01*
Y20505D02*
Y20515D01*
X26165Y20505D02*
X26175D01*
X26165D02*
Y20515D01*
Y20510D02*
X26175D01*
X26100Y20580D02*
X26140D01*
Y20540D02*
Y20580D01*
X26100Y20540D02*
X26140D01*
X26100D02*
Y20580D01*
X26105Y20575D02*
X26135D01*
Y20545D02*
Y20575D01*
X26105Y20545D02*
X26135D01*
X26105D02*
Y20570D01*
X26110D02*
X26130D01*
Y20550D02*
Y20570D01*
X26110Y20550D02*
X26130D01*
X26110D02*
Y20565D01*
X26115D02*
X26125D01*
Y20555D02*
Y20565D01*
X26115Y20555D02*
X26125D01*
X26115D02*
Y20565D01*
Y20560D02*
X26125D01*
X16105Y20535D02*
X16605D01*
X16355Y20285D02*
Y20785D01*
X16305Y20535D02*
Y20585D01*
X16355D01*
X16405Y20485D02*
Y20535D01*
X16355Y20485D02*
X16405D01*
X16360Y20530D02*
X16400D01*
Y20490D02*
Y20530D01*
X16360Y20490D02*
X16400D01*
X16360D02*
Y20530D01*
X16365Y20525D02*
X16395D01*
Y20495D02*
Y20525D01*
X16365Y20495D02*
X16395D01*
X16365D02*
Y20520D01*
X16370D02*
X16390D01*
Y20500D02*
Y20520D01*
X16370Y20500D02*
X16390D01*
X16370D02*
Y20515D01*
X16375D02*
X16385D01*
Y20505D02*
Y20515D01*
X16375Y20505D02*
X16385D01*
X16375D02*
Y20515D01*
Y20510D02*
X16385D01*
X16310Y20580D02*
X16350D01*
Y20540D02*
Y20580D01*
X16310Y20540D02*
X16350D01*
X16310D02*
Y20580D01*
X16315Y20575D02*
X16345D01*
Y20545D02*
Y20575D01*
X16315Y20545D02*
X16345D01*
X16315D02*
Y20570D01*
X16320D02*
X16340D01*
Y20550D02*
Y20570D01*
X16320Y20550D02*
X16340D01*
X16320D02*
Y20565D01*
X16325D02*
X16335D01*
Y20555D02*
Y20565D01*
X16325Y20555D02*
X16335D01*
X16325D02*
Y20565D01*
Y20560D02*
X16335D01*
X16582Y13805D02*
X17082D01*
X16832Y13555D02*
Y14055D01*
X16782Y13805D02*
Y13855D01*
X16832D01*
X16882Y13755D02*
Y13805D01*
X16832Y13755D02*
X16882D01*
X16837Y13800D02*
X16877D01*
Y13760D02*
Y13800D01*
X16837Y13760D02*
X16877D01*
X16837D02*
Y13800D01*
X16842Y13795D02*
X16872D01*
Y13765D02*
Y13795D01*
X16842Y13765D02*
X16872D01*
X16842D02*
Y13790D01*
X16847D02*
X16867D01*
Y13770D02*
Y13790D01*
X16847Y13770D02*
X16867D01*
X16847D02*
Y13785D01*
X16852D02*
X16862D01*
Y13775D02*
Y13785D01*
X16852Y13775D02*
X16862D01*
X16852D02*
Y13785D01*
Y13780D02*
X16862D01*
X16787Y13850D02*
X16827D01*
Y13810D02*
Y13850D01*
X16787Y13810D02*
X16827D01*
X16787D02*
Y13850D01*
X16792Y13845D02*
X16822D01*
Y13815D02*
Y13845D01*
X16792Y13815D02*
X16822D01*
X16792D02*
Y13840D01*
X16797D02*
X16817D01*
Y13820D02*
Y13840D01*
X16797Y13820D02*
X16817D01*
X16797D02*
Y13835D01*
X16802D02*
X16812D01*
Y13825D02*
Y13835D01*
X16802Y13825D02*
X16812D01*
X16802D02*
Y13835D01*
Y13830D02*
X16812D01*
D23*
X19958Y14780D02*
Y14700D01*
X20004D01*
X20073D02*
X20043Y14780D01*
X20013Y14700D01*
X20024Y14727D02*
X20062D01*
X20145Y14769D02*
X20138Y14776D01*
X20126Y14780D01*
X20111D01*
X20100Y14776D01*
X20092Y14769D01*
Y14761D01*
X20096Y14753D01*
X20100Y14750D01*
X20107Y14746D01*
X20130Y14738D01*
X20138Y14734D01*
X20142Y14731D01*
X20145Y14723D01*
Y14711D01*
X20138Y14704D01*
X20126Y14700D01*
X20111D01*
X20100Y14704D01*
X20092Y14711D01*
X20283Y14761D02*
X20280Y14769D01*
X20272Y14776D01*
X20264Y14780D01*
X20249D01*
X20241Y14776D01*
X20234Y14769D01*
X20230Y14761D01*
X20226Y14750D01*
Y14731D01*
X20230Y14719D01*
X20234Y14711D01*
X20241Y14704D01*
X20249Y14700D01*
X20264D01*
X20272Y14704D01*
X20280Y14711D01*
X20283Y14719D01*
X20306Y14780D02*
Y14723D01*
X20310Y14711D01*
X20317Y14704D01*
X20329Y14700D01*
X20336D01*
X20348Y14704D01*
X20355Y14711D01*
X20359Y14723D01*
Y14780D01*
X20381D02*
Y14700D01*
Y14780D02*
X20412Y14700D01*
X20442Y14780D02*
X20412Y14700D01*
X20442Y14780D02*
Y14700D01*
X20465Y14780D02*
Y14700D01*
Y14780D02*
X20499D01*
X20511Y14776D01*
X20515Y14772D01*
X20518Y14765D01*
Y14757D01*
X20515Y14750D01*
X20511Y14746D01*
X20499Y14742D01*
X20465D02*
X20499D01*
X20511Y14738D01*
X20515Y14734D01*
X20518Y14727D01*
Y14715D01*
X20515Y14708D01*
X20511Y14704D01*
X20499Y14700D01*
X20465D01*
X20536Y14780D02*
Y14700D01*
Y14780D02*
X20570D01*
X20582Y14776D01*
X20586Y14772D01*
X20590Y14765D01*
Y14757D01*
X20586Y14750D01*
X20582Y14746D01*
X20570Y14742D01*
X20536D01*
X20563D02*
X20590Y14700D01*
X20657Y14780D02*
X20607D01*
Y14700D01*
X20657D01*
X20607Y14742D02*
X20638D01*
X20724Y14769D02*
X20716Y14776D01*
X20705Y14780D01*
X20689D01*
X20678Y14776D01*
X20670Y14769D01*
Y14761D01*
X20674Y14753D01*
X20678Y14750D01*
X20686Y14746D01*
X20708Y14738D01*
X20716Y14734D01*
X20720Y14731D01*
X20724Y14723D01*
Y14711D01*
X20716Y14704D01*
X20705Y14700D01*
X20689D01*
X20678Y14704D01*
X20670Y14711D01*
X20827Y14780D02*
X20820Y14776D01*
X20812Y14769D01*
X20808Y14761D01*
X20804Y14750D01*
Y14731D01*
X20808Y14719D01*
X20812Y14711D01*
X20820Y14704D01*
X20827Y14700D01*
X20842D01*
X20850Y14704D01*
X20858Y14711D01*
X20861Y14719D01*
X20865Y14731D01*
Y14750D01*
X20861Y14761D01*
X20858Y14769D01*
X20850Y14776D01*
X20842Y14780D01*
X20827D01*
X20884D02*
Y14700D01*
Y14780D02*
X20918D01*
X20930Y14776D01*
X20933Y14772D01*
X20937Y14765D01*
Y14757D01*
X20933Y14750D01*
X20930Y14746D01*
X20918Y14742D01*
X20884D02*
X20918D01*
X20930Y14738D01*
X20933Y14734D01*
X20937Y14727D01*
Y14715D01*
X20933Y14708D01*
X20930Y14704D01*
X20918Y14700D01*
X20884D01*
X21008Y14769D02*
X21001Y14776D01*
X20989Y14780D01*
X20974D01*
X20963Y14776D01*
X20955Y14769D01*
Y14761D01*
X20959Y14753D01*
X20963Y14750D01*
X20970Y14746D01*
X20993Y14738D01*
X21001Y14734D01*
X21005Y14731D01*
X21008Y14723D01*
Y14711D01*
X21001Y14704D01*
X20989Y14700D01*
X20974D01*
X20963Y14704D01*
X20955Y14711D01*
X21076Y14780D02*
X21026D01*
Y14700D01*
X21076D01*
X21026Y14742D02*
X21057D01*
X21089Y14780D02*
Y14700D01*
Y14780D02*
X21124D01*
X21135Y14776D01*
X21139Y14772D01*
X21143Y14765D01*
Y14757D01*
X21139Y14750D01*
X21135Y14746D01*
X21124Y14742D01*
X21089D01*
X21116D02*
X21143Y14700D01*
X21160Y14780D02*
X21191Y14700D01*
X21221Y14780D02*
X21191Y14700D01*
X21293D02*
X21262Y14780D01*
X21232Y14700D01*
X21243Y14727D02*
X21281D01*
X21338Y14780D02*
Y14700D01*
X21311Y14780D02*
X21365D01*
X21397D02*
X21389Y14776D01*
X21382Y14769D01*
X21378Y14761D01*
X21374Y14750D01*
Y14731D01*
X21378Y14719D01*
X21382Y14711D01*
X21389Y14704D01*
X21397Y14700D01*
X21412D01*
X21420Y14704D01*
X21427Y14711D01*
X21431Y14719D01*
X21435Y14731D01*
Y14750D01*
X21431Y14761D01*
X21427Y14769D01*
X21420Y14776D01*
X21412Y14780D01*
X21397D01*
X21454D02*
Y14700D01*
Y14780D02*
X21488D01*
X21499Y14776D01*
X21503Y14772D01*
X21507Y14765D01*
Y14757D01*
X21503Y14750D01*
X21499Y14746D01*
X21488Y14742D01*
X21454D01*
X21480D02*
X21507Y14700D01*
X21525Y14780D02*
X21555Y14742D01*
Y14700D01*
X21586Y14780D02*
X21555Y14742D01*
X21785Y14765D02*
X21792Y14769D01*
X21804Y14780D01*
Y14700D01*
X21847Y14761D02*
Y14765D01*
X21851Y14772D01*
X21855Y14776D01*
X21862Y14780D01*
X21878D01*
X21885Y14776D01*
X21889Y14772D01*
X21893Y14765D01*
Y14757D01*
X21889Y14750D01*
X21881Y14738D01*
X21843Y14700D01*
X21897D01*
X21915Y14689D02*
X21968Y14780D01*
X21981D02*
X22023D01*
X22000Y14750D01*
X22011D01*
X22019Y14746D01*
X22023Y14742D01*
X22027Y14731D01*
Y14723D01*
X22023Y14711D01*
X22015Y14704D01*
X22004Y14700D01*
X21992D01*
X21981Y14704D01*
X21977Y14708D01*
X21973Y14715D01*
X22044Y14689D02*
X22098Y14780D01*
X22107Y14761D02*
Y14765D01*
X22111Y14772D01*
X22115Y14776D01*
X22122Y14780D01*
X22137D01*
X22145Y14776D01*
X22149Y14772D01*
X22153Y14765D01*
Y14757D01*
X22149Y14750D01*
X22141Y14738D01*
X22103Y14700D01*
X22156D01*
X22197Y14780D02*
X22186Y14776D01*
X22178Y14765D01*
X22174Y14746D01*
Y14734D01*
X22178Y14715D01*
X22186Y14704D01*
X22197Y14700D01*
X22205D01*
X22216Y14704D01*
X22224Y14715D01*
X22228Y14734D01*
Y14746D01*
X22224Y14765D01*
X22216Y14776D01*
X22205Y14780D01*
X22197D01*
X22246Y14765D02*
X22253Y14769D01*
X22265Y14780D01*
Y14700D01*
X22308Y14761D02*
Y14765D01*
X22312Y14772D01*
X22316Y14776D01*
X22323Y14780D01*
X22338D01*
X22346Y14776D01*
X22350Y14772D01*
X22354Y14765D01*
Y14757D01*
X22350Y14750D01*
X22342Y14738D01*
X22304Y14700D01*
X22358D01*
D24*
X19958Y14915D02*
X19966Y14919D01*
X19977Y14930D01*
Y14850D01*
X20070Y14930D02*
X20032Y14850D01*
X20017Y14930D02*
X20070D01*
X20134D02*
X20096D01*
X20092Y14896D01*
X20096Y14900D01*
X20107Y14903D01*
X20118D01*
X20130Y14900D01*
X20137Y14892D01*
X20141Y14881D01*
Y14873D01*
X20137Y14861D01*
X20130Y14854D01*
X20118Y14850D01*
X20107D01*
X20096Y14854D01*
X20092Y14858D01*
X20088Y14865D01*
X20159Y14884D02*
X20228D01*
X20274Y14930D02*
X20263Y14926D01*
X20255Y14915D01*
X20251Y14896D01*
Y14884D01*
X20255Y14865D01*
X20263Y14854D01*
X20274Y14850D01*
X20282D01*
X20293Y14854D01*
X20301Y14865D01*
X20305Y14884D01*
Y14896D01*
X20301Y14915D01*
X20293Y14926D01*
X20282Y14930D01*
X20274D01*
X20345D02*
X20334Y14926D01*
X20326Y14915D01*
X20323Y14896D01*
Y14884D01*
X20326Y14865D01*
X20334Y14854D01*
X20345Y14850D01*
X20353D01*
X20364Y14854D01*
X20372Y14865D01*
X20376Y14884D01*
Y14896D01*
X20372Y14915D01*
X20364Y14926D01*
X20353Y14930D01*
X20345D01*
X20417D02*
X20405Y14926D01*
X20398Y14915D01*
X20394Y14896D01*
Y14884D01*
X20398Y14865D01*
X20405Y14854D01*
X20417Y14850D01*
X20424D01*
X20436Y14854D01*
X20443Y14865D01*
X20447Y14884D01*
Y14896D01*
X20443Y14915D01*
X20436Y14926D01*
X20424Y14930D01*
X20417D01*
X20469Y14911D02*
Y14915D01*
X20473Y14922D01*
X20476Y14926D01*
X20484Y14930D01*
X20499D01*
X20507Y14926D01*
X20511Y14922D01*
X20515Y14915D01*
Y14907D01*
X20511Y14900D01*
X20503Y14888D01*
X20465Y14850D01*
X20518D01*
X20544Y14930D02*
X20586D01*
X20563Y14900D01*
X20574D01*
X20582Y14896D01*
X20586Y14892D01*
X20590Y14881D01*
Y14873D01*
X20586Y14861D01*
X20578Y14854D01*
X20567Y14850D01*
X20555D01*
X20544Y14854D01*
X20540Y14858D01*
X20536Y14865D01*
X20615Y14854D02*
X20611Y14850D01*
X20607Y14854D01*
X20611Y14858D01*
X20615Y14854D01*
Y14846D01*
X20611Y14839D01*
X20607Y14835D01*
X20695Y14930D02*
Y14850D01*
Y14930D02*
X20730D01*
X20741Y14926D01*
X20745Y14922D01*
X20749Y14915D01*
Y14907D01*
X20745Y14900D01*
X20741Y14896D01*
X20730Y14892D01*
X20695D01*
X20722D02*
X20749Y14850D01*
X20767Y14881D02*
X20812D01*
Y14888D01*
X20809Y14896D01*
X20805Y14900D01*
X20797Y14903D01*
X20786D01*
X20778Y14900D01*
X20770Y14892D01*
X20767Y14881D01*
Y14873D01*
X20770Y14861D01*
X20778Y14854D01*
X20786Y14850D01*
X20797D01*
X20805Y14854D01*
X20812Y14861D01*
X20829Y14903D02*
X20852Y14850D01*
X20875Y14903D02*
X20852Y14850D01*
X20892Y14911D02*
Y14915D01*
X20896Y14922D01*
X20900Y14926D01*
X20907Y14930D01*
X20922D01*
X20930Y14926D01*
X20934Y14922D01*
X20938Y14915D01*
Y14907D01*
X20934Y14900D01*
X20926Y14888D01*
X20888Y14850D01*
X20941D01*
X20967Y14854D02*
X20963Y14850D01*
X20959Y14854D01*
X20963Y14858D01*
X20967Y14854D01*
Y14846D01*
X20963Y14839D01*
X20959Y14835D01*
X21101Y14919D02*
X21093Y14926D01*
X21082Y14930D01*
X21066D01*
X21055Y14926D01*
X21047Y14919D01*
Y14911D01*
X21051Y14903D01*
X21055Y14900D01*
X21063Y14896D01*
X21085Y14888D01*
X21093Y14884D01*
X21097Y14881D01*
X21101Y14873D01*
Y14861D01*
X21093Y14854D01*
X21082Y14850D01*
X21066D01*
X21055Y14854D01*
X21047Y14861D01*
X21126Y14930D02*
X21130Y14926D01*
X21134Y14930D01*
X21130Y14934D01*
X21126Y14930D01*
X21130Y14903D02*
Y14850D01*
X21148Y14903D02*
Y14850D01*
Y14888D02*
X21159Y14900D01*
X21167Y14903D01*
X21178D01*
X21186Y14900D01*
X21190Y14888D01*
Y14850D01*
X21218Y14930D02*
X21222Y14926D01*
X21226Y14930D01*
X21222Y14934D01*
X21218Y14930D01*
X21222Y14903D02*
Y14850D01*
X21282Y14892D02*
X21278Y14900D01*
X21267Y14903D01*
X21255D01*
X21244Y14900D01*
X21240Y14892D01*
X21244Y14884D01*
X21251Y14881D01*
X21271Y14877D01*
X21278Y14873D01*
X21282Y14865D01*
Y14861D01*
X21278Y14854D01*
X21267Y14850D01*
X21255D01*
X21244Y14854D01*
X21240Y14861D01*
X21310Y14930D02*
Y14865D01*
X21314Y14854D01*
X21322Y14850D01*
X21329D01*
X21299Y14903D02*
X21325D01*
X21360D02*
X21352Y14900D01*
X21344Y14892D01*
X21341Y14881D01*
Y14873D01*
X21344Y14861D01*
X21352Y14854D01*
X21360Y14850D01*
X21371D01*
X21379Y14854D01*
X21386Y14861D01*
X21390Y14873D01*
Y14881D01*
X21386Y14892D01*
X21379Y14900D01*
X21371Y14903D01*
X21360D01*
X21408D02*
Y14850D01*
Y14881D02*
X21411Y14892D01*
X21419Y14900D01*
X21427Y14903D01*
X21438D01*
X21464D02*
X21457Y14900D01*
X21449Y14892D01*
X21445Y14881D01*
Y14873D01*
X21449Y14861D01*
X21457Y14854D01*
X21464Y14850D01*
X21476D01*
X21483Y14854D01*
X21491Y14861D01*
X21495Y14873D01*
Y14881D01*
X21491Y14892D01*
X21483Y14900D01*
X21476Y14903D01*
X21464D01*
X21575Y14888D02*
X21610D01*
X21621Y14892D01*
X21625Y14896D01*
X21629Y14903D01*
Y14915D01*
X21625Y14922D01*
X21621Y14926D01*
X21610Y14930D01*
X21575D01*
Y14850D01*
X21665Y14903D02*
X21658Y14900D01*
X21650Y14892D01*
X21646Y14881D01*
Y14873D01*
X21650Y14861D01*
X21658Y14854D01*
X21665Y14850D01*
X21677D01*
X21685Y14854D01*
X21692Y14861D01*
X21696Y14873D01*
Y14881D01*
X21692Y14892D01*
X21685Y14900D01*
X21677Y14903D01*
X21665D01*
X21713D02*
X21729Y14850D01*
X21744Y14903D02*
X21729Y14850D01*
X21744Y14903D02*
X21759Y14850D01*
X21774Y14903D02*
X21759Y14850D01*
X21793Y14881D02*
X21839D01*
Y14888D01*
X21835Y14896D01*
X21831Y14900D01*
X21824Y14903D01*
X21812D01*
X21805Y14900D01*
X21797Y14892D01*
X21793Y14881D01*
Y14873D01*
X21797Y14861D01*
X21805Y14854D01*
X21812Y14850D01*
X21824D01*
X21831Y14854D01*
X21839Y14861D01*
X21856Y14903D02*
Y14850D01*
Y14881D02*
X21860Y14892D01*
X21867Y14900D01*
X21875Y14903D01*
X21886D01*
X22010Y14919D02*
X22002Y14926D01*
X21991Y14930D01*
X21976D01*
X21964Y14926D01*
X21956Y14919D01*
Y14911D01*
X21960Y14903D01*
X21964Y14900D01*
X21972Y14896D01*
X21995Y14888D01*
X22002Y14884D01*
X22006Y14881D01*
X22010Y14873D01*
Y14861D01*
X22002Y14854D01*
X21991Y14850D01*
X21976D01*
X21964Y14854D01*
X21956Y14861D01*
X22028Y14903D02*
Y14865D01*
X22032Y14854D01*
X22039Y14850D01*
X22051D01*
X22058Y14854D01*
X22070Y14865D01*
Y14903D02*
Y14850D01*
X22091Y14903D02*
Y14823D01*
Y14892D02*
X22098Y14900D01*
X22106Y14903D01*
X22117D01*
X22125Y14900D01*
X22132Y14892D01*
X22136Y14881D01*
Y14873D01*
X22132Y14861D01*
X22125Y14854D01*
X22117Y14850D01*
X22106D01*
X22098Y14854D01*
X22091Y14861D01*
X22153Y14903D02*
Y14823D01*
Y14892D02*
X22161Y14900D01*
X22169Y14903D01*
X22180D01*
X22188Y14900D01*
X22195Y14892D01*
X22199Y14881D01*
Y14873D01*
X22195Y14861D01*
X22188Y14854D01*
X22180Y14850D01*
X22169D01*
X22161Y14854D01*
X22153Y14861D01*
X22216Y14930D02*
Y14850D01*
X22237Y14903D02*
X22260Y14850D01*
X22283Y14903D02*
X22260Y14850D01*
X22252Y14835D01*
X22244Y14827D01*
X22237Y14823D01*
X22233D01*
D25*
X24512Y18871D02*
D03*
X24453D02*
D03*
X24393D02*
D03*
X24334D02*
D03*
X24354Y18812D02*
D03*
X24413D02*
D03*
X24472D02*
D03*
X24531D02*
D03*
X24512Y18753D02*
D03*
X24453D02*
D03*
X24393D02*
D03*
X24334D02*
D03*
X24354Y18694D02*
D03*
X24413D02*
D03*
X24472D02*
D03*
X24531D02*
D03*
X23052Y18817D02*
D03*
X22993Y18817D02*
D03*
X22934D02*
D03*
X22874D02*
D03*
X22894Y18758D02*
D03*
X22953Y18758D02*
D03*
X23012Y18758D02*
D03*
X23071Y18758D02*
D03*
X23052Y18699D02*
D03*
X22993D02*
D03*
X22934D02*
D03*
X22874D02*
D03*
X22894Y18640D02*
D03*
X22953Y18640D02*
D03*
X23012Y18640D02*
D03*
X23071Y18640D02*
D03*
X23800Y18837D02*
D03*
X23740Y18837D02*
D03*
X23681D02*
D03*
X23622D02*
D03*
X23642Y18778D02*
D03*
X23701Y18778D02*
D03*
X23760Y18778D02*
D03*
X23819Y18778D02*
D03*
X23800Y18719D02*
D03*
X23740D02*
D03*
X23681D02*
D03*
X23622D02*
D03*
X23642Y18660D02*
D03*
X23701Y18660D02*
D03*
X23760Y18660D02*
D03*
X23819Y18660D02*
D03*
X20602Y18709D02*
D03*
X20602Y18650D02*
D03*
Y18591D02*
D03*
Y18532D02*
D03*
X20661Y18552D02*
D03*
X20661Y18611D02*
D03*
X20661Y18670D02*
D03*
X20661Y18729D02*
D03*
X20720Y18709D02*
D03*
Y18650D02*
D03*
Y18591D02*
D03*
Y18532D02*
D03*
X20779Y18552D02*
D03*
X20779Y18611D02*
D03*
X20779Y18670D02*
D03*
X20779Y18729D02*
D03*
X20603Y18017D02*
D03*
X20603Y17958D02*
D03*
Y17899D02*
D03*
Y17840D02*
D03*
X20662Y17860D02*
D03*
X20662Y17919D02*
D03*
X20662Y17978D02*
D03*
X20662Y18037D02*
D03*
X20721Y18017D02*
D03*
Y17958D02*
D03*
Y17899D02*
D03*
Y17840D02*
D03*
X20780Y17860D02*
D03*
X20780Y17919D02*
D03*
X20780Y17978D02*
D03*
X20780Y18037D02*
D03*
D26*
X25437Y19268D02*
D03*
X25176Y19266D02*
D03*
X25462Y18223D02*
D03*
X25362D02*
D03*
X25262D02*
D03*
X25162D02*
D03*
Y18123D02*
D03*
X25262D02*
D03*
X25362D02*
D03*
X25462D02*
D03*
X25162Y17973D02*
D03*
X25262D02*
D03*
X25362D02*
D03*
X25462D02*
D03*
X25162Y17873D02*
D03*
X25262D02*
D03*
X25362D02*
D03*
X25462D02*
D03*
Y16973D02*
D03*
X25362D02*
D03*
X25262D02*
D03*
X25162D02*
D03*
X25462Y17073D02*
D03*
X25362D02*
D03*
X25262D02*
D03*
X25162D02*
D03*
X25462Y17223D02*
D03*
X25362D02*
D03*
X25262D02*
D03*
X25162D02*
D03*
Y17323D02*
D03*
X25262D02*
D03*
X25362D02*
D03*
X25462D02*
D03*
X25619Y16331D02*
D03*
X24696Y17463D02*
D03*
X24883Y18886D02*
D03*
X24747Y16012D02*
D03*
X23326Y19236D02*
D03*
X24019Y19237D02*
D03*
X24879Y19227D02*
D03*
X20730Y19171D02*
D03*
X20993Y19167D02*
D03*
X25250Y18922D02*
D03*
X17945Y15906D02*
D03*
X18953Y19023D02*
D03*
D27*
X24701Y17130D02*
D03*
X24707Y16424D02*
D03*
D28*
X24701Y17230D02*
D03*
X25362Y16723D02*
D03*
Y18473D02*
D03*
X24707Y16324D02*
D03*
X18321Y16514D02*
D03*
X18221Y16564D02*
D03*
X18021D02*
D03*
X17921Y16514D02*
D03*
Y16414D02*
D03*
Y16314D02*
D03*
Y16214D02*
D03*
X18021Y16164D02*
D03*
X18221D02*
D03*
X18321Y16214D02*
D03*
Y16314D02*
D03*
X18221Y16364D02*
D03*
Y16464D02*
D03*
X18021D02*
D03*
Y16364D02*
D03*
Y16264D02*
D03*
X18221D02*
D03*
D29*
X25462Y17498D02*
D03*
X25362D02*
D03*
X25262D02*
D03*
X25162D02*
D03*
X25462Y17598D02*
D03*
X25362D02*
D03*
X25262D02*
D03*
X25162D02*
D03*
X25462Y17698D02*
D03*
X25362D02*
D03*
X25262D02*
D03*
X25162D02*
D03*
D30*
X23012Y19038D02*
D03*
X23808Y19051D02*
D03*
X24472Y19077D02*
D03*
D31*
X22815Y19038D02*
D03*
X23611Y19051D02*
D03*
X24275Y19077D02*
D03*
X20415Y18499D02*
D03*
X20385Y17819D02*
D03*
X18546Y18157D02*
D03*
X19921Y17950D02*
D03*
X19521D02*
D03*
D32*
X22839Y17521D02*
D03*
X21265Y18900D02*
D03*
D33*
X22839Y17221D02*
D03*
Y16821D02*
D03*
Y16521D02*
D03*
X24439D02*
D03*
Y16821D02*
D03*
Y17221D02*
D03*
Y17521D02*
D03*
X22679Y18460D02*
D03*
X23199D02*
D03*
X23435Y18469D02*
D03*
X23955D02*
D03*
X24139Y18486D02*
D03*
X24659D02*
D03*
X22515Y18900D02*
D03*
Y18650D02*
D03*
Y18300D02*
D03*
Y18050D02*
D03*
X21265D02*
D03*
Y18300D02*
D03*
Y18650D02*
D03*
X21814Y17380D02*
D03*
X21414D02*
D03*
X21114D02*
D03*
Y15970D02*
D03*
X21414D02*
D03*
X21814D02*
D03*
X22114D02*
D03*
X19815Y17380D02*
D03*
X19415D02*
D03*
X19115D02*
D03*
Y15970D02*
D03*
X19415D02*
D03*
X19815D02*
D03*
X20115D02*
D03*
X20925Y18330D02*
D03*
Y18850D02*
D03*
X20927Y17643D02*
D03*
Y18163D02*
D03*
X19075Y17790D02*
D03*
Y18310D02*
D03*
D34*
X23039Y18369D02*
D03*
X22939D02*
D03*
X22839D02*
D03*
X23795Y18378D02*
D03*
X23695D02*
D03*
X23595D02*
D03*
X24499Y18395D02*
D03*
X24399D02*
D03*
X24299D02*
D03*
X21016Y18690D02*
D03*
Y18590D02*
D03*
Y18490D02*
D03*
X21019Y18003D02*
D03*
Y17903D02*
D03*
Y17803D02*
D03*
X19166Y18150D02*
D03*
Y18050D02*
D03*
Y17950D02*
D03*
D35*
X22114Y17380D02*
D03*
X20115D02*
D03*
D36*
X18321Y16414D02*
D03*
D37*
X20415Y18696D02*
D03*
X20385Y18016D02*
D03*
X18546Y17960D02*
D03*
D38*
X19921Y18550D02*
D03*
X19521D02*
D03*
X19921Y18850D02*
D03*
D39*
X19521D02*
D03*
D40*
X20505Y19201D02*
D03*
X20349D02*
D03*
X19569D02*
D03*
X19725D02*
D03*
X19881D02*
D03*
X20037D02*
D03*
X20193D02*
D03*
D41*
X19413D02*
D03*
D42*
X25775Y19349D02*
D03*
X25772Y15849D02*
D03*
D43*
X22104Y18599D02*
D03*
X24095Y16574D02*
D03*
X23764Y16292D02*
D03*
X21873Y16281D02*
D03*
X21853Y19101D02*
D03*
X22081Y16118D02*
D03*
X21923Y19167D02*
D03*
X20815Y19042D02*
D03*
X24082Y19308D02*
D03*
X21110Y18126D02*
D03*
X24590Y17892D02*
D03*
X23533D02*
D03*
X20847Y18430D02*
D03*
X22991Y18456D02*
D03*
X23256Y18558D02*
D03*
X23729Y18486D02*
D03*
X23219Y17823D02*
D03*
X23247Y17549D02*
D03*
X23312Y17539D02*
D03*
X23247Y17679D02*
D03*
X23494Y17736D02*
D03*
X23444Y16892D02*
D03*
X23124Y17225D02*
D03*
X23128Y17135D02*
D03*
X23223Y16892D02*
D03*
X18950Y18213D02*
D03*
X20657Y16088D02*
D03*
X25109Y16254D02*
D03*
X25134Y16227D02*
D03*
X25236Y16228D02*
D03*
X25384Y16074D02*
D03*
X25138Y16075D02*
D03*
X25537Y16122D02*
D03*
X24998Y16124D02*
D03*
X25338Y16254D02*
D03*
X23639Y19363D02*
D03*
X18154Y17813D02*
D03*
D44*
X23096Y18021D02*
D03*
X24881Y18047D02*
D03*
X24919Y16543D02*
D03*
X18365Y15805D02*
D03*
X18965Y16603D02*
D03*
X18990Y16280D02*
D03*
X23215Y16981D02*
D03*
X17915Y17498D02*
D03*
X18340Y17323D02*
D03*
X17858Y16691D02*
D03*
X17877Y17250D02*
D03*
X24680Y17632D02*
D03*
X24186Y15832D02*
D03*
X23852Y16145D02*
D03*
X23465Y17287D02*
D03*
X23176Y18177D02*
D03*
X23906Y18180D02*
D03*
X21123Y17666D02*
D03*
X21511Y18164D02*
D03*
X20761Y18274D02*
D03*
X24047Y16861D02*
D03*
X23962Y16690D02*
D03*
X22179Y18404D02*
D03*
X21015Y16353D02*
D03*
X21502Y16350D02*
D03*
X21763Y16347D02*
D03*
X20296Y16320D02*
D03*
X19242Y16379D02*
D03*
X19116Y16527D02*
D03*
X19416Y16822D02*
D03*
X19811Y17105D02*
D03*
X23915Y17641D02*
D03*
Y17385D02*
D03*
X23531Y17464D02*
D03*
X24843Y17499D02*
D03*
X24810Y17721D02*
D03*
M02*
