M48
;Layer_Color=9474304
;FILE_FORMAT=2:3
INCH,LZ
;TYPE=PLATED
T1F00S00C0.006
T2F00S00C0.010
T3F00S00C0.035
T4F00S00C0.052
T5F00S00C0.120
%
T01
X03473Y00894
X03978
X04275
X04573
X04452Y01482
X04251
X04051
X03851
X03651
X0345
X03251
X03051
X02771Y01474
X02672Y01473
X02571Y01474
X02455Y01468
X02055Y01793
Y01808
Y01823
Y01838
Y01853
Y01868
Y01883
Y01898
Y01913
Y01928
Y01943
Y01958
Y01973
Y01988
Y02003
Y02018
Y02033
Y02048
X01213Y0186
X01231Y01668
X00838Y01676
Y01771
Y01871
Y01504
Y02073
Y02173
Y02276
Y02369
Y02571
Y02673
Y02773
Y02881
Y03076
Y03176
Y03273
Y03371
Y03573
X01211Y03426
X01222Y03226
X01228Y03025
X0123Y02857
X01226Y02663
X01227Y02469
X01218Y0226
X01216Y02058
X02055Y02063
Y02078
Y02093
Y02108
Y02123
Y02138
Y02153
Y02168
Y02183
Y02198
Y02213
Y02228
X02265Y02297
Y02312
Y02327
Y02342
Y02357
Y02372
Y02387
Y02402
Y02417
Y02432
Y02447
Y02462
X0225Y02651
X02246Y02686
X02268Y02688
X02266Y02731
X0225Y02725
X02247Y02763
X02271Y02776
X02272Y02811
X02247Y02803
Y02834
X02237Y02869
X02253Y02876
X02234Y02894
X02257Y02922
X02241Y02944
X0226Y02961
X02242Y02981
X0226Y03
X02241Y03018
X02258Y03039
X02235Y03053
X0225Y03075
X02232Y03093
X0225Y03112
X02241Y03137
X02257Y03158
X02234Y03172
X0225Y03193
X02257Y03218
X02243Y0324
X02264Y03449
Y03469
Y03488
Y03508
Y03528
X02271Y03553
X02264Y03567
X02271Y03592
X02264Y03606
X02449Y03606
Y03567
Y03528
Y03488
Y03449
X02536Y03587
Y03607
X02697Y03606
Y03587
X02718Y03579
X02707Y03548
X02706Y03533
X02707Y03508
X02706Y03488
X02717Y03478
X02706Y03443
X02685Y03233
Y03213
Y03115
Y03095
Y03075
Y03055
Y03016
Y02996
Y02977
Y02957
Y02918
Y02898
Y02878
Y02858
Y02819
Y02799
Y0278
Y0276
Y02721
Y02701
Y02681
Y02661
X02537Y0267
Y02695
Y02721
X0255Y02733
X02535Y02754
Y02779
X02553Y02798
X02551Y02827
X02525Y02823
X02537Y0285
X02534Y02875
X02551Y02894
X02537Y02916
X0252Y02922
X02537Y02941
Y02966
Y02991
Y03016
X02553Y03032
X02535Y0305
X02536Y03075
X02553Y03095
X02537Y03114
Y03134
Y03154
Y03173
X02525Y03184
X02537Y03207
Y03232
Y02645
X03331Y02662
Y02681
Y02701
Y02721
Y0274
Y0276
Y0278
Y02799
Y02819
Y02839
Y02858
Y02878
Y02898
Y02917
Y02937
Y02957
Y02977
Y02996
Y03016
Y03036
Y03055
Y03075
Y03095
Y03114
Y03134
Y03154
Y03173
Y03193
Y03213
Y03232
X03253Y03233
Y03213
Y03193
Y03174
Y03154
Y03134
Y03115
Y03095
Y03075
Y03036
Y02996
Y02957
Y02918
Y02878
Y02839
Y02799
Y0276
Y0274
X03326Y03449
Y03488
Y03514
X0331Y03508
X03309Y03547
X0331Y03573
Y03598
X03304Y03472
X03058Y03464
Y03484
Y03504
Y03524
Y03544
Y03564
Y03584
Y03604
Y03444
X0348Y03888
X03477Y03913
X03504Y03911
X03503Y03938
X03498Y03973
X03479Y03956
X03476Y03992
X03463Y04015
X03332Y03863
X03333Y03838
X03326Y03809
X0331Y03803
X03346
X03328Y0377
Y03744
X03303Y03734
X0331Y03687
X03313Y03672
X0333Y03667
X03329Y03687
X03335Y03631
X0331Y03623
X03058Y03624
Y03644
Y03664
Y03684
Y03704
Y03724
Y03744
Y03764
Y03784
Y03804
Y03824
Y03844
Y03864
Y03884
Y03904
Y03924
Y03944
Y03964
Y03984
Y04004
Y04024
X02706Y0403
X02713Y03995
X02701Y03986
X02706Y03961
X02698Y03948
X02706Y03923
X02691Y03902
X02695Y03866
X02726Y03872
X02724Y03845
X02706Y03826
Y03791
X02694Y03774
X02719Y03749
X02713Y03724
X02695Y03723
X02696Y03704
X02697Y03685
Y03665
Y03646
Y03626
X02536Y03626
Y03646
Y03666
Y03685
Y03705
Y03725
X02449Y03725
Y03685
Y03646
Y03764
Y03803
Y03843
Y03882
Y03922
Y03961
Y04
X02264Y04
X02271Y03986
X02264Y03961
X02271Y03946
X02264Y03921
X02271Y03907
X02264Y03882
X02271Y03868
X02264Y03843
X02271Y03828
X02264Y03803
X02271Y03789
X02264Y03764
X02271Y0375
X02264Y03725
X02271Y0371
X02264Y03685
X02271Y03671
X02264Y03646
X02271Y03631
X02264Y04026
X02114Y04786
X02099
X02084
X02069
X02054
X02039
X02024
X02009
X01994
X01979
X01964
X01949
X01934
X01919
X01904
X0121Y04406
X01218Y04215
X01206Y04021
X01207Y03826
X01206Y03622
X00838Y03673
Y03773
Y03875
Y04302
Y04404
X01532Y06571
X01543Y06582
X01554Y06592
X01564Y06603
X01575Y06614
X01585Y06624
X01596Y06635
X01607Y06645
X01617Y06656
X01628Y06667
X01639Y06677
X01649Y06688
X0166Y06698
X0167Y06709
X01681Y0672
X01692Y0673
X02712Y05898
Y05883
Y05868
Y05853
Y05838
Y05823
Y05808
Y05793
Y05778
Y05763
Y05748
Y05733
X04373Y05802
Y05817
Y05832
Y05847
X04409Y06617
X04311
X04211
X04111
X04013
X03911
X03811
X03711
X01829Y06868
X0184Y06879
X01819Y06858
X01808Y06847
X01798Y06836
X01787Y06826
X01776Y06815
X01766Y06805
X01755Y06794
X01745Y06783
X01734Y06773
X01723Y06762
X01713Y06752
X01702Y06741
T02
X02496Y027
X02472Y03197
X02496Y03492
X03263Y03486
X03332Y03279
X03287Y02699
X03286Y03978
X02496Y03984
T03
X05028Y01187
Y01287
X05128
X05228
X05328
Y01187
X05228
X05128
X04928
Y01287
X04828
X04728
X04628
X04528
X04428
X04328
X04228
X04128
X04028
X03928
X03828
X03728
X03628
X03528
X03428
Y01187
X03528
X03628
X03728
X03828
X03928
X04028
X04128
X04228
X04328
X04428
X04528
X04628
X04728
X04828
X03328
Y01287
X03228
X03128
X03028
X02928
X02828
X02728
X02628
X02528
X02428
Y01187
X02528
X02628
X02728
X02828
X02928
X03028
X03128
X03228
X01046Y01541
Y01641
Y01741
Y01841
Y01941
Y02041
X00946
Y01941
Y01841
Y01741
Y01641
Y01541
Y02141
X01046
Y02241
Y02341
Y02441
Y02541
Y02641
Y02741
Y02841
Y02941
Y03041
Y03141
Y03241
Y03341
Y03441
Y03541
X00946
Y03441
Y03341
Y03241
Y03141
Y03041
Y02941
Y02841
Y02741
Y02641
Y02541
Y02441
Y02341
Y02241
X05458Y02281
X05558
Y02381
Y02481
Y02581
Y02681
Y02781
Y02881
Y02981
Y03081
Y03181
Y03281
Y03381
Y03481
Y03581
X05458
Y03481
Y03381
Y03281
Y03181
Y03081
Y02981
Y02881
Y02781
Y02681
Y02581
Y02481
Y02381
Y03681
X05558
Y03781
Y03881
Y03981
Y04081
Y04181
Y04281
Y04381
Y04481
Y04581
Y04681
Y04781
Y04881
Y04981
Y05081
X05458
Y04981
Y04881
Y04781
Y04681
Y04581
Y04481
Y04381
Y04281
Y04181
Y04081
Y03981
Y03881
Y03781
X01046Y03741
Y03641
X00946
Y03741
Y03841
X01046
Y03941
Y04041
Y04141
Y04241
Y04341
Y04441
X00946
Y04341
Y04241
Y04141
Y04041
Y03941
X0098Y05569
Y05669
Y05769
Y05869
Y05969
Y06069
Y06169
X0088
Y06069
Y05969
Y05869
Y05769
Y05669
Y05569
X05458Y05181
X05558
X05111Y06842
X05011
Y06942
X05111
X04911
Y06842
X04811
X04711
X04611
X04511
X04411
X04311
X04211
X04111
X04011
X03911
X03811
X03711
X03611
X03511
X03411
Y06942
X03511
X03611
X03711
X03811
X03911
X04011
X04111
X04211
X04311
X04411
X04511
X04611
X04711
X04811
X03311
Y06842
X03211
X03111
X03011
X02911
X02811
X02711
X02611
X02511
X02411
X02311
X02211
Y06942
X02311
X02411
X02511
X02611
X02711
X02811
X02911
X03011
X03111
X03211
T04
X05804Y01625
X02038Y00507
X00456Y00842
X00486Y05095
X05512Y05906
X05315Y06102
X05709
X05906Y05906
X05804Y06989
X00714Y07179
T05
X00394Y00394
X05906
X01772Y01181
X04331Y02559
X01181Y05118
X04331Y05512
X05906Y0748
X00394
M30
