M48
;Layer_Color=9474304
;FILE_FORMAT=2:3
INCH,LZ
;TYPE=NON_PLATED
T5F00S00C0.035
T6F00S00C0.039
T7F00S00C0.049
T8F00S00C0.071
T9F00S00C0.079
T10F00S00C0.169
%
T05
X01625Y02429
T06
X00806Y02429
T07
X00571Y02433
X0187
T08
X02323Y00286
X00118
X0065Y00665
X01791
Y01807
X0065
X02323Y02186
X00118
T09
X01156Y00641
X01814Y0117
X01285Y01828
X00627Y01299
T10
X00782Y00795
X01663Y00793
Y01679
X00778
M30
