%FSLAX23Y23*%
%MOIN*%
G70*
G01*
G75*
G04 Layer_Color=2752767*
%ADD10C,0.004*%
%ADD11C,0.008*%
%ADD12C,0.012*%
%ADD13C,0.012*%
%ADD14C,0.007*%
%ADD15C,0.020*%
%ADD16C,0.010*%
%ADD17C,0.030*%
%ADD18C,0.018*%
%ADD19C,0.016*%
%ADD20C,0.024*%
%ADD21C,0.006*%
%ADD22C,0.013*%
D10*
X11410Y12365D02*
Y12381D01*
X11403Y12373D02*
X11418D01*
X11758Y14096D02*
Y14112D01*
X11751Y14104D02*
X11766D01*
X19370Y14813D02*
Y14853D01*
X19410D01*
Y14813D01*
X19370D01*
Y14713D02*
Y14753D01*
X19410D01*
Y14713D01*
X19370D01*
Y14613D02*
Y14653D01*
X19410D01*
Y14613D01*
X19370D01*
Y14513D02*
Y14553D01*
X19410D01*
Y14513D01*
X19370D01*
Y14413D02*
Y14453D01*
X19410D01*
Y14413D01*
X19370D01*
Y14313D02*
Y14353D01*
X19410D01*
Y14313D01*
X19370D01*
Y14213D02*
Y14253D01*
X19410D01*
Y14213D01*
X19370D01*
Y14113D02*
Y14153D01*
X19410D01*
Y14113D01*
X19370D01*
X11230Y11693D02*
Y11733D01*
X11270D01*
Y11693D01*
X11230D01*
Y11793D02*
Y11833D01*
X11270D01*
Y11793D01*
X11230D01*
Y11893D02*
Y11933D01*
X11270D01*
Y11893D01*
X11230D01*
Y11993D02*
Y12033D01*
X11270D01*
Y11993D01*
X11230D01*
X19370Y12813D02*
Y12853D01*
X19410D01*
Y12813D01*
X19370D01*
Y12713D02*
Y12753D01*
X19410D01*
Y12713D01*
X19370D01*
Y12613D02*
Y12653D01*
X19410D01*
Y12613D01*
X19370D01*
Y12513D02*
Y12553D01*
X19410D01*
Y12513D01*
X19370D01*
Y12413D02*
Y12453D01*
X19410D01*
Y12413D01*
X19370D01*
Y12313D02*
Y12353D01*
X19410D01*
Y12313D01*
X19370D01*
Y12213D02*
Y12253D01*
X19410D01*
Y12213D01*
X19370D01*
Y12113D02*
Y12153D01*
X19410D01*
Y12113D01*
X19370D01*
Y13813D02*
Y13853D01*
X19410D01*
Y13813D01*
X19370D01*
Y13713D02*
Y13753D01*
X19410D01*
Y13713D01*
X19370D01*
Y13613D02*
Y13653D01*
X19410D01*
Y13613D01*
X19370D01*
Y13513D02*
Y13553D01*
X19410D01*
Y13513D01*
X19370D01*
Y13413D02*
Y13453D01*
X19410D01*
Y13413D01*
X19370D01*
Y13313D02*
Y13353D01*
X19410D01*
Y13313D01*
X19370D01*
Y13213D02*
Y13253D01*
X19410D01*
Y13213D01*
X19370D01*
Y13113D02*
Y13153D01*
X19410D01*
Y13113D01*
X19370D01*
Y11813D02*
Y11853D01*
X19410D01*
Y11813D01*
X19370D01*
Y11713D02*
Y11753D01*
X19410D01*
Y11713D01*
X19370D01*
Y11613D02*
Y11653D01*
X19410D01*
Y11613D01*
X19370D01*
Y11513D02*
Y11553D01*
X19410D01*
Y11513D01*
X19370D01*
Y11413D02*
Y11453D01*
X19410D01*
Y11413D01*
X19370D01*
Y11313D02*
Y11353D01*
X19410D01*
Y11313D01*
X19370D01*
Y11213D02*
Y11253D01*
X19410D01*
Y11213D01*
X19370D01*
Y11113D02*
Y11153D01*
X19410D01*
Y11113D01*
X19370D01*
X17084Y13258D02*
X17064Y13298D01*
X17104D01*
X17084Y13258D01*
Y13658D02*
X17064Y13698D01*
X17104D01*
X17084Y13658D01*
Y14188D02*
X17064Y14228D01*
X17104D01*
X17084Y14188D01*
Y13788D02*
X17064Y13828D01*
X17104D01*
X17084Y13788D01*
X19370Y15813D02*
Y15853D01*
X19410D01*
Y15813D01*
X19370D01*
Y15713D02*
Y15753D01*
X19410D01*
Y15713D01*
X19370D01*
Y15613D02*
Y15653D01*
X19410D01*
Y15613D01*
X19370D01*
Y15513D02*
Y15553D01*
X19410D01*
Y15513D01*
X19370D01*
Y15413D02*
Y15453D01*
X19410D01*
Y15413D01*
X19370D01*
Y15313D02*
Y15353D01*
X19410D01*
Y15313D01*
X19370D01*
Y15213D02*
Y15253D01*
X19410D01*
Y15213D01*
X19370D01*
Y15113D02*
Y15153D01*
X19410D01*
Y15113D01*
X19370D01*
X11750Y13094D02*
X11760Y13104D01*
X11770D01*
X11760Y13114D01*
X11770Y13124D01*
X11760D01*
X11750Y13134D01*
X11740Y13124D01*
X11730D01*
X11740Y13114D01*
X11730Y13104D01*
X11740D01*
X11750Y13094D01*
Y13291D02*
X11760Y13301D01*
X11770D01*
X11760Y13311D01*
X11770Y13321D01*
X11760D01*
X11750Y13331D01*
X11740Y13321D01*
X11730D01*
X11740Y13311D01*
X11730Y13301D01*
X11740D01*
X11750Y13291D01*
X11748Y13862D02*
X11758Y13872D01*
X11768D01*
X11758Y13882D01*
X11768Y13892D01*
X11758D01*
X11748Y13902D01*
X11738Y13892D01*
X11728D01*
X11738Y13882D01*
X11728Y13872D01*
X11738D01*
X11748Y13862D01*
Y13665D02*
X11758Y13675D01*
X11768D01*
X11758Y13685D01*
X11768Y13695D01*
X11758D01*
X11748Y13705D01*
X11738Y13695D01*
X11728D01*
X11738Y13685D01*
X11728Y13675D01*
X11738D01*
X11748Y13665D01*
X19359Y10913D02*
X19369Y10933D01*
X19359Y10953D01*
X19379Y10943D01*
X19399Y10953D01*
X19389Y10933D01*
X19399Y10913D01*
X19379Y10923D01*
X19359Y10913D01*
X11170Y16464D02*
X11180Y16484D01*
X11170Y16504D01*
X11190Y16494D01*
X11210Y16504D01*
X11200Y16484D01*
X11210Y16464D01*
X11190Y16474D01*
X11170Y16464D01*
Y10913D02*
X11180Y10933D01*
X11170Y10953D01*
X11190Y10943D01*
X11210Y10953D01*
X11200Y10933D01*
X11210Y10913D01*
X11190Y10923D01*
X11170Y10913D01*
X19370Y16413D02*
Y16453D01*
X19410D01*
Y16413D01*
X19370D01*
Y16313D02*
Y16353D01*
X19410D01*
Y16313D01*
X19370D01*
Y16213D02*
Y16253D01*
X19410D01*
Y16213D01*
X19370D01*
Y16113D02*
Y16153D01*
X19410D01*
Y16113D01*
X19370D01*
X12722Y11430D02*
Y11420D01*
X12742D01*
Y11430D01*
X12752D01*
Y11450D01*
X12742D01*
Y11460D01*
X12722D01*
Y11450D01*
X12712D01*
Y11430D01*
X12722D01*
X12802D02*
Y11420D01*
X12822D01*
Y11430D01*
X12832D01*
Y11450D01*
X12822D01*
Y11460D01*
X12802D01*
Y11450D01*
X12792D01*
Y11430D01*
X12802D01*
X12802Y11530D02*
Y11520D01*
X12822D01*
Y11530D01*
X12832D01*
Y11550D01*
X12822D01*
Y11560D01*
X12802D01*
Y11550D01*
X12792D01*
Y11530D01*
X12802D01*
X12722D02*
Y11520D01*
X12742D01*
Y11530D01*
X12752D01*
Y11550D01*
X12742D01*
Y11560D01*
X12722D01*
Y11550D01*
X12712D01*
Y11530D01*
X12722D01*
X15612D02*
Y11520D01*
X15632D01*
Y11530D01*
X15642D01*
Y11550D01*
X15632D01*
Y11560D01*
X15612D01*
Y11550D01*
X15602D01*
Y11530D01*
X15612D01*
Y11430D02*
Y11420D01*
X15632D01*
Y11430D01*
X15642D01*
Y11450D01*
X15632D01*
Y11460D01*
X15612D01*
Y11450D01*
X15602D01*
Y11430D01*
X15612D01*
X15532D02*
Y11420D01*
X15552D01*
Y11430D01*
X15562D01*
Y11450D01*
X15552D01*
Y11460D01*
X15532D01*
Y11450D01*
X15522D01*
Y11430D01*
X15532D01*
Y11530D02*
Y11520D01*
X15552D01*
Y11530D01*
X15562D01*
Y11550D01*
X15552D01*
Y11560D01*
X15532D01*
Y11550D01*
X15522D01*
Y11530D01*
X15532D01*
X15926Y14698D02*
Y14688D01*
X15946D01*
Y14698D01*
X15956D01*
Y14718D01*
X15946D01*
Y14728D01*
X15926D01*
Y14718D01*
X15916D01*
Y14698D01*
X15926D01*
Y14598D02*
Y14588D01*
X15946D01*
Y14598D01*
X15956D01*
Y14618D01*
X15946D01*
Y14628D01*
X15926D01*
Y14618D01*
X15916D01*
Y14598D01*
X15926D01*
X16006D02*
Y14588D01*
X16026D01*
Y14598D01*
X16036D01*
Y14618D01*
X16026D01*
Y14628D01*
X16006D01*
Y14618D01*
X15996D01*
Y14598D01*
X16006D01*
Y14698D02*
Y14688D01*
X16026D01*
Y14698D01*
X16036D01*
Y14718D01*
X16026D01*
Y14728D01*
X16006D01*
Y14718D01*
X15996D01*
Y14698D01*
X16006D01*
X13116D02*
Y14688D01*
X13136D01*
Y14698D01*
X13146D01*
Y14718D01*
X13136D01*
Y14728D01*
X13116D01*
Y14718D01*
X13106D01*
Y14698D01*
X13116D01*
X13196D02*
Y14688D01*
X13216D01*
Y14698D01*
X13226D01*
Y14718D01*
X13216D01*
Y14728D01*
X13196D01*
Y14718D01*
X13186D01*
Y14698D01*
X13196D01*
X13196Y14598D02*
Y14588D01*
X13216D01*
Y14598D01*
X13226D01*
Y14618D01*
X13216D01*
Y14628D01*
X13196D01*
Y14618D01*
X13186D01*
Y14598D01*
X13196D01*
X13116D02*
Y14588D01*
X13136D01*
Y14598D01*
X13146D01*
Y14618D01*
X13136D01*
Y14628D01*
X13116D01*
Y14618D01*
X13106D01*
Y14598D01*
X13116D01*
X16006Y12800D02*
Y12790D01*
X16026D01*
Y12800D01*
X16036D01*
Y12820D01*
X16026D01*
Y12830D01*
X16006D01*
Y12820D01*
X15996D01*
Y12800D01*
X16006D01*
X15927D02*
Y12790D01*
X15947D01*
Y12800D01*
X15957D01*
Y12820D01*
X15947D01*
Y12830D01*
X15927D01*
Y12820D01*
X15917D01*
Y12800D01*
X15927D01*
X15926Y12700D02*
Y12690D01*
X15946D01*
Y12700D01*
X15956D01*
Y12720D01*
X15946D01*
Y12730D01*
X15926D01*
Y12720D01*
X15916D01*
Y12700D01*
X15926D01*
X16006D02*
Y12690D01*
X16026D01*
Y12700D01*
X16036D01*
Y12720D01*
X16026D01*
Y12730D01*
X16006D01*
Y12720D01*
X15996D01*
Y12700D01*
X16006D01*
X13116D02*
Y12690D01*
X13136D01*
Y12700D01*
X13146D01*
Y12720D01*
X13136D01*
Y12730D01*
X13116D01*
Y12720D01*
X13106D01*
Y12700D01*
X13116D01*
Y12800D02*
Y12790D01*
X13136D01*
Y12800D01*
X13146D01*
Y12820D01*
X13136D01*
Y12830D01*
X13116D01*
Y12820D01*
X13106D01*
Y12800D01*
X13116D01*
X13196D02*
Y12790D01*
X13216D01*
Y12800D01*
X13226D01*
Y12820D01*
X13216D01*
Y12830D01*
X13196D01*
Y12820D01*
X13186D01*
Y12800D01*
X13196D01*
Y12700D02*
Y12690D01*
X13216D01*
Y12700D01*
X13226D01*
Y12720D01*
X13216D01*
Y12730D01*
X13196D01*
Y12720D01*
X13186D01*
Y12700D01*
X13196D01*
X12802Y15868D02*
Y15858D01*
X12822D01*
Y15868D01*
X12832D01*
Y15888D01*
X12822D01*
Y15898D01*
X12802D01*
Y15888D01*
X12792D01*
Y15868D01*
X12802D01*
Y15968D02*
Y15958D01*
X12822D01*
Y15968D01*
X12832D01*
Y15988D01*
X12822D01*
Y15998D01*
X12802D01*
Y15988D01*
X12792D01*
Y15968D01*
X12802D01*
X12722D02*
Y15958D01*
X12742D01*
Y15968D01*
X12752D01*
Y15988D01*
X12742D01*
Y15998D01*
X12722D01*
Y15988D01*
X12712D01*
Y15968D01*
X12722D01*
Y15868D02*
Y15858D01*
X12742D01*
Y15868D01*
X12752D01*
Y15888D01*
X12742D01*
Y15898D01*
X12722D01*
Y15888D01*
X12712D01*
Y15868D01*
X12722D01*
X15612D02*
Y15858D01*
X15632D01*
Y15868D01*
X15642D01*
Y15888D01*
X15632D01*
Y15898D01*
X15612D01*
Y15888D01*
X15602D01*
Y15868D01*
X15612D01*
X15532D02*
Y15858D01*
X15552D01*
Y15868D01*
X15562D01*
Y15888D01*
X15552D01*
Y15898D01*
X15532D01*
Y15888D01*
X15522D01*
Y15868D01*
X15532D01*
X15533Y15968D02*
Y15958D01*
X15553D01*
Y15968D01*
X15563D01*
Y15988D01*
X15553D01*
Y15998D01*
X15533D01*
Y15988D01*
X15523D01*
Y15968D01*
X15533D01*
X15612D02*
Y15958D01*
X15632D01*
Y15968D01*
X15642D01*
Y15988D01*
X15632D01*
Y15998D01*
X15612D01*
Y15988D01*
X15602D01*
Y15968D01*
X15612D01*
X13994Y13291D02*
X14004D01*
X14014Y13301D01*
X14024Y13291D01*
X14034D01*
Y13301D01*
X14024Y13311D01*
X14034Y13321D01*
Y13331D01*
X14024D01*
X14014Y13321D01*
X14004Y13331D01*
X13994D01*
Y13321D01*
X14004Y13311D01*
X13994Y13301D01*
Y13291D01*
X13877Y13350D02*
X13887D01*
X13897Y13360D01*
X13907Y13350D01*
X13917D01*
Y13360D01*
X13907Y13370D01*
X13917Y13380D01*
Y13390D01*
X13907D01*
X13897Y13380D01*
X13887Y13390D01*
X13877D01*
Y13380D01*
X13887Y13370D01*
X13877Y13360D01*
Y13350D01*
X13785Y13443D02*
X13795D01*
X13805Y13453D01*
X13815Y13443D01*
X13825D01*
Y13453D01*
X13815Y13463D01*
X13825Y13473D01*
Y13483D01*
X13815D01*
X13805Y13473D01*
X13795Y13483D01*
X13785D01*
Y13473D01*
X13795Y13463D01*
X13785Y13453D01*
Y13443D01*
X13726Y13559D02*
X13736D01*
X13746Y13569D01*
X13756Y13559D01*
X13766D01*
Y13569D01*
X13756Y13579D01*
X13766Y13589D01*
Y13599D01*
X13756D01*
X13746Y13589D01*
X13736Y13599D01*
X13726D01*
Y13589D01*
X13736Y13579D01*
X13726Y13569D01*
Y13559D01*
X13705Y13688D02*
X13715D01*
X13725Y13698D01*
X13735Y13688D01*
X13745D01*
Y13698D01*
X13735Y13708D01*
X13745Y13718D01*
Y13728D01*
X13735D01*
X13725Y13718D01*
X13715Y13728D01*
X13705D01*
Y13718D01*
X13715Y13708D01*
X13705Y13698D01*
Y13688D01*
X13726Y13818D02*
X13736D01*
X13746Y13828D01*
X13756Y13818D01*
X13766D01*
Y13828D01*
X13756Y13838D01*
X13766Y13848D01*
Y13858D01*
X13756D01*
X13746Y13848D01*
X13736Y13858D01*
X13726D01*
Y13848D01*
X13736Y13838D01*
X13726Y13828D01*
Y13818D01*
X13785Y13934D02*
X13795D01*
X13805Y13944D01*
X13815Y13934D01*
X13825D01*
Y13944D01*
X13815Y13954D01*
X13825Y13964D01*
Y13974D01*
X13815D01*
X13805Y13964D01*
X13795Y13974D01*
X13785D01*
Y13964D01*
X13795Y13954D01*
X13785Y13944D01*
Y13934D01*
X13877Y14027D02*
X13887D01*
X13897Y14037D01*
X13907Y14027D01*
X13917D01*
Y14037D01*
X13907Y14047D01*
X13917Y14057D01*
Y14067D01*
X13907D01*
X13897Y14057D01*
X13887Y14067D01*
X13877D01*
Y14057D01*
X13887Y14047D01*
X13877Y14037D01*
Y14027D01*
X13994Y14086D02*
X14004D01*
X14014Y14096D01*
X14024Y14086D01*
X14034D01*
Y14096D01*
X14024Y14106D01*
X14034Y14116D01*
Y14126D01*
X14024D01*
X14014Y14116D01*
X14004Y14126D01*
X13994D01*
Y14116D01*
X14004Y14106D01*
X13994Y14096D01*
Y14086D01*
X14123Y14106D02*
X14133D01*
X14143Y14116D01*
X14153Y14106D01*
X14163D01*
Y14116D01*
X14153Y14126D01*
X14163Y14136D01*
Y14146D01*
X14153D01*
X14143Y14136D01*
X14133Y14146D01*
X14123D01*
Y14136D01*
X14133Y14126D01*
X14123Y14116D01*
Y14106D01*
X14252Y14086D02*
X14262D01*
X14272Y14096D01*
X14282Y14086D01*
X14292D01*
Y14096D01*
X14282Y14106D01*
X14292Y14116D01*
Y14126D01*
X14282D01*
X14272Y14116D01*
X14262Y14126D01*
X14252D01*
Y14116D01*
X14262Y14106D01*
X14252Y14096D01*
Y14086D01*
X14369Y14027D02*
X14379D01*
X14389Y14037D01*
X14399Y14027D01*
X14409D01*
Y14037D01*
X14399Y14047D01*
X14409Y14057D01*
Y14067D01*
X14399D01*
X14389Y14057D01*
X14379Y14067D01*
X14369D01*
Y14057D01*
X14379Y14047D01*
X14369Y14037D01*
Y14027D01*
X14461Y13934D02*
X14471D01*
X14481Y13944D01*
X14491Y13934D01*
X14501D01*
Y13944D01*
X14491Y13954D01*
X14501Y13964D01*
Y13974D01*
X14491D01*
X14481Y13964D01*
X14471Y13974D01*
X14461D01*
Y13964D01*
X14471Y13954D01*
X14461Y13944D01*
Y13934D01*
X14521Y13818D02*
X14531D01*
X14541Y13828D01*
X14551Y13818D01*
X14561D01*
Y13828D01*
X14551Y13838D01*
X14561Y13848D01*
Y13858D01*
X14551D01*
X14541Y13848D01*
X14531Y13858D01*
X14521D01*
Y13848D01*
X14531Y13838D01*
X14521Y13828D01*
Y13818D01*
X14541Y13688D02*
X14551D01*
X14561Y13698D01*
X14571Y13688D01*
X14581D01*
Y13698D01*
X14571Y13708D01*
X14581Y13718D01*
Y13728D01*
X14571D01*
X14561Y13718D01*
X14551Y13728D01*
X14541D01*
Y13718D01*
X14551Y13708D01*
X14541Y13698D01*
Y13688D01*
X14521Y13559D02*
X14531D01*
X14541Y13569D01*
X14551Y13559D01*
X14561D01*
Y13569D01*
X14551Y13579D01*
X14561Y13589D01*
Y13599D01*
X14551D01*
X14541Y13589D01*
X14531Y13599D01*
X14521D01*
Y13589D01*
X14531Y13579D01*
X14521Y13569D01*
Y13559D01*
X14461Y13443D02*
X14471D01*
X14481Y13453D01*
X14491Y13443D01*
X14501D01*
Y13453D01*
X14491Y13463D01*
X14501Y13473D01*
Y13483D01*
X14491D01*
X14481Y13473D01*
X14471Y13483D01*
X14461D01*
Y13473D01*
X14471Y13463D01*
X14461Y13453D01*
Y13443D01*
X14369Y13350D02*
X14379D01*
X14389Y13360D01*
X14399Y13350D01*
X14409D01*
Y13360D01*
X14399Y13370D01*
X14409Y13380D01*
Y13390D01*
X14399D01*
X14389Y13380D01*
X14379Y13390D01*
X14369D01*
Y13380D01*
X14379Y13370D01*
X14369Y13360D01*
Y13350D01*
X14252Y13291D02*
X14262D01*
X14272Y13301D01*
X14282Y13291D01*
X14292D01*
Y13301D01*
X14282Y13311D01*
X14292Y13321D01*
Y13331D01*
X14282D01*
X14272Y13321D01*
X14262Y13331D01*
X14252D01*
Y13321D01*
X14262Y13311D01*
X14252Y13301D01*
Y13291D01*
X14123Y13270D02*
X14133D01*
X14143Y13280D01*
X14153Y13270D01*
X14163D01*
Y13280D01*
X14153Y13290D01*
X14163Y13300D01*
Y13310D01*
X14153D01*
X14143Y13300D01*
X14133Y13310D01*
X14123D01*
Y13300D01*
X14133Y13290D01*
X14123Y13280D01*
Y13270D01*
X13992Y13438D02*
X14002D01*
X14012Y13448D01*
X14022Y13438D01*
X14032D01*
Y13448D01*
X14022Y13458D01*
X14032Y13468D01*
Y13478D01*
X14022D01*
X14012Y13468D01*
X14002Y13478D01*
X13992D01*
Y13468D01*
X14002Y13458D01*
X13992Y13448D01*
Y13438D01*
X13890Y13528D02*
X13900D01*
X13910Y13538D01*
X13920Y13528D01*
X13930D01*
Y13538D01*
X13920Y13548D01*
X13930Y13558D01*
Y13568D01*
X13920D01*
X13910Y13558D01*
X13900Y13568D01*
X13890D01*
Y13558D01*
X13900Y13548D01*
X13890Y13538D01*
Y13528D01*
X13842Y13654D02*
X13852D01*
X13862Y13664D01*
X13872Y13654D01*
X13882D01*
Y13664D01*
X13872Y13674D01*
X13882Y13684D01*
Y13694D01*
X13872D01*
X13862Y13684D01*
X13852Y13694D01*
X13842D01*
Y13684D01*
X13852Y13674D01*
X13842Y13664D01*
Y13654D01*
X13859Y13789D02*
X13869D01*
X13879Y13799D01*
X13889Y13789D01*
X13899D01*
Y13799D01*
X13889Y13809D01*
X13899Y13819D01*
Y13829D01*
X13889D01*
X13879Y13819D01*
X13869Y13829D01*
X13859D01*
Y13819D01*
X13869Y13809D01*
X13859Y13799D01*
Y13789D01*
X13936Y13900D02*
X13946D01*
X13956Y13910D01*
X13966Y13900D01*
X13976D01*
Y13910D01*
X13966Y13920D01*
X13976Y13930D01*
Y13940D01*
X13966D01*
X13956Y13930D01*
X13946Y13940D01*
X13936D01*
Y13930D01*
X13946Y13920D01*
X13936Y13910D01*
Y13900D01*
X14055Y13963D02*
X14065D01*
X14075Y13973D01*
X14085Y13963D01*
X14095D01*
Y13973D01*
X14085Y13983D01*
X14095Y13993D01*
Y14003D01*
X14085D01*
X14075Y13993D01*
X14065Y14003D01*
X14055D01*
Y13993D01*
X14065Y13983D01*
X14055Y13973D01*
Y13963D01*
X14191Y13963D02*
X14201D01*
X14211Y13973D01*
X14221Y13963D01*
X14231D01*
Y13973D01*
X14221Y13983D01*
X14231Y13993D01*
Y14003D01*
X14221D01*
X14211Y13993D01*
X14201Y14003D01*
X14191D01*
Y13993D01*
X14201Y13983D01*
X14191Y13973D01*
Y13963D01*
X14311Y13900D02*
X14321D01*
X14331Y13910D01*
X14341Y13900D01*
X14351D01*
Y13910D01*
X14341Y13920D01*
X14351Y13930D01*
Y13940D01*
X14341D01*
X14331Y13930D01*
X14321Y13940D01*
X14311D01*
Y13930D01*
X14321Y13920D01*
X14311Y13910D01*
Y13900D01*
X14388Y13789D02*
X14398D01*
X14408Y13799D01*
X14418Y13789D01*
X14428D01*
Y13799D01*
X14418Y13809D01*
X14428Y13819D01*
Y13829D01*
X14418D01*
X14408Y13819D01*
X14398Y13829D01*
X14388D01*
Y13819D01*
X14398Y13809D01*
X14388Y13799D01*
Y13789D01*
X14404Y13654D02*
X14414D01*
X14424Y13664D01*
X14434Y13654D01*
X14444D01*
Y13664D01*
X14434Y13674D01*
X14444Y13684D01*
Y13694D01*
X14434D01*
X14424Y13684D01*
X14414Y13694D01*
X14404D01*
Y13684D01*
X14414Y13674D01*
X14404Y13664D01*
Y13654D01*
X14356Y13528D02*
X14366D01*
X14376Y13538D01*
X14386Y13528D01*
X14396D01*
Y13538D01*
X14386Y13548D01*
X14396Y13558D01*
Y13568D01*
X14386D01*
X14376Y13558D01*
X14366Y13568D01*
X14356D01*
Y13558D01*
X14366Y13548D01*
X14356Y13538D01*
Y13528D01*
X14255Y13438D02*
X14265D01*
X14275Y13448D01*
X14285Y13438D01*
X14295D01*
Y13448D01*
X14285Y13458D01*
X14295Y13468D01*
Y13478D01*
X14285D01*
X14275Y13468D01*
X14265Y13478D01*
X14255D01*
Y13468D01*
X14265Y13458D01*
X14255Y13448D01*
Y13438D01*
X14123Y13405D02*
X14133D01*
X14143Y13415D01*
X14153Y13405D01*
X14163D01*
Y13415D01*
X14153Y13425D01*
X14163Y13435D01*
Y13445D01*
X14153D01*
X14143Y13435D01*
X14133Y13445D01*
X14123D01*
Y13435D01*
X14133Y13425D01*
X14123Y13415D01*
Y13405D01*
X14006Y13595D02*
X14016D01*
X14026Y13605D01*
X14036Y13595D01*
X14046D01*
Y13605D01*
X14036Y13615D01*
X14046Y13625D01*
Y13635D01*
X14036D01*
X14026Y13625D01*
X14016Y13635D01*
X14006D01*
Y13625D01*
X14016Y13615D01*
X14006Y13605D01*
Y13595D01*
X13977Y13722D02*
X13987D01*
X13997Y13732D01*
X14007Y13722D01*
X14017D01*
Y13732D01*
X14007Y13742D01*
X14017Y13752D01*
Y13762D01*
X14007D01*
X13997Y13752D01*
X13987Y13762D01*
X13977D01*
Y13752D01*
X13987Y13742D01*
X13977Y13732D01*
Y13722D01*
X14058Y13824D02*
X14068D01*
X14078Y13834D01*
X14088Y13824D01*
X14098D01*
Y13834D01*
X14088Y13844D01*
X14098Y13854D01*
Y13864D01*
X14088D01*
X14078Y13854D01*
X14068Y13864D01*
X14058D01*
Y13854D01*
X14068Y13844D01*
X14058Y13834D01*
Y13824D01*
X14188Y13824D02*
X14198D01*
X14208Y13834D01*
X14218Y13824D01*
X14228D01*
Y13834D01*
X14218Y13844D01*
X14228Y13854D01*
Y13864D01*
X14218D01*
X14208Y13854D01*
X14198Y13864D01*
X14188D01*
Y13854D01*
X14198Y13844D01*
X14188Y13834D01*
Y13824D01*
X14269Y13722D02*
X14279D01*
X14289Y13732D01*
X14299Y13722D01*
X14309D01*
Y13732D01*
X14299Y13742D01*
X14309Y13752D01*
Y13762D01*
X14299D01*
X14289Y13752D01*
X14279Y13762D01*
X14269D01*
Y13752D01*
X14279Y13742D01*
X14269Y13732D01*
Y13722D01*
X14240Y13595D02*
X14250D01*
X14260Y13605D01*
X14270Y13595D01*
X14280D01*
Y13605D01*
X14270Y13615D01*
X14280Y13625D01*
Y13635D01*
X14270D01*
X14260Y13625D01*
X14250Y13635D01*
X14240D01*
Y13625D01*
X14250Y13615D01*
X14240Y13605D01*
Y13595D01*
X14123Y13538D02*
X14133D01*
X14143Y13548D01*
X14153Y13538D01*
X14163D01*
Y13548D01*
X14153Y13558D01*
X14163Y13568D01*
Y13578D01*
X14153D01*
X14143Y13568D01*
X14133Y13578D01*
X14123D01*
Y13568D01*
X14133Y13558D01*
X14123Y13548D01*
Y13538D01*
Y13688D02*
X14133D01*
X14143Y13698D01*
X14153Y13688D01*
X14163D01*
Y13698D01*
X14153Y13708D01*
X14163Y13718D01*
Y13728D01*
X14153D01*
X14143Y13718D01*
X14133Y13728D01*
X14123D01*
Y13718D01*
X14133Y13708D01*
X14123Y13698D01*
Y13688D01*
X13781Y13071D02*
X13801Y13091D01*
X13821Y13071D01*
X13801Y13051D01*
X13781Y13071D01*
X14833Y11242D02*
X14853Y11262D01*
X14873Y11242D01*
X14853Y11222D01*
X14833Y11242D01*
X14774Y11236D02*
X14794Y11256D01*
X14814Y11236D01*
X14794Y11216D01*
X14774Y11236D01*
X14801Y11277D02*
X14821Y11297D01*
X14841Y11277D01*
X14821Y11257D01*
X14801Y11277D01*
X14851Y11285D02*
X14871Y11305D01*
X14891Y11285D01*
X14871Y11265D01*
X14851Y11285D01*
X14904Y11283D02*
X14924Y11303D01*
X14944Y11283D01*
X14924Y11263D01*
X14904Y11283D01*
X14876Y11255D02*
X14896Y11275D01*
X14916Y11255D01*
X14896Y11235D01*
X14876Y11255D01*
X14985Y11258D02*
X15005Y11278D01*
X15025Y11258D01*
X15005Y11238D01*
X14985Y11258D01*
X14949Y11277D02*
X14969Y11297D01*
X14989Y11277D01*
X14969Y11257D01*
X14949Y11277D01*
X14729Y11278D02*
X14749Y11298D01*
X14769Y11278D01*
X14749Y11258D01*
X14729Y11278D01*
X14689Y11281D02*
X14709Y11301D01*
X14729Y11281D01*
X14709Y11261D01*
X14689Y11281D01*
X13480Y12114D02*
X13500Y12134D01*
X13520Y12114D01*
X13500Y12094D01*
X13480Y12114D01*
X13480Y11719D02*
X13500Y11739D01*
X13520Y11719D01*
X13500Y11699D01*
X13480Y11719D01*
X13516Y11723D02*
X13536Y11743D01*
X13556Y11723D01*
X13536Y11703D01*
X13516Y11723D01*
X13548Y11735D02*
X13568Y11755D01*
X13588Y11735D01*
X13568Y11715D01*
X13548Y11735D01*
X13579Y11720D02*
X13599Y11740D01*
X13619Y11720D01*
X13599Y11700D01*
X13579Y11720D01*
X13372Y15712D02*
X13392Y15732D01*
X13412Y15712D01*
X13392Y15692D01*
X13372Y15712D01*
X12518Y15711D02*
X12538Y15731D01*
X12558Y15711D01*
X12538Y15691D01*
X12518Y15711D01*
X12517Y11696D02*
X12537Y11716D01*
X12557Y11696D01*
X12537Y11676D01*
X12517Y11696D01*
X13605Y11694D02*
X13625Y11714D01*
X13645Y11694D01*
X13625Y11674D01*
X13605Y11694D01*
X12597Y11787D02*
X12617Y11807D01*
X12637Y11787D01*
X12617Y11767D01*
X12597Y11787D01*
X13049Y11786D02*
X13069Y11806D01*
X13089Y11786D01*
X13069Y11766D01*
X13049Y11786D01*
X13029Y11748D02*
X13049Y11768D01*
X13069Y11748D01*
X13049Y11728D01*
X13029Y11748D01*
X12569Y11749D02*
X12589Y11769D01*
X12609Y11749D01*
X12589Y11729D01*
X12569Y11749D01*
X12593Y16547D02*
X12613Y16567D01*
X12633Y16547D01*
X12613Y16527D01*
X12593Y16547D01*
X15160Y16542D02*
X15180Y16562D01*
X15200Y16542D01*
X15180Y16522D01*
X15160Y16542D01*
X12632Y16520D02*
X12652Y16540D01*
X12672Y16520D01*
X12652Y16500D01*
X12632Y16520D01*
X15125D02*
X15145Y16540D01*
X15165Y16520D01*
X15145Y16500D01*
X15125Y16520D01*
X13080Y12491D02*
X13100Y12511D01*
X13120Y12491D01*
X13100Y12471D01*
X13080Y12491D01*
X13549Y12487D02*
X13569Y12507D01*
X13589Y12487D01*
X13569Y12467D01*
X13549Y12487D01*
X13029Y11196D02*
X13049Y11216D01*
X13069Y11196D01*
X13049Y11176D01*
X13029Y11196D01*
X12752Y11195D02*
X12772Y11215D01*
X12792Y11195D01*
X12772Y11175D01*
X12752Y11195D01*
X12800Y12544D02*
X12820Y12564D01*
X12840Y12544D01*
X12820Y12524D01*
X12800Y12544D01*
X13474D02*
X13494Y12564D01*
X13514Y12544D01*
X13494Y12524D01*
X13474Y12544D01*
X13107Y12078D02*
X13127Y12098D01*
X13147Y12078D01*
X13127Y12058D01*
X13107Y12078D01*
X13526D02*
X13546Y12098D01*
X13566Y12078D01*
X13546Y12058D01*
X13526Y12078D01*
X12969Y12007D02*
X12989Y12027D01*
X13009Y12007D01*
X12989Y11987D01*
X12969Y12007D01*
X13512Y12009D02*
X13532Y12029D01*
X13552Y12009D01*
X13532Y11989D01*
X13512Y12009D01*
X13552Y11980D02*
X13572Y12000D01*
X13592Y11980D01*
X13572Y11960D01*
X13552Y11980D01*
X12944D02*
X12964Y12000D01*
X12984Y11980D01*
X12964Y11960D01*
X12944Y11980D01*
X12915Y11949D02*
X12935Y11969D01*
X12955Y11949D01*
X12935Y11929D01*
X12915Y11949D01*
X13592D02*
X13612Y11969D01*
X13632Y11949D01*
X13612Y11929D01*
X13592Y11949D01*
X13010Y15553D02*
X13030Y15573D01*
X13050Y15553D01*
X13030Y15533D01*
X13010Y15553D01*
X13631Y15552D02*
X13651Y15572D01*
X13671Y15552D01*
X13651Y15532D01*
X13631Y15552D01*
X12973Y15613D02*
X12993Y15633D01*
X13013Y15613D01*
X12993Y15593D01*
X12973Y15613D01*
X12938Y15644D02*
X12958Y15664D01*
X12978Y15644D01*
X12958Y15624D01*
X12938Y15644D01*
X16192Y15707D02*
X16212Y15727D01*
X16232Y15707D01*
X16212Y15687D01*
X16192Y15707D01*
X14960Y15703D02*
X14980Y15723D01*
X15000Y15703D01*
X14980Y15683D01*
X14960Y15703D01*
X16231Y15678D02*
X16251Y15698D01*
X16271Y15678D01*
X16251Y15658D01*
X16231Y15678D01*
X14734Y15676D02*
X14754Y15696D01*
X14774Y15676D01*
X14754Y15656D01*
X14734Y15676D01*
X16166Y16120D02*
X16186Y16140D01*
X16206Y16120D01*
X16186Y16100D01*
X16166Y16120D01*
X14736Y16165D02*
X14756Y16185D01*
X14776Y16165D01*
X14756Y16145D01*
X14736Y16165D01*
X16141Y16172D02*
X16161Y16192D01*
X16181Y16172D01*
X16161Y16152D01*
X16141Y16172D01*
X14711Y16196D02*
X14731Y16216D01*
X14751Y16196D01*
X14731Y16176D01*
X14711Y16196D01*
X16231Y12498D02*
X16251Y12518D01*
X16271Y12498D01*
X16251Y12478D01*
X16231Y12498D01*
X16192Y12563D02*
X16212Y12583D01*
X16232Y12563D01*
X16212Y12543D01*
X16192Y12563D01*
X16158Y12951D02*
X16178Y12971D01*
X16198Y12951D01*
X16178Y12931D01*
X16158Y12951D01*
X16141Y13001D02*
X16161Y13021D01*
X16181Y13001D01*
X16161Y12981D01*
X16141Y13001D01*
X14286Y12517D02*
X14306Y12537D01*
X14326Y12517D01*
X14306Y12497D01*
X14286Y12517D01*
X14512Y12552D02*
X14532Y12572D01*
X14552Y12552D01*
X14532Y12532D01*
X14512Y12552D01*
X14289Y12951D02*
X14309Y12971D01*
X14329Y12951D01*
X14309Y12931D01*
X14289Y12951D01*
X14263Y12976D02*
X14283Y12996D01*
X14303Y12976D01*
X14283Y12956D01*
X14263Y12976D01*
X15177Y12406D02*
X15197Y12426D01*
X15217Y12406D01*
X15197Y12386D01*
X15177Y12406D01*
X16345Y12405D02*
X16365Y12425D01*
X16385Y12405D01*
X16365Y12385D01*
X16345Y12405D01*
Y15515D02*
X16365Y15535D01*
X16385Y15515D01*
X16365Y15495D01*
X16345Y15515D01*
X13934Y15514D02*
X13954Y15534D01*
X13974Y15514D01*
X13954Y15494D01*
X13934Y15514D01*
X13794Y14962D02*
X13814Y14982D01*
X13834Y14962D01*
X13814Y14942D01*
X13794Y14962D01*
X16100Y14996D02*
X16120Y15016D01*
X16140Y14996D01*
X16120Y14976D01*
X16100Y14996D01*
X16094Y12371D02*
X16114Y12391D01*
X16134Y12371D01*
X16114Y12351D01*
X16094Y12371D01*
X13501Y12370D02*
X13521Y12390D01*
X13541Y12370D01*
X13521Y12350D01*
X13501Y12370D01*
X15151D02*
X15171Y12390D01*
X15191Y12370D01*
X15171Y12350D01*
X15151Y12370D01*
X12836Y12462D02*
X12856Y12482D01*
X12876Y12462D01*
X12856Y12442D01*
X12836Y12462D01*
Y11249D02*
X12856Y11269D01*
X12876Y11249D01*
X12856Y11229D01*
X12836Y11249D01*
X13054Y11251D02*
X13074Y11271D01*
X13094Y11251D01*
X13074Y11231D01*
X13054Y11251D01*
X13213Y12464D02*
X13233Y12484D01*
X13253Y12464D01*
X13233Y12444D01*
X13213Y12464D01*
X12856Y13264D02*
X12876Y13284D01*
X12896Y13264D01*
X12876Y13244D01*
X12856Y13264D01*
X12831Y13222D02*
X12851Y13242D01*
X12871Y13222D01*
X12851Y13202D01*
X12831Y13222D01*
X12805Y13177D02*
X12825Y13197D01*
X12845Y13177D01*
X12825Y13157D01*
X12805Y13177D01*
X12780Y13146D02*
X12800Y13166D01*
X12820Y13146D01*
X12800Y13126D01*
X12780Y13146D01*
X12733Y13117D02*
X12753Y13137D01*
X12773Y13117D01*
X12753Y13097D01*
X12733Y13117D01*
X12707Y13065D02*
X12727Y13085D01*
X12747Y13065D01*
X12727Y13045D01*
X12707Y13065D01*
X12689Y13000D02*
X12709Y13020D01*
X12729Y13000D01*
X12709Y12980D01*
X12689Y13000D01*
X12663Y12963D02*
X12683Y12983D01*
X12703Y12963D01*
X12683Y12943D01*
X12663Y12963D01*
X13525Y13265D02*
X13545Y13285D01*
X13565Y13265D01*
X13545Y13245D01*
X13525Y13265D01*
X13524Y13222D02*
X13544Y13242D01*
X13564Y13222D01*
X13544Y13202D01*
X13524Y13222D01*
Y13180D02*
X13544Y13200D01*
X13564Y13180D01*
X13544Y13160D01*
X13524Y13180D01*
Y13142D02*
X13544Y13162D01*
X13564Y13142D01*
X13544Y13122D01*
X13524Y13142D01*
X13444Y13117D02*
X13464Y13137D01*
X13484Y13117D01*
X13464Y13097D01*
X13444Y13117D01*
X13446Y13066D02*
X13466Y13086D01*
X13486Y13066D01*
X13466Y13046D01*
X13446Y13066D01*
X13448Y13004D02*
X13468Y13024D01*
X13488Y13004D01*
X13468Y12984D01*
X13448Y13004D01*
X13424Y12963D02*
X13444Y12983D01*
X13464Y12963D01*
X13444Y12943D01*
X13424Y12963D01*
X15126Y12460D02*
X15146Y12480D01*
X15166Y12460D01*
X15146Y12440D01*
X15126Y12460D01*
X11310Y12543D02*
Y12583D01*
X11350D01*
Y12543D01*
X11310D01*
X11318Y12551D02*
Y12575D01*
X11342D01*
Y12551D01*
X11318D01*
X11588Y14284D02*
Y14324D01*
X11628D01*
Y14284D01*
X11588D01*
X11596Y14292D02*
Y14316D01*
X11620D01*
Y14292D01*
X11596D01*
X14620Y15928D02*
X14640Y15948D01*
X14660Y15928D01*
X14640Y15908D01*
X14620Y15928D01*
X13773D02*
X13793Y15948D01*
X13813Y15928D01*
X13793Y15908D01*
X13773Y15928D01*
X12935D02*
X12955Y15948D01*
X12975Y15928D01*
X12955Y15908D01*
X12935Y15928D01*
X13330Y14658D02*
X13350Y14678D01*
X13370Y14658D01*
X13350Y14638D01*
X13330Y14658D01*
X14169D02*
X14189Y14678D01*
X14209Y14658D01*
X14189Y14638D01*
X14169Y14658D01*
X15013Y14659D02*
X15033Y14679D01*
X15053Y14659D01*
X15033Y14639D01*
X15013Y14659D01*
X15014Y12759D02*
X15034Y12779D01*
X15054Y12759D01*
X15034Y12739D01*
X15014Y12759D01*
X14174Y12760D02*
X14194Y12780D01*
X14214Y12760D01*
X14194Y12740D01*
X14174Y12760D01*
X13328Y12759D02*
X13348Y12779D01*
X13368Y12759D01*
X13348Y12739D01*
X13328Y12759D01*
X12941Y11490D02*
X12961Y11510D01*
X12981Y11490D01*
X12961Y11470D01*
X12941Y11490D01*
X13781Y11489D02*
X13801Y11509D01*
X13821Y11489D01*
X13801Y11469D01*
X13781Y11489D01*
X14621D02*
X14641Y11509D01*
X14661Y11489D01*
X14641Y11469D01*
X14621Y11489D01*
X15502Y12525D02*
X15522Y12545D01*
X15542Y12525D01*
X15522Y12505D01*
X15502Y12525D01*
X15554Y12523D02*
X15574Y12543D01*
X15594Y12523D01*
X15574Y12503D01*
X15554Y12523D01*
X15628Y12529D02*
X15648Y12549D01*
X15668Y12529D01*
X15648Y12509D01*
X15628Y12529D01*
X15679Y12527D02*
X15699Y12547D01*
X15719Y12527D01*
X15699Y12507D01*
X15679Y12527D01*
X14763Y14911D02*
X14783Y14931D01*
X14803Y14911D01*
X14783Y14891D01*
X14763Y14911D01*
X14813D02*
X14833Y14931D01*
X14853Y14911D01*
X14833Y14891D01*
X14813Y14911D01*
X15129Y14902D02*
X15149Y14922D01*
X15169Y14902D01*
X15149Y14882D01*
X15129Y14902D01*
X15178Y14905D02*
X15198Y14925D01*
X15218Y14905D01*
X15198Y14885D01*
X15178Y14905D01*
X15253Y14900D02*
X15273Y14920D01*
X15293Y14900D01*
X15273Y14880D01*
X15253Y14900D01*
X15303Y14899D02*
X15323Y14919D01*
X15343Y14899D01*
X15323Y14879D01*
X15303Y14899D01*
X14762Y13617D02*
X14782Y13637D01*
X14802Y13617D01*
X14782Y13597D01*
X14762Y13617D01*
X14859D02*
X14879Y13637D01*
X14899Y13617D01*
X14879Y13597D01*
X14859Y13617D01*
X14858Y13207D02*
X14878Y13227D01*
X14898Y13207D01*
X14878Y13187D01*
X14858Y13207D01*
X14927Y14206D02*
X14947Y14226D01*
X14967Y14206D01*
X14947Y14186D01*
X14927Y14206D01*
X14988Y14263D02*
X15008Y14283D01*
X15028Y14263D01*
X15008Y14243D01*
X14988Y14263D01*
X15064Y13838D02*
X15084Y13858D01*
X15104Y13838D01*
X15084Y13818D01*
X15064Y13838D01*
X15152Y14072D02*
X15172Y14092D01*
X15192Y14072D01*
X15172Y14052D01*
X15152Y14072D01*
X15276Y13132D02*
X15296Y13152D01*
X15316Y13132D01*
X15296Y13112D01*
X15276Y13132D01*
X15365Y13598D02*
X15385Y13618D01*
X15405Y13598D01*
X15385Y13578D01*
X15365Y13598D01*
X15368Y13305D02*
X15388Y13325D01*
X15408Y13305D01*
X15388Y13285D01*
X15368Y13305D01*
X15409Y13708D02*
X15429Y13728D01*
X15449Y13708D01*
X15429Y13688D01*
X15409Y13708D01*
X15462Y13776D02*
X15482Y13796D01*
X15502Y13776D01*
X15482Y13756D01*
X15462Y13776D01*
X15564Y12952D02*
X15584Y12972D01*
X15604Y12952D01*
X15584Y12932D01*
X15564Y12952D01*
X15596Y13647D02*
X15616Y13667D01*
X15636Y13647D01*
X15616Y13627D01*
X15596Y13647D01*
X15676Y13002D02*
X15696Y13022D01*
X15716Y13002D01*
X15696Y12982D01*
X15676Y13002D01*
X15760Y13899D02*
X15780Y13919D01*
X15800Y13899D01*
X15780Y13879D01*
X15760Y13899D01*
X14760Y13399D02*
X14780Y13419D01*
X14800Y13399D01*
X14780Y13379D01*
X14760Y13399D01*
X15378Y14899D02*
X15398Y14919D01*
X15418Y14899D01*
X15398Y14879D01*
X15378Y14899D01*
X15431Y14316D02*
X15451Y14336D01*
X15471Y14316D01*
X15451Y14296D01*
X15431Y14316D01*
X15430Y14902D02*
X15450Y14922D01*
X15470Y14902D01*
X15450Y14882D01*
X15430Y14902D01*
X15495Y14002D02*
X15515Y14022D01*
X15535Y14002D01*
X15515Y13982D01*
X15495Y14002D01*
X15519Y14903D02*
X15539Y14923D01*
X15559Y14903D01*
X15539Y14883D01*
X15519Y14903D01*
X15560Y14365D02*
X15580Y14385D01*
X15600Y14365D01*
X15580Y14345D01*
X15560Y14365D01*
X15229Y14438D02*
X15249Y14458D01*
X15269Y14438D01*
X15249Y14418D01*
X15229Y14438D01*
X15583Y14904D02*
X15603Y14924D01*
X15623Y14904D01*
X15603Y14884D01*
X15583Y14904D01*
X15623Y13521D02*
X15643Y13541D01*
X15663Y13521D01*
X15643Y13501D01*
X15623Y13521D01*
X15650Y14904D02*
X15670Y14924D01*
X15690Y14904D01*
X15670Y14884D01*
X15650Y14904D01*
X15714Y14145D02*
X15734Y14165D01*
X15754Y14145D01*
X15734Y14125D01*
X15714Y14145D01*
X15724Y14905D02*
X15744Y14925D01*
X15764Y14905D01*
X15744Y14885D01*
X15724Y14905D01*
X15787Y13079D02*
X15807Y13099D01*
X15827Y13079D01*
X15807Y13059D01*
X15787Y13079D01*
X14788Y14964D02*
X14808Y14984D01*
X14828Y14964D01*
X14808Y14944D01*
X14788Y14964D01*
X13524Y13396D02*
X13544Y13416D01*
X13564Y13396D01*
X13544Y13376D01*
X13524Y13396D01*
X13524Y14170D02*
X13544Y14190D01*
X13564Y14170D01*
X13544Y14150D01*
X13524Y14170D01*
X13344Y14142D02*
X13364Y14162D01*
X13384Y14142D01*
X13364Y14122D01*
X13344Y14142D01*
Y14088D02*
X13364Y14108D01*
X13384Y14088D01*
X13364Y14068D01*
X13344Y14088D01*
Y14021D02*
X13364Y14041D01*
X13384Y14021D01*
X13364Y14001D01*
X13344Y14021D01*
Y13954D02*
X13364Y13974D01*
X13384Y13954D01*
X13364Y13934D01*
X13344Y13954D01*
X13340Y13838D02*
X13360Y13858D01*
X13380Y13838D01*
X13360Y13818D01*
X13340Y13838D01*
X13344Y13579D02*
X13364Y13599D01*
X13384Y13579D01*
X13364Y13559D01*
X13344Y13579D01*
Y13463D02*
X13364Y13483D01*
X13384Y13463D01*
X13364Y13443D01*
X13344Y13463D01*
X13730Y13126D02*
X13750Y13146D01*
X13770Y13126D01*
X13750Y13106D01*
X13730Y13126D01*
X13821Y13036D02*
X13841Y13056D01*
X13861Y13036D01*
X13841Y13016D01*
X13821Y13036D01*
X12641Y15475D02*
X12661Y15495D01*
X12681Y15475D01*
X12661Y15455D01*
X12641Y15475D01*
X14460Y15474D02*
X14480Y15494D01*
X14500Y15474D01*
X14480Y15454D01*
X14460Y15474D01*
X12676Y15440D02*
X12696Y15460D01*
X12716Y15440D01*
X12696Y15420D01*
X12676Y15440D01*
X14430Y15441D02*
X14450Y15461D01*
X14470Y15441D01*
X14450Y15421D01*
X14430Y15441D01*
X14400Y15402D02*
X14420Y15422D01*
X14440Y15402D01*
X14420Y15382D01*
X14400Y15402D01*
X12711D02*
X12731Y15422D01*
X12751Y15402D01*
X12731Y15382D01*
X12711Y15402D01*
X12746Y15361D02*
X12766Y15381D01*
X12786Y15361D01*
X12766Y15341D01*
X12746Y15361D01*
X14370D02*
X14390Y15381D01*
X14410Y15361D01*
X14390Y15341D01*
X14370Y15361D01*
X14340Y15320D02*
X14360Y15340D01*
X14380Y15320D01*
X14360Y15300D01*
X14340Y15320D01*
X12781Y15319D02*
X12801Y15339D01*
X12821Y15319D01*
X12801Y15299D01*
X12781Y15319D01*
X12816Y15280D02*
X12836Y15300D01*
X12856Y15280D01*
X12836Y15260D01*
X12816Y15280D01*
X14310D02*
X14330Y15300D01*
X14350Y15280D01*
X14330Y15260D01*
X14310Y15280D01*
X14280Y15250D02*
X14300Y15270D01*
X14320Y15250D01*
X14300Y15230D01*
X14280Y15250D01*
X12851D02*
X12871Y15270D01*
X12891Y15250D01*
X12871Y15230D01*
X12851Y15250D01*
X12886Y15212D02*
X12906Y15232D01*
X12926Y15212D01*
X12906Y15192D01*
X12886Y15212D01*
X14250D02*
X14270Y15232D01*
X14290Y15212D01*
X14270Y15192D01*
X14250Y15212D01*
X13473Y14438D02*
X13493Y14458D01*
X13513Y14438D01*
X13493Y14418D01*
X13473Y14438D01*
X13498Y14409D02*
X13518Y14429D01*
X13538Y14409D01*
X13518Y14389D01*
X13498Y14409D01*
X13547Y14439D02*
X13567Y14459D01*
X13587Y14439D01*
X13567Y14419D01*
X13547Y14439D01*
X13573Y14405D02*
X13593Y14425D01*
X13613Y14405D01*
X13593Y14385D01*
X13573Y14405D01*
X13598Y14438D02*
X13618Y14458D01*
X13638Y14438D01*
X13618Y14418D01*
X13598Y14438D01*
X13624Y14402D02*
X13644Y14422D01*
X13664Y14402D01*
X13644Y14382D01*
X13624Y14402D01*
X13697Y15613D02*
X13717Y15633D01*
X13737Y15613D01*
X13717Y15593D01*
X13697Y15613D01*
X13554Y15612D02*
X13574Y15632D01*
X13594Y15612D01*
X13574Y15592D01*
X13554Y15612D01*
X13722Y15645D02*
X13742Y15665D01*
X13762Y15645D01*
X13742Y15625D01*
X13722Y15645D01*
X13526Y15644D02*
X13546Y15664D01*
X13566Y15644D01*
X13546Y15624D01*
X13526Y15644D01*
X13748Y15587D02*
X13768Y15607D01*
X13788Y15587D01*
X13768Y15567D01*
X13748Y15587D01*
X13896Y15588D02*
X13916Y15608D01*
X13936Y15588D01*
X13916Y15568D01*
X13896Y15588D01*
X13793Y15674D02*
X13813Y15694D01*
X13833Y15674D01*
X13813Y15654D01*
X13793Y15674D01*
X13280D02*
X13300Y15694D01*
X13320Y15674D01*
X13300Y15654D01*
X13280Y15674D01*
X13422Y14884D02*
X13442Y14904D01*
X13462Y14884D01*
X13442Y14864D01*
X13422Y14884D01*
X13419Y16399D02*
X13439Y16419D01*
X13459Y16399D01*
X13439Y16379D01*
X13419Y16399D01*
X15232Y16401D02*
X15252Y16421D01*
X15272Y16401D01*
X15252Y16381D01*
X15232Y16401D01*
X13451Y14905D02*
X13471Y14925D01*
X13491Y14905D01*
X13471Y14885D01*
X13451Y14905D01*
Y16370D02*
X13471Y16390D01*
X13491Y16370D01*
X13471Y16350D01*
X13451Y16370D01*
X15207Y16371D02*
X15227Y16391D01*
X15247Y16371D01*
X15227Y16351D01*
X15207Y16371D01*
X13474Y14878D02*
X13494Y14898D01*
X13514Y14878D01*
X13494Y14858D01*
X13474Y14878D01*
X13478Y16192D02*
X13498Y16212D01*
X13518Y16192D01*
X13498Y16172D01*
X13478Y16192D01*
X13608Y16193D02*
X13628Y16213D01*
X13648Y16193D01*
X13628Y16173D01*
X13608Y16193D01*
X13501Y14905D02*
X13521Y14925D01*
X13541Y14905D01*
X13521Y14885D01*
X13501Y14905D01*
X13557Y16160D02*
X13577Y16180D01*
X13597Y16160D01*
X13577Y16140D01*
X13557Y16160D01*
X13549Y14876D02*
X13569Y14896D01*
X13589Y14876D01*
X13569Y14856D01*
X13549Y14876D01*
X13643Y16334D02*
X13663Y16354D01*
X13683Y16334D01*
X13663Y16314D01*
X13643Y16334D01*
X14830Y16336D02*
X14850Y16356D01*
X14870Y16336D01*
X14850Y16316D01*
X14830Y16336D01*
X13574Y14904D02*
X13594Y14924D01*
X13614Y14904D01*
X13594Y14884D01*
X13574Y14904D01*
X13669Y16304D02*
X13689Y16324D01*
X13709Y16304D01*
X13689Y16284D01*
X13669Y16304D01*
X14957Y16302D02*
X14977Y16322D01*
X14997Y16302D01*
X14977Y16282D01*
X14957Y16302D01*
X13599Y14875D02*
X13619Y14895D01*
X13639Y14875D01*
X13619Y14855D01*
X13599Y14875D01*
X13704Y16265D02*
X13724Y16285D01*
X13744Y16265D01*
X13724Y16245D01*
X13704Y16265D01*
X14784Y16264D02*
X14804Y16284D01*
X14824Y16264D01*
X14804Y16244D01*
X14784Y16264D01*
X13625Y15181D02*
X13645Y15201D01*
X13665Y15181D01*
X13645Y15161D01*
X13625Y15181D01*
X14908D02*
X14928Y15201D01*
X14948Y15181D01*
X14928Y15161D01*
X14908Y15181D01*
X13748Y16232D02*
X13768Y16252D01*
X13788Y16232D01*
X13768Y16212D01*
X13748Y16232D01*
X14911Y16229D02*
X14931Y16249D01*
X14951Y16229D01*
X14931Y16209D01*
X14911Y16229D01*
X13816Y16455D02*
X13836Y16475D01*
X13856Y16455D01*
X13836Y16435D01*
X13816Y16455D01*
X14881Y16452D02*
X14901Y16472D01*
X14921Y16452D01*
X14901Y16432D01*
X14881Y16452D01*
X13856Y15550D02*
X13876Y15570D01*
X13896Y15550D01*
X13876Y15530D01*
X13856Y15550D01*
X14883Y15557D02*
X14903Y15577D01*
X14923Y15557D01*
X14903Y15537D01*
X14883Y15557D01*
X13960Y15585D02*
X13980Y15605D01*
X14000Y15585D01*
X13980Y15565D01*
X13960Y15585D01*
X14832Y15587D02*
X14852Y15607D01*
X14872Y15587D01*
X14852Y15567D01*
X14832Y15587D01*
X14022Y15616D02*
X14042Y15636D01*
X14062Y15616D01*
X14042Y15596D01*
X14022Y15616D01*
X14786Y15643D02*
X14806Y15663D01*
X14826Y15643D01*
X14806Y15623D01*
X14786Y15643D01*
X14080Y15615D02*
X14100Y15635D01*
X14120Y15615D01*
X14100Y15595D01*
X14080Y15615D01*
X14759Y15612D02*
X14779Y15632D01*
X14799Y15612D01*
X14779Y15592D01*
X14759Y15612D01*
X13422Y12194D02*
X13442Y12214D01*
X13462Y12194D01*
X13442Y12174D01*
X13422Y12194D01*
X16420Y12189D02*
X16440Y12209D01*
X16460Y12189D01*
X16440Y12169D01*
X16420Y12189D01*
X16421Y16365D02*
X16441Y16385D01*
X16461Y16365D01*
X16441Y16345D01*
X16421Y16365D01*
X15260Y16366D02*
X15280Y16386D01*
X15300Y16366D01*
X15280Y16346D01*
X15260Y16366D01*
X15287Y16339D02*
X15307Y16359D01*
X15327Y16339D01*
X15307Y16319D01*
X15287Y16339D01*
X16392Y16340D02*
X16412Y16360D01*
X16432Y16340D01*
X16412Y16320D01*
X16392Y16340D01*
X16393Y12233D02*
X16413Y12253D01*
X16433Y12233D01*
X16413Y12213D01*
X16393Y12233D01*
X13451D02*
X13471Y12253D01*
X13491Y12233D01*
X13471Y12213D01*
X13451Y12233D01*
X13427Y14304D02*
X13447Y14324D01*
X13467Y14304D01*
X13447Y14284D01*
X13427Y14304D01*
X13396Y16242D02*
X13416Y16262D01*
X13436Y16242D01*
X13416Y16222D01*
X13396Y16242D01*
X13531Y16243D02*
X13551Y16263D01*
X13571Y16243D01*
X13551Y16223D01*
X13531Y16243D01*
X13499Y12519D02*
X13519Y12539D01*
X13539Y12519D01*
X13519Y12499D01*
X13499Y12519D01*
X13361Y14817D02*
X13381Y14837D01*
X13401Y14817D01*
X13381Y14797D01*
X13361Y14817D01*
X12466Y11113D02*
X12486Y11133D01*
X12506Y11113D01*
X12486Y11093D01*
X12466Y11113D01*
X12386Y11032D02*
X12406Y11052D01*
X12426Y11032D01*
X12406Y11012D01*
X12386Y11032D01*
X12413Y11059D02*
X12433Y11079D01*
X12453Y11059D01*
X12433Y11039D01*
X12413Y11059D01*
X12440Y11086D02*
X12460Y11106D01*
X12480Y11086D01*
X12460Y11066D01*
X12440Y11086D01*
X12330Y13306D02*
X12350Y13326D01*
X12370Y13306D01*
X12350Y13286D01*
X12330Y13306D01*
X12368Y13351D02*
X12388Y13371D01*
X12408Y13351D01*
X12388Y13331D01*
X12368Y13351D01*
X12444Y13463D02*
X12464Y13483D01*
X12484Y13463D01*
X12464Y13443D01*
X12444Y13463D01*
X12406Y13579D02*
X12426Y13599D01*
X12446Y13579D01*
X12426Y13559D01*
X12406Y13579D01*
X12269Y11111D02*
X12289Y11131D01*
X12309Y11111D01*
X12289Y11091D01*
X12269Y11111D01*
X12234D02*
X12254Y11131D01*
X12274Y11111D01*
X12254Y11091D01*
X12234Y11111D01*
X12199D02*
X12219Y11131D01*
X12239Y11111D01*
X12219Y11091D01*
X12199Y11111D01*
X12164D02*
X12184Y11131D01*
X12204Y11111D01*
X12184Y11091D01*
X12164Y11111D01*
X12129D02*
X12149Y11131D01*
X12169Y11111D01*
X12149Y11091D01*
X12129Y11111D01*
X12094D02*
X12114Y11131D01*
X12134Y11111D01*
X12114Y11091D01*
X12094Y11111D01*
X12269Y14089D02*
X12289Y14109D01*
X12309Y14089D01*
X12289Y14069D01*
X12269Y14089D01*
X12234Y13838D02*
X12254Y13858D01*
X12274Y13838D01*
X12254Y13818D01*
X12234Y13838D01*
X12199Y13954D02*
X12219Y13974D01*
X12239Y13954D01*
X12219Y13934D01*
X12199Y13954D01*
X12164Y13036D02*
X12184Y13056D01*
X12204Y13036D01*
X12184Y13016D01*
X12164Y13036D01*
X12129Y14022D02*
X12149Y14042D01*
X12169Y14022D01*
X12149Y14002D01*
X12129Y14022D01*
X12094Y14143D02*
X12114Y14163D01*
X12134Y14143D01*
X12114Y14123D01*
X12094Y14143D01*
X11728Y14204D02*
X11748Y14224D01*
X11768Y14204D01*
X11748Y14184D01*
X11728Y14204D01*
X11793Y14382D02*
X11813Y14402D01*
X11833Y14382D01*
X11813Y14362D01*
X11793Y14382D01*
X11553Y13984D02*
X11573Y14004D01*
X11593Y13984D01*
X11573Y13964D01*
X11553Y13984D01*
X11543Y14488D02*
X11563Y14508D01*
X11583Y14488D01*
X11563Y14468D01*
X11543Y14488D01*
X11449Y14489D02*
X11469Y14509D01*
X11489Y14489D01*
X11469Y14469D01*
X11449Y14489D01*
X11294Y14264D02*
X11314Y14284D01*
X11334Y14264D01*
X11314Y14244D01*
X11294Y14264D01*
X11502Y13883D02*
X11522Y13903D01*
X11542Y13883D01*
X11522Y13863D01*
X11502Y13883D01*
X11430Y12463D02*
X11450Y12483D01*
X11470Y12463D01*
X11450Y12443D01*
X11430Y12463D01*
X11466Y12631D02*
X11486Y12651D01*
X11506Y12631D01*
X11486Y12611D01*
X11466Y12631D01*
X11085Y12471D02*
X11105Y12491D01*
X11125Y12471D01*
X11105Y12451D01*
X11085Y12471D01*
X11283Y12635D02*
X11303Y12655D01*
X11323Y12635D01*
X11303Y12615D01*
X11283Y12635D01*
X11255Y12265D02*
X11275Y12285D01*
X11295Y12265D01*
X11275Y12245D01*
X11255Y12265D01*
X11192Y12777D02*
X11212Y12797D01*
X11232Y12777D01*
X11212Y12757D01*
X11192Y12777D01*
X11444Y13114D02*
X11464Y13134D01*
X11484Y13114D01*
X11464Y13094D01*
X11444Y13114D01*
X11331Y13479D02*
X11351Y13499D01*
X11371Y13479D01*
X11351Y13459D01*
X11331Y13479D01*
X12330Y13686D02*
X12350Y13706D01*
X12370Y13686D01*
X12350Y13666D01*
X12330Y13686D01*
X12370Y13758D02*
X12390Y13778D01*
X12410Y13758D01*
X12390Y13738D01*
X12370Y13758D01*
X12406Y13114D02*
X12426Y13134D01*
X12446Y13114D01*
X12426Y13094D01*
X12406Y13114D01*
X19710Y16489D02*
X19730Y16509D01*
X19750Y16489D01*
X19730Y16469D01*
X19710Y16489D01*
X19709Y15233D02*
X19729Y15253D01*
X19749Y15233D01*
X19729Y15213D01*
X19709Y15233D01*
X11290Y14172D02*
X11310Y14192D01*
X11330Y14172D01*
X11310Y14152D01*
X11290Y14172D01*
X11171Y14171D02*
X11191Y14191D01*
X11211Y14171D01*
X11191Y14151D01*
X11171Y14171D01*
X11456Y16599D02*
X11476Y16619D01*
X11496Y16599D01*
X11476Y16579D01*
X11456Y16599D01*
X19664Y16597D02*
X19684Y16617D01*
X19704Y16597D01*
X19684Y16577D01*
X19664Y16597D01*
Y15442D02*
X19684Y15462D01*
X19704Y15442D01*
X19684Y15422D01*
X19664Y15442D01*
X16583Y13673D02*
X16603Y13693D01*
X16623Y13673D01*
X16603Y13653D01*
X16583Y13673D01*
X16575Y13773D02*
X16595Y13793D01*
X16615Y13773D01*
X16595Y13753D01*
X16575Y13773D01*
X17399Y14029D02*
X17419Y14049D01*
X17439Y14029D01*
X17419Y14009D01*
X17399Y14029D01*
X17407Y14356D02*
X17427Y14376D01*
X17447Y14356D01*
X17427Y14336D01*
X17407Y14356D01*
X17191Y14358D02*
X17211Y14378D01*
X17231Y14358D01*
X17211Y14338D01*
X17191Y14358D01*
X17476Y14234D02*
X17496Y14254D01*
X17516Y14234D01*
X17496Y14214D01*
X17476Y14234D01*
X17664Y14079D02*
X17684Y14099D01*
X17704Y14079D01*
X17684Y14059D01*
X17664Y14079D01*
X17417Y13407D02*
X17437Y13427D01*
X17457Y13407D01*
X17437Y13387D01*
X17417Y13407D01*
X17481Y13301D02*
X17501Y13321D01*
X17521Y13301D01*
X17501Y13281D01*
X17481Y13301D01*
X17204Y13091D02*
X17224Y13111D01*
X17244Y13091D01*
X17224Y13071D01*
X17204Y13091D01*
X17400Y13090D02*
X17420Y13110D01*
X17440Y13090D01*
X17420Y13070D01*
X17400Y13090D01*
X17269Y13461D02*
X17289Y13481D01*
X17309Y13461D01*
X17289Y13441D01*
X17269Y13461D01*
X17064Y13505D02*
X17084Y13525D01*
X17104Y13505D01*
X17084Y13485D01*
X17064Y13505D01*
X17480Y13504D02*
X17500Y13524D01*
X17520Y13504D01*
X17500Y13484D01*
X17480Y13504D01*
X17616Y13276D02*
X17636Y13296D01*
X17656Y13276D01*
X17636Y13256D01*
X17616Y13276D01*
X17586Y13134D02*
X17606Y13154D01*
X17626Y13134D01*
X17606Y13114D01*
X17586Y13134D01*
X17808Y13178D02*
X17828Y13198D01*
X17848Y13178D01*
X17828Y13158D01*
X17808Y13178D01*
X17843Y13214D02*
X17863Y13234D01*
X17883Y13214D01*
X17863Y13194D01*
X17843Y13214D01*
X17546Y13297D02*
X17566Y13317D01*
X17586Y13297D01*
X17566Y13277D01*
X17546Y13297D01*
X18078Y13480D02*
X18098Y13500D01*
X18118Y13480D01*
X18098Y13460D01*
X18078Y13480D01*
X17989Y13484D02*
X18009Y13504D01*
X18029Y13484D01*
X18009Y13464D01*
X17989Y13484D01*
X18120Y13049D02*
X18140Y13069D01*
X18160Y13049D01*
X18140Y13029D01*
X18120Y13049D01*
X17918D02*
X17938Y13069D01*
X17958Y13049D01*
X17938Y13029D01*
X17918Y13049D01*
X18211Y13265D02*
X18231Y13285D01*
X18251Y13265D01*
X18231Y13245D01*
X18211Y13265D01*
X17827Y14202D02*
X17847Y14222D01*
X17867Y14202D01*
X17847Y14182D01*
X17827Y14202D01*
X17841Y14009D02*
X17861Y14029D01*
X17881Y14009D01*
X17861Y13989D01*
X17841Y14009D01*
X17921Y14003D02*
X17941Y14023D01*
X17961Y14003D01*
X17941Y13983D01*
X17921Y14003D01*
X18121Y13999D02*
X18141Y14019D01*
X18161Y13999D01*
X18141Y13979D01*
X18121Y13999D01*
X17988Y14415D02*
X18008Y14435D01*
X18028Y14415D01*
X18008Y14395D01*
X17988Y14415D01*
X18077Y14416D02*
X18097Y14436D01*
X18117Y14416D01*
X18097Y14396D01*
X18077Y14416D01*
X18883Y14324D02*
X18903Y14344D01*
X18923Y14324D01*
X18903Y14304D01*
X18883Y14324D01*
X18676Y14325D02*
X18696Y14345D01*
X18716Y14325D01*
X18696Y14305D01*
X18676Y14325D01*
X18579Y14110D02*
X18599Y14130D01*
X18619Y14110D01*
X18599Y14090D01*
X18579Y14110D01*
X18942Y14180D02*
X18962Y14200D01*
X18982Y14180D01*
X18962Y14160D01*
X18942Y14180D01*
X18664Y14004D02*
X18684Y14024D01*
X18704Y14004D01*
X18684Y13984D01*
X18664Y14004D01*
X18858Y14005D02*
X18878Y14025D01*
X18898Y14005D01*
X18878Y13985D01*
X18858Y14005D01*
X11485Y12793D02*
X11505Y12813D01*
X11525Y12793D01*
X11505Y12773D01*
X11485Y12793D01*
X11300Y12919D02*
X11320Y12939D01*
X11340Y12919D01*
X11320Y12899D01*
X11300Y12919D01*
X18613Y13229D02*
X18633Y13249D01*
X18653Y13229D01*
X18633Y13209D01*
X18613Y13229D01*
X18689Y13100D02*
X18709Y13120D01*
X18729Y13100D01*
X18709Y13080D01*
X18689Y13100D01*
X18883Y13102D02*
X18903Y13122D01*
X18923Y13102D01*
X18903Y13082D01*
X18883Y13102D01*
X18952Y13285D02*
X18972Y13305D01*
X18992Y13285D01*
X18972Y13265D01*
X18952Y13285D01*
X18680Y13439D02*
X18700Y13459D01*
X18720Y13439D01*
X18700Y13419D01*
X18680Y13439D01*
X18829Y13388D02*
X18849Y13408D01*
X18869Y13388D01*
X18849Y13368D01*
X18829Y13388D01*
X17096Y11440D02*
X17116Y11460D01*
X17136Y11440D01*
X17116Y11420D01*
X17096Y11440D01*
X17061D02*
X17081Y11460D01*
X17101Y11440D01*
X17081Y11420D01*
X17061Y11440D01*
X17026D02*
X17046Y11460D01*
X17066Y11440D01*
X17046Y11420D01*
X17026Y11440D01*
X16991D02*
X17011Y11460D01*
X17031Y11440D01*
X17011Y11420D01*
X16991Y11440D01*
X16978Y13019D02*
X16998Y13039D01*
X17018Y13019D01*
X16998Y12999D01*
X16978Y13019D01*
X17550Y13021D02*
X17570Y13041D01*
X17590Y13021D01*
X17570Y13001D01*
X17550Y13021D01*
X16943Y13503D02*
X16963Y13523D01*
X16983Y13503D01*
X16963Y13483D01*
X16943Y13503D01*
X17772Y14180D02*
X17792Y14200D01*
X17812Y14180D01*
X17792Y14160D01*
X17772Y14180D01*
X16873Y14167D02*
X16893Y14187D01*
X16913Y14167D01*
X16893Y14147D01*
X16873Y14167D01*
X14835Y11433D02*
X14855Y11453D01*
X14875Y11433D01*
X14855Y11413D01*
X14835Y11433D01*
X15591Y11300D02*
X15611Y11320D01*
X15631Y11300D01*
X15611Y11280D01*
X15591Y11300D01*
X15626Y11270D02*
X15646Y11290D01*
X15666Y11270D01*
X15646Y11250D01*
X15626Y11270D01*
X16952Y11439D02*
X16972Y11459D01*
X16992Y11439D01*
X16972Y11419D01*
X16952Y11439D01*
X16914Y11438D02*
X16934Y11458D01*
X16954Y11438D01*
X16934Y11418D01*
X16914Y11438D01*
X16681Y13962D02*
X16701Y13982D01*
X16721Y13962D01*
X16701Y13942D01*
X16681Y13962D01*
X16715Y13916D02*
X16735Y13936D01*
X16755Y13916D01*
X16735Y13896D01*
X16715Y13916D01*
X17485D02*
X17505Y13936D01*
X17525Y13916D01*
X17505Y13896D01*
X17485Y13916D01*
X16994Y13409D02*
X17014Y13429D01*
X17034Y13409D01*
X17014Y13389D01*
X16994Y13409D01*
X18428Y13354D02*
X18448Y13374D01*
X18468Y13354D01*
X18448Y13334D01*
X18428Y13354D01*
X18194Y14213D02*
X18214Y14233D01*
X18234Y14213D01*
X18214Y14193D01*
X18194Y14213D01*
X17191Y14027D02*
X17211Y14047D01*
X17231Y14027D01*
X17211Y14007D01*
X17191Y14027D01*
X12122Y16422D02*
X12142Y16442D01*
X12162Y16422D01*
X12142Y16402D01*
X12122Y16422D01*
X12003D02*
X12023Y16442D01*
X12043Y16422D01*
X12023Y16402D01*
X12003Y16422D01*
X11882Y16421D02*
X11902Y16441D01*
X11922Y16421D01*
X11902Y16401D01*
X11882Y16421D01*
X11764Y16422D02*
X11784Y16442D01*
X11804Y16422D01*
X11784Y16402D01*
X11764Y16422D01*
X13115Y16211D02*
X13135Y16231D01*
X13155Y16211D01*
X13135Y16191D01*
X13115Y16211D01*
X13080Y16246D02*
X13100Y16266D01*
X13120Y16246D01*
X13100Y16226D01*
X13080Y16246D01*
X13045Y16279D02*
X13065Y16299D01*
X13085Y16279D01*
X13065Y16259D01*
X13045Y16279D01*
X13010Y16317D02*
X13030Y16337D01*
X13050Y16317D01*
X13030Y16297D01*
X13010Y16317D01*
X13105Y15681D02*
X13125Y15701D01*
X13145Y15681D01*
X13125Y15661D01*
X13105Y15681D01*
X11520D02*
X11540Y15701D01*
X11560Y15681D01*
X11540Y15661D01*
X11520Y15681D01*
X13079Y15736D02*
X13099Y15756D01*
X13119Y15736D01*
X13099Y15716D01*
X13079Y15736D01*
X11645D02*
X11665Y15756D01*
X11685Y15736D01*
X11665Y15716D01*
X11645Y15736D01*
X12212Y16563D02*
X12232Y16583D01*
X12252Y16563D01*
X12232Y16543D01*
X12212Y16563D01*
X13229Y15865D02*
X13249Y15885D01*
X13269Y15865D01*
X13249Y15845D01*
X13229Y15865D01*
X13194Y15867D02*
X13214Y15887D01*
X13234Y15867D01*
X13214Y15847D01*
X13194Y15867D01*
X13229Y16125D02*
X13249Y16145D01*
X13269Y16125D01*
X13249Y16105D01*
X13229Y16125D01*
X13204Y16148D02*
X13224Y16168D01*
X13244Y16148D01*
X13224Y16128D01*
X13204Y16148D01*
X13064Y15869D02*
X13084Y15889D01*
X13104Y15869D01*
X13084Y15849D01*
X13064Y15869D01*
X13030Y15876D02*
X13050Y15896D01*
X13070Y15876D01*
X13050Y15856D01*
X13030Y15876D01*
X17870Y16587D02*
X17890Y16607D01*
X17910Y16587D01*
X17890Y16567D01*
X17870Y16587D01*
X17820Y16622D02*
X17840Y16642D01*
X17860Y16622D01*
X17840Y16602D01*
X17820Y16622D01*
X19157Y16552D02*
X19177Y16572D01*
X19197Y16552D01*
X19177Y16532D01*
X19157Y16552D01*
X19122Y16448D02*
X19142Y16468D01*
X19162Y16448D01*
X19142Y16428D01*
X19122Y16448D01*
X19087Y16481D02*
X19107Y16501D01*
X19127Y16481D01*
X19107Y16461D01*
X19087Y16481D01*
X19052Y16518D02*
X19072Y16538D01*
X19092Y16518D01*
X19072Y16498D01*
X19052Y16518D01*
X18926Y15333D02*
X18946Y15353D01*
X18966Y15333D01*
X18946Y15313D01*
X18926Y15333D01*
X17641Y15704D02*
X17661Y15724D01*
X17681Y15704D01*
X17661Y15684D01*
X17641Y15704D01*
X17196Y15702D02*
X17216Y15722D01*
X17236Y15702D01*
X17216Y15682D01*
X17196Y15702D01*
X17194Y15505D02*
X17214Y15525D01*
X17234Y15505D01*
X17214Y15485D01*
X17194Y15505D01*
X17637Y15503D02*
X17657Y15523D01*
X17677Y15503D01*
X17657Y15483D01*
X17637Y15503D01*
X17293Y15353D02*
X17313Y15373D01*
X17333Y15353D01*
X17313Y15333D01*
X17293Y15353D01*
X17606D02*
X17626Y15373D01*
X17646Y15353D01*
X17626Y15333D01*
X17606Y15353D01*
X17281Y15222D02*
X17301Y15242D01*
X17321Y15222D01*
X17301Y15202D01*
X17281Y15222D01*
X17616Y15223D02*
X17636Y15243D01*
X17656Y15223D01*
X17636Y15203D01*
X17616Y15223D01*
X17294Y15092D02*
X17314Y15112D01*
X17334Y15092D01*
X17314Y15072D01*
X17294Y15092D01*
X17614Y15093D02*
X17634Y15113D01*
X17654Y15093D01*
X17634Y15073D01*
X17614Y15093D01*
X17283Y14962D02*
X17303Y14982D01*
X17323Y14962D01*
X17303Y14942D01*
X17283Y14962D01*
X17616Y14965D02*
X17636Y14985D01*
X17656Y14965D01*
X17636Y14945D01*
X17616Y14965D01*
X17295Y14836D02*
X17315Y14856D01*
X17335Y14836D01*
X17315Y14816D01*
X17295Y14836D01*
X17617Y14838D02*
X17637Y14858D01*
X17657Y14838D01*
X17637Y14818D01*
X17617Y14838D01*
X18750Y15030D02*
X18770Y15050D01*
X18790Y15030D01*
X18770Y15010D01*
X18750Y15030D01*
Y15231D02*
X18770Y15251D01*
X18790Y15231D01*
X18770Y15211D01*
X18750Y15231D01*
Y15443D02*
X18770Y15463D01*
X18790Y15443D01*
X18770Y15423D01*
X18750Y15443D01*
X18749Y15680D02*
X18769Y15700D01*
X18789Y15680D01*
X18769Y15660D01*
X18749Y15680D01*
X18752Y15876D02*
X18772Y15896D01*
X18792Y15876D01*
X18772Y15856D01*
X18752Y15876D01*
Y16078D02*
X18772Y16098D01*
X18792Y16078D01*
X18772Y16058D01*
X18752Y16078D01*
X18749Y16265D02*
X18769Y16285D01*
X18789Y16265D01*
X18769Y16245D01*
X18749Y16265D01*
X17991Y11374D02*
X18011Y11394D01*
X18031Y11374D01*
X18011Y11354D01*
X17991Y11374D01*
X17589Y12383D02*
X17609Y12403D01*
X17629Y12383D01*
X17609Y12363D01*
X17589Y12383D01*
X18660Y14786D02*
X18680Y14806D01*
X18700Y14786D01*
X18680Y14766D01*
X18660Y14786D01*
X16956Y16263D02*
X16976Y16283D01*
X16996Y16263D01*
X16976Y16243D01*
X16956Y16263D01*
X11320Y15356D02*
X11340Y15376D01*
X11360Y15356D01*
X11340Y15336D01*
X11320Y15356D01*
X11188Y11289D02*
X11208Y11309D01*
X11228Y11289D01*
X11208Y11269D01*
X11188Y11289D01*
X14709Y15731D02*
X14729Y15751D01*
X14749Y15731D01*
X14729Y15711D01*
X14709Y15731D01*
X19536Y15575D02*
X19556Y15595D01*
X19576Y15575D01*
X19556Y15555D01*
X19536Y15575D01*
X14143Y11229D02*
X14163Y11249D01*
X14183Y11229D01*
X14163Y11209D01*
X14143Y11229D01*
X11493Y11221D02*
X11513Y11241D01*
X11533Y11221D01*
X11513Y11201D01*
X11493Y11221D01*
X11634Y14491D02*
X11654Y14511D01*
X11674Y14491D01*
X11654Y14471D01*
X11634Y14491D01*
X11130Y16229D02*
X11150Y16249D01*
X11170Y16229D01*
X11150Y16209D01*
X11130Y16229D01*
X17862Y9092D02*
X17902Y9132D01*
X17942Y9092D01*
X17902Y9052D01*
X17862Y9092D01*
Y8852D02*
Y8932D01*
X17942D01*
Y8852D01*
X17862D01*
X17878Y8868D02*
Y8916D01*
X17926D01*
Y8868D01*
X17878D01*
X17882Y8672D02*
Y8652D01*
X17922D01*
Y8672D01*
X17942D01*
Y8712D01*
X17922D01*
Y8732D01*
X17882D01*
Y8712D01*
X17862D01*
Y8672D01*
X17882D01*
X17902Y8252D02*
X17922Y8272D01*
X17942D01*
X17922Y8292D01*
X17942Y8312D01*
X17922D01*
X17902Y8332D01*
X17882Y8312D01*
X17862D01*
X17882Y8292D01*
X17862Y8272D01*
X17882D01*
X17902Y8252D01*
Y8052D02*
X17862Y8132D01*
X17942D01*
X17902Y8052D01*
X17862Y7852D02*
Y7932D01*
X17942D01*
Y7852D01*
X17862D01*
Y7652D02*
X17882D01*
X17902Y7672D01*
X17922Y7652D01*
X17942D01*
Y7672D01*
X17922Y7692D01*
X17942Y7712D01*
Y7732D01*
X17922D01*
X17902Y7712D01*
X17882Y7732D01*
X17862D01*
Y7712D01*
X17882Y7692D01*
X17862Y7672D01*
Y7652D01*
Y7452D02*
X17882Y7492D01*
X17862Y7532D01*
X17902Y7512D01*
X17942Y7532D01*
X17922Y7492D01*
X17942Y7452D01*
X17902Y7472D01*
X17862Y7452D01*
D11*
X9940Y16958D02*
X9950D01*
X9940Y16953D02*
Y16963D01*
Y16953D02*
X9950Y16953D01*
X9950Y16963D01*
X9940D02*
X9950D01*
X9935Y16948D02*
Y16963D01*
Y16948D02*
X9955D01*
Y16968D01*
X9935Y16968D02*
X9955Y16968D01*
X9930Y16943D02*
Y16968D01*
Y16943D02*
X9960D01*
Y16973D01*
X9930D02*
X9960D01*
X9925Y16938D02*
Y16978D01*
Y16938D02*
X9965D01*
Y16978D01*
X9925D02*
X9965D01*
X9990Y16908D02*
X10000D01*
X9990Y16903D02*
X9990Y16913D01*
X9990Y16903D02*
X10000D01*
Y16913D01*
X9990Y16913D02*
X10000Y16913D01*
X9985Y16898D02*
Y16913D01*
Y16898D02*
X10005Y16898D01*
X10005Y16918D02*
X10005Y16898D01*
X9985Y16918D02*
X10005D01*
X9980Y16893D02*
Y16918D01*
Y16893D02*
X10010D01*
Y16923D01*
X9980D02*
X10010D01*
X9975Y16888D02*
Y16928D01*
Y16888D02*
X10015D01*
Y16928D01*
X9975D02*
X10015D01*
X9970Y16883D02*
X10020Y16883D01*
X10020Y16933D02*
X10020Y16883D01*
X9920Y16983D02*
X9970Y16983D01*
X9920Y16983D02*
X9920Y16933D01*
X9970Y16683D02*
Y17183D01*
X9720Y16933D02*
X10220D01*
X20535Y17232D02*
X20545D01*
X20535Y17227D02*
Y17237D01*
Y17227D02*
X20545Y17227D01*
X20545Y17237D01*
X20535D02*
X20545D01*
X20530Y17222D02*
Y17237D01*
Y17222D02*
X20550D01*
Y17242D01*
X20530Y17242D02*
X20550Y17242D01*
X20525Y17217D02*
Y17242D01*
Y17217D02*
X20555D01*
Y17247D01*
X20525D02*
X20555D01*
X20520Y17212D02*
Y17252D01*
Y17212D02*
X20560D01*
Y17252D01*
X20520D02*
X20560D01*
X20585Y17182D02*
X20595D01*
X20585Y17177D02*
X20585Y17187D01*
X20585Y17177D02*
X20595D01*
Y17187D01*
X20585Y17187D02*
X20595Y17187D01*
X20580Y17172D02*
Y17187D01*
Y17172D02*
X20600Y17172D01*
X20600Y17192D02*
X20600Y17172D01*
X20580Y17192D02*
X20600D01*
X20575Y17167D02*
Y17192D01*
Y17167D02*
X20605D01*
Y17197D01*
X20575D02*
X20605D01*
X20570Y17162D02*
Y17202D01*
Y17162D02*
X20610D01*
Y17202D01*
X20570D02*
X20610D01*
X20565Y17157D02*
X20615Y17157D01*
X20615Y17207D02*
X20615Y17157D01*
X20515Y17257D02*
X20565Y17257D01*
X20515Y17257D02*
X20515Y17207D01*
X20565Y16957D02*
Y17457D01*
X20315Y17207D02*
X20815D01*
X9601Y9751D02*
X9611D01*
X9601Y9746D02*
Y9756D01*
Y9746D02*
X9611Y9746D01*
X9611Y9756D01*
X9601D02*
X9611D01*
X9596Y9741D02*
Y9756D01*
Y9741D02*
X9616D01*
Y9761D01*
X9596Y9761D02*
X9616Y9761D01*
X9591Y9736D02*
Y9761D01*
Y9736D02*
X9621D01*
Y9766D01*
X9591D02*
X9621D01*
X9586Y9731D02*
Y9771D01*
Y9731D02*
X9626D01*
Y9771D01*
X9586D02*
X9626D01*
X9651Y9701D02*
X9661D01*
X9651Y9696D02*
X9651Y9706D01*
X9651Y9696D02*
X9661D01*
Y9706D01*
X9651Y9706D02*
X9661Y9706D01*
X9646Y9691D02*
Y9706D01*
Y9691D02*
X9666Y9691D01*
X9666Y9711D02*
X9666Y9691D01*
X9646Y9711D02*
X9666D01*
X9641Y9686D02*
Y9711D01*
Y9686D02*
X9671D01*
Y9716D01*
X9641D02*
X9671D01*
X9636Y9681D02*
Y9721D01*
Y9681D02*
X9676D01*
Y9721D01*
X9636D02*
X9676D01*
X9631Y9676D02*
X9681Y9676D01*
X9681Y9726D02*
X9681Y9676D01*
X9581Y9776D02*
X9631Y9776D01*
X9581Y9776D02*
X9581Y9726D01*
X9631Y9476D02*
Y9976D01*
X9381Y9726D02*
X9881D01*
D12*
X14299Y9440D02*
X14307Y9444D01*
X14318Y9455D01*
Y9375D01*
X14411Y9455D02*
X14373Y9375D01*
X14358Y9455D02*
X14411D01*
X14475D02*
X14437D01*
X14433Y9421D01*
X14437Y9425D01*
X14448Y9429D01*
X14460D01*
X14471Y9425D01*
X14479Y9417D01*
X14483Y9406D01*
Y9398D01*
X14479Y9387D01*
X14471Y9379D01*
X14460Y9375D01*
X14448D01*
X14437Y9379D01*
X14433Y9383D01*
X14429Y9391D01*
X14501Y9410D02*
X14569D01*
X14616Y9455D02*
X14604Y9452D01*
X14597Y9440D01*
X14593Y9421D01*
Y9410D01*
X14597Y9391D01*
X14604Y9379D01*
X14616Y9375D01*
X14623D01*
X14635Y9379D01*
X14642Y9391D01*
X14646Y9410D01*
Y9421D01*
X14642Y9440D01*
X14635Y9452D01*
X14623Y9455D01*
X14616D01*
X14687D02*
X14675Y9452D01*
X14668Y9440D01*
X14664Y9421D01*
Y9410D01*
X14668Y9391D01*
X14675Y9379D01*
X14687Y9375D01*
X14694D01*
X14706Y9379D01*
X14713Y9391D01*
X14717Y9410D01*
Y9421D01*
X14713Y9440D01*
X14706Y9452D01*
X14694Y9455D01*
X14687D01*
X14758D02*
X14747Y9452D01*
X14739Y9440D01*
X14735Y9421D01*
Y9410D01*
X14739Y9391D01*
X14747Y9379D01*
X14758Y9375D01*
X14766D01*
X14777Y9379D01*
X14785Y9391D01*
X14788Y9410D01*
Y9421D01*
X14785Y9440D01*
X14777Y9452D01*
X14766Y9455D01*
X14758D01*
X14806Y9440D02*
X14814Y9444D01*
X14825Y9455D01*
Y9375D01*
X14903Y9455D02*
X14865Y9402D01*
X14922D01*
X14903Y9455D02*
Y9375D01*
X14999Y9455D02*
Y9375D01*
Y9455D02*
X15033D01*
X15045Y9452D01*
X15049Y9448D01*
X15052Y9440D01*
Y9433D01*
X15049Y9425D01*
X15045Y9421D01*
X15033Y9417D01*
X14999D01*
X15026D02*
X15052Y9375D01*
X15120Y9455D02*
X15070D01*
Y9375D01*
X15120D01*
X15070Y9417D02*
X15101D01*
X15133Y9455D02*
X15164Y9375D01*
X15194Y9455D02*
X15164Y9375D01*
X15267Y9440D02*
X15275Y9444D01*
X15286Y9455D01*
Y9375D01*
X15333Y9379D02*
X15330Y9375D01*
X15326Y9379D01*
X15330Y9383D01*
X15333Y9379D01*
Y9372D01*
X15330Y9364D01*
X15326Y9360D01*
X15467Y9444D02*
X15460Y9452D01*
X15448Y9455D01*
X15433D01*
X15421Y9452D01*
X15414Y9444D01*
Y9436D01*
X15418Y9429D01*
X15421Y9425D01*
X15429Y9421D01*
X15452Y9414D01*
X15460Y9410D01*
X15463Y9406D01*
X15467Y9398D01*
Y9387D01*
X15460Y9379D01*
X15448Y9375D01*
X15433D01*
X15421Y9379D01*
X15414Y9387D01*
X15485Y9455D02*
Y9375D01*
X15502Y9455D02*
Y9375D01*
Y9455D02*
X15555Y9375D01*
Y9455D02*
Y9375D01*
X15577Y9455D02*
Y9375D01*
X15647Y9444D02*
X15640Y9452D01*
X15628Y9455D01*
X15613D01*
X15602Y9452D01*
X15594Y9444D01*
Y9436D01*
X15598Y9429D01*
X15602Y9425D01*
X15609Y9421D01*
X15632Y9414D01*
X15640Y9410D01*
X15644Y9406D01*
X15647Y9398D01*
Y9387D01*
X15640Y9379D01*
X15628Y9375D01*
X15613D01*
X15602Y9379D01*
X15594Y9387D01*
X15692Y9455D02*
Y9375D01*
X15665Y9455D02*
X15719D01*
X15728D02*
Y9375D01*
Y9455D02*
X15762D01*
X15774Y9452D01*
X15778Y9448D01*
X15781Y9440D01*
Y9433D01*
X15778Y9425D01*
X15774Y9421D01*
X15762Y9417D01*
X15728D01*
X15755D02*
X15781Y9375D01*
X15822Y9455D02*
X15815Y9452D01*
X15807Y9444D01*
X15803Y9436D01*
X15799Y9425D01*
Y9406D01*
X15803Y9395D01*
X15807Y9387D01*
X15815Y9379D01*
X15822Y9375D01*
X15837D01*
X15845Y9379D01*
X15853Y9387D01*
X15856Y9395D01*
X15860Y9406D01*
Y9425D01*
X15856Y9436D01*
X15853Y9444D01*
X15845Y9452D01*
X15837Y9455D01*
X15822D01*
X15942D02*
Y9375D01*
Y9455D02*
X15976D01*
X15987Y9452D01*
X15991Y9448D01*
X15995Y9440D01*
Y9433D01*
X15991Y9425D01*
X15987Y9421D01*
X15976Y9417D01*
X15942D02*
X15976D01*
X15987Y9414D01*
X15991Y9410D01*
X15995Y9402D01*
Y9391D01*
X15991Y9383D01*
X15987Y9379D01*
X15976Y9375D01*
X15942D01*
X16074D02*
X16043Y9455D01*
X16013Y9375D01*
X16024Y9402D02*
X16062D01*
X16150Y9436D02*
X16146Y9444D01*
X16138Y9452D01*
X16131Y9455D01*
X16115D01*
X16108Y9452D01*
X16100Y9444D01*
X16096Y9436D01*
X16093Y9425D01*
Y9406D01*
X16096Y9395D01*
X16100Y9387D01*
X16108Y9379D01*
X16115Y9375D01*
X16131D01*
X16138Y9379D01*
X16146Y9387D01*
X16150Y9395D01*
X16172Y9455D02*
Y9375D01*
X16225Y9455D02*
X16172Y9402D01*
X16191Y9421D02*
X16225Y9375D01*
X16243Y9414D02*
X16278D01*
X16289Y9417D01*
X16293Y9421D01*
X16297Y9429D01*
Y9440D01*
X16293Y9448D01*
X16289Y9452D01*
X16278Y9455D01*
X16243D01*
Y9375D01*
X16315Y9455D02*
Y9375D01*
X16360D01*
X16430D02*
X16400Y9455D01*
X16369Y9375D01*
X16381Y9402D02*
X16419D01*
X16449Y9455D02*
Y9375D01*
Y9455D02*
X16502Y9375D01*
Y9455D02*
Y9375D01*
X16574Y9455D02*
X16524D01*
Y9375D01*
X16574D01*
X16524Y9417D02*
X16555D01*
X22528Y2606D02*
X22522Y2603D01*
X22516Y2597D01*
X22513Y2592D01*
X22510Y2583D01*
Y2569D01*
X22513Y2560D01*
X22516Y2554D01*
X22522Y2549D01*
X22528Y2546D01*
X22539D01*
X22545Y2549D01*
X22550Y2554D01*
X22553Y2560D01*
X22556Y2569D01*
Y2583D01*
X22553Y2592D01*
X22550Y2597D01*
X22545Y2603D01*
X22539Y2606D01*
X22528D01*
X22570D02*
Y2546D01*
Y2606D02*
X22607D01*
X22570Y2577D02*
X22593D01*
D13*
X14299Y9305D02*
Y9225D01*
X14345D01*
X14415D02*
X14384Y9305D01*
X14354Y9225D01*
X14365Y9252D02*
X14403D01*
X14487Y9294D02*
X14479Y9302D01*
X14468Y9305D01*
X14453D01*
X14441Y9302D01*
X14433Y9294D01*
Y9286D01*
X14437Y9279D01*
X14441Y9275D01*
X14449Y9271D01*
X14472Y9264D01*
X14479Y9260D01*
X14483Y9256D01*
X14487Y9248D01*
Y9237D01*
X14479Y9229D01*
X14468Y9225D01*
X14453D01*
X14441Y9229D01*
X14433Y9237D01*
X14625Y9286D02*
X14621Y9294D01*
X14613Y9302D01*
X14606Y9305D01*
X14590D01*
X14583Y9302D01*
X14575Y9294D01*
X14571Y9286D01*
X14568Y9275D01*
Y9256D01*
X14571Y9244D01*
X14575Y9237D01*
X14583Y9229D01*
X14590Y9225D01*
X14606D01*
X14613Y9229D01*
X14621Y9237D01*
X14625Y9244D01*
X14647Y9305D02*
Y9248D01*
X14651Y9237D01*
X14659Y9229D01*
X14670Y9225D01*
X14678D01*
X14689Y9229D01*
X14697Y9237D01*
X14700Y9248D01*
Y9305D01*
X14723D02*
Y9225D01*
Y9305D02*
X14753Y9225D01*
X14784Y9305D02*
X14753Y9225D01*
X14784Y9305D02*
Y9225D01*
X14806Y9305D02*
Y9225D01*
Y9305D02*
X14841D01*
X14852Y9302D01*
X14856Y9298D01*
X14860Y9290D01*
Y9283D01*
X14856Y9275D01*
X14852Y9271D01*
X14841Y9267D01*
X14806D02*
X14841D01*
X14852Y9264D01*
X14856Y9260D01*
X14860Y9252D01*
Y9241D01*
X14856Y9233D01*
X14852Y9229D01*
X14841Y9225D01*
X14806D01*
X14878Y9305D02*
Y9225D01*
Y9305D02*
X14912D01*
X14923Y9302D01*
X14927Y9298D01*
X14931Y9290D01*
Y9283D01*
X14927Y9275D01*
X14923Y9271D01*
X14912Y9267D01*
X14878D01*
X14904D02*
X14931Y9225D01*
X14998Y9305D02*
X14949D01*
Y9225D01*
X14998D01*
X14949Y9267D02*
X14979D01*
X15065Y9294D02*
X15057Y9302D01*
X15046Y9305D01*
X15031D01*
X15019Y9302D01*
X15012Y9294D01*
Y9286D01*
X15015Y9279D01*
X15019Y9275D01*
X15027Y9271D01*
X15050Y9264D01*
X15057Y9260D01*
X15061Y9256D01*
X15065Y9248D01*
Y9237D01*
X15057Y9229D01*
X15046Y9225D01*
X15031D01*
X15019Y9229D01*
X15012Y9237D01*
X15169Y9305D02*
X15161Y9302D01*
X15153Y9294D01*
X15150Y9286D01*
X15146Y9275D01*
Y9256D01*
X15150Y9244D01*
X15153Y9237D01*
X15161Y9229D01*
X15169Y9225D01*
X15184D01*
X15191Y9229D01*
X15199Y9237D01*
X15203Y9244D01*
X15207Y9256D01*
Y9275D01*
X15203Y9286D01*
X15199Y9294D01*
X15191Y9302D01*
X15184Y9305D01*
X15169D01*
X15225D02*
Y9225D01*
Y9305D02*
X15260D01*
X15271Y9302D01*
X15275Y9298D01*
X15279Y9290D01*
Y9283D01*
X15275Y9275D01*
X15271Y9271D01*
X15260Y9267D01*
X15225D02*
X15260D01*
X15271Y9264D01*
X15275Y9260D01*
X15279Y9252D01*
Y9241D01*
X15275Y9233D01*
X15271Y9229D01*
X15260Y9225D01*
X15225D01*
X15350Y9294D02*
X15342Y9302D01*
X15331Y9305D01*
X15316D01*
X15304Y9302D01*
X15297Y9294D01*
Y9286D01*
X15300Y9279D01*
X15304Y9275D01*
X15312Y9271D01*
X15335Y9264D01*
X15342Y9260D01*
X15346Y9256D01*
X15350Y9248D01*
Y9237D01*
X15342Y9229D01*
X15331Y9225D01*
X15316D01*
X15304Y9229D01*
X15297Y9237D01*
X15417Y9305D02*
X15368D01*
Y9225D01*
X15417D01*
X15368Y9267D02*
X15398D01*
X15431Y9305D02*
Y9225D01*
Y9305D02*
X15465D01*
X15476Y9302D01*
X15480Y9298D01*
X15484Y9290D01*
Y9283D01*
X15480Y9275D01*
X15476Y9271D01*
X15465Y9267D01*
X15431D01*
X15457D02*
X15484Y9225D01*
X15502Y9305D02*
X15532Y9225D01*
X15563Y9305D02*
X15532Y9225D01*
X15634D02*
X15604Y9305D01*
X15573Y9225D01*
X15584Y9252D02*
X15623D01*
X15679Y9305D02*
Y9225D01*
X15653Y9305D02*
X15706D01*
X15738D02*
X15731Y9302D01*
X15723Y9294D01*
X15719Y9286D01*
X15716Y9275D01*
Y9256D01*
X15719Y9244D01*
X15723Y9237D01*
X15731Y9229D01*
X15738Y9225D01*
X15754D01*
X15761Y9229D01*
X15769Y9237D01*
X15773Y9244D01*
X15776Y9256D01*
Y9275D01*
X15773Y9286D01*
X15769Y9294D01*
X15761Y9302D01*
X15754Y9305D01*
X15738D01*
X15795D02*
Y9225D01*
Y9305D02*
X15829D01*
X15841Y9302D01*
X15845Y9298D01*
X15848Y9290D01*
Y9283D01*
X15845Y9275D01*
X15841Y9271D01*
X15829Y9267D01*
X15795D01*
X15822D02*
X15848Y9225D01*
X15866Y9305D02*
X15897Y9267D01*
Y9225D01*
X15927Y9305D02*
X15897Y9267D01*
X16297Y9294D02*
X16294Y9302D01*
X16282Y9305D01*
X16275D01*
X16263Y9302D01*
X16256Y9290D01*
X16252Y9271D01*
Y9252D01*
X16256Y9237D01*
X16263Y9229D01*
X16275Y9225D01*
X16278D01*
X16290Y9229D01*
X16297Y9237D01*
X16301Y9248D01*
Y9252D01*
X16297Y9264D01*
X16290Y9271D01*
X16278Y9275D01*
X16275D01*
X16263Y9271D01*
X16256Y9264D01*
X16252Y9252D01*
X16319Y9214D02*
X16372Y9305D01*
X16377Y9290D02*
X16385Y9294D01*
X16397Y9305D01*
Y9225D01*
X16436Y9290D02*
X16444Y9294D01*
X16455Y9305D01*
Y9225D01*
X16495Y9214D02*
X16548Y9305D01*
X16557Y9286D02*
Y9290D01*
X16561Y9298D01*
X16565Y9302D01*
X16572Y9305D01*
X16588D01*
X16595Y9302D01*
X16599Y9298D01*
X16603Y9290D01*
Y9283D01*
X16599Y9275D01*
X16592Y9264D01*
X16553Y9225D01*
X16607D01*
X16647Y9305D02*
X16636Y9302D01*
X16628Y9290D01*
X16625Y9271D01*
Y9260D01*
X16628Y9241D01*
X16636Y9229D01*
X16647Y9225D01*
X16655D01*
X16667Y9229D01*
X16674Y9241D01*
X16678Y9260D01*
Y9271D01*
X16674Y9290D01*
X16667Y9302D01*
X16655Y9305D01*
X16647D01*
X16696Y9290D02*
X16703Y9294D01*
X16715Y9305D01*
Y9225D01*
X16777Y9305D02*
X16766Y9302D01*
X16758Y9290D01*
X16755Y9271D01*
Y9260D01*
X16758Y9241D01*
X16766Y9229D01*
X16777Y9225D01*
X16785D01*
X16796Y9229D01*
X16804Y9241D01*
X16808Y9260D01*
Y9271D01*
X16804Y9290D01*
X16796Y9302D01*
X16785Y9305D01*
X16777D01*
D14*
X18111Y15338D02*
X18109Y15347D01*
X18102Y15354D01*
X18093Y15358D01*
X18084Y15357D01*
X18076Y15351D01*
X18071Y15343D01*
Y15333D01*
X18076Y15325D01*
X18084Y15319D01*
X18093Y15318D01*
X18102Y15321D01*
X18109Y15329D01*
X18111Y15338D01*
X18211D02*
X18209Y15347D01*
X18202Y15354D01*
X18193Y15358D01*
X18184Y15357D01*
X18176Y15351D01*
X18171Y15343D01*
Y15333D01*
X18176Y15325D01*
X18184Y15319D01*
X18193Y15318D01*
X18202Y15321D01*
X18209Y15329D01*
X18211Y15338D01*
X18261Y15438D02*
X18259Y15447D01*
X18252Y15454D01*
X18243Y15458D01*
X18234Y15457D01*
X18226Y15451D01*
X18221Y15443D01*
Y15433D01*
X18226Y15425D01*
X18234Y15419D01*
X18243Y15418D01*
X18252Y15421D01*
X18259Y15429D01*
X18261Y15438D01*
Y15638D02*
X18259Y15647D01*
X18252Y15654D01*
X18243Y15658D01*
X18234Y15657D01*
X18226Y15651D01*
X18221Y15643D01*
Y15633D01*
X18226Y15625D01*
X18234Y15619D01*
X18243Y15618D01*
X18252Y15621D01*
X18259Y15629D01*
X18261Y15638D01*
X18211Y15738D02*
X18209Y15747D01*
X18202Y15754D01*
X18193Y15758D01*
X18184Y15757D01*
X18176Y15751D01*
X18171Y15743D01*
Y15733D01*
X18176Y15725D01*
X18184Y15719D01*
X18193Y15718D01*
X18202Y15721D01*
X18209Y15729D01*
X18211Y15738D01*
X18111D02*
X18109Y15747D01*
X18102Y15754D01*
X18093Y15758D01*
X18084Y15757D01*
X18076Y15751D01*
X18071Y15743D01*
Y15733D01*
X18076Y15725D01*
X18084Y15719D01*
X18093Y15718D01*
X18102Y15721D01*
X18109Y15729D01*
X18111Y15738D01*
X18011D02*
X18009Y15747D01*
X18002Y15754D01*
X17993Y15758D01*
X17984Y15757D01*
X17976Y15751D01*
X17971Y15743D01*
Y15733D01*
X17976Y15725D01*
X17984Y15719D01*
X17993Y15718D01*
X18002Y15721D01*
X18009Y15729D01*
X18011Y15738D01*
X17911D02*
X17909Y15747D01*
X17902Y15754D01*
X17893Y15758D01*
X17884Y15757D01*
X17876Y15751D01*
X17871Y15743D01*
Y15733D01*
X17876Y15725D01*
X17884Y15719D01*
X17893Y15718D01*
X17902Y15721D01*
X17909Y15729D01*
X17911Y15738D01*
X17861Y15638D02*
X17859Y15647D01*
X17852Y15654D01*
X17843Y15658D01*
X17834Y15657D01*
X17826Y15651D01*
X17821Y15643D01*
Y15633D01*
X17826Y15625D01*
X17834Y15619D01*
X17843Y15618D01*
X17852Y15621D01*
X17859Y15629D01*
X17861Y15638D01*
Y15438D02*
X17859Y15447D01*
X17852Y15454D01*
X17843Y15458D01*
X17834Y15457D01*
X17826Y15451D01*
X17821Y15443D01*
Y15433D01*
X17826Y15425D01*
X17834Y15419D01*
X17843Y15418D01*
X17852Y15421D01*
X17859Y15429D01*
X17861Y15438D01*
X17911Y15338D02*
X17909Y15347D01*
X17902Y15354D01*
X17893Y15358D01*
X17884Y15357D01*
X17876Y15351D01*
X17871Y15343D01*
Y15333D01*
X17876Y15325D01*
X17884Y15319D01*
X17893Y15318D01*
X17902Y15321D01*
X17909Y15329D01*
X17911Y15338D01*
X18011D02*
X18009Y15347D01*
X18002Y15354D01*
X17993Y15358D01*
X17984Y15357D01*
X17976Y15351D01*
X17971Y15343D01*
Y15333D01*
X17976Y15325D01*
X17984Y15319D01*
X17993Y15318D01*
X18002Y15321D01*
X18009Y15329D01*
X18011Y15338D01*
X18061Y15438D02*
X18059Y15447D01*
X18052Y15454D01*
X18043Y15458D01*
X18034Y15457D01*
X18026Y15451D01*
X18021Y15443D01*
Y15433D01*
X18026Y15425D01*
X18034Y15419D01*
X18043Y15418D01*
X18052Y15421D01*
X18059Y15429D01*
X18061Y15438D01*
X18161D02*
X18159Y15447D01*
X18152Y15454D01*
X18143Y15458D01*
X18134Y15457D01*
X18126Y15451D01*
X18121Y15443D01*
Y15433D01*
X18126Y15425D01*
X18134Y15419D01*
X18143Y15418D01*
X18152Y15421D01*
X18159Y15429D01*
X18161Y15438D01*
Y15638D02*
X18159Y15647D01*
X18152Y15654D01*
X18143Y15658D01*
X18134Y15657D01*
X18126Y15651D01*
X18121Y15643D01*
Y15633D01*
X18126Y15625D01*
X18134Y15619D01*
X18143Y15618D01*
X18152Y15621D01*
X18159Y15629D01*
X18161Y15638D01*
X18061D02*
X18059Y15647D01*
X18052Y15654D01*
X18043Y15658D01*
X18034Y15657D01*
X18026Y15651D01*
X18021Y15643D01*
Y15633D01*
X18026Y15625D01*
X18034Y15619D01*
X18043Y15618D01*
X18052Y15621D01*
X18059Y15629D01*
X18061Y15638D01*
X17961D02*
X17959Y15647D01*
X17952Y15654D01*
X17943Y15658D01*
X17934Y15657D01*
X17926Y15651D01*
X17921Y15643D01*
Y15633D01*
X17926Y15625D01*
X17934Y15619D01*
X17943Y15618D01*
X17952Y15621D01*
X17959Y15629D01*
X17961Y15638D01*
Y15438D02*
X17959Y15447D01*
X17952Y15454D01*
X17943Y15458D01*
X17934Y15457D01*
X17926Y15451D01*
X17921Y15443D01*
Y15433D01*
X17926Y15425D01*
X17934Y15419D01*
X17943Y15418D01*
X17952Y15421D01*
X17959Y15429D01*
X17961Y15438D01*
D15*
X2140Y2461D02*
X2141Y2451D01*
X2144Y2442D01*
X2149Y2433D01*
X2155Y2426D01*
X2163Y2419D01*
X2171Y2415D01*
X2181Y2412D01*
X2190Y2411D01*
X2700Y2951D02*
X2699Y2961D01*
X2697Y2970D01*
X2692Y2979D01*
X2686Y2986D01*
X2678Y2992D01*
X2670Y2997D01*
X2660Y3000D01*
X2650Y3001D01*
X2190D02*
X2181Y3000D01*
X2171Y2997D01*
X2163Y2992D01*
X2155Y2986D01*
X2149Y2979D01*
X2144Y2970D01*
X2141Y2961D01*
X2140Y2951D01*
X5440Y2801D02*
X5439Y2811D01*
X5437Y2820D01*
X5432Y2829D01*
X5426Y2836D01*
X5418Y2842D01*
X5410Y2847D01*
X5400Y2850D01*
X5390Y2851D01*
Y2411D02*
X5400Y2412D01*
X5410Y2415D01*
X5418Y2419D01*
X5426Y2426D01*
X5432Y2433D01*
X5437Y2442D01*
X5439Y2451D01*
X5440Y2461D01*
X2700Y2901D02*
X2701Y2891D01*
X2704Y2882D01*
X2709Y2873D01*
X2715Y2866D01*
X2723Y2859D01*
X2731Y2855D01*
X2741Y2852D01*
X2750Y2851D01*
X5480Y2801D02*
X5480Y2811D01*
X5478Y2821D01*
X5475Y2831D01*
X5471Y2840D01*
X5467Y2849D01*
X5461Y2857D01*
X5454Y2865D01*
X5447Y2871D01*
X5438Y2877D01*
X5429Y2882D01*
X5420Y2886D01*
X5410Y2889D01*
X5400Y2890D01*
X5390Y2891D01*
X5465Y2411D02*
X5471Y2420D01*
X5475Y2430D01*
X5478Y2440D01*
X5480Y2450D01*
X5480Y2461D01*
X2190Y3041D02*
X2180Y3040D01*
X2169Y3038D01*
X2159Y3035D01*
X2150Y3031D01*
X2140Y3026D01*
X2740Y2951D02*
X2740Y2961D01*
X2738Y2971D01*
X2735Y2981D01*
X2731Y2990D01*
X2727Y2999D01*
X2721Y3007D01*
X2714Y3015D01*
X2707Y3021D01*
X2698Y3027D01*
X2689Y3032D01*
X2680Y3036D01*
X2670Y3039D01*
X2660Y3040D01*
X2650Y3041D01*
X2740Y2901D02*
X2743Y2894D01*
X2750Y2891D01*
X18980Y2501D02*
X18981Y2491D01*
X18982Y2481D01*
X18984Y2472D01*
X18986Y2462D01*
X18989Y2453D01*
X18993Y2444D01*
X18998Y2436D01*
X19003Y2427D01*
X19009Y2420D01*
X19015Y2412D01*
X23099Y3366D02*
X23092Y3372D01*
X23084Y3378D01*
X23076Y3383D01*
X23067Y3388D01*
X23058Y3392D01*
X23049Y3395D01*
X23039Y3398D01*
X23030Y3399D01*
X23020Y3401D01*
X23010Y3401D01*
X23100Y3271D02*
X23100Y3281D01*
X23098Y3291D01*
X23095Y3301D01*
X23091Y3310D01*
X23087Y3319D01*
X23081Y3327D01*
X23074Y3335D01*
X23067Y3341D01*
X23058Y3347D01*
X23049Y3352D01*
X23040Y3356D01*
X23030Y3359D01*
X23020Y3360D01*
X23010Y3361D01*
X19060Y3401D02*
X19051Y3400D01*
X19041Y3399D01*
X19032Y3396D01*
X19023Y3392D01*
X19015Y3387D01*
X19007Y3381D01*
X19001Y3374D01*
X18995Y3366D01*
X18990Y3358D01*
X18986Y3349D01*
X18983Y3340D01*
X18981Y3331D01*
X18980Y3321D01*
X19060Y3361D02*
X19050Y3360D01*
X19040Y3356D01*
X19032Y3349D01*
X19026Y3341D01*
X19022Y3331D01*
X19020Y3321D01*
X23010Y2411D02*
X23020Y2411D01*
X23030Y2413D01*
X23040Y2416D01*
X23049Y2420D01*
X23058Y2425D01*
X23067Y2431D01*
X23074Y2437D01*
X23081Y2445D01*
X23087Y2453D01*
X23091Y2462D01*
X23095Y2471D01*
X23098Y2481D01*
X23100Y2491D01*
X23100Y2501D01*
X19020Y2501D02*
X19021Y2491D01*
X19023Y2481D01*
X19025Y2471D01*
X19029Y2462D01*
X19034Y2453D01*
X19040Y2445D01*
X19047Y2437D01*
X19054Y2431D01*
X19063Y2425D01*
X19071Y2420D01*
X19081Y2416D01*
X19090Y2413D01*
X19100Y2411D01*
X19110Y2411D01*
X2700Y2901D02*
Y2951D01*
X5440Y2461D02*
Y2801D01*
X5480Y2461D02*
Y2801D01*
X2740Y2901D02*
Y2951D01*
X2140Y2461D02*
Y2951D01*
X18980Y2501D02*
Y3321D01*
X23100Y2501D02*
Y3271D01*
X19020Y2501D02*
Y3321D01*
X2190Y3001D02*
X2650D01*
X2750Y2851D02*
X5390D01*
X2190Y3041D02*
X2650D01*
X2750Y2891D02*
X5390D01*
X2190Y2411D02*
X5390D01*
X19060Y3401D02*
X23010D01*
X19060Y3361D02*
X23010D01*
X19110Y2411D02*
X23010D01*
X22745Y2602D02*
Y2607D01*
X22750Y2616D01*
X22755Y2621D01*
X22764Y2626D01*
X22783D01*
X22793Y2621D01*
X22798Y2616D01*
X22802Y2607D01*
Y2597D01*
X22798Y2588D01*
X22788Y2573D01*
X22740Y2526D01*
X22807D01*
X22858Y2626D02*
X22844Y2621D01*
X22834Y2607D01*
X22829Y2583D01*
Y2569D01*
X22834Y2545D01*
X22844Y2531D01*
X22858Y2526D01*
X22868D01*
X22882Y2531D01*
X22891Y2545D01*
X22896Y2569D01*
Y2583D01*
X22891Y2607D01*
X22882Y2621D01*
X22868Y2626D01*
X22858D01*
X22330Y2602D02*
Y2607D01*
X22335Y2616D01*
X22340Y2621D01*
X22349Y2626D01*
X22368D01*
X22378Y2621D01*
X22383Y2616D01*
X22387Y2607D01*
Y2597D01*
X22383Y2588D01*
X22373Y2573D01*
X22325Y2526D01*
X22392D01*
D16*
X23010Y3071D02*
X23020Y3072D01*
X23030Y3075D01*
X23038Y3079D01*
X23046Y3086D01*
X23052Y3093D01*
X23057Y3102D01*
X23059Y3111D01*
X23060Y3121D01*
Y3271D02*
X23059Y3281D01*
X23057Y3290D01*
X23052Y3299D01*
X23046Y3306D01*
X23038Y3312D01*
X23030Y3317D01*
X23020Y3320D01*
X23010Y3321D01*
X23060Y2651D02*
X23059Y2661D01*
X23057Y2670D01*
X23052Y2679D01*
X23046Y2686D01*
X23038Y2692D01*
X23030Y2697D01*
X23020Y2700D01*
X23010Y2701D01*
Y2451D02*
X23020Y2452D01*
X23030Y2455D01*
X23038Y2459D01*
X23046Y2466D01*
X23052Y2473D01*
X23057Y2482D01*
X23059Y2491D01*
X23060Y2501D01*
X21520Y2451D02*
X21531Y2452D01*
X21540Y2456D01*
X21549Y2463D01*
X21555Y2471D01*
X21559Y2481D01*
X21560Y2491D01*
Y2661D02*
X21559Y2671D01*
X21555Y2681D01*
X21549Y2689D01*
X21540Y2696D01*
X21531Y2700D01*
X21520Y2701D01*
X19480Y2661D02*
X19479Y2671D01*
X19475Y2681D01*
X19469Y2689D01*
X19460Y2696D01*
X19451Y2700D01*
X19440Y2701D01*
X19060Y3111D02*
X19062Y3101D01*
X19066Y3091D01*
X19072Y3083D01*
X19080Y3076D01*
X19090Y3072D01*
X19100Y3071D01*
X22060Y2491D02*
X22062Y2481D01*
X22066Y2471D01*
X22072Y2463D01*
X22080Y2456D01*
X22090Y2452D01*
X22100Y2451D01*
X19060Y2501D02*
X19061Y2491D01*
X19064Y2482D01*
X19069Y2473D01*
X19075Y2466D01*
X19083Y2459D01*
X19091Y2455D01*
X19101Y2452D01*
X19110Y2451D01*
X19520Y2491D02*
X19522Y2481D01*
X19526Y2471D01*
X19532Y2463D01*
X19540Y2456D01*
X19550Y2452D01*
X19560Y2451D01*
X19060Y2791D02*
X19061Y2781D01*
X19064Y2772D01*
X19069Y2763D01*
X19075Y2756D01*
X19083Y2749D01*
X19091Y2745D01*
X19101Y2742D01*
X19110Y2741D01*
X23010D02*
X23020Y2742D01*
X23030Y2745D01*
X23038Y2749D01*
X23046Y2756D01*
X23052Y2763D01*
X23057Y2772D01*
X23059Y2781D01*
X23060Y2791D01*
Y2981D02*
X23059Y2991D01*
X23057Y3000D01*
X23052Y3009D01*
X23046Y3016D01*
X23038Y3022D01*
X23030Y3027D01*
X23020Y3030D01*
X23010Y3031D01*
X22120Y3271D02*
X22119Y3281D01*
X22117Y3290D01*
X22112Y3299D01*
X22106Y3306D01*
X22098Y3312D01*
X22090Y3317D01*
X22080Y3320D01*
X22070Y3321D01*
Y3071D02*
X22080Y3072D01*
X22090Y3075D01*
X22098Y3079D01*
X22106Y3086D01*
X22112Y3093D01*
X22117Y3102D01*
X22119Y3111D01*
X22120Y3121D01*
X22160D02*
X22161Y3111D01*
X22164Y3102D01*
X22169Y3093D01*
X22175Y3086D01*
X22183Y3079D01*
X22191Y3075D01*
X22201Y3072D01*
X22210Y3071D01*
X20520D02*
X20530Y3072D01*
X20540Y3075D01*
X20548Y3079D01*
X20556Y3086D01*
X20562Y3093D01*
X20567Y3102D01*
X20569Y3111D01*
X20570Y3121D01*
Y3271D02*
X20569Y3281D01*
X20567Y3290D01*
X20562Y3299D01*
X20556Y3306D01*
X20548Y3312D01*
X20540Y3317D01*
X20530Y3320D01*
X20520Y3321D01*
X20610Y3121D02*
X20611Y3111D01*
X20614Y3102D01*
X20619Y3093D01*
X20625Y3086D01*
X20633Y3079D01*
X20641Y3075D01*
X20651Y3072D01*
X20660Y3071D01*
X19440Y2451D02*
X19451Y2452D01*
X19460Y2456D01*
X19469Y2463D01*
X19475Y2471D01*
X19479Y2481D01*
X19480Y2491D01*
X22020Y2661D02*
X22019Y2671D01*
X22015Y2681D01*
X22009Y2689D01*
X22000Y2696D01*
X21991Y2700D01*
X21980Y2701D01*
X21600Y2501D02*
X21601Y2491D01*
X21604Y2482D01*
X21609Y2473D01*
X21615Y2466D01*
X21623Y2459D01*
X21631Y2455D01*
X21641Y2452D01*
X21650Y2451D01*
X21980D02*
X21991Y2452D01*
X22000Y2456D01*
X22009Y2463D01*
X22015Y2471D01*
X22019Y2481D01*
X22020Y2491D01*
X2115Y18395D02*
X23115D01*
Y2395D02*
Y18395D01*
X2115Y2395D02*
X23115D01*
X2115D02*
Y18395D01*
X23060Y3121D02*
Y3271D01*
Y2501D02*
Y2651D01*
X22060Y2491D02*
Y2701D01*
X21560Y2491D02*
Y2661D01*
X19520Y2491D02*
Y2701D01*
X19480Y2491D02*
Y2661D01*
X19060Y3111D02*
Y3321D01*
Y2501D02*
Y2701D01*
Y2791D02*
Y3031D01*
X23060Y2791D02*
Y2981D01*
X22160Y3121D02*
Y3321D01*
X22120Y3121D02*
Y3271D01*
X20570Y3121D02*
Y3271D01*
X20610Y3121D02*
Y3321D01*
X22060Y2701D02*
X23010D01*
X22100Y2451D02*
X23010D01*
X19060Y2701D02*
X19440D01*
X19520D02*
X21520D01*
X19110Y2451D02*
X19440D01*
X19560D02*
X21520D01*
X19110Y2741D02*
X23010D01*
X19060Y3031D02*
X23010D01*
X22160Y3321D02*
X23010D01*
X22210Y3071D02*
X23010D01*
X19060Y3321D02*
X20520D01*
X20610D02*
X22070D01*
X20660Y3071D02*
X22070D01*
X19100D02*
X20520D01*
X22020Y2491D02*
Y2661D01*
X21600Y2501D02*
Y2701D01*
X21980D01*
X21650Y2451D02*
X21980D01*
X21127Y3226D02*
Y3171D01*
Y3226D02*
X21151D01*
X21159Y3223D01*
X21161Y3221D01*
X21164Y3215D01*
Y3210D01*
X21161Y3205D01*
X21159Y3202D01*
X21151Y3200D01*
X21127D01*
X21146D02*
X21164Y3171D01*
X21182Y3226D02*
X21184Y3223D01*
X21187Y3226D01*
X21184Y3228D01*
X21182Y3226D01*
X21184Y3208D02*
Y3171D01*
X21228Y3200D02*
X21223Y3205D01*
X21217Y3208D01*
X21210D01*
X21204Y3205D01*
X21199Y3200D01*
X21197Y3192D01*
Y3187D01*
X21199Y3179D01*
X21204Y3174D01*
X21210Y3171D01*
X21217D01*
X21223Y3174D01*
X21228Y3179D01*
X21240Y3226D02*
Y3171D01*
Y3197D02*
X21248Y3205D01*
X21253Y3208D01*
X21261D01*
X21266Y3205D01*
X21269Y3197D01*
Y3171D01*
X21326Y3226D02*
Y3171D01*
X21358D01*
X21377Y3208D02*
X21371Y3205D01*
X21366Y3200D01*
X21364Y3192D01*
Y3187D01*
X21366Y3179D01*
X21371Y3174D01*
X21377Y3171D01*
X21385D01*
X21390Y3174D01*
X21395Y3179D01*
X21398Y3187D01*
Y3192D01*
X21395Y3200D01*
X21390Y3205D01*
X21385Y3208D01*
X21377D01*
X21410Y3226D02*
Y3171D01*
Y3200D02*
X21415Y3205D01*
X21420Y3208D01*
X21428D01*
X21433Y3205D01*
X21438Y3200D01*
X21441Y3192D01*
Y3187D01*
X21438Y3179D01*
X21433Y3174D01*
X21428Y3171D01*
X21420D01*
X21415Y3174D01*
X21410Y3179D01*
X21484Y3226D02*
Y3171D01*
Y3200D02*
X21479Y3205D01*
X21474Y3208D01*
X21466D01*
X21461Y3205D01*
X21455Y3200D01*
X21453Y3192D01*
Y3187D01*
X21455Y3179D01*
X21461Y3174D01*
X21466Y3171D01*
X21474D01*
X21479Y3174D01*
X21484Y3179D01*
X21504Y3226D02*
X21507Y3223D01*
X21509Y3226D01*
X21507Y3228D01*
X21504Y3226D01*
X21507Y3208D02*
Y3171D01*
X21519Y3226D02*
Y3171D01*
X21531Y3226D02*
Y3171D01*
X19566Y3228D02*
Y3173D01*
Y3228D02*
X19590D01*
X19598Y3225D01*
X19600Y3223D01*
X19603Y3217D01*
Y3212D01*
X19600Y3207D01*
X19598Y3204D01*
X19590Y3202D01*
X19566D01*
X19585D02*
X19603Y3173D01*
X19621Y3228D02*
X19623Y3225D01*
X19626Y3228D01*
X19623Y3230D01*
X19621Y3228D01*
X19623Y3210D02*
Y3173D01*
X19667Y3202D02*
X19662Y3207D01*
X19656Y3210D01*
X19649D01*
X19643Y3207D01*
X19638Y3202D01*
X19636Y3194D01*
Y3189D01*
X19638Y3181D01*
X19643Y3176D01*
X19649Y3173D01*
X19656D01*
X19662Y3176D01*
X19667Y3181D01*
X19679Y3228D02*
Y3173D01*
Y3199D02*
X19687Y3207D01*
X19692Y3210D01*
X19700D01*
X19705Y3207D01*
X19708Y3199D01*
Y3173D01*
X19765Y3228D02*
Y3173D01*
X19797D01*
X19816Y3210D02*
X19810Y3207D01*
X19805Y3202D01*
X19803Y3194D01*
Y3189D01*
X19805Y3181D01*
X19810Y3176D01*
X19816Y3173D01*
X19824D01*
X19829Y3176D01*
X19834Y3181D01*
X19837Y3189D01*
Y3194D01*
X19834Y3202D01*
X19829Y3207D01*
X19824Y3210D01*
X19816D01*
X19849Y3228D02*
Y3173D01*
Y3202D02*
X19854Y3207D01*
X19859Y3210D01*
X19867D01*
X19872Y3207D01*
X19877Y3202D01*
X19880Y3194D01*
Y3189D01*
X19877Y3181D01*
X19872Y3176D01*
X19867Y3173D01*
X19859D01*
X19854Y3176D01*
X19849Y3181D01*
X19923Y3228D02*
Y3173D01*
Y3202D02*
X19918Y3207D01*
X19913Y3210D01*
X19905D01*
X19900Y3207D01*
X19894Y3202D01*
X19892Y3194D01*
Y3189D01*
X19894Y3181D01*
X19900Y3176D01*
X19905Y3173D01*
X19913D01*
X19918Y3176D01*
X19923Y3181D01*
X19943Y3228D02*
X19946Y3225D01*
X19948Y3228D01*
X19946Y3230D01*
X19943Y3228D01*
X19946Y3210D02*
Y3173D01*
X19958Y3228D02*
Y3173D01*
X19970Y3228D02*
Y3173D01*
X2230Y2606D02*
Y2546D01*
Y2606D02*
X2268D01*
X2230Y2577D02*
X2253D01*
X2274Y2606D02*
Y2546D01*
X2287Y2606D02*
Y2546D01*
Y2606D02*
X2307D01*
X2316Y2603D01*
X2321Y2597D01*
X2324Y2592D01*
X2327Y2583D01*
Y2569D01*
X2324Y2560D01*
X2321Y2554D01*
X2316Y2549D01*
X2307Y2546D01*
X2287D01*
X2378Y2606D02*
X2340D01*
Y2546D01*
X2378D01*
X2340Y2577D02*
X2363D01*
X2388Y2606D02*
Y2546D01*
Y2606D02*
X2428Y2546D01*
Y2606D02*
Y2546D01*
X2464Y2606D02*
Y2546D01*
X2444Y2606D02*
X2484D01*
X2491D02*
Y2546D01*
X2549D02*
X2527Y2606D01*
X2504Y2546D01*
X2512Y2566D02*
X2541D01*
X2563Y2606D02*
Y2546D01*
X2598D01*
X2651Y2606D02*
Y2546D01*
Y2606D02*
X2677D01*
X2686Y2603D01*
X2689Y2600D01*
X2691Y2594D01*
Y2589D01*
X2689Y2583D01*
X2686Y2580D01*
X2677Y2577D01*
X2651D01*
X2671D02*
X2691Y2546D01*
X2742Y2606D02*
X2705D01*
Y2546D01*
X2742D01*
X2705Y2577D02*
X2728D01*
X2752Y2606D02*
Y2546D01*
X2786D01*
X2839D02*
X2816Y2606D01*
X2793Y2546D01*
X2801Y2566D02*
X2830D01*
X2873Y2606D02*
Y2546D01*
X2853Y2606D02*
X2893D01*
X2900D02*
Y2546D01*
X2929Y2606D02*
X2924Y2603D01*
X2918Y2597D01*
X2915Y2592D01*
X2912Y2583D01*
Y2569D01*
X2915Y2560D01*
X2918Y2554D01*
X2924Y2549D01*
X2929Y2546D01*
X2941D01*
X2947Y2549D01*
X2952Y2554D01*
X2955Y2560D01*
X2958Y2569D01*
Y2583D01*
X2955Y2592D01*
X2952Y2597D01*
X2947Y2603D01*
X2941Y2606D01*
X2929D01*
X2972D02*
Y2546D01*
Y2606D02*
X3012Y2546D01*
Y2606D02*
Y2546D01*
X3069Y2597D02*
X3063Y2603D01*
X3054Y2606D01*
X3043D01*
X3034Y2603D01*
X3029Y2597D01*
Y2592D01*
X3031Y2586D01*
X3034Y2583D01*
X3040Y2580D01*
X3057Y2574D01*
X3063Y2572D01*
X3066Y2569D01*
X3069Y2563D01*
Y2554D01*
X3063Y2549D01*
X3054Y2546D01*
X3043D01*
X3034Y2549D01*
X3029Y2554D01*
X3082Y2606D02*
Y2546D01*
X3122Y2606D02*
Y2546D01*
X3082Y2577D02*
X3122D01*
X3138Y2606D02*
Y2546D01*
X3151Y2574D02*
X3177D01*
X3185Y2577D01*
X3188Y2580D01*
X3191Y2586D01*
Y2594D01*
X3188Y2600D01*
X3185Y2603D01*
X3177Y2606D01*
X3151D01*
Y2546D01*
X3210Y2549D02*
X3207Y2546D01*
X3204Y2549D01*
X3207Y2552D01*
X3210Y2549D01*
Y2543D01*
X3207Y2537D01*
X3204Y2534D01*
X3316Y2546D02*
X3293Y2606D01*
X3270Y2546D01*
X3279Y2566D02*
X3308D01*
X3330Y2606D02*
Y2546D01*
Y2606D02*
X3370Y2546D01*
Y2606D02*
Y2546D01*
X3387Y2606D02*
Y2546D01*
Y2606D02*
X3407D01*
X3415Y2603D01*
X3421Y2597D01*
X3424Y2592D01*
X3427Y2583D01*
Y2569D01*
X3424Y2560D01*
X3421Y2554D01*
X3415Y2549D01*
X3407Y2546D01*
X3387D01*
X3524Y2606D02*
X3487D01*
Y2546D01*
X3524D01*
X3487Y2577D02*
X3510D01*
X3534Y2606D02*
X3574Y2546D01*
Y2606D02*
X3534Y2546D01*
X3631Y2592D02*
X3628Y2597D01*
X3622Y2603D01*
X3616Y2606D01*
X3605D01*
X3599Y2603D01*
X3594Y2597D01*
X3591Y2592D01*
X3588Y2583D01*
Y2569D01*
X3591Y2560D01*
X3594Y2554D01*
X3599Y2549D01*
X3605Y2546D01*
X3616D01*
X3622Y2549D01*
X3628Y2554D01*
X3631Y2560D01*
X3685Y2606D02*
X3648D01*
Y2546D01*
X3685D01*
X3648Y2577D02*
X3670D01*
X3695Y2574D02*
X3720D01*
X3729Y2577D01*
X3732Y2580D01*
X3735Y2586D01*
Y2594D01*
X3732Y2600D01*
X3729Y2603D01*
X3720Y2606D01*
X3695D01*
Y2546D01*
X3768Y2606D02*
Y2546D01*
X3748Y2606D02*
X3788D01*
X3842D02*
Y2546D01*
Y2606D02*
X3879D01*
X3842Y2577D02*
X3865D01*
X3903Y2606D02*
X3898Y2603D01*
X3892Y2597D01*
X3889Y2592D01*
X3886Y2583D01*
Y2569D01*
X3889Y2560D01*
X3892Y2554D01*
X3898Y2549D01*
X3903Y2546D01*
X3915D01*
X3921Y2549D01*
X3926Y2554D01*
X3929Y2560D01*
X3932Y2569D01*
Y2583D01*
X3929Y2592D01*
X3926Y2597D01*
X3921Y2603D01*
X3915Y2606D01*
X3903D01*
X3946D02*
Y2546D01*
Y2606D02*
X3972D01*
X3980Y2603D01*
X3983Y2600D01*
X3986Y2594D01*
Y2589D01*
X3983Y2583D01*
X3980Y2580D01*
X3972Y2577D01*
X3946D01*
X3966D02*
X3986Y2546D01*
X4047Y2574D02*
X4072D01*
X4081Y2577D01*
X4084Y2580D01*
X4087Y2586D01*
Y2594D01*
X4084Y2600D01*
X4081Y2603D01*
X4072Y2606D01*
X4047D01*
Y2546D01*
X4100Y2606D02*
Y2563D01*
X4103Y2554D01*
X4109Y2549D01*
X4117Y2546D01*
X4123D01*
X4131Y2549D01*
X4137Y2554D01*
X4140Y2563D01*
Y2606D01*
X4157D02*
Y2546D01*
Y2606D02*
X4182D01*
X4191Y2603D01*
X4194Y2600D01*
X4197Y2594D01*
Y2589D01*
X4194Y2583D01*
X4191Y2580D01*
X4182Y2577D01*
X4157D01*
X4177D02*
X4197Y2546D01*
X4210Y2574D02*
X4236D01*
X4244Y2577D01*
X4247Y2580D01*
X4250Y2586D01*
Y2594D01*
X4247Y2600D01*
X4244Y2603D01*
X4236Y2606D01*
X4210D01*
Y2546D01*
X4281Y2606D02*
X4275Y2603D01*
X4269Y2597D01*
X4266Y2592D01*
X4263Y2583D01*
Y2569D01*
X4266Y2560D01*
X4269Y2554D01*
X4275Y2549D01*
X4281Y2546D01*
X4292D01*
X4298Y2549D01*
X4303Y2554D01*
X4306Y2560D01*
X4309Y2569D01*
Y2583D01*
X4306Y2592D01*
X4303Y2597D01*
X4298Y2603D01*
X4292Y2606D01*
X4281D01*
X4363Y2597D02*
X4357Y2603D01*
X4349Y2606D01*
X4337D01*
X4329Y2603D01*
X4323Y2597D01*
Y2592D01*
X4326Y2586D01*
X4329Y2583D01*
X4335Y2580D01*
X4352Y2574D01*
X4357Y2572D01*
X4360Y2569D01*
X4363Y2563D01*
Y2554D01*
X4357Y2549D01*
X4349Y2546D01*
X4337D01*
X4329Y2549D01*
X4323Y2554D01*
X4414Y2606D02*
X4377D01*
Y2546D01*
X4414D01*
X4377Y2577D02*
X4399D01*
X4464Y2597D02*
X4458Y2603D01*
X4449Y2606D01*
X4438D01*
X4429Y2603D01*
X4424Y2597D01*
Y2592D01*
X4427Y2586D01*
X4429Y2583D01*
X4435Y2580D01*
X4452Y2574D01*
X4458Y2572D01*
X4461Y2569D01*
X4464Y2563D01*
Y2554D01*
X4458Y2549D01*
X4449Y2546D01*
X4438D01*
X4429Y2549D01*
X4424Y2554D01*
X4561Y2606D02*
X4524D01*
Y2546D01*
X4561D01*
X4524Y2577D02*
X4547D01*
X4571Y2606D02*
X4611Y2546D01*
Y2606D02*
X4571Y2546D01*
X4625Y2574D02*
X4650D01*
X4659Y2577D01*
X4662Y2580D01*
X4665Y2586D01*
Y2594D01*
X4662Y2600D01*
X4659Y2603D01*
X4650Y2606D01*
X4625D01*
Y2546D01*
X4678Y2606D02*
Y2546D01*
Y2606D02*
X4704D01*
X4712Y2603D01*
X4715Y2600D01*
X4718Y2594D01*
Y2589D01*
X4715Y2583D01*
X4712Y2580D01*
X4704Y2577D01*
X4678D01*
X4698D02*
X4718Y2546D01*
X4769Y2606D02*
X4732D01*
Y2546D01*
X4769D01*
X4732Y2577D02*
X4754D01*
X4819Y2597D02*
X4813Y2603D01*
X4804Y2606D01*
X4793D01*
X4784Y2603D01*
X4779Y2597D01*
Y2592D01*
X4782Y2586D01*
X4784Y2583D01*
X4790Y2580D01*
X4807Y2574D01*
X4813Y2572D01*
X4816Y2569D01*
X4819Y2563D01*
Y2554D01*
X4813Y2549D01*
X4804Y2546D01*
X4793D01*
X4784Y2549D01*
X4779Y2554D01*
X4872Y2597D02*
X4866Y2603D01*
X4858Y2606D01*
X4846D01*
X4838Y2603D01*
X4832Y2597D01*
Y2592D01*
X4835Y2586D01*
X4838Y2583D01*
X4844Y2580D01*
X4861Y2574D01*
X4866Y2572D01*
X4869Y2569D01*
X4872Y2563D01*
Y2554D01*
X4866Y2549D01*
X4858Y2546D01*
X4846D01*
X4838Y2549D01*
X4832Y2554D01*
X4886Y2606D02*
Y2546D01*
X4920D01*
X4926Y2606D02*
X4949Y2577D01*
Y2546D01*
X4972Y2606D02*
X4949Y2577D01*
X5070Y2592D02*
X5067Y2597D01*
X5061Y2603D01*
X5056Y2606D01*
X5044D01*
X5038Y2603D01*
X5033Y2597D01*
X5030Y2592D01*
X5027Y2583D01*
Y2569D01*
X5030Y2560D01*
X5033Y2554D01*
X5038Y2549D01*
X5044Y2546D01*
X5056D01*
X5061Y2549D01*
X5067Y2554D01*
X5070Y2560D01*
Y2569D01*
X5056D02*
X5070D01*
X5084Y2606D02*
Y2546D01*
Y2606D02*
X5109D01*
X5118Y2603D01*
X5121Y2600D01*
X5123Y2594D01*
Y2589D01*
X5121Y2583D01*
X5118Y2580D01*
X5109Y2577D01*
X5084D01*
X5103D02*
X5123Y2546D01*
X5183D02*
X5160Y2606D01*
X5137Y2546D01*
X5145Y2566D02*
X5174D01*
X5197Y2606D02*
Y2546D01*
Y2606D02*
X5237Y2546D01*
Y2606D02*
Y2546D01*
X5273Y2606D02*
Y2546D01*
X5253Y2606D02*
X5293D01*
X5337D02*
X5300D01*
Y2546D01*
X5337D01*
X5300Y2577D02*
X5323D01*
X5347Y2606D02*
Y2546D01*
Y2606D02*
X5367D01*
X5376Y2603D01*
X5382Y2597D01*
X5385Y2592D01*
X5387Y2583D01*
Y2569D01*
X5385Y2560D01*
X5382Y2554D01*
X5376Y2549D01*
X5367Y2546D01*
X5347D01*
X2248Y2701D02*
X2242Y2698D01*
X2236Y2692D01*
X2233Y2687D01*
X2230Y2678D01*
Y2664D01*
X2233Y2655D01*
X2236Y2649D01*
X2242Y2644D01*
X2248Y2641D01*
X2259D01*
X2265Y2644D01*
X2270Y2649D01*
X2273Y2655D01*
X2276Y2664D01*
Y2678D01*
X2273Y2687D01*
X2270Y2692D01*
X2265Y2698D01*
X2259Y2701D01*
X2248D01*
X2290D02*
Y2641D01*
Y2701D02*
X2316D01*
X2324Y2698D01*
X2327Y2695D01*
X2330Y2689D01*
Y2684D01*
X2327Y2678D01*
X2324Y2675D01*
X2316Y2672D01*
X2290D02*
X2316D01*
X2324Y2669D01*
X2327Y2667D01*
X2330Y2661D01*
Y2652D01*
X2327Y2647D01*
X2324Y2644D01*
X2316Y2641D01*
X2290D01*
X2384Y2692D02*
X2378Y2698D01*
X2369Y2701D01*
X2358D01*
X2349Y2698D01*
X2344Y2692D01*
Y2687D01*
X2346Y2681D01*
X2349Y2678D01*
X2355Y2675D01*
X2372Y2669D01*
X2378Y2667D01*
X2381Y2664D01*
X2384Y2658D01*
Y2649D01*
X2378Y2644D01*
X2369Y2641D01*
X2358D01*
X2349Y2644D01*
X2344Y2649D01*
X2434Y2701D02*
X2397D01*
Y2641D01*
X2434D01*
X2397Y2672D02*
X2420D01*
X2444Y2701D02*
Y2641D01*
Y2701D02*
X2470D01*
X2478Y2698D01*
X2481Y2695D01*
X2484Y2689D01*
Y2684D01*
X2481Y2678D01*
X2478Y2675D01*
X2470Y2672D01*
X2444D01*
X2464D02*
X2484Y2641D01*
X2497Y2701D02*
X2520Y2641D01*
X2543Y2701D02*
X2520Y2641D01*
X2597D02*
X2574Y2701D01*
X2551Y2641D01*
X2559Y2661D02*
X2588D01*
X2631Y2701D02*
Y2641D01*
X2611Y2701D02*
X2651D01*
X2675D02*
X2669Y2698D01*
X2663Y2692D01*
X2661Y2687D01*
X2658Y2678D01*
Y2664D01*
X2661Y2655D01*
X2663Y2649D01*
X2669Y2644D01*
X2675Y2641D01*
X2686D01*
X2692Y2644D01*
X2698Y2649D01*
X2701Y2655D01*
X2703Y2664D01*
Y2678D01*
X2701Y2687D01*
X2698Y2692D01*
X2692Y2698D01*
X2686Y2701D01*
X2675D01*
X2717D02*
Y2641D01*
Y2701D02*
X2743D01*
X2752Y2698D01*
X2755Y2695D01*
X2757Y2689D01*
Y2684D01*
X2755Y2678D01*
X2752Y2675D01*
X2743Y2672D01*
X2717D01*
X2737D02*
X2757Y2641D01*
X2771Y2701D02*
X2794Y2672D01*
Y2641D01*
X2817Y2701D02*
X2794Y2672D01*
X2827Y2647D02*
X2824Y2644D01*
X2827Y2641D01*
X2830Y2644D01*
X2827Y2647D01*
X2937Y2701D02*
Y2641D01*
X2970Y2701D02*
Y2641D01*
X2950Y2701D02*
X2990D01*
X3044D02*
Y2641D01*
X3097Y2692D02*
X3091Y2698D01*
X3083Y2701D01*
X3071D01*
X3063Y2698D01*
X3057Y2692D01*
Y2687D01*
X3060Y2681D01*
X3063Y2678D01*
X3068Y2675D01*
X3085Y2669D01*
X3091Y2667D01*
X3094Y2664D01*
X3097Y2658D01*
Y2649D01*
X3091Y2644D01*
X3083Y2641D01*
X3071D01*
X3063Y2644D01*
X3057Y2649D01*
X3197Y2692D02*
X3192Y2698D01*
X3183Y2701D01*
X3172D01*
X3163Y2698D01*
X3157Y2692D01*
Y2687D01*
X3160Y2681D01*
X3163Y2678D01*
X3169Y2675D01*
X3186Y2669D01*
X3192Y2667D01*
X3194Y2664D01*
X3197Y2658D01*
Y2649D01*
X3192Y2644D01*
X3183Y2641D01*
X3172D01*
X3163Y2644D01*
X3157Y2649D01*
X3211Y2701D02*
Y2658D01*
X3214Y2649D01*
X3219Y2644D01*
X3228Y2641D01*
X3234D01*
X3242Y2644D01*
X3248Y2649D01*
X3251Y2658D01*
Y2701D01*
X3267D02*
Y2641D01*
Y2701D02*
X3293D01*
X3302Y2698D01*
X3304Y2695D01*
X3307Y2689D01*
Y2684D01*
X3304Y2678D01*
X3302Y2675D01*
X3293Y2672D01*
X3267D02*
X3293D01*
X3302Y2669D01*
X3304Y2667D01*
X3307Y2661D01*
Y2652D01*
X3304Y2647D01*
X3302Y2644D01*
X3293Y2641D01*
X3267D01*
X3321Y2701D02*
Y2641D01*
Y2701D02*
X3344Y2641D01*
X3366Y2701D02*
X3344Y2641D01*
X3366Y2701D02*
Y2641D01*
X3384Y2701D02*
Y2641D01*
X3416Y2701D02*
Y2641D01*
X3396Y2701D02*
X3436D01*
X3463D02*
Y2641D01*
X3443Y2701D02*
X3483D01*
X3528D02*
X3490D01*
Y2641D01*
X3528D01*
X3490Y2672D02*
X3513D01*
X3538Y2701D02*
Y2641D01*
Y2701D02*
X3558D01*
X3566Y2698D01*
X3572Y2692D01*
X3575Y2687D01*
X3578Y2678D01*
Y2664D01*
X3575Y2655D01*
X3572Y2649D01*
X3566Y2644D01*
X3558Y2641D01*
X3538D01*
X3638Y2701D02*
Y2641D01*
Y2701D02*
X3675D01*
X3638Y2672D02*
X3661D01*
X3699Y2701D02*
X3694Y2698D01*
X3688Y2692D01*
X3685Y2687D01*
X3682Y2678D01*
Y2664D01*
X3685Y2655D01*
X3688Y2649D01*
X3694Y2644D01*
X3699Y2641D01*
X3711D01*
X3716Y2644D01*
X3722Y2649D01*
X3725Y2655D01*
X3728Y2664D01*
Y2678D01*
X3725Y2687D01*
X3722Y2692D01*
X3716Y2698D01*
X3711Y2701D01*
X3699D01*
X3742D02*
Y2641D01*
Y2701D02*
X3767D01*
X3776Y2698D01*
X3779Y2695D01*
X3782Y2689D01*
Y2684D01*
X3779Y2678D01*
X3776Y2675D01*
X3767Y2672D01*
X3742D01*
X3762D02*
X3782Y2641D01*
X3888D02*
X3865Y2701D01*
X3842Y2641D01*
X3851Y2661D02*
X3879D01*
X3989Y2692D02*
X3983Y2698D01*
X3975Y2701D01*
X3963D01*
X3955Y2698D01*
X3949Y2692D01*
Y2687D01*
X3952Y2681D01*
X3955Y2678D01*
X3961Y2675D01*
X3978Y2669D01*
X3983Y2667D01*
X3986Y2664D01*
X3989Y2658D01*
Y2649D01*
X3983Y2644D01*
X3975Y2641D01*
X3963D01*
X3955Y2644D01*
X3949Y2649D01*
X4003Y2669D02*
X4028D01*
X4037Y2672D01*
X4040Y2675D01*
X4043Y2681D01*
Y2689D01*
X4040Y2695D01*
X4037Y2698D01*
X4028Y2701D01*
X4003D01*
Y2641D01*
X4093Y2701D02*
X4056D01*
Y2641D01*
X4093D01*
X4056Y2672D02*
X4079D01*
X4146Y2687D02*
X4143Y2692D01*
X4137Y2698D01*
X4132Y2701D01*
X4120D01*
X4115Y2698D01*
X4109Y2692D01*
X4106Y2687D01*
X4103Y2678D01*
Y2664D01*
X4106Y2655D01*
X4109Y2649D01*
X4115Y2644D01*
X4120Y2641D01*
X4132D01*
X4137Y2644D01*
X4143Y2649D01*
X4146Y2655D01*
X4163Y2701D02*
Y2641D01*
X4175Y2701D02*
Y2641D01*
Y2701D02*
X4213D01*
X4175Y2672D02*
X4198D01*
X4219Y2701D02*
Y2641D01*
X4275Y2687D02*
X4272Y2692D01*
X4266Y2698D01*
X4261Y2701D01*
X4249D01*
X4243Y2698D01*
X4238Y2692D01*
X4235Y2687D01*
X4232Y2678D01*
Y2664D01*
X4235Y2655D01*
X4238Y2649D01*
X4243Y2644D01*
X4249Y2641D01*
X4261D01*
X4266Y2644D01*
X4272Y2649D01*
X4275Y2655D01*
X4339Y2669D02*
X4365D01*
X4373Y2672D01*
X4376Y2675D01*
X4379Y2681D01*
Y2689D01*
X4376Y2695D01*
X4373Y2698D01*
X4365Y2701D01*
X4339D01*
Y2641D01*
X4392Y2701D02*
Y2658D01*
X4395Y2649D01*
X4401Y2644D01*
X4409Y2641D01*
X4415D01*
X4424Y2644D01*
X4429Y2649D01*
X4432Y2658D01*
Y2701D01*
X4449D02*
Y2641D01*
Y2701D02*
X4474D01*
X4483Y2698D01*
X4486Y2695D01*
X4489Y2689D01*
Y2684D01*
X4486Y2678D01*
X4483Y2675D01*
X4474Y2672D01*
X4449D01*
X4469D02*
X4489Y2641D01*
X4502Y2669D02*
X4528D01*
X4536Y2672D01*
X4539Y2675D01*
X4542Y2681D01*
Y2689D01*
X4539Y2695D01*
X4536Y2698D01*
X4528Y2701D01*
X4502D01*
Y2641D01*
X4573Y2701D02*
X4567Y2698D01*
X4561Y2692D01*
X4558Y2687D01*
X4556Y2678D01*
Y2664D01*
X4558Y2655D01*
X4561Y2649D01*
X4567Y2644D01*
X4573Y2641D01*
X4584D01*
X4590Y2644D01*
X4596Y2649D01*
X4598Y2655D01*
X4601Y2664D01*
Y2678D01*
X4598Y2687D01*
X4596Y2692D01*
X4590Y2698D01*
X4584Y2701D01*
X4573D01*
X4655Y2692D02*
X4650Y2698D01*
X4641Y2701D01*
X4630D01*
X4621Y2698D01*
X4615Y2692D01*
Y2687D01*
X4618Y2681D01*
X4621Y2678D01*
X4627Y2675D01*
X4644Y2669D01*
X4650Y2667D01*
X4652Y2664D01*
X4655Y2658D01*
Y2649D01*
X4650Y2644D01*
X4641Y2641D01*
X4630D01*
X4621Y2644D01*
X4615Y2649D01*
X4706Y2701D02*
X4669D01*
Y2641D01*
X4706D01*
X4669Y2672D02*
X4692D01*
X4763Y2701D02*
Y2658D01*
X4766Y2649D01*
X4772Y2644D01*
X4780Y2641D01*
X4786D01*
X4794Y2644D01*
X4800Y2649D01*
X4803Y2658D01*
Y2701D01*
X4820D02*
Y2641D01*
Y2701D02*
X4860Y2641D01*
Y2701D02*
Y2641D01*
X4876Y2701D02*
Y2641D01*
Y2701D02*
X4896D01*
X4905Y2698D01*
X4910Y2692D01*
X4913Y2687D01*
X4916Y2678D01*
Y2664D01*
X4913Y2655D01*
X4910Y2649D01*
X4905Y2644D01*
X4896Y2641D01*
X4876D01*
X4967Y2701D02*
X4930D01*
Y2641D01*
X4967D01*
X4930Y2672D02*
X4952D01*
X4977Y2701D02*
Y2641D01*
Y2701D02*
X5002D01*
X5011Y2698D01*
X5014Y2695D01*
X5017Y2689D01*
Y2684D01*
X5014Y2678D01*
X5011Y2675D01*
X5002Y2672D01*
X4977D01*
X4997D02*
X5017Y2641D01*
X5123D02*
X5100Y2701D01*
X5077Y2641D01*
X5086Y2661D02*
X5114D01*
X5227Y2687D02*
X5224Y2692D01*
X5218Y2698D01*
X5213Y2701D01*
X5201D01*
X5195Y2698D01*
X5190Y2692D01*
X5187Y2687D01*
X5184Y2678D01*
Y2664D01*
X5187Y2655D01*
X5190Y2649D01*
X5195Y2644D01*
X5201Y2641D01*
X5213D01*
X5218Y2644D01*
X5224Y2649D01*
X5227Y2655D01*
X5261Y2701D02*
X5255Y2698D01*
X5249Y2692D01*
X5247Y2687D01*
X5244Y2678D01*
Y2664D01*
X5247Y2655D01*
X5249Y2649D01*
X5255Y2644D01*
X5261Y2641D01*
X5272D01*
X5278Y2644D01*
X5284Y2649D01*
X5287Y2655D01*
X5289Y2664D01*
Y2678D01*
X5287Y2687D01*
X5284Y2692D01*
X5278Y2698D01*
X5272Y2701D01*
X5261D01*
X5303D02*
Y2641D01*
Y2701D02*
X5343Y2641D01*
Y2701D02*
Y2641D01*
X5360Y2667D02*
X5411D01*
X2250Y2801D02*
Y2741D01*
X2230Y2801D02*
X2270D01*
X2278D02*
Y2741D01*
X2318Y2801D02*
Y2741D01*
X2278Y2772D02*
X2318D01*
X2334Y2801D02*
Y2741D01*
X2387Y2792D02*
X2381Y2798D01*
X2372Y2801D01*
X2361D01*
X2352Y2798D01*
X2347Y2792D01*
Y2787D01*
X2350Y2781D01*
X2352Y2778D01*
X2358Y2775D01*
X2375Y2769D01*
X2381Y2767D01*
X2384Y2764D01*
X2387Y2758D01*
Y2749D01*
X2381Y2744D01*
X2372Y2741D01*
X2361D01*
X2352Y2744D01*
X2347Y2749D01*
X2447Y2801D02*
Y2741D01*
Y2801D02*
X2467D01*
X2476Y2798D01*
X2481Y2792D01*
X2484Y2787D01*
X2487Y2778D01*
Y2764D01*
X2484Y2755D01*
X2481Y2749D01*
X2476Y2744D01*
X2467Y2741D01*
X2447D01*
X2501Y2801D02*
Y2741D01*
Y2801D02*
X2526D01*
X2535Y2798D01*
X2538Y2795D01*
X2541Y2789D01*
Y2784D01*
X2538Y2778D01*
X2535Y2775D01*
X2526Y2772D01*
X2501D01*
X2521D02*
X2541Y2741D01*
X2600D02*
X2577Y2801D01*
X2554Y2741D01*
X2563Y2761D02*
X2591D01*
X2614Y2801D02*
X2628Y2741D01*
X2642Y2801D02*
X2628Y2741D01*
X2642Y2801D02*
X2657Y2741D01*
X2671Y2801D02*
X2657Y2741D01*
X2683Y2801D02*
Y2741D01*
X2695Y2801D02*
Y2741D01*
Y2801D02*
X2735Y2741D01*
Y2801D02*
Y2741D01*
X2795Y2787D02*
X2792Y2792D01*
X2786Y2798D01*
X2781Y2801D01*
X2769D01*
X2763Y2798D01*
X2758Y2792D01*
X2755Y2787D01*
X2752Y2778D01*
Y2764D01*
X2755Y2755D01*
X2758Y2749D01*
X2763Y2744D01*
X2769Y2741D01*
X2781D01*
X2786Y2744D01*
X2792Y2749D01*
X2795Y2755D01*
Y2764D01*
X2781D02*
X2795D01*
X2893Y2801D02*
X2856D01*
Y2741D01*
X2893D01*
X2856Y2772D02*
X2879D01*
X2903Y2801D02*
Y2741D01*
Y2801D02*
X2926Y2741D01*
X2949Y2801D02*
X2926Y2741D01*
X2949Y2801D02*
Y2741D01*
X2966Y2801D02*
Y2741D01*
Y2801D02*
X2991D01*
X3000Y2798D01*
X3003Y2795D01*
X3006Y2789D01*
Y2784D01*
X3003Y2778D01*
X3000Y2775D01*
X2991Y2772D01*
X2966D02*
X2991D01*
X3000Y2769D01*
X3003Y2767D01*
X3006Y2761D01*
Y2752D01*
X3003Y2747D01*
X3000Y2744D01*
X2991Y2741D01*
X2966D01*
X3036Y2801D02*
X3031Y2798D01*
X3025Y2792D01*
X3022Y2787D01*
X3019Y2778D01*
Y2764D01*
X3022Y2755D01*
X3025Y2749D01*
X3031Y2744D01*
X3036Y2741D01*
X3048D01*
X3053Y2744D01*
X3059Y2749D01*
X3062Y2755D01*
X3065Y2764D01*
Y2778D01*
X3062Y2787D01*
X3059Y2792D01*
X3053Y2798D01*
X3048Y2801D01*
X3036D01*
X3079D02*
Y2741D01*
Y2801D02*
X3099D01*
X3107Y2798D01*
X3113Y2792D01*
X3116Y2787D01*
X3119Y2778D01*
Y2764D01*
X3116Y2755D01*
X3113Y2749D01*
X3107Y2744D01*
X3099Y2741D01*
X3079D01*
X3132Y2801D02*
Y2741D01*
X3182Y2801D02*
X3145D01*
Y2741D01*
X3182D01*
X3145Y2772D02*
X3168D01*
X3232Y2792D02*
X3226Y2798D01*
X3218Y2801D01*
X3206D01*
X3198Y2798D01*
X3192Y2792D01*
Y2787D01*
X3195Y2781D01*
X3198Y2778D01*
X3203Y2775D01*
X3220Y2769D01*
X3226Y2767D01*
X3229Y2764D01*
X3232Y2758D01*
Y2749D01*
X3226Y2744D01*
X3218Y2741D01*
X3206D01*
X3198Y2744D01*
X3192Y2749D01*
X3338Y2741D02*
X3315Y2801D01*
X3292Y2741D01*
X3301Y2761D02*
X3330D01*
X3399Y2769D02*
X3425D01*
X3434Y2772D01*
X3436Y2775D01*
X3439Y2781D01*
Y2789D01*
X3436Y2795D01*
X3434Y2798D01*
X3425Y2801D01*
X3399D01*
Y2741D01*
X3453Y2801D02*
Y2741D01*
Y2801D02*
X3478D01*
X3487Y2798D01*
X3490Y2795D01*
X3493Y2789D01*
Y2784D01*
X3490Y2778D01*
X3487Y2775D01*
X3478Y2772D01*
X3453D01*
X3473D02*
X3493Y2741D01*
X3523Y2801D02*
X3518Y2798D01*
X3512Y2792D01*
X3509Y2787D01*
X3506Y2778D01*
Y2764D01*
X3509Y2755D01*
X3512Y2749D01*
X3518Y2744D01*
X3523Y2741D01*
X3535D01*
X3540Y2744D01*
X3546Y2749D01*
X3549Y2755D01*
X3552Y2764D01*
Y2778D01*
X3549Y2787D01*
X3546Y2792D01*
X3540Y2798D01*
X3535Y2801D01*
X3523D01*
X3566Y2769D02*
X3592D01*
X3600Y2772D01*
X3603Y2775D01*
X3606Y2781D01*
Y2789D01*
X3603Y2795D01*
X3600Y2798D01*
X3592Y2801D01*
X3566D01*
Y2741D01*
X3619Y2801D02*
Y2741D01*
Y2801D02*
X3645D01*
X3654Y2798D01*
X3656Y2795D01*
X3659Y2789D01*
Y2784D01*
X3656Y2778D01*
X3654Y2775D01*
X3645Y2772D01*
X3619D01*
X3639D02*
X3659Y2741D01*
X3673Y2801D02*
Y2741D01*
X3722Y2801D02*
X3685D01*
Y2741D01*
X3722D01*
X3685Y2772D02*
X3708D01*
X3752Y2801D02*
Y2741D01*
X3732Y2801D02*
X3772D01*
X3825Y2741D02*
X3802Y2801D01*
X3779Y2741D01*
X3788Y2761D02*
X3817D01*
X3839Y2801D02*
Y2741D01*
Y2801D02*
X3865D01*
X3873Y2798D01*
X3876Y2795D01*
X3879Y2789D01*
Y2784D01*
X3876Y2778D01*
X3873Y2775D01*
X3865Y2772D01*
X3839D01*
X3859D02*
X3879Y2741D01*
X3893Y2801D02*
X3915Y2772D01*
Y2741D01*
X3938Y2801D02*
X3915Y2772D01*
X3993Y2801D02*
Y2741D01*
Y2801D02*
X4013D01*
X4022Y2798D01*
X4027Y2792D01*
X4030Y2787D01*
X4033Y2778D01*
Y2764D01*
X4030Y2755D01*
X4027Y2749D01*
X4022Y2744D01*
X4013Y2741D01*
X3993D01*
X4084Y2801D02*
X4047D01*
Y2741D01*
X4084D01*
X4047Y2772D02*
X4069D01*
X4134Y2792D02*
X4128Y2798D01*
X4119Y2801D01*
X4108D01*
X4099Y2798D01*
X4094Y2792D01*
Y2787D01*
X4097Y2781D01*
X4099Y2778D01*
X4105Y2775D01*
X4122Y2769D01*
X4128Y2767D01*
X4131Y2764D01*
X4134Y2758D01*
Y2749D01*
X4128Y2744D01*
X4119Y2741D01*
X4108D01*
X4099Y2744D01*
X4094Y2749D01*
X4147Y2801D02*
Y2741D01*
X4203Y2787D02*
X4200Y2792D01*
X4194Y2798D01*
X4188Y2801D01*
X4177D01*
X4171Y2798D01*
X4165Y2792D01*
X4163Y2787D01*
X4160Y2778D01*
Y2764D01*
X4163Y2755D01*
X4165Y2749D01*
X4171Y2744D01*
X4177Y2741D01*
X4188D01*
X4194Y2744D01*
X4200Y2749D01*
X4203Y2755D01*
Y2764D01*
X4188D02*
X4203D01*
X4216Y2801D02*
Y2741D01*
Y2801D02*
X4256Y2741D01*
Y2801D02*
Y2741D01*
X4337Y2801D02*
X4331Y2798D01*
X4326Y2792D01*
X4323Y2787D01*
X4320Y2778D01*
Y2764D01*
X4323Y2755D01*
X4326Y2749D01*
X4331Y2744D01*
X4337Y2741D01*
X4349D01*
X4354Y2744D01*
X4360Y2749D01*
X4363Y2755D01*
X4366Y2764D01*
Y2778D01*
X4363Y2787D01*
X4360Y2792D01*
X4354Y2798D01*
X4349Y2801D01*
X4337D01*
X4380D02*
X4394Y2741D01*
X4408Y2801D02*
X4394Y2741D01*
X4408Y2801D02*
X4423Y2741D01*
X4437Y2801D02*
X4423Y2741D01*
X4449Y2801D02*
Y2741D01*
Y2801D02*
X4489Y2741D01*
Y2801D02*
Y2741D01*
X4542Y2801D02*
X4505D01*
Y2741D01*
X4542D01*
X4505Y2772D02*
X4528D01*
X4552Y2801D02*
Y2741D01*
Y2801D02*
X4572D01*
X4581Y2798D01*
X4587Y2792D01*
X4590Y2787D01*
X4592Y2778D01*
Y2764D01*
X4590Y2755D01*
X4587Y2749D01*
X4581Y2744D01*
X4572Y2741D01*
X4552D01*
X4653Y2801D02*
Y2741D01*
Y2801D02*
X4679D01*
X4687Y2798D01*
X4690Y2795D01*
X4693Y2789D01*
Y2784D01*
X4690Y2778D01*
X4687Y2775D01*
X4679Y2772D01*
X4653D02*
X4679D01*
X4687Y2769D01*
X4690Y2767D01*
X4693Y2761D01*
Y2752D01*
X4690Y2747D01*
X4687Y2744D01*
X4679Y2741D01*
X4653D01*
X4706Y2801D02*
X4729Y2772D01*
Y2741D01*
X4752Y2801D02*
X4729Y2772D01*
X4807Y2801D02*
Y2741D01*
X4841D01*
X4894D02*
X4871Y2801D01*
X4848Y2741D01*
X4856Y2761D02*
X4885D01*
X4948Y2792D02*
X4942Y2798D01*
X4933Y2801D01*
X4922D01*
X4913Y2798D01*
X4908Y2792D01*
Y2787D01*
X4910Y2781D01*
X4913Y2778D01*
X4919Y2775D01*
X4936Y2769D01*
X4942Y2767D01*
X4945Y2764D01*
X4948Y2758D01*
Y2749D01*
X4942Y2744D01*
X4933Y2741D01*
X4922D01*
X4913Y2744D01*
X4908Y2749D01*
X5051Y2787D02*
X5048Y2792D01*
X5042Y2798D01*
X5037Y2801D01*
X5025D01*
X5020Y2798D01*
X5014Y2792D01*
X5011Y2787D01*
X5008Y2778D01*
Y2764D01*
X5011Y2755D01*
X5014Y2749D01*
X5020Y2744D01*
X5025Y2741D01*
X5037D01*
X5042Y2744D01*
X5048Y2749D01*
X5051Y2755D01*
X5068Y2801D02*
Y2758D01*
X5071Y2749D01*
X5076Y2744D01*
X5085Y2741D01*
X5091D01*
X5099Y2744D01*
X5105Y2749D01*
X5108Y2758D01*
Y2801D01*
X5124D02*
Y2741D01*
Y2801D02*
X5147Y2741D01*
X5170Y2801D02*
X5147Y2741D01*
X5170Y2801D02*
Y2741D01*
X5187Y2801D02*
Y2741D01*
Y2801D02*
X5213D01*
X5221Y2798D01*
X5224Y2795D01*
X5227Y2789D01*
Y2784D01*
X5224Y2778D01*
X5221Y2775D01*
X5213Y2772D01*
X5187D02*
X5213D01*
X5221Y2769D01*
X5224Y2767D01*
X5227Y2761D01*
Y2752D01*
X5224Y2747D01*
X5221Y2744D01*
X5213Y2741D01*
X5187D01*
X5241Y2801D02*
Y2741D01*
Y2801D02*
X5266D01*
X5275Y2798D01*
X5278Y2795D01*
X5281Y2789D01*
Y2784D01*
X5278Y2778D01*
X5275Y2775D01*
X5266Y2772D01*
X5241D01*
X5261D02*
X5281Y2741D01*
X5331Y2801D02*
X5294D01*
Y2741D01*
X5331D01*
X5294Y2772D02*
X5317D01*
X5381Y2792D02*
X5375Y2798D01*
X5367Y2801D01*
X5355D01*
X5347Y2798D01*
X5341Y2792D01*
Y2787D01*
X5344Y2781D01*
X5347Y2778D01*
X5353Y2775D01*
X5370Y2769D01*
X5375Y2767D01*
X5378Y2764D01*
X5381Y2758D01*
Y2749D01*
X5375Y2744D01*
X5367Y2741D01*
X5355D01*
X5347Y2744D01*
X5341Y2749D01*
X2230Y2516D02*
Y2456D01*
X2243Y2516D02*
Y2456D01*
Y2516D02*
X2283Y2456D01*
Y2516D02*
Y2456D01*
X2347Y2516D02*
X2361Y2456D01*
X2375Y2516D02*
X2361Y2456D01*
X2375Y2516D02*
X2390Y2456D01*
X2404Y2516D02*
X2390Y2456D01*
X2416Y2516D02*
Y2456D01*
Y2516D02*
X2441D01*
X2450Y2513D01*
X2453Y2510D01*
X2456Y2504D01*
Y2499D01*
X2453Y2493D01*
X2450Y2490D01*
X2441Y2487D01*
X2416D01*
X2436D02*
X2456Y2456D01*
X2469Y2516D02*
Y2456D01*
X2502Y2516D02*
Y2456D01*
X2482Y2516D02*
X2522D01*
X2529D02*
Y2456D01*
X2541Y2516D02*
Y2456D01*
Y2516D02*
X2581Y2456D01*
Y2516D02*
Y2456D01*
X2641Y2502D02*
X2638Y2507D01*
X2632Y2513D01*
X2627Y2516D01*
X2615D01*
X2609Y2513D01*
X2604Y2507D01*
X2601Y2502D01*
X2598Y2493D01*
Y2479D01*
X2601Y2470D01*
X2604Y2464D01*
X2609Y2459D01*
X2615Y2456D01*
X2627D01*
X2632Y2459D01*
X2638Y2464D01*
X2641Y2470D01*
Y2479D01*
X2627D02*
X2641D01*
X2660Y2459D02*
X2657Y2456D01*
X2655Y2459D01*
X2657Y2462D01*
X2660Y2459D01*
Y2453D01*
X2657Y2447D01*
X2655Y2444D01*
X2766Y2456D02*
X2743Y2516D01*
X2721Y2456D01*
X2729Y2476D02*
X2758D01*
X2780Y2516D02*
Y2456D01*
X2815D01*
X2821Y2516D02*
Y2456D01*
X2855D01*
X2909Y2516D02*
Y2456D01*
Y2516D02*
X2935D01*
X2943Y2513D01*
X2946Y2510D01*
X2949Y2504D01*
Y2499D01*
X2946Y2493D01*
X2943Y2490D01*
X2935Y2487D01*
X2909D01*
X2929D02*
X2949Y2456D01*
X2963Y2516D02*
Y2456D01*
X3018Y2502D02*
X3015Y2507D01*
X3009Y2513D01*
X3004Y2516D01*
X2992D01*
X2987Y2513D01*
X2981Y2507D01*
X2978Y2502D01*
X2975Y2493D01*
Y2479D01*
X2978Y2470D01*
X2981Y2464D01*
X2987Y2459D01*
X2992Y2456D01*
X3004D01*
X3009Y2459D01*
X3015Y2464D01*
X3018Y2470D01*
Y2479D01*
X3004D02*
X3018D01*
X3032Y2516D02*
Y2456D01*
X3072Y2516D02*
Y2456D01*
X3032Y2487D02*
X3072D01*
X3108Y2516D02*
Y2456D01*
X3088Y2516D02*
X3128D01*
X3175Y2507D02*
X3170Y2513D01*
X3161Y2516D01*
X3150D01*
X3141Y2513D01*
X3135Y2507D01*
Y2502D01*
X3138Y2496D01*
X3141Y2493D01*
X3147Y2490D01*
X3164Y2484D01*
X3170Y2482D01*
X3172Y2479D01*
X3175Y2473D01*
Y2464D01*
X3170Y2459D01*
X3161Y2456D01*
X3150D01*
X3141Y2459D01*
X3135Y2464D01*
X3282Y2456D02*
X3259Y2516D01*
X3236Y2456D01*
X3244Y2476D02*
X3273D01*
X3296Y2516D02*
Y2456D01*
Y2516D02*
X3321D01*
X3330Y2513D01*
X3333Y2510D01*
X3336Y2504D01*
Y2499D01*
X3333Y2493D01*
X3330Y2490D01*
X3321Y2487D01*
X3296D01*
X3316D02*
X3336Y2456D01*
X3386Y2516D02*
X3349D01*
Y2456D01*
X3386D01*
X3349Y2487D02*
X3372D01*
X3443Y2516D02*
Y2456D01*
Y2516D02*
X3469D01*
X3478Y2513D01*
X3480Y2510D01*
X3483Y2504D01*
Y2499D01*
X3480Y2493D01*
X3478Y2490D01*
X3469Y2487D01*
X3443D01*
X3463D02*
X3483Y2456D01*
X3534Y2516D02*
X3497D01*
Y2456D01*
X3534D01*
X3497Y2487D02*
X3520D01*
X3584Y2507D02*
X3578Y2513D01*
X3570Y2516D01*
X3558D01*
X3550Y2513D01*
X3544Y2507D01*
Y2502D01*
X3547Y2496D01*
X3550Y2493D01*
X3555Y2490D01*
X3572Y2484D01*
X3578Y2482D01*
X3581Y2479D01*
X3584Y2473D01*
Y2464D01*
X3578Y2459D01*
X3570Y2456D01*
X3558D01*
X3550Y2459D01*
X3544Y2464D01*
X3634Y2516D02*
X3597D01*
Y2456D01*
X3634D01*
X3597Y2487D02*
X3620D01*
X3644Y2516D02*
Y2456D01*
Y2516D02*
X3670D01*
X3679Y2513D01*
X3682Y2510D01*
X3684Y2504D01*
Y2499D01*
X3682Y2493D01*
X3679Y2490D01*
X3670Y2487D01*
X3644D01*
X3664D02*
X3684Y2456D01*
X3698Y2516D02*
X3721Y2456D01*
X3744Y2516D02*
X3721Y2456D01*
X3788Y2516D02*
X3751D01*
Y2456D01*
X3788D01*
X3751Y2487D02*
X3774D01*
X3798Y2516D02*
Y2456D01*
Y2516D02*
X3818D01*
X3827Y2513D01*
X3833Y2507D01*
X3835Y2502D01*
X3838Y2493D01*
Y2479D01*
X3835Y2470D01*
X3833Y2464D01*
X3827Y2459D01*
X3818Y2456D01*
X3798D01*
X3899Y2516D02*
Y2456D01*
Y2516D02*
X3925D01*
X3933Y2513D01*
X3936Y2510D01*
X3939Y2504D01*
Y2499D01*
X3936Y2493D01*
X3933Y2490D01*
X3925Y2487D01*
X3899D02*
X3925D01*
X3933Y2484D01*
X3936Y2482D01*
X3939Y2476D01*
Y2467D01*
X3936Y2462D01*
X3933Y2459D01*
X3925Y2456D01*
X3899D01*
X3952Y2516D02*
X3975Y2487D01*
Y2456D01*
X3998Y2516D02*
X3975Y2487D01*
X4053Y2516D02*
Y2456D01*
X4087D01*
X4139D02*
X4117Y2516D01*
X4094Y2456D01*
X4102Y2476D02*
X4131D01*
X4193Y2507D02*
X4188Y2513D01*
X4179Y2516D01*
X4168D01*
X4159Y2513D01*
X4153Y2507D01*
Y2502D01*
X4156Y2496D01*
X4159Y2493D01*
X4165Y2490D01*
X4182Y2484D01*
X4188Y2482D01*
X4191Y2479D01*
X4193Y2473D01*
Y2464D01*
X4188Y2459D01*
X4179Y2456D01*
X4168D01*
X4159Y2459D01*
X4153Y2464D01*
X4297Y2502D02*
X4294Y2507D01*
X4288Y2513D01*
X4283Y2516D01*
X4271D01*
X4265Y2513D01*
X4260Y2507D01*
X4257Y2502D01*
X4254Y2493D01*
Y2479D01*
X4257Y2470D01*
X4260Y2464D01*
X4265Y2459D01*
X4271Y2456D01*
X4283D01*
X4288Y2459D01*
X4294Y2464D01*
X4297Y2470D01*
X4314Y2516D02*
Y2473D01*
X4317Y2464D01*
X4322Y2459D01*
X4331Y2456D01*
X4337D01*
X4345Y2459D01*
X4351Y2464D01*
X4354Y2473D01*
Y2516D01*
X4370D02*
Y2456D01*
Y2516D02*
X4393Y2456D01*
X4416Y2516D02*
X4393Y2456D01*
X4416Y2516D02*
Y2456D01*
X4433Y2516D02*
Y2456D01*
Y2516D02*
X4459D01*
X4467Y2513D01*
X4470Y2510D01*
X4473Y2504D01*
Y2499D01*
X4470Y2493D01*
X4467Y2490D01*
X4459Y2487D01*
X4433D02*
X4459D01*
X4467Y2484D01*
X4470Y2482D01*
X4473Y2476D01*
Y2467D01*
X4470Y2462D01*
X4467Y2459D01*
X4459Y2456D01*
X4433D01*
X4486Y2516D02*
Y2456D01*
Y2516D02*
X4512D01*
X4521Y2513D01*
X4524Y2510D01*
X4526Y2504D01*
Y2499D01*
X4524Y2493D01*
X4521Y2490D01*
X4512Y2487D01*
X4486D01*
X4506D02*
X4526Y2456D01*
X4577Y2516D02*
X4540D01*
Y2456D01*
X4577D01*
X4540Y2487D02*
X4563D01*
X4627Y2507D02*
X4621Y2513D01*
X4613Y2516D01*
X4601D01*
X4593Y2513D01*
X4587Y2507D01*
Y2502D01*
X4590Y2496D01*
X4593Y2493D01*
X4598Y2490D01*
X4616Y2484D01*
X4621Y2482D01*
X4624Y2479D01*
X4627Y2473D01*
Y2464D01*
X4621Y2459D01*
X4613Y2456D01*
X4601D01*
X4593Y2459D01*
X4587Y2464D01*
X4705Y2516D02*
X4699Y2513D01*
X4693Y2507D01*
X4690Y2502D01*
X4688Y2493D01*
Y2479D01*
X4690Y2470D01*
X4693Y2464D01*
X4699Y2459D01*
X4705Y2456D01*
X4716D01*
X4722Y2459D01*
X4728Y2464D01*
X4730Y2470D01*
X4733Y2479D01*
Y2493D01*
X4730Y2502D01*
X4728Y2507D01*
X4722Y2513D01*
X4716Y2516D01*
X4705D01*
X4747D02*
Y2456D01*
Y2516D02*
X4773D01*
X4782Y2513D01*
X4784Y2510D01*
X4787Y2504D01*
Y2499D01*
X4784Y2493D01*
X4782Y2490D01*
X4773Y2487D01*
X4747D02*
X4773D01*
X4782Y2484D01*
X4784Y2482D01*
X4787Y2476D01*
Y2467D01*
X4784Y2462D01*
X4782Y2459D01*
X4773Y2456D01*
X4747D01*
X4841Y2507D02*
X4835Y2513D01*
X4826Y2516D01*
X4815D01*
X4806Y2513D01*
X4801Y2507D01*
Y2502D01*
X4804Y2496D01*
X4806Y2493D01*
X4812Y2490D01*
X4829Y2484D01*
X4835Y2482D01*
X4838Y2479D01*
X4841Y2473D01*
Y2464D01*
X4835Y2459D01*
X4826Y2456D01*
X4815D01*
X4806Y2459D01*
X4801Y2464D01*
X4891Y2516D02*
X4854D01*
Y2456D01*
X4891D01*
X4854Y2487D02*
X4877D01*
X4901Y2516D02*
Y2456D01*
Y2516D02*
X4927D01*
X4936Y2513D01*
X4938Y2510D01*
X4941Y2504D01*
Y2499D01*
X4938Y2493D01*
X4936Y2490D01*
X4927Y2487D01*
X4901D01*
X4921D02*
X4941Y2456D01*
X4955Y2516D02*
X4978Y2456D01*
X5000Y2516D02*
X4978Y2456D01*
X5054D02*
X5031Y2516D01*
X5008Y2456D01*
X5017Y2476D02*
X5045D01*
X5088Y2516D02*
Y2456D01*
X5068Y2516D02*
X5108D01*
X5132D02*
X5126Y2513D01*
X5121Y2507D01*
X5118Y2502D01*
X5115Y2493D01*
Y2479D01*
X5118Y2470D01*
X5121Y2464D01*
X5126Y2459D01*
X5132Y2456D01*
X5143D01*
X5149Y2459D01*
X5155Y2464D01*
X5158Y2470D01*
X5161Y2479D01*
Y2493D01*
X5158Y2502D01*
X5155Y2507D01*
X5149Y2513D01*
X5143Y2516D01*
X5132D01*
X5175D02*
Y2456D01*
Y2516D02*
X5200D01*
X5209Y2513D01*
X5212Y2510D01*
X5215Y2504D01*
Y2499D01*
X5212Y2493D01*
X5209Y2490D01*
X5200Y2487D01*
X5175D01*
X5195D02*
X5215Y2456D01*
X5228Y2516D02*
X5251Y2487D01*
Y2456D01*
X5274Y2516D02*
X5251Y2487D01*
X5284Y2462D02*
X5281Y2459D01*
X5284Y2456D01*
X5287Y2459D01*
X5284Y2462D01*
X18636Y9142D02*
X18589Y9075D01*
X18660D01*
X18636Y9142D02*
Y9042D01*
X18706Y9142D02*
X18692Y9137D01*
X18683Y9123D01*
X18678Y9099D01*
Y9085D01*
X18683Y9061D01*
X18692Y9046D01*
X18706Y9042D01*
X18716D01*
X18730Y9046D01*
X18740Y9061D01*
X18745Y9085D01*
Y9099D01*
X18740Y9123D01*
X18730Y9137D01*
X18716Y9142D01*
X18706D01*
X18772Y9118D02*
Y9123D01*
X18776Y9132D01*
X18781Y9137D01*
X18791Y9142D01*
X18810D01*
X18819Y9137D01*
X18824Y9132D01*
X18829Y9123D01*
Y9113D01*
X18824Y9104D01*
X18815Y9089D01*
X18767Y9042D01*
X18834D01*
X19525Y9123D02*
X19535Y9127D01*
X19549Y9142D01*
Y9042D01*
X19627Y9142D02*
X19613Y9137D01*
X19603Y9123D01*
X19599Y9099D01*
Y9085D01*
X19603Y9061D01*
X19613Y9046D01*
X19627Y9042D01*
X19637D01*
X19651Y9046D01*
X19660Y9061D01*
X19665Y9085D01*
Y9099D01*
X19660Y9123D01*
X19651Y9137D01*
X19637Y9142D01*
X19627D01*
X19688Y9108D02*
Y9042D01*
Y9089D02*
X19702Y9104D01*
X19711Y9108D01*
X19726D01*
X19735Y9104D01*
X19740Y9089D01*
Y9042D01*
Y9089D02*
X19754Y9104D01*
X19764Y9108D01*
X19778D01*
X19788Y9104D01*
X19792Y9089D01*
Y9042D01*
X19833Y9142D02*
X19838Y9137D01*
X19843Y9142D01*
X19838Y9146D01*
X19833Y9142D01*
X19838Y9108D02*
Y9042D01*
X19860Y9142D02*
Y9042D01*
X19993Y9161D02*
X19984Y9151D01*
X19974Y9137D01*
X19965Y9118D01*
X19960Y9094D01*
Y9075D01*
X19965Y9051D01*
X19974Y9032D01*
X19984Y9018D01*
X19993Y9008D01*
X19984Y9151D02*
X19974Y9132D01*
X19969Y9118D01*
X19965Y9094D01*
Y9075D01*
X19969Y9051D01*
X19974Y9037D01*
X19984Y9018D01*
X20041Y9142D02*
X20027Y9137D01*
X20017Y9123D01*
X20012Y9099D01*
Y9085D01*
X20017Y9061D01*
X20027Y9046D01*
X20041Y9042D01*
X20050D01*
X20065Y9046D01*
X20074Y9061D01*
X20079Y9085D01*
Y9099D01*
X20074Y9123D01*
X20065Y9137D01*
X20050Y9142D01*
X20041D01*
X20106Y9051D02*
X20101Y9046D01*
X20106Y9042D01*
X20111Y9046D01*
X20106Y9051D01*
X20138Y9118D02*
Y9123D01*
X20142Y9132D01*
X20147Y9137D01*
X20157Y9142D01*
X20176D01*
X20185Y9137D01*
X20190Y9132D01*
X20195Y9123D01*
Y9113D01*
X20190Y9104D01*
X20180Y9089D01*
X20133Y9042D01*
X20199D01*
X20279Y9142D02*
X20231D01*
X20227Y9099D01*
X20231Y9104D01*
X20246Y9108D01*
X20260D01*
X20274Y9104D01*
X20284Y9094D01*
X20288Y9080D01*
Y9070D01*
X20284Y9056D01*
X20274Y9046D01*
X20260Y9042D01*
X20246D01*
X20231Y9046D01*
X20227Y9051D01*
X20222Y9061D01*
X20358Y9142D02*
X20311Y9075D01*
X20382D01*
X20358Y9142D02*
Y9042D01*
X20400Y9108D02*
Y9042D01*
Y9089D02*
X20414Y9104D01*
X20424Y9108D01*
X20438D01*
X20447Y9104D01*
X20452Y9089D01*
Y9042D01*
Y9089D02*
X20466Y9104D01*
X20476Y9108D01*
X20490D01*
X20500Y9104D01*
X20505Y9089D01*
Y9042D01*
X20536Y9108D02*
Y9042D01*
Y9089D02*
X20550Y9104D01*
X20560Y9108D01*
X20574D01*
X20584Y9104D01*
X20588Y9089D01*
Y9042D01*
Y9089D02*
X20603Y9104D01*
X20612Y9108D01*
X20626D01*
X20636Y9104D01*
X20641Y9089D01*
Y9042D01*
X20672Y9161D02*
X20682Y9151D01*
X20691Y9137D01*
X20701Y9118D01*
X20705Y9094D01*
Y9075D01*
X20701Y9051D01*
X20691Y9032D01*
X20682Y9018D01*
X20672Y9008D01*
X20682Y9151D02*
X20691Y9132D01*
X20696Y9118D01*
X20701Y9094D01*
Y9075D01*
X20696Y9051D01*
X20691Y9037D01*
X20682Y9018D01*
X20998Y9089D02*
X21040D01*
X21055Y9094D01*
X21060Y9099D01*
X21064Y9108D01*
Y9123D01*
X21060Y9132D01*
X21055Y9137D01*
X21040Y9142D01*
X20998D01*
Y9042D01*
X21120Y9142D02*
Y9042D01*
X21087Y9142D02*
X21153D01*
X21165D02*
Y9042D01*
X21232Y9142D02*
Y9042D01*
X21165Y9094D02*
X21232D01*
X21624Y9142D02*
Y9042D01*
Y9142D02*
X21667D01*
X21681Y9137D01*
X21686Y9132D01*
X21690Y9123D01*
Y9113D01*
X21686Y9104D01*
X21681Y9099D01*
X21667Y9094D01*
X21624D01*
X21657D02*
X21690Y9042D01*
X21737Y9108D02*
X21727Y9104D01*
X21718Y9094D01*
X21713Y9080D01*
Y9070D01*
X21718Y9056D01*
X21727Y9046D01*
X21737Y9042D01*
X21751D01*
X21760Y9046D01*
X21770Y9056D01*
X21775Y9070D01*
Y9080D01*
X21770Y9094D01*
X21760Y9104D01*
X21751Y9108D01*
X21737D01*
X21797D02*
Y9061D01*
X21801Y9046D01*
X21811Y9042D01*
X21825D01*
X21835Y9046D01*
X21849Y9061D01*
Y9108D02*
Y9042D01*
X21875Y9108D02*
Y9042D01*
Y9089D02*
X21889Y9104D01*
X21899Y9108D01*
X21913D01*
X21923Y9104D01*
X21928Y9089D01*
Y9042D01*
X22011Y9142D02*
Y9042D01*
Y9094D02*
X22001Y9104D01*
X21992Y9108D01*
X21978D01*
X21968Y9104D01*
X21959Y9094D01*
X21954Y9080D01*
Y9070D01*
X21959Y9056D01*
X21968Y9046D01*
X21978Y9042D01*
X21992D01*
X22001Y9046D01*
X22011Y9056D01*
X18594Y8918D02*
Y8923D01*
X18598Y8932D01*
X18603Y8937D01*
X18613Y8942D01*
X18632D01*
X18641Y8937D01*
X18646Y8932D01*
X18651Y8923D01*
Y8913D01*
X18646Y8904D01*
X18636Y8889D01*
X18589Y8842D01*
X18656D01*
X19525Y8923D02*
X19535Y8927D01*
X19549Y8942D01*
Y8842D01*
X19608Y8942D02*
X19660D01*
X19632Y8904D01*
X19646D01*
X19656Y8899D01*
X19660Y8894D01*
X19665Y8880D01*
Y8870D01*
X19660Y8856D01*
X19651Y8846D01*
X19637Y8842D01*
X19622D01*
X19608Y8846D01*
X19603Y8851D01*
X19599Y8861D01*
X19688Y8908D02*
Y8842D01*
Y8889D02*
X19702Y8904D01*
X19711Y8908D01*
X19726D01*
X19735Y8904D01*
X19740Y8889D01*
Y8842D01*
Y8889D02*
X19754Y8904D01*
X19764Y8908D01*
X19778D01*
X19788Y8904D01*
X19792Y8889D01*
Y8842D01*
X19833Y8942D02*
X19838Y8937D01*
X19843Y8942D01*
X19838Y8946D01*
X19833Y8942D01*
X19838Y8908D02*
Y8842D01*
X19860Y8942D02*
Y8842D01*
X19993Y8961D02*
X19984Y8951D01*
X19974Y8937D01*
X19965Y8918D01*
X19960Y8894D01*
Y8875D01*
X19965Y8851D01*
X19974Y8832D01*
X19984Y8818D01*
X19993Y8808D01*
X19984Y8951D02*
X19974Y8932D01*
X19969Y8918D01*
X19965Y8894D01*
Y8875D01*
X19969Y8851D01*
X19974Y8837D01*
X19984Y8818D01*
X20041Y8942D02*
X20027Y8937D01*
X20017Y8923D01*
X20012Y8899D01*
Y8885D01*
X20017Y8861D01*
X20027Y8846D01*
X20041Y8842D01*
X20050D01*
X20065Y8846D01*
X20074Y8861D01*
X20079Y8885D01*
Y8899D01*
X20074Y8923D01*
X20065Y8937D01*
X20050Y8942D01*
X20041D01*
X20106Y8851D02*
X20101Y8846D01*
X20106Y8842D01*
X20111Y8846D01*
X20106Y8851D01*
X20142Y8942D02*
X20195D01*
X20166Y8904D01*
X20180D01*
X20190Y8899D01*
X20195Y8894D01*
X20199Y8880D01*
Y8870D01*
X20195Y8856D01*
X20185Y8846D01*
X20171Y8842D01*
X20157D01*
X20142Y8846D01*
X20138Y8851D01*
X20133Y8861D01*
X20231Y8942D02*
X20284D01*
X20255Y8904D01*
X20269D01*
X20279Y8899D01*
X20284Y8894D01*
X20288Y8880D01*
Y8870D01*
X20284Y8856D01*
X20274Y8846D01*
X20260Y8842D01*
X20246D01*
X20231Y8846D01*
X20227Y8851D01*
X20222Y8861D01*
X20339Y8942D02*
X20325Y8937D01*
X20316Y8923D01*
X20311Y8899D01*
Y8885D01*
X20316Y8861D01*
X20325Y8846D01*
X20339Y8842D01*
X20349D01*
X20363Y8846D01*
X20373Y8861D01*
X20377Y8885D01*
Y8899D01*
X20373Y8923D01*
X20363Y8937D01*
X20349Y8942D01*
X20339D01*
X20405Y8918D02*
Y8923D01*
X20409Y8932D01*
X20414Y8937D01*
X20424Y8942D01*
X20443D01*
X20452Y8937D01*
X20457Y8932D01*
X20462Y8923D01*
Y8913D01*
X20457Y8904D01*
X20447Y8889D01*
X20400Y8842D01*
X20466D01*
X20489Y8908D02*
Y8842D01*
Y8889D02*
X20503Y8904D01*
X20513Y8908D01*
X20527D01*
X20536Y8904D01*
X20541Y8889D01*
Y8842D01*
Y8889D02*
X20556Y8904D01*
X20565Y8908D01*
X20579D01*
X20589Y8904D01*
X20594Y8889D01*
Y8842D01*
X20625Y8908D02*
Y8842D01*
Y8889D02*
X20639Y8904D01*
X20649Y8908D01*
X20663D01*
X20673Y8904D01*
X20677Y8889D01*
Y8842D01*
Y8889D02*
X20692Y8904D01*
X20701Y8908D01*
X20715D01*
X20725Y8904D01*
X20730Y8889D01*
Y8842D01*
X20761Y8961D02*
X20771Y8951D01*
X20780Y8937D01*
X20790Y8918D01*
X20795Y8894D01*
Y8875D01*
X20790Y8851D01*
X20780Y8832D01*
X20771Y8818D01*
X20761Y8808D01*
X20771Y8951D02*
X20780Y8932D01*
X20785Y8918D01*
X20790Y8894D01*
Y8875D01*
X20785Y8851D01*
X20780Y8837D01*
X20771Y8818D01*
X20998Y8889D02*
X21040D01*
X21055Y8894D01*
X21060Y8899D01*
X21064Y8908D01*
Y8923D01*
X21060Y8932D01*
X21055Y8937D01*
X21040Y8942D01*
X20998D01*
Y8842D01*
X21120Y8942D02*
Y8842D01*
X21087Y8942D02*
X21153D01*
X21165D02*
Y8842D01*
X21232Y8942D02*
Y8842D01*
X21165Y8894D02*
X21232D01*
X21624Y8942D02*
Y8842D01*
Y8942D02*
X21667D01*
X21681Y8937D01*
X21686Y8932D01*
X21690Y8923D01*
Y8913D01*
X21686Y8904D01*
X21681Y8899D01*
X21667Y8894D01*
X21624D01*
X21657D02*
X21690Y8842D01*
X21737Y8908D02*
X21727Y8904D01*
X21718Y8894D01*
X21713Y8880D01*
Y8870D01*
X21718Y8856D01*
X21727Y8846D01*
X21737Y8842D01*
X21751D01*
X21760Y8846D01*
X21770Y8856D01*
X21775Y8870D01*
Y8880D01*
X21770Y8894D01*
X21760Y8904D01*
X21751Y8908D01*
X21737D01*
X21797D02*
Y8861D01*
X21801Y8846D01*
X21811Y8842D01*
X21825D01*
X21835Y8846D01*
X21849Y8861D01*
Y8908D02*
Y8842D01*
X21875Y8908D02*
Y8842D01*
Y8889D02*
X21889Y8904D01*
X21899Y8908D01*
X21913D01*
X21923Y8904D01*
X21928Y8889D01*
Y8842D01*
X22011Y8942D02*
Y8842D01*
Y8894D02*
X22001Y8904D01*
X21992Y8908D01*
X21978D01*
X21968Y8904D01*
X21959Y8894D01*
X21954Y8880D01*
Y8870D01*
X21959Y8856D01*
X21968Y8846D01*
X21978Y8842D01*
X21992D01*
X22001Y8846D01*
X22011Y8856D01*
X18598Y8742D02*
X18651D01*
X18622Y8704D01*
X18636D01*
X18646Y8699D01*
X18651Y8694D01*
X18656Y8680D01*
Y8670D01*
X18651Y8656D01*
X18641Y8646D01*
X18627Y8642D01*
X18613D01*
X18598Y8646D01*
X18594Y8651D01*
X18589Y8661D01*
X18683Y8718D02*
Y8723D01*
X18687Y8732D01*
X18692Y8737D01*
X18702Y8742D01*
X18721D01*
X18730Y8737D01*
X18735Y8732D01*
X18740Y8723D01*
Y8713D01*
X18735Y8704D01*
X18725Y8689D01*
X18678Y8642D01*
X18745D01*
X19530Y8718D02*
Y8723D01*
X19535Y8732D01*
X19540Y8737D01*
X19549Y8742D01*
X19568D01*
X19578Y8737D01*
X19582Y8732D01*
X19587Y8723D01*
Y8713D01*
X19582Y8704D01*
X19573Y8689D01*
X19525Y8642D01*
X19592D01*
X19671Y8742D02*
X19624D01*
X19619Y8699D01*
X19624Y8704D01*
X19638Y8708D01*
X19652D01*
X19667Y8704D01*
X19676Y8694D01*
X19681Y8680D01*
Y8670D01*
X19676Y8656D01*
X19667Y8646D01*
X19652Y8642D01*
X19638D01*
X19624Y8646D01*
X19619Y8651D01*
X19614Y8661D01*
X19703Y8708D02*
Y8642D01*
Y8689D02*
X19718Y8704D01*
X19727Y8708D01*
X19741D01*
X19751Y8704D01*
X19756Y8689D01*
Y8642D01*
Y8689D02*
X19770Y8704D01*
X19779Y8708D01*
X19794D01*
X19803Y8704D01*
X19808Y8689D01*
Y8642D01*
X19849Y8742D02*
X19854Y8737D01*
X19859Y8742D01*
X19854Y8746D01*
X19849Y8742D01*
X19854Y8708D02*
Y8642D01*
X19876Y8742D02*
Y8642D01*
X20009Y8761D02*
X19999Y8751D01*
X19990Y8737D01*
X19980Y8718D01*
X19976Y8694D01*
Y8675D01*
X19980Y8651D01*
X19990Y8632D01*
X19999Y8618D01*
X20009Y8608D01*
X19999Y8751D02*
X19990Y8732D01*
X19985Y8718D01*
X19980Y8694D01*
Y8675D01*
X19985Y8651D01*
X19990Y8637D01*
X19999Y8618D01*
X20057Y8742D02*
X20042Y8737D01*
X20033Y8723D01*
X20028Y8699D01*
Y8685D01*
X20033Y8661D01*
X20042Y8646D01*
X20057Y8642D01*
X20066D01*
X20080Y8646D01*
X20090Y8661D01*
X20095Y8685D01*
Y8699D01*
X20090Y8723D01*
X20080Y8737D01*
X20066Y8742D01*
X20057D01*
X20122Y8651D02*
X20117Y8646D01*
X20122Y8642D01*
X20127Y8646D01*
X20122Y8651D01*
X20206Y8727D02*
X20201Y8737D01*
X20187Y8742D01*
X20177D01*
X20163Y8737D01*
X20153Y8723D01*
X20148Y8699D01*
Y8675D01*
X20153Y8656D01*
X20163Y8646D01*
X20177Y8642D01*
X20182D01*
X20196Y8646D01*
X20206Y8656D01*
X20210Y8670D01*
Y8675D01*
X20206Y8689D01*
X20196Y8699D01*
X20182Y8704D01*
X20177D01*
X20163Y8699D01*
X20153Y8689D01*
X20148Y8675D01*
X20242Y8742D02*
X20294D01*
X20266Y8704D01*
X20280D01*
X20289Y8699D01*
X20294Y8694D01*
X20299Y8680D01*
Y8670D01*
X20294Y8656D01*
X20285Y8646D01*
X20270Y8642D01*
X20256D01*
X20242Y8646D01*
X20237Y8651D01*
X20232Y8661D01*
X20378Y8742D02*
X20331D01*
X20326Y8699D01*
X20331Y8704D01*
X20345Y8708D01*
X20359D01*
X20374Y8704D01*
X20383Y8694D01*
X20388Y8680D01*
Y8670D01*
X20383Y8656D01*
X20374Y8646D01*
X20359Y8642D01*
X20345D01*
X20331Y8646D01*
X20326Y8651D01*
X20321Y8661D01*
X20410Y8708D02*
Y8642D01*
Y8689D02*
X20425Y8704D01*
X20434Y8708D01*
X20448D01*
X20458Y8704D01*
X20463Y8689D01*
Y8642D01*
Y8689D02*
X20477Y8704D01*
X20486Y8708D01*
X20501D01*
X20510Y8704D01*
X20515Y8689D01*
Y8642D01*
X20546Y8708D02*
Y8642D01*
Y8689D02*
X20561Y8704D01*
X20570Y8708D01*
X20585D01*
X20594Y8704D01*
X20599Y8689D01*
Y8642D01*
Y8689D02*
X20613Y8704D01*
X20623Y8708D01*
X20637D01*
X20646Y8704D01*
X20651Y8689D01*
Y8642D01*
X20683Y8761D02*
X20692Y8751D01*
X20702Y8737D01*
X20711Y8718D01*
X20716Y8694D01*
Y8675D01*
X20711Y8651D01*
X20702Y8632D01*
X20692Y8618D01*
X20683Y8608D01*
X20692Y8751D02*
X20702Y8732D01*
X20706Y8718D01*
X20711Y8694D01*
Y8675D01*
X20706Y8651D01*
X20702Y8637D01*
X20692Y8618D01*
X20998Y8689D02*
X21040D01*
X21055Y8694D01*
X21060Y8699D01*
X21064Y8708D01*
Y8723D01*
X21060Y8732D01*
X21055Y8737D01*
X21040Y8742D01*
X20998D01*
Y8642D01*
X21120Y8742D02*
Y8642D01*
X21087Y8742D02*
X21153D01*
X21165D02*
Y8642D01*
X21232Y8742D02*
Y8642D01*
X21165Y8694D02*
X21232D01*
X21624Y8742D02*
Y8642D01*
Y8742D02*
X21667D01*
X21681Y8737D01*
X21686Y8732D01*
X21690Y8723D01*
Y8713D01*
X21686Y8704D01*
X21681Y8699D01*
X21667Y8694D01*
X21624D01*
X21657D02*
X21690Y8642D01*
X21737Y8708D02*
X21727Y8704D01*
X21718Y8694D01*
X21713Y8680D01*
Y8670D01*
X21718Y8656D01*
X21727Y8646D01*
X21737Y8642D01*
X21751D01*
X21760Y8646D01*
X21770Y8656D01*
X21775Y8670D01*
Y8680D01*
X21770Y8694D01*
X21760Y8704D01*
X21751Y8708D01*
X21737D01*
X21797D02*
Y8661D01*
X21801Y8646D01*
X21811Y8642D01*
X21825D01*
X21835Y8646D01*
X21849Y8661D01*
Y8708D02*
Y8642D01*
X21875Y8708D02*
Y8642D01*
Y8689D02*
X21889Y8704D01*
X21899Y8708D01*
X21913D01*
X21923Y8704D01*
X21928Y8689D01*
Y8642D01*
X22011Y8742D02*
Y8642D01*
Y8694D02*
X22001Y8704D01*
X21992Y8708D01*
X21978D01*
X21968Y8704D01*
X21959Y8694D01*
X21954Y8680D01*
Y8670D01*
X21959Y8656D01*
X21968Y8646D01*
X21978Y8642D01*
X21992D01*
X22001Y8646D01*
X22011Y8656D01*
X18589Y8523D02*
X18598Y8527D01*
X18613Y8542D01*
Y8442D01*
X18686Y8542D02*
X18672Y8537D01*
X18667Y8527D01*
Y8518D01*
X18672Y8508D01*
X18681Y8504D01*
X18700Y8499D01*
X18715Y8494D01*
X18724Y8485D01*
X18729Y8475D01*
Y8461D01*
X18724Y8451D01*
X18719Y8446D01*
X18705Y8442D01*
X18686D01*
X18672Y8446D01*
X18667Y8451D01*
X18662Y8461D01*
Y8475D01*
X18667Y8485D01*
X18676Y8494D01*
X18691Y8499D01*
X18710Y8504D01*
X18719Y8508D01*
X18724Y8518D01*
Y8527D01*
X18719Y8537D01*
X18705Y8542D01*
X18686D01*
X19530Y8518D02*
Y8523D01*
X19535Y8532D01*
X19540Y8537D01*
X19549Y8542D01*
X19568D01*
X19578Y8537D01*
X19582Y8532D01*
X19587Y8523D01*
Y8513D01*
X19582Y8504D01*
X19573Y8489D01*
X19525Y8442D01*
X19592D01*
X19681Y8542D02*
X19633Y8442D01*
X19614Y8542D02*
X19681D01*
X19708Y8451D02*
X19703Y8446D01*
X19708Y8442D01*
X19713Y8446D01*
X19708Y8451D01*
X19792Y8542D02*
X19744D01*
X19740Y8499D01*
X19744Y8504D01*
X19759Y8508D01*
X19773D01*
X19787Y8504D01*
X19797Y8494D01*
X19801Y8480D01*
Y8470D01*
X19797Y8456D01*
X19787Y8446D01*
X19773Y8442D01*
X19759D01*
X19744Y8446D01*
X19740Y8451D01*
X19735Y8461D01*
X19881Y8542D02*
X19833D01*
X19829Y8499D01*
X19833Y8504D01*
X19848Y8508D01*
X19862D01*
X19876Y8504D01*
X19886Y8494D01*
X19890Y8480D01*
Y8470D01*
X19886Y8456D01*
X19876Y8446D01*
X19862Y8442D01*
X19848D01*
X19833Y8446D01*
X19829Y8451D01*
X19824Y8461D01*
X19975Y8508D02*
X19970Y8494D01*
X19960Y8485D01*
X19946Y8480D01*
X19941D01*
X19927Y8485D01*
X19918Y8494D01*
X19913Y8508D01*
Y8513D01*
X19918Y8527D01*
X19927Y8537D01*
X19941Y8542D01*
X19946D01*
X19960Y8537D01*
X19970Y8527D01*
X19975Y8508D01*
Y8485D01*
X19970Y8461D01*
X19960Y8446D01*
X19946Y8442D01*
X19937D01*
X19922Y8446D01*
X19918Y8456D01*
X20002Y8508D02*
Y8442D01*
Y8489D02*
X20016Y8504D01*
X20026Y8508D01*
X20040D01*
X20049Y8504D01*
X20054Y8489D01*
Y8442D01*
Y8489D02*
X20068Y8504D01*
X20078Y8508D01*
X20092D01*
X20102Y8504D01*
X20107Y8489D01*
Y8442D01*
X20148Y8542D02*
X20152Y8537D01*
X20157Y8542D01*
X20152Y8546D01*
X20148Y8542D01*
X20152Y8508D02*
Y8442D01*
X20175Y8542D02*
Y8442D01*
X20307Y8561D02*
X20298Y8551D01*
X20288Y8537D01*
X20279Y8518D01*
X20274Y8494D01*
Y8475D01*
X20279Y8451D01*
X20288Y8432D01*
X20298Y8418D01*
X20307Y8408D01*
X20298Y8551D02*
X20288Y8532D01*
X20284Y8518D01*
X20279Y8494D01*
Y8475D01*
X20284Y8451D01*
X20288Y8437D01*
X20298Y8418D01*
X20355Y8542D02*
X20341Y8537D01*
X20331Y8523D01*
X20327Y8499D01*
Y8485D01*
X20331Y8461D01*
X20341Y8446D01*
X20355Y8442D01*
X20365D01*
X20379Y8446D01*
X20388Y8461D01*
X20393Y8485D01*
Y8499D01*
X20388Y8523D01*
X20379Y8537D01*
X20365Y8542D01*
X20355D01*
X20420Y8451D02*
X20416Y8446D01*
X20420Y8442D01*
X20425Y8446D01*
X20420Y8451D01*
X20514Y8542D02*
X20466Y8442D01*
X20447Y8542D02*
X20514D01*
X20536Y8508D02*
Y8442D01*
Y8489D02*
X20550Y8504D01*
X20560Y8508D01*
X20574D01*
X20584Y8504D01*
X20588Y8489D01*
Y8442D01*
Y8489D02*
X20603Y8504D01*
X20612Y8508D01*
X20626D01*
X20636Y8504D01*
X20641Y8489D01*
Y8442D01*
X20672Y8508D02*
Y8442D01*
Y8489D02*
X20686Y8504D01*
X20696Y8508D01*
X20710D01*
X20720Y8504D01*
X20725Y8489D01*
Y8442D01*
Y8489D02*
X20739Y8504D01*
X20748Y8508D01*
X20763D01*
X20772Y8504D01*
X20777Y8489D01*
Y8442D01*
X20808Y8561D02*
X20818Y8551D01*
X20827Y8537D01*
X20837Y8518D01*
X20842Y8494D01*
Y8475D01*
X20837Y8451D01*
X20827Y8432D01*
X20818Y8418D01*
X20808Y8408D01*
X20818Y8551D02*
X20827Y8532D01*
X20832Y8518D01*
X20837Y8494D01*
Y8475D01*
X20832Y8451D01*
X20827Y8437D01*
X20818Y8418D01*
X20998Y8489D02*
X21040D01*
X21055Y8494D01*
X21060Y8499D01*
X21064Y8508D01*
Y8523D01*
X21060Y8532D01*
X21055Y8537D01*
X21040Y8542D01*
X20998D01*
Y8442D01*
X21120Y8542D02*
Y8442D01*
X21087Y8542D02*
X21153D01*
X21165D02*
Y8442D01*
X21232Y8542D02*
Y8442D01*
X21165Y8494D02*
X21232D01*
X21624Y8542D02*
Y8442D01*
Y8542D02*
X21667D01*
X21681Y8537D01*
X21686Y8532D01*
X21690Y8523D01*
Y8513D01*
X21686Y8504D01*
X21681Y8499D01*
X21667Y8494D01*
X21624D01*
X21657D02*
X21690Y8442D01*
X21737Y8508D02*
X21727Y8504D01*
X21718Y8494D01*
X21713Y8480D01*
Y8470D01*
X21718Y8456D01*
X21727Y8446D01*
X21737Y8442D01*
X21751D01*
X21760Y8446D01*
X21770Y8456D01*
X21775Y8470D01*
Y8480D01*
X21770Y8494D01*
X21760Y8504D01*
X21751Y8508D01*
X21737D01*
X21797D02*
Y8461D01*
X21801Y8446D01*
X21811Y8442D01*
X21825D01*
X21835Y8446D01*
X21849Y8461D01*
Y8508D02*
Y8442D01*
X21875Y8508D02*
Y8442D01*
Y8489D02*
X21889Y8504D01*
X21899Y8508D01*
X21913D01*
X21923Y8504D01*
X21928Y8489D01*
Y8442D01*
X22011Y8542D02*
Y8442D01*
Y8494D02*
X22001Y8504D01*
X21992Y8508D01*
X21978D01*
X21968Y8504D01*
X21959Y8494D01*
X21954Y8480D01*
Y8470D01*
X21959Y8456D01*
X21968Y8446D01*
X21978Y8442D01*
X21992D01*
X22001Y8446D01*
X22011Y8456D01*
X18636Y8342D02*
X18589Y8275D01*
X18660D01*
X18636Y8342D02*
Y8242D01*
X19535Y8342D02*
X19587D01*
X19559Y8304D01*
X19573D01*
X19582Y8299D01*
X19587Y8294D01*
X19592Y8280D01*
Y8270D01*
X19587Y8256D01*
X19578Y8246D01*
X19563Y8242D01*
X19549D01*
X19535Y8246D01*
X19530Y8251D01*
X19525Y8261D01*
X19614Y8323D02*
X19624Y8327D01*
X19638Y8342D01*
Y8242D01*
X19692Y8251D02*
X19688Y8246D01*
X19692Y8242D01*
X19697Y8246D01*
X19692Y8251D01*
X19767Y8342D02*
X19719Y8275D01*
X19790D01*
X19767Y8342D02*
Y8242D01*
X19870Y8308D02*
X19865Y8294D01*
X19856Y8285D01*
X19841Y8280D01*
X19837D01*
X19822Y8285D01*
X19813Y8294D01*
X19808Y8308D01*
Y8313D01*
X19813Y8327D01*
X19822Y8337D01*
X19837Y8342D01*
X19841D01*
X19856Y8337D01*
X19865Y8327D01*
X19870Y8308D01*
Y8285D01*
X19865Y8261D01*
X19856Y8246D01*
X19841Y8242D01*
X19832D01*
X19818Y8246D01*
X19813Y8256D01*
X19954Y8327D02*
X19949Y8337D01*
X19935Y8342D01*
X19926D01*
X19911Y8337D01*
X19902Y8323D01*
X19897Y8299D01*
Y8275D01*
X19902Y8256D01*
X19911Y8246D01*
X19926Y8242D01*
X19930D01*
X19945Y8246D01*
X19954Y8256D01*
X19959Y8270D01*
Y8275D01*
X19954Y8289D01*
X19945Y8299D01*
X19930Y8304D01*
X19926D01*
X19911Y8299D01*
X19902Y8289D01*
X19897Y8275D01*
X19981Y8308D02*
Y8242D01*
Y8289D02*
X19995Y8304D01*
X20005Y8308D01*
X20019D01*
X20028Y8304D01*
X20033Y8289D01*
Y8242D01*
Y8289D02*
X20048Y8304D01*
X20057Y8308D01*
X20071D01*
X20081Y8304D01*
X20086Y8289D01*
Y8242D01*
X20127Y8342D02*
X20131Y8337D01*
X20136Y8342D01*
X20131Y8346D01*
X20127Y8342D01*
X20131Y8308D02*
Y8242D01*
X20154Y8342D02*
Y8242D01*
X20287Y8361D02*
X20277Y8351D01*
X20267Y8337D01*
X20258Y8318D01*
X20253Y8294D01*
Y8275D01*
X20258Y8251D01*
X20267Y8232D01*
X20277Y8218D01*
X20287Y8208D01*
X20277Y8351D02*
X20267Y8332D01*
X20263Y8318D01*
X20258Y8294D01*
Y8275D01*
X20263Y8251D01*
X20267Y8237D01*
X20277Y8218D01*
X20334Y8342D02*
X20320Y8337D01*
X20310Y8323D01*
X20306Y8299D01*
Y8285D01*
X20310Y8261D01*
X20320Y8246D01*
X20334Y8242D01*
X20344D01*
X20358Y8246D01*
X20367Y8261D01*
X20372Y8285D01*
Y8299D01*
X20367Y8323D01*
X20358Y8337D01*
X20344Y8342D01*
X20334D01*
X20399Y8251D02*
X20395Y8246D01*
X20399Y8242D01*
X20404Y8246D01*
X20399Y8251D01*
X20450Y8342D02*
X20436Y8337D01*
X20431Y8327D01*
Y8318D01*
X20436Y8308D01*
X20445Y8304D01*
X20464Y8299D01*
X20478Y8294D01*
X20488Y8285D01*
X20493Y8275D01*
Y8261D01*
X20488Y8251D01*
X20483Y8246D01*
X20469Y8242D01*
X20450D01*
X20436Y8246D01*
X20431Y8251D01*
X20426Y8261D01*
Y8275D01*
X20431Y8285D01*
X20440Y8294D01*
X20455Y8299D01*
X20474Y8304D01*
X20483Y8308D01*
X20488Y8318D01*
Y8327D01*
X20483Y8337D01*
X20469Y8342D01*
X20450D01*
X20515Y8308D02*
Y8242D01*
Y8289D02*
X20529Y8304D01*
X20539Y8308D01*
X20553D01*
X20563Y8304D01*
X20567Y8289D01*
Y8242D01*
Y8289D02*
X20582Y8304D01*
X20591Y8308D01*
X20606D01*
X20615Y8304D01*
X20620Y8289D01*
Y8242D01*
X20651Y8308D02*
Y8242D01*
Y8289D02*
X20665Y8304D01*
X20675Y8308D01*
X20689D01*
X20699Y8304D01*
X20704Y8289D01*
Y8242D01*
Y8289D02*
X20718Y8304D01*
X20727Y8308D01*
X20742D01*
X20751Y8304D01*
X20756Y8289D01*
Y8242D01*
X20787Y8361D02*
X20797Y8351D01*
X20806Y8337D01*
X20816Y8318D01*
X20821Y8294D01*
Y8275D01*
X20816Y8251D01*
X20806Y8232D01*
X20797Y8218D01*
X20787Y8208D01*
X20797Y8351D02*
X20806Y8332D01*
X20811Y8318D01*
X20816Y8294D01*
Y8275D01*
X20811Y8251D01*
X20806Y8237D01*
X20797Y8218D01*
X20998Y8289D02*
X21040D01*
X21055Y8294D01*
X21060Y8299D01*
X21064Y8308D01*
Y8323D01*
X21060Y8332D01*
X21055Y8337D01*
X21040Y8342D01*
X20998D01*
Y8242D01*
X21120Y8342D02*
Y8242D01*
X21087Y8342D02*
X21153D01*
X21165D02*
Y8242D01*
X21232Y8342D02*
Y8242D01*
X21165Y8294D02*
X21232D01*
X21624Y8342D02*
Y8242D01*
Y8342D02*
X21667D01*
X21681Y8337D01*
X21686Y8332D01*
X21690Y8323D01*
Y8313D01*
X21686Y8304D01*
X21681Y8299D01*
X21667Y8294D01*
X21624D01*
X21657D02*
X21690Y8242D01*
X21737Y8308D02*
X21727Y8304D01*
X21718Y8294D01*
X21713Y8280D01*
Y8270D01*
X21718Y8256D01*
X21727Y8246D01*
X21737Y8242D01*
X21751D01*
X21760Y8246D01*
X21770Y8256D01*
X21775Y8270D01*
Y8280D01*
X21770Y8294D01*
X21760Y8304D01*
X21751Y8308D01*
X21737D01*
X21797D02*
Y8261D01*
X21801Y8246D01*
X21811Y8242D01*
X21825D01*
X21835Y8246D01*
X21849Y8261D01*
Y8308D02*
Y8242D01*
X21875Y8308D02*
Y8242D01*
Y8289D02*
X21889Y8304D01*
X21899Y8308D01*
X21913D01*
X21923Y8304D01*
X21928Y8289D01*
Y8242D01*
X22011Y8342D02*
Y8242D01*
Y8294D02*
X22001Y8304D01*
X21992Y8308D01*
X21978D01*
X21968Y8304D01*
X21959Y8294D01*
X21954Y8280D01*
Y8270D01*
X21959Y8256D01*
X21968Y8246D01*
X21978Y8242D01*
X21992D01*
X22001Y8246D01*
X22011Y8256D01*
X18636Y8142D02*
X18589Y8075D01*
X18660D01*
X18636Y8142D02*
Y8042D01*
X19535Y8142D02*
X19587D01*
X19559Y8104D01*
X19573D01*
X19582Y8099D01*
X19587Y8094D01*
X19592Y8080D01*
Y8070D01*
X19587Y8056D01*
X19578Y8046D01*
X19563Y8042D01*
X19549D01*
X19535Y8046D01*
X19530Y8051D01*
X19525Y8061D01*
X19624Y8142D02*
X19676D01*
X19648Y8104D01*
X19662D01*
X19671Y8099D01*
X19676Y8094D01*
X19681Y8080D01*
Y8070D01*
X19676Y8056D01*
X19667Y8046D01*
X19652Y8042D01*
X19638D01*
X19624Y8046D01*
X19619Y8051D01*
X19614Y8061D01*
X19708Y8051D02*
X19703Y8046D01*
X19708Y8042D01*
X19713Y8046D01*
X19708Y8051D01*
X19782Y8142D02*
X19735Y8075D01*
X19806D01*
X19782Y8142D02*
Y8042D01*
X19881Y8127D02*
X19876Y8137D01*
X19862Y8142D01*
X19852D01*
X19838Y8137D01*
X19829Y8123D01*
X19824Y8099D01*
Y8075D01*
X19829Y8056D01*
X19838Y8046D01*
X19852Y8042D01*
X19857D01*
X19871Y8046D01*
X19881Y8056D01*
X19886Y8070D01*
Y8075D01*
X19881Y8089D01*
X19871Y8099D01*
X19857Y8104D01*
X19852D01*
X19838Y8099D01*
X19829Y8089D01*
X19824Y8075D01*
X19965Y8142D02*
X19917D01*
X19912Y8099D01*
X19917Y8104D01*
X19931Y8108D01*
X19946D01*
X19960Y8104D01*
X19969Y8094D01*
X19974Y8080D01*
Y8070D01*
X19969Y8056D01*
X19960Y8046D01*
X19946Y8042D01*
X19931D01*
X19917Y8046D01*
X19912Y8051D01*
X19908Y8061D01*
X19997Y8108D02*
Y8042D01*
Y8089D02*
X20011Y8104D01*
X20020Y8108D01*
X20035D01*
X20044Y8104D01*
X20049Y8089D01*
Y8042D01*
Y8089D02*
X20063Y8104D01*
X20073Y8108D01*
X20087D01*
X20097Y8104D01*
X20101Y8089D01*
Y8042D01*
X20142Y8142D02*
X20147Y8137D01*
X20152Y8142D01*
X20147Y8146D01*
X20142Y8142D01*
X20147Y8108D02*
Y8042D01*
X20169Y8142D02*
Y8042D01*
X20302Y8161D02*
X20293Y8151D01*
X20283Y8137D01*
X20274Y8118D01*
X20269Y8094D01*
Y8075D01*
X20274Y8051D01*
X20283Y8032D01*
X20293Y8018D01*
X20302Y8008D01*
X20293Y8151D02*
X20283Y8132D01*
X20278Y8118D01*
X20274Y8094D01*
Y8075D01*
X20278Y8051D01*
X20283Y8037D01*
X20293Y8018D01*
X20350Y8142D02*
X20336Y8137D01*
X20326Y8123D01*
X20321Y8099D01*
Y8085D01*
X20326Y8061D01*
X20336Y8046D01*
X20350Y8042D01*
X20359D01*
X20374Y8046D01*
X20383Y8061D01*
X20388Y8085D01*
Y8099D01*
X20383Y8123D01*
X20374Y8137D01*
X20359Y8142D01*
X20350D01*
X20415Y8051D02*
X20410Y8046D01*
X20415Y8042D01*
X20420Y8046D01*
X20415Y8051D01*
X20466Y8142D02*
X20451Y8137D01*
X20446Y8127D01*
Y8118D01*
X20451Y8108D01*
X20461Y8104D01*
X20480Y8099D01*
X20494Y8094D01*
X20504Y8085D01*
X20508Y8075D01*
Y8061D01*
X20504Y8051D01*
X20499Y8046D01*
X20485Y8042D01*
X20466D01*
X20451Y8046D01*
X20446Y8051D01*
X20442Y8061D01*
Y8075D01*
X20446Y8085D01*
X20456Y8094D01*
X20470Y8099D01*
X20489Y8104D01*
X20499Y8108D01*
X20504Y8118D01*
Y8127D01*
X20499Y8137D01*
X20485Y8142D01*
X20466D01*
X20588D02*
X20540D01*
X20536Y8099D01*
X20540Y8104D01*
X20555Y8108D01*
X20569D01*
X20583Y8104D01*
X20593Y8094D01*
X20597Y8080D01*
Y8070D01*
X20593Y8056D01*
X20583Y8046D01*
X20569Y8042D01*
X20555D01*
X20540Y8046D01*
X20536Y8051D01*
X20531Y8061D01*
X20620Y8108D02*
Y8042D01*
Y8089D02*
X20634Y8104D01*
X20644Y8108D01*
X20658D01*
X20667Y8104D01*
X20672Y8089D01*
Y8042D01*
Y8089D02*
X20686Y8104D01*
X20696Y8108D01*
X20710D01*
X20720Y8104D01*
X20725Y8089D01*
Y8042D01*
X20756Y8108D02*
Y8042D01*
Y8089D02*
X20770Y8104D01*
X20780Y8108D01*
X20794D01*
X20804Y8104D01*
X20808Y8089D01*
Y8042D01*
Y8089D02*
X20823Y8104D01*
X20832Y8108D01*
X20846D01*
X20856Y8104D01*
X20861Y8089D01*
Y8042D01*
X20892Y8161D02*
X20902Y8151D01*
X20911Y8137D01*
X20921Y8118D01*
X20925Y8094D01*
Y8075D01*
X20921Y8051D01*
X20911Y8032D01*
X20902Y8018D01*
X20892Y8008D01*
X20902Y8151D02*
X20911Y8132D01*
X20916Y8118D01*
X20921Y8094D01*
Y8075D01*
X20916Y8051D01*
X20911Y8037D01*
X20902Y8018D01*
X20998Y8089D02*
X21040D01*
X21055Y8094D01*
X21060Y8099D01*
X21064Y8108D01*
Y8123D01*
X21060Y8132D01*
X21055Y8137D01*
X21040Y8142D01*
X20998D01*
Y8042D01*
X21120Y8142D02*
Y8042D01*
X21087Y8142D02*
X21153D01*
X21165D02*
Y8042D01*
X21232Y8142D02*
Y8042D01*
X21165Y8094D02*
X21232D01*
X21624Y8142D02*
Y8042D01*
Y8142D02*
X21667D01*
X21681Y8137D01*
X21686Y8132D01*
X21690Y8123D01*
Y8113D01*
X21686Y8104D01*
X21681Y8099D01*
X21667Y8094D01*
X21624D01*
X21657D02*
X21690Y8042D01*
X21737Y8108D02*
X21727Y8104D01*
X21718Y8094D01*
X21713Y8080D01*
Y8070D01*
X21718Y8056D01*
X21727Y8046D01*
X21737Y8042D01*
X21751D01*
X21760Y8046D01*
X21770Y8056D01*
X21775Y8070D01*
Y8080D01*
X21770Y8094D01*
X21760Y8104D01*
X21751Y8108D01*
X21737D01*
X21797D02*
Y8061D01*
X21801Y8046D01*
X21811Y8042D01*
X21825D01*
X21835Y8046D01*
X21849Y8061D01*
Y8108D02*
Y8042D01*
X21875Y8108D02*
Y8042D01*
Y8089D02*
X21889Y8104D01*
X21899Y8108D01*
X21913D01*
X21923Y8104D01*
X21928Y8089D01*
Y8042D01*
X22011Y8142D02*
Y8042D01*
Y8094D02*
X22001Y8104D01*
X21992Y8108D01*
X21978D01*
X21968Y8104D01*
X21959Y8094D01*
X21954Y8080D01*
Y8070D01*
X21959Y8056D01*
X21968Y8046D01*
X21978Y8042D01*
X21992D01*
X22001Y8046D01*
X22011Y8056D01*
X18636Y7942D02*
X18589Y7875D01*
X18660D01*
X18636Y7942D02*
Y7842D01*
X18702Y7942D02*
X18687Y7937D01*
X18683Y7927D01*
Y7918D01*
X18687Y7908D01*
X18697Y7904D01*
X18716Y7899D01*
X18730Y7894D01*
X18740Y7885D01*
X18745Y7875D01*
Y7861D01*
X18740Y7851D01*
X18735Y7846D01*
X18721Y7842D01*
X18702D01*
X18687Y7846D01*
X18683Y7851D01*
X18678Y7861D01*
Y7875D01*
X18683Y7885D01*
X18692Y7894D01*
X18706Y7899D01*
X18725Y7904D01*
X18735Y7908D01*
X18740Y7918D01*
Y7927D01*
X18735Y7937D01*
X18721Y7942D01*
X18702D01*
X19535D02*
X19587D01*
X19559Y7904D01*
X19573D01*
X19582Y7899D01*
X19587Y7894D01*
X19592Y7880D01*
Y7870D01*
X19587Y7856D01*
X19578Y7846D01*
X19563Y7842D01*
X19549D01*
X19535Y7846D01*
X19530Y7851D01*
X19525Y7861D01*
X19671Y7942D02*
X19624D01*
X19619Y7899D01*
X19624Y7904D01*
X19638Y7908D01*
X19652D01*
X19667Y7904D01*
X19676Y7894D01*
X19681Y7880D01*
Y7870D01*
X19676Y7856D01*
X19667Y7846D01*
X19652Y7842D01*
X19638D01*
X19624Y7846D01*
X19619Y7851D01*
X19614Y7861D01*
X19708Y7851D02*
X19703Y7846D01*
X19708Y7842D01*
X19713Y7846D01*
X19708Y7851D01*
X19782Y7942D02*
X19735Y7875D01*
X19806D01*
X19782Y7942D02*
Y7842D01*
X19833Y7942D02*
X19886D01*
X19857Y7904D01*
X19871D01*
X19881Y7899D01*
X19886Y7894D01*
X19890Y7880D01*
Y7870D01*
X19886Y7856D01*
X19876Y7846D01*
X19862Y7842D01*
X19848D01*
X19833Y7846D01*
X19829Y7851D01*
X19824Y7861D01*
X19922Y7942D02*
X19975D01*
X19946Y7904D01*
X19960D01*
X19970Y7899D01*
X19975Y7894D01*
X19979Y7880D01*
Y7870D01*
X19975Y7856D01*
X19965Y7846D01*
X19951Y7842D01*
X19937D01*
X19922Y7846D01*
X19918Y7851D01*
X19913Y7861D01*
X20002Y7908D02*
Y7842D01*
Y7889D02*
X20016Y7904D01*
X20026Y7908D01*
X20040D01*
X20049Y7904D01*
X20054Y7889D01*
Y7842D01*
Y7889D02*
X20068Y7904D01*
X20078Y7908D01*
X20092D01*
X20102Y7904D01*
X20107Y7889D01*
Y7842D01*
X20148Y7942D02*
X20152Y7937D01*
X20157Y7942D01*
X20152Y7946D01*
X20148Y7942D01*
X20152Y7908D02*
Y7842D01*
X20175Y7942D02*
Y7842D01*
X20307Y7961D02*
X20298Y7951D01*
X20288Y7937D01*
X20279Y7918D01*
X20274Y7894D01*
Y7875D01*
X20279Y7851D01*
X20288Y7832D01*
X20298Y7818D01*
X20307Y7808D01*
X20298Y7951D02*
X20288Y7932D01*
X20284Y7918D01*
X20279Y7894D01*
Y7875D01*
X20284Y7851D01*
X20288Y7837D01*
X20298Y7818D01*
X20355Y7942D02*
X20341Y7937D01*
X20331Y7923D01*
X20327Y7899D01*
Y7885D01*
X20331Y7861D01*
X20341Y7846D01*
X20355Y7842D01*
X20365D01*
X20379Y7846D01*
X20388Y7861D01*
X20393Y7885D01*
Y7899D01*
X20388Y7923D01*
X20379Y7937D01*
X20365Y7942D01*
X20355D01*
X20420Y7851D02*
X20416Y7846D01*
X20420Y7842D01*
X20425Y7846D01*
X20420Y7851D01*
X20509Y7908D02*
X20504Y7894D01*
X20495Y7885D01*
X20480Y7880D01*
X20476D01*
X20461Y7885D01*
X20452Y7894D01*
X20447Y7908D01*
Y7913D01*
X20452Y7927D01*
X20461Y7937D01*
X20476Y7942D01*
X20480D01*
X20495Y7937D01*
X20504Y7927D01*
X20509Y7908D01*
Y7885D01*
X20504Y7861D01*
X20495Y7846D01*
X20480Y7842D01*
X20471D01*
X20456Y7846D01*
X20452Y7856D01*
X20536Y7908D02*
Y7842D01*
Y7889D02*
X20550Y7904D01*
X20560Y7908D01*
X20574D01*
X20584Y7904D01*
X20588Y7889D01*
Y7842D01*
Y7889D02*
X20603Y7904D01*
X20612Y7908D01*
X20626D01*
X20636Y7904D01*
X20641Y7889D01*
Y7842D01*
X20672Y7908D02*
Y7842D01*
Y7889D02*
X20686Y7904D01*
X20696Y7908D01*
X20710D01*
X20720Y7904D01*
X20725Y7889D01*
Y7842D01*
Y7889D02*
X20739Y7904D01*
X20748Y7908D01*
X20763D01*
X20772Y7904D01*
X20777Y7889D01*
Y7842D01*
X20808Y7961D02*
X20818Y7951D01*
X20827Y7937D01*
X20837Y7918D01*
X20842Y7894D01*
Y7875D01*
X20837Y7851D01*
X20827Y7832D01*
X20818Y7818D01*
X20808Y7808D01*
X20818Y7951D02*
X20827Y7932D01*
X20832Y7918D01*
X20837Y7894D01*
Y7875D01*
X20832Y7851D01*
X20827Y7837D01*
X20818Y7818D01*
X20998Y7889D02*
X21040D01*
X21055Y7894D01*
X21060Y7899D01*
X21064Y7908D01*
Y7923D01*
X21060Y7932D01*
X21055Y7937D01*
X21040Y7942D01*
X20998D01*
Y7842D01*
X21120Y7942D02*
Y7842D01*
X21087Y7942D02*
X21153D01*
X21165D02*
Y7842D01*
X21232Y7942D02*
Y7842D01*
X21165Y7894D02*
X21232D01*
X21624Y7942D02*
Y7842D01*
Y7942D02*
X21667D01*
X21681Y7937D01*
X21686Y7932D01*
X21690Y7923D01*
Y7913D01*
X21686Y7904D01*
X21681Y7899D01*
X21667Y7894D01*
X21624D01*
X21657D02*
X21690Y7842D01*
X21737Y7908D02*
X21727Y7904D01*
X21718Y7894D01*
X21713Y7880D01*
Y7870D01*
X21718Y7856D01*
X21727Y7846D01*
X21737Y7842D01*
X21751D01*
X21760Y7846D01*
X21770Y7856D01*
X21775Y7870D01*
Y7880D01*
X21770Y7894D01*
X21760Y7904D01*
X21751Y7908D01*
X21737D01*
X21797D02*
Y7861D01*
X21801Y7846D01*
X21811Y7842D01*
X21825D01*
X21835Y7846D01*
X21849Y7861D01*
Y7908D02*
Y7842D01*
X21875Y7908D02*
Y7842D01*
Y7889D02*
X21889Y7904D01*
X21899Y7908D01*
X21913D01*
X21923Y7904D01*
X21928Y7889D01*
Y7842D01*
X22011Y7942D02*
Y7842D01*
Y7894D02*
X22001Y7904D01*
X21992Y7908D01*
X21978D01*
X21968Y7904D01*
X21959Y7894D01*
X21954Y7880D01*
Y7870D01*
X21959Y7856D01*
X21968Y7846D01*
X21978Y7842D01*
X21992D01*
X22001Y7846D01*
X22011Y7856D01*
X18636Y7742D02*
X18589Y7675D01*
X18660D01*
X18636Y7742D02*
Y7642D01*
X18678Y7723D02*
X18687Y7727D01*
X18702Y7742D01*
Y7642D01*
X19592Y7742D02*
X19544Y7642D01*
X19525Y7742D02*
X19592D01*
X19643D02*
X19629Y7737D01*
X19619Y7723D01*
X19614Y7699D01*
Y7685D01*
X19619Y7661D01*
X19629Y7646D01*
X19643Y7642D01*
X19652D01*
X19667Y7646D01*
X19676Y7661D01*
X19681Y7685D01*
Y7699D01*
X19676Y7723D01*
X19667Y7737D01*
X19652Y7742D01*
X19643D01*
X19703Y7708D02*
Y7642D01*
Y7689D02*
X19718Y7704D01*
X19727Y7708D01*
X19741D01*
X19751Y7704D01*
X19756Y7689D01*
Y7642D01*
Y7689D02*
X19770Y7704D01*
X19779Y7708D01*
X19794D01*
X19803Y7704D01*
X19808Y7689D01*
Y7642D01*
X19849Y7742D02*
X19854Y7737D01*
X19859Y7742D01*
X19854Y7746D01*
X19849Y7742D01*
X19854Y7708D02*
Y7642D01*
X19876Y7742D02*
Y7642D01*
X20009Y7761D02*
X19999Y7751D01*
X19990Y7737D01*
X19980Y7718D01*
X19976Y7694D01*
Y7675D01*
X19980Y7651D01*
X19990Y7632D01*
X19999Y7618D01*
X20009Y7608D01*
X19999Y7751D02*
X19990Y7732D01*
X19985Y7718D01*
X19980Y7694D01*
Y7675D01*
X19985Y7651D01*
X19990Y7637D01*
X19999Y7618D01*
X20028Y7723D02*
X20038Y7727D01*
X20052Y7742D01*
Y7642D01*
X20106Y7651D02*
X20101Y7646D01*
X20106Y7642D01*
X20111Y7646D01*
X20106Y7651D01*
X20199Y7742D02*
X20152Y7642D01*
X20133Y7742D02*
X20199D01*
X20288D02*
X20241Y7642D01*
X20222Y7742D02*
X20288D01*
X20335D02*
X20320Y7737D01*
X20316Y7727D01*
Y7718D01*
X20320Y7708D01*
X20330Y7704D01*
X20349Y7699D01*
X20363Y7694D01*
X20373Y7685D01*
X20377Y7675D01*
Y7661D01*
X20373Y7651D01*
X20368Y7646D01*
X20354Y7642D01*
X20335D01*
X20320Y7646D01*
X20316Y7651D01*
X20311Y7661D01*
Y7675D01*
X20316Y7685D01*
X20325Y7694D01*
X20339Y7699D01*
X20358Y7704D01*
X20368Y7708D01*
X20373Y7718D01*
Y7727D01*
X20368Y7737D01*
X20354Y7742D01*
X20335D01*
X20400Y7708D02*
Y7642D01*
Y7689D02*
X20414Y7704D01*
X20424Y7708D01*
X20438D01*
X20447Y7704D01*
X20452Y7689D01*
Y7642D01*
Y7689D02*
X20466Y7704D01*
X20476Y7708D01*
X20490D01*
X20500Y7704D01*
X20505Y7689D01*
Y7642D01*
X20536Y7708D02*
Y7642D01*
Y7689D02*
X20550Y7704D01*
X20560Y7708D01*
X20574D01*
X20584Y7704D01*
X20588Y7689D01*
Y7642D01*
Y7689D02*
X20603Y7704D01*
X20612Y7708D01*
X20626D01*
X20636Y7704D01*
X20641Y7689D01*
Y7642D01*
X20672Y7761D02*
X20682Y7751D01*
X20691Y7737D01*
X20701Y7718D01*
X20705Y7694D01*
Y7675D01*
X20701Y7651D01*
X20691Y7632D01*
X20682Y7618D01*
X20672Y7608D01*
X20682Y7751D02*
X20691Y7732D01*
X20696Y7718D01*
X20701Y7694D01*
Y7675D01*
X20696Y7651D01*
X20691Y7637D01*
X20682Y7618D01*
X20998Y7689D02*
X21040D01*
X21055Y7694D01*
X21060Y7699D01*
X21064Y7708D01*
Y7723D01*
X21060Y7732D01*
X21055Y7737D01*
X21040Y7742D01*
X20998D01*
Y7642D01*
X21120Y7742D02*
Y7642D01*
X21087Y7742D02*
X21153D01*
X21165D02*
Y7642D01*
X21232Y7742D02*
Y7642D01*
X21165Y7694D02*
X21232D01*
X21624Y7742D02*
Y7642D01*
Y7742D02*
X21667D01*
X21681Y7737D01*
X21686Y7732D01*
X21690Y7723D01*
Y7713D01*
X21686Y7704D01*
X21681Y7699D01*
X21667Y7694D01*
X21624D01*
X21657D02*
X21690Y7642D01*
X21737Y7708D02*
X21727Y7704D01*
X21718Y7694D01*
X21713Y7680D01*
Y7670D01*
X21718Y7656D01*
X21727Y7646D01*
X21737Y7642D01*
X21751D01*
X21760Y7646D01*
X21770Y7656D01*
X21775Y7670D01*
Y7680D01*
X21770Y7694D01*
X21760Y7704D01*
X21751Y7708D01*
X21737D01*
X21797D02*
Y7661D01*
X21801Y7646D01*
X21811Y7642D01*
X21825D01*
X21835Y7646D01*
X21849Y7661D01*
Y7708D02*
Y7642D01*
X21875Y7708D02*
Y7642D01*
Y7689D02*
X21889Y7704D01*
X21899Y7708D01*
X21913D01*
X21923Y7704D01*
X21928Y7689D01*
Y7642D01*
X22011Y7742D02*
Y7642D01*
Y7694D02*
X22001Y7704D01*
X21992Y7708D01*
X21978D01*
X21968Y7704D01*
X21959Y7694D01*
X21954Y7680D01*
Y7670D01*
X21959Y7656D01*
X21968Y7646D01*
X21978Y7642D01*
X21992D01*
X22001Y7646D01*
X22011Y7656D01*
X18598Y7542D02*
X18651D01*
X18622Y7504D01*
X18636D01*
X18646Y7499D01*
X18651Y7494D01*
X18656Y7480D01*
Y7470D01*
X18651Y7456D01*
X18641Y7446D01*
X18627Y7442D01*
X18613D01*
X18598Y7446D01*
X18594Y7451D01*
X18589Y7461D01*
X19525Y7523D02*
X19535Y7527D01*
X19549Y7542D01*
Y7442D01*
X19608Y7542D02*
X19660D01*
X19632Y7504D01*
X19646D01*
X19656Y7499D01*
X19660Y7494D01*
X19665Y7480D01*
Y7470D01*
X19660Y7456D01*
X19651Y7446D01*
X19637Y7442D01*
X19622D01*
X19608Y7446D01*
X19603Y7451D01*
X19599Y7461D01*
X19697Y7542D02*
X19750D01*
X19721Y7504D01*
X19735D01*
X19745Y7499D01*
X19750Y7494D01*
X19754Y7480D01*
Y7470D01*
X19750Y7456D01*
X19740Y7446D01*
X19726Y7442D01*
X19711D01*
X19697Y7446D01*
X19692Y7451D01*
X19688Y7461D01*
X19781Y7451D02*
X19777Y7446D01*
X19781Y7442D01*
X19786Y7446D01*
X19781Y7451D01*
X19832Y7542D02*
X19818Y7537D01*
X19813Y7527D01*
Y7518D01*
X19818Y7508D01*
X19827Y7504D01*
X19846Y7499D01*
X19860Y7494D01*
X19870Y7485D01*
X19875Y7475D01*
Y7461D01*
X19870Y7451D01*
X19865Y7446D01*
X19851Y7442D01*
X19832D01*
X19818Y7446D01*
X19813Y7451D01*
X19808Y7461D01*
Y7475D01*
X19813Y7485D01*
X19822Y7494D01*
X19837Y7499D01*
X19856Y7504D01*
X19865Y7508D01*
X19870Y7518D01*
Y7527D01*
X19865Y7537D01*
X19851Y7542D01*
X19832D01*
X19954D02*
X19907D01*
X19902Y7499D01*
X19907Y7504D01*
X19921Y7508D01*
X19935D01*
X19949Y7504D01*
X19959Y7494D01*
X19964Y7480D01*
Y7470D01*
X19959Y7456D01*
X19949Y7446D01*
X19935Y7442D01*
X19921D01*
X19907Y7446D01*
X19902Y7451D01*
X19897Y7461D01*
X20010Y7542D02*
X19996Y7537D01*
X19991Y7527D01*
Y7518D01*
X19996Y7508D01*
X20005Y7504D01*
X20024Y7499D01*
X20038Y7494D01*
X20048Y7485D01*
X20053Y7475D01*
Y7461D01*
X20048Y7451D01*
X20043Y7446D01*
X20029Y7442D01*
X20010D01*
X19996Y7446D01*
X19991Y7451D01*
X19986Y7461D01*
Y7475D01*
X19991Y7485D01*
X20000Y7494D01*
X20015Y7499D01*
X20034Y7504D01*
X20043Y7508D01*
X20048Y7518D01*
Y7527D01*
X20043Y7537D01*
X20029Y7542D01*
X20010D01*
X20075Y7508D02*
Y7442D01*
Y7489D02*
X20089Y7504D01*
X20099Y7508D01*
X20113D01*
X20123Y7504D01*
X20128Y7489D01*
Y7442D01*
Y7489D02*
X20142Y7504D01*
X20151Y7508D01*
X20166D01*
X20175Y7504D01*
X20180Y7489D01*
Y7442D01*
X20221Y7542D02*
X20226Y7537D01*
X20230Y7542D01*
X20226Y7546D01*
X20221Y7542D01*
X20226Y7508D02*
Y7442D01*
X20248Y7542D02*
Y7442D01*
X20381Y7561D02*
X20371Y7551D01*
X20362Y7537D01*
X20352Y7518D01*
X20347Y7494D01*
Y7475D01*
X20352Y7451D01*
X20362Y7432D01*
X20371Y7418D01*
X20381Y7408D01*
X20371Y7551D02*
X20362Y7532D01*
X20357Y7518D01*
X20352Y7494D01*
Y7475D01*
X20357Y7451D01*
X20362Y7437D01*
X20371Y7418D01*
X20409Y7542D02*
X20462D01*
X20433Y7504D01*
X20447D01*
X20457Y7499D01*
X20462Y7494D01*
X20466Y7480D01*
Y7470D01*
X20462Y7456D01*
X20452Y7446D01*
X20438Y7442D01*
X20424D01*
X20409Y7446D01*
X20405Y7451D01*
X20400Y7461D01*
X20494Y7451D02*
X20489Y7446D01*
X20494Y7442D01*
X20498Y7446D01*
X20494Y7451D01*
X20568Y7542D02*
X20520Y7475D01*
X20592D01*
X20568Y7542D02*
Y7442D01*
X20609Y7508D02*
Y7442D01*
Y7489D02*
X20624Y7504D01*
X20633Y7508D01*
X20647D01*
X20657Y7504D01*
X20662Y7489D01*
Y7442D01*
Y7489D02*
X20676Y7504D01*
X20685Y7508D01*
X20700D01*
X20709Y7504D01*
X20714Y7489D01*
Y7442D01*
X20745Y7508D02*
Y7442D01*
Y7489D02*
X20760Y7504D01*
X20769Y7508D01*
X20784D01*
X20793Y7504D01*
X20798Y7489D01*
Y7442D01*
Y7489D02*
X20812Y7504D01*
X20822Y7508D01*
X20836D01*
X20845Y7504D01*
X20850Y7489D01*
Y7442D01*
X20882Y7561D02*
X20891Y7551D01*
X20901Y7537D01*
X20910Y7518D01*
X20915Y7494D01*
Y7475D01*
X20910Y7451D01*
X20901Y7432D01*
X20891Y7418D01*
X20882Y7408D01*
X20891Y7551D02*
X20901Y7532D01*
X20905Y7518D01*
X20910Y7494D01*
Y7475D01*
X20905Y7451D01*
X20901Y7437D01*
X20891Y7418D01*
X20998Y7542D02*
Y7442D01*
Y7542D02*
X21064Y7442D01*
Y7542D02*
Y7442D01*
X21092Y7489D02*
X21135D01*
X21149Y7494D01*
X21154Y7499D01*
X21159Y7508D01*
Y7523D01*
X21154Y7532D01*
X21149Y7537D01*
X21135Y7542D01*
X21092D01*
Y7442D01*
X21214Y7542D02*
Y7442D01*
X21181Y7542D02*
X21248D01*
X21260D02*
Y7442D01*
X21326Y7542D02*
Y7442D01*
X21260Y7494D02*
X21326D01*
X21624Y7542D02*
Y7442D01*
Y7542D02*
X21667D01*
X21681Y7537D01*
X21686Y7532D01*
X21690Y7523D01*
Y7513D01*
X21686Y7504D01*
X21681Y7499D01*
X21667Y7494D01*
X21624D01*
X21657D02*
X21690Y7442D01*
X21737Y7508D02*
X21727Y7504D01*
X21718Y7494D01*
X21713Y7480D01*
Y7470D01*
X21718Y7456D01*
X21727Y7446D01*
X21737Y7442D01*
X21751D01*
X21760Y7446D01*
X21770Y7456D01*
X21775Y7470D01*
Y7480D01*
X21770Y7494D01*
X21760Y7504D01*
X21751Y7508D01*
X21737D01*
X21797D02*
Y7461D01*
X21801Y7446D01*
X21811Y7442D01*
X21825D01*
X21835Y7446D01*
X21849Y7461D01*
Y7508D02*
Y7442D01*
X21875Y7508D02*
Y7442D01*
Y7489D02*
X21889Y7504D01*
X21899Y7508D01*
X21913D01*
X21923Y7504D01*
X21928Y7489D01*
Y7442D01*
X22011Y7542D02*
Y7442D01*
Y7494D02*
X22001Y7504D01*
X21992Y7508D01*
X21978D01*
X21968Y7504D01*
X21959Y7494D01*
X21954Y7480D01*
Y7470D01*
X21959Y7456D01*
X21968Y7446D01*
X21978Y7442D01*
X21992D01*
X22001Y7446D01*
X22011Y7456D01*
X18646Y7342D02*
X18598D01*
X18594Y7299D01*
X18598Y7304D01*
X18613Y7308D01*
X18627D01*
X18641Y7304D01*
X18651Y7294D01*
X18656Y7280D01*
Y7270D01*
X18651Y7256D01*
X18641Y7246D01*
X18627Y7242D01*
X18613D01*
X18598Y7246D01*
X18594Y7251D01*
X18589Y7261D01*
X18735Y7342D02*
X18687D01*
X18683Y7299D01*
X18687Y7304D01*
X18702Y7308D01*
X18716D01*
X18730Y7304D01*
X18740Y7294D01*
X18745Y7280D01*
Y7270D01*
X18740Y7256D01*
X18730Y7246D01*
X18716Y7242D01*
X18702D01*
X18687Y7246D01*
X18683Y7251D01*
X18678Y7261D01*
X18815Y7342D02*
X18767Y7275D01*
X18838D01*
X18815Y7342D02*
Y7242D01*
X19028Y7342D02*
Y7242D01*
X18994Y7342D02*
X19061D01*
X19097Y7308D02*
X19087Y7304D01*
X19078Y7294D01*
X19073Y7280D01*
Y7270D01*
X19078Y7256D01*
X19087Y7246D01*
X19097Y7242D01*
X19111D01*
X19120Y7246D01*
X19130Y7256D01*
X19135Y7270D01*
Y7280D01*
X19130Y7294D01*
X19120Y7304D01*
X19111Y7308D01*
X19097D01*
X19171Y7342D02*
Y7261D01*
X19176Y7246D01*
X19185Y7242D01*
X19195D01*
X19157Y7308D02*
X19190D01*
X19266D02*
Y7242D01*
Y7294D02*
X19257Y7304D01*
X19247Y7308D01*
X19233D01*
X19223Y7304D01*
X19214Y7294D01*
X19209Y7280D01*
Y7270D01*
X19214Y7256D01*
X19223Y7246D01*
X19233Y7242D01*
X19247D01*
X19257Y7246D01*
X19266Y7256D01*
X19293Y7342D02*
Y7242D01*
D17*
X1615Y18895D02*
X23615D01*
Y1895D02*
Y18895D01*
X1615Y1895D02*
X23615D01*
X1615D02*
Y18895D01*
D18*
X19301Y2586D02*
X19295Y2598D01*
X19284Y2609D01*
X19273Y2615D01*
X19250D01*
X19238Y2609D01*
X19227Y2598D01*
X19221Y2586D01*
X19215Y2569D01*
Y2541D01*
X19221Y2523D01*
X19227Y2512D01*
X19238Y2501D01*
X19250Y2495D01*
X19273D01*
X19284Y2501D01*
X19295Y2512D01*
X19301Y2523D01*
X21001Y2586D02*
X20995Y2598D01*
X20984Y2609D01*
X20973Y2615D01*
X20950D01*
X20938Y2609D01*
X20927Y2598D01*
X20921Y2586D01*
X20915Y2569D01*
Y2541D01*
X20921Y2523D01*
X20927Y2512D01*
X20938Y2501D01*
X20950Y2495D01*
X20973D01*
X20984Y2501D01*
X20995Y2512D01*
X21001Y2523D01*
Y2541D01*
X20973D02*
X21001D01*
X21029Y2615D02*
Y2495D01*
Y2615D02*
X21069D01*
X21086Y2609D01*
X21097Y2598D01*
X21103Y2586D01*
X21109Y2569D01*
Y2541D01*
X21103Y2523D01*
X21097Y2512D01*
X21086Y2501D01*
X21069Y2495D01*
X21029D01*
X21135Y2592D02*
X21147Y2598D01*
X21164Y2615D01*
Y2495D01*
X19297Y2916D02*
X19307Y2921D01*
X19321Y2935D01*
Y2835D01*
X19437Y2935D02*
X19390Y2835D01*
X19371Y2935D02*
X19437D01*
X19517D02*
X19469D01*
X19465Y2892D01*
X19469Y2897D01*
X19484Y2902D01*
X19498D01*
X19512Y2897D01*
X19522Y2887D01*
X19526Y2873D01*
Y2863D01*
X19522Y2849D01*
X19512Y2840D01*
X19498Y2835D01*
X19484D01*
X19469Y2840D01*
X19465Y2844D01*
X19460Y2854D01*
X19549Y2878D02*
X19634D01*
X19693Y2935D02*
X19678Y2930D01*
X19669Y2916D01*
X19664Y2892D01*
Y2878D01*
X19669Y2854D01*
X19678Y2840D01*
X19693Y2835D01*
X19702D01*
X19716Y2840D01*
X19726Y2854D01*
X19731Y2878D01*
Y2892D01*
X19726Y2916D01*
X19716Y2930D01*
X19702Y2935D01*
X19693D01*
X19782D02*
X19767Y2930D01*
X19758Y2916D01*
X19753Y2892D01*
Y2878D01*
X19758Y2854D01*
X19767Y2840D01*
X19782Y2835D01*
X19791D01*
X19805Y2840D01*
X19815Y2854D01*
X19820Y2878D01*
Y2892D01*
X19815Y2916D01*
X19805Y2930D01*
X19791Y2935D01*
X19782D01*
X19871D02*
X19856Y2930D01*
X19847Y2916D01*
X19842Y2892D01*
Y2878D01*
X19847Y2854D01*
X19856Y2840D01*
X19871Y2835D01*
X19880D01*
X19894Y2840D01*
X19904Y2854D01*
X19909Y2878D01*
Y2892D01*
X19904Y2916D01*
X19894Y2930D01*
X19880Y2935D01*
X19871D01*
X19931Y2916D02*
X19941Y2921D01*
X19955Y2935D01*
Y2835D01*
X20052Y2935D02*
X20004Y2868D01*
X20076D01*
X20052Y2935D02*
Y2835D01*
X20103Y2840D02*
X20098Y2835D01*
X20093Y2840D01*
X20098Y2844D01*
X20103Y2840D01*
Y2830D01*
X20098Y2821D01*
X20093Y2816D01*
X20270Y2921D02*
X20261Y2930D01*
X20246Y2935D01*
X20227D01*
X20213Y2930D01*
X20203Y2921D01*
Y2911D01*
X20208Y2902D01*
X20213Y2897D01*
X20222Y2892D01*
X20251Y2882D01*
X20261Y2878D01*
X20265Y2873D01*
X20270Y2863D01*
Y2849D01*
X20261Y2840D01*
X20246Y2835D01*
X20227D01*
X20213Y2840D01*
X20203Y2849D01*
X20302Y2935D02*
X20307Y2930D01*
X20311Y2935D01*
X20307Y2940D01*
X20302Y2935D01*
X20307Y2902D02*
Y2835D01*
X20329Y2902D02*
Y2835D01*
Y2882D02*
X20343Y2897D01*
X20353Y2902D01*
X20367D01*
X20377Y2897D01*
X20381Y2882D01*
Y2835D01*
X20417Y2935D02*
X20422Y2930D01*
X20427Y2935D01*
X20422Y2940D01*
X20417Y2935D01*
X20422Y2902D02*
Y2835D01*
X20497Y2887D02*
X20492Y2897D01*
X20478Y2902D01*
X20463D01*
X20449Y2897D01*
X20444Y2887D01*
X20449Y2878D01*
X20459Y2873D01*
X20482Y2868D01*
X20492Y2863D01*
X20497Y2854D01*
Y2849D01*
X20492Y2840D01*
X20478Y2835D01*
X20463D01*
X20449Y2840D01*
X20444Y2849D01*
X20532Y2935D02*
Y2854D01*
X20537Y2840D01*
X20546Y2835D01*
X20556D01*
X20518Y2902D02*
X20551D01*
X20570D02*
Y2835D01*
Y2873D02*
X20575Y2887D01*
X20584Y2897D01*
X20594Y2902D01*
X20608D01*
X20641D02*
X20631Y2897D01*
X20622Y2887D01*
X20617Y2873D01*
Y2863D01*
X20622Y2849D01*
X20631Y2840D01*
X20641Y2835D01*
X20655D01*
X20665Y2840D01*
X20674Y2849D01*
X20679Y2863D01*
Y2873D01*
X20674Y2887D01*
X20665Y2897D01*
X20655Y2902D01*
X20641D01*
X20779Y2935D02*
Y2835D01*
Y2935D02*
X20822D01*
X20837Y2930D01*
X20841Y2925D01*
X20846Y2916D01*
Y2906D01*
X20841Y2897D01*
X20837Y2892D01*
X20822Y2887D01*
X20779D02*
X20822D01*
X20837Y2882D01*
X20841Y2878D01*
X20846Y2868D01*
Y2854D01*
X20841Y2844D01*
X20837Y2840D01*
X20822Y2835D01*
X20779D01*
X20926Y2902D02*
Y2835D01*
Y2887D02*
X20916Y2897D01*
X20907Y2902D01*
X20892D01*
X20883Y2897D01*
X20873Y2887D01*
X20868Y2873D01*
Y2863D01*
X20873Y2849D01*
X20883Y2840D01*
X20892Y2835D01*
X20907D01*
X20916Y2840D01*
X20926Y2849D01*
X21009Y2887D02*
X21000Y2897D01*
X20990Y2902D01*
X20976D01*
X20967Y2897D01*
X20957Y2887D01*
X20952Y2873D01*
Y2863D01*
X20957Y2849D01*
X20967Y2840D01*
X20976Y2835D01*
X20990D01*
X21000Y2840D01*
X21009Y2849D01*
X21031Y2935D02*
Y2835D01*
X21078Y2902D02*
X21031Y2854D01*
X21050Y2873D02*
X21083Y2835D01*
X21099Y2902D02*
Y2802D01*
Y2887D02*
X21108Y2897D01*
X21118Y2902D01*
X21132D01*
X21142Y2897D01*
X21151Y2887D01*
X21156Y2873D01*
Y2863D01*
X21151Y2849D01*
X21142Y2840D01*
X21132Y2835D01*
X21118D01*
X21108Y2840D01*
X21099Y2849D01*
X21177Y2935D02*
Y2835D01*
X21256Y2902D02*
Y2835D01*
Y2887D02*
X21246Y2897D01*
X21237Y2902D01*
X21222D01*
X21213Y2897D01*
X21203Y2887D01*
X21198Y2873D01*
Y2863D01*
X21203Y2849D01*
X21213Y2840D01*
X21222Y2835D01*
X21237D01*
X21246Y2840D01*
X21256Y2849D01*
X21282Y2902D02*
Y2835D01*
Y2882D02*
X21296Y2897D01*
X21306Y2902D01*
X21320D01*
X21330Y2897D01*
X21335Y2882D01*
Y2835D01*
X21361Y2873D02*
X21418D01*
Y2882D01*
X21413Y2892D01*
X21408Y2897D01*
X21399Y2902D01*
X21385D01*
X21375Y2897D01*
X21366Y2887D01*
X21361Y2873D01*
Y2863D01*
X21366Y2849D01*
X21375Y2840D01*
X21385Y2835D01*
X21399D01*
X21408Y2840D01*
X21418Y2849D01*
D19*
X2195Y2956D02*
Y2856D01*
Y2956D02*
X2262Y2856D01*
Y2956D02*
Y2856D01*
X2318Y2956D02*
X2309Y2951D01*
X2299Y2942D01*
X2294Y2932D01*
X2290Y2918D01*
Y2894D01*
X2294Y2880D01*
X2299Y2870D01*
X2309Y2861D01*
X2318Y2856D01*
X2337D01*
X2347Y2861D01*
X2356Y2870D01*
X2361Y2880D01*
X2366Y2894D01*
Y2918D01*
X2361Y2932D01*
X2356Y2942D01*
X2347Y2951D01*
X2337Y2956D01*
X2318D01*
X2422D02*
Y2856D01*
X2389Y2956D02*
X2456D01*
X2468D02*
Y2856D01*
X2560Y2932D02*
X2555Y2942D01*
X2546Y2951D01*
X2536Y2956D01*
X2517D01*
X2508Y2951D01*
X2498Y2942D01*
X2493Y2932D01*
X2489Y2918D01*
Y2894D01*
X2493Y2880D01*
X2498Y2870D01*
X2508Y2861D01*
X2517Y2856D01*
X2536D01*
X2546Y2861D01*
X2555Y2870D01*
X2560Y2880D01*
X2650Y2956D02*
X2588D01*
Y2856D01*
X2650D01*
X2588Y2908D02*
X2626D01*
X22465Y3224D02*
X22474Y3228D01*
X22487Y3241D01*
Y3151D01*
X22606Y3211D02*
X22602Y3207D01*
X22606Y3202D01*
X22611Y3207D01*
X22606Y3211D01*
Y3159D02*
X22602Y3155D01*
X22606Y3151D01*
X22611Y3155D01*
X22606Y3159D01*
X22701Y3224D02*
X22710Y3228D01*
X22722Y3241D01*
Y3151D01*
X17942Y9385D02*
X17930Y9396D01*
X17913Y9402D01*
X17890D01*
X17873Y9396D01*
X17862Y9385D01*
Y9373D01*
X17867Y9362D01*
X17873Y9356D01*
X17884Y9350D01*
X17919Y9339D01*
X17930Y9333D01*
X17936Y9327D01*
X17942Y9316D01*
Y9299D01*
X17930Y9287D01*
X17913Y9282D01*
X17890D01*
X17873Y9287D01*
X17862Y9299D01*
X17974Y9362D02*
X18008Y9282D01*
X18043Y9362D02*
X18008Y9282D01*
X17997Y9259D01*
X17986Y9247D01*
X17974Y9242D01*
X17968D01*
X18063Y9362D02*
Y9282D01*
Y9339D02*
X18080Y9356D01*
X18091Y9362D01*
X18108D01*
X18120Y9356D01*
X18125Y9339D01*
Y9282D01*
Y9339D02*
X18143Y9356D01*
X18154Y9362D01*
X18171D01*
X18183Y9356D01*
X18188Y9339D01*
Y9282D01*
X18226Y9402D02*
Y9282D01*
Y9345D02*
X18237Y9356D01*
X18249Y9362D01*
X18266D01*
X18277Y9356D01*
X18289Y9345D01*
X18295Y9327D01*
Y9316D01*
X18289Y9299D01*
X18277Y9287D01*
X18266Y9282D01*
X18249D01*
X18237Y9287D01*
X18226Y9299D01*
X18349Y9362D02*
X18337Y9356D01*
X18326Y9345D01*
X18320Y9327D01*
Y9316D01*
X18326Y9299D01*
X18337Y9287D01*
X18349Y9282D01*
X18366D01*
X18377Y9287D01*
X18389Y9299D01*
X18395Y9316D01*
Y9327D01*
X18389Y9345D01*
X18377Y9356D01*
X18366Y9362D01*
X18349D01*
X18421Y9402D02*
Y9282D01*
X18589Y9402D02*
Y9282D01*
X18669Y9402D02*
Y9282D01*
X18589Y9345D02*
X18669D01*
X18713Y9402D02*
X18719Y9396D01*
X18725Y9402D01*
X18719Y9407D01*
X18713Y9402D01*
X18719Y9362D02*
Y9282D01*
X18763Y9402D02*
Y9305D01*
X18769Y9287D01*
X18780Y9282D01*
X18792D01*
X18746Y9362D02*
X18786D01*
X18989Y9373D02*
X18983Y9385D01*
X18972Y9396D01*
X18960Y9402D01*
X18937D01*
X18926Y9396D01*
X18915Y9385D01*
X18909Y9373D01*
X18903Y9356D01*
Y9327D01*
X18909Y9310D01*
X18915Y9299D01*
X18926Y9287D01*
X18937Y9282D01*
X18960D01*
X18972Y9287D01*
X18983Y9299D01*
X18989Y9310D01*
X19051Y9362D02*
X19040Y9356D01*
X19028Y9345D01*
X19022Y9327D01*
Y9316D01*
X19028Y9299D01*
X19040Y9287D01*
X19051Y9282D01*
X19068D01*
X19080Y9287D01*
X19091Y9299D01*
X19097Y9316D01*
Y9327D01*
X19091Y9345D01*
X19080Y9356D01*
X19068Y9362D01*
X19051D01*
X19123D02*
Y9305D01*
X19129Y9287D01*
X19140Y9282D01*
X19157D01*
X19169Y9287D01*
X19186Y9305D01*
Y9362D02*
Y9282D01*
X19217Y9362D02*
Y9282D01*
Y9339D02*
X19234Y9356D01*
X19246Y9362D01*
X19263D01*
X19274Y9356D01*
X19280Y9339D01*
Y9282D01*
X19329Y9402D02*
Y9305D01*
X19334Y9287D01*
X19346Y9282D01*
X19357D01*
X19312Y9362D02*
X19352D01*
X19565Y9402D02*
Y9282D01*
X19525Y9402D02*
X19605D01*
X19648Y9362D02*
X19637Y9356D01*
X19625Y9345D01*
X19620Y9327D01*
Y9316D01*
X19625Y9299D01*
X19637Y9287D01*
X19648Y9282D01*
X19665D01*
X19677Y9287D01*
X19688Y9299D01*
X19694Y9316D01*
Y9327D01*
X19688Y9345D01*
X19677Y9356D01*
X19665Y9362D01*
X19648D01*
X19749D02*
X19737Y9356D01*
X19726Y9345D01*
X19720Y9327D01*
Y9316D01*
X19726Y9299D01*
X19737Y9287D01*
X19749Y9282D01*
X19766D01*
X19777Y9287D01*
X19789Y9299D01*
X19794Y9316D01*
Y9327D01*
X19789Y9345D01*
X19777Y9356D01*
X19766Y9362D01*
X19749D01*
X19821Y9402D02*
Y9282D01*
X20020Y9385D02*
X20009Y9396D01*
X19991Y9402D01*
X19969D01*
X19951Y9396D01*
X19940Y9385D01*
Y9373D01*
X19946Y9362D01*
X19951Y9356D01*
X19963Y9350D01*
X19997Y9339D01*
X20009Y9333D01*
X20014Y9327D01*
X20020Y9316D01*
Y9299D01*
X20009Y9287D01*
X19991Y9282D01*
X19969D01*
X19951Y9287D01*
X19940Y9299D01*
X20058Y9402D02*
X20064Y9396D01*
X20070Y9402D01*
X20064Y9407D01*
X20058Y9402D01*
X20064Y9362D02*
Y9282D01*
X20154Y9362D02*
X20091Y9282D01*
Y9362D02*
X20154D01*
X20091Y9282D02*
X20154D01*
X20179Y9327D02*
X20247D01*
Y9339D01*
X20242Y9350D01*
X20236Y9356D01*
X20225Y9362D01*
X20207D01*
X20196Y9356D01*
X20185Y9345D01*
X20179Y9327D01*
Y9316D01*
X20185Y9299D01*
X20196Y9287D01*
X20207Y9282D01*
X20225D01*
X20236Y9287D01*
X20247Y9299D01*
X20998Y9339D02*
X21049D01*
X21066Y9345D01*
X21072Y9350D01*
X21078Y9362D01*
Y9379D01*
X21072Y9390D01*
X21066Y9396D01*
X21049Y9402D01*
X20998D01*
Y9282D01*
X21104Y9402D02*
Y9282D01*
X21198Y9362D02*
Y9282D01*
Y9345D02*
X21187Y9356D01*
X21175Y9362D01*
X21158D01*
X21147Y9356D01*
X21135Y9345D01*
X21130Y9327D01*
Y9316D01*
X21135Y9299D01*
X21147Y9287D01*
X21158Y9282D01*
X21175D01*
X21187Y9287D01*
X21198Y9299D01*
X21247Y9402D02*
Y9305D01*
X21253Y9287D01*
X21264Y9282D01*
X21276D01*
X21230Y9362D02*
X21270D01*
X21293Y9327D02*
X21362D01*
Y9339D01*
X21356Y9350D01*
X21350Y9356D01*
X21339Y9362D01*
X21322D01*
X21310Y9356D01*
X21299Y9345D01*
X21293Y9327D01*
Y9316D01*
X21299Y9299D01*
X21310Y9287D01*
X21322Y9282D01*
X21339D01*
X21350Y9287D01*
X21362Y9299D01*
X21456Y9402D02*
Y9282D01*
Y9345D02*
X21444Y9356D01*
X21433Y9362D01*
X21416D01*
X21404Y9356D01*
X21393Y9345D01*
X21387Y9327D01*
Y9316D01*
X21393Y9299D01*
X21404Y9287D01*
X21416Y9282D01*
X21433D01*
X21444Y9287D01*
X21456Y9299D01*
X21624Y9402D02*
Y9282D01*
X21704Y9402D02*
Y9282D01*
X21624Y9345D02*
X21704D01*
X21766Y9362D02*
X21754Y9356D01*
X21743Y9345D01*
X21737Y9327D01*
Y9316D01*
X21743Y9299D01*
X21754Y9287D01*
X21766Y9282D01*
X21783D01*
X21794Y9287D01*
X21806Y9299D01*
X21811Y9316D01*
Y9327D01*
X21806Y9345D01*
X21794Y9356D01*
X21783Y9362D01*
X21766D01*
X21838Y9402D02*
Y9282D01*
X21863Y9327D02*
X21931D01*
Y9339D01*
X21925Y9350D01*
X21920Y9356D01*
X21908Y9362D01*
X21891D01*
X21880Y9356D01*
X21868Y9345D01*
X21863Y9327D01*
Y9316D01*
X21868Y9299D01*
X21880Y9287D01*
X21891Y9282D01*
X21908D01*
X21920Y9287D01*
X21931Y9299D01*
X22091Y9402D02*
Y9282D01*
X22051Y9402D02*
X22131D01*
X22151Y9362D02*
X22185Y9282D01*
X22220Y9362D02*
X22185Y9282D01*
X22174Y9259D01*
X22163Y9247D01*
X22151Y9242D01*
X22145D01*
X22240Y9362D02*
Y9242D01*
Y9345D02*
X22251Y9356D01*
X22263Y9362D01*
X22280D01*
X22291Y9356D01*
X22303Y9345D01*
X22308Y9327D01*
Y9316D01*
X22303Y9299D01*
X22291Y9287D01*
X22280Y9282D01*
X22263D01*
X22251Y9287D01*
X22240Y9299D01*
X22334Y9327D02*
X22403D01*
Y9339D01*
X22397Y9350D01*
X22391Y9356D01*
X22380Y9362D01*
X22363D01*
X22351Y9356D01*
X22340Y9345D01*
X22334Y9327D01*
Y9316D01*
X22340Y9299D01*
X22351Y9287D01*
X22363Y9282D01*
X22380D01*
X22391Y9287D01*
X22403Y9299D01*
X17726Y9462D02*
X22571D01*
X17726Y9192D02*
X22571D01*
X17726Y9462D02*
Y7192D01*
X22571Y9462D02*
Y7192D01*
X18521Y9462D02*
Y7192D01*
X19457Y9462D02*
Y7192D01*
X20930Y9462D02*
Y7192D01*
X21556Y9462D02*
Y7192D01*
X17726Y7392D02*
X22571D01*
X17726Y7192D02*
X22571D01*
D20*
X20606Y2567D02*
X20717D01*
X21760Y2616D02*
X21773Y2622D01*
X21791Y2641D01*
Y2511D01*
D21*
X19080Y3301D02*
Y3269D01*
Y3301D02*
X19091D01*
X19096Y3300D01*
X19099Y3297D01*
X19100Y3293D01*
X19102Y3289D01*
Y3281D01*
X19100Y3277D01*
X19099Y3274D01*
X19096Y3271D01*
X19091Y3269D01*
X19080D01*
X19129Y3301D02*
X19109D01*
Y3269D01*
X19129D01*
X19109Y3286D02*
X19121D01*
X19155Y3297D02*
X19152Y3300D01*
X19148Y3301D01*
X19142D01*
X19137Y3300D01*
X19134Y3297D01*
Y3293D01*
X19136Y3290D01*
X19137Y3289D01*
X19140Y3287D01*
X19149Y3284D01*
X19152Y3283D01*
X19154Y3281D01*
X19155Y3278D01*
Y3274D01*
X19152Y3271D01*
X19148Y3269D01*
X19142D01*
X19137Y3271D01*
X19134Y3274D01*
X19163Y3301D02*
Y3269D01*
X19192Y3293D02*
X19191Y3297D01*
X19188Y3300D01*
X19184Y3301D01*
X19178D01*
X19175Y3300D01*
X19172Y3297D01*
X19171Y3293D01*
X19169Y3289D01*
Y3281D01*
X19171Y3277D01*
X19172Y3274D01*
X19175Y3271D01*
X19178Y3269D01*
X19184D01*
X19188Y3271D01*
X19191Y3274D01*
X19192Y3277D01*
Y3281D01*
X19184D02*
X19192D01*
X19199Y3301D02*
Y3269D01*
Y3301D02*
X19221Y3269D01*
Y3301D02*
Y3269D01*
X19249Y3301D02*
X19230D01*
Y3269D01*
X19249D01*
X19230Y3286D02*
X19242D01*
X19255Y3301D02*
Y3269D01*
Y3301D02*
X19265D01*
X19270Y3300D01*
X19273Y3297D01*
X19274Y3293D01*
X19276Y3289D01*
Y3281D01*
X19274Y3277D01*
X19273Y3274D01*
X19270Y3271D01*
X19265Y3269D01*
X19255D01*
X20630Y3301D02*
Y3269D01*
Y3301D02*
X20641D01*
X20646Y3300D01*
X20649Y3297D01*
X20650Y3293D01*
X20652Y3289D01*
Y3281D01*
X20650Y3277D01*
X20649Y3274D01*
X20646Y3271D01*
X20641Y3269D01*
X20630D01*
X20659Y3301D02*
Y3269D01*
Y3301D02*
X20673D01*
X20677Y3300D01*
X20679Y3298D01*
X20680Y3295D01*
Y3292D01*
X20679Y3289D01*
X20677Y3287D01*
X20673Y3286D01*
X20659D01*
X20670D02*
X20680Y3269D01*
X20712D02*
X20700Y3301D01*
X20687Y3269D01*
X20692Y3280D02*
X20707D01*
X20719Y3301D02*
X20727Y3269D01*
X20734Y3301D02*
X20727Y3269D01*
X20734Y3301D02*
X20742Y3269D01*
X20750Y3301D02*
X20742Y3269D01*
X20756Y3301D02*
Y3269D01*
Y3301D02*
X20777Y3269D01*
Y3301D02*
Y3269D01*
X22202Y3297D02*
X22199Y3300D01*
X22194Y3301D01*
X22188D01*
X22183Y3300D01*
X22180Y3297D01*
Y3293D01*
X22182Y3290D01*
X22183Y3289D01*
X22186Y3287D01*
X22196Y3284D01*
X22199Y3283D01*
X22200Y3281D01*
X22202Y3278D01*
Y3274D01*
X22199Y3271D01*
X22194Y3269D01*
X22188D01*
X22183Y3271D01*
X22180Y3274D01*
X22232Y3293D02*
X22230Y3297D01*
X22227Y3300D01*
X22224Y3301D01*
X22218D01*
X22215Y3300D01*
X22212Y3297D01*
X22210Y3293D01*
X22209Y3289D01*
Y3281D01*
X22210Y3277D01*
X22212Y3274D01*
X22215Y3271D01*
X22218Y3269D01*
X22224D01*
X22227Y3271D01*
X22230Y3274D01*
X22232Y3277D01*
X22265Y3269D02*
X22253Y3301D01*
X22241Y3269D01*
X22245Y3280D02*
X22261D01*
X22273Y3301D02*
Y3269D01*
X22291D01*
X22314Y3301D02*
X22294D01*
Y3269D01*
X22314D01*
X22294Y3286D02*
X22307D01*
X19091Y3011D02*
Y2979D01*
X19080Y3011D02*
X19102D01*
X19106D02*
Y2979D01*
X19123Y3011D02*
Y2979D01*
X19112Y3011D02*
X19134D01*
X19137D02*
Y2979D01*
X19156D01*
X19179Y3011D02*
X19159D01*
Y2979D01*
X19179D01*
X19159Y2996D02*
X19171D01*
X19102Y2677D02*
X19099Y2680D01*
X19094Y2681D01*
X19088D01*
X19083Y2680D01*
X19080Y2677D01*
Y2673D01*
X19082Y2670D01*
X19083Y2669D01*
X19086Y2667D01*
X19096Y2664D01*
X19099Y2663D01*
X19100Y2661D01*
X19102Y2658D01*
Y2654D01*
X19099Y2651D01*
X19094Y2649D01*
X19088D01*
X19083Y2651D01*
X19080Y2654D01*
X19109Y2681D02*
Y2649D01*
X19137Y2681D02*
X19116Y2649D01*
Y2681D02*
X19137D01*
X19116Y2649D02*
X19137D01*
X19164Y2681D02*
X19144D01*
Y2649D01*
X19164D01*
X19144Y2666D02*
X19156D01*
X19540Y2681D02*
Y2649D01*
Y2681D02*
X19551D01*
X19556Y2680D01*
X19559Y2677D01*
X19560Y2673D01*
X19562Y2669D01*
Y2661D01*
X19560Y2657D01*
X19559Y2654D01*
X19556Y2651D01*
X19551Y2649D01*
X19540D01*
X19578Y2681D02*
X19575Y2680D01*
X19572Y2677D01*
X19570Y2673D01*
X19569Y2669D01*
Y2661D01*
X19570Y2657D01*
X19572Y2654D01*
X19575Y2651D01*
X19578Y2649D01*
X19584D01*
X19587Y2651D01*
X19590Y2654D01*
X19592Y2657D01*
X19593Y2661D01*
Y2669D01*
X19592Y2673D01*
X19590Y2677D01*
X19587Y2680D01*
X19584Y2681D01*
X19578D01*
X19624Y2673D02*
X19622Y2677D01*
X19619Y2680D01*
X19616Y2681D01*
X19610D01*
X19607Y2680D01*
X19604Y2677D01*
X19602Y2673D01*
X19601Y2669D01*
Y2661D01*
X19602Y2657D01*
X19604Y2654D01*
X19607Y2651D01*
X19610Y2649D01*
X19616D01*
X19619Y2651D01*
X19622Y2654D01*
X19624Y2657D01*
X19658Y2681D02*
Y2649D01*
Y2681D02*
X19679Y2649D01*
Y2681D02*
Y2649D01*
X19697Y2681D02*
X19694Y2680D01*
X19691Y2677D01*
X19689Y2673D01*
X19688Y2669D01*
Y2661D01*
X19689Y2657D01*
X19691Y2654D01*
X19694Y2651D01*
X19697Y2649D01*
X19703D01*
X19706Y2651D01*
X19709Y2654D01*
X19711Y2657D01*
X19712Y2661D01*
Y2669D01*
X19711Y2673D01*
X19709Y2677D01*
X19706Y2680D01*
X19703Y2681D01*
X19697D01*
X19721Y2652D02*
X19720Y2651D01*
X19721Y2649D01*
X19723Y2651D01*
X19721Y2652D01*
X22102Y2677D02*
X22099Y2680D01*
X22094Y2681D01*
X22088D01*
X22083Y2680D01*
X22080Y2677D01*
Y2673D01*
X22082Y2670D01*
X22083Y2669D01*
X22086Y2667D01*
X22096Y2664D01*
X22099Y2663D01*
X22100Y2661D01*
X22102Y2658D01*
Y2654D01*
X22099Y2651D01*
X22094Y2649D01*
X22088D01*
X22083Y2651D01*
X22080Y2654D01*
X22109Y2681D02*
Y2649D01*
X22130Y2681D02*
Y2649D01*
X22109Y2666D02*
X22130D01*
X22159Y2681D02*
X22139D01*
Y2649D01*
X22159D01*
X22139Y2666D02*
X22151D01*
X22184Y2681D02*
X22164D01*
Y2649D01*
X22184D01*
X22164Y2666D02*
X22176D01*
X22200Y2681D02*
Y2649D01*
X22189Y2681D02*
X22211D01*
X21620D02*
Y2649D01*
Y2681D02*
X21634D01*
X21639Y2680D01*
X21640Y2678D01*
X21642Y2675D01*
Y2672D01*
X21640Y2669D01*
X21639Y2667D01*
X21634Y2666D01*
X21620D01*
X21631D02*
X21642Y2649D01*
X21669Y2681D02*
X21649D01*
Y2649D01*
X21669D01*
X21649Y2666D02*
X21661D01*
X21674Y2681D02*
X21686Y2649D01*
X21698Y2681D02*
X21686Y2649D01*
D22*
X17942Y8492D02*
X17940Y8502D01*
X17937Y8511D01*
X17931Y8519D01*
X17923Y8525D01*
X17914Y8530D01*
X17904Y8532D01*
X17894Y8531D01*
X17885Y8528D01*
X17876Y8523D01*
X17869Y8515D01*
X17864Y8506D01*
X17862Y8497D01*
Y8487D01*
X17864Y8477D01*
X17869Y8468D01*
X17876Y8461D01*
X17885Y8456D01*
X17894Y8452D01*
X17904Y8452D01*
X17914Y8454D01*
X17923Y8458D01*
X17931Y8464D01*
X17937Y8472D01*
X17940Y8482D01*
X17942Y8492D01*
M02*
