%FSLAX23Y23*%
%MOIN*%
G70*
G01*
G75*
G04 Layer_Physical_Order=2*
G04 Layer_Color=36540*
%ADD10O,0.010X0.061*%
%ADD11O,0.061X0.010*%
%ADD12R,0.037X0.035*%
%ADD13R,0.037X0.035*%
%ADD14R,0.035X0.037*%
%ADD15R,0.035X0.037*%
%ADD16R,0.138X0.085*%
%ADD17R,0.043X0.085*%
%ADD18R,0.043X0.085*%
%ADD19R,0.135X0.070*%
%ADD20R,0.028X0.036*%
%ADD21R,0.036X0.036*%
%ADD22R,0.036X0.036*%
%ADD23R,0.100X0.100*%
%ADD24R,0.060X0.086*%
%ADD25R,0.045X0.017*%
%ADD26R,0.031X0.060*%
%ADD27R,0.014X0.060*%
%ADD28R,0.030X0.100*%
%ADD29R,0.228X0.228*%
%ADD30O,0.008X0.033*%
%ADD31O,0.033X0.008*%
%ADD32O,0.024X0.087*%
%ADD33R,0.050X0.050*%
%ADD34R,0.070X0.135*%
%ADD35O,0.098X0.028*%
%ADD36R,0.050X0.050*%
%ADD37R,0.085X0.043*%
%ADD38R,0.085X0.043*%
%ADD39R,0.085X0.138*%
%ADD40R,0.048X0.078*%
%ADD41C,0.040*%
%ADD42C,0.010*%
%ADD43C,0.005*%
%ADD44C,0.020*%
%ADD45C,0.007*%
%ADD46C,0.012*%
%ADD47R,1.181X0.787*%
%ADD48C,0.008*%
%ADD49C,0.012*%
%ADD50C,0.012*%
%ADD51C,0.020*%
%ADD52C,0.026*%
%ADD53R,0.059X0.059*%
%ADD54C,0.059*%
%ADD55C,0.236*%
%ADD56C,0.050*%
%ADD57C,0.024*%
D42*
X26041Y16649D02*
X26591D01*
X25915Y16523D02*
X26041Y16649D01*
X25915Y16429D02*
Y16523D01*
X25764Y16278D02*
X25915Y16429D01*
X25630Y16278D02*
X25764D01*
X25413Y16062D02*
X25630Y16278D01*
X24987Y18468D02*
X25122D01*
X25187Y18403D01*
X25447Y18263D02*
X25492D01*
X25212Y18498D02*
X25447Y18263D01*
X25116Y18379D02*
Y18404D01*
X25257Y18238D02*
X25627D01*
X25077Y18443D02*
X25116Y18404D01*
Y18379D02*
X25257Y18238D01*
X25314Y18551D02*
X25437Y18428D01*
Y18363D02*
Y18428D01*
X23914Y18468D02*
X24049D01*
X24114Y18403D01*
X24374Y18263D02*
X24419D01*
X24139Y18498D02*
X24374Y18263D01*
X24043Y18379D02*
Y18404D01*
X24185Y18238D02*
X24554D01*
X24004Y18443D02*
X24043Y18404D01*
Y18379D02*
X24185Y18238D01*
X24241Y18551D02*
X24364Y18428D01*
Y18363D02*
Y18428D01*
X22842Y18468D02*
X22977D01*
X23042Y18403D01*
X23302Y18263D02*
X23347D01*
X23067Y18498D02*
X23302Y18263D01*
X22971Y18379D02*
Y18404D01*
X23112Y18238D02*
X23482D01*
X22932Y18443D02*
X22971Y18404D01*
Y18379D02*
X23112Y18238D01*
X23168Y18551D02*
X23291Y18428D01*
Y18363D02*
Y18428D01*
X22095Y18551D02*
X22218Y18428D01*
Y18363D02*
Y18428D01*
X21712Y16768D02*
X21713Y16768D01*
X21994Y18498D02*
X22229Y18263D01*
X22274D01*
X21904Y18468D02*
X21969Y18403D01*
X21769Y18468D02*
X21904D01*
X21898Y18379D02*
X22039Y18238D01*
X21859Y18443D02*
X21898Y18404D01*
X22039Y18238D02*
X22409D01*
X21898Y18379D02*
Y18404D01*
X26429Y16293D02*
X26520Y16384D01*
X26885D02*
X26994Y16493D01*
X27044Y16453D02*
Y16468D01*
X27019Y16493D02*
X27044Y16468D01*
X26994Y16493D02*
X27019D01*
X26520Y16384D02*
X26885D01*
X25206Y15855D02*
X25413Y16062D01*
X25186Y15855D02*
X25206D01*
X25228Y19062D02*
Y19063D01*
X21712Y17930D02*
X21713Y17929D01*
X22598Y17930D02*
X22599Y17929D01*
X23484Y17930D02*
X23484Y17929D01*
X24370Y17930D02*
X24370Y17929D01*
X25256Y17930D02*
X25256Y17929D01*
X21712Y17339D02*
X21713Y17339D01*
X22598Y17339D02*
X22599Y17339D01*
X23484Y17339D02*
X23484Y17339D01*
X24370Y17339D02*
X24370Y17339D01*
X25256Y17339D02*
X25256Y17339D01*
X22598Y16768D02*
X22599Y16768D01*
X23484Y16768D02*
X23484Y16768D01*
X24370Y16768D02*
X24370Y16768D01*
X25256Y16768D02*
X25256Y16768D01*
D43*
X26341Y19250D02*
X26349Y19258D01*
X26341Y19164D02*
Y19250D01*
X26349Y19123D02*
Y19157D01*
X26341Y19164D02*
X26349Y19157D01*
X26343Y19258D02*
X26347Y19262D01*
X26348D01*
X26349Y19261D01*
X26335Y19109D02*
X26349Y19123D01*
X26335Y18582D02*
Y19109D01*
X25547Y18580D02*
X25590D01*
X25684Y18486D01*
Y18428D02*
Y18486D01*
X24474Y18580D02*
X24517D01*
X24611Y18428D02*
Y18486D01*
X24517Y18580D02*
X24611Y18486D01*
X23444Y18580D02*
X23538Y18486D01*
X23401Y18580D02*
X23444D01*
X23538Y18428D02*
Y18486D01*
X22465Y18428D02*
Y18486D01*
X22371Y18580D02*
X22465Y18486D01*
X22328Y18580D02*
X22371D01*
X27081Y18760D02*
Y18810D01*
X26981D02*
X27045Y18746D01*
Y18695D02*
Y18746D01*
X27094Y18646D02*
X27096D01*
X27045Y18695D02*
X27094Y18646D01*
X26981Y18710D02*
X27045Y18646D01*
X26981Y18610D02*
X27036Y18555D01*
X26981Y18510D02*
X27027Y18464D01*
X27081Y18673D02*
Y18710D01*
X27113Y18373D02*
X27117Y18377D01*
X27117Y18364D02*
X27126Y18374D01*
X27121Y18355D02*
X27135Y18370D01*
X27108Y18355D02*
X27121D01*
X27125Y18346D02*
X27144Y18366D01*
X27112Y18346D02*
X27125D01*
X27081Y18560D02*
Y18610D01*
Y18560D02*
X27117Y18524D01*
X27144Y18366D02*
Y18697D01*
X27135Y18370D02*
Y18619D01*
X27126Y18374D02*
Y18615D01*
X27092Y18364D02*
X27117D01*
X27088Y18373D02*
X27113D01*
X27117Y18377D02*
Y18524D01*
X27096Y18646D02*
X27126Y18615D01*
X27081Y18673D02*
X27135Y18619D01*
X27081Y18760D02*
X27144Y18697D01*
X27045Y18377D02*
Y18442D01*
Y18454D02*
Y18646D01*
X27036Y18445D02*
X27045Y18454D01*
X27036Y18374D02*
Y18445D01*
Y18458D02*
Y18555D01*
X27027Y18449D02*
X27036Y18458D01*
X27027Y18370D02*
Y18449D01*
Y18462D02*
Y18464D01*
X27018Y18453D02*
X27027Y18462D01*
X27018Y18366D02*
Y18453D01*
Y18366D02*
X27036Y18348D01*
X27027Y18336D02*
Y18344D01*
X27081Y18478D02*
Y18510D01*
X27045Y18442D02*
X27081Y18478D01*
X26981Y18390D02*
X27027Y18344D01*
X27027Y18370D02*
X27045Y18352D01*
X27036Y18374D02*
X27054Y18356D01*
X27045Y18377D02*
X27063Y18359D01*
X26981Y18390D02*
Y18410D01*
X27081Y18379D02*
Y18410D01*
Y18367D02*
X27088Y18373D01*
X27090Y18363D02*
X27092Y18364D01*
X27099Y18347D02*
X27108Y18355D01*
X27108Y18343D02*
X27112Y18346D01*
X27072Y18370D02*
X27081Y18379D01*
X26945Y18824D02*
X26966Y18846D01*
X27017D02*
X27081Y18910D01*
X26966Y18846D02*
X27017D01*
X26936Y18864D02*
X26981Y18910D01*
X27032Y19010D02*
X27081D01*
X26994Y18973D02*
X26996D01*
X26927Y18906D02*
X26994Y18973D01*
X26996D02*
X27032Y19010D01*
X26918Y18946D02*
X26981Y19010D01*
X27032Y19110D02*
X27081D01*
X26994Y19073D02*
X26996D01*
X26909Y18988D02*
X26994Y19073D01*
X26996D02*
X27032Y19110D01*
X26900Y19028D02*
X26981Y19110D01*
X27032Y19210D02*
X27081D01*
X26994Y19173D02*
X26996D01*
X26891Y19070D02*
X26994Y19173D01*
X26996D02*
X27032Y19210D01*
X26882Y19110D02*
X26981Y19210D01*
X27032Y19310D02*
X27081D01*
X26994Y19273D02*
X26996D01*
X26872Y19151D02*
X26994Y19273D01*
X26996D02*
X27032Y19310D01*
X26863Y19192D02*
X26981Y19310D01*
X27032Y19410D02*
X27081D01*
X26994Y19373D02*
X26996D01*
X26854Y19233D02*
X26994Y19373D01*
X26996D02*
X27032Y19410D01*
X26854Y18922D02*
Y19233D01*
X26784Y18851D02*
X26854Y18922D01*
X26784Y18816D02*
Y18851D01*
Y18816D02*
X26854Y18745D01*
X26845Y19274D02*
X26981Y19410D01*
X26845Y18925D02*
Y19274D01*
X26775Y18812D02*
Y18855D01*
X26845Y18710D02*
Y18742D01*
X26775Y18855D02*
X26845Y18925D01*
X26775Y18812D02*
X26845Y18742D01*
X27032Y19510D02*
X27081D01*
X26989Y19468D02*
X26991D01*
X26836Y19315D02*
X26989Y19468D01*
X26991D02*
X27032Y19510D01*
X26836Y18938D02*
Y19315D01*
X26766Y18808D02*
Y18867D01*
X26836Y18938D01*
X26766Y18808D02*
X26836Y18738D01*
Y18714D02*
Y18738D01*
X26845Y18710D02*
X26845D01*
X26691Y18575D02*
X26700Y18566D01*
Y18556D02*
Y18566D01*
X26682Y18571D02*
X26691Y18562D01*
Y18560D02*
Y18562D01*
X26830Y18707D02*
X26836Y18714D01*
X26833Y18698D02*
X26845Y18710D01*
X26811Y18698D02*
X26820Y18689D01*
X26796Y18698D02*
X26811D01*
X26785Y18687D02*
X26796Y18698D01*
X26824D02*
X26833D01*
X26815Y18707D02*
X26824Y18698D01*
X26792Y18707D02*
X26815D01*
X26827D02*
X26830D01*
X26818Y18716D02*
X26827Y18707D01*
X26788Y18716D02*
X26818D01*
X26785Y18628D02*
Y18687D01*
X26682Y18610D02*
X26788Y18716D01*
X26691Y18606D02*
X26792Y18707D01*
X26691Y18575D02*
Y18606D01*
X26682Y18571D02*
Y18610D01*
X26837Y18689D02*
X26854Y18706D01*
X26820Y18689D02*
X26837D01*
X26621Y18340D02*
X26909Y18628D01*
X26569Y18349D02*
X26900Y18680D01*
X26565Y18358D02*
X26891Y18684D01*
X26561Y18367D02*
X26882Y18688D01*
X26557Y18376D02*
X26872Y18690D01*
X26554Y18385D02*
X26863Y18694D01*
X26550Y18394D02*
X26785Y18628D01*
X26546Y18403D02*
X26700Y18556D01*
X26542Y18412D02*
X26691Y18560D01*
X26625Y18331D02*
X26918Y18624D01*
X26629Y18322D02*
X26927Y18620D01*
X26632Y18313D02*
X26936Y18616D01*
X26636Y18304D02*
X26945Y18613D01*
X26854Y18706D02*
Y18745D01*
X26863Y18694D02*
Y19192D01*
X26872Y18690D02*
Y19151D01*
X26882Y18688D02*
Y19110D01*
X26891Y18684D02*
Y19070D01*
X26900Y18680D02*
Y19028D01*
X26909Y18628D02*
Y18988D01*
X26918Y18624D02*
Y18946D01*
X26927Y18620D02*
Y18906D01*
X26936Y18616D02*
Y18864D01*
X26945Y18613D02*
Y18824D01*
X27012Y18232D02*
X27090Y18309D01*
X27016Y18223D02*
X27099Y18306D01*
X27020Y18214D02*
X27108Y18302D01*
X27003Y18214D02*
X27020D01*
X26999Y18218D02*
X27003Y18214D01*
X26969Y18218D02*
X26999D01*
X26965Y18214D02*
X26969Y18218D01*
X27007Y18223D02*
X27016D01*
X27003Y18227D02*
X27007Y18223D01*
X26965Y18227D02*
X27003D01*
X26961Y18223D02*
X26965Y18227D01*
X27011Y18232D02*
X27012D01*
X27006Y18236D02*
X27011Y18232D01*
X26962Y18236D02*
X27006D01*
X26957Y18232D02*
X26962Y18236D01*
X26954Y18241D02*
X26958Y18245D01*
X27009Y18254D02*
X27072Y18317D01*
X26954Y18254D02*
X27009D01*
X26950Y18250D02*
X26954Y18254D01*
X27005Y18263D02*
X27063Y18321D01*
X26950Y18263D02*
X27005D01*
X26946Y18259D02*
X26950Y18263D01*
X27002Y18272D02*
X27054Y18324D01*
X26947Y18272D02*
X27002D01*
X26942Y18268D02*
X26947Y18272D01*
X26998Y18281D02*
X27045Y18328D01*
X26943Y18281D02*
X26998D01*
X26939Y18277D02*
X26943Y18281D01*
X26994Y18290D02*
X27036Y18332D01*
X26939Y18290D02*
X26994D01*
X26935Y18286D02*
X26939Y18290D01*
X26991Y18299D02*
X27027Y18336D01*
X26936Y18299D02*
X26991D01*
X26931Y18295D02*
X26936Y18299D01*
X27013Y18245D02*
X27081Y18313D01*
X26958Y18245D02*
X27013D01*
X27063Y18321D02*
Y18359D01*
X27072Y18317D02*
Y18370D01*
X27081Y18313D02*
Y18367D01*
X27090Y18309D02*
Y18363D01*
X27099Y18306D02*
Y18347D01*
X27108Y18302D02*
Y18343D01*
X27054Y18324D02*
Y18356D01*
X27045Y18328D02*
Y18352D01*
X27036Y18332D02*
Y18348D01*
X26093Y18313D02*
X26632D01*
X26097Y18304D02*
X26636D01*
X26101Y18295D02*
X26931D01*
X26104Y18286D02*
X26935D01*
X26108Y18277D02*
X26939D01*
X26112Y18268D02*
X26942D01*
X26116Y18259D02*
X26946D01*
X26123Y18241D02*
X26954D01*
X26127Y18232D02*
X26957D01*
X26131Y18223D02*
X26961D01*
X26134Y18214D02*
X26965D01*
X26093Y18331D02*
X26625D01*
X26099Y18340D02*
X26621D01*
X26103Y18349D02*
X26569D01*
X26107Y18358D02*
X26565D01*
X26111Y18367D02*
X26561D01*
X26114Y18376D02*
X26557D01*
X26118Y18385D02*
X26554D01*
X26126Y18403D02*
X26546D01*
X26129Y18412D02*
X26542D01*
X26013Y18528D02*
X26129Y18412D01*
X25846Y18509D02*
X26019D01*
X25844Y18507D02*
X25846Y18509D01*
X26019D02*
X26126Y18403D01*
X25818Y18528D02*
X26013D01*
X26122Y18394D02*
X26550D01*
X25870Y18490D02*
X26025D01*
X25865Y18486D02*
X25870Y18490D01*
X26025D02*
X26122Y18394D01*
X26031Y18471D02*
X26118Y18385D01*
X25893Y18471D02*
X26031D01*
X25886Y18465D02*
X25893Y18471D01*
X25906Y18444D02*
X26046D01*
X26114Y18376D01*
X25927Y18423D02*
X26055D01*
X26111Y18367D01*
X25949Y18402D02*
X26063D01*
X26107Y18358D01*
X25975Y18381D02*
X26071D01*
X26103Y18349D01*
X26079Y18360D02*
X26099Y18340D01*
X26085Y18339D02*
X26093Y18331D01*
X25939Y18297D02*
X26077D01*
X26093Y18313D01*
X25918Y18277D02*
X26070D01*
X26097Y18304D01*
X25898Y18257D02*
X26063D01*
X26101Y18295D01*
X25879Y18235D02*
X26053D01*
X26104Y18286D01*
X25861Y18213D02*
X26044D01*
X26108Y18277D01*
X25839Y18192D02*
X26036D01*
X26112Y18268D01*
X25812Y18171D02*
X26028D01*
X26116Y18259D01*
X25791Y18150D02*
X26019D01*
X26119Y18250D01*
X26950D01*
X25772Y18129D02*
X26011D01*
X26123Y18241D01*
X25750Y18108D02*
X26003D01*
X26127Y18232D01*
X25728Y18087D02*
X25995D01*
X26131Y18223D01*
X25706Y18066D02*
X25986D01*
X26134Y18214D01*
X25980Y18339D02*
X26085D01*
X25959Y18318D02*
X25987D01*
X26000Y18360D02*
X26079D01*
X25987Y18318D02*
X25991Y18322D01*
X26629D01*
X26029Y17558D02*
X26086Y17615D01*
X26887D01*
X26165Y17583D02*
X26915D01*
X26122Y17539D02*
X26165Y17583D01*
D44*
X26304Y18693D02*
Y19141D01*
Y18560D02*
Y18693D01*
X26275Y19298D02*
X26317Y19255D01*
Y19236D02*
Y19255D01*
X26322Y19165D02*
Y19231D01*
X26304Y18560D02*
X26314Y18550D01*
X22481Y15903D02*
X22508Y15930D01*
X22644D01*
X26304Y19141D02*
X26322Y19159D01*
X26314Y18485D02*
Y18550D01*
D46*
X22692Y13455D02*
Y13410D01*
X22673Y13444D02*
X22711Y13421D01*
Y13444D02*
X22673Y13421D01*
X22732Y13383D02*
X22728Y13379D01*
X22732Y13375D01*
X22735Y13379D01*
X22732Y13383D01*
X22810Y13436D02*
X22806Y13444D01*
X22799Y13452D01*
X22791Y13455D01*
X22776D01*
X22768Y13452D01*
X22760Y13444D01*
X22757Y13436D01*
X22753Y13425D01*
Y13406D01*
X22757Y13395D01*
X22760Y13387D01*
X22768Y13379D01*
X22776Y13375D01*
X22791D01*
X22799Y13379D01*
X22806Y13387D01*
X22810Y13395D01*
Y13406D01*
X22791D02*
X22810D01*
X22828Y13440D02*
X22836Y13444D01*
X22847Y13455D01*
Y13375D01*
X22950Y13410D02*
X23018D01*
X23105Y13455D02*
Y13375D01*
Y13455D02*
X23135Y13375D01*
X23166Y13455D02*
X23135Y13375D01*
X23166Y13455D02*
Y13375D01*
X23189Y13455D02*
Y13375D01*
X23205Y13455D02*
Y13375D01*
Y13455D02*
X23232D01*
X23243Y13452D01*
X23251Y13444D01*
X23255Y13436D01*
X23259Y13425D01*
Y13406D01*
X23255Y13395D01*
X23251Y13387D01*
X23243Y13379D01*
X23232Y13375D01*
X23205D01*
X23339Y13455D02*
Y13375D01*
X23385D01*
X23455D02*
X23424Y13455D01*
X23394Y13375D01*
X23405Y13402D02*
X23443D01*
X23473Y13455D02*
X23504Y13417D01*
Y13375D01*
X23534Y13455D02*
X23504Y13417D01*
X23594Y13455D02*
X23545D01*
Y13375D01*
X23594D01*
X23545Y13417D02*
X23575D01*
X23608Y13455D02*
Y13375D01*
Y13455D02*
X23642D01*
X23653Y13452D01*
X23657Y13448D01*
X23661Y13440D01*
Y13433D01*
X23657Y13425D01*
X23653Y13421D01*
X23642Y13417D01*
X23608D01*
X23634D02*
X23661Y13375D01*
X23742Y13440D02*
X23749Y13444D01*
X23761Y13455D01*
Y13375D01*
X23920Y13436D02*
X23916Y13444D01*
X23909Y13452D01*
X23901Y13455D01*
X23886D01*
X23878Y13452D01*
X23871Y13444D01*
X23867Y13436D01*
X23863Y13425D01*
Y13406D01*
X23867Y13395D01*
X23871Y13387D01*
X23878Y13379D01*
X23886Y13375D01*
X23901D01*
X23909Y13379D01*
X23916Y13387D01*
X23920Y13395D01*
Y13406D01*
X23901D02*
X23920D01*
X23988Y13455D02*
X23939D01*
Y13375D01*
X23988D01*
X23939Y13417D02*
X23969D01*
X24001Y13455D02*
Y13375D01*
Y13455D02*
X24036D01*
X24047Y13452D01*
X24051Y13448D01*
X24055Y13440D01*
Y13433D01*
X24051Y13425D01*
X24047Y13421D01*
X24036Y13417D01*
X24001D01*
X24028D02*
X24055Y13375D01*
X24073Y13455D02*
Y13375D01*
Y13455D02*
X24107D01*
X24118Y13452D01*
X24122Y13448D01*
X24126Y13440D01*
Y13433D01*
X24122Y13425D01*
X24118Y13421D01*
X24107Y13417D01*
X24073D02*
X24107D01*
X24118Y13414D01*
X24122Y13410D01*
X24126Y13402D01*
Y13391D01*
X24122Y13383D01*
X24118Y13379D01*
X24107Y13375D01*
X24073D01*
X24193Y13455D02*
X24144D01*
Y13375D01*
X24193D01*
X24144Y13417D02*
X24174D01*
X24207Y13455D02*
Y13375D01*
Y13455D02*
X24241D01*
X24252Y13452D01*
X24256Y13448D01*
X24260Y13440D01*
Y13433D01*
X24256Y13425D01*
X24252Y13421D01*
X24241Y13417D01*
X24207D01*
X24233D02*
X24260Y13375D01*
X24341Y13455D02*
Y13375D01*
Y13455D02*
X24367D01*
X24379Y13452D01*
X24386Y13444D01*
X24390Y13436D01*
X24394Y13425D01*
Y13406D01*
X24390Y13395D01*
X24386Y13387D01*
X24379Y13379D01*
X24367Y13375D01*
X24341D01*
X24473D02*
X24442Y13455D01*
X24412Y13375D01*
X24423Y13402D02*
X24461D01*
X24518Y13455D02*
Y13375D01*
X24492Y13455D02*
X24545D01*
X24615Y13375D02*
X24585Y13455D01*
X24554Y13375D01*
X24566Y13402D02*
X24604D01*
D48*
X20554Y20037D02*
X21054D01*
X20804Y19787D02*
Y20287D01*
X20754Y20037D02*
Y20087D01*
X20804D01*
X20854Y19987D02*
Y20037D01*
X20804Y19987D02*
X20854D01*
X20809Y20032D02*
X20849D01*
Y19992D02*
Y20032D01*
X20809Y19992D02*
X20849D01*
X20809D02*
Y20032D01*
X20814Y20027D02*
X20844D01*
Y19997D02*
Y20027D01*
X20814Y19997D02*
X20844D01*
X20814D02*
Y20022D01*
X20819D02*
X20839D01*
Y20002D02*
Y20022D01*
X20819Y20002D02*
X20839D01*
X20819D02*
Y20017D01*
X20824D02*
X20834D01*
Y20007D02*
Y20017D01*
X20824Y20007D02*
X20834D01*
X20824D02*
Y20017D01*
Y20012D02*
X20834D01*
X20759Y20082D02*
X20799D01*
Y20042D02*
Y20082D01*
X20759Y20042D02*
X20799D01*
X20759D02*
Y20082D01*
X20764Y20077D02*
X20794D01*
Y20047D02*
Y20077D01*
X20764Y20047D02*
X20794D01*
X20764D02*
Y20072D01*
X20769D02*
X20789D01*
Y20052D02*
Y20072D01*
X20769Y20052D02*
X20789D01*
X20769D02*
Y20067D01*
X20774D02*
X20784D01*
Y20057D02*
Y20067D01*
X20774Y20057D02*
X20784D01*
X20774D02*
Y20067D01*
Y20062D02*
X20784D01*
X20818Y14694D02*
X21318D01*
X21068Y14444D02*
Y14944D01*
X21018Y14694D02*
Y14744D01*
X21068D01*
X21118Y14644D02*
Y14694D01*
X21068Y14644D02*
X21118D01*
X21073Y14689D02*
X21113D01*
Y14649D02*
Y14689D01*
X21073Y14649D02*
X21113D01*
X21073D02*
Y14689D01*
X21078Y14684D02*
X21108D01*
Y14654D02*
Y14684D01*
X21078Y14654D02*
X21108D01*
X21078D02*
Y14679D01*
X21083D02*
X21103D01*
Y14659D02*
Y14679D01*
X21083Y14659D02*
X21103D01*
X21083D02*
Y14674D01*
X21088D02*
X21098D01*
Y14664D02*
Y14674D01*
X21088Y14664D02*
X21098D01*
X21088D02*
Y14674D01*
Y14669D02*
X21098D01*
X21023Y14739D02*
X21063D01*
Y14699D02*
Y14739D01*
X21023Y14699D02*
X21063D01*
X21023D02*
Y14739D01*
X21028Y14734D02*
X21058D01*
Y14704D02*
Y14734D01*
X21028Y14704D02*
X21058D01*
X21028D02*
Y14729D01*
X21033D02*
X21053D01*
Y14709D02*
Y14729D01*
X21033Y14709D02*
X21053D01*
X21033D02*
Y14724D01*
X21038D02*
X21048D01*
Y14714D02*
Y14724D01*
X21038Y14714D02*
X21048D01*
X21038D02*
Y14724D01*
Y14719D02*
X21048D01*
X27582Y20004D02*
X28082D01*
X27832Y19754D02*
Y20254D01*
X27782Y20004D02*
Y20054D01*
X27832D01*
X27882Y19954D02*
Y20004D01*
X27832Y19954D02*
X27882D01*
X27837Y19999D02*
X27877D01*
Y19959D02*
Y19999D01*
X27837Y19959D02*
X27877D01*
X27837D02*
Y19999D01*
X27842Y19994D02*
X27872D01*
Y19964D02*
Y19994D01*
X27842Y19964D02*
X27872D01*
X27842D02*
Y19989D01*
X27847D02*
X27867D01*
Y19969D02*
Y19989D01*
X27847Y19969D02*
X27867D01*
X27847D02*
Y19984D01*
X27852D02*
X27862D01*
Y19974D02*
Y19984D01*
X27852Y19974D02*
X27862D01*
X27852D02*
Y19984D01*
Y19979D02*
X27862D01*
X27787Y20049D02*
X27827D01*
Y20009D02*
Y20049D01*
X27787Y20009D02*
X27827D01*
X27787D02*
Y20049D01*
X27792Y20044D02*
X27822D01*
Y20014D02*
Y20044D01*
X27792Y20014D02*
X27822D01*
X27792D02*
Y20039D01*
X27797D02*
X27817D01*
Y20019D02*
Y20039D01*
X27797Y20019D02*
X27817D01*
X27797D02*
Y20034D01*
X27802D02*
X27812D01*
Y20024D02*
Y20034D01*
X27802Y20024D02*
X27812D01*
X27802D02*
Y20034D01*
Y20029D02*
X27812D01*
D49*
X22945Y13938D02*
X22953Y13942D01*
X22964Y13953D01*
Y13873D01*
X23057Y13953D02*
X23019Y13873D01*
X23004Y13953D02*
X23057D01*
X23121D02*
X23083D01*
X23079Y13919D01*
X23083Y13923D01*
X23094Y13926D01*
X23106D01*
X23117Y13923D01*
X23125Y13915D01*
X23128Y13904D01*
Y13896D01*
X23125Y13885D01*
X23117Y13877D01*
X23106Y13873D01*
X23094D01*
X23083Y13877D01*
X23079Y13881D01*
X23075Y13888D01*
X23146Y13907D02*
X23215D01*
X23261Y13953D02*
X23250Y13949D01*
X23242Y13938D01*
X23239Y13919D01*
Y13907D01*
X23242Y13888D01*
X23250Y13877D01*
X23261Y13873D01*
X23269D01*
X23280Y13877D01*
X23288Y13888D01*
X23292Y13907D01*
Y13919D01*
X23288Y13938D01*
X23280Y13949D01*
X23269Y13953D01*
X23261D01*
X23333D02*
X23321Y13949D01*
X23314Y13938D01*
X23310Y13919D01*
Y13907D01*
X23314Y13888D01*
X23321Y13877D01*
X23333Y13873D01*
X23340D01*
X23352Y13877D01*
X23359Y13888D01*
X23363Y13907D01*
Y13919D01*
X23359Y13938D01*
X23352Y13949D01*
X23340Y13953D01*
X23333D01*
X23404D02*
X23392Y13949D01*
X23385Y13938D01*
X23381Y13919D01*
Y13907D01*
X23385Y13888D01*
X23392Y13877D01*
X23404Y13873D01*
X23411D01*
X23423Y13877D01*
X23431Y13888D01*
X23434Y13907D01*
Y13919D01*
X23431Y13938D01*
X23423Y13949D01*
X23411Y13953D01*
X23404D01*
X23475D02*
X23464Y13949D01*
X23456Y13938D01*
X23452Y13919D01*
Y13907D01*
X23456Y13888D01*
X23464Y13877D01*
X23475Y13873D01*
X23483D01*
X23494Y13877D01*
X23502Y13888D01*
X23506Y13907D01*
Y13919D01*
X23502Y13938D01*
X23494Y13949D01*
X23483Y13953D01*
X23475D01*
X23527Y13934D02*
Y13938D01*
X23531Y13945D01*
X23535Y13949D01*
X23543Y13953D01*
X23558D01*
X23565Y13949D01*
X23569Y13945D01*
X23573Y13938D01*
Y13930D01*
X23569Y13923D01*
X23562Y13911D01*
X23523Y13873D01*
X23577D01*
X23658Y13926D02*
Y13873D01*
Y13904D02*
X23661Y13915D01*
X23669Y13923D01*
X23677Y13926D01*
X23688D01*
X23695Y13904D02*
X23741D01*
Y13911D01*
X23737Y13919D01*
X23733Y13923D01*
X23726Y13926D01*
X23714D01*
X23707Y13923D01*
X23699Y13915D01*
X23695Y13904D01*
Y13896D01*
X23699Y13885D01*
X23707Y13877D01*
X23714Y13873D01*
X23726D01*
X23733Y13877D01*
X23741Y13885D01*
X23758Y13926D02*
X23781Y13873D01*
X23804Y13926D02*
X23781Y13873D01*
X23824Y13953D02*
X23866D01*
X23843Y13923D01*
X23855D01*
X23862Y13919D01*
X23866Y13915D01*
X23870Y13904D01*
Y13896D01*
X23866Y13885D01*
X23859Y13877D01*
X23847Y13873D01*
X23836D01*
X23824Y13877D01*
X23821Y13881D01*
X23817Y13888D01*
X23896Y13877D02*
X23892Y13873D01*
X23888Y13877D01*
X23892Y13881D01*
X23896Y13877D01*
Y13869D01*
X23892Y13862D01*
X23888Y13858D01*
X24033Y13934D02*
X24029Y13942D01*
X24022Y13949D01*
X24014Y13953D01*
X23999D01*
X23991Y13949D01*
X23984Y13942D01*
X23980Y13934D01*
X23976Y13923D01*
Y13904D01*
X23980Y13892D01*
X23984Y13885D01*
X23991Y13877D01*
X23999Y13873D01*
X24014D01*
X24022Y13877D01*
X24029Y13885D01*
X24033Y13892D01*
X24056Y13953D02*
Y13873D01*
X24101D01*
X24133Y13953D02*
X24125Y13949D01*
X24118Y13942D01*
X24114Y13934D01*
X24110Y13923D01*
Y13904D01*
X24114Y13892D01*
X24118Y13885D01*
X24125Y13877D01*
X24133Y13873D01*
X24148D01*
X24156Y13877D01*
X24163Y13885D01*
X24167Y13892D01*
X24171Y13904D01*
Y13923D01*
X24167Y13934D01*
X24163Y13942D01*
X24156Y13949D01*
X24148Y13953D01*
X24133D01*
X24247Y13934D02*
X24243Y13942D01*
X24235Y13949D01*
X24228Y13953D01*
X24212D01*
X24205Y13949D01*
X24197Y13942D01*
X24193Y13934D01*
X24190Y13923D01*
Y13904D01*
X24193Y13892D01*
X24197Y13885D01*
X24205Y13877D01*
X24212Y13873D01*
X24228D01*
X24235Y13877D01*
X24243Y13885D01*
X24247Y13892D01*
X24269Y13953D02*
Y13873D01*
X24323Y13953D02*
X24269Y13900D01*
X24288Y13919D02*
X24323Y13873D01*
X24403Y13953D02*
Y13873D01*
Y13953D02*
X24438D01*
X24449Y13949D01*
X24453Y13945D01*
X24457Y13938D01*
Y13930D01*
X24453Y13923D01*
X24449Y13919D01*
X24438Y13915D01*
X24403D02*
X24438D01*
X24449Y13911D01*
X24453Y13907D01*
X24457Y13900D01*
Y13888D01*
X24453Y13881D01*
X24449Y13877D01*
X24438Y13873D01*
X24403D01*
X24497Y13953D02*
X24490Y13949D01*
X24482Y13942D01*
X24478Y13934D01*
X24474Y13923D01*
Y13904D01*
X24478Y13892D01*
X24482Y13885D01*
X24490Y13877D01*
X24497Y13873D01*
X24513D01*
X24520Y13877D01*
X24528Y13885D01*
X24532Y13892D01*
X24535Y13904D01*
Y13923D01*
X24532Y13934D01*
X24528Y13942D01*
X24520Y13949D01*
X24513Y13953D01*
X24497D01*
X24615Y13873D02*
X24585Y13953D01*
X24554Y13873D01*
X24566Y13900D02*
X24604D01*
X24634Y13953D02*
Y13873D01*
Y13953D02*
X24668D01*
X24679Y13949D01*
X24683Y13945D01*
X24687Y13938D01*
Y13930D01*
X24683Y13923D01*
X24679Y13919D01*
X24668Y13915D01*
X24634D01*
X24660D02*
X24687Y13873D01*
X24705Y13953D02*
Y13873D01*
Y13953D02*
X24732D01*
X24743Y13949D01*
X24751Y13942D01*
X24754Y13934D01*
X24758Y13923D01*
Y13904D01*
X24754Y13892D01*
X24751Y13885D01*
X24743Y13877D01*
X24732Y13873D01*
X24705D01*
D50*
X22945Y13803D02*
Y13723D01*
X22991D01*
X23061D02*
X23030Y13803D01*
X23000Y13723D01*
X23011Y13750D02*
X23049D01*
X23133Y13792D02*
X23125Y13799D01*
X23114Y13803D01*
X23098D01*
X23087Y13799D01*
X23079Y13792D01*
Y13784D01*
X23083Y13776D01*
X23087Y13773D01*
X23095Y13769D01*
X23117Y13761D01*
X23125Y13757D01*
X23129Y13754D01*
X23133Y13746D01*
Y13735D01*
X23125Y13727D01*
X23114Y13723D01*
X23098D01*
X23087Y13727D01*
X23079Y13735D01*
X23271Y13784D02*
X23267Y13792D01*
X23259Y13799D01*
X23252Y13803D01*
X23236D01*
X23229Y13799D01*
X23221Y13792D01*
X23217Y13784D01*
X23213Y13773D01*
Y13754D01*
X23217Y13742D01*
X23221Y13735D01*
X23229Y13727D01*
X23236Y13723D01*
X23252D01*
X23259Y13727D01*
X23267Y13735D01*
X23271Y13742D01*
X23293Y13803D02*
Y13746D01*
X23297Y13735D01*
X23304Y13727D01*
X23316Y13723D01*
X23324D01*
X23335Y13727D01*
X23343Y13735D01*
X23346Y13746D01*
Y13803D01*
X23368D02*
Y13723D01*
Y13803D02*
X23399Y13723D01*
X23429Y13803D02*
X23399Y13723D01*
X23429Y13803D02*
Y13723D01*
X23452Y13803D02*
Y13723D01*
Y13803D02*
X23487D01*
X23498Y13799D01*
X23502Y13795D01*
X23506Y13788D01*
Y13780D01*
X23502Y13773D01*
X23498Y13769D01*
X23487Y13765D01*
X23452D02*
X23487D01*
X23498Y13761D01*
X23502Y13757D01*
X23506Y13750D01*
Y13738D01*
X23502Y13731D01*
X23498Y13727D01*
X23487Y13723D01*
X23452D01*
X23523Y13803D02*
Y13723D01*
Y13803D02*
X23558D01*
X23569Y13799D01*
X23573Y13795D01*
X23577Y13788D01*
Y13780D01*
X23573Y13773D01*
X23569Y13769D01*
X23558Y13765D01*
X23523D01*
X23550D02*
X23577Y13723D01*
X23644Y13803D02*
X23595D01*
Y13723D01*
X23644D01*
X23595Y13765D02*
X23625D01*
X23711Y13792D02*
X23703Y13799D01*
X23692Y13803D01*
X23677D01*
X23665Y13799D01*
X23658Y13792D01*
Y13784D01*
X23661Y13776D01*
X23665Y13773D01*
X23673Y13769D01*
X23696Y13761D01*
X23703Y13757D01*
X23707Y13754D01*
X23711Y13746D01*
Y13735D01*
X23703Y13727D01*
X23692Y13723D01*
X23677D01*
X23665Y13727D01*
X23658Y13735D01*
X23814Y13803D02*
X23807Y13799D01*
X23799Y13792D01*
X23795Y13784D01*
X23792Y13773D01*
Y13754D01*
X23795Y13742D01*
X23799Y13735D01*
X23807Y13727D01*
X23814Y13723D01*
X23830D01*
X23837Y13727D01*
X23845Y13735D01*
X23849Y13742D01*
X23853Y13754D01*
Y13773D01*
X23849Y13784D01*
X23845Y13792D01*
X23837Y13799D01*
X23830Y13803D01*
X23814D01*
X23871D02*
Y13723D01*
Y13803D02*
X23905D01*
X23917Y13799D01*
X23921Y13795D01*
X23925Y13788D01*
Y13780D01*
X23921Y13773D01*
X23917Y13769D01*
X23905Y13765D01*
X23871D02*
X23905D01*
X23917Y13761D01*
X23921Y13757D01*
X23925Y13750D01*
Y13738D01*
X23921Y13731D01*
X23917Y13727D01*
X23905Y13723D01*
X23871D01*
X23996Y13792D02*
X23988Y13799D01*
X23977Y13803D01*
X23961D01*
X23950Y13799D01*
X23942Y13792D01*
Y13784D01*
X23946Y13776D01*
X23950Y13773D01*
X23958Y13769D01*
X23981Y13761D01*
X23988Y13757D01*
X23992Y13754D01*
X23996Y13746D01*
Y13735D01*
X23988Y13727D01*
X23977Y13723D01*
X23961D01*
X23950Y13727D01*
X23942Y13735D01*
X24063Y13803D02*
X24014D01*
Y13723D01*
X24063D01*
X24014Y13765D02*
X24044D01*
X24076Y13803D02*
Y13723D01*
Y13803D02*
X24111D01*
X24122Y13799D01*
X24126Y13795D01*
X24130Y13788D01*
Y13780D01*
X24126Y13773D01*
X24122Y13769D01*
X24111Y13765D01*
X24076D01*
X24103D02*
X24130Y13723D01*
X24148Y13803D02*
X24178Y13723D01*
X24209Y13803D02*
X24178Y13723D01*
X24280D02*
X24249Y13803D01*
X24219Y13723D01*
X24230Y13750D02*
X24268D01*
X24325Y13803D02*
Y13723D01*
X24299Y13803D02*
X24352D01*
X24384D02*
X24377Y13799D01*
X24369Y13792D01*
X24365Y13784D01*
X24361Y13773D01*
Y13754D01*
X24365Y13742D01*
X24369Y13735D01*
X24377Y13727D01*
X24384Y13723D01*
X24399D01*
X24407Y13727D01*
X24415Y13735D01*
X24419Y13742D01*
X24422Y13754D01*
Y13773D01*
X24419Y13784D01*
X24415Y13792D01*
X24407Y13799D01*
X24399Y13803D01*
X24384D01*
X24441D02*
Y13723D01*
Y13803D02*
X24475D01*
X24487Y13799D01*
X24490Y13795D01*
X24494Y13788D01*
Y13780D01*
X24490Y13773D01*
X24487Y13769D01*
X24475Y13765D01*
X24441D01*
X24468D02*
X24494Y13723D01*
X24512Y13803D02*
X24543Y13765D01*
Y13723D01*
X24573Y13803D02*
X24543Y13765D01*
X24905Y13803D02*
X24947D01*
X24924Y13773D01*
X24936D01*
X24943Y13769D01*
X24947Y13765D01*
X24951Y13754D01*
Y13746D01*
X24947Y13735D01*
X24940Y13727D01*
X24928Y13723D01*
X24917D01*
X24905Y13727D01*
X24901Y13731D01*
X24898Y13738D01*
X24969Y13712D02*
X25022Y13803D01*
X25031Y13784D02*
Y13788D01*
X25035Y13795D01*
X25039Y13799D01*
X25047Y13803D01*
X25062D01*
X25069Y13799D01*
X25073Y13795D01*
X25077Y13788D01*
Y13780D01*
X25073Y13773D01*
X25066Y13761D01*
X25028Y13723D01*
X25081D01*
X25118Y13803D02*
X25106Y13799D01*
X25103Y13792D01*
Y13784D01*
X25106Y13776D01*
X25114Y13773D01*
X25129Y13769D01*
X25141Y13765D01*
X25148Y13757D01*
X25152Y13750D01*
Y13738D01*
X25148Y13731D01*
X25144Y13727D01*
X25133Y13723D01*
X25118D01*
X25106Y13727D01*
X25103Y13731D01*
X25099Y13738D01*
Y13750D01*
X25103Y13757D01*
X25110Y13765D01*
X25122Y13769D01*
X25137Y13773D01*
X25144Y13776D01*
X25148Y13784D01*
Y13792D01*
X25144Y13799D01*
X25133Y13803D01*
X25118D01*
X25170Y13712D02*
X25223Y13803D01*
X25232Y13784D02*
Y13788D01*
X25236Y13795D01*
X25240Y13799D01*
X25248Y13803D01*
X25263D01*
X25271Y13799D01*
X25274Y13795D01*
X25278Y13788D01*
Y13780D01*
X25274Y13773D01*
X25267Y13761D01*
X25229Y13723D01*
X25282D01*
X25323Y13803D02*
X25311Y13799D01*
X25304Y13788D01*
X25300Y13769D01*
Y13757D01*
X25304Y13738D01*
X25311Y13727D01*
X25323Y13723D01*
X25330D01*
X25342Y13727D01*
X25349Y13738D01*
X25353Y13757D01*
Y13769D01*
X25349Y13788D01*
X25342Y13799D01*
X25330Y13803D01*
X25323D01*
X25371Y13788D02*
X25379Y13792D01*
X25390Y13803D01*
Y13723D01*
X25430Y13788D02*
X25437Y13792D01*
X25449Y13803D01*
Y13723D01*
D53*
X27081Y18410D02*
D03*
D54*
Y19510D02*
D03*
X26981Y19410D02*
D03*
X27081D02*
D03*
X26981Y19310D02*
D03*
X27081D02*
D03*
X26981Y19210D02*
D03*
X27081D02*
D03*
X26981Y19110D02*
D03*
X27081D02*
D03*
X26981Y19010D02*
D03*
X27081D02*
D03*
X26981Y18910D02*
D03*
X27081D02*
D03*
X26981Y18810D02*
D03*
X27081D02*
D03*
X26981Y18710D02*
D03*
X27081D02*
D03*
X26981Y18610D02*
D03*
X27081D02*
D03*
X26981Y18510D02*
D03*
X27081D02*
D03*
X26981Y18410D02*
D03*
D57*
X26591Y16649D02*
D03*
X26304Y18693D02*
D03*
X26275Y19298D02*
D03*
X26343Y19258D02*
D03*
X26336Y18581D02*
D03*
X25684Y18428D02*
D03*
X25548Y18579D02*
D03*
X24987Y18468D02*
D03*
X25187Y18403D02*
D03*
X25492Y18263D02*
D03*
X25212Y18498D02*
D03*
X25627Y18238D02*
D03*
X25077Y18443D02*
D03*
X25437Y18363D02*
D03*
X25314Y18551D02*
D03*
X24475Y18579D02*
D03*
X24611Y18428D02*
D03*
X23914Y18468D02*
D03*
X24114Y18403D02*
D03*
X24419Y18263D02*
D03*
X24139Y18498D02*
D03*
X24554Y18238D02*
D03*
X24004Y18443D02*
D03*
X24364Y18363D02*
D03*
X24241Y18551D02*
D03*
X23538Y18428D02*
D03*
X22842Y18468D02*
D03*
X23042Y18403D02*
D03*
X23347Y18263D02*
D03*
X23067Y18498D02*
D03*
X23482Y18238D02*
D03*
X22932Y18443D02*
D03*
X23291Y18363D02*
D03*
X23168Y18551D02*
D03*
X22218Y18363D02*
D03*
X22465Y18428D02*
D03*
X23402Y18579D02*
D03*
X22328Y18580D02*
D03*
X22095Y18551D02*
D03*
X21712Y16768D02*
D03*
X21994Y18498D02*
D03*
X22274Y18263D02*
D03*
X21969Y18403D02*
D03*
X21769Y18468D02*
D03*
X21859Y18443D02*
D03*
X22409Y18238D02*
D03*
X25186Y15855D02*
D03*
X26429Y16293D02*
D03*
X26314Y18485D02*
D03*
X26322Y19165D02*
D03*
X25706Y18066D02*
D03*
X25728Y18087D02*
D03*
X25750Y18108D02*
D03*
X25772Y18129D02*
D03*
X25791Y18150D02*
D03*
X25839Y18192D02*
D03*
X25844Y18507D02*
D03*
X25818Y18528D02*
D03*
X25865Y18486D02*
D03*
X25949Y18402D02*
D03*
X25939Y18297D02*
D03*
X25812Y18171D02*
D03*
X25879Y18235D02*
D03*
X25861Y18213D02*
D03*
X25898Y18257D02*
D03*
X25918Y18277D02*
D03*
X25975Y18381D02*
D03*
X25927Y18423D02*
D03*
X25886Y18465D02*
D03*
X25906Y18444D02*
D03*
X25959Y18318D02*
D03*
X26000Y18360D02*
D03*
X25980Y18339D02*
D03*
X26029Y17558D02*
D03*
X26887Y17615D02*
D03*
X26122Y17539D02*
D03*
X26915Y17583D02*
D03*
X27044Y16453D02*
D03*
X22481Y15903D02*
D03*
X22644Y15930D02*
D03*
X25413Y16062D02*
D03*
X25228Y19063D02*
D03*
X21712Y17930D02*
D03*
X22598D02*
D03*
X23484D02*
D03*
X24370D02*
D03*
X25256D02*
D03*
X21712Y17339D02*
D03*
X22598D02*
D03*
X23484Y17339D02*
D03*
X24370Y17339D02*
D03*
X25256D02*
D03*
X22598Y16768D02*
D03*
X23484D02*
D03*
X24370D02*
D03*
X25256D02*
D03*
M02*
