%FSLAX23Y23*%
%MOIN*%
G70*
G01*
G75*
G04 Layer_Physical_Order=2*
G04 Layer_Color=36540*
%ADD10R,0.014X0.060*%
%ADD11R,0.030X0.100*%
%ADD12R,0.031X0.060*%
%ADD13R,0.070X0.135*%
%ADD14R,0.050X0.050*%
%ADD15R,0.036X0.036*%
%ADD16R,0.028X0.036*%
%ADD17R,0.078X0.048*%
%ADD18R,0.050X0.050*%
%ADD19R,0.213X0.114*%
%ADD20R,0.039X0.063*%
%ADD21C,0.005*%
%ADD22C,0.010*%
%ADD23C,0.020*%
%ADD24C,0.025*%
%ADD25C,0.050*%
%ADD26C,0.100*%
%ADD27C,0.012*%
%ADD28C,0.008*%
%ADD29C,0.012*%
%ADD30C,0.012*%
%ADD31C,0.020*%
%ADD32C,0.059*%
%ADD33R,0.059X0.059*%
%ADD34C,0.219*%
%ADD35C,0.028*%
%ADD36C,0.024*%
%ADD37C,0.050*%
D21*
X31982Y18672D02*
X32310D01*
X31980Y18674D02*
X31982Y18672D01*
X31939Y18674D02*
X31980D01*
X31936Y18672D02*
X31939Y18674D01*
X31923Y18672D02*
X31936D01*
X31978Y18662D02*
X32314D01*
X31976Y18664D02*
X31978Y18662D01*
X31943Y18664D02*
X31976D01*
X31941Y18662D02*
X31943Y18664D01*
X31919Y18662D02*
X31941D01*
X31974Y18652D02*
X32318D01*
X31971Y18654D02*
X31974Y18652D01*
X31947Y18654D02*
X31971D01*
X31945Y18652D02*
X31947Y18654D01*
X31915Y18652D02*
X31945D01*
X31970Y18642D02*
X32322D01*
X31967Y18644D02*
X31970Y18642D01*
X31951Y18644D02*
X31967D01*
X31949Y18642D02*
X31951Y18644D01*
X31911Y18642D02*
X31949D01*
X32500Y18707D02*
X32507Y18700D01*
X31451Y18728D02*
X31451Y18728D01*
X31639Y18698D02*
Y18701D01*
X31656Y18718D01*
X31835D02*
X31902Y18651D01*
X31656Y18718D02*
X31835D01*
X31510Y18784D02*
X31551D01*
X31581Y18753D01*
Y18748D02*
Y18753D01*
X31550Y18757D02*
X31569Y18738D01*
X31451Y18728D02*
X31839D01*
X31581Y18748D02*
X31847D01*
X31850Y18745D01*
X31850D01*
X31853Y18742D01*
X31853D01*
X31856Y18739D01*
X31856D01*
X31569Y18738D02*
X31843D01*
X31846Y18735D01*
X31846D01*
X31849Y18732D01*
X31849D01*
X31839Y18728D02*
X31842Y18725D01*
X31842D01*
X31902Y18651D02*
X31902D01*
X31905Y18648D01*
X31905D01*
X31908Y18645D01*
X31908D01*
X31911Y18642D01*
X32322D02*
X32325Y18645D01*
X32325D01*
X32328Y18648D01*
X32328D01*
X32331Y18651D01*
X32331D01*
X31842Y18725D02*
X31909Y18658D01*
X31909D01*
X31912Y18655D01*
X31912D01*
X31915Y18652D01*
X32318D02*
X32321Y18655D01*
X32321D01*
X32324Y18658D01*
X32324D01*
X31849Y18732D02*
X31916Y18665D01*
X31916D01*
X31919Y18662D01*
X32314D02*
X32317Y18665D01*
X32317D01*
X31856Y18739D02*
X31923Y18672D01*
X32310D02*
X32352Y18714D01*
X32478D01*
X32486Y18707D01*
X32500D01*
X32317Y18665D02*
X32351Y18699D01*
X32466D01*
X32470Y18695D01*
X32324Y18658D02*
X32346Y18680D01*
X32442D01*
X32331Y18651D02*
X32336Y18656D01*
X32404D01*
X32792Y19172D02*
X32806Y19186D01*
X33454D01*
X32758Y19140D02*
X32828D01*
X33454Y19186D02*
X33500Y19232D01*
X33648D01*
X32757Y19139D02*
X32758Y19140D01*
D22*
X31647Y19013D02*
X31677Y18983D01*
X31172Y19204D02*
X31363Y19013D01*
X31647D01*
X32448Y18912D02*
X32478Y18882D01*
X32164Y18912D02*
X32448D01*
X31973Y19103D02*
X32164Y18912D01*
X33307Y18911D02*
X33337Y18881D01*
X33023Y18911D02*
X33307D01*
X32832Y19102D02*
X33023Y18911D01*
X34127Y19003D02*
X34157Y18973D01*
X33843Y19003D02*
X34127D01*
X33652Y19194D02*
X33843Y19003D01*
D27*
X31132Y16826D02*
Y16781D01*
X31113Y16815D02*
X31151Y16792D01*
Y16815D02*
X31113Y16792D01*
X31172Y16754D02*
X31168Y16750D01*
X31172Y16746D01*
X31175Y16750D01*
X31172Y16754D01*
X31250Y16807D02*
X31246Y16815D01*
X31239Y16822D01*
X31231Y16826D01*
X31216D01*
X31208Y16822D01*
X31200Y16815D01*
X31197Y16807D01*
X31193Y16796D01*
Y16777D01*
X31197Y16765D01*
X31200Y16758D01*
X31208Y16750D01*
X31216Y16746D01*
X31231D01*
X31239Y16750D01*
X31246Y16758D01*
X31250Y16765D01*
Y16777D01*
X31231D02*
X31250D01*
X31268Y16811D02*
X31276Y16815D01*
X31287Y16826D01*
Y16746D01*
X31390Y16781D02*
X31458D01*
X31545Y16826D02*
Y16746D01*
Y16826D02*
X31575Y16746D01*
X31606Y16826D02*
X31575Y16746D01*
X31606Y16826D02*
Y16746D01*
X31629Y16826D02*
Y16746D01*
X31645Y16826D02*
Y16746D01*
Y16826D02*
X31672D01*
X31683Y16822D01*
X31691Y16815D01*
X31695Y16807D01*
X31699Y16796D01*
Y16777D01*
X31695Y16765D01*
X31691Y16758D01*
X31683Y16750D01*
X31672Y16746D01*
X31645D01*
X31779Y16826D02*
Y16746D01*
X31825D01*
X31895D02*
X31864Y16826D01*
X31834Y16746D01*
X31845Y16773D02*
X31883D01*
X31913Y16826D02*
X31944Y16788D01*
Y16746D01*
X31974Y16826D02*
X31944Y16788D01*
X32034Y16826D02*
X31985D01*
Y16746D01*
X32034D01*
X31985Y16788D02*
X32015D01*
X32048Y16826D02*
Y16746D01*
Y16826D02*
X32082D01*
X32093Y16822D01*
X32097Y16819D01*
X32101Y16811D01*
Y16803D01*
X32097Y16796D01*
X32093Y16792D01*
X32082Y16788D01*
X32048D01*
X32074D02*
X32101Y16746D01*
X32182Y16811D02*
X32189Y16815D01*
X32201Y16826D01*
Y16746D01*
X32360Y16807D02*
X32356Y16815D01*
X32349Y16822D01*
X32341Y16826D01*
X32326D01*
X32318Y16822D01*
X32311Y16815D01*
X32307Y16807D01*
X32303Y16796D01*
Y16777D01*
X32307Y16765D01*
X32311Y16758D01*
X32318Y16750D01*
X32326Y16746D01*
X32341D01*
X32349Y16750D01*
X32356Y16758D01*
X32360Y16765D01*
Y16777D01*
X32341D02*
X32360D01*
X32428Y16826D02*
X32379D01*
Y16746D01*
X32428D01*
X32379Y16788D02*
X32409D01*
X32441Y16826D02*
Y16746D01*
Y16826D02*
X32476D01*
X32487Y16822D01*
X32491Y16819D01*
X32495Y16811D01*
Y16803D01*
X32491Y16796D01*
X32487Y16792D01*
X32476Y16788D01*
X32441D01*
X32468D02*
X32495Y16746D01*
X32513Y16826D02*
Y16746D01*
Y16826D02*
X32547D01*
X32558Y16822D01*
X32562Y16819D01*
X32566Y16811D01*
Y16803D01*
X32562Y16796D01*
X32558Y16792D01*
X32547Y16788D01*
X32513D02*
X32547D01*
X32558Y16784D01*
X32562Y16781D01*
X32566Y16773D01*
Y16762D01*
X32562Y16754D01*
X32558Y16750D01*
X32547Y16746D01*
X32513D01*
X32633Y16826D02*
X32584D01*
Y16746D01*
X32633D01*
X32584Y16788D02*
X32614D01*
X32647Y16826D02*
Y16746D01*
Y16826D02*
X32681D01*
X32692Y16822D01*
X32696Y16819D01*
X32700Y16811D01*
Y16803D01*
X32696Y16796D01*
X32692Y16792D01*
X32681Y16788D01*
X32647D01*
X32673D02*
X32700Y16746D01*
X32781Y16826D02*
Y16746D01*
Y16826D02*
X32807D01*
X32819Y16822D01*
X32826Y16815D01*
X32830Y16807D01*
X32834Y16796D01*
Y16777D01*
X32830Y16765D01*
X32826Y16758D01*
X32819Y16750D01*
X32807Y16746D01*
X32781D01*
X32913D02*
X32882Y16826D01*
X32852Y16746D01*
X32863Y16773D02*
X32901D01*
X32958Y16826D02*
Y16746D01*
X32932Y16826D02*
X32985D01*
X33055Y16746D02*
X33025Y16826D01*
X32994Y16746D01*
X33006Y16773D02*
X33044D01*
D28*
X34575Y20198D02*
X35075D01*
X34825Y19948D02*
Y20448D01*
X34875Y20198D02*
Y20248D01*
X34825D02*
X34875D01*
X34775Y20148D02*
Y20198D01*
Y20148D02*
X34825D01*
X34780Y20193D02*
X34820D01*
X34780Y20153D02*
Y20193D01*
Y20153D02*
X34820D01*
Y20193D01*
X34785Y20188D02*
X34815D01*
X34785Y20158D02*
Y20188D01*
Y20158D02*
X34815D01*
Y20183D01*
X34790D02*
X34810D01*
X34790Y20163D02*
Y20183D01*
Y20163D02*
X34810D01*
Y20178D01*
X34795D02*
X34805D01*
X34795Y20168D02*
Y20178D01*
Y20168D02*
X34805D01*
Y20178D01*
X34795Y20173D02*
X34805D01*
X34830Y20243D02*
X34870D01*
X34830Y20203D02*
Y20243D01*
Y20203D02*
X34870D01*
Y20243D01*
X34835Y20238D02*
X34865D01*
X34835Y20208D02*
Y20238D01*
Y20208D02*
X34865D01*
Y20233D01*
X34840D02*
X34860D01*
X34840Y20213D02*
Y20233D01*
Y20213D02*
X34860D01*
Y20228D01*
X34845D02*
X34855D01*
X34845Y20218D02*
Y20228D01*
Y20218D02*
X34855D01*
Y20228D01*
X34845Y20223D02*
X34855D01*
X30190Y20148D02*
X30690D01*
X30440Y19898D02*
Y20398D01*
X30490Y20148D02*
Y20198D01*
X30440D02*
X30490D01*
X30390Y20098D02*
Y20148D01*
Y20098D02*
X30440D01*
X30395Y20143D02*
X30435D01*
X30395Y20103D02*
Y20143D01*
Y20103D02*
X30435D01*
Y20143D01*
X30400Y20138D02*
X30430D01*
X30400Y20108D02*
Y20138D01*
Y20108D02*
X30430D01*
Y20133D01*
X30405D02*
X30425D01*
X30405Y20113D02*
Y20133D01*
Y20113D02*
X30425D01*
Y20128D01*
X30410D02*
X30420D01*
X30410Y20118D02*
Y20128D01*
Y20118D02*
X30420D01*
Y20128D01*
X30410Y20123D02*
X30420D01*
X30445Y20193D02*
X30485D01*
X30445Y20153D02*
Y20193D01*
Y20153D02*
X30485D01*
Y20193D01*
X30450Y20188D02*
X30480D01*
X30450Y20158D02*
Y20188D01*
Y20158D02*
X30480D01*
Y20183D01*
X30455D02*
X30475D01*
X30455Y20163D02*
Y20183D01*
Y20163D02*
X30475D01*
Y20178D01*
X30460D02*
X30470D01*
X30460Y20168D02*
Y20178D01*
Y20168D02*
X30470D01*
Y20178D01*
X30460Y20173D02*
X30470D01*
X30363Y17598D02*
X30863D01*
X30613Y17348D02*
Y17848D01*
X30663Y17598D02*
Y17648D01*
X30613D02*
X30663D01*
X30563Y17548D02*
Y17598D01*
Y17548D02*
X30613D01*
X30568Y17593D02*
X30608D01*
X30568Y17553D02*
Y17593D01*
Y17553D02*
X30608D01*
Y17593D01*
X30573Y17588D02*
X30603D01*
X30573Y17558D02*
Y17588D01*
Y17558D02*
X30603D01*
Y17583D01*
X30578D02*
X30598D01*
X30578Y17563D02*
Y17583D01*
Y17563D02*
X30598D01*
Y17578D01*
X30583D02*
X30593D01*
X30583Y17568D02*
Y17578D01*
Y17568D02*
X30593D01*
Y17578D01*
X30583Y17573D02*
X30593D01*
X30618Y17643D02*
X30658D01*
X30618Y17603D02*
Y17643D01*
Y17603D02*
X30658D01*
Y17643D01*
X30623Y17638D02*
X30653D01*
X30623Y17608D02*
Y17638D01*
Y17608D02*
X30653D01*
Y17633D01*
X30628D02*
X30648D01*
X30628Y17613D02*
Y17633D01*
Y17613D02*
X30648D01*
Y17628D01*
X30633D02*
X30643D01*
X30633Y17618D02*
Y17628D01*
Y17618D02*
X30643D01*
Y17628D01*
X30633Y17623D02*
X30643D01*
D29*
X31158Y17244D02*
X31166Y17248D01*
X31177Y17259D01*
Y17179D01*
X31270Y17259D02*
X31232Y17179D01*
X31217Y17259D02*
X31270D01*
X31334D02*
X31296D01*
X31292Y17225D01*
X31296Y17229D01*
X31307Y17233D01*
X31319D01*
X31330Y17229D01*
X31338Y17221D01*
X31341Y17210D01*
Y17202D01*
X31338Y17191D01*
X31330Y17183D01*
X31319Y17179D01*
X31307D01*
X31296Y17183D01*
X31292Y17187D01*
X31288Y17195D01*
X31359Y17214D02*
X31428D01*
X31474Y17259D02*
X31463Y17256D01*
X31455Y17244D01*
X31452Y17225D01*
Y17214D01*
X31455Y17195D01*
X31463Y17183D01*
X31474Y17179D01*
X31482D01*
X31493Y17183D01*
X31501Y17195D01*
X31505Y17214D01*
Y17225D01*
X31501Y17244D01*
X31493Y17256D01*
X31482Y17259D01*
X31474D01*
X31546D02*
X31534Y17256D01*
X31527Y17244D01*
X31523Y17225D01*
Y17214D01*
X31527Y17195D01*
X31534Y17183D01*
X31546Y17179D01*
X31553D01*
X31565Y17183D01*
X31572Y17195D01*
X31576Y17214D01*
Y17225D01*
X31572Y17244D01*
X31565Y17256D01*
X31553Y17259D01*
X31546D01*
X31617D02*
X31605Y17256D01*
X31598Y17244D01*
X31594Y17225D01*
Y17214D01*
X31598Y17195D01*
X31605Y17183D01*
X31617Y17179D01*
X31624D01*
X31636Y17183D01*
X31644Y17195D01*
X31647Y17214D01*
Y17225D01*
X31644Y17244D01*
X31636Y17256D01*
X31624Y17259D01*
X31617D01*
X31673D02*
X31715D01*
X31692Y17229D01*
X31703D01*
X31711Y17225D01*
X31715Y17221D01*
X31719Y17210D01*
Y17202D01*
X31715Y17191D01*
X31707Y17183D01*
X31696Y17179D01*
X31684D01*
X31673Y17183D01*
X31669Y17187D01*
X31665Y17195D01*
X31740Y17240D02*
Y17244D01*
X31744Y17252D01*
X31748Y17256D01*
X31755Y17259D01*
X31771D01*
X31778Y17256D01*
X31782Y17252D01*
X31786Y17244D01*
Y17237D01*
X31782Y17229D01*
X31775Y17217D01*
X31736Y17179D01*
X31790D01*
X31815Y17183D02*
X31811Y17179D01*
X31808Y17183D01*
X31811Y17187D01*
X31815Y17183D01*
Y17176D01*
X31811Y17168D01*
X31808Y17164D01*
X31934Y17259D02*
X31896Y17206D01*
X31953D01*
X31934Y17259D02*
Y17179D01*
X31967Y17214D02*
X32035D01*
X32116Y17240D02*
X32112Y17248D01*
X32105Y17256D01*
X32097Y17259D01*
X32082D01*
X32074Y17256D01*
X32067Y17248D01*
X32063Y17240D01*
X32059Y17229D01*
Y17210D01*
X32063Y17198D01*
X32067Y17191D01*
X32074Y17183D01*
X32082Y17179D01*
X32097D01*
X32105Y17183D01*
X32112Y17191D01*
X32116Y17198D01*
X32139Y17259D02*
Y17179D01*
Y17217D02*
X32150Y17229D01*
X32158Y17233D01*
X32169D01*
X32177Y17229D01*
X32181Y17217D01*
Y17179D01*
X32247Y17233D02*
Y17179D01*
Y17221D02*
X32240Y17229D01*
X32232Y17233D01*
X32221D01*
X32213Y17229D01*
X32205Y17221D01*
X32201Y17210D01*
Y17202D01*
X32205Y17191D01*
X32213Y17183D01*
X32221Y17179D01*
X32232D01*
X32240Y17183D01*
X32247Y17191D01*
X32269Y17233D02*
Y17179D01*
Y17217D02*
X32280Y17229D01*
X32288Y17233D01*
X32299D01*
X32307Y17229D01*
X32310Y17217D01*
Y17179D01*
X32451Y17240D02*
X32448Y17248D01*
X32440Y17256D01*
X32432Y17259D01*
X32417D01*
X32409Y17256D01*
X32402Y17248D01*
X32398Y17240D01*
X32394Y17229D01*
Y17210D01*
X32398Y17198D01*
X32402Y17191D01*
X32409Y17183D01*
X32417Y17179D01*
X32432D01*
X32440Y17183D01*
X32448Y17191D01*
X32451Y17198D01*
X32474Y17233D02*
Y17195D01*
X32478Y17183D01*
X32485Y17179D01*
X32497D01*
X32504Y17183D01*
X32516Y17195D01*
Y17233D02*
Y17179D01*
X32537Y17233D02*
Y17179D01*
Y17210D02*
X32540Y17221D01*
X32548Y17229D01*
X32556Y17233D01*
X32567D01*
X32574D02*
Y17179D01*
Y17210D02*
X32578Y17221D01*
X32586Y17229D01*
X32593Y17233D01*
X32605D01*
X32612Y17210D02*
X32658D01*
Y17217D01*
X32654Y17225D01*
X32650Y17229D01*
X32643Y17233D01*
X32631D01*
X32624Y17229D01*
X32616Y17221D01*
X32612Y17210D01*
Y17202D01*
X32616Y17191D01*
X32624Y17183D01*
X32631Y17179D01*
X32643D01*
X32650Y17183D01*
X32658Y17191D01*
X32675Y17233D02*
Y17179D01*
Y17217D02*
X32686Y17229D01*
X32694Y17233D01*
X32705D01*
X32713Y17229D01*
X32717Y17217D01*
Y17179D01*
X32749Y17259D02*
Y17195D01*
X32753Y17183D01*
X32761Y17179D01*
X32768D01*
X32738Y17233D02*
X32764D01*
X32843Y17259D02*
Y17179D01*
Y17259D02*
X32869D01*
X32881Y17256D01*
X32888Y17248D01*
X32892Y17240D01*
X32896Y17229D01*
Y17210D01*
X32892Y17198D01*
X32888Y17191D01*
X32881Y17183D01*
X32869Y17179D01*
X32843D01*
X32914Y17233D02*
Y17179D01*
Y17210D02*
X32918Y17221D01*
X32925Y17229D01*
X32933Y17233D01*
X32944D01*
X32959Y17259D02*
X32963Y17256D01*
X32967Y17259D01*
X32963Y17263D01*
X32959Y17259D01*
X32963Y17233D02*
Y17179D01*
X32981Y17233D02*
X33004Y17179D01*
X33026Y17233D02*
X33004Y17179D01*
X33039Y17210D02*
X33085D01*
Y17217D01*
X33081Y17225D01*
X33077Y17229D01*
X33070Y17233D01*
X33058D01*
X33051Y17229D01*
X33043Y17221D01*
X33039Y17210D01*
Y17202D01*
X33043Y17191D01*
X33051Y17183D01*
X33058Y17179D01*
X33070D01*
X33077Y17183D01*
X33085Y17191D01*
X33102Y17233D02*
Y17179D01*
Y17210D02*
X33106Y17221D01*
X33114Y17229D01*
X33121Y17233D01*
X33133D01*
X33203Y17259D02*
Y17179D01*
Y17259D02*
X33233Y17179D01*
X33264Y17259D02*
X33233Y17179D01*
X33264Y17259D02*
Y17179D01*
X33306Y17233D02*
X33298Y17229D01*
X33290Y17221D01*
X33287Y17210D01*
Y17202D01*
X33290Y17191D01*
X33298Y17183D01*
X33306Y17179D01*
X33317D01*
X33325Y17183D01*
X33332Y17191D01*
X33336Y17202D01*
Y17210D01*
X33332Y17221D01*
X33325Y17229D01*
X33317Y17233D01*
X33306D01*
X33399Y17259D02*
Y17179D01*
Y17221D02*
X33392Y17229D01*
X33384Y17233D01*
X33373D01*
X33365Y17229D01*
X33357Y17221D01*
X33354Y17210D01*
Y17202D01*
X33357Y17191D01*
X33365Y17183D01*
X33373Y17179D01*
X33384D01*
X33392Y17183D01*
X33399Y17191D01*
X33421Y17233D02*
Y17195D01*
X33424Y17183D01*
X33432Y17179D01*
X33444D01*
X33451Y17183D01*
X33463Y17195D01*
Y17233D02*
Y17179D01*
X33484Y17259D02*
Y17179D01*
X33500Y17210D02*
X33546D01*
Y17217D01*
X33542Y17225D01*
X33538Y17229D01*
X33531Y17233D01*
X33519D01*
X33512Y17229D01*
X33504Y17221D01*
X33500Y17210D01*
Y17202D01*
X33504Y17191D01*
X33512Y17183D01*
X33519Y17179D01*
X33531D01*
X33538Y17183D01*
X33546Y17191D01*
D30*
X31158Y17109D02*
Y17029D01*
X31204D01*
X31274D02*
X31243Y17109D01*
X31213Y17029D01*
X31224Y17056D02*
X31262D01*
X31346Y17098D02*
X31338Y17106D01*
X31327Y17109D01*
X31311D01*
X31300Y17106D01*
X31292Y17098D01*
Y17090D01*
X31296Y17083D01*
X31300Y17079D01*
X31308Y17075D01*
X31330Y17067D01*
X31338Y17064D01*
X31342Y17060D01*
X31346Y17052D01*
Y17041D01*
X31338Y17033D01*
X31327Y17029D01*
X31311D01*
X31300Y17033D01*
X31292Y17041D01*
X31484Y17090D02*
X31480Y17098D01*
X31472Y17106D01*
X31465Y17109D01*
X31449D01*
X31442Y17106D01*
X31434Y17098D01*
X31430Y17090D01*
X31426Y17079D01*
Y17060D01*
X31430Y17048D01*
X31434Y17041D01*
X31442Y17033D01*
X31449Y17029D01*
X31465D01*
X31472Y17033D01*
X31480Y17041D01*
X31484Y17048D01*
X31506Y17109D02*
Y17052D01*
X31510Y17041D01*
X31517Y17033D01*
X31529Y17029D01*
X31536D01*
X31548Y17033D01*
X31556Y17041D01*
X31559Y17052D01*
Y17109D01*
X31581D02*
Y17029D01*
Y17109D02*
X31612Y17029D01*
X31642Y17109D02*
X31612Y17029D01*
X31642Y17109D02*
Y17029D01*
X31665Y17109D02*
Y17029D01*
Y17109D02*
X31700D01*
X31711Y17106D01*
X31715Y17102D01*
X31719Y17094D01*
Y17086D01*
X31715Y17079D01*
X31711Y17075D01*
X31700Y17071D01*
X31665D02*
X31700D01*
X31711Y17067D01*
X31715Y17064D01*
X31719Y17056D01*
Y17045D01*
X31715Y17037D01*
X31711Y17033D01*
X31700Y17029D01*
X31665D01*
X31736Y17109D02*
Y17029D01*
Y17109D02*
X31771D01*
X31782Y17106D01*
X31786Y17102D01*
X31790Y17094D01*
Y17086D01*
X31786Y17079D01*
X31782Y17075D01*
X31771Y17071D01*
X31736D01*
X31763D02*
X31790Y17029D01*
X31857Y17109D02*
X31808D01*
Y17029D01*
X31857D01*
X31808Y17071D02*
X31838D01*
X31924Y17098D02*
X31916Y17106D01*
X31905Y17109D01*
X31890D01*
X31878Y17106D01*
X31871Y17098D01*
Y17090D01*
X31874Y17083D01*
X31878Y17079D01*
X31886Y17075D01*
X31909Y17067D01*
X31916Y17064D01*
X31920Y17060D01*
X31924Y17052D01*
Y17041D01*
X31916Y17033D01*
X31905Y17029D01*
X31890D01*
X31878Y17033D01*
X31871Y17041D01*
X32027Y17109D02*
X32020Y17106D01*
X32012Y17098D01*
X32008Y17090D01*
X32005Y17079D01*
Y17060D01*
X32008Y17048D01*
X32012Y17041D01*
X32020Y17033D01*
X32027Y17029D01*
X32043D01*
X32050Y17033D01*
X32058Y17041D01*
X32062Y17048D01*
X32066Y17060D01*
Y17079D01*
X32062Y17090D01*
X32058Y17098D01*
X32050Y17106D01*
X32043Y17109D01*
X32027D01*
X32084D02*
Y17029D01*
Y17109D02*
X32118D01*
X32130Y17106D01*
X32134Y17102D01*
X32138Y17094D01*
Y17086D01*
X32134Y17079D01*
X32130Y17075D01*
X32118Y17071D01*
X32084D02*
X32118D01*
X32130Y17067D01*
X32134Y17064D01*
X32138Y17056D01*
Y17045D01*
X32134Y17037D01*
X32130Y17033D01*
X32118Y17029D01*
X32084D01*
X32209Y17098D02*
X32201Y17106D01*
X32190Y17109D01*
X32174D01*
X32163Y17106D01*
X32155Y17098D01*
Y17090D01*
X32159Y17083D01*
X32163Y17079D01*
X32171Y17075D01*
X32193Y17067D01*
X32201Y17064D01*
X32205Y17060D01*
X32209Y17052D01*
Y17041D01*
X32201Y17033D01*
X32190Y17029D01*
X32174D01*
X32163Y17033D01*
X32155Y17041D01*
X32276Y17109D02*
X32227D01*
Y17029D01*
X32276D01*
X32227Y17071D02*
X32257D01*
X32289Y17109D02*
Y17029D01*
Y17109D02*
X32324D01*
X32335Y17106D01*
X32339Y17102D01*
X32343Y17094D01*
Y17086D01*
X32339Y17079D01*
X32335Y17075D01*
X32324Y17071D01*
X32289D01*
X32316D02*
X32343Y17029D01*
X32361Y17109D02*
X32391Y17029D01*
X32422Y17109D02*
X32391Y17029D01*
X32493D02*
X32462Y17109D01*
X32432Y17029D01*
X32443Y17056D02*
X32481D01*
X32538Y17109D02*
Y17029D01*
X32512Y17109D02*
X32565D01*
X32597D02*
X32590Y17106D01*
X32582Y17098D01*
X32578Y17090D01*
X32574Y17079D01*
Y17060D01*
X32578Y17048D01*
X32582Y17041D01*
X32590Y17033D01*
X32597Y17029D01*
X32612D01*
X32620Y17033D01*
X32628Y17041D01*
X32632Y17048D01*
X32635Y17060D01*
Y17079D01*
X32632Y17090D01*
X32628Y17098D01*
X32620Y17106D01*
X32612Y17109D01*
X32597D01*
X32654D02*
Y17029D01*
Y17109D02*
X32688D01*
X32700Y17106D01*
X32703Y17102D01*
X32707Y17094D01*
Y17086D01*
X32703Y17079D01*
X32700Y17075D01*
X32688Y17071D01*
X32654D01*
X32681D02*
X32707Y17029D01*
X32725Y17109D02*
X32756Y17071D01*
Y17029D01*
X32786Y17109D02*
X32756Y17071D01*
X33130Y17109D02*
X33118Y17106D01*
X33114Y17098D01*
Y17090D01*
X33118Y17083D01*
X33126Y17079D01*
X33141Y17075D01*
X33153Y17071D01*
X33160Y17064D01*
X33164Y17056D01*
Y17045D01*
X33160Y17037D01*
X33156Y17033D01*
X33145Y17029D01*
X33130D01*
X33118Y17033D01*
X33114Y17037D01*
X33111Y17045D01*
Y17056D01*
X33114Y17064D01*
X33122Y17071D01*
X33133Y17075D01*
X33149Y17079D01*
X33156Y17083D01*
X33160Y17090D01*
Y17098D01*
X33156Y17106D01*
X33145Y17109D01*
X33130D01*
X33182Y17018D02*
X33235Y17109D01*
X33279D02*
X33241Y17056D01*
X33298D01*
X33279Y17109D02*
Y17029D01*
X33312Y17018D02*
X33365Y17109D01*
X33374Y17090D02*
Y17094D01*
X33378Y17102D01*
X33382Y17106D01*
X33389Y17109D01*
X33405D01*
X33412Y17106D01*
X33416Y17102D01*
X33420Y17094D01*
Y17086D01*
X33416Y17079D01*
X33408Y17067D01*
X33370Y17029D01*
X33424D01*
X33464Y17109D02*
X33453Y17106D01*
X33445Y17094D01*
X33442Y17075D01*
Y17064D01*
X33445Y17045D01*
X33453Y17033D01*
X33464Y17029D01*
X33472D01*
X33484Y17033D01*
X33491Y17045D01*
X33495Y17064D01*
Y17075D01*
X33491Y17094D01*
X33484Y17106D01*
X33472Y17109D01*
X33464D01*
X33513Y17094D02*
X33520Y17098D01*
X33532Y17109D01*
Y17029D01*
X33571Y17094D02*
X33579Y17098D01*
X33591Y17109D01*
Y17029D01*
D36*
X32509Y18707D02*
D03*
X31451Y18728D02*
D03*
X31639Y18698D02*
D03*
X31510Y18784D02*
D03*
X31550Y18757D02*
D03*
X32404Y18656D02*
D03*
X32442Y18680D02*
D03*
X32470Y18695D02*
D03*
X32792Y19172D02*
D03*
X32832Y19102D02*
D03*
X32757Y19139D02*
D03*
X31677Y18983D02*
D03*
X31172Y19204D02*
D03*
X32478Y18882D02*
D03*
X31973Y19103D02*
D03*
X32828Y19140D02*
D03*
X33337Y18881D02*
D03*
X33648Y19232D02*
D03*
X34157Y18973D02*
D03*
X33652Y19194D02*
D03*
M02*
