%FSLAX23Y23*%
%MOIN*%
G70*
G01*
G75*
G04 Layer_Physical_Order=4*
G04 Layer_Color=16737945*
%ADD10C,0.030*%
%ADD11C,0.010*%
%ADD12R,0.059X0.118*%
%ADD13R,0.010X0.035*%
%ADD14R,0.063X0.071*%
%ADD15C,0.007*%
%ADD16C,0.008*%
%ADD17C,0.005*%
%ADD18C,0.012*%
%ADD19C,0.012*%
%ADD20C,0.012*%
%ADD21C,0.070*%
%ADD22C,0.065*%
%ADD23C,0.035*%
%ADD24C,0.039*%
%ADD25C,0.055*%
%ADD26C,0.071*%
%ADD27C,0.020*%
%ADD28C,0.030*%
%ADD29C,0.024*%
G36*
X27584Y16963D02*
X27584D01*
X27584Y16963D01*
Y16124D01*
X27583D01*
X27581Y16076D01*
X27576Y16028D01*
X27568Y15980D01*
X27556Y15933D01*
X27540Y15887D01*
X27522Y15842D01*
X27500Y15799D01*
X27475Y15758D01*
X27448Y15718D01*
X27417Y15680D01*
X27384Y15645D01*
X27349Y15612D01*
X27311Y15581D01*
X27272Y15554D01*
X27230Y15529D01*
X27187Y15507D01*
X27142Y15489D01*
X27096Y15474D01*
X27049Y15462D01*
X27002Y15453D01*
X26953Y15448D01*
X26905Y15446D01*
X26857Y15448D01*
X26809Y15453D01*
X26761Y15462D01*
X26714Y15474D01*
X26668Y15489D01*
X26623Y15507D01*
X26580Y15529D01*
X26539Y15554D01*
X26499Y15581D01*
X26461Y15612D01*
X26426Y15645D01*
X26393Y15680D01*
X26362Y15718D01*
X26335Y15758D01*
X26310Y15799D01*
X26288Y15842D01*
X26270Y15887D01*
X26255Y15933D01*
X26243Y15980D01*
X26234Y16028D01*
X26229Y16076D01*
X26227Y16124D01*
X26226D01*
Y16848D01*
X26224Y16848D01*
X26219Y16849D01*
Y16873D01*
Y16898D01*
X26224Y16899D01*
X26226Y16898D01*
Y16964D01*
X26226Y16964D01*
X26226Y16964D01*
X26226Y16964D01*
X27584D01*
X27584Y16963D01*
D02*
G37*
G36*
X27406Y22428D02*
X27402Y22426D01*
X27399Y22427D01*
X27391Y22428D01*
X27383Y22427D01*
X27376Y22424D01*
X27372Y22421D01*
X27370Y22423D01*
X27363Y22426D01*
X27355Y22427D01*
X27347Y22426D01*
X27340Y22423D01*
X27334Y22418D01*
X27329Y22412D01*
X27326Y22405D01*
X27325Y22397D01*
X27326Y22389D01*
X27329Y22382D01*
X27334Y22375D01*
X27340Y22370D01*
X27347Y22367D01*
X27355Y22366D01*
X27363Y22367D01*
X27370Y22370D01*
X27374Y22373D01*
X27376Y22371D01*
X27383Y22368D01*
X27391Y22367D01*
X27399Y22368D01*
X27402Y22370D01*
X27406Y22367D01*
Y22026D01*
X27326D01*
X27324Y22031D01*
X27325Y22031D01*
X27329Y22037D01*
X27332Y22043D01*
X27332Y22045D01*
X27305D01*
Y22050D01*
X27300D01*
Y22077D01*
X27298Y22077D01*
X27292Y22074D01*
X27286Y22070D01*
X27282Y22071D01*
X27276Y22075D01*
X27269Y22078D01*
X27267Y22078D01*
Y22051D01*
X27257D01*
Y22078D01*
X27255Y22078D01*
X27249Y22075D01*
X27243Y22071D01*
X27243Y22070D01*
X27238D01*
X27238Y22071D01*
X27232Y22075D01*
X27225Y22078D01*
X27223Y22078D01*
Y22051D01*
X27213D01*
Y22078D01*
X27211Y22078D01*
X27205Y22075D01*
X27199Y22071D01*
X27198Y22070D01*
X27193D01*
X27193Y22071D01*
X27187Y22075D01*
X27180Y22078D01*
X27178Y22078D01*
Y22051D01*
X27168D01*
Y22078D01*
X27166Y22078D01*
X27160Y22075D01*
X27154Y22071D01*
X27153Y22069D01*
X27148Y22069D01*
X27146Y22072D01*
X27140Y22076D01*
X27133Y22079D01*
X27131Y22079D01*
Y22052D01*
X27121D01*
Y22079D01*
X27119Y22079D01*
X27113Y22076D01*
X27107Y22072D01*
X27106Y22070D01*
X27101D01*
X27100Y22072D01*
X27094Y22076D01*
X27087Y22079D01*
X27085Y22079D01*
Y22052D01*
X27080D01*
Y22047D01*
X27054D01*
X27054Y22045D01*
X27057Y22039D01*
X27061Y22033D01*
X27064Y22031D01*
X27062Y22026D01*
X26735D01*
X26734Y22031D01*
X26740Y22033D01*
X26745Y22038D01*
X26750Y22043D01*
X26752Y22050D01*
X26753Y22052D01*
X26726D01*
Y22057D01*
X26721D01*
Y22083D01*
X26719Y22083D01*
X26712Y22080D01*
X26707Y22076D01*
X26707Y22076D01*
X26707Y22076D01*
X26707D01*
X26705Y22074D01*
X26700D01*
X26698Y22076D01*
X26698D01*
X26698Y22076D01*
Y22076D01*
X26692Y22080D01*
X26686Y22083D01*
X26684Y22083D01*
Y22057D01*
X26674D01*
Y22083D01*
X26672Y22083D01*
X26665Y22080D01*
X26659Y22076D01*
X26659Y22076D01*
X26659Y22076D01*
X26659D01*
X26658Y22074D01*
X26653D01*
X26651Y22076D01*
X26651D01*
X26651Y22076D01*
Y22076D01*
X26645Y22080D01*
X26639Y22083D01*
X26636Y22083D01*
Y22057D01*
X26626D01*
Y22083D01*
X26624Y22083D01*
X26618Y22080D01*
X26612Y22076D01*
X26612Y22076D01*
X26612Y22076D01*
X26612D01*
X26610Y22074D01*
X26605Y22074D01*
X26603Y22076D01*
X26598Y22080D01*
X26591Y22083D01*
X26589Y22083D01*
Y22057D01*
X26579D01*
Y22083D01*
X26577Y22083D01*
X26571Y22080D01*
X26565Y22076D01*
X26565Y22076D01*
X26565Y22076D01*
X26565D01*
X26563Y22074D01*
X26558D01*
X26556Y22076D01*
X26556D01*
X26556Y22076D01*
Y22076D01*
X26551Y22080D01*
X26544Y22083D01*
X26542Y22083D01*
Y22057D01*
X26532D01*
Y22083D01*
X26530Y22083D01*
X26523Y22080D01*
X26518Y22076D01*
X26516Y22074D01*
X26511Y22074D01*
X26509Y22076D01*
X26509D01*
X26509Y22076D01*
Y22076D01*
X26503Y22080D01*
X26497Y22083D01*
X26495Y22083D01*
Y22057D01*
X26485D01*
Y22083D01*
X26483Y22083D01*
X26476Y22080D01*
X26470Y22076D01*
X26470Y22076D01*
X26470Y22076D01*
X26470D01*
X26469Y22074D01*
X26464D01*
X26462Y22076D01*
X26462D01*
X26462Y22076D01*
Y22076D01*
X26456Y22080D01*
X26450Y22083D01*
X26447Y22083D01*
Y22057D01*
X26443D01*
Y22052D01*
X26416D01*
X26416Y22050D01*
X26419Y22043D01*
X26423Y22038D01*
X26429Y22033D01*
X26434Y22031D01*
X26433Y22026D01*
X26403D01*
Y22526D01*
X26640D01*
X26643Y22522D01*
X26643Y22522D01*
X26639Y22516D01*
X26636Y22509D01*
X26635Y22503D01*
X26633Y22502D01*
X26629Y22502D01*
X26628Y22502D01*
X26621Y22503D01*
X26614Y22502D01*
X26608Y22499D01*
X26602Y22495D01*
X26598Y22489D01*
X26595Y22482D01*
X26593Y22480D01*
X26586Y22483D01*
X26579Y22484D01*
X26572Y22483D01*
X26566Y22480D01*
X26560Y22476D01*
X26556Y22470D01*
X26553Y22463D01*
X26552Y22456D01*
X26553Y22449D01*
X26556Y22443D01*
X26560Y22437D01*
X26566Y22433D01*
X26572Y22430D01*
X26579Y22429D01*
X26586Y22430D01*
X26593Y22433D01*
X26599Y22437D01*
X26603Y22443D01*
X26606Y22449D01*
X26608Y22452D01*
Y22452D01*
X26608Y22452D01*
X26614Y22449D01*
X26621Y22448D01*
X26628Y22449D01*
X26635Y22452D01*
X26641Y22456D01*
X26645Y22462D01*
X26648Y22468D01*
X26648Y22475D01*
X26650Y22476D01*
X26655Y22476D01*
X26655Y22476D01*
X26662Y22475D01*
X26669Y22476D01*
X26676Y22479D01*
X26682Y22483D01*
X26686Y22489D01*
X26689Y22495D01*
X26690Y22502D01*
X26689Y22509D01*
X26686Y22516D01*
X26682Y22522D01*
X26676Y22526D01*
X26676Y22526D01*
X27406D01*
Y22428D01*
D02*
G37*
%LPC*%
G36*
X26775Y16423D02*
X26763Y16421D01*
X26751Y16417D01*
X26741Y16410D01*
X26733Y16400D01*
X26728Y16389D01*
X26726Y16377D01*
X26727Y16364D01*
X26731Y16352D01*
X26738Y16342D01*
X26748Y16334D01*
X26759Y16329D01*
X26772Y16327D01*
X26784Y16328D01*
X26796Y16332D01*
X26806Y16339D01*
X26814Y16349D01*
X26819Y16360D01*
X26821Y16373D01*
X26820Y16385D01*
X26816Y16397D01*
X26809Y16407D01*
X26799Y16415D01*
X26788Y16420D01*
X26775Y16423D01*
D02*
G37*
G36*
X27035Y16423D02*
X27022Y16420D01*
X27011Y16415D01*
X27001Y16407D01*
X26994Y16397D01*
X26990Y16385D01*
X26989Y16373D01*
X26991Y16360D01*
X26996Y16349D01*
X27004Y16339D01*
X27014Y16332D01*
X27026Y16328D01*
X27039Y16327D01*
X27051Y16329D01*
X27062Y16334D01*
X27072Y16342D01*
X27079Y16352D01*
X27083Y16364D01*
X27084Y16377D01*
X27082Y16389D01*
X27077Y16400D01*
X27069Y16410D01*
X27059Y16417D01*
X27047Y16421D01*
X27035Y16423D01*
D02*
G37*
G36*
X26572Y16417D02*
X26559Y16417D01*
X26547Y16414D01*
X26537Y16407D01*
X26528Y16398D01*
X26522Y16387D01*
X26519Y16375D01*
X26520Y16362D01*
X26523Y16350D01*
X26530Y16340D01*
X26539Y16331D01*
X26550Y16325D01*
X26562Y16322D01*
X26574Y16322D01*
X26586Y16326D01*
X26597Y16333D01*
X26606Y16342D01*
X26612Y16353D01*
X26615Y16365D01*
X26614Y16377D01*
X26611Y16389D01*
X26604Y16400D01*
X26595Y16409D01*
X26584Y16414D01*
X26572Y16417D01*
D02*
G37*
G36*
X27238D02*
X27226Y16414D01*
X27215Y16409D01*
X27206Y16400D01*
X27199Y16389D01*
X27196Y16377D01*
X27196Y16365D01*
X27199Y16353D01*
X27204Y16342D01*
X27213Y16333D01*
X27224Y16326D01*
X27236Y16322D01*
X27248Y16322D01*
X27260Y16325D01*
X27271Y16331D01*
X27280Y16340D01*
X27287Y16350D01*
X27291Y16362D01*
X27291Y16375D01*
X27288Y16387D01*
X27282Y16398D01*
X27273Y16407D01*
X27263Y16414D01*
X27251Y16417D01*
X27238Y16417D01*
D02*
G37*
G36*
X27156Y16510D02*
X27143Y16510D01*
X27131Y16506D01*
X27121Y16499D01*
X27112Y16490D01*
X27106Y16479D01*
X27103Y16467D01*
X27103Y16455D01*
X27107Y16443D01*
X27114Y16432D01*
X27123Y16423D01*
X27134Y16418D01*
X27146Y16415D01*
X27158Y16415D01*
X27170Y16418D01*
X27181Y16425D01*
X27190Y16434D01*
X27196Y16445D01*
X27198Y16457D01*
X27198Y16470D01*
X27195Y16482D01*
X27188Y16492D01*
X27179Y16501D01*
X27168Y16507D01*
X27156Y16510D01*
D02*
G37*
G36*
X26773Y16569D02*
X26761Y16567D01*
X26750Y16562D01*
X26740Y16554D01*
X26733Y16543D01*
X26729Y16532D01*
X26728Y16519D01*
X26730Y16507D01*
X26736Y16496D01*
X26744Y16486D01*
X26754Y16479D01*
X26766Y16475D01*
X26778Y16474D01*
X26791Y16476D01*
X26802Y16481D01*
X26812Y16490D01*
X26819Y16500D01*
X26823Y16512D01*
X26824Y16524D01*
X26821Y16536D01*
X26816Y16548D01*
X26808Y16557D01*
X26798Y16564D01*
X26786Y16568D01*
X26773Y16569D01*
D02*
G37*
G36*
X26905Y16455D02*
X26893Y16453D01*
X26881Y16449D01*
X26871Y16441D01*
X26864Y16431D01*
X26859Y16419D01*
X26857Y16407D01*
X26859Y16395D01*
X26864Y16383D01*
X26871Y16373D01*
X26881Y16366D01*
X26893Y16361D01*
X26905Y16359D01*
X26917Y16361D01*
X26929Y16366D01*
X26939Y16373D01*
X26947Y16383D01*
X26951Y16395D01*
X26953Y16407D01*
X26951Y16419D01*
X26947Y16431D01*
X26939Y16441D01*
X26929Y16449D01*
X26917Y16453D01*
X26905Y16455D01*
D02*
G37*
G36*
X26654Y16510D02*
X26642Y16507D01*
X26631Y16501D01*
X26622Y16492D01*
X26616Y16482D01*
X26612Y16470D01*
X26612Y16457D01*
X26615Y16445D01*
X26621Y16434D01*
X26629Y16425D01*
X26640Y16418D01*
X26652Y16415D01*
X26664Y16415D01*
X26677Y16418D01*
X26688Y16423D01*
X26697Y16432D01*
X26703Y16443D01*
X26707Y16455D01*
X26707Y16467D01*
X26704Y16479D01*
X26698Y16490D01*
X26690Y16499D01*
X26679Y16506D01*
X26667Y16510D01*
X26654Y16510D01*
D02*
G37*
G36*
X26676Y16333D02*
X26664Y16332D01*
X26652Y16328D01*
X26641Y16321D01*
X26633Y16312D01*
X26627Y16301D01*
X26624Y16289D01*
X26625Y16276D01*
X26629Y16264D01*
X26636Y16254D01*
X26645Y16245D01*
X26656Y16240D01*
X26668Y16237D01*
X26681Y16238D01*
X26693Y16242D01*
X26703Y16248D01*
X26712Y16258D01*
X26717Y16269D01*
X26720Y16281D01*
X26719Y16293D01*
X26715Y16305D01*
X26709Y16316D01*
X26699Y16324D01*
X26688Y16330D01*
X26676Y16333D01*
D02*
G37*
G36*
X27062Y16243D02*
X27029Y16217D01*
X27056Y16184D01*
X27061Y16189D01*
X27067Y16200D01*
X27070Y16212D01*
X27070Y16225D01*
X27066Y16237D01*
X27062Y16243D01*
D02*
G37*
G36*
X26989Y16251D02*
X26984Y16246D01*
X26978Y16235D01*
X26975Y16223D01*
X26975Y16210D01*
X26978Y16198D01*
X26982Y16192D01*
X27015Y16218D01*
X26989Y16251D01*
D02*
G37*
G36*
X27022Y16211D02*
X26989Y16184D01*
X26994Y16179D01*
X27005Y16173D01*
X27017Y16170D01*
X27030Y16170D01*
X27042Y16174D01*
X27048Y16178D01*
X27022Y16211D01*
D02*
G37*
G36*
X26782Y16265D02*
X26770Y16262D01*
X26759Y16256D01*
X26750Y16247D01*
X26744Y16237D01*
X26740Y16225D01*
X26740Y16212D01*
X26743Y16200D01*
X26749Y16189D01*
X26758Y16180D01*
X26769Y16174D01*
X26781Y16170D01*
X26793Y16170D01*
X26805Y16173D01*
X26816Y16179D01*
X26825Y16188D01*
X26832Y16198D01*
X26835Y16210D01*
X26835Y16223D01*
X26832Y16235D01*
X26826Y16246D01*
X26818Y16255D01*
X26807Y16262D01*
X26795Y16265D01*
X26782Y16265D01*
D02*
G37*
G36*
X26510Y16301D02*
X26498Y16300D01*
X26486Y16296D01*
X26475Y16289D01*
X26467Y16279D01*
X26462Y16268D01*
X26460Y16256D01*
X26461Y16243D01*
X26465Y16231D01*
X26472Y16221D01*
X26481Y16213D01*
X26493Y16208D01*
X26505Y16205D01*
X26518Y16206D01*
X26529Y16211D01*
X26540Y16218D01*
X26548Y16227D01*
X26553Y16238D01*
X26555Y16251D01*
X26554Y16263D01*
X26550Y16275D01*
X26543Y16285D01*
X26534Y16293D01*
X26522Y16299D01*
X26510Y16301D01*
D02*
G37*
G36*
X26905Y16322D02*
X26893Y16320D01*
X26881Y16316D01*
X26871Y16308D01*
X26864Y16298D01*
X26859Y16286D01*
X26857Y16274D01*
X26859Y16262D01*
X26864Y16250D01*
X26871Y16240D01*
X26881Y16233D01*
X26893Y16228D01*
X26905Y16226D01*
X26917Y16228D01*
X26929Y16233D01*
X26939Y16240D01*
X26947Y16250D01*
X26951Y16262D01*
X26953Y16274D01*
X26951Y16286D01*
X26947Y16298D01*
X26939Y16308D01*
X26929Y16316D01*
X26917Y16320D01*
X26905Y16322D01*
D02*
G37*
G36*
X27134Y16333D02*
X27122Y16330D01*
X27111Y16324D01*
X27102Y16316D01*
X27095Y16305D01*
X27091Y16293D01*
X27090Y16281D01*
X27093Y16269D01*
X27099Y16258D01*
X27107Y16248D01*
X27117Y16242D01*
X27129Y16238D01*
X27142Y16237D01*
X27154Y16240D01*
X27165Y16245D01*
X27174Y16254D01*
X27181Y16264D01*
X27185Y16276D01*
X27186Y16289D01*
X27183Y16301D01*
X27177Y16312D01*
X27169Y16321D01*
X27159Y16328D01*
X27147Y16332D01*
X27134Y16333D01*
D02*
G37*
G36*
X27300Y16301D02*
X27288Y16299D01*
X27277Y16293D01*
X27267Y16285D01*
X27260Y16275D01*
X27256Y16263D01*
X27255Y16251D01*
X27257Y16238D01*
X27262Y16227D01*
X27271Y16218D01*
X27281Y16211D01*
X27293Y16206D01*
X27305Y16205D01*
X27317Y16208D01*
X27329Y16213D01*
X27338Y16221D01*
X27345Y16231D01*
X27349Y16243D01*
X27350Y16256D01*
X27348Y16268D01*
X27343Y16279D01*
X27335Y16289D01*
X27324Y16296D01*
X27313Y16300D01*
X27300Y16301D01*
D02*
G37*
G36*
X27028Y16265D02*
X27015Y16265D01*
X27003Y16262D01*
X26997Y16258D01*
X27023Y16225D01*
X27056Y16251D01*
X27051Y16256D01*
X27040Y16262D01*
X27028Y16265D01*
D02*
G37*
G36*
X26700Y16819D02*
X26675D01*
Y16794D01*
X26678Y16794D01*
X26685Y16797D01*
X26692Y16802D01*
X26696Y16809D01*
X26699Y16816D01*
X26700Y16819D01*
D02*
G37*
G36*
X26765D02*
X26741D01*
X26741Y16816D01*
X26744Y16809D01*
X26749Y16802D01*
X26755Y16797D01*
X26762Y16794D01*
X26765Y16794D01*
Y16819D01*
D02*
G37*
G36*
X26600D02*
X26575D01*
Y16794D01*
X26578Y16794D01*
X26585Y16797D01*
X26592Y16802D01*
X26596Y16809D01*
X26599Y16816D01*
X26600Y16819D01*
D02*
G37*
G36*
X26665D02*
X26641D01*
X26641Y16816D01*
X26644Y16809D01*
X26649Y16802D01*
X26655Y16797D01*
X26662Y16794D01*
X26665Y16794D01*
Y16819D01*
D02*
G37*
G36*
X26800D02*
X26775D01*
Y16794D01*
X26778Y16794D01*
X26785Y16797D01*
X26792Y16802D01*
X26796Y16809D01*
X26799Y16816D01*
X26800Y16819D01*
D02*
G37*
G36*
X27190D02*
X27166D01*
X27166Y16816D01*
X27169Y16809D01*
X27174Y16802D01*
X27180Y16797D01*
X27187Y16794D01*
X27190Y16794D01*
Y16819D01*
D02*
G37*
G36*
X27225D02*
X27200D01*
Y16794D01*
X27203Y16794D01*
X27210Y16797D01*
X27217Y16802D01*
X27221Y16809D01*
X27224Y16816D01*
X27225Y16819D01*
D02*
G37*
G36*
X27090D02*
X27066D01*
X27066Y16816D01*
X27069Y16809D01*
X27074Y16802D01*
X27080Y16797D01*
X27087Y16794D01*
X27090Y16794D01*
Y16819D01*
D02*
G37*
G36*
X27125D02*
X27100D01*
Y16794D01*
X27103Y16794D01*
X27110Y16797D01*
X27117Y16802D01*
X27121Y16809D01*
X27124Y16816D01*
X27125Y16819D01*
D02*
G37*
G36*
X26265D02*
X26241D01*
X26241Y16816D01*
X26244Y16809D01*
X26249Y16802D01*
X26255Y16797D01*
X26262Y16794D01*
X26265Y16794D01*
Y16819D01*
D02*
G37*
G36*
X26300D02*
X26275D01*
Y16794D01*
X26278Y16794D01*
X26285Y16797D01*
X26292Y16802D01*
X26296Y16809D01*
X26299Y16816D01*
X26300Y16819D01*
D02*
G37*
G36*
X27037Y16569D02*
X27024Y16568D01*
X27013Y16564D01*
X27002Y16557D01*
X26994Y16548D01*
X26989Y16536D01*
X26986Y16524D01*
X26987Y16512D01*
X26992Y16500D01*
X26999Y16490D01*
X27008Y16481D01*
X27019Y16476D01*
X27032Y16474D01*
X27044Y16475D01*
X27056Y16479D01*
X27066Y16486D01*
X27074Y16496D01*
X27080Y16507D01*
X27082Y16519D01*
X27081Y16532D01*
X27077Y16543D01*
X27070Y16554D01*
X27060Y16562D01*
X27049Y16567D01*
X27037Y16569D01*
D02*
G37*
G36*
X26905Y16590D02*
X26893Y16588D01*
X26881Y16584D01*
X26871Y16576D01*
X26864Y16566D01*
X26859Y16554D01*
X26857Y16542D01*
X26859Y16530D01*
X26864Y16518D01*
X26871Y16508D01*
X26881Y16501D01*
X26893Y16496D01*
X26905Y16494D01*
X26917Y16496D01*
X26929Y16501D01*
X26939Y16508D01*
X26947Y16518D01*
X26951Y16530D01*
X26953Y16542D01*
X26951Y16554D01*
X26947Y16566D01*
X26939Y16576D01*
X26929Y16584D01*
X26917Y16588D01*
X26905Y16590D01*
D02*
G37*
G36*
X26365Y16819D02*
X26341D01*
X26341Y16816D01*
X26344Y16809D01*
X26349Y16802D01*
X26355Y16797D01*
X26362Y16794D01*
X26365Y16794D01*
Y16819D01*
D02*
G37*
G36*
X26500D02*
X26475D01*
Y16794D01*
X26478Y16794D01*
X26485Y16797D01*
X26492Y16802D01*
X26496Y16809D01*
X26499Y16816D01*
X26500Y16819D01*
D02*
G37*
G36*
X26565D02*
X26541D01*
X26541Y16816D01*
X26544Y16809D01*
X26549Y16802D01*
X26555Y16797D01*
X26562Y16794D01*
X26565Y16794D01*
Y16819D01*
D02*
G37*
G36*
X26400D02*
X26375D01*
Y16794D01*
X26378Y16794D01*
X26385Y16797D01*
X26392Y16802D01*
X26396Y16809D01*
X26399Y16816D01*
X26400Y16819D01*
D02*
G37*
G36*
X26465D02*
X26441D01*
X26441Y16816D01*
X26444Y16809D01*
X26449Y16802D01*
X26455Y16797D01*
X26462Y16794D01*
X26465Y16794D01*
Y16819D01*
D02*
G37*
G36*
X27248Y15926D02*
X27236Y15926D01*
X27224Y15922D01*
X27213Y15916D01*
X27204Y15907D01*
X27199Y15896D01*
X27196Y15883D01*
X27196Y15871D01*
X27199Y15859D01*
X27206Y15848D01*
X27215Y15840D01*
X27226Y15834D01*
X27238Y15831D01*
X27251Y15831D01*
X27263Y15835D01*
X27273Y15841D01*
X27282Y15850D01*
X27288Y15861D01*
X27291Y15873D01*
X27291Y15886D01*
X27287Y15898D01*
X27280Y15909D01*
X27271Y15917D01*
X27260Y15923D01*
X27248Y15926D01*
D02*
G37*
G36*
X27092Y15905D02*
X27061Y15877D01*
X27066Y15872D01*
X27078Y15867D01*
X27090Y15864D01*
X27102Y15865D01*
X27114Y15869D01*
X27120Y15874D01*
X27092Y15905D01*
D02*
G37*
G36*
X26836Y15897D02*
X26824Y15895D01*
X26813Y15890D01*
X26803Y15882D01*
X26795Y15872D01*
X26791Y15861D01*
X26789Y15848D01*
X26791Y15836D01*
X26796Y15825D01*
X26804Y15815D01*
X26814Y15807D01*
X26826Y15803D01*
X26838Y15801D01*
X26851Y15803D01*
X26862Y15808D01*
X26872Y15816D01*
X26879Y15826D01*
X26884Y15838D01*
X26885Y15850D01*
X26883Y15863D01*
X26878Y15874D01*
X26871Y15884D01*
X26860Y15891D01*
X26849Y15896D01*
X26836Y15897D01*
D02*
G37*
G36*
X26562Y15926D02*
X26550Y15923D01*
X26539Y15917D01*
X26530Y15909D01*
X26523Y15898D01*
X26520Y15886D01*
X26519Y15873D01*
X26522Y15861D01*
X26528Y15850D01*
X26537Y15841D01*
X26547Y15835D01*
X26559Y15831D01*
X26572Y15831D01*
X26584Y15834D01*
X26595Y15840D01*
X26604Y15848D01*
X26611Y15859D01*
X26614Y15871D01*
X26615Y15883D01*
X26612Y15896D01*
X26606Y15907D01*
X26597Y15916D01*
X26586Y15922D01*
X26574Y15926D01*
X26562Y15926D01*
D02*
G37*
G36*
X26715Y15960D02*
X26702Y15958D01*
X26691Y15952D01*
X26682Y15944D01*
X26675Y15934D01*
X26670Y15922D01*
X26670Y15909D01*
X26672Y15897D01*
X26677Y15886D01*
X26686Y15876D01*
X26696Y15869D01*
X26708Y15865D01*
X26720Y15864D01*
X26733Y15867D01*
X26744Y15872D01*
X26753Y15880D01*
X26760Y15891D01*
X26764Y15903D01*
X26765Y15915D01*
X26763Y15927D01*
X26757Y15939D01*
X26749Y15948D01*
X26739Y15955D01*
X26727Y15959D01*
X26715Y15960D01*
D02*
G37*
G36*
X27096Y15960D02*
X27083Y15959D01*
X27071Y15955D01*
X27065Y15951D01*
X27093Y15919D01*
X27125Y15947D01*
X27119Y15952D01*
X27108Y15958D01*
X27096Y15960D01*
D02*
G37*
G36*
X26974Y16037D02*
X26961Y16036D01*
X26949Y16032D01*
X26939Y16025D01*
X26931Y16016D01*
X26925Y16005D01*
X26922Y15993D01*
X26923Y15980D01*
X26927Y15968D01*
X26934Y15958D01*
X26943Y15949D01*
X26954Y15944D01*
X26967Y15941D01*
X26979Y15942D01*
X26991Y15946D01*
X27001Y15953D01*
X27010Y15962D01*
X27015Y15973D01*
X27018Y15985D01*
X27017Y15998D01*
X27013Y16010D01*
X27006Y16020D01*
X26997Y16029D01*
X26986Y16034D01*
X26974Y16037D01*
D02*
G37*
G36*
X27131Y15940D02*
X27100Y15912D01*
X27128Y15880D01*
X27133Y15886D01*
X27138Y15897D01*
X27141Y15909D01*
X27140Y15922D01*
X27136Y15934D01*
X27131Y15940D01*
D02*
G37*
G36*
X27058Y15944D02*
X27053Y15939D01*
X27047Y15927D01*
X27045Y15915D01*
X27046Y15903D01*
X27050Y15891D01*
X27054Y15885D01*
X27086Y15913D01*
X27058Y15944D01*
D02*
G37*
G36*
X27032Y15774D02*
X27019Y15772D01*
X27008Y15767D01*
X26999Y15759D01*
X26992Y15748D01*
X26987Y15736D01*
X26986Y15724D01*
X26989Y15712D01*
X26994Y15700D01*
X27002Y15691D01*
X27013Y15684D01*
X27024Y15680D01*
X27037Y15679D01*
X27049Y15681D01*
X27060Y15686D01*
X27070Y15694D01*
X27077Y15705D01*
X27081Y15717D01*
X27082Y15729D01*
X27080Y15741D01*
X27074Y15753D01*
X27066Y15762D01*
X27056Y15769D01*
X27044Y15773D01*
X27032Y15774D01*
D02*
G37*
G36*
X26664Y15834D02*
X26652Y15833D01*
X26640Y15830D01*
X26629Y15823D01*
X26621Y15814D01*
X26615Y15803D01*
X26612Y15791D01*
X26612Y15778D01*
X26616Y15766D01*
X26622Y15756D01*
X26631Y15747D01*
X26642Y15741D01*
X26654Y15738D01*
X26667Y15739D01*
X26679Y15742D01*
X26690Y15749D01*
X26698Y15758D01*
X26704Y15769D01*
X26707Y15781D01*
X26707Y15793D01*
X26703Y15805D01*
X26697Y15816D01*
X26688Y15825D01*
X26677Y15831D01*
X26664Y15834D01*
D02*
G37*
G36*
X26905Y15754D02*
X26893Y15752D01*
X26881Y15748D01*
X26871Y15740D01*
X26864Y15730D01*
X26859Y15718D01*
X26857Y15706D01*
X26859Y15694D01*
X26864Y15682D01*
X26871Y15672D01*
X26881Y15665D01*
X26893Y15660D01*
X26905Y15658D01*
X26917Y15660D01*
X26929Y15665D01*
X26939Y15672D01*
X26947Y15682D01*
X26951Y15694D01*
X26953Y15706D01*
X26951Y15718D01*
X26947Y15730D01*
X26939Y15740D01*
X26929Y15748D01*
X26917Y15752D01*
X26905Y15754D01*
D02*
G37*
G36*
X26778Y15774D02*
X26766Y15773D01*
X26754Y15769D01*
X26744Y15762D01*
X26736Y15753D01*
X26730Y15741D01*
X26728Y15729D01*
X26729Y15717D01*
X26733Y15705D01*
X26740Y15694D01*
X26750Y15686D01*
X26761Y15681D01*
X26773Y15679D01*
X26786Y15680D01*
X26798Y15684D01*
X26808Y15691D01*
X26816Y15700D01*
X26821Y15712D01*
X26824Y15724D01*
X26823Y15736D01*
X26819Y15748D01*
X26812Y15759D01*
X26802Y15767D01*
X26791Y15772D01*
X26778Y15774D01*
D02*
G37*
G36*
X27150Y15779D02*
X27115Y15754D01*
X27121Y15749D01*
X27131Y15742D01*
X27143Y15739D01*
X27156Y15738D01*
X27168Y15741D01*
X27175Y15745D01*
X27150Y15779D01*
D02*
G37*
G36*
X27146Y15834D02*
X27134Y15831D01*
X27127Y15827D01*
X27152Y15793D01*
X27186Y15818D01*
X27181Y15823D01*
X27170Y15830D01*
X27158Y15833D01*
X27146Y15834D01*
D02*
G37*
G36*
X26974Y15897D02*
X26961Y15896D01*
X26950Y15891D01*
X26940Y15884D01*
X26932Y15874D01*
X26927Y15863D01*
X26925Y15850D01*
X26926Y15838D01*
X26931Y15826D01*
X26938Y15816D01*
X26948Y15808D01*
X26959Y15803D01*
X26972Y15801D01*
X26984Y15803D01*
X26996Y15807D01*
X27006Y15815D01*
X27014Y15825D01*
X27019Y15836D01*
X27021Y15848D01*
X27019Y15861D01*
X27015Y15872D01*
X27007Y15882D01*
X26998Y15890D01*
X26986Y15895D01*
X26974Y15897D01*
D02*
G37*
G36*
X27192Y15810D02*
X27158Y15785D01*
X27183Y15751D01*
X27188Y15756D01*
X27195Y15766D01*
X27198Y15778D01*
X27198Y15791D01*
X27196Y15803D01*
X27192Y15810D01*
D02*
G37*
G36*
X27119Y15821D02*
X27114Y15816D01*
X27107Y15805D01*
X27103Y15793D01*
X27103Y15781D01*
X27106Y15769D01*
X27110Y15762D01*
X27144Y15787D01*
X27119Y15821D01*
D02*
G37*
G36*
X26952Y16119D02*
X26910D01*
Y16077D01*
X26917Y16078D01*
X26929Y16083D01*
X26939Y16090D01*
X26947Y16100D01*
X26951Y16112D01*
X26952Y16119D01*
D02*
G37*
G36*
X27067Y16136D02*
X27057Y16094D01*
X27099Y16085D01*
X27099Y16092D01*
X27097Y16105D01*
X27092Y16116D01*
X27086Y16124D01*
X27085Y16124D01*
X27084Y16126D01*
X27074Y16133D01*
X27067Y16136D01*
D02*
G37*
G36*
X27323Y16172D02*
X27311Y16170D01*
X27299Y16166D01*
X27289Y16158D01*
X27282Y16148D01*
X27277Y16136D01*
X27275Y16124D01*
X27277Y16112D01*
X27282Y16100D01*
X27289Y16090D01*
X27299Y16083D01*
X27311Y16078D01*
X27323Y16076D01*
X27335Y16078D01*
X27347Y16083D01*
X27357Y16090D01*
X27365Y16100D01*
X27369Y16112D01*
X27371Y16124D01*
Y16124D01*
X27369Y16136D01*
X27365Y16148D01*
X27357Y16158D01*
X27347Y16166D01*
X27335Y16170D01*
X27323Y16172D01*
D02*
G37*
G36*
X26900Y16119D02*
X26858D01*
X26859Y16112D01*
X26864Y16100D01*
X26871Y16090D01*
X26881Y16083D01*
X26893Y16078D01*
X26900Y16077D01*
Y16119D01*
D02*
G37*
G36*
X27050Y16139D02*
X27037Y16136D01*
X27026Y16131D01*
X27017Y16124D01*
X27016Y16123D01*
X27009Y16113D01*
X27006Y16106D01*
X27048Y16097D01*
X27057Y16138D01*
X27050Y16139D01*
D02*
G37*
G36*
X26900Y16171D02*
X26893Y16170D01*
X26881Y16166D01*
X26871Y16158D01*
X26864Y16148D01*
X26859Y16136D01*
X26858Y16129D01*
X26900D01*
Y16171D01*
D02*
G37*
G36*
X26910D02*
Y16129D01*
X26952D01*
X26951Y16136D01*
X26947Y16148D01*
X26939Y16158D01*
X26929Y16166D01*
X26917Y16170D01*
X26910Y16171D01*
D02*
G37*
G36*
X27180Y16206D02*
X27168Y16203D01*
X27157Y16196D01*
X27148Y16188D01*
X27142Y16177D01*
X27139Y16165D01*
X27138Y16152D01*
X27142Y16140D01*
X27148Y16129D01*
X27156Y16120D01*
X27167Y16114D01*
X27179Y16111D01*
X27192Y16111D01*
X27204Y16114D01*
X27215Y16120D01*
X27224Y16129D01*
X27230Y16139D01*
X27233Y16151D01*
X27234Y16164D01*
X27230Y16176D01*
X27224Y16187D01*
X27216Y16196D01*
X27205Y16202D01*
X27193Y16206D01*
X27180Y16206D01*
D02*
G37*
G36*
X26630Y16206D02*
X26617Y16206D01*
X26605Y16202D01*
X26595Y16196D01*
X26586Y16187D01*
X26580Y16176D01*
X26577Y16164D01*
X26577Y16151D01*
X26580Y16139D01*
X26586Y16129D01*
X26587Y16128D01*
D01*
X26595Y16120D01*
X26606Y16114D01*
X26618Y16111D01*
X26631Y16111D01*
X26643Y16114D01*
X26654Y16120D01*
X26661Y16128D01*
D01*
X26662Y16129D01*
X26669Y16140D01*
X26672Y16152D01*
X26672Y16165D01*
X26668Y16177D01*
X26662Y16188D01*
X26653Y16196D01*
X26642Y16203D01*
X26630Y16206D01*
D02*
G37*
G36*
X27305Y16043D02*
X27293Y16042D01*
X27281Y16038D01*
X27271Y16031D01*
X27262Y16021D01*
X27257Y16010D01*
X27255Y15997D01*
X27256Y15985D01*
X27260Y15973D01*
X27267Y15963D01*
X27277Y15955D01*
X27288Y15949D01*
X27300Y15947D01*
X27313Y15948D01*
X27324Y15952D01*
X27335Y15959D01*
X27343Y15969D01*
X27348Y15980D01*
X27350Y15992D01*
X27349Y16005D01*
X27345Y16017D01*
X27338Y16027D01*
X27329Y16035D01*
X27317Y16040D01*
X27305Y16043D01*
D02*
G37*
G36*
X27175Y16071D02*
X27162Y16071D01*
X27150Y16067D01*
X27139Y16061D01*
X27131Y16052D01*
X27125Y16041D01*
X27122Y16029D01*
X27122Y16016D01*
X27126Y16004D01*
X27133Y15993D01*
X27142Y15985D01*
X27153Y15979D01*
X27165Y15976D01*
X27177Y15976D01*
X27189Y15980D01*
X27200Y15987D01*
X27209Y15996D01*
X27214Y16007D01*
X27217Y16019D01*
X27217Y16031D01*
X27213Y16043D01*
X27207Y16054D01*
X27198Y16063D01*
X27187Y16069D01*
X27175Y16071D01*
D02*
G37*
G36*
X26836Y16037D02*
X26824Y16034D01*
X26813Y16029D01*
X26804Y16020D01*
X26797Y16010D01*
X26793Y15998D01*
X26792Y15985D01*
X26795Y15973D01*
X26800Y15962D01*
X26809Y15953D01*
X26819Y15946D01*
X26831Y15942D01*
X26844Y15941D01*
X26856Y15944D01*
X26867Y15949D01*
X26876Y15958D01*
X26883Y15968D01*
X26887Y15980D01*
X26888Y15993D01*
X26885Y16005D01*
X26880Y16016D01*
X26871Y16025D01*
X26861Y16032D01*
X26849Y16036D01*
X26836Y16037D01*
D02*
G37*
G36*
X26505Y16043D02*
X26493Y16040D01*
X26481Y16035D01*
X26472Y16027D01*
X26465Y16017D01*
X26461Y16005D01*
X26460Y15992D01*
X26462Y15980D01*
X26467Y15969D01*
X26475Y15959D01*
X26486Y15952D01*
X26498Y15948D01*
X26510Y15947D01*
X26522Y15949D01*
X26534Y15955D01*
X26543Y15963D01*
X26550Y15973D01*
X26554Y15985D01*
X26555Y15997D01*
X26553Y16010D01*
X26548Y16021D01*
X26540Y16031D01*
X26529Y16038D01*
X26518Y16042D01*
X26505Y16043D01*
D02*
G37*
G36*
X26636Y16071D02*
X26623Y16069D01*
X26612Y16063D01*
X26603Y16054D01*
X26597Y16043D01*
X26593Y16031D01*
X26593Y16019D01*
X26596Y16007D01*
X26602Y15996D01*
X26610Y15987D01*
X26621Y15980D01*
X26633Y15976D01*
X26645Y15976D01*
X26657Y15979D01*
X26668Y15985D01*
X26678Y15993D01*
X26684Y16004D01*
X26688Y16016D01*
X26688Y16029D01*
X26685Y16041D01*
X26679Y16052D01*
X26671Y16061D01*
X26660Y16067D01*
X26648Y16071D01*
X26636Y16071D01*
D02*
G37*
G36*
X27004Y16096D02*
X27003Y16089D01*
X27006Y16077D01*
X27011Y16065D01*
X27019Y16056D01*
X27029Y16048D01*
X27036Y16046D01*
X27045Y16087D01*
X27004Y16096D01*
D02*
G37*
G36*
X26487Y16172D02*
X26475Y16170D01*
X26463Y16166D01*
X26453Y16158D01*
X26446Y16148D01*
X26441Y16136D01*
X26439Y16126D01*
X26439Y16124D01*
X26441Y16112D01*
X26446Y16100D01*
X26453Y16090D01*
X26463Y16083D01*
X26475Y16078D01*
X26487Y16076D01*
X26499Y16078D01*
X26511Y16083D01*
X26521Y16090D01*
X26529Y16100D01*
X26533Y16112D01*
X26535Y16124D01*
X26533Y16136D01*
X26529Y16148D01*
X26521Y16158D01*
X26511Y16166D01*
X26499Y16170D01*
X26487Y16172D01*
D02*
G37*
G36*
X27055Y16085D02*
X27046Y16044D01*
X27053Y16043D01*
X27065Y16045D01*
X27077Y16050D01*
X27086Y16058D01*
X27094Y16068D01*
X27096Y16075D01*
X27055Y16085D01*
D02*
G37*
G36*
X26761Y16139D02*
X26748Y16137D01*
X26736Y16133D01*
X26726Y16126D01*
X26724Y16124D01*
X26718Y16116D01*
X26713Y16105D01*
X26711Y16092D01*
X26712Y16080D01*
X26716Y16068D01*
X26724Y16058D01*
X26733Y16050D01*
X26745Y16045D01*
X26757Y16043D01*
X26770Y16044D01*
X26781Y16048D01*
X26791Y16056D01*
X26799Y16065D01*
X26805Y16077D01*
X26807Y16089D01*
X26806Y16101D01*
X26801Y16113D01*
X26794Y16123D01*
X26793Y16124D01*
X26784Y16131D01*
X26773Y16136D01*
X26761Y16139D01*
D02*
G37*
G36*
X27290Y16819D02*
X27266D01*
X27266Y16816D01*
X27269Y16809D01*
X27274Y16802D01*
X27280Y16797D01*
X27287Y16794D01*
X27290Y16794D01*
Y16819D01*
D02*
G37*
G36*
X26715Y16903D02*
X26712Y16903D01*
X26705Y16900D01*
X26699Y16895D01*
X26694Y16889D01*
X26691Y16882D01*
X26691Y16879D01*
X26715D01*
Y16903D01*
D02*
G37*
G36*
X26725D02*
Y16879D01*
X26750D01*
X26749Y16882D01*
X26746Y16889D01*
X26742Y16895D01*
X26735Y16900D01*
X26728Y16903D01*
X26725Y16903D01*
D02*
G37*
G36*
X26615D02*
X26612Y16903D01*
X26605Y16900D01*
X26599Y16895D01*
X26594Y16889D01*
X26591Y16882D01*
X26591Y16879D01*
X26615D01*
Y16903D01*
D02*
G37*
G36*
X26625D02*
Y16879D01*
X26650D01*
X26649Y16882D01*
X26646Y16889D01*
X26642Y16895D01*
X26635Y16900D01*
X26628Y16903D01*
X26625Y16903D01*
D02*
G37*
G36*
X26815D02*
X26812Y16903D01*
X26805Y16900D01*
X26799Y16895D01*
X26794Y16889D01*
X26791Y16882D01*
X26791Y16879D01*
X26815D01*
Y16903D01*
D02*
G37*
G36*
X27050D02*
Y16879D01*
X27075D01*
X27074Y16882D01*
X27071Y16889D01*
X27067Y16895D01*
X27060Y16900D01*
X27053Y16903D01*
X27050Y16903D01*
D02*
G37*
G36*
X27140D02*
X27137Y16903D01*
X27130Y16900D01*
X27124Y16895D01*
X27119Y16889D01*
X27116Y16882D01*
X27116Y16879D01*
X27140D01*
Y16903D01*
D02*
G37*
G36*
X26825D02*
Y16879D01*
X26850D01*
X26849Y16882D01*
X26846Y16889D01*
X26842Y16895D01*
X26835Y16900D01*
X26828Y16903D01*
X26825Y16903D01*
D02*
G37*
G36*
X27040D02*
X27037Y16903D01*
X27030Y16900D01*
X27024Y16895D01*
X27019Y16889D01*
X27016Y16882D01*
X27016Y16879D01*
X27040D01*
Y16903D01*
D02*
G37*
G36*
X26229Y16898D02*
Y16878D01*
X26249D01*
X26248Y16883D01*
X26242Y16891D01*
X26234Y16897D01*
X26229Y16898D01*
D02*
G37*
G36*
X26315Y16903D02*
X26312Y16903D01*
X26305Y16900D01*
X26299Y16895D01*
X26294Y16889D01*
X26291Y16882D01*
X26291Y16879D01*
X26315D01*
Y16903D01*
D02*
G37*
G36*
X27275Y16869D02*
X27250D01*
Y16844D01*
X27253Y16844D01*
X27260Y16847D01*
X27267Y16852D01*
X27271Y16859D01*
X27274Y16866D01*
X27275Y16869D01*
D02*
G37*
G36*
X26249Y16868D02*
X26229D01*
Y16849D01*
X26234Y16850D01*
X26242Y16855D01*
X26248Y16863D01*
X26249Y16868D01*
D02*
G37*
G36*
X26325Y16903D02*
Y16879D01*
X26350D01*
X26349Y16882D01*
X26346Y16889D01*
X26342Y16895D01*
X26335Y16900D01*
X26328Y16903D01*
X26325Y16903D01*
D02*
G37*
G36*
X26515D02*
X26512Y16903D01*
X26505Y16900D01*
X26499Y16895D01*
X26494Y16889D01*
X26491Y16882D01*
X26491Y16879D01*
X26515D01*
Y16903D01*
D02*
G37*
G36*
X26525D02*
Y16879D01*
X26550D01*
X26549Y16882D01*
X26546Y16889D01*
X26542Y16895D01*
X26535Y16900D01*
X26528Y16903D01*
X26525Y16903D01*
D02*
G37*
G36*
X26415D02*
X26412Y16903D01*
X26405Y16900D01*
X26399Y16895D01*
X26394Y16889D01*
X26391Y16882D01*
X26391Y16879D01*
X26415D01*
Y16903D01*
D02*
G37*
G36*
X26425D02*
Y16879D01*
X26450D01*
X26449Y16882D01*
X26446Y16889D01*
X26442Y16895D01*
X26435Y16900D01*
X26428Y16903D01*
X26425Y16903D01*
D02*
G37*
G36*
X26960Y22180D02*
Y22158D01*
X26982D01*
X26982Y22160D01*
X26979Y22167D01*
X26975Y22173D01*
X26969Y22177D01*
X26962Y22180D01*
X26960Y22180D01*
D02*
G37*
G36*
X26691Y22375D02*
X26684Y22374D01*
X26678Y22371D01*
X26672Y22367D01*
X26668Y22361D01*
X26665Y22354D01*
X26664Y22347D01*
X26665Y22340D01*
X26668Y22334D01*
X26672Y22328D01*
X26678Y22324D01*
X26684Y22321D01*
X26691Y22320D01*
X26698Y22321D01*
X26705Y22324D01*
X26708Y22326D01*
X26713Y22325D01*
X26714Y22322D01*
X26718Y22316D01*
X26724Y22312D01*
X26730Y22309D01*
X26737Y22308D01*
X26744Y22309D01*
X26745Y22309D01*
X26749Y22306D01*
X26750Y22299D01*
X26750Y22299D01*
X26747Y22295D01*
X26745Y22296D01*
X26738Y22297D01*
X26731Y22296D01*
X26724Y22294D01*
X26719Y22289D01*
X26717Y22288D01*
X26712Y22292D01*
X26705Y22295D01*
X26698Y22296D01*
X26691Y22295D01*
X26685Y22292D01*
X26679Y22288D01*
X26678Y22288D01*
X26678Y22288D01*
X26678Y22288D01*
Y22288D01*
X26678Y22288D01*
X26678Y22288D01*
X26673Y22293D01*
X26666Y22295D01*
X26659Y22296D01*
X26652Y22295D01*
X26645Y22293D01*
X26641Y22290D01*
X26640Y22292D01*
X26634Y22296D01*
X26627Y22299D01*
X26620Y22300D01*
X26613Y22299D01*
X26607Y22296D01*
X26601Y22292D01*
X26601Y22291D01*
X26596Y22291D01*
X26593Y22293D01*
X26586Y22296D01*
X26585Y22296D01*
X26584Y22298D01*
X26583Y22306D01*
X26579Y22314D01*
X26574Y22321D01*
X26567Y22326D01*
X26559Y22330D01*
X26551Y22331D01*
X26542Y22330D01*
X26534Y22326D01*
X26527Y22321D01*
X26522Y22314D01*
X26519Y22306D01*
X26518Y22298D01*
X26519Y22289D01*
X26522Y22281D01*
X26527Y22275D01*
X26534Y22269D01*
X26542Y22266D01*
X26551Y22265D01*
X26553Y22263D01*
X26553Y22262D01*
X26556Y22256D01*
X26560Y22250D01*
X26566Y22246D01*
X26572Y22243D01*
X26579Y22242D01*
X26586Y22243D01*
X26593Y22246D01*
X26599Y22250D01*
X26599Y22250D01*
X26604Y22251D01*
X26607Y22249D01*
X26613Y22246D01*
X26620Y22245D01*
X26627Y22246D01*
X26634Y22249D01*
X26638Y22252D01*
X26640Y22250D01*
X26645Y22246D01*
X26652Y22243D01*
X26659Y22242D01*
X26666Y22243D01*
X26673Y22246D01*
X26678Y22250D01*
X26678Y22250D01*
D01*
X26679Y22249D01*
X26679Y22249D01*
Y22249D01*
X26685Y22245D01*
X26691Y22242D01*
X26698Y22241D01*
X26705Y22242D01*
X26712Y22245D01*
X26718Y22249D01*
X26720Y22249D01*
X26724Y22246D01*
X26731Y22244D01*
X26738Y22243D01*
X26745Y22244D01*
X26751Y22246D01*
X26757Y22251D01*
X26757D01*
X26758Y22250D01*
X26764Y22246D01*
X26770Y22243D01*
X26777Y22242D01*
X26784Y22243D01*
X26791Y22246D01*
X26796Y22250D01*
X26801Y22256D01*
X26803Y22262D01*
X26804Y22269D01*
X26803Y22276D01*
X26801Y22283D01*
X26796Y22288D01*
X26800Y22293D01*
X26803Y22299D01*
X26804Y22306D01*
X26803Y22313D01*
X26804Y22314D01*
X26808Y22316D01*
X26809Y22315D01*
X26816Y22314D01*
X26823Y22315D01*
X26830Y22318D01*
X26835Y22322D01*
X26836Y22320D01*
X26842Y22316D01*
X26848Y22313D01*
X26855Y22312D01*
X26862Y22313D01*
X26869Y22316D01*
X26875Y22320D01*
X26878Y22321D01*
X26881Y22319D01*
X26887Y22316D01*
X26894Y22315D01*
X26901Y22316D01*
X26908Y22319D01*
X26914Y22323D01*
X26914Y22323D01*
X26915Y22324D01*
X26921Y22320D01*
X26927Y22317D01*
X26934Y22316D01*
X26941Y22317D01*
X26948Y22320D01*
X26954Y22324D01*
X26958Y22330D01*
X26961Y22336D01*
X26962Y22343D01*
X26961Y22350D01*
X26958Y22357D01*
X26954Y22363D01*
X26948Y22367D01*
X26941Y22370D01*
X26934Y22371D01*
X26927Y22370D01*
X26921Y22367D01*
X26915Y22363D01*
X26915Y22363D01*
X26914Y22362D01*
X26908Y22366D01*
X26901Y22369D01*
X26894Y22370D01*
X26887Y22369D01*
X26881Y22366D01*
X26875Y22362D01*
X26871Y22361D01*
X26869Y22363D01*
X26862Y22366D01*
X26855Y22367D01*
X26848Y22366D01*
X26842Y22363D01*
X26837Y22359D01*
X26836Y22361D01*
X26830Y22365D01*
X26823Y22368D01*
X26816Y22369D01*
X26809Y22368D01*
X26803Y22365D01*
X26797Y22361D01*
X26793Y22355D01*
X26790Y22348D01*
X26789Y22341D01*
X26790Y22335D01*
X26789Y22334D01*
X26785Y22332D01*
X26783Y22333D01*
X26776Y22334D01*
X26769Y22333D01*
X26768Y22332D01*
X26765Y22335D01*
X26764Y22342D01*
X26761Y22349D01*
X26757Y22355D01*
X26751Y22359D01*
X26744Y22362D01*
X26737Y22363D01*
X26730Y22362D01*
X26724Y22359D01*
X26721Y22357D01*
X26716Y22358D01*
X26715Y22361D01*
X26711Y22367D01*
X26705Y22371D01*
X26698Y22374D01*
X26691Y22375D01*
D02*
G37*
G36*
X26982Y22148D02*
X26960D01*
Y22127D01*
X26962Y22127D01*
X26969Y22130D01*
X26975Y22134D01*
X26979Y22140D01*
X26982Y22146D01*
X26982Y22148D01*
D02*
G37*
G36*
X26950Y22180D02*
X26948Y22180D01*
X26942Y22177D01*
X26936Y22173D01*
X26932Y22167D01*
X26929Y22160D01*
X26929Y22158D01*
X26950D01*
Y22180D01*
D02*
G37*
G36*
X27230Y22377D02*
X27223Y22376D01*
X27217Y22373D01*
X27211Y22369D01*
X27209D01*
X27203Y22373D01*
X27196Y22376D01*
X27189Y22377D01*
X27182Y22376D01*
X27176Y22373D01*
X27170Y22369D01*
X27166Y22363D01*
X27163Y22356D01*
X27162Y22352D01*
X27157Y22350D01*
X27151Y22346D01*
X27147Y22340D01*
X27144Y22333D01*
X27143Y22326D01*
X27144Y22319D01*
X27147Y22313D01*
X27151Y22307D01*
X27157Y22303D01*
X27163Y22300D01*
X27170Y22299D01*
X27177Y22300D01*
X27184Y22303D01*
X27190Y22307D01*
X27190Y22307D01*
X27191Y22308D01*
X27197Y22304D01*
X27203Y22301D01*
X27210Y22300D01*
X27217Y22301D01*
X27221Y22302D01*
X27225Y22299D01*
X27224Y22298D01*
X27226Y22289D01*
X27226Y22287D01*
X27224Y22283D01*
X27222Y22283D01*
X27215Y22280D01*
X27209Y22275D01*
X27205Y22274D01*
X27204Y22275D01*
X27197Y22278D01*
X27190Y22279D01*
X27183Y22278D01*
X27177Y22275D01*
X27172Y22271D01*
X27170Y22274D01*
X27164Y22278D01*
X27157Y22281D01*
X27150Y22282D01*
X27143Y22281D01*
X27137Y22278D01*
X27131Y22274D01*
X27130Y22273D01*
X27125Y22277D01*
X27118Y22280D01*
X27111Y22281D01*
X27104Y22280D01*
X27098Y22277D01*
X27094Y22274D01*
X27092Y22277D01*
X27086Y22281D01*
X27079Y22284D01*
X27072Y22285D01*
X27065Y22284D01*
X27059Y22281D01*
X27053Y22277D01*
X27053Y22276D01*
X27048Y22276D01*
X27045Y22278D01*
X27038Y22281D01*
X27031Y22282D01*
X27024Y22281D01*
X27018Y22278D01*
X27013Y22274D01*
X27013Y22275D01*
X27007Y22279D01*
X27000Y22282D01*
X26993Y22283D01*
X26986Y22282D01*
X26980Y22279D01*
X26974Y22275D01*
X26970Y22269D01*
X26967Y22262D01*
X26966Y22255D01*
X26967Y22248D01*
X26970Y22242D01*
X26974Y22236D01*
X26980Y22232D01*
X26986Y22229D01*
X26993Y22228D01*
X27000Y22229D01*
X27007Y22232D01*
X27012Y22236D01*
X27012Y22235D01*
X27018Y22231D01*
X27024Y22228D01*
X27031Y22227D01*
X27038Y22228D01*
X27045Y22231D01*
X27051Y22235D01*
X27051Y22235D01*
X27056Y22236D01*
X27059Y22234D01*
X27065Y22231D01*
X27072Y22230D01*
X27079Y22231D01*
X27086Y22234D01*
X27090Y22237D01*
X27092Y22234D01*
X27098Y22230D01*
X27104Y22227D01*
X27111Y22226D01*
X27118Y22227D01*
X27125Y22230D01*
X27131Y22234D01*
X27132Y22234D01*
X27137Y22231D01*
X27143Y22228D01*
X27150Y22227D01*
X27157Y22228D01*
X27164Y22231D01*
X27169Y22235D01*
X27171Y22232D01*
X27177Y22228D01*
X27183Y22225D01*
X27190Y22224D01*
X27197Y22225D01*
X27204Y22228D01*
X27209Y22232D01*
X27215Y22227D01*
X27222Y22224D01*
X27230Y22223D01*
X27238Y22224D01*
X27245Y22227D01*
X27252Y22232D01*
X27256Y22238D01*
X27260Y22246D01*
X27261Y22253D01*
X27260Y22261D01*
X27259Y22262D01*
X27259Y22263D01*
X27268Y22264D01*
X27277Y22268D01*
X27284Y22273D01*
X27290Y22280D01*
X27293Y22289D01*
X27294Y22298D01*
X27293Y22307D01*
X27290Y22315D01*
X27284Y22323D01*
X27277Y22328D01*
X27268Y22332D01*
X27259Y22333D01*
X27257Y22333D01*
X27254Y22337D01*
X27257Y22342D01*
X27258Y22349D01*
X27257Y22356D01*
X27254Y22363D01*
X27250Y22369D01*
X27244Y22373D01*
X27237Y22376D01*
X27230Y22377D01*
D02*
G37*
G36*
X26738Y22496D02*
X26736Y22496D01*
X26730Y22493D01*
X26724Y22489D01*
X26720Y22483D01*
X26717Y22476D01*
X26717Y22474D01*
X26738D01*
Y22496D01*
D02*
G37*
G36*
X26748D02*
Y22474D01*
X26770D01*
X26770Y22476D01*
X26767Y22483D01*
X26763Y22489D01*
X26757Y22493D01*
X26750Y22496D01*
X26748Y22496D01*
D02*
G37*
G36*
X26738Y22464D02*
X26717D01*
X26717Y22462D01*
X26720Y22456D01*
X26724Y22450D01*
X26730Y22446D01*
X26736Y22443D01*
X26738Y22443D01*
Y22464D01*
D02*
G37*
G36*
X26770D02*
X26748D01*
Y22443D01*
X26750Y22443D01*
X26757Y22446D01*
X26763Y22450D01*
X26767Y22456D01*
X26770Y22462D01*
X26770Y22464D01*
D02*
G37*
G36*
X27250Y16903D02*
Y16879D01*
X27275D01*
X27274Y16882D01*
X27271Y16889D01*
X27267Y16895D01*
X27260Y16900D01*
X27253Y16903D01*
X27250Y16903D01*
D02*
G37*
G36*
X27310Y22077D02*
Y22055D01*
X27332D01*
X27332Y22057D01*
X27329Y22064D01*
X27325Y22070D01*
X27319Y22074D01*
X27312Y22077D01*
X27310Y22077D01*
D02*
G37*
G36*
X27150Y16903D02*
Y16879D01*
X27175D01*
X27174Y16882D01*
X27171Y16889D01*
X27167Y16895D01*
X27160Y16900D01*
X27153Y16903D01*
X27150Y16903D01*
D02*
G37*
G36*
X27240D02*
X27237Y16903D01*
X27230Y16900D01*
X27224Y16895D01*
X27219Y16889D01*
X27216Y16882D01*
X27216Y16879D01*
X27240D01*
Y16903D01*
D02*
G37*
G36*
X27075Y22079D02*
X27073Y22079D01*
X27067Y22076D01*
X27061Y22072D01*
X27057Y22066D01*
X27054Y22059D01*
X27054Y22057D01*
X27075D01*
Y22079D01*
D02*
G37*
G36*
X26895Y22144D02*
X26888Y22143D01*
X26882Y22140D01*
X26876Y22136D01*
X26872Y22130D01*
X26869Y22123D01*
X26867Y22124D01*
X26862Y22126D01*
X26855Y22127D01*
X26848Y22126D01*
X26842Y22123D01*
X26836Y22119D01*
X26832Y22113D01*
X26830Y22110D01*
X26827Y22109D01*
X26820Y22112D01*
X26813Y22113D01*
X26806Y22112D01*
X26800Y22109D01*
X26794Y22105D01*
X26790Y22099D01*
X26787Y22092D01*
X26786Y22085D01*
X26787Y22078D01*
X26790Y22072D01*
X26794Y22066D01*
X26800Y22062D01*
X26806Y22059D01*
X26813Y22058D01*
X26820Y22059D01*
X26827Y22062D01*
X26833Y22066D01*
X26837Y22072D01*
X26838Y22075D01*
X26842Y22076D01*
X26848Y22073D01*
X26855Y22072D01*
X26862Y22073D01*
X26869Y22076D01*
X26875Y22080D01*
X26879Y22086D01*
X26882Y22092D01*
X26883Y22092D01*
X26888Y22090D01*
X26895Y22089D01*
X26902Y22090D01*
X26909Y22093D01*
X26915Y22097D01*
X26919Y22103D01*
X26922Y22109D01*
X26923Y22116D01*
X26922Y22123D01*
X26919Y22130D01*
X26915Y22136D01*
X26909Y22140D01*
X26902Y22143D01*
X26895Y22144D01*
D02*
G37*
G36*
X26950Y22148D02*
X26929D01*
X26929Y22146D01*
X26932Y22140D01*
X26936Y22134D01*
X26942Y22130D01*
X26948Y22127D01*
X26950Y22127D01*
Y22148D01*
D02*
G37*
G36*
X26437Y22083D02*
X26435Y22083D01*
X26429Y22080D01*
X26423Y22076D01*
X26419Y22070D01*
X26416Y22064D01*
X26416Y22062D01*
X26437D01*
Y22083D01*
D02*
G37*
G36*
X26731D02*
Y22062D01*
X26753D01*
X26752Y22064D01*
X26750Y22070D01*
X26745Y22076D01*
X26740Y22080D01*
X26733Y22083D01*
X26731Y22083D01*
D02*
G37*
G36*
X26765Y16853D02*
X26762Y16853D01*
X26755Y16850D01*
X26749Y16845D01*
X26744Y16839D01*
X26741Y16832D01*
X26741Y16829D01*
X26765D01*
Y16853D01*
D02*
G37*
G36*
X26775D02*
Y16829D01*
X26800D01*
X26799Y16832D01*
X26796Y16839D01*
X26792Y16845D01*
X26785Y16850D01*
X26778Y16853D01*
X26775Y16853D01*
D02*
G37*
G36*
X26665D02*
X26662Y16853D01*
X26655Y16850D01*
X26649Y16845D01*
X26644Y16839D01*
X26641Y16832D01*
X26641Y16829D01*
X26665D01*
Y16853D01*
D02*
G37*
G36*
X26675D02*
Y16829D01*
X26700D01*
X26699Y16832D01*
X26696Y16839D01*
X26692Y16845D01*
X26685Y16850D01*
X26678Y16853D01*
X26675Y16853D01*
D02*
G37*
G36*
X27090D02*
X27087Y16853D01*
X27080Y16850D01*
X27074Y16845D01*
X27069Y16839D01*
X27066Y16832D01*
X27066Y16829D01*
X27090D01*
Y16853D01*
D02*
G37*
G36*
X27200D02*
Y16829D01*
X27225D01*
X27224Y16832D01*
X27221Y16839D01*
X27217Y16845D01*
X27210Y16850D01*
X27203Y16853D01*
X27200Y16853D01*
D02*
G37*
G36*
X27290D02*
X27287Y16853D01*
X27280Y16850D01*
X27274Y16845D01*
X27269Y16839D01*
X27266Y16832D01*
X27266Y16829D01*
X27290D01*
Y16853D01*
D02*
G37*
G36*
X27100D02*
Y16829D01*
X27125D01*
X27124Y16832D01*
X27121Y16839D01*
X27117Y16845D01*
X27110Y16850D01*
X27103Y16853D01*
X27100Y16853D01*
D02*
G37*
G36*
X27190D02*
X27187Y16853D01*
X27180Y16850D01*
X27174Y16845D01*
X27169Y16839D01*
X27166Y16832D01*
X27166Y16829D01*
X27190D01*
Y16853D01*
D02*
G37*
G36*
X26275D02*
Y16829D01*
X26300D01*
X26299Y16832D01*
X26296Y16839D01*
X26292Y16845D01*
X26285Y16850D01*
X26278Y16853D01*
X26275Y16853D01*
D02*
G37*
G36*
X26365D02*
X26362Y16853D01*
X26355Y16850D01*
X26349Y16845D01*
X26344Y16839D01*
X26341Y16832D01*
X26341Y16829D01*
X26365D01*
Y16853D01*
D02*
G37*
G36*
X27325Y16819D02*
X27300D01*
Y16794D01*
X27303Y16794D01*
X27310Y16797D01*
X27317Y16802D01*
X27321Y16809D01*
X27324Y16816D01*
X27325Y16819D01*
D02*
G37*
G36*
X26265Y16853D02*
X26262Y16853D01*
X26255Y16850D01*
X26249Y16845D01*
X26244Y16839D01*
X26241Y16832D01*
X26241Y16829D01*
X26265D01*
Y16853D01*
D02*
G37*
G36*
X26375D02*
Y16829D01*
X26400D01*
X26399Y16832D01*
X26396Y16839D01*
X26392Y16845D01*
X26385Y16850D01*
X26378Y16853D01*
X26375Y16853D01*
D02*
G37*
G36*
X26565D02*
X26562Y16853D01*
X26555Y16850D01*
X26549Y16845D01*
X26544Y16839D01*
X26541Y16832D01*
X26541Y16829D01*
X26565D01*
Y16853D01*
D02*
G37*
G36*
X26575D02*
Y16829D01*
X26600D01*
X26599Y16832D01*
X26596Y16839D01*
X26592Y16845D01*
X26585Y16850D01*
X26578Y16853D01*
X26575Y16853D01*
D02*
G37*
G36*
X26465D02*
X26462Y16853D01*
X26455Y16850D01*
X26449Y16845D01*
X26444Y16839D01*
X26441Y16832D01*
X26441Y16829D01*
X26465D01*
Y16853D01*
D02*
G37*
G36*
X26475D02*
Y16829D01*
X26500D01*
X26499Y16832D01*
X26496Y16839D01*
X26492Y16845D01*
X26485Y16850D01*
X26478Y16853D01*
X26475Y16853D01*
D02*
G37*
G36*
X26815Y16869D02*
X26791D01*
X26791Y16866D01*
X26794Y16859D01*
X26799Y16852D01*
X26805Y16847D01*
X26812Y16844D01*
X26815Y16844D01*
Y16869D01*
D02*
G37*
G36*
X26850D02*
X26825D01*
Y16844D01*
X26828Y16844D01*
X26835Y16847D01*
X26842Y16852D01*
X26846Y16859D01*
X26849Y16866D01*
X26850Y16869D01*
D02*
G37*
G36*
X26715D02*
X26691D01*
X26691Y16866D01*
X26694Y16859D01*
X26699Y16852D01*
X26705Y16847D01*
X26712Y16844D01*
X26715Y16844D01*
Y16869D01*
D02*
G37*
G36*
X26750D02*
X26725D01*
Y16844D01*
X26728Y16844D01*
X26735Y16847D01*
X26742Y16852D01*
X26746Y16859D01*
X26749Y16866D01*
X26750Y16869D01*
D02*
G37*
G36*
X27040D02*
X27016D01*
X27016Y16866D01*
X27019Y16859D01*
X27024Y16852D01*
X27030Y16847D01*
X27037Y16844D01*
X27040Y16844D01*
Y16869D01*
D02*
G37*
G36*
X27175D02*
X27150D01*
Y16844D01*
X27153Y16844D01*
X27160Y16847D01*
X27167Y16852D01*
X27171Y16859D01*
X27174Y16866D01*
X27175Y16869D01*
D02*
G37*
G36*
X27240D02*
X27216D01*
X27216Y16866D01*
X27219Y16859D01*
X27224Y16852D01*
X27230Y16847D01*
X27237Y16844D01*
X27240Y16844D01*
Y16869D01*
D02*
G37*
G36*
X27075D02*
X27050D01*
Y16844D01*
X27053Y16844D01*
X27060Y16847D01*
X27067Y16852D01*
X27071Y16859D01*
X27074Y16866D01*
X27075Y16869D01*
D02*
G37*
G36*
X27140D02*
X27116D01*
X27116Y16866D01*
X27119Y16859D01*
X27124Y16852D01*
X27130Y16847D01*
X27137Y16844D01*
X27140Y16844D01*
Y16869D01*
D02*
G37*
G36*
X26350D02*
X26325D01*
Y16844D01*
X26328Y16844D01*
X26335Y16847D01*
X26342Y16852D01*
X26346Y16859D01*
X26349Y16866D01*
X26350Y16869D01*
D02*
G37*
G36*
X26415D02*
X26391D01*
X26391Y16866D01*
X26394Y16859D01*
X26399Y16852D01*
X26405Y16847D01*
X26412Y16844D01*
X26415Y16844D01*
Y16869D01*
D02*
G37*
G36*
X27300Y16853D02*
Y16829D01*
X27325D01*
X27324Y16832D01*
X27321Y16839D01*
X27317Y16845D01*
X27310Y16850D01*
X27303Y16853D01*
X27300Y16853D01*
D02*
G37*
G36*
X26315Y16869D02*
X26291D01*
X26291Y16866D01*
X26294Y16859D01*
X26299Y16852D01*
X26305Y16847D01*
X26312Y16844D01*
X26315Y16844D01*
Y16869D01*
D02*
G37*
G36*
X26450D02*
X26425D01*
Y16844D01*
X26428Y16844D01*
X26435Y16847D01*
X26442Y16852D01*
X26446Y16859D01*
X26449Y16866D01*
X26450Y16869D01*
D02*
G37*
G36*
X26615D02*
X26591D01*
X26591Y16866D01*
X26594Y16859D01*
X26599Y16852D01*
X26605Y16847D01*
X26612Y16844D01*
X26615Y16844D01*
Y16869D01*
D02*
G37*
G36*
X26650D02*
X26625D01*
Y16844D01*
X26628Y16844D01*
X26635Y16847D01*
X26642Y16852D01*
X26646Y16859D01*
X26649Y16866D01*
X26650Y16869D01*
D02*
G37*
G36*
X26515D02*
X26491D01*
X26491Y16866D01*
X26494Y16859D01*
X26499Y16852D01*
X26505Y16847D01*
X26512Y16844D01*
X26515Y16844D01*
Y16869D01*
D02*
G37*
G36*
X26550D02*
X26525D01*
Y16844D01*
X26528Y16844D01*
X26535Y16847D01*
X26542Y16852D01*
X26546Y16859D01*
X26549Y16866D01*
X26550Y16869D01*
D02*
G37*
%LPD*%
D16*
X31094Y22868D02*
X31594D01*
X31344Y22618D02*
Y23118D01*
X31394Y22868D02*
Y22918D01*
X31344D02*
X31394D01*
X31294Y22818D02*
Y22868D01*
Y22818D02*
X31344D01*
X31299Y22863D02*
X31339D01*
X31299Y22823D02*
Y22863D01*
Y22823D02*
X31339D01*
Y22863D01*
X31304Y22858D02*
X31334D01*
X31304Y22828D02*
Y22858D01*
Y22828D02*
X31334D01*
Y22853D01*
X31309D02*
X31329D01*
X31309Y22833D02*
Y22853D01*
Y22833D02*
X31329D01*
Y22848D01*
X31314D02*
X31324D01*
X31314Y22838D02*
Y22848D01*
Y22838D02*
X31324D01*
Y22848D01*
X31314Y22843D02*
X31324D01*
X31349Y22913D02*
X31389D01*
X31349Y22873D02*
Y22913D01*
Y22873D02*
X31389D01*
Y22913D01*
X31354Y22908D02*
X31384D01*
X31354Y22878D02*
Y22908D01*
Y22878D02*
X31384D01*
Y22903D01*
X31359D02*
X31379D01*
X31359Y22883D02*
Y22903D01*
Y22883D02*
X31379D01*
Y22898D01*
X31364D02*
X31374D01*
X31364Y22888D02*
Y22898D01*
Y22888D02*
X31374D01*
Y22898D01*
X31364Y22893D02*
X31374D01*
X24895Y22828D02*
X25395D01*
X25145Y22578D02*
Y23078D01*
X25195Y22828D02*
Y22878D01*
X25145D02*
X25195D01*
X25095Y22778D02*
Y22828D01*
Y22778D02*
X25145D01*
X25100Y22823D02*
X25140D01*
X25100Y22783D02*
Y22823D01*
Y22783D02*
X25140D01*
Y22823D01*
X25105Y22818D02*
X25135D01*
X25105Y22788D02*
Y22818D01*
Y22788D02*
X25135D01*
Y22813D01*
X25110D02*
X25130D01*
X25110Y22793D02*
Y22813D01*
Y22793D02*
X25130D01*
Y22808D01*
X25115D02*
X25125D01*
X25115Y22798D02*
Y22808D01*
Y22798D02*
X25125D01*
Y22808D01*
X25115Y22803D02*
X25125D01*
X25150Y22873D02*
X25190D01*
X25150Y22833D02*
Y22873D01*
Y22833D02*
X25190D01*
Y22873D01*
X25155Y22868D02*
X25185D01*
X25155Y22838D02*
Y22868D01*
Y22838D02*
X25185D01*
Y22863D01*
X25160D02*
X25180D01*
X25160Y22843D02*
Y22863D01*
Y22843D02*
X25180D01*
Y22858D01*
X25165D02*
X25175D01*
X25165Y22848D02*
Y22858D01*
Y22848D02*
X25175D01*
Y22858D01*
X25165Y22853D02*
X25175D01*
X25030Y14069D02*
X25530D01*
X25280Y13819D02*
Y14319D01*
X25330Y14069D02*
Y14119D01*
X25280D02*
X25330D01*
X25230Y14019D02*
Y14069D01*
Y14019D02*
X25280D01*
X25235Y14064D02*
X25275D01*
X25235Y14024D02*
Y14064D01*
Y14024D02*
X25275D01*
Y14064D01*
X25240Y14059D02*
X25270D01*
X25240Y14029D02*
Y14059D01*
Y14029D02*
X25270D01*
Y14054D01*
X25245D02*
X25265D01*
X25245Y14034D02*
Y14054D01*
Y14034D02*
X25265D01*
Y14049D01*
X25250D02*
X25260D01*
X25250Y14039D02*
Y14049D01*
Y14039D02*
X25260D01*
Y14049D01*
X25250Y14044D02*
X25260D01*
X25285Y14114D02*
X25325D01*
X25285Y14074D02*
Y14114D01*
Y14074D02*
X25325D01*
Y14114D01*
X25290Y14109D02*
X25320D01*
X25290Y14079D02*
Y14109D01*
Y14079D02*
X25320D01*
Y14104D01*
X25295D02*
X25315D01*
X25295Y14084D02*
Y14104D01*
Y14084D02*
X25315D01*
Y14099D01*
X25300D02*
X25310D01*
X25300Y14089D02*
Y14099D01*
Y14089D02*
X25310D01*
Y14099D01*
X25300Y14094D02*
X25310D01*
D18*
X25946Y14368D02*
Y14322D01*
X25927Y14357D02*
X25965Y14334D01*
Y14357D02*
X25927Y14334D01*
X25985Y14296D02*
X25981Y14292D01*
X25985Y14288D01*
X25989Y14292D01*
X25985Y14296D01*
X26063Y14349D02*
X26060Y14357D01*
X26052Y14364D01*
X26044Y14368D01*
X26029D01*
X26022Y14364D01*
X26014Y14357D01*
X26010Y14349D01*
X26006Y14338D01*
Y14319D01*
X26010Y14307D01*
X26014Y14299D01*
X26022Y14292D01*
X26029Y14288D01*
X26044D01*
X26052Y14292D01*
X26060Y14299D01*
X26063Y14307D01*
Y14319D01*
X26044D02*
X26063D01*
X26089Y14368D02*
X26131D01*
X26108Y14338D01*
X26120D01*
X26127Y14334D01*
X26131Y14330D01*
X26135Y14319D01*
Y14311D01*
X26131Y14299D01*
X26124Y14292D01*
X26112Y14288D01*
X26101D01*
X26089Y14292D01*
X26086Y14296D01*
X26082Y14303D01*
X26216Y14322D02*
X26284D01*
X26371Y14368D02*
Y14288D01*
Y14368D02*
X26401Y14288D01*
X26432Y14368D02*
X26401Y14288D01*
X26432Y14368D02*
Y14288D01*
X26455Y14368D02*
Y14288D01*
X26471Y14368D02*
Y14288D01*
Y14368D02*
X26498D01*
X26509Y14364D01*
X26517Y14357D01*
X26521Y14349D01*
X26525Y14338D01*
Y14319D01*
X26521Y14307D01*
X26517Y14299D01*
X26509Y14292D01*
X26498Y14288D01*
X26471D01*
X26605Y14368D02*
Y14288D01*
X26651D01*
X26721D02*
X26690Y14368D01*
X26660Y14288D01*
X26671Y14315D02*
X26709D01*
X26740Y14368D02*
X26770Y14330D01*
Y14288D01*
X26800Y14368D02*
X26770Y14330D01*
X26860Y14368D02*
X26811D01*
Y14288D01*
X26860D01*
X26811Y14330D02*
X26841D01*
X26874Y14368D02*
Y14288D01*
Y14368D02*
X26908D01*
X26919Y14364D01*
X26923Y14360D01*
X26927Y14353D01*
Y14345D01*
X26923Y14338D01*
X26919Y14334D01*
X26908Y14330D01*
X26874D01*
X26900D02*
X26927Y14288D01*
X27015Y14368D02*
X27057D01*
X27034Y14338D01*
X27046D01*
X27053Y14334D01*
X27057Y14330D01*
X27061Y14319D01*
Y14311D01*
X27057Y14299D01*
X27050Y14292D01*
X27038Y14288D01*
X27027D01*
X27015Y14292D01*
X27011Y14296D01*
X27008Y14303D01*
X27199Y14349D02*
X27195Y14357D01*
X27187Y14364D01*
X27180Y14368D01*
X27165D01*
X27157Y14364D01*
X27149Y14357D01*
X27146Y14349D01*
X27142Y14338D01*
Y14319D01*
X27146Y14307D01*
X27149Y14299D01*
X27157Y14292D01*
X27165Y14288D01*
X27180D01*
X27187Y14292D01*
X27195Y14299D01*
X27199Y14307D01*
Y14319D01*
X27180D02*
X27199D01*
X27267Y14368D02*
X27217D01*
Y14288D01*
X27267D01*
X27217Y14330D02*
X27248D01*
X27280Y14368D02*
Y14288D01*
Y14368D02*
X27314D01*
X27326Y14364D01*
X27329Y14360D01*
X27333Y14353D01*
Y14345D01*
X27329Y14338D01*
X27326Y14334D01*
X27314Y14330D01*
X27280D01*
X27307D02*
X27333Y14288D01*
X27351Y14368D02*
Y14288D01*
Y14368D02*
X27385D01*
X27397Y14364D01*
X27401Y14360D01*
X27405Y14353D01*
Y14345D01*
X27401Y14338D01*
X27397Y14334D01*
X27385Y14330D01*
X27351D02*
X27385D01*
X27397Y14326D01*
X27401Y14322D01*
X27405Y14315D01*
Y14303D01*
X27401Y14296D01*
X27397Y14292D01*
X27385Y14288D01*
X27351D01*
X27472Y14368D02*
X27422D01*
Y14288D01*
X27472D01*
X27422Y14330D02*
X27453D01*
X27485Y14368D02*
Y14288D01*
Y14368D02*
X27520D01*
X27531Y14364D01*
X27535Y14360D01*
X27539Y14353D01*
Y14345D01*
X27535Y14338D01*
X27531Y14334D01*
X27520Y14330D01*
X27485D01*
X27512D02*
X27539Y14288D01*
X27619Y14368D02*
Y14288D01*
Y14368D02*
X27646D01*
X27657Y14364D01*
X27665Y14357D01*
X27669Y14349D01*
X27673Y14338D01*
Y14319D01*
X27669Y14307D01*
X27665Y14299D01*
X27657Y14292D01*
X27646Y14288D01*
X27619D01*
X27751D02*
X27721Y14368D01*
X27691Y14288D01*
X27702Y14315D02*
X27740D01*
X27797Y14368D02*
Y14288D01*
X27770Y14368D02*
X27823D01*
X27894Y14288D02*
X27863Y14368D01*
X27833Y14288D01*
X27844Y14315D02*
X27883D01*
D19*
X25874Y14880D02*
Y14800D01*
X25920D01*
X25989D02*
X25959Y14880D01*
X25928Y14800D01*
X25940Y14827D02*
X25978D01*
X26061Y14868D02*
X26054Y14876D01*
X26042Y14880D01*
X26027D01*
X26016Y14876D01*
X26008Y14868D01*
Y14861D01*
X26012Y14853D01*
X26016Y14849D01*
X26023Y14846D01*
X26046Y14838D01*
X26054Y14834D01*
X26057Y14830D01*
X26061Y14823D01*
Y14811D01*
X26054Y14804D01*
X26042Y14800D01*
X26027D01*
X26016Y14804D01*
X26008Y14811D01*
X26199Y14861D02*
X26195Y14868D01*
X26188Y14876D01*
X26180Y14880D01*
X26165D01*
X26157Y14876D01*
X26150Y14868D01*
X26146Y14861D01*
X26142Y14849D01*
Y14830D01*
X26146Y14819D01*
X26150Y14811D01*
X26157Y14804D01*
X26165Y14800D01*
X26180D01*
X26188Y14804D01*
X26195Y14811D01*
X26199Y14819D01*
X26222Y14880D02*
Y14823D01*
X26225Y14811D01*
X26233Y14804D01*
X26244Y14800D01*
X26252D01*
X26264Y14804D01*
X26271Y14811D01*
X26275Y14823D01*
Y14880D01*
X26297D02*
Y14800D01*
Y14880D02*
X26327Y14800D01*
X26358Y14880D02*
X26327Y14800D01*
X26358Y14880D02*
Y14800D01*
X26381Y14880D02*
Y14800D01*
Y14880D02*
X26415D01*
X26427Y14876D01*
X26430Y14872D01*
X26434Y14865D01*
Y14857D01*
X26430Y14849D01*
X26427Y14846D01*
X26415Y14842D01*
X26381D02*
X26415D01*
X26427Y14838D01*
X26430Y14834D01*
X26434Y14827D01*
Y14815D01*
X26430Y14808D01*
X26427Y14804D01*
X26415Y14800D01*
X26381D01*
X26452Y14880D02*
Y14800D01*
Y14880D02*
X26486D01*
X26498Y14876D01*
X26502Y14872D01*
X26505Y14865D01*
Y14857D01*
X26502Y14849D01*
X26498Y14846D01*
X26486Y14842D01*
X26452D01*
X26479D02*
X26505Y14800D01*
X26573Y14880D02*
X26523D01*
Y14800D01*
X26573D01*
X26523Y14842D02*
X26554D01*
X26639Y14868D02*
X26632Y14876D01*
X26620Y14880D01*
X26605D01*
X26594Y14876D01*
X26586Y14868D01*
Y14861D01*
X26590Y14853D01*
X26594Y14849D01*
X26601Y14846D01*
X26624Y14838D01*
X26632Y14834D01*
X26636Y14830D01*
X26639Y14823D01*
Y14811D01*
X26632Y14804D01*
X26620Y14800D01*
X26605D01*
X26594Y14804D01*
X26586Y14811D01*
X26743Y14880D02*
X26735Y14876D01*
X26728Y14868D01*
X26724Y14861D01*
X26720Y14849D01*
Y14830D01*
X26724Y14819D01*
X26728Y14811D01*
X26735Y14804D01*
X26743Y14800D01*
X26758D01*
X26766Y14804D01*
X26773Y14811D01*
X26777Y14819D01*
X26781Y14830D01*
Y14849D01*
X26777Y14861D01*
X26773Y14868D01*
X26766Y14876D01*
X26758Y14880D01*
X26743D01*
X26800D02*
Y14800D01*
Y14880D02*
X26834D01*
X26845Y14876D01*
X26849Y14872D01*
X26853Y14865D01*
Y14857D01*
X26849Y14849D01*
X26845Y14846D01*
X26834Y14842D01*
X26800D02*
X26834D01*
X26845Y14838D01*
X26849Y14834D01*
X26853Y14827D01*
Y14815D01*
X26849Y14808D01*
X26845Y14804D01*
X26834Y14800D01*
X26800D01*
X26924Y14868D02*
X26917Y14876D01*
X26905Y14880D01*
X26890D01*
X26879Y14876D01*
X26871Y14868D01*
Y14861D01*
X26875Y14853D01*
X26879Y14849D01*
X26886Y14846D01*
X26909Y14838D01*
X26917Y14834D01*
X26921Y14830D01*
X26924Y14823D01*
Y14811D01*
X26917Y14804D01*
X26905Y14800D01*
X26890D01*
X26879Y14804D01*
X26871Y14811D01*
X26992Y14880D02*
X26942D01*
Y14800D01*
X26992D01*
X26942Y14842D02*
X26973D01*
X27005Y14880D02*
Y14800D01*
Y14880D02*
X27039D01*
X27051Y14876D01*
X27055Y14872D01*
X27058Y14865D01*
Y14857D01*
X27055Y14849D01*
X27051Y14846D01*
X27039Y14842D01*
X27005D01*
X27032D02*
X27058Y14800D01*
X27076Y14880D02*
X27107Y14800D01*
X27137Y14880D02*
X27107Y14800D01*
X27208D02*
X27178Y14880D01*
X27148Y14800D01*
X27159Y14827D02*
X27197D01*
X27254Y14880D02*
Y14800D01*
X27227Y14880D02*
X27280D01*
X27313D02*
X27305Y14876D01*
X27298Y14868D01*
X27294Y14861D01*
X27290Y14849D01*
Y14830D01*
X27294Y14819D01*
X27298Y14811D01*
X27305Y14804D01*
X27313Y14800D01*
X27328D01*
X27336Y14804D01*
X27343Y14811D01*
X27347Y14819D01*
X27351Y14830D01*
Y14849D01*
X27347Y14861D01*
X27343Y14868D01*
X27336Y14876D01*
X27328Y14880D01*
X27313D01*
X27370D02*
Y14800D01*
Y14880D02*
X27404D01*
X27415Y14876D01*
X27419Y14872D01*
X27423Y14865D01*
Y14857D01*
X27419Y14849D01*
X27415Y14846D01*
X27404Y14842D01*
X27370D01*
X27396D02*
X27423Y14800D01*
X27441Y14880D02*
X27471Y14842D01*
Y14800D01*
X27502Y14880D02*
X27471Y14842D01*
X27880Y14880D02*
X27841Y14800D01*
X27826Y14880D02*
X27880D01*
X27897Y14788D02*
X27951Y14880D01*
X27956Y14865D02*
X27964Y14868D01*
X27975Y14880D01*
Y14800D01*
X28015Y14865D02*
X28022Y14868D01*
X28034Y14880D01*
Y14800D01*
X28073Y14788D02*
X28127Y14880D01*
X28136Y14861D02*
Y14865D01*
X28140Y14872D01*
X28143Y14876D01*
X28151Y14880D01*
X28166D01*
X28174Y14876D01*
X28178Y14872D01*
X28182Y14865D01*
Y14857D01*
X28178Y14849D01*
X28170Y14838D01*
X28132Y14800D01*
X28185D01*
X28226Y14880D02*
X28215Y14876D01*
X28207Y14865D01*
X28203Y14846D01*
Y14834D01*
X28207Y14815D01*
X28215Y14804D01*
X28226Y14800D01*
X28234D01*
X28245Y14804D01*
X28253Y14815D01*
X28257Y14834D01*
Y14846D01*
X28253Y14865D01*
X28245Y14876D01*
X28234Y14880D01*
X28226D01*
X28275Y14865D02*
X28282Y14868D01*
X28294Y14880D01*
Y14800D01*
X28341Y14880D02*
X28383D01*
X28360Y14849D01*
X28371D01*
X28379Y14846D01*
X28383Y14842D01*
X28386Y14830D01*
Y14823D01*
X28383Y14811D01*
X28375Y14804D01*
X28364Y14800D01*
X28352D01*
X28341Y14804D01*
X28337Y14808D01*
X28333Y14815D01*
D20*
X25874Y15021D02*
X25881Y15025D01*
X25893Y15036D01*
Y14956D01*
X25986Y15036D02*
X25948Y14956D01*
X25933Y15036D02*
X25986D01*
X26049D02*
X26011D01*
X26008Y15002D01*
X26011Y15006D01*
X26023Y15010D01*
X26034D01*
X26046Y15006D01*
X26053Y14998D01*
X26057Y14987D01*
Y14979D01*
X26053Y14968D01*
X26046Y14960D01*
X26034Y14956D01*
X26023D01*
X26011Y14960D01*
X26008Y14964D01*
X26004Y14971D01*
X26075Y14991D02*
X26144D01*
X26190Y15036D02*
X26179Y15032D01*
X26171Y15021D01*
X26167Y15002D01*
Y14991D01*
X26171Y14971D01*
X26179Y14960D01*
X26190Y14956D01*
X26198D01*
X26209Y14960D01*
X26217Y14971D01*
X26220Y14991D01*
Y15002D01*
X26217Y15021D01*
X26209Y15032D01*
X26198Y15036D01*
X26190D01*
X26261D02*
X26250Y15032D01*
X26242Y15021D01*
X26238Y15002D01*
Y14991D01*
X26242Y14971D01*
X26250Y14960D01*
X26261Y14956D01*
X26269D01*
X26280Y14960D01*
X26288Y14971D01*
X26292Y14991D01*
Y15002D01*
X26288Y15021D01*
X26280Y15032D01*
X26269Y15036D01*
X26261D01*
X26332D02*
X26321Y15032D01*
X26313Y15021D01*
X26310Y15002D01*
Y14991D01*
X26313Y14971D01*
X26321Y14960D01*
X26332Y14956D01*
X26340D01*
X26351Y14960D01*
X26359Y14971D01*
X26363Y14991D01*
Y15002D01*
X26359Y15021D01*
X26351Y15032D01*
X26340Y15036D01*
X26332D01*
X26388D02*
X26430D01*
X26407Y15006D01*
X26419D01*
X26427Y15002D01*
X26430Y14998D01*
X26434Y14987D01*
Y14979D01*
X26430Y14968D01*
X26423Y14960D01*
X26411Y14956D01*
X26400D01*
X26388Y14960D01*
X26385Y14964D01*
X26381Y14971D01*
X26475Y15036D02*
X26463Y15032D01*
X26456Y15021D01*
X26452Y15002D01*
Y14991D01*
X26456Y14971D01*
X26463Y14960D01*
X26475Y14956D01*
X26483D01*
X26494Y14960D01*
X26502Y14971D01*
X26505Y14991D01*
Y15002D01*
X26502Y15021D01*
X26494Y15032D01*
X26483Y15036D01*
X26475D01*
X26586Y15010D02*
Y14956D01*
Y14987D02*
X26590Y14998D01*
X26598Y15006D01*
X26605Y15010D01*
X26617D01*
X26624Y14987D02*
X26670D01*
Y14994D01*
X26666Y15002D01*
X26662Y15006D01*
X26654Y15010D01*
X26643D01*
X26635Y15006D01*
X26628Y14998D01*
X26624Y14987D01*
Y14979D01*
X26628Y14968D01*
X26635Y14960D01*
X26643Y14956D01*
X26654D01*
X26662Y14960D01*
X26670Y14968D01*
X26687Y15010D02*
X26710Y14956D01*
X26732Y15010D02*
X26710Y14956D01*
X26753Y15036D02*
X26795D01*
X26772Y15006D01*
X26783D01*
X26791Y15002D01*
X26795Y14998D01*
X26799Y14987D01*
Y14979D01*
X26795Y14968D01*
X26787Y14960D01*
X26776Y14956D01*
X26764D01*
X26753Y14960D01*
X26749Y14964D01*
X26745Y14971D01*
X26824Y14960D02*
X26820Y14956D01*
X26817Y14960D01*
X26820Y14964D01*
X26824Y14960D01*
Y14952D01*
X26820Y14945D01*
X26817Y14941D01*
X26905Y15036D02*
Y14956D01*
Y15036D02*
X26954D01*
X26905Y14998D02*
X26935D01*
X26963Y15036D02*
Y14956D01*
X26980Y14987D02*
X27026D01*
Y14994D01*
X27022Y15002D01*
X27018Y15006D01*
X27010Y15010D01*
X26999D01*
X26991Y15006D01*
X26984Y14998D01*
X26980Y14987D01*
Y14979D01*
X26984Y14968D01*
X26991Y14960D01*
X26999Y14956D01*
X27010D01*
X27018Y14960D01*
X27026Y14968D01*
X27043Y15010D02*
X27085Y14956D01*
Y15010D02*
X27043Y14956D01*
X27221Y15017D02*
X27218Y15025D01*
X27210Y15032D01*
X27202Y15036D01*
X27187D01*
X27179Y15032D01*
X27172Y15025D01*
X27168Y15017D01*
X27164Y15006D01*
Y14987D01*
X27168Y14975D01*
X27172Y14968D01*
X27179Y14960D01*
X27187Y14956D01*
X27202D01*
X27210Y14960D01*
X27218Y14968D01*
X27221Y14975D01*
X27251Y15036D02*
X27255Y15032D01*
X27259Y15036D01*
X27255Y15040D01*
X27251Y15036D01*
X27255Y15010D02*
Y14956D01*
X27273Y15010D02*
Y14956D01*
Y14987D02*
X27277Y14998D01*
X27285Y15006D01*
X27292Y15010D01*
X27304D01*
X27357Y14998D02*
X27349Y15006D01*
X27341Y15010D01*
X27330D01*
X27322Y15006D01*
X27315Y14998D01*
X27311Y14987D01*
Y14979D01*
X27315Y14968D01*
X27322Y14960D01*
X27330Y14956D01*
X27341D01*
X27349Y14960D01*
X27357Y14968D01*
X27374Y15010D02*
Y14971D01*
X27378Y14960D01*
X27385Y14956D01*
X27397D01*
X27404Y14960D01*
X27416Y14971D01*
Y15010D02*
Y14956D01*
X27448Y15036D02*
Y14971D01*
X27452Y14960D01*
X27459Y14956D01*
X27467D01*
X27437Y15010D02*
X27463D01*
X27486Y14960D02*
X27482Y14956D01*
X27478Y14960D01*
X27482Y14964D01*
X27486Y14960D01*
Y14952D01*
X27482Y14945D01*
X27478Y14941D01*
X27620Y15025D02*
X27612Y15032D01*
X27601Y15036D01*
X27586D01*
X27574Y15032D01*
X27566Y15025D01*
Y15017D01*
X27570Y15010D01*
X27574Y15006D01*
X27582Y15002D01*
X27605Y14994D01*
X27612Y14991D01*
X27616Y14987D01*
X27620Y14979D01*
Y14968D01*
X27612Y14960D01*
X27601Y14956D01*
X27586D01*
X27574Y14960D01*
X27566Y14968D01*
X27645Y15036D02*
X27649Y15032D01*
X27653Y15036D01*
X27649Y15040D01*
X27645Y15036D01*
X27649Y15010D02*
Y14956D01*
X27667Y15010D02*
Y14956D01*
Y14994D02*
X27678Y15006D01*
X27686Y15010D01*
X27697D01*
X27705Y15006D01*
X27709Y14994D01*
Y14956D01*
X27737Y15036D02*
X27741Y15032D01*
X27745Y15036D01*
X27741Y15040D01*
X27737Y15036D01*
X27741Y15010D02*
Y14956D01*
X27801Y14998D02*
X27797Y15006D01*
X27786Y15010D01*
X27774D01*
X27763Y15006D01*
X27759Y14998D01*
X27763Y14991D01*
X27771Y14987D01*
X27790Y14983D01*
X27797Y14979D01*
X27801Y14971D01*
Y14968D01*
X27797Y14960D01*
X27786Y14956D01*
X27774D01*
X27763Y14960D01*
X27759Y14968D01*
X27829Y15036D02*
Y14971D01*
X27833Y14960D01*
X27841Y14956D01*
X27848D01*
X27818Y15010D02*
X27844D01*
X27860D02*
Y14956D01*
Y14987D02*
X27864Y14998D01*
X27871Y15006D01*
X27879Y15010D01*
X27890D01*
X27916D02*
X27909Y15006D01*
X27901Y14998D01*
X27897Y14987D01*
Y14979D01*
X27901Y14968D01*
X27909Y14960D01*
X27916Y14956D01*
X27928D01*
X27936Y14960D01*
X27943Y14968D01*
X27947Y14979D01*
Y14987D01*
X27943Y14998D01*
X27936Y15006D01*
X27928Y15010D01*
X27916D01*
D22*
X26905Y16124D02*
D03*
X27051Y16091D02*
D03*
X27022Y16218D02*
D03*
X27093Y15912D02*
D03*
X27151Y15786D02*
D03*
D27*
X26224Y16873D02*
D03*
D28*
X26720Y16874D02*
D03*
X26770Y16824D02*
D03*
X26270D02*
D03*
X26370D02*
D03*
X27295D02*
D03*
X27195D02*
D03*
X27095D02*
D03*
X27245Y16874D02*
D03*
X27145D02*
D03*
X27045D02*
D03*
X26470Y16824D02*
D03*
X26570D02*
D03*
X26670D02*
D03*
X26320Y16874D02*
D03*
X26420D02*
D03*
X26520D02*
D03*
X26620D02*
D03*
X26820D02*
D03*
D29*
X26679Y22057D02*
D03*
X26726D02*
D03*
X26631D02*
D03*
X26584Y22057D02*
D03*
X26537D02*
D03*
X26490Y22057D02*
D03*
X26442D02*
D03*
X27305Y22050D02*
D03*
X27262Y22051D02*
D03*
X27218D02*
D03*
X27173D02*
D03*
X27126Y22052D02*
D03*
X27080D02*
D03*
X26955Y22153D02*
D03*
X26743Y22469D02*
D03*
M02*
